%TF.GenerationSoftware,KiCad,Pcbnew,9.0.5*%
%TF.CreationDate,2026-07-21T08:29:26+02:00*%
%TF.ProjectId,buffer,62756666-6572-42e6-9b69-6361645f7063,rev?*%
%TF.SameCoordinates,Original*%
%TF.FileFunction,Copper,L1,Top*%
%TF.FilePolarity,Positive*%
%FSLAX46Y46*%
G04 Gerber Fmt 4.6, Leading zero omitted, Abs format (unit mm)*
G04 Created by KiCad (PCBNEW 9.0.5) date 2026-07-21 08:29:26*
%MOMM*%
%LPD*%
G01*
G04 APERTURE LIST*
G04 Aperture macros list*
%AMRoundRect*
0 Rectangle with rounded corners*
0 $1 Rounding radius*
0 $2 $3 $4 $5 $6 $7 $8 $9 X,Y pos of 4 corners*
0 Add a 4 corners polygon primitive as box body*
4,1,4,$2,$3,$4,$5,$6,$7,$8,$9,$2,$3,0*
0 Add four circle primitives for the rounded corners*
1,1,$1+$1,$2,$3*
1,1,$1+$1,$4,$5*
1,1,$1+$1,$6,$7*
1,1,$1+$1,$8,$9*
0 Add four rect primitives between the rounded corners*
20,1,$1+$1,$2,$3,$4,$5,0*
20,1,$1+$1,$4,$5,$6,$7,0*
20,1,$1+$1,$6,$7,$8,$9,0*
20,1,$1+$1,$8,$9,$2,$3,0*%
G04 Aperture macros list end*
%TA.AperFunction,SMDPad,CuDef*%
%ADD10RoundRect,0.200000X-0.200000X-0.275000X0.200000X-0.275000X0.200000X0.275000X-0.200000X0.275000X0*%
%TD*%
%TA.AperFunction,SMDPad,CuDef*%
%ADD11RoundRect,0.225000X-0.225000X-0.250000X0.225000X-0.250000X0.225000X0.250000X-0.225000X0.250000X0*%
%TD*%
%TA.AperFunction,ComponentPad*%
%ADD12C,2.400000*%
%TD*%
%TA.AperFunction,SMDPad,CuDef*%
%ADD13RoundRect,0.375000X-0.375000X0.625000X-0.375000X-0.625000X0.375000X-0.625000X0.375000X0.625000X0*%
%TD*%
%TA.AperFunction,SMDPad,CuDef*%
%ADD14RoundRect,0.500000X-1.400000X0.500000X-1.400000X-0.500000X1.400000X-0.500000X1.400000X0.500000X0*%
%TD*%
%TA.AperFunction,SMDPad,CuDef*%
%ADD15RoundRect,0.200000X-0.275000X0.200000X-0.275000X-0.200000X0.275000X-0.200000X0.275000X0.200000X0*%
%TD*%
%TA.AperFunction,SMDPad,CuDef*%
%ADD16RoundRect,0.200000X0.200000X0.275000X-0.200000X0.275000X-0.200000X-0.275000X0.200000X-0.275000X0*%
%TD*%
%TA.AperFunction,SMDPad,CuDef*%
%ADD17RoundRect,0.250000X1.000000X0.650000X-1.000000X0.650000X-1.000000X-0.650000X1.000000X-0.650000X0*%
%TD*%
%TA.AperFunction,ComponentPad*%
%ADD18RoundRect,0.250000X0.550000X-0.550000X0.550000X0.550000X-0.550000X0.550000X-0.550000X-0.550000X0*%
%TD*%
%TA.AperFunction,ComponentPad*%
%ADD19C,1.600000*%
%TD*%
%TA.AperFunction,SMDPad,CuDef*%
%ADD20RoundRect,0.225000X0.250000X-0.225000X0.250000X0.225000X-0.250000X0.225000X-0.250000X-0.225000X0*%
%TD*%
%TA.AperFunction,SMDPad,CuDef*%
%ADD21RoundRect,0.225000X-0.250000X0.225000X-0.250000X-0.225000X0.250000X-0.225000X0.250000X0.225000X0*%
%TD*%
%TA.AperFunction,ComponentPad*%
%ADD22RoundRect,0.250000X0.550000X0.550000X-0.550000X0.550000X-0.550000X-0.550000X0.550000X-0.550000X0*%
%TD*%
%TA.AperFunction,SMDPad,CuDef*%
%ADD23RoundRect,0.150000X-0.825000X-0.150000X0.825000X-0.150000X0.825000X0.150000X-0.825000X0.150000X0*%
%TD*%
%TA.AperFunction,Conductor*%
%ADD24C,0.200000*%
%TD*%
G04 APERTURE END LIST*
D10*
%TO.P,R5,2*%
%TO.N,Net-(C6-Pad1)*%
X176454298Y-91711840D03*
%TO.P,R5,1*%
%TO.N,Net-(U2B--)*%
X174804298Y-91711840D03*
%TD*%
D11*
%TO.P,C1,1*%
%TO.N,Net-(C1-Pad1)*%
X161046328Y-93630871D03*
%TO.P,C1,2*%
%TO.N,GND*%
X162596328Y-93630871D03*
%TD*%
D12*
%TO.P,BUFFER_IN1,1,1*%
%TO.N,Net-(BUFFER_IN1-Pad1)*%
X168026834Y-82291323D03*
%TD*%
%TO.P,OUT1,1,1*%
%TO.N,Net-(C6-Pad2)*%
X173645760Y-82291323D03*
%TD*%
%TO.P,9V1,1,1*%
%TO.N,+9V*%
X179000000Y-82291323D03*
%TD*%
%TO.P,GOUT1,1,1*%
%TO.N,Net-(U2A--)*%
X161403582Y-89356250D03*
%TD*%
D10*
%TO.P,R4,2*%
%TO.N,VREF*%
X176448831Y-93595573D03*
%TO.P,R4,1*%
%TO.N,Net-(U2B-+)*%
X174798831Y-93595573D03*
%TD*%
D13*
%TO.P,U1,1,GND*%
%TO.N,GND*%
X192300000Y-86000000D03*
%TO.P,U1,2,VO*%
%TO.N,5V*%
X190000000Y-86000000D03*
D14*
X190000000Y-92300000D03*
D13*
%TO.P,U1,3,VI*%
%TO.N,VCC*%
X187700000Y-86000000D03*
%TD*%
D15*
%TO.P,R8,1*%
%TO.N,GND*%
X188743730Y-94369012D03*
%TO.P,R8,2*%
%TO.N,VREF*%
X188743730Y-96019012D03*
%TD*%
%TO.P,R7,1*%
%TO.N,5V*%
X187118211Y-94369012D03*
%TO.P,R7,2*%
%TO.N,VREF*%
X187118211Y-96019012D03*
%TD*%
D10*
%TO.P,R6,1*%
%TO.N,GND*%
X176407450Y-87525354D03*
%TO.P,R6,2*%
%TO.N,Net-(C6-Pad2)*%
X178057450Y-87525354D03*
%TD*%
D16*
%TO.P,R3,1*%
%TO.N,Net-(BUFFER_IN1-Pad1)*%
X171830128Y-87817730D03*
%TO.P,R3,2*%
%TO.N,Net-(C4-Pad1)*%
X170180128Y-87817730D03*
%TD*%
%TO.P,R2,1*%
%TO.N,Net-(U2A-+)*%
X165731077Y-93622814D03*
%TO.P,R2,2*%
%TO.N,VREF*%
X164081077Y-93622814D03*
%TD*%
D10*
%TO.P,R1,1*%
%TO.N,Net-(C2-Pad2)*%
X164079373Y-92051577D03*
%TO.P,R1,2*%
%TO.N,Net-(U2A-+)*%
X165729373Y-92051577D03*
%TD*%
D12*
%TO.P,GIN1,1,1*%
%TO.N,Net-(C1-Pad1)*%
X161458433Y-97474846D03*
%TD*%
%TO.P,GND1,1,1*%
%TO.N,GND*%
X193670933Y-82733712D03*
%TD*%
D17*
%TO.P,D1,1,K*%
%TO.N,VCC*%
X186500000Y-82500000D03*
%TO.P,D1,2,A*%
%TO.N,+9V*%
X182500000Y-82500000D03*
%TD*%
D18*
%TO.P,C12,1*%
%TO.N,VREF*%
X181316266Y-96797030D03*
D19*
%TO.P,C12,2*%
%TO.N,GND*%
X181316266Y-94297030D03*
%TD*%
D20*
%TO.P,C10,1*%
%TO.N,5V*%
X194505052Y-92838741D03*
%TO.P,C10,2*%
%TO.N,GND*%
X194505052Y-91288741D03*
%TD*%
D21*
%TO.P,C8,1*%
%TO.N,VCC*%
X185509442Y-91304635D03*
%TO.P,C8,2*%
%TO.N,GND*%
X185509442Y-92854635D03*
%TD*%
D22*
%TO.P,C7,1*%
%TO.N,VCC*%
X183868330Y-87787238D03*
D19*
%TO.P,C7,2*%
%TO.N,GND*%
X181368330Y-87787238D03*
%TD*%
D20*
%TO.P,C6,1*%
%TO.N,Net-(C6-Pad1)*%
X178000000Y-90775000D03*
%TO.P,C6,2*%
%TO.N,Net-(C6-Pad2)*%
X178000000Y-89225000D03*
%TD*%
D11*
%TO.P,C5,1*%
%TO.N,Net-(C4-Pad1)*%
X170234971Y-95004097D03*
%TO.P,C5,2*%
%TO.N,Net-(U2B-+)*%
X171784971Y-95004097D03*
%TD*%
%TO.P,C4,1*%
%TO.N,Net-(C4-Pad1)*%
X170225447Y-96613126D03*
%TO.P,C4,2*%
%TO.N,GND*%
X171775447Y-96613126D03*
%TD*%
%TO.P,C3,1*%
%TO.N,Net-(U2A-+)*%
X166334978Y-95227123D03*
%TO.P,C3,2*%
%TO.N,GND*%
X167884978Y-95227123D03*
%TD*%
%TO.P,C2,1*%
%TO.N,Net-(C1-Pad1)*%
X161050793Y-92051577D03*
%TO.P,C2,2*%
%TO.N,Net-(C2-Pad2)*%
X162600793Y-92051577D03*
%TD*%
D12*
%TO.P,5V1,1,1*%
%TO.N,5V*%
X189987207Y-82739670D03*
%TD*%
D23*
%TO.P,U2,1*%
%TO.N,Net-(U2A--)*%
X167807672Y-89518310D03*
%TO.P,U2,2,-*%
X167807672Y-90788310D03*
%TO.P,U2,3,+*%
%TO.N,Net-(U2A-+)*%
X167807672Y-92058310D03*
%TO.P,U2,4,V-*%
%TO.N,GND*%
X167807672Y-93328310D03*
%TO.P,U2,5,+*%
%TO.N,Net-(U2B-+)*%
X172757672Y-93328310D03*
%TO.P,U2,6,-*%
%TO.N,Net-(U2B--)*%
X172757672Y-92058310D03*
%TO.P,U2,7*%
X172757672Y-90788310D03*
%TO.P,U2,8,V+*%
%TO.N,5V*%
X172757672Y-89518310D03*
%TD*%
D24*
%TO.N,Net-(C6-Pad1)*%
X176454298Y-91711840D02*
X177063160Y-91711840D01*
X177063160Y-91711840D02*
X178000000Y-90775000D01*
%TO.N,Net-(U2B--)*%
X174804298Y-91711840D02*
X173877849Y-90785391D01*
X173877849Y-90785391D02*
X172760591Y-90785391D01*
X172760591Y-90785391D02*
X172757672Y-90788310D01*
%TO.N,5V*%
X172757672Y-89518310D02*
X175106238Y-89518310D01*
X175587928Y-90000000D02*
X181500000Y-90000000D01*
X181500000Y-90000000D02*
X182500000Y-91000000D01*
X182500000Y-91000000D02*
X182500000Y-92500000D01*
X175106238Y-89518310D02*
X175587928Y-90000000D01*
X182500000Y-92500000D02*
X184369012Y-94369012D01*
X184369012Y-94369012D02*
X187118211Y-94369012D01*
%TO.N,Net-(C1-Pad1)*%
X161458433Y-97474846D02*
X161029093Y-97045506D01*
X161029093Y-97045506D02*
X161029093Y-93648106D01*
X161029093Y-93648106D02*
X161046328Y-93630871D01*
X161050793Y-92051577D02*
X161050793Y-93626406D01*
X161050793Y-93626406D02*
X161046328Y-93630871D01*
%TO.N,VREF*%
X187118211Y-96019012D02*
X188743730Y-96019012D01*
%TO.N,Net-(BUFFER_IN1-Pad1)*%
X168026834Y-82291323D02*
X168026834Y-82526834D01*
X168026834Y-82526834D02*
X171830128Y-86330128D01*
X171830128Y-86330128D02*
X171830128Y-87817730D01*
%TO.N,+9V*%
X179000000Y-82291323D02*
X182291323Y-82291323D01*
X182291323Y-82291323D02*
X182500000Y-82500000D01*
%TO.N,Net-(C6-Pad2)*%
X178057450Y-85753941D02*
X178057450Y-87525354D01*
X174570819Y-82267310D02*
X178057450Y-85753941D01*
X173645760Y-82267310D02*
X174570819Y-82267310D01*
%TO.N,5V*%
X194505052Y-92838741D02*
X190538741Y-92838741D01*
X190538741Y-92838741D02*
X190000000Y-92300000D01*
X189987207Y-82739670D02*
X189987207Y-85987207D01*
X189987207Y-85987207D02*
X190000000Y-86000000D01*
%TO.N,VCC*%
X186500000Y-82500000D02*
X186500000Y-84800000D01*
X186500000Y-84800000D02*
X187700000Y-86000000D01*
%TO.N,Net-(C6-Pad2)*%
X178000000Y-89225000D02*
X178000000Y-87582804D01*
X178000000Y-87582804D02*
X178057450Y-87525354D01*
%TO.N,VREF*%
X164081077Y-93622814D02*
X164081077Y-95581077D01*
X164081077Y-95581077D02*
X166500000Y-98000000D01*
X176448831Y-95051169D02*
X176448831Y-93595573D01*
X166500000Y-98000000D02*
X173500000Y-98000000D01*
X173500000Y-98000000D02*
X176448831Y-95051169D01*
%TO.N,VCC*%
X185509442Y-91304635D02*
X185509442Y-89428350D01*
X185509442Y-89428350D02*
X183868330Y-87787238D01*
X187700000Y-86000000D02*
X185655568Y-86000000D01*
X185655568Y-86000000D02*
X183868330Y-87787238D01*
%TO.N,5V*%
X190000000Y-86000000D02*
X190000000Y-92300000D01*
X187118211Y-94369012D02*
X189187223Y-92300000D01*
X189187223Y-92300000D02*
X190000000Y-92300000D01*
%TO.N,VREF*%
X187118211Y-96019012D02*
X182094284Y-96019012D01*
X182094284Y-96019012D02*
X181316266Y-96797030D01*
X181316266Y-96797030D02*
X179650288Y-96797030D01*
X179650288Y-96797030D02*
X176448831Y-93595573D01*
%TO.N,Net-(C1-Pad1)*%
X161050793Y-97067206D02*
X161458433Y-97474846D01*
%TO.N,Net-(U2A--)*%
X161403582Y-89356250D02*
X167645612Y-89356250D01*
X167645612Y-89356250D02*
X167807672Y-89518310D01*
X167807672Y-90788310D02*
X167807672Y-89518310D01*
%TO.N,Net-(C4-Pad1)*%
X170180128Y-87817730D02*
X170180128Y-94949254D01*
X170180128Y-94949254D02*
X170234971Y-95004097D01*
X170225447Y-96613126D02*
X170225447Y-95013621D01*
X170225447Y-95013621D02*
X170234971Y-95004097D01*
%TO.N,Net-(U2B-+)*%
X171784971Y-95004097D02*
X171784971Y-94301011D01*
X171784971Y-94301011D02*
X172757672Y-93328310D01*
X172757672Y-93328310D02*
X174531568Y-93328310D01*
X174531568Y-93328310D02*
X174798831Y-93595573D01*
%TO.N,Net-(U2B--)*%
X172757672Y-92058310D02*
X172757672Y-90788310D01*
%TO.N,Net-(C2-Pad2)*%
X164079373Y-92051577D02*
X162600793Y-92051577D01*
%TO.N,Net-(U2A-+)*%
X165729373Y-92051577D02*
X165729373Y-93621110D01*
X165729373Y-93621110D02*
X165731077Y-93622814D01*
X165729373Y-92051577D02*
X167800939Y-92051577D01*
X167800939Y-92051577D02*
X167807672Y-92058310D01*
X166334978Y-95227123D02*
X166334978Y-94226715D01*
X166334978Y-94226715D02*
X165731077Y-93622814D01*
%TD*%
%TA.AperFunction,Conductor*%
%TO.N,GND*%
G36*
X195458691Y-80019407D02*
G01*
X195494655Y-80068907D01*
X195499500Y-80099500D01*
X195499500Y-99400500D01*
X195480593Y-99458691D01*
X195431093Y-99494655D01*
X195400500Y-99499500D01*
X159599500Y-99499500D01*
X159541309Y-99480593D01*
X159505345Y-99431093D01*
X159500500Y-99400500D01*
X159500500Y-97364620D01*
X160057933Y-97364620D01*
X160057933Y-97585071D01*
X160092417Y-97802794D01*
X160160535Y-98012445D01*
X160160537Y-98012448D01*
X160160538Y-98012452D01*
X160260618Y-98208868D01*
X160390191Y-98387211D01*
X160546068Y-98543088D01*
X160724411Y-98672661D01*
X160920827Y-98772741D01*
X161130482Y-98840861D01*
X161217573Y-98854655D01*
X161348208Y-98875346D01*
X161348211Y-98875346D01*
X161568658Y-98875346D01*
X161677519Y-98858103D01*
X161786384Y-98840861D01*
X161996039Y-98772741D01*
X162192455Y-98672661D01*
X162370798Y-98543088D01*
X162526675Y-98387211D01*
X162656248Y-98208868D01*
X162756328Y-98012452D01*
X162824448Y-97802797D01*
X162858933Y-97585068D01*
X162858933Y-97364624D01*
X162858933Y-97364620D01*
X162824448Y-97146897D01*
X162824448Y-97146895D01*
X162756328Y-96937240D01*
X162656248Y-96740824D01*
X162526675Y-96562481D01*
X162370798Y-96406604D01*
X162192455Y-96277031D01*
X162192454Y-96277030D01*
X162192452Y-96277029D01*
X162027073Y-96192764D01*
X161996039Y-96176951D01*
X161996035Y-96176950D01*
X161996032Y-96176948D01*
X161786381Y-96108830D01*
X161568658Y-96074346D01*
X161568655Y-96074346D01*
X161428593Y-96074346D01*
X161370402Y-96055439D01*
X161334438Y-96005939D01*
X161329593Y-95975346D01*
X161329593Y-94386841D01*
X161348500Y-94328650D01*
X161398000Y-94292686D01*
X161398005Y-94292685D01*
X161404449Y-94290590D01*
X161404454Y-94290590D01*
X161524548Y-94229399D01*
X161619856Y-94134091D01*
X161681047Y-94013997D01*
X161696828Y-93914359D01*
X161696828Y-93914324D01*
X161946328Y-93914324D01*
X161962088Y-94013836D01*
X161962090Y-94013840D01*
X162023209Y-94133792D01*
X162118406Y-94228989D01*
X162238358Y-94290108D01*
X162238357Y-94290108D01*
X162337873Y-94305870D01*
X162496328Y-94305870D01*
X162496328Y-93730872D01*
X162696328Y-93730872D01*
X162696328Y-94305869D01*
X162696329Y-94305870D01*
X162854781Y-94305870D01*
X162954293Y-94290110D01*
X162954297Y-94290108D01*
X163074249Y-94228989D01*
X163169446Y-94133792D01*
X163230565Y-94013840D01*
X163246328Y-93914324D01*
X163246328Y-93730872D01*
X163246327Y-93730871D01*
X162696329Y-93730871D01*
X162696328Y-93730872D01*
X162496328Y-93730872D01*
X162496327Y-93730871D01*
X161946330Y-93730871D01*
X161946329Y-93730872D01*
X161946329Y-93914324D01*
X161946328Y-93914324D01*
X161696828Y-93914324D01*
X161696828Y-93347417D01*
X161946328Y-93347417D01*
X161946328Y-93530870D01*
X161946329Y-93530871D01*
X162496327Y-93530871D01*
X162496328Y-93530870D01*
X162496328Y-92955872D01*
X162696328Y-92955872D01*
X162696328Y-93530870D01*
X162696329Y-93530871D01*
X163246326Y-93530871D01*
X163246327Y-93530870D01*
X163246327Y-93347421D01*
X163243234Y-93327889D01*
X163243234Y-93327886D01*
X163241398Y-93316291D01*
X163480577Y-93316291D01*
X163480577Y-93929334D01*
X163480578Y-93929337D01*
X163495429Y-94023113D01*
X163495431Y-94023118D01*
X163553027Y-94136156D01*
X163642735Y-94225864D01*
X163726523Y-94268556D01*
X163769787Y-94311820D01*
X163780577Y-94356765D01*
X163780577Y-95620641D01*
X163801055Y-95697065D01*
X163801057Y-95697069D01*
X163840615Y-95765585D01*
X163840617Y-95765588D01*
X166315489Y-98240460D01*
X166315491Y-98240461D01*
X166315493Y-98240463D01*
X166384008Y-98280020D01*
X166384006Y-98280020D01*
X166384010Y-98280021D01*
X166384012Y-98280022D01*
X166460438Y-98300500D01*
X166460440Y-98300500D01*
X173539563Y-98300500D01*
X173539563Y-98300499D01*
X173615989Y-98280021D01*
X173684511Y-98240460D01*
X173740460Y-98184511D01*
X176689291Y-95235680D01*
X176728853Y-95167157D01*
X176749331Y-95090731D01*
X176749331Y-95011607D01*
X176749331Y-94560052D01*
X176768238Y-94501861D01*
X176817738Y-94465897D01*
X176878924Y-94465897D01*
X176918335Y-94490048D01*
X179409828Y-96981541D01*
X179409827Y-96981541D01*
X179465777Y-97037490D01*
X179534295Y-97077049D01*
X179534299Y-97077051D01*
X179610723Y-97097529D01*
X179610725Y-97097530D01*
X179610726Y-97097530D01*
X179689850Y-97097530D01*
X180216766Y-97097530D01*
X180274957Y-97116437D01*
X180310921Y-97165937D01*
X180315766Y-97196530D01*
X180315766Y-97401304D01*
X180318619Y-97431724D01*
X180318621Y-97431733D01*
X180363473Y-97559913D01*
X180444111Y-97669174D01*
X180444113Y-97669176D01*
X180444116Y-97669180D01*
X180444119Y-97669182D01*
X180444121Y-97669184D01*
X180553382Y-97749822D01*
X180553383Y-97749822D01*
X180553384Y-97749823D01*
X180681567Y-97794676D01*
X180711991Y-97797529D01*
X180711993Y-97797530D01*
X180712000Y-97797530D01*
X181920539Y-97797530D01*
X181920539Y-97797529D01*
X181950965Y-97794676D01*
X182079148Y-97749823D01*
X182188416Y-97669180D01*
X182269059Y-97559912D01*
X182313912Y-97431729D01*
X182316765Y-97401303D01*
X182316766Y-97401303D01*
X182316766Y-96418512D01*
X182335673Y-96360321D01*
X182385173Y-96324357D01*
X182415766Y-96319512D01*
X186384260Y-96319512D01*
X186442451Y-96338419D01*
X186472468Y-96373564D01*
X186515161Y-96457354D01*
X186604869Y-96547062D01*
X186717907Y-96604658D01*
X186811692Y-96619512D01*
X187424729Y-96619511D01*
X187424731Y-96619511D01*
X187424732Y-96619510D01*
X187471622Y-96612084D01*
X187518510Y-96604659D01*
X187518510Y-96604658D01*
X187518515Y-96604658D01*
X187631553Y-96547062D01*
X187721261Y-96457354D01*
X187763953Y-96373565D01*
X187780343Y-96357175D01*
X187793971Y-96338419D01*
X187801568Y-96335950D01*
X187807217Y-96330302D01*
X187852162Y-96319512D01*
X188009779Y-96319512D01*
X188067970Y-96338419D01*
X188097987Y-96373564D01*
X188140680Y-96457354D01*
X188230388Y-96547062D01*
X188343426Y-96604658D01*
X188437211Y-96619512D01*
X189050248Y-96619511D01*
X189050250Y-96619511D01*
X189050251Y-96619510D01*
X189097141Y-96612084D01*
X189144029Y-96604659D01*
X189144029Y-96604658D01*
X189144034Y-96604658D01*
X189257072Y-96547062D01*
X189346780Y-96457354D01*
X189404376Y-96344316D01*
X189419230Y-96250531D01*
X189419229Y-95787494D01*
X189415759Y-95765585D01*
X189404377Y-95693712D01*
X189404376Y-95693710D01*
X189404376Y-95693708D01*
X189346780Y-95580670D01*
X189257072Y-95490962D01*
X189144034Y-95433366D01*
X189144035Y-95433366D01*
X189050252Y-95418512D01*
X188437209Y-95418512D01*
X188437206Y-95418513D01*
X188343430Y-95433364D01*
X188343425Y-95433366D01*
X188230389Y-95490961D01*
X188230388Y-95490962D01*
X188140680Y-95580670D01*
X188097987Y-95664458D01*
X188081597Y-95680848D01*
X188067970Y-95699605D01*
X188060372Y-95702073D01*
X188054724Y-95707722D01*
X188009779Y-95718512D01*
X187852162Y-95718512D01*
X187793971Y-95699605D01*
X187763953Y-95664459D01*
X187721261Y-95580670D01*
X187631553Y-95490962D01*
X187518515Y-95433366D01*
X187518516Y-95433366D01*
X187424733Y-95418512D01*
X186811690Y-95418512D01*
X186811687Y-95418513D01*
X186717911Y-95433364D01*
X186717906Y-95433366D01*
X186604870Y-95490961D01*
X186604869Y-95490962D01*
X186515161Y-95580670D01*
X186472468Y-95664458D01*
X186429205Y-95707722D01*
X186384260Y-95718512D01*
X182133846Y-95718512D01*
X182054722Y-95718512D01*
X182007945Y-95731045D01*
X181978291Y-95738991D01*
X181904153Y-95781796D01*
X181902912Y-95779647D01*
X181855322Y-95796496D01*
X181852737Y-95796530D01*
X180711991Y-95796530D01*
X180681571Y-95799383D01*
X180681562Y-95799385D01*
X180553382Y-95844237D01*
X180444121Y-95924875D01*
X180444111Y-95924885D01*
X180363473Y-96034146D01*
X180318621Y-96162326D01*
X180318619Y-96162335D01*
X180315766Y-96192755D01*
X180315766Y-96397530D01*
X180296859Y-96455721D01*
X180247359Y-96491685D01*
X180216766Y-96496530D01*
X179815767Y-96496530D01*
X179757576Y-96477623D01*
X179745763Y-96467534D01*
X177476765Y-94198536D01*
X180316266Y-94198536D01*
X180316266Y-94395523D01*
X180354695Y-94588718D01*
X180354695Y-94588720D01*
X180430075Y-94770705D01*
X180430078Y-94770711D01*
X180538658Y-94933212D01*
X180971680Y-94500190D01*
X180996186Y-94542636D01*
X181070660Y-94617110D01*
X181113102Y-94641614D01*
X180680082Y-95074635D01*
X180842590Y-95183220D01*
X181024576Y-95258600D01*
X181217772Y-95297029D01*
X181217776Y-95297030D01*
X181414756Y-95297030D01*
X181414759Y-95297029D01*
X181607954Y-95258600D01*
X181607956Y-95258600D01*
X181789941Y-95183220D01*
X181952448Y-95074635D01*
X181519427Y-94641614D01*
X181561872Y-94617110D01*
X181636346Y-94542636D01*
X181660850Y-94500191D01*
X182093871Y-94933212D01*
X182202456Y-94770705D01*
X182277836Y-94588720D01*
X182277836Y-94588718D01*
X182316265Y-94395523D01*
X182316266Y-94395520D01*
X182316266Y-94198539D01*
X182316265Y-94198536D01*
X182277836Y-94005341D01*
X182277836Y-94005339D01*
X182202456Y-93823354D01*
X182093871Y-93660846D01*
X181660850Y-94093866D01*
X181636346Y-94051424D01*
X181561872Y-93976950D01*
X181519426Y-93952444D01*
X181952449Y-93519422D01*
X181789947Y-93410842D01*
X181789941Y-93410839D01*
X181607955Y-93335459D01*
X181414759Y-93297030D01*
X181217772Y-93297030D01*
X181024577Y-93335459D01*
X181024575Y-93335459D01*
X180842592Y-93410838D01*
X180842580Y-93410844D01*
X180680082Y-93519423D01*
X181113104Y-93952445D01*
X181070660Y-93976950D01*
X180996186Y-94051424D01*
X180971681Y-94093868D01*
X180538659Y-93660846D01*
X180430080Y-93823344D01*
X180430074Y-93823356D01*
X180354695Y-94005339D01*
X180354695Y-94005341D01*
X180316266Y-94198536D01*
X177476765Y-94198536D01*
X177078326Y-93800097D01*
X177074699Y-93792979D01*
X177068237Y-93788284D01*
X177061073Y-93766235D01*
X177050549Y-93745580D01*
X177049330Y-93730093D01*
X177049330Y-93289051D01*
X177049329Y-93289049D01*
X177034478Y-93195273D01*
X177034477Y-93195271D01*
X177034477Y-93195269D01*
X176976881Y-93082231D01*
X176887173Y-92992523D01*
X176774135Y-92934927D01*
X176774136Y-92934927D01*
X176680353Y-92920073D01*
X176217310Y-92920073D01*
X176217307Y-92920074D01*
X176123531Y-92934925D01*
X176123526Y-92934927D01*
X176010490Y-92992522D01*
X175920780Y-93082232D01*
X175863185Y-93195268D01*
X175848331Y-93289050D01*
X175848331Y-93902093D01*
X175848332Y-93902096D01*
X175863183Y-93995872D01*
X175863185Y-93995877D01*
X175920781Y-94108915D01*
X176010489Y-94198623D01*
X176094277Y-94241315D01*
X176137541Y-94284579D01*
X176148331Y-94329524D01*
X176148331Y-94885690D01*
X176129424Y-94943881D01*
X176119335Y-94955694D01*
X173404525Y-97670504D01*
X173350008Y-97698281D01*
X173334521Y-97699500D01*
X166665479Y-97699500D01*
X166607288Y-97680593D01*
X166595475Y-97670504D01*
X165254607Y-96329636D01*
X169574947Y-96329636D01*
X169574947Y-96896615D01*
X169590728Y-96996251D01*
X169590730Y-96996258D01*
X169651917Y-97116343D01*
X169651919Y-97116346D01*
X169747227Y-97211654D01*
X169747229Y-97211655D01*
X169867314Y-97272842D01*
X169867316Y-97272842D01*
X169867321Y-97272845D01*
X169942988Y-97284829D01*
X169966957Y-97288626D01*
X169966959Y-97288626D01*
X170483937Y-97288626D01*
X170505332Y-97285237D01*
X170583573Y-97272845D01*
X170703667Y-97211654D01*
X170798975Y-97116346D01*
X170860166Y-96996252D01*
X170875947Y-96896614D01*
X170875947Y-96896579D01*
X171125447Y-96896579D01*
X171141207Y-96996091D01*
X171141209Y-96996095D01*
X171202328Y-97116047D01*
X171297525Y-97211244D01*
X171417477Y-97272363D01*
X171417476Y-97272363D01*
X171516992Y-97288125D01*
X171675447Y-97288125D01*
X171675447Y-96713127D01*
X171875447Y-96713127D01*
X171875447Y-97288124D01*
X171875448Y-97288125D01*
X172033900Y-97288125D01*
X172133412Y-97272365D01*
X172133416Y-97272363D01*
X172253368Y-97211244D01*
X172348565Y-97116047D01*
X172409684Y-96996095D01*
X172425447Y-96896579D01*
X172425447Y-96713127D01*
X172425446Y-96713126D01*
X171875448Y-96713126D01*
X171875447Y-96713127D01*
X171675447Y-96713127D01*
X171675446Y-96713126D01*
X171125449Y-96713126D01*
X171125448Y-96713127D01*
X171125448Y-96896579D01*
X171125447Y-96896579D01*
X170875947Y-96896579D01*
X170875947Y-96329672D01*
X171125447Y-96329672D01*
X171125447Y-96513125D01*
X171125448Y-96513126D01*
X171675446Y-96513126D01*
X171675447Y-96513125D01*
X171675447Y-95938127D01*
X171875447Y-95938127D01*
X171875447Y-96513125D01*
X171875448Y-96513126D01*
X172425445Y-96513126D01*
X172425446Y-96513125D01*
X172425446Y-96329672D01*
X172409686Y-96230160D01*
X172409684Y-96230156D01*
X172348565Y-96110204D01*
X172253368Y-96015007D01*
X172133416Y-95953888D01*
X172133417Y-95953888D01*
X172033901Y-95938126D01*
X171875448Y-95938126D01*
X171875447Y-95938127D01*
X171675447Y-95938127D01*
X171675446Y-95938126D01*
X171516994Y-95938126D01*
X171516993Y-95938127D01*
X171417481Y-95953886D01*
X171417477Y-95953888D01*
X171297525Y-96015007D01*
X171202328Y-96110204D01*
X171141209Y-96230156D01*
X171125447Y-96329672D01*
X170875947Y-96329672D01*
X170875947Y-96329638D01*
X170860166Y-96230000D01*
X170860163Y-96229995D01*
X170860163Y-96229993D01*
X170798976Y-96109908D01*
X170798975Y-96109906D01*
X170703667Y-96014598D01*
X170686673Y-96005939D01*
X170580001Y-95951586D01*
X170563611Y-95935196D01*
X170544854Y-95921568D01*
X170542385Y-95913969D01*
X170536737Y-95908321D01*
X170525947Y-95863377D01*
X170525947Y-95757561D01*
X170544854Y-95699370D01*
X170586902Y-95668820D01*
X170586155Y-95667354D01*
X170665225Y-95627064D01*
X170713191Y-95602625D01*
X170808499Y-95507317D01*
X170869690Y-95387223D01*
X170885471Y-95287585D01*
X170885471Y-94720609D01*
X170885471Y-94720607D01*
X171134471Y-94720607D01*
X171134471Y-95287586D01*
X171150252Y-95387222D01*
X171150254Y-95387229D01*
X171211441Y-95507314D01*
X171211443Y-95507317D01*
X171306751Y-95602625D01*
X171306753Y-95602626D01*
X171426838Y-95663813D01*
X171426840Y-95663813D01*
X171426845Y-95663816D01*
X171502512Y-95675800D01*
X171526481Y-95679597D01*
X171526483Y-95679597D01*
X172043461Y-95679597D01*
X172064856Y-95676208D01*
X172143097Y-95663816D01*
X172263191Y-95602625D01*
X172358499Y-95507317D01*
X172419690Y-95387223D01*
X172435471Y-95287585D01*
X172435471Y-94720609D01*
X172419690Y-94620971D01*
X172419687Y-94620966D01*
X172419687Y-94620964D01*
X172358500Y-94500879D01*
X172358499Y-94500877D01*
X172263191Y-94405569D01*
X172263188Y-94405567D01*
X172257681Y-94400060D01*
X172259203Y-94398537D01*
X172229602Y-94357792D01*
X172229603Y-94296607D01*
X172253754Y-94257198D01*
X172653148Y-93857806D01*
X172707664Y-93830029D01*
X172723151Y-93828810D01*
X173615929Y-93828810D01*
X173615932Y-93828810D01*
X173684065Y-93818883D01*
X173789155Y-93767508D01*
X173871870Y-93684793D01*
X173872095Y-93684331D01*
X173872491Y-93683922D01*
X173876637Y-93678116D01*
X173877507Y-93678737D01*
X173888757Y-93667108D01*
X173902846Y-93647717D01*
X173909658Y-93645503D01*
X173914637Y-93640357D01*
X173961037Y-93628810D01*
X174099332Y-93628810D01*
X174157523Y-93647717D01*
X174193487Y-93697217D01*
X174198332Y-93727810D01*
X174198332Y-93902096D01*
X174213183Y-93995872D01*
X174213185Y-93995877D01*
X174270781Y-94108915D01*
X174360489Y-94198623D01*
X174473527Y-94256219D01*
X174567312Y-94271073D01*
X175030349Y-94271072D01*
X175030351Y-94271072D01*
X175030352Y-94271071D01*
X175077242Y-94263645D01*
X175124130Y-94256220D01*
X175124130Y-94256219D01*
X175124135Y-94256219D01*
X175237173Y-94198623D01*
X175326881Y-94108915D01*
X175384477Y-93995877D01*
X175399331Y-93902092D01*
X175399330Y-93289055D01*
X175399329Y-93289051D01*
X175399329Y-93289049D01*
X175384478Y-93195273D01*
X175384477Y-93195271D01*
X175384477Y-93195269D01*
X175326881Y-93082231D01*
X175237173Y-92992523D01*
X175124135Y-92934927D01*
X175124136Y-92934927D01*
X175030353Y-92920073D01*
X174567310Y-92920073D01*
X174567307Y-92920074D01*
X174473531Y-92934925D01*
X174473526Y-92934927D01*
X174360490Y-92992522D01*
X174360489Y-92992522D01*
X174360489Y-92992523D01*
X174354196Y-92998815D01*
X174299682Y-93026591D01*
X174284195Y-93027810D01*
X173961037Y-93027810D01*
X173902846Y-93008903D01*
X173877061Y-92978201D01*
X173876637Y-92978504D01*
X173872787Y-92973112D01*
X173872095Y-92972288D01*
X173872014Y-92972122D01*
X173871870Y-92971827D01*
X173789155Y-92889112D01*
X173768571Y-92879049D01*
X173684067Y-92837737D01*
X173656811Y-92833766D01*
X173615932Y-92827810D01*
X171899412Y-92827810D01*
X171865345Y-92832773D01*
X171831276Y-92837737D01*
X171726190Y-92889111D01*
X171643473Y-92971828D01*
X171592099Y-93076914D01*
X171589139Y-93097230D01*
X171582172Y-93145050D01*
X171582172Y-93511570D01*
X171583738Y-93522315D01*
X171592099Y-93579705D01*
X171631767Y-93660846D01*
X171643474Y-93684793D01*
X171726189Y-93767508D01*
X171726190Y-93767508D01*
X171726191Y-93767509D01*
X171728674Y-93769282D01*
X171730687Y-93772005D01*
X171731990Y-93773308D01*
X171731794Y-93773503D01*
X171765047Y-93818482D01*
X171765554Y-93879665D01*
X171741153Y-93919856D01*
X171600460Y-94060551D01*
X171600459Y-94060550D01*
X171544510Y-94116500D01*
X171504951Y-94185018D01*
X171504949Y-94185022D01*
X171484471Y-94261444D01*
X171483710Y-94267229D01*
X171457367Y-94322453D01*
X171430503Y-94342513D01*
X171306752Y-94405568D01*
X171211441Y-94500879D01*
X171150254Y-94620964D01*
X171150252Y-94620971D01*
X171134471Y-94720607D01*
X170885471Y-94720607D01*
X170869690Y-94620971D01*
X170869687Y-94620966D01*
X170869687Y-94620964D01*
X170808500Y-94500879D01*
X170808499Y-94500877D01*
X170713191Y-94405569D01*
X170713188Y-94405567D01*
X170593103Y-94344380D01*
X170593097Y-94344378D01*
X170564138Y-94339791D01*
X170509622Y-94312012D01*
X170481846Y-94257494D01*
X170480628Y-94242010D01*
X170480628Y-90605050D01*
X171582172Y-90605050D01*
X171582172Y-90971570D01*
X171584059Y-90984521D01*
X171592099Y-91039705D01*
X171625873Y-91108790D01*
X171643474Y-91144793D01*
X171726189Y-91227508D01*
X171778778Y-91253217D01*
X171831276Y-91278882D01*
X171831277Y-91278882D01*
X171831279Y-91278883D01*
X171899412Y-91288810D01*
X172358172Y-91288810D01*
X172373084Y-91293655D01*
X172388765Y-91293655D01*
X172401450Y-91302871D01*
X172416363Y-91307717D01*
X172425579Y-91320402D01*
X172438265Y-91329619D01*
X172443110Y-91344531D01*
X172452327Y-91357217D01*
X172457172Y-91387810D01*
X172457172Y-91458810D01*
X172438265Y-91517001D01*
X172388765Y-91552965D01*
X172358172Y-91557810D01*
X171899412Y-91557810D01*
X171865345Y-91562773D01*
X171831276Y-91567737D01*
X171726190Y-91619111D01*
X171643473Y-91701828D01*
X171592099Y-91806914D01*
X171592099Y-91806917D01*
X171582172Y-91875050D01*
X171582172Y-92241570D01*
X171585617Y-92265211D01*
X171592099Y-92309705D01*
X171630053Y-92387340D01*
X171643474Y-92414793D01*
X171726189Y-92497508D01*
X171770835Y-92519334D01*
X171831276Y-92548882D01*
X171831277Y-92548882D01*
X171831279Y-92548883D01*
X171899412Y-92558810D01*
X171899415Y-92558810D01*
X173615929Y-92558810D01*
X173615932Y-92558810D01*
X173684065Y-92548883D01*
X173789155Y-92497508D01*
X173871870Y-92414793D01*
X173923245Y-92309703D01*
X173933172Y-92241570D01*
X173933172Y-91875050D01*
X173923245Y-91806917D01*
X173911480Y-91782852D01*
X173892183Y-91743379D01*
X173871870Y-91701827D01*
X173789155Y-91619112D01*
X173789153Y-91619111D01*
X173684067Y-91567737D01*
X173652397Y-91563123D01*
X173615932Y-91557810D01*
X173615929Y-91557810D01*
X173157172Y-91557810D01*
X173142260Y-91552965D01*
X173126579Y-91552965D01*
X173113893Y-91543748D01*
X173098981Y-91538903D01*
X173089764Y-91526217D01*
X173077079Y-91517001D01*
X173072233Y-91502088D01*
X173063017Y-91489403D01*
X173058172Y-91458810D01*
X173058172Y-91387810D01*
X173077079Y-91329619D01*
X173126579Y-91293655D01*
X173157172Y-91288810D01*
X173615929Y-91288810D01*
X173615932Y-91288810D01*
X173684065Y-91278883D01*
X173789155Y-91227508D01*
X173789155Y-91227507D01*
X173796525Y-91223905D01*
X173798185Y-91227302D01*
X173840588Y-91213713D01*
X173898703Y-91232853D01*
X173910195Y-91242708D01*
X174174802Y-91507315D01*
X174202579Y-91561832D01*
X174203798Y-91577319D01*
X174203798Y-92018360D01*
X174203799Y-92018363D01*
X174218650Y-92112139D01*
X174218652Y-92112144D01*
X174276248Y-92225182D01*
X174365956Y-92314890D01*
X174478994Y-92372486D01*
X174572779Y-92387340D01*
X175035816Y-92387339D01*
X175035818Y-92387339D01*
X175035819Y-92387338D01*
X175110388Y-92375529D01*
X175129597Y-92372487D01*
X175129597Y-92372486D01*
X175129602Y-92372486D01*
X175242640Y-92314890D01*
X175332348Y-92225182D01*
X175389944Y-92112144D01*
X175404798Y-92018359D01*
X175404797Y-91405322D01*
X175400166Y-91376078D01*
X175389945Y-91311540D01*
X175389944Y-91311538D01*
X175389944Y-91311536D01*
X175332348Y-91198498D01*
X175242640Y-91108790D01*
X175129602Y-91051194D01*
X175129603Y-91051194D01*
X175035820Y-91036340D01*
X174594777Y-91036340D01*
X174536586Y-91017433D01*
X174524774Y-91007344D01*
X174062359Y-90544930D01*
X174049945Y-90537763D01*
X174049943Y-90537762D01*
X174044362Y-90534540D01*
X173993838Y-90505370D01*
X173932073Y-90488819D01*
X173926041Y-90486315D01*
X173907515Y-90470465D01*
X173887068Y-90457186D01*
X173881152Y-90447910D01*
X173879550Y-90446539D01*
X173879113Y-90444711D01*
X173875068Y-90438369D01*
X173871870Y-90431827D01*
X173789155Y-90349112D01*
X173749030Y-90329496D01*
X173684067Y-90297737D01*
X173656811Y-90293766D01*
X173615932Y-90287810D01*
X171899412Y-90287810D01*
X171865345Y-90292773D01*
X171831276Y-90297737D01*
X171726190Y-90349111D01*
X171643473Y-90431828D01*
X171592099Y-90536914D01*
X171589600Y-90554066D01*
X171582172Y-90605050D01*
X170480628Y-90605050D01*
X170480628Y-89335050D01*
X171582172Y-89335050D01*
X171582172Y-89701570D01*
X171588790Y-89746992D01*
X171592099Y-89769705D01*
X171630281Y-89847806D01*
X171643474Y-89874793D01*
X171726189Y-89957508D01*
X171779957Y-89983793D01*
X171831276Y-90008882D01*
X171831277Y-90008882D01*
X171831279Y-90008883D01*
X171899412Y-90018810D01*
X171899415Y-90018810D01*
X173615929Y-90018810D01*
X173615932Y-90018810D01*
X173684065Y-90008883D01*
X173789155Y-89957508D01*
X173871870Y-89874793D01*
X173872095Y-89874331D01*
X173872491Y-89873922D01*
X173876637Y-89868116D01*
X173877507Y-89868737D01*
X173914637Y-89830357D01*
X173961037Y-89818810D01*
X174940759Y-89818810D01*
X174998950Y-89837717D01*
X175010762Y-89847806D01*
X175403416Y-90240459D01*
X175403421Y-90240463D01*
X175471936Y-90280020D01*
X175471934Y-90280020D01*
X175471938Y-90280021D01*
X175471940Y-90280022D01*
X175548366Y-90300500D01*
X175627490Y-90300500D01*
X177242799Y-90300500D01*
X177300990Y-90319407D01*
X177336954Y-90368907D01*
X177340580Y-90414987D01*
X177340281Y-90416873D01*
X177340281Y-90416874D01*
X177337913Y-90431827D01*
X177324500Y-90516509D01*
X177324500Y-90984521D01*
X177305593Y-91042712D01*
X177295504Y-91054524D01*
X177135503Y-91214524D01*
X177080988Y-91242301D01*
X177020556Y-91232730D01*
X176985407Y-91202709D01*
X176982349Y-91198500D01*
X176982348Y-91198498D01*
X176892640Y-91108790D01*
X176779602Y-91051194D01*
X176779603Y-91051194D01*
X176685820Y-91036340D01*
X176222777Y-91036340D01*
X176222774Y-91036341D01*
X176128998Y-91051192D01*
X176128993Y-91051194D01*
X176015957Y-91108789D01*
X175926247Y-91198499D01*
X175868652Y-91311535D01*
X175853798Y-91405317D01*
X175853798Y-92018360D01*
X175853799Y-92018363D01*
X175868650Y-92112139D01*
X175868652Y-92112144D01*
X175926248Y-92225182D01*
X176015956Y-92314890D01*
X176128994Y-92372486D01*
X176222779Y-92387340D01*
X176685816Y-92387339D01*
X176685818Y-92387339D01*
X176685819Y-92387338D01*
X176760388Y-92375529D01*
X176779597Y-92372487D01*
X176779597Y-92372486D01*
X176779602Y-92372486D01*
X176892640Y-92314890D01*
X176982348Y-92225182D01*
X177039944Y-92112144D01*
X177043612Y-92088983D01*
X177071389Y-92034467D01*
X177115767Y-92008844D01*
X177179149Y-91991861D01*
X177179151Y-91991859D01*
X177179153Y-91991859D01*
X177203059Y-91978056D01*
X177247671Y-91952300D01*
X177303620Y-91896351D01*
X177745475Y-91454496D01*
X177799992Y-91426719D01*
X177815479Y-91425500D01*
X178283490Y-91425500D01*
X178304885Y-91422111D01*
X178383126Y-91409719D01*
X178391762Y-91405319D01*
X178420003Y-91390929D01*
X178503220Y-91348528D01*
X178598528Y-91253220D01*
X178659719Y-91133126D01*
X178674516Y-91039703D01*
X178675500Y-91033489D01*
X178675500Y-90516509D01*
X178662087Y-90431827D01*
X178659719Y-90416874D01*
X178659718Y-90416873D01*
X178659420Y-90414987D01*
X178668991Y-90354555D01*
X178712256Y-90311291D01*
X178757201Y-90300500D01*
X181334521Y-90300500D01*
X181392712Y-90319407D01*
X181404525Y-90329496D01*
X182170504Y-91095475D01*
X182198281Y-91149992D01*
X182199500Y-91165479D01*
X182199500Y-92539564D01*
X182219978Y-92615988D01*
X182219979Y-92615989D01*
X182242287Y-92654627D01*
X182259540Y-92684511D01*
X184128552Y-94553523D01*
X184128551Y-94553523D01*
X184184501Y-94609472D01*
X184253019Y-94649031D01*
X184253023Y-94649033D01*
X184329447Y-94669511D01*
X184329449Y-94669512D01*
X184329450Y-94669512D01*
X186384260Y-94669512D01*
X186442451Y-94688419D01*
X186472468Y-94723564D01*
X186515161Y-94807354D01*
X186604869Y-94897062D01*
X186717907Y-94954658D01*
X186811692Y-94969512D01*
X187424729Y-94969511D01*
X187424731Y-94969511D01*
X187424732Y-94969510D01*
X187471622Y-94962084D01*
X187518510Y-94954659D01*
X187518510Y-94954658D01*
X187518515Y-94954658D01*
X187631553Y-94897062D01*
X187721261Y-94807354D01*
X187778857Y-94694316D01*
X187793711Y-94600531D01*
X187793710Y-94469013D01*
X188068731Y-94469013D01*
X188068731Y-94600497D01*
X188083563Y-94694153D01*
X188083566Y-94694163D01*
X188141088Y-94807055D01*
X188230686Y-94896653D01*
X188343578Y-94954175D01*
X188343582Y-94954176D01*
X188437245Y-94969011D01*
X188643728Y-94969011D01*
X188643730Y-94969010D01*
X188643730Y-94469013D01*
X188843730Y-94469013D01*
X188843730Y-94969010D01*
X188843731Y-94969011D01*
X189050213Y-94969011D01*
X189050215Y-94969010D01*
X189143871Y-94954178D01*
X189143881Y-94954175D01*
X189256773Y-94896653D01*
X189346371Y-94807055D01*
X189403893Y-94694163D01*
X189403894Y-94694159D01*
X189418730Y-94600496D01*
X189418730Y-94469013D01*
X189418729Y-94469012D01*
X188843731Y-94469012D01*
X188843730Y-94469013D01*
X188643730Y-94469013D01*
X188643729Y-94469012D01*
X188068732Y-94469012D01*
X188068731Y-94469013D01*
X187793710Y-94469013D01*
X187793710Y-94366720D01*
X187793710Y-94159490D01*
X187812617Y-94101300D01*
X187822700Y-94089492D01*
X187908623Y-94003569D01*
X187963138Y-93975794D01*
X188023570Y-93985365D01*
X188066835Y-94028630D01*
X188076406Y-94089062D01*
X188068730Y-94137527D01*
X188068730Y-94269011D01*
X188068731Y-94269012D01*
X188643729Y-94269012D01*
X188643730Y-94269011D01*
X188643730Y-93769013D01*
X188843730Y-93769013D01*
X188843730Y-94269011D01*
X188843731Y-94269012D01*
X189418728Y-94269012D01*
X189418729Y-94269011D01*
X189418729Y-94137528D01*
X189418728Y-94137526D01*
X189403896Y-94043870D01*
X189403893Y-94043860D01*
X189346371Y-93930968D01*
X189256773Y-93841370D01*
X189143881Y-93783848D01*
X189143877Y-93783847D01*
X189050214Y-93769012D01*
X188843731Y-93769012D01*
X188843730Y-93769013D01*
X188643730Y-93769013D01*
X188643729Y-93769012D01*
X188437250Y-93769012D01*
X188388777Y-93776689D01*
X188358315Y-93771863D01*
X188328348Y-93767117D01*
X188328346Y-93767115D01*
X188328345Y-93767115D01*
X188306811Y-93745580D01*
X188285083Y-93723852D01*
X188285082Y-93723849D01*
X188277932Y-93678698D01*
X188275512Y-93663420D01*
X188275512Y-93663417D01*
X188303287Y-93608905D01*
X188389879Y-93522313D01*
X188444394Y-93494538D01*
X188468842Y-93493725D01*
X188472799Y-93494084D01*
X188472804Y-93494086D01*
X188543384Y-93500500D01*
X188543389Y-93500500D01*
X191456611Y-93500500D01*
X191456616Y-93500500D01*
X191527196Y-93494086D01*
X191689606Y-93443478D01*
X191835185Y-93355472D01*
X191955472Y-93235185D01*
X191984586Y-93187023D01*
X192030871Y-93147007D01*
X192069308Y-93139241D01*
X193755304Y-93139241D01*
X193813495Y-93158148D01*
X193843514Y-93193296D01*
X193845332Y-93196865D01*
X193845333Y-93196867D01*
X193906524Y-93316961D01*
X194001832Y-93412269D01*
X194001834Y-93412270D01*
X194121919Y-93473457D01*
X194121921Y-93473457D01*
X194121926Y-93473460D01*
X194197593Y-93485444D01*
X194221562Y-93489241D01*
X194221564Y-93489241D01*
X194788542Y-93489241D01*
X194809937Y-93485852D01*
X194888178Y-93473460D01*
X195008272Y-93412269D01*
X195103580Y-93316961D01*
X195164771Y-93196867D01*
X195180552Y-93097229D01*
X195180552Y-92580253D01*
X195164771Y-92480615D01*
X195164768Y-92480610D01*
X195164768Y-92480608D01*
X195103581Y-92360523D01*
X195103580Y-92360521D01*
X195008272Y-92265213D01*
X195008269Y-92265211D01*
X194888184Y-92204024D01*
X194888179Y-92204022D01*
X194888178Y-92204022D01*
X194854965Y-92198761D01*
X194788542Y-92188241D01*
X194788540Y-92188241D01*
X194221564Y-92188241D01*
X194221562Y-92188241D01*
X194121926Y-92204022D01*
X194121919Y-92204024D01*
X194001834Y-92265211D01*
X194001832Y-92265213D01*
X193906524Y-92360521D01*
X193845333Y-92480615D01*
X193845332Y-92480616D01*
X193843514Y-92484186D01*
X193800249Y-92527451D01*
X193755304Y-92538241D01*
X192199500Y-92538241D01*
X192141309Y-92519334D01*
X192105345Y-92469834D01*
X192100500Y-92439241D01*
X192100500Y-91743388D01*
X192100500Y-91743384D01*
X192094086Y-91672804D01*
X192054945Y-91547194D01*
X193830052Y-91547194D01*
X193845812Y-91646706D01*
X193845814Y-91646710D01*
X193906933Y-91766662D01*
X194002130Y-91861859D01*
X194122082Y-91922978D01*
X194122081Y-91922978D01*
X194221597Y-91938740D01*
X194405052Y-91938740D01*
X194405052Y-91388742D01*
X194605052Y-91388742D01*
X194605052Y-91938739D01*
X194605053Y-91938740D01*
X194788505Y-91938740D01*
X194888017Y-91922980D01*
X194888021Y-91922978D01*
X195007973Y-91861859D01*
X195103170Y-91766662D01*
X195164289Y-91646710D01*
X195180052Y-91547194D01*
X195180052Y-91388742D01*
X195180051Y-91388741D01*
X194605053Y-91388741D01*
X194605052Y-91388742D01*
X194405052Y-91388742D01*
X194405051Y-91388741D01*
X193830054Y-91388741D01*
X193830053Y-91388742D01*
X193830053Y-91547194D01*
X193830052Y-91547194D01*
X192054945Y-91547194D01*
X192043478Y-91510394D01*
X192030788Y-91489403D01*
X191976108Y-91398951D01*
X191971260Y-91390931D01*
X191955472Y-91364815D01*
X191835185Y-91244528D01*
X191689606Y-91156522D01*
X191575343Y-91120917D01*
X191575342Y-91120916D01*
X191527198Y-91105914D01*
X191456620Y-91099500D01*
X191456616Y-91099500D01*
X190399500Y-91099500D01*
X190341309Y-91080593D01*
X190305345Y-91031093D01*
X190305217Y-91030287D01*
X193830052Y-91030287D01*
X193830052Y-91188740D01*
X193830053Y-91188741D01*
X194405051Y-91188741D01*
X194405052Y-91188740D01*
X194405052Y-90638742D01*
X194605052Y-90638742D01*
X194605052Y-91188740D01*
X194605053Y-91188741D01*
X195180050Y-91188741D01*
X195180051Y-91188740D01*
X195180051Y-91030287D01*
X195164291Y-90930775D01*
X195164289Y-90930771D01*
X195103170Y-90810819D01*
X195007973Y-90715622D01*
X194888021Y-90654503D01*
X194888022Y-90654503D01*
X194788506Y-90638741D01*
X194605053Y-90638741D01*
X194605052Y-90638742D01*
X194405052Y-90638742D01*
X194405051Y-90638741D01*
X194221599Y-90638741D01*
X194221598Y-90638742D01*
X194122086Y-90654501D01*
X194122082Y-90654503D01*
X194002130Y-90715622D01*
X193906933Y-90810819D01*
X193845814Y-90930771D01*
X193830052Y-91030287D01*
X190305217Y-91030287D01*
X190300500Y-91000500D01*
X190300500Y-87299500D01*
X190319407Y-87241309D01*
X190368907Y-87205345D01*
X190399500Y-87200500D01*
X190412719Y-87200500D01*
X190412720Y-87200500D01*
X190525236Y-87185687D01*
X190665233Y-87127698D01*
X190785451Y-87035451D01*
X190877698Y-86915233D01*
X190935687Y-86775236D01*
X190950500Y-86662720D01*
X190950500Y-86100001D01*
X191350000Y-86100001D01*
X191350000Y-86662690D01*
X191364799Y-86775101D01*
X191364801Y-86775109D01*
X191422736Y-86914977D01*
X191422738Y-86914981D01*
X191514900Y-87035089D01*
X191514910Y-87035099D01*
X191635018Y-87127261D01*
X191635022Y-87127263D01*
X191774890Y-87185198D01*
X191774898Y-87185200D01*
X191887309Y-87199999D01*
X191887311Y-87200000D01*
X192199999Y-87200000D01*
X192200000Y-87199999D01*
X192200000Y-86100001D01*
X192400000Y-86100001D01*
X192400000Y-87199999D01*
X192400001Y-87200000D01*
X192712689Y-87200000D01*
X192712690Y-87199999D01*
X192825101Y-87185200D01*
X192825109Y-87185198D01*
X192964977Y-87127263D01*
X192964981Y-87127261D01*
X193085089Y-87035099D01*
X193085099Y-87035089D01*
X193177261Y-86914981D01*
X193177263Y-86914977D01*
X193235198Y-86775109D01*
X193235200Y-86775101D01*
X193249999Y-86662690D01*
X193250000Y-86662689D01*
X193250000Y-86100001D01*
X193249999Y-86100000D01*
X192400001Y-86100000D01*
X192400000Y-86100001D01*
X192200000Y-86100001D01*
X192199999Y-86100000D01*
X191350001Y-86100000D01*
X191350000Y-86100001D01*
X190950500Y-86100001D01*
X190950500Y-85337309D01*
X191350000Y-85337309D01*
X191350000Y-85899999D01*
X191350001Y-85900000D01*
X192199999Y-85900000D01*
X192200000Y-85899999D01*
X192200000Y-84800001D01*
X192400000Y-84800001D01*
X192400000Y-85899999D01*
X192400001Y-85900000D01*
X193249999Y-85900000D01*
X193250000Y-85899999D01*
X193250000Y-85337311D01*
X193249999Y-85337309D01*
X193235200Y-85224898D01*
X193235198Y-85224890D01*
X193177263Y-85085022D01*
X193177261Y-85085018D01*
X193085099Y-84964910D01*
X193085089Y-84964900D01*
X192964981Y-84872738D01*
X192964977Y-84872736D01*
X192825109Y-84814801D01*
X192825101Y-84814799D01*
X192712690Y-84800000D01*
X192400001Y-84800000D01*
X192400000Y-84800001D01*
X192200000Y-84800001D01*
X192199999Y-84800000D01*
X191887309Y-84800000D01*
X191774898Y-84814799D01*
X191774890Y-84814801D01*
X191635022Y-84872736D01*
X191635018Y-84872738D01*
X191514910Y-84964900D01*
X191514900Y-84964910D01*
X191422738Y-85085018D01*
X191422736Y-85085022D01*
X191364801Y-85224890D01*
X191364799Y-85224898D01*
X191350000Y-85337309D01*
X190950500Y-85337309D01*
X190950500Y-85337280D01*
X190935687Y-85224764D01*
X190877698Y-85084767D01*
X190785451Y-84964549D01*
X190665233Y-84872302D01*
X190525236Y-84814313D01*
X190525234Y-84814312D01*
X190525232Y-84814312D01*
X190412720Y-84799500D01*
X190386707Y-84799500D01*
X190328516Y-84780593D01*
X190292552Y-84731093D01*
X190287707Y-84700500D01*
X190287707Y-84186532D01*
X190306614Y-84128341D01*
X190356112Y-84092378D01*
X190524813Y-84037565D01*
X190721229Y-83937485D01*
X190899572Y-83807912D01*
X191055449Y-83652035D01*
X191185022Y-83473692D01*
X191285102Y-83277276D01*
X191353222Y-83067621D01*
X191387707Y-82849892D01*
X191387707Y-82629448D01*
X191387707Y-82629444D01*
X191386770Y-82623526D01*
X192270933Y-82623526D01*
X192270933Y-82843897D01*
X192305404Y-83061541D01*
X192373502Y-83271125D01*
X192473544Y-83467469D01*
X192603072Y-83645749D01*
X192610272Y-83652949D01*
X193179938Y-83083282D01*
X193190814Y-83102120D01*
X193302525Y-83213831D01*
X193321360Y-83224706D01*
X192751695Y-83794372D01*
X192758895Y-83801572D01*
X192937175Y-83931100D01*
X193133519Y-84031142D01*
X193343103Y-84099240D01*
X193560748Y-84133712D01*
X193781118Y-84133712D01*
X193998762Y-84099240D01*
X194208346Y-84031142D01*
X194404690Y-83931100D01*
X194582977Y-83801567D01*
X194590171Y-83794372D01*
X194020505Y-83224706D01*
X194039341Y-83213831D01*
X194151052Y-83102120D01*
X194161927Y-83083284D01*
X194731593Y-83652950D01*
X194738788Y-83645756D01*
X194868321Y-83467469D01*
X194968363Y-83271125D01*
X195036461Y-83061541D01*
X195070933Y-82843897D01*
X195070933Y-82623526D01*
X195036461Y-82405882D01*
X194968363Y-82196298D01*
X194868321Y-81999954D01*
X194738793Y-81821674D01*
X194731593Y-81814474D01*
X194161927Y-82384139D01*
X194151052Y-82365304D01*
X194039341Y-82253593D01*
X194020503Y-82242717D01*
X194590170Y-81673051D01*
X194582970Y-81665851D01*
X194404690Y-81536323D01*
X194208346Y-81436281D01*
X193998762Y-81368183D01*
X193781118Y-81333712D01*
X193560748Y-81333712D01*
X193343103Y-81368183D01*
X193133519Y-81436281D01*
X192937175Y-81536323D01*
X192758892Y-81665854D01*
X192751694Y-81673050D01*
X193321361Y-82242717D01*
X193302525Y-82253593D01*
X193190814Y-82365304D01*
X193179938Y-82384140D01*
X192610271Y-81814473D01*
X192603075Y-81821671D01*
X192473544Y-81999954D01*
X192373502Y-82196298D01*
X192305404Y-82405882D01*
X192270933Y-82623526D01*
X191386770Y-82623526D01*
X191353222Y-82411721D01*
X191353222Y-82411719D01*
X191285102Y-82202064D01*
X191185022Y-82005648D01*
X191055449Y-81827305D01*
X190899572Y-81671428D01*
X190721229Y-81541855D01*
X190721228Y-81541854D01*
X190721226Y-81541853D01*
X190632032Y-81496406D01*
X190524813Y-81441775D01*
X190524809Y-81441774D01*
X190524806Y-81441772D01*
X190315155Y-81373654D01*
X190097432Y-81339170D01*
X190097429Y-81339170D01*
X189876985Y-81339170D01*
X189876982Y-81339170D01*
X189659258Y-81373654D01*
X189449607Y-81441772D01*
X189253187Y-81541853D01*
X189164013Y-81606641D01*
X189074842Y-81671428D01*
X188918965Y-81827305D01*
X188872090Y-81891823D01*
X188789390Y-82005650D01*
X188689309Y-82202070D01*
X188621191Y-82411721D01*
X188586707Y-82629444D01*
X188586707Y-82849895D01*
X188621191Y-83067618D01*
X188689309Y-83277269D01*
X188689311Y-83277272D01*
X188689312Y-83277276D01*
X188789392Y-83473692D01*
X188918965Y-83652035D01*
X189074842Y-83807912D01*
X189253185Y-83937485D01*
X189449601Y-84037565D01*
X189618300Y-84092377D01*
X189667799Y-84128341D01*
X189686707Y-84186531D01*
X189686707Y-84700500D01*
X189667800Y-84758691D01*
X189618300Y-84794655D01*
X189590499Y-84799057D01*
X189590515Y-84799288D01*
X189588007Y-84799452D01*
X189587707Y-84799500D01*
X189587279Y-84799500D01*
X189474767Y-84814312D01*
X189474761Y-84814314D01*
X189334768Y-84872301D01*
X189214551Y-84964547D01*
X189214550Y-84964547D01*
X189214549Y-84964549D01*
X189199232Y-84984511D01*
X189122301Y-85084768D01*
X189064314Y-85224761D01*
X189064312Y-85224767D01*
X189049500Y-85337279D01*
X189049500Y-86662720D01*
X189062009Y-86757742D01*
X189064313Y-86775236D01*
X189070260Y-86789593D01*
X189122197Y-86914981D01*
X189122302Y-86915233D01*
X189214549Y-87035451D01*
X189334767Y-87127698D01*
X189474764Y-87185687D01*
X189587280Y-87200500D01*
X189600500Y-87200500D01*
X189658691Y-87219407D01*
X189694655Y-87268907D01*
X189699500Y-87299500D01*
X189699500Y-91000500D01*
X189680593Y-91058691D01*
X189631093Y-91094655D01*
X189600500Y-91099500D01*
X188543379Y-91099500D01*
X188472805Y-91105913D01*
X188310394Y-91156521D01*
X188310392Y-91156522D01*
X188164816Y-91244527D01*
X188044527Y-91364816D01*
X187956522Y-91510392D01*
X187956521Y-91510394D01*
X187905913Y-91672805D01*
X187899500Y-91743379D01*
X187899500Y-92856620D01*
X187905913Y-92927194D01*
X187919913Y-92972121D01*
X187938678Y-93032343D01*
X187942548Y-93044760D01*
X187941808Y-93105941D01*
X187918034Y-93144216D01*
X187322734Y-93739516D01*
X187268217Y-93767293D01*
X187252730Y-93768512D01*
X186811690Y-93768512D01*
X186811687Y-93768513D01*
X186717911Y-93783364D01*
X186717906Y-93783366D01*
X186604870Y-93840961D01*
X186604869Y-93840962D01*
X186515161Y-93930670D01*
X186472468Y-94014458D01*
X186429205Y-94057722D01*
X186384260Y-94068512D01*
X184534491Y-94068512D01*
X184476300Y-94049605D01*
X184464487Y-94039516D01*
X183538059Y-93113088D01*
X184834442Y-93113088D01*
X184850202Y-93212600D01*
X184850204Y-93212604D01*
X184911323Y-93332556D01*
X185006520Y-93427753D01*
X185126472Y-93488872D01*
X185126471Y-93488872D01*
X185225987Y-93504634D01*
X185409442Y-93504634D01*
X185409442Y-92954636D01*
X185609442Y-92954636D01*
X185609442Y-93504633D01*
X185609443Y-93504634D01*
X185792895Y-93504634D01*
X185892407Y-93488874D01*
X185892411Y-93488872D01*
X186012363Y-93427753D01*
X186107560Y-93332556D01*
X186168679Y-93212604D01*
X186184442Y-93113088D01*
X186184442Y-92954636D01*
X186184441Y-92954635D01*
X185609443Y-92954635D01*
X185609442Y-92954636D01*
X185409442Y-92954636D01*
X185409441Y-92954635D01*
X184834444Y-92954635D01*
X184834443Y-92954636D01*
X184834443Y-93113088D01*
X184834442Y-93113088D01*
X183538059Y-93113088D01*
X183021152Y-92596181D01*
X184834442Y-92596181D01*
X184834442Y-92754634D01*
X184834443Y-92754635D01*
X185409441Y-92754635D01*
X185409442Y-92754634D01*
X185409442Y-92204636D01*
X185609442Y-92204636D01*
X185609442Y-92754634D01*
X185609443Y-92754635D01*
X186184440Y-92754635D01*
X186184441Y-92754634D01*
X186184441Y-92596181D01*
X186168681Y-92496669D01*
X186168679Y-92496665D01*
X186107560Y-92376713D01*
X186012363Y-92281516D01*
X185892411Y-92220397D01*
X185892412Y-92220397D01*
X185792896Y-92204635D01*
X185609443Y-92204635D01*
X185609442Y-92204636D01*
X185409442Y-92204636D01*
X185409441Y-92204635D01*
X185225989Y-92204635D01*
X185225988Y-92204636D01*
X185126476Y-92220395D01*
X185126472Y-92220397D01*
X185006520Y-92281516D01*
X184911323Y-92376713D01*
X184850204Y-92496665D01*
X184834442Y-92596181D01*
X183021152Y-92596181D01*
X182829496Y-92404525D01*
X182801719Y-92350008D01*
X182800500Y-92334521D01*
X182800500Y-90960440D01*
X182800500Y-90960438D01*
X182796768Y-90946509D01*
X182780022Y-90884012D01*
X182780020Y-90884009D01*
X182780020Y-90884007D01*
X182740463Y-90815493D01*
X182740461Y-90815491D01*
X182740460Y-90815489D01*
X181684511Y-89759540D01*
X181684508Y-89759538D01*
X181684507Y-89759537D01*
X181683178Y-89758770D01*
X181683168Y-89758764D01*
X181615992Y-89719980D01*
X181615988Y-89719978D01*
X181539564Y-89699500D01*
X181539562Y-89699500D01*
X178757201Y-89699500D01*
X178699010Y-89680593D01*
X178663046Y-89631093D01*
X178659420Y-89585013D01*
X178675500Y-89483490D01*
X178675500Y-88966510D01*
X178671703Y-88942541D01*
X178659719Y-88866874D01*
X178659716Y-88866869D01*
X178659716Y-88866867D01*
X178598529Y-88746782D01*
X178598528Y-88746780D01*
X178503220Y-88651472D01*
X178500101Y-88649883D01*
X178436233Y-88617340D01*
X178436226Y-88617337D01*
X178383126Y-88590281D01*
X178371154Y-88588384D01*
X178359256Y-88583091D01*
X178345718Y-88570907D01*
X178329491Y-88562638D01*
X178323533Y-88550942D01*
X178313776Y-88542162D01*
X178309984Y-88524346D01*
X178301718Y-88508119D01*
X178300500Y-88492640D01*
X178300500Y-88283582D01*
X178319407Y-88225391D01*
X178368907Y-88189427D01*
X178381539Y-88186394D01*
X178382748Y-88186000D01*
X178382754Y-88186000D01*
X178495792Y-88128404D01*
X178585500Y-88038696D01*
X178643096Y-87925658D01*
X178656679Y-87839899D01*
X178657950Y-87831875D01*
X178657950Y-87688744D01*
X180368330Y-87688744D01*
X180368330Y-87885731D01*
X180406759Y-88078926D01*
X180406759Y-88078928D01*
X180482139Y-88260913D01*
X180482142Y-88260919D01*
X180590722Y-88423420D01*
X181023744Y-87990398D01*
X181048250Y-88032844D01*
X181122724Y-88107318D01*
X181165166Y-88131822D01*
X180732146Y-88564843D01*
X180894654Y-88673428D01*
X181076640Y-88748808D01*
X181269836Y-88787237D01*
X181269840Y-88787238D01*
X181466820Y-88787238D01*
X181466823Y-88787237D01*
X181660018Y-88748808D01*
X181660020Y-88748808D01*
X181842005Y-88673428D01*
X182004512Y-88564843D01*
X181571491Y-88131822D01*
X181613936Y-88107318D01*
X181688410Y-88032844D01*
X181712914Y-87990399D01*
X182145935Y-88423420D01*
X182254520Y-88260913D01*
X182329900Y-88078928D01*
X182329900Y-88078926D01*
X182368329Y-87885731D01*
X182368330Y-87885728D01*
X182368330Y-87688747D01*
X182368329Y-87688744D01*
X182329900Y-87495549D01*
X182329900Y-87495547D01*
X182254520Y-87313562D01*
X182254520Y-87313561D01*
X182202467Y-87235659D01*
X182167256Y-87182963D01*
X182867830Y-87182963D01*
X182867830Y-88391512D01*
X182870683Y-88421932D01*
X182870685Y-88421941D01*
X182915537Y-88550121D01*
X182996175Y-88659382D01*
X182996177Y-88659384D01*
X182996180Y-88659388D01*
X182996183Y-88659390D01*
X182996185Y-88659392D01*
X183105446Y-88740030D01*
X183105447Y-88740030D01*
X183105448Y-88740031D01*
X183233631Y-88784884D01*
X183264055Y-88787737D01*
X183264057Y-88787738D01*
X183264064Y-88787738D01*
X184402851Y-88787738D01*
X184461042Y-88806645D01*
X184472855Y-88816734D01*
X185179946Y-89523825D01*
X185207723Y-89578342D01*
X185208942Y-89593829D01*
X185208942Y-90572275D01*
X185190035Y-90630466D01*
X185140535Y-90666430D01*
X185127163Y-90669640D01*
X185126312Y-90669917D01*
X185006224Y-90731105D01*
X184910912Y-90826417D01*
X184849725Y-90946502D01*
X184849723Y-90946507D01*
X184849723Y-90946509D01*
X184845754Y-90971570D01*
X184834963Y-91039703D01*
X184833942Y-91046147D01*
X184833942Y-91563123D01*
X184847903Y-91651273D01*
X184849723Y-91662760D01*
X184849725Y-91662767D01*
X184894101Y-91749858D01*
X184910914Y-91782855D01*
X185006222Y-91878163D01*
X185006224Y-91878164D01*
X185126309Y-91939351D01*
X185126311Y-91939351D01*
X185126316Y-91939354D01*
X185201983Y-91951338D01*
X185225952Y-91955135D01*
X185225954Y-91955135D01*
X185792932Y-91955135D01*
X185814327Y-91951746D01*
X185892568Y-91939354D01*
X186012662Y-91878163D01*
X186107970Y-91782855D01*
X186169161Y-91662761D01*
X186184942Y-91563123D01*
X186184942Y-91046147D01*
X186183921Y-91039703D01*
X186173130Y-90971570D01*
X186169161Y-90946509D01*
X186169160Y-90946507D01*
X186169158Y-90946502D01*
X186107971Y-90826417D01*
X186107970Y-90826415D01*
X186012662Y-90731107D01*
X186012659Y-90731105D01*
X185892571Y-90669917D01*
X185885160Y-90667509D01*
X185885627Y-90666069D01*
X185838933Y-90642273D01*
X185811160Y-90587754D01*
X185809942Y-90572275D01*
X185809942Y-89388787D01*
X185809941Y-89388785D01*
X185789463Y-89312361D01*
X185789461Y-89312357D01*
X185749902Y-89243839D01*
X185693953Y-89187889D01*
X185693953Y-89187890D01*
X184897826Y-88391763D01*
X184870049Y-88337246D01*
X184868830Y-88321759D01*
X184868830Y-87252717D01*
X184887737Y-87194526D01*
X184897826Y-87182713D01*
X185751043Y-86329496D01*
X185805560Y-86301719D01*
X185821047Y-86300500D01*
X186650500Y-86300500D01*
X186708691Y-86319407D01*
X186744655Y-86368907D01*
X186749500Y-86399500D01*
X186749500Y-86662720D01*
X186762009Y-86757742D01*
X186764313Y-86775236D01*
X186770260Y-86789593D01*
X186822197Y-86914981D01*
X186822302Y-86915233D01*
X186914549Y-87035451D01*
X187034767Y-87127698D01*
X187174764Y-87185687D01*
X187287280Y-87200500D01*
X187287281Y-87200500D01*
X188112719Y-87200500D01*
X188112720Y-87200500D01*
X188225236Y-87185687D01*
X188365233Y-87127698D01*
X188485451Y-87035451D01*
X188577698Y-86915233D01*
X188635687Y-86775236D01*
X188650500Y-86662720D01*
X188650500Y-85337280D01*
X188635687Y-85224764D01*
X188577698Y-85084767D01*
X188485451Y-84964549D01*
X188365233Y-84872302D01*
X188225236Y-84814313D01*
X188225234Y-84814312D01*
X188225232Y-84814312D01*
X188112720Y-84799500D01*
X187287280Y-84799500D01*
X187287279Y-84799500D01*
X187174767Y-84814312D01*
X187174764Y-84814312D01*
X187174764Y-84814313D01*
X187113808Y-84839562D01*
X187069370Y-84857969D01*
X187042558Y-84860079D01*
X187015997Y-84864286D01*
X187012399Y-84862453D01*
X187008373Y-84862770D01*
X186961480Y-84836509D01*
X186829496Y-84704525D01*
X186801719Y-84650008D01*
X186800500Y-84634521D01*
X186800500Y-83699500D01*
X186819407Y-83641309D01*
X186868907Y-83605345D01*
X186899500Y-83600500D01*
X187554273Y-83600500D01*
X187554273Y-83600499D01*
X187584699Y-83597646D01*
X187712882Y-83552793D01*
X187822150Y-83472150D01*
X187902793Y-83362882D01*
X187947646Y-83234699D01*
X187950499Y-83204273D01*
X187950500Y-83204273D01*
X187950500Y-81795727D01*
X187950499Y-81795725D01*
X187947646Y-81765305D01*
X187947646Y-81765301D01*
X187902793Y-81637118D01*
X187843887Y-81557303D01*
X187822154Y-81527855D01*
X187822152Y-81527853D01*
X187822150Y-81527850D01*
X187822146Y-81527847D01*
X187822144Y-81527845D01*
X187712883Y-81447207D01*
X187584703Y-81402355D01*
X187584694Y-81402353D01*
X187554274Y-81399500D01*
X187554266Y-81399500D01*
X185445734Y-81399500D01*
X185445725Y-81399500D01*
X185415305Y-81402353D01*
X185415296Y-81402355D01*
X185287116Y-81447207D01*
X185177855Y-81527845D01*
X185177845Y-81527855D01*
X185097207Y-81637116D01*
X185052355Y-81765296D01*
X185052353Y-81765305D01*
X185049500Y-81795725D01*
X185049500Y-83204274D01*
X185052353Y-83234694D01*
X185052355Y-83234703D01*
X185097207Y-83362883D01*
X185177845Y-83472144D01*
X185177847Y-83472146D01*
X185177850Y-83472150D01*
X185177853Y-83472152D01*
X185177855Y-83472154D01*
X185287116Y-83552792D01*
X185287117Y-83552792D01*
X185287118Y-83552793D01*
X185415301Y-83597646D01*
X185445725Y-83600499D01*
X185445727Y-83600500D01*
X185445734Y-83600500D01*
X186100500Y-83600500D01*
X186158691Y-83619407D01*
X186194655Y-83668907D01*
X186199500Y-83699500D01*
X186199500Y-84839564D01*
X186219978Y-84915987D01*
X186248015Y-84964549D01*
X186248014Y-84964549D01*
X186259538Y-84984508D01*
X186259540Y-84984511D01*
X186720505Y-85445476D01*
X186724130Y-85452591D01*
X186730593Y-85457287D01*
X186737756Y-85479335D01*
X186748281Y-85499991D01*
X186749500Y-85515478D01*
X186749500Y-85600500D01*
X186730593Y-85658691D01*
X186681093Y-85694655D01*
X186650500Y-85699500D01*
X185616003Y-85699500D01*
X185539579Y-85719978D01*
X185539575Y-85719980D01*
X185471059Y-85759538D01*
X184472855Y-86757742D01*
X184418338Y-86785519D01*
X184402851Y-86786738D01*
X183264055Y-86786738D01*
X183233635Y-86789591D01*
X183233626Y-86789593D01*
X183105446Y-86834445D01*
X182996185Y-86915083D01*
X182996175Y-86915093D01*
X182915537Y-87024354D01*
X182870685Y-87152534D01*
X182870683Y-87152543D01*
X182867830Y-87182963D01*
X182167256Y-87182963D01*
X182145935Y-87151054D01*
X181712914Y-87584074D01*
X181688410Y-87541632D01*
X181613936Y-87467158D01*
X181571490Y-87442652D01*
X182004513Y-87009630D01*
X181842011Y-86901050D01*
X181842005Y-86901047D01*
X181660019Y-86825667D01*
X181466823Y-86787238D01*
X181269836Y-86787238D01*
X181076641Y-86825667D01*
X181076639Y-86825667D01*
X180894656Y-86901046D01*
X180894644Y-86901052D01*
X180732146Y-87009631D01*
X181165168Y-87442653D01*
X181122724Y-87467158D01*
X181048250Y-87541632D01*
X181023745Y-87584076D01*
X180590723Y-87151054D01*
X180482144Y-87313552D01*
X180482138Y-87313564D01*
X180406759Y-87495547D01*
X180406759Y-87495549D01*
X180368330Y-87688744D01*
X178657950Y-87688744D01*
X178657950Y-87683884D01*
X178657949Y-87218833D01*
X178657948Y-87218830D01*
X178643097Y-87125054D01*
X178643096Y-87125049D01*
X178625987Y-87091472D01*
X178625986Y-87091470D01*
X178585501Y-87012014D01*
X178585500Y-87012012D01*
X178495792Y-86922304D01*
X178493529Y-86921151D01*
X178412004Y-86879611D01*
X178368740Y-86836346D01*
X178357950Y-86791402D01*
X178357950Y-85714378D01*
X178357949Y-85714376D01*
X178337471Y-85637952D01*
X178337469Y-85637948D01*
X178297910Y-85569430D01*
X178241961Y-85513480D01*
X178241961Y-85513481D01*
X175075256Y-82346776D01*
X175071629Y-82339658D01*
X175065167Y-82334963D01*
X175058003Y-82312914D01*
X175047479Y-82292259D01*
X175046260Y-82276772D01*
X175046260Y-82181097D01*
X177599500Y-82181097D01*
X177599500Y-82401548D01*
X177633984Y-82619271D01*
X177702102Y-82828922D01*
X177702104Y-82828925D01*
X177702105Y-82828929D01*
X177802185Y-83025345D01*
X177931758Y-83203688D01*
X178087635Y-83359565D01*
X178265978Y-83489138D01*
X178462394Y-83589218D01*
X178672049Y-83657338D01*
X178745093Y-83668907D01*
X178889775Y-83691823D01*
X178889778Y-83691823D01*
X179110225Y-83691823D01*
X179219086Y-83674580D01*
X179327951Y-83657338D01*
X179537606Y-83589218D01*
X179734022Y-83489138D01*
X179912365Y-83359565D01*
X180068242Y-83203688D01*
X180197815Y-83025345D01*
X180297895Y-82828929D01*
X180316524Y-82771593D01*
X180352708Y-82660231D01*
X180388672Y-82610730D01*
X180446863Y-82591823D01*
X180950500Y-82591823D01*
X181008691Y-82610730D01*
X181044655Y-82660230D01*
X181049500Y-82690823D01*
X181049500Y-83204274D01*
X181052353Y-83234694D01*
X181052355Y-83234703D01*
X181097207Y-83362883D01*
X181177845Y-83472144D01*
X181177847Y-83472146D01*
X181177850Y-83472150D01*
X181177853Y-83472152D01*
X181177855Y-83472154D01*
X181287116Y-83552792D01*
X181287117Y-83552792D01*
X181287118Y-83552793D01*
X181415301Y-83597646D01*
X181445725Y-83600499D01*
X181445727Y-83600500D01*
X181445734Y-83600500D01*
X183554273Y-83600500D01*
X183554273Y-83600499D01*
X183584699Y-83597646D01*
X183712882Y-83552793D01*
X183822150Y-83472150D01*
X183902793Y-83362882D01*
X183947646Y-83234699D01*
X183950499Y-83204273D01*
X183950500Y-83204273D01*
X183950500Y-81795727D01*
X183950499Y-81795725D01*
X183947646Y-81765305D01*
X183947646Y-81765301D01*
X183902793Y-81637118D01*
X183843887Y-81557303D01*
X183822154Y-81527855D01*
X183822152Y-81527853D01*
X183822150Y-81527850D01*
X183822146Y-81527847D01*
X183822144Y-81527845D01*
X183712883Y-81447207D01*
X183584703Y-81402355D01*
X183584694Y-81402353D01*
X183554274Y-81399500D01*
X183554266Y-81399500D01*
X181445734Y-81399500D01*
X181445725Y-81399500D01*
X181415305Y-81402353D01*
X181415296Y-81402355D01*
X181287116Y-81447207D01*
X181177855Y-81527845D01*
X181177845Y-81527855D01*
X181097207Y-81637116D01*
X181052355Y-81765296D01*
X181052353Y-81765305D01*
X181049500Y-81795725D01*
X181049500Y-81891823D01*
X181030593Y-81950014D01*
X180981093Y-81985978D01*
X180950500Y-81990823D01*
X180446863Y-81990823D01*
X180388672Y-81971916D01*
X180352708Y-81922416D01*
X180352708Y-81922415D01*
X180297897Y-81753723D01*
X180297896Y-81753722D01*
X180297895Y-81753717D01*
X180197815Y-81557301D01*
X180068242Y-81378958D01*
X179912365Y-81223081D01*
X179734022Y-81093508D01*
X179734021Y-81093507D01*
X179734019Y-81093506D01*
X179644825Y-81048059D01*
X179537606Y-80993428D01*
X179537602Y-80993427D01*
X179537599Y-80993425D01*
X179327948Y-80925307D01*
X179110225Y-80890823D01*
X179110222Y-80890823D01*
X178889778Y-80890823D01*
X178889775Y-80890823D01*
X178672051Y-80925307D01*
X178462400Y-80993425D01*
X178265980Y-81093506D01*
X178176806Y-81158294D01*
X178087635Y-81223081D01*
X177931758Y-81378958D01*
X177866971Y-81468129D01*
X177802183Y-81557303D01*
X177702102Y-81753723D01*
X177633984Y-81963374D01*
X177599500Y-82181097D01*
X175046260Y-82181097D01*
X175011775Y-81963374D01*
X175011775Y-81963372D01*
X174943655Y-81753717D01*
X174843575Y-81557301D01*
X174714002Y-81378958D01*
X174558125Y-81223081D01*
X174379782Y-81093508D01*
X174379781Y-81093507D01*
X174379779Y-81093506D01*
X174290585Y-81048059D01*
X174183366Y-80993428D01*
X174183362Y-80993427D01*
X174183359Y-80993425D01*
X173973708Y-80925307D01*
X173755985Y-80890823D01*
X173755982Y-80890823D01*
X173535538Y-80890823D01*
X173535535Y-80890823D01*
X173317811Y-80925307D01*
X173108160Y-80993425D01*
X172911740Y-81093506D01*
X172822566Y-81158294D01*
X172733395Y-81223081D01*
X172577518Y-81378958D01*
X172512731Y-81468129D01*
X172447943Y-81557303D01*
X172347862Y-81753723D01*
X172279744Y-81963374D01*
X172245260Y-82181097D01*
X172245260Y-82401548D01*
X172279744Y-82619271D01*
X172347862Y-82828922D01*
X172347864Y-82828925D01*
X172347865Y-82828929D01*
X172447945Y-83025345D01*
X172577518Y-83203688D01*
X172733395Y-83359565D01*
X172911738Y-83489138D01*
X173108154Y-83589218D01*
X173317809Y-83657338D01*
X173390853Y-83668907D01*
X173535535Y-83691823D01*
X173535538Y-83691823D01*
X173755985Y-83691823D01*
X173864846Y-83674580D01*
X173973711Y-83657338D01*
X174183366Y-83589218D01*
X174379782Y-83489138D01*
X174558125Y-83359565D01*
X174714002Y-83203688D01*
X174800821Y-83084189D01*
X174850319Y-83048228D01*
X174911504Y-83048227D01*
X174950916Y-83072378D01*
X177727954Y-85849416D01*
X177755731Y-85903933D01*
X177756950Y-85919420D01*
X177756950Y-86791402D01*
X177738043Y-86849593D01*
X177702896Y-86879611D01*
X177619109Y-86922303D01*
X177529399Y-87012013D01*
X177471804Y-87125049D01*
X177456950Y-87218831D01*
X177456950Y-87831874D01*
X177456951Y-87831877D01*
X177471802Y-87925653D01*
X177471804Y-87925658D01*
X177529400Y-88038696D01*
X177619108Y-88128404D01*
X177645443Y-88141822D01*
X177688708Y-88185084D01*
X177699500Y-88230032D01*
X177699500Y-88492640D01*
X177680593Y-88550831D01*
X177631093Y-88586795D01*
X177617721Y-88590005D01*
X177616870Y-88590282D01*
X177496782Y-88651470D01*
X177401470Y-88746782D01*
X177340283Y-88866867D01*
X177340281Y-88866874D01*
X177324500Y-88966510D01*
X177324500Y-89483490D01*
X177340580Y-89585013D01*
X177331009Y-89645445D01*
X177287744Y-89688709D01*
X177242799Y-89699500D01*
X175753407Y-89699500D01*
X175695216Y-89680593D01*
X175683404Y-89670504D01*
X175290749Y-89277850D01*
X175235630Y-89246027D01*
X175235630Y-89246026D01*
X175235628Y-89246026D01*
X175222228Y-89238289D01*
X175222226Y-89238288D01*
X175145802Y-89217810D01*
X175145800Y-89217810D01*
X173961037Y-89217810D01*
X173902846Y-89198903D01*
X173877061Y-89168201D01*
X173876637Y-89168504D01*
X173872787Y-89163112D01*
X173872095Y-89162288D01*
X173871870Y-89161828D01*
X173871870Y-89161827D01*
X173789155Y-89079112D01*
X173789153Y-89079111D01*
X173684067Y-89027737D01*
X173656811Y-89023766D01*
X173615932Y-89017810D01*
X171899412Y-89017810D01*
X171865345Y-89022773D01*
X171831276Y-89027737D01*
X171726190Y-89079111D01*
X171643473Y-89161828D01*
X171592099Y-89266914D01*
X171592099Y-89266917D01*
X171582172Y-89335050D01*
X170480628Y-89335050D01*
X170480628Y-88551681D01*
X170499535Y-88493490D01*
X170534680Y-88463472D01*
X170618470Y-88420780D01*
X170708178Y-88331072D01*
X170765774Y-88218034D01*
X170780628Y-88124249D01*
X170780627Y-87511212D01*
X170767030Y-87425354D01*
X170765775Y-87417430D01*
X170765774Y-87417428D01*
X170765774Y-87417426D01*
X170708178Y-87304388D01*
X170618470Y-87214680D01*
X170505432Y-87157084D01*
X170505433Y-87157084D01*
X170411650Y-87142230D01*
X169948607Y-87142230D01*
X169948604Y-87142231D01*
X169854828Y-87157082D01*
X169854823Y-87157084D01*
X169741787Y-87214679D01*
X169652077Y-87304389D01*
X169594482Y-87417425D01*
X169579628Y-87511207D01*
X169579628Y-88124250D01*
X169579629Y-88124253D01*
X169594480Y-88218029D01*
X169594482Y-88218034D01*
X169652078Y-88331072D01*
X169741786Y-88420780D01*
X169825574Y-88463472D01*
X169868838Y-88506736D01*
X169879628Y-88551681D01*
X169879628Y-94282292D01*
X169860721Y-94340483D01*
X169825574Y-94370501D01*
X169756752Y-94405568D01*
X169661441Y-94500879D01*
X169600254Y-94620964D01*
X169600252Y-94620971D01*
X169584471Y-94720607D01*
X169584471Y-95287586D01*
X169600252Y-95387222D01*
X169600254Y-95387229D01*
X169661441Y-95507314D01*
X169661443Y-95507317D01*
X169756751Y-95602625D01*
X169870893Y-95660783D01*
X169887283Y-95677173D01*
X169906040Y-95690801D01*
X169908508Y-95698398D01*
X169914157Y-95704047D01*
X169924947Y-95748992D01*
X169924947Y-95863377D01*
X169906040Y-95921568D01*
X169870893Y-95951586D01*
X169747228Y-96014597D01*
X169651917Y-96109908D01*
X169590730Y-96229993D01*
X169590728Y-96230000D01*
X169574947Y-96329636D01*
X165254607Y-96329636D01*
X164410573Y-95485602D01*
X164382796Y-95431085D01*
X164381577Y-95415598D01*
X164381577Y-94356765D01*
X164400484Y-94298574D01*
X164435629Y-94268556D01*
X164519419Y-94225864D01*
X164609127Y-94136156D01*
X164666723Y-94023118D01*
X164681577Y-93929333D01*
X164681576Y-93316296D01*
X164681575Y-93316292D01*
X164681575Y-93316290D01*
X164666724Y-93222514D01*
X164666723Y-93222512D01*
X164666723Y-93222510D01*
X164609127Y-93109472D01*
X164519419Y-93019764D01*
X164406381Y-92962168D01*
X164406382Y-92962168D01*
X164312599Y-92947314D01*
X163849556Y-92947314D01*
X163849553Y-92947315D01*
X163755777Y-92962166D01*
X163755772Y-92962168D01*
X163642736Y-93019763D01*
X163553026Y-93109473D01*
X163495431Y-93222509D01*
X163480577Y-93316291D01*
X163241398Y-93316291D01*
X163230567Y-93247905D01*
X163230565Y-93247901D01*
X163169446Y-93127949D01*
X163074249Y-93032752D01*
X162954297Y-92971633D01*
X162954298Y-92971633D01*
X162854782Y-92955871D01*
X162696329Y-92955871D01*
X162696328Y-92955872D01*
X162496328Y-92955872D01*
X162496327Y-92955871D01*
X162337875Y-92955871D01*
X162337874Y-92955872D01*
X162238362Y-92971631D01*
X162238358Y-92971633D01*
X162118406Y-93032752D01*
X162023209Y-93127949D01*
X161962090Y-93247901D01*
X161946328Y-93347417D01*
X161696828Y-93347417D01*
X161696828Y-93347383D01*
X161694939Y-93335459D01*
X161692010Y-93316961D01*
X161681047Y-93247745D01*
X161681044Y-93247740D01*
X161681044Y-93247738D01*
X161619857Y-93127653D01*
X161619856Y-93127651D01*
X161524548Y-93032343D01*
X161522331Y-93031213D01*
X161405347Y-92971606D01*
X161388957Y-92955216D01*
X161370200Y-92941588D01*
X161367731Y-92933989D01*
X161362083Y-92928341D01*
X161351293Y-92883397D01*
X161351293Y-92801324D01*
X161370200Y-92743133D01*
X161405348Y-92713114D01*
X161408914Y-92711296D01*
X161408919Y-92711296D01*
X161529013Y-92650105D01*
X161624321Y-92554797D01*
X161685512Y-92434703D01*
X161701293Y-92335065D01*
X161701293Y-91768089D01*
X161701293Y-91768087D01*
X161950293Y-91768087D01*
X161950293Y-92335066D01*
X161953941Y-92358096D01*
X161965087Y-92428474D01*
X161966074Y-92434702D01*
X161966076Y-92434709D01*
X162027263Y-92554794D01*
X162027265Y-92554797D01*
X162122573Y-92650105D01*
X162122575Y-92650106D01*
X162242660Y-92711293D01*
X162242662Y-92711293D01*
X162242667Y-92711296D01*
X162318334Y-92723280D01*
X162342303Y-92727077D01*
X162342305Y-92727077D01*
X162859283Y-92727077D01*
X162880678Y-92723688D01*
X162958919Y-92711296D01*
X163079013Y-92650105D01*
X163174321Y-92554797D01*
X163235512Y-92434703D01*
X163235512Y-92434696D01*
X163237919Y-92427295D01*
X163238997Y-92427645D01*
X163238997Y-92420484D01*
X163252623Y-92401728D01*
X163263144Y-92381078D01*
X163270263Y-92377450D01*
X163274961Y-92370984D01*
X163297008Y-92363820D01*
X163317659Y-92353297D01*
X163333152Y-92352077D01*
X163393365Y-92352077D01*
X163451556Y-92370984D01*
X163487520Y-92420484D01*
X163491146Y-92435590D01*
X163493725Y-92451877D01*
X163493727Y-92451881D01*
X163551323Y-92564919D01*
X163641031Y-92654627D01*
X163754069Y-92712223D01*
X163847854Y-92727077D01*
X164310891Y-92727076D01*
X164310893Y-92727076D01*
X164310894Y-92727075D01*
X164379875Y-92716151D01*
X164404672Y-92712224D01*
X164404672Y-92712223D01*
X164404677Y-92712223D01*
X164517715Y-92654627D01*
X164607423Y-92564919D01*
X164665019Y-92451881D01*
X164679873Y-92358096D01*
X164679872Y-91745059D01*
X164679871Y-91745054D01*
X165128873Y-91745054D01*
X165128873Y-92358097D01*
X165128874Y-92358100D01*
X165143725Y-92451876D01*
X165143727Y-92451881D01*
X165201323Y-92564919D01*
X165291031Y-92654627D01*
X165374819Y-92697319D01*
X165391209Y-92713709D01*
X165409966Y-92727337D01*
X165412434Y-92734934D01*
X165418083Y-92740583D01*
X165428873Y-92785528D01*
X165428873Y-92889730D01*
X165409966Y-92947921D01*
X165374819Y-92977939D01*
X165292736Y-93019763D01*
X165203026Y-93109473D01*
X165145431Y-93222509D01*
X165130577Y-93316291D01*
X165130577Y-93929334D01*
X165130578Y-93929337D01*
X165145429Y-94023113D01*
X165145431Y-94023118D01*
X165203027Y-94136156D01*
X165292735Y-94225864D01*
X165405773Y-94283460D01*
X165499558Y-94298314D01*
X165935478Y-94298313D01*
X165950390Y-94303158D01*
X165966071Y-94303158D01*
X165978756Y-94312374D01*
X165993669Y-94317220D01*
X166002885Y-94329905D01*
X166015571Y-94339122D01*
X166020416Y-94354034D01*
X166029633Y-94366720D01*
X166034478Y-94397313D01*
X166034478Y-94477374D01*
X166015571Y-94535565D01*
X165980424Y-94565583D01*
X165856759Y-94628594D01*
X165761448Y-94723905D01*
X165700261Y-94843990D01*
X165700259Y-94843997D01*
X165687161Y-94926698D01*
X165684478Y-94943635D01*
X165684478Y-95510611D01*
X165699051Y-95602625D01*
X165700259Y-95610248D01*
X165700261Y-95610255D01*
X165761448Y-95730340D01*
X165761450Y-95730343D01*
X165856758Y-95825651D01*
X165856760Y-95825652D01*
X165976845Y-95886839D01*
X165976847Y-95886839D01*
X165976852Y-95886842D01*
X166052519Y-95898826D01*
X166076488Y-95902623D01*
X166076490Y-95902623D01*
X166593468Y-95902623D01*
X166614863Y-95899234D01*
X166693104Y-95886842D01*
X166813198Y-95825651D01*
X166908506Y-95730343D01*
X166969697Y-95610249D01*
X166985478Y-95510611D01*
X166985478Y-95510576D01*
X167234978Y-95510576D01*
X167250738Y-95610088D01*
X167250740Y-95610092D01*
X167311859Y-95730044D01*
X167407056Y-95825241D01*
X167527008Y-95886360D01*
X167527007Y-95886360D01*
X167626523Y-95902122D01*
X167784978Y-95902122D01*
X167784978Y-95327124D01*
X167984978Y-95327124D01*
X167984978Y-95902121D01*
X167984979Y-95902122D01*
X168143431Y-95902122D01*
X168242943Y-95886362D01*
X168242947Y-95886360D01*
X168362899Y-95825241D01*
X168458096Y-95730044D01*
X168519215Y-95610092D01*
X168534978Y-95510576D01*
X168534978Y-95327124D01*
X168534977Y-95327123D01*
X167984979Y-95327123D01*
X167984978Y-95327124D01*
X167784978Y-95327124D01*
X167784977Y-95327123D01*
X167234980Y-95327123D01*
X167234979Y-95327124D01*
X167234979Y-95510576D01*
X167234978Y-95510576D01*
X166985478Y-95510576D01*
X166985478Y-94943669D01*
X167234978Y-94943669D01*
X167234978Y-95127122D01*
X167234979Y-95127123D01*
X167784977Y-95127123D01*
X167784978Y-95127122D01*
X167784978Y-94552124D01*
X167984978Y-94552124D01*
X167984978Y-95127122D01*
X167984979Y-95127123D01*
X168534976Y-95127123D01*
X168534977Y-95127122D01*
X168534977Y-94943669D01*
X168519217Y-94844157D01*
X168519215Y-94844153D01*
X168458096Y-94724201D01*
X168362899Y-94629004D01*
X168242947Y-94567885D01*
X168242948Y-94567885D01*
X168143432Y-94552123D01*
X167984979Y-94552123D01*
X167984978Y-94552124D01*
X167784978Y-94552124D01*
X167784977Y-94552123D01*
X167626525Y-94552123D01*
X167626524Y-94552124D01*
X167527012Y-94567883D01*
X167527008Y-94567885D01*
X167407056Y-94629004D01*
X167311859Y-94724201D01*
X167250740Y-94844153D01*
X167234978Y-94943669D01*
X166985478Y-94943669D01*
X166985478Y-94943635D01*
X166982795Y-94926698D01*
X166981681Y-94919664D01*
X166969697Y-94843997D01*
X166969694Y-94843992D01*
X166969694Y-94843990D01*
X166908507Y-94723905D01*
X166908506Y-94723903D01*
X166813198Y-94628595D01*
X166798235Y-94620971D01*
X166689532Y-94565583D01*
X166646268Y-94522318D01*
X166635478Y-94477374D01*
X166635478Y-94187152D01*
X166635477Y-94187150D01*
X166628065Y-94159490D01*
X166614999Y-94110726D01*
X166613953Y-94108915D01*
X166575438Y-94042204D01*
X166519489Y-93986254D01*
X166519489Y-93986255D01*
X166360572Y-93827338D01*
X166332795Y-93772821D01*
X166331576Y-93757334D01*
X166331576Y-93428311D01*
X166632673Y-93428311D01*
X166632673Y-93511526D01*
X166642584Y-93579560D01*
X166693886Y-93684498D01*
X166776484Y-93767096D01*
X166881423Y-93818397D01*
X166949456Y-93828309D01*
X167707670Y-93828309D01*
X167707672Y-93828308D01*
X167707672Y-93428311D01*
X167907672Y-93428311D01*
X167907672Y-93828308D01*
X167907673Y-93828309D01*
X168665885Y-93828309D01*
X168665888Y-93828308D01*
X168733922Y-93818397D01*
X168838860Y-93767095D01*
X168921458Y-93684497D01*
X168972759Y-93579558D01*
X168982672Y-93511525D01*
X168982672Y-93428311D01*
X168982671Y-93428310D01*
X167907673Y-93428310D01*
X167907672Y-93428311D01*
X167707672Y-93428311D01*
X167707671Y-93428310D01*
X166632674Y-93428310D01*
X166632673Y-93428311D01*
X166331576Y-93428311D01*
X166331576Y-93316292D01*
X166331575Y-93316290D01*
X166316724Y-93222514D01*
X166316723Y-93222512D01*
X166316723Y-93222510D01*
X166277277Y-93145094D01*
X166632672Y-93145094D01*
X166632672Y-93228309D01*
X166632673Y-93228310D01*
X167707671Y-93228310D01*
X167707672Y-93228309D01*
X167707672Y-92828311D01*
X167907672Y-92828311D01*
X167907672Y-93228309D01*
X167907673Y-93228310D01*
X168982670Y-93228310D01*
X168982671Y-93228309D01*
X168982671Y-93145096D01*
X168982670Y-93145093D01*
X168972759Y-93077059D01*
X168921457Y-92972121D01*
X168838859Y-92889523D01*
X168733920Y-92838222D01*
X168665888Y-92828310D01*
X167907673Y-92828310D01*
X167907672Y-92828311D01*
X167707672Y-92828311D01*
X167707671Y-92828310D01*
X166949458Y-92828310D01*
X166949455Y-92828311D01*
X166881421Y-92838222D01*
X166776483Y-92889524D01*
X166693885Y-92972122D01*
X166642584Y-93077061D01*
X166632672Y-93145094D01*
X166277277Y-93145094D01*
X166259127Y-93109472D01*
X166169419Y-93019764D01*
X166148103Y-93008903D01*
X166083927Y-92976203D01*
X166067537Y-92959813D01*
X166048780Y-92946185D01*
X166046311Y-92938586D01*
X166040663Y-92932938D01*
X166029873Y-92887994D01*
X166029873Y-92785528D01*
X166048780Y-92727337D01*
X166083925Y-92697319D01*
X166167715Y-92654627D01*
X166257423Y-92564919D01*
X166315019Y-92451881D01*
X166317599Y-92435590D01*
X166321225Y-92428474D01*
X166321225Y-92420484D01*
X166334853Y-92401725D01*
X166345376Y-92381074D01*
X166352492Y-92377447D01*
X166357189Y-92370984D01*
X166379238Y-92363819D01*
X166399892Y-92353296D01*
X166415380Y-92352077D01*
X166601015Y-92352077D01*
X166659206Y-92370984D01*
X166689955Y-92407596D01*
X166693471Y-92414788D01*
X166693472Y-92414790D01*
X166693473Y-92414791D01*
X166693474Y-92414793D01*
X166776189Y-92497508D01*
X166820835Y-92519334D01*
X166881276Y-92548882D01*
X166881277Y-92548882D01*
X166881279Y-92548883D01*
X166949412Y-92558810D01*
X166949415Y-92558810D01*
X168665929Y-92558810D01*
X168665932Y-92558810D01*
X168734065Y-92548883D01*
X168839155Y-92497508D01*
X168921870Y-92414793D01*
X168973245Y-92309703D01*
X168983172Y-92241570D01*
X168983172Y-91875050D01*
X168973245Y-91806917D01*
X168961480Y-91782852D01*
X168942183Y-91743379D01*
X168921870Y-91701827D01*
X168839155Y-91619112D01*
X168839153Y-91619111D01*
X168734067Y-91567737D01*
X168702397Y-91563123D01*
X168665932Y-91557810D01*
X166949412Y-91557810D01*
X166915345Y-91562773D01*
X166881276Y-91567737D01*
X166776190Y-91619111D01*
X166693472Y-91701829D01*
X166688707Y-91708504D01*
X166685933Y-91706523D01*
X166679872Y-91712786D01*
X166665789Y-91732170D01*
X166658967Y-91734386D01*
X166653980Y-91739540D01*
X166607598Y-91751077D01*
X166415381Y-91751077D01*
X166357190Y-91732170D01*
X166321226Y-91682670D01*
X166317600Y-91667564D01*
X166315020Y-91651276D01*
X166315019Y-91651274D01*
X166315019Y-91651273D01*
X166257423Y-91538235D01*
X166167715Y-91448527D01*
X166054677Y-91390931D01*
X166054678Y-91390931D01*
X165960895Y-91376077D01*
X165497852Y-91376077D01*
X165497849Y-91376078D01*
X165404073Y-91390929D01*
X165404068Y-91390931D01*
X165291032Y-91448526D01*
X165201322Y-91538236D01*
X165143727Y-91651272D01*
X165128873Y-91745054D01*
X164679871Y-91745054D01*
X164679871Y-91745052D01*
X164665020Y-91651277D01*
X164665019Y-91651275D01*
X164665019Y-91651273D01*
X164607423Y-91538235D01*
X164517715Y-91448527D01*
X164404677Y-91390931D01*
X164404678Y-91390931D01*
X164310895Y-91376077D01*
X163847852Y-91376077D01*
X163847849Y-91376078D01*
X163754073Y-91390929D01*
X163754068Y-91390931D01*
X163641032Y-91448526D01*
X163551322Y-91538236D01*
X163493727Y-91651272D01*
X163491147Y-91667563D01*
X163487521Y-91674679D01*
X163487521Y-91682670D01*
X163473892Y-91701428D01*
X163463370Y-91722080D01*
X163456253Y-91725706D01*
X163451557Y-91732170D01*
X163429507Y-91739334D01*
X163408854Y-91749858D01*
X163393366Y-91751077D01*
X163333152Y-91751077D01*
X163274961Y-91732170D01*
X163238997Y-91682670D01*
X163235788Y-91669301D01*
X163235512Y-91668455D01*
X163235512Y-91668451D01*
X163174321Y-91548357D01*
X163079013Y-91453049D01*
X163079010Y-91453047D01*
X162958925Y-91391860D01*
X162958920Y-91391858D01*
X162958919Y-91391858D01*
X162925706Y-91386597D01*
X162859283Y-91376077D01*
X162859281Y-91376077D01*
X162342305Y-91376077D01*
X162342303Y-91376077D01*
X162242667Y-91391858D01*
X162242660Y-91391860D01*
X162122575Y-91453047D01*
X162027263Y-91548359D01*
X161966076Y-91668444D01*
X161966074Y-91668451D01*
X161950293Y-91768087D01*
X161701293Y-91768087D01*
X161685512Y-91668451D01*
X161685509Y-91668446D01*
X161685509Y-91668444D01*
X161624322Y-91548359D01*
X161624321Y-91548357D01*
X161529013Y-91453049D01*
X161529010Y-91453047D01*
X161408925Y-91391860D01*
X161408920Y-91391858D01*
X161408919Y-91391858D01*
X161375706Y-91386597D01*
X161309283Y-91376077D01*
X161309281Y-91376077D01*
X160792305Y-91376077D01*
X160792303Y-91376077D01*
X160692667Y-91391858D01*
X160692660Y-91391860D01*
X160572575Y-91453047D01*
X160477263Y-91548359D01*
X160416076Y-91668444D01*
X160416074Y-91668451D01*
X160400293Y-91768087D01*
X160400293Y-92335066D01*
X160403941Y-92358096D01*
X160415087Y-92428474D01*
X160416074Y-92434702D01*
X160416076Y-92434709D01*
X160477263Y-92554794D01*
X160477265Y-92554797D01*
X160572573Y-92650105D01*
X160692667Y-92711296D01*
X160692671Y-92711296D01*
X160696238Y-92713114D01*
X160712628Y-92729504D01*
X160731386Y-92743133D01*
X160733854Y-92750731D01*
X160739502Y-92756379D01*
X160750293Y-92801324D01*
X160750293Y-92879049D01*
X160731386Y-92937240D01*
X160693645Y-92964672D01*
X160695144Y-92967614D01*
X160568110Y-93032341D01*
X160472798Y-93127653D01*
X160411611Y-93247738D01*
X160411609Y-93247745D01*
X160395828Y-93347381D01*
X160395828Y-93914360D01*
X160411609Y-94013996D01*
X160411611Y-94014003D01*
X160472798Y-94134088D01*
X160472800Y-94134091D01*
X160568108Y-94229399D01*
X160674539Y-94283628D01*
X160717803Y-94326892D01*
X160728593Y-94371837D01*
X160728593Y-96223549D01*
X160709686Y-96281740D01*
X160687784Y-96303641D01*
X160546068Y-96406604D01*
X160390191Y-96562481D01*
X160359549Y-96604657D01*
X160260616Y-96740826D01*
X160160535Y-96937246D01*
X160092417Y-97146897D01*
X160057933Y-97364620D01*
X159500500Y-97364620D01*
X159500500Y-89246024D01*
X160003082Y-89246024D01*
X160003082Y-89466475D01*
X160037566Y-89684198D01*
X160105684Y-89893849D01*
X160105686Y-89893852D01*
X160105687Y-89893856D01*
X160138120Y-89957508D01*
X160178988Y-90037717D01*
X160205767Y-90090272D01*
X160335340Y-90268615D01*
X160491217Y-90424492D01*
X160669560Y-90554065D01*
X160865976Y-90654145D01*
X161075631Y-90722265D01*
X161162722Y-90736059D01*
X161293357Y-90756750D01*
X161293360Y-90756750D01*
X161513807Y-90756750D01*
X161622668Y-90739507D01*
X161731533Y-90722265D01*
X161941188Y-90654145D01*
X162137604Y-90554065D01*
X162315947Y-90424492D01*
X162471824Y-90268615D01*
X162601397Y-90090272D01*
X162701477Y-89893856D01*
X162725861Y-89818810D01*
X162756290Y-89725158D01*
X162792254Y-89675657D01*
X162850445Y-89656750D01*
X166540021Y-89656750D01*
X166598212Y-89675657D01*
X166634176Y-89725157D01*
X166637985Y-89741470D01*
X166640505Y-89758764D01*
X166642099Y-89769705D01*
X166680281Y-89847806D01*
X166693474Y-89874793D01*
X166776189Y-89957508D01*
X166829957Y-89983793D01*
X166881276Y-90008882D01*
X166881277Y-90008882D01*
X166881279Y-90008883D01*
X166949412Y-90018810D01*
X167408172Y-90018810D01*
X167423084Y-90023655D01*
X167438765Y-90023655D01*
X167451450Y-90032871D01*
X167466363Y-90037717D01*
X167475579Y-90050402D01*
X167488265Y-90059619D01*
X167493110Y-90074531D01*
X167502327Y-90087217D01*
X167507172Y-90117810D01*
X167507172Y-90188810D01*
X167488265Y-90247001D01*
X167438765Y-90282965D01*
X167408172Y-90287810D01*
X166949412Y-90287810D01*
X166915345Y-90292773D01*
X166881276Y-90297737D01*
X166776190Y-90349111D01*
X166693473Y-90431828D01*
X166642099Y-90536914D01*
X166639600Y-90554066D01*
X166632172Y-90605050D01*
X166632172Y-90971570D01*
X166634059Y-90984521D01*
X166642099Y-91039705D01*
X166675873Y-91108790D01*
X166693474Y-91144793D01*
X166776189Y-91227508D01*
X166828778Y-91253217D01*
X166881276Y-91278882D01*
X166881277Y-91278882D01*
X166881279Y-91278883D01*
X166949412Y-91288810D01*
X166949415Y-91288810D01*
X168665929Y-91288810D01*
X168665932Y-91288810D01*
X168734065Y-91278883D01*
X168839155Y-91227508D01*
X168921870Y-91144793D01*
X168973245Y-91039703D01*
X168983172Y-90971570D01*
X168983172Y-90605050D01*
X168973245Y-90536917D01*
X168921870Y-90431827D01*
X168839155Y-90349112D01*
X168799030Y-90329496D01*
X168734067Y-90297737D01*
X168706811Y-90293766D01*
X168665932Y-90287810D01*
X168665929Y-90287810D01*
X168207172Y-90287810D01*
X168192260Y-90282965D01*
X168176579Y-90282965D01*
X168163893Y-90273748D01*
X168148981Y-90268903D01*
X168139764Y-90256217D01*
X168127079Y-90247001D01*
X168122233Y-90232088D01*
X168113017Y-90219403D01*
X168108172Y-90188810D01*
X168108172Y-90117810D01*
X168127079Y-90059619D01*
X168176579Y-90023655D01*
X168207172Y-90018810D01*
X168665929Y-90018810D01*
X168665932Y-90018810D01*
X168734065Y-90008883D01*
X168839155Y-89957508D01*
X168921870Y-89874793D01*
X168973245Y-89769703D01*
X168983172Y-89701570D01*
X168983172Y-89335050D01*
X168973245Y-89266917D01*
X168921870Y-89161827D01*
X168839155Y-89079112D01*
X168839153Y-89079111D01*
X168734067Y-89027737D01*
X168706811Y-89023766D01*
X168665932Y-89017810D01*
X166949412Y-89017810D01*
X166908532Y-89023766D01*
X166881277Y-89027737D01*
X166862652Y-89036843D01*
X166844552Y-89045691D01*
X166801073Y-89055750D01*
X162850445Y-89055750D01*
X162792254Y-89036843D01*
X162756290Y-88987343D01*
X162756290Y-88987342D01*
X162701479Y-88818650D01*
X162701478Y-88818649D01*
X162701477Y-88818644D01*
X162601397Y-88622228D01*
X162471824Y-88443885D01*
X162315947Y-88288008D01*
X162137604Y-88158435D01*
X162137603Y-88158434D01*
X162137601Y-88158433D01*
X161981560Y-88078926D01*
X161941188Y-88058355D01*
X161941184Y-88058354D01*
X161941181Y-88058352D01*
X161731530Y-87990234D01*
X161513807Y-87955750D01*
X161513804Y-87955750D01*
X161293360Y-87955750D01*
X161293357Y-87955750D01*
X161075633Y-87990234D01*
X160865982Y-88058352D01*
X160669562Y-88158433D01*
X160580388Y-88223221D01*
X160491217Y-88288008D01*
X160335340Y-88443885D01*
X160288672Y-88508119D01*
X160205765Y-88622230D01*
X160105684Y-88818650D01*
X160037566Y-89028301D01*
X160003082Y-89246024D01*
X159500500Y-89246024D01*
X159500500Y-82181097D01*
X166626334Y-82181097D01*
X166626334Y-82401548D01*
X166660818Y-82619271D01*
X166728936Y-82828922D01*
X166728938Y-82828925D01*
X166728939Y-82828929D01*
X166829019Y-83025345D01*
X166958592Y-83203688D01*
X167114469Y-83359565D01*
X167292812Y-83489138D01*
X167489228Y-83589218D01*
X167698883Y-83657338D01*
X167771927Y-83668907D01*
X167916609Y-83691823D01*
X167916612Y-83691823D01*
X168137059Y-83691823D01*
X168245920Y-83674580D01*
X168354785Y-83657338D01*
X168564440Y-83589218D01*
X168566456Y-83588190D01*
X168567209Y-83588071D01*
X168568033Y-83587730D01*
X168568114Y-83587927D01*
X168626884Y-83578609D01*
X168681406Y-83606378D01*
X168681418Y-83606389D01*
X171500632Y-86425603D01*
X171528409Y-86480120D01*
X171529628Y-86495607D01*
X171529628Y-87083778D01*
X171510721Y-87141969D01*
X171475574Y-87171987D01*
X171391787Y-87214679D01*
X171302077Y-87304389D01*
X171244482Y-87417425D01*
X171229628Y-87511207D01*
X171229628Y-88124250D01*
X171229629Y-88124253D01*
X171244480Y-88218029D01*
X171244482Y-88218034D01*
X171302078Y-88331072D01*
X171391786Y-88420780D01*
X171504824Y-88478376D01*
X171598609Y-88493230D01*
X172061646Y-88493229D01*
X172061648Y-88493229D01*
X172061649Y-88493228D01*
X172130630Y-88482304D01*
X172155427Y-88478377D01*
X172155427Y-88478376D01*
X172155432Y-88478376D01*
X172268470Y-88420780D01*
X172358178Y-88331072D01*
X172415774Y-88218034D01*
X172430628Y-88124249D01*
X172430627Y-87625355D01*
X175807451Y-87625355D01*
X175807451Y-87831839D01*
X175822283Y-87925495D01*
X175822286Y-87925505D01*
X175879808Y-88038397D01*
X175969406Y-88127995D01*
X176082298Y-88185517D01*
X176082302Y-88185518D01*
X176175965Y-88200353D01*
X176307450Y-88200353D01*
X176307450Y-87625355D01*
X176507450Y-87625355D01*
X176507450Y-88200352D01*
X176507451Y-88200353D01*
X176638933Y-88200353D01*
X176638935Y-88200352D01*
X176732591Y-88185520D01*
X176732601Y-88185517D01*
X176845493Y-88127995D01*
X176935091Y-88038397D01*
X176992613Y-87925505D01*
X176992614Y-87925501D01*
X177007450Y-87831838D01*
X177007450Y-87625355D01*
X177007449Y-87625354D01*
X176507451Y-87625354D01*
X176507450Y-87625355D01*
X176307450Y-87625355D01*
X176307449Y-87625354D01*
X175807452Y-87625354D01*
X175807451Y-87625355D01*
X172430627Y-87625355D01*
X172430627Y-87511212D01*
X172417030Y-87425354D01*
X172415775Y-87417430D01*
X172415774Y-87417428D01*
X172415774Y-87417426D01*
X172358178Y-87304388D01*
X172272659Y-87218869D01*
X175807450Y-87218869D01*
X175807450Y-87425353D01*
X175807451Y-87425354D01*
X176307449Y-87425354D01*
X176307450Y-87425353D01*
X176307450Y-86850355D01*
X176507450Y-86850355D01*
X176507450Y-87425353D01*
X176507451Y-87425354D01*
X177007448Y-87425354D01*
X177007449Y-87425353D01*
X177007449Y-87218870D01*
X177007448Y-87218868D01*
X176992616Y-87125212D01*
X176992613Y-87125202D01*
X176935091Y-87012310D01*
X176845493Y-86922712D01*
X176732601Y-86865190D01*
X176732597Y-86865189D01*
X176638934Y-86850354D01*
X176507451Y-86850354D01*
X176507450Y-86850355D01*
X176307450Y-86850355D01*
X176307449Y-86850354D01*
X176175967Y-86850354D01*
X176175964Y-86850355D01*
X176082308Y-86865187D01*
X176082298Y-86865190D01*
X175969406Y-86922712D01*
X175879808Y-87012310D01*
X175822286Y-87125202D01*
X175822285Y-87125206D01*
X175807450Y-87218869D01*
X172272659Y-87218869D01*
X172268470Y-87214680D01*
X172250149Y-87205345D01*
X172184682Y-87171987D01*
X172141418Y-87128722D01*
X172130628Y-87083778D01*
X172130628Y-86290565D01*
X172130627Y-86290563D01*
X172110149Y-86214139D01*
X172110147Y-86214135D01*
X172070588Y-86145617D01*
X172014639Y-86089667D01*
X172014639Y-86089668D01*
X169168995Y-83244024D01*
X169141218Y-83189507D01*
X169150789Y-83129075D01*
X169158897Y-83115843D01*
X169224649Y-83025345D01*
X169324729Y-82828929D01*
X169392849Y-82619274D01*
X169411404Y-82502121D01*
X169427334Y-82401548D01*
X169427334Y-82181097D01*
X169392849Y-81963374D01*
X169392849Y-81963372D01*
X169324729Y-81753717D01*
X169224649Y-81557301D01*
X169095076Y-81378958D01*
X168939199Y-81223081D01*
X168760856Y-81093508D01*
X168760855Y-81093507D01*
X168760853Y-81093506D01*
X168671659Y-81048059D01*
X168564440Y-80993428D01*
X168564436Y-80993427D01*
X168564433Y-80993425D01*
X168354782Y-80925307D01*
X168137059Y-80890823D01*
X168137056Y-80890823D01*
X167916612Y-80890823D01*
X167916609Y-80890823D01*
X167698885Y-80925307D01*
X167489234Y-80993425D01*
X167292814Y-81093506D01*
X167203640Y-81158294D01*
X167114469Y-81223081D01*
X166958592Y-81378958D01*
X166893805Y-81468129D01*
X166829017Y-81557303D01*
X166728936Y-81753723D01*
X166660818Y-81963374D01*
X166626334Y-82181097D01*
X159500500Y-82181097D01*
X159500500Y-80099500D01*
X159519407Y-80041309D01*
X159568907Y-80005345D01*
X159599500Y-80000500D01*
X195400500Y-80000500D01*
X195458691Y-80019407D01*
G37*
%TD.AperFunction*%
%TD*%
M02*
