%TF.GenerationSoftware,KiCad,Pcbnew,9.0.5*%
%TF.CreationDate,2026-07-21T08:29:26+02:00*%
%TF.ProjectId,buffer,62756666-6572-42e6-9b69-6361645f7063,rev?*%
%TF.SameCoordinates,Original*%
%TF.FileFunction,Copper,L2,Bot*%
%TF.FilePolarity,Positive*%
%FSLAX46Y46*%
G04 Gerber Fmt 4.6, Leading zero omitted, Abs format (unit mm)*
G04 Created by KiCad (PCBNEW 9.0.5) date 2026-07-21 08:29:26*
%MOMM*%
%LPD*%
G01*
G04 APERTURE LIST*
G04 Aperture macros list*
%AMRoundRect*
0 Rectangle with rounded corners*
0 $1 Rounding radius*
0 $2 $3 $4 $5 $6 $7 $8 $9 X,Y pos of 4 corners*
0 Add a 4 corners polygon primitive as box body*
4,1,4,$2,$3,$4,$5,$6,$7,$8,$9,$2,$3,0*
0 Add four circle primitives for the rounded corners*
1,1,$1+$1,$2,$3*
1,1,$1+$1,$4,$5*
1,1,$1+$1,$6,$7*
1,1,$1+$1,$8,$9*
0 Add four rect primitives between the rounded corners*
20,1,$1+$1,$2,$3,$4,$5,0*
20,1,$1+$1,$4,$5,$6,$7,0*
20,1,$1+$1,$6,$7,$8,$9,0*
20,1,$1+$1,$8,$9,$2,$3,0*%
G04 Aperture macros list end*
%TA.AperFunction,ComponentPad*%
%ADD10C,2.400000*%
%TD*%
%TA.AperFunction,ComponentPad*%
%ADD11RoundRect,0.250000X0.550000X-0.550000X0.550000X0.550000X-0.550000X0.550000X-0.550000X-0.550000X0*%
%TD*%
%TA.AperFunction,ComponentPad*%
%ADD12C,1.600000*%
%TD*%
%TA.AperFunction,ComponentPad*%
%ADD13RoundRect,0.250000X0.550000X0.550000X-0.550000X0.550000X-0.550000X-0.550000X0.550000X-0.550000X0*%
%TD*%
G04 APERTURE END LIST*
D10*
%TO.P,BUFFER_IN1,1,1*%
%TO.N,Net-(BUFFER_IN1-Pad1)*%
X168026834Y-82291323D03*
%TD*%
%TO.P,OUT1,1,1*%
%TO.N,Net-(C6-Pad2)*%
X173645760Y-82291323D03*
%TD*%
%TO.P,9V1,1,1*%
%TO.N,+9V*%
X179000000Y-82291323D03*
%TD*%
%TO.P,GOUT1,1,1*%
%TO.N,Net-(U2A--)*%
X161403582Y-89356250D03*
%TD*%
%TO.P,GIN1,1,1*%
%TO.N,Net-(C1-Pad1)*%
X161458433Y-97474846D03*
%TD*%
%TO.P,GND1,1,1*%
%TO.N,GND*%
X193670933Y-82733712D03*
%TD*%
D11*
%TO.P,C12,1*%
%TO.N,VREF*%
X181316266Y-96797030D03*
D12*
%TO.P,C12,2*%
%TO.N,GND*%
X181316266Y-94297030D03*
%TD*%
D13*
%TO.P,C7,1*%
%TO.N,VCC*%
X183868330Y-87787238D03*
D12*
%TO.P,C7,2*%
%TO.N,GND*%
X181368330Y-87787238D03*
%TD*%
D10*
%TO.P,5V1,1,1*%
%TO.N,5V*%
X189987207Y-82739670D03*
%TD*%
%TA.AperFunction,Conductor*%
%TO.N,GND*%
G36*
X195458691Y-80019407D02*
G01*
X195494655Y-80068907D01*
X195499500Y-80099500D01*
X195499500Y-99400500D01*
X195480593Y-99458691D01*
X195431093Y-99494655D01*
X195400500Y-99499500D01*
X159599500Y-99499500D01*
X159541309Y-99480593D01*
X159505345Y-99431093D01*
X159500500Y-99400500D01*
X159500500Y-97364620D01*
X160057933Y-97364620D01*
X160057933Y-97585071D01*
X160092417Y-97802794D01*
X160160535Y-98012445D01*
X160160537Y-98012448D01*
X160160538Y-98012452D01*
X160260618Y-98208868D01*
X160390191Y-98387211D01*
X160546068Y-98543088D01*
X160724411Y-98672661D01*
X160920827Y-98772741D01*
X161130482Y-98840861D01*
X161217573Y-98854655D01*
X161348208Y-98875346D01*
X161348211Y-98875346D01*
X161568658Y-98875346D01*
X161677519Y-98858103D01*
X161786384Y-98840861D01*
X161996039Y-98772741D01*
X162192455Y-98672661D01*
X162370798Y-98543088D01*
X162526675Y-98387211D01*
X162656248Y-98208868D01*
X162756328Y-98012452D01*
X162824448Y-97802797D01*
X162858933Y-97585068D01*
X162858933Y-97364624D01*
X162858933Y-97364620D01*
X162824448Y-97146897D01*
X162824448Y-97146895D01*
X162756328Y-96937240D01*
X162656248Y-96740824D01*
X162526675Y-96562481D01*
X162370798Y-96406604D01*
X162192455Y-96277031D01*
X162027056Y-96192755D01*
X180315766Y-96192755D01*
X180315766Y-97401304D01*
X180318619Y-97431724D01*
X180318621Y-97431733D01*
X180363473Y-97559913D01*
X180444111Y-97669174D01*
X180444113Y-97669176D01*
X180444116Y-97669180D01*
X180444119Y-97669182D01*
X180444121Y-97669184D01*
X180553382Y-97749822D01*
X180553383Y-97749822D01*
X180553384Y-97749823D01*
X180681567Y-97794676D01*
X180711991Y-97797529D01*
X180711993Y-97797530D01*
X180712000Y-97797530D01*
X181920539Y-97797530D01*
X181920539Y-97797529D01*
X181950965Y-97794676D01*
X182079148Y-97749823D01*
X182188416Y-97669180D01*
X182269059Y-97559912D01*
X182313912Y-97431729D01*
X182316765Y-97401303D01*
X182316766Y-97401303D01*
X182316766Y-96192757D01*
X182316765Y-96192755D01*
X182313912Y-96162335D01*
X182313912Y-96162331D01*
X182269059Y-96034148D01*
X182188416Y-95924880D01*
X182188412Y-95924877D01*
X182188410Y-95924875D01*
X182079149Y-95844237D01*
X181950969Y-95799385D01*
X181950960Y-95799383D01*
X181920540Y-95796530D01*
X181920532Y-95796530D01*
X180712000Y-95796530D01*
X180711991Y-95796530D01*
X180681571Y-95799383D01*
X180681562Y-95799385D01*
X180553382Y-95844237D01*
X180444121Y-95924875D01*
X180444111Y-95924885D01*
X180363473Y-96034146D01*
X180318621Y-96162326D01*
X180318619Y-96162335D01*
X180315766Y-96192755D01*
X162027056Y-96192755D01*
X161996039Y-96176951D01*
X161996035Y-96176950D01*
X161996032Y-96176948D01*
X161786381Y-96108830D01*
X161568658Y-96074346D01*
X161568655Y-96074346D01*
X161348211Y-96074346D01*
X161348208Y-96074346D01*
X161130484Y-96108830D01*
X160920833Y-96176948D01*
X160724413Y-96277029D01*
X160635239Y-96341817D01*
X160546068Y-96406604D01*
X160390191Y-96562481D01*
X160325404Y-96651652D01*
X160260616Y-96740826D01*
X160160535Y-96937246D01*
X160092417Y-97146897D01*
X160057933Y-97364620D01*
X159500500Y-97364620D01*
X159500500Y-94198536D01*
X180316266Y-94198536D01*
X180316266Y-94395523D01*
X180354695Y-94588718D01*
X180354695Y-94588720D01*
X180430075Y-94770705D01*
X180430078Y-94770711D01*
X180538658Y-94933212D01*
X180971680Y-94500190D01*
X180996186Y-94542636D01*
X181070660Y-94617110D01*
X181113102Y-94641614D01*
X180680082Y-95074635D01*
X180842590Y-95183220D01*
X181024576Y-95258600D01*
X181217772Y-95297029D01*
X181217776Y-95297030D01*
X181414756Y-95297030D01*
X181414759Y-95297029D01*
X181607954Y-95258600D01*
X181607956Y-95258600D01*
X181789941Y-95183220D01*
X181952448Y-95074635D01*
X181519427Y-94641614D01*
X181561872Y-94617110D01*
X181636346Y-94542636D01*
X181660850Y-94500191D01*
X182093871Y-94933212D01*
X182202456Y-94770705D01*
X182277836Y-94588720D01*
X182277836Y-94588718D01*
X182316265Y-94395523D01*
X182316266Y-94395520D01*
X182316266Y-94198539D01*
X182316265Y-94198536D01*
X182277836Y-94005341D01*
X182277836Y-94005339D01*
X182202456Y-93823354D01*
X182093871Y-93660846D01*
X181660850Y-94093866D01*
X181636346Y-94051424D01*
X181561872Y-93976950D01*
X181519426Y-93952444D01*
X181952449Y-93519422D01*
X181789947Y-93410842D01*
X181789941Y-93410839D01*
X181607955Y-93335459D01*
X181414759Y-93297030D01*
X181217772Y-93297030D01*
X181024577Y-93335459D01*
X181024575Y-93335459D01*
X180842592Y-93410838D01*
X180842580Y-93410844D01*
X180680082Y-93519423D01*
X181113104Y-93952445D01*
X181070660Y-93976950D01*
X180996186Y-94051424D01*
X180971681Y-94093868D01*
X180538659Y-93660846D01*
X180430080Y-93823344D01*
X180430074Y-93823356D01*
X180354695Y-94005339D01*
X180354695Y-94005341D01*
X180316266Y-94198536D01*
X159500500Y-94198536D01*
X159500500Y-89246024D01*
X160003082Y-89246024D01*
X160003082Y-89466475D01*
X160037566Y-89684198D01*
X160105684Y-89893849D01*
X160105686Y-89893852D01*
X160105687Y-89893856D01*
X160205767Y-90090272D01*
X160335340Y-90268615D01*
X160491217Y-90424492D01*
X160669560Y-90554065D01*
X160865976Y-90654145D01*
X161075631Y-90722265D01*
X161162722Y-90736059D01*
X161293357Y-90756750D01*
X161293360Y-90756750D01*
X161513807Y-90756750D01*
X161622668Y-90739507D01*
X161731533Y-90722265D01*
X161941188Y-90654145D01*
X162137604Y-90554065D01*
X162315947Y-90424492D01*
X162471824Y-90268615D01*
X162601397Y-90090272D01*
X162701477Y-89893856D01*
X162769597Y-89684201D01*
X162804082Y-89466472D01*
X162804082Y-89246028D01*
X162804082Y-89246024D01*
X162769597Y-89028301D01*
X162769597Y-89028299D01*
X162701477Y-88818644D01*
X162601397Y-88622228D01*
X162471824Y-88443885D01*
X162315947Y-88288008D01*
X162137604Y-88158435D01*
X162137603Y-88158434D01*
X162137601Y-88158433D01*
X161981560Y-88078926D01*
X161941188Y-88058355D01*
X161941184Y-88058354D01*
X161941181Y-88058352D01*
X161731530Y-87990234D01*
X161513807Y-87955750D01*
X161513804Y-87955750D01*
X161293360Y-87955750D01*
X161293357Y-87955750D01*
X161075633Y-87990234D01*
X160865982Y-88058352D01*
X160669562Y-88158433D01*
X160580388Y-88223221D01*
X160491217Y-88288008D01*
X160335340Y-88443885D01*
X160270553Y-88533056D01*
X160205765Y-88622230D01*
X160105684Y-88818650D01*
X160037566Y-89028301D01*
X160003082Y-89246024D01*
X159500500Y-89246024D01*
X159500500Y-87688744D01*
X180368330Y-87688744D01*
X180368330Y-87885731D01*
X180406759Y-88078926D01*
X180406759Y-88078928D01*
X180482139Y-88260913D01*
X180482142Y-88260919D01*
X180590722Y-88423420D01*
X181023744Y-87990398D01*
X181048250Y-88032844D01*
X181122724Y-88107318D01*
X181165166Y-88131822D01*
X180732146Y-88564843D01*
X180894654Y-88673428D01*
X181076640Y-88748808D01*
X181269836Y-88787237D01*
X181269840Y-88787238D01*
X181466820Y-88787238D01*
X181466823Y-88787237D01*
X181660018Y-88748808D01*
X181660020Y-88748808D01*
X181842005Y-88673428D01*
X182004512Y-88564843D01*
X181571491Y-88131822D01*
X181613936Y-88107318D01*
X181688410Y-88032844D01*
X181712914Y-87990399D01*
X182145935Y-88423420D01*
X182254520Y-88260913D01*
X182329900Y-88078928D01*
X182329900Y-88078926D01*
X182368329Y-87885731D01*
X182368330Y-87885728D01*
X182368330Y-87688747D01*
X182368329Y-87688744D01*
X182329900Y-87495549D01*
X182329900Y-87495547D01*
X182254520Y-87313562D01*
X182254520Y-87313561D01*
X182202467Y-87235659D01*
X182167256Y-87182963D01*
X182867830Y-87182963D01*
X182867830Y-88391512D01*
X182870683Y-88421932D01*
X182870685Y-88421941D01*
X182915537Y-88550121D01*
X182996175Y-88659382D01*
X182996177Y-88659384D01*
X182996180Y-88659388D01*
X182996183Y-88659390D01*
X182996185Y-88659392D01*
X183105446Y-88740030D01*
X183105447Y-88740030D01*
X183105448Y-88740031D01*
X183233631Y-88784884D01*
X183264055Y-88787737D01*
X183264057Y-88787738D01*
X183264064Y-88787738D01*
X184472603Y-88787738D01*
X184472603Y-88787737D01*
X184503029Y-88784884D01*
X184631212Y-88740031D01*
X184740480Y-88659388D01*
X184821123Y-88550120D01*
X184865976Y-88421937D01*
X184868829Y-88391511D01*
X184868830Y-88391511D01*
X184868830Y-87182965D01*
X184868829Y-87182963D01*
X184865976Y-87152543D01*
X184865976Y-87152539D01*
X184821123Y-87024356D01*
X184740480Y-86915088D01*
X184740476Y-86915085D01*
X184740474Y-86915083D01*
X184631213Y-86834445D01*
X184503033Y-86789593D01*
X184503024Y-86789591D01*
X184472604Y-86786738D01*
X184472596Y-86786738D01*
X183264064Y-86786738D01*
X183264055Y-86786738D01*
X183233635Y-86789591D01*
X183233626Y-86789593D01*
X183105446Y-86834445D01*
X182996185Y-86915083D01*
X182996175Y-86915093D01*
X182915537Y-87024354D01*
X182870685Y-87152534D01*
X182870683Y-87152543D01*
X182867830Y-87182963D01*
X182167256Y-87182963D01*
X182145935Y-87151054D01*
X181712914Y-87584074D01*
X181688410Y-87541632D01*
X181613936Y-87467158D01*
X181571490Y-87442652D01*
X182004513Y-87009630D01*
X181842011Y-86901050D01*
X181842005Y-86901047D01*
X181660019Y-86825667D01*
X181466823Y-86787238D01*
X181269836Y-86787238D01*
X181076641Y-86825667D01*
X181076639Y-86825667D01*
X180894656Y-86901046D01*
X180894644Y-86901052D01*
X180732146Y-87009631D01*
X181165168Y-87442653D01*
X181122724Y-87467158D01*
X181048250Y-87541632D01*
X181023745Y-87584076D01*
X180590723Y-87151054D01*
X180482144Y-87313552D01*
X180482138Y-87313564D01*
X180406759Y-87495547D01*
X180406759Y-87495549D01*
X180368330Y-87688744D01*
X159500500Y-87688744D01*
X159500500Y-82181097D01*
X166626334Y-82181097D01*
X166626334Y-82401548D01*
X166660818Y-82619271D01*
X166728936Y-82828922D01*
X166728938Y-82828925D01*
X166728939Y-82828929D01*
X166829019Y-83025345D01*
X166958592Y-83203688D01*
X167114469Y-83359565D01*
X167292812Y-83489138D01*
X167489228Y-83589218D01*
X167698883Y-83657338D01*
X167785974Y-83671132D01*
X167916609Y-83691823D01*
X167916612Y-83691823D01*
X168137059Y-83691823D01*
X168245920Y-83674580D01*
X168354785Y-83657338D01*
X168564440Y-83589218D01*
X168760856Y-83489138D01*
X168939199Y-83359565D01*
X169095076Y-83203688D01*
X169224649Y-83025345D01*
X169324729Y-82828929D01*
X169392849Y-82619274D01*
X169411404Y-82502121D01*
X169427334Y-82401548D01*
X169427334Y-82181097D01*
X172245260Y-82181097D01*
X172245260Y-82401548D01*
X172279744Y-82619271D01*
X172347862Y-82828922D01*
X172347864Y-82828925D01*
X172347865Y-82828929D01*
X172447945Y-83025345D01*
X172577518Y-83203688D01*
X172733395Y-83359565D01*
X172911738Y-83489138D01*
X173108154Y-83589218D01*
X173317809Y-83657338D01*
X173404900Y-83671132D01*
X173535535Y-83691823D01*
X173535538Y-83691823D01*
X173755985Y-83691823D01*
X173864846Y-83674580D01*
X173973711Y-83657338D01*
X174183366Y-83589218D01*
X174379782Y-83489138D01*
X174558125Y-83359565D01*
X174714002Y-83203688D01*
X174843575Y-83025345D01*
X174943655Y-82828929D01*
X175011775Y-82619274D01*
X175030330Y-82502121D01*
X175046260Y-82401548D01*
X175046260Y-82181097D01*
X177599500Y-82181097D01*
X177599500Y-82401548D01*
X177633984Y-82619271D01*
X177702102Y-82828922D01*
X177702104Y-82828925D01*
X177702105Y-82828929D01*
X177802185Y-83025345D01*
X177931758Y-83203688D01*
X178087635Y-83359565D01*
X178265978Y-83489138D01*
X178462394Y-83589218D01*
X178672049Y-83657338D01*
X178759140Y-83671132D01*
X178889775Y-83691823D01*
X178889778Y-83691823D01*
X179110225Y-83691823D01*
X179219086Y-83674580D01*
X179327951Y-83657338D01*
X179537606Y-83589218D01*
X179734022Y-83489138D01*
X179912365Y-83359565D01*
X180068242Y-83203688D01*
X180197815Y-83025345D01*
X180297895Y-82828929D01*
X180362711Y-82629444D01*
X188586707Y-82629444D01*
X188586707Y-82849895D01*
X188621191Y-83067618D01*
X188689309Y-83277269D01*
X188689311Y-83277272D01*
X188689312Y-83277276D01*
X188789392Y-83473692D01*
X188918965Y-83652035D01*
X189074842Y-83807912D01*
X189253185Y-83937485D01*
X189449601Y-84037565D01*
X189659256Y-84105685D01*
X189746347Y-84119479D01*
X189876982Y-84140170D01*
X189876985Y-84140170D01*
X190097432Y-84140170D01*
X190206293Y-84122927D01*
X190315158Y-84105685D01*
X190524813Y-84037565D01*
X190721229Y-83937485D01*
X190899572Y-83807912D01*
X191055449Y-83652035D01*
X191185022Y-83473692D01*
X191285102Y-83277276D01*
X191353222Y-83067621D01*
X191387707Y-82849892D01*
X191387707Y-82629448D01*
X191387707Y-82629444D01*
X191386770Y-82623526D01*
X192270933Y-82623526D01*
X192270933Y-82843897D01*
X192305404Y-83061541D01*
X192373502Y-83271125D01*
X192473544Y-83467469D01*
X192603072Y-83645749D01*
X192610272Y-83652949D01*
X193179938Y-83083282D01*
X193190814Y-83102120D01*
X193302525Y-83213831D01*
X193321360Y-83224706D01*
X192751695Y-83794372D01*
X192758895Y-83801572D01*
X192937175Y-83931100D01*
X193133519Y-84031142D01*
X193343103Y-84099240D01*
X193560748Y-84133712D01*
X193781118Y-84133712D01*
X193998762Y-84099240D01*
X194208346Y-84031142D01*
X194404690Y-83931100D01*
X194582977Y-83801567D01*
X194590171Y-83794372D01*
X194020505Y-83224706D01*
X194039341Y-83213831D01*
X194151052Y-83102120D01*
X194161927Y-83083284D01*
X194731593Y-83652950D01*
X194738788Y-83645756D01*
X194868321Y-83467469D01*
X194968363Y-83271125D01*
X195036461Y-83061541D01*
X195070933Y-82843897D01*
X195070933Y-82623526D01*
X195036461Y-82405882D01*
X194968363Y-82196298D01*
X194868321Y-81999954D01*
X194738793Y-81821674D01*
X194731593Y-81814474D01*
X194161927Y-82384139D01*
X194151052Y-82365304D01*
X194039341Y-82253593D01*
X194020503Y-82242717D01*
X194590170Y-81673051D01*
X194582970Y-81665851D01*
X194404690Y-81536323D01*
X194208346Y-81436281D01*
X193998762Y-81368183D01*
X193781118Y-81333712D01*
X193560748Y-81333712D01*
X193343103Y-81368183D01*
X193133519Y-81436281D01*
X192937175Y-81536323D01*
X192758892Y-81665854D01*
X192751694Y-81673050D01*
X193321361Y-82242717D01*
X193302525Y-82253593D01*
X193190814Y-82365304D01*
X193179938Y-82384140D01*
X192610271Y-81814473D01*
X192603075Y-81821671D01*
X192473544Y-81999954D01*
X192373502Y-82196298D01*
X192305404Y-82405882D01*
X192270933Y-82623526D01*
X191386770Y-82623526D01*
X191353222Y-82411721D01*
X191353222Y-82411719D01*
X191285102Y-82202064D01*
X191185022Y-82005648D01*
X191055449Y-81827305D01*
X190899572Y-81671428D01*
X190721229Y-81541855D01*
X190721228Y-81541854D01*
X190721226Y-81541853D01*
X190632032Y-81496406D01*
X190524813Y-81441775D01*
X190524809Y-81441774D01*
X190524806Y-81441772D01*
X190315155Y-81373654D01*
X190097432Y-81339170D01*
X190097429Y-81339170D01*
X189876985Y-81339170D01*
X189876982Y-81339170D01*
X189659258Y-81373654D01*
X189449607Y-81441772D01*
X189253187Y-81541853D01*
X189164013Y-81606641D01*
X189074842Y-81671428D01*
X188918965Y-81827305D01*
X188854178Y-81916476D01*
X188789390Y-82005650D01*
X188689309Y-82202070D01*
X188621191Y-82411721D01*
X188586707Y-82629444D01*
X180362711Y-82629444D01*
X180366015Y-82619274D01*
X180366014Y-82619274D01*
X180366016Y-82619271D01*
X180367473Y-82610072D01*
X180367473Y-82610071D01*
X180400500Y-82401548D01*
X180400500Y-82181097D01*
X180366015Y-81963374D01*
X180366015Y-81963372D01*
X180297895Y-81753717D01*
X180197815Y-81557301D01*
X180068242Y-81378958D01*
X179912365Y-81223081D01*
X179734022Y-81093508D01*
X179734021Y-81093507D01*
X179734019Y-81093506D01*
X179644825Y-81048059D01*
X179537606Y-80993428D01*
X179537602Y-80993427D01*
X179537599Y-80993425D01*
X179327948Y-80925307D01*
X179110225Y-80890823D01*
X179110222Y-80890823D01*
X178889778Y-80890823D01*
X178889775Y-80890823D01*
X178672051Y-80925307D01*
X178462400Y-80993425D01*
X178265980Y-81093506D01*
X178176806Y-81158294D01*
X178087635Y-81223081D01*
X177931758Y-81378958D01*
X177890111Y-81436281D01*
X177802183Y-81557303D01*
X177702102Y-81753723D01*
X177633984Y-81963374D01*
X177599500Y-82181097D01*
X175046260Y-82181097D01*
X175011775Y-81963374D01*
X175011775Y-81963372D01*
X174943655Y-81753717D01*
X174843575Y-81557301D01*
X174714002Y-81378958D01*
X174558125Y-81223081D01*
X174379782Y-81093508D01*
X174379781Y-81093507D01*
X174379779Y-81093506D01*
X174290585Y-81048059D01*
X174183366Y-80993428D01*
X174183362Y-80993427D01*
X174183359Y-80993425D01*
X173973708Y-80925307D01*
X173755985Y-80890823D01*
X173755982Y-80890823D01*
X173535538Y-80890823D01*
X173535535Y-80890823D01*
X173317811Y-80925307D01*
X173108160Y-80993425D01*
X172911740Y-81093506D01*
X172822566Y-81158294D01*
X172733395Y-81223081D01*
X172577518Y-81378958D01*
X172535871Y-81436281D01*
X172447943Y-81557303D01*
X172347862Y-81753723D01*
X172279744Y-81963374D01*
X172245260Y-82181097D01*
X169427334Y-82181097D01*
X169392849Y-81963374D01*
X169392849Y-81963372D01*
X169324729Y-81753717D01*
X169224649Y-81557301D01*
X169095076Y-81378958D01*
X168939199Y-81223081D01*
X168760856Y-81093508D01*
X168760855Y-81093507D01*
X168760853Y-81093506D01*
X168671659Y-81048059D01*
X168564440Y-80993428D01*
X168564436Y-80993427D01*
X168564433Y-80993425D01*
X168354782Y-80925307D01*
X168137059Y-80890823D01*
X168137056Y-80890823D01*
X167916612Y-80890823D01*
X167916609Y-80890823D01*
X167698885Y-80925307D01*
X167489234Y-80993425D01*
X167292814Y-81093506D01*
X167203640Y-81158294D01*
X167114469Y-81223081D01*
X166958592Y-81378958D01*
X166916945Y-81436281D01*
X166829017Y-81557303D01*
X166728936Y-81753723D01*
X166660818Y-81963374D01*
X166626334Y-82181097D01*
X159500500Y-82181097D01*
X159500500Y-80099500D01*
X159519407Y-80041309D01*
X159568907Y-80005345D01*
X159599500Y-80000500D01*
X195400500Y-80000500D01*
X195458691Y-80019407D01*
G37*
%TD.AperFunction*%
%TD*%
M02*
