%TF.GenerationSoftware,KiCad,Pcbnew,9.0.5*%
%TF.CreationDate,2026-07-21T08:29:26+02:00*%
%TF.ProjectId,buffer,62756666-6572-42e6-9b69-6361645f7063,rev?*%
%TF.SameCoordinates,Original*%
%TF.FileFunction,Legend,Top*%
%TF.FilePolarity,Positive*%
%FSLAX46Y46*%
G04 Gerber Fmt 4.6, Leading zero omitted, Abs format (unit mm)*
G04 Created by KiCad (PCBNEW 9.0.5) date 2026-07-21 08:29:26*
%MOMM*%
%LPD*%
G01*
G04 APERTURE LIST*
G04 Aperture macros list*
%AMRoundRect*
0 Rectangle with rounded corners*
0 $1 Rounding radius*
0 $2 $3 $4 $5 $6 $7 $8 $9 X,Y pos of 4 corners*
0 Add a 4 corners polygon primitive as box body*
4,1,4,$2,$3,$4,$5,$6,$7,$8,$9,$2,$3,0*
0 Add four circle primitives for the rounded corners*
1,1,$1+$1,$2,$3*
1,1,$1+$1,$4,$5*
1,1,$1+$1,$6,$7*
1,1,$1+$1,$8,$9*
0 Add four rect primitives between the rounded corners*
20,1,$1+$1,$2,$3,$4,$5,0*
20,1,$1+$1,$4,$5,$6,$7,0*
20,1,$1+$1,$6,$7,$8,$9,0*
20,1,$1+$1,$8,$9,$2,$3,0*%
G04 Aperture macros list end*
%ADD10C,0.150000*%
%ADD11C,0.100000*%
%ADD12C,0.120000*%
%ADD13RoundRect,0.200000X-0.200000X-0.275000X0.200000X-0.275000X0.200000X0.275000X-0.200000X0.275000X0*%
%ADD14RoundRect,0.225000X-0.225000X-0.250000X0.225000X-0.250000X0.225000X0.250000X-0.225000X0.250000X0*%
%ADD15C,2.400000*%
%ADD16RoundRect,0.375000X-0.375000X0.625000X-0.375000X-0.625000X0.375000X-0.625000X0.375000X0.625000X0*%
%ADD17RoundRect,0.500000X-1.400000X0.500000X-1.400000X-0.500000X1.400000X-0.500000X1.400000X0.500000X0*%
%ADD18RoundRect,0.200000X-0.275000X0.200000X-0.275000X-0.200000X0.275000X-0.200000X0.275000X0.200000X0*%
%ADD19RoundRect,0.200000X0.200000X0.275000X-0.200000X0.275000X-0.200000X-0.275000X0.200000X-0.275000X0*%
%ADD20RoundRect,0.250000X1.000000X0.650000X-1.000000X0.650000X-1.000000X-0.650000X1.000000X-0.650000X0*%
%ADD21RoundRect,0.250000X0.550000X-0.550000X0.550000X0.550000X-0.550000X0.550000X-0.550000X-0.550000X0*%
%ADD22C,1.600000*%
%ADD23RoundRect,0.225000X0.250000X-0.225000X0.250000X0.225000X-0.250000X0.225000X-0.250000X-0.225000X0*%
%ADD24RoundRect,0.225000X-0.250000X0.225000X-0.250000X-0.225000X0.250000X-0.225000X0.250000X0.225000X0*%
%ADD25RoundRect,0.250000X0.550000X0.550000X-0.550000X0.550000X-0.550000X-0.550000X0.550000X-0.550000X0*%
%ADD26RoundRect,0.150000X-0.825000X-0.150000X0.825000X-0.150000X0.825000X0.150000X-0.825000X0.150000X0*%
G04 APERTURE END LIST*
D10*
X166947516Y-84604311D02*
X167090373Y-84651930D01*
X167090373Y-84651930D02*
X167137992Y-84699549D01*
X167137992Y-84699549D02*
X167185611Y-84794787D01*
X167185611Y-84794787D02*
X167185611Y-84937644D01*
X167185611Y-84937644D02*
X167137992Y-85032882D01*
X167137992Y-85032882D02*
X167090373Y-85080502D01*
X167090373Y-85080502D02*
X166995135Y-85128121D01*
X166995135Y-85128121D02*
X166614183Y-85128121D01*
X166614183Y-85128121D02*
X166614183Y-84128121D01*
X166614183Y-84128121D02*
X166947516Y-84128121D01*
X166947516Y-84128121D02*
X167042754Y-84175740D01*
X167042754Y-84175740D02*
X167090373Y-84223359D01*
X167090373Y-84223359D02*
X167137992Y-84318597D01*
X167137992Y-84318597D02*
X167137992Y-84413835D01*
X167137992Y-84413835D02*
X167090373Y-84509073D01*
X167090373Y-84509073D02*
X167042754Y-84556692D01*
X167042754Y-84556692D02*
X166947516Y-84604311D01*
X166947516Y-84604311D02*
X166614183Y-84604311D01*
X167376088Y-85223359D02*
X168137992Y-85223359D01*
X168376088Y-85128121D02*
X168376088Y-84128121D01*
X168852278Y-85128121D02*
X168852278Y-84128121D01*
X168852278Y-84128121D02*
X169423706Y-85128121D01*
X169423706Y-85128121D02*
X169423706Y-84128121D01*
X171916217Y-84678952D02*
X172059074Y-84726571D01*
X172059074Y-84726571D02*
X172106693Y-84774190D01*
X172106693Y-84774190D02*
X172154312Y-84869428D01*
X172154312Y-84869428D02*
X172154312Y-85012285D01*
X172154312Y-85012285D02*
X172106693Y-85107523D01*
X172106693Y-85107523D02*
X172059074Y-85155143D01*
X172059074Y-85155143D02*
X171963836Y-85202762D01*
X171963836Y-85202762D02*
X171582884Y-85202762D01*
X171582884Y-85202762D02*
X171582884Y-84202762D01*
X171582884Y-84202762D02*
X171916217Y-84202762D01*
X171916217Y-84202762D02*
X172011455Y-84250381D01*
X172011455Y-84250381D02*
X172059074Y-84298000D01*
X172059074Y-84298000D02*
X172106693Y-84393238D01*
X172106693Y-84393238D02*
X172106693Y-84488476D01*
X172106693Y-84488476D02*
X172059074Y-84583714D01*
X172059074Y-84583714D02*
X172011455Y-84631333D01*
X172011455Y-84631333D02*
X171916217Y-84678952D01*
X171916217Y-84678952D02*
X171582884Y-84678952D01*
X172344789Y-85298000D02*
X173106693Y-85298000D01*
X173535265Y-84202762D02*
X173725741Y-84202762D01*
X173725741Y-84202762D02*
X173820979Y-84250381D01*
X173820979Y-84250381D02*
X173916217Y-84345619D01*
X173916217Y-84345619D02*
X173963836Y-84536095D01*
X173963836Y-84536095D02*
X173963836Y-84869428D01*
X173963836Y-84869428D02*
X173916217Y-85059904D01*
X173916217Y-85059904D02*
X173820979Y-85155143D01*
X173820979Y-85155143D02*
X173725741Y-85202762D01*
X173725741Y-85202762D02*
X173535265Y-85202762D01*
X173535265Y-85202762D02*
X173440027Y-85155143D01*
X173440027Y-85155143D02*
X173344789Y-85059904D01*
X173344789Y-85059904D02*
X173297170Y-84869428D01*
X173297170Y-84869428D02*
X173297170Y-84536095D01*
X173297170Y-84536095D02*
X173344789Y-84345619D01*
X173344789Y-84345619D02*
X173440027Y-84250381D01*
X173440027Y-84250381D02*
X173535265Y-84202762D01*
X174392408Y-84202762D02*
X174392408Y-85012285D01*
X174392408Y-85012285D02*
X174440027Y-85107523D01*
X174440027Y-85107523D02*
X174487646Y-85155143D01*
X174487646Y-85155143D02*
X174582884Y-85202762D01*
X174582884Y-85202762D02*
X174773360Y-85202762D01*
X174773360Y-85202762D02*
X174868598Y-85155143D01*
X174868598Y-85155143D02*
X174916217Y-85107523D01*
X174916217Y-85107523D02*
X174963836Y-85012285D01*
X174963836Y-85012285D02*
X174963836Y-84202762D01*
X175297170Y-84202762D02*
X175868598Y-84202762D01*
X175582884Y-85202762D02*
X175582884Y-84202762D01*
X178222789Y-85202762D02*
X178413265Y-85202762D01*
X178413265Y-85202762D02*
X178508503Y-85155143D01*
X178508503Y-85155143D02*
X178556122Y-85107523D01*
X178556122Y-85107523D02*
X178651360Y-84964666D01*
X178651360Y-84964666D02*
X178698979Y-84774190D01*
X178698979Y-84774190D02*
X178698979Y-84393238D01*
X178698979Y-84393238D02*
X178651360Y-84298000D01*
X178651360Y-84298000D02*
X178603741Y-84250381D01*
X178603741Y-84250381D02*
X178508503Y-84202762D01*
X178508503Y-84202762D02*
X178318027Y-84202762D01*
X178318027Y-84202762D02*
X178222789Y-84250381D01*
X178222789Y-84250381D02*
X178175170Y-84298000D01*
X178175170Y-84298000D02*
X178127551Y-84393238D01*
X178127551Y-84393238D02*
X178127551Y-84631333D01*
X178127551Y-84631333D02*
X178175170Y-84726571D01*
X178175170Y-84726571D02*
X178222789Y-84774190D01*
X178222789Y-84774190D02*
X178318027Y-84821809D01*
X178318027Y-84821809D02*
X178508503Y-84821809D01*
X178508503Y-84821809D02*
X178603741Y-84774190D01*
X178603741Y-84774190D02*
X178651360Y-84726571D01*
X178651360Y-84726571D02*
X178698979Y-84631333D01*
X178984694Y-84202762D02*
X179318027Y-85202762D01*
X179318027Y-85202762D02*
X179651360Y-84202762D01*
D11*
X161156438Y-86976207D02*
X161118343Y-87052397D01*
X161118343Y-87052397D02*
X161118343Y-87166683D01*
X161118343Y-87166683D02*
X161156438Y-87280969D01*
X161156438Y-87280969D02*
X161232628Y-87357159D01*
X161232628Y-87357159D02*
X161308819Y-87395254D01*
X161308819Y-87395254D02*
X161461200Y-87433350D01*
X161461200Y-87433350D02*
X161575486Y-87433350D01*
X161575486Y-87433350D02*
X161727867Y-87395254D01*
X161727867Y-87395254D02*
X161804057Y-87357159D01*
X161804057Y-87357159D02*
X161880248Y-87280969D01*
X161880248Y-87280969D02*
X161918343Y-87166683D01*
X161918343Y-87166683D02*
X161918343Y-87090492D01*
X161918343Y-87090492D02*
X161880248Y-86976207D01*
X161880248Y-86976207D02*
X161842152Y-86938111D01*
X161842152Y-86938111D02*
X161575486Y-86938111D01*
X161575486Y-86938111D02*
X161575486Y-87090492D01*
X161118343Y-86595254D02*
X161765962Y-86595254D01*
X161765962Y-86595254D02*
X161842152Y-86557159D01*
X161842152Y-86557159D02*
X161880248Y-86519064D01*
X161880248Y-86519064D02*
X161918343Y-86442873D01*
X161918343Y-86442873D02*
X161918343Y-86290492D01*
X161918343Y-86290492D02*
X161880248Y-86214302D01*
X161880248Y-86214302D02*
X161842152Y-86176207D01*
X161842152Y-86176207D02*
X161765962Y-86138111D01*
X161765962Y-86138111D02*
X161118343Y-86138111D01*
X161918343Y-85757159D02*
X161118343Y-85757159D01*
X161118343Y-85490493D02*
X161118343Y-85033350D01*
X161918343Y-85261922D02*
X161118343Y-85261922D01*
X161689771Y-84804779D02*
X161689771Y-84423826D01*
X161918343Y-84880969D02*
X161118343Y-84614302D01*
X161118343Y-84614302D02*
X161918343Y-84347636D01*
X161918343Y-83623826D02*
X161537390Y-83890493D01*
X161918343Y-84080969D02*
X161118343Y-84080969D01*
X161118343Y-84080969D02*
X161118343Y-83776207D01*
X161118343Y-83776207D02*
X161156438Y-83700017D01*
X161156438Y-83700017D02*
X161194533Y-83661922D01*
X161194533Y-83661922D02*
X161270724Y-83623826D01*
X161270724Y-83623826D02*
X161385009Y-83623826D01*
X161385009Y-83623826D02*
X161461200Y-83661922D01*
X161461200Y-83661922D02*
X161499295Y-83700017D01*
X161499295Y-83700017D02*
X161537390Y-83776207D01*
X161537390Y-83776207D02*
X161537390Y-84080969D01*
X161994533Y-83471446D02*
X161994533Y-82861922D01*
X161118343Y-82519064D02*
X161118343Y-82366683D01*
X161118343Y-82366683D02*
X161156438Y-82290493D01*
X161156438Y-82290493D02*
X161232628Y-82214302D01*
X161232628Y-82214302D02*
X161385009Y-82176207D01*
X161385009Y-82176207D02*
X161651676Y-82176207D01*
X161651676Y-82176207D02*
X161804057Y-82214302D01*
X161804057Y-82214302D02*
X161880248Y-82290493D01*
X161880248Y-82290493D02*
X161918343Y-82366683D01*
X161918343Y-82366683D02*
X161918343Y-82519064D01*
X161918343Y-82519064D02*
X161880248Y-82595255D01*
X161880248Y-82595255D02*
X161804057Y-82671445D01*
X161804057Y-82671445D02*
X161651676Y-82709541D01*
X161651676Y-82709541D02*
X161385009Y-82709541D01*
X161385009Y-82709541D02*
X161232628Y-82671445D01*
X161232628Y-82671445D02*
X161156438Y-82595255D01*
X161156438Y-82595255D02*
X161118343Y-82519064D01*
X161118343Y-81833350D02*
X161765962Y-81833350D01*
X161765962Y-81833350D02*
X161842152Y-81795255D01*
X161842152Y-81795255D02*
X161880248Y-81757160D01*
X161880248Y-81757160D02*
X161918343Y-81680969D01*
X161918343Y-81680969D02*
X161918343Y-81528588D01*
X161918343Y-81528588D02*
X161880248Y-81452398D01*
X161880248Y-81452398D02*
X161842152Y-81414303D01*
X161842152Y-81414303D02*
X161765962Y-81376207D01*
X161765962Y-81376207D02*
X161118343Y-81376207D01*
X161118343Y-81109541D02*
X161118343Y-80652398D01*
X161918343Y-80880970D02*
X161118343Y-80880970D01*
X163798865Y-97263760D02*
X163722675Y-97225665D01*
X163722675Y-97225665D02*
X163608389Y-97225665D01*
X163608389Y-97225665D02*
X163494103Y-97263760D01*
X163494103Y-97263760D02*
X163417913Y-97339950D01*
X163417913Y-97339950D02*
X163379818Y-97416141D01*
X163379818Y-97416141D02*
X163341722Y-97568522D01*
X163341722Y-97568522D02*
X163341722Y-97682808D01*
X163341722Y-97682808D02*
X163379818Y-97835189D01*
X163379818Y-97835189D02*
X163417913Y-97911379D01*
X163417913Y-97911379D02*
X163494103Y-97987570D01*
X163494103Y-97987570D02*
X163608389Y-98025665D01*
X163608389Y-98025665D02*
X163684580Y-98025665D01*
X163684580Y-98025665D02*
X163798865Y-97987570D01*
X163798865Y-97987570D02*
X163836961Y-97949474D01*
X163836961Y-97949474D02*
X163836961Y-97682808D01*
X163836961Y-97682808D02*
X163684580Y-97682808D01*
X164179818Y-97225665D02*
X164179818Y-97873284D01*
X164179818Y-97873284D02*
X164217913Y-97949474D01*
X164217913Y-97949474D02*
X164256008Y-97987570D01*
X164256008Y-97987570D02*
X164332199Y-98025665D01*
X164332199Y-98025665D02*
X164484580Y-98025665D01*
X164484580Y-98025665D02*
X164560770Y-97987570D01*
X164560770Y-97987570D02*
X164598865Y-97949474D01*
X164598865Y-97949474D02*
X164636961Y-97873284D01*
X164636961Y-97873284D02*
X164636961Y-97225665D01*
X165017913Y-98025665D02*
X165017913Y-97225665D01*
X165284579Y-97225665D02*
X165741722Y-97225665D01*
X165513150Y-98025665D02*
X165513150Y-97225665D01*
X165970293Y-97797093D02*
X166351246Y-97797093D01*
X165894103Y-98025665D02*
X166160770Y-97225665D01*
X166160770Y-97225665D02*
X166427436Y-98025665D01*
X167151246Y-98025665D02*
X166884579Y-97644712D01*
X166694103Y-98025665D02*
X166694103Y-97225665D01*
X166694103Y-97225665D02*
X166998865Y-97225665D01*
X166998865Y-97225665D02*
X167075055Y-97263760D01*
X167075055Y-97263760D02*
X167113150Y-97301855D01*
X167113150Y-97301855D02*
X167151246Y-97378046D01*
X167151246Y-97378046D02*
X167151246Y-97492331D01*
X167151246Y-97492331D02*
X167113150Y-97568522D01*
X167113150Y-97568522D02*
X167075055Y-97606617D01*
X167075055Y-97606617D02*
X166998865Y-97644712D01*
X166998865Y-97644712D02*
X166694103Y-97644712D01*
X167303627Y-98101855D02*
X167913150Y-98101855D01*
X168103627Y-98025665D02*
X168103627Y-97225665D01*
X168484579Y-98025665D02*
X168484579Y-97225665D01*
X168484579Y-97225665D02*
X168941722Y-98025665D01*
X168941722Y-98025665D02*
X168941722Y-97225665D01*
D10*
X194376741Y-86569753D02*
X194329122Y-86664991D01*
X194329122Y-86664991D02*
X194329122Y-86807848D01*
X194329122Y-86807848D02*
X194376741Y-86950705D01*
X194376741Y-86950705D02*
X194471979Y-87045943D01*
X194471979Y-87045943D02*
X194567217Y-87093562D01*
X194567217Y-87093562D02*
X194757693Y-87141181D01*
X194757693Y-87141181D02*
X194900550Y-87141181D01*
X194900550Y-87141181D02*
X195091026Y-87093562D01*
X195091026Y-87093562D02*
X195186264Y-87045943D01*
X195186264Y-87045943D02*
X195281503Y-86950705D01*
X195281503Y-86950705D02*
X195329122Y-86807848D01*
X195329122Y-86807848D02*
X195329122Y-86712610D01*
X195329122Y-86712610D02*
X195281503Y-86569753D01*
X195281503Y-86569753D02*
X195233883Y-86522134D01*
X195233883Y-86522134D02*
X194900550Y-86522134D01*
X194900550Y-86522134D02*
X194900550Y-86712610D01*
X195329122Y-86093562D02*
X194329122Y-86093562D01*
X194329122Y-86093562D02*
X195329122Y-85522134D01*
X195329122Y-85522134D02*
X194329122Y-85522134D01*
X195329122Y-85045943D02*
X194329122Y-85045943D01*
X194329122Y-85045943D02*
X194329122Y-84807848D01*
X194329122Y-84807848D02*
X194376741Y-84664991D01*
X194376741Y-84664991D02*
X194471979Y-84569753D01*
X194471979Y-84569753D02*
X194567217Y-84522134D01*
X194567217Y-84522134D02*
X194757693Y-84474515D01*
X194757693Y-84474515D02*
X194900550Y-84474515D01*
X194900550Y-84474515D02*
X195091026Y-84522134D01*
X195091026Y-84522134D02*
X195186264Y-84569753D01*
X195186264Y-84569753D02*
X195281503Y-84664991D01*
X195281503Y-84664991D02*
X195329122Y-84807848D01*
X195329122Y-84807848D02*
X195329122Y-85045943D01*
X189779095Y-79860899D02*
X189302905Y-79860899D01*
X189302905Y-79860899D02*
X189255286Y-80337089D01*
X189255286Y-80337089D02*
X189302905Y-80289470D01*
X189302905Y-80289470D02*
X189398143Y-80241851D01*
X189398143Y-80241851D02*
X189636238Y-80241851D01*
X189636238Y-80241851D02*
X189731476Y-80289470D01*
X189731476Y-80289470D02*
X189779095Y-80337089D01*
X189779095Y-80337089D02*
X189826714Y-80432327D01*
X189826714Y-80432327D02*
X189826714Y-80670422D01*
X189826714Y-80670422D02*
X189779095Y-80765660D01*
X189779095Y-80765660D02*
X189731476Y-80813280D01*
X189731476Y-80813280D02*
X189636238Y-80860899D01*
X189636238Y-80860899D02*
X189398143Y-80860899D01*
X189398143Y-80860899D02*
X189302905Y-80813280D01*
X189302905Y-80813280D02*
X189255286Y-80765660D01*
X190112429Y-79860899D02*
X190445762Y-80860899D01*
X190445762Y-80860899D02*
X190779095Y-79860899D01*
D12*
%TO.C,R5*%
X175392040Y-92234340D02*
X175866556Y-92234340D01*
X175392040Y-91189340D02*
X175866556Y-91189340D01*
%TO.C,C1*%
X161680748Y-93120871D02*
X161961908Y-93120871D01*
X161680748Y-94140871D02*
X161961908Y-94140871D01*
%TO.C,BUFFER_IN1*%
X169527667Y-82291323D02*
G75*
G02*
X166526001Y-82291323I-1500833J0D01*
G01*
X166526001Y-82291323D02*
G75*
G02*
X169527667Y-82291323I1500833J0D01*
G01*
%TO.C,OUT1*%
X175146593Y-82291323D02*
G75*
G02*
X172144927Y-82291323I-1500833J0D01*
G01*
X172144927Y-82291323D02*
G75*
G02*
X175146593Y-82291323I1500833J0D01*
G01*
%TO.C,9V1*%
X180500833Y-82291323D02*
G75*
G02*
X177499167Y-82291323I-1500833J0D01*
G01*
X177499167Y-82291323D02*
G75*
G02*
X180500833Y-82291323I1500833J0D01*
G01*
%TO.C,GOUT1*%
X162904415Y-89356250D02*
G75*
G02*
X159902749Y-89356250I-1500833J0D01*
G01*
X159902749Y-89356250D02*
G75*
G02*
X162904415Y-89356250I1500833J0D01*
G01*
%TO.C,R4*%
X175386573Y-94118073D02*
X175861089Y-94118073D01*
X175386573Y-93073073D02*
X175861089Y-93073073D01*
%TO.C,U1*%
X193410000Y-87300000D02*
X193410000Y-91060000D01*
X186590000Y-87300000D02*
X186590000Y-91060000D01*
X193410000Y-91060000D02*
X192150000Y-91060000D01*
X186590000Y-91060000D02*
X187850000Y-91060000D01*
X193640000Y-86260000D02*
X193310000Y-86020000D01*
X193640000Y-85780000D01*
X193640000Y-86260000D01*
G36*
X193640000Y-86260000D02*
G01*
X193310000Y-86020000D01*
X193640000Y-85780000D01*
X193640000Y-86260000D01*
G37*
%TO.C,R8*%
X189266230Y-94956754D02*
X189266230Y-95431270D01*
X188221230Y-94956754D02*
X188221230Y-95431270D01*
%TO.C,R7*%
X187640711Y-94956754D02*
X187640711Y-95431270D01*
X186595711Y-94956754D02*
X186595711Y-95431270D01*
%TO.C,R6*%
X176995192Y-87002854D02*
X177469708Y-87002854D01*
X176995192Y-88047854D02*
X177469708Y-88047854D01*
%TO.C,R3*%
X171242386Y-88340230D02*
X170767870Y-88340230D01*
X171242386Y-87295230D02*
X170767870Y-87295230D01*
%TO.C,R2*%
X165143335Y-94145314D02*
X164668819Y-94145314D01*
X165143335Y-93100314D02*
X164668819Y-93100314D01*
%TO.C,R1*%
X164667115Y-91529077D02*
X165141631Y-91529077D01*
X164667115Y-92574077D02*
X165141631Y-92574077D01*
%TO.C,GIN1*%
X162959266Y-97474846D02*
G75*
G02*
X159957600Y-97474846I-1500833J0D01*
G01*
X159957600Y-97474846D02*
G75*
G02*
X162959266Y-97474846I1500833J0D01*
G01*
%TO.C,GND1*%
X195171766Y-82733712D02*
G75*
G02*
X192170100Y-82733712I-1500833J0D01*
G01*
X192170100Y-82733712D02*
G75*
G02*
X195171766Y-82733712I1500833J0D01*
G01*
%TO.C,D1*%
X188010000Y-84150000D02*
X188010000Y-80850000D01*
X188010000Y-84150000D02*
X182500000Y-84150000D01*
X188010000Y-80850000D02*
X182500000Y-80850000D01*
%TO.C,C12*%
X179477266Y-99047271D02*
X179477266Y-98417271D01*
X179162266Y-98732271D02*
X179792266Y-98732271D01*
X178086266Y-95547030D02*
X184546266Y-95547030D01*
X178086266Y-95507030D02*
X184546266Y-95507030D01*
X178087266Y-95467030D02*
X184545266Y-95467030D01*
X178088266Y-95427030D02*
X184544266Y-95427030D01*
X178090266Y-95387030D02*
X184542266Y-95387030D01*
X178092266Y-95347030D02*
X184540266Y-95347030D01*
X178095266Y-95307030D02*
X180276266Y-95307030D01*
X182356266Y-95307030D02*
X184537266Y-95307030D01*
X178098266Y-95267030D02*
X180276266Y-95267030D01*
X182356266Y-95267030D02*
X184534266Y-95267030D01*
X178102266Y-95227030D02*
X180276266Y-95227030D01*
X182356266Y-95227030D02*
X184530266Y-95227030D01*
X178106266Y-95187030D02*
X180276266Y-95187030D01*
X182356266Y-95187030D02*
X184526266Y-95187030D01*
X178111266Y-95147030D02*
X180276266Y-95147030D01*
X182356266Y-95147030D02*
X184521266Y-95147030D01*
X178116266Y-95107030D02*
X180276266Y-95107030D01*
X182356266Y-95107030D02*
X184516266Y-95107030D01*
X178121266Y-95067030D02*
X180276266Y-95067030D01*
X182356266Y-95067030D02*
X184511266Y-95067030D01*
X178128266Y-95027030D02*
X180276266Y-95027030D01*
X182356266Y-95027030D02*
X184504266Y-95027030D01*
X178134266Y-94987030D02*
X180276266Y-94987030D01*
X182356266Y-94987030D02*
X184498266Y-94987030D01*
X178142266Y-94947030D02*
X180276266Y-94947030D01*
X182356266Y-94947030D02*
X184490266Y-94947030D01*
X178149266Y-94907030D02*
X180276266Y-94907030D01*
X182356266Y-94907030D02*
X184483266Y-94907030D01*
X178157266Y-94867030D02*
X180276266Y-94867030D01*
X182356266Y-94867030D02*
X184475266Y-94867030D01*
X178166266Y-94827030D02*
X180276266Y-94827030D01*
X182356266Y-94827030D02*
X184466266Y-94827030D01*
X178176266Y-94787030D02*
X180276266Y-94787030D01*
X182356266Y-94787030D02*
X184456266Y-94787030D01*
X178185266Y-94747030D02*
X180276266Y-94747030D01*
X182356266Y-94747030D02*
X184447266Y-94747030D01*
X178196266Y-94707030D02*
X180276266Y-94707030D01*
X182356266Y-94707030D02*
X184436266Y-94707030D01*
X178207266Y-94667030D02*
X180276266Y-94667030D01*
X182356266Y-94667030D02*
X184425266Y-94667030D01*
X178218266Y-94627030D02*
X180276266Y-94627030D01*
X182356266Y-94627030D02*
X184414266Y-94627030D01*
X178230266Y-94587030D02*
X180276266Y-94587030D01*
X182356266Y-94587030D02*
X184402266Y-94587030D01*
X178243266Y-94547030D02*
X180276266Y-94547030D01*
X182356266Y-94547030D02*
X184389266Y-94547030D01*
X178256266Y-94507030D02*
X180276266Y-94507030D01*
X182356266Y-94507030D02*
X184376266Y-94507030D01*
X178269266Y-94467030D02*
X180276266Y-94467030D01*
X182356266Y-94467030D02*
X184363266Y-94467030D01*
X178284266Y-94427030D02*
X180276266Y-94427030D01*
X182356266Y-94427030D02*
X184348266Y-94427030D01*
X178299266Y-94387030D02*
X180276266Y-94387030D01*
X182356266Y-94387030D02*
X184333266Y-94387030D01*
X178314266Y-94347030D02*
X180276266Y-94347030D01*
X182356266Y-94347030D02*
X184318266Y-94347030D01*
X178330266Y-94307030D02*
X180276266Y-94307030D01*
X182356266Y-94307030D02*
X184302266Y-94307030D01*
X178347266Y-94267030D02*
X180276266Y-94267030D01*
X182356266Y-94267030D02*
X184285266Y-94267030D01*
X178364266Y-94227030D02*
X180276266Y-94227030D01*
X182356266Y-94227030D02*
X184268266Y-94227030D01*
X178382266Y-94187030D02*
X180276266Y-94187030D01*
X182356266Y-94187030D02*
X184250266Y-94187030D01*
X178401266Y-94147030D02*
X180276266Y-94147030D01*
X182356266Y-94147030D02*
X184231266Y-94147030D01*
X178420266Y-94107030D02*
X180276266Y-94107030D01*
X182356266Y-94107030D02*
X184212266Y-94107030D01*
X178440266Y-94067030D02*
X180276266Y-94067030D01*
X182356266Y-94067030D02*
X184192266Y-94067030D01*
X178461266Y-94027030D02*
X180276266Y-94027030D01*
X182356266Y-94027030D02*
X184171266Y-94027030D01*
X178482266Y-93987030D02*
X180276266Y-93987030D01*
X182356266Y-93987030D02*
X184150266Y-93987030D01*
X178504266Y-93947030D02*
X180276266Y-93947030D01*
X182356266Y-93947030D02*
X184128266Y-93947030D01*
X178527266Y-93907030D02*
X180276266Y-93907030D01*
X182356266Y-93907030D02*
X184105266Y-93907030D01*
X178551266Y-93867030D02*
X180276266Y-93867030D01*
X182356266Y-93867030D02*
X184081266Y-93867030D01*
X178575266Y-93827030D02*
X180276266Y-93827030D01*
X182356266Y-93827030D02*
X184057266Y-93827030D01*
X178600266Y-93787030D02*
X180276266Y-93787030D01*
X182356266Y-93787030D02*
X184032266Y-93787030D01*
X178626266Y-93747030D02*
X180276266Y-93747030D01*
X182356266Y-93747030D02*
X184006266Y-93747030D01*
X178653266Y-93707030D02*
X180276266Y-93707030D01*
X182356266Y-93707030D02*
X183979266Y-93707030D01*
X178680266Y-93667030D02*
X180276266Y-93667030D01*
X182356266Y-93667030D02*
X183952266Y-93667030D01*
X178709266Y-93627030D02*
X180276266Y-93627030D01*
X182356266Y-93627030D02*
X183923266Y-93627030D01*
X178739266Y-93587030D02*
X180276266Y-93587030D01*
X182356266Y-93587030D02*
X183893266Y-93587030D01*
X178769266Y-93547030D02*
X180276266Y-93547030D01*
X182356266Y-93547030D02*
X183863266Y-93547030D01*
X178800266Y-93507030D02*
X180276266Y-93507030D01*
X182356266Y-93507030D02*
X183832266Y-93507030D01*
X178833266Y-93467030D02*
X180276266Y-93467030D01*
X182356266Y-93467030D02*
X183799266Y-93467030D01*
X178866266Y-93427030D02*
X180276266Y-93427030D01*
X182356266Y-93427030D02*
X183766266Y-93427030D01*
X178901266Y-93387030D02*
X180276266Y-93387030D01*
X182356266Y-93387030D02*
X183731266Y-93387030D01*
X178937266Y-93347030D02*
X180276266Y-93347030D01*
X182356266Y-93347030D02*
X183695266Y-93347030D01*
X178974266Y-93307030D02*
X180276266Y-93307030D01*
X182356266Y-93307030D02*
X183658266Y-93307030D01*
X179012266Y-93267030D02*
X180276266Y-93267030D01*
X182356266Y-93267030D02*
X183620266Y-93267030D01*
X179052266Y-93227030D02*
X183580266Y-93227030D01*
X179093266Y-93187030D02*
X183539266Y-93187030D01*
X179135266Y-93147030D02*
X183497266Y-93147030D01*
X179179266Y-93107030D02*
X183453266Y-93107030D01*
X179225266Y-93067030D02*
X183407266Y-93067030D01*
X179272266Y-93027030D02*
X183360266Y-93027030D01*
X179321266Y-92987030D02*
X183311266Y-92987030D01*
X179373266Y-92947030D02*
X183259266Y-92947030D01*
X179426266Y-92907030D02*
X183206266Y-92907030D01*
X179482266Y-92867030D02*
X183150266Y-92867030D01*
X179541266Y-92827030D02*
X183091266Y-92827030D01*
X179602266Y-92787030D02*
X183030266Y-92787030D01*
X179667266Y-92747030D02*
X182965266Y-92747030D01*
X179735266Y-92707030D02*
X182897266Y-92707030D01*
X179807266Y-92667030D02*
X182825266Y-92667030D01*
X179884266Y-92627030D02*
X182748266Y-92627030D01*
X179966266Y-92587030D02*
X182666266Y-92587030D01*
X180055266Y-92547030D02*
X182577266Y-92547030D01*
X180151266Y-92507030D02*
X182481266Y-92507030D01*
X180258266Y-92467030D02*
X182374266Y-92467030D01*
X180377266Y-92427030D02*
X182255266Y-92427030D01*
X180515266Y-92387030D02*
X182117266Y-92387030D01*
X180683266Y-92347030D02*
X181949266Y-92347030D01*
X180914266Y-92307030D02*
X181718266Y-92307030D01*
X184586266Y-95547030D02*
G75*
G02*
X178046266Y-95547030I-3270000J0D01*
G01*
X178046266Y-95547030D02*
G75*
G02*
X184586266Y-95547030I3270000J0D01*
G01*
%TO.C,C10*%
X193995052Y-92204321D02*
X193995052Y-91923161D01*
X195015052Y-92204321D02*
X195015052Y-91923161D01*
%TO.C,C8*%
X186019442Y-91939055D02*
X186019442Y-92220215D01*
X184999442Y-91939055D02*
X184999442Y-92220215D01*
%TO.C,C7*%
X186118571Y-89626238D02*
X185488571Y-89626238D01*
X185803571Y-89941238D02*
X185803571Y-89311238D01*
X182618330Y-91017238D02*
X182618330Y-84557238D01*
X182578330Y-91017238D02*
X182578330Y-84557238D01*
X182538330Y-91016238D02*
X182538330Y-84558238D01*
X182498330Y-91015238D02*
X182498330Y-84559238D01*
X182458330Y-91013238D02*
X182458330Y-84561238D01*
X182418330Y-91011238D02*
X182418330Y-84563238D01*
X182378330Y-91008238D02*
X182378330Y-88827238D01*
X182378330Y-86747238D02*
X182378330Y-84566238D01*
X182338330Y-91005238D02*
X182338330Y-88827238D01*
X182338330Y-86747238D02*
X182338330Y-84569238D01*
X182298330Y-91001238D02*
X182298330Y-88827238D01*
X182298330Y-86747238D02*
X182298330Y-84573238D01*
X182258330Y-90997238D02*
X182258330Y-88827238D01*
X182258330Y-86747238D02*
X182258330Y-84577238D01*
X182218330Y-90992238D02*
X182218330Y-88827238D01*
X182218330Y-86747238D02*
X182218330Y-84582238D01*
X182178330Y-90987238D02*
X182178330Y-88827238D01*
X182178330Y-86747238D02*
X182178330Y-84587238D01*
X182138330Y-90982238D02*
X182138330Y-88827238D01*
X182138330Y-86747238D02*
X182138330Y-84592238D01*
X182098330Y-90975238D02*
X182098330Y-88827238D01*
X182098330Y-86747238D02*
X182098330Y-84599238D01*
X182058330Y-90969238D02*
X182058330Y-88827238D01*
X182058330Y-86747238D02*
X182058330Y-84605238D01*
X182018330Y-90961238D02*
X182018330Y-88827238D01*
X182018330Y-86747238D02*
X182018330Y-84613238D01*
X181978330Y-90954238D02*
X181978330Y-88827238D01*
X181978330Y-86747238D02*
X181978330Y-84620238D01*
X181938330Y-90946238D02*
X181938330Y-88827238D01*
X181938330Y-86747238D02*
X181938330Y-84628238D01*
X181898330Y-90937238D02*
X181898330Y-88827238D01*
X181898330Y-86747238D02*
X181898330Y-84637238D01*
X181858330Y-90927238D02*
X181858330Y-88827238D01*
X181858330Y-86747238D02*
X181858330Y-84647238D01*
X181818330Y-90918238D02*
X181818330Y-88827238D01*
X181818330Y-86747238D02*
X181818330Y-84656238D01*
X181778330Y-90907238D02*
X181778330Y-88827238D01*
X181778330Y-86747238D02*
X181778330Y-84667238D01*
X181738330Y-90896238D02*
X181738330Y-88827238D01*
X181738330Y-86747238D02*
X181738330Y-84678238D01*
X181698330Y-90885238D02*
X181698330Y-88827238D01*
X181698330Y-86747238D02*
X181698330Y-84689238D01*
X181658330Y-90873238D02*
X181658330Y-88827238D01*
X181658330Y-86747238D02*
X181658330Y-84701238D01*
X181618330Y-90860238D02*
X181618330Y-88827238D01*
X181618330Y-86747238D02*
X181618330Y-84714238D01*
X181578330Y-90847238D02*
X181578330Y-88827238D01*
X181578330Y-86747238D02*
X181578330Y-84727238D01*
X181538330Y-90834238D02*
X181538330Y-88827238D01*
X181538330Y-86747238D02*
X181538330Y-84740238D01*
X181498330Y-90819238D02*
X181498330Y-88827238D01*
X181498330Y-86747238D02*
X181498330Y-84755238D01*
X181458330Y-90804238D02*
X181458330Y-88827238D01*
X181458330Y-86747238D02*
X181458330Y-84770238D01*
X181418330Y-90789238D02*
X181418330Y-88827238D01*
X181418330Y-86747238D02*
X181418330Y-84785238D01*
X181378330Y-90773238D02*
X181378330Y-88827238D01*
X181378330Y-86747238D02*
X181378330Y-84801238D01*
X181338330Y-90756238D02*
X181338330Y-88827238D01*
X181338330Y-86747238D02*
X181338330Y-84818238D01*
X181298330Y-90739238D02*
X181298330Y-88827238D01*
X181298330Y-86747238D02*
X181298330Y-84835238D01*
X181258330Y-90721238D02*
X181258330Y-88827238D01*
X181258330Y-86747238D02*
X181258330Y-84853238D01*
X181218330Y-90702238D02*
X181218330Y-88827238D01*
X181218330Y-86747238D02*
X181218330Y-84872238D01*
X181178330Y-90683238D02*
X181178330Y-88827238D01*
X181178330Y-86747238D02*
X181178330Y-84891238D01*
X181138330Y-90663238D02*
X181138330Y-88827238D01*
X181138330Y-86747238D02*
X181138330Y-84911238D01*
X181098330Y-90642238D02*
X181098330Y-88827238D01*
X181098330Y-86747238D02*
X181098330Y-84932238D01*
X181058330Y-90621238D02*
X181058330Y-88827238D01*
X181058330Y-86747238D02*
X181058330Y-84953238D01*
X181018330Y-90599238D02*
X181018330Y-88827238D01*
X181018330Y-86747238D02*
X181018330Y-84975238D01*
X180978330Y-90576238D02*
X180978330Y-88827238D01*
X180978330Y-86747238D02*
X180978330Y-84998238D01*
X180938330Y-90552238D02*
X180938330Y-88827238D01*
X180938330Y-86747238D02*
X180938330Y-85022238D01*
X180898330Y-90528238D02*
X180898330Y-88827238D01*
X180898330Y-86747238D02*
X180898330Y-85046238D01*
X180858330Y-90503238D02*
X180858330Y-88827238D01*
X180858330Y-86747238D02*
X180858330Y-85071238D01*
X180818330Y-90477238D02*
X180818330Y-88827238D01*
X180818330Y-86747238D02*
X180818330Y-85097238D01*
X180778330Y-90450238D02*
X180778330Y-88827238D01*
X180778330Y-86747238D02*
X180778330Y-85124238D01*
X180738330Y-90423238D02*
X180738330Y-88827238D01*
X180738330Y-86747238D02*
X180738330Y-85151238D01*
X180698330Y-90394238D02*
X180698330Y-88827238D01*
X180698330Y-86747238D02*
X180698330Y-85180238D01*
X180658330Y-90364238D02*
X180658330Y-88827238D01*
X180658330Y-86747238D02*
X180658330Y-85210238D01*
X180618330Y-90334238D02*
X180618330Y-88827238D01*
X180618330Y-86747238D02*
X180618330Y-85240238D01*
X180578330Y-90303238D02*
X180578330Y-88827238D01*
X180578330Y-86747238D02*
X180578330Y-85271238D01*
X180538330Y-90270238D02*
X180538330Y-88827238D01*
X180538330Y-86747238D02*
X180538330Y-85304238D01*
X180498330Y-90237238D02*
X180498330Y-88827238D01*
X180498330Y-86747238D02*
X180498330Y-85337238D01*
X180458330Y-90202238D02*
X180458330Y-88827238D01*
X180458330Y-86747238D02*
X180458330Y-85372238D01*
X180418330Y-90166238D02*
X180418330Y-88827238D01*
X180418330Y-86747238D02*
X180418330Y-85408238D01*
X180378330Y-90129238D02*
X180378330Y-88827238D01*
X180378330Y-86747238D02*
X180378330Y-85445238D01*
X180338330Y-90091238D02*
X180338330Y-88827238D01*
X180338330Y-86747238D02*
X180338330Y-85483238D01*
X180298330Y-90051238D02*
X180298330Y-85523238D01*
X180258330Y-90010238D02*
X180258330Y-85564238D01*
X180218330Y-89968238D02*
X180218330Y-85606238D01*
X180178330Y-89924238D02*
X180178330Y-85650238D01*
X180138330Y-89878238D02*
X180138330Y-85696238D01*
X180098330Y-89831238D02*
X180098330Y-85743238D01*
X180058330Y-89782238D02*
X180058330Y-85792238D01*
X180018330Y-89730238D02*
X180018330Y-85844238D01*
X179978330Y-89677238D02*
X179978330Y-85897238D01*
X179938330Y-89621238D02*
X179938330Y-85953238D01*
X179898330Y-89562238D02*
X179898330Y-86012238D01*
X179858330Y-89501238D02*
X179858330Y-86073238D01*
X179818330Y-89436238D02*
X179818330Y-86138238D01*
X179778330Y-89368238D02*
X179778330Y-86206238D01*
X179738330Y-89296238D02*
X179738330Y-86278238D01*
X179698330Y-89219238D02*
X179698330Y-86355238D01*
X179658330Y-89137238D02*
X179658330Y-86437238D01*
X179618330Y-89048238D02*
X179618330Y-86526238D01*
X179578330Y-88952238D02*
X179578330Y-86622238D01*
X179538330Y-88845238D02*
X179538330Y-86729238D01*
X179498330Y-88726238D02*
X179498330Y-86848238D01*
X179458330Y-88588238D02*
X179458330Y-86986238D01*
X179418330Y-88420238D02*
X179418330Y-87154238D01*
X179378330Y-88189238D02*
X179378330Y-87385238D01*
X185888330Y-87787238D02*
G75*
G02*
X179348330Y-87787238I-3270000J0D01*
G01*
X179348330Y-87787238D02*
G75*
G02*
X185888330Y-87787238I3270000J0D01*
G01*
%TO.C,C6*%
X177490000Y-90140580D02*
X177490000Y-89859420D01*
X178510000Y-90140580D02*
X178510000Y-89859420D01*
%TO.C,C5*%
X170869391Y-94494097D02*
X171150551Y-94494097D01*
X170869391Y-95514097D02*
X171150551Y-95514097D01*
%TO.C,C4*%
X170859867Y-96103126D02*
X171141027Y-96103126D01*
X170859867Y-97123126D02*
X171141027Y-97123126D01*
%TO.C,C3*%
X166969398Y-94717123D02*
X167250558Y-94717123D01*
X166969398Y-95737123D02*
X167250558Y-95737123D01*
%TO.C,C2*%
X161685213Y-91541577D02*
X161966373Y-91541577D01*
X161685213Y-92561577D02*
X161966373Y-92561577D01*
%TO.C,5V1*%
X191488040Y-82739670D02*
G75*
G02*
X188486374Y-82739670I-1500833J0D01*
G01*
X188486374Y-82739670D02*
G75*
G02*
X191488040Y-82739670I1500833J0D01*
G01*
%TO.C,U2*%
X168222672Y-88863310D02*
X172342672Y-88863310D01*
X168222672Y-88958310D02*
X168222672Y-88863310D01*
X168222672Y-93983310D02*
X168222672Y-93888310D01*
X172342672Y-88863310D02*
X172342672Y-88958310D01*
X172342672Y-93888310D02*
X172342672Y-93983310D01*
X172342672Y-93983310D02*
X168222672Y-93983310D01*
X167682672Y-88953310D02*
X167442672Y-88623310D01*
X167922672Y-88623310D01*
X167682672Y-88953310D01*
G36*
X167682672Y-88953310D02*
G01*
X167442672Y-88623310D01*
X167922672Y-88623310D01*
X167682672Y-88953310D01*
G37*
%TD*%
%LPC*%
D13*
%TO.C,R5*%
X176454298Y-91711840D03*
X174804298Y-91711840D03*
%TD*%
D14*
%TO.C,C1*%
X161046328Y-93630871D03*
X162596328Y-93630871D03*
%TD*%
D15*
%TO.C,BUFFER_IN1*%
X168026834Y-82291323D03*
%TD*%
%TO.C,OUT1*%
X173645760Y-82291323D03*
%TD*%
%TO.C,9V1*%
X179000000Y-82291323D03*
%TD*%
%TO.C,GOUT1*%
X161403582Y-89356250D03*
%TD*%
D13*
%TO.C,R4*%
X176448831Y-93595573D03*
X174798831Y-93595573D03*
%TD*%
D16*
%TO.C,U1*%
X192300000Y-86000000D03*
X190000000Y-86000000D03*
D17*
X190000000Y-92300000D03*
D16*
X187700000Y-86000000D03*
%TD*%
D18*
%TO.C,R8*%
X188743730Y-94369012D03*
X188743730Y-96019012D03*
%TD*%
%TO.C,R7*%
X187118211Y-94369012D03*
X187118211Y-96019012D03*
%TD*%
D13*
%TO.C,R6*%
X176407450Y-87525354D03*
X178057450Y-87525354D03*
%TD*%
D19*
%TO.C,R3*%
X171830128Y-87817730D03*
X170180128Y-87817730D03*
%TD*%
%TO.C,R2*%
X165731077Y-93622814D03*
X164081077Y-93622814D03*
%TD*%
D13*
%TO.C,R1*%
X164079373Y-92051577D03*
X165729373Y-92051577D03*
%TD*%
D15*
%TO.C,GIN1*%
X161458433Y-97474846D03*
%TD*%
%TO.C,GND1*%
X193670933Y-82733712D03*
%TD*%
D20*
%TO.C,D1*%
X186500000Y-82500000D03*
X182500000Y-82500000D03*
%TD*%
D21*
%TO.C,C12*%
X181316266Y-96797030D03*
D22*
X181316266Y-94297030D03*
%TD*%
D23*
%TO.C,C10*%
X194505052Y-92838741D03*
X194505052Y-91288741D03*
%TD*%
D24*
%TO.C,C8*%
X185509442Y-91304635D03*
X185509442Y-92854635D03*
%TD*%
D25*
%TO.C,C7*%
X183868330Y-87787238D03*
D22*
X181368330Y-87787238D03*
%TD*%
D23*
%TO.C,C6*%
X178000000Y-90775000D03*
X178000000Y-89225000D03*
%TD*%
D14*
%TO.C,C5*%
X170234971Y-95004097D03*
X171784971Y-95004097D03*
%TD*%
%TO.C,C4*%
X170225447Y-96613126D03*
X171775447Y-96613126D03*
%TD*%
%TO.C,C3*%
X166334978Y-95227123D03*
X167884978Y-95227123D03*
%TD*%
%TO.C,C2*%
X161050793Y-92051577D03*
X162600793Y-92051577D03*
%TD*%
D15*
%TO.C,5V1*%
X189987207Y-82739670D03*
%TD*%
D26*
%TO.C,U2*%
X167807672Y-89518310D03*
X167807672Y-90788310D03*
X167807672Y-92058310D03*
X167807672Y-93328310D03*
X172757672Y-93328310D03*
X172757672Y-92058310D03*
X172757672Y-90788310D03*
X172757672Y-89518310D03*
%TD*%
%LPD*%
M02*
