<?xml version="1.0" standalone="no"?>
 <!DOCTYPE svg PUBLIC "-//W3C//DTD SVG 1.1//EN"
 "http://www.w3.org/Graphics/SVG/1.1/DTD/svg11.dtd">
<svg
  xmlns:svg="http://www.w3.org/2000/svg"
  xmlns="http://www.w3.org/2000/svg"
  xmlns:xlink="http://www.w3.org/1999/xlink"
  version="1.1"
  width="40.0304mm" height="30.3022mm" viewBox="0.0000 0.0000 40.0304 30.3022">
<title>SVG Image created as pcb-front.svg date 2026/10/02 15:26:41 </title>
  <desc>Image generated by PCBNEW </desc>
<g style="fill:#000000; fill-opacity:1.0000;stroke:#000000; stroke-opacity:1.0000;
stroke-linecap:round; stroke-linejoin:round;"
 transform="translate(0 0) scale(1 1)">
<path style="fill:#C83434; fill-opacity:1.0000; stroke:none;fill-rule:evenodd;"
d="M 31.8000,21.0185
31.8152,20.9420
31.8586,20.8771
31.9235,20.8337
32.0000,20.8185
32.4000,20.8185
32.4765,20.8337
32.5414,20.8771
32.5848,20.9420
32.6000,21.0185
32.6000,21.5685
32.5848,21.6450
32.5414,21.7099
32.4765,21.7533
32.4000,21.7685
32.0000,21.7685
31.9235,21.7533
31.8586,21.7099
31.8152,21.6450
31.8000,21.5685
Z" />
<path style="fill:#C83434; fill-opacity:1.0000; stroke:none;fill-rule:evenodd;"
d="M 33.4500,21.0185
33.4652,20.9420
33.5086,20.8771
33.5735,20.8337
33.6500,20.8185
34.0500,20.8185
34.1265,20.8337
34.1914,20.8771
34.2348,20.9420
34.2500,21.0185
34.2500,21.5685
34.2348,21.6450
34.1914,21.7099
34.1265,21.7533
34.0500,21.7685
33.6500,21.7685
33.5735,21.7533
33.5086,21.7099
33.4652,21.6450
33.4500,21.5685
Z" />
<path style="fill:#C83434; fill-opacity:1.0000; stroke:none;fill-rule:evenodd;"
d="M 5.9750,15.6435
5.9940,15.5478
6.0482,15.4667
6.1293,15.4125
6.2250,15.3935
6.8750,15.3935
6.9707,15.4125
7.0518,15.4667
7.1060,15.5478
7.1250,15.6435
7.1250,16.9435
7.1060,17.0392
7.0518,17.1203
6.9707,17.1745
6.8750,17.1935
6.2250,17.1935
6.1293,17.1745
6.0482,17.1203
5.9940,17.0392
5.9750,16.9435
Z" />
<path style="fill:#C83434; fill-opacity:1.0000; stroke:none;fill-rule:evenodd;"
d="M 8.9250,15.6435
8.9440,15.5478
8.9982,15.4667
9.0793,15.4125
9.1750,15.3935
9.8250,15.3935
9.9207,15.4125
10.0018,15.4667
10.0560,15.5478
10.0750,15.6435
10.0750,16.9435
10.0560,17.0392
10.0018,17.1203
9.9207,17.1745
9.8250,17.1935
9.1750,17.1935
9.0793,17.1745
8.9982,17.1203
8.9440,17.0392
8.9250,16.9435
Z" />
<path style="fill:#C83434; fill-opacity:1.0000; stroke:none;fill-rule:evenodd;"
d="M 25.9750,6.6435
25.9940,6.5478
26.0482,6.4667
26.1293,6.4125
26.2250,6.3935
26.8750,6.3935
26.9707,6.4125
27.0518,6.4667
27.1060,6.5478
27.1250,6.6435
27.1250,7.9435
27.1060,8.0392
27.0518,8.1203
26.9707,8.1745
26.8750,8.1935
26.2250,8.1935
26.1293,8.1745
26.0482,8.1203
25.9940,8.0392
25.9750,7.9435
Z" />
<path style="fill:#C83434; fill-opacity:1.0000; stroke:none;fill-rule:evenodd;"
d="M 28.9250,6.6435
28.9440,6.5478
28.9982,6.4667
29.0793,6.4125
29.1750,6.3935
29.8250,6.3935
29.9207,6.4125
30.0018,6.4667
30.0560,6.5478
30.0750,6.6435
30.0750,7.9435
30.0560,8.0392
30.0018,8.1203
29.9207,8.1745
29.8250,8.1935
29.1750,8.1935
29.0793,8.1745
28.9982,8.1203
28.9440,8.0392
28.9250,7.9435
Z" />
<path style="fill:#C83434; fill-opacity:1.0000; stroke:none;fill-rule:evenodd;"
d="M 20.8000,25.0185
20.8152,24.9420
20.8586,24.8771
20.9235,24.8337
21.0000,24.8185
21.4000,24.8185
21.4765,24.8337
21.5414,24.8771
21.5848,24.9420
21.6000,25.0185
21.6000,25.5685
21.5848,25.6450
21.5414,25.7099
21.4765,25.7533
21.4000,25.7685
21.0000,25.7685
20.9235,25.7533
20.8586,25.7099
20.8152,25.6450
20.8000,25.5685
Z" />
<path style="fill:#C83434; fill-opacity:1.0000; stroke:none;fill-rule:evenodd;"
d="M 22.4500,25.0185
22.4652,24.9420
22.5086,24.8771
22.5735,24.8337
22.6500,24.8185
23.0500,24.8185
23.1265,24.8337
23.1914,24.8771
23.2348,24.9420
23.2500,25.0185
23.2500,25.5685
23.2348,25.6450
23.1914,25.7099
23.1265,25.7533
23.0500,25.7685
22.6500,25.7685
22.5735,25.7533
22.5086,25.7099
22.4652,25.6450
22.4500,25.5685
Z" />
<path style="fill:#C83434; fill-opacity:1.0000; stroke:none;fill-rule:evenodd;"
d="M 23.5750,15.2385
23.5864,15.1811
23.6189,15.1324
23.6676,15.0999
23.7250,15.0885
25.3750,15.0885
25.4324,15.0999
25.4811,15.1324
25.5136,15.1811
25.5250,15.2385
25.5250,15.5385
25.5136,15.5959
25.4811,15.6446
25.4324,15.6771
25.3750,15.6885
23.7250,15.6885
23.6676,15.6771
23.6189,15.6446
23.5864,15.5959
23.5750,15.5385
Z" />
<path style="fill:#C83434; fill-opacity:1.0000; stroke:none;fill-rule:evenodd;"
d="M 23.5750,16.5085
23.5864,16.4511
23.6189,16.4024
23.6676,16.3699
23.7250,16.3585
25.3750,16.3585
25.4324,16.3699
25.4811,16.4024
25.5136,16.4511
25.5250,16.5085
25.5250,16.8085
25.5136,16.8659
25.4811,16.9146
25.4324,16.9471
25.3750,16.9585
23.7250,16.9585
23.6676,16.9471
23.6189,16.9146
23.5864,16.8659
23.5750,16.8085
Z" />
<path style="fill:#C83434; fill-opacity:1.0000; stroke:none;fill-rule:evenodd;"
d="M 23.5750,17.7785
23.5864,17.7211
23.6189,17.6724
23.6676,17.6399
23.7250,17.6285
25.3750,17.6285
25.4324,17.6399
25.4811,17.6724
25.5136,17.7211
25.5250,17.7785
25.5250,18.0785
25.5136,18.1359
25.4811,18.1846
25.4324,18.2171
25.3750,18.2285
23.7250,18.2285
23.6676,18.2171
23.6189,18.1846
23.5864,18.1359
23.5750,18.0785
Z" />
<path style="fill:#C83434; fill-opacity:1.0000; stroke:none;fill-rule:evenodd;"
d="M 23.5750,19.0485
23.5864,18.9911
23.6189,18.9424
23.6676,18.9099
23.7250,18.8985
25.3750,18.8985
25.4324,18.9099
25.4811,18.9424
25.5136,18.9911
25.5250,19.0485
25.5250,19.3485
25.5136,19.4059
25.4811,19.4546
25.4324,19.4871
25.3750,19.4985
23.7250,19.4985
23.6676,19.4871
23.6189,19.4546
23.5864,19.4059
23.5750,19.3485
Z" />
<path style="fill:#C83434; fill-opacity:1.0000; stroke:none;fill-rule:evenodd;"
d="M 28.5250,19.0485
28.5364,18.9911
28.5689,18.9424
28.6176,18.9099
28.6750,18.8985
30.3250,18.8985
30.3824,18.9099
30.4311,18.9424
30.4636,18.9911
30.4750,19.0485
30.4750,19.3485
30.4636,19.4059
30.4311,19.4546
30.3824,19.4871
30.3250,19.4985
28.6750,19.4985
28.6176,19.4871
28.5689,19.4546
28.5364,19.4059
28.5250,19.3485
Z" />
<path style="fill:#C83434; fill-opacity:1.0000; stroke:none;fill-rule:evenodd;"
d="M 28.5250,17.7785
28.5364,17.7211
28.5689,17.6724
28.6176,17.6399
28.6750,17.6285
30.3250,17.6285
30.3824,17.6399
30.4311,17.6724
30.4636,17.7211
30.4750,17.7785
30.4750,18.0785
30.4636,18.1359
30.4311,18.1846
30.3824,18.2171
30.3250,18.2285
28.6750,18.2285
28.6176,18.2171
28.5689,18.1846
28.5364,18.1359
28.5250,18.0785
Z" />
<path style="fill:#C83434; fill-opacity:1.0000; stroke:none;fill-rule:evenodd;"
d="M 28.5250,16.5085
28.5364,16.4511
28.5689,16.4024
28.6176,16.3699
28.6750,16.3585
30.3250,16.3585
30.3824,16.3699
30.4311,16.4024
30.4636,16.4511
30.4750,16.5085
30.4750,16.8085
30.4636,16.8659
30.4311,16.9146
30.3824,16.9471
30.3250,16.9585
28.6750,16.9585
28.6176,16.9471
28.5689,16.9146
28.5364,16.8659
28.5250,16.8085
Z" />
<path style="fill:#C83434; fill-opacity:1.0000; stroke:none;fill-rule:evenodd;"
d="M 28.5250,15.2385
28.5364,15.1811
28.5689,15.1324
28.6176,15.0999
28.6750,15.0885
30.3250,15.0885
30.3824,15.0999
30.4311,15.1324
30.4636,15.1811
30.4750,15.2385
30.4750,15.5385
30.4636,15.5959
30.4311,15.6446
30.3824,15.6771
30.3250,15.6885
28.6750,15.6885
28.6176,15.6771
28.5689,15.6446
28.5364,15.5959
28.5250,15.5385
Z" />
<path style="fill:#C83434; fill-opacity:1.0000; stroke:none;fill-rule:evenodd;"
d="M 31.8000,24.0185
31.8152,23.9420
31.8586,23.8771
31.9235,23.8337
32.0000,23.8185
32.4000,23.8185
32.4765,23.8337
32.5414,23.8771
32.5848,23.9420
32.6000,24.0185
32.6000,24.5685
32.5848,24.6450
32.5414,24.7099
32.4765,24.7533
32.4000,24.7685
32.0000,24.7685
31.9235,24.7533
31.8586,24.7099
31.8152,24.6450
31.8000,24.5685
Z" />
<path style="fill:#C83434; fill-opacity:1.0000; stroke:none;fill-rule:evenodd;"
d="M 33.4500,24.0185
33.4652,23.9420
33.5086,23.8771
33.5735,23.8337
33.6500,23.8185
34.0500,23.8185
34.1265,23.8337
34.1914,23.8771
34.2348,23.9420
34.2500,24.0185
34.2500,24.5685
34.2348,24.6450
34.1914,24.7099
34.1265,24.7533
34.0500,24.7685
33.6500,24.7685
33.5735,24.7533
33.5086,24.7099
33.4652,24.6450
33.4500,24.5685
Z" />
<path style="fill:#C83434; fill-opacity:1.0000; stroke:none;fill-rule:evenodd;"
d="M 12.5750,3.8185
12.5940,3.7228
12.6482,3.6417
12.7293,3.5875
12.8250,3.5685
13.3250,3.5685
13.4207,3.5875
13.5018,3.6417
13.5560,3.7228
13.5750,3.8185
13.5750,4.7685
13.5560,4.8642
13.5018,4.9453
13.4207,4.9995
13.3250,5.0185
12.8250,5.0185
12.7293,4.9995
12.6482,4.9453
12.5940,4.8642
12.5750,4.7685
Z" />
<path style="fill:#C83434; fill-opacity:1.0000; stroke:none;fill-rule:evenodd;"
d="M 14.4750,3.8185
14.4940,3.7228
14.5482,3.6417
14.6293,3.5875
14.7250,3.5685
15.2250,3.5685
15.3207,3.5875
15.4018,3.6417
15.4560,3.7228
15.4750,3.8185
15.4750,4.7685
15.4560,4.8642
15.4018,4.9453
15.3207,4.9995
15.2250,5.0185
14.7250,5.0185
14.6293,4.9995
14.5482,4.9453
14.4940,4.8642
14.4750,4.7685
Z" />
<path style="fill:#C83434; fill-opacity:1.0000; stroke:none;fill-rule:evenodd;"
d="M 27.8000,10.0185
27.8152,9.9420
27.8586,9.8771
27.9235,9.8337
28.0000,9.8185
28.4000,9.8185
28.4765,9.8337
28.5414,9.8771
28.5848,9.9420
28.6000,10.0185
28.6000,10.5685
28.5848,10.6450
28.5414,10.7099
28.4765,10.7533
28.4000,10.7685
28.0000,10.7685
27.9235,10.7533
27.8586,10.7099
27.8152,10.6450
27.8000,10.5685
Z" />
<path style="fill:#C83434; fill-opacity:1.0000; stroke:none;fill-rule:evenodd;"
d="M 29.4500,10.0185
29.4652,9.9420
29.5086,9.8771
29.5735,9.8337
29.6500,9.8185
30.0500,9.8185
30.1265,9.8337
30.1914,9.8771
30.2348,9.9420
30.2500,10.0185
30.2500,10.5685
30.2348,10.6450
30.1914,10.7099
30.1265,10.7533
30.0500,10.7685
29.6500,10.7685
29.5735,10.7533
29.5086,10.7099
29.4652,10.6450
29.4500,10.5685
Z" />
<path style="fill:#C83434; fill-opacity:1.0000; stroke:none;fill-rule:evenodd;"
d="M 5.9750,7.6435
5.9940,7.5478
6.0482,7.4667
6.1293,7.4125
6.2250,7.3935
6.8750,7.3935
6.9707,7.4125
7.0518,7.4667
7.1060,7.5478
7.1250,7.6435
7.1250,8.9435
7.1060,9.0392
7.0518,9.1203
6.9707,9.1745
6.8750,9.1935
6.2250,9.1935
6.1293,9.1745
6.0482,9.1203
5.9940,9.0392
5.9750,8.9435
Z" />
<path style="fill:#C83434; fill-opacity:1.0000; stroke:none;fill-rule:evenodd;"
d="M 8.9250,7.6435
8.9440,7.5478
8.9982,7.4667
9.0793,7.4125
9.1750,7.3935
9.8250,7.3935
9.9207,7.4125
10.0018,7.4667
10.0560,7.5478
10.0750,7.6435
10.0750,8.9435
10.0560,9.0392
10.0018,9.1203
9.9207,9.1745
9.8250,9.1935
9.1750,9.1935
9.0793,9.1745
8.9982,9.1203
8.9440,9.0392
8.9250,8.9435
Z" />
<path style="fill:#C83434; fill-opacity:1.0000; stroke:none;fill-rule:evenodd;"
d="M 11.5750,10.2385
11.5864,10.1811
11.6189,10.1324
11.6676,10.0999
11.7250,10.0885
13.3750,10.0885
13.4324,10.0999
13.4811,10.1324
13.5136,10.1811
13.5250,10.2385
13.5250,10.5385
13.5136,10.5959
13.4811,10.6446
13.4324,10.6771
13.3750,10.6885
11.7250,10.6885
11.6676,10.6771
11.6189,10.6446
11.5864,10.5959
11.5750,10.5385
Z" />
<path style="fill:#C83434; fill-opacity:1.0000; stroke:none;fill-rule:evenodd;"
d="M 11.5750,11.5085
11.5864,11.4511
11.6189,11.4024
11.6676,11.3699
11.7250,11.3585
13.3750,11.3585
13.4324,11.3699
13.4811,11.4024
13.5136,11.4511
13.5250,11.5085
13.5250,11.8085
13.5136,11.8659
13.4811,11.9146
13.4324,11.9471
13.3750,11.9585
11.7250,11.9585
11.6676,11.9471
11.6189,11.9146
11.5864,11.8659
11.5750,11.8085
Z" />
<path style="fill:#C83434; fill-opacity:1.0000; stroke:none;fill-rule:evenodd;"
d="M 11.5750,12.7785
11.5864,12.7211
11.6189,12.6724
11.6676,12.6399
11.7250,12.6285
13.3750,12.6285
13.4324,12.6399
13.4811,12.6724
13.5136,12.7211
13.5250,12.7785
13.5250,13.0785
13.5136,13.1359
13.4811,13.1846
13.4324,13.2171
13.3750,13.2285
11.7250,13.2285
11.6676,13.2171
11.6189,13.1846
11.5864,13.1359
11.5750,13.0785
Z" />
<path style="fill:#C83434; fill-opacity:1.0000; stroke:none;fill-rule:evenodd;"
d="M 11.5750,14.0485
11.5864,13.9911
11.6189,13.9424
11.6676,13.9099
11.7250,13.8985
13.3750,13.8985
13.4324,13.9099
13.4811,13.9424
13.5136,13.9911
13.5250,14.0485
13.5250,14.3485
13.5136,14.4059
13.4811,14.4546
13.4324,14.4871
13.3750,14.4985
11.7250,14.4985
11.6676,14.4871
11.6189,14.4546
11.5864,14.4059
11.5750,14.3485
Z" />
<path style="fill:#C83434; fill-opacity:1.0000; stroke:none;fill-rule:evenodd;"
d="M 16.5250,14.0485
16.5364,13.9911
16.5689,13.9424
16.6176,13.9099
16.6750,13.8985
18.3250,13.8985
18.3824,13.9099
18.4311,13.9424
18.4636,13.9911
18.4750,14.0485
18.4750,14.3485
18.4636,14.4059
18.4311,14.4546
18.3824,14.4871
18.3250,14.4985
16.6750,14.4985
16.6176,14.4871
16.5689,14.4546
16.5364,14.4059
16.5250,14.3485
Z" />
<path style="fill:#C83434; fill-opacity:1.0000; stroke:none;fill-rule:evenodd;"
d="M 16.5250,12.7785
16.5364,12.7211
16.5689,12.6724
16.6176,12.6399
16.6750,12.6285
18.3250,12.6285
18.3824,12.6399
18.4311,12.6724
18.4636,12.7211
18.4750,12.7785
18.4750,13.0785
18.4636,13.1359
18.4311,13.1846
18.3824,13.2171
18.3250,13.2285
16.6750,13.2285
16.6176,13.2171
16.5689,13.1846
16.5364,13.1359
16.5250,13.0785
Z" />
<path style="fill:#C83434; fill-opacity:1.0000; stroke:none;fill-rule:evenodd;"
d="M 16.5250,11.5085
16.5364,11.4511
16.5689,11.4024
16.6176,11.3699
16.6750,11.3585
18.3250,11.3585
18.3824,11.3699
18.4311,11.4024
18.4636,11.4511
18.4750,11.5085
18.4750,11.8085
18.4636,11.8659
18.4311,11.9146
18.3824,11.9471
18.3250,11.9585
16.6750,11.9585
16.6176,11.9471
16.5689,11.9146
16.5364,11.8659
16.5250,11.8085
Z" />
<path style="fill:#C83434; fill-opacity:1.0000; stroke:none;fill-rule:evenodd;"
d="M 16.5250,10.2385
16.5364,10.1811
16.5689,10.1324
16.6176,10.0999
16.6750,10.0885
18.3250,10.0885
18.3824,10.0999
18.4311,10.1324
18.4636,10.1811
18.4750,10.2385
18.4750,10.5385
18.4636,10.5959
18.4311,10.6446
18.3824,10.6771
18.3250,10.6885
16.6750,10.6885
16.6176,10.6771
16.5689,10.6446
16.5364,10.5959
16.5250,10.5385
Z" />
<path style="fill:#C83434; fill-opacity:1.0000; stroke:none;fill-rule:evenodd;"
d="M 25.9750,11.6435
25.9940,11.5478
26.0482,11.4667
26.1293,11.4125
26.2250,11.3935
26.8750,11.3935
26.9707,11.4125
27.0518,11.4667
27.1060,11.5478
27.1250,11.6435
27.1250,12.9435
27.1060,13.0392
27.0518,13.1203
26.9707,13.1745
26.8750,13.1935
26.2250,13.1935
26.1293,13.1745
26.0482,13.1203
25.9940,13.0392
25.9750,12.9435
Z" />
<path style="fill:#C83434; fill-opacity:1.0000; stroke:none;fill-rule:evenodd;"
d="M 28.9250,11.6435
28.9440,11.5478
28.9982,11.4667
29.0793,11.4125
29.1750,11.3935
29.8250,11.3935
29.9207,11.4125
30.0018,11.4667
30.0560,11.5478
30.0750,11.6435
30.0750,12.9435
30.0560,13.0392
30.0018,13.1203
29.9207,13.1745
29.8250,13.1935
29.1750,13.1935
29.0793,13.1745
28.9982,13.1203
28.9440,13.0392
28.9250,12.9435
Z" />
<path style="fill:#C83434; fill-opacity:1.0000; stroke:none;fill-rule:evenodd;"
d="M 35.1750,11.3335
35.1750,9.6335
36.8750,9.6335
36.8750,11.3335
Z" />
</g>
<g style="fill:#C83434; fill-opacity:1.0000; stroke:none;">
<circle cx="36.0250" cy="13.0235" r="0.8500" />
</g>
<g style="fill:#C83434; fill-opacity:1.0000; stroke:none;">
<circle cx="36.0250" cy="15.5635" r="0.8500" />
</g>
<g style="fill:#C83434; fill-opacity:1.0000; stroke:none;">
<circle cx="36.0250" cy="18.1035" r="0.8500" />
<path style="fill:#C83434; fill-opacity:1.0000; stroke:none;fill-rule:evenodd;"
d="M 21.8000,8.0185
21.8152,7.9420
21.8586,7.8771
21.9235,7.8337
22.0000,7.8185
22.4000,7.8185
22.4765,7.8337
22.5414,7.8771
22.5848,7.9420
22.6000,8.0185
22.6000,8.5685
22.5848,8.6450
22.5414,8.7099
22.4765,8.7533
22.4000,8.7685
22.0000,8.7685
21.9235,8.7533
21.8586,8.7099
21.8152,8.6450
21.8000,8.5685
Z" />
<path style="fill:#C83434; fill-opacity:1.0000; stroke:none;fill-rule:evenodd;"
d="M 23.4500,8.0185
23.4652,7.9420
23.5086,7.8771
23.5735,7.8337
23.6500,7.8185
24.0500,7.8185
24.1265,7.8337
24.1914,7.8771
24.2348,7.9420
24.2500,8.0185
24.2500,8.5685
24.2348,8.6450
24.1914,8.7099
24.1265,8.7533
24.0500,8.7685
23.6500,8.7685
23.5735,8.7533
23.5086,8.7099
23.4652,8.6450
23.4500,8.5685
Z" />
<path style="fill:#C83434; fill-opacity:1.0000; stroke:none;fill-rule:evenodd;"
d="M 24.8000,25.0185
24.8152,24.9420
24.8586,24.8771
24.9235,24.8337
25.0000,24.8185
25.4000,24.8185
25.4765,24.8337
25.5414,24.8771
25.5848,24.9420
25.6000,25.0185
25.6000,25.5685
25.5848,25.6450
25.5414,25.7099
25.4765,25.7533
25.4000,25.7685
25.0000,25.7685
24.9235,25.7533
24.8586,25.7099
24.8152,25.6450
24.8000,25.5685
Z" />
<path style="fill:#C83434; fill-opacity:1.0000; stroke:none;fill-rule:evenodd;"
d="M 26.4500,25.0185
26.4652,24.9420
26.5086,24.8771
26.5735,24.8337
26.6500,24.8185
27.0500,24.8185
27.1265,24.8337
27.1914,24.8771
27.2348,24.9420
27.2500,25.0185
27.2500,25.5685
27.2348,25.6450
27.1914,25.7099
27.1265,25.7533
27.0500,25.7685
26.6500,25.7685
26.5735,25.7533
26.5086,25.7099
26.4652,25.6450
26.4500,25.5685
Z" />
<path style="fill:#C83434; fill-opacity:1.0000; stroke:none;fill-rule:evenodd;"
d="M 21.8000,12.0185
21.8152,11.9420
21.8586,11.8771
21.9235,11.8337
22.0000,11.8185
22.4000,11.8185
22.4765,11.8337
22.5414,11.8771
22.5848,11.9420
22.6000,12.0185
22.6000,12.5685
22.5848,12.6450
22.5414,12.7099
22.4765,12.7533
22.4000,12.7685
22.0000,12.7685
21.9235,12.7533
21.8586,12.7099
21.8152,12.6450
21.8000,12.5685
Z" />
<path style="fill:#C83434; fill-opacity:1.0000; stroke:none;fill-rule:evenodd;"
d="M 23.4500,12.0185
23.4652,11.9420
23.5086,11.8771
23.5735,11.8337
23.6500,11.8185
24.0500,11.8185
24.1265,11.8337
24.1914,11.8771
24.2348,11.9420
24.2500,12.0185
24.2500,12.5685
24.2348,12.6450
24.1914,12.7099
24.1265,12.7533
24.0500,12.7685
23.6500,12.7685
23.5735,12.7533
23.5086,12.7099
23.4652,12.6450
23.4500,12.5685
Z" />
<path style="fill:#C83434; fill-opacity:1.0000; stroke:none;fill-rule:evenodd;"
d="M 7.8000,11.0185
7.8152,10.9420
7.8586,10.8771
7.9235,10.8337
8.0000,10.8185
8.4000,10.8185
8.4765,10.8337
8.5414,10.8771
8.5848,10.9420
8.6000,11.0185
8.6000,11.5685
8.5848,11.6450
8.5414,11.7099
8.4765,11.7533
8.4000,11.7685
8.0000,11.7685
7.9235,11.7533
7.8586,11.7099
7.8152,11.6450
7.8000,11.5685
Z" />
<path style="fill:#C83434; fill-opacity:1.0000; stroke:none;fill-rule:evenodd;"
d="M 9.4500,11.0185
9.4652,10.9420
9.5086,10.8771
9.5735,10.8337
9.6500,10.8185
10.0500,10.8185
10.1265,10.8337
10.1914,10.8771
10.2348,10.9420
10.2500,11.0185
10.2500,11.5685
10.2348,11.6450
10.1914,11.7099
10.1265,11.7533
10.0500,11.7685
9.6500,11.7685
9.5735,11.7533
9.5086,11.7099
9.4652,11.6450
9.4500,11.5685
Z" />
<path style="fill:#C83434; fill-opacity:1.0000; stroke:none;fill-rule:evenodd;"
d="M 8.5250,3.9122
8.5417,3.8285
8.5891,3.7576
8.6600,3.7102
8.7438,3.6935
9.1813,3.6935
9.2650,3.7102
9.3359,3.7576
9.3833,3.8285
9.4000,3.9122
9.4000,4.6747
9.3833,4.7585
9.3359,4.8294
9.2650,4.8768
9.1813,4.8935
8.7438,4.8935
8.6600,4.8768
8.5891,4.8294
8.5417,4.7585
8.5250,4.6747
Z" />
<path style="fill:#C83434; fill-opacity:1.0000; stroke:none;fill-rule:evenodd;"
d="M 10.6500,3.9122
10.6667,3.8285
10.7141,3.7576
10.7850,3.7102
10.8688,3.6935
11.3063,3.6935
11.3900,3.7102
11.4609,3.7576
11.5083,3.8285
11.5250,3.9122
11.5250,4.6747
11.5083,4.7585
11.4609,4.8294
11.3900,4.8768
11.3063,4.8935
10.8688,4.8935
10.7850,4.8768
10.7141,4.8294
10.6667,4.7585
10.6500,4.6747
Z" />
<path style="fill:#C83434; fill-opacity:1.0000; stroke:none;fill-rule:evenodd;"
d="M 31.3000,16.0435
31.3171,15.9574
31.3659,15.8844
31.4389,15.8356
31.5250,15.8185
31.9750,15.8185
32.0611,15.8356
32.1341,15.8844
32.1829,15.9574
32.2000,16.0435
32.2000,16.5435
32.1829,16.6296
32.1341,16.7026
32.0611,16.7514
31.9750,16.7685
31.5250,16.7685
31.4389,16.7514
31.3659,16.7026
31.3171,16.6296
31.3000,16.5435
Z" />
<path style="fill:#C83434; fill-opacity:1.0000; stroke:none;fill-rule:evenodd;"
d="M 32.8500,16.0435
32.8671,15.9574
32.9159,15.8844
32.9889,15.8356
33.0750,15.8185
33.5250,15.8185
33.6111,15.8356
33.6841,15.8844
33.7329,15.9574
33.7500,16.0435
33.7500,16.5435
33.7329,16.6296
33.6841,16.7026
33.6111,16.7514
33.5250,16.7685
33.0750,16.7685
32.9889,16.7514
32.9159,16.7026
32.8671,16.6296
32.8500,16.5435
Z" />
<path style="fill:#C83434; fill-opacity:1.0000; stroke:none;fill-rule:evenodd;"
d="M 21.1750,3.8735
21.1750,2.1735
22.8750,2.1735
22.8750,3.8735
Z" />
</g>
<g style="fill:#C83434; fill-opacity:1.0000; stroke:none;">
<circle cx="22.0250" cy="5.5635" r="0.8500" />
<path style="fill:#C83434; fill-opacity:1.0000; stroke:none;fill-rule:evenodd;"
d="M 2.1750,10.6035
2.1750,8.9035
3.8750,8.9035
3.8750,10.6035
Z" />
</g>
<g style="fill:#C83434; fill-opacity:1.0000; stroke:none;">
<circle cx="3.0250" cy="12.2935" r="0.8500" />
</g>
<g style="fill:#C83434; fill-opacity:1.0000; stroke:none;">
<circle cx="3.0250" cy="14.8335" r="0.8500" />
<path style="fill:#C83434; fill-opacity:1.0000; stroke:none;fill-rule:evenodd;"
d="M 30.8000,12.0185
30.8152,11.9420
30.8586,11.8771
30.9235,11.8337
31.0000,11.8185
31.4000,11.8185
31.4765,11.8337
31.5414,11.8771
31.5848,11.9420
31.6000,12.0185
31.6000,12.5685
31.5848,12.6450
31.5414,12.7099
31.4765,12.7533
31.4000,12.7685
31.0000,12.7685
30.9235,12.7533
30.8586,12.7099
30.8152,12.6450
30.8000,12.5685
Z" />
<path style="fill:#C83434; fill-opacity:1.0000; stroke:none;fill-rule:evenodd;"
d="M 32.4500,12.0185
32.4652,11.9420
32.5086,11.8771
32.5735,11.8337
32.6500,11.8185
33.0500,11.8185
33.1265,11.8337
33.1914,11.8771
33.2348,11.9420
33.2500,12.0185
33.2500,12.5685
33.2348,12.6450
33.1914,12.7099
33.1265,12.7533
33.0500,12.7685
32.6500,12.7685
32.5735,12.7533
32.5086,12.7099
32.4652,12.6450
32.4500,12.5685
Z" />
<path style="fill:#C83434; fill-opacity:1.0000; stroke:none;fill-rule:evenodd;"
d="M 26.9750,20.6435
26.9940,20.5478
27.0482,20.4667
27.1293,20.4125
27.2250,20.3935
27.8750,20.3935
27.9707,20.4125
28.0518,20.4667
28.1060,20.5478
28.1250,20.6435
28.1250,21.9435
28.1060,22.0392
28.0518,22.1203
27.9707,22.1745
27.8750,22.1935
27.2250,22.1935
27.1293,22.1745
27.0482,22.1203
26.9940,22.0392
26.9750,21.9435
Z" />
<path style="fill:#C83434; fill-opacity:1.0000; stroke:none;fill-rule:evenodd;"
d="M 29.9250,20.6435
29.9440,20.5478
29.9982,20.4667
30.0793,20.4125
30.1750,20.3935
30.8250,20.3935
30.9207,20.4125
31.0018,20.4667
31.0560,20.5478
31.0750,20.6435
31.0750,21.9435
31.0560,22.0392
31.0018,22.1203
30.9207,22.1745
30.8250,22.1935
30.1750,22.1935
30.0793,22.1745
29.9982,22.1203
29.9440,22.0392
29.9250,21.9435
Z" />
<path style="fill:#C83434; fill-opacity:1.0000; stroke:none;fill-rule:evenodd;"
d="M 16.8000,4.0435
16.8171,3.9574
16.8659,3.8844
16.9389,3.8356
17.0250,3.8185
17.4750,3.8185
17.5611,3.8356
17.6341,3.8844
17.6829,3.9574
17.7000,4.0435
17.7000,4.5435
17.6829,4.6296
17.6341,4.7026
17.5611,4.7514
17.4750,4.7685
17.0250,4.7685
16.9389,4.7514
16.8659,4.7026
16.8171,4.6296
16.8000,4.5435
Z" />
<path style="fill:#C83434; fill-opacity:1.0000; stroke:none;fill-rule:evenodd;"
d="M 18.3500,4.0435
18.3671,3.9574
18.4159,3.8844
18.4889,3.8356
18.5750,3.8185
19.0250,3.8185
19.1111,3.8356
19.1841,3.8844
19.2329,3.9574
19.2500,4.0435
19.2500,4.5435
19.2329,4.6296
19.1841,4.7026
19.1111,4.7514
19.0250,4.7685
18.5750,4.7685
18.4889,4.7514
18.4159,4.7026
18.3671,4.6296
18.3500,4.5435
Z" />
<path style="fill:#C83434; fill-opacity:1.0000; stroke:none;fill-rule:evenodd;"
d="M 27.8000,27.0185
27.8152,26.9420
27.8586,26.8771
27.9235,26.8337
28.0000,26.8185
28.4000,26.8185
28.4765,26.8337
28.5414,26.8771
28.5848,26.9420
28.6000,27.0185
28.6000,27.5685
28.5848,27.6450
28.5414,27.7099
28.4765,27.7533
28.4000,27.7685
28.0000,27.7685
27.9235,27.7533
27.8586,27.7099
27.8152,27.6450
27.8000,27.5685
Z" />
<path style="fill:#C83434; fill-opacity:1.0000; stroke:none;fill-rule:evenodd;"
d="M 29.4500,27.0185
29.4652,26.9420
29.5086,26.8771
29.5735,26.8337
29.6500,26.8185
30.0500,26.8185
30.1265,26.8337
30.1914,26.8771
30.2348,26.9420
30.2500,27.0185
30.2500,27.5685
30.2348,27.6450
30.1914,27.7099
30.1265,27.7533
30.0500,27.7685
29.6500,27.7685
29.5735,27.7533
29.5086,27.7099
29.4652,27.6450
29.4500,27.5685
Z" />
<path style="fill:#C83434; fill-opacity:1.0000; stroke:none;fill-rule:evenodd;"
d="M 30.8000,7.0185
30.8152,6.9420
30.8586,6.8771
30.9235,6.8337
31.0000,6.8185
31.4000,6.8185
31.4765,6.8337
31.5414,6.8771
31.5848,6.9420
31.6000,7.0185
31.6000,7.5685
31.5848,7.6450
31.5414,7.7099
31.4765,7.7533
31.4000,7.7685
31.0000,7.7685
30.9235,7.7533
30.8586,7.7099
30.8152,7.6450
30.8000,7.5685
Z" />
<path style="fill:#C83434; fill-opacity:1.0000; stroke:none;fill-rule:evenodd;"
d="M 32.4500,7.0185
32.4652,6.9420
32.5086,6.8771
32.5735,6.8337
32.6500,6.8185
33.0500,6.8185
33.1265,6.8337
33.1914,6.8771
33.2348,6.9420
33.2500,7.0185
33.2500,7.5685
33.2348,7.6450
33.1914,7.7099
33.1265,7.7533
33.0500,7.7685
32.6500,7.7685
32.5735,7.7533
32.5086,7.7099
32.4652,7.6450
32.4500,7.5685
Z" />
<path style="fill:#C83434; fill-opacity:1.0000; stroke:none;fill-rule:evenodd;"
d="M 16.5750,23.8185
16.5940,23.7228
16.6482,23.6417
16.7293,23.5875
16.8250,23.5685
17.3250,23.5685
17.4207,23.5875
17.5018,23.6417
17.5560,23.7228
17.5750,23.8185
17.5750,24.7685
17.5560,24.8642
17.5018,24.9453
17.4207,24.9995
17.3250,25.0185
16.8250,25.0185
16.7293,24.9995
16.6482,24.9453
16.5940,24.8642
16.5750,24.7685
Z" />
<path style="fill:#C83434; fill-opacity:1.0000; stroke:none;fill-rule:evenodd;"
d="M 18.4750,23.8185
18.4940,23.7228
18.5482,23.6417
18.6293,23.5875
18.7250,23.5685
19.2250,23.5685
19.3207,23.5875
19.4018,23.6417
19.4560,23.7228
19.4750,23.8185
19.4750,24.7685
19.4560,24.8642
19.4018,24.9453
19.3207,24.9995
19.2250,25.0185
18.7250,25.0185
18.6293,24.9995
18.5482,24.9453
18.4940,24.8642
18.4750,24.7685
Z" />
<path style="fill:#C83434; fill-opacity:1.0000; stroke:none;fill-rule:evenodd;"
d="M 7.8000,19.0185
7.8152,18.9420
7.8586,18.8771
7.9235,18.8337
8.0000,18.8185
8.4000,18.8185
8.4765,18.8337
8.5414,18.8771
8.5848,18.9420
8.6000,19.0185
8.6000,19.5685
8.5848,19.6450
8.5414,19.7099
8.4765,19.7533
8.4000,19.7685
8.0000,19.7685
7.9235,19.7533
7.8586,19.7099
7.8152,19.6450
7.8000,19.5685
Z" />
<path style="fill:#C83434; fill-opacity:1.0000; stroke:none;fill-rule:evenodd;"
d="M 9.4500,19.0185
9.4652,18.9420
9.5086,18.8771
9.5735,18.8337
9.6500,18.8185
10.0500,18.8185
10.1265,18.8337
10.1914,18.8771
10.2348,18.9420
10.2500,19.0185
10.2500,19.5685
10.2348,19.6450
10.1914,19.7099
10.1265,19.7533
10.0500,19.7685
9.6500,19.7685
9.5735,19.7533
9.5086,19.7099
9.4652,19.6450
9.4500,19.5685
Z" />
<path style="fill:#C83434; fill-opacity:1.0000; stroke:none;fill-rule:evenodd;"
d="M 11.8000,7.0435
11.8171,6.9574
11.8659,6.8844
11.9389,6.8356
12.0250,6.8185
12.4750,6.8185
12.5611,6.8356
12.6341,6.8844
12.6829,6.9574
12.7000,7.0435
12.7000,7.5435
12.6829,7.6296
12.6341,7.7026
12.5611,7.7514
12.4750,7.7685
12.0250,7.7685
11.9389,7.7514
11.8659,7.7026
11.8171,7.6296
11.8000,7.5435
Z" />
<path style="fill:#C83434; fill-opacity:1.0000; stroke:none;fill-rule:evenodd;"
d="M 13.3500,7.0435
13.3671,6.9574
13.4159,6.8844
13.4889,6.8356
13.5750,6.8185
14.0250,6.8185
14.1111,6.8356
14.1841,6.8844
14.2329,6.9574
14.2500,7.0435
14.2500,7.5435
14.2329,7.6296
14.1841,7.7026
14.1111,7.7514
14.0250,7.7685
13.5750,7.7685
13.4889,7.7514
13.4159,7.7026
13.3671,7.6296
13.3500,7.5435
Z" />
</g>
<g style="fill:#C83434; fill-opacity:1.0000; stroke:none;">
<circle cx="31.0558" cy="23.1940" r="0.3000" />
</g>
<g style="fill:#C83434; fill-opacity:1.0000; stroke:none;">
<circle cx="21.1017" cy="24.2140" r="0.3000" />
</g>
<g style="fill:#C83434; fill-opacity:1.0000; stroke:none;">
<circle cx="12.5307" cy="16.7528" r="0.3000" />
</g>
<g style="fill:#C83434; fill-opacity:1.0000; stroke:none;">
<circle cx="26.1949" cy="10.2129" r="0.3000" />
</g>
<g style="fill:#C83434; fill-opacity:1.0000; stroke:none;">
<circle cx="31.0250" cy="26.2935" r="0.3000" />
</g>
<g style="fill:#C83434; fill-opacity:1.0000; stroke:none;">
<circle cx="8.0250" cy="24.2935" r="0.3000" />
</g>
<g style="fill:#C83434; fill-opacity:1.0000; stroke:none;">
<circle cx="25.0250" cy="10.2935" r="0.3000" />
</g>
<g style="fill:#C83434; fill-opacity:1.0000; stroke:none;">
<circle cx="14.0250" cy="20.2935" r="0.3000" />
</g>
<g style="fill:#C83434; fill-opacity:1.0000; stroke:none;">
<circle cx="36.0250" cy="5.2935" r="0.3000" />
</g>
<g style="fill:#C83434; fill-opacity:1.0000; stroke:none;">
<circle cx="14.9189" cy="7.6816" r="0.3000" />
</g>
<g style="fill:#C83434; fill-opacity:1.0000; stroke:none;">
<circle cx="21.8563" cy="10.2820" r="0.3000" />
</g>
<g style="fill:#C83434; fill-opacity:1.0000; stroke:none;">
<circle cx="19.0250" cy="12.2935" r="0.3000" />
</g>
<g style="fill:#C83434; fill-opacity:1.0000; stroke:none;">
<circle cx="23.8110" cy="9.9721" r="0.3000" />
</g>
<g style="fill:#C83434; fill-opacity:1.0000; stroke:none;">
<circle cx="22.6336" cy="13.7920" r="0.3000" />
</g>
<g style="fill:none;
stroke:#C83434; stroke-width:0.2000; stroke-opacity:1;
stroke-linecap:round; stroke-linejoin:round;">
<path d="M10.2325 3.0235
L22.0250 3.0235
" />
<path d="M8.9625 4.2935
L10.2325 3.0235
" />
<path d="M31.0558 23.1940
L31.4376 22.8122
" />
<path d="M31.4376 16.6059
L31.7500 16.2935
" />
<path d="M17.5000 10.3885
L20.9952 6.8933
" />
<path d="M20.9952 6.8933
L23.6844 6.8933
" />
<path d="M21.2000 25.2935
L21.1017 25.1952
" />
<path d="M27.1378 6.0618
L27.4720 6.3960
" />
<path d="M14.1364 5.4071
L13.0489 4.3196
" />
<path d="M17.2500 5.4071
L14.1364 5.4071
" />
<path d="M30.8450 15.3885
L29.5000 15.3885
" />
<path d="M12.2500 7.2935
L14.1364 5.4071
" />
<path d="M13.0489 4.3196
L13.0750 4.2935
" />
<path d="M13.0228 4.2935
L13.0489 4.3196
" />
<path d="M27.4720 6.3960
L27.4720 13.3605
" />
<path d="M31.4376 22.8122
L31.4376 16.6059
" />
<path d="M23.6844 6.8933
L24.5159 6.0618
" />
<path d="M17.2500 5.4071
L17.2500 4.2935
" />
<path d="M17.2500 10.1385
L17.2500 5.4071
" />
<path d="M31.7500 16.2935
L30.8450 15.3885
" />
<path d="M27.4720 13.3605
L29.5000 15.3885
" />
<path d="M17.5000 10.3885
L17.2500 10.1385
" />
<path d="M24.5159 6.0618
L27.1378 6.0618
" />
<path d="M11.0875 4.2935
L13.0228 4.2935
" />
<path d="M21.1017 25.1952
L21.1017 24.2140
" />
<path d="M29.5000 16.9760
L27.7522 16.9760
" />
<path d="M10.3851 11.8286
L10.3851 13.5634
" />
<path d="M27.7522 16.9760
L24.3397 13.5635
" />
<path d="M22.3845 13.1903
L22.0114 13.5634
" />
<path d="M23.2560 13.5635
L22.8828 13.1903
" />
<path d="M29.5000 17.9285
L29.5000 16.9760
" />
<path d="M22.8828 13.1903
L22.3845 13.1903
" />
<path d="M29.5000 16.9760
L29.5000 16.6585
" />
<path d="M9.8500 11.2935
L10.3851 11.8286
" />
<path d="M24.3397 13.5635
L23.2560 13.5635
" />
<path d="M10.3851 18.7584
L9.8500 19.2935
" />
<path d="M22.0114 13.5634
L10.3851 13.5634
" />
<path d="M10.3851 13.5634
L10.3851 18.7584
" />
<path d="M28.2000 8.5935
L29.5000 7.2935
" />
<path d="M29.5000 7.2935
L31.2000 7.2935
" />
<path d="M28.2000 10.2935
L28.2000 8.5935
" />
<path d="M31.2000 12.2935
L29.5000 12.2935
" />
<path d="M32.5250 20.9685
L32.5250 13.6185
" />
<path d="M32.5250 13.6185
L31.2000 12.2935
" />
<path d="M32.2000 21.2935
L32.5250 20.9685
" />
<path d="M30.5000 24.2935
L32.2000 24.2935
" />
<path d="M28.2000 27.2935
L30.5000 24.9935
" />
<path d="M30.5000 21.2935
L30.4541 21.3394
" />
<path d="M30.4541 24.2476
L30.5000 24.2935
" />
<path d="M30.4541 21.3394
L30.4541 24.2476
" />
<path d="M30.5000 24.9935
L30.5000 24.2935
" />
<path d="M3.0250 9.7535
L5.0900 9.7535
" />
<path d="M5.0900 9.7535
L6.5500 8.2935
" />
<path d="M5.0900 14.8335
L6.5500 16.2935
" />
<path d="M3.0250 14.8335
L5.0900 14.8335
" />
<path d="M34.8883 9.3318
L32.8500 7.2935
" />
<path d="M36.0250 10.4835
L36.0250 9.3318
" />
<path d="M36.0250 9.3318
L34.8883 9.3318
" />
<path d="M36.0250 15.5635
L32.8500 12.3885
" />
<path d="M32.8500 12.3885
L32.8500 12.2935
" />
<path d="M33.8500 24.2935
L36.0250 22.1185
" />
<path d="M36.0250 22.1185
L36.0250 18.1035
" />
<path d="M8.2206 8.4131
L8.2206 9.3386
" />
<path d="M9.1125 9.0945
L9.0240 9.0060
" />
<path d="M10.7853 9.5788
L10.7853 11.5085
" />
<path d="M9.9760 8.7695
L9.9760 9.0060
" />
<path d="M8.3378 9.4557
L8.7799 9.8979
" />
<path d="M9.0240 7.7977
L8.7886 7.5623
" />
<path d="M8.0792 8.2717
L8.2206 8.4131
" />
<path d="M8.7799 9.8979
L10.2201 9.8979
" />
<path d="M8.2000 9.5935
L8.2000 11.2935
" />
<path d="M9.9760 9.0060
L9.8875 9.0945
" />
<path d="M10.6623 9.4557
L10.7853 9.5788
" />
<path d="M10.7853 11.5085
L12.2053 12.9285
" />
<path d="M10.2201 9.8979
L10.6623 9.4557
" />
<path d="M9.0240 9.0060
L9.0240 7.7977
" />
<path d="M8.0792 7.9391
L8.0792 8.2717
" />
<path d="M12.2053 12.9285
L12.5500 12.9285
" />
<path d="M9.8875 9.0945
L9.1125 9.0945
" />
<path d="M8.7886 7.5623
L8.4560 7.5623
" />
<path d="M8.2206 9.3386
L8.3378 9.4557
" />
<path d="M9.5000 8.2935
L9.9760 8.7695
" />
<path d="M8.4560 7.5623
L8.0792 7.9391
" />
<path d="M8.3378 9.4557
L8.2000 9.5935
" />
<path d="M12.5500 10.3885
L12.5500 11.0235
" />
<path d="M12.5500 11.0235
L19.4700 11.0235
" />
<path d="M23.1985 7.2950
L26.5485 7.2950
" />
<path d="M26.5485 7.2950
L26.5500 7.2935
" />
<path d="M19.4700 11.0235
L22.2000 8.2935
" />
<path d="M22.2000 8.2935
L23.1985 7.2950
" />
<path d="M12.5500 11.0235
L12.5500 11.6585
" />
<path d="M8.2000 19.2935
L8.2000 17.5935
" />
<path d="M11.6207 20.0778
L17.5000 14.1985
" />
<path d="M8.9843 20.0778
L11.6207 20.0778
" />
<path d="M8.2000 17.5935
L9.5000 16.2935
" />
<path d="M8.2000 19.2935
L8.9843 20.0778
" />
<path d="M23.0491 12.7886
L22.2000 12.7886
" />
<path d="M25.7271 13.1164
L23.3769 13.1164
" />
<path d="M22.2000 12.2935
L22.2000 12.7886
" />
<path d="M26.5500 12.2935
L25.7271 13.1164
" />
<path d="M23.3769 13.1164
L23.0491 12.7886
" />
<path d="M17.5000 12.9285
L17.5000 11.6585
" />
<path d="M22.2000 12.7886
L22.0601 12.9285
" />
<path d="M22.0601 12.9285
L17.5000 12.9285
" />
<path d="M23.8500 12.2935
L23.8500 9.9721
" />
<path d="M24.1513 17.9285
L22.6336 16.4108
" />
<path d="M23.8110 9.9721
L23.8500 9.9721
" />
<path d="M22.6336 16.4108
L22.6336 13.7920
" />
<path d="M23.8500 9.9721
L23.8500 8.2935
" />
<path d="M24.5500 17.9285
L24.1513 17.9285
" />
<path d="M27.5500 18.0038
L27.5500 21.2935
" />
<path d="M25.5400 15.9938
L27.5500 18.0038
" />
<path d="M24.5500 15.3885
L24.5500 15.9938
" />
<path d="M24.5500 15.9938
L25.5400 15.9938
" />
<path d="M24.5500 15.9938
L24.5500 16.6585
" />
<path d="M25.2000 25.2935
L25.3726 25.2935
" />
<path d="M25.3726 25.2935
L29.5000 21.1661
" />
<path d="M22.8500 25.1114
L20.9549 23.2163
" />
<path d="M22.8500 25.2935
L22.8500 25.1114
" />
<path d="M18.1522 23.2163
L17.0750 24.2935
" />
<path d="M22.8500 25.2935
L25.2000 25.2935
" />
<path d="M29.5000 21.1661
L29.5000 19.1985
" />
<path d="M20.9549 23.2163
L18.1522 23.2163
" />
<path style="fill:#C83434; fill-opacity:1.0000; stroke:none;fill-rule:evenodd;"
d="M 16.2536,13.8709
16.2759,13.8741
16.2821,13.8801
16.2903,13.8828
16.3036,13.9011
16.3197,13.9169
16.3212,13.9253
16.3262,13.9323
16.3300,13.9772
16.3245,14.0152
16.3245,14.3818
16.3311,14.4272
16.3344,14.4499
16.3751,14.5330
16.3858,14.5550
16.4685,14.6377
16.4685,14.6377
16.4685,14.6377
16.4710,14.6395
16.4730,14.6422
16.4743,14.6435
16.4741,14.6437
16.5074,14.6887
16.5079,14.7499
16.4835,14.7900
11.5252,19.7483
11.4707,19.7761
11.4552,19.7773
10.5383,19.7773
10.4801,19.7584
10.4442,19.7089
10.4406,19.6628
10.4505,19.6000
10.4505,19.6000
10.4505,19.1590
10.4694,19.1008
10.4795,19.0890
10.6256,18.9429
10.6651,18.8744
10.6651,18.8744
10.6651,18.8744
10.6856,18.7980
10.6856,18.7188
10.6856,13.9629
10.7045,13.9047
10.7540,13.8687
10.7846,13.8639
16.2321,13.8639
Z" />
<path style="fill:#C83434; fill-opacity:1.0000; stroke:none;fill-rule:evenodd;"
d="M 25.7337,7.6144
25.7697,7.6639
25.7745,7.6945
25.7745,7.9978
25.7774,8.0282
25.7774,8.0282
25.8222,8.1564
25.9028,8.2656
25.9028,8.2656
25.9028,8.2656
25.9029,8.2657
25.9029,8.2657
26.0121,8.3463
26.0121,8.3463
26.0121,8.3463
26.1403,8.3911
26.1707,8.3940
26.1707,8.3940
26.1707,8.3940
26.9293,8.3940
26.9293,8.3940
26.9597,8.3911
27.0398,8.3631
27.1010,8.3617
27.1513,8.3966
27.1715,8.4543
27.1715,8.4566
27.1715,11.1304
27.1526,11.1886
27.1031,11.2246
27.0419,11.2246
27.0398,11.2239
26.9929,11.2075
26.9597,11.1959
26.9597,11.1959
26.9597,11.1959
26.9293,11.1930
26.9293,11.1930
26.1707,11.1930
26.1707,11.1930
26.1403,11.1959
26.1403,11.1959
26.0121,11.2407
25.9029,11.3213
25.9028,11.3214
25.8222,11.4306
25.7774,11.5588
25.7774,11.5588
25.7745,11.5892
25.7745,12.6030
25.7720,12.6106
25.7733,12.6185
25.7628,12.6392
25.7556,12.6612
25.7455,12.6730
25.6316,12.7869
25.5771,12.8147
25.5616,12.8159
24.5322,12.8159
24.4740,12.7970
24.4381,12.7475
24.4344,12.7014
24.4426,12.6497
24.4505,12.6000
24.4505,11.9870
24.4505,11.9870
24.4505,11.9870
24.4356,11.8932
24.4356,11.8932
24.4356,11.8932
24.3780,11.7802
24.2883,11.6905
24.2536,11.6727
24.2046,11.6478
24.1613,11.6045
24.1505,11.5595
24.1505,10.3814
24.1694,10.3232
24.1795,10.3114
24.2115,10.2794
24.2256,10.2551
24.2774,10.1653
24.2774,10.1653
24.2774,10.1653
24.3115,10.0380
24.3115,9.9062
24.2774,9.7789
24.2774,9.7789
24.2774,9.7789
24.2115,9.6648
24.2115,9.6648
24.2115,9.6648
24.2115,9.6648
24.1795,9.6328
24.1517,9.5783
24.1505,9.5628
24.1505,9.0275
24.1694,8.9693
24.2046,8.9392
24.2883,8.8965
24.3780,8.8068
24.4356,8.6938
24.4505,8.6000
24.4505,7.9870
24.4505,7.9870
24.4505,7.9870
24.4356,7.8932
24.4356,7.8932
24.4356,7.8932
24.3780,7.7802
24.3624,7.7645
24.3346,7.7100
24.3442,7.6496
24.3875,7.6063
24.4324,7.5955
25.6755,7.5955
Z" />
<path style="fill:#C83434; fill-opacity:1.0000; stroke:none;fill-rule:evenodd;"
d="M 23.2088,7.8064
23.2521,7.8496
23.2617,7.9101
23.2495,7.9870
23.2495,8.6000
23.2495,8.6000
23.2644,8.6938
23.2644,8.6938
23.3219,8.8068
23.4117,8.8965
23.4954,8.9392
23.5387,8.9825
23.5495,9.0275
23.5495,9.4880
23.5306,9.5462
23.5080,9.5665
23.5088,9.5676
23.5037,9.5716
23.4105,9.6648
23.3446,9.7789
23.3443,9.7802
23.3105,9.9062
23.3105,10.0380
23.3224,10.0824
23.3446,10.1653
23.4105,10.2794
23.4105,10.2794
23.4105,10.2794
23.5037,10.3726
23.5037,10.3726
23.5037,10.3726
23.5088,10.3766
23.5073,10.3786
23.5409,10.4159
23.5495,10.4562
23.5495,11.5595
23.5306,11.6177
23.4954,11.6478
23.4117,11.6904
23.3219,11.7802
23.2644,11.8932
23.2495,11.9870
23.2495,12.4022
23.2306,12.4604
23.1811,12.4963
23.1249,12.4978
23.0887,12.4881
23.0887,12.4881
22.8995,12.4881
22.8413,12.4692
22.8053,12.4197
22.8005,12.3891
22.8005,11.9870
22.8005,11.9870
22.7856,11.8932
22.7856,11.8932
22.7856,11.8932
22.7280,11.7802
22.6383,11.6905
22.5253,11.6329
22.5253,11.6329
22.4315,11.6180
21.9685,11.6180
21.9685,11.6180
21.8747,11.6329
21.8747,11.6329
21.7617,11.6904
21.6719,11.7802
21.6144,11.8932
21.5995,11.9870
21.5995,11.9870
21.5995,11.9870
21.5995,12.2935
21.5995,12.5290
21.5806,12.5872
21.5311,12.6232
21.5005,12.6280
18.7034,12.6280
18.6452,12.6091
18.6194,12.5784
18.6190,12.5787
18.6151,12.5733
18.6144,12.5725
18.6142,12.5720
18.6142,12.5720
18.5315,12.4893
18.5257,12.4865
18.4264,12.4379
18.3991,12.4340
18.3583,12.4280
18.3583,12.4280
17.8995,12.4280
17.8846,12.4232
17.8689,12.4232
17.8562,12.4139
17.8413,12.4091
17.8321,12.3964
17.8194,12.3872
17.8146,12.3723
17.8053,12.3596
17.8005,12.3290
17.8005,12.2580
17.8194,12.1998
17.8689,12.1638
17.8995,12.1590
18.3583,12.1590
18.3583,12.1590
18.4264,12.1491
18.5315,12.0977
18.6142,12.0150
18.6656,11.9099
18.6755,11.8418
18.6755,11.4752
18.6700,11.4373
18.6803,11.3770
18.7241,11.3342
18.7679,11.3240
19.5096,11.3240
19.5096,11.3240
19.5860,11.3035
19.6545,11.2640
19.7105,11.2080
21.9205,8.9980
21.9750,8.9702
21.9905,8.9690
22.4315,8.9690
22.4315,8.9690
22.4315,8.9690
22.5005,8.9581
22.5253,8.9541
22.5253,8.9541
22.5253,8.9541
22.6383,8.8965
22.7280,8.8068
22.7856,8.6938
22.8005,8.6000
22.8005,8.1590
22.8194,8.1008
22.8295,8.0890
23.0939,7.8246
23.1484,7.7968
Z" />
<path style="fill:#C83434; fill-opacity:1.0000; stroke:none;fill-rule:evenodd;"
d="M 39.4837,0.8129
39.5197,0.8624
39.5245,0.8930
39.5245,29.6940
39.5056,29.7522
39.4561,29.7882
39.4255,29.7930
0.6245,29.7930
0.5663,29.7741
0.5303,29.7246
0.5255,29.6940
0.5255,27.1872
1.6745,27.1872
1.6745,27.3998
1.7078,27.6097
1.7734,27.8119
1.8699,28.0013
1.8700,28.0013
1.9949,28.1733
1.9949,28.1733
1.9949,28.1733
2.1452,28.3236
2.1452,28.3236
2.1452,28.3236
2.3172,28.4485
2.3172,28.4486
2.5066,28.5451
2.7088,28.6107
2.7088,28.6107
2.7088,28.6107
2.9187,28.6440
2.9187,28.6440
3.1313,28.6440
3.3412,28.6107
3.3412,28.6107
3.3412,28.6107
3.5434,28.5451
3.7328,28.4486
3.9048,28.3236
4.0551,28.1733
4.1801,28.0013
4.2766,27.8119
4.3422,27.6097
4.3438,27.6000
4.3755,27.3998
4.3755,27.1872
4.3422,26.9773
4.3422,26.9773
4.2766,26.7751
4.1801,26.5857
4.1800,26.5857
4.0551,26.4137
4.0551,26.4137
4.0551,26.4137
3.9048,26.2634
3.9048,26.2634
3.9048,26.2634
3.7328,26.1384
3.7328,26.1384
3.5434,26.0419
3.3412,25.9763
3.1313,25.9430
3.1313,25.9430
2.9187,25.9430
2.9187,25.9430
2.7088,25.9763
2.5066,26.0419
2.3172,26.1384
2.3172,26.1384
2.1452,26.2634
1.9949,26.4137
1.8700,26.5857
1.8699,26.5857
1.7734,26.7751
1.7078,26.9773
1.6745,27.1872
0.5255,27.1872
0.5255,14.7300
1.9745,14.7300
1.9745,14.9370
2.0149,15.1399
2.0941,15.3311
2.1802,15.4600
2.2090,15.5032
2.3553,15.6495
2.5274,15.7644
2.7186,15.8436
2.9215,15.8840
2.9215,15.8840
3.1285,15.8840
3.1285,15.8840
3.3314,15.8436
3.5226,15.7644
3.6947,15.6495
3.8410,15.5032
3.9559,15.3311
4.0081,15.2052
4.0123,15.1951
4.0520,15.1486
4.1037,15.1340
4.9245,15.1340
4.9827,15.1529
4.9945,15.1630
5.7455,15.9140
5.7733,15.9685
5.7745,15.9840
5.7745,16.9978
5.7774,17.0282
5.7774,17.0282
5.8222,17.1564
5.9028,17.2656
5.9028,17.2656
5.9028,17.2657
5.9029,17.2657
5.9029,17.2657
6.0121,17.3463
6.0121,17.3463
6.0121,17.3463
6.1403,17.3911
6.1707,17.3940
6.1707,17.3940
6.1707,17.3940
6.9293,17.3940
6.9293,17.3940
6.9597,17.3911
7.0879,17.3463
7.1971,17.2657
7.2778,17.1564
7.3226,17.0282
7.3255,16.9978
7.3255,16.9978
7.3255,15.5892
7.3255,15.5892
7.3255,15.5890
7.3226,15.5588
7.2778,15.4306
7.2362,15.3743
7.1972,15.3214
7.1972,15.3214
7.1971,15.3213
7.1971,15.3213
7.1971,15.3213
7.0879,15.2407
6.9597,15.1959
6.9597,15.1959
6.9293,15.1930
6.9293,15.1930
6.1707,15.1930
6.1707,15.1930
6.1403,15.1959
6.1403,15.1959
6.0051,15.2432
6.0040,15.2401
5.9575,15.2481
5.9026,15.2211
5.9016,15.2201
5.5934,14.9119
5.2745,14.5930
5.2745,14.5930
5.2060,14.5535
5.2060,14.5535
5.1296,14.5330
5.1296,14.5330
4.1037,14.5330
4.0455,14.5141
4.0123,14.4719
3.9559,14.3359
3.8410,14.1638
3.8410,14.1638
3.6947,14.0175
3.6912,14.0152
3.5226,13.9026
3.3314,13.8234
3.1285,13.7830
3.1285,13.7830
2.9215,13.7830
2.9215,13.7830
2.7186,13.8234
2.5274,13.9026
2.3553,14.0175
2.2090,14.1638
2.0941,14.3359
2.0149,14.5271
1.9745,14.7300
0.5255,14.7300
0.5255,12.2069
1.9250,12.2069
1.9250,12.3801
1.9521,12.5511
2.0056,12.7157
2.0842,12.8700
2.0842,12.8700
2.1482,12.9581
2.5813,12.5250
2.6249,12.6005
2.7180,12.6936
2.7935,12.7372
2.3604,13.1703
2.4485,13.2343
2.6028,13.3129
2.7674,13.3664
2.9384,13.3935
3.1116,13.3935
3.2826,13.3664
3.4472,13.3129
3.6015,13.2343
3.6015,13.2343
3.6896,13.1703
3.6896,13.1703
3.2565,12.7372
3.3320,12.6936
3.4251,12.6005
3.4687,12.5250
3.9018,12.9581
3.9018,12.9581
3.9658,12.8700
3.9658,12.8700
4.0444,12.7157
4.0979,12.5511
4.1250,12.3801
4.1250,12.2069
4.0979,12.0359
4.0444,11.8713
3.9658,11.7170
3.9018,11.6289
3.4687,12.0620
3.4251,11.9865
3.3320,11.8934
3.2565,11.8498
3.6896,11.4167
3.6015,11.3527
3.6015,11.3527
3.4472,11.2741
3.2826,11.2206
3.1116,11.1935
2.9384,11.1935
2.7674,11.2206
2.6028,11.2741
2.4485,11.3527
2.3604,11.4167
2.7935,11.8498
2.7180,11.8934
2.6249,11.9865
2.5813,12.0620
2.1482,11.6289
2.0842,11.7170
2.0056,11.8713
1.9521,12.0359
1.9250,12.2069
0.5255,12.2069
0.5255,10.9870
7.5995,10.9870
7.5995,11.6000
7.5995,11.6000
7.6144,11.6938
7.6144,11.6938
7.6719,11.8068
7.7617,11.8965
7.8747,11.9541
7.9685,11.9690
8.4315,11.9690
8.4315,11.9690
8.4315,11.9690
8.4784,11.9616
8.5253,11.9541
8.5253,11.9541
8.5253,11.9541
8.6383,11.8965
8.7280,11.8068
8.7856,11.6938
8.8005,11.6000
8.8005,10.9870
8.7938,10.9447
8.7856,10.8932
8.7856,10.8932
8.7856,10.8932
8.7280,10.7802
8.6383,10.6905
8.6212,10.6817
8.5546,10.6478
8.5113,10.6045
8.5005,10.5595
8.5005,10.2551
8.5038,10.2450
8.5027,10.2345
8.5130,10.2165
8.5194,10.1969
8.5280,10.1906
8.5333,10.1815
8.5522,10.1731
8.5689,10.1609
8.5795,10.1609
8.5892,10.1566
8.6094,10.1609
8.6301,10.1609
8.6490,10.1693
8.6555,10.1731
8.6628,10.1773
8.6638,10.1779
8.6639,10.1779
8.6639,10.1779
8.6639,10.1779
8.6639,10.1779
8.6639,10.1779
8.6639,10.1779
8.6641,10.1780
8.6652,10.1783
8.6972,10.1868
8.6973,10.1869
8.6973,10.1869
8.7403,10.1984
8.7403,10.1984
8.7403,10.1984
8.7755,10.1984
8.8194,10.1984
8.8194,10.1984
8.8257,10.1984
8.8258,10.1984
10.2597,10.1984
10.2597,10.1984
10.3361,10.1779
10.3363,10.1778
10.3365,10.1778
10.3421,10.1754
10.3425,10.1765
10.3961,10.1651
10.4520,10.1900
10.4826,10.2430
10.4848,10.2635
10.4848,10.6479
10.4659,10.7061
10.4164,10.7421
10.3552,10.7421
10.3158,10.7179
10.2883,10.6905
10.1753,10.6329
10.1753,10.6329
10.0815,10.6180
9.6185,10.6180
9.6185,10.6180
9.5247,10.6329
9.5247,10.6329
9.4117,10.6904
9.3219,10.7802
9.2644,10.8932
9.2495,10.9870
9.2495,11.6000
9.2495,11.6000
9.2644,11.6938
9.2644,11.6938
9.3219,11.8068
9.4117,11.8965
9.5247,11.9541
9.6185,11.9690
9.9856,11.9690
10.0438,11.9879
10.0798,12.0374
10.0846,12.0680
10.0846,15.1175
10.0657,15.1757
10.0162,15.2117
9.9550,15.2117
9.9529,15.2110
9.9097,15.1959
9.9097,15.1959
9.8793,15.1930
9.8793,15.1930
9.1207,15.1930
9.1207,15.1930
9.0903,15.1959
9.0903,15.1959
8.9621,15.2407
8.8529,15.3213
8.8528,15.3214
8.7722,15.4306
8.7274,15.5588
8.7274,15.5588
8.7245,15.5892
8.7245,16.6030
8.7056,16.6612
8.6955,16.6730
8.0155,17.3530
8.0155,17.3530
7.9595,17.4090
7.9200,17.4775
7.9200,17.4775
7.8995,17.5539
7.8995,18.5595
7.8806,18.6177
7.8454,18.6478
7.7617,18.6904
7.6719,18.7802
7.6144,18.8932
7.5995,18.9870
7.5995,19.6000
7.5995,19.6000
7.6144,19.6938
7.6144,19.6938
7.6719,19.8068
7.7617,19.8965
7.8747,19.9541
7.9685,19.9690
8.4095,19.9690
8.4677,19.9879
8.4795,19.9980
8.7998,20.3183
8.7998,20.3183
8.8683,20.3578
8.8683,20.3578
8.8683,20.3578
8.8683,20.3578
8.9447,20.3783
8.9447,20.3783
11.6603,20.3783
11.6603,20.3783
11.7367,20.3578
11.8052,20.3183
11.8612,20.2623
17.3955,14.7280
17.4500,14.7002
17.4655,14.6990
18.3583,14.6990
18.3583,14.6990
18.4264,14.6891
18.5315,14.6377
18.6142,14.5550
18.6656,14.4499
18.6755,14.3818
18.6755,14.0152
18.6700,13.9772
18.6803,13.9169
18.7241,13.8741
18.7679,13.8639
22.0575,13.8639
22.0575,13.8668
22.1059,13.8757
22.1480,13.9201
22.1543,13.9371
22.1672,13.9852
22.2331,14.0993
22.2331,14.0993
22.2331,14.0993
22.3041,14.1703
22.3319,14.2248
22.3331,14.2403
22.3331,16.4504
22.3536,16.5268
22.3536,16.5268
22.3764,16.5663
22.3931,16.5953
22.8912,17.0934
23.3642,17.5663
23.3919,17.6209
23.3847,17.6691
23.3867,17.6698
23.3844,17.6771
23.3844,17.6771
23.3844,17.6771
23.3745,17.7452
23.3745,18.1118
23.3769,18.1283
23.3844,18.1799
23.4358,18.2850
23.4358,18.2850
23.5185,18.3677
23.5723,18.3940
23.6236,18.4191
23.6236,18.4191
23.6236,18.4191
23.6917,18.4290
23.6917,18.4290
25.4083,18.4290
25.4083,18.4290
25.4764,18.4191
25.5815,18.3677
25.6642,18.2850
25.7156,18.1799
25.7255,18.1118
25.7255,17.7452
25.7156,17.6771
25.7156,17.6771
25.6642,17.5720
25.6642,17.5720
25.5815,17.4893
25.5574,17.4775
25.4764,17.4379
25.4484,17.4338
25.4083,17.4280
25.4083,17.4280
24.1168,17.4280
24.1092,17.4255
24.1013,17.4268
24.0806,17.4163
24.0586,17.4091
24.0468,17.3990
23.9758,17.3280
23.9480,17.2735
23.9576,17.2131
24.0008,17.1698
24.0458,17.1590
25.4083,17.1590
25.4083,17.1590
25.4764,17.1491
25.5815,17.0977
25.6642,17.0150
25.7156,16.9099
25.7255,16.8418
25.7255,16.8418
25.7258,16.8382
25.7271,16.8383
25.7444,16.7851
25.7939,16.7491
25.8551,16.7491
25.8945,16.7733
27.2205,18.0993
27.2483,18.1538
27.2495,18.1693
27.2495,20.0955
27.2306,20.1537
27.1811,20.1896
27.1597,20.1940
27.1403,20.1959
27.1403,20.1959
27.0121,20.2407
26.9029,20.3213
26.9028,20.3214
26.8222,20.4306
26.7774,20.5588
26.7774,20.5588
26.7745,20.5892
26.7745,21.9978
26.7774,22.0282
26.7774,22.0282
26.8222,22.1564
26.9028,22.2656
26.9028,22.2656
26.9028,22.2656
26.9029,22.2657
26.9029,22.2657
27.0121,22.3463
27.0121,22.3463
27.0121,22.3463
27.1403,22.3911
27.1707,22.3940
27.1707,22.3940
27.1707,22.3940
27.6081,22.3940
27.6663,22.4129
27.7023,22.4624
27.7023,22.5236
27.6781,22.5630
25.6308,24.6103
25.5763,24.6381
25.5302,24.6345
25.5253,24.6329
25.4315,24.6180
24.9685,24.6180
24.9685,24.6180
24.8747,24.6329
24.8747,24.6329
24.7617,24.6904
24.6719,24.7802
24.6144,24.8932
24.6118,24.9095
24.5840,24.9640
24.5295,24.9918
24.5140,24.9930
23.5360,24.9930
23.4778,24.9741
23.4419,24.9246
23.4382,24.9095
23.4356,24.8932
23.4356,24.8932
23.4356,24.8932
23.3780,24.7802
23.2883,24.6904
23.1753,24.6329
23.1753,24.6329
23.0815,24.6180
23.0815,24.6180
22.8226,24.6180
22.7644,24.5991
22.7526,24.5890
21.9771,23.8135
21.1394,22.9758
21.1394,22.9758
21.0709,22.9363
21.0709,22.9363
20.9945,22.9158
20.9945,22.9158
18.1126,22.9158
18.1126,22.9158
18.0362,22.9363
18.0362,22.9363
17.9677,22.9758
17.5744,23.3691
17.5199,23.3969
17.4717,23.3926
17.4097,23.3709
17.4097,23.3709
17.4097,23.3709
17.3793,23.3680
17.3793,23.3680
16.7707,23.3680
16.7707,23.3680
16.7403,23.3709
16.7403,23.3709
16.6121,23.4157
16.5029,23.4963
16.5028,23.4964
16.4222,23.6056
16.3774,23.7338
16.3774,23.7338
16.3745,23.7642
16.3745,24.8228
16.3774,24.8532
16.3774,24.8532
16.4222,24.9814
16.5028,25.0906
16.5028,25.0906
16.5028,25.0907
16.5029,25.0907
16.5029,25.0907
16.6121,25.1713
16.6121,25.1713
16.6121,25.1713
16.7403,25.2161
16.7707,25.2190
16.7707,25.2190
16.7707,25.2190
17.3793,25.2190
17.3793,25.2190
17.4097,25.2161
17.5379,25.1713
17.6471,25.0907
17.7278,24.9814
17.7726,24.8532
17.7755,24.8228
17.7755,24.8228
17.7755,24.0590
17.7944,24.0008
17.8045,23.9890
18.2477,23.5458
18.3022,23.5180
18.3177,23.5168
20.7894,23.5168
20.7970,23.5193
20.8049,23.5180
20.8256,23.5285
20.8476,23.5357
20.8594,23.5458
20.9141,23.6005
20.9419,23.6550
20.9323,23.7154
20.8936,23.7562
20.7944,23.8135
20.7012,23.9067
20.6353,24.0208
20.6353,24.0208
20.6012,24.1481
20.6012,24.2799
20.6030,24.2867
20.6353,24.4072
20.7012,24.5213
20.7012,24.5213
20.7012,24.5213
20.7460,24.5661
20.7738,24.6206
20.7642,24.6811
20.7460,24.7061
20.6719,24.7802
20.6719,24.7802
20.6144,24.8932
20.5995,24.9870
20.5995,25.6000
20.5995,25.6000
20.6144,25.6938
20.6144,25.6938
20.6719,25.8068
20.7617,25.8965
20.8747,25.9541
20.9685,25.9690
21.4315,25.9690
21.4315,25.9690
21.4315,25.9690
21.4784,25.9616
21.5253,25.9541
21.5253,25.9541
21.5253,25.9541
21.6383,25.8965
21.7280,25.8068
21.7856,25.6938
21.8005,25.6000
21.8005,24.9870
21.7935,24.9429
21.7856,24.8932
21.7856,24.8932
21.7856,24.8932
21.7280,24.7802
21.6383,24.6904
21.5803,24.6609
21.5506,24.6458
21.5074,24.6025
21.4978,24.5421
21.5099,24.5081
21.5595,24.4221
21.6050,24.3812
21.6658,24.3748
21.7152,24.4016
22.2210,24.9073
22.2487,24.9618
22.2496,24.9851
22.2495,24.9870
22.2495,25.6000
22.2495,25.6000
22.2644,25.6938
22.2644,25.6938
22.3219,25.8068
22.4117,25.8965
22.5247,25.9541
22.6185,25.9690
23.0815,25.9690
23.0815,25.9690
23.0815,25.9690
23.1284,25.9616
23.1753,25.9541
23.1753,25.9541
23.1753,25.9541
23.2883,25.8965
23.3780,25.8068
23.4356,25.6938
23.4382,25.6775
23.4660,25.6230
23.5205,25.5952
23.5360,25.5940
24.5140,25.5940
24.5722,25.6129
24.6081,25.6624
24.6118,25.6775
24.6144,25.6938
24.6144,25.6938
24.6719,25.8068
24.7617,25.8965
24.8747,25.9541
24.9685,25.9690
25.4315,25.9690
25.4315,25.9690
25.4315,25.9690
25.4784,25.9616
25.5253,25.9541
25.5253,25.9541
25.5253,25.9541
25.6383,25.8965
25.7280,25.8068
25.7856,25.6938
25.8005,25.6000
25.8005,25.3316
25.8194,25.2734
25.8295,25.2616
29.5555,21.5356
29.6100,21.5078
29.6704,21.5174
29.7137,21.5606
29.7245,21.6056
29.7245,21.9978
29.7274,22.0282
29.7274,22.0282
29.7722,22.1564
29.8528,22.2656
29.8528,22.2656
29.8529,22.2656
29.8529,22.2657
29.8529,22.2657
29.9621,22.3463
29.9621,22.3463
29.9621,22.3463
30.0873,22.3901
30.1360,22.4272
30.1536,22.4835
30.1536,24.2872
30.1741,24.3636
30.1741,24.3636
30.1770,24.3686
30.1770,24.3686
30.1862,24.3846
30.1995,24.4341
30.1995,24.8280
30.1806,24.8862
30.1705,24.8980
28.4795,26.5890
28.4250,26.6168
28.4095,26.6180
27.9685,26.6180
27.9685,26.6180
27.8747,26.6329
27.8747,26.6329
27.7617,26.6904
27.6719,26.7802
27.6144,26.8932
27.5995,26.9870
27.5995,27.6000
27.5995,27.6000
27.6144,27.6938
27.6144,27.6938
27.6719,27.8068
27.7617,27.8965
27.8747,27.9541
27.9685,27.9690
28.4315,27.9690
28.4315,27.9690
28.4315,27.9690
28.4784,27.9616
28.5253,27.9541
28.5253,27.9541
28.5253,27.9541
28.6383,27.8965
28.7280,27.8068
28.7856,27.6938
28.8005,27.6000
28.8005,27.1590
28.8194,27.1008
28.8295,27.0890
30.7405,25.1780
30.7465,25.1676
30.7534,25.1556
30.7800,25.1095
30.7800,25.1095
30.8005,25.0331
30.8005,24.6930
30.8194,24.6348
30.8689,24.5988
30.8995,24.5940
31.5140,24.5940
31.5722,24.6129
31.6081,24.6624
31.6118,24.6775
31.6144,24.6938
31.6144,24.6938
31.6719,24.8068
31.7617,24.8965
31.8747,24.9541
31.9685,24.9690
32.4315,24.9690
32.4315,24.9690
32.4315,24.9690
32.4784,24.9616
32.5253,24.9541
32.5253,24.9541
32.5253,24.9541
32.6383,24.8965
32.7280,24.8068
32.7856,24.6938
32.8005,24.6000
32.8005,23.9870
32.8005,23.9870
33.2495,23.9870
33.2495,24.6000
33.2495,24.6000
33.2644,24.6938
33.2644,24.6938
33.3220,24.8068
33.4117,24.8965
33.5247,24.9541
33.6185,24.9690
34.0815,24.9690
34.0815,24.9690
34.0815,24.9690
34.1284,24.9616
34.1753,24.9541
34.1753,24.9541
34.1753,24.9541
34.2883,24.8965
34.3781,24.8068
34.4356,24.6938
34.4505,24.6000
34.4505,24.1590
34.4694,24.1008
34.4795,24.0890
36.2655,22.3030
36.2870,22.2656
36.3050,22.2345
36.3255,22.1581
36.3255,19.1822
36.3444,19.1240
36.3866,19.0908
36.5226,19.0344
36.6947,18.9195
36.8410,18.7732
36.9559,18.6011
37.0351,18.4099
37.0755,18.2070
37.0755,18.0000
37.0351,17.7971
36.9559,17.6059
36.8410,17.4338
36.6947,17.2875
36.6782,17.2765
36.5226,17.1726
36.3314,17.0934
36.1285,17.0530
36.1285,17.0530
35.9215,17.0530
35.9215,17.0530
35.7186,17.0934
35.5274,17.1726
35.3553,17.2875
35.2090,17.4338
35.0941,17.6059
35.0149,17.7971
34.9745,18.0000
34.9745,18.2070
35.0149,18.4099
35.0941,18.6011
35.2090,18.7732
35.2090,18.7732
35.3553,18.9195
35.5274,19.0344
35.6634,19.0908
35.7099,19.1305
35.7245,19.1822
35.7245,21.9530
35.7056,22.0112
35.6955,22.0230
34.1295,23.5890
34.0750,23.6168
34.0595,23.6180
33.6185,23.6180
33.6185,23.6180
33.5247,23.6329
33.5247,23.6329
33.4117,23.6904
33.3219,23.7802
33.2644,23.8932
33.2495,23.9870
32.8005,23.9870
32.8005,23.9870
32.7856,23.8932
32.7856,23.8932
32.7856,23.8932
32.7280,23.7802
32.6383,23.6904
32.5253,23.6329
32.5253,23.6329
32.4315,23.6180
31.9685,23.6180
31.9685,23.6180
31.8747,23.6329
31.8747,23.6329
31.7617,23.6904
31.6719,23.7802
31.6144,23.8932
31.6118,23.9095
31.5840,23.9640
31.5295,23.9918
31.5140,23.9930
30.8536,23.9930
30.7954,23.9741
30.7594,23.9246
30.7546,23.8940
30.7546,23.7605
30.7735,23.7023
30.8230,23.6663
30.8792,23.6648
30.9899,23.6945
30.9899,23.6945
31.1217,23.6945
31.1217,23.6945
31.2490,23.6604
31.2490,23.6604
31.2490,23.6604
31.3631,23.5945
31.3631,23.5945
31.3631,23.5945
31.4563,23.5013
31.4592,23.4963
31.5222,23.3872
31.5222,23.3872
31.5222,23.3872
31.5563,23.2599
31.5563,23.1595
31.5752,23.1013
31.5853,23.0895
31.6781,22.9967
31.7176,22.9282
31.7176,22.9282
31.7176,22.9282
31.7381,22.8518
31.7381,22.7726
31.7381,22.0460
31.7570,21.9878
31.8065,21.9519
31.8677,21.9519
31.8747,21.9541
31.8747,21.9541
31.9685,21.9690
32.4315,21.9690
32.4315,21.9690
32.4315,21.9690
32.4784,21.9616
32.5253,21.9541
32.5253,21.9541
32.5253,21.9541
32.6383,21.8965
32.7280,21.8068
32.7856,21.6938
32.8005,21.6000
32.8005,21.1144
32.8039,21.0888
32.8050,21.0845
32.8050,21.0845
32.8255,21.0081
32.8255,13.5789
32.8050,13.5025
32.7655,13.4340
32.7484,13.4169
32.7095,13.3780
32.7095,13.3780
32.4561,13.1246
32.4283,13.0701
32.4379,13.0097
32.4811,12.9664
32.5416,12.9568
32.6185,12.9690
32.9645,12.9690
33.0227,12.9879
33.0345,12.9980
35.0497,15.0132
35.0775,15.0677
35.0712,15.1211
35.0149,15.2571
35.0149,15.2571
34.9745,15.4600
34.9745,15.6670
35.0149,15.8699
35.0941,16.0611
35.2090,16.2332
35.2090,16.2332
35.3553,16.3795
35.5274,16.4944
35.7186,16.5736
35.9215,16.6140
35.9215,16.6140
36.1285,16.6140
36.1285,16.6140
36.3314,16.5736
36.5226,16.4944
36.6947,16.3795
36.8410,16.2332
36.9559,16.0611
37.0351,15.8699
37.0755,15.6670
37.0755,15.4600
37.0351,15.2571
36.9559,15.0659
36.8410,14.8938
36.6947,14.7475
36.6947,14.7475
36.5226,14.6326
36.3314,14.5534
36.1285,14.5130
36.1285,14.5130
35.9215,14.5130
35.9215,14.5130
35.7186,14.5534
35.7186,14.5534
35.5826,14.6097
35.5216,14.6145
35.4747,14.5882
33.8234,12.9369
34.9250,12.9369
34.9250,13.1101
34.9521,13.2811
35.0056,13.4457
35.0842,13.6000
35.0842,13.6000
35.1482,13.6881
35.5813,13.2550
35.6249,13.3305
35.7180,13.4236
35.7935,13.4672
35.3604,13.9003
35.4485,13.9643
35.6028,14.0429
35.7674,14.0964
35.9384,14.1235
36.1116,14.1235
36.2826,14.0964
36.4472,14.0429
36.6015,13.9643
36.6015,13.9643
36.6896,13.9003
36.6896,13.9003
36.2565,13.4672
36.3320,13.4236
36.4251,13.3305
36.4687,13.2550
36.9018,13.6881
36.9018,13.6881
36.9658,13.6000
36.9658,13.6000
37.0444,13.4457
37.0979,13.2811
37.1250,13.1101
37.1250,12.9369
37.0979,12.7659
37.0444,12.6013
36.9658,12.4470
36.9018,12.3589
36.4687,12.7920
36.4251,12.7165
36.3320,12.6234
36.2565,12.5798
36.6896,12.1467
36.6015,12.0827
36.6015,12.0827
36.4472,12.0041
36.2826,11.9506
36.1116,11.9235
35.9384,11.9235
35.7674,11.9506
35.6028,12.0041
35.4485,12.0827
35.3604,12.1467
35.7935,12.5798
35.7180,12.6234
35.6249,12.7165
35.5813,12.7920
35.1482,12.3589
35.0842,12.4470
35.0056,12.6013
34.9521,12.7659
34.9250,12.9369
33.8234,12.9369
33.4795,12.5930
33.4517,12.5385
33.4505,12.5230
33.4505,11.9870
33.4505,11.9870
33.4356,11.8932
33.4356,11.8932
33.4356,11.8932
33.3781,11.7802
33.2883,11.6905
33.1753,11.6329
33.1753,11.6329
33.0815,11.6180
32.6185,11.6180
32.6185,11.6180
32.5247,11.6329
32.5247,11.6329
32.4117,11.6904
32.3219,11.7802
32.2644,11.8932
32.2495,11.9870
32.2495,12.6000
32.2617,12.6769
32.2521,12.7374
32.2088,12.7806
32.1484,12.7902
32.0939,12.7624
31.8295,12.4980
31.8017,12.4435
31.8005,12.4280
31.8005,11.9870
31.8005,11.9870
31.7856,11.8932
31.7856,11.8932
31.7856,11.8932
31.7280,11.7802
31.6383,11.6905
31.5253,11.6329
31.5253,11.6329
31.4315,11.6180
30.9685,11.6180
30.9685,11.6180
30.8747,11.6329
30.8747,11.6329
30.7617,11.6904
30.6719,11.7802
30.6144,11.8932
30.6118,11.9095
30.6081,11.9166
30.6081,11.9246
30.5945,11.9434
30.5840,11.9640
30.5769,11.9676
30.5722,11.9741
30.5501,11.9813
30.5295,11.9918
30.5140,11.9930
30.3745,11.9930
30.3163,11.9741
30.2803,11.9246
30.2755,11.8940
30.2755,11.5892
30.2755,11.5892
30.2726,11.5588
30.2726,11.5588
30.2278,11.4306
30.2175,11.4167
30.1472,11.3214
30.1472,11.3214
30.1471,11.3213
30.1471,11.3213
30.1471,11.3213
30.0379,11.2407
29.9097,11.1959
29.9097,11.1959
29.8793,11.1930
29.8793,11.1930
29.1207,11.1930
29.1207,11.1930
29.0903,11.1959
29.0903,11.1959
28.9621,11.2407
28.8529,11.3213
28.8528,11.3214
28.7722,11.4306
28.7274,11.5588
28.7274,11.5588
28.7245,11.5892
28.7245,12.9978
28.7274,13.0282
28.7274,13.0282
28.7722,13.1564
28.8528,13.2656
28.8528,13.2656
28.8529,13.2656
28.8529,13.2657
28.8529,13.2657
28.9621,13.3463
28.9621,13.3463
28.9621,13.3463
29.0903,13.3911
29.1207,13.3940
29.1207,13.3940
29.1207,13.3940
29.8793,13.3940
29.8793,13.3940
29.9097,13.3911
30.0379,13.3463
30.1471,13.2656
30.2278,13.1564
30.2726,13.0282
30.2755,12.9978
30.2755,12.9978
30.2755,12.6930
30.2803,12.6781
30.2803,12.6624
30.2896,12.6497
30.2944,12.6348
30.3071,12.6256
30.3163,12.6129
30.3312,12.6081
30.3439,12.5988
30.3745,12.5940
30.5140,12.5940
30.5722,12.6129
30.6081,12.6624
30.6118,12.6775
30.6144,12.6938
30.6144,12.6938
30.6719,12.8068
30.7617,12.8965
30.8747,12.9541
30.9685,12.9690
31.4095,12.9690
31.4677,12.9879
31.4795,12.9980
32.1955,13.7140
32.2233,13.7685
32.2245,13.7840
32.2245,15.5363
32.2056,15.5945
32.1561,15.6305
32.1100,15.6341
32.1081,15.6338
32.0871,15.6305
32.0085,15.6180
32.0085,15.6180
31.5405,15.6180
31.4823,15.5991
31.4705,15.5890
31.0295,15.1480
30.9610,15.1085
30.9610,15.1085
30.8846,15.0880
30.8846,15.0880
30.7034,15.0880
30.6452,15.0691
30.6194,15.0384
30.6190,15.0387
30.6151,15.0333
30.6144,15.0325
30.6142,15.0320
30.6142,15.0320
30.5315,14.9493
30.5278,14.9475
30.4264,14.8979
30.3984,14.8938
30.3583,14.8880
30.3583,14.8880
29.4655,14.8880
29.4073,14.8691
29.3955,14.8590
27.8015,13.2650
27.7737,13.2105
27.7725,13.1950
27.7725,11.0539
27.7914,10.9957
27.8409,10.9597
27.8870,10.9561
27.9685,10.9690
28.4315,10.9690
28.4315,10.9690
28.4315,10.9690
28.4901,10.9597
28.5253,10.9541
28.5253,10.9541
28.5253,10.9541
28.6383,10.8965
28.7280,10.8068
28.7856,10.6938
28.8005,10.6000
28.8005,9.9870
28.7945,9.9493
28.7856,9.8932
28.7856,9.8932
28.7856,9.8932
28.7280,9.7802
28.6383,9.6905
28.6275,9.6849
28.5546,9.6478
28.5113,9.6045
28.5005,9.5595
28.5005,8.7590
28.5194,8.7008
28.5295,8.6890
28.8516,8.3669
28.9061,8.3391
28.9541,8.3467
28.9551,8.3438
28.9814,8.3530
29.0903,8.3911
29.1207,8.3940
29.1207,8.3940
29.1207,8.3940
29.8793,8.3940
29.8793,8.3940
29.9097,8.3911
30.0379,8.3463
30.1471,8.2656
30.2278,8.1564
30.2726,8.0282
30.2755,7.9978
30.2755,7.9978
30.2755,7.6930
30.2803,7.6781
30.2803,7.6624
30.2896,7.6497
30.2944,7.6348
30.3071,7.6256
30.3163,7.6129
30.3312,7.6081
30.3439,7.5988
30.3745,7.5940
30.5140,7.5940
30.5722,7.6129
30.6081,7.6624
30.6118,7.6775
30.6144,7.6938
30.6144,7.6938
30.6719,7.8068
30.7617,7.8965
30.8747,7.9541
30.9685,7.9690
31.4315,7.9690
31.4315,7.9690
31.4315,7.9690
31.4784,7.9616
31.5253,7.9541
31.5253,7.9541
31.5253,7.9541
31.6383,7.8965
31.7280,7.8068
31.7856,7.6938
31.8005,7.6000
31.8005,6.9870
31.8005,6.9870
31.8005,6.9870
32.2495,6.9870
32.2495,7.6000
32.2495,7.6000
32.2644,7.6938
32.2644,7.6938
32.3220,7.8068
32.4117,7.8965
32.5247,7.9541
32.6185,7.9690
33.0595,7.9690
33.1177,7.9879
33.1295,7.9980
34.7038,9.5723
34.7038,9.5723
34.7038,9.5723
34.7038,9.5723
34.7723,9.6118
34.7723,9.6118
34.7723,9.6118
34.7723,9.6118
34.8487,9.6323
34.8755,9.6323
34.9337,9.6512
34.9697,9.7007
34.9745,9.7313
34.9745,11.3532
34.9745,11.3533
34.9861,11.4117
34.9861,11.4117
34.9988,11.4306
35.0304,11.4781
35.0968,11.5224
35.1412,11.5312
35.1552,11.5340
35.1552,11.5340
35.1553,11.5340
35.1553,11.5340
36.8947,11.5340
36.8947,11.5340
36.9532,11.5224
37.0196,11.4781
37.0639,11.4117
37.0755,11.3532
37.0755,9.6138
37.0639,9.5553
37.0196,9.4889
37.0181,9.4880
36.9532,9.4446
36.9532,9.4446
36.9532,9.4446
36.9532,9.4446
36.8948,9.4330
36.8947,9.4330
36.8947,9.4330
36.4245,9.4330
36.3663,9.4141
36.3303,9.3646
36.3255,9.3340
36.3255,9.2922
36.3255,9.2922
36.3242,9.2873
36.3050,9.2158
36.3047,9.2153
36.2760,9.1655
36.2655,9.1473
36.2095,9.0913
36.2095,9.0913
36.1410,9.0518
36.1410,9.0518
36.0646,9.0313
36.0646,9.0313
35.0538,9.0313
34.9956,9.0124
34.9838,9.0023
33.4795,7.4980
33.4517,7.4435
33.4505,7.4280
33.4505,6.9870
33.4505,6.9870
33.4356,6.8932
33.4356,6.8932
33.4356,6.8932
33.3781,6.7802
33.2883,6.6904
33.1753,6.6329
33.1753,6.6329
33.0815,6.6180
32.6185,6.6180
32.6185,6.6180
32.5247,6.6329
32.5247,6.6329
32.4117,6.6904
32.3219,6.7802
32.2644,6.8932
32.2495,6.9870
31.8005,6.9870
31.8005,6.9870
31.7856,6.8932
31.7856,6.8932
31.7856,6.8932
31.7280,6.7802
31.6383,6.6904
31.5253,6.6329
31.5253,6.6329
31.4315,6.6180
30.9685,6.6180
30.9685,6.6180
30.8747,6.6329
30.8747,6.6329
30.7617,6.6904
30.6719,6.7802
30.6144,6.8932
30.6118,6.9095
30.6081,6.9166
30.6081,6.9246
30.5945,6.9434
30.5840,6.9640
30.5769,6.9676
30.5722,6.9741
30.5501,6.9813
30.5295,6.9918
30.5140,6.9930
30.3745,6.9930
30.3163,6.9741
30.2803,6.9246
30.2755,6.8940
30.2755,6.5892
30.2755,6.5892
30.2726,6.5588
30.2726,6.5588
30.2278,6.4306
30.1988,6.3913
30.1472,6.3214
30.1472,6.3214
30.1471,6.3213
30.1471,6.3213
30.1471,6.3213
30.0379,6.2407
29.9097,6.1959
29.9097,6.1959
29.8793,6.1930
29.8793,6.1930
29.1207,6.1930
29.1207,6.1930
29.0903,6.1959
29.0903,6.1959
28.9621,6.2407
28.8529,6.3213
28.8528,6.3214
28.7722,6.4306
28.7274,6.5588
28.7274,6.5588
28.7245,6.5892
28.7245,7.6030
28.7056,7.6612
28.6955,7.6730
28.0155,8.3530
28.0155,8.3530
27.9595,8.4090
27.9595,8.4090
27.9595,8.4090
27.9572,8.4130
27.9118,8.4539
27.8509,8.4603
27.7979,8.4297
27.7730,8.3738
27.7725,8.3635
27.7725,6.3564
27.7725,6.3564
27.7520,6.2800
27.7520,6.2800
27.7125,6.2115
27.6565,6.1555
27.3223,5.8213
27.2538,5.7818
27.2538,5.7818
27.1774,5.7613
27.1774,5.7613
24.5555,5.7613
24.4763,5.7613
24.4296,5.7738
24.3999,5.7818
24.3314,5.8213
23.5889,6.5638
23.5344,6.5916
23.5189,6.5928
22.7844,6.5928
22.7262,6.5739
22.6903,6.5244
22.6903,6.4861
22.6861,6.4858
22.6896,6.4403
22.2565,6.0072
22.3320,5.9636
22.4251,5.8705
22.4687,5.7950
22.9018,6.2281
22.9018,6.2281
22.9658,6.1400
22.9658,6.1400
23.0444,5.9857
23.0979,5.8211
23.1250,5.6501
23.1250,5.4769
23.0979,5.3059
23.0444,5.1413
22.9658,4.9870
22.9018,4.8989
22.4687,5.3320
22.4251,5.2565
22.3320,5.1634
22.2565,5.1198
22.6896,4.6867
22.6015,4.6227
22.6015,4.6227
22.4472,4.5441
22.2826,4.4906
22.1116,4.4635
21.9384,4.4635
21.7674,4.4906
21.6028,4.5441
21.4485,4.6227
21.3604,4.6867
21.7935,5.1198
21.7180,5.1634
21.6249,5.2565
21.5813,5.3320
21.1482,4.8989
21.0842,4.9870
21.0056,5.1413
20.9521,5.3059
20.9250,5.4769
20.9250,5.6501
20.9521,5.8211
21.0056,5.9857
21.0842,6.1400
21.0842,6.1400
21.1482,6.2281
21.5813,5.7950
21.6249,5.8705
21.7180,5.9636
21.7935,6.0072
21.3604,6.4403
21.3639,6.4858
21.3597,6.4861
21.3597,6.5244
21.3238,6.5739
21.2656,6.5928
20.9556,6.5928
20.8792,6.6133
20.8792,6.6133
20.8107,6.6528
17.7195,9.7440
17.6650,9.7718
17.6046,9.7622
17.5613,9.7190
17.5505,9.6740
17.5505,5.0432
17.5694,4.9851
17.6046,4.9550
17.6081,4.9532
17.6081,4.9532
17.7282,4.8920
17.8235,4.7967
17.8847,4.6766
17.9005,4.5770
17.9005,4.0100
17.8847,3.9104
17.8847,3.9104
17.8847,3.9104
17.8235,3.7903
17.8235,3.7903
17.7282,3.6950
17.7282,3.6950
17.6081,3.6338
17.6081,3.6338
17.6081,3.6338
17.5749,3.6285
17.5085,3.6180
17.5085,3.6180
16.9915,3.6180
16.9915,3.6180
16.8919,3.6338
16.8919,3.6338
16.7718,3.6950
16.6765,3.7903
16.6153,3.9104
16.6153,3.9104
16.5995,4.0100
16.5995,4.5770
16.6153,4.6766
16.6153,4.6766
16.6311,4.7077
16.6765,4.7967
16.7718,4.8920
16.7718,4.8920
16.8255,4.9194
16.8687,4.9627
16.8783,5.0231
16.8505,5.0776
16.7960,5.1054
16.7805,5.1066
14.3019,5.1066
14.2437,5.0877
14.2319,5.0776
13.8045,4.6502
13.7767,4.5957
13.7755,4.5802
13.7755,3.7642
13.7755,3.7642
13.7726,3.7338
13.7726,3.7338
13.7278,3.6056
13.7007,3.5688
13.6472,3.4964
13.6472,3.4964
13.6471,3.4963
13.6471,3.4963
13.6438,3.4930
13.6160,3.4385
13.6256,3.3781
13.6689,3.3348
13.7138,3.3240
20.8755,3.3240
20.9337,3.3429
20.9697,3.3924
20.9745,3.4230
20.9745,3.8932
20.9745,3.8933
20.9861,3.9517
20.9861,3.9517
21.0304,4.0180
21.0304,4.0181
21.0968,4.0624
21.1412,4.0712
21.1552,4.0740
21.1552,4.0740
21.1553,4.0740
21.1553,4.0740
22.8947,4.0740
22.8947,4.0740
22.9532,4.0624
23.0196,4.0181
23.0639,3.9517
23.0755,3.8932
23.0755,3.1872
35.6745,3.1872
35.6745,3.3998
35.7078,3.6097
35.7734,3.8119
35.8699,4.0013
35.8699,4.0013
35.9949,4.1733
35.9949,4.1733
35.9949,4.1733
36.1452,4.3236
36.1452,4.3236
36.1452,4.3236
36.3172,4.4485
36.3172,4.4486
36.5066,4.5451
36.7088,4.6107
36.7088,4.6107
36.7088,4.6107
36.9187,4.6440
36.9187,4.6440
37.1313,4.6440
37.3412,4.6107
37.3412,4.6107
37.3412,4.6107
37.5434,4.5451
37.7328,4.4486
37.9048,4.3236
38.0551,4.1733
38.1737,4.0100
38.1800,4.0013
38.1801,4.0013
38.2766,3.8119
38.3422,3.6097
38.3422,3.6097
38.3755,3.3998
38.3755,3.1872
38.3422,2.9773
38.3422,2.9773
38.2766,2.7751
38.1801,2.5857
38.1800,2.5857
38.0551,2.4137
38.0551,2.4137
38.0551,2.4137
37.9048,2.2634
37.9048,2.2634
37.9048,2.2634
37.7328,2.1384
37.7328,2.1384
37.5434,2.0419
37.3412,1.9763
37.1313,1.9430
37.1313,1.9430
36.9187,1.9430
36.9187,1.9430
36.7088,1.9763
36.5066,2.0419
36.3172,2.1384
36.3172,2.1384
36.1452,2.2634
35.9949,2.4137
35.8699,2.5857
35.8699,2.5857
35.7734,2.7751
35.7078,2.9773
35.6745,3.1872
23.0755,3.1872
23.0755,2.1538
23.0639,2.0953
23.0196,2.0289
23.0195,2.0289
22.9532,1.9846
22.9532,1.9846
22.9532,1.9846
22.9532,1.9846
22.8948,1.9730
22.8947,1.9730
21.1553,1.9730
21.1553,1.9730
21.1552,1.9730
21.0968,1.9846
21.0968,1.9846
21.0305,2.0289
21.0304,2.0290
20.9861,2.0953
20.9861,2.0953
20.9745,2.1537
20.9745,2.1538
20.9745,2.6240
20.9556,2.6822
20.9061,2.7182
20.8755,2.7230
10.1929,2.7230
10.1165,2.7435
10.1165,2.7435
10.0480,2.7830
9.3568,3.4743
9.3023,3.5020
9.2713,3.5020
9.2143,3.4930
9.2142,3.4930
8.7108,3.4930
8.7108,3.4930
8.6126,3.5085
8.6126,3.5086
8.4942,3.5688
8.4003,3.6627
8.3400,3.7811
8.3400,3.7811
8.3245,3.8793
8.3245,4.7077
8.3386,4.7967
8.3400,4.8059
8.3400,4.8059
8.3641,4.8532
8.4003,4.9243
8.4942,5.0182
8.6126,5.0785
8.6709,5.0877
8.7108,5.0940
8.7108,5.0940
9.2142,5.0940
9.2428,5.0895
9.3124,5.0785
9.4308,5.0182
9.5247,4.9243
9.5850,4.8059
9.6005,4.7077
9.6005,4.1215
9.6194,4.0633
9.6295,4.0515
10.3280,3.3530
10.3825,3.3252
10.3980,3.3240
10.6874,3.3240
10.7456,3.3429
10.7816,3.3924
10.7816,3.4536
10.7456,3.5031
10.7324,3.5112
10.6192,3.5688
10.5253,3.6627
10.4650,3.7811
10.4650,3.7811
10.4495,3.8793
10.4495,4.7077
10.4636,4.7967
10.4650,4.8059
10.4650,4.8059
10.4891,4.8532
10.5253,4.9243
10.6192,5.0182
10.7376,5.0785
10.7959,5.0877
10.8358,5.0940
10.8358,5.0940
11.3392,5.0940
11.3678,5.0895
11.4374,5.0785
11.5558,5.0182
11.6497,4.9243
11.7100,4.8059
11.7255,4.7077
11.7255,4.6930
11.7444,4.6348
11.7939,4.5988
11.8245,4.5940
12.2755,4.5940
12.3337,4.6129
12.3697,4.6624
12.3745,4.6930
12.3745,4.8228
12.3774,4.8532
12.3774,4.8532
12.4222,4.9814
12.5028,5.0906
12.5028,5.0906
12.5028,5.0907
12.5029,5.0907
12.5029,5.0907
12.6121,5.1713
12.6121,5.1713
12.6121,5.1713
12.7403,5.2161
12.7707,5.2190
12.7707,5.2190
12.7707,5.2190
13.3793,5.2190
13.3793,5.2190
13.4097,5.2161
13.4330,5.2080
13.4573,5.2074
13.4812,5.2036
13.4873,5.2068
13.4942,5.2066
13.5357,5.2314
13.6414,5.3371
13.6692,5.3916
13.6596,5.4520
13.6414,5.4771
12.5295,6.5890
12.4750,6.6168
12.4595,6.6180
11.9915,6.6180
11.8919,6.6338
11.8919,6.6338
11.7718,6.6950
11.6765,6.7903
11.6153,6.9104
11.6153,6.9104
11.5995,7.0100
11.5995,7.5770
11.6153,7.6766
11.6153,7.6766
11.6765,7.7967
11.6765,7.7967
11.7718,7.8920
11.7718,7.8920
11.8919,7.9532
11.8919,7.9532
11.8919,7.9532
11.9675,7.9652
11.9915,7.9690
11.9915,7.9690
12.5085,7.9690
12.5299,7.9656
12.6081,7.9532
12.7282,7.8920
12.8235,7.7967
12.8847,7.6766
12.9005,7.5770
12.9005,7.1090
12.9194,7.0508
12.9295,7.0390
14.2319,5.7366
14.2864,5.7088
14.3019,5.7076
16.8505,5.7076
16.9087,5.7265
16.9447,5.7760
16.9495,5.8066
16.9495,9.7890
16.9306,9.8472
16.8811,9.8832
16.8505,9.8880
16.6417,9.8880
16.6077,9.8930
16.5736,9.8979
16.4685,9.9493
16.3858,10.0320
16.3344,10.1371
16.3344,10.1371
16.3245,10.2052
16.3245,10.5718
16.3286,10.6000
16.3300,10.6097
16.3197,10.6700
16.2759,10.7128
16.2321,10.7230
13.8179,10.7230
13.7597,10.7041
13.7238,10.6546
13.7200,10.6097
13.7214,10.6000
13.7255,10.5718
13.7255,10.2052
13.7156,10.1371
13.7011,10.1075
13.6770,10.0582
13.6642,10.0320
13.5815,9.9493
13.5584,9.9380
13.4764,9.8979
13.4491,9.8940
13.4083,9.8880
11.6917,9.8880
11.6577,9.8930
11.6236,9.8979
11.5185,9.9493
11.4358,10.0320
11.3844,10.1371
11.3844,10.1371
11.3745,10.2052
11.3745,10.5718
11.3786,10.6000
11.3844,10.6399
11.4108,10.6938
11.4358,10.7450
11.5185,10.8277
11.5723,10.8540
11.6236,10.8791
11.6236,10.8791
11.6236,10.8791
11.6917,10.8890
12.1505,10.8890
12.1654,10.8938
12.1811,10.8938
12.1938,10.9031
12.2087,10.9079
12.2179,10.9206
12.2306,10.9298
12.2354,10.9447
12.2447,10.9574
12.2495,10.9880
12.2495,11.0590
12.2306,11.1172
12.1811,11.1532
12.1505,11.1580
11.6917,11.1580
11.6577,11.1630
11.6236,11.1679
11.5185,11.2193
11.4358,11.3020
11.3844,11.4071
11.3778,11.4524
11.3706,11.4670
11.3681,11.4830
11.3574,11.4937
11.3507,11.5072
11.3363,11.5148
11.3248,11.5263
11.3099,11.5287
11.2966,11.5357
11.2805,11.5333
11.2644,11.5359
11.2509,11.5290
11.2360,11.5268
11.2099,11.5081
11.1148,11.4130
11.0870,11.3585
11.0858,11.3430
11.0858,9.5789
11.0858,9.5394
11.0858,9.5392
11.0858,9.5392
11.0858,9.5392
11.0754,9.5006
11.0754,9.5005
11.0654,9.4629
11.0654,9.4629
11.0654,9.4629
11.0653,9.4628
11.0653,9.4628
11.0653,9.4628
11.0451,9.4278
11.0258,9.3944
11.0258,9.3944
11.0258,9.3943
11.0258,9.3943
11.0258,9.3943
10.9976,9.3662
10.9976,9.3662
10.9976,9.3662
10.9976,9.3661
10.9076,9.2760
10.9076,9.2760
10.9028,9.2712
10.9028,9.2712
10.8751,9.2435
10.8469,9.2153
10.8469,9.2153
10.8468,9.2152
10.8337,9.2077
10.8130,9.1957
10.7784,9.1757
10.7784,9.1757
10.7783,9.1757
10.7405,9.1655
10.7405,9.1655
10.7404,9.1655
10.7245,9.1613
10.7020,9.1552
10.7019,9.1552
10.7019,9.1552
10.6624,9.1552
10.6229,9.1552
10.6228,9.1552
10.6227,9.1552
10.6036,9.1603
10.5844,9.1655
10.5844,9.1655
10.5837,9.1656
10.5464,9.1756
10.5464,9.1757
10.5463,9.1757
10.5461,9.1758
10.5461,9.1758
10.5206,9.1905
10.5118,9.1956
10.4779,9.2152
10.4778,9.2152
10.4778,9.2152
10.4776,9.2154
10.4776,9.2154
10.4499,9.2431
10.4486,9.2444
10.4219,9.2711
10.4219,9.2711
10.4175,9.2756
10.4175,9.2756
10.1246,9.5684
10.0701,9.5962
10.0546,9.5974
8.9454,9.5974
8.8872,9.5785
8.8754,9.5684
8.8746,9.5676
8.5993,9.2922
8.5835,9.2764
8.5830,9.2759
8.5824,9.2753
8.5824,9.2753
8.5782,9.2711
8.5782,9.2711
8.5501,9.2431
8.5501,9.2430
8.5501,9.2430
8.5501,9.2430
8.5366,9.2165
8.5223,9.1886
8.5223,9.1885
8.5223,9.1885
8.5211,9.1730
8.5211,8.3735
8.5211,8.3735
8.5184,8.3635
8.5006,8.2971
8.4934,8.2846
8.4611,8.2286
8.4087,8.1762
8.4051,8.1691
8.3986,8.1644
8.3914,8.1424
8.3809,8.1217
8.3797,8.1062
8.3797,8.1046
8.3986,8.0464
8.4087,8.0346
8.5515,7.8918
8.6060,7.8640
8.6215,7.8628
8.6231,7.8628
8.6813,7.8817
8.6931,7.8918
8.6945,7.8932
8.7223,7.9477
8.7235,7.9632
8.7235,9.0456
8.7440,9.1220
8.7440,9.1220
8.7632,9.1552
8.7632,9.1552
8.7835,9.1905
8.7835,9.1905
8.8312,9.2382
8.8312,9.2382
8.8364,9.2434
8.8529,9.2656
8.8751,9.2821
8.8803,9.2873
8.8803,9.2873
8.9280,9.3350
8.9965,9.3745
8.9965,9.3745
9.0729,9.3950
9.0729,9.3950
9.0729,9.3950
9.9271,9.3950
9.9271,9.3950
10.0035,9.3745
10.0720,9.3350
10.1249,9.2821
10.1471,9.2656
10.1636,9.2434
10.2165,9.1905
10.2362,9.1564
10.2368,9.1552
10.2441,9.1426
10.2560,9.1220
10.2765,9.0456
10.2765,8.7299
10.2765,8.7299
10.2763,8.7288
10.2755,8.7159
10.2755,7.5892
10.2755,7.5892
10.2755,7.5890
10.2726,7.5588
10.2278,7.4306
10.1777,7.3628
10.1472,7.3214
10.1472,7.3214
10.1471,7.3213
10.1471,7.3213
10.1471,7.3213
10.0379,7.2407
9.9097,7.1959
9.9097,7.1959
9.8793,7.1930
9.8793,7.1930
9.1207,7.1930
9.1207,7.1930
9.0903,7.1959
9.0903,7.1959
8.9621,7.2407
8.9621,7.2407
8.9438,7.2542
8.8858,7.2735
8.8594,7.2702
8.8282,7.2618
8.4956,7.2618
8.4164,7.2618
8.3697,7.2743
8.3400,7.2823
8.2715,7.3218
8.2715,7.3218
7.8387,7.7546
7.7992,7.8231
7.7992,7.8231
7.7787,7.8995
7.7787,7.8995
7.7787,8.3113
7.7992,8.3877
7.8012,8.3911
7.8387,8.4562
7.8957,8.5132
7.8997,8.5184
7.9078,8.5414
7.9189,8.5631
7.9199,8.5755
7.9201,8.5761
7.9199,8.5765
7.9201,8.5786
7.9201,9.2926
7.9201,9.2929
7.9201,9.3383
7.9201,9.3782
7.9201,9.3783
7.9276,9.4062
7.9244,9.4673
7.9224,9.4715
7.9225,9.4715
7.9200,9.4775
7.8995,9.5539
7.8995,10.5595
7.8806,10.6177
7.8454,10.6478
7.7617,10.6904
7.6719,10.7802
7.6144,10.8932
7.5995,10.9870
0.5255,10.9870
0.5255,8.8838
1.9745,8.8838
1.9745,10.6232
1.9745,10.6233
1.9861,10.6817
1.9861,10.6817
2.0284,10.7450
2.0304,10.7481
2.0968,10.7924
2.1412,10.8012
2.1552,10.8040
2.1552,10.8040
2.1553,10.8040
2.1553,10.8040
3.8947,10.8040
3.8947,10.8040
3.9532,10.7924
4.0196,10.7481
4.0639,10.6817
4.0755,10.6232
4.0755,10.1530
4.0944,10.0948
4.1439,10.0588
4.1745,10.0540
5.1296,10.0540
5.1296,10.0540
5.2060,10.0335
5.2745,9.9940
5.3025,9.9660
5.3305,9.9380
5.9016,9.3669
5.9561,9.3391
6.0041,9.3467
6.0051,9.3438
6.0341,9.3540
6.1403,9.3911
6.1707,9.3940
6.1707,9.3940
6.1707,9.3940
6.9293,9.3940
6.9293,9.3940
6.9597,9.3911
7.0879,9.3463
7.1971,9.2656
7.2778,9.1564
7.3226,9.0282
7.3255,8.9978
7.3255,8.9978
7.3255,7.5892
7.3255,7.5892
7.3255,7.5890
7.3226,7.5588
7.2778,7.4306
7.2277,7.3628
7.1972,7.3214
7.1972,7.3214
7.1971,7.3213
7.1971,7.3213
7.1971,7.3213
7.0879,7.2407
6.9597,7.1959
6.9597,7.1959
6.9293,7.1930
6.9293,7.1930
6.1707,7.1930
6.1707,7.1930
6.1403,7.1959
6.1403,7.1959
6.0121,7.2407
5.9029,7.3213
5.9028,7.3214
5.8222,7.4306
5.7774,7.5588
5.7774,7.5588
5.7745,7.5892
5.7745,8.6030
5.7556,8.6612
5.7455,8.6730
4.9945,9.4240
4.9400,9.4518
4.9245,9.4530
4.1745,9.4530
4.1163,9.4341
4.0803,9.3846
4.0755,9.3540
4.0755,8.8838
4.0755,8.8837
4.0727,8.8697
4.0639,8.8253
4.0196,8.7589
4.0195,8.7589
3.9532,8.7146
3.9532,8.7146
3.9532,8.7146
3.9532,8.7146
3.8948,8.7030
3.8947,8.7030
2.1553,8.7030
2.1553,8.7030
2.1552,8.7030
2.0968,8.7146
2.0968,8.7146
2.0305,8.7589
2.0304,8.7590
1.9861,8.8253
1.9861,8.8253
1.9745,8.8837
1.9745,8.8838
0.5255,8.8838
0.5255,0.8930
0.5444,0.8348
0.5939,0.7988
0.6245,0.7940
39.4255,0.7940
Z" />
</g>
<g style="fill:#FFFFFF; fill-opacity:1.0000; stroke:none;">
<circle cx="31.0558" cy="23.1940" r="0.1500" />
</g>
<g style="fill:#FFFFFF; fill-opacity:1.0000; stroke:none;">
<circle cx="21.1017" cy="24.2140" r="0.1500" />
</g>
<g style="fill:#FFFFFF; fill-opacity:1.0000; stroke:none;">
<circle cx="12.5307" cy="16.7528" r="0.1500" />
</g>
<g style="fill:#FFFFFF; fill-opacity:1.0000; stroke:none;">
<circle cx="26.1949" cy="10.2129" r="0.1500" />
</g>
<g style="fill:#FFFFFF; fill-opacity:1.0000; stroke:none;">
<circle cx="31.0250" cy="26.2935" r="0.1500" />
</g>
<g style="fill:#FFFFFF; fill-opacity:1.0000; stroke:none;">
<circle cx="8.0250" cy="24.2935" r="0.1500" />
</g>
<g style="fill:#FFFFFF; fill-opacity:1.0000; stroke:none;">
<circle cx="25.0250" cy="10.2935" r="0.1500" />
</g>
<g style="fill:#FFFFFF; fill-opacity:1.0000; stroke:none;">
<circle cx="14.0250" cy="20.2935" r="0.1500" />
</g>
<g style="fill:#FFFFFF; fill-opacity:1.0000; stroke:none;">
<circle cx="36.0250" cy="5.2935" r="0.1500" />
</g>
<g style="fill:#FFFFFF; fill-opacity:1.0000; stroke:none;">
<circle cx="14.9189" cy="7.6816" r="0.1500" />
</g>
<g style="fill:#FFFFFF; fill-opacity:1.0000; stroke:none;">
<circle cx="21.8563" cy="10.2820" r="0.1500" />
</g>
<g style="fill:#FFFFFF; fill-opacity:1.0000; stroke:none;">
<circle cx="19.0250" cy="12.2935" r="0.1500" />
</g>
<g style="fill:#FFFFFF; fill-opacity:1.0000; stroke:none;">
<circle cx="23.8110" cy="9.9721" r="0.1500" />
</g>
<g style="fill:#FFFFFF; fill-opacity:1.0000; stroke:none;">
<circle cx="22.6336" cy="13.7920" r="0.1500" />
</g>
<g style="fill:#FFFFFF; fill-opacity:1.0000; stroke:none;">
<circle cx="36.0250" cy="10.4835" r="0.5000" />
</g>
<g style="fill:#FFFFFF; fill-opacity:1.0000; stroke:none;">
<circle cx="36.0250" cy="13.0235" r="0.5000" />
</g>
<g style="fill:#FFFFFF; fill-opacity:1.0000; stroke:none;">
<circle cx="36.0250" cy="15.5635" r="0.5000" />
</g>
<g style="fill:#FFFFFF; fill-opacity:1.0000; stroke:none;">
<circle cx="36.0250" cy="18.1035" r="0.5000" />
</g>
<g style="fill:#FFFFFF; fill-opacity:1.0000; stroke:none;">
<circle cx="3.0250" cy="27.2935" r="1.1000" />
</g>
<g style="fill:#FFFFFF; fill-opacity:1.0000; stroke:none;">
<circle cx="22.0250" cy="3.0235" r="0.5000" />
</g>
<g style="fill:#FFFFFF; fill-opacity:1.0000; stroke:none;">
<circle cx="22.0250" cy="5.5635" r="0.5000" />
</g>
<g style="fill:#FFFFFF; fill-opacity:1.0000; stroke:none;">
<circle cx="3.0250" cy="9.7535" r="0.5000" />
</g>
<g style="fill:#FFFFFF; fill-opacity:1.0000; stroke:none;">
<circle cx="3.0250" cy="12.2935" r="0.5000" />
</g>
<g style="fill:#FFFFFF; fill-opacity:1.0000; stroke:none;">
<circle cx="3.0250" cy="14.8335" r="0.5000" />
</g>
<g style="fill:#FFFFFF; fill-opacity:1.0000; stroke:none;">
<circle cx="37.0250" cy="3.2935" r="1.1000" />
</g>
<g style="fill:none;
stroke:#F2EDA1; stroke-width:0.1200; stroke-opacity:1;
stroke-linecap:round; stroke-linejoin:round;">
<path d="M32.7877 20.7710
L33.2623 20.7710
" />
<path d="M32.7877 21.8160
L33.2623 21.8160
" />
<path d="M7.3137 15.3835
L8.7363 15.3835
" />
<path d="M7.3137 17.2035
L8.7363 17.2035
" />
<path d="M27.3137 6.3835
L28.7363 6.3835
" />
<path d="M27.3137 8.2035
L28.7363 8.2035
" />
<path d="M21.7877 24.7710
L22.2623 24.7710
" />
<path d="M21.7877 25.8160
L22.2623 25.8160
" />
<path d="M24.9650 14.7335
L29.0850 14.7335
" />
<path d="M24.9650 14.8285
L24.9650 14.7335
" />
<path d="M24.9650 19.8535
L24.9650 19.7585
" />
<path d="M29.0850 14.7335
L29.0850 14.8285
" />
<path d="M29.0850 19.7585
L29.0850 19.8535
" />
<path d="M29.0850 19.8535
L24.9650 19.8535
" />
<path style="fill:#F2EDA1; fill-opacity:1.0000;
stroke:#F2EDA1; stroke-width:0.1200; stroke-opacity:1;
stroke-linecap:round; stroke-linejoin:round;fill-rule:evenodd;"
d="M 24.4250,14.8235
24.1850,14.4935
24.6650,14.4935
Z" />
</g>
<g style="fill:none;
stroke:#F2EDA1; stroke-width:0.1200; stroke-opacity:1;
stroke-linecap:round; stroke-linejoin:round;">
<path d="M32.7877 23.7710
L33.2623 23.7710
" />
<path d="M32.7877 24.8160
L33.2623 24.8160
" />
<path d="M13.7637 3.5585
L14.2863 3.5585
" />
<path d="M13.7637 5.0285
L14.2863 5.0285
" />
<path d="M28.7877 9.7710
L29.2623 9.7710
" />
<path d="M28.7877 10.8160
L29.2623 10.8160
" />
<path d="M7.3137 7.3835
L8.7363 7.3835
" />
<path d="M7.3137 9.2035
L8.7363 9.2035
" />
<path d="M12.9650 9.7335
L17.0850 9.7335
" />
<path d="M12.9650 9.8285
L12.9650 9.7335
" />
<path d="M12.9650 14.8535
L12.9650 14.7585
" />
<path d="M17.0850 9.7335
L17.0850 9.8285
" />
<path d="M17.0850 14.7585
L17.0850 14.8535
" />
<path d="M17.0850 14.8535
L12.9650 14.8535
" />
<path style="fill:#F2EDA1; fill-opacity:1.0000;
stroke:#F2EDA1; stroke-width:0.1200; stroke-opacity:1;
stroke-linecap:round; stroke-linejoin:round;fill-rule:evenodd;"
d="M 12.4250,9.8235
12.1850,9.4935
12.6650,9.4935
Z" />
</g>
<g style="fill:none;
stroke:#F2EDA1; stroke-width:0.1200; stroke-opacity:1;
stroke-linecap:round; stroke-linejoin:round;">
<path d="M27.3137 11.3835
L28.7363 11.3835
" />
<path d="M27.3137 13.2035
L28.7363 13.2035
" />
<path d="M34.6450 9.1035
L36.0250 9.1035
" />
<path d="M34.6450 10.4835
L34.6450 9.1035
" />
<path d="M34.6450 11.7535
L34.6450 19.4835
" />
<path d="M34.6450 11.7535
L37.4050 11.7535
" />
<path d="M34.6450 19.4835
L37.4050 19.4835
" />
<path d="M37.4050 11.7535
L37.4050 19.4835
" />
<path d="M22.7877 7.7710
L23.2623 7.7710
" />
<path d="M22.7877 8.8160
L23.2623 8.8160
" />
<path d="M25.7877 24.7710
L26.2623 24.7710
" />
<path d="M25.7877 25.8160
L26.2623 25.8160
" />
<path d="M22.7877 11.7710
L23.2623 11.7710
" />
<path d="M22.7877 12.8160
L23.2623 12.8160
" />
<path d="M8.7877 10.7710
L9.2623 10.7710
" />
<path d="M8.7877 11.8160
L9.2623 11.8160
" />
<path d="M9.6254 3.7335
L10.4246 3.7335
" />
<path d="M9.6254 4.8535
L10.4246 4.8535
" />
<path d="M32.3844 15.7835
L32.6656 15.7835
" />
<path d="M32.3844 16.8035
L32.6656 16.8035
" />
<path d="M20.6450 1.6435
L22.0250 1.6435
" />
<path d="M20.6450 3.0235
L20.6450 1.6435
" />
<path d="M20.6450 4.2935
L20.6450 6.9435
" />
<path d="M20.6450 4.2935
L23.4050 4.2935
" />
<path d="M20.6450 6.9435
L23.4050 6.9435
" />
<path d="M23.4050 4.2935
L23.4050 6.9435
" />
<path d="M1.6450 8.3735
L3.0250 8.3735
" />
<path d="M1.6450 9.7535
L1.6450 8.3735
" />
<path d="M1.6450 11.0235
L1.6450 16.2135
" />
<path d="M1.6450 11.0235
L4.4050 11.0235
" />
<path d="M1.6450 16.2135
L4.4050 16.2135
" />
<path d="M4.4050 11.0235
L4.4050 16.2135
" />
<path d="M31.7877 11.7710
L32.2623 11.7710
" />
<path d="M31.7877 12.8160
L32.2623 12.8160
" />
<path d="M28.3137 20.3835
L29.7363 20.3835
" />
<path d="M28.3137 22.2035
L29.7363 22.2035
" />
<path d="M17.8844 3.7835
L18.1656 3.7835
" />
<path d="M17.8844 4.8035
L18.1656 4.8035
" />
<path d="M28.7877 26.7710
L29.2623 26.7710
" />
<path d="M28.7877 27.8160
L29.2623 27.8160
" />
<path d="M31.7877 6.7710
L32.2623 6.7710
" />
<path d="M31.7877 7.8160
L32.2623 7.8160
" />
<path d="M17.7637 23.5585
L18.2863 23.5585
" />
<path d="M17.7637 25.0285
L18.2863 25.0285
" />
<path d="M8.7877 18.7710
L9.2623 18.7710
" />
<path d="M8.7877 19.8160
L9.2623 19.8160
" />
<path d="M12.8844 6.7835
L13.1656 6.7835
" />
<path d="M12.8844 7.8035
L13.1656 7.8035
" />
</g>
<g style="fill:#F2EDA1; fill-opacity:1.0000; stroke:none;">
<circle cx="36.0250" cy="10.4835" r="0.5000" />
</g>
<g style="fill:#F2EDA1; fill-opacity:1.0000; stroke:none;">
<circle cx="36.0250" cy="13.0235" r="0.5000" />
</g>
<g style="fill:#F2EDA1; fill-opacity:1.0000; stroke:none;">
<circle cx="36.0250" cy="15.5635" r="0.5000" />
</g>
<g style="fill:#F2EDA1; fill-opacity:1.0000; stroke:none;">
<circle cx="36.0250" cy="18.1035" r="0.5000" />
</g>
<g style="fill:#F2EDA1; fill-opacity:1.0000; stroke:none;">
<circle cx="3.0250" cy="27.2935" r="1.1000" />
</g>
<g style="fill:#F2EDA1; fill-opacity:1.0000; stroke:none;">
<circle cx="22.0250" cy="3.0235" r="0.5000" />
</g>
<g style="fill:#F2EDA1; fill-opacity:1.0000; stroke:none;">
<circle cx="22.0250" cy="5.5635" r="0.5000" />
</g>
<g style="fill:#F2EDA1; fill-opacity:1.0000; stroke:none;">
<circle cx="3.0250" cy="9.7535" r="0.5000" />
</g>
<g style="fill:#F2EDA1; fill-opacity:1.0000; stroke:none;">
<circle cx="3.0250" cy="12.2935" r="0.5000" />
</g>
<g style="fill:#F2EDA1; fill-opacity:1.0000; stroke:none;">
<circle cx="3.0250" cy="14.8335" r="0.5000" />
</g>
<g style="fill:#F2EDA1; fill-opacity:1.0000; stroke:none;">
<circle cx="37.0250" cy="3.2935" r="1.1000" />
</g>
<g style="fill:none;
stroke:#D0D2CD; stroke-width:0.0500; stroke-opacity:1;
stroke-linecap:round; stroke-linejoin:round;">
<path d="M0.0250 30.2935
L0.0250 0.2935
" />
<path d="M40.0250 30.2935
L0.0250 30.2935
" />
<path d="M0.0250 0.2935
L40.0250 0.2935
" />
<path d="M40.0250 0.2935
L40.0250 30.2935
" />
</g>
<g style="fill:#D0D2CD; fill-opacity:1.0000; stroke:none;">
<circle cx="36.0250" cy="10.4835" r="0.5000" />
</g>
<g style="fill:#D0D2CD; fill-opacity:1.0000; stroke:none;">
<circle cx="36.0250" cy="13.0235" r="0.5000" />
</g>
<g style="fill:#D0D2CD; fill-opacity:1.0000; stroke:none;">
<circle cx="36.0250" cy="15.5635" r="0.5000" />
</g>
<g style="fill:#D0D2CD; fill-opacity:1.0000; stroke:none;">
<circle cx="36.0250" cy="18.1035" r="0.5000" />
</g>
<g style="fill:#D0D2CD; fill-opacity:1.0000; stroke:none;">
<circle cx="3.0250" cy="27.2935" r="1.1000" />
</g>
<g style="fill:#D0D2CD; fill-opacity:1.0000; stroke:none;">
<circle cx="22.0250" cy="3.0235" r="0.5000" />
</g>
<g style="fill:#D0D2CD; fill-opacity:1.0000; stroke:none;">
<circle cx="22.0250" cy="5.5635" r="0.5000" />
</g>
<g style="fill:#D0D2CD; fill-opacity:1.0000; stroke:none;">
<circle cx="3.0250" cy="9.7535" r="0.5000" />
</g>
<g style="fill:#D0D2CD; fill-opacity:1.0000; stroke:none;">
<circle cx="3.0250" cy="12.2935" r="0.5000" />
</g>
<g style="fill:#D0D2CD; fill-opacity:1.0000; stroke:none;">
<circle cx="3.0250" cy="14.8335" r="0.5000" />
</g>
<g style="fill:#D0D2CD; fill-opacity:1.0000; stroke:none;">
<circle cx="37.0250" cy="3.2935" r="1.1000" />
</g>
<g style="fill:#FFFFFF; fill-opacity:1.0000; stroke:none;">
<circle cx="36.0250" cy="10.4835" r="0.5000" />
</g>
<g style="fill:#FFFFFF; fill-opacity:1.0000; stroke:none;">
<circle cx="36.0250" cy="13.0235" r="0.5000" />
</g>
<g style="fill:#FFFFFF; fill-opacity:1.0000; stroke:none;">
<circle cx="36.0250" cy="15.5635" r="0.5000" />
</g>
<g style="fill:#FFFFFF; fill-opacity:1.0000; stroke:none;">
<circle cx="36.0250" cy="18.1035" r="0.5000" />
</g>
<g style="fill:#FFFFFF; fill-opacity:1.0000; stroke:none;">
<circle cx="3.0250" cy="27.2935" r="1.1000" />
</g>
<g style="fill:#FFFFFF; fill-opacity:1.0000; stroke:none;">
<circle cx="22.0250" cy="3.0235" r="0.5000" />
</g>
<g style="fill:#FFFFFF; fill-opacity:1.0000; stroke:none;">
<circle cx="22.0250" cy="5.5635" r="0.5000" />
</g>
<g style="fill:#FFFFFF; fill-opacity:1.0000; stroke:none;">
<circle cx="3.0250" cy="9.7535" r="0.5000" />
</g>
<g style="fill:#FFFFFF; fill-opacity:1.0000; stroke:none;">
<circle cx="3.0250" cy="12.2935" r="0.5000" />
</g>
<g style="fill:#FFFFFF; fill-opacity:1.0000; stroke:none;">
<circle cx="3.0250" cy="14.8335" r="0.5000" />
</g>
<g style="fill:#FFFFFF; fill-opacity:1.0000; stroke:none;">
<circle cx="37.0250" cy="3.2935" r="1.1000" />
</g>
</svg>
