G04 #@! TF.GenerationSoftware,KiCad,Pcbnew,9.0.2+dfsg-1*
G04 #@! TF.CreationDate,2026-10-08T19:46:54+00:00*
G04 #@! TF.ProjectId,Ardor_MIDI_THT,4172646f-725f-44d4-9944-495f5448542e,rev?*
G04 #@! TF.SameCoordinates,Original*
G04 #@! TF.FileFunction,Soldermask,Bot*
G04 #@! TF.FilePolarity,Negative*
%FSLAX46Y46*%
G04 Gerber Fmt 4.6, Leading zero omitted, Abs format (unit mm)*
G04 Created by KiCad (PCBNEW 9.0.2+dfsg-1) date 2026-10-08 19:46:54*
%MOMM*%
%LPD*%
G01*
G04 APERTURE LIST*
G04 Aperture macros list*
%AMRoundRect*
0 Rectangle with rounded corners*
0 $1 Rounding radius*
0 $2 $3 $4 $5 $6 $7 $8 $9 X,Y pos of 4 corners*
0 Add a 4 corners polygon primitive as box body*
4,1,4,$2,$3,$4,$5,$6,$7,$8,$9,$2,$3,0*
0 Add four circle primitives for the rounded corners*
1,1,$1+$1,$2,$3*
1,1,$1+$1,$4,$5*
1,1,$1+$1,$6,$7*
1,1,$1+$1,$8,$9*
0 Add four rect primitives between the rounded corners*
20,1,$1+$1,$2,$3,$4,$5,0*
20,1,$1+$1,$4,$5,$6,$7,0*
20,1,$1+$1,$6,$7,$8,$9,0*
20,1,$1+$1,$8,$9,$2,$3,0*%
G04 Aperture macros list end*
%ADD10C,1.600000*%
%ADD11RoundRect,0.250001X0.949999X-0.949999X0.949999X0.949999X-0.949999X0.949999X-0.949999X-0.949999X0*%
%ADD12C,2.400000*%
%ADD13R,1.700000X1.700000*%
%ADD14C,1.700000*%
%ADD15RoundRect,0.250000X-0.550000X-0.550000X0.550000X-0.550000X0.550000X0.550000X-0.550000X0.550000X0*%
%ADD16C,2.200000*%
%ADD17C,2.000000*%
%ADD18RoundRect,0.250001X-0.949999X-0.949999X0.949999X-0.949999X0.949999X0.949999X-0.949999X0.949999X0*%
G04 APERTURE END LIST*
D10*
X77500000Y-58000000D03*
X82500000Y-58000000D03*
D11*
X56000000Y-109080000D03*
D12*
X56000000Y-98920000D03*
D10*
X65500000Y-110000000D03*
X70500000Y-110000000D03*
X113750000Y-65000000D03*
X118750000Y-65000000D03*
D13*
X56000000Y-81730000D03*
D14*
X56000000Y-84270000D03*
D15*
X96190000Y-77460000D03*
D10*
X96190000Y-80000000D03*
X96190000Y-82540000D03*
X103810000Y-82540000D03*
X103810000Y-80000000D03*
X103810000Y-77460000D03*
D16*
X132000000Y-53000000D03*
D10*
X114920000Y-100000000D03*
X125080000Y-100000000D03*
D17*
X68000000Y-102620000D03*
X68000000Y-87380000D03*
D10*
X109920000Y-110000000D03*
X120080000Y-110000000D03*
X109920000Y-92500000D03*
X120080000Y-92500000D03*
D13*
X125000000Y-78690000D03*
D14*
X125000000Y-81230000D03*
X125000000Y-83770000D03*
X125000000Y-86310000D03*
D10*
X115000000Y-60000000D03*
X120000000Y-60000000D03*
D17*
X68000000Y-82620000D03*
X68000000Y-67380000D03*
D10*
X74920000Y-75000000D03*
X85080000Y-75000000D03*
D13*
X127500000Y-108730000D03*
D14*
X127500000Y-111270000D03*
D11*
X56000000Y-70080000D03*
D12*
X56000000Y-59920000D03*
D15*
X76190000Y-91000000D03*
D10*
X83810000Y-91000000D03*
D16*
X53000000Y-117000000D03*
D18*
X76920000Y-112000000D03*
D12*
X87080000Y-112000000D03*
M02*
