G04 #@! TF.GenerationSoftware,KiCad,Pcbnew,9.0.2+dfsg-1*
G04 #@! TF.CreationDate,2026-10-09T12:30:48+00:00*
G04 #@! TF.ProjectId,Ardor_MIDI_THT,4172646f-725f-44d4-9944-495f5448542e,rev?*
G04 #@! TF.SameCoordinates,Original*
G04 #@! TF.FileFunction,Copper,L2,Bot*
G04 #@! TF.FilePolarity,Positive*
%FSLAX46Y46*%
G04 Gerber Fmt 4.6, Leading zero omitted, Abs format (unit mm)*
G04 Created by KiCad (PCBNEW 9.0.2+dfsg-1) date 2026-10-09 12:30:48*
%MOMM*%
%LPD*%
G01*
G04 APERTURE LIST*
G04 Aperture macros list*
%AMRoundRect*
0 Rectangle with rounded corners*
0 $1 Rounding radius*
0 $2 $3 $4 $5 $6 $7 $8 $9 X,Y pos of 4 corners*
0 Add a 4 corners polygon primitive as box body*
4,1,4,$2,$3,$4,$5,$6,$7,$8,$9,$2,$3,0*
0 Add four circle primitives for the rounded corners*
1,1,$1+$1,$2,$3*
1,1,$1+$1,$4,$5*
1,1,$1+$1,$6,$7*
1,1,$1+$1,$8,$9*
0 Add four rect primitives between the rounded corners*
20,1,$1+$1,$2,$3,$4,$5,0*
20,1,$1+$1,$4,$5,$6,$7,0*
20,1,$1+$1,$6,$7,$8,$9,0*
20,1,$1+$1,$8,$9,$2,$3,0*%
G04 Aperture macros list end*
G04 #@! TA.AperFunction,ComponentPad*
%ADD10C,1.600000*%
G04 #@! TD*
G04 #@! TA.AperFunction,ComponentPad*
%ADD11R,1.700000X1.700000*%
G04 #@! TD*
G04 #@! TA.AperFunction,ComponentPad*
%ADD12C,1.700000*%
G04 #@! TD*
G04 #@! TA.AperFunction,ComponentPad*
%ADD13RoundRect,0.250000X1.050000X-1.050000X1.050000X1.050000X-1.050000X1.050000X-1.050000X-1.050000X0*%
G04 #@! TD*
G04 #@! TA.AperFunction,ComponentPad*
%ADD14C,2.600000*%
G04 #@! TD*
G04 #@! TA.AperFunction,ComponentPad*
%ADD15RoundRect,0.250000X-0.550000X-0.550000X0.550000X-0.550000X0.550000X0.550000X-0.550000X0.550000X0*%
G04 #@! TD*
G04 #@! TA.AperFunction,ComponentPad*
%ADD16C,2.000000*%
G04 #@! TD*
G04 #@! TA.AperFunction,ComponentPad*
%ADD17RoundRect,0.250001X0.949999X-0.949999X0.949999X0.949999X-0.949999X0.949999X-0.949999X-0.949999X0*%
G04 #@! TD*
G04 #@! TA.AperFunction,ComponentPad*
%ADD18C,2.400000*%
G04 #@! TD*
G04 #@! TA.AperFunction,ComponentPad*
%ADD19RoundRect,0.250001X-0.949999X-0.949999X0.949999X-0.949999X0.949999X0.949999X-0.949999X0.949999X0*%
G04 #@! TD*
G04 #@! TA.AperFunction,Conductor*
%ADD20C,0.200000*%
G04 #@! TD*
G04 #@! TA.AperFunction,Conductor*
%ADD21C,0.600000*%
G04 #@! TD*
G04 APERTURE END LIST*
D10*
X115000000Y-60000000D03*
X120000000Y-60000000D03*
D11*
X127500000Y-108730000D03*
D12*
X127500000Y-111270000D03*
D13*
X56000000Y-72620000D03*
D14*
X56000000Y-57380000D03*
D10*
X77500000Y-58000000D03*
X82500000Y-58000000D03*
X109920000Y-110000000D03*
X120080000Y-110000000D03*
D15*
X76190000Y-91000000D03*
D10*
X83810000Y-91000000D03*
D16*
X68000000Y-102620000D03*
X68000000Y-87380000D03*
D10*
X109920000Y-92500000D03*
X120080000Y-92500000D03*
X65500000Y-110000000D03*
X70500000Y-110000000D03*
D17*
X56000000Y-109080000D03*
D18*
X56000000Y-98920000D03*
D10*
X113750000Y-65000000D03*
X118750000Y-65000000D03*
D19*
X76920000Y-112000000D03*
D18*
X87080000Y-112000000D03*
D16*
X68000000Y-82620000D03*
X68000000Y-67380000D03*
D11*
X56000000Y-81730000D03*
D12*
X56000000Y-84270000D03*
D10*
X74920000Y-75000000D03*
X85080000Y-75000000D03*
D11*
X125000000Y-78690000D03*
D12*
X125000000Y-81230000D03*
X125000000Y-83770000D03*
X125000000Y-86310000D03*
D15*
X96190000Y-77460000D03*
D10*
X96190000Y-80000000D03*
X96190000Y-82540000D03*
X103810000Y-82540000D03*
X103810000Y-80000000D03*
X103810000Y-77460000D03*
X114920000Y-100000000D03*
X125080000Y-100000000D03*
D20*
X113730000Y-92500000D02*
X109920000Y-92500000D01*
X125000000Y-81230000D02*
X113730000Y-92500000D01*
X105040000Y-78690000D02*
X103810000Y-77460000D01*
X125000000Y-78690000D02*
X105040000Y-78690000D01*
D21*
X70500000Y-110000000D02*
X59420000Y-98920000D01*
X85080000Y-110000000D02*
X87080000Y-112000000D01*
X109920000Y-110000000D02*
X89080000Y-110000000D01*
X111252200Y-108667800D02*
X126086100Y-108667800D01*
X127500000Y-108730000D02*
X126148300Y-108730000D01*
X109920000Y-110000000D02*
X111252200Y-108667800D01*
X89080000Y-110000000D02*
X87080000Y-112000000D01*
X70500000Y-110000000D02*
X85080000Y-110000000D01*
X126086100Y-108667800D02*
X126148300Y-108730000D01*
X59420000Y-98920000D02*
X56000000Y-98920000D01*
D20*
X56000000Y-81730000D02*
X67110000Y-81730000D01*
X67110000Y-81730000D02*
X68000000Y-82620000D01*
X67500000Y-112000000D02*
X76920000Y-112000000D01*
X65500000Y-110000000D02*
X67500000Y-112000000D01*
X82659600Y-92150400D02*
X72770400Y-92150400D01*
X83810000Y-91000000D02*
X82659600Y-92150400D01*
X72770400Y-92150400D02*
X68000000Y-87380000D01*
X85190000Y-91000000D02*
X83810000Y-91000000D01*
X96190000Y-80000000D02*
X85190000Y-91000000D01*
X93730000Y-75000000D02*
X96190000Y-77460000D01*
X89730000Y-77460000D02*
X76190000Y-91000000D01*
X85080000Y-75000000D02*
X93730000Y-75000000D01*
X96190000Y-77460000D02*
X89730000Y-77460000D01*
G04 #@! TA.AperFunction,Conductor*
G36*
X134458691Y-50519407D02*
G01*
X134494655Y-50568907D01*
X134499500Y-50599500D01*
X134499500Y-119400500D01*
X134480593Y-119458691D01*
X134431093Y-119494655D01*
X134400500Y-119499500D01*
X50599500Y-119499500D01*
X50541309Y-119480593D01*
X50505345Y-119431093D01*
X50500500Y-119400500D01*
X50500500Y-118750000D01*
X51250000Y-118750000D01*
X51250001Y-118750000D01*
X101249999Y-118750000D01*
X101250000Y-118750000D01*
X101250000Y-111183424D01*
X126400000Y-111183424D01*
X126400000Y-111356575D01*
X126427084Y-111527579D01*
X126480588Y-111692248D01*
X126559195Y-111846524D01*
X126559197Y-111846528D01*
X126623219Y-111934646D01*
X127056328Y-111501536D01*
X127099901Y-111577007D01*
X127192993Y-111670099D01*
X127268460Y-111713670D01*
X126835352Y-112146778D01*
X126923477Y-112210805D01*
X127077751Y-112289411D01*
X127242420Y-112342915D01*
X127413425Y-112370000D01*
X127586575Y-112370000D01*
X127757579Y-112342915D01*
X127922248Y-112289411D01*
X128076524Y-112210804D01*
X128076530Y-112210800D01*
X128164646Y-112146779D01*
X128164646Y-112146778D01*
X127731538Y-111713670D01*
X127807007Y-111670099D01*
X127900099Y-111577007D01*
X127943670Y-111501538D01*
X128376778Y-111934646D01*
X128376779Y-111934646D01*
X128440800Y-111846530D01*
X128440804Y-111846524D01*
X128519411Y-111692248D01*
X128572915Y-111527579D01*
X128600000Y-111356575D01*
X128600000Y-111183424D01*
X128572915Y-111012420D01*
X128519411Y-110847751D01*
X128440805Y-110693477D01*
X128376778Y-110605352D01*
X127943670Y-111038460D01*
X127900099Y-110962993D01*
X127807007Y-110869901D01*
X127731536Y-110826328D01*
X128164646Y-110393219D01*
X128076528Y-110329197D01*
X128076524Y-110329195D01*
X127922248Y-110250588D01*
X127757579Y-110197084D01*
X127586575Y-110170000D01*
X127413425Y-110170000D01*
X127242420Y-110197084D01*
X127077751Y-110250588D01*
X126923476Y-110329195D01*
X126835352Y-110393219D01*
X127268461Y-110826328D01*
X127192993Y-110869901D01*
X127099901Y-110962993D01*
X127056328Y-111038461D01*
X126623219Y-110605352D01*
X126559195Y-110693476D01*
X126480588Y-110847751D01*
X126427084Y-111012420D01*
X126400000Y-111183424D01*
X101250000Y-111183424D01*
X101250000Y-110599500D01*
X101268907Y-110541309D01*
X101318407Y-110505345D01*
X101349000Y-110500500D01*
X108998216Y-110500500D01*
X109056407Y-110519407D01*
X109080529Y-110544496D01*
X109142861Y-110637782D01*
X109282218Y-110777139D01*
X109446086Y-110886632D01*
X109628165Y-110962051D01*
X109821459Y-111000500D01*
X109821460Y-111000500D01*
X110018540Y-111000500D01*
X110018541Y-111000500D01*
X110211835Y-110962051D01*
X110393914Y-110886632D01*
X110557782Y-110777139D01*
X110697139Y-110637782D01*
X110806632Y-110473914D01*
X110882051Y-110291835D01*
X110920500Y-110098541D01*
X110920500Y-109901459D01*
X110898612Y-109791423D01*
X110905804Y-109730662D01*
X110925707Y-109702105D01*
X111430518Y-109197296D01*
X111485034Y-109169519D01*
X111500521Y-109168300D01*
X119188342Y-109168300D01*
X119246533Y-109187207D01*
X119282497Y-109236707D01*
X119282497Y-109297893D01*
X119266865Y-109326455D01*
X119267112Y-109326620D01*
X119265254Y-109329399D01*
X119264866Y-109330110D01*
X119264403Y-109330673D01*
X119149508Y-109502625D01*
X119149501Y-109502639D01*
X119070349Y-109693727D01*
X119030000Y-109896581D01*
X119030000Y-110103418D01*
X119070349Y-110306272D01*
X119149501Y-110497361D01*
X119238022Y-110629843D01*
X119709533Y-110158333D01*
X119759920Y-110245606D01*
X119834394Y-110320080D01*
X119921665Y-110370465D01*
X119450154Y-110841977D01*
X119582625Y-110930491D01*
X119582639Y-110930498D01*
X119773727Y-111009650D01*
X119976581Y-111049999D01*
X119976586Y-111050000D01*
X120183414Y-111050000D01*
X120183418Y-111049999D01*
X120386272Y-111009650D01*
X120577360Y-110930498D01*
X120709843Y-110841976D01*
X120238333Y-110370466D01*
X120325606Y-110320080D01*
X120400080Y-110245606D01*
X120450466Y-110158333D01*
X120921976Y-110629843D01*
X121010499Y-110497358D01*
X121053699Y-110393066D01*
X121053699Y-110393065D01*
X121089650Y-110306272D01*
X121129999Y-110103418D01*
X121130000Y-110103413D01*
X121130000Y-109896586D01*
X121129999Y-109896581D01*
X121089650Y-109693727D01*
X121010498Y-109502639D01*
X121010491Y-109502625D01*
X120895596Y-109330673D01*
X120895134Y-109330110D01*
X120895012Y-109329799D01*
X120892888Y-109326620D01*
X120893585Y-109326154D01*
X120872830Y-109273135D01*
X120888275Y-109213931D01*
X120935569Y-109175112D01*
X120971658Y-109168300D01*
X125879930Y-109168300D01*
X125929429Y-109181563D01*
X125955114Y-109196392D01*
X126082407Y-109230500D01*
X126082408Y-109230500D01*
X126350500Y-109230500D01*
X126408691Y-109249407D01*
X126444655Y-109298907D01*
X126449500Y-109329500D01*
X126449500Y-109599746D01*
X126449501Y-109599758D01*
X126454972Y-109627259D01*
X126461133Y-109658231D01*
X126505448Y-109724552D01*
X126571769Y-109768867D01*
X126616231Y-109777711D01*
X126630241Y-109780498D01*
X126630246Y-109780498D01*
X126630252Y-109780500D01*
X126630253Y-109780500D01*
X128369747Y-109780500D01*
X128369748Y-109780500D01*
X128428231Y-109768867D01*
X128494552Y-109724552D01*
X128538867Y-109658231D01*
X128550500Y-109599748D01*
X128550500Y-107860252D01*
X128538867Y-107801769D01*
X128494552Y-107735448D01*
X128494548Y-107735445D01*
X128428233Y-107691134D01*
X128428231Y-107691133D01*
X128428228Y-107691132D01*
X128428227Y-107691132D01*
X128369758Y-107679501D01*
X128369748Y-107679500D01*
X126630252Y-107679500D01*
X126630251Y-107679500D01*
X126630241Y-107679501D01*
X126571772Y-107691132D01*
X126571766Y-107691134D01*
X126505451Y-107735445D01*
X126505445Y-107735451D01*
X126461134Y-107801766D01*
X126461132Y-107801772D01*
X126449501Y-107860241D01*
X126449500Y-107860253D01*
X126449500Y-108128207D01*
X126430593Y-108186398D01*
X126381093Y-108222362D01*
X126319907Y-108222362D01*
X126301003Y-108213945D01*
X126279288Y-108201409D01*
X126279287Y-108201408D01*
X126279286Y-108201408D01*
X126151992Y-108167300D01*
X111318092Y-108167300D01*
X111186307Y-108167300D01*
X111115032Y-108186398D01*
X111059009Y-108201409D01*
X110944890Y-108267296D01*
X110944885Y-108267300D01*
X110851699Y-108360485D01*
X110851700Y-108360486D01*
X110851698Y-108360488D01*
X110217892Y-108994293D01*
X110163375Y-109022070D01*
X110128574Y-109021387D01*
X110018543Y-108999500D01*
X110018541Y-108999500D01*
X109821459Y-108999500D01*
X109821456Y-108999500D01*
X109628165Y-109037949D01*
X109628163Y-109037949D01*
X109446086Y-109113367D01*
X109282218Y-109222861D01*
X109282214Y-109222864D01*
X109142864Y-109362214D01*
X109142861Y-109362218D01*
X109080531Y-109455502D01*
X109032481Y-109493381D01*
X108998216Y-109499500D01*
X101349000Y-109499500D01*
X101290809Y-109480593D01*
X101254845Y-109431093D01*
X101250000Y-109400500D01*
X101250000Y-99901456D01*
X113919500Y-99901456D01*
X113919500Y-100098543D01*
X113957949Y-100291834D01*
X113957949Y-100291836D01*
X114033367Y-100473913D01*
X114033368Y-100473914D01*
X114142861Y-100637782D01*
X114282218Y-100777139D01*
X114446086Y-100886632D01*
X114628165Y-100962051D01*
X114821459Y-101000500D01*
X114821460Y-101000500D01*
X115018540Y-101000500D01*
X115018541Y-101000500D01*
X115211835Y-100962051D01*
X115393914Y-100886632D01*
X115557782Y-100777139D01*
X115697139Y-100637782D01*
X115806632Y-100473914D01*
X115882051Y-100291835D01*
X115920500Y-100098541D01*
X115920500Y-99901459D01*
X115920499Y-99901456D01*
X124079500Y-99901456D01*
X124079500Y-100098543D01*
X124117949Y-100291834D01*
X124117949Y-100291836D01*
X124193367Y-100473913D01*
X124193368Y-100473914D01*
X124302861Y-100637782D01*
X124442218Y-100777139D01*
X124606086Y-100886632D01*
X124788165Y-100962051D01*
X124981459Y-101000500D01*
X124981460Y-101000500D01*
X125178540Y-101000500D01*
X125178541Y-101000500D01*
X125371835Y-100962051D01*
X125553914Y-100886632D01*
X125717782Y-100777139D01*
X125857139Y-100637782D01*
X125966632Y-100473914D01*
X126042051Y-100291835D01*
X126080500Y-100098541D01*
X126080500Y-99901459D01*
X126042051Y-99708165D01*
X125966632Y-99526086D01*
X125857139Y-99362218D01*
X125717782Y-99222861D01*
X125553914Y-99113368D01*
X125553915Y-99113368D01*
X125553913Y-99113367D01*
X125371835Y-99037949D01*
X125178543Y-98999500D01*
X125178541Y-98999500D01*
X124981459Y-98999500D01*
X124981456Y-98999500D01*
X124788165Y-99037949D01*
X124788163Y-99037949D01*
X124606086Y-99113367D01*
X124442218Y-99222861D01*
X124442214Y-99222864D01*
X124302864Y-99362214D01*
X124302861Y-99362218D01*
X124193367Y-99526086D01*
X124117949Y-99708163D01*
X124117949Y-99708165D01*
X124079500Y-99901456D01*
X115920499Y-99901456D01*
X115882051Y-99708165D01*
X115806632Y-99526086D01*
X115697139Y-99362218D01*
X115557782Y-99222861D01*
X115393914Y-99113368D01*
X115393915Y-99113368D01*
X115393913Y-99113367D01*
X115211835Y-99037949D01*
X115018543Y-98999500D01*
X115018541Y-98999500D01*
X114821459Y-98999500D01*
X114821456Y-98999500D01*
X114628165Y-99037949D01*
X114628163Y-99037949D01*
X114446086Y-99113367D01*
X114282218Y-99222861D01*
X114282214Y-99222864D01*
X114142864Y-99362214D01*
X114142861Y-99362218D01*
X114033367Y-99526086D01*
X113957949Y-99708163D01*
X113957949Y-99708165D01*
X113919500Y-99901456D01*
X101250000Y-99901456D01*
X101250000Y-92401456D01*
X108919500Y-92401456D01*
X108919500Y-92598543D01*
X108957949Y-92791834D01*
X108957949Y-92791836D01*
X109033367Y-92973913D01*
X109033368Y-92973914D01*
X109142861Y-93137782D01*
X109282218Y-93277139D01*
X109446086Y-93386632D01*
X109628165Y-93462051D01*
X109821459Y-93500500D01*
X109821460Y-93500500D01*
X110018540Y-93500500D01*
X110018541Y-93500500D01*
X110211835Y-93462051D01*
X110393914Y-93386632D01*
X110557782Y-93277139D01*
X110697139Y-93137782D01*
X110806632Y-92973914D01*
X110835421Y-92904409D01*
X110853148Y-92861615D01*
X110892884Y-92815089D01*
X110944612Y-92800500D01*
X113769563Y-92800500D01*
X113769563Y-92800499D01*
X113845989Y-92780021D01*
X113914511Y-92740460D01*
X113970460Y-92684511D01*
X114253515Y-92401456D01*
X119079500Y-92401456D01*
X119079500Y-92598543D01*
X119117949Y-92791834D01*
X119117949Y-92791836D01*
X119193367Y-92973913D01*
X119193368Y-92973914D01*
X119302861Y-93137782D01*
X119442218Y-93277139D01*
X119606086Y-93386632D01*
X119788165Y-93462051D01*
X119981459Y-93500500D01*
X119981460Y-93500500D01*
X120178540Y-93500500D01*
X120178541Y-93500500D01*
X120371835Y-93462051D01*
X120553914Y-93386632D01*
X120717782Y-93277139D01*
X120857139Y-93137782D01*
X120966632Y-92973914D01*
X121042051Y-92791835D01*
X121080500Y-92598541D01*
X121080500Y-92401459D01*
X121042051Y-92208165D01*
X120966632Y-92026086D01*
X120857139Y-91862218D01*
X120717782Y-91722861D01*
X120553914Y-91613368D01*
X120553915Y-91613368D01*
X120553913Y-91613367D01*
X120371835Y-91537949D01*
X120178543Y-91499500D01*
X120178541Y-91499500D01*
X119981459Y-91499500D01*
X119981456Y-91499500D01*
X119788165Y-91537949D01*
X119788163Y-91537949D01*
X119606086Y-91613367D01*
X119442218Y-91722861D01*
X119442214Y-91722864D01*
X119302864Y-91862214D01*
X119302861Y-91862218D01*
X119193367Y-92026086D01*
X119117949Y-92208163D01*
X119117949Y-92208165D01*
X119079500Y-92401456D01*
X114253515Y-92401456D01*
X120448438Y-86206532D01*
X123949500Y-86206532D01*
X123949500Y-86413467D01*
X123989869Y-86616418D01*
X124069058Y-86807597D01*
X124069059Y-86807598D01*
X124184023Y-86979655D01*
X124330345Y-87125977D01*
X124502402Y-87240941D01*
X124693580Y-87320130D01*
X124896535Y-87360500D01*
X124896536Y-87360500D01*
X125103464Y-87360500D01*
X125103465Y-87360500D01*
X125306420Y-87320130D01*
X125497598Y-87240941D01*
X125669655Y-87125977D01*
X125815977Y-86979655D01*
X125930941Y-86807598D01*
X126010130Y-86616420D01*
X126050500Y-86413465D01*
X126050500Y-86206535D01*
X126010130Y-86003580D01*
X125930941Y-85812402D01*
X125815977Y-85640345D01*
X125669655Y-85494023D01*
X125497598Y-85379059D01*
X125497599Y-85379059D01*
X125497597Y-85379058D01*
X125306418Y-85299869D01*
X125103467Y-85259500D01*
X125103465Y-85259500D01*
X124896535Y-85259500D01*
X124896532Y-85259500D01*
X124693581Y-85299869D01*
X124502402Y-85379058D01*
X124330348Y-85494020D01*
X124184020Y-85640348D01*
X124069058Y-85812402D01*
X123989869Y-86003581D01*
X123949500Y-86206532D01*
X120448438Y-86206532D01*
X122971545Y-83683424D01*
X123900000Y-83683424D01*
X123900000Y-83856575D01*
X123927084Y-84027579D01*
X123980588Y-84192248D01*
X124059195Y-84346524D01*
X124059197Y-84346528D01*
X124123219Y-84434646D01*
X124556328Y-84001536D01*
X124599901Y-84077007D01*
X124692993Y-84170099D01*
X124768460Y-84213670D01*
X124335352Y-84646778D01*
X124423477Y-84710805D01*
X124577751Y-84789411D01*
X124742420Y-84842915D01*
X124913425Y-84870000D01*
X125086575Y-84870000D01*
X125257579Y-84842915D01*
X125422248Y-84789411D01*
X125576524Y-84710804D01*
X125576530Y-84710800D01*
X125664646Y-84646779D01*
X125664646Y-84646778D01*
X125231538Y-84213670D01*
X125307007Y-84170099D01*
X125400099Y-84077007D01*
X125443670Y-84001538D01*
X125876778Y-84434646D01*
X125876779Y-84434646D01*
X125940800Y-84346530D01*
X125940804Y-84346524D01*
X126019411Y-84192248D01*
X126072915Y-84027579D01*
X126100000Y-83856575D01*
X126100000Y-83683424D01*
X126072915Y-83512420D01*
X126019411Y-83347751D01*
X125940805Y-83193477D01*
X125876778Y-83105352D01*
X125443670Y-83538460D01*
X125400099Y-83462993D01*
X125307007Y-83369901D01*
X125231536Y-83326328D01*
X125664646Y-82893219D01*
X125576528Y-82829197D01*
X125576524Y-82829195D01*
X125422248Y-82750588D01*
X125257579Y-82697084D01*
X125086575Y-82670000D01*
X124913425Y-82670000D01*
X124742420Y-82697084D01*
X124577751Y-82750588D01*
X124423476Y-82829195D01*
X124335352Y-82893219D01*
X124768461Y-83326328D01*
X124692993Y-83369901D01*
X124599901Y-83462993D01*
X124556328Y-83538461D01*
X124123219Y-83105352D01*
X124059195Y-83193476D01*
X123980588Y-83347751D01*
X123927084Y-83512420D01*
X123900000Y-83683424D01*
X122971545Y-83683424D01*
X124449708Y-82205261D01*
X124504223Y-82177486D01*
X124557595Y-82183802D01*
X124693580Y-82240130D01*
X124896535Y-82280500D01*
X124896536Y-82280500D01*
X125103464Y-82280500D01*
X125103465Y-82280500D01*
X125306420Y-82240130D01*
X125497598Y-82160941D01*
X125669655Y-82045977D01*
X125815977Y-81899655D01*
X125930941Y-81727598D01*
X126010130Y-81536420D01*
X126050500Y-81333465D01*
X126050500Y-81126535D01*
X126010130Y-80923580D01*
X125930941Y-80732402D01*
X125815977Y-80560345D01*
X125669655Y-80414023D01*
X125607872Y-80372741D01*
X125497597Y-80299058D01*
X125306418Y-80219869D01*
X125103467Y-80179500D01*
X125103465Y-80179500D01*
X124896535Y-80179500D01*
X124896532Y-80179500D01*
X124693581Y-80219869D01*
X124502402Y-80299058D01*
X124330348Y-80414020D01*
X124184020Y-80560348D01*
X124069058Y-80732402D01*
X123989869Y-80923581D01*
X123949500Y-81126532D01*
X123949500Y-81333467D01*
X123989869Y-81536418D01*
X123989870Y-81536420D01*
X124038311Y-81653367D01*
X124046196Y-81672401D01*
X124050997Y-81733398D01*
X124024736Y-81780291D01*
X113634525Y-92170504D01*
X113580008Y-92198281D01*
X113564521Y-92199500D01*
X110944612Y-92199500D01*
X110886421Y-92180593D01*
X110853148Y-92138385D01*
X110806632Y-92026087D01*
X110806632Y-92026086D01*
X110697139Y-91862218D01*
X110557782Y-91722861D01*
X110393914Y-91613368D01*
X110393915Y-91613368D01*
X110393913Y-91613367D01*
X110211835Y-91537949D01*
X110018543Y-91499500D01*
X110018541Y-91499500D01*
X109821459Y-91499500D01*
X109821456Y-91499500D01*
X109628165Y-91537949D01*
X109628163Y-91537949D01*
X109446086Y-91613367D01*
X109282218Y-91722861D01*
X109282214Y-91722864D01*
X109142864Y-91862214D01*
X109142861Y-91862218D01*
X109033367Y-92026086D01*
X108957949Y-92208163D01*
X108957949Y-92208165D01*
X108919500Y-92401456D01*
X101250000Y-92401456D01*
X101250000Y-82441456D01*
X102809500Y-82441456D01*
X102809500Y-82638543D01*
X102847949Y-82831834D01*
X102847949Y-82831836D01*
X102923367Y-83013913D01*
X102923368Y-83013914D01*
X103032861Y-83177782D01*
X103172218Y-83317139D01*
X103336086Y-83426632D01*
X103518165Y-83502051D01*
X103711459Y-83540500D01*
X103711460Y-83540500D01*
X103908540Y-83540500D01*
X103908541Y-83540500D01*
X104101835Y-83502051D01*
X104283914Y-83426632D01*
X104447782Y-83317139D01*
X104587139Y-83177782D01*
X104696632Y-83013914D01*
X104772051Y-82831835D01*
X104810500Y-82638541D01*
X104810500Y-82441459D01*
X104772051Y-82248165D01*
X104696632Y-82066086D01*
X104587139Y-81902218D01*
X104447782Y-81762861D01*
X104283914Y-81653368D01*
X104283915Y-81653368D01*
X104283913Y-81653367D01*
X104101835Y-81577949D01*
X103908543Y-81539500D01*
X103908541Y-81539500D01*
X103711459Y-81539500D01*
X103711456Y-81539500D01*
X103518165Y-81577949D01*
X103518163Y-81577949D01*
X103336086Y-81653367D01*
X103172218Y-81762861D01*
X103172214Y-81762864D01*
X103032864Y-81902214D01*
X103032861Y-81902218D01*
X102923367Y-82066086D01*
X102847949Y-82248163D01*
X102847949Y-82248165D01*
X102809500Y-82441456D01*
X101250000Y-82441456D01*
X101250000Y-79896581D01*
X102760000Y-79896581D01*
X102760000Y-80103418D01*
X102800349Y-80306272D01*
X102879501Y-80497361D01*
X102968022Y-80629843D01*
X103439532Y-80158332D01*
X103489920Y-80245606D01*
X103564394Y-80320080D01*
X103651665Y-80370465D01*
X103180154Y-80841977D01*
X103312625Y-80930491D01*
X103312639Y-80930498D01*
X103503727Y-81009650D01*
X103706581Y-81049999D01*
X103706586Y-81050000D01*
X103913414Y-81050000D01*
X103913418Y-81049999D01*
X104116272Y-81009650D01*
X104307360Y-80930498D01*
X104439843Y-80841976D01*
X103968333Y-80370466D01*
X104055606Y-80320080D01*
X104130080Y-80245606D01*
X104180466Y-80158333D01*
X104651976Y-80629843D01*
X104740498Y-80497360D01*
X104819650Y-80306272D01*
X104859999Y-80103418D01*
X104860000Y-80103413D01*
X104860000Y-79896586D01*
X104859999Y-79896581D01*
X104819650Y-79693727D01*
X104740498Y-79502639D01*
X104740491Y-79502625D01*
X104651976Y-79370154D01*
X104180465Y-79841665D01*
X104130080Y-79754394D01*
X104055606Y-79679920D01*
X103968332Y-79629532D01*
X104439843Y-79158022D01*
X104307361Y-79069501D01*
X104116272Y-78990349D01*
X103913418Y-78950000D01*
X103706581Y-78950000D01*
X103503727Y-78990349D01*
X103312638Y-79069501D01*
X103180155Y-79158022D01*
X103651666Y-79629533D01*
X103564394Y-79679920D01*
X103489920Y-79754394D01*
X103439533Y-79841666D01*
X102968022Y-79370155D01*
X102879501Y-79502638D01*
X102800349Y-79693727D01*
X102760000Y-79896581D01*
X101250000Y-79896581D01*
X101250000Y-77361456D01*
X102809500Y-77361456D01*
X102809500Y-77361459D01*
X102809500Y-77558541D01*
X102847948Y-77751832D01*
X102847949Y-77751834D01*
X102847949Y-77751836D01*
X102923367Y-77933913D01*
X102959699Y-77988288D01*
X103032861Y-78097782D01*
X103172218Y-78237139D01*
X103336086Y-78346632D01*
X103518165Y-78422051D01*
X103711459Y-78460500D01*
X103711460Y-78460500D01*
X103908540Y-78460500D01*
X103908541Y-78460500D01*
X104101835Y-78422051D01*
X104214137Y-78375533D01*
X104275129Y-78370733D01*
X104322023Y-78396994D01*
X104855489Y-78930460D01*
X104855491Y-78930461D01*
X104855492Y-78930462D01*
X104855493Y-78930463D01*
X104924008Y-78970020D01*
X104924006Y-78970020D01*
X104924010Y-78970021D01*
X104924012Y-78970022D01*
X105000438Y-78990500D01*
X123850500Y-78990500D01*
X123908691Y-79009407D01*
X123944655Y-79058907D01*
X123949500Y-79089500D01*
X123949500Y-79559746D01*
X123949501Y-79559758D01*
X123961132Y-79618227D01*
X123961133Y-79618231D01*
X124005448Y-79684552D01*
X124071769Y-79728867D01*
X124116231Y-79737711D01*
X124130241Y-79740498D01*
X124130246Y-79740498D01*
X124130252Y-79740500D01*
X124130253Y-79740500D01*
X125869747Y-79740500D01*
X125869748Y-79740500D01*
X125928231Y-79728867D01*
X125994552Y-79684552D01*
X126038867Y-79618231D01*
X126050500Y-79559748D01*
X126050500Y-77820252D01*
X126038867Y-77761769D01*
X125994552Y-77695448D01*
X125994548Y-77695445D01*
X125928233Y-77651134D01*
X125928231Y-77651133D01*
X125928228Y-77651132D01*
X125928227Y-77651132D01*
X125869758Y-77639501D01*
X125869748Y-77639500D01*
X124130252Y-77639500D01*
X124130251Y-77639500D01*
X124130241Y-77639501D01*
X124071772Y-77651132D01*
X124071766Y-77651134D01*
X124005451Y-77695445D01*
X124005445Y-77695451D01*
X123961134Y-77761766D01*
X123961132Y-77761772D01*
X123949501Y-77820241D01*
X123949500Y-77820253D01*
X123949500Y-78290500D01*
X123930593Y-78348691D01*
X123881093Y-78384655D01*
X123850500Y-78389500D01*
X105205479Y-78389500D01*
X105147288Y-78370593D01*
X105135475Y-78360504D01*
X104746994Y-77972023D01*
X104719217Y-77917506D01*
X104725533Y-77864137D01*
X104772051Y-77751835D01*
X104810500Y-77558541D01*
X104810500Y-77361459D01*
X104772051Y-77168165D01*
X104696632Y-76986086D01*
X104587139Y-76822218D01*
X104447782Y-76682861D01*
X104283914Y-76573368D01*
X104283915Y-76573368D01*
X104283913Y-76573367D01*
X104101835Y-76497949D01*
X103908543Y-76459500D01*
X103908541Y-76459500D01*
X103711459Y-76459500D01*
X103711456Y-76459500D01*
X103518165Y-76497949D01*
X103518163Y-76497949D01*
X103336086Y-76573367D01*
X103172218Y-76682861D01*
X103172214Y-76682864D01*
X103032864Y-76822214D01*
X103032861Y-76822218D01*
X102923367Y-76986086D01*
X102847949Y-77168163D01*
X102847949Y-77168165D01*
X102809500Y-77361456D01*
X101250000Y-77361456D01*
X101250000Y-64901456D01*
X112749500Y-64901456D01*
X112749500Y-65098543D01*
X112787949Y-65291834D01*
X112787949Y-65291836D01*
X112863367Y-65473913D01*
X112863368Y-65473914D01*
X112972861Y-65637782D01*
X113112218Y-65777139D01*
X113276086Y-65886632D01*
X113458165Y-65962051D01*
X113651459Y-66000500D01*
X113651460Y-66000500D01*
X113848540Y-66000500D01*
X113848541Y-66000500D01*
X114041835Y-65962051D01*
X114223914Y-65886632D01*
X114387782Y-65777139D01*
X114527139Y-65637782D01*
X114636632Y-65473914D01*
X114712051Y-65291835D01*
X114750500Y-65098541D01*
X114750500Y-64901459D01*
X114750499Y-64901456D01*
X114749529Y-64896581D01*
X117700000Y-64896581D01*
X117700000Y-65103418D01*
X117740349Y-65306272D01*
X117819501Y-65497361D01*
X117908022Y-65629843D01*
X118379532Y-65158332D01*
X118429920Y-65245606D01*
X118504394Y-65320080D01*
X118591665Y-65370465D01*
X118120154Y-65841977D01*
X118252625Y-65930491D01*
X118252639Y-65930498D01*
X118443727Y-66009650D01*
X118646581Y-66049999D01*
X118646586Y-66050000D01*
X118853414Y-66050000D01*
X118853418Y-66049999D01*
X119056272Y-66009650D01*
X119247360Y-65930498D01*
X119379843Y-65841976D01*
X118908333Y-65370466D01*
X118995606Y-65320080D01*
X119070080Y-65245606D01*
X119120466Y-65158333D01*
X119591976Y-65629843D01*
X119680498Y-65497360D01*
X119759650Y-65306272D01*
X119799999Y-65103418D01*
X119800000Y-65103413D01*
X119800000Y-64896586D01*
X119799999Y-64896581D01*
X119759650Y-64693727D01*
X119680498Y-64502639D01*
X119680491Y-64502625D01*
X119591976Y-64370154D01*
X119120465Y-64841665D01*
X119070080Y-64754394D01*
X118995606Y-64679920D01*
X118908332Y-64629532D01*
X119379843Y-64158022D01*
X119247361Y-64069501D01*
X119056272Y-63990349D01*
X118853418Y-63950000D01*
X118646581Y-63950000D01*
X118443727Y-63990349D01*
X118252638Y-64069501D01*
X118120155Y-64158022D01*
X118591666Y-64629533D01*
X118504394Y-64679920D01*
X118429920Y-64754394D01*
X118379533Y-64841666D01*
X117908022Y-64370155D01*
X117819501Y-64502638D01*
X117740349Y-64693727D01*
X117700000Y-64896581D01*
X114749529Y-64896581D01*
X114739390Y-64845606D01*
X114712051Y-64708165D01*
X114636632Y-64526086D01*
X114527139Y-64362218D01*
X114387782Y-64222861D01*
X114223914Y-64113368D01*
X114223915Y-64113368D01*
X114223913Y-64113367D01*
X114041835Y-64037949D01*
X113848543Y-63999500D01*
X113848541Y-63999500D01*
X113651459Y-63999500D01*
X113651456Y-63999500D01*
X113458165Y-64037949D01*
X113458163Y-64037949D01*
X113276086Y-64113367D01*
X113112218Y-64222861D01*
X113112214Y-64222864D01*
X112972864Y-64362214D01*
X112972861Y-64362218D01*
X112863367Y-64526086D01*
X112787949Y-64708163D01*
X112787949Y-64708165D01*
X112749500Y-64901456D01*
X101250000Y-64901456D01*
X101250000Y-59901456D01*
X113999500Y-59901456D01*
X113999500Y-60098543D01*
X114037949Y-60291834D01*
X114037949Y-60291836D01*
X114113367Y-60473913D01*
X114113368Y-60473914D01*
X114222861Y-60637782D01*
X114362218Y-60777139D01*
X114526086Y-60886632D01*
X114708165Y-60962051D01*
X114901459Y-61000500D01*
X114901460Y-61000500D01*
X115098540Y-61000500D01*
X115098541Y-61000500D01*
X115291835Y-60962051D01*
X115473914Y-60886632D01*
X115637782Y-60777139D01*
X115777139Y-60637782D01*
X115886632Y-60473914D01*
X115962051Y-60291835D01*
X116000500Y-60098541D01*
X116000500Y-59901459D01*
X116000499Y-59901456D01*
X115999529Y-59896581D01*
X118950000Y-59896581D01*
X118950000Y-60103418D01*
X118990349Y-60306272D01*
X119069501Y-60497361D01*
X119158022Y-60629843D01*
X119629532Y-60158332D01*
X119679920Y-60245606D01*
X119754394Y-60320080D01*
X119841665Y-60370465D01*
X119370154Y-60841977D01*
X119502625Y-60930491D01*
X119502639Y-60930498D01*
X119693727Y-61009650D01*
X119896581Y-61049999D01*
X119896586Y-61050000D01*
X120103414Y-61050000D01*
X120103418Y-61049999D01*
X120306272Y-61009650D01*
X120497360Y-60930498D01*
X120629843Y-60841976D01*
X120158333Y-60370466D01*
X120245606Y-60320080D01*
X120320080Y-60245606D01*
X120370466Y-60158333D01*
X120841976Y-60629843D01*
X120930498Y-60497360D01*
X121009650Y-60306272D01*
X121049999Y-60103418D01*
X121050000Y-60103413D01*
X121050000Y-59896586D01*
X121049999Y-59896581D01*
X121009650Y-59693727D01*
X120930498Y-59502639D01*
X120930491Y-59502625D01*
X120841976Y-59370154D01*
X120370465Y-59841665D01*
X120320080Y-59754394D01*
X120245606Y-59679920D01*
X120158332Y-59629532D01*
X120629843Y-59158022D01*
X120497361Y-59069501D01*
X120306272Y-58990349D01*
X120103418Y-58950000D01*
X119896581Y-58950000D01*
X119693727Y-58990349D01*
X119502638Y-59069501D01*
X119370155Y-59158022D01*
X119841666Y-59629533D01*
X119754394Y-59679920D01*
X119679920Y-59754394D01*
X119629533Y-59841666D01*
X119158022Y-59370155D01*
X119069501Y-59502638D01*
X118990349Y-59693727D01*
X118950000Y-59896581D01*
X115999529Y-59896581D01*
X115989390Y-59845606D01*
X115962051Y-59708165D01*
X115886632Y-59526086D01*
X115777139Y-59362218D01*
X115637782Y-59222861D01*
X115473914Y-59113368D01*
X115473915Y-59113368D01*
X115473913Y-59113367D01*
X115291835Y-59037949D01*
X115098543Y-58999500D01*
X115098541Y-58999500D01*
X114901459Y-58999500D01*
X114901456Y-58999500D01*
X114708165Y-59037949D01*
X114708163Y-59037949D01*
X114526086Y-59113367D01*
X114362218Y-59222861D01*
X114362214Y-59222864D01*
X114222864Y-59362214D01*
X114222861Y-59362218D01*
X114113367Y-59526086D01*
X114037949Y-59708163D01*
X114037949Y-59708165D01*
X113999500Y-59901456D01*
X101250000Y-59901456D01*
X101250000Y-52893709D01*
X130649500Y-52893709D01*
X130649500Y-53106290D01*
X130682752Y-53316238D01*
X130748443Y-53518412D01*
X130844948Y-53707815D01*
X130844950Y-53707819D01*
X130969891Y-53879786D01*
X130969893Y-53879788D01*
X130969896Y-53879792D01*
X131120208Y-54030104D01*
X131120211Y-54030106D01*
X131120213Y-54030108D01*
X131292180Y-54155049D01*
X131292184Y-54155051D01*
X131481588Y-54251557D01*
X131683757Y-54317246D01*
X131683758Y-54317246D01*
X131683761Y-54317247D01*
X131893710Y-54350500D01*
X131893713Y-54350500D01*
X132106290Y-54350500D01*
X132316238Y-54317247D01*
X132316239Y-54317246D01*
X132316243Y-54317246D01*
X132518412Y-54251557D01*
X132707816Y-54155051D01*
X132879792Y-54030104D01*
X133030104Y-53879792D01*
X133155051Y-53707816D01*
X133251557Y-53518412D01*
X133317246Y-53316243D01*
X133350500Y-53106287D01*
X133350500Y-52893713D01*
X133350500Y-52893709D01*
X133317247Y-52683761D01*
X133317246Y-52683757D01*
X133251557Y-52481588D01*
X133155051Y-52292184D01*
X133155049Y-52292180D01*
X133030108Y-52120213D01*
X133030106Y-52120211D01*
X133030104Y-52120208D01*
X132879792Y-51969896D01*
X132879788Y-51969893D01*
X132879786Y-51969891D01*
X132707819Y-51844950D01*
X132707815Y-51844948D01*
X132518412Y-51748443D01*
X132316238Y-51682752D01*
X132106290Y-51649500D01*
X132106287Y-51649500D01*
X131893713Y-51649500D01*
X131893710Y-51649500D01*
X131683761Y-51682752D01*
X131481587Y-51748443D01*
X131292184Y-51844948D01*
X131292180Y-51844950D01*
X131120213Y-51969891D01*
X130969891Y-52120213D01*
X130844950Y-52292180D01*
X130844948Y-52292184D01*
X130748443Y-52481587D01*
X130682752Y-52683761D01*
X130649500Y-52893709D01*
X101250000Y-52893709D01*
X101250000Y-51250001D01*
X101250000Y-51250000D01*
X51250000Y-51250000D01*
X51250000Y-118750000D01*
X50500500Y-118750000D01*
X50500500Y-50599500D01*
X50519407Y-50541309D01*
X50568907Y-50505345D01*
X50599500Y-50500500D01*
X134400500Y-50500500D01*
X134458691Y-50519407D01*
G37*
G04 #@! TD.AperFunction*
M02*
