<?xml version="1.0" standalone="no"?>
 <!DOCTYPE svg PUBLIC "-//W3C//DTD SVG 1.1//EN"
 "http://www.w3.org/Graphics/SVG/1.1/DTD/svg11.dtd">
<svg
  xmlns:svg="http://www.w3.org/2000/svg"
  xmlns="http://www.w3.org/2000/svg"
  xmlns:xlink="http://www.w3.org/1999/xlink"
  version="1.1"
  width="46.0248mm" height="34.0360mm" viewBox="0.0000 0.0000 46.0248 34.0360">
<title>SVG Image created as pcb-front.svg date 2026/10/02 20:04:36 </title>
  <desc>Image generated by PCBNEW </desc>
<g style="fill:#000000; fill-opacity:1.0000;stroke:#000000; stroke-opacity:1.0000;
stroke-linecap:round; stroke-linejoin:round;"
 transform="translate(0 0) scale(1 1)">
<path style="fill:#C83434; fill-opacity:1.0000; stroke:none;fill-rule:evenodd;"
d="M 37.6750,20.9125
37.6836,20.8694
37.7079,20.8330
37.7444,20.8086
37.7875,20.8000
38.1625,20.8000
38.2056,20.8086
38.2420,20.8330
38.2664,20.8694
38.2750,20.9125
38.2750,21.1375
38.2664,21.1806
38.2420,21.2171
38.2056,21.2414
38.1625,21.2500
37.7875,21.2500
37.7444,21.2414
37.7079,21.2171
37.6836,21.1806
37.6750,21.1375
Z" />
<path style="fill:#C83434; fill-opacity:1.0000; stroke:none;fill-rule:evenodd;"
d="M 39.7750,20.9125
39.7836,20.8694
39.8079,20.8330
39.8444,20.8086
39.8875,20.8000
40.2625,20.8000
40.3056,20.8086
40.3421,20.8330
40.3664,20.8694
40.3750,20.9125
40.3750,21.1375
40.3664,21.1806
40.3421,21.2171
40.3056,21.2414
40.2625,21.2500
39.8875,21.2500
39.8444,21.2414
39.8079,21.2171
39.7836,21.1806
39.7750,21.1375
Z" />
<path style="fill:#C83434; fill-opacity:1.0000; stroke:none;fill-rule:evenodd;"
d="M 26.3500,23.9250
26.3614,23.8676
26.3939,23.8189
26.4426,23.7864
26.5000,23.7750
27.6750,23.7750
27.7324,23.7864
27.7811,23.8189
27.8136,23.8676
27.8250,23.9250
27.8250,24.2250
27.8136,24.2824
27.7811,24.3311
27.7324,24.3636
27.6750,24.3750
26.5000,24.3750
26.4426,24.3636
26.3939,24.3311
26.3614,24.2824
26.3500,24.2250
Z" />
<path style="fill:#C83434; fill-opacity:1.0000; stroke:none;fill-rule:evenodd;"
d="M 26.3500,25.8250
26.3614,25.7676
26.3939,25.7189
26.4426,25.6864
26.5000,25.6750
27.6750,25.6750
27.7324,25.6864
27.7811,25.7189
27.8136,25.7676
27.8250,25.8250
27.8250,26.1250
27.8136,26.1824
27.7811,26.2311
27.7324,26.2636
27.6750,26.2750
26.5000,26.2750
26.4426,26.2636
26.3939,26.2311
26.3614,26.1824
26.3500,26.1250
Z" />
<path style="fill:#C83434; fill-opacity:1.0000; stroke:none;fill-rule:evenodd;"
d="M 28.2250,24.8750
28.2364,24.8176
28.2689,24.7689
28.3176,24.7364
28.3750,24.7250
29.5500,24.7250
29.6074,24.7364
29.6561,24.7689
29.6886,24.8176
29.7000,24.8750
29.7000,25.1750
29.6886,25.2324
29.6561,25.2811
29.6074,25.3136
29.5500,25.3250
28.3750,25.3250
28.3176,25.3136
28.2689,25.2811
28.2364,25.2324
28.2250,25.1750
Z" />
<path style="fill:#C83434; fill-opacity:1.0000; stroke:none;fill-rule:evenodd;"
d="M 41.1750,25.6050
41.1750,23.9050
42.8750,23.9050
42.8750,25.6050
Z" />
</g>
<g style="fill:#C83434; fill-opacity:1.0000; stroke:none;">
<circle cx="42.0250" cy="27.2950" r="0.8500" />
<path style="fill:#C83434; fill-opacity:1.0000; stroke:none;fill-rule:evenodd;"
d="M 2.1750,19.6050
2.1750,17.9050
3.8750,17.9050
3.8750,19.6050
Z" />
</g>
<g style="fill:#C83434; fill-opacity:1.0000; stroke:none;">
<circle cx="3.0250" cy="21.2950" r="0.8500" />
<path style="fill:#C83434; fill-opacity:1.0000; stroke:none;fill-rule:evenodd;"
d="M 22.8000,18.7500
22.8152,18.6735
22.8586,18.6086
22.9235,18.5652
23.0000,18.5500
23.4000,18.5500
23.4765,18.5652
23.5414,18.6086
23.5848,18.6735
23.6000,18.7500
23.6000,19.3000
23.5848,19.3765
23.5414,19.4414
23.4765,19.4848
23.4000,19.5000
23.0000,19.5000
22.9235,19.4848
22.8586,19.4414
22.8152,19.3765
22.8000,19.3000
Z" />
<path style="fill:#C83434; fill-opacity:1.0000; stroke:none;fill-rule:evenodd;"
d="M 24.4500,18.7500
24.4652,18.6735
24.5086,18.6086
24.5735,18.5652
24.6500,18.5500
25.0500,18.5500
25.1265,18.5652
25.1914,18.6086
25.2348,18.6735
25.2500,18.7500
25.2500,19.3000
25.2348,19.3765
25.1914,19.4414
25.1265,19.4848
25.0500,19.5000
24.6500,19.5000
24.5735,19.4848
24.5086,19.4414
24.4652,19.3765
24.4500,19.3000
Z" />
<path style="fill:#C83434; fill-opacity:1.0000; stroke:none;fill-rule:evenodd;"
d="M 16.8000,21.7500
16.8152,21.6735
16.8586,21.6086
16.9235,21.5652
17.0000,21.5500
17.4000,21.5500
17.4765,21.5652
17.5414,21.6086
17.5848,21.6735
17.6000,21.7500
17.6000,22.3000
17.5848,22.3765
17.5414,22.4414
17.4765,22.4848
17.4000,22.5000
17.0000,22.5000
16.9235,22.4848
16.8586,22.4414
16.8152,22.3765
16.8000,22.3000
Z" />
<path style="fill:#C83434; fill-opacity:1.0000; stroke:none;fill-rule:evenodd;"
d="M 18.4500,21.7500
18.4652,21.6735
18.5086,21.6086
18.5735,21.5652
18.6500,21.5500
19.0500,21.5500
19.1265,21.5652
19.1914,21.6086
19.2348,21.6735
19.2500,21.7500
19.2500,22.3000
19.2348,22.3765
19.1914,22.4414
19.1265,22.4848
19.0500,22.5000
18.6500,22.5000
18.5735,22.4848
18.5086,22.4414
18.4652,22.3765
18.4500,22.3000
Z" />
<path style="fill:#C83434; fill-opacity:1.0000; stroke:none;fill-rule:evenodd;"
d="M 8.5250,3.6437
8.5417,3.5600
8.5891,3.4891
8.6600,3.4417
8.7438,3.4250
9.1813,3.4250
9.2650,3.4417
9.3359,3.4891
9.3833,3.5600
9.4000,3.6437
9.4000,4.4062
9.3833,4.4900
9.3359,4.5609
9.2650,4.6083
9.1813,4.6250
8.7438,4.6250
8.6600,4.6083
8.5891,4.5609
8.5417,4.4900
8.5250,4.4062
Z" />
<path style="fill:#C83434; fill-opacity:1.0000; stroke:none;fill-rule:evenodd;"
d="M 10.6500,3.6437
10.6667,3.5600
10.7141,3.4891
10.7850,3.4417
10.8688,3.4250
11.3063,3.4250
11.3900,3.4417
11.4609,3.4891
11.5083,3.5600
11.5250,3.6437
11.5250,4.4062
11.5083,4.4900
11.4609,4.5609
11.3900,4.6083
11.3063,4.6250
10.8688,4.6250
10.7850,4.6083
10.7141,4.5609
10.6667,4.4900
10.6500,4.4062
Z" />
<path style="fill:#C83434; fill-opacity:1.0000; stroke:none;fill-rule:evenodd;"
d="M 12.5750,25.5500
12.5940,25.4543
12.6482,25.3732
12.7293,25.3190
12.8250,25.3000
13.3250,25.3000
13.4207,25.3190
13.5018,25.3732
13.5560,25.4543
13.5750,25.5500
13.5750,26.5000
13.5560,26.5957
13.5018,26.6768
13.4207,26.7310
13.3250,26.7500
12.8250,26.7500
12.7293,26.7310
12.6482,26.6768
12.5940,26.5957
12.5750,26.5000
Z" />
<path style="fill:#C83434; fill-opacity:1.0000; stroke:none;fill-rule:evenodd;"
d="M 14.4750,25.5500
14.4940,25.4543
14.5482,25.3732
14.6293,25.3190
14.7250,25.3000
15.2250,25.3000
15.3207,25.3190
15.4018,25.3732
15.4560,25.4543
15.4750,25.5500
15.4750,26.5000
15.4560,26.5957
15.4018,26.6768
15.3207,26.7310
15.2250,26.7500
14.7250,26.7500
14.6293,26.7310
14.5482,26.6768
14.4940,26.5957
14.4750,26.5000
Z" />
<path style="fill:#C83434; fill-opacity:1.0000; stroke:none;fill-rule:evenodd;"
d="M 5.9750,19.3750
5.9940,19.2793
6.0482,19.1982
6.1293,19.1440
6.2250,19.1250
6.8750,19.1250
6.9707,19.1440
7.0518,19.1982
7.1060,19.2793
7.1250,19.3750
7.1250,20.6750
7.1060,20.7707
7.0518,20.8518
6.9707,20.9060
6.8750,20.9250
6.2250,20.9250
6.1293,20.9060
6.0482,20.8518
5.9940,20.7707
5.9750,20.6750
Z" />
<path style="fill:#C83434; fill-opacity:1.0000; stroke:none;fill-rule:evenodd;"
d="M 8.9250,19.3750
8.9440,19.2793
8.9982,19.1982
9.0793,19.1440
9.1750,19.1250
9.8250,19.1250
9.9207,19.1440
10.0018,19.1982
10.0560,19.2793
10.0750,19.3750
10.0750,20.6750
10.0560,20.7707
10.0018,20.8518
9.9207,20.9060
9.8250,20.9250
9.1750,20.9250
9.0793,20.9060
8.9982,20.8518
8.9440,20.7707
8.9250,20.6750
Z" />
<path style="fill:#C83434; fill-opacity:1.0000; stroke:none;fill-rule:evenodd;"
d="M 12.5750,3.5500
12.5940,3.4543
12.6482,3.3732
12.7293,3.3190
12.8250,3.3000
13.3250,3.3000
13.4207,3.3190
13.5018,3.3732
13.5560,3.4543
13.5750,3.5500
13.5750,4.5000
13.5560,4.5957
13.5018,4.6768
13.4207,4.7310
13.3250,4.7500
12.8250,4.7500
12.7293,4.7310
12.6482,4.6768
12.5940,4.5957
12.5750,4.5000
Z" />
<path style="fill:#C83434; fill-opacity:1.0000; stroke:none;fill-rule:evenodd;"
d="M 14.4750,3.5500
14.4940,3.4543
14.5482,3.3732
14.6293,3.3190
14.7250,3.3000
15.2250,3.3000
15.3207,3.3190
15.4018,3.3732
15.4560,3.4543
15.4750,3.5500
15.4750,4.5000
15.4560,4.5957
15.4018,4.6768
15.3207,4.7310
15.2250,4.7500
14.7250,4.7500
14.6293,4.7310
14.5482,4.6768
14.4940,4.5957
14.4750,4.5000
Z" />
<path style="fill:#C83434; fill-opacity:1.0000; stroke:none;fill-rule:evenodd;"
d="M 29.9250,19.6500
29.9421,19.5639
29.9909,19.4909
30.0639,19.4421
30.1500,19.4250
30.6000,19.4250
30.6861,19.4421
30.7591,19.4909
30.8079,19.5639
30.8250,19.6500
30.8250,20.4000
30.8079,20.4861
30.7591,20.5591
30.6861,20.6079
30.6000,20.6250
30.1500,20.6250
30.0639,20.6079
29.9909,20.5591
29.9421,20.4861
29.9250,20.4000
Z" />
<path style="fill:#C83434; fill-opacity:1.0000; stroke:none;fill-rule:evenodd;"
d="M 33.2250,19.6500
33.2421,19.5639
33.2909,19.4909
33.3639,19.4421
33.4500,19.4250
33.9000,19.4250
33.9861,19.4421
34.0591,19.4909
34.1079,19.5639
34.1250,19.6500
34.1250,20.4000
34.1079,20.4861
34.0591,20.5591
33.9861,20.6079
33.9000,20.6250
33.4500,20.6250
33.3639,20.6079
33.2909,20.5591
33.2421,20.4861
33.2250,20.4000
Z" />
<path style="fill:#C83434; fill-opacity:1.0000; stroke:none;fill-rule:evenodd;"
d="M 11.8000,8.7750
11.8171,8.6889
11.8659,8.6159
11.9389,8.5671
12.0250,8.5500
12.4750,8.5500
12.5611,8.5671
12.6341,8.6159
12.6829,8.6889
12.7000,8.7750
12.7000,9.2750
12.6829,9.3611
12.6341,9.4341
12.5611,9.4829
12.4750,9.5000
12.0250,9.5000
11.9389,9.4829
11.8659,9.4341
11.8171,9.3611
11.8000,9.2750
Z" />
<path style="fill:#C83434; fill-opacity:1.0000; stroke:none;fill-rule:evenodd;"
d="M 13.3500,8.7750
13.3671,8.6889
13.4159,8.6159
13.4889,8.5671
13.5750,8.5500
14.0250,8.5500
14.1111,8.5671
14.1841,8.6159
14.2329,8.6889
14.2500,8.7750
14.2500,9.2750
14.2329,9.3611
14.1841,9.4341
14.1111,9.4829
14.0250,9.5000
13.5750,9.5000
13.4889,9.4829
13.4159,9.4341
13.3671,9.3611
13.3500,9.2750
Z" />
<path style="fill:#C83434; fill-opacity:1.0000; stroke:none;fill-rule:evenodd;"
d="M 16.8000,3.7750
16.8171,3.6889
16.8659,3.6159
16.9389,3.5671
17.0250,3.5500
17.4750,3.5500
17.5611,3.5671
17.6341,3.6159
17.6829,3.6889
17.7000,3.7750
17.7000,4.2750
17.6829,4.3611
17.6341,4.4341
17.5611,4.4829
17.4750,4.5000
17.0250,4.5000
16.9389,4.4829
16.8659,4.4341
16.8171,4.3611
16.8000,4.2750
Z" />
<path style="fill:#C83434; fill-opacity:1.0000; stroke:none;fill-rule:evenodd;"
d="M 18.3500,3.7750
18.3671,3.6889
18.4159,3.6159
18.4889,3.5671
18.5750,3.5500
19.0250,3.5500
19.1111,3.5671
19.1841,3.6159
19.2329,3.6889
19.2500,3.7750
19.2500,4.2750
19.2329,4.3611
19.1841,4.4341
19.1111,4.4829
19.0250,4.5000
18.5750,4.5000
18.4889,4.4829
18.4159,4.4341
18.3671,4.3611
18.3500,4.2750
Z" />
<path style="fill:#C83434; fill-opacity:1.0000; stroke:none;fill-rule:evenodd;"
d="M 16.8000,24.7500
16.8152,24.6735
16.8586,24.6086
16.9235,24.5652
17.0000,24.5500
17.4000,24.5500
17.4765,24.5652
17.5414,24.6086
17.5848,24.6735
17.6000,24.7500
17.6000,25.3000
17.5848,25.3765
17.5414,25.4414
17.4765,25.4848
17.4000,25.5000
17.0000,25.5000
16.9235,25.4848
16.8586,25.4414
16.8152,25.3765
16.8000,25.3000
Z" />
<path style="fill:#C83434; fill-opacity:1.0000; stroke:none;fill-rule:evenodd;"
d="M 18.4500,24.7500
18.4652,24.6735
18.5086,24.6086
18.5735,24.5652
18.6500,24.5500
19.0500,24.5500
19.1265,24.5652
19.1914,24.6086
19.2348,24.6735
19.2500,24.7500
19.2500,25.3000
19.2348,25.3765
19.1914,25.4414
19.1265,25.4848
19.0500,25.5000
18.6500,25.5000
18.5735,25.4848
18.5086,25.4414
18.4652,25.3765
18.4500,25.3000
Z" />
<path style="fill:#C83434; fill-opacity:1.0000; stroke:none;fill-rule:evenodd;"
d="M 31.4850,4.9450
31.4850,2.9450
33.4850,2.9450
33.4850,4.9450
Z" />
</g>
<g style="fill:#C83434; fill-opacity:1.0000; stroke:none;">
<circle cx="32.4850" cy="6.4850" r="1.0000" />
</g>
<g style="fill:#C83434; fill-opacity:1.0000; stroke:none;">
<circle cx="32.4850" cy="14.1050" r="1.0000" />
</g>
<g style="fill:#C83434; fill-opacity:1.0000; stroke:none;">
<circle cx="37.5650" cy="14.1050" r="1.0000" />
</g>
<g style="fill:#C83434; fill-opacity:1.0000; stroke:none;">
<circle cx="37.5650" cy="6.4850" r="1.0000" />
</g>
<g style="fill:#C83434; fill-opacity:1.0000; stroke:none;">
<circle cx="37.5650" cy="3.9450" r="1.0000" />
<path style="fill:#C83434; fill-opacity:1.0000; stroke:none;fill-rule:evenodd;"
d="M 10.5750,12.9700
10.5864,12.9126
10.6189,12.8639
10.6676,12.8314
10.7250,12.8200
12.3750,12.8200
12.4324,12.8314
12.4811,12.8639
12.5136,12.9126
12.5250,12.9700
12.5250,13.2700
12.5136,13.3274
12.4811,13.3761
12.4324,13.4086
12.3750,13.4200
10.7250,13.4200
10.6676,13.4086
10.6189,13.3761
10.5864,13.3274
10.5750,13.2700
Z" />
<path style="fill:#C83434; fill-opacity:1.0000; stroke:none;fill-rule:evenodd;"
d="M 10.5750,14.2400
10.5864,14.1826
10.6189,14.1339
10.6676,14.1014
10.7250,14.0900
12.3750,14.0900
12.4324,14.1014
12.4811,14.1339
12.5136,14.1826
12.5250,14.2400
12.5250,14.5400
12.5136,14.5974
12.4811,14.6461
12.4324,14.6786
12.3750,14.6900
10.7250,14.6900
10.6676,14.6786
10.6189,14.6461
10.5864,14.5974
10.5750,14.5400
Z" />
<path style="fill:#C83434; fill-opacity:1.0000; stroke:none;fill-rule:evenodd;"
d="M 10.5750,15.5100
10.5864,15.4526
10.6189,15.4039
10.6676,15.3714
10.7250,15.3600
12.3750,15.3600
12.4324,15.3714
12.4811,15.4039
12.5136,15.4526
12.5250,15.5100
12.5250,15.8100
12.5136,15.8674
12.4811,15.9161
12.4324,15.9486
12.3750,15.9600
10.7250,15.9600
10.6676,15.9486
10.6189,15.9161
10.5864,15.8674
10.5750,15.8100
Z" />
<path style="fill:#C83434; fill-opacity:1.0000; stroke:none;fill-rule:evenodd;"
d="M 10.5750,16.7800
10.5864,16.7226
10.6189,16.6739
10.6676,16.6414
10.7250,16.6300
12.3750,16.6300
12.4324,16.6414
12.4811,16.6739
12.5136,16.7226
12.5250,16.7800
12.5250,17.0800
12.5136,17.1374
12.4811,17.1861
12.4324,17.2186
12.3750,17.2300
10.7250,17.2300
10.6676,17.2186
10.6189,17.1861
10.5864,17.1374
10.5750,17.0800
Z" />
<path style="fill:#C83434; fill-opacity:1.0000; stroke:none;fill-rule:evenodd;"
d="M 15.5250,16.7800
15.5364,16.7226
15.5689,16.6739
15.6176,16.6414
15.6750,16.6300
17.3250,16.6300
17.3824,16.6414
17.4311,16.6739
17.4636,16.7226
17.4750,16.7800
17.4750,17.0800
17.4636,17.1374
17.4311,17.1861
17.3824,17.2186
17.3250,17.2300
15.6750,17.2300
15.6176,17.2186
15.5689,17.1861
15.5364,17.1374
15.5250,17.0800
Z" />
<path style="fill:#C83434; fill-opacity:1.0000; stroke:none;fill-rule:evenodd;"
d="M 15.5250,15.5100
15.5364,15.4526
15.5689,15.4039
15.6176,15.3714
15.6750,15.3600
17.3250,15.3600
17.3824,15.3714
17.4311,15.4039
17.4636,15.4526
17.4750,15.5100
17.4750,15.8100
17.4636,15.8674
17.4311,15.9161
17.3824,15.9486
17.3250,15.9600
15.6750,15.9600
15.6176,15.9486
15.5689,15.9161
15.5364,15.8674
15.5250,15.8100
Z" />
<path style="fill:#C83434; fill-opacity:1.0000; stroke:none;fill-rule:evenodd;"
d="M 15.5250,14.2400
15.5364,14.1826
15.5689,14.1339
15.6176,14.1014
15.6750,14.0900
17.3250,14.0900
17.3824,14.1014
17.4311,14.1339
17.4636,14.1826
17.4750,14.2400
17.4750,14.5400
17.4636,14.5974
17.4311,14.6461
17.3824,14.6786
17.3250,14.6900
15.6750,14.6900
15.6176,14.6786
15.5689,14.6461
15.5364,14.5974
15.5250,14.5400
Z" />
<path style="fill:#C83434; fill-opacity:1.0000; stroke:none;fill-rule:evenodd;"
d="M 15.5250,12.9700
15.5364,12.9126
15.5689,12.8639
15.6176,12.8314
15.6750,12.8200
17.3250,12.8200
17.3824,12.8314
17.4311,12.8639
17.4636,12.9126
17.4750,12.9700
17.4750,13.2700
17.4636,13.3274
17.4311,13.3761
17.3824,13.4086
17.3250,13.4200
15.6750,13.4200
15.6176,13.4086
15.5689,13.3761
15.5364,13.3274
15.5250,13.2700
Z" />
<path style="fill:#C83434; fill-opacity:1.0000; stroke:none;fill-rule:evenodd;"
d="M 31.0000,24.4000
31.0190,24.3043
31.0732,24.2232
31.1543,24.1690
31.2500,24.1500
31.8750,24.1500
31.9707,24.1690
32.0518,24.2232
32.1060,24.3043
32.1250,24.4000
32.1250,25.6500
32.1060,25.7457
32.0518,25.8268
31.9707,25.8810
31.8750,25.9000
31.2500,25.9000
31.1543,25.8810
31.0732,25.8268
31.0190,25.7457
31.0000,25.6500
Z" />
<path style="fill:#C83434; fill-opacity:1.0000; stroke:none;fill-rule:evenodd;"
d="M 33.9250,24.4000
33.9440,24.3043
33.9982,24.2232
34.0793,24.1690
34.1750,24.1500
34.8000,24.1500
34.8957,24.1690
34.9768,24.2232
35.0310,24.3043
35.0500,24.4000
35.0500,25.6500
35.0310,25.7457
34.9768,25.8268
34.8957,25.8810
34.8000,25.9000
34.1750,25.9000
34.0793,25.8810
33.9982,25.8268
33.9440,25.7457
33.9250,25.6500
Z" />
<path style="fill:#C83434; fill-opacity:1.0000; stroke:none;fill-rule:evenodd;"
d="M 16.8000,28.7500
16.8152,28.6735
16.8586,28.6086
16.9235,28.5652
17.0000,28.5500
17.4000,28.5500
17.4765,28.5652
17.5414,28.6086
17.5848,28.6735
17.6000,28.7500
17.6000,29.3000
17.5848,29.3765
17.5414,29.4414
17.4765,29.4848
17.4000,29.5000
17.0000,29.5000
16.9235,29.4848
16.8586,29.4414
16.8152,29.3765
16.8000,29.3000
Z" />
<path style="fill:#C83434; fill-opacity:1.0000; stroke:none;fill-rule:evenodd;"
d="M 18.4500,28.7500
18.4652,28.6735
18.5086,28.6086
18.5735,28.5652
18.6500,28.5500
19.0500,28.5500
19.1265,28.5652
19.1914,28.6086
19.2348,28.6735
19.2500,28.7500
19.2500,29.3000
19.2348,29.3765
19.1914,29.4414
19.1265,29.4848
19.0500,29.5000
18.6500,29.5000
18.5735,29.4848
18.5086,29.4414
18.4652,29.3765
18.4500,29.3000
Z" />
<path style="fill:#C83434; fill-opacity:1.0000; stroke:none;fill-rule:evenodd;"
d="M 26.8000,29.7500
26.8152,29.6735
26.8586,29.6086
26.9235,29.5652
27.0000,29.5500
27.4000,29.5500
27.4765,29.5652
27.5414,29.6086
27.5848,29.6735
27.6000,29.7500
27.6000,30.3000
27.5848,30.3765
27.5414,30.4414
27.4765,30.4848
27.4000,30.5000
27.0000,30.5000
26.9235,30.4848
26.8586,30.4414
26.8152,30.3765
26.8000,30.3000
Z" />
<path style="fill:#C83434; fill-opacity:1.0000; stroke:none;fill-rule:evenodd;"
d="M 28.4500,29.7500
28.4652,29.6735
28.5086,29.6086
28.5735,29.5652
28.6500,29.5500
29.0500,29.5500
29.1265,29.5652
29.1914,29.6086
29.2348,29.6735
29.2500,29.7500
29.2500,30.3000
29.2348,30.3765
29.1914,30.4414
29.1265,30.4848
29.0500,30.5000
28.6500,30.5000
28.5735,30.4848
28.5086,30.4414
28.4652,30.3765
28.4500,30.3000
Z" />
<path style="fill:#C83434; fill-opacity:1.0000; stroke:none;fill-rule:evenodd;"
d="M 35.8000,26.7500
35.8152,26.6735
35.8586,26.6086
35.9235,26.5652
36.0000,26.5500
36.4000,26.5500
36.4765,26.5652
36.5414,26.6086
36.5848,26.6735
36.6000,26.7500
36.6000,27.3000
36.5848,27.3765
36.5414,27.4414
36.4765,27.4848
36.4000,27.5000
36.0000,27.5000
35.9235,27.4848
35.8586,27.4414
35.8152,27.3765
35.8000,27.3000
Z" />
<path style="fill:#C83434; fill-opacity:1.0000; stroke:none;fill-rule:evenodd;"
d="M 37.4500,26.7500
37.4652,26.6735
37.5086,26.6086
37.5735,26.5652
37.6500,26.5500
38.0500,26.5500
38.1265,26.5652
38.1914,26.6086
38.2348,26.6735
38.2500,26.7500
38.2500,27.3000
38.2348,27.3765
38.1914,27.4414
38.1265,27.4848
38.0500,27.5000
37.6500,27.5000
37.5735,27.4848
37.5086,27.4414
37.4652,27.3765
37.4500,27.3000
Z" />
<path style="fill:#C83434; fill-opacity:1.0000; stroke:none;fill-rule:evenodd;"
d="M 41.1750,16.6050
41.1750,14.9050
42.8750,14.9050
42.8750,16.6050
Z" />
</g>
<g style="fill:#C83434; fill-opacity:1.0000; stroke:none;">
<circle cx="42.0250" cy="18.2950" r="0.8500" />
<path style="fill:#C83434; fill-opacity:1.0000; stroke:none;fill-rule:evenodd;"
d="M 19.9750,28.3750
19.9940,28.2793
20.0482,28.1982
20.1293,28.1440
20.2250,28.1250
20.8750,28.1250
20.9707,28.1440
21.0518,28.1982
21.1060,28.2793
21.1250,28.3750
21.1250,29.6750
21.1060,29.7707
21.0518,29.8518
20.9707,29.9060
20.8750,29.9250
20.2250,29.9250
20.1293,29.9060
20.0482,29.8518
19.9940,29.7707
19.9750,29.6750
Z" />
<path style="fill:#C83434; fill-opacity:1.0000; stroke:none;fill-rule:evenodd;"
d="M 22.9250,28.3750
22.9440,28.2793
22.9982,28.1982
23.0793,28.1440
23.1750,28.1250
23.8250,28.1250
23.9207,28.1440
24.0018,28.1982
24.0560,28.2793
24.0750,28.3750
24.0750,29.6750
24.0560,29.7707
24.0018,29.8518
23.9207,29.9060
23.8250,29.9250
23.1750,29.9250
23.0793,29.9060
22.9982,29.8518
22.9440,29.7707
22.9250,29.6750
Z" />
<path style="fill:#C83434; fill-opacity:1.0000; stroke:none;fill-rule:evenodd;"
d="M 7.8000,23.7500
7.8152,23.6735
7.8586,23.6086
7.9235,23.5652
8.0000,23.5500
8.4000,23.5500
8.4765,23.5652
8.5414,23.6086
8.5848,23.6735
8.6000,23.7500
8.6000,24.3000
8.5848,24.3765
8.5414,24.4414
8.4765,24.4848
8.4000,24.5000
8.0000,24.5000
7.9235,24.4848
7.8586,24.4414
7.8152,24.3765
7.8000,24.3000
Z" />
<path style="fill:#C83434; fill-opacity:1.0000; stroke:none;fill-rule:evenodd;"
d="M 9.4500,23.7500
9.4652,23.6735
9.5086,23.6086
9.5735,23.5652
9.6500,23.5500
10.0500,23.5500
10.1265,23.5652
10.1914,23.6086
10.2348,23.6735
10.2500,23.7500
10.2500,24.3000
10.2348,24.3765
10.1914,24.4414
10.1265,24.4848
10.0500,24.5000
9.6500,24.5000
9.5735,24.4848
9.5086,24.4414
9.4652,24.3765
9.4500,24.3000
Z" />
<path style="fill:#C83434; fill-opacity:1.0000; stroke:none;fill-rule:evenodd;"
d="M 25.8000,6.7500
25.8152,6.6735
25.8586,6.6086
25.9235,6.5652
26.0000,6.5500
26.4000,6.5500
26.4765,6.5652
26.5414,6.6086
26.5848,6.6735
26.6000,6.7500
26.6000,7.3000
26.5848,7.3765
26.5414,7.4414
26.4765,7.4848
26.4000,7.5000
26.0000,7.5000
25.9235,7.4848
25.8586,7.4414
25.8152,7.3765
25.8000,7.3000
Z" />
<path style="fill:#C83434; fill-opacity:1.0000; stroke:none;fill-rule:evenodd;"
d="M 27.4500,6.7500
27.4652,6.6735
27.5086,6.6086
27.5735,6.5652
27.6500,6.5500
28.0500,6.5500
28.1265,6.5652
28.1914,6.6086
28.2348,6.6735
28.2500,6.7500
28.2500,7.3000
28.2348,7.3765
28.1914,7.4414
28.1265,7.4848
28.0500,7.5000
27.6500,7.5000
27.5735,7.4848
27.5086,7.4414
27.4652,7.3765
27.4500,7.3000
Z" />
<path style="fill:#C83434; fill-opacity:1.0000; stroke:none;fill-rule:evenodd;"
d="M 20.9250,12.8250
20.9250,11.2250
24.1250,11.2250
24.1250,12.8250
Z" />
<path style="fill:#C83434; fill-opacity:1.0000; stroke:none;fill-rule:evenodd;"
d="M 25.9250,12.8250
25.9250,11.2250
29.1250,11.2250
29.1250,12.8250
Z" />
<path style="fill:#C83434; fill-opacity:1.0000; stroke:none;fill-rule:evenodd;"
d="M 21.8000,24.7500
21.8152,24.6735
21.8586,24.6086
21.9235,24.5652
22.0000,24.5500
22.4000,24.5500
22.4765,24.5652
22.5414,24.6086
22.5848,24.6735
22.6000,24.7500
22.6000,25.3000
22.5848,25.3765
22.5414,25.4414
22.4765,25.4848
22.4000,25.5000
22.0000,25.5000
21.9235,25.4848
21.8586,25.4414
21.8152,25.3765
21.8000,25.3000
Z" />
<path style="fill:#C83434; fill-opacity:1.0000; stroke:none;fill-rule:evenodd;"
d="M 23.4500,24.7500
23.4652,24.6735
23.5086,24.6086
23.5735,24.5652
23.6500,24.5500
24.0500,24.5500
24.1265,24.5652
24.1914,24.6086
24.2348,24.6735
24.2500,24.7500
24.2500,25.3000
24.2348,25.3765
24.1914,25.4414
24.1265,25.4848
24.0500,25.5000
23.6500,25.5000
23.5735,25.4848
23.5086,25.4414
23.4652,25.3765
23.4500,25.3000
Z" />
<path style="fill:#C83434; fill-opacity:1.0000; stroke:none;fill-rule:evenodd;"
d="M 2.1750,7.3350
2.1750,5.6350
3.8750,5.6350
3.8750,7.3350
Z" />
</g>
<g style="fill:#C83434; fill-opacity:1.0000; stroke:none;">
<circle cx="3.0250" cy="9.0250" r="0.8500" />
</g>
<g style="fill:#C83434; fill-opacity:1.0000; stroke:none;">
<circle cx="3.0250" cy="11.5650" r="0.8500" />
</g>
<g style="fill:#C83434; fill-opacity:1.0000; stroke:none;">
<circle cx="19.0250" cy="17.0250" r="0.3000" />
</g>
<g style="fill:#C83434; fill-opacity:1.0000; stroke:none;">
<circle cx="34.0250" cy="29.0250" r="0.3000" />
</g>
<g style="fill:#C83434; fill-opacity:1.0000; stroke:none;">
<circle cx="13.0250" cy="6.0250" r="0.3000" />
</g>
<g style="fill:#C83434; fill-opacity:1.0000; stroke:none;">
<circle cx="15.1875" cy="3.9235" r="0.3000" />
</g>
<g style="fill:#C83434; fill-opacity:1.0000; stroke:none;">
<circle cx="23.0250" cy="23.0250" r="0.3000" />
</g>
<g style="fill:#C83434; fill-opacity:1.0000; stroke:none;">
<circle cx="8.0250" cy="28.0250" r="0.3000" />
</g>
<g style="fill:#C83434; fill-opacity:1.0000; stroke:none;">
<circle cx="40.0250" cy="22.0250" r="0.3000" />
</g>
<g style="fill:none;
stroke:#C83434; stroke-width:0.2000; stroke-opacity:1;
stroke-linecap:round; stroke-linejoin:round;">
<path d="M3.0250 6.4850
L4.1767 6.4850
" />
<path d="M32.4850 6.4850
L30.3750 8.5950
" />
<path d="M30.3750 8.5950
L30.3750 20.0250
" />
<path d="M8.9625 4.0250
L6.6367 4.0250
" />
<path d="M6.6367 4.0250
L4.1767 6.4850
" />
<path d="M17.2500 4.0250
L16.1936 5.0814
" />
<path d="M16.1936 5.0814
L14.1314 5.0814
" />
<path d="M14.1314 7.1436
L14.1314 5.0814
" />
<path d="M16.8873 13.1200
L16.5000 13.1200
" />
<path d="M17.8095 14.0422
L16.8873 13.1200
" />
<path d="M16.5000 13.1200
L16.5000 5.3878
" />
<path d="M17.2000 22.0250
L17.8095 21.4155
" />
<path d="M12.2500 9.0250
L14.1314 7.1436
" />
<path d="M16.5000 5.3878
L16.1936 5.0814
" />
<path d="M17.8095 21.4155
L17.8095 14.0422
" />
<path d="M11.0875 4.0250
L13.0750 4.0250
" />
<path d="M14.1314 5.0814
L13.0750 4.0250
" />
</g>
<g style="fill:none;
stroke:#C83434; stroke-width:0.6000; stroke-opacity:1;
stroke-linecap:round; stroke-linejoin:round;">
<path d="M37.1090 23.1833
L39.0675 21.2248
" />
<path d="M31.5625 25.0250
L33.4042 23.1833
" />
<path d="M39.0675 21.2248
L39.8752 21.2248
" />
<path d="M39.8752 21.2248
L40.0750 21.0250
" />
<path d="M33.4042 23.1833
L37.1090 23.1833
" />
</g>
<g style="fill:none;
stroke:#C83434; stroke-width:0.2000; stroke-opacity:1;
stroke-linecap:round; stroke-linejoin:round;">
<path d="M12.2738 21.6012
L9.8500 24.0250
" />
<path d="M16.5000 15.6600
L16.5000 15.0250
" />
<path d="M15.4634 15.0250
L12.2738 18.2146
" />
<path d="M16.5000 15.0250
L15.4634 15.0250
" />
<path d="M16.5000 15.0250
L16.5000 14.3900
" />
<path d="M12.2738 18.2146
L12.2738 21.6012
" />
<path d="M26.2000 7.0250
L26.2000 9.5983
" />
<path d="M23.2000 17.4517
L27.5250 13.1267
" />
<path d="M27.5250 12.0250
L27.5250 10.9233
" />
<path d="M26.2000 9.5983
L27.5250 10.9233
" />
<path d="M27.5250 12.0250
L27.5250 13.1267
" />
<path d="M23.2000 19.0250
L23.2000 17.4517
" />
<path d="M24.5000 30.0250
L23.5000 29.0250
" />
<path d="M27.2000 30.0250
L24.5000 30.0250
" />
<path d="M37.9750 14.5150
L37.5650 14.1050
" />
<path d="M37.9750 21.0250
L37.9750 14.5150
" />
<path d="M33.6750 20.0250
L35.0250 18.6750
" />
<path d="M35.0250 9.0250
L37.5650 6.4850
" />
<path d="M28.9625 24.7375
L33.6750 20.0250
" />
<path d="M28.9625 25.0250
L28.9625 24.7375
" />
<path d="M35.0250 18.6750
L35.0250 9.0250
" />
<path d="M7.4583 15.9983
L3.0250 11.5650
" />
<path d="M11.9939 29.0250
L7.4583 24.4894
" />
<path d="M7.4583 24.4894
L7.4583 15.9983
" />
<path d="M17.2000 29.0250
L11.9939 29.0250
" />
<path d="M6.5500 20.0250
L5.4467 20.0250
" />
<path d="M5.4467 20.0250
L4.1767 18.7550
" />
<path d="M3.0250 18.7550
L4.1767 18.7550
" />
<path d="M31.8500 27.0250
L28.8500 30.0250
" />
<path d="M36.2000 27.0250
L38.4700 24.7550
" />
<path d="M38.4700 24.7550
L42.0250 24.7550
" />
<path d="M36.2000 27.0250
L31.8500 27.0250
" />
<path d="M31.3025 2.6433
L36.2633 2.6433
" />
<path d="M27.8500 6.0958
L31.3025 2.6433
" />
<path d="M36.2633 2.6433
L37.5650 3.9450
" />
<path d="M27.8500 7.0250
L27.8500 6.0958
" />
<path d="M18.8500 29.0250
L18.8500 29.1499
" />
<path d="M27.0875 24.0750
L23.1500 24.0750
" />
<path d="M22.2000 29.1427
L22.2000 25.0250
" />
<path d="M18.8500 29.1499
L19.9614 30.2613
" />
<path d="M19.9614 30.2613
L21.0814 30.2613
" />
<path d="M23.1500 24.0750
L22.2000 25.0250
" />
<path d="M21.0814 30.2613
L22.2000 29.1427
" />
<path d="M8.2000 24.0250
L8.2000 21.3250
" />
<path d="M11.1961 15.6600
L9.5000 17.3561
" />
<path d="M9.5000 17.3561
L9.5000 20.0250
" />
<path d="M8.2000 21.3250
L9.5000 20.0250
" />
<path d="M11.5500 15.6600
L11.1961 15.6600
" />
<path d="M18.0026 9.4776
L20.5500 12.0250
" />
<path d="M10.7272 2.9462
L17.4128 2.9462
" />
<path d="M20.5500 13.7550
L20.5500 12.5116
" />
<path d="M11.5500 13.3203
L11.5500 13.7550
" />
<path d="M17.4128 2.9462
L18.0026 3.5360
" />
<path d="M18.0026 3.5360
L18.0026 9.4776
" />
<path d="M10.3022 3.3712
L10.7272 2.9462
" />
<path d="M20.8182 12.0250
L22.5250 12.0250
" />
<path d="M20.5500 29.0250
L20.5500 13.7892
" />
<path d="M10.3022 11.8722
L10.3022 3.3712
" />
<path d="M11.5500 14.0725
L11.5500 14.3900
" />
<path d="M11.5500 13.1200
L11.5500 13.3203
" />
<path d="M11.5500 13.7550
L11.5500 14.0725
" />
<path d="M11.5500 13.1200
L10.3022 11.8722
" />
<path d="M20.5500 12.0250
L20.7769 12.0250
" />
<path d="M20.5500 13.7892
L20.5500 13.7551
" />
<path d="M20.5500 12.5116
L20.5500 12.0250
" />
<path d="M20.7769 12.0250
L20.8182 12.0250
" />
<path d="M18.8500 22.0250
L18.8500 23.3750
" />
<path d="M16.4372 24.9490
L16.4372 16.9928
" />
<path d="M13.0750 26.0250
L14.1510 24.9490
" />
<path d="M17.1240 24.9490
L17.2000 25.0250
" />
<path d="M16.4372 16.9928
L16.5000 16.9300
" />
<path d="M16.4372 24.9490
L17.1240 24.9490
" />
<path d="M14.1510 24.9490
L16.4372 24.9490
" />
<path d="M18.8500 23.3750
L17.2000 25.0250
" />
<path style="fill:#C83434; fill-opacity:1.0000; stroke:none;fill-rule:evenodd;"
d="M 16.7727,3.2656
16.8087,3.3151
16.8087,3.3763
16.7767,3.4203
16.7773,3.4210
16.7734,3.4249
16.7727,3.4258
16.7727,3.4258
16.7718,3.4265
16.6765,3.5218
16.6153,3.6419
16.6153,3.6419
16.5995,3.7415
16.5995,4.2095
16.5806,4.2677
16.5705,4.2795
16.0981,4.7519
16.0436,4.7797
16.0281,4.7809
14.2969,4.7809
14.2387,4.7620
14.2269,4.7519
13.8045,4.3295
13.7767,4.2750
13.7755,4.2595
13.7755,3.4957
13.7755,3.4957
13.7744,3.4842
13.7726,3.4653
13.7422,3.3784
13.7409,3.3172
13.7757,3.2669
13.8335,3.2467
13.8357,3.2467
16.7145,3.2467
Z" />
<path style="fill:#C83434; fill-opacity:1.0000; stroke:none;fill-rule:evenodd;"
d="M 45.4837,0.5444
45.5197,0.5939
45.5245,0.6245
45.5245,33.4255
45.5056,33.4837
45.4561,33.5197
45.4255,33.5245
0.6245,33.5245
0.5663,33.5056
0.5303,33.4561
0.5255,33.4255
0.5255,30.9187
1.6745,30.9187
1.6745,31.1313
1.7078,31.3412
1.7734,31.5434
1.8699,31.7328
1.8700,31.7328
1.9949,31.9048
1.9949,31.9048
1.9949,31.9048
2.1452,32.0551
2.1452,32.0551
2.1452,32.0551
2.3172,32.1800
2.3172,32.1801
2.5066,32.2766
2.7088,32.3422
2.7088,32.3422
2.7088,32.3422
2.9187,32.3755
2.9187,32.3755
3.1313,32.3755
3.3412,32.3422
3.3412,32.3422
3.3412,32.3422
3.5434,32.2766
3.7328,32.1801
3.9048,32.0551
4.0551,31.9048
4.1801,31.7328
4.2766,31.5434
4.3422,31.3412
4.3755,31.1313
4.3755,30.9187
4.3755,30.9187
4.3422,30.7088
4.3396,30.7005
4.2766,30.5066
4.1801,30.3172
4.1800,30.3172
4.0551,30.1452
4.0551,30.1452
4.0551,30.1452
3.9048,29.9949
3.9048,29.9949
3.9048,29.9949
3.7328,29.8699
3.7328,29.8699
3.5434,29.7734
3.3412,29.7078
3.1313,29.6745
3.1313,29.6745
2.9187,29.6745
2.9187,29.6745
2.7088,29.7078
2.5066,29.7734
2.3172,29.8699
2.3172,29.8699
2.1452,29.9949
1.9949,30.1452
1.8700,30.3172
1.8699,30.3172
1.7734,30.5066
1.7078,30.7088
1.6745,30.9187
0.5255,30.9187
0.5255,21.2084
1.9250,21.2084
1.9250,21.3816
1.9521,21.5526
2.0056,21.7172
2.0842,21.8715
2.0842,21.8715
2.1482,21.9596
2.5813,21.5265
2.6249,21.6020
2.7180,21.6951
2.7935,21.7387
2.3604,22.1718
2.4485,22.2358
2.6028,22.3144
2.7674,22.3679
2.9384,22.3950
3.1116,22.3950
3.2826,22.3679
3.4472,22.3144
3.6015,22.2358
3.6015,22.2358
3.6896,22.1718
3.6896,22.1718
3.2565,21.7387
3.3320,21.6951
3.4251,21.6020
3.4687,21.5265
3.9018,21.9596
3.9018,21.9596
3.9658,21.8715
3.9658,21.8715
4.0444,21.7172
4.0979,21.5526
4.1250,21.3816
4.1250,21.2084
4.0979,21.0374
4.0444,20.8728
3.9658,20.7185
3.9018,20.6304
3.4687,21.0635
3.4251,20.9880
3.3320,20.8949
3.2565,20.8513
3.6896,20.4182
3.6015,20.3542
3.6015,20.3542
3.4472,20.2756
3.2826,20.2221
3.1116,20.1950
2.9384,20.1950
2.7674,20.2221
2.6028,20.2756
2.4485,20.3542
2.3604,20.4182
2.7935,20.8513
2.7180,20.8949
2.6249,20.9880
2.5813,21.0635
2.1482,20.6304
2.0842,20.7185
2.0056,20.8728
1.9521,21.0374
1.9250,21.2084
0.5255,21.2084
0.5255,11.4615
1.9745,11.4615
1.9745,11.6685
2.0149,11.8714
2.0941,12.0626
2.1327,12.1205
2.2090,12.2347
2.3553,12.3810
2.5274,12.4959
2.7186,12.5751
2.9215,12.6155
2.9215,12.6155
3.1285,12.6155
3.1285,12.6155
3.3314,12.5751
3.4674,12.5188
3.5284,12.5140
3.5753,12.5403
7.1288,16.0938
7.1566,16.1483
7.1578,16.1638
7.1578,18.8571
7.1389,18.9153
7.0894,18.9513
7.0282,18.9513
7.0261,18.9506
6.9597,18.9274
6.9597,18.9274
6.9293,18.9245
6.9293,18.9245
6.1707,18.9245
6.1707,18.9245
6.1403,18.9274
6.1403,18.9274
6.0121,18.9722
5.9029,19.0528
5.9028,19.0529
5.8222,19.1621
5.7774,19.2903
5.7774,19.2903
5.7745,19.3207
5.7745,19.6255
5.7697,19.6404
5.7697,19.6561
5.7604,19.6688
5.7556,19.6837
5.7429,19.6929
5.7337,19.7056
5.7188,19.7104
5.7061,19.7197
5.6755,19.7245
5.6122,19.7245
5.5540,19.7056
5.5422,19.6955
4.9969,19.1503
4.3612,18.5145
4.3484,18.5071
4.3196,18.4905
4.3196,18.4905
4.2927,18.4750
4.2163,18.4545
4.2163,18.4545
4.1745,18.4545
4.1163,18.4356
4.0803,18.3861
4.0755,18.3555
4.0755,17.8853
4.0755,17.8852
4.0727,17.8712
4.0639,17.8268
4.0196,17.7604
3.9567,17.7185
3.9532,17.7161
3.9532,17.7161
3.9532,17.7161
3.9532,17.7161
3.8948,17.7045
3.8947,17.7045
2.1553,17.7045
2.1553,17.7045
2.1552,17.7045
2.0968,17.7161
2.0968,17.7161
2.0305,17.7604
2.0304,17.7605
1.9861,17.8268
1.9861,17.8268
1.9745,17.8852
1.9745,17.8853
1.9745,19.6247
1.9745,19.6248
1.9861,19.6832
1.9861,19.6832
2.0304,19.7495
2.0304,19.7496
2.0968,19.7939
2.1412,19.8027
2.1552,19.8055
2.1552,19.8055
2.1553,19.8055
2.1553,19.8055
3.8947,19.8055
3.8947,19.8055
3.9532,19.7939
4.0196,19.7496
4.0639,19.6832
4.0755,19.6247
4.0755,19.3178
4.0944,19.2596
4.1439,19.2236
4.2051,19.2236
4.2445,19.2478
5.2062,20.2095
5.2062,20.2095
5.2622,20.2655
5.3307,20.3050
5.3307,20.3050
5.4071,20.3255
5.4071,20.3255
5.4071,20.3255
5.4863,20.3255
5.6755,20.3255
5.7337,20.3444
5.7697,20.3939
5.7745,20.4245
5.7745,20.7293
5.7774,20.7597
5.7774,20.7597
5.8222,20.8879
5.9028,20.9971
5.9028,20.9971
5.9028,20.9971
5.9029,20.9972
5.9029,20.9972
6.0121,21.0778
6.0121,21.0778
6.0121,21.0778
6.1403,21.1226
6.1707,21.1255
6.1707,21.1255
6.1707,21.1255
6.9293,21.1255
6.9293,21.1255
6.9597,21.1226
7.0261,21.0994
7.0873,21.0980
7.1376,21.1329
7.1578,21.1906
7.1578,21.1929
7.1578,24.5290
7.1783,24.6054
7.1977,24.6390
7.1977,24.6390
7.2150,24.6690
7.2178,24.6739
11.7534,29.2095
11.7534,29.2095
11.8094,29.2655
11.8779,29.3050
11.8779,29.3050
11.9543,29.3255
11.9543,29.3255
11.9543,29.3255
16.5140,29.3255
16.5722,29.3444
16.6081,29.3939
16.6118,29.4090
16.6144,29.4253
16.6144,29.4253
16.6719,29.5383
16.7617,29.6280
16.8747,29.6856
16.9685,29.7005
17.4315,29.7005
17.4315,29.7005
17.4315,29.7005
17.4784,29.6931
17.5253,29.6856
17.5253,29.6856
17.5253,29.6856
17.6383,29.6280
17.7280,29.5383
17.7856,29.4253
17.8005,29.3315
17.8005,28.7185
17.8005,28.7185
17.8005,28.7185
17.7856,28.6247
17.7856,28.6247
17.7856,28.6247
17.7280,28.5117
17.6383,28.4219
17.5253,28.3644
17.5253,28.3644
17.4315,28.3495
16.9685,28.3495
16.9685,28.3495
16.8747,28.3644
16.8747,28.3644
16.7617,28.4219
16.6719,28.5117
16.6144,28.6247
16.6118,28.6410
16.5840,28.6955
16.5295,28.7233
16.5140,28.7245
12.1594,28.7245
12.1012,28.7056
12.0894,28.6955
8.2634,24.8695
8.2356,24.8150
8.2452,24.7546
8.2884,24.7113
8.3334,24.7005
8.4315,24.7005
8.4315,24.7005
8.4784,24.6931
8.5253,24.6856
8.5253,24.6856
8.5253,24.6856
8.6383,24.6280
8.7280,24.5383
8.7856,24.4253
8.8005,24.3315
8.8005,23.7185
8.8005,23.7185
9.2495,23.7185
9.2495,24.3315
9.2495,24.3315
9.2644,24.4253
9.2644,24.4253
9.3219,24.5383
9.4117,24.6280
9.5247,24.6856
9.6185,24.7005
10.0815,24.7005
10.0815,24.7005
10.0815,24.7005
10.1284,24.6931
10.1753,24.6856
10.1753,24.6856
10.1753,24.6856
10.2883,24.6280
10.3780,24.5383
10.4356,24.4253
10.4505,24.3315
10.4505,23.8905
10.4694,23.8323
10.4795,23.8205
12.5143,21.7857
12.5149,21.7845
12.5538,21.7172
12.5743,21.6408
12.5743,18.3801
12.5932,18.3219
12.6033,18.3101
15.1555,15.7579
15.2100,15.7301
15.2704,15.7397
15.3137,15.7829
15.3245,15.8279
15.3245,15.8433
15.3302,15.8823
15.3344,15.9114
15.3576,15.9587
15.3858,16.0165
15.4685,16.0992
15.4910,16.1102
15.5736,16.1506
15.5736,16.1506
15.5736,16.1506
15.6417,16.1605
15.6417,16.1605
17.3583,16.1605
17.3583,16.1605
17.3957,16.1550
17.4180,16.1589
17.4406,16.1589
17.4476,16.1639
17.4560,16.1654
17.4718,16.1815
17.4901,16.1948
17.4928,16.2030
17.4988,16.2092
17.5090,16.2530
17.5090,16.3370
17.4901,16.3952
17.4406,16.4311
17.3957,16.4350
17.3583,16.4295
15.6417,16.4295
15.6077,16.4345
15.5736,16.4394
15.4685,16.4908
15.3858,16.5735
15.3344,16.6786
15.3338,16.6832
15.3245,16.7467
15.3245,17.1133
15.3248,17.1156
15.3344,17.1814
15.3543,17.2221
15.3858,17.2865
15.4685,17.3692
15.4910,17.3802
15.5736,17.4206
15.5736,17.4206
15.5736,17.4206
15.6417,17.4305
16.0377,17.4305
16.0959,17.4494
16.1319,17.4989
16.1367,17.5295
16.1367,24.5495
16.1178,24.6077
16.0683,24.6437
16.0377,24.6485
14.1906,24.6485
14.1114,24.6485
14.0647,24.6610
14.0350,24.6690
13.9665,24.7085
13.9665,24.7085
13.5744,25.1006
13.5199,25.1284
13.4717,25.1241
13.4713,25.1239
13.4097,25.1024
13.4097,25.1024
13.4097,25.1024
13.3793,25.0995
13.3793,25.0995
12.7707,25.0995
12.7707,25.0995
12.7403,25.1024
12.7403,25.1024
12.6121,25.1472
12.5029,25.2278
12.5028,25.2279
12.4222,25.3371
12.3774,25.4653
12.3774,25.4653
12.3745,25.4957
12.3745,26.5543
12.3774,26.5847
12.3774,26.5847
12.4222,26.7129
12.5028,26.8221
12.5028,26.8221
12.5028,26.8221
12.5029,26.8222
12.5029,26.8222
12.6121,26.9028
12.6121,26.9028
12.6121,26.9028
12.7403,26.9476
12.7707,26.9505
12.7707,26.9505
12.7707,26.9505
13.3793,26.9505
13.3793,26.9505
13.4097,26.9476
13.5379,26.9028
13.6471,26.8221
13.7278,26.7129
13.7726,26.5847
13.7755,26.5543
13.7755,26.5543
13.7755,25.7905
13.7944,25.7323
13.8045,25.7205
14.2465,25.2785
14.3010,25.2507
14.3165,25.2495
16.3976,25.2495
16.5020,25.2495
16.5601,25.2684
16.5961,25.3179
16.5997,25.3330
16.6144,25.4253
16.6144,25.4253
16.6719,25.5383
16.7617,25.6280
16.8747,25.6856
16.9685,25.7005
17.4315,25.7005
17.4315,25.7005
17.4315,25.7005
17.5005,25.6896
17.5253,25.6856
17.5253,25.6856
17.5253,25.6856
17.6383,25.6280
17.7280,25.5383
17.7856,25.4253
17.8005,25.3315
17.8005,24.8905
17.8194,24.8323
17.8295,24.8205
19.0905,23.5595
19.1300,23.4910
19.1505,23.4146
19.1505,22.7590
19.1694,22.7008
19.2046,22.6707
19.2883,22.6280
19.3780,22.5383
19.4356,22.4253
19.4505,22.3315
19.4505,21.7185
19.4382,21.6408
19.4356,21.6247
19.4356,21.6247
19.4356,21.6247
19.3780,21.5117
19.2883,21.4219
19.1753,21.3644
19.1753,21.3644
19.0815,21.3495
18.6185,21.3495
18.6185,21.3495
18.5247,21.3644
18.5247,21.3644
18.4117,21.4219
18.3219,21.5117
18.2673,21.6190
18.2660,21.6203
18.2656,21.6222
18.2644,21.6247
18.2495,21.7185
18.2495,22.3315
18.2495,22.3315
18.2644,22.4253
18.2644,22.4253
18.3219,22.5383
18.4117,22.6280
18.4954,22.6707
18.5387,22.7140
18.5495,22.7590
18.5495,23.2095
18.5306,23.2677
18.5205,23.2795
17.4795,24.3205
17.4250,24.3483
17.4095,24.3495
16.9685,24.3495
16.9685,24.3495
16.8747,24.3644
16.8673,24.3668
16.8061,24.3668
16.7566,24.3308
16.7377,24.2726
16.7377,22.7774
16.7566,22.7192
16.8061,22.6832
16.8673,22.6832
16.8747,22.6856
16.8747,22.6856
16.9685,22.7005
17.4315,22.7005
17.4315,22.7005
17.4315,22.7005
17.5005,22.6896
17.5253,22.6856
17.5253,22.6856
17.5253,22.6856
17.6383,22.6280
17.7280,22.5383
17.7856,22.4253
17.8005,22.3315
17.8005,21.8905
17.8194,21.8323
17.8295,21.8205
17.9247,21.7253
18.0500,21.6000
18.0699,21.5655
18.0895,21.5315
18.1100,21.4551
18.1100,14.0026
18.0976,13.9565
18.0895,13.9262
18.0500,13.8577
17.8685,13.6762
17.6821,13.4898
17.6543,13.4353
17.6632,13.3763
17.6656,13.3714
17.6755,13.3033
17.6755,12.9367
17.6656,12.8686
17.6142,12.7635
17.5315,12.6808
17.5278,12.6790
17.4264,12.6294
17.3991,12.6255
17.3583,12.6195
17.3583,12.6195
16.8995,12.6195
16.8413,12.6006
16.8053,12.5511
16.8005,12.5205
16.8005,5.3482
16.8005,5.3482
16.7884,5.3032
16.7800,5.2718
16.7405,5.2033
16.6886,5.1514
16.6608,5.0969
16.6704,5.0365
16.6886,5.0114
16.9705,4.7295
17.0250,4.7017
17.0405,4.7005
17.5085,4.7005
17.5175,4.6991
17.5876,4.6880
17.6480,4.6975
17.6913,4.7408
17.7021,4.7857
17.7021,9.5172
17.7042,9.5250
17.7226,9.5936
17.7481,9.6379
17.7621,9.6621
20.2205,12.1205
20.2483,12.1750
20.2495,12.1905
20.2495,27.8270
20.2306,27.8852
20.1811,27.9211
20.1597,27.9255
20.1403,27.9274
20.1403,27.9274
20.0121,27.9722
19.9029,28.0528
19.9028,28.0529
19.8222,28.1621
19.7774,28.2903
19.7774,28.2903
19.7745,28.3207
19.7745,29.4104
19.7673,29.4325
19.7637,29.4554
19.7581,29.4610
19.7556,29.4686
19.7368,29.4822
19.7204,29.4986
19.7126,29.4999
19.7061,29.5046
19.6829,29.5046
19.6600,29.5082
19.6529,29.5046
19.6449,29.5046
19.6055,29.4804
19.4795,29.3544
19.4517,29.2999
19.4505,29.2844
19.4505,28.7185
19.4505,28.7185
19.4356,28.6247
19.4356,28.6247
19.4356,28.6247
19.3780,28.5117
19.2883,28.4219
19.1753,28.3644
19.1753,28.3644
19.0815,28.3495
18.6185,28.3495
18.6185,28.3495
18.5247,28.3644
18.5247,28.3644
18.4117,28.4219
18.3219,28.5117
18.2644,28.6247
18.2495,28.7185
18.2495,29.3315
18.2495,29.3315
18.2644,29.4253
18.2644,29.4253
18.3219,29.5383
18.4117,29.6280
18.5247,29.6856
18.6185,29.7005
18.9346,29.7005
18.9928,29.7194
19.0046,29.7295
19.7209,30.4458
19.7209,30.4458
19.7769,30.5018
19.8454,30.5413
19.8454,30.5413
19.9218,30.5618
19.9218,30.5618
19.9218,30.5618
21.1210,30.5618
21.1210,30.5618
21.1974,30.5413
21.2659,30.5018
21.3219,30.4458
22.4405,29.3272
22.4759,29.2659
22.4800,29.2587
22.5005,29.1823
22.5005,28.3207
22.7245,28.3207
22.7245,29.7293
22.7274,29.7597
22.7274,29.7597
22.7722,29.8879
22.8528,29.9971
22.8528,29.9971
22.8529,29.9971
22.8529,29.9972
22.8529,29.9972
22.9621,30.0778
22.9621,30.0778
22.9621,30.0778
23.0903,30.1226
23.1207,30.1255
23.1207,30.1255
23.1207,30.1255
23.8793,30.1255
23.8793,30.1255
23.9097,30.1226
24.0379,30.0778
24.0379,30.0778
24.0449,30.0753
24.0460,30.0784
24.0924,30.0704
24.1473,30.0973
24.1484,30.0984
24.3155,30.2655
24.3155,30.2655
24.3840,30.3050
24.3840,30.3050
24.3840,30.3050
24.3840,30.3050
24.4604,30.3255
26.5140,30.3255
26.5722,30.3444
26.6081,30.3939
26.6118,30.4090
26.6144,30.4253
26.6144,30.4253
26.6719,30.5383
26.7617,30.6280
26.8747,30.6856
26.9685,30.7005
27.4315,30.7005
27.4315,30.7005
27.4315,30.7005
27.4784,30.6931
27.5253,30.6856
27.5253,30.6856
27.5253,30.6856
27.6383,30.6280
27.7280,30.5383
27.7856,30.4253
27.8005,30.3315
27.8005,29.7185
27.8005,29.7185
28.2495,29.7185
28.2495,30.3315
28.2495,30.3315
28.2644,30.4253
28.2644,30.4253
28.3219,30.5383
28.4117,30.6280
28.5247,30.6856
28.6185,30.7005
29.0815,30.7005
29.0815,30.7005
29.0815,30.7005
29.1284,30.6931
29.1753,30.6856
29.1753,30.6856
29.1753,30.6856
29.2883,30.6280
29.3780,30.5383
29.4356,30.4253
29.4505,30.3315
29.4505,29.8905
29.4694,29.8323
29.4795,29.8205
31.9455,27.3545
32.0000,27.3267
32.0155,27.3255
35.5140,27.3255
35.5722,27.3444
35.6081,27.3939
35.6118,27.4090
35.6144,27.4253
35.6144,27.4253
35.6719,27.5383
35.7617,27.6280
35.8747,27.6856
35.9685,27.7005
36.4315,27.7005
36.4315,27.7005
36.4315,27.7005
36.4784,27.6931
36.5253,27.6856
36.5253,27.6856
36.5253,27.6856
36.6383,27.6280
36.7280,27.5383
36.7856,27.4253
36.8005,27.3315
36.8005,27.2084
40.9250,27.2084
40.9250,27.3816
40.9521,27.5526
41.0056,27.7172
41.0842,27.8715
41.0842,27.8715
41.1482,27.9596
41.5813,27.5265
41.6249,27.6020
41.7180,27.6951
41.7935,27.7387
41.3604,28.1718
41.4485,28.2358
41.6028,28.3144
41.7674,28.3679
41.9384,28.3950
42.1116,28.3950
42.2826,28.3679
42.4472,28.3144
42.6015,28.2358
42.6015,28.2358
42.6896,28.1718
42.6896,28.1718
42.2565,27.7387
42.3320,27.6951
42.4251,27.6020
42.4687,27.5265
42.9018,27.9596
42.9018,27.9596
42.9658,27.8715
42.9658,27.8715
43.0444,27.7172
43.0979,27.5526
43.1250,27.3816
43.1250,27.2084
43.0979,27.0374
43.0444,26.8728
42.9658,26.7185
42.9018,26.6304
42.4687,27.0635
42.4251,26.9880
42.3320,26.8949
42.2565,26.8513
42.6896,26.4182
42.6015,26.3542
42.6015,26.3542
42.4472,26.2756
42.2826,26.2221
42.1116,26.1950
41.9384,26.1950
41.7674,26.2221
41.6028,26.2756
41.4485,26.3542
41.3604,26.4182
41.7935,26.8513
41.7180,26.8949
41.6249,26.9880
41.5813,27.0635
41.1482,26.6304
41.0842,26.7185
41.0056,26.8728
40.9521,27.0374
40.9250,27.2084
36.8005,27.2084
36.8005,27.0829
36.8005,26.8905
36.8194,26.8323
36.8295,26.8205
37.2640,26.3859
37.7871,25.8629
38.5655,25.0845
38.6200,25.0567
38.6355,25.0555
40.8755,25.0555
40.9337,25.0744
40.9697,25.1239
40.9745,25.1545
40.9745,25.6247
40.9745,25.6248
40.9861,25.6832
40.9861,25.6832
41.0110,25.7205
41.0304,25.7496
41.0968,25.7939
41.1412,25.8027
41.1552,25.8055
41.1552,25.8055
41.1553,25.8055
41.1553,25.8055
42.8947,25.8055
42.8947,25.8055
42.9532,25.7939
43.0196,25.7496
43.0639,25.6832
43.0755,25.6247
43.0755,23.8853
43.0639,23.8268
43.0196,23.7604
42.9575,23.7190
42.9532,23.7161
42.9532,23.7161
42.9532,23.7161
42.9532,23.7161
42.8948,23.7045
42.8947,23.7045
41.1553,23.7045
41.1553,23.7045
41.1552,23.7045
41.0968,23.7161
41.0968,23.7161
41.0305,23.7604
41.0304,23.7605
40.9861,23.8268
40.9861,23.8268
40.9745,23.8852
40.9745,23.8853
40.9745,24.3555
40.9556,24.4137
40.9061,24.4497
40.8755,24.4545
38.5096,24.4545
38.4304,24.4545
38.3837,24.4670
38.3540,24.4750
38.2855,24.5145
38.2855,24.5145
36.4795,26.3205
36.4250,26.3483
36.4095,26.3495
35.9685,26.3495
35.9685,26.3495
35.8747,26.3644
35.8747,26.3644
35.7617,26.4219
35.6719,26.5117
35.6144,26.6247
35.6118,26.6410
35.5840,26.6955
35.5295,26.7233
35.5140,26.7245
31.8896,26.7245
31.8104,26.7245
31.7637,26.7370
31.7340,26.7450
31.6655,26.7845
31.6655,26.7845
29.1295,29.3205
29.0750,29.3483
29.0595,29.3495
28.6185,29.3495
28.6185,29.3495
28.5247,29.3644
28.5247,29.3644
28.4117,29.4219
28.3219,29.5117
28.2644,29.6247
28.2495,29.7185
27.8005,29.7185
27.8005,29.7185
27.7856,29.6247
27.7856,29.6247
27.7856,29.6247
27.7280,29.5117
27.6383,29.4219
27.5253,29.3644
27.5253,29.3644
27.4315,29.3495
26.9685,29.3495
26.9685,29.3495
26.8747,29.3644
26.8747,29.3644
26.7617,29.4219
26.6719,29.5117
26.6144,29.6247
26.6118,29.6410
26.5840,29.6955
26.5295,29.7233
26.5140,29.7245
24.6655,29.7245
24.6073,29.7056
24.5955,29.6955
24.3045,29.4045
24.2767,29.3500
24.2755,29.3345
24.2755,28.3207
24.2755,28.3207
24.2726,28.2903
24.2726,28.2903
24.2278,28.1621
24.1471,28.0528
24.1471,28.0528
24.1471,28.0528
24.0379,27.9722
23.9097,27.9274
23.9097,27.9274
23.8793,27.9245
23.8793,27.9245
23.1207,27.9245
23.1207,27.9245
23.0903,27.9274
23.0903,27.9274
22.9621,27.9722
22.8529,28.0528
22.8528,28.0529
22.7722,28.1621
22.7274,28.2903
22.7274,28.2903
22.7245,28.3207
22.5005,28.3207
22.5005,25.7590
22.5194,25.7008
22.5546,25.6707
22.6383,25.6280
22.7280,25.5383
22.7856,25.4253
22.8005,25.3315
22.8005,24.8905
22.8194,24.8323
22.8295,24.8205
23.2455,24.4045
23.3000,24.3767
23.3155,24.3755
26.1216,24.3755
26.1798,24.3944
26.2056,24.4251
26.2060,24.4248
26.2099,24.4302
26.2106,24.4310
26.2108,24.4315
26.2935,24.5142
26.3429,24.5383
26.3986,24.5656
26.3986,24.5656
26.3986,24.5656
26.4667,24.5755
26.4667,24.5755
27.7083,24.5755
27.7083,24.5755
27.7764,24.5656
27.8815,24.5142
27.9642,24.4315
28.0156,24.3264
28.0255,24.2583
28.0255,23.8917
28.0156,23.8236
28.0140,23.8205
27.9642,23.7185
27.9642,23.7185
27.8815,23.6358
27.8815,23.6358
27.7764,23.5844
27.7491,23.5805
27.7083,23.5745
26.4667,23.5745
26.4327,23.5795
26.3986,23.5844
26.2935,23.6358
26.2108,23.7185
26.2106,23.7190
26.2102,23.7194
26.2060,23.7252
26.2052,23.7246
26.1680,23.7630
26.1216,23.7745
23.1104,23.7745
23.0340,23.7950
22.9911,23.8198
22.9899,23.8205
22.9844,23.8236
22.9844,23.8236
22.9655,23.8345
22.9655,23.8345
22.4795,24.3205
22.4250,24.3483
22.4095,24.3495
21.9685,24.3495
21.9685,24.3495
21.8747,24.3644
21.8747,24.3644
21.7617,24.4219
21.6719,24.5117
21.6144,24.6247
21.5995,24.7185
21.5995,25.3315
21.5995,25.3315
21.6144,25.4253
21.6144,25.4253
21.6719,25.5383
21.7617,25.6280
21.8454,25.6707
21.8887,25.7140
21.8995,25.7590
21.8995,28.9772
21.8806,29.0354
21.8705,29.0472
21.4945,29.4232
21.4400,29.4510
21.3796,29.4414
21.3363,29.3982
21.3255,29.3532
21.3255,28.3207
21.3255,28.3207
21.3226,28.2903
21.3226,28.2903
21.2778,28.1621
21.1972,28.0528
21.1971,28.0528
21.1971,28.0528
21.0879,27.9722
20.9597,27.9274
20.9597,27.9274
20.9403,27.9255
20.8841,27.9013
20.8529,27.8486
20.8505,27.8270
20.8505,18.7185
22.5995,18.7185
22.5995,19.3315
22.5995,19.3315
22.6144,19.4253
22.6144,19.4253
22.6719,19.5383
22.7617,19.6280
22.8747,19.6856
22.9685,19.7005
23.4315,19.7005
23.4315,19.7005
23.4315,19.7005
23.4795,19.6929
23.5253,19.6856
23.5253,19.6856
23.5253,19.6856
23.6383,19.6280
23.7280,19.5383
23.7856,19.4253
23.8005,19.3315
23.8005,18.7185
23.7856,18.6247
23.7280,18.5117
23.6383,18.4219
23.6361,18.4208
23.5546,18.3793
23.5113,18.3360
23.5005,18.2910
23.5005,17.6172
23.5194,17.5590
23.5295,17.5472
27.7655,13.3112
27.8050,13.2427
27.8255,13.1663
27.8255,13.1245
27.8444,13.0663
27.8939,13.0303
27.9245,13.0255
29.1447,13.0255
29.1447,13.0255
29.2032,13.0139
29.2696,12.9696
29.3139,12.9032
29.3255,12.8447
29.3255,11.2053
29.3139,11.1468
29.2696,11.0804
29.2500,11.0674
29.2032,11.0361
29.2032,11.0361
29.2032,11.0361
29.2032,11.0361
29.1448,11.0245
29.1447,11.0245
29.1447,11.0245
27.9245,11.0245
27.8663,11.0056
27.8303,10.9561
27.8255,10.9255
27.8255,10.8837
27.8255,10.8837
27.8050,10.8073
27.8050,10.8073
27.7655,10.7388
27.7095,10.6828
27.7095,10.6828
26.5295,9.5028
26.5017,9.4483
26.5005,9.4328
26.5005,7.7590
26.5194,7.7008
26.5546,7.6707
26.6383,7.6280
26.7280,7.5383
26.7856,7.4253
26.8005,7.3315
26.8005,6.7185
26.8005,6.7185
27.2495,6.7185
27.2495,7.3315
27.2495,7.3315
27.2644,7.4253
27.2644,7.4253
27.3219,7.5383
27.4117,7.6280
27.5247,7.6856
27.6185,7.7005
28.0815,7.7005
28.0815,7.7005
28.0815,7.7005
28.1505,7.6896
28.1753,7.6856
28.1753,7.6856
28.1753,7.6856
28.2883,7.6280
28.3780,7.5383
28.4356,7.4253
28.4505,7.3315
28.4505,6.7185
28.4487,6.7073
28.4356,6.6247
28.4356,6.6247
28.4356,6.6247
28.3780,6.5117
28.2883,6.4219
28.2861,6.4208
28.2046,6.3793
28.1882,6.3629
28.1694,6.3492
28.1669,6.3416
28.1613,6.3360
28.1505,6.2910
28.1505,6.2613
28.1694,6.2031
28.1795,6.1913
31.0660,3.3048
31.1205,3.2770
31.1809,3.2866
31.2242,3.3298
31.2350,3.3748
31.2350,3.7950
31.2350,3.7950
32.0076,3.7950
31.9850,3.8792
31.9850,4.0108
32.0076,4.0950
31.2350,4.0950
31.2350,4.0950
31.2350,4.9696
31.2495,5.0425
31.2495,5.0425
31.3048,5.1252
31.3048,5.1252
31.3875,5.1805
31.3875,5.1805
31.4604,5.1950
31.4604,5.1950
31.9601,5.1950
32.0183,5.2139
32.0542,5.2634
32.0542,5.3246
32.0183,5.3741
32.0050,5.3822
31.9961,5.3867
31.8558,5.4582
31.7029,5.5693
31.5693,5.7029
31.4582,5.8558
31.3725,6.0242
31.3141,6.2039
31.2845,6.3905
31.2845,6.5795
31.3141,6.7661
31.3725,6.9458
31.4163,7.0320
31.4259,7.0924
31.3981,7.1469
30.1905,8.3545
30.1905,8.3545
30.1345,8.4105
30.0950,8.4790
30.0950,8.4790
30.0745,8.5554
30.0745,19.1503
30.0556,19.2084
30.0204,19.2385
29.8968,19.3015
29.8015,19.3968
29.7403,19.5169
29.7403,19.5169
29.7245,19.6165
29.7245,20.4335
29.7403,20.5331
29.7403,20.5331
29.8015,20.6532
29.8015,20.6532
29.8968,20.7485
29.8968,20.7485
30.0169,20.8097
30.0169,20.8097
30.0169,20.8097
30.0925,20.8217
30.1165,20.8255
30.1165,20.8255
30.6335,20.8255
30.6549,20.8221
30.7331,20.8097
30.8532,20.7485
30.9485,20.6532
31.0097,20.5331
31.0255,20.4335
31.0255,19.6165
31.0097,19.5169
31.0097,19.5169
31.0097,19.5169
30.9485,19.3968
30.9485,19.3968
30.8532,19.3015
30.8313,19.2903
30.7296,19.2385
30.6863,19.1952
30.6755,19.1503
30.6755,14.0105
31.2845,14.0105
31.2845,14.1995
31.3141,14.3861
31.3725,14.5658
31.4437,14.7056
31.4582,14.7342
31.5693,14.8871
31.7029,15.0207
31.8558,15.1318
32.0242,15.2175
32.2039,15.2759
32.2039,15.2759
32.2039,15.2759
32.3905,15.3055
32.3905,15.3055
32.5795,15.3055
32.7661,15.2759
32.7661,15.2759
32.7661,15.2759
32.9458,15.2175
33.1142,15.1318
33.2671,15.0207
33.4007,14.8871
33.5118,14.7342
33.5975,14.5658
33.6559,14.3861
33.6844,14.2067
33.6855,14.1995
33.6855,14.0105
33.6559,13.8239
33.6559,13.8239
33.5975,13.6442
33.5118,13.4758
33.4007,13.3229
33.2671,13.1893
33.1142,13.0782
33.1142,13.0782
33.1142,13.0782
32.9458,12.9925
32.7661,12.9341
32.5795,12.9045
32.5795,12.9045
32.3905,12.9045
32.3905,12.9045
32.2039,12.9341
32.0242,12.9925
31.8558,13.0782
31.7029,13.1893
31.5693,13.3229
31.4582,13.4758
31.3725,13.6442
31.3141,13.8239
31.2845,14.0105
30.6755,14.0105
30.6755,8.7605
30.6944,8.7023
30.7045,8.6905
31.8231,7.5719
31.8776,7.5441
31.9380,7.5537
32.0242,7.5975
32.2039,7.6559
32.2039,7.6559
32.2039,7.6559
32.3905,7.6855
32.3905,7.6855
32.5795,7.6855
32.7661,7.6559
32.7661,7.6559
32.7661,7.6559
32.9458,7.5975
33.1142,7.5118
33.2671,7.4007
33.4007,7.2671
33.5118,7.1142
33.5975,6.9458
33.6559,6.7661
33.6635,6.7185
33.6855,6.5795
33.6855,6.3905
33.6559,6.2039
33.6557,6.2031
33.5975,6.0242
33.5118,5.8558
33.4007,5.7029
33.2671,5.5693
33.1142,5.4582
33.1142,5.4582
33.1142,5.4582
32.9739,5.3867
32.9650,5.3822
32.9217,5.3389
32.9121,5.2785
32.9399,5.2240
32.9944,5.1962
33.0099,5.1950
33.5096,5.1950
33.5096,5.1950
33.5825,5.1805
33.5825,5.1805
33.6652,5.1252
33.6652,5.1252
33.7205,5.0425
33.7205,5.0425
33.7350,4.9696
33.7350,4.9696
33.7350,4.0950
33.7350,4.0950
32.9624,4.0950
32.9850,4.0108
32.9850,3.8792
32.9624,3.7950
33.7350,3.7950
33.7350,3.7950
33.7350,3.0428
33.7539,2.9846
33.8034,2.9486
33.8340,2.9438
36.0978,2.9438
36.1560,2.9627
36.1678,2.9728
36.4781,3.2831
36.5059,3.3376
36.4963,3.3980
36.4525,3.4842
36.3941,3.6639
36.3645,3.8505
36.3645,4.0395
36.3941,4.2261
36.4525,4.4058
36.5281,4.5543
36.5382,4.5742
36.6493,4.7271
36.7829,4.8607
36.9358,4.9718
37.1042,5.0575
37.2839,5.1159
37.2839,5.1159
37.2839,5.1159
37.2920,5.1172
37.3465,5.1450
37.3742,5.1995
37.3647,5.2599
37.3214,5.3032
37.2920,5.3128
37.2839,5.3141
37.1042,5.3725
36.9358,5.4582
36.7829,5.5693
36.6493,5.7029
36.5382,5.8558
36.4525,6.0242
36.3941,6.2039
36.3645,6.3905
36.3645,6.5795
36.3941,6.7661
36.4525,6.9458
36.4963,7.0320
36.5059,7.0924
36.4781,7.1469
34.8405,8.7845
34.8405,8.7845
34.7845,8.8405
34.7450,8.9090
34.7450,8.9090
34.7245,8.9854
34.7245,18.5095
34.7056,18.5677
34.6955,18.5795
34.0702,19.2048
34.0157,19.2326
33.9847,19.2326
33.9335,19.2245
33.9335,19.2245
33.4165,19.2245
33.4165,19.2245
33.3169,19.2403
33.3169,19.2403
33.1968,19.3015
33.1015,19.3968
33.0403,19.5169
33.0403,19.5169
33.0245,19.6165
33.0245,20.2095
33.0056,20.2677
32.9955,20.2795
28.7795,24.4955
28.7250,24.5233
28.7095,24.5245
28.3417,24.5245
28.3111,24.5290
28.2736,24.5344
28.1685,24.5858
28.0858,24.6685
28.0344,24.7736
28.0344,24.7736
28.0245,24.8417
28.0245,25.2083
28.0274,25.2279
28.0344,25.2764
28.0614,25.3315
28.0858,25.3815
28.1685,25.4642
28.2223,25.4905
28.2736,25.5156
28.2736,25.5156
28.2736,25.5156
28.3417,25.5255
28.3417,25.5255
29.5833,25.5255
29.5833,25.5255
29.6514,25.5156
29.7565,25.4642
29.8392,25.3815
29.8906,25.2764
29.9005,25.2083
29.9005,24.8417
29.8906,24.7736
29.8392,24.6685
29.7565,24.5858
29.7351,24.5753
29.6911,24.5328
29.6805,24.4725
29.7074,24.4176
29.7085,24.4165
29.7792,24.3457
30.7995,24.3457
30.7995,25.7043
30.8024,25.7347
30.8024,25.7347
30.8472,25.8629
30.9278,25.9721
30.9278,25.9721
30.9278,25.9721
30.9279,25.9722
30.9279,25.9722
31.0371,26.0528
31.0371,26.0528
31.0371,26.0528
31.1653,26.0976
31.1957,26.1005
31.1957,26.1005
31.1957,26.1005
31.9293,26.1005
31.9293,26.1005
31.9597,26.0976
32.0879,26.0528
32.1972,25.9721
32.2778,25.8629
32.3226,25.7347
32.3255,25.7043
32.3255,25.7043
32.3255,25.0108
32.3444,24.9526
32.3545,24.9408
33.5825,23.7128
33.6370,23.6850
33.6525,23.6838
37.1749,23.6838
37.1749,23.6838
37.3022,23.6497
37.3022,23.6497
37.3022,23.6497
37.4163,23.5838
37.4163,23.5838
37.4163,23.5838
39.2458,21.7543
39.3003,21.7265
39.3158,21.7253
39.9411,21.7253
39.9411,21.7253
40.0684,21.6912
40.0684,21.6912
40.0684,21.6912
40.1825,21.6253
40.1825,21.6253
40.1825,21.6253
40.3672,21.4406
40.3953,21.4209
40.4448,21.3978
40.5228,21.3198
40.5695,21.2198
40.5755,21.1742
40.5755,21.0316
40.5755,20.9591
40.5755,20.9511
40.5755,20.9511
40.5755,20.8758
40.5755,20.8758
40.5695,20.8302
40.5695,20.8302
40.5229,20.7302
40.5228,20.7302
40.5228,20.7302
40.4448,20.6521
40.3728,20.6186
40.3652,20.6146
40.2682,20.5586
40.1409,20.5245
40.0091,20.5245
39.9455,20.5416
39.8818,20.5586
39.7878,20.6129
39.7877,20.6129
39.7811,20.6168
39.7052,20.6521
39.6553,20.7021
39.6473,20.7074
39.6267,20.7133
39.6075,20.7231
39.5920,20.7243
39.1334,20.7243
39.0016,20.7243
38.9112,20.7485
38.9112,20.7485
38.8743,20.7584
38.8743,20.7584
38.7602,20.8243
38.7602,20.8243
38.6670,20.9175
38.6670,20.9175
38.6670,20.9175
38.6670,20.9175
38.6443,20.9401
38.5898,20.9679
38.5294,20.9583
38.4861,20.9151
38.4762,20.8790
38.4759,20.8790
38.4756,20.8770
38.4755,20.8766
38.4755,20.8758
38.4755,20.8758
38.4695,20.8302
38.4695,20.8302
38.4229,20.7302
38.4228,20.7302
38.4228,20.7302
38.3448,20.6521
38.3327,20.6465
38.2879,20.6048
38.2755,20.5568
38.2755,18.2084
40.9250,18.2084
40.9250,18.3816
40.9521,18.5526
41.0056,18.7172
41.0842,18.8715
41.0842,18.8715
41.1482,18.9596
41.5813,18.5265
41.6249,18.6020
41.7180,18.6951
41.7935,18.7387
41.3604,19.1718
41.4485,19.2358
41.6028,19.3144
41.7674,19.3679
41.9384,19.3950
42.1116,19.3950
42.2826,19.3679
42.4472,19.3144
42.6015,19.2358
42.6015,19.2358
42.6896,19.1718
42.6896,19.1718
42.2565,18.7387
42.3320,18.6951
42.4251,18.6020
42.4687,18.5265
42.9018,18.9596
42.9018,18.9596
42.9658,18.8715
42.9658,18.8715
43.0444,18.7172
43.0979,18.5526
43.1250,18.3816
43.1250,18.2084
43.0979,18.0374
43.0444,17.8728
42.9658,17.7185
42.9018,17.6304
42.4687,18.0635
42.4251,17.9880
42.3320,17.8949
42.2565,17.8513
42.6896,17.4182
42.6015,17.3542
42.6015,17.3542
42.4472,17.2756
42.2826,17.2221
42.1116,17.1950
41.9384,17.1950
41.7674,17.2221
41.6028,17.2756
41.4485,17.3542
41.3604,17.4182
41.7935,17.8513
41.7180,17.8949
41.6249,17.9880
41.5813,18.0635
41.1482,17.6304
41.0842,17.7185
41.0056,17.8728
40.9521,18.0374
40.9250,18.2084
38.2755,18.2084
38.2755,15.1231
38.2944,15.0649
38.3163,15.0430
38.3471,15.0207
38.3471,15.0207
38.4807,14.8871
38.4820,14.8853
40.9745,14.8853
40.9745,16.6247
40.9745,16.6248
40.9852,16.6786
40.9861,16.6832
41.0304,16.7496
41.0968,16.7939
41.1412,16.8027
41.1552,16.8055
41.1552,16.8055
41.1553,16.8055
41.1553,16.8055
42.8947,16.8055
42.8947,16.8055
42.9532,16.7939
43.0196,16.7496
43.0639,16.6832
43.0755,16.6247
43.0755,14.8853
43.0639,14.8268
43.0196,14.7604
43.0183,14.7596
42.9532,14.7161
42.9532,14.7161
42.9532,14.7161
42.9532,14.7161
42.8948,14.7045
42.8947,14.7045
41.1553,14.7045
41.1553,14.7045
41.1552,14.7045
41.0968,14.7161
41.0968,14.7161
41.0305,14.7604
41.0304,14.7605
40.9861,14.8268
40.9861,14.8268
40.9745,14.8852
40.9745,14.8853
38.4820,14.8853
38.5918,14.7342
38.6775,14.5658
38.7359,14.3861
38.7644,14.2067
38.7655,14.1995
38.7655,14.0105
38.7359,13.8239
38.7359,13.8239
38.6775,13.6442
38.5918,13.4758
38.4807,13.3229
38.3471,13.1893
38.1942,13.0782
38.1942,13.0782
38.1942,13.0782
38.0258,12.9925
37.8461,12.9341
37.6595,12.9045
37.6595,12.9045
37.4705,12.9045
37.4705,12.9045
37.2839,12.9341
37.1042,12.9925
36.9358,13.0782
36.7829,13.1893
36.6493,13.3229
36.5382,13.4758
36.4525,13.6442
36.3941,13.8239
36.3645,14.0105
36.3645,14.1995
36.3941,14.3861
36.4525,14.5658
36.5237,14.7056
36.5382,14.7342
36.6493,14.8871
36.7829,15.0207
36.9358,15.1318
37.1042,15.2175
37.2839,15.2759
37.2839,15.2759
37.2839,15.2759
37.4705,15.3055
37.5755,15.3055
37.6337,15.3244
37.6697,15.3739
37.6745,15.4045
37.6745,20.5568
37.6556,20.6150
37.6173,20.6465
37.6052,20.6521
37.5271,20.7302
37.4805,20.8302
37.4805,20.8302
37.4745,20.8758
37.4745,21.1742
37.4745,21.1742
37.4805,21.2198
37.4805,21.2198
37.5271,21.3198
37.5271,21.3198
37.5271,21.3198
37.6052,21.3978
37.7052,21.4445
37.7508,21.4505
37.8950,21.4505
37.9532,21.4694
37.9891,21.5189
37.9891,21.5801
37.9650,21.6195
36.9307,22.6538
36.8762,22.6816
36.8607,22.6828
33.4701,22.6828
33.3383,22.6828
33.2604,22.7037
33.2110,22.7169
33.0969,22.7828
33.0969,22.7828
31.9592,23.9205
31.9047,23.9483
31.8892,23.9495
31.1957,23.9495
31.1653,23.9524
31.1653,23.9524
31.0371,23.9972
30.9279,24.0778
30.9278,24.0779
30.8472,24.1871
30.8024,24.3153
30.8024,24.3153
30.7995,24.3457
29.7792,24.3457
33.2798,20.8452
33.3343,20.8174
33.3653,20.8174
33.3873,20.8209
33.4165,20.8255
33.4165,20.8255
33.9335,20.8255
33.9549,20.8221
34.0331,20.8097
34.1532,20.7485
34.2485,20.6532
34.3097,20.5331
34.3255,20.4335
34.3255,19.8405
34.3444,19.7823
34.3545,19.7705
35.2655,18.8595
35.2843,18.8270
35.3029,18.7946
35.3029,18.7946
35.3030,18.7946
35.3050,18.7910
35.3255,18.7146
35.3255,9.1905
35.3444,9.1323
35.3545,9.1205
36.9031,7.5719
36.9576,7.5441
37.0180,7.5537
37.1042,7.5975
37.2839,7.6559
37.2839,7.6559
37.2839,7.6559
37.4705,7.6855
37.4705,7.6855
37.6595,7.6855
37.8461,7.6559
37.8461,7.6559
37.8461,7.6559
38.0258,7.5975
38.1942,7.5118
38.3471,7.4007
38.4807,7.2671
38.5918,7.1142
38.6775,6.9458
38.7359,6.7661
38.7435,6.7185
38.7655,6.5795
38.7655,6.3905
38.7359,6.2039
38.7357,6.2031
38.6775,6.0242
38.5918,5.8558
38.4807,5.7029
38.3471,5.5693
38.1942,5.4582
38.1942,5.4582
38.1942,5.4582
38.0258,5.3725
37.8461,5.3141
37.8380,5.3128
37.7835,5.2850
37.7558,5.2305
37.7653,5.1701
37.8086,5.1268
37.8380,5.1172
37.8461,5.1159
37.8461,5.1159
37.8461,5.1159
38.0258,5.0575
38.1942,4.9718
38.3471,4.8607
38.4807,4.7271
38.5918,4.5742
38.6775,4.4058
38.7359,4.2261
38.7432,4.1800
38.7655,4.0395
38.7655,3.8505
38.7359,3.6639
38.7275,3.6380
38.6775,3.4842
38.5918,3.3158
38.4807,3.1629
38.3471,3.0293
38.2997,2.9949
38.2997,2.9949
38.1948,2.9187
41.6745,2.9187
41.6745,3.1313
41.7078,3.3412
41.7734,3.5434
41.8699,3.7328
41.8699,3.7328
41.9949,3.9048
41.9949,3.9048
41.9949,3.9048
42.1452,4.0551
42.1452,4.0551
42.1452,4.0551
42.3172,4.1800
42.3172,4.1801
42.5066,4.2766
42.7088,4.3422
42.7088,4.3422
42.7088,4.3422
42.9187,4.3755
42.9187,4.3755
43.1313,4.3755
43.3412,4.3422
43.3412,4.3422
43.3412,4.3422
43.5434,4.2766
43.7328,4.1801
43.9048,4.0551
44.0551,3.9048
44.1737,3.7415
44.1800,3.7328
44.1801,3.7328
44.2766,3.5434
44.3422,3.3412
44.3428,3.3376
44.3755,3.1313
44.3755,2.9187
44.3422,2.7088
44.3422,2.7088
44.2766,2.5066
44.1801,2.3172
44.1800,2.3172
44.0551,2.1452
44.0551,2.1452
44.0551,2.1452
43.9048,1.9949
43.9048,1.9949
43.9048,1.9949
43.7328,1.8700
43.7328,1.8699
43.5434,1.7734
43.3412,1.7078
43.1313,1.6745
43.1313,1.6745
42.9187,1.6745
42.9187,1.6745
42.7088,1.7078
42.5066,1.7734
42.3172,1.8699
42.3172,1.8700
42.1452,1.9949
41.9949,2.1452
41.8699,2.3172
41.8699,2.3172
41.7734,2.5066
41.7078,2.7088
41.6745,2.9187
38.1948,2.9187
38.1942,2.9182
38.1942,2.9182
38.0258,2.8325
37.8461,2.7741
37.6595,2.7445
37.6595,2.7445
37.4705,2.7445
37.4705,2.7445
37.2839,2.7741
37.1042,2.8325
37.0180,2.8763
36.9576,2.8859
36.9031,2.8581
36.4478,2.4028
36.3793,2.3633
36.3793,2.3633
36.3029,2.3428
36.3029,2.3428
31.2629,2.3428
31.2629,2.3428
31.1865,2.3633
31.1865,2.3633
31.1180,2.4028
27.6655,5.8553
27.6655,5.8553
27.6095,5.9113
27.5700,5.9798
27.5700,5.9798
27.5495,6.0562
27.5495,6.2910
27.5306,6.3492
27.4954,6.3793
27.4117,6.4219
27.3219,6.5117
27.2644,6.6247
27.2495,6.7185
26.8005,6.7185
26.8005,6.7185
26.7856,6.6247
26.7856,6.6247
26.7856,6.6247
26.7280,6.5117
26.6383,6.4219
26.5253,6.3644
26.5253,6.3644
26.4315,6.3495
25.9685,6.3495
25.9685,6.3495
25.8747,6.3644
25.8747,6.3644
25.7617,6.4219
25.6719,6.5117
25.6144,6.6247
25.5995,6.7185
25.5995,7.3315
25.5995,7.3315
25.6144,7.4253
25.6144,7.4253
25.6719,7.5383
25.7617,7.6280
25.8454,7.6707
25.8887,7.7140
25.8995,7.7590
25.8995,9.6379
25.9121,9.6847
25.9200,9.7143
25.9450,9.7576
25.9450,9.7576
25.9450,9.7576
25.9595,9.7828
26.6912,10.5145
27.0322,10.8555
27.0600,10.9100
27.0504,10.9704
27.0072,11.0137
26.9622,11.0245
25.9053,11.0245
25.9053,11.0245
25.9052,11.0245
25.8468,11.0361
25.8468,11.0361
25.7805,11.0804
25.7804,11.0805
25.7361,11.1468
25.7361,11.1468
25.7245,11.2052
25.7245,11.2053
25.7245,12.8447
25.7245,12.8448
25.7361,12.9032
25.7361,12.9032
25.7585,12.9367
25.7804,12.9696
25.8468,13.0139
25.8912,13.0227
25.9052,13.0255
25.9052,13.0255
25.9053,13.0255
26.9622,13.0255
27.0204,13.0444
27.0564,13.0939
27.0564,13.1551
27.0322,13.1945
23.0155,17.2112
23.0155,17.2112
22.9595,17.2672
22.9200,17.3357
22.9200,17.3357
22.8995,17.4121
22.8995,18.2910
22.8806,18.3492
22.8454,18.3793
22.7617,18.4219
22.6719,18.5117
22.6144,18.6247
22.5995,18.7185
20.8505,18.7185
20.8505,13.1245
20.8694,13.0663
20.9189,13.0303
20.9495,13.0255
24.1447,13.0255
24.1447,13.0255
24.2032,13.0139
24.2696,12.9696
24.3139,12.9032
24.3255,12.8447
24.3255,11.2053
24.3139,11.1468
24.2696,11.0804
24.2500,11.0674
24.2032,11.0361
24.2032,11.0361
24.2032,11.0361
24.2032,11.0361
24.1448,11.0245
24.1447,11.0245
20.9053,11.0245
20.9053,11.0245
20.9052,11.0245
20.8468,11.0361
20.8468,11.0361
20.7805,11.0804
20.7804,11.0805
20.7361,11.1468
20.7361,11.1468
20.7245,11.2052
20.7245,11.2053
20.7245,11.5355
20.7056,11.5937
20.6561,11.6297
20.5949,11.6297
20.5555,11.6055
18.3321,9.3821
18.3043,9.3276
18.3031,9.3121
18.3031,3.4964
18.3031,3.4964
18.2826,3.4200
18.2826,3.4200
18.2431,3.3515
18.1871,3.2955
18.1871,3.2955
17.5973,2.7057
17.5973,2.7057
17.5288,2.6662
17.5288,2.6662
17.4524,2.6457
17.4524,2.6457
10.7668,2.6457
10.6876,2.6457
10.6409,2.6582
10.6112,2.6662
10.5427,2.7057
10.5427,2.7057
10.0617,3.1867
10.0222,3.2552
10.0222,3.2552
10.0017,3.3316
10.0017,11.9118
10.0222,11.9882
10.0222,11.9882
10.0222,11.9882
10.0541,12.0434
10.0617,12.0567
10.5335,12.5285
10.5613,12.5830
10.5517,12.6434
10.5210,12.6790
10.5185,12.6808
10.4358,12.7635
10.3844,12.8686
10.3844,12.8686
10.3745,12.9367
10.3745,13.3033
10.3774,13.3229
10.3844,13.3714
10.3868,13.3763
10.4358,13.4765
10.5185,13.5592
10.5723,13.5855
10.6236,13.6106
10.6236,13.6106
10.6236,13.6106
10.6917,13.6205
11.1505,13.6205
11.1654,13.6253
11.1811,13.6253
11.1938,13.6346
11.2087,13.6394
11.2179,13.6521
11.2306,13.6613
11.2354,13.6762
11.2447,13.6889
11.2495,13.7195
11.2495,13.7905
11.2306,13.8487
11.1811,13.8847
11.1505,13.8895
10.6917,13.8895
10.6577,13.8945
10.6236,13.8994
10.5185,13.9508
10.4358,14.0335
10.3844,14.1386
10.3844,14.1386
10.3745,14.2067
10.3745,14.5733
10.3811,14.6187
10.3844,14.6414
10.4153,14.7045
10.4358,14.7465
10.5185,14.8292
10.5410,14.8402
10.6236,14.8806
10.6236,14.8806
10.6236,14.8806
10.6917,14.8905
10.6917,14.8905
12.4083,14.8905
12.4083,14.8905
12.4764,14.8806
12.5815,14.8292
12.6642,14.7465
12.7156,14.6414
12.7255,14.5733
12.7255,14.2067
12.7156,14.1386
12.6642,14.0335
12.5815,13.9508
12.5815,13.9508
12.4764,13.8994
12.4491,13.8955
12.4083,13.8895
12.4083,13.8895
11.9495,13.8895
11.9346,13.8847
11.9189,13.8847
11.9062,13.8754
11.8913,13.8706
11.8821,13.8579
11.8694,13.8487
11.8646,13.8338
11.8553,13.8211
11.8505,13.7905
11.8505,13.7195
11.8694,13.6613
11.9189,13.6253
11.9495,13.6205
12.4083,13.6205
12.4083,13.6205
12.4764,13.6106
12.5815,13.5592
12.6642,13.4765
12.7156,13.3714
12.7255,13.3033
12.7255,12.9367
12.7156,12.8686
12.6642,12.7635
12.5815,12.6808
12.5778,12.6790
12.4764,12.6294
12.4491,12.6255
12.4083,12.6195
12.4083,12.6195
11.5155,12.6195
11.4573,12.6006
11.4455,12.5905
10.6317,11.7767
10.6039,11.7222
10.6027,11.7067
10.6027,4.9024
10.6216,4.8442
10.6711,4.8082
10.7323,4.8082
10.7323,4.8082
10.7376,4.8099
10.7376,4.8100
10.8072,4.8210
10.8358,4.8255
10.8358,4.8255
11.3392,4.8255
11.3678,4.8210
11.4374,4.8100
11.5558,4.7497
11.6497,4.6558
11.7100,4.5374
11.7255,4.4392
11.7255,4.4245
11.7444,4.3663
11.7939,4.3303
11.8245,4.3255
12.2755,4.3255
12.3337,4.3444
12.3697,4.3939
12.3745,4.4245
12.3745,4.5543
12.3774,4.5847
12.3774,4.5847
12.4222,4.7129
12.5028,4.8221
12.5028,4.8221
12.5028,4.8221
12.5029,4.8222
12.5029,4.8222
12.6121,4.9028
12.6121,4.9028
12.6121,4.9028
12.7403,4.9476
12.7707,4.9505
12.7707,4.9505
12.7707,4.9505
13.3793,4.9505
13.3793,4.9505
13.4097,4.9476
13.4717,4.9259
13.5329,4.9246
13.5744,4.9494
13.8019,5.1769
13.8297,5.2314
13.8309,5.2469
13.8309,6.9781
13.8120,7.0363
13.8019,7.0481
12.5295,8.3205
12.4750,8.3483
12.4595,8.3495
11.9915,8.3495
11.8919,8.3653
11.8919,8.3653
11.7718,8.4265
11.6765,8.5218
11.6153,8.6419
11.6153,8.6419
11.5995,8.7415
11.5995,9.3085
11.6153,9.4081
11.6153,9.4081
11.6748,9.5250
11.6765,9.5282
11.7718,9.6235
11.7718,9.6235
11.8919,9.6847
11.8919,9.6847
11.8919,9.6847
11.9675,9.6967
11.9915,9.7005
11.9915,9.7005
12.5085,9.7005
12.5299,9.6971
12.6081,9.6847
12.7282,9.6235
12.8235,9.5282
12.8847,9.4081
12.9005,9.3085
12.9005,8.8405
12.9194,8.7823
12.9295,8.7705
14.3719,7.3281
14.4080,7.2655
14.4114,7.2596
14.4319,7.1832
14.4319,5.4809
14.4508,5.4227
14.5003,5.3867
14.5309,5.3819
16.0281,5.3819
16.0357,5.3844
16.0436,5.3831
16.0643,5.3936
16.0863,5.4008
16.0981,5.4109
16.1705,5.4833
16.1983,5.5378
16.1995,5.5533
16.1995,12.5205
16.1806,12.5787
16.1311,12.6147
16.1005,12.6195
15.6417,12.6195
15.6077,12.6245
15.5736,12.6294
15.4685,12.6808
15.3858,12.7635
15.3344,12.8686
15.3344,12.8686
15.3245,12.9367
15.3245,13.3033
15.3274,13.3229
15.3344,13.3714
15.3368,13.3763
15.3858,13.4765
15.4685,13.5592
15.5223,13.5855
15.5736,13.6106
15.5736,13.6106
15.5736,13.6106
15.6417,13.6205
16.9218,13.6205
16.9294,13.6230
16.9373,13.6217
16.9580,13.6322
16.9800,13.6394
16.9918,13.6495
17.0628,13.7205
17.0906,13.7750
17.0810,13.8354
17.0378,13.8787
16.9928,13.8895
15.6417,13.8895
15.6077,13.8945
15.5736,13.8994
15.4685,13.9508
15.3858,14.0335
15.3344,14.1386
15.3344,14.1386
15.3245,14.2067
15.3245,14.5733
15.3302,14.6122
15.3344,14.6414
15.3362,14.6450
15.3448,14.7056
15.3161,14.7596
15.2968,14.7742
15.2789,14.7845
12.0893,17.9741
12.0893,17.9741
12.0333,18.0301
11.9938,18.0986
11.9938,18.0986
11.9733,18.1750
11.9733,21.4357
11.9544,21.4939
11.9443,21.5057
10.1295,23.3205
10.0750,23.3483
10.0595,23.3495
9.6185,23.3495
9.6185,23.3495
9.5247,23.3644
9.5247,23.3644
9.4117,23.4219
9.3219,23.5117
9.2644,23.6247
9.2495,23.7185
8.8005,23.7185
8.8005,23.7185
8.7856,23.6247
8.7856,23.6247
8.7856,23.6247
8.7280,23.5117
8.6383,23.4219
8.6238,23.4146
8.5546,23.3793
8.5113,23.3360
8.5005,23.2910
8.5005,21.4905
8.5194,21.4323
8.5295,21.4205
8.8516,21.0984
8.9061,21.0706
8.9541,21.0782
8.9551,21.0753
8.9766,21.0829
9.0903,21.1226
9.1207,21.1255
9.1207,21.1255
9.1207,21.1255
9.8793,21.1255
9.8793,21.1255
9.9097,21.1226
10.0379,21.0778
10.1471,20.9971
10.2278,20.8879
10.2726,20.7597
10.2755,20.7293
10.2755,20.7293
10.2755,19.3207
10.2755,19.3207
10.2749,19.3144
10.2726,19.2903
10.2278,19.1621
10.1663,19.0788
10.1472,19.0529
10.1472,19.0529
10.1471,19.0528
10.1471,19.0528
10.1471,19.0528
10.0379,18.9722
9.9097,18.9274
9.9097,18.9274
9.8903,18.9255
9.8341,18.9013
9.8029,18.8486
9.8005,18.8270
9.8005,17.5216
9.8194,17.4634
9.8295,17.4516
11.0916,16.1895
11.1461,16.1617
11.1616,16.1605
12.4083,16.1605
12.4083,16.1605
12.4764,16.1506
12.5815,16.0992
12.6642,16.0165
12.7156,15.9114
12.7255,15.8433
12.7255,15.4767
12.7156,15.4086
12.7136,15.4045
12.6642,15.3035
12.6642,15.3035
12.5815,15.2208
12.5748,15.2175
12.4764,15.1694
12.4457,15.1650
12.4083,15.1595
10.6917,15.1595
10.6577,15.1645
10.6236,15.1694
10.5185,15.2208
10.4358,15.3035
10.3844,15.4086
10.3844,15.4086
10.3745,15.4767
10.3745,15.8433
10.3802,15.8823
10.3844,15.9114
10.3978,15.9388
10.4064,15.9994
10.3789,16.0523
9.3155,17.1156
9.3155,17.1156
9.2595,17.1716
9.2200,17.2401
9.2200,17.2401
9.1995,17.3165
9.1995,18.8270
9.1806,18.8852
9.1311,18.9211
9.1097,18.9255
9.0903,18.9274
9.0903,18.9274
8.9621,18.9722
8.8529,19.0528
8.8528,19.0529
8.7722,19.1621
8.7274,19.2903
8.7274,19.2903
8.7245,19.3207
8.7245,20.3345
8.7056,20.3927
8.6955,20.4045
8.0155,21.0845
8.0155,21.0845
7.9595,21.1405
7.9435,21.1682
7.8981,21.2091
7.8372,21.2155
7.7842,21.1850
7.7593,21.1291
7.7588,21.1187
7.7588,15.9587
7.7588,15.9587
7.7383,15.8823
7.7383,15.8823
7.6988,15.8138
7.6428,15.7578
7.6428,15.7578
4.0003,12.1153
3.9725,12.0608
3.9788,12.0074
4.0351,11.8714
4.0755,11.6685
4.0755,11.4615
4.0351,11.2586
3.9559,11.0674
3.8410,10.8953
3.6947,10.7490
3.6793,10.7388
3.5226,10.6341
3.3314,10.5549
3.1285,10.5145
3.1285,10.5145
2.9215,10.5145
2.9215,10.5145
2.7186,10.5549
2.5274,10.6341
2.3553,10.7490
2.2090,10.8953
2.0941,11.0674
2.0149,11.2586
1.9745,11.4615
0.5255,11.4615
0.5255,8.9384
1.9250,8.9384
1.9250,9.1116
1.9521,9.2826
2.0056,9.4472
2.0842,9.6015
2.0842,9.6015
2.1482,9.6896
2.5813,9.2565
2.6249,9.3320
2.7180,9.4251
2.7935,9.4687
2.3604,9.9018
2.4485,9.9658
2.6028,10.0444
2.7674,10.0979
2.9384,10.1250
3.1116,10.1250
3.2826,10.0979
3.4472,10.0444
3.6015,9.9658
3.6015,9.9658
3.6896,9.9018
3.6896,9.9018
3.2565,9.4687
3.3320,9.4251
3.4251,9.3320
3.4687,9.2565
3.9018,9.6896
3.9018,9.6896
3.9658,9.6015
3.9658,9.6015
4.0444,9.4472
4.0979,9.2826
4.1250,9.1116
4.1250,8.9384
4.0979,8.7674
4.0444,8.6028
3.9658,8.4485
3.9018,8.3604
3.4687,8.7935
3.4251,8.7180
3.3320,8.6249
3.2565,8.5813
3.6896,8.1482
3.6015,8.0842
3.6015,8.0842
3.4472,8.0056
3.2826,7.9521
3.1116,7.9250
2.9384,7.9250
2.7674,7.9521
2.6028,8.0056
2.4485,8.0842
2.3604,8.1482
2.7935,8.5813
2.7180,8.6249
2.6249,8.7180
2.5813,8.7935
2.1482,8.3604
2.0842,8.4485
2.0056,8.6028
1.9521,8.7674
1.9250,8.9384
0.5255,8.9384
0.5255,5.6153
1.9745,5.6153
1.9745,7.3547
1.9745,7.3548
1.9861,7.4132
1.9861,7.4132
1.9942,7.4253
2.0304,7.4796
2.0968,7.5239
2.1412,7.5327
2.1552,7.5355
2.1552,7.5355
2.1553,7.5355
2.1553,7.5355
3.8947,7.5355
3.8947,7.5355
3.9532,7.5239
4.0196,7.4796
4.0639,7.4132
4.0755,7.3547
4.0755,6.8845
4.0944,6.8263
4.1439,6.7903
4.1745,6.7855
4.2163,6.7855
4.2163,6.7855
4.2927,6.7650
4.3612,6.7255
4.4172,6.6695
6.7322,4.3545
6.7867,4.3267
6.8022,4.3255
8.2255,4.3255
8.2837,4.3444
8.3197,4.3939
8.3245,4.4245
8.3245,4.4392
8.3400,4.5374
8.3400,4.5374
8.3588,4.5742
8.4003,4.6558
8.4942,4.7497
8.6126,4.8100
8.6791,4.8205
8.7108,4.8255
8.7108,4.8255
9.2142,4.8255
9.2428,4.8210
9.3124,4.8100
9.4308,4.7497
9.5247,4.6558
9.5850,4.5374
9.6005,4.4392
9.6005,3.6108
9.5850,3.5126
9.5247,3.3942
9.4308,3.3003
9.3652,3.2669
9.3124,3.2400
9.3124,3.2400
9.2879,3.2362
9.2142,3.2245
9.2142,3.2245
8.7108,3.2245
8.7108,3.2245
8.6126,3.2400
8.6126,3.2400
8.4942,3.3003
8.4003,3.3942
8.3400,3.5126
8.3400,3.5126
8.3245,3.6108
8.3245,3.6255
8.3056,3.6837
8.2561,3.7197
8.2255,3.7245
6.5971,3.7245
6.5207,3.7450
6.4938,3.7605
6.4938,3.7605
6.4522,3.7845
4.2445,5.9922
4.1900,6.0200
4.1296,6.0104
4.0863,5.9672
4.0755,5.9222
4.0755,5.6153
4.0755,5.6152
4.0727,5.6012
4.0639,5.5568
4.0196,5.4904
4.0195,5.4904
3.9532,5.4461
3.9532,5.4461
3.9532,5.4461
3.9532,5.4461
3.8948,5.4345
3.8947,5.4345
2.1553,5.4345
2.1553,5.4345
2.1552,5.4345
2.0968,5.4461
2.0968,5.4461
2.0305,5.4904
2.0304,5.4905
1.9861,5.5568
1.9861,5.5568
1.9745,5.6152
1.9745,5.6153
0.5255,5.6153
0.5255,0.6245
0.5444,0.5663
0.5939,0.5303
0.6245,0.5255
45.4255,0.5255
Z" />
</g>
<g style="fill:#FFFFFF; fill-opacity:1.0000; stroke:none;">
<circle cx="19.0250" cy="17.0250" r="0.1500" />
</g>
<g style="fill:#FFFFFF; fill-opacity:1.0000; stroke:none;">
<circle cx="34.0250" cy="29.0250" r="0.1500" />
</g>
<g style="fill:#FFFFFF; fill-opacity:1.0000; stroke:none;">
<circle cx="13.0250" cy="6.0250" r="0.1500" />
</g>
<g style="fill:#FFFFFF; fill-opacity:1.0000; stroke:none;">
<circle cx="15.1875" cy="3.9235" r="0.1500" />
</g>
<g style="fill:#FFFFFF; fill-opacity:1.0000; stroke:none;">
<circle cx="23.0250" cy="23.0250" r="0.1500" />
</g>
<g style="fill:#FFFFFF; fill-opacity:1.0000; stroke:none;">
<circle cx="8.0250" cy="28.0250" r="0.1500" />
</g>
<g style="fill:#FFFFFF; fill-opacity:1.0000; stroke:none;">
<circle cx="40.0250" cy="22.0250" r="0.1500" />
</g>
<g style="fill:#FFFFFF; fill-opacity:1.0000; stroke:none;">
<circle cx="42.0250" cy="24.7550" r="0.5000" />
</g>
<g style="fill:#FFFFFF; fill-opacity:1.0000; stroke:none;">
<circle cx="42.0250" cy="27.2950" r="0.5000" />
</g>
<g style="fill:#FFFFFF; fill-opacity:1.0000; stroke:none;">
<circle cx="3.0250" cy="18.7550" r="0.5000" />
</g>
<g style="fill:#FFFFFF; fill-opacity:1.0000; stroke:none;">
<circle cx="3.0250" cy="21.2950" r="0.5000" />
</g>
<g style="fill:#FFFFFF; fill-opacity:1.0000; stroke:none;">
<circle cx="3.0250" cy="31.0250" r="1.1000" />
</g>
<g style="fill:#FFFFFF; fill-opacity:1.0000; stroke:none;">
<circle cx="43.0250" cy="3.0250" r="1.1000" />
</g>
<g style="fill:#FFFFFF; fill-opacity:1.0000; stroke:none;">
<circle cx="32.4850" cy="3.9450" r="0.5000" />
</g>
<g style="fill:#FFFFFF; fill-opacity:1.0000; stroke:none;">
<circle cx="32.4850" cy="6.4850" r="0.5000" />
</g>
<g style="fill:#FFFFFF; fill-opacity:1.0000; stroke:none;">
<circle cx="32.4850" cy="14.1050" r="0.5000" />
</g>
<g style="fill:#FFFFFF; fill-opacity:1.0000; stroke:none;">
<circle cx="37.5650" cy="14.1050" r="0.5000" />
</g>
<g style="fill:#FFFFFF; fill-opacity:1.0000; stroke:none;">
<circle cx="37.5650" cy="6.4850" r="0.5000" />
</g>
<g style="fill:#FFFFFF; fill-opacity:1.0000; stroke:none;">
<circle cx="37.5650" cy="3.9450" r="0.5000" />
</g>
<g style="fill:#FFFFFF; fill-opacity:1.0000; stroke:none;">
<circle cx="42.0250" cy="15.7550" r="0.5000" />
</g>
<g style="fill:#FFFFFF; fill-opacity:1.0000; stroke:none;">
<circle cx="42.0250" cy="18.2950" r="0.5000" />
</g>
<g style="fill:#FFFFFF; fill-opacity:1.0000; stroke:none;">
<circle cx="3.0250" cy="6.4850" r="0.5000" />
</g>
<g style="fill:#FFFFFF; fill-opacity:1.0000; stroke:none;">
<circle cx="3.0250" cy="9.0250" r="0.5000" />
</g>
<g style="fill:#FFFFFF; fill-opacity:1.0000; stroke:none;">
<circle cx="3.0250" cy="11.5650" r="0.5000" />
</g>
<g style="fill:none;
stroke:#F2EDA1; stroke-width:0.1200; stroke-opacity:1;
stroke-linecap:round; stroke-linejoin:round;">
<path d="M37.4150 20.1750
L37.4150 21.8750
" />
<path d="M37.4150 20.1750
L40.0750 20.1750
" />
<path d="M37.4150 21.8750
L40.0750 21.8750
" />
<path d="M27.2650 23.4650
L28.7850 23.4650
" />
<path d="M27.2650 23.5150
L27.2650 23.4650
" />
<path d="M27.2650 25.4150
L27.2650 24.6350
" />
<path d="M27.2650 26.5850
L27.2650 26.5350
" />
<path d="M28.7850 23.4650
L28.7850 24.4650
" />
<path d="M28.7850 25.5850
L28.7850 26.5850
" />
<path d="M28.7850 26.5850
L27.2650 26.5850
" />
<path style="fill:#F2EDA1; fill-opacity:1.0000;
stroke:#F2EDA1; stroke-width:0.1200; stroke-opacity:1;
stroke-linecap:round; stroke-linejoin:round;fill-rule:evenodd;"
d="M 26.9650,24.9750
26.4850,24.9750
26.7250,24.6450
Z" />
</g>
<g style="fill:none;
stroke:#F2EDA1; stroke-width:0.1200; stroke-opacity:1;
stroke-linecap:round; stroke-linejoin:round;">
<path d="M40.6450 23.3750
L42.0250 23.3750
" />
<path d="M40.6450 24.7550
L40.6450 23.3750
" />
<path d="M40.6450 26.0250
L40.6450 28.6750
" />
<path d="M40.6450 26.0250
L43.4050 26.0250
" />
<path d="M40.6450 28.6750
L43.4050 28.6750
" />
<path d="M43.4050 26.0250
L43.4050 28.6750
" />
<path d="M1.6450 17.3750
L3.0250 17.3750
" />
<path d="M1.6450 18.7550
L1.6450 17.3750
" />
<path d="M1.6450 20.0250
L1.6450 22.6750
" />
<path d="M1.6450 20.0250
L4.4050 20.0250
" />
<path d="M1.6450 22.6750
L4.4050 22.6750
" />
<path d="M4.4050 20.0250
L4.4050 22.6750
" />
<path d="M23.7877 18.5025
L24.2623 18.5025
" />
<path d="M23.7877 19.5475
L24.2623 19.5475
" />
<path d="M17.7877 21.5025
L18.2623 21.5025
" />
<path d="M17.7877 22.5475
L18.2623 22.5475
" />
<path d="M9.6254 3.4650
L10.4246 3.4650
" />
<path d="M9.6254 4.5850
L10.4246 4.5850
" />
<path d="M13.7637 25.2900
L14.2863 25.2900
" />
<path d="M13.7637 26.7600
L14.2863 26.7600
" />
<path d="M7.3137 19.1150
L8.7363 19.1150
" />
<path d="M7.3137 20.9350
L8.7363 20.9350
" />
<path d="M13.7637 3.2900
L14.2863 3.2900
" />
<path d="M13.7637 4.7600
L14.2863 4.7600
" />
<path d="M29.6650 19.0250
L29.6650 21.0250
" />
<path d="M29.6650 19.0250
L33.6750 19.0250
" />
<path d="M29.6650 21.0250
L33.6750 21.0250
" />
<path d="M12.8844 8.5150
L13.1656 8.5150
" />
<path d="M12.8844 9.5350
L13.1656 9.5350
" />
<path d="M17.8844 3.5150
L18.1656 3.5150
" />
<path d="M17.8844 4.5350
L18.1656 4.5350
" />
<path d="M17.7877 24.5025
L18.2623 24.5025
" />
<path d="M17.7877 25.5475
L18.2623 25.5475
" />
<path d="M30.8850 2.4450
L33.0850 2.4450
" />
<path d="M30.8850 4.5450
L30.8850 2.4450
" />
<path d="M31.0850 2.6450
L38.8850 2.6450
" />
<path d="M31.0850 15.3450
L31.0850 2.6450
" />
<path d="M33.2470 7.6280
L33.2470 8.2630
" />
<path d="M33.2470 8.2630
L33.9070 8.2630
" />
<path d="M33.9070 7.7550
L33.9070 8.7710
" />
<path d="M33.9070 8.7710
L35.8120 8.7710
" />
<path d="M35.4310 7.7550
L34.7960 8.7710
" />
<path d="M35.8120 7.7550
L33.9070 7.7550
" />
<path d="M35.8120 7.7550
L35.8120 8.7710
" />
<path d="M36.4470 7.6280
L36.4470 8.2630
" />
<path d="M36.4470 8.2630
L35.8120 8.2630
" />
<path d="M38.8850 2.6450
L38.8850 15.3450
" />
<path d="M38.8850 15.3450
L31.0850 15.3450
" />
<path d="M11.9650 12.4650
L16.0850 12.4650
" />
<path d="M11.9650 12.5600
L11.9650 12.4650
" />
<path d="M11.9650 17.5850
L11.9650 17.4900
" />
<path d="M16.0850 12.4650
L16.0850 12.5600
" />
<path d="M16.0850 17.4900
L16.0850 17.5850
" />
<path d="M16.0850 17.5850
L11.9650 17.5850
" />
<path style="fill:#F2EDA1; fill-opacity:1.0000;
stroke:#F2EDA1; stroke-width:0.1200; stroke-opacity:1;
stroke-linecap:round; stroke-linejoin:round;fill-rule:evenodd;"
d="M 11.4250,12.5550
11.1850,12.2250
11.6650,12.2250
Z" />
</g>
<g style="fill:none;
stroke:#F2EDA1; stroke-width:0.1200; stroke-opacity:1;
stroke-linecap:round; stroke-linejoin:round;">
<path d="M32.2979 24.1150
L33.7521 24.1150
" />
<path d="M32.2979 25.9350
L33.7521 25.9350
" />
<path d="M17.7877 28.5025
L18.2623 28.5025
" />
<path d="M17.7877 29.5475
L18.2623 29.5475
" />
<path d="M27.7877 29.5025
L28.2623 29.5025
" />
<path d="M27.7877 30.5475
L28.2623 30.5475
" />
<path d="M36.7877 26.5025
L37.2623 26.5025
" />
<path d="M36.7877 27.5475
L37.2623 27.5475
" />
<path d="M40.6450 14.3750
L42.0250 14.3750
" />
<path d="M40.6450 15.7550
L40.6450 14.3750
" />
<path d="M40.6450 17.0250
L40.6450 19.6750
" />
<path d="M40.6450 17.0250
L43.4050 17.0250
" />
<path d="M40.6450 19.6750
L43.4050 19.6750
" />
<path d="M43.4050 17.0250
L43.4050 19.6750
" />
<path d="M21.3137 28.1150
L22.7363 28.1150
" />
<path d="M21.3137 29.9350
L22.7363 29.9350
" />
<path d="M8.7877 23.5025
L9.2623 23.5025
" />
<path d="M8.7877 24.5475
L9.2623 24.5475
" />
<path d="M26.7877 6.5025
L27.2623 6.5025
" />
<path d="M26.7877 7.5475
L27.2623 7.5475
" />
<path d="M20.5875 10.1775
L21.3750 10.1775
" />
<path d="M20.9812 9.7837
L20.9812 10.5712
" />
<path d="M21.6150 9.6794
L21.6150 10.9650
" />
<path d="M21.6150 9.6794
L22.6794 8.6150
" />
<path d="M21.6150 14.3706
L21.6150 13.0850
" />
<path d="M21.6150 14.3706
L22.6794 15.4350
" />
<path d="M22.6794 8.6150
L28.4350 8.6150
" />
<path d="M22.6794 15.4350
L28.4350 15.4350
" />
<path d="M28.4350 8.6150
L28.4350 10.9650
" />
<path d="M28.4350 15.4350
L28.4350 13.0850
" />
<path d="M22.7877 24.5025
L23.2623 24.5025
" />
<path d="M22.7877 25.5475
L23.2623 25.5475
" />
<path d="M1.6450 5.1050
L3.0250 5.1050
" />
<path d="M1.6450 6.4850
L1.6450 5.1050
" />
<path d="M1.6450 7.7550
L1.6450 12.9450
" />
<path d="M1.6450 7.7550
L4.4050 7.7550
" />
<path d="M1.6450 12.9450
L4.4050 12.9450
" />
<path d="M4.4050 7.7550
L4.4050 12.9450
" />
</g>
<g style="fill:#F2EDA1; fill-opacity:1.0000; stroke:none;">
<circle cx="42.0250" cy="24.7550" r="0.5000" />
</g>
<g style="fill:#F2EDA1; fill-opacity:1.0000; stroke:none;">
<circle cx="42.0250" cy="27.2950" r="0.5000" />
</g>
<g style="fill:#F2EDA1; fill-opacity:1.0000; stroke:none;">
<circle cx="3.0250" cy="18.7550" r="0.5000" />
</g>
<g style="fill:#F2EDA1; fill-opacity:1.0000; stroke:none;">
<circle cx="3.0250" cy="21.2950" r="0.5000" />
</g>
<g style="fill:#F2EDA1; fill-opacity:1.0000; stroke:none;">
<circle cx="3.0250" cy="31.0250" r="1.1000" />
</g>
<g style="fill:#F2EDA1; fill-opacity:1.0000; stroke:none;">
<circle cx="43.0250" cy="3.0250" r="1.1000" />
</g>
<g style="fill:#F2EDA1; fill-opacity:1.0000; stroke:none;">
<circle cx="32.4850" cy="3.9450" r="0.5000" />
</g>
<g style="fill:#F2EDA1; fill-opacity:1.0000; stroke:none;">
<circle cx="32.4850" cy="6.4850" r="0.5000" />
</g>
<g style="fill:#F2EDA1; fill-opacity:1.0000; stroke:none;">
<circle cx="32.4850" cy="14.1050" r="0.5000" />
</g>
<g style="fill:#F2EDA1; fill-opacity:1.0000; stroke:none;">
<circle cx="37.5650" cy="14.1050" r="0.5000" />
</g>
<g style="fill:#F2EDA1; fill-opacity:1.0000; stroke:none;">
<circle cx="37.5650" cy="6.4850" r="0.5000" />
</g>
<g style="fill:#F2EDA1; fill-opacity:1.0000; stroke:none;">
<circle cx="37.5650" cy="3.9450" r="0.5000" />
</g>
<g style="fill:#F2EDA1; fill-opacity:1.0000; stroke:none;">
<circle cx="42.0250" cy="15.7550" r="0.5000" />
</g>
<g style="fill:#F2EDA1; fill-opacity:1.0000; stroke:none;">
<circle cx="42.0250" cy="18.2950" r="0.5000" />
</g>
<g style="fill:#F2EDA1; fill-opacity:1.0000; stroke:none;">
<circle cx="3.0250" cy="6.4850" r="0.5000" />
</g>
<g style="fill:#F2EDA1; fill-opacity:1.0000; stroke:none;">
<circle cx="3.0250" cy="9.0250" r="0.5000" />
</g>
<g style="fill:#F2EDA1; fill-opacity:1.0000; stroke:none;">
<circle cx="3.0250" cy="11.5650" r="0.5000" />
</g>
<g style="fill:none;
stroke:#D0D2CD; stroke-width:0.0500; stroke-opacity:1;
stroke-linecap:round; stroke-linejoin:round;">
<path d="M46.0250 34.0250
L0.0250 34.0250
" />
<path d="M46.0250 0.0250
L46.0250 34.0250
" />
<path d="M0.0250 34.0250
L0.0250 0.0250
" />
<path d="M0.0250 0.0250
L46.0250 0.0250
" />
</g>
<g style="fill:#D0D2CD; fill-opacity:1.0000; stroke:none;">
<circle cx="42.0250" cy="24.7550" r="0.5000" />
</g>
<g style="fill:#D0D2CD; fill-opacity:1.0000; stroke:none;">
<circle cx="42.0250" cy="27.2950" r="0.5000" />
</g>
<g style="fill:#D0D2CD; fill-opacity:1.0000; stroke:none;">
<circle cx="3.0250" cy="18.7550" r="0.5000" />
</g>
<g style="fill:#D0D2CD; fill-opacity:1.0000; stroke:none;">
<circle cx="3.0250" cy="21.2950" r="0.5000" />
</g>
<g style="fill:#D0D2CD; fill-opacity:1.0000; stroke:none;">
<circle cx="3.0250" cy="31.0250" r="1.1000" />
</g>
<g style="fill:#D0D2CD; fill-opacity:1.0000; stroke:none;">
<circle cx="43.0250" cy="3.0250" r="1.1000" />
</g>
<g style="fill:#D0D2CD; fill-opacity:1.0000; stroke:none;">
<circle cx="32.4850" cy="3.9450" r="0.5000" />
</g>
<g style="fill:#D0D2CD; fill-opacity:1.0000; stroke:none;">
<circle cx="32.4850" cy="6.4850" r="0.5000" />
</g>
<g style="fill:#D0D2CD; fill-opacity:1.0000; stroke:none;">
<circle cx="32.4850" cy="14.1050" r="0.5000" />
</g>
<g style="fill:#D0D2CD; fill-opacity:1.0000; stroke:none;">
<circle cx="37.5650" cy="14.1050" r="0.5000" />
</g>
<g style="fill:#D0D2CD; fill-opacity:1.0000; stroke:none;">
<circle cx="37.5650" cy="6.4850" r="0.5000" />
</g>
<g style="fill:#D0D2CD; fill-opacity:1.0000; stroke:none;">
<circle cx="37.5650" cy="3.9450" r="0.5000" />
</g>
<g style="fill:#D0D2CD; fill-opacity:1.0000; stroke:none;">
<circle cx="42.0250" cy="15.7550" r="0.5000" />
</g>
<g style="fill:#D0D2CD; fill-opacity:1.0000; stroke:none;">
<circle cx="42.0250" cy="18.2950" r="0.5000" />
</g>
<g style="fill:#D0D2CD; fill-opacity:1.0000; stroke:none;">
<circle cx="3.0250" cy="6.4850" r="0.5000" />
</g>
<g style="fill:#D0D2CD; fill-opacity:1.0000; stroke:none;">
<circle cx="3.0250" cy="9.0250" r="0.5000" />
</g>
<g style="fill:#D0D2CD; fill-opacity:1.0000; stroke:none;">
<circle cx="3.0250" cy="11.5650" r="0.5000" />
</g>
<g style="fill:#FFFFFF; fill-opacity:1.0000; stroke:none;">
<circle cx="42.0250" cy="24.7550" r="0.5000" />
</g>
<g style="fill:#FFFFFF; fill-opacity:1.0000; stroke:none;">
<circle cx="42.0250" cy="27.2950" r="0.5000" />
</g>
<g style="fill:#FFFFFF; fill-opacity:1.0000; stroke:none;">
<circle cx="3.0250" cy="18.7550" r="0.5000" />
</g>
<g style="fill:#FFFFFF; fill-opacity:1.0000; stroke:none;">
<circle cx="3.0250" cy="21.2950" r="0.5000" />
</g>
<g style="fill:#FFFFFF; fill-opacity:1.0000; stroke:none;">
<circle cx="3.0250" cy="31.0250" r="1.1000" />
</g>
<g style="fill:#FFFFFF; fill-opacity:1.0000; stroke:none;">
<circle cx="43.0250" cy="3.0250" r="1.1000" />
</g>
<g style="fill:#FFFFFF; fill-opacity:1.0000; stroke:none;">
<circle cx="32.4850" cy="3.9450" r="0.5000" />
</g>
<g style="fill:#FFFFFF; fill-opacity:1.0000; stroke:none;">
<circle cx="32.4850" cy="6.4850" r="0.5000" />
</g>
<g style="fill:#FFFFFF; fill-opacity:1.0000; stroke:none;">
<circle cx="32.4850" cy="14.1050" r="0.5000" />
</g>
<g style="fill:#FFFFFF; fill-opacity:1.0000; stroke:none;">
<circle cx="37.5650" cy="14.1050" r="0.5000" />
</g>
<g style="fill:#FFFFFF; fill-opacity:1.0000; stroke:none;">
<circle cx="37.5650" cy="6.4850" r="0.5000" />
</g>
<g style="fill:#FFFFFF; fill-opacity:1.0000; stroke:none;">
<circle cx="37.5650" cy="3.9450" r="0.5000" />
</g>
<g style="fill:#FFFFFF; fill-opacity:1.0000; stroke:none;">
<circle cx="42.0250" cy="15.7550" r="0.5000" />
</g>
<g style="fill:#FFFFFF; fill-opacity:1.0000; stroke:none;">
<circle cx="42.0250" cy="18.2950" r="0.5000" />
</g>
<g style="fill:#FFFFFF; fill-opacity:1.0000; stroke:none;">
<circle cx="3.0250" cy="6.4850" r="0.5000" />
</g>
<g style="fill:#FFFFFF; fill-opacity:1.0000; stroke:none;">
<circle cx="3.0250" cy="9.0250" r="0.5000" />
</g>
<g style="fill:#FFFFFF; fill-opacity:1.0000; stroke:none;">
<circle cx="3.0250" cy="11.5650" r="0.5000" />
</g>
</svg>
