G04 #@! TF.GenerationSoftware,KiCad,Pcbnew,9.0.2+dfsg-1*
G04 #@! TF.CreationDate,2026-10-02T15:26:43+00:00*
G04 #@! TF.ProjectId,Ardor_MIDI,4172646f-725f-44d4-9944-492e6b696361,rev?*
G04 #@! TF.SameCoordinates,Original*
G04 #@! TF.FileFunction,Soldermask,Top*
G04 #@! TF.FilePolarity,Negative*
%FSLAX46Y46*%
G04 Gerber Fmt 4.6, Leading zero omitted, Abs format (unit mm)*
G04 Created by KiCad (PCBNEW 9.0.2+dfsg-1) date 2026-10-02 15:26:43*
%MOMM*%
%LPD*%
G01*
G04 APERTURE LIST*
G04 Aperture macros list*
%AMRoundRect*
0 Rectangle with rounded corners*
0 $1 Rounding radius*
0 $2 $3 $4 $5 $6 $7 $8 $9 X,Y pos of 4 corners*
0 Add a 4 corners polygon primitive as box body*
4,1,4,$2,$3,$4,$5,$6,$7,$8,$9,$2,$3,0*
0 Add four circle primitives for the rounded corners*
1,1,$1+$1,$2,$3*
1,1,$1+$1,$4,$5*
1,1,$1+$1,$6,$7*
1,1,$1+$1,$8,$9*
0 Add four rect primitives between the rounded corners*
20,1,$1+$1,$2,$3,$4,$5,0*
20,1,$1+$1,$4,$5,$6,$7,0*
20,1,$1+$1,$6,$7,$8,$9,0*
20,1,$1+$1,$8,$9,$2,$3,0*%
G04 Aperture macros list end*
%ADD10R,1.700000X1.700000*%
%ADD11C,1.700000*%
%ADD12RoundRect,0.250000X-0.550000X-0.550000X0.550000X-0.550000X0.550000X0.550000X-0.550000X0.550000X0*%
%ADD13C,1.600000*%
%ADD14RoundRect,0.250000X-0.325000X-0.650000X0.325000X-0.650000X0.325000X0.650000X-0.325000X0.650000X0*%
%ADD15RoundRect,0.225000X-0.225000X-0.250000X0.225000X-0.250000X0.225000X0.250000X-0.225000X0.250000X0*%
%ADD16C,2.200000*%
%ADD17RoundRect,0.200000X-0.200000X-0.275000X0.200000X-0.275000X0.200000X0.275000X-0.200000X0.275000X0*%
%ADD18RoundRect,0.112500X-0.187500X-0.112500X0.187500X-0.112500X0.187500X0.112500X-0.187500X0.112500X0*%
%ADD19RoundRect,0.250000X-0.312500X-0.625000X0.312500X-0.625000X0.312500X0.625000X-0.312500X0.625000X0*%
%ADD20RoundRect,0.225000X-0.225000X-0.375000X0.225000X-0.375000X0.225000X0.375000X-0.225000X0.375000X0*%
G04 APERTURE END LIST*
D10*
X80000000Y-59190000D03*
D11*
X80000000Y-61730000D03*
X80000000Y-64270000D03*
X80000000Y-66810000D03*
D12*
X66190000Y-59460000D03*
D13*
X66190000Y-62000000D03*
X66190000Y-64540000D03*
X73810000Y-64540000D03*
X73810000Y-62000000D03*
X73810000Y-59460000D03*
D14*
X57525000Y-55000000D03*
X60475000Y-55000000D03*
D15*
X76225000Y-54000000D03*
X77775000Y-54000000D03*
D16*
X81000000Y-53000000D03*
D17*
X56175000Y-60000000D03*
X57825000Y-60000000D03*
D18*
X53950000Y-54000000D03*
X56050000Y-54000000D03*
D19*
X74537500Y-74000000D03*
X77462500Y-74000000D03*
D20*
X60350000Y-65000000D03*
X63650000Y-65000000D03*
D17*
X77175000Y-70000000D03*
X78825000Y-70000000D03*
D18*
X52950000Y-58000000D03*
X55050000Y-58000000D03*
D17*
X60175000Y-60000000D03*
X61825000Y-60000000D03*
X56175000Y-65000000D03*
X57825000Y-65000000D03*
X75175000Y-67000000D03*
X76825000Y-67000000D03*
D10*
X53000000Y-60730000D03*
D11*
X53000000Y-63270000D03*
D18*
X56450000Y-74000000D03*
X58550000Y-74000000D03*
D16*
X53000000Y-75000000D03*
D10*
X81000000Y-72730000D03*
D11*
X81000000Y-75270000D03*
D15*
X75725000Y-56000000D03*
X77275000Y-56000000D03*
D14*
X57525000Y-71000000D03*
X60475000Y-71000000D03*
M02*
