G04 #@! TF.GenerationSoftware,KiCad,Pcbnew,9.0.2+dfsg-1*
G04 #@! TF.CreationDate,2026-10-02T20:04:41+00:00*
G04 #@! TF.ProjectId,Ardor_MIDI,4172646f-725f-44d4-9944-492e6b696361,rev?*
G04 #@! TF.SameCoordinates,Original*
G04 #@! TF.FileFunction,Legend,Bot*
G04 #@! TF.FilePolarity,Positive*
%FSLAX46Y46*%
G04 Gerber Fmt 4.6, Leading zero omitted, Abs format (unit mm)*
G04 Created by KiCad (PCBNEW 9.0.2+dfsg-1) date 2026-10-02 20:04:41*
%MOMM*%
%LPD*%
G01*
G04 APERTURE LIST*
G04 Aperture macros list*
%AMRoundRect*
0 Rectangle with rounded corners*
0 $1 Rounding radius*
0 $2 $3 $4 $5 $6 $7 $8 $9 X,Y pos of 4 corners*
0 Add a 4 corners polygon primitive as box body*
4,1,4,$2,$3,$4,$5,$6,$7,$8,$9,$2,$3,0*
0 Add four circle primitives for the rounded corners*
1,1,$1+$1,$2,$3*
1,1,$1+$1,$4,$5*
1,1,$1+$1,$6,$7*
1,1,$1+$1,$8,$9*
0 Add four rect primitives between the rounded corners*
20,1,$1+$1,$2,$3,$4,$5,0*
20,1,$1+$1,$4,$5,$6,$7,0*
20,1,$1+$1,$6,$7,$8,$9,0*
20,1,$1+$1,$8,$9,$2,$3,0*%
G04 Aperture macros list end*
%ADD10C,0.150000*%
%ADD11R,1.700000X1.700000*%
%ADD12C,1.700000*%
%ADD13RoundRect,0.250000X-0.550000X-0.550000X0.550000X-0.550000X0.550000X0.550000X-0.550000X0.550000X0*%
%ADD14C,1.600000*%
%ADD15C,2.200000*%
G04 APERTURE END LIST*
D10*
X81028571Y-56252295D02*
X81028571Y-56823723D01*
X81028571Y-56823723D02*
X81066666Y-56938009D01*
X81066666Y-56938009D02*
X81142857Y-57014200D01*
X81142857Y-57014200D02*
X81257142Y-57052295D01*
X81257142Y-57052295D02*
X81333333Y-57052295D01*
X80228571Y-57052295D02*
X80685714Y-57052295D01*
X80457142Y-57052295D02*
X80457142Y-56252295D01*
X80457142Y-56252295D02*
X80533333Y-56366580D01*
X80533333Y-56366580D02*
X80609523Y-56442771D01*
X80609523Y-56442771D02*
X80685714Y-56480866D01*
X79733332Y-56252295D02*
X79657142Y-56252295D01*
X79657142Y-56252295D02*
X79580951Y-56290390D01*
X79580951Y-56290390D02*
X79542856Y-56328485D01*
X79542856Y-56328485D02*
X79504761Y-56404676D01*
X79504761Y-56404676D02*
X79466666Y-56557057D01*
X79466666Y-56557057D02*
X79466666Y-56747533D01*
X79466666Y-56747533D02*
X79504761Y-56899914D01*
X79504761Y-56899914D02*
X79542856Y-56976104D01*
X79542856Y-56976104D02*
X79580951Y-57014200D01*
X79580951Y-57014200D02*
X79657142Y-57052295D01*
X79657142Y-57052295D02*
X79733332Y-57052295D01*
X79733332Y-57052295D02*
X79809523Y-57014200D01*
X79809523Y-57014200D02*
X79847618Y-56976104D01*
X79847618Y-56976104D02*
X79885713Y-56899914D01*
X79885713Y-56899914D02*
X79923809Y-56747533D01*
X79923809Y-56747533D02*
X79923809Y-56557057D01*
X79923809Y-56557057D02*
X79885713Y-56404676D01*
X79885713Y-56404676D02*
X79847618Y-56328485D01*
X79847618Y-56328485D02*
X79809523Y-56290390D01*
X79809523Y-56290390D02*
X79733332Y-56252295D01*
X78704761Y-57052295D02*
X79161904Y-57052295D01*
X78933332Y-57052295D02*
X78933332Y-56252295D01*
X78933332Y-56252295D02*
X79009523Y-56366580D01*
X79009523Y-56366580D02*
X79085713Y-56442771D01*
X79085713Y-56442771D02*
X79161904Y-56480866D01*
X54928571Y-62908485D02*
X54890475Y-62870390D01*
X54890475Y-62870390D02*
X54814285Y-62832295D01*
X54814285Y-62832295D02*
X54623809Y-62832295D01*
X54623809Y-62832295D02*
X54547618Y-62870390D01*
X54547618Y-62870390D02*
X54509523Y-62908485D01*
X54509523Y-62908485D02*
X54471428Y-62984676D01*
X54471428Y-62984676D02*
X54471428Y-63060866D01*
X54471428Y-63060866D02*
X54509523Y-63175152D01*
X54509523Y-63175152D02*
X54966666Y-63632295D01*
X54966666Y-63632295D02*
X54471428Y-63632295D01*
X54028571Y-57792295D02*
X54028571Y-58363723D01*
X54028571Y-58363723D02*
X54066666Y-58478009D01*
X54066666Y-58478009D02*
X54142857Y-58554200D01*
X54142857Y-58554200D02*
X54257142Y-58592295D01*
X54257142Y-58592295D02*
X54333333Y-58592295D01*
X53685714Y-57868485D02*
X53647618Y-57830390D01*
X53647618Y-57830390D02*
X53571428Y-57792295D01*
X53571428Y-57792295D02*
X53380952Y-57792295D01*
X53380952Y-57792295D02*
X53304761Y-57830390D01*
X53304761Y-57830390D02*
X53266666Y-57868485D01*
X53266666Y-57868485D02*
X53228571Y-57944676D01*
X53228571Y-57944676D02*
X53228571Y-58020866D01*
X53228571Y-58020866D02*
X53266666Y-58135152D01*
X53266666Y-58135152D02*
X53723809Y-58592295D01*
X53723809Y-58592295D02*
X53228571Y-58592295D01*
X52733332Y-57792295D02*
X52657142Y-57792295D01*
X52657142Y-57792295D02*
X52580951Y-57830390D01*
X52580951Y-57830390D02*
X52542856Y-57868485D01*
X52542856Y-57868485D02*
X52504761Y-57944676D01*
X52504761Y-57944676D02*
X52466666Y-58097057D01*
X52466666Y-58097057D02*
X52466666Y-58287533D01*
X52466666Y-58287533D02*
X52504761Y-58439914D01*
X52504761Y-58439914D02*
X52542856Y-58516104D01*
X52542856Y-58516104D02*
X52580951Y-58554200D01*
X52580951Y-58554200D02*
X52657142Y-58592295D01*
X52657142Y-58592295D02*
X52733332Y-58592295D01*
X52733332Y-58592295D02*
X52809523Y-58554200D01*
X52809523Y-58554200D02*
X52847618Y-58516104D01*
X52847618Y-58516104D02*
X52885713Y-58439914D01*
X52885713Y-58439914D02*
X52923809Y-58287533D01*
X52923809Y-58287533D02*
X52923809Y-58097057D01*
X52923809Y-58097057D02*
X52885713Y-57944676D01*
X52885713Y-57944676D02*
X52847618Y-57868485D01*
X52847618Y-57868485D02*
X52809523Y-57830390D01*
X52809523Y-57830390D02*
X52733332Y-57792295D01*
X52161904Y-57868485D02*
X52123808Y-57830390D01*
X52123808Y-57830390D02*
X52047618Y-57792295D01*
X52047618Y-57792295D02*
X51857142Y-57792295D01*
X51857142Y-57792295D02*
X51780951Y-57830390D01*
X51780951Y-57830390D02*
X51742856Y-57868485D01*
X51742856Y-57868485D02*
X51704761Y-57944676D01*
X51704761Y-57944676D02*
X51704761Y-58020866D01*
X51704761Y-58020866D02*
X51742856Y-58135152D01*
X51742856Y-58135152D02*
X52199999Y-58592295D01*
X52199999Y-58592295D02*
X51704761Y-58592295D01*
X78528571Y-61368485D02*
X78490475Y-61330390D01*
X78490475Y-61330390D02*
X78414285Y-61292295D01*
X78414285Y-61292295D02*
X78223809Y-61292295D01*
X78223809Y-61292295D02*
X78147618Y-61330390D01*
X78147618Y-61330390D02*
X78109523Y-61368485D01*
X78109523Y-61368485D02*
X78071428Y-61444676D01*
X78071428Y-61444676D02*
X78071428Y-61520866D01*
X78071428Y-61520866D02*
X78109523Y-61635152D01*
X78109523Y-61635152D02*
X78566666Y-62092295D01*
X78566666Y-62092295D02*
X78071428Y-62092295D01*
X72247617Y-64362295D02*
X72247617Y-63562295D01*
X71866665Y-64362295D02*
X71866665Y-63562295D01*
X71866665Y-63562295D02*
X71409522Y-64362295D01*
X71409522Y-64362295D02*
X71409522Y-63562295D01*
X71028570Y-63943247D02*
X70419047Y-63943247D01*
X70419047Y-64171819D02*
X71028570Y-64171819D01*
X70038094Y-64362295D02*
X70038094Y-63562295D01*
X69657142Y-64362295D02*
X69657142Y-63562295D01*
X69657142Y-63562295D02*
X69199999Y-64362295D01*
X69199999Y-64362295D02*
X69199999Y-63562295D01*
X68933333Y-63562295D02*
X68476190Y-63562295D01*
X68704762Y-64362295D02*
X68704762Y-63562295D01*
X68057142Y-63562295D02*
X67904761Y-63562295D01*
X67904761Y-63562295D02*
X67828571Y-63600390D01*
X67828571Y-63600390D02*
X67752380Y-63676580D01*
X67752380Y-63676580D02*
X67714285Y-63828961D01*
X67714285Y-63828961D02*
X67714285Y-64095628D01*
X67714285Y-64095628D02*
X67752380Y-64248009D01*
X67752380Y-64248009D02*
X67828571Y-64324200D01*
X67828571Y-64324200D02*
X67904761Y-64362295D01*
X67904761Y-64362295D02*
X68057142Y-64362295D01*
X68057142Y-64362295D02*
X68133333Y-64324200D01*
X68133333Y-64324200D02*
X68209523Y-64248009D01*
X68209523Y-64248009D02*
X68247619Y-64095628D01*
X68247619Y-64095628D02*
X68247619Y-63828961D01*
X68247619Y-63828961D02*
X68209523Y-63676580D01*
X68209523Y-63676580D02*
X68133333Y-63600390D01*
X68133333Y-63600390D02*
X68057142Y-63562295D01*
X79528571Y-74908485D02*
X79490475Y-74870390D01*
X79490475Y-74870390D02*
X79414285Y-74832295D01*
X79414285Y-74832295D02*
X79223809Y-74832295D01*
X79223809Y-74832295D02*
X79147618Y-74870390D01*
X79147618Y-74870390D02*
X79109523Y-74908485D01*
X79109523Y-74908485D02*
X79071428Y-74984676D01*
X79071428Y-74984676D02*
X79071428Y-75060866D01*
X79071428Y-75060866D02*
X79109523Y-75175152D01*
X79109523Y-75175152D02*
X79566666Y-75632295D01*
X79566666Y-75632295D02*
X79071428Y-75632295D01*
X64985714Y-55918318D02*
X64985714Y-56489746D01*
X64985714Y-56489746D02*
X65023809Y-56604032D01*
X65023809Y-56604032D02*
X65100000Y-56680223D01*
X65100000Y-56680223D02*
X65214285Y-56718318D01*
X65214285Y-56718318D02*
X65290476Y-56718318D01*
X64642857Y-55994508D02*
X64604761Y-55956413D01*
X64604761Y-55956413D02*
X64528571Y-55918318D01*
X64528571Y-55918318D02*
X64338095Y-55918318D01*
X64338095Y-55918318D02*
X64261904Y-55956413D01*
X64261904Y-55956413D02*
X64223809Y-55994508D01*
X64223809Y-55994508D02*
X64185714Y-56070699D01*
X64185714Y-56070699D02*
X64185714Y-56146889D01*
X64185714Y-56146889D02*
X64223809Y-56261175D01*
X64223809Y-56261175D02*
X64680952Y-56718318D01*
X64680952Y-56718318D02*
X64185714Y-56718318D01*
X63690475Y-55918318D02*
X63614285Y-55918318D01*
X63614285Y-55918318D02*
X63538094Y-55956413D01*
X63538094Y-55956413D02*
X63499999Y-55994508D01*
X63499999Y-55994508D02*
X63461904Y-56070699D01*
X63461904Y-56070699D02*
X63423809Y-56223080D01*
X63423809Y-56223080D02*
X63423809Y-56413556D01*
X63423809Y-56413556D02*
X63461904Y-56565937D01*
X63461904Y-56565937D02*
X63499999Y-56642127D01*
X63499999Y-56642127D02*
X63538094Y-56680223D01*
X63538094Y-56680223D02*
X63614285Y-56718318D01*
X63614285Y-56718318D02*
X63690475Y-56718318D01*
X63690475Y-56718318D02*
X63766666Y-56680223D01*
X63766666Y-56680223D02*
X63804761Y-56642127D01*
X63804761Y-56642127D02*
X63842856Y-56565937D01*
X63842856Y-56565937D02*
X63880952Y-56413556D01*
X63880952Y-56413556D02*
X63880952Y-56223080D01*
X63880952Y-56223080D02*
X63842856Y-56070699D01*
X63842856Y-56070699D02*
X63804761Y-55994508D01*
X63804761Y-55994508D02*
X63766666Y-55956413D01*
X63766666Y-55956413D02*
X63690475Y-55918318D01*
X63119047Y-55994508D02*
X63080951Y-55956413D01*
X63080951Y-55956413D02*
X63004761Y-55918318D01*
X63004761Y-55918318D02*
X62814285Y-55918318D01*
X62814285Y-55918318D02*
X62738094Y-55956413D01*
X62738094Y-55956413D02*
X62699999Y-55994508D01*
X62699999Y-55994508D02*
X62661904Y-56070699D01*
X62661904Y-56070699D02*
X62661904Y-56146889D01*
X62661904Y-56146889D02*
X62699999Y-56261175D01*
X62699999Y-56261175D02*
X63157142Y-56718318D01*
X63157142Y-56718318D02*
X62661904Y-56718318D01*
X61709522Y-56718318D02*
X61709522Y-55918318D01*
X61709522Y-55918318D02*
X61442856Y-56489746D01*
X61442856Y-56489746D02*
X61176189Y-55918318D01*
X61176189Y-55918318D02*
X61176189Y-56718318D01*
X60795236Y-56718318D02*
X60795236Y-55918318D01*
X60414284Y-56718318D02*
X60414284Y-55918318D01*
X60414284Y-55918318D02*
X60223808Y-55918318D01*
X60223808Y-55918318D02*
X60109522Y-55956413D01*
X60109522Y-55956413D02*
X60033332Y-56032603D01*
X60033332Y-56032603D02*
X59995237Y-56108794D01*
X59995237Y-56108794D02*
X59957141Y-56261175D01*
X59957141Y-56261175D02*
X59957141Y-56375461D01*
X59957141Y-56375461D02*
X59995237Y-56527842D01*
X59995237Y-56527842D02*
X60033332Y-56604032D01*
X60033332Y-56604032D02*
X60109522Y-56680223D01*
X60109522Y-56680223D02*
X60223808Y-56718318D01*
X60223808Y-56718318D02*
X60414284Y-56718318D01*
X59614284Y-56718318D02*
X59614284Y-55918318D01*
X58623808Y-56718318D02*
X58623808Y-55918318D01*
X58242856Y-56718318D02*
X58242856Y-55918318D01*
X58242856Y-55918318D02*
X57785713Y-56718318D01*
X57785713Y-56718318D02*
X57785713Y-55918318D01*
X67480952Y-58006273D02*
X67938095Y-58006273D01*
X67709523Y-58006273D02*
X67709523Y-57206273D01*
X67709523Y-57206273D02*
X67785714Y-57320558D01*
X67785714Y-57320558D02*
X67861904Y-57396749D01*
X67861904Y-57396749D02*
X67938095Y-57434844D01*
X66528570Y-58006273D02*
X66528570Y-57206273D01*
X66528570Y-57206273D02*
X66338094Y-57206273D01*
X66338094Y-57206273D02*
X66223808Y-57244368D01*
X66223808Y-57244368D02*
X66147618Y-57320558D01*
X66147618Y-57320558D02*
X66109523Y-57396749D01*
X66109523Y-57396749D02*
X66071427Y-57549130D01*
X66071427Y-57549130D02*
X66071427Y-57663416D01*
X66071427Y-57663416D02*
X66109523Y-57815797D01*
X66109523Y-57815797D02*
X66147618Y-57891987D01*
X66147618Y-57891987D02*
X66223808Y-57968178D01*
X66223808Y-57968178D02*
X66338094Y-58006273D01*
X66338094Y-58006273D02*
X66528570Y-58006273D01*
X65728570Y-58006273D02*
X65728570Y-57206273D01*
X65347618Y-58006273D02*
X65347618Y-57206273D01*
X65347618Y-57206273D02*
X64890475Y-58006273D01*
X64890475Y-58006273D02*
X64890475Y-57206273D01*
X64166666Y-57472939D02*
X64166666Y-58006273D01*
X64357142Y-57168178D02*
X64547619Y-57739606D01*
X64547619Y-57739606D02*
X64052380Y-57739606D01*
X63138094Y-58006273D02*
X63138094Y-57206273D01*
X62757142Y-58006273D02*
X62757142Y-57206273D01*
X62757142Y-57206273D02*
X62299999Y-58006273D01*
X62299999Y-58006273D02*
X62299999Y-57206273D01*
X60738095Y-57282463D02*
X60699999Y-57244368D01*
X60699999Y-57244368D02*
X60623809Y-57206273D01*
X60623809Y-57206273D02*
X60433333Y-57206273D01*
X60433333Y-57206273D02*
X60357142Y-57244368D01*
X60357142Y-57244368D02*
X60319047Y-57282463D01*
X60319047Y-57282463D02*
X60280952Y-57358654D01*
X60280952Y-57358654D02*
X60280952Y-57434844D01*
X60280952Y-57434844D02*
X60319047Y-57549130D01*
X60319047Y-57549130D02*
X60776190Y-58006273D01*
X60776190Y-58006273D02*
X60280952Y-58006273D01*
X59328570Y-58006273D02*
X59328570Y-57206273D01*
X59328570Y-57206273D02*
X59138094Y-57206273D01*
X59138094Y-57206273D02*
X59023808Y-57244368D01*
X59023808Y-57244368D02*
X58947618Y-57320558D01*
X58947618Y-57320558D02*
X58909523Y-57396749D01*
X58909523Y-57396749D02*
X58871427Y-57549130D01*
X58871427Y-57549130D02*
X58871427Y-57663416D01*
X58871427Y-57663416D02*
X58909523Y-57815797D01*
X58909523Y-57815797D02*
X58947618Y-57891987D01*
X58947618Y-57891987D02*
X59023808Y-57968178D01*
X59023808Y-57968178D02*
X59138094Y-58006273D01*
X59138094Y-58006273D02*
X59328570Y-58006273D01*
X58528570Y-58006273D02*
X58528570Y-57206273D01*
X58147618Y-58006273D02*
X58147618Y-57206273D01*
X58147618Y-57206273D02*
X57690475Y-58006273D01*
X57690475Y-58006273D02*
X57690475Y-57206273D01*
X56928571Y-57206273D02*
X57309523Y-57206273D01*
X57309523Y-57206273D02*
X57347619Y-57587225D01*
X57347619Y-57587225D02*
X57309523Y-57549130D01*
X57309523Y-57549130D02*
X57233333Y-57511035D01*
X57233333Y-57511035D02*
X57042857Y-57511035D01*
X57042857Y-57511035D02*
X56966666Y-57549130D01*
X56966666Y-57549130D02*
X56928571Y-57587225D01*
X56928571Y-57587225D02*
X56890476Y-57663416D01*
X56890476Y-57663416D02*
X56890476Y-57853892D01*
X56890476Y-57853892D02*
X56928571Y-57930082D01*
X56928571Y-57930082D02*
X56966666Y-57968178D01*
X56966666Y-57968178D02*
X57042857Y-58006273D01*
X57042857Y-58006273D02*
X57233333Y-58006273D01*
X57233333Y-58006273D02*
X57309523Y-57968178D01*
X57309523Y-57968178D02*
X57347619Y-57930082D01*
X55938094Y-58006273D02*
X55938094Y-57206273D01*
X55557142Y-58006273D02*
X55557142Y-57206273D01*
X55557142Y-57206273D02*
X55099999Y-58006273D01*
X55099999Y-58006273D02*
X55099999Y-57206273D01*
X64566666Y-62918318D02*
X64566666Y-63565937D01*
X64566666Y-63565937D02*
X64528571Y-63642127D01*
X64528571Y-63642127D02*
X64490476Y-63680223D01*
X64490476Y-63680223D02*
X64414285Y-63718318D01*
X64414285Y-63718318D02*
X64261904Y-63718318D01*
X64261904Y-63718318D02*
X64185714Y-63680223D01*
X64185714Y-63680223D02*
X64147619Y-63642127D01*
X64147619Y-63642127D02*
X64109523Y-63565937D01*
X64109523Y-63565937D02*
X64109523Y-62918318D01*
X63766667Y-62994508D02*
X63728571Y-62956413D01*
X63728571Y-62956413D02*
X63652381Y-62918318D01*
X63652381Y-62918318D02*
X63461905Y-62918318D01*
X63461905Y-62918318D02*
X63385714Y-62956413D01*
X63385714Y-62956413D02*
X63347619Y-62994508D01*
X63347619Y-62994508D02*
X63309524Y-63070699D01*
X63309524Y-63070699D02*
X63309524Y-63146889D01*
X63309524Y-63146889D02*
X63347619Y-63261175D01*
X63347619Y-63261175D02*
X63804762Y-63718318D01*
X63804762Y-63718318D02*
X63309524Y-63718318D01*
X62814285Y-62918318D02*
X62738095Y-62918318D01*
X62738095Y-62918318D02*
X62661904Y-62956413D01*
X62661904Y-62956413D02*
X62623809Y-62994508D01*
X62623809Y-62994508D02*
X62585714Y-63070699D01*
X62585714Y-63070699D02*
X62547619Y-63223080D01*
X62547619Y-63223080D02*
X62547619Y-63413556D01*
X62547619Y-63413556D02*
X62585714Y-63565937D01*
X62585714Y-63565937D02*
X62623809Y-63642127D01*
X62623809Y-63642127D02*
X62661904Y-63680223D01*
X62661904Y-63680223D02*
X62738095Y-63718318D01*
X62738095Y-63718318D02*
X62814285Y-63718318D01*
X62814285Y-63718318D02*
X62890476Y-63680223D01*
X62890476Y-63680223D02*
X62928571Y-63642127D01*
X62928571Y-63642127D02*
X62966666Y-63565937D01*
X62966666Y-63565937D02*
X63004762Y-63413556D01*
X63004762Y-63413556D02*
X63004762Y-63223080D01*
X63004762Y-63223080D02*
X62966666Y-63070699D01*
X62966666Y-63070699D02*
X62928571Y-62994508D01*
X62928571Y-62994508D02*
X62890476Y-62956413D01*
X62890476Y-62956413D02*
X62814285Y-62918318D01*
X61785714Y-63718318D02*
X62242857Y-63718318D01*
X62014285Y-63718318D02*
X62014285Y-62918318D01*
X62014285Y-62918318D02*
X62090476Y-63032603D01*
X62090476Y-63032603D02*
X62166666Y-63108794D01*
X62166666Y-63108794D02*
X62242857Y-63146889D01*
X61442856Y-63642127D02*
X61404761Y-63680223D01*
X61404761Y-63680223D02*
X61442856Y-63718318D01*
X61442856Y-63718318D02*
X61480952Y-63680223D01*
X61480952Y-63680223D02*
X61442856Y-63642127D01*
X61442856Y-63642127D02*
X61442856Y-63718318D01*
X61138095Y-62918318D02*
X60642857Y-62918318D01*
X60642857Y-62918318D02*
X60909523Y-63223080D01*
X60909523Y-63223080D02*
X60795238Y-63223080D01*
X60795238Y-63223080D02*
X60719047Y-63261175D01*
X60719047Y-63261175D02*
X60680952Y-63299270D01*
X60680952Y-63299270D02*
X60642857Y-63375461D01*
X60642857Y-63375461D02*
X60642857Y-63565937D01*
X60642857Y-63565937D02*
X60680952Y-63642127D01*
X60680952Y-63642127D02*
X60719047Y-63680223D01*
X60719047Y-63680223D02*
X60795238Y-63718318D01*
X60795238Y-63718318D02*
X61023809Y-63718318D01*
X61023809Y-63718318D02*
X61100000Y-63680223D01*
X61100000Y-63680223D02*
X61138095Y-63642127D01*
X59690475Y-63718318D02*
X59690475Y-62918318D01*
X59690475Y-62918318D02*
X59233332Y-63718318D01*
X59233332Y-63718318D02*
X59233332Y-62918318D01*
X58395237Y-63642127D02*
X58433333Y-63680223D01*
X58433333Y-63680223D02*
X58547618Y-63718318D01*
X58547618Y-63718318D02*
X58623809Y-63718318D01*
X58623809Y-63718318D02*
X58738095Y-63680223D01*
X58738095Y-63680223D02*
X58814285Y-63604032D01*
X58814285Y-63604032D02*
X58852380Y-63527842D01*
X58852380Y-63527842D02*
X58890476Y-63375461D01*
X58890476Y-63375461D02*
X58890476Y-63261175D01*
X58890476Y-63261175D02*
X58852380Y-63108794D01*
X58852380Y-63108794D02*
X58814285Y-63032603D01*
X58814285Y-63032603D02*
X58738095Y-62956413D01*
X58738095Y-62956413D02*
X58623809Y-62918318D01*
X58623809Y-62918318D02*
X58547618Y-62918318D01*
X58547618Y-62918318D02*
X58433333Y-62956413D01*
X58433333Y-62956413D02*
X58395237Y-62994508D01*
X63861904Y-65006273D02*
X63861904Y-64206273D01*
X63861904Y-64206273D02*
X63404761Y-65006273D01*
X63404761Y-65006273D02*
X63404761Y-64206273D01*
X62871428Y-64206273D02*
X62719047Y-64206273D01*
X62719047Y-64206273D02*
X62642857Y-64244368D01*
X62642857Y-64244368D02*
X62566666Y-64320558D01*
X62566666Y-64320558D02*
X62528571Y-64472939D01*
X62528571Y-64472939D02*
X62528571Y-64739606D01*
X62528571Y-64739606D02*
X62566666Y-64891987D01*
X62566666Y-64891987D02*
X62642857Y-64968178D01*
X62642857Y-64968178D02*
X62719047Y-65006273D01*
X62719047Y-65006273D02*
X62871428Y-65006273D01*
X62871428Y-65006273D02*
X62947619Y-64968178D01*
X62947619Y-64968178D02*
X63023809Y-64891987D01*
X63023809Y-64891987D02*
X63061905Y-64739606D01*
X63061905Y-64739606D02*
X63061905Y-64472939D01*
X63061905Y-64472939D02*
X63023809Y-64320558D01*
X63023809Y-64320558D02*
X62947619Y-64244368D01*
X62947619Y-64244368D02*
X62871428Y-64206273D01*
X61652381Y-64206273D02*
X61461905Y-65006273D01*
X61461905Y-65006273D02*
X61309524Y-64434844D01*
X61309524Y-64434844D02*
X61157143Y-65006273D01*
X61157143Y-65006273D02*
X60966667Y-64206273D01*
X60661904Y-65006273D02*
X60661904Y-64206273D01*
X59823809Y-65006273D02*
X60090476Y-64625320D01*
X60280952Y-65006273D02*
X60280952Y-64206273D01*
X60280952Y-64206273D02*
X59976190Y-64206273D01*
X59976190Y-64206273D02*
X59900000Y-64244368D01*
X59900000Y-64244368D02*
X59861905Y-64282463D01*
X59861905Y-64282463D02*
X59823809Y-64358654D01*
X59823809Y-64358654D02*
X59823809Y-64472939D01*
X59823809Y-64472939D02*
X59861905Y-64549130D01*
X59861905Y-64549130D02*
X59900000Y-64587225D01*
X59900000Y-64587225D02*
X59976190Y-64625320D01*
X59976190Y-64625320D02*
X60280952Y-64625320D01*
X59480952Y-64587225D02*
X59214286Y-64587225D01*
X59100000Y-65006273D02*
X59480952Y-65006273D01*
X59480952Y-65006273D02*
X59480952Y-64206273D01*
X59480952Y-64206273D02*
X59100000Y-64206273D01*
X78147618Y-66638961D02*
X78147618Y-67172295D01*
X78338094Y-66334200D02*
X78528571Y-66905628D01*
X78528571Y-66905628D02*
X78033332Y-66905628D01*
X72619046Y-76469104D02*
X72142856Y-76469104D01*
X72714284Y-76754819D02*
X72380951Y-75754819D01*
X72380951Y-75754819D02*
X72047618Y-76754819D01*
X71142856Y-76754819D02*
X71476189Y-76278628D01*
X71714284Y-76754819D02*
X71714284Y-75754819D01*
X71714284Y-75754819D02*
X71333332Y-75754819D01*
X71333332Y-75754819D02*
X71238094Y-75802438D01*
X71238094Y-75802438D02*
X71190475Y-75850057D01*
X71190475Y-75850057D02*
X71142856Y-75945295D01*
X71142856Y-75945295D02*
X71142856Y-76088152D01*
X71142856Y-76088152D02*
X71190475Y-76183390D01*
X71190475Y-76183390D02*
X71238094Y-76231009D01*
X71238094Y-76231009D02*
X71333332Y-76278628D01*
X71333332Y-76278628D02*
X71714284Y-76278628D01*
X70714284Y-76754819D02*
X70714284Y-75754819D01*
X70714284Y-75754819D02*
X70476189Y-75754819D01*
X70476189Y-75754819D02*
X70333332Y-75802438D01*
X70333332Y-75802438D02*
X70238094Y-75897676D01*
X70238094Y-75897676D02*
X70190475Y-75992914D01*
X70190475Y-75992914D02*
X70142856Y-76183390D01*
X70142856Y-76183390D02*
X70142856Y-76326247D01*
X70142856Y-76326247D02*
X70190475Y-76516723D01*
X70190475Y-76516723D02*
X70238094Y-76611961D01*
X70238094Y-76611961D02*
X70333332Y-76707200D01*
X70333332Y-76707200D02*
X70476189Y-76754819D01*
X70476189Y-76754819D02*
X70714284Y-76754819D01*
X69523808Y-75754819D02*
X69333332Y-75754819D01*
X69333332Y-75754819D02*
X69238094Y-75802438D01*
X69238094Y-75802438D02*
X69142856Y-75897676D01*
X69142856Y-75897676D02*
X69095237Y-76088152D01*
X69095237Y-76088152D02*
X69095237Y-76421485D01*
X69095237Y-76421485D02*
X69142856Y-76611961D01*
X69142856Y-76611961D02*
X69238094Y-76707200D01*
X69238094Y-76707200D02*
X69333332Y-76754819D01*
X69333332Y-76754819D02*
X69523808Y-76754819D01*
X69523808Y-76754819D02*
X69619046Y-76707200D01*
X69619046Y-76707200D02*
X69714284Y-76611961D01*
X69714284Y-76611961D02*
X69761903Y-76421485D01*
X69761903Y-76421485D02*
X69761903Y-76088152D01*
X69761903Y-76088152D02*
X69714284Y-75897676D01*
X69714284Y-75897676D02*
X69619046Y-75802438D01*
X69619046Y-75802438D02*
X69523808Y-75754819D01*
X68095237Y-76754819D02*
X68428570Y-76278628D01*
X68666665Y-76754819D02*
X68666665Y-75754819D01*
X68666665Y-75754819D02*
X68285713Y-75754819D01*
X68285713Y-75754819D02*
X68190475Y-75802438D01*
X68190475Y-75802438D02*
X68142856Y-75850057D01*
X68142856Y-75850057D02*
X68095237Y-75945295D01*
X68095237Y-75945295D02*
X68095237Y-76088152D01*
X68095237Y-76088152D02*
X68142856Y-76183390D01*
X68142856Y-76183390D02*
X68190475Y-76231009D01*
X68190475Y-76231009D02*
X68285713Y-76278628D01*
X68285713Y-76278628D02*
X68666665Y-76278628D01*
X66904760Y-76754819D02*
X66904760Y-75754819D01*
X66904760Y-75754819D02*
X66571427Y-76469104D01*
X66571427Y-76469104D02*
X66238094Y-75754819D01*
X66238094Y-75754819D02*
X66238094Y-76754819D01*
X65761903Y-76754819D02*
X65761903Y-75754819D01*
X65285713Y-76754819D02*
X65285713Y-75754819D01*
X65285713Y-75754819D02*
X65047618Y-75754819D01*
X65047618Y-75754819D02*
X64904761Y-75802438D01*
X64904761Y-75802438D02*
X64809523Y-75897676D01*
X64809523Y-75897676D02*
X64761904Y-75992914D01*
X64761904Y-75992914D02*
X64714285Y-76183390D01*
X64714285Y-76183390D02*
X64714285Y-76326247D01*
X64714285Y-76326247D02*
X64761904Y-76516723D01*
X64761904Y-76516723D02*
X64809523Y-76611961D01*
X64809523Y-76611961D02*
X64904761Y-76707200D01*
X64904761Y-76707200D02*
X65047618Y-76754819D01*
X65047618Y-76754819D02*
X65285713Y-76754819D01*
X64285713Y-76754819D02*
X64285713Y-75754819D01*
X63047618Y-76754819D02*
X63047618Y-75754819D01*
X63047618Y-75754819D02*
X62714285Y-76469104D01*
X62714285Y-76469104D02*
X62380952Y-75754819D01*
X62380952Y-75754819D02*
X62380952Y-76754819D01*
X61380952Y-76754819D02*
X61952380Y-76754819D01*
X61666666Y-76754819D02*
X61666666Y-75754819D01*
X61666666Y-75754819D02*
X61761904Y-75897676D01*
X61761904Y-75897676D02*
X61857142Y-75992914D01*
X61857142Y-75992914D02*
X61952380Y-76040533D01*
X70261905Y-72418318D02*
X70261905Y-72989746D01*
X70261905Y-72989746D02*
X70300000Y-73104032D01*
X70300000Y-73104032D02*
X70376191Y-73180223D01*
X70376191Y-73180223D02*
X70490476Y-73218318D01*
X70490476Y-73218318D02*
X70566667Y-73218318D01*
X69919048Y-72494508D02*
X69880952Y-72456413D01*
X69880952Y-72456413D02*
X69804762Y-72418318D01*
X69804762Y-72418318D02*
X69614286Y-72418318D01*
X69614286Y-72418318D02*
X69538095Y-72456413D01*
X69538095Y-72456413D02*
X69500000Y-72494508D01*
X69500000Y-72494508D02*
X69461905Y-72570699D01*
X69461905Y-72570699D02*
X69461905Y-72646889D01*
X69461905Y-72646889D02*
X69500000Y-72761175D01*
X69500000Y-72761175D02*
X69957143Y-73218318D01*
X69957143Y-73218318D02*
X69461905Y-73218318D01*
X68966666Y-72418318D02*
X68890476Y-72418318D01*
X68890476Y-72418318D02*
X68814285Y-72456413D01*
X68814285Y-72456413D02*
X68776190Y-72494508D01*
X68776190Y-72494508D02*
X68738095Y-72570699D01*
X68738095Y-72570699D02*
X68700000Y-72723080D01*
X68700000Y-72723080D02*
X68700000Y-72913556D01*
X68700000Y-72913556D02*
X68738095Y-73065937D01*
X68738095Y-73065937D02*
X68776190Y-73142127D01*
X68776190Y-73142127D02*
X68814285Y-73180223D01*
X68814285Y-73180223D02*
X68890476Y-73218318D01*
X68890476Y-73218318D02*
X68966666Y-73218318D01*
X68966666Y-73218318D02*
X69042857Y-73180223D01*
X69042857Y-73180223D02*
X69080952Y-73142127D01*
X69080952Y-73142127D02*
X69119047Y-73065937D01*
X69119047Y-73065937D02*
X69157143Y-72913556D01*
X69157143Y-72913556D02*
X69157143Y-72723080D01*
X69157143Y-72723080D02*
X69119047Y-72570699D01*
X69119047Y-72570699D02*
X69080952Y-72494508D01*
X69080952Y-72494508D02*
X69042857Y-72456413D01*
X69042857Y-72456413D02*
X68966666Y-72418318D01*
X68433333Y-72418318D02*
X67938095Y-72418318D01*
X67938095Y-72418318D02*
X68204761Y-72723080D01*
X68204761Y-72723080D02*
X68090476Y-72723080D01*
X68090476Y-72723080D02*
X68014285Y-72761175D01*
X68014285Y-72761175D02*
X67976190Y-72799270D01*
X67976190Y-72799270D02*
X67938095Y-72875461D01*
X67938095Y-72875461D02*
X67938095Y-73065937D01*
X67938095Y-73065937D02*
X67976190Y-73142127D01*
X67976190Y-73142127D02*
X68014285Y-73180223D01*
X68014285Y-73180223D02*
X68090476Y-73218318D01*
X68090476Y-73218318D02*
X68319047Y-73218318D01*
X68319047Y-73218318D02*
X68395238Y-73180223D01*
X68395238Y-73180223D02*
X68433333Y-73142127D01*
X66528570Y-73142127D02*
X66566666Y-73180223D01*
X66566666Y-73180223D02*
X66680951Y-73218318D01*
X66680951Y-73218318D02*
X66757142Y-73218318D01*
X66757142Y-73218318D02*
X66871428Y-73180223D01*
X66871428Y-73180223D02*
X66947618Y-73104032D01*
X66947618Y-73104032D02*
X66985713Y-73027842D01*
X66985713Y-73027842D02*
X67023809Y-72875461D01*
X67023809Y-72875461D02*
X67023809Y-72761175D01*
X67023809Y-72761175D02*
X66985713Y-72608794D01*
X66985713Y-72608794D02*
X66947618Y-72532603D01*
X66947618Y-72532603D02*
X66871428Y-72456413D01*
X66871428Y-72456413D02*
X66757142Y-72418318D01*
X66757142Y-72418318D02*
X66680951Y-72418318D01*
X66680951Y-72418318D02*
X66566666Y-72456413D01*
X66566666Y-72456413D02*
X66528570Y-72494508D01*
X66223809Y-72989746D02*
X65842856Y-72989746D01*
X66299999Y-73218318D02*
X66033332Y-72418318D01*
X66033332Y-72418318D02*
X65766666Y-73218318D01*
X65538095Y-73180223D02*
X65423809Y-73218318D01*
X65423809Y-73218318D02*
X65233333Y-73218318D01*
X65233333Y-73218318D02*
X65157142Y-73180223D01*
X65157142Y-73180223D02*
X65119047Y-73142127D01*
X65119047Y-73142127D02*
X65080952Y-73065937D01*
X65080952Y-73065937D02*
X65080952Y-72989746D01*
X65080952Y-72989746D02*
X65119047Y-72913556D01*
X65119047Y-72913556D02*
X65157142Y-72875461D01*
X65157142Y-72875461D02*
X65233333Y-72837365D01*
X65233333Y-72837365D02*
X65385714Y-72799270D01*
X65385714Y-72799270D02*
X65461904Y-72761175D01*
X65461904Y-72761175D02*
X65499999Y-72723080D01*
X65499999Y-72723080D02*
X65538095Y-72646889D01*
X65538095Y-72646889D02*
X65538095Y-72570699D01*
X65538095Y-72570699D02*
X65499999Y-72494508D01*
X65499999Y-72494508D02*
X65461904Y-72456413D01*
X65461904Y-72456413D02*
X65385714Y-72418318D01*
X65385714Y-72418318D02*
X65195237Y-72418318D01*
X65195237Y-72418318D02*
X65080952Y-72456413D01*
X64738094Y-72799270D02*
X64471428Y-72799270D01*
X64357142Y-73218318D02*
X64738094Y-73218318D01*
X64738094Y-73218318D02*
X64738094Y-72418318D01*
X64738094Y-72418318D02*
X64357142Y-72418318D01*
X63138094Y-72799270D02*
X63023808Y-72837365D01*
X63023808Y-72837365D02*
X62985713Y-72875461D01*
X62985713Y-72875461D02*
X62947617Y-72951651D01*
X62947617Y-72951651D02*
X62947617Y-73065937D01*
X62947617Y-73065937D02*
X62985713Y-73142127D01*
X62985713Y-73142127D02*
X63023808Y-73180223D01*
X63023808Y-73180223D02*
X63099998Y-73218318D01*
X63099998Y-73218318D02*
X63404760Y-73218318D01*
X63404760Y-73218318D02*
X63404760Y-72418318D01*
X63404760Y-72418318D02*
X63138094Y-72418318D01*
X63138094Y-72418318D02*
X63061903Y-72456413D01*
X63061903Y-72456413D02*
X63023808Y-72494508D01*
X63023808Y-72494508D02*
X62985713Y-72570699D01*
X62985713Y-72570699D02*
X62985713Y-72646889D01*
X62985713Y-72646889D02*
X63023808Y-72723080D01*
X63023808Y-72723080D02*
X63061903Y-72761175D01*
X63061903Y-72761175D02*
X63138094Y-72799270D01*
X63138094Y-72799270D02*
X63404760Y-72799270D01*
X62452379Y-72418318D02*
X62299998Y-72418318D01*
X62299998Y-72418318D02*
X62223808Y-72456413D01*
X62223808Y-72456413D02*
X62147617Y-72532603D01*
X62147617Y-72532603D02*
X62109522Y-72684984D01*
X62109522Y-72684984D02*
X62109522Y-72951651D01*
X62109522Y-72951651D02*
X62147617Y-73104032D01*
X62147617Y-73104032D02*
X62223808Y-73180223D01*
X62223808Y-73180223D02*
X62299998Y-73218318D01*
X62299998Y-73218318D02*
X62452379Y-73218318D01*
X62452379Y-73218318D02*
X62528570Y-73180223D01*
X62528570Y-73180223D02*
X62604760Y-73104032D01*
X62604760Y-73104032D02*
X62642856Y-72951651D01*
X62642856Y-72951651D02*
X62642856Y-72684984D01*
X62642856Y-72684984D02*
X62604760Y-72532603D01*
X62604760Y-72532603D02*
X62528570Y-72456413D01*
X62528570Y-72456413D02*
X62452379Y-72418318D01*
X61766665Y-73218318D02*
X61766665Y-72418318D01*
X61766665Y-72418318D02*
X61309522Y-73218318D01*
X61309522Y-73218318D02*
X61309522Y-72418318D01*
X60928570Y-73218318D02*
X60928570Y-72418318D01*
X60928570Y-72418318D02*
X60738094Y-72418318D01*
X60738094Y-72418318D02*
X60623808Y-72456413D01*
X60623808Y-72456413D02*
X60547618Y-72532603D01*
X60547618Y-72532603D02*
X60509523Y-72608794D01*
X60509523Y-72608794D02*
X60471427Y-72761175D01*
X60471427Y-72761175D02*
X60471427Y-72875461D01*
X60471427Y-72875461D02*
X60509523Y-73027842D01*
X60509523Y-73027842D02*
X60547618Y-73104032D01*
X60547618Y-73104032D02*
X60623808Y-73180223D01*
X60623808Y-73180223D02*
X60738094Y-73218318D01*
X60738094Y-73218318D02*
X60928570Y-73218318D01*
X70604762Y-74506273D02*
X71061905Y-74506273D01*
X70833333Y-74506273D02*
X70833333Y-73706273D01*
X70833333Y-73706273D02*
X70909524Y-73820558D01*
X70909524Y-73820558D02*
X70985714Y-73896749D01*
X70985714Y-73896749D02*
X71061905Y-73934844D01*
X69195237Y-74430082D02*
X69233333Y-74468178D01*
X69233333Y-74468178D02*
X69347618Y-74506273D01*
X69347618Y-74506273D02*
X69423809Y-74506273D01*
X69423809Y-74506273D02*
X69538095Y-74468178D01*
X69538095Y-74468178D02*
X69614285Y-74391987D01*
X69614285Y-74391987D02*
X69652380Y-74315797D01*
X69652380Y-74315797D02*
X69690476Y-74163416D01*
X69690476Y-74163416D02*
X69690476Y-74049130D01*
X69690476Y-74049130D02*
X69652380Y-73896749D01*
X69652380Y-73896749D02*
X69614285Y-73820558D01*
X69614285Y-73820558D02*
X69538095Y-73744368D01*
X69538095Y-73744368D02*
X69423809Y-73706273D01*
X69423809Y-73706273D02*
X69347618Y-73706273D01*
X69347618Y-73706273D02*
X69233333Y-73744368D01*
X69233333Y-73744368D02*
X69195237Y-73782463D01*
X68890476Y-74277701D02*
X68509523Y-74277701D01*
X68966666Y-74506273D02*
X68699999Y-73706273D01*
X68699999Y-73706273D02*
X68433333Y-74506273D01*
X68204762Y-74468178D02*
X68090476Y-74506273D01*
X68090476Y-74506273D02*
X67900000Y-74506273D01*
X67900000Y-74506273D02*
X67823809Y-74468178D01*
X67823809Y-74468178D02*
X67785714Y-74430082D01*
X67785714Y-74430082D02*
X67747619Y-74353892D01*
X67747619Y-74353892D02*
X67747619Y-74277701D01*
X67747619Y-74277701D02*
X67785714Y-74201511D01*
X67785714Y-74201511D02*
X67823809Y-74163416D01*
X67823809Y-74163416D02*
X67900000Y-74125320D01*
X67900000Y-74125320D02*
X68052381Y-74087225D01*
X68052381Y-74087225D02*
X68128571Y-74049130D01*
X68128571Y-74049130D02*
X68166666Y-74011035D01*
X68166666Y-74011035D02*
X68204762Y-73934844D01*
X68204762Y-73934844D02*
X68204762Y-73858654D01*
X68204762Y-73858654D02*
X68166666Y-73782463D01*
X68166666Y-73782463D02*
X68128571Y-73744368D01*
X68128571Y-73744368D02*
X68052381Y-73706273D01*
X68052381Y-73706273D02*
X67861904Y-73706273D01*
X67861904Y-73706273D02*
X67747619Y-73744368D01*
X67404761Y-74087225D02*
X67138095Y-74087225D01*
X67023809Y-74506273D02*
X67404761Y-74506273D01*
X67404761Y-74506273D02*
X67404761Y-73706273D01*
X67404761Y-73706273D02*
X67023809Y-73706273D01*
X65499999Y-73782463D02*
X65461903Y-73744368D01*
X65461903Y-73744368D02*
X65385713Y-73706273D01*
X65385713Y-73706273D02*
X65195237Y-73706273D01*
X65195237Y-73706273D02*
X65119046Y-73744368D01*
X65119046Y-73744368D02*
X65080951Y-73782463D01*
X65080951Y-73782463D02*
X65042856Y-73858654D01*
X65042856Y-73858654D02*
X65042856Y-73934844D01*
X65042856Y-73934844D02*
X65080951Y-74049130D01*
X65080951Y-74049130D02*
X65538094Y-74506273D01*
X65538094Y-74506273D02*
X65042856Y-74506273D01*
X63671427Y-73744368D02*
X63747617Y-73706273D01*
X63747617Y-73706273D02*
X63861903Y-73706273D01*
X63861903Y-73706273D02*
X63976189Y-73744368D01*
X63976189Y-73744368D02*
X64052379Y-73820558D01*
X64052379Y-73820558D02*
X64090474Y-73896749D01*
X64090474Y-73896749D02*
X64128570Y-74049130D01*
X64128570Y-74049130D02*
X64128570Y-74163416D01*
X64128570Y-74163416D02*
X64090474Y-74315797D01*
X64090474Y-74315797D02*
X64052379Y-74391987D01*
X64052379Y-74391987D02*
X63976189Y-74468178D01*
X63976189Y-74468178D02*
X63861903Y-74506273D01*
X63861903Y-74506273D02*
X63785712Y-74506273D01*
X63785712Y-74506273D02*
X63671427Y-74468178D01*
X63671427Y-74468178D02*
X63633331Y-74430082D01*
X63633331Y-74430082D02*
X63633331Y-74163416D01*
X63633331Y-74163416D02*
X63785712Y-74163416D01*
X63290474Y-74506273D02*
X63290474Y-73706273D01*
X63290474Y-73706273D02*
X62833331Y-74506273D01*
X62833331Y-74506273D02*
X62833331Y-73706273D01*
X62452379Y-74506273D02*
X62452379Y-73706273D01*
X62452379Y-73706273D02*
X62261903Y-73706273D01*
X62261903Y-73706273D02*
X62147617Y-73744368D01*
X62147617Y-73744368D02*
X62071427Y-73820558D01*
X62071427Y-73820558D02*
X62033332Y-73896749D01*
X62033332Y-73896749D02*
X61995236Y-74049130D01*
X61995236Y-74049130D02*
X61995236Y-74163416D01*
X61995236Y-74163416D02*
X62033332Y-74315797D01*
X62033332Y-74315797D02*
X62071427Y-74391987D01*
X62071427Y-74391987D02*
X62147617Y-74468178D01*
X62147617Y-74468178D02*
X62261903Y-74506273D01*
X62261903Y-74506273D02*
X62452379Y-74506273D01*
X60890474Y-73706273D02*
X60814284Y-73706273D01*
X60814284Y-73706273D02*
X60738093Y-73744368D01*
X60738093Y-73744368D02*
X60699998Y-73782463D01*
X60699998Y-73782463D02*
X60661903Y-73858654D01*
X60661903Y-73858654D02*
X60623808Y-74011035D01*
X60623808Y-74011035D02*
X60623808Y-74201511D01*
X60623808Y-74201511D02*
X60661903Y-74353892D01*
X60661903Y-74353892D02*
X60699998Y-74430082D01*
X60699998Y-74430082D02*
X60738093Y-74468178D01*
X60738093Y-74468178D02*
X60814284Y-74506273D01*
X60814284Y-74506273D02*
X60890474Y-74506273D01*
X60890474Y-74506273D02*
X60966665Y-74468178D01*
X60966665Y-74468178D02*
X61004760Y-74430082D01*
X61004760Y-74430082D02*
X61042855Y-74353892D01*
X61042855Y-74353892D02*
X61080951Y-74201511D01*
X61080951Y-74201511D02*
X61080951Y-74011035D01*
X61080951Y-74011035D02*
X61042855Y-73858654D01*
X61042855Y-73858654D02*
X61004760Y-73782463D01*
X61004760Y-73782463D02*
X60966665Y-73744368D01*
X60966665Y-73744368D02*
X60890474Y-73706273D01*
X60395236Y-73706273D02*
X60128569Y-74506273D01*
X60128569Y-74506273D02*
X59861903Y-73706273D01*
X64414284Y-61062295D02*
X64261903Y-61062295D01*
X64261903Y-61062295D02*
X64185713Y-61100390D01*
X64185713Y-61100390D02*
X64109522Y-61176580D01*
X64109522Y-61176580D02*
X64071427Y-61328961D01*
X64071427Y-61328961D02*
X64071427Y-61595628D01*
X64071427Y-61595628D02*
X64109522Y-61748009D01*
X64109522Y-61748009D02*
X64185713Y-61824200D01*
X64185713Y-61824200D02*
X64261903Y-61862295D01*
X64261903Y-61862295D02*
X64414284Y-61862295D01*
X64414284Y-61862295D02*
X64490475Y-61824200D01*
X64490475Y-61824200D02*
X64566665Y-61748009D01*
X64566665Y-61748009D02*
X64604761Y-61595628D01*
X64604761Y-61595628D02*
X64604761Y-61328961D01*
X64604761Y-61328961D02*
X64566665Y-61176580D01*
X64566665Y-61176580D02*
X64490475Y-61100390D01*
X64490475Y-61100390D02*
X64414284Y-61062295D01*
X63728570Y-61062295D02*
X63728570Y-61709914D01*
X63728570Y-61709914D02*
X63690475Y-61786104D01*
X63690475Y-61786104D02*
X63652380Y-61824200D01*
X63652380Y-61824200D02*
X63576189Y-61862295D01*
X63576189Y-61862295D02*
X63423808Y-61862295D01*
X63423808Y-61862295D02*
X63347618Y-61824200D01*
X63347618Y-61824200D02*
X63309523Y-61786104D01*
X63309523Y-61786104D02*
X63271427Y-61709914D01*
X63271427Y-61709914D02*
X63271427Y-61062295D01*
X63004761Y-61062295D02*
X62547618Y-61062295D01*
X62776190Y-61862295D02*
X62776190Y-61062295D01*
X62280951Y-61443247D02*
X61671428Y-61443247D01*
X61671428Y-61671819D02*
X62280951Y-61671819D01*
X61023809Y-61443247D02*
X61290475Y-61443247D01*
X61290475Y-61862295D02*
X61290475Y-61062295D01*
X61290475Y-61062295D02*
X60909523Y-61062295D01*
X60147618Y-61862295D02*
X60414285Y-61481342D01*
X60604761Y-61862295D02*
X60604761Y-61062295D01*
X60604761Y-61062295D02*
X60299999Y-61062295D01*
X60299999Y-61062295D02*
X60223809Y-61100390D01*
X60223809Y-61100390D02*
X60185714Y-61138485D01*
X60185714Y-61138485D02*
X60147618Y-61214676D01*
X60147618Y-61214676D02*
X60147618Y-61328961D01*
X60147618Y-61328961D02*
X60185714Y-61405152D01*
X60185714Y-61405152D02*
X60223809Y-61443247D01*
X60223809Y-61443247D02*
X60299999Y-61481342D01*
X60299999Y-61481342D02*
X60604761Y-61481342D01*
X59652380Y-61062295D02*
X59499999Y-61062295D01*
X59499999Y-61062295D02*
X59423809Y-61100390D01*
X59423809Y-61100390D02*
X59347618Y-61176580D01*
X59347618Y-61176580D02*
X59309523Y-61328961D01*
X59309523Y-61328961D02*
X59309523Y-61595628D01*
X59309523Y-61595628D02*
X59347618Y-61748009D01*
X59347618Y-61748009D02*
X59423809Y-61824200D01*
X59423809Y-61824200D02*
X59499999Y-61862295D01*
X59499999Y-61862295D02*
X59652380Y-61862295D01*
X59652380Y-61862295D02*
X59728571Y-61824200D01*
X59728571Y-61824200D02*
X59804761Y-61748009D01*
X59804761Y-61748009D02*
X59842857Y-61595628D01*
X59842857Y-61595628D02*
X59842857Y-61328961D01*
X59842857Y-61328961D02*
X59804761Y-61176580D01*
X59804761Y-61176580D02*
X59728571Y-61100390D01*
X59728571Y-61100390D02*
X59652380Y-61062295D01*
X58966666Y-61862295D02*
X58966666Y-61062295D01*
X58966666Y-61062295D02*
X58700000Y-61633723D01*
X58700000Y-61633723D02*
X58433333Y-61062295D01*
X58433333Y-61062295D02*
X58433333Y-61862295D01*
X78028571Y-69792295D02*
X78028571Y-70363723D01*
X78028571Y-70363723D02*
X78066666Y-70478009D01*
X78066666Y-70478009D02*
X78142857Y-70554200D01*
X78142857Y-70554200D02*
X78257142Y-70592295D01*
X78257142Y-70592295D02*
X78333333Y-70592295D01*
X77685714Y-69868485D02*
X77647618Y-69830390D01*
X77647618Y-69830390D02*
X77571428Y-69792295D01*
X77571428Y-69792295D02*
X77380952Y-69792295D01*
X77380952Y-69792295D02*
X77304761Y-69830390D01*
X77304761Y-69830390D02*
X77266666Y-69868485D01*
X77266666Y-69868485D02*
X77228571Y-69944676D01*
X77228571Y-69944676D02*
X77228571Y-70020866D01*
X77228571Y-70020866D02*
X77266666Y-70135152D01*
X77266666Y-70135152D02*
X77723809Y-70592295D01*
X77723809Y-70592295D02*
X77228571Y-70592295D01*
X76733332Y-69792295D02*
X76657142Y-69792295D01*
X76657142Y-69792295D02*
X76580951Y-69830390D01*
X76580951Y-69830390D02*
X76542856Y-69868485D01*
X76542856Y-69868485D02*
X76504761Y-69944676D01*
X76504761Y-69944676D02*
X76466666Y-70097057D01*
X76466666Y-70097057D02*
X76466666Y-70287533D01*
X76466666Y-70287533D02*
X76504761Y-70439914D01*
X76504761Y-70439914D02*
X76542856Y-70516104D01*
X76542856Y-70516104D02*
X76580951Y-70554200D01*
X76580951Y-70554200D02*
X76657142Y-70592295D01*
X76657142Y-70592295D02*
X76733332Y-70592295D01*
X76733332Y-70592295D02*
X76809523Y-70554200D01*
X76809523Y-70554200D02*
X76847618Y-70516104D01*
X76847618Y-70516104D02*
X76885713Y-70439914D01*
X76885713Y-70439914D02*
X76923809Y-70287533D01*
X76923809Y-70287533D02*
X76923809Y-70097057D01*
X76923809Y-70097057D02*
X76885713Y-69944676D01*
X76885713Y-69944676D02*
X76847618Y-69868485D01*
X76847618Y-69868485D02*
X76809523Y-69830390D01*
X76809523Y-69830390D02*
X76733332Y-69792295D01*
X76199999Y-69792295D02*
X75704761Y-69792295D01*
X75704761Y-69792295D02*
X75971427Y-70097057D01*
X75971427Y-70097057D02*
X75857142Y-70097057D01*
X75857142Y-70097057D02*
X75780951Y-70135152D01*
X75780951Y-70135152D02*
X75742856Y-70173247D01*
X75742856Y-70173247D02*
X75704761Y-70249438D01*
X75704761Y-70249438D02*
X75704761Y-70439914D01*
X75704761Y-70439914D02*
X75742856Y-70516104D01*
X75742856Y-70516104D02*
X75780951Y-70554200D01*
X75780951Y-70554200D02*
X75857142Y-70592295D01*
X75857142Y-70592295D02*
X76085713Y-70592295D01*
X76085713Y-70592295D02*
X76161904Y-70554200D01*
X76161904Y-70554200D02*
X76199999Y-70516104D01*
X74447619Y-66274340D02*
X74447619Y-66845768D01*
X74447619Y-66845768D02*
X74485714Y-66960054D01*
X74485714Y-66960054D02*
X74561905Y-67036245D01*
X74561905Y-67036245D02*
X74676190Y-67074340D01*
X74676190Y-67074340D02*
X74752381Y-67074340D01*
X73647619Y-67074340D02*
X74104762Y-67074340D01*
X73876190Y-67074340D02*
X73876190Y-66274340D01*
X73876190Y-66274340D02*
X73952381Y-66388625D01*
X73952381Y-66388625D02*
X74028571Y-66464816D01*
X74028571Y-66464816D02*
X74104762Y-66502911D01*
X73152380Y-66274340D02*
X73076190Y-66274340D01*
X73076190Y-66274340D02*
X72999999Y-66312435D01*
X72999999Y-66312435D02*
X72961904Y-66350530D01*
X72961904Y-66350530D02*
X72923809Y-66426721D01*
X72923809Y-66426721D02*
X72885714Y-66579102D01*
X72885714Y-66579102D02*
X72885714Y-66769578D01*
X72885714Y-66769578D02*
X72923809Y-66921959D01*
X72923809Y-66921959D02*
X72961904Y-66998149D01*
X72961904Y-66998149D02*
X72999999Y-67036245D01*
X72999999Y-67036245D02*
X73076190Y-67074340D01*
X73076190Y-67074340D02*
X73152380Y-67074340D01*
X73152380Y-67074340D02*
X73228571Y-67036245D01*
X73228571Y-67036245D02*
X73266666Y-66998149D01*
X73266666Y-66998149D02*
X73304761Y-66921959D01*
X73304761Y-66921959D02*
X73342857Y-66769578D01*
X73342857Y-66769578D02*
X73342857Y-66579102D01*
X73342857Y-66579102D02*
X73304761Y-66426721D01*
X73304761Y-66426721D02*
X73266666Y-66350530D01*
X73266666Y-66350530D02*
X73228571Y-66312435D01*
X73228571Y-66312435D02*
X73152380Y-66274340D01*
X72123809Y-67074340D02*
X72580952Y-67074340D01*
X72352380Y-67074340D02*
X72352380Y-66274340D01*
X72352380Y-66274340D02*
X72428571Y-66388625D01*
X72428571Y-66388625D02*
X72504761Y-66464816D01*
X72504761Y-66464816D02*
X72580952Y-66502911D01*
X71171427Y-67074340D02*
X71171427Y-66274340D01*
X71171427Y-66274340D02*
X70866665Y-66274340D01*
X70866665Y-66274340D02*
X70790475Y-66312435D01*
X70790475Y-66312435D02*
X70752380Y-66350530D01*
X70752380Y-66350530D02*
X70714284Y-66426721D01*
X70714284Y-66426721D02*
X70714284Y-66541006D01*
X70714284Y-66541006D02*
X70752380Y-66617197D01*
X70752380Y-66617197D02*
X70790475Y-66655292D01*
X70790475Y-66655292D02*
X70866665Y-66693387D01*
X70866665Y-66693387D02*
X71171427Y-66693387D01*
X70447618Y-66274340D02*
X70257142Y-67074340D01*
X70257142Y-67074340D02*
X70104761Y-66502911D01*
X70104761Y-66502911D02*
X69952380Y-67074340D01*
X69952380Y-67074340D02*
X69761904Y-66274340D01*
X68999998Y-67074340D02*
X69266665Y-66693387D01*
X69457141Y-67074340D02*
X69457141Y-66274340D01*
X69457141Y-66274340D02*
X69152379Y-66274340D01*
X69152379Y-66274340D02*
X69076189Y-66312435D01*
X69076189Y-66312435D02*
X69038094Y-66350530D01*
X69038094Y-66350530D02*
X68999998Y-66426721D01*
X68999998Y-66426721D02*
X68999998Y-66541006D01*
X68999998Y-66541006D02*
X69038094Y-66617197D01*
X69038094Y-66617197D02*
X69076189Y-66655292D01*
X69076189Y-66655292D02*
X69152379Y-66693387D01*
X69152379Y-66693387D02*
X69457141Y-66693387D01*
X68047617Y-67074340D02*
X68047617Y-66274340D01*
X67666665Y-67074340D02*
X67666665Y-66274340D01*
X67666665Y-66274340D02*
X67209522Y-67074340D01*
X67209522Y-67074340D02*
X67209522Y-66274340D01*
X65647618Y-66236245D02*
X66333332Y-67264816D01*
X64771427Y-66274340D02*
X64771427Y-66921959D01*
X64771427Y-66921959D02*
X64733332Y-66998149D01*
X64733332Y-66998149D02*
X64695237Y-67036245D01*
X64695237Y-67036245D02*
X64619046Y-67074340D01*
X64619046Y-67074340D02*
X64466665Y-67074340D01*
X64466665Y-67074340D02*
X64390475Y-67036245D01*
X64390475Y-67036245D02*
X64352380Y-66998149D01*
X64352380Y-66998149D02*
X64314284Y-66921959D01*
X64314284Y-66921959D02*
X64314284Y-66274340D01*
X63971428Y-66845768D02*
X63590475Y-66845768D01*
X64047618Y-67074340D02*
X63780951Y-66274340D01*
X63780951Y-66274340D02*
X63514285Y-67074340D01*
X62790475Y-67074340D02*
X63057142Y-66693387D01*
X63247618Y-67074340D02*
X63247618Y-66274340D01*
X63247618Y-66274340D02*
X62942856Y-66274340D01*
X62942856Y-66274340D02*
X62866666Y-66312435D01*
X62866666Y-66312435D02*
X62828571Y-66350530D01*
X62828571Y-66350530D02*
X62790475Y-66426721D01*
X62790475Y-66426721D02*
X62790475Y-66541006D01*
X62790475Y-66541006D02*
X62828571Y-66617197D01*
X62828571Y-66617197D02*
X62866666Y-66655292D01*
X62866666Y-66655292D02*
X62942856Y-66693387D01*
X62942856Y-66693387D02*
X63247618Y-66693387D01*
X62561904Y-66274340D02*
X62104761Y-66274340D01*
X62333333Y-67074340D02*
X62333333Y-66274340D01*
X61076189Y-66274340D02*
X60923808Y-66274340D01*
X60923808Y-66274340D02*
X60847618Y-66312435D01*
X60847618Y-66312435D02*
X60771427Y-66388625D01*
X60771427Y-66388625D02*
X60733332Y-66541006D01*
X60733332Y-66541006D02*
X60733332Y-66807673D01*
X60733332Y-66807673D02*
X60771427Y-66960054D01*
X60771427Y-66960054D02*
X60847618Y-67036245D01*
X60847618Y-67036245D02*
X60923808Y-67074340D01*
X60923808Y-67074340D02*
X61076189Y-67074340D01*
X61076189Y-67074340D02*
X61152380Y-67036245D01*
X61152380Y-67036245D02*
X61228570Y-66960054D01*
X61228570Y-66960054D02*
X61266666Y-66807673D01*
X61266666Y-66807673D02*
X61266666Y-66541006D01*
X61266666Y-66541006D02*
X61228570Y-66388625D01*
X61228570Y-66388625D02*
X61152380Y-66312435D01*
X61152380Y-66312435D02*
X61076189Y-66274340D01*
X60390475Y-66274340D02*
X60390475Y-66921959D01*
X60390475Y-66921959D02*
X60352380Y-66998149D01*
X60352380Y-66998149D02*
X60314285Y-67036245D01*
X60314285Y-67036245D02*
X60238094Y-67074340D01*
X60238094Y-67074340D02*
X60085713Y-67074340D01*
X60085713Y-67074340D02*
X60009523Y-67036245D01*
X60009523Y-67036245D02*
X59971428Y-66998149D01*
X59971428Y-66998149D02*
X59933332Y-66921959D01*
X59933332Y-66921959D02*
X59933332Y-66274340D01*
X59666666Y-66274340D02*
X59209523Y-66274340D01*
X59438095Y-67074340D02*
X59438095Y-66274340D01*
X72028571Y-68362295D02*
X72485714Y-68362295D01*
X72257142Y-68362295D02*
X72257142Y-67562295D01*
X72257142Y-67562295D02*
X72333333Y-67676580D01*
X72333333Y-67676580D02*
X72409523Y-67752771D01*
X72409523Y-67752771D02*
X72485714Y-67790866D01*
X70695237Y-67562295D02*
X71076189Y-67562295D01*
X71076189Y-67562295D02*
X71114285Y-67943247D01*
X71114285Y-67943247D02*
X71076189Y-67905152D01*
X71076189Y-67905152D02*
X70999999Y-67867057D01*
X70999999Y-67867057D02*
X70809523Y-67867057D01*
X70809523Y-67867057D02*
X70733332Y-67905152D01*
X70733332Y-67905152D02*
X70695237Y-67943247D01*
X70695237Y-67943247D02*
X70657142Y-68019438D01*
X70657142Y-68019438D02*
X70657142Y-68209914D01*
X70657142Y-68209914D02*
X70695237Y-68286104D01*
X70695237Y-68286104D02*
X70733332Y-68324200D01*
X70733332Y-68324200D02*
X70809523Y-68362295D01*
X70809523Y-68362295D02*
X70999999Y-68362295D01*
X70999999Y-68362295D02*
X71076189Y-68324200D01*
X71076189Y-68324200D02*
X71114285Y-68286104D01*
X70428570Y-67562295D02*
X70161903Y-68362295D01*
X70161903Y-68362295D02*
X69895237Y-67562295D01*
X69019046Y-68362295D02*
X69019046Y-67562295D01*
X68638094Y-68362295D02*
X68638094Y-67562295D01*
X68638094Y-67562295D02*
X68180951Y-68362295D01*
X68180951Y-68362295D02*
X68180951Y-67562295D01*
X66619047Y-67638485D02*
X66580951Y-67600390D01*
X66580951Y-67600390D02*
X66504761Y-67562295D01*
X66504761Y-67562295D02*
X66314285Y-67562295D01*
X66314285Y-67562295D02*
X66238094Y-67600390D01*
X66238094Y-67600390D02*
X66199999Y-67638485D01*
X66199999Y-67638485D02*
X66161904Y-67714676D01*
X66161904Y-67714676D02*
X66161904Y-67790866D01*
X66161904Y-67790866D02*
X66199999Y-67905152D01*
X66199999Y-67905152D02*
X66657142Y-68362295D01*
X66657142Y-68362295D02*
X66161904Y-68362295D01*
X65285713Y-67562295D02*
X64790475Y-67562295D01*
X64790475Y-67562295D02*
X65057141Y-67867057D01*
X65057141Y-67867057D02*
X64942856Y-67867057D01*
X64942856Y-67867057D02*
X64866665Y-67905152D01*
X64866665Y-67905152D02*
X64828570Y-67943247D01*
X64828570Y-67943247D02*
X64790475Y-68019438D01*
X64790475Y-68019438D02*
X64790475Y-68209914D01*
X64790475Y-68209914D02*
X64828570Y-68286104D01*
X64828570Y-68286104D02*
X64866665Y-68324200D01*
X64866665Y-68324200D02*
X64942856Y-68362295D01*
X64942856Y-68362295D02*
X65171427Y-68362295D01*
X65171427Y-68362295D02*
X65247618Y-68324200D01*
X65247618Y-68324200D02*
X65285713Y-68286104D01*
X64561903Y-67562295D02*
X64295236Y-68362295D01*
X64295236Y-68362295D02*
X64028570Y-67562295D01*
X63838094Y-67562295D02*
X63342856Y-67562295D01*
X63342856Y-67562295D02*
X63609522Y-67867057D01*
X63609522Y-67867057D02*
X63495237Y-67867057D01*
X63495237Y-67867057D02*
X63419046Y-67905152D01*
X63419046Y-67905152D02*
X63380951Y-67943247D01*
X63380951Y-67943247D02*
X63342856Y-68019438D01*
X63342856Y-68019438D02*
X63342856Y-68209914D01*
X63342856Y-68209914D02*
X63380951Y-68286104D01*
X63380951Y-68286104D02*
X63419046Y-68324200D01*
X63419046Y-68324200D02*
X63495237Y-68362295D01*
X63495237Y-68362295D02*
X63723808Y-68362295D01*
X63723808Y-68362295D02*
X63799999Y-68324200D01*
X63799999Y-68324200D02*
X63838094Y-68286104D01*
X62390474Y-68362295D02*
X62390474Y-67562295D01*
X62009522Y-68362295D02*
X62009522Y-67562295D01*
X62009522Y-67562295D02*
X61552379Y-68362295D01*
X61552379Y-68362295D02*
X61552379Y-67562295D01*
X74028571Y-68850250D02*
X73533333Y-68850250D01*
X73533333Y-68850250D02*
X73799999Y-69155012D01*
X73799999Y-69155012D02*
X73685714Y-69155012D01*
X73685714Y-69155012D02*
X73609523Y-69193107D01*
X73609523Y-69193107D02*
X73571428Y-69231202D01*
X73571428Y-69231202D02*
X73533333Y-69307393D01*
X73533333Y-69307393D02*
X73533333Y-69497869D01*
X73533333Y-69497869D02*
X73571428Y-69574059D01*
X73571428Y-69574059D02*
X73609523Y-69612155D01*
X73609523Y-69612155D02*
X73685714Y-69650250D01*
X73685714Y-69650250D02*
X73914285Y-69650250D01*
X73914285Y-69650250D02*
X73990476Y-69612155D01*
X73990476Y-69612155D02*
X74028571Y-69574059D01*
X72161904Y-68888345D02*
X72238094Y-68850250D01*
X72238094Y-68850250D02*
X72352380Y-68850250D01*
X72352380Y-68850250D02*
X72466666Y-68888345D01*
X72466666Y-68888345D02*
X72542856Y-68964535D01*
X72542856Y-68964535D02*
X72580951Y-69040726D01*
X72580951Y-69040726D02*
X72619047Y-69193107D01*
X72619047Y-69193107D02*
X72619047Y-69307393D01*
X72619047Y-69307393D02*
X72580951Y-69459774D01*
X72580951Y-69459774D02*
X72542856Y-69535964D01*
X72542856Y-69535964D02*
X72466666Y-69612155D01*
X72466666Y-69612155D02*
X72352380Y-69650250D01*
X72352380Y-69650250D02*
X72276189Y-69650250D01*
X72276189Y-69650250D02*
X72161904Y-69612155D01*
X72161904Y-69612155D02*
X72123808Y-69574059D01*
X72123808Y-69574059D02*
X72123808Y-69307393D01*
X72123808Y-69307393D02*
X72276189Y-69307393D01*
X71780951Y-69650250D02*
X71780951Y-68850250D01*
X71780951Y-68850250D02*
X71323808Y-69650250D01*
X71323808Y-69650250D02*
X71323808Y-68850250D01*
X70942856Y-69650250D02*
X70942856Y-68850250D01*
X70942856Y-68850250D02*
X70752380Y-68850250D01*
X70752380Y-68850250D02*
X70638094Y-68888345D01*
X70638094Y-68888345D02*
X70561904Y-68964535D01*
X70561904Y-68964535D02*
X70523809Y-69040726D01*
X70523809Y-69040726D02*
X70485713Y-69193107D01*
X70485713Y-69193107D02*
X70485713Y-69307393D01*
X70485713Y-69307393D02*
X70523809Y-69459774D01*
X70523809Y-69459774D02*
X70561904Y-69535964D01*
X70561904Y-69535964D02*
X70638094Y-69612155D01*
X70638094Y-69612155D02*
X70752380Y-69650250D01*
X70752380Y-69650250D02*
X70942856Y-69650250D01*
X69380951Y-68850250D02*
X69304761Y-68850250D01*
X69304761Y-68850250D02*
X69228570Y-68888345D01*
X69228570Y-68888345D02*
X69190475Y-68926440D01*
X69190475Y-68926440D02*
X69152380Y-69002631D01*
X69152380Y-69002631D02*
X69114285Y-69155012D01*
X69114285Y-69155012D02*
X69114285Y-69345488D01*
X69114285Y-69345488D02*
X69152380Y-69497869D01*
X69152380Y-69497869D02*
X69190475Y-69574059D01*
X69190475Y-69574059D02*
X69228570Y-69612155D01*
X69228570Y-69612155D02*
X69304761Y-69650250D01*
X69304761Y-69650250D02*
X69380951Y-69650250D01*
X69380951Y-69650250D02*
X69457142Y-69612155D01*
X69457142Y-69612155D02*
X69495237Y-69574059D01*
X69495237Y-69574059D02*
X69533332Y-69497869D01*
X69533332Y-69497869D02*
X69571428Y-69345488D01*
X69571428Y-69345488D02*
X69571428Y-69155012D01*
X69571428Y-69155012D02*
X69533332Y-69002631D01*
X69533332Y-69002631D02*
X69495237Y-68926440D01*
X69495237Y-68926440D02*
X69457142Y-68888345D01*
X69457142Y-68888345D02*
X69380951Y-68850250D01*
X68885713Y-68850250D02*
X68619046Y-69650250D01*
X68619046Y-69650250D02*
X68352380Y-68850250D01*
X66523808Y-69116916D02*
X66523808Y-69650250D01*
X66714284Y-68812155D02*
X66904761Y-69383583D01*
X66904761Y-69383583D02*
X66409522Y-69383583D01*
X65495236Y-68850250D02*
X65495236Y-69497869D01*
X65495236Y-69497869D02*
X65457141Y-69574059D01*
X65457141Y-69574059D02*
X65419046Y-69612155D01*
X65419046Y-69612155D02*
X65342855Y-69650250D01*
X65342855Y-69650250D02*
X65190474Y-69650250D01*
X65190474Y-69650250D02*
X65114284Y-69612155D01*
X65114284Y-69612155D02*
X65076189Y-69574059D01*
X65076189Y-69574059D02*
X65038093Y-69497869D01*
X65038093Y-69497869D02*
X65038093Y-68850250D01*
X64695237Y-69421678D02*
X64314284Y-69421678D01*
X64771427Y-69650250D02*
X64504760Y-68850250D01*
X64504760Y-68850250D02*
X64238094Y-69650250D01*
X63514284Y-69650250D02*
X63780951Y-69269297D01*
X63971427Y-69650250D02*
X63971427Y-68850250D01*
X63971427Y-68850250D02*
X63666665Y-68850250D01*
X63666665Y-68850250D02*
X63590475Y-68888345D01*
X63590475Y-68888345D02*
X63552380Y-68926440D01*
X63552380Y-68926440D02*
X63514284Y-69002631D01*
X63514284Y-69002631D02*
X63514284Y-69116916D01*
X63514284Y-69116916D02*
X63552380Y-69193107D01*
X63552380Y-69193107D02*
X63590475Y-69231202D01*
X63590475Y-69231202D02*
X63666665Y-69269297D01*
X63666665Y-69269297D02*
X63971427Y-69269297D01*
X63285713Y-68850250D02*
X62828570Y-68850250D01*
X63057142Y-69650250D02*
X63057142Y-68850250D01*
X61799998Y-68850250D02*
X61647617Y-68850250D01*
X61647617Y-68850250D02*
X61571427Y-68888345D01*
X61571427Y-68888345D02*
X61495236Y-68964535D01*
X61495236Y-68964535D02*
X61457141Y-69116916D01*
X61457141Y-69116916D02*
X61457141Y-69383583D01*
X61457141Y-69383583D02*
X61495236Y-69535964D01*
X61495236Y-69535964D02*
X61571427Y-69612155D01*
X61571427Y-69612155D02*
X61647617Y-69650250D01*
X61647617Y-69650250D02*
X61799998Y-69650250D01*
X61799998Y-69650250D02*
X61876189Y-69612155D01*
X61876189Y-69612155D02*
X61952379Y-69535964D01*
X61952379Y-69535964D02*
X61990475Y-69383583D01*
X61990475Y-69383583D02*
X61990475Y-69116916D01*
X61990475Y-69116916D02*
X61952379Y-68964535D01*
X61952379Y-68964535D02*
X61876189Y-68888345D01*
X61876189Y-68888345D02*
X61799998Y-68850250D01*
X61114284Y-68850250D02*
X61114284Y-69497869D01*
X61114284Y-69497869D02*
X61076189Y-69574059D01*
X61076189Y-69574059D02*
X61038094Y-69612155D01*
X61038094Y-69612155D02*
X60961903Y-69650250D01*
X60961903Y-69650250D02*
X60809522Y-69650250D01*
X60809522Y-69650250D02*
X60733332Y-69612155D01*
X60733332Y-69612155D02*
X60695237Y-69574059D01*
X60695237Y-69574059D02*
X60657141Y-69497869D01*
X60657141Y-69497869D02*
X60657141Y-68850250D01*
X60390475Y-68850250D02*
X59933332Y-68850250D01*
X60161904Y-69650250D02*
X60161904Y-68850250D01*
X54471428Y-61092295D02*
X54928571Y-61092295D01*
X54699999Y-61092295D02*
X54699999Y-60292295D01*
X54699999Y-60292295D02*
X54776190Y-60406580D01*
X54776190Y-60406580D02*
X54852380Y-60482771D01*
X54852380Y-60482771D02*
X54928571Y-60520866D01*
X79071428Y-73092295D02*
X79528571Y-73092295D01*
X79299999Y-73092295D02*
X79299999Y-72292295D01*
X79299999Y-72292295D02*
X79376190Y-72406580D01*
X79376190Y-72406580D02*
X79452380Y-72482771D01*
X79452380Y-72482771D02*
X79528571Y-72520866D01*
X78566666Y-63832294D02*
X78071428Y-63832294D01*
X78071428Y-63832294D02*
X78338094Y-64137056D01*
X78338094Y-64137056D02*
X78223809Y-64137056D01*
X78223809Y-64137056D02*
X78147618Y-64175151D01*
X78147618Y-64175151D02*
X78109523Y-64213246D01*
X78109523Y-64213246D02*
X78071428Y-64289437D01*
X78071428Y-64289437D02*
X78071428Y-64479913D01*
X78071428Y-64479913D02*
X78109523Y-64556103D01*
X78109523Y-64556103D02*
X78147618Y-64594199D01*
X78147618Y-64594199D02*
X78223809Y-64632294D01*
X78223809Y-64632294D02*
X78452380Y-64632294D01*
X78452380Y-64632294D02*
X78528571Y-64594199D01*
X78528571Y-64594199D02*
X78566666Y-64556103D01*
X81471428Y-59552295D02*
X81928571Y-59552295D01*
X81699999Y-59552295D02*
X81699999Y-58752295D01*
X81699999Y-58752295D02*
X81776190Y-58866580D01*
X81776190Y-58866580D02*
X81852380Y-58942771D01*
X81852380Y-58942771D02*
X81928571Y-58980866D01*
%LPC*%
D11*
X80000000Y-59190000D03*
D12*
X80000000Y-61730000D03*
X80000000Y-64270000D03*
X80000000Y-66810000D03*
D13*
X66190000Y-59460000D03*
D14*
X66190000Y-62000000D03*
X66190000Y-64540000D03*
X73810000Y-64540000D03*
X73810000Y-62000000D03*
X73810000Y-59460000D03*
D15*
X81000000Y-53000000D03*
D11*
X53000000Y-60730000D03*
D12*
X53000000Y-63270000D03*
D15*
X53000000Y-75000000D03*
D11*
X81000000Y-72730000D03*
D12*
X81000000Y-75270000D03*
%LPD*%
M02*
