G04 #@! TF.GenerationSoftware,KiCad,Pcbnew,9.0.2+dfsg-1*
G04 #@! TF.CreationDate,2026-10-02T15:26:43+00:00*
G04 #@! TF.ProjectId,Ardor_MIDI,4172646f-725f-44d4-9944-492e6b696361,rev?*
G04 #@! TF.SameCoordinates,Original*
G04 #@! TF.FileFunction,Legend,Top*
G04 #@! TF.FilePolarity,Positive*
%FSLAX46Y46*%
G04 Gerber Fmt 4.6, Leading zero omitted, Abs format (unit mm)*
G04 Created by KiCad (PCBNEW 9.0.2+dfsg-1) date 2026-10-02 15:26:43*
%MOMM*%
%LPD*%
G01*
G04 APERTURE LIST*
G04 Aperture macros list*
%AMRoundRect*
0 Rectangle with rounded corners*
0 $1 Rounding radius*
0 $2 $3 $4 $5 $6 $7 $8 $9 X,Y pos of 4 corners*
0 Add a 4 corners polygon primitive as box body*
4,1,4,$2,$3,$4,$5,$6,$7,$8,$9,$2,$3,0*
0 Add four circle primitives for the rounded corners*
1,1,$1+$1,$2,$3*
1,1,$1+$1,$4,$5*
1,1,$1+$1,$6,$7*
1,1,$1+$1,$8,$9*
0 Add four rect primitives between the rounded corners*
20,1,$1+$1,$2,$3,$4,$5,0*
20,1,$1+$1,$4,$5,$6,$7,0*
20,1,$1+$1,$6,$7,$8,$9,0*
20,1,$1+$1,$8,$9,$2,$3,0*%
G04 Aperture macros list end*
%ADD10C,0.120000*%
%ADD11R,1.700000X1.700000*%
%ADD12C,1.700000*%
%ADD13RoundRect,0.250000X-0.550000X-0.550000X0.550000X-0.550000X0.550000X0.550000X-0.550000X0.550000X0*%
%ADD14C,1.600000*%
%ADD15RoundRect,0.250000X-0.325000X-0.650000X0.325000X-0.650000X0.325000X0.650000X-0.325000X0.650000X0*%
%ADD16RoundRect,0.225000X-0.225000X-0.250000X0.225000X-0.250000X0.225000X0.250000X-0.225000X0.250000X0*%
%ADD17C,2.200000*%
%ADD18RoundRect,0.200000X-0.200000X-0.275000X0.200000X-0.275000X0.200000X0.275000X-0.200000X0.275000X0*%
%ADD19RoundRect,0.112500X-0.187500X-0.112500X0.187500X-0.112500X0.187500X0.112500X-0.187500X0.112500X0*%
%ADD20RoundRect,0.250000X-0.312500X-0.625000X0.312500X-0.625000X0.312500X0.625000X-0.312500X0.625000X0*%
%ADD21RoundRect,0.225000X-0.225000X-0.375000X0.225000X-0.375000X0.225000X0.375000X-0.225000X0.375000X0*%
G04 APERTURE END LIST*
D10*
X78620000Y-57810000D02*
X80000000Y-57810000D01*
X78620000Y-59190000D02*
X78620000Y-57810000D01*
X78620000Y-60460000D02*
X78620000Y-68190000D01*
X78620000Y-60460000D02*
X81380000Y-60460000D01*
X78620000Y-68190000D02*
X81380000Y-68190000D01*
X81380000Y-60460000D02*
X81380000Y-68190000D01*
X67350000Y-58130000D02*
X67350000Y-65870000D01*
X67350000Y-65870000D02*
X72650000Y-65870000D01*
X69000000Y-58130000D02*
X67350000Y-58130000D01*
X72650000Y-58130000D02*
X71000000Y-58130000D01*
X72650000Y-65870000D02*
X72650000Y-58130000D01*
X71000000Y-58130000D02*
G75*
G02*
X69000000Y-58130000I-1000000J0D01*
G01*
X58288748Y-54090000D02*
X59711252Y-54090000D01*
X58288748Y-55910000D02*
X59711252Y-55910000D01*
X76859420Y-53490000D02*
X77140580Y-53490000D01*
X76859420Y-54510000D02*
X77140580Y-54510000D01*
X56762742Y-59477500D02*
X57237258Y-59477500D01*
X56762742Y-60522500D02*
X57237258Y-60522500D01*
X53390000Y-53150000D02*
X53390000Y-54850000D01*
X53390000Y-53150000D02*
X56050000Y-53150000D01*
X53390000Y-54850000D02*
X56050000Y-54850000D01*
X75272936Y-73090000D02*
X76727064Y-73090000D01*
X75272936Y-74910000D02*
X76727064Y-74910000D01*
X59640000Y-64000000D02*
X59640000Y-66000000D01*
X59640000Y-64000000D02*
X63650000Y-64000000D01*
X59640000Y-66000000D02*
X63650000Y-66000000D01*
X77762742Y-69477500D02*
X78237258Y-69477500D01*
X77762742Y-70522500D02*
X78237258Y-70522500D01*
X52390000Y-57150000D02*
X52390000Y-58850000D01*
X52390000Y-57150000D02*
X55050000Y-57150000D01*
X52390000Y-58850000D02*
X55050000Y-58850000D01*
X60762742Y-59477500D02*
X61237258Y-59477500D01*
X60762742Y-60522500D02*
X61237258Y-60522500D01*
X56762742Y-64477500D02*
X57237258Y-64477500D01*
X56762742Y-65522500D02*
X57237258Y-65522500D01*
X75762742Y-66477500D02*
X76237258Y-66477500D01*
X75762742Y-67522500D02*
X76237258Y-67522500D01*
X51620000Y-59350000D02*
X53000000Y-59350000D01*
X51620000Y-60730000D02*
X51620000Y-59350000D01*
X51620000Y-62000000D02*
X51620000Y-64650000D01*
X51620000Y-62000000D02*
X54380000Y-62000000D01*
X51620000Y-64650000D02*
X54380000Y-64650000D01*
X54380000Y-62000000D02*
X54380000Y-64650000D01*
X55890000Y-73150000D02*
X55890000Y-74850000D01*
X55890000Y-73150000D02*
X58550000Y-73150000D01*
X55890000Y-74850000D02*
X58550000Y-74850000D01*
X79620000Y-71350000D02*
X81000000Y-71350000D01*
X79620000Y-72730000D02*
X79620000Y-71350000D01*
X79620000Y-74000000D02*
X79620000Y-76650000D01*
X79620000Y-74000000D02*
X82380000Y-74000000D01*
X79620000Y-76650000D02*
X82380000Y-76650000D01*
X82380000Y-74000000D02*
X82380000Y-76650000D01*
X76359420Y-55490000D02*
X76640580Y-55490000D01*
X76359420Y-56510000D02*
X76640580Y-56510000D01*
X58288748Y-70090000D02*
X59711252Y-70090000D01*
X58288748Y-71910000D02*
X59711252Y-71910000D01*
%LPC*%
D11*
X80000000Y-59190000D03*
D12*
X80000000Y-61730000D03*
X80000000Y-64270000D03*
X80000000Y-66810000D03*
D13*
X66190000Y-59460000D03*
D14*
X66190000Y-62000000D03*
X66190000Y-64540000D03*
X73810000Y-64540000D03*
X73810000Y-62000000D03*
X73810000Y-59460000D03*
D15*
X57525000Y-55000000D03*
X60475000Y-55000000D03*
D16*
X76225000Y-54000000D03*
X77775000Y-54000000D03*
D17*
X81000000Y-53000000D03*
D18*
X56175000Y-60000000D03*
X57825000Y-60000000D03*
D19*
X53950000Y-54000000D03*
X56050000Y-54000000D03*
D20*
X74537500Y-74000000D03*
X77462500Y-74000000D03*
D21*
X60350000Y-65000000D03*
X63650000Y-65000000D03*
D18*
X77175000Y-70000000D03*
X78825000Y-70000000D03*
D19*
X52950000Y-58000000D03*
X55050000Y-58000000D03*
D18*
X60175000Y-60000000D03*
X61825000Y-60000000D03*
X56175000Y-65000000D03*
X57825000Y-65000000D03*
X75175000Y-67000000D03*
X76825000Y-67000000D03*
D11*
X53000000Y-60730000D03*
D12*
X53000000Y-63270000D03*
D19*
X56450000Y-74000000D03*
X58550000Y-74000000D03*
D17*
X53000000Y-75000000D03*
D11*
X81000000Y-72730000D03*
D12*
X81000000Y-75270000D03*
D16*
X75725000Y-56000000D03*
X77275000Y-56000000D03*
D15*
X57525000Y-71000000D03*
X60475000Y-71000000D03*
%LPD*%
M02*
