G04 #@! TF.GenerationSoftware,KiCad,Pcbnew,9.0.2+dfsg-1*
G04 #@! TF.CreationDate,2026-10-02T15:26:40+00:00*
G04 #@! TF.ProjectId,Ardor_Mixer,4172646f-725f-44d6-9978-65722e6b6963,rev?*
G04 #@! TF.SameCoordinates,Original*
G04 #@! TF.FileFunction,Legend,Bot*
G04 #@! TF.FilePolarity,Positive*
%FSLAX46Y46*%
G04 Gerber Fmt 4.6, Leading zero omitted, Abs format (unit mm)*
G04 Created by KiCad (PCBNEW 9.0.2+dfsg-1) date 2026-10-02 15:26:40*
%MOMM*%
%LPD*%
G01*
G04 APERTURE LIST*
%ADD10C,0.150000*%
%ADD11R,1.700000X1.700000*%
%ADD12C,1.700000*%
%ADD13C,2.200000*%
G04 APERTURE END LIST*
D10*
X87028571Y-57252295D02*
X87028571Y-57823723D01*
X87028571Y-57823723D02*
X87066666Y-57938009D01*
X87066666Y-57938009D02*
X87142857Y-58014200D01*
X87142857Y-58014200D02*
X87257142Y-58052295D01*
X87257142Y-58052295D02*
X87333333Y-58052295D01*
X86228571Y-58052295D02*
X86685714Y-58052295D01*
X86457142Y-58052295D02*
X86457142Y-57252295D01*
X86457142Y-57252295D02*
X86533333Y-57366580D01*
X86533333Y-57366580D02*
X86609523Y-57442771D01*
X86609523Y-57442771D02*
X86685714Y-57480866D01*
X85733332Y-57252295D02*
X85657142Y-57252295D01*
X85657142Y-57252295D02*
X85580951Y-57290390D01*
X85580951Y-57290390D02*
X85542856Y-57328485D01*
X85542856Y-57328485D02*
X85504761Y-57404676D01*
X85504761Y-57404676D02*
X85466666Y-57557057D01*
X85466666Y-57557057D02*
X85466666Y-57747533D01*
X85466666Y-57747533D02*
X85504761Y-57899914D01*
X85504761Y-57899914D02*
X85542856Y-57976104D01*
X85542856Y-57976104D02*
X85580951Y-58014200D01*
X85580951Y-58014200D02*
X85657142Y-58052295D01*
X85657142Y-58052295D02*
X85733332Y-58052295D01*
X85733332Y-58052295D02*
X85809523Y-58014200D01*
X85809523Y-58014200D02*
X85847618Y-57976104D01*
X85847618Y-57976104D02*
X85885713Y-57899914D01*
X85885713Y-57899914D02*
X85923809Y-57747533D01*
X85923809Y-57747533D02*
X85923809Y-57557057D01*
X85923809Y-57557057D02*
X85885713Y-57404676D01*
X85885713Y-57404676D02*
X85847618Y-57328485D01*
X85847618Y-57328485D02*
X85809523Y-57290390D01*
X85809523Y-57290390D02*
X85733332Y-57252295D01*
X85199999Y-57252295D02*
X84704761Y-57252295D01*
X84704761Y-57252295D02*
X84971427Y-57557057D01*
X84971427Y-57557057D02*
X84857142Y-57557057D01*
X84857142Y-57557057D02*
X84780951Y-57595152D01*
X84780951Y-57595152D02*
X84742856Y-57633247D01*
X84742856Y-57633247D02*
X84704761Y-57709438D01*
X84704761Y-57709438D02*
X84704761Y-57899914D01*
X84704761Y-57899914D02*
X84742856Y-57976104D01*
X84742856Y-57976104D02*
X84780951Y-58014200D01*
X84780951Y-58014200D02*
X84857142Y-58052295D01*
X84857142Y-58052295D02*
X85085713Y-58052295D01*
X85085713Y-58052295D02*
X85161904Y-58014200D01*
X85161904Y-58014200D02*
X85199999Y-57976104D01*
X81252380Y-65632294D02*
X81519047Y-65251341D01*
X81709523Y-65632294D02*
X81709523Y-64832294D01*
X81709523Y-64832294D02*
X81404761Y-64832294D01*
X81404761Y-64832294D02*
X81328571Y-64870389D01*
X81328571Y-64870389D02*
X81290476Y-64908484D01*
X81290476Y-64908484D02*
X81252380Y-64984675D01*
X81252380Y-64984675D02*
X81252380Y-65098960D01*
X81252380Y-65098960D02*
X81290476Y-65175151D01*
X81290476Y-65175151D02*
X81328571Y-65213246D01*
X81328571Y-65213246D02*
X81404761Y-65251341D01*
X81404761Y-65251341D02*
X81709523Y-65251341D01*
X73028571Y-57332295D02*
X73028571Y-57903723D01*
X73028571Y-57903723D02*
X73066666Y-58018009D01*
X73066666Y-58018009D02*
X73142857Y-58094200D01*
X73142857Y-58094200D02*
X73257142Y-58132295D01*
X73257142Y-58132295D02*
X73333333Y-58132295D01*
X72228571Y-58132295D02*
X72685714Y-58132295D01*
X72457142Y-58132295D02*
X72457142Y-57332295D01*
X72457142Y-57332295D02*
X72533333Y-57446580D01*
X72533333Y-57446580D02*
X72609523Y-57522771D01*
X72609523Y-57522771D02*
X72685714Y-57560866D01*
X71733332Y-57332295D02*
X71657142Y-57332295D01*
X71657142Y-57332295D02*
X71580951Y-57370390D01*
X71580951Y-57370390D02*
X71542856Y-57408485D01*
X71542856Y-57408485D02*
X71504761Y-57484676D01*
X71504761Y-57484676D02*
X71466666Y-57637057D01*
X71466666Y-57637057D02*
X71466666Y-57827533D01*
X71466666Y-57827533D02*
X71504761Y-57979914D01*
X71504761Y-57979914D02*
X71542856Y-58056104D01*
X71542856Y-58056104D02*
X71580951Y-58094200D01*
X71580951Y-58094200D02*
X71657142Y-58132295D01*
X71657142Y-58132295D02*
X71733332Y-58132295D01*
X71733332Y-58132295D02*
X71809523Y-58094200D01*
X71809523Y-58094200D02*
X71847618Y-58056104D01*
X71847618Y-58056104D02*
X71885713Y-57979914D01*
X71885713Y-57979914D02*
X71923809Y-57827533D01*
X71923809Y-57827533D02*
X71923809Y-57637057D01*
X71923809Y-57637057D02*
X71885713Y-57484676D01*
X71885713Y-57484676D02*
X71847618Y-57408485D01*
X71847618Y-57408485D02*
X71809523Y-57370390D01*
X71809523Y-57370390D02*
X71733332Y-57332295D01*
X70704761Y-58132295D02*
X71161904Y-58132295D01*
X70933332Y-58132295D02*
X70933332Y-57332295D01*
X70933332Y-57332295D02*
X71009523Y-57446580D01*
X71009523Y-57446580D02*
X71085713Y-57522771D01*
X71085713Y-57522771D02*
X71161904Y-57560866D01*
X75357142Y-78169104D02*
X74880952Y-78169104D01*
X75452380Y-78454819D02*
X75119047Y-77454819D01*
X75119047Y-77454819D02*
X74785714Y-78454819D01*
X73880952Y-78454819D02*
X74214285Y-77978628D01*
X74452380Y-78454819D02*
X74452380Y-77454819D01*
X74452380Y-77454819D02*
X74071428Y-77454819D01*
X74071428Y-77454819D02*
X73976190Y-77502438D01*
X73976190Y-77502438D02*
X73928571Y-77550057D01*
X73928571Y-77550057D02*
X73880952Y-77645295D01*
X73880952Y-77645295D02*
X73880952Y-77788152D01*
X73880952Y-77788152D02*
X73928571Y-77883390D01*
X73928571Y-77883390D02*
X73976190Y-77931009D01*
X73976190Y-77931009D02*
X74071428Y-77978628D01*
X74071428Y-77978628D02*
X74452380Y-77978628D01*
X73452380Y-78454819D02*
X73452380Y-77454819D01*
X73452380Y-77454819D02*
X73214285Y-77454819D01*
X73214285Y-77454819D02*
X73071428Y-77502438D01*
X73071428Y-77502438D02*
X72976190Y-77597676D01*
X72976190Y-77597676D02*
X72928571Y-77692914D01*
X72928571Y-77692914D02*
X72880952Y-77883390D01*
X72880952Y-77883390D02*
X72880952Y-78026247D01*
X72880952Y-78026247D02*
X72928571Y-78216723D01*
X72928571Y-78216723D02*
X72976190Y-78311961D01*
X72976190Y-78311961D02*
X73071428Y-78407200D01*
X73071428Y-78407200D02*
X73214285Y-78454819D01*
X73214285Y-78454819D02*
X73452380Y-78454819D01*
X72261904Y-77454819D02*
X72071428Y-77454819D01*
X72071428Y-77454819D02*
X71976190Y-77502438D01*
X71976190Y-77502438D02*
X71880952Y-77597676D01*
X71880952Y-77597676D02*
X71833333Y-77788152D01*
X71833333Y-77788152D02*
X71833333Y-78121485D01*
X71833333Y-78121485D02*
X71880952Y-78311961D01*
X71880952Y-78311961D02*
X71976190Y-78407200D01*
X71976190Y-78407200D02*
X72071428Y-78454819D01*
X72071428Y-78454819D02*
X72261904Y-78454819D01*
X72261904Y-78454819D02*
X72357142Y-78407200D01*
X72357142Y-78407200D02*
X72452380Y-78311961D01*
X72452380Y-78311961D02*
X72499999Y-78121485D01*
X72499999Y-78121485D02*
X72499999Y-77788152D01*
X72499999Y-77788152D02*
X72452380Y-77597676D01*
X72452380Y-77597676D02*
X72357142Y-77502438D01*
X72357142Y-77502438D02*
X72261904Y-77454819D01*
X70833333Y-78454819D02*
X71166666Y-77978628D01*
X71404761Y-78454819D02*
X71404761Y-77454819D01*
X71404761Y-77454819D02*
X71023809Y-77454819D01*
X71023809Y-77454819D02*
X70928571Y-77502438D01*
X70928571Y-77502438D02*
X70880952Y-77550057D01*
X70880952Y-77550057D02*
X70833333Y-77645295D01*
X70833333Y-77645295D02*
X70833333Y-77788152D01*
X70833333Y-77788152D02*
X70880952Y-77883390D01*
X70880952Y-77883390D02*
X70928571Y-77931009D01*
X70928571Y-77931009D02*
X71023809Y-77978628D01*
X71023809Y-77978628D02*
X71404761Y-77978628D01*
X69642856Y-78454819D02*
X69642856Y-77454819D01*
X69642856Y-77454819D02*
X69309523Y-78169104D01*
X69309523Y-78169104D02*
X68976190Y-77454819D01*
X68976190Y-77454819D02*
X68976190Y-78454819D01*
X68499999Y-78454819D02*
X68499999Y-77454819D01*
X68119047Y-77454819D02*
X67452381Y-78454819D01*
X67452381Y-77454819D02*
X68119047Y-78454819D01*
X66309523Y-78454819D02*
X66309523Y-77454819D01*
X66309523Y-77454819D02*
X65976190Y-78169104D01*
X65976190Y-78169104D02*
X65642857Y-77454819D01*
X65642857Y-77454819D02*
X65642857Y-78454819D01*
X64642857Y-78454819D02*
X65214285Y-78454819D01*
X64928571Y-78454819D02*
X64928571Y-77454819D01*
X64928571Y-77454819D02*
X65023809Y-77597676D01*
X65023809Y-77597676D02*
X65119047Y-77692914D01*
X65119047Y-77692914D02*
X65214285Y-77740533D01*
X57252380Y-64902295D02*
X57519047Y-64521342D01*
X57709523Y-64902295D02*
X57709523Y-64102295D01*
X57709523Y-64102295D02*
X57404761Y-64102295D01*
X57404761Y-64102295D02*
X57328571Y-64140390D01*
X57328571Y-64140390D02*
X57290476Y-64178485D01*
X57290476Y-64178485D02*
X57252380Y-64254676D01*
X57252380Y-64254676D02*
X57252380Y-64368961D01*
X57252380Y-64368961D02*
X57290476Y-64445152D01*
X57290476Y-64445152D02*
X57328571Y-64483247D01*
X57328571Y-64483247D02*
X57404761Y-64521342D01*
X57404761Y-64521342D02*
X57709523Y-64521342D01*
X82109523Y-62330390D02*
X82185713Y-62292295D01*
X82185713Y-62292295D02*
X82299999Y-62292295D01*
X82299999Y-62292295D02*
X82414285Y-62330390D01*
X82414285Y-62330390D02*
X82490475Y-62406580D01*
X82490475Y-62406580D02*
X82528570Y-62482771D01*
X82528570Y-62482771D02*
X82566666Y-62635152D01*
X82566666Y-62635152D02*
X82566666Y-62749438D01*
X82566666Y-62749438D02*
X82528570Y-62901819D01*
X82528570Y-62901819D02*
X82490475Y-62978009D01*
X82490475Y-62978009D02*
X82414285Y-63054200D01*
X82414285Y-63054200D02*
X82299999Y-63092295D01*
X82299999Y-63092295D02*
X82223808Y-63092295D01*
X82223808Y-63092295D02*
X82109523Y-63054200D01*
X82109523Y-63054200D02*
X82071427Y-63016104D01*
X82071427Y-63016104D02*
X82071427Y-62749438D01*
X82071427Y-62749438D02*
X82223808Y-62749438D01*
X81728570Y-63092295D02*
X81728570Y-62292295D01*
X81728570Y-62292295D02*
X81271427Y-63092295D01*
X81271427Y-63092295D02*
X81271427Y-62292295D01*
X80890475Y-63092295D02*
X80890475Y-62292295D01*
X80890475Y-62292295D02*
X80699999Y-62292295D01*
X80699999Y-62292295D02*
X80585713Y-62330390D01*
X80585713Y-62330390D02*
X80509523Y-62406580D01*
X80509523Y-62406580D02*
X80471428Y-62482771D01*
X80471428Y-62482771D02*
X80433332Y-62635152D01*
X80433332Y-62635152D02*
X80433332Y-62749438D01*
X80433332Y-62749438D02*
X80471428Y-62901819D01*
X80471428Y-62901819D02*
X80509523Y-62978009D01*
X80509523Y-62978009D02*
X80585713Y-63054200D01*
X80585713Y-63054200D02*
X80699999Y-63092295D01*
X80699999Y-63092295D02*
X80890475Y-63092295D01*
X58109523Y-61600390D02*
X58185713Y-61562295D01*
X58185713Y-61562295D02*
X58299999Y-61562295D01*
X58299999Y-61562295D02*
X58414285Y-61600390D01*
X58414285Y-61600390D02*
X58490475Y-61676580D01*
X58490475Y-61676580D02*
X58528570Y-61752771D01*
X58528570Y-61752771D02*
X58566666Y-61905152D01*
X58566666Y-61905152D02*
X58566666Y-62019438D01*
X58566666Y-62019438D02*
X58528570Y-62171819D01*
X58528570Y-62171819D02*
X58490475Y-62248009D01*
X58490475Y-62248009D02*
X58414285Y-62324200D01*
X58414285Y-62324200D02*
X58299999Y-62362295D01*
X58299999Y-62362295D02*
X58223808Y-62362295D01*
X58223808Y-62362295D02*
X58109523Y-62324200D01*
X58109523Y-62324200D02*
X58071427Y-62286104D01*
X58071427Y-62286104D02*
X58071427Y-62019438D01*
X58071427Y-62019438D02*
X58223808Y-62019438D01*
X57728570Y-62362295D02*
X57728570Y-61562295D01*
X57728570Y-61562295D02*
X57271427Y-62362295D01*
X57271427Y-62362295D02*
X57271427Y-61562295D01*
X56890475Y-62362295D02*
X56890475Y-61562295D01*
X56890475Y-61562295D02*
X56699999Y-61562295D01*
X56699999Y-61562295D02*
X56585713Y-61600390D01*
X56585713Y-61600390D02*
X56509523Y-61676580D01*
X56509523Y-61676580D02*
X56471428Y-61752771D01*
X56471428Y-61752771D02*
X56433332Y-61905152D01*
X56433332Y-61905152D02*
X56433332Y-62019438D01*
X56433332Y-62019438D02*
X56471428Y-62171819D01*
X56471428Y-62171819D02*
X56509523Y-62248009D01*
X56509523Y-62248009D02*
X56585713Y-62324200D01*
X56585713Y-62324200D02*
X56699999Y-62362295D01*
X56699999Y-62362295D02*
X56890475Y-62362295D01*
X83023808Y-68172295D02*
X83023808Y-67372295D01*
X83023808Y-67372295D02*
X82757142Y-67943723D01*
X82757142Y-67943723D02*
X82490475Y-67372295D01*
X82490475Y-67372295D02*
X82490475Y-68172295D01*
X81957141Y-67372295D02*
X81804760Y-67372295D01*
X81804760Y-67372295D02*
X81728570Y-67410390D01*
X81728570Y-67410390D02*
X81652379Y-67486580D01*
X81652379Y-67486580D02*
X81614284Y-67638961D01*
X81614284Y-67638961D02*
X81614284Y-67905628D01*
X81614284Y-67905628D02*
X81652379Y-68058009D01*
X81652379Y-68058009D02*
X81728570Y-68134200D01*
X81728570Y-68134200D02*
X81804760Y-68172295D01*
X81804760Y-68172295D02*
X81957141Y-68172295D01*
X81957141Y-68172295D02*
X82033332Y-68134200D01*
X82033332Y-68134200D02*
X82109522Y-68058009D01*
X82109522Y-68058009D02*
X82147618Y-67905628D01*
X82147618Y-67905628D02*
X82147618Y-67638961D01*
X82147618Y-67638961D02*
X82109522Y-67486580D01*
X82109522Y-67486580D02*
X82033332Y-67410390D01*
X82033332Y-67410390D02*
X81957141Y-67372295D01*
X81271427Y-68172295D02*
X81271427Y-67372295D01*
X81271427Y-67372295D02*
X80814284Y-68172295D01*
X80814284Y-68172295D02*
X80814284Y-67372295D01*
X80280951Y-67372295D02*
X80128570Y-67372295D01*
X80128570Y-67372295D02*
X80052380Y-67410390D01*
X80052380Y-67410390D02*
X79976189Y-67486580D01*
X79976189Y-67486580D02*
X79938094Y-67638961D01*
X79938094Y-67638961D02*
X79938094Y-67905628D01*
X79938094Y-67905628D02*
X79976189Y-68058009D01*
X79976189Y-68058009D02*
X80052380Y-68134200D01*
X80052380Y-68134200D02*
X80128570Y-68172295D01*
X80128570Y-68172295D02*
X80280951Y-68172295D01*
X80280951Y-68172295D02*
X80357142Y-68134200D01*
X80357142Y-68134200D02*
X80433332Y-68058009D01*
X80433332Y-68058009D02*
X80471428Y-67905628D01*
X80471428Y-67905628D02*
X80471428Y-67638961D01*
X80471428Y-67638961D02*
X80433332Y-67486580D01*
X80433332Y-67486580D02*
X80357142Y-67410390D01*
X80357142Y-67410390D02*
X80280951Y-67372295D01*
X57252380Y-59822295D02*
X57633332Y-59822295D01*
X57633332Y-59822295D02*
X57633332Y-59022295D01*
X68109523Y-54870390D02*
X68185713Y-54832295D01*
X68185713Y-54832295D02*
X68299999Y-54832295D01*
X68299999Y-54832295D02*
X68414285Y-54870390D01*
X68414285Y-54870390D02*
X68490475Y-54946580D01*
X68490475Y-54946580D02*
X68528570Y-55022771D01*
X68528570Y-55022771D02*
X68566666Y-55175152D01*
X68566666Y-55175152D02*
X68566666Y-55289438D01*
X68566666Y-55289438D02*
X68528570Y-55441819D01*
X68528570Y-55441819D02*
X68490475Y-55518009D01*
X68490475Y-55518009D02*
X68414285Y-55594200D01*
X68414285Y-55594200D02*
X68299999Y-55632295D01*
X68299999Y-55632295D02*
X68223808Y-55632295D01*
X68223808Y-55632295D02*
X68109523Y-55594200D01*
X68109523Y-55594200D02*
X68071427Y-55556104D01*
X68071427Y-55556104D02*
X68071427Y-55289438D01*
X68071427Y-55289438D02*
X68223808Y-55289438D01*
X67728570Y-55632295D02*
X67728570Y-54832295D01*
X67728570Y-54832295D02*
X67271427Y-55632295D01*
X67271427Y-55632295D02*
X67271427Y-54832295D01*
X66890475Y-55632295D02*
X66890475Y-54832295D01*
X66890475Y-54832295D02*
X66699999Y-54832295D01*
X66699999Y-54832295D02*
X66585713Y-54870390D01*
X66585713Y-54870390D02*
X66509523Y-54946580D01*
X66509523Y-54946580D02*
X66471428Y-55022771D01*
X66471428Y-55022771D02*
X66433332Y-55175152D01*
X66433332Y-55175152D02*
X66433332Y-55289438D01*
X66433332Y-55289438D02*
X66471428Y-55441819D01*
X66471428Y-55441819D02*
X66509523Y-55518009D01*
X66509523Y-55518009D02*
X66585713Y-55594200D01*
X66585713Y-55594200D02*
X66699999Y-55632295D01*
X66699999Y-55632295D02*
X66890475Y-55632295D01*
X67652380Y-52292295D02*
X68033332Y-52292295D01*
X68033332Y-52292295D02*
X68071428Y-52673247D01*
X68071428Y-52673247D02*
X68033332Y-52635152D01*
X68033332Y-52635152D02*
X67957142Y-52597057D01*
X67957142Y-52597057D02*
X67766666Y-52597057D01*
X67766666Y-52597057D02*
X67690475Y-52635152D01*
X67690475Y-52635152D02*
X67652380Y-52673247D01*
X67652380Y-52673247D02*
X67614285Y-52749438D01*
X67614285Y-52749438D02*
X67614285Y-52939914D01*
X67614285Y-52939914D02*
X67652380Y-53016104D01*
X67652380Y-53016104D02*
X67690475Y-53054200D01*
X67690475Y-53054200D02*
X67766666Y-53092295D01*
X67766666Y-53092295D02*
X67957142Y-53092295D01*
X67957142Y-53092295D02*
X68033332Y-53054200D01*
X68033332Y-53054200D02*
X68071428Y-53016104D01*
X67385713Y-52292295D02*
X67119046Y-53092295D01*
X67119046Y-53092295D02*
X66852380Y-52292295D01*
X54028571Y-56522295D02*
X54028571Y-57093723D01*
X54028571Y-57093723D02*
X54066666Y-57208009D01*
X54066666Y-57208009D02*
X54142857Y-57284200D01*
X54142857Y-57284200D02*
X54257142Y-57322295D01*
X54257142Y-57322295D02*
X54333333Y-57322295D01*
X53228571Y-57322295D02*
X53685714Y-57322295D01*
X53457142Y-57322295D02*
X53457142Y-56522295D01*
X53457142Y-56522295D02*
X53533333Y-56636580D01*
X53533333Y-56636580D02*
X53609523Y-56712771D01*
X53609523Y-56712771D02*
X53685714Y-56750866D01*
X52733332Y-56522295D02*
X52657142Y-56522295D01*
X52657142Y-56522295D02*
X52580951Y-56560390D01*
X52580951Y-56560390D02*
X52542856Y-56598485D01*
X52542856Y-56598485D02*
X52504761Y-56674676D01*
X52504761Y-56674676D02*
X52466666Y-56827057D01*
X52466666Y-56827057D02*
X52466666Y-57017533D01*
X52466666Y-57017533D02*
X52504761Y-57169914D01*
X52504761Y-57169914D02*
X52542856Y-57246104D01*
X52542856Y-57246104D02*
X52580951Y-57284200D01*
X52580951Y-57284200D02*
X52657142Y-57322295D01*
X52657142Y-57322295D02*
X52733332Y-57322295D01*
X52733332Y-57322295D02*
X52809523Y-57284200D01*
X52809523Y-57284200D02*
X52847618Y-57246104D01*
X52847618Y-57246104D02*
X52885713Y-57169914D01*
X52885713Y-57169914D02*
X52923809Y-57017533D01*
X52923809Y-57017533D02*
X52923809Y-56827057D01*
X52923809Y-56827057D02*
X52885713Y-56674676D01*
X52885713Y-56674676D02*
X52847618Y-56598485D01*
X52847618Y-56598485D02*
X52809523Y-56560390D01*
X52809523Y-56560390D02*
X52733332Y-56522295D01*
X52161904Y-56598485D02*
X52123808Y-56560390D01*
X52123808Y-56560390D02*
X52047618Y-56522295D01*
X52047618Y-56522295D02*
X51857142Y-56522295D01*
X51857142Y-56522295D02*
X51780951Y-56560390D01*
X51780951Y-56560390D02*
X51742856Y-56598485D01*
X51742856Y-56598485D02*
X51704761Y-56674676D01*
X51704761Y-56674676D02*
X51704761Y-56750866D01*
X51704761Y-56750866D02*
X51742856Y-56865152D01*
X51742856Y-56865152D02*
X52199999Y-57322295D01*
X52199999Y-57322295D02*
X51704761Y-57322295D01*
X81252380Y-60552295D02*
X81633332Y-60552295D01*
X81633332Y-60552295D02*
X81633332Y-59752295D01*
%LPC*%
D11*
X86000000Y-60190000D03*
D12*
X86000000Y-62730000D03*
X86000000Y-65270000D03*
X86000000Y-67810000D03*
D13*
X53000000Y-77000000D03*
D11*
X72000000Y-52730000D03*
D12*
X72000000Y-55270000D03*
D11*
X53000000Y-59460000D03*
D12*
X53000000Y-62000000D03*
X53000000Y-64540000D03*
D13*
X87000000Y-53000000D03*
%LPD*%
M02*
