G04 #@! TF.GenerationSoftware,KiCad,Pcbnew,9.0.2+dfsg-1*
G04 #@! TF.CreationDate,2026-10-02T20:04:38+00:00*
G04 #@! TF.ProjectId,Ardor_Mixer,4172646f-725f-44d6-9978-65722e6b6963,rev?*
G04 #@! TF.SameCoordinates,Original*
G04 #@! TF.FileFunction,Legend,Bot*
G04 #@! TF.FilePolarity,Positive*
%FSLAX46Y46*%
G04 Gerber Fmt 4.6, Leading zero omitted, Abs format (unit mm)*
G04 Created by KiCad (PCBNEW 9.0.2+dfsg-1) date 2026-10-02 20:04:38*
%MOMM*%
%LPD*%
G01*
G04 APERTURE LIST*
%ADD10C,0.150000*%
%ADD11R,1.700000X1.700000*%
%ADD12C,1.700000*%
%ADD13C,2.200000*%
G04 APERTURE END LIST*
D10*
X72914284Y-69062295D02*
X72761903Y-69062295D01*
X72761903Y-69062295D02*
X72685713Y-69100390D01*
X72685713Y-69100390D02*
X72609522Y-69176580D01*
X72609522Y-69176580D02*
X72571427Y-69328961D01*
X72571427Y-69328961D02*
X72571427Y-69595628D01*
X72571427Y-69595628D02*
X72609522Y-69748009D01*
X72609522Y-69748009D02*
X72685713Y-69824200D01*
X72685713Y-69824200D02*
X72761903Y-69862295D01*
X72761903Y-69862295D02*
X72914284Y-69862295D01*
X72914284Y-69862295D02*
X72990475Y-69824200D01*
X72990475Y-69824200D02*
X73066665Y-69748009D01*
X73066665Y-69748009D02*
X73104761Y-69595628D01*
X73104761Y-69595628D02*
X73104761Y-69328961D01*
X73104761Y-69328961D02*
X73066665Y-69176580D01*
X73066665Y-69176580D02*
X72990475Y-69100390D01*
X72990475Y-69100390D02*
X72914284Y-69062295D01*
X72228570Y-69062295D02*
X72228570Y-69709914D01*
X72228570Y-69709914D02*
X72190475Y-69786104D01*
X72190475Y-69786104D02*
X72152380Y-69824200D01*
X72152380Y-69824200D02*
X72076189Y-69862295D01*
X72076189Y-69862295D02*
X71923808Y-69862295D01*
X71923808Y-69862295D02*
X71847618Y-69824200D01*
X71847618Y-69824200D02*
X71809523Y-69786104D01*
X71809523Y-69786104D02*
X71771427Y-69709914D01*
X71771427Y-69709914D02*
X71771427Y-69062295D01*
X71504761Y-69062295D02*
X71047618Y-69062295D01*
X71276190Y-69862295D02*
X71276190Y-69062295D01*
X70780951Y-69443247D02*
X70171428Y-69443247D01*
X70171428Y-69671819D02*
X70780951Y-69671819D01*
X69523809Y-69443247D02*
X69790475Y-69443247D01*
X69790475Y-69862295D02*
X69790475Y-69062295D01*
X69790475Y-69062295D02*
X69409523Y-69062295D01*
X68647618Y-69862295D02*
X68914285Y-69481342D01*
X69104761Y-69862295D02*
X69104761Y-69062295D01*
X69104761Y-69062295D02*
X68799999Y-69062295D01*
X68799999Y-69062295D02*
X68723809Y-69100390D01*
X68723809Y-69100390D02*
X68685714Y-69138485D01*
X68685714Y-69138485D02*
X68647618Y-69214676D01*
X68647618Y-69214676D02*
X68647618Y-69328961D01*
X68647618Y-69328961D02*
X68685714Y-69405152D01*
X68685714Y-69405152D02*
X68723809Y-69443247D01*
X68723809Y-69443247D02*
X68799999Y-69481342D01*
X68799999Y-69481342D02*
X69104761Y-69481342D01*
X68152380Y-69062295D02*
X67999999Y-69062295D01*
X67999999Y-69062295D02*
X67923809Y-69100390D01*
X67923809Y-69100390D02*
X67847618Y-69176580D01*
X67847618Y-69176580D02*
X67809523Y-69328961D01*
X67809523Y-69328961D02*
X67809523Y-69595628D01*
X67809523Y-69595628D02*
X67847618Y-69748009D01*
X67847618Y-69748009D02*
X67923809Y-69824200D01*
X67923809Y-69824200D02*
X67999999Y-69862295D01*
X67999999Y-69862295D02*
X68152380Y-69862295D01*
X68152380Y-69862295D02*
X68228571Y-69824200D01*
X68228571Y-69824200D02*
X68304761Y-69748009D01*
X68304761Y-69748009D02*
X68342857Y-69595628D01*
X68342857Y-69595628D02*
X68342857Y-69328961D01*
X68342857Y-69328961D02*
X68304761Y-69176580D01*
X68304761Y-69176580D02*
X68228571Y-69100390D01*
X68228571Y-69100390D02*
X68152380Y-69062295D01*
X67466666Y-69862295D02*
X67466666Y-69062295D01*
X67466666Y-69062295D02*
X67200000Y-69633723D01*
X67200000Y-69633723D02*
X66933333Y-69062295D01*
X66933333Y-69062295D02*
X66933333Y-69862295D01*
X71247617Y-63862295D02*
X71247617Y-63062295D01*
X70866665Y-63862295D02*
X70866665Y-63062295D01*
X70866665Y-63062295D02*
X70409522Y-63862295D01*
X70409522Y-63862295D02*
X70409522Y-63062295D01*
X70028570Y-63443247D02*
X69419047Y-63443247D01*
X69419047Y-63671819D02*
X70028570Y-63671819D01*
X69038094Y-63862295D02*
X69038094Y-63062295D01*
X68657142Y-63862295D02*
X68657142Y-63062295D01*
X68657142Y-63062295D02*
X68199999Y-63862295D01*
X68199999Y-63862295D02*
X68199999Y-63062295D01*
X67933333Y-63062295D02*
X67476190Y-63062295D01*
X67704762Y-63862295D02*
X67704762Y-63062295D01*
X67057142Y-63062295D02*
X66904761Y-63062295D01*
X66904761Y-63062295D02*
X66828571Y-63100390D01*
X66828571Y-63100390D02*
X66752380Y-63176580D01*
X66752380Y-63176580D02*
X66714285Y-63328961D01*
X66714285Y-63328961D02*
X66714285Y-63595628D01*
X66714285Y-63595628D02*
X66752380Y-63748009D01*
X66752380Y-63748009D02*
X66828571Y-63824200D01*
X66828571Y-63824200D02*
X66904761Y-63862295D01*
X66904761Y-63862295D02*
X67057142Y-63862295D01*
X67057142Y-63862295D02*
X67133333Y-63824200D01*
X67133333Y-63824200D02*
X67209523Y-63748009D01*
X67209523Y-63748009D02*
X67247619Y-63595628D01*
X67247619Y-63595628D02*
X67247619Y-63328961D01*
X67247619Y-63328961D02*
X67209523Y-63176580D01*
X67209523Y-63176580D02*
X67133333Y-63100390D01*
X67133333Y-63100390D02*
X67057142Y-63062295D01*
X84528571Y-62368485D02*
X84490475Y-62330390D01*
X84490475Y-62330390D02*
X84414285Y-62292295D01*
X84414285Y-62292295D02*
X84223809Y-62292295D01*
X84223809Y-62292295D02*
X84147618Y-62330390D01*
X84147618Y-62330390D02*
X84109523Y-62368485D01*
X84109523Y-62368485D02*
X84071428Y-62444676D01*
X84071428Y-62444676D02*
X84071428Y-62520866D01*
X84071428Y-62520866D02*
X84109523Y-62635152D01*
X84109523Y-62635152D02*
X84566666Y-63092295D01*
X84566666Y-63092295D02*
X84071428Y-63092295D01*
X87028571Y-57252295D02*
X87028571Y-57823723D01*
X87028571Y-57823723D02*
X87066666Y-57938009D01*
X87066666Y-57938009D02*
X87142857Y-58014200D01*
X87142857Y-58014200D02*
X87257142Y-58052295D01*
X87257142Y-58052295D02*
X87333333Y-58052295D01*
X86228571Y-58052295D02*
X86685714Y-58052295D01*
X86457142Y-58052295D02*
X86457142Y-57252295D01*
X86457142Y-57252295D02*
X86533333Y-57366580D01*
X86533333Y-57366580D02*
X86609523Y-57442771D01*
X86609523Y-57442771D02*
X86685714Y-57480866D01*
X85733332Y-57252295D02*
X85657142Y-57252295D01*
X85657142Y-57252295D02*
X85580951Y-57290390D01*
X85580951Y-57290390D02*
X85542856Y-57328485D01*
X85542856Y-57328485D02*
X85504761Y-57404676D01*
X85504761Y-57404676D02*
X85466666Y-57557057D01*
X85466666Y-57557057D02*
X85466666Y-57747533D01*
X85466666Y-57747533D02*
X85504761Y-57899914D01*
X85504761Y-57899914D02*
X85542856Y-57976104D01*
X85542856Y-57976104D02*
X85580951Y-58014200D01*
X85580951Y-58014200D02*
X85657142Y-58052295D01*
X85657142Y-58052295D02*
X85733332Y-58052295D01*
X85733332Y-58052295D02*
X85809523Y-58014200D01*
X85809523Y-58014200D02*
X85847618Y-57976104D01*
X85847618Y-57976104D02*
X85885713Y-57899914D01*
X85885713Y-57899914D02*
X85923809Y-57747533D01*
X85923809Y-57747533D02*
X85923809Y-57557057D01*
X85923809Y-57557057D02*
X85885713Y-57404676D01*
X85885713Y-57404676D02*
X85847618Y-57328485D01*
X85847618Y-57328485D02*
X85809523Y-57290390D01*
X85809523Y-57290390D02*
X85733332Y-57252295D01*
X85199999Y-57252295D02*
X84704761Y-57252295D01*
X84704761Y-57252295D02*
X84971427Y-57557057D01*
X84971427Y-57557057D02*
X84857142Y-57557057D01*
X84857142Y-57557057D02*
X84780951Y-57595152D01*
X84780951Y-57595152D02*
X84742856Y-57633247D01*
X84742856Y-57633247D02*
X84704761Y-57709438D01*
X84704761Y-57709438D02*
X84704761Y-57899914D01*
X84704761Y-57899914D02*
X84742856Y-57976104D01*
X84742856Y-57976104D02*
X84780951Y-58014200D01*
X84780951Y-58014200D02*
X84857142Y-58052295D01*
X84857142Y-58052295D02*
X85085713Y-58052295D01*
X85085713Y-58052295D02*
X85161904Y-58014200D01*
X85161904Y-58014200D02*
X85199999Y-57976104D01*
X84071428Y-60552295D02*
X84528571Y-60552295D01*
X84299999Y-60552295D02*
X84299999Y-59752295D01*
X84299999Y-59752295D02*
X84376190Y-59866580D01*
X84376190Y-59866580D02*
X84452380Y-59942771D01*
X84452380Y-59942771D02*
X84528571Y-59980866D01*
X70528571Y-54908485D02*
X70490475Y-54870390D01*
X70490475Y-54870390D02*
X70414285Y-54832295D01*
X70414285Y-54832295D02*
X70223809Y-54832295D01*
X70223809Y-54832295D02*
X70147618Y-54870390D01*
X70147618Y-54870390D02*
X70109523Y-54908485D01*
X70109523Y-54908485D02*
X70071428Y-54984676D01*
X70071428Y-54984676D02*
X70071428Y-55060866D01*
X70071428Y-55060866D02*
X70109523Y-55175152D01*
X70109523Y-55175152D02*
X70566666Y-55632295D01*
X70566666Y-55632295D02*
X70071428Y-55632295D01*
X75357142Y-78469104D02*
X74880952Y-78469104D01*
X75452380Y-78754819D02*
X75119047Y-77754819D01*
X75119047Y-77754819D02*
X74785714Y-78754819D01*
X73880952Y-78754819D02*
X74214285Y-78278628D01*
X74452380Y-78754819D02*
X74452380Y-77754819D01*
X74452380Y-77754819D02*
X74071428Y-77754819D01*
X74071428Y-77754819D02*
X73976190Y-77802438D01*
X73976190Y-77802438D02*
X73928571Y-77850057D01*
X73928571Y-77850057D02*
X73880952Y-77945295D01*
X73880952Y-77945295D02*
X73880952Y-78088152D01*
X73880952Y-78088152D02*
X73928571Y-78183390D01*
X73928571Y-78183390D02*
X73976190Y-78231009D01*
X73976190Y-78231009D02*
X74071428Y-78278628D01*
X74071428Y-78278628D02*
X74452380Y-78278628D01*
X73452380Y-78754819D02*
X73452380Y-77754819D01*
X73452380Y-77754819D02*
X73214285Y-77754819D01*
X73214285Y-77754819D02*
X73071428Y-77802438D01*
X73071428Y-77802438D02*
X72976190Y-77897676D01*
X72976190Y-77897676D02*
X72928571Y-77992914D01*
X72928571Y-77992914D02*
X72880952Y-78183390D01*
X72880952Y-78183390D02*
X72880952Y-78326247D01*
X72880952Y-78326247D02*
X72928571Y-78516723D01*
X72928571Y-78516723D02*
X72976190Y-78611961D01*
X72976190Y-78611961D02*
X73071428Y-78707200D01*
X73071428Y-78707200D02*
X73214285Y-78754819D01*
X73214285Y-78754819D02*
X73452380Y-78754819D01*
X72261904Y-77754819D02*
X72071428Y-77754819D01*
X72071428Y-77754819D02*
X71976190Y-77802438D01*
X71976190Y-77802438D02*
X71880952Y-77897676D01*
X71880952Y-77897676D02*
X71833333Y-78088152D01*
X71833333Y-78088152D02*
X71833333Y-78421485D01*
X71833333Y-78421485D02*
X71880952Y-78611961D01*
X71880952Y-78611961D02*
X71976190Y-78707200D01*
X71976190Y-78707200D02*
X72071428Y-78754819D01*
X72071428Y-78754819D02*
X72261904Y-78754819D01*
X72261904Y-78754819D02*
X72357142Y-78707200D01*
X72357142Y-78707200D02*
X72452380Y-78611961D01*
X72452380Y-78611961D02*
X72499999Y-78421485D01*
X72499999Y-78421485D02*
X72499999Y-78088152D01*
X72499999Y-78088152D02*
X72452380Y-77897676D01*
X72452380Y-77897676D02*
X72357142Y-77802438D01*
X72357142Y-77802438D02*
X72261904Y-77754819D01*
X70833333Y-78754819D02*
X71166666Y-78278628D01*
X71404761Y-78754819D02*
X71404761Y-77754819D01*
X71404761Y-77754819D02*
X71023809Y-77754819D01*
X71023809Y-77754819D02*
X70928571Y-77802438D01*
X70928571Y-77802438D02*
X70880952Y-77850057D01*
X70880952Y-77850057D02*
X70833333Y-77945295D01*
X70833333Y-77945295D02*
X70833333Y-78088152D01*
X70833333Y-78088152D02*
X70880952Y-78183390D01*
X70880952Y-78183390D02*
X70928571Y-78231009D01*
X70928571Y-78231009D02*
X71023809Y-78278628D01*
X71023809Y-78278628D02*
X71404761Y-78278628D01*
X69642856Y-78754819D02*
X69642856Y-77754819D01*
X69642856Y-77754819D02*
X69309523Y-78469104D01*
X69309523Y-78469104D02*
X68976190Y-77754819D01*
X68976190Y-77754819D02*
X68976190Y-78754819D01*
X68499999Y-78754819D02*
X68499999Y-77754819D01*
X68119047Y-77754819D02*
X67452381Y-78754819D01*
X67452381Y-77754819D02*
X68119047Y-78754819D01*
X66309523Y-78754819D02*
X66309523Y-77754819D01*
X66309523Y-77754819D02*
X65976190Y-78469104D01*
X65976190Y-78469104D02*
X65642857Y-77754819D01*
X65642857Y-77754819D02*
X65642857Y-78754819D01*
X64642857Y-78754819D02*
X65214285Y-78754819D01*
X64928571Y-78754819D02*
X64928571Y-77754819D01*
X64928571Y-77754819D02*
X65023809Y-77897676D01*
X65023809Y-77897676D02*
X65119047Y-77992914D01*
X65119047Y-77992914D02*
X65214285Y-78040533D01*
X54966666Y-64102295D02*
X54471428Y-64102295D01*
X54471428Y-64102295D02*
X54738094Y-64407057D01*
X54738094Y-64407057D02*
X54623809Y-64407057D01*
X54623809Y-64407057D02*
X54547618Y-64445152D01*
X54547618Y-64445152D02*
X54509523Y-64483247D01*
X54509523Y-64483247D02*
X54471428Y-64559438D01*
X54471428Y-64559438D02*
X54471428Y-64749914D01*
X54471428Y-64749914D02*
X54509523Y-64826104D01*
X54509523Y-64826104D02*
X54547618Y-64864200D01*
X54547618Y-64864200D02*
X54623809Y-64902295D01*
X54623809Y-64902295D02*
X54852380Y-64902295D01*
X54852380Y-64902295D02*
X54928571Y-64864200D01*
X54928571Y-64864200D02*
X54966666Y-64826104D01*
X79552380Y-64774340D02*
X79552380Y-65345768D01*
X79552380Y-65345768D02*
X79590475Y-65460054D01*
X79590475Y-65460054D02*
X79666666Y-65536245D01*
X79666666Y-65536245D02*
X79780951Y-65574340D01*
X79780951Y-65574340D02*
X79857142Y-65574340D01*
X78752380Y-65574340D02*
X79209523Y-65574340D01*
X78980951Y-65574340D02*
X78980951Y-64774340D01*
X78980951Y-64774340D02*
X79057142Y-64888625D01*
X79057142Y-64888625D02*
X79133332Y-64964816D01*
X79133332Y-64964816D02*
X79209523Y-65002911D01*
X78257141Y-64774340D02*
X78180951Y-64774340D01*
X78180951Y-64774340D02*
X78104760Y-64812435D01*
X78104760Y-64812435D02*
X78066665Y-64850530D01*
X78066665Y-64850530D02*
X78028570Y-64926721D01*
X78028570Y-64926721D02*
X77990475Y-65079102D01*
X77990475Y-65079102D02*
X77990475Y-65269578D01*
X77990475Y-65269578D02*
X78028570Y-65421959D01*
X78028570Y-65421959D02*
X78066665Y-65498149D01*
X78066665Y-65498149D02*
X78104760Y-65536245D01*
X78104760Y-65536245D02*
X78180951Y-65574340D01*
X78180951Y-65574340D02*
X78257141Y-65574340D01*
X78257141Y-65574340D02*
X78333332Y-65536245D01*
X78333332Y-65536245D02*
X78371427Y-65498149D01*
X78371427Y-65498149D02*
X78409522Y-65421959D01*
X78409522Y-65421959D02*
X78447618Y-65269578D01*
X78447618Y-65269578D02*
X78447618Y-65079102D01*
X78447618Y-65079102D02*
X78409522Y-64926721D01*
X78409522Y-64926721D02*
X78371427Y-64850530D01*
X78371427Y-64850530D02*
X78333332Y-64812435D01*
X78333332Y-64812435D02*
X78257141Y-64774340D01*
X77723808Y-64774340D02*
X77228570Y-64774340D01*
X77228570Y-64774340D02*
X77495236Y-65079102D01*
X77495236Y-65079102D02*
X77380951Y-65079102D01*
X77380951Y-65079102D02*
X77304760Y-65117197D01*
X77304760Y-65117197D02*
X77266665Y-65155292D01*
X77266665Y-65155292D02*
X77228570Y-65231483D01*
X77228570Y-65231483D02*
X77228570Y-65421959D01*
X77228570Y-65421959D02*
X77266665Y-65498149D01*
X77266665Y-65498149D02*
X77304760Y-65536245D01*
X77304760Y-65536245D02*
X77380951Y-65574340D01*
X77380951Y-65574340D02*
X77609522Y-65574340D01*
X77609522Y-65574340D02*
X77685713Y-65536245D01*
X77685713Y-65536245D02*
X77723808Y-65498149D01*
X76314284Y-65345768D02*
X75933331Y-65345768D01*
X76390474Y-65574340D02*
X76123807Y-64774340D01*
X76123807Y-64774340D02*
X75857141Y-65574340D01*
X75590474Y-64774340D02*
X75590474Y-65421959D01*
X75590474Y-65421959D02*
X75552379Y-65498149D01*
X75552379Y-65498149D02*
X75514284Y-65536245D01*
X75514284Y-65536245D02*
X75438093Y-65574340D01*
X75438093Y-65574340D02*
X75285712Y-65574340D01*
X75285712Y-65574340D02*
X75209522Y-65536245D01*
X75209522Y-65536245D02*
X75171427Y-65498149D01*
X75171427Y-65498149D02*
X75133331Y-65421959D01*
X75133331Y-65421959D02*
X75133331Y-64774340D01*
X74752379Y-65574340D02*
X74752379Y-64774340D01*
X74752379Y-64774340D02*
X74561903Y-64774340D01*
X74561903Y-64774340D02*
X74447617Y-64812435D01*
X74447617Y-64812435D02*
X74371427Y-64888625D01*
X74371427Y-64888625D02*
X74333332Y-64964816D01*
X74333332Y-64964816D02*
X74295236Y-65117197D01*
X74295236Y-65117197D02*
X74295236Y-65231483D01*
X74295236Y-65231483D02*
X74333332Y-65383864D01*
X74333332Y-65383864D02*
X74371427Y-65460054D01*
X74371427Y-65460054D02*
X74447617Y-65536245D01*
X74447617Y-65536245D02*
X74561903Y-65574340D01*
X74561903Y-65574340D02*
X74752379Y-65574340D01*
X73952379Y-65574340D02*
X73952379Y-64774340D01*
X73419046Y-64774340D02*
X73266665Y-64774340D01*
X73266665Y-64774340D02*
X73190475Y-64812435D01*
X73190475Y-64812435D02*
X73114284Y-64888625D01*
X73114284Y-64888625D02*
X73076189Y-65041006D01*
X73076189Y-65041006D02*
X73076189Y-65307673D01*
X73076189Y-65307673D02*
X73114284Y-65460054D01*
X73114284Y-65460054D02*
X73190475Y-65536245D01*
X73190475Y-65536245D02*
X73266665Y-65574340D01*
X73266665Y-65574340D02*
X73419046Y-65574340D01*
X73419046Y-65574340D02*
X73495237Y-65536245D01*
X73495237Y-65536245D02*
X73571427Y-65460054D01*
X73571427Y-65460054D02*
X73609523Y-65307673D01*
X73609523Y-65307673D02*
X73609523Y-65041006D01*
X73609523Y-65041006D02*
X73571427Y-64888625D01*
X73571427Y-64888625D02*
X73495237Y-64812435D01*
X73495237Y-64812435D02*
X73419046Y-64774340D01*
X71971427Y-64774340D02*
X71819046Y-64774340D01*
X71819046Y-64774340D02*
X71742856Y-64812435D01*
X71742856Y-64812435D02*
X71666665Y-64888625D01*
X71666665Y-64888625D02*
X71628570Y-65041006D01*
X71628570Y-65041006D02*
X71628570Y-65307673D01*
X71628570Y-65307673D02*
X71666665Y-65460054D01*
X71666665Y-65460054D02*
X71742856Y-65536245D01*
X71742856Y-65536245D02*
X71819046Y-65574340D01*
X71819046Y-65574340D02*
X71971427Y-65574340D01*
X71971427Y-65574340D02*
X72047618Y-65536245D01*
X72047618Y-65536245D02*
X72123808Y-65460054D01*
X72123808Y-65460054D02*
X72161904Y-65307673D01*
X72161904Y-65307673D02*
X72161904Y-65041006D01*
X72161904Y-65041006D02*
X72123808Y-64888625D01*
X72123808Y-64888625D02*
X72047618Y-64812435D01*
X72047618Y-64812435D02*
X71971427Y-64774340D01*
X71285713Y-64774340D02*
X71285713Y-65421959D01*
X71285713Y-65421959D02*
X71247618Y-65498149D01*
X71247618Y-65498149D02*
X71209523Y-65536245D01*
X71209523Y-65536245D02*
X71133332Y-65574340D01*
X71133332Y-65574340D02*
X70980951Y-65574340D01*
X70980951Y-65574340D02*
X70904761Y-65536245D01*
X70904761Y-65536245D02*
X70866666Y-65498149D01*
X70866666Y-65498149D02*
X70828570Y-65421959D01*
X70828570Y-65421959D02*
X70828570Y-64774340D01*
X70561904Y-64774340D02*
X70104761Y-64774340D01*
X70333333Y-65574340D02*
X70333333Y-64774340D01*
X81400000Y-66862295D02*
X81857143Y-66862295D01*
X81628571Y-66862295D02*
X81628571Y-66062295D01*
X81628571Y-66062295D02*
X81704762Y-66176580D01*
X81704762Y-66176580D02*
X81780952Y-66252771D01*
X81780952Y-66252771D02*
X81857143Y-66290866D01*
X80066666Y-66862295D02*
X80447618Y-66862295D01*
X80447618Y-66862295D02*
X80447618Y-66062295D01*
X79799999Y-66443247D02*
X79533333Y-66443247D01*
X79419047Y-66862295D02*
X79799999Y-66862295D01*
X79799999Y-66862295D02*
X79799999Y-66062295D01*
X79799999Y-66062295D02*
X79419047Y-66062295D01*
X78809523Y-66443247D02*
X79076189Y-66443247D01*
X79076189Y-66862295D02*
X79076189Y-66062295D01*
X79076189Y-66062295D02*
X78695237Y-66062295D01*
X78504761Y-66062295D02*
X78047618Y-66062295D01*
X78276190Y-66862295D02*
X78276190Y-66062295D01*
X77019046Y-66062295D02*
X76866665Y-66062295D01*
X76866665Y-66062295D02*
X76790475Y-66100390D01*
X76790475Y-66100390D02*
X76714284Y-66176580D01*
X76714284Y-66176580D02*
X76676189Y-66328961D01*
X76676189Y-66328961D02*
X76676189Y-66595628D01*
X76676189Y-66595628D02*
X76714284Y-66748009D01*
X76714284Y-66748009D02*
X76790475Y-66824200D01*
X76790475Y-66824200D02*
X76866665Y-66862295D01*
X76866665Y-66862295D02*
X77019046Y-66862295D01*
X77019046Y-66862295D02*
X77095237Y-66824200D01*
X77095237Y-66824200D02*
X77171427Y-66748009D01*
X77171427Y-66748009D02*
X77209523Y-66595628D01*
X77209523Y-66595628D02*
X77209523Y-66328961D01*
X77209523Y-66328961D02*
X77171427Y-66176580D01*
X77171427Y-66176580D02*
X77095237Y-66100390D01*
X77095237Y-66100390D02*
X77019046Y-66062295D01*
X76333332Y-66062295D02*
X76333332Y-66709914D01*
X76333332Y-66709914D02*
X76295237Y-66786104D01*
X76295237Y-66786104D02*
X76257142Y-66824200D01*
X76257142Y-66824200D02*
X76180951Y-66862295D01*
X76180951Y-66862295D02*
X76028570Y-66862295D01*
X76028570Y-66862295D02*
X75952380Y-66824200D01*
X75952380Y-66824200D02*
X75914285Y-66786104D01*
X75914285Y-66786104D02*
X75876189Y-66709914D01*
X75876189Y-66709914D02*
X75876189Y-66062295D01*
X75609523Y-66062295D02*
X75152380Y-66062295D01*
X75380952Y-66862295D02*
X75380952Y-66062295D01*
X73704761Y-66138485D02*
X73666665Y-66100390D01*
X73666665Y-66100390D02*
X73590475Y-66062295D01*
X73590475Y-66062295D02*
X73399999Y-66062295D01*
X73399999Y-66062295D02*
X73323808Y-66100390D01*
X73323808Y-66100390D02*
X73285713Y-66138485D01*
X73285713Y-66138485D02*
X73247618Y-66214676D01*
X73247618Y-66214676D02*
X73247618Y-66290866D01*
X73247618Y-66290866D02*
X73285713Y-66405152D01*
X73285713Y-66405152D02*
X73742856Y-66862295D01*
X73742856Y-66862295D02*
X73247618Y-66862295D01*
X71876189Y-66100390D02*
X71952379Y-66062295D01*
X71952379Y-66062295D02*
X72066665Y-66062295D01*
X72066665Y-66062295D02*
X72180951Y-66100390D01*
X72180951Y-66100390D02*
X72257141Y-66176580D01*
X72257141Y-66176580D02*
X72295236Y-66252771D01*
X72295236Y-66252771D02*
X72333332Y-66405152D01*
X72333332Y-66405152D02*
X72333332Y-66519438D01*
X72333332Y-66519438D02*
X72295236Y-66671819D01*
X72295236Y-66671819D02*
X72257141Y-66748009D01*
X72257141Y-66748009D02*
X72180951Y-66824200D01*
X72180951Y-66824200D02*
X72066665Y-66862295D01*
X72066665Y-66862295D02*
X71990474Y-66862295D01*
X71990474Y-66862295D02*
X71876189Y-66824200D01*
X71876189Y-66824200D02*
X71838093Y-66786104D01*
X71838093Y-66786104D02*
X71838093Y-66519438D01*
X71838093Y-66519438D02*
X71990474Y-66519438D01*
X71495236Y-66862295D02*
X71495236Y-66062295D01*
X71495236Y-66062295D02*
X71038093Y-66862295D01*
X71038093Y-66862295D02*
X71038093Y-66062295D01*
X70657141Y-66862295D02*
X70657141Y-66062295D01*
X70657141Y-66062295D02*
X70466665Y-66062295D01*
X70466665Y-66062295D02*
X70352379Y-66100390D01*
X70352379Y-66100390D02*
X70276189Y-66176580D01*
X70276189Y-66176580D02*
X70238094Y-66252771D01*
X70238094Y-66252771D02*
X70199998Y-66405152D01*
X70199998Y-66405152D02*
X70199998Y-66519438D01*
X70199998Y-66519438D02*
X70238094Y-66671819D01*
X70238094Y-66671819D02*
X70276189Y-66748009D01*
X70276189Y-66748009D02*
X70352379Y-66824200D01*
X70352379Y-66824200D02*
X70466665Y-66862295D01*
X70466665Y-66862295D02*
X70657141Y-66862295D01*
X69095236Y-66062295D02*
X69019046Y-66062295D01*
X69019046Y-66062295D02*
X68942855Y-66100390D01*
X68942855Y-66100390D02*
X68904760Y-66138485D01*
X68904760Y-66138485D02*
X68866665Y-66214676D01*
X68866665Y-66214676D02*
X68828570Y-66367057D01*
X68828570Y-66367057D02*
X68828570Y-66557533D01*
X68828570Y-66557533D02*
X68866665Y-66709914D01*
X68866665Y-66709914D02*
X68904760Y-66786104D01*
X68904760Y-66786104D02*
X68942855Y-66824200D01*
X68942855Y-66824200D02*
X69019046Y-66862295D01*
X69019046Y-66862295D02*
X69095236Y-66862295D01*
X69095236Y-66862295D02*
X69171427Y-66824200D01*
X69171427Y-66824200D02*
X69209522Y-66786104D01*
X69209522Y-66786104D02*
X69247617Y-66709914D01*
X69247617Y-66709914D02*
X69285713Y-66557533D01*
X69285713Y-66557533D02*
X69285713Y-66367057D01*
X69285713Y-66367057D02*
X69247617Y-66214676D01*
X69247617Y-66214676D02*
X69209522Y-66138485D01*
X69209522Y-66138485D02*
X69171427Y-66100390D01*
X69171427Y-66100390D02*
X69095236Y-66062295D01*
X68599998Y-66062295D02*
X68333331Y-66862295D01*
X68333331Y-66862295D02*
X68066665Y-66062295D01*
X83190476Y-67350250D02*
X82695238Y-67350250D01*
X82695238Y-67350250D02*
X82961904Y-67655012D01*
X82961904Y-67655012D02*
X82847619Y-67655012D01*
X82847619Y-67655012D02*
X82771428Y-67693107D01*
X82771428Y-67693107D02*
X82733333Y-67731202D01*
X82733333Y-67731202D02*
X82695238Y-67807393D01*
X82695238Y-67807393D02*
X82695238Y-67997869D01*
X82695238Y-67997869D02*
X82733333Y-68074059D01*
X82733333Y-68074059D02*
X82771428Y-68112155D01*
X82771428Y-68112155D02*
X82847619Y-68150250D01*
X82847619Y-68150250D02*
X83076190Y-68150250D01*
X83076190Y-68150250D02*
X83152381Y-68112155D01*
X83152381Y-68112155D02*
X83190476Y-68074059D01*
X81285713Y-68150250D02*
X81552380Y-67769297D01*
X81742856Y-68150250D02*
X81742856Y-67350250D01*
X81742856Y-67350250D02*
X81438094Y-67350250D01*
X81438094Y-67350250D02*
X81361904Y-67388345D01*
X81361904Y-67388345D02*
X81323809Y-67426440D01*
X81323809Y-67426440D02*
X81285713Y-67502631D01*
X81285713Y-67502631D02*
X81285713Y-67616916D01*
X81285713Y-67616916D02*
X81323809Y-67693107D01*
X81323809Y-67693107D02*
X81361904Y-67731202D01*
X81361904Y-67731202D02*
X81438094Y-67769297D01*
X81438094Y-67769297D02*
X81742856Y-67769297D01*
X80942856Y-68150250D02*
X80942856Y-67350250D01*
X80142857Y-67388345D02*
X80219047Y-67350250D01*
X80219047Y-67350250D02*
X80333333Y-67350250D01*
X80333333Y-67350250D02*
X80447619Y-67388345D01*
X80447619Y-67388345D02*
X80523809Y-67464535D01*
X80523809Y-67464535D02*
X80561904Y-67540726D01*
X80561904Y-67540726D02*
X80600000Y-67693107D01*
X80600000Y-67693107D02*
X80600000Y-67807393D01*
X80600000Y-67807393D02*
X80561904Y-67959774D01*
X80561904Y-67959774D02*
X80523809Y-68035964D01*
X80523809Y-68035964D02*
X80447619Y-68112155D01*
X80447619Y-68112155D02*
X80333333Y-68150250D01*
X80333333Y-68150250D02*
X80257142Y-68150250D01*
X80257142Y-68150250D02*
X80142857Y-68112155D01*
X80142857Y-68112155D02*
X80104761Y-68074059D01*
X80104761Y-68074059D02*
X80104761Y-67807393D01*
X80104761Y-67807393D02*
X80257142Y-67807393D01*
X79761904Y-68150250D02*
X79761904Y-67350250D01*
X79761904Y-67731202D02*
X79304761Y-67731202D01*
X79304761Y-68150250D02*
X79304761Y-67350250D01*
X79038095Y-67350250D02*
X78580952Y-67350250D01*
X78809524Y-68150250D02*
X78809524Y-67350250D01*
X77552380Y-67350250D02*
X77399999Y-67350250D01*
X77399999Y-67350250D02*
X77323809Y-67388345D01*
X77323809Y-67388345D02*
X77247618Y-67464535D01*
X77247618Y-67464535D02*
X77209523Y-67616916D01*
X77209523Y-67616916D02*
X77209523Y-67883583D01*
X77209523Y-67883583D02*
X77247618Y-68035964D01*
X77247618Y-68035964D02*
X77323809Y-68112155D01*
X77323809Y-68112155D02*
X77399999Y-68150250D01*
X77399999Y-68150250D02*
X77552380Y-68150250D01*
X77552380Y-68150250D02*
X77628571Y-68112155D01*
X77628571Y-68112155D02*
X77704761Y-68035964D01*
X77704761Y-68035964D02*
X77742857Y-67883583D01*
X77742857Y-67883583D02*
X77742857Y-67616916D01*
X77742857Y-67616916D02*
X77704761Y-67464535D01*
X77704761Y-67464535D02*
X77628571Y-67388345D01*
X77628571Y-67388345D02*
X77552380Y-67350250D01*
X76866666Y-67350250D02*
X76866666Y-67997869D01*
X76866666Y-67997869D02*
X76828571Y-68074059D01*
X76828571Y-68074059D02*
X76790476Y-68112155D01*
X76790476Y-68112155D02*
X76714285Y-68150250D01*
X76714285Y-68150250D02*
X76561904Y-68150250D01*
X76561904Y-68150250D02*
X76485714Y-68112155D01*
X76485714Y-68112155D02*
X76447619Y-68074059D01*
X76447619Y-68074059D02*
X76409523Y-67997869D01*
X76409523Y-67997869D02*
X76409523Y-67350250D01*
X76142857Y-67350250D02*
X75685714Y-67350250D01*
X75914286Y-68150250D02*
X75914286Y-67350250D01*
X73857142Y-67616916D02*
X73857142Y-68150250D01*
X74047618Y-67312155D02*
X74238095Y-67883583D01*
X74238095Y-67883583D02*
X73742856Y-67883583D01*
X72828570Y-68150250D02*
X72828570Y-67350250D01*
X72828570Y-67350250D02*
X72561904Y-67921678D01*
X72561904Y-67921678D02*
X72295237Y-67350250D01*
X72295237Y-67350250D02*
X72295237Y-68150250D01*
X71761903Y-67350250D02*
X71609522Y-67350250D01*
X71609522Y-67350250D02*
X71533332Y-67388345D01*
X71533332Y-67388345D02*
X71457141Y-67464535D01*
X71457141Y-67464535D02*
X71419046Y-67616916D01*
X71419046Y-67616916D02*
X71419046Y-67883583D01*
X71419046Y-67883583D02*
X71457141Y-68035964D01*
X71457141Y-68035964D02*
X71533332Y-68112155D01*
X71533332Y-68112155D02*
X71609522Y-68150250D01*
X71609522Y-68150250D02*
X71761903Y-68150250D01*
X71761903Y-68150250D02*
X71838094Y-68112155D01*
X71838094Y-68112155D02*
X71914284Y-68035964D01*
X71914284Y-68035964D02*
X71952380Y-67883583D01*
X71952380Y-67883583D02*
X71952380Y-67616916D01*
X71952380Y-67616916D02*
X71914284Y-67464535D01*
X71914284Y-67464535D02*
X71838094Y-67388345D01*
X71838094Y-67388345D02*
X71761903Y-67350250D01*
X71076189Y-68150250D02*
X71076189Y-67350250D01*
X71076189Y-67350250D02*
X70619046Y-68150250D01*
X70619046Y-68150250D02*
X70619046Y-67350250D01*
X70085713Y-67350250D02*
X69933332Y-67350250D01*
X69933332Y-67350250D02*
X69857142Y-67388345D01*
X69857142Y-67388345D02*
X69780951Y-67464535D01*
X69780951Y-67464535D02*
X69742856Y-67616916D01*
X69742856Y-67616916D02*
X69742856Y-67883583D01*
X69742856Y-67883583D02*
X69780951Y-68035964D01*
X69780951Y-68035964D02*
X69857142Y-68112155D01*
X69857142Y-68112155D02*
X69933332Y-68150250D01*
X69933332Y-68150250D02*
X70085713Y-68150250D01*
X70085713Y-68150250D02*
X70161904Y-68112155D01*
X70161904Y-68112155D02*
X70238094Y-68035964D01*
X70238094Y-68035964D02*
X70276190Y-67883583D01*
X70276190Y-67883583D02*
X70276190Y-67616916D01*
X70276190Y-67616916D02*
X70238094Y-67464535D01*
X70238094Y-67464535D02*
X70161904Y-67388345D01*
X70161904Y-67388345D02*
X70085713Y-67350250D01*
X68638094Y-67350250D02*
X68485713Y-67350250D01*
X68485713Y-67350250D02*
X68409523Y-67388345D01*
X68409523Y-67388345D02*
X68333332Y-67464535D01*
X68333332Y-67464535D02*
X68295237Y-67616916D01*
X68295237Y-67616916D02*
X68295237Y-67883583D01*
X68295237Y-67883583D02*
X68333332Y-68035964D01*
X68333332Y-68035964D02*
X68409523Y-68112155D01*
X68409523Y-68112155D02*
X68485713Y-68150250D01*
X68485713Y-68150250D02*
X68638094Y-68150250D01*
X68638094Y-68150250D02*
X68714285Y-68112155D01*
X68714285Y-68112155D02*
X68790475Y-68035964D01*
X68790475Y-68035964D02*
X68828571Y-67883583D01*
X68828571Y-67883583D02*
X68828571Y-67616916D01*
X68828571Y-67616916D02*
X68790475Y-67464535D01*
X68790475Y-67464535D02*
X68714285Y-67388345D01*
X68714285Y-67388345D02*
X68638094Y-67350250D01*
X67952380Y-67350250D02*
X67952380Y-67997869D01*
X67952380Y-67997869D02*
X67914285Y-68074059D01*
X67914285Y-68074059D02*
X67876190Y-68112155D01*
X67876190Y-68112155D02*
X67799999Y-68150250D01*
X67799999Y-68150250D02*
X67647618Y-68150250D01*
X67647618Y-68150250D02*
X67571428Y-68112155D01*
X67571428Y-68112155D02*
X67533333Y-68074059D01*
X67533333Y-68074059D02*
X67495237Y-67997869D01*
X67495237Y-67997869D02*
X67495237Y-67350250D01*
X67228571Y-67350250D02*
X66771428Y-67350250D01*
X67000000Y-68150250D02*
X67000000Y-67350250D01*
X68285714Y-58418318D02*
X68285714Y-58989746D01*
X68285714Y-58989746D02*
X68323809Y-59104032D01*
X68323809Y-59104032D02*
X68400000Y-59180223D01*
X68400000Y-59180223D02*
X68514285Y-59218318D01*
X68514285Y-59218318D02*
X68590476Y-59218318D01*
X67485714Y-59218318D02*
X67942857Y-59218318D01*
X67714285Y-59218318D02*
X67714285Y-58418318D01*
X67714285Y-58418318D02*
X67790476Y-58532603D01*
X67790476Y-58532603D02*
X67866666Y-58608794D01*
X67866666Y-58608794D02*
X67942857Y-58646889D01*
X66990475Y-58418318D02*
X66914285Y-58418318D01*
X66914285Y-58418318D02*
X66838094Y-58456413D01*
X66838094Y-58456413D02*
X66799999Y-58494508D01*
X66799999Y-58494508D02*
X66761904Y-58570699D01*
X66761904Y-58570699D02*
X66723809Y-58723080D01*
X66723809Y-58723080D02*
X66723809Y-58913556D01*
X66723809Y-58913556D02*
X66761904Y-59065937D01*
X66761904Y-59065937D02*
X66799999Y-59142127D01*
X66799999Y-59142127D02*
X66838094Y-59180223D01*
X66838094Y-59180223D02*
X66914285Y-59218318D01*
X66914285Y-59218318D02*
X66990475Y-59218318D01*
X66990475Y-59218318D02*
X67066666Y-59180223D01*
X67066666Y-59180223D02*
X67104761Y-59142127D01*
X67104761Y-59142127D02*
X67142856Y-59065937D01*
X67142856Y-59065937D02*
X67180952Y-58913556D01*
X67180952Y-58913556D02*
X67180952Y-58723080D01*
X67180952Y-58723080D02*
X67142856Y-58570699D01*
X67142856Y-58570699D02*
X67104761Y-58494508D01*
X67104761Y-58494508D02*
X67066666Y-58456413D01*
X67066666Y-58456413D02*
X66990475Y-58418318D01*
X65961904Y-59218318D02*
X66419047Y-59218318D01*
X66190475Y-59218318D02*
X66190475Y-58418318D01*
X66190475Y-58418318D02*
X66266666Y-58532603D01*
X66266666Y-58532603D02*
X66342856Y-58608794D01*
X66342856Y-58608794D02*
X66419047Y-58646889D01*
X65009522Y-59218318D02*
X65009522Y-58418318D01*
X65009522Y-58418318D02*
X64704760Y-58418318D01*
X64704760Y-58418318D02*
X64628570Y-58456413D01*
X64628570Y-58456413D02*
X64590475Y-58494508D01*
X64590475Y-58494508D02*
X64552379Y-58570699D01*
X64552379Y-58570699D02*
X64552379Y-58684984D01*
X64552379Y-58684984D02*
X64590475Y-58761175D01*
X64590475Y-58761175D02*
X64628570Y-58799270D01*
X64628570Y-58799270D02*
X64704760Y-58837365D01*
X64704760Y-58837365D02*
X65009522Y-58837365D01*
X64057141Y-58418318D02*
X63904760Y-58418318D01*
X63904760Y-58418318D02*
X63828570Y-58456413D01*
X63828570Y-58456413D02*
X63752379Y-58532603D01*
X63752379Y-58532603D02*
X63714284Y-58684984D01*
X63714284Y-58684984D02*
X63714284Y-58951651D01*
X63714284Y-58951651D02*
X63752379Y-59104032D01*
X63752379Y-59104032D02*
X63828570Y-59180223D01*
X63828570Y-59180223D02*
X63904760Y-59218318D01*
X63904760Y-59218318D02*
X64057141Y-59218318D01*
X64057141Y-59218318D02*
X64133332Y-59180223D01*
X64133332Y-59180223D02*
X64209522Y-59104032D01*
X64209522Y-59104032D02*
X64247618Y-58951651D01*
X64247618Y-58951651D02*
X64247618Y-58684984D01*
X64247618Y-58684984D02*
X64209522Y-58532603D01*
X64209522Y-58532603D02*
X64133332Y-58456413D01*
X64133332Y-58456413D02*
X64057141Y-58418318D01*
X63447618Y-58418318D02*
X63257142Y-59218318D01*
X63257142Y-59218318D02*
X63104761Y-58646889D01*
X63104761Y-58646889D02*
X62952380Y-59218318D01*
X62952380Y-59218318D02*
X62761904Y-58418318D01*
X62457141Y-58799270D02*
X62190475Y-58799270D01*
X62076189Y-59218318D02*
X62457141Y-59218318D01*
X62457141Y-59218318D02*
X62457141Y-58418318D01*
X62457141Y-58418318D02*
X62076189Y-58418318D01*
X61276188Y-59218318D02*
X61542855Y-58837365D01*
X61733331Y-59218318D02*
X61733331Y-58418318D01*
X61733331Y-58418318D02*
X61428569Y-58418318D01*
X61428569Y-58418318D02*
X61352379Y-58456413D01*
X61352379Y-58456413D02*
X61314284Y-58494508D01*
X61314284Y-58494508D02*
X61276188Y-58570699D01*
X61276188Y-58570699D02*
X61276188Y-58684984D01*
X61276188Y-58684984D02*
X61314284Y-58761175D01*
X61314284Y-58761175D02*
X61352379Y-58799270D01*
X61352379Y-58799270D02*
X61428569Y-58837365D01*
X61428569Y-58837365D02*
X61733331Y-58837365D01*
X60323807Y-59218318D02*
X60323807Y-58418318D01*
X59942855Y-59218318D02*
X59942855Y-58418318D01*
X59942855Y-58418318D02*
X59485712Y-59218318D01*
X59485712Y-59218318D02*
X59485712Y-58418318D01*
X69257143Y-60506273D02*
X69714286Y-60506273D01*
X69485714Y-60506273D02*
X69485714Y-59706273D01*
X69485714Y-59706273D02*
X69561905Y-59820558D01*
X69561905Y-59820558D02*
X69638095Y-59896749D01*
X69638095Y-59896749D02*
X69714286Y-59934844D01*
X67923809Y-59706273D02*
X68304761Y-59706273D01*
X68304761Y-59706273D02*
X68342857Y-60087225D01*
X68342857Y-60087225D02*
X68304761Y-60049130D01*
X68304761Y-60049130D02*
X68228571Y-60011035D01*
X68228571Y-60011035D02*
X68038095Y-60011035D01*
X68038095Y-60011035D02*
X67961904Y-60049130D01*
X67961904Y-60049130D02*
X67923809Y-60087225D01*
X67923809Y-60087225D02*
X67885714Y-60163416D01*
X67885714Y-60163416D02*
X67885714Y-60353892D01*
X67885714Y-60353892D02*
X67923809Y-60430082D01*
X67923809Y-60430082D02*
X67961904Y-60468178D01*
X67961904Y-60468178D02*
X68038095Y-60506273D01*
X68038095Y-60506273D02*
X68228571Y-60506273D01*
X68228571Y-60506273D02*
X68304761Y-60468178D01*
X68304761Y-60468178D02*
X68342857Y-60430082D01*
X67657142Y-59706273D02*
X67390475Y-60506273D01*
X67390475Y-60506273D02*
X67123809Y-59706273D01*
X66247618Y-60506273D02*
X66247618Y-59706273D01*
X65866666Y-60506273D02*
X65866666Y-59706273D01*
X65866666Y-59706273D02*
X65409523Y-60506273D01*
X65409523Y-60506273D02*
X65409523Y-59706273D01*
X63847619Y-59782463D02*
X63809523Y-59744368D01*
X63809523Y-59744368D02*
X63733333Y-59706273D01*
X63733333Y-59706273D02*
X63542857Y-59706273D01*
X63542857Y-59706273D02*
X63466666Y-59744368D01*
X63466666Y-59744368D02*
X63428571Y-59782463D01*
X63428571Y-59782463D02*
X63390476Y-59858654D01*
X63390476Y-59858654D02*
X63390476Y-59934844D01*
X63390476Y-59934844D02*
X63428571Y-60049130D01*
X63428571Y-60049130D02*
X63885714Y-60506273D01*
X63885714Y-60506273D02*
X63390476Y-60506273D01*
X62019047Y-59744368D02*
X62095237Y-59706273D01*
X62095237Y-59706273D02*
X62209523Y-59706273D01*
X62209523Y-59706273D02*
X62323809Y-59744368D01*
X62323809Y-59744368D02*
X62399999Y-59820558D01*
X62399999Y-59820558D02*
X62438094Y-59896749D01*
X62438094Y-59896749D02*
X62476190Y-60049130D01*
X62476190Y-60049130D02*
X62476190Y-60163416D01*
X62476190Y-60163416D02*
X62438094Y-60315797D01*
X62438094Y-60315797D02*
X62399999Y-60391987D01*
X62399999Y-60391987D02*
X62323809Y-60468178D01*
X62323809Y-60468178D02*
X62209523Y-60506273D01*
X62209523Y-60506273D02*
X62133332Y-60506273D01*
X62133332Y-60506273D02*
X62019047Y-60468178D01*
X62019047Y-60468178D02*
X61980951Y-60430082D01*
X61980951Y-60430082D02*
X61980951Y-60163416D01*
X61980951Y-60163416D02*
X62133332Y-60163416D01*
X61638094Y-60506273D02*
X61638094Y-59706273D01*
X61638094Y-59706273D02*
X61180951Y-60506273D01*
X61180951Y-60506273D02*
X61180951Y-59706273D01*
X60799999Y-60506273D02*
X60799999Y-59706273D01*
X60799999Y-59706273D02*
X60609523Y-59706273D01*
X60609523Y-59706273D02*
X60495237Y-59744368D01*
X60495237Y-59744368D02*
X60419047Y-59820558D01*
X60419047Y-59820558D02*
X60380952Y-59896749D01*
X60380952Y-59896749D02*
X60342856Y-60049130D01*
X60342856Y-60049130D02*
X60342856Y-60163416D01*
X60342856Y-60163416D02*
X60380952Y-60315797D01*
X60380952Y-60315797D02*
X60419047Y-60391987D01*
X60419047Y-60391987D02*
X60495237Y-60468178D01*
X60495237Y-60468178D02*
X60609523Y-60506273D01*
X60609523Y-60506273D02*
X60799999Y-60506273D01*
X59238094Y-59706273D02*
X59161904Y-59706273D01*
X59161904Y-59706273D02*
X59085713Y-59744368D01*
X59085713Y-59744368D02*
X59047618Y-59782463D01*
X59047618Y-59782463D02*
X59009523Y-59858654D01*
X59009523Y-59858654D02*
X58971428Y-60011035D01*
X58971428Y-60011035D02*
X58971428Y-60201511D01*
X58971428Y-60201511D02*
X59009523Y-60353892D01*
X59009523Y-60353892D02*
X59047618Y-60430082D01*
X59047618Y-60430082D02*
X59085713Y-60468178D01*
X59085713Y-60468178D02*
X59161904Y-60506273D01*
X59161904Y-60506273D02*
X59238094Y-60506273D01*
X59238094Y-60506273D02*
X59314285Y-60468178D01*
X59314285Y-60468178D02*
X59352380Y-60430082D01*
X59352380Y-60430082D02*
X59390475Y-60353892D01*
X59390475Y-60353892D02*
X59428571Y-60201511D01*
X59428571Y-60201511D02*
X59428571Y-60011035D01*
X59428571Y-60011035D02*
X59390475Y-59858654D01*
X59390475Y-59858654D02*
X59352380Y-59782463D01*
X59352380Y-59782463D02*
X59314285Y-59744368D01*
X59314285Y-59744368D02*
X59238094Y-59706273D01*
X58742856Y-59706273D02*
X58476189Y-60506273D01*
X58476189Y-60506273D02*
X58209523Y-59706273D01*
X70071428Y-53092295D02*
X70528571Y-53092295D01*
X70299999Y-53092295D02*
X70299999Y-52292295D01*
X70299999Y-52292295D02*
X70376190Y-52406580D01*
X70376190Y-52406580D02*
X70452380Y-52482771D01*
X70452380Y-52482771D02*
X70528571Y-52520866D01*
X73028571Y-57332295D02*
X73028571Y-57903723D01*
X73028571Y-57903723D02*
X73066666Y-58018009D01*
X73066666Y-58018009D02*
X73142857Y-58094200D01*
X73142857Y-58094200D02*
X73257142Y-58132295D01*
X73257142Y-58132295D02*
X73333333Y-58132295D01*
X72228571Y-58132295D02*
X72685714Y-58132295D01*
X72457142Y-58132295D02*
X72457142Y-57332295D01*
X72457142Y-57332295D02*
X72533333Y-57446580D01*
X72533333Y-57446580D02*
X72609523Y-57522771D01*
X72609523Y-57522771D02*
X72685714Y-57560866D01*
X71733332Y-57332295D02*
X71657142Y-57332295D01*
X71657142Y-57332295D02*
X71580951Y-57370390D01*
X71580951Y-57370390D02*
X71542856Y-57408485D01*
X71542856Y-57408485D02*
X71504761Y-57484676D01*
X71504761Y-57484676D02*
X71466666Y-57637057D01*
X71466666Y-57637057D02*
X71466666Y-57827533D01*
X71466666Y-57827533D02*
X71504761Y-57979914D01*
X71504761Y-57979914D02*
X71542856Y-58056104D01*
X71542856Y-58056104D02*
X71580951Y-58094200D01*
X71580951Y-58094200D02*
X71657142Y-58132295D01*
X71657142Y-58132295D02*
X71733332Y-58132295D01*
X71733332Y-58132295D02*
X71809523Y-58094200D01*
X71809523Y-58094200D02*
X71847618Y-58056104D01*
X71847618Y-58056104D02*
X71885713Y-57979914D01*
X71885713Y-57979914D02*
X71923809Y-57827533D01*
X71923809Y-57827533D02*
X71923809Y-57637057D01*
X71923809Y-57637057D02*
X71885713Y-57484676D01*
X71885713Y-57484676D02*
X71847618Y-57408485D01*
X71847618Y-57408485D02*
X71809523Y-57370390D01*
X71809523Y-57370390D02*
X71733332Y-57332295D01*
X70704761Y-58132295D02*
X71161904Y-58132295D01*
X70933332Y-58132295D02*
X70933332Y-57332295D01*
X70933332Y-57332295D02*
X71009523Y-57446580D01*
X71009523Y-57446580D02*
X71085713Y-57522771D01*
X71085713Y-57522771D02*
X71161904Y-57560866D01*
X54928571Y-61638485D02*
X54890475Y-61600390D01*
X54890475Y-61600390D02*
X54814285Y-61562295D01*
X54814285Y-61562295D02*
X54623809Y-61562295D01*
X54623809Y-61562295D02*
X54547618Y-61600390D01*
X54547618Y-61600390D02*
X54509523Y-61638485D01*
X54509523Y-61638485D02*
X54471428Y-61714676D01*
X54471428Y-61714676D02*
X54471428Y-61790866D01*
X54471428Y-61790866D02*
X54509523Y-61905152D01*
X54509523Y-61905152D02*
X54966666Y-62362295D01*
X54966666Y-62362295D02*
X54471428Y-62362295D01*
X54471428Y-59822295D02*
X54928571Y-59822295D01*
X54699999Y-59822295D02*
X54699999Y-59022295D01*
X54699999Y-59022295D02*
X54776190Y-59136580D01*
X54776190Y-59136580D02*
X54852380Y-59212771D01*
X54852380Y-59212771D02*
X54928571Y-59250866D01*
X84566666Y-64832294D02*
X84071428Y-64832294D01*
X84071428Y-64832294D02*
X84338094Y-65137056D01*
X84338094Y-65137056D02*
X84223809Y-65137056D01*
X84223809Y-65137056D02*
X84147618Y-65175151D01*
X84147618Y-65175151D02*
X84109523Y-65213246D01*
X84109523Y-65213246D02*
X84071428Y-65289437D01*
X84071428Y-65289437D02*
X84071428Y-65479913D01*
X84071428Y-65479913D02*
X84109523Y-65556103D01*
X84109523Y-65556103D02*
X84147618Y-65594199D01*
X84147618Y-65594199D02*
X84223809Y-65632294D01*
X84223809Y-65632294D02*
X84452380Y-65632294D01*
X84452380Y-65632294D02*
X84528571Y-65594199D01*
X84528571Y-65594199D02*
X84566666Y-65556103D01*
X65519047Y-52774340D02*
X65519047Y-53345768D01*
X65519047Y-53345768D02*
X65557142Y-53460054D01*
X65557142Y-53460054D02*
X65633333Y-53536245D01*
X65633333Y-53536245D02*
X65747618Y-53574340D01*
X65747618Y-53574340D02*
X65823809Y-53574340D01*
X64719047Y-53574340D02*
X65176190Y-53574340D01*
X64947618Y-53574340D02*
X64947618Y-52774340D01*
X64947618Y-52774340D02*
X65023809Y-52888625D01*
X65023809Y-52888625D02*
X65099999Y-52964816D01*
X65099999Y-52964816D02*
X65176190Y-53002911D01*
X64223808Y-52774340D02*
X64147618Y-52774340D01*
X64147618Y-52774340D02*
X64071427Y-52812435D01*
X64071427Y-52812435D02*
X64033332Y-52850530D01*
X64033332Y-52850530D02*
X63995237Y-52926721D01*
X63995237Y-52926721D02*
X63957142Y-53079102D01*
X63957142Y-53079102D02*
X63957142Y-53269578D01*
X63957142Y-53269578D02*
X63995237Y-53421959D01*
X63995237Y-53421959D02*
X64033332Y-53498149D01*
X64033332Y-53498149D02*
X64071427Y-53536245D01*
X64071427Y-53536245D02*
X64147618Y-53574340D01*
X64147618Y-53574340D02*
X64223808Y-53574340D01*
X64223808Y-53574340D02*
X64299999Y-53536245D01*
X64299999Y-53536245D02*
X64338094Y-53498149D01*
X64338094Y-53498149D02*
X64376189Y-53421959D01*
X64376189Y-53421959D02*
X64414285Y-53269578D01*
X64414285Y-53269578D02*
X64414285Y-53079102D01*
X64414285Y-53079102D02*
X64376189Y-52926721D01*
X64376189Y-52926721D02*
X64338094Y-52850530D01*
X64338094Y-52850530D02*
X64299999Y-52812435D01*
X64299999Y-52812435D02*
X64223808Y-52774340D01*
X63652380Y-52850530D02*
X63614284Y-52812435D01*
X63614284Y-52812435D02*
X63538094Y-52774340D01*
X63538094Y-52774340D02*
X63347618Y-52774340D01*
X63347618Y-52774340D02*
X63271427Y-52812435D01*
X63271427Y-52812435D02*
X63233332Y-52850530D01*
X63233332Y-52850530D02*
X63195237Y-52926721D01*
X63195237Y-52926721D02*
X63195237Y-53002911D01*
X63195237Y-53002911D02*
X63233332Y-53117197D01*
X63233332Y-53117197D02*
X63690475Y-53574340D01*
X63690475Y-53574340D02*
X63195237Y-53574340D01*
X62280951Y-53345768D02*
X61899998Y-53345768D01*
X62357141Y-53574340D02*
X62090474Y-52774340D01*
X62090474Y-52774340D02*
X61823808Y-53574340D01*
X61557141Y-52774340D02*
X61557141Y-53421959D01*
X61557141Y-53421959D02*
X61519046Y-53498149D01*
X61519046Y-53498149D02*
X61480951Y-53536245D01*
X61480951Y-53536245D02*
X61404760Y-53574340D01*
X61404760Y-53574340D02*
X61252379Y-53574340D01*
X61252379Y-53574340D02*
X61176189Y-53536245D01*
X61176189Y-53536245D02*
X61138094Y-53498149D01*
X61138094Y-53498149D02*
X61099998Y-53421959D01*
X61099998Y-53421959D02*
X61099998Y-52774340D01*
X60719046Y-53574340D02*
X60719046Y-52774340D01*
X60719046Y-52774340D02*
X60528570Y-52774340D01*
X60528570Y-52774340D02*
X60414284Y-52812435D01*
X60414284Y-52812435D02*
X60338094Y-52888625D01*
X60338094Y-52888625D02*
X60299999Y-52964816D01*
X60299999Y-52964816D02*
X60261903Y-53117197D01*
X60261903Y-53117197D02*
X60261903Y-53231483D01*
X60261903Y-53231483D02*
X60299999Y-53383864D01*
X60299999Y-53383864D02*
X60338094Y-53460054D01*
X60338094Y-53460054D02*
X60414284Y-53536245D01*
X60414284Y-53536245D02*
X60528570Y-53574340D01*
X60528570Y-53574340D02*
X60719046Y-53574340D01*
X59919046Y-53574340D02*
X59919046Y-52774340D01*
X59385713Y-52774340D02*
X59233332Y-52774340D01*
X59233332Y-52774340D02*
X59157142Y-52812435D01*
X59157142Y-52812435D02*
X59080951Y-52888625D01*
X59080951Y-52888625D02*
X59042856Y-53041006D01*
X59042856Y-53041006D02*
X59042856Y-53307673D01*
X59042856Y-53307673D02*
X59080951Y-53460054D01*
X59080951Y-53460054D02*
X59157142Y-53536245D01*
X59157142Y-53536245D02*
X59233332Y-53574340D01*
X59233332Y-53574340D02*
X59385713Y-53574340D01*
X59385713Y-53574340D02*
X59461904Y-53536245D01*
X59461904Y-53536245D02*
X59538094Y-53460054D01*
X59538094Y-53460054D02*
X59576190Y-53307673D01*
X59576190Y-53307673D02*
X59576190Y-53041006D01*
X59576190Y-53041006D02*
X59538094Y-52888625D01*
X59538094Y-52888625D02*
X59461904Y-52812435D01*
X59461904Y-52812435D02*
X59385713Y-52774340D01*
X58090475Y-53574340D02*
X58090475Y-52774340D01*
X57709523Y-53574340D02*
X57709523Y-52774340D01*
X57709523Y-52774340D02*
X57252380Y-53574340D01*
X57252380Y-53574340D02*
X57252380Y-52774340D01*
X67366667Y-54862295D02*
X67823810Y-54862295D01*
X67595238Y-54862295D02*
X67595238Y-54062295D01*
X67595238Y-54062295D02*
X67671429Y-54176580D01*
X67671429Y-54176580D02*
X67747619Y-54252771D01*
X67747619Y-54252771D02*
X67823810Y-54290866D01*
X66033333Y-54862295D02*
X66414285Y-54862295D01*
X66414285Y-54862295D02*
X66414285Y-54062295D01*
X65766666Y-54443247D02*
X65500000Y-54443247D01*
X65385714Y-54862295D02*
X65766666Y-54862295D01*
X65766666Y-54862295D02*
X65766666Y-54062295D01*
X65766666Y-54062295D02*
X65385714Y-54062295D01*
X64776190Y-54443247D02*
X65042856Y-54443247D01*
X65042856Y-54862295D02*
X65042856Y-54062295D01*
X65042856Y-54062295D02*
X64661904Y-54062295D01*
X64471428Y-54062295D02*
X64014285Y-54062295D01*
X64242857Y-54862295D02*
X64242857Y-54062295D01*
X63138094Y-54862295D02*
X63138094Y-54062295D01*
X62757142Y-54862295D02*
X62757142Y-54062295D01*
X62757142Y-54062295D02*
X62299999Y-54862295D01*
X62299999Y-54862295D02*
X62299999Y-54062295D01*
X60738095Y-54138485D02*
X60699999Y-54100390D01*
X60699999Y-54100390D02*
X60623809Y-54062295D01*
X60623809Y-54062295D02*
X60433333Y-54062295D01*
X60433333Y-54062295D02*
X60357142Y-54100390D01*
X60357142Y-54100390D02*
X60319047Y-54138485D01*
X60319047Y-54138485D02*
X60280952Y-54214676D01*
X60280952Y-54214676D02*
X60280952Y-54290866D01*
X60280952Y-54290866D02*
X60319047Y-54405152D01*
X60319047Y-54405152D02*
X60776190Y-54862295D01*
X60776190Y-54862295D02*
X60280952Y-54862295D01*
X58909523Y-54100390D02*
X58985713Y-54062295D01*
X58985713Y-54062295D02*
X59099999Y-54062295D01*
X59099999Y-54062295D02*
X59214285Y-54100390D01*
X59214285Y-54100390D02*
X59290475Y-54176580D01*
X59290475Y-54176580D02*
X59328570Y-54252771D01*
X59328570Y-54252771D02*
X59366666Y-54405152D01*
X59366666Y-54405152D02*
X59366666Y-54519438D01*
X59366666Y-54519438D02*
X59328570Y-54671819D01*
X59328570Y-54671819D02*
X59290475Y-54748009D01*
X59290475Y-54748009D02*
X59214285Y-54824200D01*
X59214285Y-54824200D02*
X59099999Y-54862295D01*
X59099999Y-54862295D02*
X59023808Y-54862295D01*
X59023808Y-54862295D02*
X58909523Y-54824200D01*
X58909523Y-54824200D02*
X58871427Y-54786104D01*
X58871427Y-54786104D02*
X58871427Y-54519438D01*
X58871427Y-54519438D02*
X59023808Y-54519438D01*
X58528570Y-54862295D02*
X58528570Y-54062295D01*
X58528570Y-54062295D02*
X58071427Y-54862295D01*
X58071427Y-54862295D02*
X58071427Y-54062295D01*
X57690475Y-54862295D02*
X57690475Y-54062295D01*
X57690475Y-54062295D02*
X57499999Y-54062295D01*
X57499999Y-54062295D02*
X57385713Y-54100390D01*
X57385713Y-54100390D02*
X57309523Y-54176580D01*
X57309523Y-54176580D02*
X57271428Y-54252771D01*
X57271428Y-54252771D02*
X57233332Y-54405152D01*
X57233332Y-54405152D02*
X57233332Y-54519438D01*
X57233332Y-54519438D02*
X57271428Y-54671819D01*
X57271428Y-54671819D02*
X57309523Y-54748009D01*
X57309523Y-54748009D02*
X57385713Y-54824200D01*
X57385713Y-54824200D02*
X57499999Y-54862295D01*
X57499999Y-54862295D02*
X57690475Y-54862295D01*
X56128570Y-54062295D02*
X56052380Y-54062295D01*
X56052380Y-54062295D02*
X55976189Y-54100390D01*
X55976189Y-54100390D02*
X55938094Y-54138485D01*
X55938094Y-54138485D02*
X55899999Y-54214676D01*
X55899999Y-54214676D02*
X55861904Y-54367057D01*
X55861904Y-54367057D02*
X55861904Y-54557533D01*
X55861904Y-54557533D02*
X55899999Y-54709914D01*
X55899999Y-54709914D02*
X55938094Y-54786104D01*
X55938094Y-54786104D02*
X55976189Y-54824200D01*
X55976189Y-54824200D02*
X56052380Y-54862295D01*
X56052380Y-54862295D02*
X56128570Y-54862295D01*
X56128570Y-54862295D02*
X56204761Y-54824200D01*
X56204761Y-54824200D02*
X56242856Y-54786104D01*
X56242856Y-54786104D02*
X56280951Y-54709914D01*
X56280951Y-54709914D02*
X56319047Y-54557533D01*
X56319047Y-54557533D02*
X56319047Y-54367057D01*
X56319047Y-54367057D02*
X56280951Y-54214676D01*
X56280951Y-54214676D02*
X56242856Y-54138485D01*
X56242856Y-54138485D02*
X56204761Y-54100390D01*
X56204761Y-54100390D02*
X56128570Y-54062295D01*
X55633332Y-54062295D02*
X55366665Y-54862295D01*
X55366665Y-54862295D02*
X55099999Y-54062295D01*
X64699999Y-55350250D02*
X64204761Y-55350250D01*
X64204761Y-55350250D02*
X64471427Y-55655012D01*
X64471427Y-55655012D02*
X64357142Y-55655012D01*
X64357142Y-55655012D02*
X64280951Y-55693107D01*
X64280951Y-55693107D02*
X64242856Y-55731202D01*
X64242856Y-55731202D02*
X64204761Y-55807393D01*
X64204761Y-55807393D02*
X64204761Y-55997869D01*
X64204761Y-55997869D02*
X64242856Y-56074059D01*
X64242856Y-56074059D02*
X64280951Y-56112155D01*
X64280951Y-56112155D02*
X64357142Y-56150250D01*
X64357142Y-56150250D02*
X64585713Y-56150250D01*
X64585713Y-56150250D02*
X64661904Y-56112155D01*
X64661904Y-56112155D02*
X64699999Y-56074059D01*
X62795236Y-56150250D02*
X63061903Y-55769297D01*
X63252379Y-56150250D02*
X63252379Y-55350250D01*
X63252379Y-55350250D02*
X62947617Y-55350250D01*
X62947617Y-55350250D02*
X62871427Y-55388345D01*
X62871427Y-55388345D02*
X62833332Y-55426440D01*
X62833332Y-55426440D02*
X62795236Y-55502631D01*
X62795236Y-55502631D02*
X62795236Y-55616916D01*
X62795236Y-55616916D02*
X62833332Y-55693107D01*
X62833332Y-55693107D02*
X62871427Y-55731202D01*
X62871427Y-55731202D02*
X62947617Y-55769297D01*
X62947617Y-55769297D02*
X63252379Y-55769297D01*
X62452379Y-56150250D02*
X62452379Y-55350250D01*
X61652380Y-55388345D02*
X61728570Y-55350250D01*
X61728570Y-55350250D02*
X61842856Y-55350250D01*
X61842856Y-55350250D02*
X61957142Y-55388345D01*
X61957142Y-55388345D02*
X62033332Y-55464535D01*
X62033332Y-55464535D02*
X62071427Y-55540726D01*
X62071427Y-55540726D02*
X62109523Y-55693107D01*
X62109523Y-55693107D02*
X62109523Y-55807393D01*
X62109523Y-55807393D02*
X62071427Y-55959774D01*
X62071427Y-55959774D02*
X62033332Y-56035964D01*
X62033332Y-56035964D02*
X61957142Y-56112155D01*
X61957142Y-56112155D02*
X61842856Y-56150250D01*
X61842856Y-56150250D02*
X61766665Y-56150250D01*
X61766665Y-56150250D02*
X61652380Y-56112155D01*
X61652380Y-56112155D02*
X61614284Y-56074059D01*
X61614284Y-56074059D02*
X61614284Y-55807393D01*
X61614284Y-55807393D02*
X61766665Y-55807393D01*
X61271427Y-56150250D02*
X61271427Y-55350250D01*
X61271427Y-55731202D02*
X60814284Y-55731202D01*
X60814284Y-56150250D02*
X60814284Y-55350250D01*
X60547618Y-55350250D02*
X60090475Y-55350250D01*
X60319047Y-56150250D02*
X60319047Y-55350250D01*
X59214284Y-56150250D02*
X59214284Y-55350250D01*
X58833332Y-56150250D02*
X58833332Y-55350250D01*
X58833332Y-55350250D02*
X58376189Y-56150250D01*
X58376189Y-56150250D02*
X58376189Y-55350250D01*
X54028571Y-56522295D02*
X54028571Y-57093723D01*
X54028571Y-57093723D02*
X54066666Y-57208009D01*
X54066666Y-57208009D02*
X54142857Y-57284200D01*
X54142857Y-57284200D02*
X54257142Y-57322295D01*
X54257142Y-57322295D02*
X54333333Y-57322295D01*
X53228571Y-57322295D02*
X53685714Y-57322295D01*
X53457142Y-57322295D02*
X53457142Y-56522295D01*
X53457142Y-56522295D02*
X53533333Y-56636580D01*
X53533333Y-56636580D02*
X53609523Y-56712771D01*
X53609523Y-56712771D02*
X53685714Y-56750866D01*
X52733332Y-56522295D02*
X52657142Y-56522295D01*
X52657142Y-56522295D02*
X52580951Y-56560390D01*
X52580951Y-56560390D02*
X52542856Y-56598485D01*
X52542856Y-56598485D02*
X52504761Y-56674676D01*
X52504761Y-56674676D02*
X52466666Y-56827057D01*
X52466666Y-56827057D02*
X52466666Y-57017533D01*
X52466666Y-57017533D02*
X52504761Y-57169914D01*
X52504761Y-57169914D02*
X52542856Y-57246104D01*
X52542856Y-57246104D02*
X52580951Y-57284200D01*
X52580951Y-57284200D02*
X52657142Y-57322295D01*
X52657142Y-57322295D02*
X52733332Y-57322295D01*
X52733332Y-57322295D02*
X52809523Y-57284200D01*
X52809523Y-57284200D02*
X52847618Y-57246104D01*
X52847618Y-57246104D02*
X52885713Y-57169914D01*
X52885713Y-57169914D02*
X52923809Y-57017533D01*
X52923809Y-57017533D02*
X52923809Y-56827057D01*
X52923809Y-56827057D02*
X52885713Y-56674676D01*
X52885713Y-56674676D02*
X52847618Y-56598485D01*
X52847618Y-56598485D02*
X52809523Y-56560390D01*
X52809523Y-56560390D02*
X52733332Y-56522295D01*
X52161904Y-56598485D02*
X52123808Y-56560390D01*
X52123808Y-56560390D02*
X52047618Y-56522295D01*
X52047618Y-56522295D02*
X51857142Y-56522295D01*
X51857142Y-56522295D02*
X51780951Y-56560390D01*
X51780951Y-56560390D02*
X51742856Y-56598485D01*
X51742856Y-56598485D02*
X51704761Y-56674676D01*
X51704761Y-56674676D02*
X51704761Y-56750866D01*
X51704761Y-56750866D02*
X51742856Y-56865152D01*
X51742856Y-56865152D02*
X52199999Y-57322295D01*
X52199999Y-57322295D02*
X51704761Y-57322295D01*
X84147618Y-67638961D02*
X84147618Y-68172295D01*
X84338094Y-67334200D02*
X84528571Y-67905628D01*
X84528571Y-67905628D02*
X84033332Y-67905628D01*
%LPC*%
D11*
X86000000Y-60190000D03*
D12*
X86000000Y-62730000D03*
X86000000Y-65270000D03*
X86000000Y-67810000D03*
D13*
X53000000Y-77000000D03*
D11*
X72000000Y-52730000D03*
D12*
X72000000Y-55270000D03*
D11*
X53000000Y-59460000D03*
D12*
X53000000Y-62000000D03*
X53000000Y-64540000D03*
D13*
X87000000Y-53000000D03*
%LPD*%
M02*
