G04 #@! TF.GenerationSoftware,KiCad,Pcbnew,9.0.2+dfsg-1*
G04 #@! TF.CreationDate,2026-10-02T15:26:40+00:00*
G04 #@! TF.ProjectId,Ardor_Mixer,4172646f-725f-44d6-9978-65722e6b6963,rev?*
G04 #@! TF.SameCoordinates,Original*
G04 #@! TF.FileFunction,Copper,L2,Bot*
G04 #@! TF.FilePolarity,Positive*
%FSLAX46Y46*%
G04 Gerber Fmt 4.6, Leading zero omitted, Abs format (unit mm)*
G04 Created by KiCad (PCBNEW 9.0.2+dfsg-1) date 2026-10-02 15:26:40*
%MOMM*%
%LPD*%
G01*
G04 APERTURE LIST*
G04 #@! TA.AperFunction,ComponentPad*
%ADD10R,1.700000X1.700000*%
G04 #@! TD*
G04 #@! TA.AperFunction,ComponentPad*
%ADD11C,1.700000*%
G04 #@! TD*
G04 #@! TA.AperFunction,ViaPad*
%ADD12C,0.600000*%
G04 #@! TD*
G04 #@! TA.AperFunction,Conductor*
%ADD13C,0.200000*%
G04 #@! TD*
G04 APERTURE END LIST*
D10*
X86000000Y-60190000D03*
D11*
X86000000Y-62730000D03*
X86000000Y-65270000D03*
X86000000Y-67810000D03*
D10*
X72000000Y-52730000D03*
D11*
X72000000Y-55270000D03*
D10*
X53000000Y-59460000D03*
D11*
X53000000Y-62000000D03*
X53000000Y-64540000D03*
D12*
X81030800Y-72900500D03*
X71076700Y-73920500D03*
X62505700Y-66459300D03*
X76169900Y-59919400D03*
X81000000Y-76000000D03*
X58000000Y-74000000D03*
X75000000Y-60000000D03*
X64000000Y-70000000D03*
X86000000Y-55000000D03*
X64893900Y-57388100D03*
X71831300Y-59988500D03*
X69000000Y-62000000D03*
X73786000Y-59678600D03*
X72608600Y-63498500D03*
D13*
X80010800Y-73920500D02*
X81030800Y-72900500D01*
X71076700Y-73920500D02*
X80010800Y-73920500D01*
X72608600Y-60856000D02*
X73786000Y-59678600D01*
X72608600Y-63498500D02*
X72608600Y-60856000D01*
G04 #@! TA.AperFunction,Conductor*
G36*
X89458691Y-50519407D02*
G01*
X89494655Y-50568907D01*
X89499500Y-50599500D01*
X89499500Y-79400500D01*
X89480593Y-79458691D01*
X89431093Y-79494655D01*
X89400500Y-79499500D01*
X50599500Y-79499500D01*
X50541309Y-79480593D01*
X50505345Y-79431093D01*
X50500500Y-79400500D01*
X50500500Y-76893709D01*
X51649500Y-76893709D01*
X51649500Y-77106290D01*
X51682752Y-77316238D01*
X51748443Y-77518412D01*
X51844948Y-77707815D01*
X51844950Y-77707819D01*
X51969891Y-77879786D01*
X51969893Y-77879788D01*
X51969896Y-77879792D01*
X52120208Y-78030104D01*
X52120211Y-78030106D01*
X52120213Y-78030108D01*
X52292180Y-78155049D01*
X52292184Y-78155051D01*
X52481588Y-78251557D01*
X52683757Y-78317246D01*
X52683758Y-78317246D01*
X52683761Y-78317247D01*
X52893710Y-78350500D01*
X52893713Y-78350500D01*
X53106290Y-78350500D01*
X53316238Y-78317247D01*
X53316239Y-78317246D01*
X53316243Y-78317246D01*
X53518412Y-78251557D01*
X53707816Y-78155051D01*
X53879792Y-78030104D01*
X54030104Y-77879792D01*
X54155051Y-77707816D01*
X54251557Y-77518412D01*
X54317246Y-77316243D01*
X54350500Y-77106287D01*
X54350500Y-76893713D01*
X54350500Y-76893709D01*
X54317247Y-76683761D01*
X54317246Y-76683757D01*
X54251557Y-76481588D01*
X54155051Y-76292184D01*
X54155049Y-76292180D01*
X54030108Y-76120213D01*
X54030106Y-76120211D01*
X54030104Y-76120208D01*
X53879792Y-75969896D01*
X53879788Y-75969893D01*
X53879786Y-75969891D01*
X53707819Y-75844950D01*
X53707815Y-75844948D01*
X53518412Y-75748443D01*
X53316238Y-75682752D01*
X53106290Y-75649500D01*
X53106287Y-75649500D01*
X52893713Y-75649500D01*
X52893710Y-75649500D01*
X52683761Y-75682752D01*
X52481587Y-75748443D01*
X52292184Y-75844948D01*
X52292180Y-75844950D01*
X52120213Y-75969891D01*
X51969891Y-76120213D01*
X51844950Y-76292180D01*
X51844948Y-76292184D01*
X51748443Y-76481587D01*
X51682752Y-76683761D01*
X51649500Y-76893709D01*
X50500500Y-76893709D01*
X50500500Y-73854608D01*
X70576200Y-73854608D01*
X70576200Y-73986392D01*
X70606279Y-74098651D01*
X70610309Y-74113690D01*
X70676196Y-74227809D01*
X70676198Y-74227811D01*
X70676200Y-74227814D01*
X70769386Y-74321000D01*
X70769388Y-74321001D01*
X70769390Y-74321003D01*
X70883510Y-74386890D01*
X70883508Y-74386890D01*
X70883512Y-74386891D01*
X70883514Y-74386892D01*
X71010808Y-74421000D01*
X71010810Y-74421000D01*
X71142590Y-74421000D01*
X71142592Y-74421000D01*
X71269886Y-74386892D01*
X71269888Y-74386890D01*
X71269890Y-74386890D01*
X71384009Y-74321003D01*
X71384009Y-74321002D01*
X71384014Y-74321000D01*
X71455019Y-74249994D01*
X71509534Y-74222219D01*
X71525021Y-74221000D01*
X80050363Y-74221000D01*
X80050363Y-74220999D01*
X80126789Y-74200521D01*
X80195311Y-74160960D01*
X80251260Y-74105011D01*
X80926274Y-73429995D01*
X80980791Y-73402219D01*
X80996278Y-73401000D01*
X81096690Y-73401000D01*
X81096692Y-73401000D01*
X81223986Y-73366892D01*
X81223988Y-73366890D01*
X81223990Y-73366890D01*
X81338109Y-73301003D01*
X81338109Y-73301002D01*
X81338114Y-73301000D01*
X81431300Y-73207814D01*
X81497192Y-73093686D01*
X81531300Y-72966392D01*
X81531300Y-72834608D01*
X81497192Y-72707314D01*
X81497190Y-72707311D01*
X81497190Y-72707309D01*
X81431303Y-72593190D01*
X81431301Y-72593188D01*
X81431300Y-72593186D01*
X81338114Y-72500000D01*
X81338111Y-72499998D01*
X81338109Y-72499996D01*
X81223989Y-72434109D01*
X81223991Y-72434109D01*
X81174599Y-72420875D01*
X81096692Y-72400000D01*
X80964908Y-72400000D01*
X80887000Y-72420875D01*
X80837609Y-72434109D01*
X80723490Y-72499996D01*
X80630296Y-72593190D01*
X80564409Y-72707309D01*
X80530300Y-72834609D01*
X80530300Y-72935020D01*
X80511393Y-72993211D01*
X80501304Y-73005024D01*
X79915325Y-73591004D01*
X79860808Y-73618781D01*
X79845321Y-73620000D01*
X71525021Y-73620000D01*
X71466830Y-73601093D01*
X71455023Y-73591009D01*
X71384014Y-73520000D01*
X71384011Y-73519998D01*
X71384009Y-73519996D01*
X71269889Y-73454109D01*
X71269891Y-73454109D01*
X71220499Y-73440875D01*
X71142592Y-73420000D01*
X71010808Y-73420000D01*
X70932900Y-73440875D01*
X70883509Y-73454109D01*
X70769390Y-73519996D01*
X70676196Y-73613190D01*
X70610309Y-73727309D01*
X70610308Y-73727314D01*
X70576200Y-73854608D01*
X50500500Y-73854608D01*
X50500500Y-67706532D01*
X84949500Y-67706532D01*
X84949500Y-67913467D01*
X84989869Y-68116418D01*
X85069058Y-68307597D01*
X85069059Y-68307598D01*
X85184023Y-68479655D01*
X85330345Y-68625977D01*
X85502402Y-68740941D01*
X85693580Y-68820130D01*
X85896535Y-68860500D01*
X85896536Y-68860500D01*
X86103464Y-68860500D01*
X86103465Y-68860500D01*
X86306420Y-68820130D01*
X86497598Y-68740941D01*
X86669655Y-68625977D01*
X86815977Y-68479655D01*
X86930941Y-68307598D01*
X87010130Y-68116420D01*
X87050500Y-67913465D01*
X87050500Y-67706535D01*
X87010130Y-67503580D01*
X86930941Y-67312402D01*
X86815977Y-67140345D01*
X86669655Y-66994023D01*
X86497598Y-66879059D01*
X86497599Y-66879059D01*
X86497597Y-66879058D01*
X86306418Y-66799869D01*
X86103467Y-66759500D01*
X86103465Y-66759500D01*
X85896535Y-66759500D01*
X85896532Y-66759500D01*
X85693581Y-66799869D01*
X85502402Y-66879058D01*
X85330348Y-66994020D01*
X85184020Y-67140348D01*
X85069058Y-67312402D01*
X84989869Y-67503581D01*
X84949500Y-67706532D01*
X50500500Y-67706532D01*
X50500500Y-64436532D01*
X51949500Y-64436532D01*
X51949500Y-64643467D01*
X51989869Y-64846418D01*
X52069058Y-65037597D01*
X52069059Y-65037598D01*
X52184023Y-65209655D01*
X52330345Y-65355977D01*
X52502402Y-65470941D01*
X52693580Y-65550130D01*
X52896535Y-65590500D01*
X52896536Y-65590500D01*
X53103464Y-65590500D01*
X53103465Y-65590500D01*
X53306420Y-65550130D01*
X53497598Y-65470941D01*
X53669655Y-65355977D01*
X53815977Y-65209655D01*
X53844791Y-65166532D01*
X84949500Y-65166532D01*
X84949500Y-65373467D01*
X84989869Y-65576418D01*
X85069058Y-65767597D01*
X85069059Y-65767598D01*
X85184023Y-65939655D01*
X85330345Y-66085977D01*
X85502402Y-66200941D01*
X85693580Y-66280130D01*
X85896535Y-66320500D01*
X85896536Y-66320500D01*
X86103464Y-66320500D01*
X86103465Y-66320500D01*
X86306420Y-66280130D01*
X86497598Y-66200941D01*
X86669655Y-66085977D01*
X86815977Y-65939655D01*
X86930941Y-65767598D01*
X87010130Y-65576420D01*
X87050500Y-65373465D01*
X87050500Y-65166535D01*
X87010130Y-64963580D01*
X86930941Y-64772402D01*
X86815977Y-64600345D01*
X86669655Y-64454023D01*
X86643484Y-64436536D01*
X86497597Y-64339058D01*
X86306418Y-64259869D01*
X86103467Y-64219500D01*
X86103465Y-64219500D01*
X85896535Y-64219500D01*
X85896532Y-64219500D01*
X85693581Y-64259869D01*
X85502402Y-64339058D01*
X85330348Y-64454020D01*
X85184020Y-64600348D01*
X85069058Y-64772402D01*
X84989869Y-64963581D01*
X84949500Y-65166532D01*
X53844791Y-65166532D01*
X53930941Y-65037598D01*
X54010130Y-64846420D01*
X54050500Y-64643465D01*
X54050500Y-64436535D01*
X54010130Y-64233580D01*
X53930941Y-64042402D01*
X53815977Y-63870345D01*
X53669655Y-63724023D01*
X53621259Y-63691686D01*
X53497597Y-63609058D01*
X53306418Y-63529869D01*
X53280605Y-63524735D01*
X53220555Y-63512790D01*
X53103467Y-63489500D01*
X53103465Y-63489500D01*
X52896535Y-63489500D01*
X52896532Y-63489500D01*
X52693581Y-63529869D01*
X52502402Y-63609058D01*
X52330348Y-63724020D01*
X52184020Y-63870348D01*
X52069058Y-64042402D01*
X51989869Y-64233581D01*
X51949500Y-64436532D01*
X50500500Y-64436532D01*
X50500500Y-63432608D01*
X72108100Y-63432608D01*
X72108100Y-63564392D01*
X72136612Y-63670800D01*
X72142209Y-63691690D01*
X72208096Y-63805809D01*
X72208098Y-63805811D01*
X72208100Y-63805814D01*
X72301286Y-63899000D01*
X72301288Y-63899001D01*
X72301290Y-63899003D01*
X72415410Y-63964890D01*
X72415408Y-63964890D01*
X72415412Y-63964891D01*
X72415414Y-63964892D01*
X72542708Y-63999000D01*
X72542710Y-63999000D01*
X72674490Y-63999000D01*
X72674492Y-63999000D01*
X72801786Y-63964892D01*
X72801788Y-63964890D01*
X72801790Y-63964890D01*
X72915909Y-63899003D01*
X72915909Y-63899002D01*
X72915914Y-63899000D01*
X73009100Y-63805814D01*
X73010774Y-63802915D01*
X73074990Y-63691690D01*
X73074990Y-63691688D01*
X73074992Y-63691686D01*
X73109100Y-63564392D01*
X73109100Y-63432608D01*
X73074992Y-63305314D01*
X73074990Y-63305311D01*
X73074990Y-63305309D01*
X73009103Y-63191190D01*
X73009101Y-63191188D01*
X73009100Y-63191186D01*
X72938094Y-63120180D01*
X72910319Y-63065666D01*
X72909100Y-63050179D01*
X72909100Y-62643424D01*
X84900000Y-62643424D01*
X84900000Y-62816575D01*
X84927084Y-62987579D01*
X84980588Y-63152248D01*
X85059195Y-63306524D01*
X85059197Y-63306528D01*
X85123219Y-63394646D01*
X85556328Y-62961536D01*
X85599901Y-63037007D01*
X85692993Y-63130099D01*
X85768460Y-63173670D01*
X85335352Y-63606778D01*
X85423477Y-63670805D01*
X85577751Y-63749411D01*
X85742420Y-63802915D01*
X85913425Y-63830000D01*
X86086575Y-63830000D01*
X86257579Y-63802915D01*
X86422248Y-63749411D01*
X86576524Y-63670804D01*
X86576530Y-63670800D01*
X86664646Y-63606779D01*
X86664646Y-63606778D01*
X86231538Y-63173670D01*
X86307007Y-63130099D01*
X86400099Y-63037007D01*
X86443670Y-62961538D01*
X86876778Y-63394646D01*
X86876779Y-63394646D01*
X86940800Y-63306530D01*
X86940804Y-63306524D01*
X87019411Y-63152248D01*
X87072915Y-62987579D01*
X87100000Y-62816575D01*
X87100000Y-62643424D01*
X87072915Y-62472420D01*
X87019411Y-62307751D01*
X86940805Y-62153477D01*
X86876778Y-62065352D01*
X86443670Y-62498460D01*
X86400099Y-62422993D01*
X86307007Y-62329901D01*
X86231536Y-62286328D01*
X86664646Y-61853219D01*
X86576528Y-61789197D01*
X86576524Y-61789195D01*
X86422248Y-61710588D01*
X86257579Y-61657084D01*
X86086575Y-61630000D01*
X85913425Y-61630000D01*
X85742420Y-61657084D01*
X85577751Y-61710588D01*
X85423476Y-61789195D01*
X85335352Y-61853219D01*
X85768461Y-62286328D01*
X85692993Y-62329901D01*
X85599901Y-62422993D01*
X85556328Y-62498461D01*
X85123219Y-62065352D01*
X85059195Y-62153476D01*
X84980588Y-62307751D01*
X84927084Y-62472420D01*
X84900000Y-62643424D01*
X72909100Y-62643424D01*
X72909100Y-61021478D01*
X72928007Y-60963287D01*
X72938090Y-60951480D01*
X73681474Y-60208095D01*
X73735991Y-60180319D01*
X73751478Y-60179100D01*
X73851890Y-60179100D01*
X73851892Y-60179100D01*
X73979186Y-60144992D01*
X73979188Y-60144990D01*
X73979190Y-60144990D01*
X74093309Y-60079103D01*
X74093309Y-60079102D01*
X74093314Y-60079100D01*
X74186500Y-59985914D01*
X74252392Y-59871786D01*
X74286500Y-59744492D01*
X74286500Y-59612708D01*
X74252392Y-59485414D01*
X74252390Y-59485411D01*
X74252390Y-59485409D01*
X74186503Y-59371290D01*
X74186501Y-59371288D01*
X74186500Y-59371286D01*
X74135467Y-59320253D01*
X84949500Y-59320253D01*
X84949500Y-61059746D01*
X84949501Y-61059758D01*
X84961132Y-61118227D01*
X84961133Y-61118231D01*
X85005448Y-61184552D01*
X85071769Y-61228867D01*
X85116231Y-61237711D01*
X85130241Y-61240498D01*
X85130246Y-61240498D01*
X85130252Y-61240500D01*
X85130253Y-61240500D01*
X86869747Y-61240500D01*
X86869748Y-61240500D01*
X86928231Y-61228867D01*
X86994552Y-61184552D01*
X87038867Y-61118231D01*
X87050500Y-61059748D01*
X87050500Y-59320252D01*
X87038867Y-59261769D01*
X86994552Y-59195448D01*
X86994548Y-59195445D01*
X86928233Y-59151134D01*
X86928231Y-59151133D01*
X86928228Y-59151132D01*
X86928227Y-59151132D01*
X86869758Y-59139501D01*
X86869748Y-59139500D01*
X85130252Y-59139500D01*
X85130251Y-59139500D01*
X85130241Y-59139501D01*
X85071772Y-59151132D01*
X85071766Y-59151134D01*
X85005451Y-59195445D01*
X85005445Y-59195451D01*
X84961134Y-59261766D01*
X84961132Y-59261772D01*
X84949501Y-59320241D01*
X84949500Y-59320253D01*
X74135467Y-59320253D01*
X74093314Y-59278100D01*
X74093311Y-59278098D01*
X74093309Y-59278096D01*
X73979189Y-59212209D01*
X73979191Y-59212209D01*
X73916625Y-59195445D01*
X73851892Y-59178100D01*
X73720108Y-59178100D01*
X73655375Y-59195445D01*
X73592809Y-59212209D01*
X73478690Y-59278096D01*
X73385496Y-59371290D01*
X73319609Y-59485409D01*
X73285500Y-59612709D01*
X73285500Y-59713120D01*
X73266593Y-59771311D01*
X73256504Y-59783124D01*
X72424089Y-60615540D01*
X72424088Y-60615539D01*
X72368139Y-60671489D01*
X72328580Y-60740007D01*
X72328578Y-60740011D01*
X72308100Y-60816435D01*
X72308100Y-63050179D01*
X72289193Y-63108370D01*
X72279109Y-63120176D01*
X72208100Y-63191186D01*
X72208097Y-63191189D01*
X72208096Y-63191190D01*
X72142209Y-63305309D01*
X72141882Y-63306530D01*
X72108100Y-63432608D01*
X50500500Y-63432608D01*
X50500500Y-61913424D01*
X51900000Y-61913424D01*
X51900000Y-62086575D01*
X51927084Y-62257579D01*
X51980588Y-62422248D01*
X52059195Y-62576524D01*
X52059197Y-62576528D01*
X52123219Y-62664646D01*
X52556328Y-62231536D01*
X52599901Y-62307007D01*
X52692993Y-62400099D01*
X52768460Y-62443670D01*
X52335352Y-62876778D01*
X52423477Y-62940805D01*
X52577751Y-63019411D01*
X52742420Y-63072915D01*
X52913425Y-63100000D01*
X53086575Y-63100000D01*
X53257579Y-63072915D01*
X53422248Y-63019411D01*
X53576524Y-62940804D01*
X53576530Y-62940800D01*
X53664646Y-62876779D01*
X53664646Y-62876778D01*
X53231538Y-62443670D01*
X53307007Y-62400099D01*
X53400099Y-62307007D01*
X53443670Y-62231538D01*
X53876778Y-62664646D01*
X53876779Y-62664646D01*
X53940800Y-62576530D01*
X53940804Y-62576524D01*
X54019411Y-62422248D01*
X54072915Y-62257579D01*
X54100000Y-62086575D01*
X54100000Y-61913424D01*
X54072915Y-61742420D01*
X54019411Y-61577751D01*
X53940805Y-61423477D01*
X53876778Y-61335352D01*
X53443670Y-61768460D01*
X53400099Y-61692993D01*
X53307007Y-61599901D01*
X53231536Y-61556328D01*
X53664646Y-61123219D01*
X53576528Y-61059197D01*
X53576524Y-61059195D01*
X53422248Y-60980588D01*
X53257579Y-60927084D01*
X53086575Y-60900000D01*
X52913425Y-60900000D01*
X52742420Y-60927084D01*
X52577751Y-60980588D01*
X52423476Y-61059195D01*
X52335352Y-61123219D01*
X52768461Y-61556328D01*
X52692993Y-61599901D01*
X52599901Y-61692993D01*
X52556328Y-61768461D01*
X52123219Y-61335352D01*
X52059195Y-61423476D01*
X51980588Y-61577751D01*
X51927084Y-61742420D01*
X51900000Y-61913424D01*
X50500500Y-61913424D01*
X50500500Y-58590253D01*
X51949500Y-58590253D01*
X51949500Y-60329746D01*
X51949501Y-60329758D01*
X51961132Y-60388227D01*
X51961133Y-60388231D01*
X52005448Y-60454552D01*
X52071769Y-60498867D01*
X52116231Y-60507711D01*
X52130241Y-60510498D01*
X52130246Y-60510498D01*
X52130252Y-60510500D01*
X52130253Y-60510500D01*
X53869747Y-60510500D01*
X53869748Y-60510500D01*
X53928231Y-60498867D01*
X53994552Y-60454552D01*
X54038867Y-60388231D01*
X54050500Y-60329748D01*
X54050500Y-58590252D01*
X54038867Y-58531769D01*
X53994552Y-58465448D01*
X53994548Y-58465445D01*
X53928233Y-58421134D01*
X53928231Y-58421133D01*
X53928228Y-58421132D01*
X53928227Y-58421132D01*
X53869758Y-58409501D01*
X53869748Y-58409500D01*
X52130252Y-58409500D01*
X52130251Y-58409500D01*
X52130241Y-58409501D01*
X52071772Y-58421132D01*
X52071766Y-58421134D01*
X52005451Y-58465445D01*
X52005445Y-58465451D01*
X51961134Y-58531766D01*
X51961132Y-58531772D01*
X51949501Y-58590241D01*
X51949500Y-58590253D01*
X50500500Y-58590253D01*
X50500500Y-55183424D01*
X70900000Y-55183424D01*
X70900000Y-55356575D01*
X70927084Y-55527579D01*
X70980588Y-55692248D01*
X71059195Y-55846524D01*
X71059197Y-55846528D01*
X71123219Y-55934646D01*
X71556328Y-55501536D01*
X71599901Y-55577007D01*
X71692993Y-55670099D01*
X71768460Y-55713670D01*
X71335352Y-56146778D01*
X71423477Y-56210805D01*
X71577751Y-56289411D01*
X71742420Y-56342915D01*
X71913425Y-56370000D01*
X72086575Y-56370000D01*
X72257579Y-56342915D01*
X72422248Y-56289411D01*
X72576524Y-56210804D01*
X72576530Y-56210800D01*
X72664646Y-56146779D01*
X72664646Y-56146778D01*
X72231538Y-55713670D01*
X72307007Y-55670099D01*
X72400099Y-55577007D01*
X72443670Y-55501538D01*
X72876778Y-55934646D01*
X72876779Y-55934646D01*
X72940800Y-55846530D01*
X72940804Y-55846524D01*
X73019411Y-55692248D01*
X73072915Y-55527579D01*
X73100000Y-55356575D01*
X73100000Y-55183424D01*
X73072915Y-55012420D01*
X73019411Y-54847751D01*
X72940805Y-54693477D01*
X72876778Y-54605352D01*
X72443670Y-55038460D01*
X72400099Y-54962993D01*
X72307007Y-54869901D01*
X72231536Y-54826328D01*
X72664646Y-54393219D01*
X72576528Y-54329197D01*
X72576524Y-54329195D01*
X72422248Y-54250588D01*
X72257579Y-54197084D01*
X72086575Y-54170000D01*
X71913425Y-54170000D01*
X71742420Y-54197084D01*
X71577751Y-54250588D01*
X71423476Y-54329195D01*
X71335352Y-54393219D01*
X71768461Y-54826328D01*
X71692993Y-54869901D01*
X71599901Y-54962993D01*
X71556328Y-55038461D01*
X71123219Y-54605352D01*
X71059195Y-54693476D01*
X70980588Y-54847751D01*
X70927084Y-55012420D01*
X70900000Y-55183424D01*
X50500500Y-55183424D01*
X50500500Y-51860253D01*
X70949500Y-51860253D01*
X70949500Y-53599746D01*
X70949501Y-53599758D01*
X70961132Y-53658227D01*
X70961134Y-53658233D01*
X70994265Y-53707816D01*
X71005448Y-53724552D01*
X71071769Y-53768867D01*
X71116231Y-53777711D01*
X71130241Y-53780498D01*
X71130246Y-53780498D01*
X71130252Y-53780500D01*
X71130253Y-53780500D01*
X72869747Y-53780500D01*
X72869748Y-53780500D01*
X72928231Y-53768867D01*
X72994552Y-53724552D01*
X73038867Y-53658231D01*
X73050500Y-53599748D01*
X73050500Y-52893709D01*
X85649500Y-52893709D01*
X85649500Y-53106290D01*
X85682752Y-53316238D01*
X85748443Y-53518412D01*
X85844948Y-53707815D01*
X85844950Y-53707819D01*
X85969891Y-53879786D01*
X85969893Y-53879788D01*
X85969896Y-53879792D01*
X86120208Y-54030104D01*
X86120211Y-54030106D01*
X86120213Y-54030108D01*
X86292180Y-54155049D01*
X86292184Y-54155051D01*
X86481588Y-54251557D01*
X86683757Y-54317246D01*
X86683758Y-54317246D01*
X86683761Y-54317247D01*
X86893710Y-54350500D01*
X86893713Y-54350500D01*
X87106290Y-54350500D01*
X87316238Y-54317247D01*
X87316239Y-54317246D01*
X87316243Y-54317246D01*
X87518412Y-54251557D01*
X87707816Y-54155051D01*
X87879792Y-54030104D01*
X88030104Y-53879792D01*
X88155051Y-53707816D01*
X88251557Y-53518412D01*
X88317246Y-53316243D01*
X88350500Y-53106287D01*
X88350500Y-52893713D01*
X88350500Y-52893709D01*
X88317247Y-52683761D01*
X88317246Y-52683757D01*
X88251557Y-52481588D01*
X88155051Y-52292184D01*
X88155049Y-52292180D01*
X88030108Y-52120213D01*
X88030106Y-52120211D01*
X88030104Y-52120208D01*
X87879792Y-51969896D01*
X87879788Y-51969893D01*
X87879786Y-51969891D01*
X87707819Y-51844950D01*
X87707815Y-51844948D01*
X87518412Y-51748443D01*
X87316238Y-51682752D01*
X87106290Y-51649500D01*
X87106287Y-51649500D01*
X86893713Y-51649500D01*
X86893710Y-51649500D01*
X86683761Y-51682752D01*
X86481587Y-51748443D01*
X86292184Y-51844948D01*
X86292180Y-51844950D01*
X86120213Y-51969891D01*
X85969891Y-52120213D01*
X85844950Y-52292180D01*
X85844948Y-52292184D01*
X85748443Y-52481587D01*
X85682752Y-52683761D01*
X85649500Y-52893709D01*
X73050500Y-52893709D01*
X73050500Y-51860252D01*
X73038867Y-51801769D01*
X72994552Y-51735448D01*
X72994548Y-51735445D01*
X72928233Y-51691134D01*
X72928231Y-51691133D01*
X72928228Y-51691132D01*
X72928227Y-51691132D01*
X72869758Y-51679501D01*
X72869748Y-51679500D01*
X71130252Y-51679500D01*
X71130251Y-51679500D01*
X71130241Y-51679501D01*
X71071772Y-51691132D01*
X71071766Y-51691134D01*
X71005451Y-51735445D01*
X71005445Y-51735451D01*
X70961134Y-51801766D01*
X70961132Y-51801772D01*
X70949501Y-51860241D01*
X70949500Y-51860253D01*
X50500500Y-51860253D01*
X50500500Y-50599500D01*
X50519407Y-50541309D01*
X50568907Y-50505345D01*
X50599500Y-50500500D01*
X89400500Y-50500500D01*
X89458691Y-50519407D01*
G37*
G04 #@! TD.AperFunction*
M02*
