%TF.GenerationSoftware,KiCad,Pcbnew,9.0.5*%
%TF.CreationDate,2026-09-30T11:29:33+02:00*%
%TF.ProjectId,Ardor_IO,4172646f-725f-4494-9f2e-6b696361645f,C*%
%TF.SameCoordinates,Original*%
%TF.FileFunction,Soldermask,Top*%
%TF.FilePolarity,Negative*%
%FSLAX46Y46*%
G04 Gerber Fmt 4.6, Leading zero omitted, Abs format (unit mm)*
G04 Created by KiCad (PCBNEW 9.0.5) date 2026-09-30 11:29:33*
%MOMM*%
%LPD*%
G01*
G04 APERTURE LIST*
G04 Aperture macros list*
%AMRoundRect*
0 Rectangle with rounded corners*
0 $1 Rounding radius*
0 $2 $3 $4 $5 $6 $7 $8 $9 X,Y pos of 4 corners*
0 Add a 4 corners polygon primitive as box body*
4,1,4,$2,$3,$4,$5,$6,$7,$8,$9,$2,$3,0*
0 Add four circle primitives for the rounded corners*
1,1,$1+$1,$2,$3*
1,1,$1+$1,$4,$5*
1,1,$1+$1,$6,$7*
1,1,$1+$1,$8,$9*
0 Add four rect primitives between the rounded corners*
20,1,$1+$1,$2,$3,$4,$5,0*
20,1,$1+$1,$4,$5,$6,$7,0*
20,1,$1+$1,$6,$7,$8,$9,0*
20,1,$1+$1,$8,$9,$2,$3,0*%
G04 Aperture macros list end*
%ADD10RoundRect,0.200000X0.200000X0.275000X-0.200000X0.275000X-0.200000X-0.275000X0.200000X-0.275000X0*%
%ADD11R,1.700000X1.700000*%
%ADD12C,1.700000*%
%ADD13RoundRect,0.112500X0.112500X-0.187500X0.112500X0.187500X-0.112500X0.187500X-0.112500X-0.187500X0*%
%ADD14RoundRect,0.200000X-0.200000X-0.275000X0.200000X-0.275000X0.200000X0.275000X-0.200000X0.275000X0*%
%ADD15RoundRect,0.225000X-0.225000X-0.250000X0.225000X-0.250000X0.225000X0.250000X-0.225000X0.250000X0*%
%ADD16RoundRect,0.250000X-0.325000X-0.650000X0.325000X-0.650000X0.325000X0.650000X-0.325000X0.650000X0*%
%ADD17RoundRect,0.112500X-0.187500X-0.112500X0.187500X-0.112500X0.187500X0.112500X-0.187500X0.112500X0*%
%ADD18RoundRect,0.075000X-0.650000X-0.075000X0.650000X-0.075000X0.650000X0.075000X-0.650000X0.075000X0*%
%ADD19RoundRect,0.250000X0.650000X-0.325000X0.650000X0.325000X-0.650000X0.325000X-0.650000X-0.325000X0*%
%ADD20RoundRect,0.250000X-0.300000X-0.300000X0.300000X-0.300000X0.300000X0.300000X-0.300000X0.300000X0*%
%ADD21C,1.500000*%
%ADD22RoundRect,0.250000X-0.550000X-0.550000X0.550000X-0.550000X0.550000X0.550000X-0.550000X0.550000X0*%
%ADD23C,1.600000*%
%ADD24R,3.200000X1.600000*%
%ADD25RoundRect,0.218750X-0.218750X-0.381250X0.218750X-0.381250X0.218750X0.381250X-0.218750X0.381250X0*%
%ADD26RoundRect,0.200000X0.275000X-0.200000X0.275000X0.200000X-0.275000X0.200000X-0.275000X-0.200000X0*%
%ADD27RoundRect,0.225000X0.250000X-0.225000X0.250000X0.225000X-0.250000X0.225000X-0.250000X-0.225000X0*%
%ADD28RoundRect,0.225000X-0.225000X-0.375000X0.225000X-0.375000X0.225000X0.375000X-0.225000X0.375000X0*%
%ADD29R,2.000000X2.000000*%
%ADD30C,2.000000*%
%ADD31RoundRect,0.225000X0.375000X-0.225000X0.375000X0.225000X-0.375000X0.225000X-0.375000X-0.225000X0*%
%ADD32RoundRect,0.150000X-0.825000X-0.150000X0.825000X-0.150000X0.825000X0.150000X-0.825000X0.150000X0*%
%ADD33RoundRect,0.250000X0.475000X-0.250000X0.475000X0.250000X-0.475000X0.250000X-0.475000X-0.250000X0*%
%ADD34RoundRect,0.200000X-0.275000X0.200000X-0.275000X-0.200000X0.275000X-0.200000X0.275000X0.200000X0*%
%ADD35RoundRect,0.150000X-0.587500X-0.150000X0.587500X-0.150000X0.587500X0.150000X-0.587500X0.150000X0*%
%ADD36RoundRect,0.250000X-0.312500X-0.625000X0.312500X-0.625000X0.312500X0.625000X-0.312500X0.625000X0*%
%ADD37RoundRect,0.250000X-0.475000X0.250000X-0.475000X-0.250000X0.475000X-0.250000X0.475000X0.250000X0*%
G04 APERTURE END LIST*
D10*
%TO.C,R406*%
X87423717Y-76954628D03*
X89073717Y-76954628D03*
%TD*%
D11*
%TO.C,J102*%
X53000000Y-62000000D03*
D12*
X55540000Y-62000000D03*
X58080000Y-62000000D03*
%TD*%
D13*
%TO.C,D202*%
X56500000Y-72050000D03*
X56500000Y-69950000D03*
%TD*%
D14*
%TO.C,FB202*%
X58425000Y-72250000D03*
X60075000Y-72250000D03*
%TD*%
D15*
%TO.C,C404*%
X81225000Y-62000000D03*
X82775000Y-62000000D03*
%TD*%
D16*
%TO.C,C502*%
X105775000Y-79000000D03*
X108725000Y-79000000D03*
%TD*%
D17*
%TO.C,D204*%
X55950000Y-75000000D03*
X58050000Y-75000000D03*
%TD*%
D16*
%TO.C,C401*%
X61005859Y-59907775D03*
X63955859Y-59907775D03*
%TD*%
D18*
%TO.C,U301*%
X71800000Y-84000000D03*
X71800000Y-84500000D03*
X71800000Y-85000000D03*
X71800000Y-85500000D03*
X71800000Y-86000000D03*
X76200000Y-86000000D03*
X76200000Y-85500000D03*
X76200000Y-85000000D03*
X76200000Y-84500000D03*
X76200000Y-84000000D03*
%TD*%
D19*
%TO.C,C202*%
X60500000Y-68975000D03*
X60500000Y-66025000D03*
%TD*%
D20*
%TO.C,D304*%
X71600000Y-90000000D03*
X74400000Y-90000000D03*
%TD*%
%TO.C,D305*%
X74350000Y-80000000D03*
X77150000Y-80000000D03*
%TD*%
D16*
%TO.C,C402*%
X61013156Y-62560131D03*
X63963156Y-62560131D03*
%TD*%
D11*
%TO.C,JP301*%
X60000000Y-83000000D03*
D12*
X62540000Y-83000000D03*
X60000000Y-85540000D03*
X62540000Y-85540000D03*
X60000000Y-88080000D03*
X62540000Y-88080000D03*
%TD*%
D14*
%TO.C,FB201*%
X61675000Y-70750000D03*
X63325000Y-70750000D03*
%TD*%
D21*
%TO.C,TP103*%
X87250000Y-62250000D03*
%TD*%
D22*
%TO.C,U201*%
X65500000Y-70000000D03*
D23*
X65500000Y-72540000D03*
X65500000Y-75080000D03*
X73120000Y-75080000D03*
X73120000Y-72540000D03*
X73120000Y-70000000D03*
%TD*%
D24*
%TO.C,C501*%
X95500000Y-63000000D03*
X100500000Y-63000000D03*
%TD*%
D14*
%TO.C,R503*%
X102425000Y-77000000D03*
X104075000Y-77000000D03*
%TD*%
D25*
%TO.C,FB101*%
X86937500Y-60000000D03*
X89062500Y-60000000D03*
%TD*%
D26*
%TO.C,R401*%
X76250000Y-64325000D03*
X76250000Y-62675000D03*
%TD*%
D17*
%TO.C,D203*%
X55950000Y-67000000D03*
X58050000Y-67000000D03*
%TD*%
D20*
%TO.C,D306*%
X75600000Y-92500000D03*
X78400000Y-92500000D03*
%TD*%
D26*
%TO.C,R506*%
X111000000Y-80825000D03*
X111000000Y-79175000D03*
%TD*%
D14*
%TO.C,FB102*%
X69175000Y-60000000D03*
X70825000Y-60000000D03*
%TD*%
D27*
%TO.C,C302*%
X69750000Y-88025000D03*
X69750000Y-86475000D03*
%TD*%
%TO.C,C303*%
X78250000Y-85775000D03*
X78250000Y-84225000D03*
%TD*%
D14*
%TO.C,R301*%
X65175000Y-80250000D03*
X66825000Y-80250000D03*
%TD*%
D28*
%TO.C,D201*%
X62850000Y-78200000D03*
X66150000Y-78200000D03*
%TD*%
D21*
%TO.C,TP401*%
X83000000Y-77000000D03*
%TD*%
D29*
%TO.C,K501*%
X105000000Y-62000000D03*
D30*
X105000000Y-64540000D03*
X105000000Y-72160000D03*
X110080000Y-72160000D03*
X110080000Y-64540000D03*
X110080000Y-62000000D03*
%TD*%
D11*
%TO.C,J502*%
X115000000Y-74800000D03*
D12*
X115000000Y-77340000D03*
%TD*%
D10*
%TO.C,R307*%
X77319038Y-87826791D03*
X75669038Y-87826791D03*
%TD*%
D27*
%TO.C,C201*%
X76000000Y-70775000D03*
X76000000Y-69225000D03*
%TD*%
D21*
%TO.C,TP201*%
X79250000Y-76000000D03*
%TD*%
D11*
%TO.C,J202*%
X53000000Y-70000000D03*
D12*
X53000000Y-72540000D03*
%TD*%
D19*
%TO.C,C203*%
X60500000Y-76975000D03*
X60500000Y-74025000D03*
%TD*%
D27*
%TO.C,C104*%
X76000000Y-61025000D03*
X76000000Y-59475000D03*
%TD*%
D11*
%TO.C,J302*%
X53000000Y-81500000D03*
D12*
X53000000Y-84040000D03*
X53000000Y-86580000D03*
%TD*%
D21*
%TO.C,TP101*%
X90457401Y-67237412D03*
%TD*%
D31*
%TO.C,D502*%
X111000000Y-77650000D03*
X111000000Y-74350000D03*
%TD*%
D26*
%TO.C,R202*%
X76000000Y-74075000D03*
X76000000Y-72425000D03*
%TD*%
D21*
%TO.C,TP301*%
X70250000Y-93250000D03*
%TD*%
D15*
%TO.C,C405*%
X89424904Y-69331725D03*
X90974904Y-69331725D03*
%TD*%
D32*
%TO.C,U402*%
X87525000Y-71095000D03*
X87525000Y-72365000D03*
X87525000Y-73635000D03*
X87525000Y-74905000D03*
X92475000Y-74905000D03*
X92475000Y-73635000D03*
X92475000Y-72365000D03*
X92475000Y-71095000D03*
%TD*%
D33*
%TO.C,C101*%
X91000000Y-61450000D03*
X91000000Y-59550000D03*
%TD*%
D26*
%TO.C,R501*%
X90000000Y-64825000D03*
X90000000Y-63175000D03*
%TD*%
D27*
%TO.C,C102*%
X92250000Y-64775000D03*
X92250000Y-63225000D03*
%TD*%
D34*
%TO.C,R402*%
X83210555Y-70671317D03*
X83210555Y-72321317D03*
%TD*%
D35*
%TO.C,Q501*%
X106062500Y-74550000D03*
X106062500Y-76450000D03*
X107937500Y-75500000D03*
%TD*%
D33*
%TO.C,C103*%
X73000000Y-61450000D03*
X73000000Y-59550000D03*
%TD*%
D14*
%TO.C,R302*%
X66175000Y-83000000D03*
X67825000Y-83000000D03*
%TD*%
%TO.C,R305*%
X77175000Y-82250000D03*
X78825000Y-82250000D03*
%TD*%
D32*
%TO.C,U401*%
X78525000Y-65095000D03*
X78525000Y-66365000D03*
X78525000Y-67635000D03*
X78525000Y-68905000D03*
X83475000Y-68905000D03*
X83475000Y-67635000D03*
X83475000Y-66365000D03*
X83475000Y-65095000D03*
%TD*%
D27*
%TO.C,C301*%
X69750000Y-84775000D03*
X69750000Y-83225000D03*
%TD*%
D14*
%TO.C,R504*%
X102425000Y-78750000D03*
X104075000Y-78750000D03*
%TD*%
D21*
%TO.C,TP501*%
X115500000Y-63750000D03*
%TD*%
D17*
%TO.C,D301*%
X56950000Y-80000000D03*
X59050000Y-80000000D03*
%TD*%
D20*
%TO.C,D303*%
X69600000Y-80500000D03*
X72400000Y-80500000D03*
%TD*%
D14*
%TO.C,R306*%
X78925000Y-80000000D03*
X80575000Y-80000000D03*
%TD*%
D21*
%TO.C,TP102*%
X79000000Y-60000000D03*
%TD*%
D17*
%TO.C,D302*%
X58950000Y-92000000D03*
X61050000Y-92000000D03*
%TD*%
D21*
%TO.C,TP402*%
X103250000Y-81250000D03*
%TD*%
D26*
%TO.C,R403*%
X85000000Y-63325000D03*
X85000000Y-61675000D03*
%TD*%
D10*
%TO.C,R405*%
X95064678Y-76993851D03*
X93414678Y-76993851D03*
%TD*%
D26*
%TO.C,R303*%
X67000000Y-88325000D03*
X67000000Y-86675000D03*
%TD*%
D11*
%TO.C,J503*%
X115000000Y-67000000D03*
D12*
X115000000Y-69540000D03*
%TD*%
D14*
%TO.C,R203*%
X75175000Y-76000000D03*
X76825000Y-76000000D03*
%TD*%
D13*
%TO.C,D501*%
X113000000Y-62550000D03*
X113000000Y-60450000D03*
%TD*%
D34*
%TO.C,R404*%
X85000000Y-70675000D03*
X85000000Y-72325000D03*
%TD*%
D14*
%TO.C,R505*%
X107675000Y-81250000D03*
X109325000Y-81250000D03*
%TD*%
D36*
%TO.C,R101*%
X63537500Y-93000000D03*
X66462500Y-93000000D03*
%TD*%
D14*
%TO.C,R304*%
X68175000Y-91000000D03*
X69825000Y-91000000D03*
%TD*%
D11*
%TO.C,J101*%
X59500000Y-54000000D03*
D12*
X59500000Y-56540000D03*
X62040000Y-54000000D03*
X62040000Y-56540000D03*
X64580000Y-54000000D03*
X64580000Y-56540000D03*
X67120000Y-54000000D03*
X67120000Y-56540000D03*
X69660000Y-54000000D03*
X69660000Y-56540000D03*
X72200000Y-54000000D03*
X72200000Y-56540000D03*
X74740000Y-54000000D03*
X74740000Y-56540000D03*
X77280000Y-54000000D03*
X77280000Y-56540000D03*
X79820000Y-54000000D03*
X79820000Y-56540000D03*
X82360000Y-54000000D03*
X82360000Y-56540000D03*
X84900000Y-54000000D03*
X84900000Y-56540000D03*
X87440000Y-54000000D03*
X87440000Y-56540000D03*
X89980000Y-54000000D03*
X89980000Y-56540000D03*
X92520000Y-54000000D03*
X92520000Y-56540000D03*
X95060000Y-54000000D03*
X95060000Y-56540000D03*
X97600000Y-54000000D03*
X97600000Y-56540000D03*
X100140000Y-54000000D03*
X100140000Y-56540000D03*
X102680000Y-54000000D03*
X102680000Y-56540000D03*
X105220000Y-54000000D03*
X105220000Y-56540000D03*
X107760000Y-54000000D03*
X107760000Y-56540000D03*
%TD*%
D26*
%TO.C,R201*%
X65500000Y-67575000D03*
X65500000Y-65925000D03*
%TD*%
D14*
%TO.C,R502*%
X103675000Y-59500000D03*
X105325000Y-59500000D03*
%TD*%
D37*
%TO.C,C403*%
X91107209Y-76988431D03*
X91107209Y-78888431D03*
%TD*%
M02*
