M48
; DRILL file {KiCad 9.0.5} date 2026-09-30T11:29:33+0200
; FORMAT={-:-/ absolute / inch / decimal}
; #@! TF.CreationDate,2026-09-30T11:29:33+02:00
; #@! TF.GenerationSoftware,Kicad,Pcbnew,9.0.5
; #@! TF.FileFunction,Plated,1,2,PTH
FMAT,2
INCH
; #@! TA.AperFunction,Plated,PTH,ViaDrill
T1C0.0118
; #@! TA.AperFunction,Plated,PTH,ComponentDrill
T2C0.0315
; #@! TA.AperFunction,Plated,PTH,ComponentDrill
T3C0.0394
%
G90
G05
T1
X2.2343Y-2.2638
X2.2854Y-3.0391
X2.4604Y-3.6614
X2.4837Y-3.6085
X2.5056Y-3.0476
X2.6032Y-3.1318
X2.6378Y-3.3071
X2.6898Y-2.347
X2.6984Y-3.4045
X2.7071Y-2.1102
X2.8144Y-3.2824
X2.8401Y-3.6189
X2.874Y-3.0709
X2.9499Y-3.3295
X2.9583Y-2.2614
X2.9963Y-2.9638
X3.0059Y-3.1811
X3.0198Y-2.8887
X3.0249Y-2.5003
X3.0499Y-2.4835
X3.0509Y-3.4042
X3.1102Y-3.5433
X3.1312Y-3.2104
X3.135Y-3.1219
X3.191Y-2.9222
X3.2583Y-2.2614
X3.3465Y-3.0709
X3.3465Y-3.3071
X3.3465Y-3.5433
X3.3869Y-2.3575
X3.3891Y-2.7399
X3.4439Y-2.4029
X3.5335Y-2.7953
X3.5433Y-2.8543
X3.7634Y-2.8946
X3.8189Y-3.5433
X3.9977Y-3.0315
X4.0551Y-2.5984
X4.0551Y-3.5433
X4.131Y-3.2719
X4.2913Y-2.3622
X4.3388Y-3.0258
X4.3869Y-2.8131
X4.3979Y-3.1542
T2
X2.5787Y-2.7559
X2.5787Y-2.8559
X2.5787Y-2.9559
X2.8787Y-2.7559
X2.8787Y-2.8559
X2.8787Y-2.9559
T3
X2.0866Y-2.4409
X2.0866Y-2.7559
X2.0866Y-2.8559
X2.0866Y-3.2087
X2.0866Y-3.3087
X2.0866Y-3.4087
X2.1866Y-2.4409
X2.2866Y-2.4409
X2.3425Y-2.126
X2.3425Y-2.226
X2.3622Y-3.2677
X2.3622Y-3.3677
X2.3622Y-3.4677
X2.4425Y-2.126
X2.4425Y-2.226
X2.4622Y-3.2677
X2.4622Y-3.3677
X2.4622Y-3.4677
X2.5425Y-2.126
X2.5425Y-2.226
X2.6425Y-2.126
X2.6425Y-2.226
X2.7425Y-2.126
X2.7425Y-2.226
X2.8425Y-2.126
X2.8425Y-2.226
X2.9425Y-2.126
X2.9425Y-2.226
X3.0425Y-2.126
X3.0425Y-2.226
X3.1425Y-2.126
X3.1425Y-2.226
X3.2425Y-2.126
X3.2425Y-2.226
X3.3425Y-2.126
X3.3425Y-2.226
X3.4425Y-2.126
X3.4425Y-2.226
X3.5425Y-2.126
X3.5425Y-2.226
X3.6425Y-2.126
X3.6425Y-2.226
X3.7425Y-2.126
X3.7425Y-2.226
X3.8425Y-2.126
X3.8425Y-2.226
X3.9425Y-2.126
X3.9425Y-2.226
X4.0425Y-2.126
X4.0425Y-2.226
X4.1339Y-2.4409
X4.1339Y-2.5409
X4.1339Y-2.8409
X4.1425Y-2.126
X4.1425Y-2.226
X4.2425Y-2.126
X4.2425Y-2.226
X4.3339Y-2.4409
X4.3339Y-2.5409
X4.3339Y-2.8409
X4.5276Y-2.6378
X4.5276Y-2.7378
X4.5276Y-2.9449
X4.5276Y-3.0449
M30
