%TF.GenerationSoftware,KiCad,Pcbnew,9.0.5*%
%TF.CreationDate,2026-09-30T11:29:33+02:00*%
%TF.ProjectId,Ardor_IO,4172646f-725f-4494-9f2e-6b696361645f,C*%
%TF.SameCoordinates,Original*%
%TF.FileFunction,Legend,Top*%
%TF.FilePolarity,Positive*%
%FSLAX46Y46*%
G04 Gerber Fmt 4.6, Leading zero omitted, Abs format (unit mm)*
G04 Created by KiCad (PCBNEW 9.0.5) date 2026-09-30 11:29:33*
%MOMM*%
%LPD*%
G01*
G04 APERTURE LIST*
G04 Aperture macros list*
%AMRoundRect*
0 Rectangle with rounded corners*
0 $1 Rounding radius*
0 $2 $3 $4 $5 $6 $7 $8 $9 X,Y pos of 4 corners*
0 Add a 4 corners polygon primitive as box body*
4,1,4,$2,$3,$4,$5,$6,$7,$8,$9,$2,$3,0*
0 Add four circle primitives for the rounded corners*
1,1,$1+$1,$2,$3*
1,1,$1+$1,$4,$5*
1,1,$1+$1,$6,$7*
1,1,$1+$1,$8,$9*
0 Add four rect primitives between the rounded corners*
20,1,$1+$1,$2,$3,$4,$5,0*
20,1,$1+$1,$4,$5,$6,$7,0*
20,1,$1+$1,$6,$7,$8,$9,0*
20,1,$1+$1,$8,$9,$2,$3,0*%
G04 Aperture macros list end*
%ADD10C,0.120000*%
%ADD11C,0.110000*%
%ADD12RoundRect,0.200000X0.200000X0.275000X-0.200000X0.275000X-0.200000X-0.275000X0.200000X-0.275000X0*%
%ADD13R,1.700000X1.700000*%
%ADD14C,1.700000*%
%ADD15RoundRect,0.112500X0.112500X-0.187500X0.112500X0.187500X-0.112500X0.187500X-0.112500X-0.187500X0*%
%ADD16RoundRect,0.200000X-0.200000X-0.275000X0.200000X-0.275000X0.200000X0.275000X-0.200000X0.275000X0*%
%ADD17C,3.200000*%
%ADD18RoundRect,0.225000X-0.225000X-0.250000X0.225000X-0.250000X0.225000X0.250000X-0.225000X0.250000X0*%
%ADD19RoundRect,0.250000X-0.325000X-0.650000X0.325000X-0.650000X0.325000X0.650000X-0.325000X0.650000X0*%
%ADD20RoundRect,0.112500X-0.187500X-0.112500X0.187500X-0.112500X0.187500X0.112500X-0.187500X0.112500X0*%
%ADD21RoundRect,0.075000X-0.650000X-0.075000X0.650000X-0.075000X0.650000X0.075000X-0.650000X0.075000X0*%
%ADD22RoundRect,0.250000X0.650000X-0.325000X0.650000X0.325000X-0.650000X0.325000X-0.650000X-0.325000X0*%
%ADD23RoundRect,0.250000X-0.300000X-0.300000X0.300000X-0.300000X0.300000X0.300000X-0.300000X0.300000X0*%
%ADD24C,1.500000*%
%ADD25RoundRect,0.250000X-0.550000X-0.550000X0.550000X-0.550000X0.550000X0.550000X-0.550000X0.550000X0*%
%ADD26C,1.600000*%
%ADD27R,3.200000X1.600000*%
%ADD28RoundRect,0.218750X-0.218750X-0.381250X0.218750X-0.381250X0.218750X0.381250X-0.218750X0.381250X0*%
%ADD29RoundRect,0.200000X0.275000X-0.200000X0.275000X0.200000X-0.275000X0.200000X-0.275000X-0.200000X0*%
%ADD30RoundRect,0.225000X0.250000X-0.225000X0.250000X0.225000X-0.250000X0.225000X-0.250000X-0.225000X0*%
%ADD31RoundRect,0.225000X-0.225000X-0.375000X0.225000X-0.375000X0.225000X0.375000X-0.225000X0.375000X0*%
%ADD32R,2.000000X2.000000*%
%ADD33C,2.000000*%
%ADD34RoundRect,0.225000X0.375000X-0.225000X0.375000X0.225000X-0.375000X0.225000X-0.375000X-0.225000X0*%
%ADD35RoundRect,0.150000X-0.825000X-0.150000X0.825000X-0.150000X0.825000X0.150000X-0.825000X0.150000X0*%
%ADD36RoundRect,0.250000X0.475000X-0.250000X0.475000X0.250000X-0.475000X0.250000X-0.475000X-0.250000X0*%
%ADD37RoundRect,0.200000X-0.275000X0.200000X-0.275000X-0.200000X0.275000X-0.200000X0.275000X0.200000X0*%
%ADD38RoundRect,0.150000X-0.587500X-0.150000X0.587500X-0.150000X0.587500X0.150000X-0.587500X0.150000X0*%
%ADD39RoundRect,0.250000X-0.312500X-0.625000X0.312500X-0.625000X0.312500X0.625000X-0.312500X0.625000X0*%
%ADD40RoundRect,0.250000X-0.475000X0.250000X-0.475000X-0.250000X0.475000X-0.250000X0.475000X0.250000X0*%
G04 APERTURE END LIST*
D10*
X52009523Y-59635283D02*
X52390476Y-59635283D01*
X51933333Y-59863855D02*
X52200000Y-59063855D01*
X52200000Y-59063855D02*
X52466666Y-59863855D01*
X52733333Y-59063855D02*
X52733333Y-59711474D01*
X52733333Y-59711474D02*
X52771428Y-59787664D01*
X52771428Y-59787664D02*
X52809523Y-59825760D01*
X52809523Y-59825760D02*
X52885714Y-59863855D01*
X52885714Y-59863855D02*
X53038095Y-59863855D01*
X53038095Y-59863855D02*
X53114285Y-59825760D01*
X53114285Y-59825760D02*
X53152380Y-59787664D01*
X53152380Y-59787664D02*
X53190476Y-59711474D01*
X53190476Y-59711474D02*
X53190476Y-59063855D01*
X53495237Y-59063855D02*
X54028571Y-59863855D01*
X54028571Y-59063855D02*
X53495237Y-59863855D01*
X117209523Y-76941950D02*
X117133333Y-76903855D01*
X117133333Y-76903855D02*
X117019047Y-76903855D01*
X117019047Y-76903855D02*
X116904761Y-76941950D01*
X116904761Y-76941950D02*
X116828571Y-77018140D01*
X116828571Y-77018140D02*
X116790476Y-77094331D01*
X116790476Y-77094331D02*
X116752380Y-77246712D01*
X116752380Y-77246712D02*
X116752380Y-77360998D01*
X116752380Y-77360998D02*
X116790476Y-77513379D01*
X116790476Y-77513379D02*
X116828571Y-77589569D01*
X116828571Y-77589569D02*
X116904761Y-77665760D01*
X116904761Y-77665760D02*
X117019047Y-77703855D01*
X117019047Y-77703855D02*
X117095238Y-77703855D01*
X117095238Y-77703855D02*
X117209523Y-77665760D01*
X117209523Y-77665760D02*
X117247619Y-77627664D01*
X117247619Y-77627664D02*
X117247619Y-77360998D01*
X117247619Y-77360998D02*
X117095238Y-77360998D01*
X58327619Y-64763855D02*
X58060952Y-64382902D01*
X57870476Y-64763855D02*
X57870476Y-63963855D01*
X57870476Y-63963855D02*
X58175238Y-63963855D01*
X58175238Y-63963855D02*
X58251428Y-64001950D01*
X58251428Y-64001950D02*
X58289523Y-64040045D01*
X58289523Y-64040045D02*
X58327619Y-64116236D01*
X58327619Y-64116236D02*
X58327619Y-64230521D01*
X58327619Y-64230521D02*
X58289523Y-64306712D01*
X58289523Y-64306712D02*
X58251428Y-64344807D01*
X58251428Y-64344807D02*
X58175238Y-64382902D01*
X58175238Y-64382902D02*
X57870476Y-64382902D01*
X116771428Y-69865759D02*
X116885714Y-69903854D01*
X116885714Y-69903854D02*
X117076190Y-69903854D01*
X117076190Y-69903854D02*
X117152381Y-69865759D01*
X117152381Y-69865759D02*
X117190476Y-69827663D01*
X117190476Y-69827663D02*
X117228571Y-69751473D01*
X117228571Y-69751473D02*
X117228571Y-69675282D01*
X117228571Y-69675282D02*
X117190476Y-69599092D01*
X117190476Y-69599092D02*
X117152381Y-69560997D01*
X117152381Y-69560997D02*
X117076190Y-69522901D01*
X117076190Y-69522901D02*
X116923809Y-69484806D01*
X116923809Y-69484806D02*
X116847619Y-69446711D01*
X116847619Y-69446711D02*
X116809524Y-69408616D01*
X116809524Y-69408616D02*
X116771428Y-69332425D01*
X116771428Y-69332425D02*
X116771428Y-69256235D01*
X116771428Y-69256235D02*
X116809524Y-69180044D01*
X116809524Y-69180044D02*
X116847619Y-69141949D01*
X116847619Y-69141949D02*
X116923809Y-69103854D01*
X116923809Y-69103854D02*
X117114286Y-69103854D01*
X117114286Y-69103854D02*
X117228571Y-69141949D01*
X107771428Y-58830521D02*
X107771428Y-59363855D01*
X107580952Y-58525760D02*
X107390475Y-59097188D01*
X107390475Y-59097188D02*
X107885714Y-59097188D01*
X108342857Y-58563855D02*
X108419047Y-58563855D01*
X108419047Y-58563855D02*
X108495238Y-58601950D01*
X108495238Y-58601950D02*
X108533333Y-58640045D01*
X108533333Y-58640045D02*
X108571428Y-58716236D01*
X108571428Y-58716236D02*
X108609523Y-58868617D01*
X108609523Y-58868617D02*
X108609523Y-59059093D01*
X108609523Y-59059093D02*
X108571428Y-59211474D01*
X108571428Y-59211474D02*
X108533333Y-59287664D01*
X108533333Y-59287664D02*
X108495238Y-59325760D01*
X108495238Y-59325760D02*
X108419047Y-59363855D01*
X108419047Y-59363855D02*
X108342857Y-59363855D01*
X108342857Y-59363855D02*
X108266666Y-59325760D01*
X108266666Y-59325760D02*
X108228571Y-59287664D01*
X108228571Y-59287664D02*
X108190476Y-59211474D01*
X108190476Y-59211474D02*
X108152380Y-59059093D01*
X108152380Y-59059093D02*
X108152380Y-58868617D01*
X108152380Y-58868617D02*
X108190476Y-58716236D01*
X108190476Y-58716236D02*
X108228571Y-58640045D01*
X108228571Y-58640045D02*
X108266666Y-58601950D01*
X108266666Y-58601950D02*
X108342857Y-58563855D01*
X81628571Y-75063855D02*
X81895238Y-75863855D01*
X81895238Y-75863855D02*
X82161904Y-75063855D01*
X82885714Y-75863855D02*
X82619047Y-75482902D01*
X82428571Y-75863855D02*
X82428571Y-75063855D01*
X82428571Y-75063855D02*
X82733333Y-75063855D01*
X82733333Y-75063855D02*
X82809523Y-75101950D01*
X82809523Y-75101950D02*
X82847618Y-75140045D01*
X82847618Y-75140045D02*
X82885714Y-75216236D01*
X82885714Y-75216236D02*
X82885714Y-75330521D01*
X82885714Y-75330521D02*
X82847618Y-75406712D01*
X82847618Y-75406712D02*
X82809523Y-75444807D01*
X82809523Y-75444807D02*
X82733333Y-75482902D01*
X82733333Y-75482902D02*
X82428571Y-75482902D01*
X83228571Y-75444807D02*
X83495237Y-75444807D01*
X83609523Y-75863855D02*
X83228571Y-75863855D01*
X83228571Y-75863855D02*
X83228571Y-75063855D01*
X83228571Y-75063855D02*
X83609523Y-75063855D01*
X84219047Y-75444807D02*
X83952381Y-75444807D01*
X83952381Y-75863855D02*
X83952381Y-75063855D01*
X83952381Y-75063855D02*
X84333333Y-75063855D01*
X100976191Y-83613855D02*
X100976191Y-82813855D01*
X100976191Y-82813855D02*
X101242857Y-83385283D01*
X101242857Y-83385283D02*
X101509524Y-82813855D01*
X101509524Y-82813855D02*
X101509524Y-83613855D01*
X102042858Y-82813855D02*
X102195239Y-82813855D01*
X102195239Y-82813855D02*
X102271429Y-82851950D01*
X102271429Y-82851950D02*
X102347620Y-82928140D01*
X102347620Y-82928140D02*
X102385715Y-83080521D01*
X102385715Y-83080521D02*
X102385715Y-83347188D01*
X102385715Y-83347188D02*
X102347620Y-83499569D01*
X102347620Y-83499569D02*
X102271429Y-83575760D01*
X102271429Y-83575760D02*
X102195239Y-83613855D01*
X102195239Y-83613855D02*
X102042858Y-83613855D01*
X102042858Y-83613855D02*
X101966667Y-83575760D01*
X101966667Y-83575760D02*
X101890477Y-83499569D01*
X101890477Y-83499569D02*
X101852381Y-83347188D01*
X101852381Y-83347188D02*
X101852381Y-83080521D01*
X101852381Y-83080521D02*
X101890477Y-82928140D01*
X101890477Y-82928140D02*
X101966667Y-82851950D01*
X101966667Y-82851950D02*
X102042858Y-82813855D01*
X102728572Y-83613855D02*
X102728572Y-82813855D01*
X102728572Y-82813855D02*
X103185715Y-83613855D01*
X103185715Y-83613855D02*
X103185715Y-82813855D01*
X103719048Y-82813855D02*
X103871429Y-82813855D01*
X103871429Y-82813855D02*
X103947619Y-82851950D01*
X103947619Y-82851950D02*
X104023810Y-82928140D01*
X104023810Y-82928140D02*
X104061905Y-83080521D01*
X104061905Y-83080521D02*
X104061905Y-83347188D01*
X104061905Y-83347188D02*
X104023810Y-83499569D01*
X104023810Y-83499569D02*
X103947619Y-83575760D01*
X103947619Y-83575760D02*
X103871429Y-83613855D01*
X103871429Y-83613855D02*
X103719048Y-83613855D01*
X103719048Y-83613855D02*
X103642857Y-83575760D01*
X103642857Y-83575760D02*
X103566667Y-83499569D01*
X103566667Y-83499569D02*
X103528571Y-83347188D01*
X103528571Y-83347188D02*
X103528571Y-83080521D01*
X103528571Y-83080521D02*
X103566667Y-82928140D01*
X103566667Y-82928140D02*
X103642857Y-82851950D01*
X103642857Y-82851950D02*
X103719048Y-82813855D01*
X52147619Y-78444807D02*
X52414285Y-78444807D01*
X52528571Y-78863855D02*
X52147619Y-78863855D01*
X52147619Y-78863855D02*
X52147619Y-78063855D01*
X52147619Y-78063855D02*
X52528571Y-78063855D01*
X52795238Y-78063855D02*
X53328572Y-78863855D01*
X53328572Y-78063855D02*
X52795238Y-78863855D01*
X53633334Y-78863855D02*
X53633334Y-78063855D01*
X53633334Y-78063855D02*
X53938096Y-78063855D01*
X53938096Y-78063855D02*
X54014286Y-78101950D01*
X54014286Y-78101950D02*
X54052381Y-78140045D01*
X54052381Y-78140045D02*
X54090477Y-78216236D01*
X54090477Y-78216236D02*
X54090477Y-78330521D01*
X54090477Y-78330521D02*
X54052381Y-78406712D01*
X54052381Y-78406712D02*
X54014286Y-78444807D01*
X54014286Y-78444807D02*
X53938096Y-78482902D01*
X53938096Y-78482902D02*
X53633334Y-78482902D01*
X54890477Y-78863855D02*
X54623810Y-78482902D01*
X54433334Y-78863855D02*
X54433334Y-78063855D01*
X54433334Y-78063855D02*
X54738096Y-78063855D01*
X54738096Y-78063855D02*
X54814286Y-78101950D01*
X54814286Y-78101950D02*
X54852381Y-78140045D01*
X54852381Y-78140045D02*
X54890477Y-78216236D01*
X54890477Y-78216236D02*
X54890477Y-78330521D01*
X54890477Y-78330521D02*
X54852381Y-78406712D01*
X54852381Y-78406712D02*
X54814286Y-78444807D01*
X54814286Y-78444807D02*
X54738096Y-78482902D01*
X54738096Y-78482902D02*
X54433334Y-78482902D01*
X51552381Y-67363855D02*
X51552381Y-66563855D01*
X51552381Y-66563855D02*
X51819047Y-67135283D01*
X51819047Y-67135283D02*
X52085714Y-66563855D01*
X52085714Y-66563855D02*
X52085714Y-67363855D01*
X52466667Y-67363855D02*
X52466667Y-66563855D01*
X52847619Y-67363855D02*
X52847619Y-66563855D01*
X52847619Y-66563855D02*
X53038095Y-66563855D01*
X53038095Y-66563855D02*
X53152381Y-66601950D01*
X53152381Y-66601950D02*
X53228571Y-66678140D01*
X53228571Y-66678140D02*
X53266666Y-66754331D01*
X53266666Y-66754331D02*
X53304762Y-66906712D01*
X53304762Y-66906712D02*
X53304762Y-67020998D01*
X53304762Y-67020998D02*
X53266666Y-67173379D01*
X53266666Y-67173379D02*
X53228571Y-67249569D01*
X53228571Y-67249569D02*
X53152381Y-67325760D01*
X53152381Y-67325760D02*
X53038095Y-67363855D01*
X53038095Y-67363855D02*
X52847619Y-67363855D01*
X53647619Y-67363855D02*
X53647619Y-66563855D01*
X75866667Y-78113855D02*
X75866667Y-77313855D01*
X75866667Y-77313855D02*
X76133333Y-77885283D01*
X76133333Y-77885283D02*
X76400000Y-77313855D01*
X76400000Y-77313855D02*
X76400000Y-78113855D01*
X76780953Y-78113855D02*
X76780953Y-77313855D01*
X77161905Y-78113855D02*
X77161905Y-77313855D01*
X77161905Y-77313855D02*
X77352381Y-77313855D01*
X77352381Y-77313855D02*
X77466667Y-77351950D01*
X77466667Y-77351950D02*
X77542857Y-77428140D01*
X77542857Y-77428140D02*
X77580952Y-77504331D01*
X77580952Y-77504331D02*
X77619048Y-77656712D01*
X77619048Y-77656712D02*
X77619048Y-77770998D01*
X77619048Y-77770998D02*
X77580952Y-77923379D01*
X77580952Y-77923379D02*
X77542857Y-77999569D01*
X77542857Y-77999569D02*
X77466667Y-78075760D01*
X77466667Y-78075760D02*
X77352381Y-78113855D01*
X77352381Y-78113855D02*
X77161905Y-78113855D01*
X77961905Y-78113855D02*
X77961905Y-77313855D01*
X79409524Y-78113855D02*
X79142857Y-77732902D01*
X78952381Y-78113855D02*
X78952381Y-77313855D01*
X78952381Y-77313855D02*
X79257143Y-77313855D01*
X79257143Y-77313855D02*
X79333333Y-77351950D01*
X79333333Y-77351950D02*
X79371428Y-77390045D01*
X79371428Y-77390045D02*
X79409524Y-77466236D01*
X79409524Y-77466236D02*
X79409524Y-77580521D01*
X79409524Y-77580521D02*
X79371428Y-77656712D01*
X79371428Y-77656712D02*
X79333333Y-77694807D01*
X79333333Y-77694807D02*
X79257143Y-77732902D01*
X79257143Y-77732902D02*
X78952381Y-77732902D01*
X79676190Y-77313855D02*
X80209524Y-78113855D01*
X80209524Y-77313855D02*
X79676190Y-78113855D01*
X81047619Y-51863855D02*
X81047619Y-51063855D01*
X81047619Y-51063855D02*
X81352381Y-51063855D01*
X81352381Y-51063855D02*
X81428571Y-51101950D01*
X81428571Y-51101950D02*
X81466666Y-51140045D01*
X81466666Y-51140045D02*
X81504762Y-51216236D01*
X81504762Y-51216236D02*
X81504762Y-51330521D01*
X81504762Y-51330521D02*
X81466666Y-51406712D01*
X81466666Y-51406712D02*
X81428571Y-51444807D01*
X81428571Y-51444807D02*
X81352381Y-51482902D01*
X81352381Y-51482902D02*
X81047619Y-51482902D01*
X81847619Y-51863855D02*
X81847619Y-51063855D01*
X83409523Y-51025760D02*
X82723809Y-52054331D01*
X84285714Y-51863855D02*
X84285714Y-51063855D01*
X84285714Y-51444807D02*
X84742857Y-51444807D01*
X84742857Y-51863855D02*
X84742857Y-51063855D01*
X85276190Y-51063855D02*
X85428571Y-51063855D01*
X85428571Y-51063855D02*
X85504761Y-51101950D01*
X85504761Y-51101950D02*
X85580952Y-51178140D01*
X85580952Y-51178140D02*
X85619047Y-51330521D01*
X85619047Y-51330521D02*
X85619047Y-51597188D01*
X85619047Y-51597188D02*
X85580952Y-51749569D01*
X85580952Y-51749569D02*
X85504761Y-51825760D01*
X85504761Y-51825760D02*
X85428571Y-51863855D01*
X85428571Y-51863855D02*
X85276190Y-51863855D01*
X85276190Y-51863855D02*
X85199999Y-51825760D01*
X85199999Y-51825760D02*
X85123809Y-51749569D01*
X85123809Y-51749569D02*
X85085713Y-51597188D01*
X85085713Y-51597188D02*
X85085713Y-51330521D01*
X85085713Y-51330521D02*
X85123809Y-51178140D01*
X85123809Y-51178140D02*
X85199999Y-51101950D01*
X85199999Y-51101950D02*
X85276190Y-51063855D01*
X85923808Y-51825760D02*
X86038094Y-51863855D01*
X86038094Y-51863855D02*
X86228570Y-51863855D01*
X86228570Y-51863855D02*
X86304761Y-51825760D01*
X86304761Y-51825760D02*
X86342856Y-51787664D01*
X86342856Y-51787664D02*
X86380951Y-51711474D01*
X86380951Y-51711474D02*
X86380951Y-51635283D01*
X86380951Y-51635283D02*
X86342856Y-51559093D01*
X86342856Y-51559093D02*
X86304761Y-51520998D01*
X86304761Y-51520998D02*
X86228570Y-51482902D01*
X86228570Y-51482902D02*
X86076189Y-51444807D01*
X86076189Y-51444807D02*
X85999999Y-51406712D01*
X85999999Y-51406712D02*
X85961904Y-51368617D01*
X85961904Y-51368617D02*
X85923808Y-51292426D01*
X85923808Y-51292426D02*
X85923808Y-51216236D01*
X85923808Y-51216236D02*
X85961904Y-51140045D01*
X85961904Y-51140045D02*
X85999999Y-51101950D01*
X85999999Y-51101950D02*
X86076189Y-51063855D01*
X86076189Y-51063855D02*
X86266666Y-51063855D01*
X86266666Y-51063855D02*
X86380951Y-51101950D01*
X86609523Y-51063855D02*
X87066666Y-51063855D01*
X86838094Y-51863855D02*
X86838094Y-51063855D01*
X50771428Y-86905760D02*
X50885714Y-86943855D01*
X50885714Y-86943855D02*
X51076190Y-86943855D01*
X51076190Y-86943855D02*
X51152381Y-86905760D01*
X51152381Y-86905760D02*
X51190476Y-86867664D01*
X51190476Y-86867664D02*
X51228571Y-86791474D01*
X51228571Y-86791474D02*
X51228571Y-86715283D01*
X51228571Y-86715283D02*
X51190476Y-86639093D01*
X51190476Y-86639093D02*
X51152381Y-86600998D01*
X51152381Y-86600998D02*
X51076190Y-86562902D01*
X51076190Y-86562902D02*
X50923809Y-86524807D01*
X50923809Y-86524807D02*
X50847619Y-86486712D01*
X50847619Y-86486712D02*
X50809524Y-86448617D01*
X50809524Y-86448617D02*
X50771428Y-86372426D01*
X50771428Y-86372426D02*
X50771428Y-86296236D01*
X50771428Y-86296236D02*
X50809524Y-86220045D01*
X50809524Y-86220045D02*
X50847619Y-86181950D01*
X50847619Y-86181950D02*
X50923809Y-86143855D01*
X50923809Y-86143855D02*
X51114286Y-86143855D01*
X51114286Y-86143855D02*
X51228571Y-86181950D01*
X82438095Y-94635283D02*
X82819048Y-94635283D01*
X82361905Y-94863855D02*
X82628572Y-94063855D01*
X82628572Y-94063855D02*
X82895238Y-94863855D01*
X83619048Y-94863855D02*
X83352381Y-94482902D01*
X83161905Y-94863855D02*
X83161905Y-94063855D01*
X83161905Y-94063855D02*
X83466667Y-94063855D01*
X83466667Y-94063855D02*
X83542857Y-94101950D01*
X83542857Y-94101950D02*
X83580952Y-94140045D01*
X83580952Y-94140045D02*
X83619048Y-94216236D01*
X83619048Y-94216236D02*
X83619048Y-94330521D01*
X83619048Y-94330521D02*
X83580952Y-94406712D01*
X83580952Y-94406712D02*
X83542857Y-94444807D01*
X83542857Y-94444807D02*
X83466667Y-94482902D01*
X83466667Y-94482902D02*
X83161905Y-94482902D01*
X83961905Y-94863855D02*
X83961905Y-94063855D01*
X83961905Y-94063855D02*
X84152381Y-94063855D01*
X84152381Y-94063855D02*
X84266667Y-94101950D01*
X84266667Y-94101950D02*
X84342857Y-94178140D01*
X84342857Y-94178140D02*
X84380952Y-94254331D01*
X84380952Y-94254331D02*
X84419048Y-94406712D01*
X84419048Y-94406712D02*
X84419048Y-94520998D01*
X84419048Y-94520998D02*
X84380952Y-94673379D01*
X84380952Y-94673379D02*
X84342857Y-94749569D01*
X84342857Y-94749569D02*
X84266667Y-94825760D01*
X84266667Y-94825760D02*
X84152381Y-94863855D01*
X84152381Y-94863855D02*
X83961905Y-94863855D01*
X84914286Y-94063855D02*
X85066667Y-94063855D01*
X85066667Y-94063855D02*
X85142857Y-94101950D01*
X85142857Y-94101950D02*
X85219048Y-94178140D01*
X85219048Y-94178140D02*
X85257143Y-94330521D01*
X85257143Y-94330521D02*
X85257143Y-94597188D01*
X85257143Y-94597188D02*
X85219048Y-94749569D01*
X85219048Y-94749569D02*
X85142857Y-94825760D01*
X85142857Y-94825760D02*
X85066667Y-94863855D01*
X85066667Y-94863855D02*
X84914286Y-94863855D01*
X84914286Y-94863855D02*
X84838095Y-94825760D01*
X84838095Y-94825760D02*
X84761905Y-94749569D01*
X84761905Y-94749569D02*
X84723809Y-94597188D01*
X84723809Y-94597188D02*
X84723809Y-94330521D01*
X84723809Y-94330521D02*
X84761905Y-94178140D01*
X84761905Y-94178140D02*
X84838095Y-94101950D01*
X84838095Y-94101950D02*
X84914286Y-94063855D01*
X86057143Y-94863855D02*
X85790476Y-94482902D01*
X85600000Y-94863855D02*
X85600000Y-94063855D01*
X85600000Y-94063855D02*
X85904762Y-94063855D01*
X85904762Y-94063855D02*
X85980952Y-94101950D01*
X85980952Y-94101950D02*
X86019047Y-94140045D01*
X86019047Y-94140045D02*
X86057143Y-94216236D01*
X86057143Y-94216236D02*
X86057143Y-94330521D01*
X86057143Y-94330521D02*
X86019047Y-94406712D01*
X86019047Y-94406712D02*
X85980952Y-94444807D01*
X85980952Y-94444807D02*
X85904762Y-94482902D01*
X85904762Y-94482902D02*
X85600000Y-94482902D01*
X87009524Y-94863855D02*
X87009524Y-94063855D01*
X87542857Y-94063855D02*
X87695238Y-94063855D01*
X87695238Y-94063855D02*
X87771428Y-94101950D01*
X87771428Y-94101950D02*
X87847619Y-94178140D01*
X87847619Y-94178140D02*
X87885714Y-94330521D01*
X87885714Y-94330521D02*
X87885714Y-94597188D01*
X87885714Y-94597188D02*
X87847619Y-94749569D01*
X87847619Y-94749569D02*
X87771428Y-94825760D01*
X87771428Y-94825760D02*
X87695238Y-94863855D01*
X87695238Y-94863855D02*
X87542857Y-94863855D01*
X87542857Y-94863855D02*
X87466666Y-94825760D01*
X87466666Y-94825760D02*
X87390476Y-94749569D01*
X87390476Y-94749569D02*
X87352380Y-94597188D01*
X87352380Y-94597188D02*
X87352380Y-94330521D01*
X87352380Y-94330521D02*
X87390476Y-94178140D01*
X87390476Y-94178140D02*
X87466666Y-94101950D01*
X87466666Y-94101950D02*
X87542857Y-94063855D01*
X89409523Y-94025760D02*
X88723809Y-95054331D01*
X90742857Y-94863855D02*
X90476190Y-94482902D01*
X90285714Y-94863855D02*
X90285714Y-94063855D01*
X90285714Y-94063855D02*
X90590476Y-94063855D01*
X90590476Y-94063855D02*
X90666666Y-94101950D01*
X90666666Y-94101950D02*
X90704761Y-94140045D01*
X90704761Y-94140045D02*
X90742857Y-94216236D01*
X90742857Y-94216236D02*
X90742857Y-94330521D01*
X90742857Y-94330521D02*
X90704761Y-94406712D01*
X90704761Y-94406712D02*
X90666666Y-94444807D01*
X90666666Y-94444807D02*
X90590476Y-94482902D01*
X90590476Y-94482902D02*
X90285714Y-94482902D01*
X91085714Y-94444807D02*
X91352380Y-94444807D01*
X91466666Y-94863855D02*
X91085714Y-94863855D01*
X91085714Y-94863855D02*
X91085714Y-94063855D01*
X91085714Y-94063855D02*
X91466666Y-94063855D01*
X91695238Y-94063855D02*
X91961905Y-94863855D01*
X91961905Y-94863855D02*
X92228571Y-94063855D01*
X93561905Y-94787664D02*
X93523809Y-94825760D01*
X93523809Y-94825760D02*
X93409524Y-94863855D01*
X93409524Y-94863855D02*
X93333333Y-94863855D01*
X93333333Y-94863855D02*
X93219047Y-94825760D01*
X93219047Y-94825760D02*
X93142857Y-94749569D01*
X93142857Y-94749569D02*
X93104762Y-94673379D01*
X93104762Y-94673379D02*
X93066666Y-94520998D01*
X93066666Y-94520998D02*
X93066666Y-94406712D01*
X93066666Y-94406712D02*
X93104762Y-94254331D01*
X93104762Y-94254331D02*
X93142857Y-94178140D01*
X93142857Y-94178140D02*
X93219047Y-94101950D01*
X93219047Y-94101950D02*
X93333333Y-94063855D01*
X93333333Y-94063855D02*
X93409524Y-94063855D01*
X93409524Y-94063855D02*
X93523809Y-94101950D01*
X93523809Y-94101950D02*
X93561905Y-94140045D01*
X59728571Y-51863855D02*
X59271428Y-51863855D01*
X59500000Y-51863855D02*
X59500000Y-51063855D01*
X59500000Y-51063855D02*
X59423809Y-51178140D01*
X59423809Y-51178140D02*
X59347619Y-51254331D01*
X59347619Y-51254331D02*
X59271428Y-51292426D01*
X92950000Y-66313855D02*
X92569048Y-66313855D01*
X92569048Y-66313855D02*
X92530952Y-66694807D01*
X92530952Y-66694807D02*
X92569048Y-66656712D01*
X92569048Y-66656712D02*
X92645238Y-66618617D01*
X92645238Y-66618617D02*
X92835714Y-66618617D01*
X92835714Y-66618617D02*
X92911905Y-66656712D01*
X92911905Y-66656712D02*
X92950000Y-66694807D01*
X92950000Y-66694807D02*
X92988095Y-66770998D01*
X92988095Y-66770998D02*
X92988095Y-66961474D01*
X92988095Y-66961474D02*
X92950000Y-67037664D01*
X92950000Y-67037664D02*
X92911905Y-67075760D01*
X92911905Y-67075760D02*
X92835714Y-67113855D01*
X92835714Y-67113855D02*
X92645238Y-67113855D01*
X92645238Y-67113855D02*
X92569048Y-67075760D01*
X92569048Y-67075760D02*
X92530952Y-67037664D01*
X93216667Y-66313855D02*
X93483334Y-67113855D01*
X93483334Y-67113855D02*
X93750000Y-66313855D01*
X94588095Y-66885283D02*
X94969048Y-66885283D01*
X94511905Y-67113855D02*
X94778572Y-66313855D01*
X94778572Y-66313855D02*
X95045238Y-67113855D01*
X114776190Y-62113855D02*
X114395238Y-62113855D01*
X114395238Y-62113855D02*
X114395238Y-61313855D01*
X115042857Y-62113855D02*
X115042857Y-61313855D01*
X115423809Y-62113855D02*
X115423809Y-61313855D01*
X115423809Y-61313855D02*
X115880952Y-62113855D01*
X115880952Y-62113855D02*
X115880952Y-61313855D01*
X116261904Y-61694807D02*
X116528570Y-61694807D01*
X116642856Y-62113855D02*
X116261904Y-62113855D01*
X116261904Y-62113855D02*
X116261904Y-61313855D01*
X116261904Y-61313855D02*
X116642856Y-61313855D01*
X53247619Y-64763855D02*
X52866667Y-64763855D01*
X52866667Y-64763855D02*
X52866667Y-63963855D01*
X50771428Y-81063855D02*
X51228571Y-81063855D01*
X50999999Y-81863855D02*
X50999999Y-81063855D01*
X55749523Y-64001950D02*
X55673333Y-63963855D01*
X55673333Y-63963855D02*
X55559047Y-63963855D01*
X55559047Y-63963855D02*
X55444761Y-64001950D01*
X55444761Y-64001950D02*
X55368571Y-64078140D01*
X55368571Y-64078140D02*
X55330476Y-64154331D01*
X55330476Y-64154331D02*
X55292380Y-64306712D01*
X55292380Y-64306712D02*
X55292380Y-64420998D01*
X55292380Y-64420998D02*
X55330476Y-64573379D01*
X55330476Y-64573379D02*
X55368571Y-64649569D01*
X55368571Y-64649569D02*
X55444761Y-64725760D01*
X55444761Y-64725760D02*
X55559047Y-64763855D01*
X55559047Y-64763855D02*
X55635238Y-64763855D01*
X55635238Y-64763855D02*
X55749523Y-64725760D01*
X55749523Y-64725760D02*
X55787619Y-64687664D01*
X55787619Y-64687664D02*
X55787619Y-64420998D01*
X55787619Y-64420998D02*
X55635238Y-64420998D01*
X112935283Y-77047619D02*
X112935283Y-76666666D01*
X113163855Y-77123809D02*
X112363855Y-76857142D01*
X112363855Y-76857142D02*
X113163855Y-76590476D01*
X113163855Y-76323809D02*
X112363855Y-76323809D01*
X112363855Y-76323809D02*
X112935283Y-76057143D01*
X112935283Y-76057143D02*
X112363855Y-75790476D01*
X112363855Y-75790476D02*
X113163855Y-75790476D01*
X113163855Y-75409523D02*
X112363855Y-75409523D01*
X112363855Y-75409523D02*
X112363855Y-75104761D01*
X112363855Y-75104761D02*
X112401950Y-75028571D01*
X112401950Y-75028571D02*
X112440045Y-74990476D01*
X112440045Y-74990476D02*
X112516236Y-74952380D01*
X112516236Y-74952380D02*
X112630521Y-74952380D01*
X112630521Y-74952380D02*
X112706712Y-74990476D01*
X112706712Y-74990476D02*
X112744807Y-75028571D01*
X112744807Y-75028571D02*
X112782902Y-75104761D01*
X112782902Y-75104761D02*
X112782902Y-75409523D01*
X86640476Y-63801950D02*
X86564286Y-63763855D01*
X86564286Y-63763855D02*
X86450000Y-63763855D01*
X86450000Y-63763855D02*
X86335714Y-63801950D01*
X86335714Y-63801950D02*
X86259524Y-63878140D01*
X86259524Y-63878140D02*
X86221429Y-63954331D01*
X86221429Y-63954331D02*
X86183333Y-64106712D01*
X86183333Y-64106712D02*
X86183333Y-64220998D01*
X86183333Y-64220998D02*
X86221429Y-64373379D01*
X86221429Y-64373379D02*
X86259524Y-64449569D01*
X86259524Y-64449569D02*
X86335714Y-64525760D01*
X86335714Y-64525760D02*
X86450000Y-64563855D01*
X86450000Y-64563855D02*
X86526191Y-64563855D01*
X86526191Y-64563855D02*
X86640476Y-64525760D01*
X86640476Y-64525760D02*
X86678572Y-64487664D01*
X86678572Y-64487664D02*
X86678572Y-64220998D01*
X86678572Y-64220998D02*
X86526191Y-64220998D01*
X87021429Y-64563855D02*
X87021429Y-63763855D01*
X87021429Y-63763855D02*
X87478572Y-64563855D01*
X87478572Y-64563855D02*
X87478572Y-63763855D01*
X87859524Y-64563855D02*
X87859524Y-63763855D01*
X87859524Y-63763855D02*
X88050000Y-63763855D01*
X88050000Y-63763855D02*
X88164286Y-63801950D01*
X88164286Y-63801950D02*
X88240476Y-63878140D01*
X88240476Y-63878140D02*
X88278571Y-63954331D01*
X88278571Y-63954331D02*
X88316667Y-64106712D01*
X88316667Y-64106712D02*
X88316667Y-64220998D01*
X88316667Y-64220998D02*
X88278571Y-64373379D01*
X88278571Y-64373379D02*
X88240476Y-64449569D01*
X88240476Y-64449569D02*
X88164286Y-64525760D01*
X88164286Y-64525760D02*
X88050000Y-64563855D01*
X88050000Y-64563855D02*
X87859524Y-64563855D01*
X51247619Y-84403854D02*
X50980952Y-84022901D01*
X50790476Y-84403854D02*
X50790476Y-83603854D01*
X50790476Y-83603854D02*
X51095238Y-83603854D01*
X51095238Y-83603854D02*
X51171428Y-83641949D01*
X51171428Y-83641949D02*
X51209523Y-83680044D01*
X51209523Y-83680044D02*
X51247619Y-83756235D01*
X51247619Y-83756235D02*
X51247619Y-83870520D01*
X51247619Y-83870520D02*
X51209523Y-83946711D01*
X51209523Y-83946711D02*
X51171428Y-83984806D01*
X51171428Y-83984806D02*
X51095238Y-84022901D01*
X51095238Y-84022901D02*
X50790476Y-84022901D01*
X62166667Y-91163855D02*
X62166667Y-90363855D01*
X62166667Y-90363855D02*
X62471429Y-90363855D01*
X62471429Y-90363855D02*
X62547619Y-90401950D01*
X62547619Y-90401950D02*
X62585714Y-90440045D01*
X62585714Y-90440045D02*
X62623810Y-90516236D01*
X62623810Y-90516236D02*
X62623810Y-90630521D01*
X62623810Y-90630521D02*
X62585714Y-90706712D01*
X62585714Y-90706712D02*
X62547619Y-90744807D01*
X62547619Y-90744807D02*
X62471429Y-90782902D01*
X62471429Y-90782902D02*
X62166667Y-90782902D01*
X63119048Y-90363855D02*
X63271429Y-90363855D01*
X63271429Y-90363855D02*
X63347619Y-90401950D01*
X63347619Y-90401950D02*
X63423810Y-90478140D01*
X63423810Y-90478140D02*
X63461905Y-90630521D01*
X63461905Y-90630521D02*
X63461905Y-90897188D01*
X63461905Y-90897188D02*
X63423810Y-91049569D01*
X63423810Y-91049569D02*
X63347619Y-91125760D01*
X63347619Y-91125760D02*
X63271429Y-91163855D01*
X63271429Y-91163855D02*
X63119048Y-91163855D01*
X63119048Y-91163855D02*
X63042857Y-91125760D01*
X63042857Y-91125760D02*
X62966667Y-91049569D01*
X62966667Y-91049569D02*
X62928571Y-90897188D01*
X62928571Y-90897188D02*
X62928571Y-90630521D01*
X62928571Y-90630521D02*
X62966667Y-90478140D01*
X62966667Y-90478140D02*
X63042857Y-90401950D01*
X63042857Y-90401950D02*
X63119048Y-90363855D01*
X64185714Y-91163855D02*
X63804762Y-91163855D01*
X63804762Y-91163855D02*
X63804762Y-90363855D01*
X64414285Y-90935283D02*
X64795238Y-90935283D01*
X64338095Y-91163855D02*
X64604762Y-90363855D01*
X64604762Y-90363855D02*
X64871428Y-91163855D01*
X65595238Y-91163855D02*
X65328571Y-90782902D01*
X65138095Y-91163855D02*
X65138095Y-90363855D01*
X65138095Y-90363855D02*
X65442857Y-90363855D01*
X65442857Y-90363855D02*
X65519047Y-90401950D01*
X65519047Y-90401950D02*
X65557142Y-90440045D01*
X65557142Y-90440045D02*
X65595238Y-90516236D01*
X65595238Y-90516236D02*
X65595238Y-90630521D01*
X65595238Y-90630521D02*
X65557142Y-90706712D01*
X65557142Y-90706712D02*
X65519047Y-90744807D01*
X65519047Y-90744807D02*
X65442857Y-90782902D01*
X65442857Y-90782902D02*
X65138095Y-90782902D01*
X65938095Y-91163855D02*
X65938095Y-90363855D01*
X66204761Y-90363855D02*
X66661904Y-90363855D01*
X66433332Y-91163855D02*
X66433332Y-90363855D01*
X67080952Y-90782902D02*
X67080952Y-91163855D01*
X66814285Y-90363855D02*
X67080952Y-90782902D01*
X67080952Y-90782902D02*
X67347618Y-90363855D01*
X78009523Y-61563855D02*
X78504761Y-61563855D01*
X78504761Y-61563855D02*
X78238095Y-61868617D01*
X78238095Y-61868617D02*
X78352380Y-61868617D01*
X78352380Y-61868617D02*
X78428571Y-61906712D01*
X78428571Y-61906712D02*
X78466666Y-61944807D01*
X78466666Y-61944807D02*
X78504761Y-62020998D01*
X78504761Y-62020998D02*
X78504761Y-62211474D01*
X78504761Y-62211474D02*
X78466666Y-62287664D01*
X78466666Y-62287664D02*
X78428571Y-62325760D01*
X78428571Y-62325760D02*
X78352380Y-62363855D01*
X78352380Y-62363855D02*
X78123809Y-62363855D01*
X78123809Y-62363855D02*
X78047618Y-62325760D01*
X78047618Y-62325760D02*
X78009523Y-62287664D01*
X78733333Y-61563855D02*
X79000000Y-62363855D01*
X79000000Y-62363855D02*
X79266666Y-61563855D01*
X79457142Y-61563855D02*
X79952380Y-61563855D01*
X79952380Y-61563855D02*
X79685714Y-61868617D01*
X79685714Y-61868617D02*
X79799999Y-61868617D01*
X79799999Y-61868617D02*
X79876190Y-61906712D01*
X79876190Y-61906712D02*
X79914285Y-61944807D01*
X79914285Y-61944807D02*
X79952380Y-62020998D01*
X79952380Y-62020998D02*
X79952380Y-62211474D01*
X79952380Y-62211474D02*
X79914285Y-62287664D01*
X79914285Y-62287664D02*
X79876190Y-62325760D01*
X79876190Y-62325760D02*
X79799999Y-62363855D01*
X79799999Y-62363855D02*
X79571428Y-62363855D01*
X79571428Y-62363855D02*
X79495237Y-62325760D01*
X79495237Y-62325760D02*
X79457142Y-62287664D01*
X71600000Y-94194807D02*
X71866666Y-94194807D01*
X71980952Y-94613855D02*
X71600000Y-94613855D01*
X71600000Y-94613855D02*
X71600000Y-93813855D01*
X71600000Y-93813855D02*
X71980952Y-93813855D01*
X72247619Y-93813855D02*
X72780953Y-94613855D01*
X72780953Y-93813855D02*
X72247619Y-94613855D01*
X73085715Y-94613855D02*
X73085715Y-93813855D01*
X73085715Y-93813855D02*
X73390477Y-93813855D01*
X73390477Y-93813855D02*
X73466667Y-93851950D01*
X73466667Y-93851950D02*
X73504762Y-93890045D01*
X73504762Y-93890045D02*
X73542858Y-93966236D01*
X73542858Y-93966236D02*
X73542858Y-94080521D01*
X73542858Y-94080521D02*
X73504762Y-94156712D01*
X73504762Y-94156712D02*
X73466667Y-94194807D01*
X73466667Y-94194807D02*
X73390477Y-94232902D01*
X73390477Y-94232902D02*
X73085715Y-94232902D01*
X74457143Y-94385283D02*
X74838096Y-94385283D01*
X74380953Y-94613855D02*
X74647620Y-93813855D01*
X74647620Y-93813855D02*
X74914286Y-94613855D01*
X75180953Y-94613855D02*
X75180953Y-93813855D01*
X75180953Y-93813855D02*
X75371429Y-93813855D01*
X75371429Y-93813855D02*
X75485715Y-93851950D01*
X75485715Y-93851950D02*
X75561905Y-93928140D01*
X75561905Y-93928140D02*
X75600000Y-94004331D01*
X75600000Y-94004331D02*
X75638096Y-94156712D01*
X75638096Y-94156712D02*
X75638096Y-94270998D01*
X75638096Y-94270998D02*
X75600000Y-94423379D01*
X75600000Y-94423379D02*
X75561905Y-94499569D01*
X75561905Y-94499569D02*
X75485715Y-94575760D01*
X75485715Y-94575760D02*
X75371429Y-94613855D01*
X75371429Y-94613855D02*
X75180953Y-94613855D01*
X76438096Y-94537664D02*
X76400000Y-94575760D01*
X76400000Y-94575760D02*
X76285715Y-94613855D01*
X76285715Y-94613855D02*
X76209524Y-94613855D01*
X76209524Y-94613855D02*
X76095238Y-94575760D01*
X76095238Y-94575760D02*
X76019048Y-94499569D01*
X76019048Y-94499569D02*
X75980953Y-94423379D01*
X75980953Y-94423379D02*
X75942857Y-94270998D01*
X75942857Y-94270998D02*
X75942857Y-94156712D01*
X75942857Y-94156712D02*
X75980953Y-94004331D01*
X75980953Y-94004331D02*
X76019048Y-93928140D01*
X76019048Y-93928140D02*
X76095238Y-93851950D01*
X76095238Y-93851950D02*
X76209524Y-93813855D01*
X76209524Y-93813855D02*
X76285715Y-93813855D01*
X76285715Y-93813855D02*
X76400000Y-93851950D01*
X76400000Y-93851950D02*
X76438096Y-93890045D01*
X51152381Y-69830521D02*
X51152381Y-70363855D01*
X50961905Y-69525760D02*
X50771428Y-70097188D01*
X50771428Y-70097188D02*
X51266667Y-70097188D01*
X116771428Y-66563855D02*
X117228571Y-66563855D01*
X116999999Y-67363855D02*
X116999999Y-66563855D01*
X51190476Y-72103854D02*
X50809524Y-72103854D01*
X50809524Y-72103854D02*
X50771428Y-72484806D01*
X50771428Y-72484806D02*
X50809524Y-72446711D01*
X50809524Y-72446711D02*
X50885714Y-72408616D01*
X50885714Y-72408616D02*
X51076190Y-72408616D01*
X51076190Y-72408616D02*
X51152381Y-72446711D01*
X51152381Y-72446711D02*
X51190476Y-72484806D01*
X51190476Y-72484806D02*
X51228571Y-72560997D01*
X51228571Y-72560997D02*
X51228571Y-72751473D01*
X51228571Y-72751473D02*
X51190476Y-72827663D01*
X51190476Y-72827663D02*
X51152381Y-72865759D01*
X51152381Y-72865759D02*
X51076190Y-72903854D01*
X51076190Y-72903854D02*
X50885714Y-72903854D01*
X50885714Y-72903854D02*
X50809524Y-72865759D01*
X50809524Y-72865759D02*
X50771428Y-72827663D01*
X112863855Y-70671428D02*
X112863855Y-71052380D01*
X112863855Y-71052380D02*
X112063855Y-71052380D01*
X112863855Y-70404761D02*
X112063855Y-70404761D01*
X112863855Y-70023809D02*
X112063855Y-70023809D01*
X112063855Y-70023809D02*
X112863855Y-69566666D01*
X112863855Y-69566666D02*
X112063855Y-69566666D01*
X112444807Y-69185714D02*
X112444807Y-68919048D01*
X112863855Y-68804762D02*
X112863855Y-69185714D01*
X112863855Y-69185714D02*
X112063855Y-69185714D01*
X112063855Y-69185714D02*
X112063855Y-68804762D01*
X112063855Y-67699999D02*
X112063855Y-67547618D01*
X112063855Y-67547618D02*
X112101950Y-67471428D01*
X112101950Y-67471428D02*
X112178140Y-67395237D01*
X112178140Y-67395237D02*
X112330521Y-67357142D01*
X112330521Y-67357142D02*
X112597188Y-67357142D01*
X112597188Y-67357142D02*
X112749569Y-67395237D01*
X112749569Y-67395237D02*
X112825760Y-67471428D01*
X112825760Y-67471428D02*
X112863855Y-67547618D01*
X112863855Y-67547618D02*
X112863855Y-67699999D01*
X112863855Y-67699999D02*
X112825760Y-67776190D01*
X112825760Y-67776190D02*
X112749569Y-67852380D01*
X112749569Y-67852380D02*
X112597188Y-67890476D01*
X112597188Y-67890476D02*
X112330521Y-67890476D01*
X112330521Y-67890476D02*
X112178140Y-67852380D01*
X112178140Y-67852380D02*
X112101950Y-67776190D01*
X112101950Y-67776190D02*
X112063855Y-67699999D01*
X112063855Y-67014285D02*
X112711474Y-67014285D01*
X112711474Y-67014285D02*
X112787664Y-66976190D01*
X112787664Y-66976190D02*
X112825760Y-66938095D01*
X112825760Y-66938095D02*
X112863855Y-66861904D01*
X112863855Y-66861904D02*
X112863855Y-66709523D01*
X112863855Y-66709523D02*
X112825760Y-66633333D01*
X112825760Y-66633333D02*
X112787664Y-66595238D01*
X112787664Y-66595238D02*
X112711474Y-66557142D01*
X112711474Y-66557142D02*
X112063855Y-66557142D01*
X112063855Y-66290476D02*
X112063855Y-65833333D01*
X112863855Y-66061905D02*
X112063855Y-66061905D01*
X116771428Y-75125760D02*
X116885714Y-75163855D01*
X116885714Y-75163855D02*
X117076190Y-75163855D01*
X117076190Y-75163855D02*
X117152381Y-75125760D01*
X117152381Y-75125760D02*
X117190476Y-75087664D01*
X117190476Y-75087664D02*
X117228571Y-75011474D01*
X117228571Y-75011474D02*
X117228571Y-74935283D01*
X117228571Y-74935283D02*
X117190476Y-74859093D01*
X117190476Y-74859093D02*
X117152381Y-74820998D01*
X117152381Y-74820998D02*
X117076190Y-74782902D01*
X117076190Y-74782902D02*
X116923809Y-74744807D01*
X116923809Y-74744807D02*
X116847619Y-74706712D01*
X116847619Y-74706712D02*
X116809524Y-74668617D01*
X116809524Y-74668617D02*
X116771428Y-74592426D01*
X116771428Y-74592426D02*
X116771428Y-74516236D01*
X116771428Y-74516236D02*
X116809524Y-74440045D01*
X116809524Y-74440045D02*
X116847619Y-74401950D01*
X116847619Y-74401950D02*
X116923809Y-74363855D01*
X116923809Y-74363855D02*
X117114286Y-74363855D01*
X117114286Y-74363855D02*
X117228571Y-74401950D01*
D11*
X60837939Y-80209274D02*
X60837939Y-80780702D01*
X60837939Y-80780702D02*
X60799844Y-80894988D01*
X60799844Y-80894988D02*
X60723653Y-80971179D01*
X60723653Y-80971179D02*
X60609368Y-81009274D01*
X60609368Y-81009274D02*
X60533177Y-81009274D01*
X61218892Y-81009274D02*
X61218892Y-80209274D01*
X61218892Y-80209274D02*
X61523654Y-80209274D01*
X61523654Y-80209274D02*
X61599844Y-80247369D01*
X61599844Y-80247369D02*
X61637939Y-80285464D01*
X61637939Y-80285464D02*
X61676035Y-80361655D01*
X61676035Y-80361655D02*
X61676035Y-80475940D01*
X61676035Y-80475940D02*
X61637939Y-80552131D01*
X61637939Y-80552131D02*
X61599844Y-80590226D01*
X61599844Y-80590226D02*
X61523654Y-80628321D01*
X61523654Y-80628321D02*
X61218892Y-80628321D01*
X61942701Y-80209274D02*
X62437939Y-80209274D01*
X62437939Y-80209274D02*
X62171273Y-80514036D01*
X62171273Y-80514036D02*
X62285558Y-80514036D01*
X62285558Y-80514036D02*
X62361749Y-80552131D01*
X62361749Y-80552131D02*
X62399844Y-80590226D01*
X62399844Y-80590226D02*
X62437939Y-80666417D01*
X62437939Y-80666417D02*
X62437939Y-80856893D01*
X62437939Y-80856893D02*
X62399844Y-80933083D01*
X62399844Y-80933083D02*
X62361749Y-80971179D01*
X62361749Y-80971179D02*
X62285558Y-81009274D01*
X62285558Y-81009274D02*
X62056987Y-81009274D01*
X62056987Y-81009274D02*
X61980796Y-80971179D01*
X61980796Y-80971179D02*
X61942701Y-80933083D01*
X62933178Y-80209274D02*
X63009368Y-80209274D01*
X63009368Y-80209274D02*
X63085559Y-80247369D01*
X63085559Y-80247369D02*
X63123654Y-80285464D01*
X63123654Y-80285464D02*
X63161749Y-80361655D01*
X63161749Y-80361655D02*
X63199844Y-80514036D01*
X63199844Y-80514036D02*
X63199844Y-80704512D01*
X63199844Y-80704512D02*
X63161749Y-80856893D01*
X63161749Y-80856893D02*
X63123654Y-80933083D01*
X63123654Y-80933083D02*
X63085559Y-80971179D01*
X63085559Y-80971179D02*
X63009368Y-81009274D01*
X63009368Y-81009274D02*
X62933178Y-81009274D01*
X62933178Y-81009274D02*
X62856987Y-80971179D01*
X62856987Y-80971179D02*
X62818892Y-80933083D01*
X62818892Y-80933083D02*
X62780797Y-80856893D01*
X62780797Y-80856893D02*
X62742701Y-80704512D01*
X62742701Y-80704512D02*
X62742701Y-80514036D01*
X62742701Y-80514036D02*
X62780797Y-80361655D01*
X62780797Y-80361655D02*
X62818892Y-80285464D01*
X62818892Y-80285464D02*
X62856987Y-80247369D01*
X62856987Y-80247369D02*
X62933178Y-80209274D01*
X63961749Y-81009274D02*
X63504606Y-81009274D01*
X63733178Y-81009274D02*
X63733178Y-80209274D01*
X63733178Y-80209274D02*
X63656987Y-80323559D01*
X63656987Y-80323559D02*
X63580797Y-80399750D01*
X63580797Y-80399750D02*
X63504606Y-80437845D01*
D10*
%TO.C,R406*%
X88485975Y-76432128D02*
X88011459Y-76432128D01*
X88485975Y-77477128D02*
X88011459Y-77477128D01*
%TO.C,J102*%
X51620000Y-63380000D02*
X51620000Y-62000000D01*
X53000000Y-63380000D02*
X51620000Y-63380000D01*
X54270000Y-60620000D02*
X59460000Y-60620000D01*
X54270000Y-63380000D02*
X54270000Y-60620000D01*
X54270000Y-63380000D02*
X59460000Y-63380000D01*
X59460000Y-63380000D02*
X59460000Y-60620000D01*
%TO.C,D202*%
X55650000Y-72610000D02*
X55650000Y-69950000D01*
X55650000Y-72610000D02*
X57350000Y-72610000D01*
X57350000Y-72610000D02*
X57350000Y-69950000D01*
%TO.C,FB202*%
X59012742Y-71727500D02*
X59487258Y-71727500D01*
X59012742Y-72772500D02*
X59487258Y-72772500D01*
%TO.C,C404*%
X81859420Y-61490000D02*
X82140580Y-61490000D01*
X81859420Y-62510000D02*
X82140580Y-62510000D01*
%TO.C,C502*%
X106538748Y-78090000D02*
X107961252Y-78090000D01*
X106538748Y-79910000D02*
X107961252Y-79910000D01*
%TO.C,D204*%
X55390000Y-74150000D02*
X55390000Y-75850000D01*
X55390000Y-74150000D02*
X58050000Y-74150000D01*
X55390000Y-75850000D02*
X58050000Y-75850000D01*
%TO.C,C401*%
X61769607Y-58997775D02*
X63192111Y-58997775D01*
X61769607Y-60817775D02*
X63192111Y-60817775D01*
%TO.C,U301*%
X72390000Y-83390000D02*
X75610000Y-83390000D01*
X72390000Y-83590000D02*
X72390000Y-83390000D01*
X72390000Y-86610000D02*
X72390000Y-86410000D01*
X75610000Y-83390000D02*
X75610000Y-83590000D01*
X75610000Y-86410000D02*
X75610000Y-86610000D01*
X75610000Y-86610000D02*
X72390000Y-86610000D01*
X71800000Y-83590000D02*
X71560000Y-83260000D01*
X72040000Y-83260000D01*
X71800000Y-83590000D01*
G36*
X71800000Y-83590000D02*
G01*
X71560000Y-83260000D01*
X72040000Y-83260000D01*
X71800000Y-83590000D01*
G37*
%TO.C,C202*%
X59590000Y-68211252D02*
X59590000Y-66788748D01*
X61410000Y-68211252D02*
X61410000Y-66788748D01*
%TO.C,D304*%
X70790000Y-89000000D02*
X70790000Y-91000000D01*
X70790000Y-89000000D02*
X74650000Y-89000000D01*
X70790000Y-91000000D02*
X74650000Y-91000000D01*
%TO.C,D305*%
X73540000Y-79000000D02*
X73540000Y-81000000D01*
X73540000Y-79000000D02*
X77400000Y-79000000D01*
X73540000Y-81000000D02*
X77400000Y-81000000D01*
%TO.C,C402*%
X61776904Y-61650131D02*
X63199408Y-61650131D01*
X61776904Y-63470131D02*
X63199408Y-63470131D01*
%TO.C,JP301*%
X58620000Y-81620000D02*
X60000000Y-81620000D01*
X58620000Y-83000000D02*
X58620000Y-81620000D01*
X58620000Y-84270000D02*
X58620000Y-89460000D01*
X58620000Y-84270000D02*
X61270000Y-84270000D01*
X58620000Y-89460000D02*
X63920000Y-89460000D01*
X61270000Y-81620000D02*
X63920000Y-81620000D01*
X61270000Y-84270000D02*
X61270000Y-81620000D01*
X63920000Y-81620000D02*
X63920000Y-89460000D01*
%TO.C,FB201*%
X62262742Y-70227500D02*
X62737258Y-70227500D01*
X62262742Y-71272500D02*
X62737258Y-71272500D01*
%TO.C,TP103*%
X88200000Y-62250000D02*
G75*
G02*
X86300000Y-62250000I-950000J0D01*
G01*
X86300000Y-62250000D02*
G75*
G02*
X88200000Y-62250000I950000J0D01*
G01*
%TO.C,U201*%
X66660000Y-68670000D02*
X66660000Y-76410000D01*
X66660000Y-76410000D02*
X71960000Y-76410000D01*
X68310000Y-68670000D02*
X66660000Y-68670000D01*
X71960000Y-68670000D02*
X70310000Y-68670000D01*
X71960000Y-76410000D02*
X71960000Y-68670000D01*
X70310000Y-68670000D02*
G75*
G02*
X68310000Y-68670000I-1000000J0D01*
G01*
%TO.C,C501*%
X93562500Y-61152500D02*
X94350000Y-61152500D01*
X93956250Y-60758750D02*
X93956250Y-61546250D01*
X94590000Y-60654437D02*
X94590000Y-61940000D01*
X94590000Y-60654437D02*
X95654437Y-59590000D01*
X94590000Y-65345563D02*
X94590000Y-64060000D01*
X94590000Y-65345563D02*
X95654437Y-66410000D01*
X95654437Y-59590000D02*
X101410000Y-59590000D01*
X95654437Y-66410000D02*
X101410000Y-66410000D01*
X101410000Y-59590000D02*
X101410000Y-61940000D01*
X101410000Y-66410000D02*
X101410000Y-64060000D01*
%TO.C,R503*%
X103012742Y-76477500D02*
X103487258Y-76477500D01*
X103012742Y-77522500D02*
X103487258Y-77522500D01*
%TO.C,FB101*%
X87600378Y-59440000D02*
X88399622Y-59440000D01*
X87600378Y-60560000D02*
X88399622Y-60560000D01*
%TO.C,R401*%
X75727500Y-63737258D02*
X75727500Y-63262742D01*
X76772500Y-63737258D02*
X76772500Y-63262742D01*
%TO.C,D203*%
X55390000Y-66150000D02*
X55390000Y-67850000D01*
X55390000Y-66150000D02*
X58050000Y-66150000D01*
X55390000Y-67850000D02*
X58050000Y-67850000D01*
%TO.C,D306*%
X74790000Y-91500000D02*
X74790000Y-93500000D01*
X74790000Y-91500000D02*
X78650000Y-91500000D01*
X74790000Y-93500000D02*
X78650000Y-93500000D01*
%TO.C,R506*%
X110477500Y-80237258D02*
X110477500Y-79762742D01*
X111522500Y-80237258D02*
X111522500Y-79762742D01*
%TO.C,FB102*%
X69762742Y-59477500D02*
X70237258Y-59477500D01*
X69762742Y-60522500D02*
X70237258Y-60522500D01*
%TO.C,C302*%
X69240000Y-87390580D02*
X69240000Y-87109420D01*
X70260000Y-87390580D02*
X70260000Y-87109420D01*
%TO.C,C303*%
X77740000Y-85140580D02*
X77740000Y-84859420D01*
X78760000Y-85140580D02*
X78760000Y-84859420D01*
%TO.C,R301*%
X65762742Y-79727500D02*
X66237258Y-79727500D01*
X65762742Y-80772500D02*
X66237258Y-80772500D01*
%TO.C,D201*%
X62140000Y-77200000D02*
X62140000Y-79200000D01*
X62140000Y-77200000D02*
X66150000Y-77200000D01*
X62140000Y-79200000D02*
X66150000Y-79200000D01*
%TO.C,TP401*%
X83950000Y-77000000D02*
G75*
G02*
X82050000Y-77000000I-950000J0D01*
G01*
X82050000Y-77000000D02*
G75*
G02*
X83950000Y-77000000I950000J0D01*
G01*
%TO.C,K501*%
X103400000Y-60500000D02*
X105600000Y-60500000D01*
X103400000Y-62600000D02*
X103400000Y-60500000D01*
X103600000Y-60700000D02*
X111400000Y-60700000D01*
X103600000Y-73400000D02*
X103600000Y-60700000D01*
X105762000Y-65683000D02*
X105762000Y-66318000D01*
X105762000Y-66318000D02*
X106422000Y-66318000D01*
X106422000Y-65810000D02*
X106422000Y-66826000D01*
X106422000Y-66826000D02*
X108327000Y-66826000D01*
X107946000Y-65810000D02*
X107311000Y-66826000D01*
X108327000Y-65810000D02*
X106422000Y-65810000D01*
X108327000Y-65810000D02*
X108327000Y-66826000D01*
X108962000Y-65683000D02*
X108962000Y-66318000D01*
X108962000Y-66318000D02*
X108327000Y-66318000D01*
X111400000Y-60700000D02*
X111400000Y-73400000D01*
X111400000Y-73400000D02*
X103600000Y-73400000D01*
%TO.C,J502*%
X113620000Y-73420000D02*
X115000000Y-73420000D01*
X113620000Y-74800000D02*
X113620000Y-73420000D01*
X113620000Y-76070000D02*
X113620000Y-78720000D01*
X113620000Y-76070000D02*
X116380000Y-76070000D01*
X113620000Y-78720000D02*
X116380000Y-78720000D01*
X116380000Y-76070000D02*
X116380000Y-78720000D01*
%TO.C,R307*%
X76731296Y-87304291D02*
X76256780Y-87304291D01*
X76731296Y-88349291D02*
X76256780Y-88349291D01*
%TO.C,C201*%
X75490000Y-70140580D02*
X75490000Y-69859420D01*
X76510000Y-70140580D02*
X76510000Y-69859420D01*
%TO.C,TP201*%
X80200000Y-76000000D02*
G75*
G02*
X78300000Y-76000000I-950000J0D01*
G01*
X78300000Y-76000000D02*
G75*
G02*
X80200000Y-76000000I950000J0D01*
G01*
%TO.C,J202*%
X51620000Y-68620000D02*
X53000000Y-68620000D01*
X51620000Y-70000000D02*
X51620000Y-68620000D01*
X51620000Y-71270000D02*
X51620000Y-73920000D01*
X51620000Y-71270000D02*
X54380000Y-71270000D01*
X51620000Y-73920000D02*
X54380000Y-73920000D01*
X54380000Y-71270000D02*
X54380000Y-73920000D01*
%TO.C,C203*%
X59590000Y-76211252D02*
X59590000Y-74788748D01*
X61410000Y-76211252D02*
X61410000Y-74788748D01*
%TO.C,C104*%
X75490000Y-60390580D02*
X75490000Y-60109420D01*
X76510000Y-60390580D02*
X76510000Y-60109420D01*
%TO.C,J302*%
X51620000Y-80120000D02*
X53000000Y-80120000D01*
X51620000Y-81500000D02*
X51620000Y-80120000D01*
X51620000Y-82770000D02*
X51620000Y-87960000D01*
X51620000Y-82770000D02*
X54380000Y-82770000D01*
X51620000Y-87960000D02*
X54380000Y-87960000D01*
X54380000Y-82770000D02*
X54380000Y-87960000D01*
%TO.C,TP101*%
X91407401Y-67237412D02*
G75*
G02*
X89507401Y-67237412I-950000J0D01*
G01*
X89507401Y-67237412D02*
G75*
G02*
X91407401Y-67237412I950000J0D01*
G01*
%TO.C,D502*%
X110000000Y-78360000D02*
X110000000Y-74350000D01*
X110000000Y-78360000D02*
X112000000Y-78360000D01*
X112000000Y-78360000D02*
X112000000Y-74350000D01*
%TO.C,R202*%
X75477500Y-73487258D02*
X75477500Y-73012742D01*
X76522500Y-73487258D02*
X76522500Y-73012742D01*
%TO.C,TP301*%
X71200000Y-93250000D02*
G75*
G02*
X69300000Y-93250000I-950000J0D01*
G01*
X69300000Y-93250000D02*
G75*
G02*
X71200000Y-93250000I950000J0D01*
G01*
%TO.C,C405*%
X90059324Y-68821725D02*
X90340484Y-68821725D01*
X90059324Y-69841725D02*
X90340484Y-69841725D01*
%TO.C,U402*%
X87940000Y-70440000D02*
X92060000Y-70440000D01*
X87940000Y-70535000D02*
X87940000Y-70440000D01*
X87940000Y-75560000D02*
X87940000Y-75465000D01*
X92060000Y-70440000D02*
X92060000Y-70535000D01*
X92060000Y-75465000D02*
X92060000Y-75560000D01*
X92060000Y-75560000D02*
X87940000Y-75560000D01*
X87400000Y-70530000D02*
X87160000Y-70200000D01*
X87640000Y-70200000D01*
X87400000Y-70530000D01*
G36*
X87400000Y-70530000D02*
G01*
X87160000Y-70200000D01*
X87640000Y-70200000D01*
X87400000Y-70530000D01*
G37*
%TO.C,C101*%
X90265000Y-60761252D02*
X90265000Y-60238748D01*
X91735000Y-60761252D02*
X91735000Y-60238748D01*
%TO.C,R501*%
X89477500Y-64237258D02*
X89477500Y-63762742D01*
X90522500Y-64237258D02*
X90522500Y-63762742D01*
%TO.C,C102*%
X91740000Y-64140580D02*
X91740000Y-63859420D01*
X92760000Y-64140580D02*
X92760000Y-63859420D01*
%TO.C,R402*%
X82688055Y-71259059D02*
X82688055Y-71733575D01*
X83733055Y-71259059D02*
X83733055Y-71733575D01*
%TO.C,Q501*%
X106240000Y-73940000D02*
X107760000Y-73940000D01*
X106240000Y-73990000D02*
X106240000Y-73940000D01*
X106240000Y-75890000D02*
X106240000Y-75110000D01*
X106240000Y-77060000D02*
X106240000Y-77010000D01*
X107760000Y-73940000D02*
X107760000Y-74940000D01*
X107760000Y-76060000D02*
X107760000Y-77060000D01*
X107760000Y-77060000D02*
X106240000Y-77060000D01*
X105940000Y-75450000D02*
X105460000Y-75450000D01*
X105700000Y-75120000D01*
X105940000Y-75450000D01*
G36*
X105940000Y-75450000D02*
G01*
X105460000Y-75450000D01*
X105700000Y-75120000D01*
X105940000Y-75450000D01*
G37*
%TO.C,C103*%
X72265000Y-60761252D02*
X72265000Y-60238748D01*
X73735000Y-60761252D02*
X73735000Y-60238748D01*
%TO.C,R302*%
X66762742Y-82477500D02*
X67237258Y-82477500D01*
X66762742Y-83522500D02*
X67237258Y-83522500D01*
%TO.C,R305*%
X77762742Y-81727500D02*
X78237258Y-81727500D01*
X77762742Y-82772500D02*
X78237258Y-82772500D01*
%TO.C,U401*%
X78940000Y-64440000D02*
X83060000Y-64440000D01*
X78940000Y-64535000D02*
X78940000Y-64440000D01*
X78940000Y-69560000D02*
X78940000Y-69465000D01*
X83060000Y-64440000D02*
X83060000Y-64535000D01*
X83060000Y-69465000D02*
X83060000Y-69560000D01*
X83060000Y-69560000D02*
X78940000Y-69560000D01*
X78400000Y-64530000D02*
X78160000Y-64200000D01*
X78640000Y-64200000D01*
X78400000Y-64530000D01*
G36*
X78400000Y-64530000D02*
G01*
X78160000Y-64200000D01*
X78640000Y-64200000D01*
X78400000Y-64530000D01*
G37*
%TO.C,C301*%
X69240000Y-84140580D02*
X69240000Y-83859420D01*
X70260000Y-84140580D02*
X70260000Y-83859420D01*
%TO.C,R504*%
X103012742Y-78227500D02*
X103487258Y-78227500D01*
X103012742Y-79272500D02*
X103487258Y-79272500D01*
%TO.C,TP501*%
X116450000Y-63750000D02*
G75*
G02*
X114550000Y-63750000I-950000J0D01*
G01*
X114550000Y-63750000D02*
G75*
G02*
X116450000Y-63750000I950000J0D01*
G01*
%TO.C,D301*%
X56390000Y-79150000D02*
X56390000Y-80850000D01*
X56390000Y-79150000D02*
X59050000Y-79150000D01*
X56390000Y-80850000D02*
X59050000Y-80850000D01*
%TO.C,D303*%
X68790000Y-79500000D02*
X68790000Y-81500000D01*
X68790000Y-79500000D02*
X72650000Y-79500000D01*
X68790000Y-81500000D02*
X72650000Y-81500000D01*
%TO.C,R306*%
X79512742Y-79477500D02*
X79987258Y-79477500D01*
X79512742Y-80522500D02*
X79987258Y-80522500D01*
%TO.C,TP102*%
X79950000Y-60000000D02*
G75*
G02*
X78050000Y-60000000I-950000J0D01*
G01*
X78050000Y-60000000D02*
G75*
G02*
X79950000Y-60000000I950000J0D01*
G01*
%TO.C,D302*%
X58390000Y-91150000D02*
X58390000Y-92850000D01*
X58390000Y-91150000D02*
X61050000Y-91150000D01*
X58390000Y-92850000D02*
X61050000Y-92850000D01*
%TO.C,TP402*%
X104200000Y-81250000D02*
G75*
G02*
X102300000Y-81250000I-950000J0D01*
G01*
X102300000Y-81250000D02*
G75*
G02*
X104200000Y-81250000I950000J0D01*
G01*
%TO.C,R403*%
X84477500Y-62737258D02*
X84477500Y-62262742D01*
X85522500Y-62737258D02*
X85522500Y-62262742D01*
%TO.C,R405*%
X94476936Y-77516351D02*
X94002420Y-77516351D01*
X94476936Y-76471351D02*
X94002420Y-76471351D01*
%TO.C,R303*%
X66477500Y-87737258D02*
X66477500Y-87262742D01*
X67522500Y-87737258D02*
X67522500Y-87262742D01*
%TO.C,J503*%
X113620000Y-65620000D02*
X115000000Y-65620000D01*
X113620000Y-67000000D02*
X113620000Y-65620000D01*
X113620000Y-68270000D02*
X113620000Y-70920000D01*
X113620000Y-68270000D02*
X116380000Y-68270000D01*
X113620000Y-70920000D02*
X116380000Y-70920000D01*
X116380000Y-68270000D02*
X116380000Y-70920000D01*
%TO.C,R203*%
X75762742Y-75477500D02*
X76237258Y-75477500D01*
X75762742Y-76522500D02*
X76237258Y-76522500D01*
%TO.C,D501*%
X112150000Y-63110000D02*
X112150000Y-60450000D01*
X112150000Y-63110000D02*
X113850000Y-63110000D01*
X113850000Y-63110000D02*
X113850000Y-60450000D01*
%TO.C,R404*%
X84477500Y-71262742D02*
X84477500Y-71737258D01*
X85522500Y-71262742D02*
X85522500Y-71737258D01*
%TO.C,R505*%
X108262742Y-80727500D02*
X108737258Y-80727500D01*
X108262742Y-81772500D02*
X108737258Y-81772500D01*
%TO.C,R101*%
X64272936Y-92090000D02*
X65727064Y-92090000D01*
X64272936Y-93910000D02*
X65727064Y-93910000D01*
%TO.C,R304*%
X68762742Y-90477500D02*
X69237258Y-90477500D01*
X68762742Y-91522500D02*
X69237258Y-91522500D01*
%TO.C,J101*%
X58170000Y-52670000D02*
X59500000Y-52670000D01*
X58170000Y-54000000D02*
X58170000Y-52670000D01*
X58170000Y-55270000D02*
X60770000Y-55270000D01*
X58170000Y-57870000D02*
X58170000Y-55270000D01*
X58170000Y-57870000D02*
X109090000Y-57870000D01*
X60770000Y-52670000D02*
X109090000Y-52670000D01*
X60770000Y-55270000D02*
X60770000Y-52670000D01*
X109090000Y-57870000D02*
X109090000Y-52670000D01*
%TO.C,R201*%
X64977500Y-66987258D02*
X64977500Y-66512742D01*
X66022500Y-66987258D02*
X66022500Y-66512742D01*
%TO.C,R502*%
X104262742Y-58977500D02*
X104737258Y-58977500D01*
X104262742Y-60022500D02*
X104737258Y-60022500D01*
%TO.C,C403*%
X91842209Y-77677179D02*
X91842209Y-78199683D01*
X90372209Y-77677179D02*
X90372209Y-78199683D01*
%TD*%
%LPC*%
D12*
%TO.C,R406*%
X87423717Y-76954628D03*
X89073717Y-76954628D03*
%TD*%
D13*
%TO.C,J102*%
X53000000Y-62000000D03*
D14*
X55540000Y-62000000D03*
X58080000Y-62000000D03*
%TD*%
D15*
%TO.C,D202*%
X56500000Y-72050000D03*
X56500000Y-69950000D03*
%TD*%
D16*
%TO.C,FB202*%
X58425000Y-72250000D03*
X60075000Y-72250000D03*
%TD*%
D17*
%TO.C,H2*%
X114000000Y-54000000D03*
%TD*%
D18*
%TO.C,C404*%
X81225000Y-62000000D03*
X82775000Y-62000000D03*
%TD*%
D17*
%TO.C,H3*%
X54000000Y-92000000D03*
%TD*%
D19*
%TO.C,C502*%
X105775000Y-79000000D03*
X108725000Y-79000000D03*
%TD*%
D20*
%TO.C,D204*%
X55950000Y-75000000D03*
X58050000Y-75000000D03*
%TD*%
D19*
%TO.C,C401*%
X61005859Y-59907775D03*
X63955859Y-59907775D03*
%TD*%
D21*
%TO.C,U301*%
X71800000Y-84000000D03*
X71800000Y-84500000D03*
X71800000Y-85000000D03*
X71800000Y-85500000D03*
X71800000Y-86000000D03*
X76200000Y-86000000D03*
X76200000Y-85500000D03*
X76200000Y-85000000D03*
X76200000Y-84500000D03*
X76200000Y-84000000D03*
%TD*%
D22*
%TO.C,C202*%
X60500000Y-68975000D03*
X60500000Y-66025000D03*
%TD*%
D23*
%TO.C,D304*%
X71600000Y-90000000D03*
X74400000Y-90000000D03*
%TD*%
%TO.C,D305*%
X74350000Y-80000000D03*
X77150000Y-80000000D03*
%TD*%
D19*
%TO.C,C402*%
X61013156Y-62560131D03*
X63963156Y-62560131D03*
%TD*%
D13*
%TO.C,JP301*%
X60000000Y-83000000D03*
D14*
X62540000Y-83000000D03*
X60000000Y-85540000D03*
X62540000Y-85540000D03*
X60000000Y-88080000D03*
X62540000Y-88080000D03*
%TD*%
D16*
%TO.C,FB201*%
X61675000Y-70750000D03*
X63325000Y-70750000D03*
%TD*%
D24*
%TO.C,TP103*%
X87250000Y-62250000D03*
%TD*%
D25*
%TO.C,U201*%
X65500000Y-70000000D03*
D26*
X65500000Y-72540000D03*
X65500000Y-75080000D03*
X73120000Y-75080000D03*
X73120000Y-72540000D03*
X73120000Y-70000000D03*
%TD*%
D27*
%TO.C,C501*%
X95500000Y-63000000D03*
X100500000Y-63000000D03*
%TD*%
D16*
%TO.C,R503*%
X102425000Y-77000000D03*
X104075000Y-77000000D03*
%TD*%
D28*
%TO.C,FB101*%
X86937500Y-60000000D03*
X89062500Y-60000000D03*
%TD*%
D29*
%TO.C,R401*%
X76250000Y-64325000D03*
X76250000Y-62675000D03*
%TD*%
D20*
%TO.C,D203*%
X55950000Y-67000000D03*
X58050000Y-67000000D03*
%TD*%
D23*
%TO.C,D306*%
X75600000Y-92500000D03*
X78400000Y-92500000D03*
%TD*%
D29*
%TO.C,R506*%
X111000000Y-80825000D03*
X111000000Y-79175000D03*
%TD*%
D16*
%TO.C,FB102*%
X69175000Y-60000000D03*
X70825000Y-60000000D03*
%TD*%
D30*
%TO.C,C302*%
X69750000Y-88025000D03*
X69750000Y-86475000D03*
%TD*%
%TO.C,C303*%
X78250000Y-85775000D03*
X78250000Y-84225000D03*
%TD*%
D16*
%TO.C,R301*%
X65175000Y-80250000D03*
X66825000Y-80250000D03*
%TD*%
D31*
%TO.C,D201*%
X62850000Y-78200000D03*
X66150000Y-78200000D03*
%TD*%
D24*
%TO.C,TP401*%
X83000000Y-77000000D03*
%TD*%
D32*
%TO.C,K501*%
X105000000Y-62000000D03*
D33*
X105000000Y-64540000D03*
X105000000Y-72160000D03*
X110080000Y-72160000D03*
X110080000Y-64540000D03*
X110080000Y-62000000D03*
%TD*%
D13*
%TO.C,J502*%
X115000000Y-74800000D03*
D14*
X115000000Y-77340000D03*
%TD*%
D12*
%TO.C,R307*%
X77319038Y-87826791D03*
X75669038Y-87826791D03*
%TD*%
D30*
%TO.C,C201*%
X76000000Y-70775000D03*
X76000000Y-69225000D03*
%TD*%
D24*
%TO.C,TP201*%
X79250000Y-76000000D03*
%TD*%
D13*
%TO.C,J202*%
X53000000Y-70000000D03*
D14*
X53000000Y-72540000D03*
%TD*%
D22*
%TO.C,C203*%
X60500000Y-76975000D03*
X60500000Y-74025000D03*
%TD*%
D30*
%TO.C,C104*%
X76000000Y-61025000D03*
X76000000Y-59475000D03*
%TD*%
D13*
%TO.C,J302*%
X53000000Y-81500000D03*
D14*
X53000000Y-84040000D03*
X53000000Y-86580000D03*
%TD*%
D24*
%TO.C,TP101*%
X90457401Y-67237412D03*
%TD*%
D34*
%TO.C,D502*%
X111000000Y-77650000D03*
X111000000Y-74350000D03*
%TD*%
D29*
%TO.C,R202*%
X76000000Y-74075000D03*
X76000000Y-72425000D03*
%TD*%
D24*
%TO.C,TP301*%
X70250000Y-93250000D03*
%TD*%
D18*
%TO.C,C405*%
X89424904Y-69331725D03*
X90974904Y-69331725D03*
%TD*%
D35*
%TO.C,U402*%
X87525000Y-71095000D03*
X87525000Y-72365000D03*
X87525000Y-73635000D03*
X87525000Y-74905000D03*
X92475000Y-74905000D03*
X92475000Y-73635000D03*
X92475000Y-72365000D03*
X92475000Y-71095000D03*
%TD*%
D36*
%TO.C,C101*%
X91000000Y-61450000D03*
X91000000Y-59550000D03*
%TD*%
D29*
%TO.C,R501*%
X90000000Y-64825000D03*
X90000000Y-63175000D03*
%TD*%
D30*
%TO.C,C102*%
X92250000Y-64775000D03*
X92250000Y-63225000D03*
%TD*%
D17*
%TO.C,H4*%
X114000000Y-92000000D03*
%TD*%
D37*
%TO.C,R402*%
X83210555Y-70671317D03*
X83210555Y-72321317D03*
%TD*%
D38*
%TO.C,Q501*%
X106062500Y-74550000D03*
X106062500Y-76450000D03*
X107937500Y-75500000D03*
%TD*%
D36*
%TO.C,C103*%
X73000000Y-61450000D03*
X73000000Y-59550000D03*
%TD*%
D16*
%TO.C,R302*%
X66175000Y-83000000D03*
X67825000Y-83000000D03*
%TD*%
%TO.C,R305*%
X77175000Y-82250000D03*
X78825000Y-82250000D03*
%TD*%
D35*
%TO.C,U401*%
X78525000Y-65095000D03*
X78525000Y-66365000D03*
X78525000Y-67635000D03*
X78525000Y-68905000D03*
X83475000Y-68905000D03*
X83475000Y-67635000D03*
X83475000Y-66365000D03*
X83475000Y-65095000D03*
%TD*%
D30*
%TO.C,C301*%
X69750000Y-84775000D03*
X69750000Y-83225000D03*
%TD*%
D16*
%TO.C,R504*%
X102425000Y-78750000D03*
X104075000Y-78750000D03*
%TD*%
D24*
%TO.C,TP501*%
X115500000Y-63750000D03*
%TD*%
D20*
%TO.C,D301*%
X56950000Y-80000000D03*
X59050000Y-80000000D03*
%TD*%
D23*
%TO.C,D303*%
X69600000Y-80500000D03*
X72400000Y-80500000D03*
%TD*%
D17*
%TO.C,H1*%
X54000000Y-54000000D03*
%TD*%
D16*
%TO.C,R306*%
X78925000Y-80000000D03*
X80575000Y-80000000D03*
%TD*%
D24*
%TO.C,TP102*%
X79000000Y-60000000D03*
%TD*%
D20*
%TO.C,D302*%
X58950000Y-92000000D03*
X61050000Y-92000000D03*
%TD*%
D24*
%TO.C,TP402*%
X103250000Y-81250000D03*
%TD*%
D29*
%TO.C,R403*%
X85000000Y-63325000D03*
X85000000Y-61675000D03*
%TD*%
D12*
%TO.C,R405*%
X95064678Y-76993851D03*
X93414678Y-76993851D03*
%TD*%
D29*
%TO.C,R303*%
X67000000Y-88325000D03*
X67000000Y-86675000D03*
%TD*%
D13*
%TO.C,J503*%
X115000000Y-67000000D03*
D14*
X115000000Y-69540000D03*
%TD*%
D16*
%TO.C,R203*%
X75175000Y-76000000D03*
X76825000Y-76000000D03*
%TD*%
D15*
%TO.C,D501*%
X113000000Y-62550000D03*
X113000000Y-60450000D03*
%TD*%
D37*
%TO.C,R404*%
X85000000Y-70675000D03*
X85000000Y-72325000D03*
%TD*%
D16*
%TO.C,R505*%
X107675000Y-81250000D03*
X109325000Y-81250000D03*
%TD*%
D39*
%TO.C,R101*%
X63537500Y-93000000D03*
X66462500Y-93000000D03*
%TD*%
D16*
%TO.C,R304*%
X68175000Y-91000000D03*
X69825000Y-91000000D03*
%TD*%
D13*
%TO.C,J101*%
X59500000Y-54000000D03*
D14*
X59500000Y-56540000D03*
X62040000Y-54000000D03*
X62040000Y-56540000D03*
X64580000Y-54000000D03*
X64580000Y-56540000D03*
X67120000Y-54000000D03*
X67120000Y-56540000D03*
X69660000Y-54000000D03*
X69660000Y-56540000D03*
X72200000Y-54000000D03*
X72200000Y-56540000D03*
X74740000Y-54000000D03*
X74740000Y-56540000D03*
X77280000Y-54000000D03*
X77280000Y-56540000D03*
X79820000Y-54000000D03*
X79820000Y-56540000D03*
X82360000Y-54000000D03*
X82360000Y-56540000D03*
X84900000Y-54000000D03*
X84900000Y-56540000D03*
X87440000Y-54000000D03*
X87440000Y-56540000D03*
X89980000Y-54000000D03*
X89980000Y-56540000D03*
X92520000Y-54000000D03*
X92520000Y-56540000D03*
X95060000Y-54000000D03*
X95060000Y-56540000D03*
X97600000Y-54000000D03*
X97600000Y-56540000D03*
X100140000Y-54000000D03*
X100140000Y-56540000D03*
X102680000Y-54000000D03*
X102680000Y-56540000D03*
X105220000Y-54000000D03*
X105220000Y-56540000D03*
X107760000Y-54000000D03*
X107760000Y-56540000D03*
%TD*%
D29*
%TO.C,R201*%
X65500000Y-67575000D03*
X65500000Y-65925000D03*
%TD*%
D16*
%TO.C,R502*%
X103675000Y-59500000D03*
X105325000Y-59500000D03*
%TD*%
D40*
%TO.C,C403*%
X91107209Y-76988431D03*
X91107209Y-78888431D03*
%TD*%
%LPD*%
M02*
