G04 #@! TF.GenerationSoftware,KiCad,Pcbnew,9.0.2+dfsg-1*
G04 #@! TF.CreationDate,2026-10-09T12:30:54+00:00*
G04 #@! TF.ProjectId,Ardor_Expression_THT,4172646f-725f-4457-9870-72657373696f,rev?*
G04 #@! TF.SameCoordinates,Original*
G04 #@! TF.FileFunction,Copper,L1,Top*
G04 #@! TF.FilePolarity,Positive*
%FSLAX46Y46*%
G04 Gerber Fmt 4.6, Leading zero omitted, Abs format (unit mm)*
G04 Created by KiCad (PCBNEW 9.0.2+dfsg-1) date 2026-10-09 12:30:54*
%MOMM*%
%LPD*%
G01*
G04 APERTURE LIST*
G04 Aperture macros list*
%AMRoundRect*
0 Rectangle with rounded corners*
0 $1 Rounding radius*
0 $2 $3 $4 $5 $6 $7 $8 $9 X,Y pos of 4 corners*
0 Add a 4 corners polygon primitive as box body*
4,1,4,$2,$3,$4,$5,$6,$7,$8,$9,$2,$3,0*
0 Add four circle primitives for the rounded corners*
1,1,$1+$1,$2,$3*
1,1,$1+$1,$4,$5*
1,1,$1+$1,$6,$7*
1,1,$1+$1,$8,$9*
0 Add four rect primitives between the rounded corners*
20,1,$1+$1,$2,$3,$4,$5,0*
20,1,$1+$1,$4,$5,$6,$7,0*
20,1,$1+$1,$6,$7,$8,$9,0*
20,1,$1+$1,$8,$9,$2,$3,0*%
G04 Aperture macros list end*
G04 #@! TA.AperFunction,ComponentPad*
%ADD10C,1.600000*%
G04 #@! TD*
G04 #@! TA.AperFunction,ComponentPad*
%ADD11RoundRect,0.250000X-0.550000X-0.550000X0.550000X-0.550000X0.550000X0.550000X-0.550000X0.550000X0*%
G04 #@! TD*
G04 #@! TA.AperFunction,ComponentPad*
%ADD12O,1.700000X1.700000*%
G04 #@! TD*
G04 #@! TA.AperFunction,ComponentPad*
%ADD13R,1.700000X1.700000*%
G04 #@! TD*
G04 #@! TA.AperFunction,ComponentPad*
%ADD14C,1.700000*%
G04 #@! TD*
G04 #@! TA.AperFunction,ComponentPad*
%ADD15RoundRect,0.250000X-1.050000X-1.050000X1.050000X-1.050000X1.050000X1.050000X-1.050000X1.050000X0*%
G04 #@! TD*
G04 #@! TA.AperFunction,ComponentPad*
%ADD16C,2.600000*%
G04 #@! TD*
G04 #@! TA.AperFunction,ComponentPad*
%ADD17C,2.000000*%
G04 #@! TD*
G04 #@! TA.AperFunction,Conductor*
%ADD18C,0.200000*%
G04 #@! TD*
G04 #@! TA.AperFunction,Conductor*
%ADD19C,0.600000*%
G04 #@! TD*
G04 APERTURE END LIST*
D10*
X144000000Y-99080000D03*
X144000000Y-88920000D03*
X120000000Y-77500000D03*
X125000000Y-77500000D03*
X144000000Y-83080000D03*
X144000000Y-72920000D03*
D11*
X130750000Y-60000000D03*
D10*
X133250000Y-60000000D03*
D12*
X127810000Y-97350000D03*
X130350000Y-97350000D03*
X120190000Y-97350000D03*
X127810000Y-84650000D03*
X125270000Y-84650000D03*
X122730000Y-84650000D03*
X120190000Y-84650000D03*
D13*
X117650000Y-97350000D03*
D12*
X125270000Y-97350000D03*
X122730000Y-97350000D03*
X117650000Y-84650000D03*
X130350000Y-84650000D03*
D13*
X150000000Y-106230000D03*
D14*
X150000000Y-108770000D03*
D11*
X106190000Y-110000000D03*
D10*
X113810000Y-110000000D03*
D13*
X57500000Y-79960000D03*
D14*
X57500000Y-82500000D03*
X57500000Y-85040000D03*
D15*
X54880000Y-67500000D03*
D16*
X70120000Y-67500000D03*
D10*
X64920000Y-110000000D03*
X75080000Y-110000000D03*
D11*
X101190000Y-94000000D03*
D10*
X108810000Y-94000000D03*
X101500000Y-84000000D03*
X106500000Y-84000000D03*
D13*
X120000000Y-112460000D03*
D14*
X120000000Y-115000000D03*
X120000000Y-117540000D03*
D17*
X109880000Y-60000000D03*
X125120000Y-60000000D03*
D10*
X100500000Y-101000000D03*
X105500000Y-101000000D03*
X74920000Y-98000000D03*
X85080000Y-98000000D03*
X132420000Y-110000000D03*
X142580000Y-110000000D03*
X140500000Y-60000000D03*
X145500000Y-60000000D03*
D13*
X150000000Y-123730000D03*
D14*
X150000000Y-126270000D03*
D10*
X124920000Y-105000000D03*
X135080000Y-105000000D03*
D13*
X73730000Y-79960000D03*
D14*
X76270000Y-79960000D03*
X73730000Y-82500000D03*
X76270000Y-82500000D03*
X73730000Y-85040000D03*
X76270000Y-85040000D03*
D10*
X82420000Y-75000000D03*
X92580000Y-75000000D03*
D11*
X103690000Y-75000000D03*
D10*
X111310000Y-75000000D03*
D13*
X150000000Y-76190000D03*
D14*
X150000000Y-78730000D03*
X150000000Y-81270000D03*
X150000000Y-83810000D03*
D10*
X84920000Y-87500000D03*
X95080000Y-87500000D03*
X87420000Y-105000000D03*
X97580000Y-105000000D03*
D15*
X54880000Y-97500000D03*
D16*
X70120000Y-97500000D03*
D10*
X132420000Y-122500000D03*
X142580000Y-122500000D03*
D11*
X93690000Y-110000000D03*
D10*
X101310000Y-110000000D03*
D18*
X118920000Y-78580000D02*
X120000000Y-77500000D01*
X120000000Y-77500000D02*
X120000000Y-65120000D01*
X120000000Y-65120000D02*
X125120000Y-60000000D01*
X117650000Y-98501700D02*
X118421700Y-98501700D01*
X117650000Y-97925800D02*
X117650000Y-98501700D01*
X117650000Y-97925800D02*
X118920000Y-96655800D01*
X132420000Y-110000000D02*
X132420000Y-122500000D01*
X117650000Y-97350000D02*
X117650000Y-97925800D01*
X118920000Y-96655800D02*
X118920000Y-78580000D01*
X118421700Y-98501700D02*
X124920000Y-105000000D01*
D19*
X70120000Y-97500000D02*
X70120000Y-104800000D01*
X70120000Y-67500000D02*
X70120000Y-97500000D01*
X70120000Y-104800000D02*
X64920000Y-110000000D01*
D18*
X87420000Y-105000000D02*
X92580000Y-99840000D01*
X92580000Y-99840000D02*
X92580000Y-75000000D01*
X54880000Y-85120000D02*
X57500000Y-82500000D01*
X54880000Y-97500000D02*
X54880000Y-85120000D01*
X74018000Y-81111700D02*
X74881700Y-81975400D01*
X73730000Y-79960000D02*
X73730000Y-81111700D01*
X74881700Y-83053300D02*
X76270000Y-84441600D01*
X73730000Y-81111700D02*
X74018000Y-81111700D01*
X76270000Y-84441600D02*
X76270000Y-85040000D01*
X54880000Y-67500000D02*
X57500000Y-70120000D01*
X74881700Y-81975400D02*
X74881700Y-83053300D01*
X57500000Y-70120000D02*
X57500000Y-79960000D01*
X151178700Y-84988700D02*
X150000000Y-83810000D01*
X144000000Y-77810000D02*
X144000000Y-72920000D01*
X150000000Y-83810000D02*
X144000000Y-77810000D01*
X151178700Y-125091300D02*
X151178700Y-84988700D01*
X150000000Y-126270000D02*
X151178700Y-125091300D01*
X144000000Y-88920000D02*
X148610200Y-93530200D01*
X148610200Y-107380200D02*
X150000000Y-108770000D01*
X148610200Y-93530200D02*
X148610200Y-107380200D01*
X101190000Y-84310000D02*
X101190000Y-94000000D01*
X101500000Y-84000000D02*
X101190000Y-84310000D01*
X101310000Y-110000000D02*
X101310000Y-108730000D01*
X100500000Y-102080000D02*
X100500000Y-101000000D01*
X101310000Y-108730000D02*
X97580000Y-105000000D01*
X97580000Y-105000000D02*
X100500000Y-102080000D01*
X74920000Y-83690000D02*
X73730000Y-82500000D01*
X74920000Y-98000000D02*
X74920000Y-83690000D01*
X127810000Y-107190000D02*
X127810000Y-97350000D01*
X120000000Y-115000000D02*
X127810000Y-107190000D01*
G04 #@! TA.AperFunction,Conductor*
G36*
X159458691Y-50519407D02*
G01*
X159494655Y-50568907D01*
X159499500Y-50599500D01*
X159499500Y-134400500D01*
X159480593Y-134458691D01*
X159431093Y-134494655D01*
X159400500Y-134499500D01*
X50599500Y-134499500D01*
X50541309Y-134480593D01*
X50505345Y-134431093D01*
X50500500Y-134400500D01*
X50500500Y-131893709D01*
X51649500Y-131893709D01*
X51649500Y-132106290D01*
X51682752Y-132316238D01*
X51748443Y-132518412D01*
X51844948Y-132707815D01*
X51844950Y-132707819D01*
X51969891Y-132879786D01*
X51969893Y-132879788D01*
X51969896Y-132879792D01*
X52120208Y-133030104D01*
X52120211Y-133030106D01*
X52120213Y-133030108D01*
X52292180Y-133155049D01*
X52292184Y-133155051D01*
X52481588Y-133251557D01*
X52683757Y-133317246D01*
X52683758Y-133317246D01*
X52683761Y-133317247D01*
X52893710Y-133350500D01*
X52893713Y-133350500D01*
X53106290Y-133350500D01*
X53316238Y-133317247D01*
X53316239Y-133317246D01*
X53316243Y-133317246D01*
X53518412Y-133251557D01*
X53707816Y-133155051D01*
X53879792Y-133030104D01*
X54030104Y-132879792D01*
X54155051Y-132707816D01*
X54251557Y-132518412D01*
X54317246Y-132316243D01*
X54350500Y-132106287D01*
X54350500Y-131893713D01*
X54350500Y-131893709D01*
X54317247Y-131683761D01*
X54317246Y-131683757D01*
X54251557Y-131481588D01*
X54155051Y-131292184D01*
X54155049Y-131292180D01*
X54030108Y-131120213D01*
X54030106Y-131120211D01*
X54030104Y-131120208D01*
X53879792Y-130969896D01*
X53879788Y-130969893D01*
X53879786Y-130969891D01*
X53707819Y-130844950D01*
X53707815Y-130844948D01*
X53518412Y-130748443D01*
X53316238Y-130682752D01*
X53106290Y-130649500D01*
X53106287Y-130649500D01*
X52893713Y-130649500D01*
X52893710Y-130649500D01*
X52683761Y-130682752D01*
X52481587Y-130748443D01*
X52292184Y-130844948D01*
X52292180Y-130844950D01*
X52120213Y-130969891D01*
X51969891Y-131120213D01*
X51844950Y-131292180D01*
X51844948Y-131292184D01*
X51748443Y-131481587D01*
X51682752Y-131683761D01*
X51649500Y-131893709D01*
X50500500Y-131893709D01*
X50500500Y-117436532D01*
X118949500Y-117436532D01*
X118949500Y-117643467D01*
X118989869Y-117846418D01*
X119069058Y-118037597D01*
X119069059Y-118037598D01*
X119184023Y-118209655D01*
X119330345Y-118355977D01*
X119502402Y-118470941D01*
X119693580Y-118550130D01*
X119896535Y-118590500D01*
X119896536Y-118590500D01*
X120103464Y-118590500D01*
X120103465Y-118590500D01*
X120306420Y-118550130D01*
X120497598Y-118470941D01*
X120669655Y-118355977D01*
X120815977Y-118209655D01*
X120930941Y-118037598D01*
X121010130Y-117846420D01*
X121050500Y-117643465D01*
X121050500Y-117436535D01*
X121010130Y-117233580D01*
X120930941Y-117042402D01*
X120815977Y-116870345D01*
X120669655Y-116724023D01*
X120497598Y-116609059D01*
X120497599Y-116609059D01*
X120497597Y-116609058D01*
X120306418Y-116529869D01*
X120103467Y-116489500D01*
X120103465Y-116489500D01*
X119896535Y-116489500D01*
X119896532Y-116489500D01*
X119693581Y-116529869D01*
X119502402Y-116609058D01*
X119330348Y-116724020D01*
X119184020Y-116870348D01*
X119069058Y-117042402D01*
X118989869Y-117233581D01*
X118949500Y-117436532D01*
X50500500Y-117436532D01*
X50500500Y-111585375D01*
X118900000Y-111585375D01*
X118900000Y-112309999D01*
X118900001Y-112310000D01*
X119522555Y-112310000D01*
X119500000Y-112394174D01*
X119500000Y-112525826D01*
X119522555Y-112610000D01*
X118900001Y-112610000D01*
X118900000Y-112610001D01*
X118900000Y-113334624D01*
X118914506Y-113407546D01*
X118914507Y-113407548D01*
X118969758Y-113490237D01*
X118969762Y-113490241D01*
X119052451Y-113545492D01*
X119052453Y-113545493D01*
X119125375Y-113559999D01*
X119125377Y-113560000D01*
X119849999Y-113560000D01*
X119850000Y-113559999D01*
X119850000Y-112937445D01*
X119934174Y-112960000D01*
X120065826Y-112960000D01*
X120150000Y-112937445D01*
X120150000Y-113559999D01*
X120150001Y-113560000D01*
X120776020Y-113560000D01*
X120834211Y-113578907D01*
X120870175Y-113628407D01*
X120870175Y-113689593D01*
X120846023Y-113729004D01*
X120550290Y-114024736D01*
X120495774Y-114052513D01*
X120442402Y-114046196D01*
X120306420Y-113989870D01*
X120306418Y-113989869D01*
X120103467Y-113949500D01*
X120103465Y-113949500D01*
X119896535Y-113949500D01*
X119896532Y-113949500D01*
X119693581Y-113989869D01*
X119502402Y-114069058D01*
X119330348Y-114184020D01*
X119184020Y-114330348D01*
X119069058Y-114502402D01*
X118989869Y-114693581D01*
X118949500Y-114896532D01*
X118949500Y-115103467D01*
X118989869Y-115306418D01*
X119069058Y-115497597D01*
X119069059Y-115497598D01*
X119184023Y-115669655D01*
X119330345Y-115815977D01*
X119502402Y-115930941D01*
X119693580Y-116010130D01*
X119896535Y-116050500D01*
X119896536Y-116050500D01*
X120103464Y-116050500D01*
X120103465Y-116050500D01*
X120306420Y-116010130D01*
X120497598Y-115930941D01*
X120669655Y-115815977D01*
X120815977Y-115669655D01*
X120930941Y-115497598D01*
X121010130Y-115306420D01*
X121050500Y-115103465D01*
X121050500Y-114896535D01*
X121010130Y-114693580D01*
X120953802Y-114557595D01*
X120949002Y-114496599D01*
X120975261Y-114449708D01*
X125523514Y-109901456D01*
X131419500Y-109901456D01*
X131419500Y-110098543D01*
X131457949Y-110291834D01*
X131457949Y-110291836D01*
X131533367Y-110473913D01*
X131533368Y-110473914D01*
X131642861Y-110637782D01*
X131782218Y-110777139D01*
X131879254Y-110841976D01*
X131946084Y-110886631D01*
X131946085Y-110886631D01*
X131946086Y-110886632D01*
X132058387Y-110933147D01*
X132104911Y-110972881D01*
X132119500Y-111024610D01*
X132119500Y-121475388D01*
X132100593Y-121533579D01*
X132058385Y-121566852D01*
X131946087Y-121613367D01*
X131782218Y-121722861D01*
X131782214Y-121722864D01*
X131642864Y-121862214D01*
X131642861Y-121862218D01*
X131533367Y-122026086D01*
X131457949Y-122208163D01*
X131457949Y-122208165D01*
X131419500Y-122401456D01*
X131419500Y-122598543D01*
X131457949Y-122791834D01*
X131457949Y-122791836D01*
X131533367Y-122973913D01*
X131533368Y-122973914D01*
X131642861Y-123137782D01*
X131782218Y-123277139D01*
X131946086Y-123386632D01*
X132128165Y-123462051D01*
X132321459Y-123500500D01*
X132321460Y-123500500D01*
X132518540Y-123500500D01*
X132518541Y-123500500D01*
X132711835Y-123462051D01*
X132893914Y-123386632D01*
X133057782Y-123277139D01*
X133197139Y-123137782D01*
X133306632Y-122973914D01*
X133382051Y-122791835D01*
X133420500Y-122598541D01*
X133420500Y-122401459D01*
X133420499Y-122401456D01*
X141579500Y-122401456D01*
X141579500Y-122598543D01*
X141617949Y-122791834D01*
X141617949Y-122791836D01*
X141693367Y-122973913D01*
X141693368Y-122973914D01*
X141802861Y-123137782D01*
X141942218Y-123277139D01*
X142106086Y-123386632D01*
X142288165Y-123462051D01*
X142481459Y-123500500D01*
X142481460Y-123500500D01*
X142678540Y-123500500D01*
X142678541Y-123500500D01*
X142871835Y-123462051D01*
X143053914Y-123386632D01*
X143217782Y-123277139D01*
X143357139Y-123137782D01*
X143466632Y-122973914D01*
X143542051Y-122791835D01*
X143580500Y-122598541D01*
X143580500Y-122401459D01*
X143542051Y-122208165D01*
X143466632Y-122026086D01*
X143357139Y-121862218D01*
X143217782Y-121722861D01*
X143053914Y-121613368D01*
X143053915Y-121613368D01*
X143053913Y-121613367D01*
X142871835Y-121537949D01*
X142678543Y-121499500D01*
X142678541Y-121499500D01*
X142481459Y-121499500D01*
X142481456Y-121499500D01*
X142288165Y-121537949D01*
X142288163Y-121537949D01*
X142106086Y-121613367D01*
X141942218Y-121722861D01*
X141942214Y-121722864D01*
X141802864Y-121862214D01*
X141802861Y-121862218D01*
X141693367Y-122026086D01*
X141617949Y-122208163D01*
X141617949Y-122208165D01*
X141579500Y-122401456D01*
X133420499Y-122401456D01*
X133382051Y-122208165D01*
X133306632Y-122026086D01*
X133197139Y-121862218D01*
X133057782Y-121722861D01*
X132893914Y-121613368D01*
X132893912Y-121613367D01*
X132781615Y-121566852D01*
X132735089Y-121527116D01*
X132720500Y-121475388D01*
X132720500Y-111024610D01*
X132739407Y-110966419D01*
X132781612Y-110933148D01*
X132893914Y-110886632D01*
X133057782Y-110777139D01*
X133197139Y-110637782D01*
X133306632Y-110473914D01*
X133382051Y-110291835D01*
X133420500Y-110098541D01*
X133420500Y-109901459D01*
X133420499Y-109901456D01*
X141579500Y-109901456D01*
X141579500Y-110098543D01*
X141617949Y-110291834D01*
X141617949Y-110291836D01*
X141693367Y-110473913D01*
X141693368Y-110473914D01*
X141802861Y-110637782D01*
X141942218Y-110777139D01*
X142106086Y-110886632D01*
X142288165Y-110962051D01*
X142481459Y-111000500D01*
X142481460Y-111000500D01*
X142678540Y-111000500D01*
X142678541Y-111000500D01*
X142871835Y-110962051D01*
X143053914Y-110886632D01*
X143217782Y-110777139D01*
X143357139Y-110637782D01*
X143466632Y-110473914D01*
X143542051Y-110291835D01*
X143580500Y-110098541D01*
X143580500Y-109901459D01*
X143542051Y-109708165D01*
X143466632Y-109526086D01*
X143357139Y-109362218D01*
X143217782Y-109222861D01*
X143108288Y-109149699D01*
X143053913Y-109113367D01*
X142871835Y-109037949D01*
X142678543Y-108999500D01*
X142678541Y-108999500D01*
X142481459Y-108999500D01*
X142481456Y-108999500D01*
X142288165Y-109037949D01*
X142288163Y-109037949D01*
X142106086Y-109113367D01*
X141942218Y-109222861D01*
X141942214Y-109222864D01*
X141802864Y-109362214D01*
X141802861Y-109362218D01*
X141693367Y-109526086D01*
X141617949Y-109708163D01*
X141617949Y-109708165D01*
X141579500Y-109901456D01*
X133420499Y-109901456D01*
X133382051Y-109708165D01*
X133306632Y-109526086D01*
X133197139Y-109362218D01*
X133057782Y-109222861D01*
X132948288Y-109149699D01*
X132893913Y-109113367D01*
X132711835Y-109037949D01*
X132518543Y-108999500D01*
X132518541Y-108999500D01*
X132321459Y-108999500D01*
X132321456Y-108999500D01*
X132128165Y-109037949D01*
X132128163Y-109037949D01*
X131946086Y-109113367D01*
X131782218Y-109222861D01*
X131782214Y-109222864D01*
X131642864Y-109362214D01*
X131642861Y-109362218D01*
X131533367Y-109526086D01*
X131457949Y-109708163D01*
X131457949Y-109708165D01*
X131419500Y-109901456D01*
X125523514Y-109901456D01*
X128050460Y-107374511D01*
X128070016Y-107340638D01*
X128090021Y-107305989D01*
X128110500Y-107229562D01*
X128110500Y-104896581D01*
X134030000Y-104896581D01*
X134030000Y-105103418D01*
X134070349Y-105306272D01*
X134149501Y-105497361D01*
X134238022Y-105629843D01*
X134709532Y-105158332D01*
X134759920Y-105245606D01*
X134834394Y-105320080D01*
X134921665Y-105370465D01*
X134450154Y-105841977D01*
X134582625Y-105930491D01*
X134582639Y-105930498D01*
X134773727Y-106009650D01*
X134976581Y-106049999D01*
X134976586Y-106050000D01*
X135183414Y-106050000D01*
X135183418Y-106049999D01*
X135386272Y-106009650D01*
X135577360Y-105930498D01*
X135709843Y-105841976D01*
X135238333Y-105370466D01*
X135325606Y-105320080D01*
X135400080Y-105245606D01*
X135450466Y-105158333D01*
X135921976Y-105629843D01*
X136010498Y-105497360D01*
X136089650Y-105306272D01*
X136129999Y-105103418D01*
X136130000Y-105103413D01*
X136130000Y-104896586D01*
X136129999Y-104896581D01*
X136089650Y-104693727D01*
X136010498Y-104502639D01*
X136010491Y-104502625D01*
X135921976Y-104370154D01*
X135450465Y-104841665D01*
X135400080Y-104754394D01*
X135325606Y-104679920D01*
X135238332Y-104629532D01*
X135709843Y-104158022D01*
X135577361Y-104069501D01*
X135386272Y-103990349D01*
X135183418Y-103950000D01*
X134976581Y-103950000D01*
X134773727Y-103990349D01*
X134582638Y-104069501D01*
X134450155Y-104158022D01*
X134921666Y-104629533D01*
X134834394Y-104679920D01*
X134759920Y-104754394D01*
X134709533Y-104841666D01*
X134238022Y-104370155D01*
X134149501Y-104502638D01*
X134070349Y-104693727D01*
X134030000Y-104896581D01*
X128110500Y-104896581D01*
X128110500Y-98981456D01*
X142999500Y-98981456D01*
X142999500Y-99178543D01*
X143037949Y-99371834D01*
X143037949Y-99371836D01*
X143113367Y-99553913D01*
X143113368Y-99553914D01*
X143222861Y-99717782D01*
X143362218Y-99857139D01*
X143526086Y-99966632D01*
X143708165Y-100042051D01*
X143901459Y-100080500D01*
X143901460Y-100080500D01*
X144098540Y-100080500D01*
X144098541Y-100080500D01*
X144291835Y-100042051D01*
X144473914Y-99966632D01*
X144637782Y-99857139D01*
X144777139Y-99717782D01*
X144886632Y-99553914D01*
X144962051Y-99371835D01*
X145000500Y-99178541D01*
X145000500Y-98981459D01*
X144962051Y-98788165D01*
X144886632Y-98606086D01*
X144777139Y-98442218D01*
X144637782Y-98302861D01*
X144528288Y-98229699D01*
X144473913Y-98193367D01*
X144291835Y-98117949D01*
X144098543Y-98079500D01*
X144098541Y-98079500D01*
X143901459Y-98079500D01*
X143901456Y-98079500D01*
X143708165Y-98117949D01*
X143708163Y-98117949D01*
X143526086Y-98193367D01*
X143362218Y-98302861D01*
X143362214Y-98302864D01*
X143222864Y-98442214D01*
X143222861Y-98442218D01*
X143113367Y-98606086D01*
X143037949Y-98788163D01*
X143037949Y-98788165D01*
X142999500Y-98981456D01*
X128110500Y-98981456D01*
X128110500Y-98428731D01*
X128129407Y-98370540D01*
X128171614Y-98337267D01*
X128307598Y-98280941D01*
X128479655Y-98165977D01*
X128625977Y-98019655D01*
X128740941Y-97847598D01*
X128820130Y-97656420D01*
X128860500Y-97453465D01*
X128860500Y-97246535D01*
X128860499Y-97246532D01*
X129299500Y-97246532D01*
X129299500Y-97453467D01*
X129339869Y-97656418D01*
X129419058Y-97847597D01*
X129471795Y-97926524D01*
X129534023Y-98019655D01*
X129680345Y-98165977D01*
X129852402Y-98280941D01*
X130043580Y-98360130D01*
X130246535Y-98400500D01*
X130246536Y-98400500D01*
X130453464Y-98400500D01*
X130453465Y-98400500D01*
X130656420Y-98360130D01*
X130847598Y-98280941D01*
X131019655Y-98165977D01*
X131165977Y-98019655D01*
X131280941Y-97847598D01*
X131360130Y-97656420D01*
X131400500Y-97453465D01*
X131400500Y-97246535D01*
X131360130Y-97043580D01*
X131280941Y-96852402D01*
X131165977Y-96680345D01*
X131019655Y-96534023D01*
X131005939Y-96524858D01*
X130847597Y-96419058D01*
X130656418Y-96339869D01*
X130453467Y-96299500D01*
X130453465Y-96299500D01*
X130246535Y-96299500D01*
X130246532Y-96299500D01*
X130043581Y-96339869D01*
X129852402Y-96419058D01*
X129680348Y-96534020D01*
X129534020Y-96680348D01*
X129419058Y-96852402D01*
X129339869Y-97043581D01*
X129299500Y-97246532D01*
X128860499Y-97246532D01*
X128820130Y-97043580D01*
X128740941Y-96852402D01*
X128625977Y-96680345D01*
X128479655Y-96534023D01*
X128465939Y-96524858D01*
X128307597Y-96419058D01*
X128116418Y-96339869D01*
X127913467Y-96299500D01*
X127913465Y-96299500D01*
X127706535Y-96299500D01*
X127706532Y-96299500D01*
X127503581Y-96339869D01*
X127312402Y-96419058D01*
X127140348Y-96534020D01*
X126994020Y-96680348D01*
X126879058Y-96852402D01*
X126799869Y-97043581D01*
X126759500Y-97246532D01*
X126759500Y-97453467D01*
X126799869Y-97656418D01*
X126879058Y-97847597D01*
X126931795Y-97926524D01*
X126994023Y-98019655D01*
X127140345Y-98165977D01*
X127312402Y-98280941D01*
X127312403Y-98280941D01*
X127312404Y-98280942D01*
X127336208Y-98290802D01*
X127448385Y-98337267D01*
X127494911Y-98377003D01*
X127509500Y-98428731D01*
X127509500Y-107024520D01*
X127490593Y-107082711D01*
X127480504Y-107094524D01*
X121269004Y-113306024D01*
X121214487Y-113333801D01*
X121154055Y-113324230D01*
X121110790Y-113280965D01*
X121100000Y-113236020D01*
X121100000Y-112610001D01*
X121099999Y-112610000D01*
X120477445Y-112610000D01*
X120500000Y-112525826D01*
X120500000Y-112394174D01*
X120477445Y-112310000D01*
X121099999Y-112310000D01*
X121100000Y-112309999D01*
X121100000Y-111585377D01*
X121099999Y-111585375D01*
X121085493Y-111512453D01*
X121085492Y-111512451D01*
X121030241Y-111429762D01*
X121030237Y-111429758D01*
X120947548Y-111374507D01*
X120947546Y-111374506D01*
X120874624Y-111360000D01*
X120150001Y-111360000D01*
X120150000Y-111360001D01*
X120150000Y-111982554D01*
X120065826Y-111960000D01*
X119934174Y-111960000D01*
X119850000Y-111982554D01*
X119850000Y-111360001D01*
X119849999Y-111360000D01*
X119125375Y-111360000D01*
X119052453Y-111374506D01*
X119052451Y-111374507D01*
X118969762Y-111429758D01*
X118969758Y-111429762D01*
X118914507Y-111512451D01*
X118914506Y-111512453D01*
X118900000Y-111585375D01*
X50500500Y-111585375D01*
X50500500Y-109901456D01*
X63919500Y-109901456D01*
X63919500Y-110098543D01*
X63957949Y-110291834D01*
X63957949Y-110291836D01*
X64033367Y-110473913D01*
X64033368Y-110473914D01*
X64142861Y-110637782D01*
X64282218Y-110777139D01*
X64446086Y-110886632D01*
X64628165Y-110962051D01*
X64821459Y-111000500D01*
X64821460Y-111000500D01*
X65018540Y-111000500D01*
X65018541Y-111000500D01*
X65211835Y-110962051D01*
X65393914Y-110886632D01*
X65557782Y-110777139D01*
X65697139Y-110637782D01*
X65806632Y-110473914D01*
X65882051Y-110291835D01*
X65920500Y-110098541D01*
X65920500Y-109901459D01*
X65919530Y-109896581D01*
X74030000Y-109896581D01*
X74030000Y-110103418D01*
X74070349Y-110306272D01*
X74149501Y-110497361D01*
X74238022Y-110629843D01*
X74709532Y-110158332D01*
X74759920Y-110245606D01*
X74834394Y-110320080D01*
X74921665Y-110370465D01*
X74450154Y-110841977D01*
X74582625Y-110930491D01*
X74582639Y-110930498D01*
X74773727Y-111009650D01*
X74976581Y-111049999D01*
X74976586Y-111050000D01*
X75183414Y-111050000D01*
X75183418Y-111049999D01*
X75386272Y-111009650D01*
X75577360Y-110930498D01*
X75709843Y-110841976D01*
X75238333Y-110370466D01*
X75325606Y-110320080D01*
X75400080Y-110245606D01*
X75450466Y-110158333D01*
X75921976Y-110629843D01*
X76010498Y-110497360D01*
X76089650Y-110306272D01*
X76129999Y-110103418D01*
X76130000Y-110103413D01*
X76130000Y-109896586D01*
X76129999Y-109896581D01*
X76089650Y-109693727D01*
X76010498Y-109502639D01*
X76010494Y-109502630D01*
X75974272Y-109448421D01*
X75974271Y-109448420D01*
X75939061Y-109395725D01*
X92689500Y-109395725D01*
X92689500Y-110604274D01*
X92692353Y-110634694D01*
X92692355Y-110634703D01*
X92737207Y-110762883D01*
X92817845Y-110872144D01*
X92817847Y-110872146D01*
X92817850Y-110872150D01*
X92817853Y-110872152D01*
X92817855Y-110872154D01*
X92927116Y-110952792D01*
X92927117Y-110952792D01*
X92927118Y-110952793D01*
X93055301Y-110997646D01*
X93085725Y-111000499D01*
X93085727Y-111000500D01*
X93085734Y-111000500D01*
X94294273Y-111000500D01*
X94294273Y-111000499D01*
X94324699Y-110997646D01*
X94452882Y-110952793D01*
X94562150Y-110872150D01*
X94642793Y-110762882D01*
X94687646Y-110634699D01*
X94690499Y-110604273D01*
X94690500Y-110604273D01*
X94690500Y-109395727D01*
X94690499Y-109395725D01*
X94687646Y-109365305D01*
X94687646Y-109365301D01*
X94642793Y-109237118D01*
X94642789Y-109237113D01*
X94562154Y-109127855D01*
X94562152Y-109127853D01*
X94562150Y-109127850D01*
X94562146Y-109127847D01*
X94562144Y-109127845D01*
X94452883Y-109047207D01*
X94324703Y-109002355D01*
X94324694Y-109002353D01*
X94294274Y-108999500D01*
X94294266Y-108999500D01*
X93085734Y-108999500D01*
X93085725Y-108999500D01*
X93055305Y-109002353D01*
X93055296Y-109002355D01*
X92927116Y-109047207D01*
X92817855Y-109127845D01*
X92817845Y-109127855D01*
X92737207Y-109237116D01*
X92692355Y-109365296D01*
X92692353Y-109365305D01*
X92689500Y-109395725D01*
X75939061Y-109395725D01*
X75921976Y-109370155D01*
X75450465Y-109841665D01*
X75400080Y-109754394D01*
X75325606Y-109679920D01*
X75238332Y-109629532D01*
X75709843Y-109158022D01*
X75577361Y-109069501D01*
X75386272Y-108990349D01*
X75183418Y-108950000D01*
X74976581Y-108950000D01*
X74773727Y-108990349D01*
X74582638Y-109069501D01*
X74450155Y-109158022D01*
X74921666Y-109629533D01*
X74834394Y-109679920D01*
X74759920Y-109754394D01*
X74709533Y-109841666D01*
X74238022Y-109370155D01*
X74149501Y-109502638D01*
X74070349Y-109693727D01*
X74030000Y-109896581D01*
X65919530Y-109896581D01*
X65898537Y-109791048D01*
X65902216Y-109760961D01*
X65905802Y-109730664D01*
X65905946Y-109730456D01*
X65905964Y-109730316D01*
X65906283Y-109729972D01*
X65925702Y-109702110D01*
X70520500Y-105107314D01*
X70525565Y-105098541D01*
X70586392Y-104993186D01*
X70610971Y-104901456D01*
X86419500Y-104901456D01*
X86419500Y-105098543D01*
X86438857Y-105195855D01*
X86457948Y-105291832D01*
X86457949Y-105291834D01*
X86457949Y-105291836D01*
X86533367Y-105473913D01*
X86569699Y-105528288D01*
X86642861Y-105637782D01*
X86782218Y-105777139D01*
X86946086Y-105886632D01*
X87128165Y-105962051D01*
X87321459Y-106000500D01*
X87321460Y-106000500D01*
X87518540Y-106000500D01*
X87518541Y-106000500D01*
X87711835Y-105962051D01*
X87893914Y-105886632D01*
X88057782Y-105777139D01*
X88197139Y-105637782D01*
X88306632Y-105473914D01*
X88382051Y-105291835D01*
X88420500Y-105098541D01*
X88420500Y-104901459D01*
X88420499Y-104901456D01*
X96579500Y-104901456D01*
X96579500Y-105098543D01*
X96598857Y-105195855D01*
X96617948Y-105291832D01*
X96617949Y-105291834D01*
X96617949Y-105291836D01*
X96693367Y-105473913D01*
X96729699Y-105528288D01*
X96802861Y-105637782D01*
X96942218Y-105777139D01*
X97106086Y-105886632D01*
X97288165Y-105962051D01*
X97481459Y-106000500D01*
X97481460Y-106000500D01*
X97678540Y-106000500D01*
X97678541Y-106000500D01*
X97871835Y-105962051D01*
X97984137Y-105915533D01*
X98045129Y-105910733D01*
X98092023Y-105936994D01*
X100980504Y-108825475D01*
X100984130Y-108832592D01*
X100990593Y-108837288D01*
X100997756Y-108859336D01*
X101008281Y-108879992D01*
X101009500Y-108895479D01*
X101009500Y-108975388D01*
X100990593Y-109033579D01*
X100948385Y-109066852D01*
X100836087Y-109113367D01*
X100672218Y-109222861D01*
X100672214Y-109222864D01*
X100532864Y-109362214D01*
X100532861Y-109362218D01*
X100423367Y-109526086D01*
X100347949Y-109708163D01*
X100347949Y-109708165D01*
X100309500Y-109901456D01*
X100309500Y-110098543D01*
X100347949Y-110291834D01*
X100347949Y-110291836D01*
X100423367Y-110473913D01*
X100423368Y-110473914D01*
X100532861Y-110637782D01*
X100672218Y-110777139D01*
X100836086Y-110886632D01*
X101018165Y-110962051D01*
X101211459Y-111000500D01*
X101211460Y-111000500D01*
X101408540Y-111000500D01*
X101408541Y-111000500D01*
X101601835Y-110962051D01*
X101783914Y-110886632D01*
X101947782Y-110777139D01*
X102087139Y-110637782D01*
X102196632Y-110473914D01*
X102272051Y-110291835D01*
X102310500Y-110098541D01*
X102310500Y-109901459D01*
X102272051Y-109708165D01*
X102196632Y-109526086D01*
X102109528Y-109395725D01*
X105189500Y-109395725D01*
X105189500Y-110604274D01*
X105192353Y-110634694D01*
X105192355Y-110634703D01*
X105237207Y-110762883D01*
X105317845Y-110872144D01*
X105317847Y-110872146D01*
X105317850Y-110872150D01*
X105317853Y-110872152D01*
X105317855Y-110872154D01*
X105427116Y-110952792D01*
X105427117Y-110952792D01*
X105427118Y-110952793D01*
X105555301Y-110997646D01*
X105585725Y-111000499D01*
X105585727Y-111000500D01*
X105585734Y-111000500D01*
X106794273Y-111000500D01*
X106794273Y-111000499D01*
X106824699Y-110997646D01*
X106952882Y-110952793D01*
X107062150Y-110872150D01*
X107142793Y-110762882D01*
X107187646Y-110634699D01*
X107190499Y-110604273D01*
X107190500Y-110604273D01*
X107190500Y-109896581D01*
X112760000Y-109896581D01*
X112760000Y-110103418D01*
X112800349Y-110306272D01*
X112879501Y-110497361D01*
X112968022Y-110629843D01*
X113439532Y-110158332D01*
X113489920Y-110245606D01*
X113564394Y-110320080D01*
X113651665Y-110370465D01*
X113180154Y-110841977D01*
X113312625Y-110930491D01*
X113312639Y-110930498D01*
X113503727Y-111009650D01*
X113706581Y-111049999D01*
X113706586Y-111050000D01*
X113913414Y-111050000D01*
X113913418Y-111049999D01*
X114116272Y-111009650D01*
X114307360Y-110930498D01*
X114439843Y-110841976D01*
X113968333Y-110370466D01*
X114055606Y-110320080D01*
X114130080Y-110245606D01*
X114180466Y-110158333D01*
X114651976Y-110629843D01*
X114740498Y-110497360D01*
X114819650Y-110306272D01*
X114859999Y-110103418D01*
X114860000Y-110103413D01*
X114860000Y-109896586D01*
X114859999Y-109896581D01*
X114819650Y-109693727D01*
X114740498Y-109502639D01*
X114740491Y-109502625D01*
X114651976Y-109370154D01*
X114180465Y-109841665D01*
X114130080Y-109754394D01*
X114055606Y-109679920D01*
X113968332Y-109629532D01*
X114439843Y-109158022D01*
X114307361Y-109069501D01*
X114116272Y-108990349D01*
X113913418Y-108950000D01*
X113706581Y-108950000D01*
X113503727Y-108990349D01*
X113312638Y-109069501D01*
X113180155Y-109158022D01*
X113651666Y-109629533D01*
X113564394Y-109679920D01*
X113489920Y-109754394D01*
X113439533Y-109841666D01*
X112968022Y-109370155D01*
X112879501Y-109502638D01*
X112800349Y-109693727D01*
X112760000Y-109896581D01*
X107190500Y-109896581D01*
X107190500Y-109395727D01*
X107190499Y-109395725D01*
X107187646Y-109365305D01*
X107187646Y-109365301D01*
X107142793Y-109237118D01*
X107142790Y-109237115D01*
X107142790Y-109237113D01*
X107062154Y-109127855D01*
X107062152Y-109127853D01*
X107062150Y-109127850D01*
X107062146Y-109127847D01*
X107062144Y-109127845D01*
X106952883Y-109047207D01*
X106824703Y-109002355D01*
X106824694Y-109002353D01*
X106794274Y-108999500D01*
X106794266Y-108999500D01*
X105585734Y-108999500D01*
X105585725Y-108999500D01*
X105555305Y-109002353D01*
X105555296Y-109002355D01*
X105427116Y-109047207D01*
X105317855Y-109127845D01*
X105317845Y-109127855D01*
X105237207Y-109237116D01*
X105192355Y-109365296D01*
X105192353Y-109365305D01*
X105189500Y-109395725D01*
X102109528Y-109395725D01*
X102087139Y-109362218D01*
X101947782Y-109222861D01*
X101783914Y-109113368D01*
X101783912Y-109113367D01*
X101671615Y-109066852D01*
X101625089Y-109027116D01*
X101610500Y-108975388D01*
X101610500Y-108690437D01*
X101604095Y-108666536D01*
X101604094Y-108666533D01*
X101604094Y-108666532D01*
X101590022Y-108614012D01*
X101590020Y-108614009D01*
X101590020Y-108614007D01*
X101550463Y-108545493D01*
X101550462Y-108545492D01*
X101550461Y-108545491D01*
X101550460Y-108545489D01*
X98516994Y-105512023D01*
X98489217Y-105457506D01*
X98495533Y-105404137D01*
X98542051Y-105291835D01*
X98580500Y-105098541D01*
X98580500Y-104901459D01*
X98542051Y-104708165D01*
X98495533Y-104595862D01*
X98490733Y-104534868D01*
X98516992Y-104487977D01*
X100740460Y-102264511D01*
X100780022Y-102195988D01*
X100800500Y-102119562D01*
X100800500Y-102040438D01*
X100800500Y-102024610D01*
X100819407Y-101966419D01*
X100861612Y-101933148D01*
X100973914Y-101886632D01*
X101137782Y-101777139D01*
X101277139Y-101637782D01*
X101386632Y-101473914D01*
X101462051Y-101291835D01*
X101500500Y-101098541D01*
X101500500Y-100901459D01*
X101500499Y-100901456D01*
X101499529Y-100896581D01*
X104450000Y-100896581D01*
X104450000Y-101103418D01*
X104490349Y-101306272D01*
X104569501Y-101497361D01*
X104658022Y-101629843D01*
X105129532Y-101158332D01*
X105179920Y-101245606D01*
X105254394Y-101320080D01*
X105341665Y-101370465D01*
X104870154Y-101841977D01*
X105002625Y-101930491D01*
X105002639Y-101930498D01*
X105193727Y-102009650D01*
X105396581Y-102049999D01*
X105396586Y-102050000D01*
X105603414Y-102050000D01*
X105603418Y-102049999D01*
X105806272Y-102009650D01*
X105997360Y-101930498D01*
X106129843Y-101841976D01*
X105658333Y-101370466D01*
X105745606Y-101320080D01*
X105820080Y-101245606D01*
X105870466Y-101158333D01*
X106341976Y-101629843D01*
X106430498Y-101497360D01*
X106509650Y-101306272D01*
X106549999Y-101103418D01*
X106550000Y-101103413D01*
X106550000Y-100896586D01*
X106549999Y-100896581D01*
X106509650Y-100693727D01*
X106430498Y-100502639D01*
X106430491Y-100502625D01*
X106341976Y-100370154D01*
X105870465Y-100841665D01*
X105820080Y-100754394D01*
X105745606Y-100679920D01*
X105658332Y-100629532D01*
X106129843Y-100158022D01*
X105997361Y-100069501D01*
X105806272Y-99990349D01*
X105603418Y-99950000D01*
X105396581Y-99950000D01*
X105193727Y-99990349D01*
X105002638Y-100069501D01*
X104870155Y-100158022D01*
X105341666Y-100629533D01*
X105254394Y-100679920D01*
X105179920Y-100754394D01*
X105129533Y-100841666D01*
X104658022Y-100370155D01*
X104569501Y-100502638D01*
X104490349Y-100693727D01*
X104450000Y-100896581D01*
X101499529Y-100896581D01*
X101489390Y-100845606D01*
X101462051Y-100708165D01*
X101386632Y-100526086D01*
X101277139Y-100362218D01*
X101137782Y-100222861D01*
X100973914Y-100113368D01*
X100973915Y-100113368D01*
X100973913Y-100113367D01*
X100791835Y-100037949D01*
X100598543Y-99999500D01*
X100598541Y-99999500D01*
X100401459Y-99999500D01*
X100401456Y-99999500D01*
X100208165Y-100037949D01*
X100208163Y-100037949D01*
X100026086Y-100113367D01*
X99862218Y-100222861D01*
X99862214Y-100222864D01*
X99722864Y-100362214D01*
X99722861Y-100362218D01*
X99613367Y-100526086D01*
X99537949Y-100708163D01*
X99537949Y-100708165D01*
X99499500Y-100901456D01*
X99499500Y-101098543D01*
X99537949Y-101291834D01*
X99537949Y-101291836D01*
X99613367Y-101473913D01*
X99613368Y-101473914D01*
X99722861Y-101637782D01*
X99862218Y-101777139D01*
X99959254Y-101841976D01*
X100026084Y-101886631D01*
X100026085Y-101886631D01*
X100026086Y-101886632D01*
X100060538Y-101900902D01*
X100107063Y-101940637D01*
X100121348Y-102000131D01*
X100097935Y-102056660D01*
X100092657Y-102062370D01*
X98092023Y-104063004D01*
X98037506Y-104090781D01*
X97984134Y-104084464D01*
X97871835Y-104037949D01*
X97678543Y-103999500D01*
X97678541Y-103999500D01*
X97481459Y-103999500D01*
X97481456Y-103999500D01*
X97288165Y-104037949D01*
X97288163Y-104037949D01*
X97106086Y-104113367D01*
X96942218Y-104222861D01*
X96942214Y-104222864D01*
X96802864Y-104362214D01*
X96802861Y-104362218D01*
X96693367Y-104526086D01*
X96617949Y-104708163D01*
X96617949Y-104708165D01*
X96579500Y-104901456D01*
X88420499Y-104901456D01*
X88382051Y-104708165D01*
X88335533Y-104595862D01*
X88330733Y-104534868D01*
X88356992Y-104487977D01*
X92820460Y-100024511D01*
X92853876Y-99966632D01*
X92860021Y-99955989D01*
X92880500Y-99879562D01*
X92880500Y-93395725D01*
X100189500Y-93395725D01*
X100189500Y-94604274D01*
X100192353Y-94634694D01*
X100192355Y-94634703D01*
X100237207Y-94762883D01*
X100317845Y-94872144D01*
X100317847Y-94872146D01*
X100317850Y-94872150D01*
X100317853Y-94872152D01*
X100317855Y-94872154D01*
X100427116Y-94952792D01*
X100427117Y-94952792D01*
X100427118Y-94952793D01*
X100555301Y-94997646D01*
X100585725Y-95000499D01*
X100585727Y-95000500D01*
X100585734Y-95000500D01*
X101794273Y-95000500D01*
X101794273Y-95000499D01*
X101824699Y-94997646D01*
X101952882Y-94952793D01*
X102062150Y-94872150D01*
X102142793Y-94762882D01*
X102187646Y-94634699D01*
X102190499Y-94604273D01*
X102190500Y-94604273D01*
X102190500Y-93896581D01*
X107760000Y-93896581D01*
X107760000Y-94103418D01*
X107800349Y-94306272D01*
X107879501Y-94497361D01*
X107968022Y-94629843D01*
X108439532Y-94158332D01*
X108489920Y-94245606D01*
X108564394Y-94320080D01*
X108651665Y-94370465D01*
X108180154Y-94841977D01*
X108312625Y-94930491D01*
X108312639Y-94930498D01*
X108503727Y-95009650D01*
X108706581Y-95049999D01*
X108706586Y-95050000D01*
X108913414Y-95050000D01*
X108913418Y-95049999D01*
X109116272Y-95009650D01*
X109307360Y-94930498D01*
X109439843Y-94841976D01*
X108968333Y-94370466D01*
X109055606Y-94320080D01*
X109130080Y-94245606D01*
X109180466Y-94158333D01*
X109651976Y-94629843D01*
X109740498Y-94497360D01*
X109819650Y-94306272D01*
X109859999Y-94103418D01*
X109860000Y-94103413D01*
X109860000Y-93896586D01*
X109859999Y-93896581D01*
X109819650Y-93693727D01*
X109740498Y-93502639D01*
X109740491Y-93502625D01*
X109651976Y-93370154D01*
X109180465Y-93841665D01*
X109130080Y-93754394D01*
X109055606Y-93679920D01*
X108968332Y-93629532D01*
X109439843Y-93158022D01*
X109307361Y-93069501D01*
X109116272Y-92990349D01*
X108913418Y-92950000D01*
X108706581Y-92950000D01*
X108503727Y-92990349D01*
X108312638Y-93069501D01*
X108180155Y-93158022D01*
X108651666Y-93629533D01*
X108564394Y-93679920D01*
X108489920Y-93754394D01*
X108439533Y-93841666D01*
X107968022Y-93370155D01*
X107879501Y-93502638D01*
X107800349Y-93693727D01*
X107760000Y-93896581D01*
X102190500Y-93896581D01*
X102190500Y-93395727D01*
X102190499Y-93395725D01*
X102187646Y-93365305D01*
X102187646Y-93365301D01*
X102142793Y-93237118D01*
X102142790Y-93237115D01*
X102142790Y-93237113D01*
X102062154Y-93127855D01*
X102062152Y-93127853D01*
X102062150Y-93127850D01*
X102062146Y-93127847D01*
X102062144Y-93127845D01*
X101952883Y-93047207D01*
X101824703Y-93002355D01*
X101824694Y-93002353D01*
X101794274Y-92999500D01*
X101794266Y-92999500D01*
X101589500Y-92999500D01*
X101531309Y-92980593D01*
X101495345Y-92931093D01*
X101490500Y-92900500D01*
X101490500Y-85099500D01*
X101509407Y-85041309D01*
X101558907Y-85005345D01*
X101589500Y-85000500D01*
X101598540Y-85000500D01*
X101598541Y-85000500D01*
X101791835Y-84962051D01*
X101973914Y-84886632D01*
X102137782Y-84777139D01*
X102277139Y-84637782D01*
X102386632Y-84473914D01*
X102462051Y-84291835D01*
X102500500Y-84098541D01*
X102500500Y-83901459D01*
X102500499Y-83901456D01*
X102499529Y-83896581D01*
X105450000Y-83896581D01*
X105450000Y-84103418D01*
X105490349Y-84306272D01*
X105569501Y-84497361D01*
X105658022Y-84629843D01*
X106129532Y-84158332D01*
X106179920Y-84245606D01*
X106254394Y-84320080D01*
X106341665Y-84370465D01*
X105870154Y-84841977D01*
X106002625Y-84930491D01*
X106002639Y-84930498D01*
X106193727Y-85009650D01*
X106396581Y-85049999D01*
X106396586Y-85050000D01*
X106603414Y-85050000D01*
X106603418Y-85049999D01*
X106806272Y-85009650D01*
X106997360Y-84930498D01*
X107129843Y-84841976D01*
X106658333Y-84370466D01*
X106745606Y-84320080D01*
X106820080Y-84245606D01*
X106870466Y-84158333D01*
X107341976Y-84629843D01*
X107397643Y-84546532D01*
X116599500Y-84546532D01*
X116599500Y-84753467D01*
X116639869Y-84956418D01*
X116719058Y-85147597D01*
X116834020Y-85319651D01*
X116834023Y-85319655D01*
X116980345Y-85465977D01*
X117152402Y-85580941D01*
X117343580Y-85660130D01*
X117546535Y-85700500D01*
X117546536Y-85700500D01*
X117753464Y-85700500D01*
X117753465Y-85700500D01*
X117956420Y-85660130D01*
X118147598Y-85580941D01*
X118319655Y-85465977D01*
X118450498Y-85335133D01*
X118505013Y-85307358D01*
X118565445Y-85316929D01*
X118608710Y-85360194D01*
X118619500Y-85405139D01*
X118619500Y-96200500D01*
X118600593Y-96258691D01*
X118551093Y-96294655D01*
X118520500Y-96299500D01*
X118519748Y-96299500D01*
X116780252Y-96299500D01*
X116780251Y-96299500D01*
X116780241Y-96299501D01*
X116721772Y-96311132D01*
X116721766Y-96311134D01*
X116655451Y-96355445D01*
X116655445Y-96355451D01*
X116611134Y-96421766D01*
X116611132Y-96421772D01*
X116599501Y-96480241D01*
X116599500Y-96480253D01*
X116599500Y-98219746D01*
X116599501Y-98219758D01*
X116611132Y-98278227D01*
X116611134Y-98278233D01*
X116637435Y-98317594D01*
X116655448Y-98344552D01*
X116721769Y-98388867D01*
X116766231Y-98397711D01*
X116780241Y-98400498D01*
X116780246Y-98400498D01*
X116780252Y-98400500D01*
X117250500Y-98400500D01*
X117308691Y-98419407D01*
X117344655Y-98468907D01*
X117349500Y-98499500D01*
X117349500Y-98541264D01*
X117369978Y-98617688D01*
X117369980Y-98617692D01*
X117381581Y-98637785D01*
X117409540Y-98686211D01*
X117465489Y-98742160D01*
X117465491Y-98742161D01*
X117534007Y-98781719D01*
X117534011Y-98781721D01*
X117610435Y-98802199D01*
X117610437Y-98802200D01*
X117610438Y-98802200D01*
X117689562Y-98802200D01*
X118256221Y-98802200D01*
X118314412Y-98821107D01*
X118326225Y-98831196D01*
X123983004Y-104487975D01*
X124010781Y-104542492D01*
X124004464Y-104595864D01*
X123963930Y-104693727D01*
X123957948Y-104708168D01*
X123919500Y-104901456D01*
X123919500Y-105098543D01*
X123938857Y-105195855D01*
X123957948Y-105291832D01*
X123957949Y-105291834D01*
X123957949Y-105291836D01*
X124033367Y-105473913D01*
X124069699Y-105528288D01*
X124142861Y-105637782D01*
X124282218Y-105777139D01*
X124446086Y-105886632D01*
X124628165Y-105962051D01*
X124821459Y-106000500D01*
X124821460Y-106000500D01*
X125018540Y-106000500D01*
X125018541Y-106000500D01*
X125211835Y-105962051D01*
X125393914Y-105886632D01*
X125557782Y-105777139D01*
X125697139Y-105637782D01*
X125806632Y-105473914D01*
X125882051Y-105291835D01*
X125920500Y-105098541D01*
X125920500Y-104901459D01*
X125882051Y-104708165D01*
X125806632Y-104526086D01*
X125697139Y-104362218D01*
X125557782Y-104222861D01*
X125393914Y-104113368D01*
X125393915Y-104113368D01*
X125393913Y-104113367D01*
X125211835Y-104037949D01*
X125018543Y-103999500D01*
X125018541Y-103999500D01*
X124821459Y-103999500D01*
X124821456Y-103999500D01*
X124628168Y-104037948D01*
X124628166Y-104037948D01*
X124628165Y-104037949D01*
X124567676Y-104063004D01*
X124515864Y-104084465D01*
X124454867Y-104089264D01*
X124407975Y-104063004D01*
X118715389Y-98370418D01*
X118687612Y-98315901D01*
X118688296Y-98281098D01*
X118688866Y-98278232D01*
X118688867Y-98278231D01*
X118700500Y-98219748D01*
X118700500Y-97341278D01*
X118719407Y-97283087D01*
X118729490Y-97271280D01*
X118940919Y-97059851D01*
X118995434Y-97032076D01*
X119055866Y-97041647D01*
X119099131Y-97084912D01*
X119108702Y-97145344D01*
X119100045Y-97199998D01*
X119100046Y-97200000D01*
X119712555Y-97200000D01*
X119690000Y-97284174D01*
X119690000Y-97415826D01*
X119712555Y-97500000D01*
X119100045Y-97500000D01*
X119117084Y-97607579D01*
X119170588Y-97772248D01*
X119249195Y-97926524D01*
X119249197Y-97926528D01*
X119350962Y-98066596D01*
X119473403Y-98189037D01*
X119613471Y-98290802D01*
X119613475Y-98290804D01*
X119767751Y-98369411D01*
X119932419Y-98422914D01*
X120039999Y-98439953D01*
X120040000Y-98439952D01*
X120040000Y-97827445D01*
X120124174Y-97850000D01*
X120255826Y-97850000D01*
X120340000Y-97827445D01*
X120340000Y-98439953D01*
X120447580Y-98422914D01*
X120612248Y-98369411D01*
X120766524Y-98290804D01*
X120766528Y-98290802D01*
X120906596Y-98189037D01*
X121029037Y-98066596D01*
X121130802Y-97926528D01*
X121130804Y-97926524D01*
X121209411Y-97772248D01*
X121262915Y-97607579D01*
X121279954Y-97500000D01*
X120667445Y-97500000D01*
X120690000Y-97415826D01*
X120690000Y-97284174D01*
X120679914Y-97246532D01*
X121679500Y-97246532D01*
X121679500Y-97453467D01*
X121719869Y-97656418D01*
X121799058Y-97847597D01*
X121851795Y-97926524D01*
X121914023Y-98019655D01*
X122060345Y-98165977D01*
X122232402Y-98280941D01*
X122423580Y-98360130D01*
X122626535Y-98400500D01*
X122626536Y-98400500D01*
X122833464Y-98400500D01*
X122833465Y-98400500D01*
X123036420Y-98360130D01*
X123227598Y-98280941D01*
X123399655Y-98165977D01*
X123545977Y-98019655D01*
X123660941Y-97847598D01*
X123740130Y-97656420D01*
X123780500Y-97453465D01*
X123780500Y-97246535D01*
X123780499Y-97246532D01*
X124219500Y-97246532D01*
X124219500Y-97453467D01*
X124259869Y-97656418D01*
X124339058Y-97847597D01*
X124391795Y-97926524D01*
X124454023Y-98019655D01*
X124600345Y-98165977D01*
X124772402Y-98280941D01*
X124963580Y-98360130D01*
X125166535Y-98400500D01*
X125166536Y-98400500D01*
X125373464Y-98400500D01*
X125373465Y-98400500D01*
X125576420Y-98360130D01*
X125767598Y-98280941D01*
X125939655Y-98165977D01*
X126085977Y-98019655D01*
X126200941Y-97847598D01*
X126280130Y-97656420D01*
X126320500Y-97453465D01*
X126320500Y-97246535D01*
X126280130Y-97043580D01*
X126200941Y-96852402D01*
X126085977Y-96680345D01*
X125939655Y-96534023D01*
X125925939Y-96524858D01*
X125767597Y-96419058D01*
X125576418Y-96339869D01*
X125373467Y-96299500D01*
X125373465Y-96299500D01*
X125166535Y-96299500D01*
X125166532Y-96299500D01*
X124963581Y-96339869D01*
X124772402Y-96419058D01*
X124600348Y-96534020D01*
X124454020Y-96680348D01*
X124339058Y-96852402D01*
X124259869Y-97043581D01*
X124219500Y-97246532D01*
X123780499Y-97246532D01*
X123740130Y-97043580D01*
X123660941Y-96852402D01*
X123545977Y-96680345D01*
X123399655Y-96534023D01*
X123385939Y-96524858D01*
X123227597Y-96419058D01*
X123036418Y-96339869D01*
X122833467Y-96299500D01*
X122833465Y-96299500D01*
X122626535Y-96299500D01*
X122626532Y-96299500D01*
X122423581Y-96339869D01*
X122232402Y-96419058D01*
X122060348Y-96534020D01*
X121914020Y-96680348D01*
X121799058Y-96852402D01*
X121719869Y-97043581D01*
X121679500Y-97246532D01*
X120679914Y-97246532D01*
X120667445Y-97200000D01*
X121279954Y-97200000D01*
X121279954Y-97199999D01*
X121262915Y-97092420D01*
X121209411Y-96927751D01*
X121130804Y-96773475D01*
X121130802Y-96773471D01*
X121029037Y-96633403D01*
X120906596Y-96510962D01*
X120766528Y-96409197D01*
X120766524Y-96409195D01*
X120612248Y-96330588D01*
X120447579Y-96277084D01*
X120340000Y-96260045D01*
X120340000Y-96872554D01*
X120255826Y-96850000D01*
X120124174Y-96850000D01*
X120040000Y-96872554D01*
X120040000Y-96260046D01*
X120039999Y-96260045D01*
X119932420Y-96277084D01*
X119767751Y-96330588D01*
X119613475Y-96409195D01*
X119613471Y-96409197D01*
X119473403Y-96510962D01*
X119389504Y-96594862D01*
X119334987Y-96622639D01*
X119274555Y-96613068D01*
X119231290Y-96569803D01*
X119220500Y-96524858D01*
X119220500Y-85475142D01*
X119239407Y-85416951D01*
X119288907Y-85380987D01*
X119350093Y-85380987D01*
X119389504Y-85405138D01*
X119473403Y-85489037D01*
X119613471Y-85590802D01*
X119613475Y-85590804D01*
X119767751Y-85669411D01*
X119932419Y-85722914D01*
X120039999Y-85739953D01*
X120040000Y-85739952D01*
X120040000Y-85127445D01*
X120124174Y-85150000D01*
X120255826Y-85150000D01*
X120340000Y-85127445D01*
X120340000Y-85739953D01*
X120447580Y-85722914D01*
X120612248Y-85669411D01*
X120766524Y-85590804D01*
X120766528Y-85590802D01*
X120906596Y-85489037D01*
X121029037Y-85366596D01*
X121130802Y-85226528D01*
X121130804Y-85226524D01*
X121209411Y-85072248D01*
X121262915Y-84907579D01*
X121279954Y-84800000D01*
X120667445Y-84800000D01*
X120690000Y-84715826D01*
X120690000Y-84584174D01*
X120667445Y-84500000D01*
X121279954Y-84500000D01*
X121279954Y-84499999D01*
X121640045Y-84499999D01*
X121640046Y-84500000D01*
X122252555Y-84500000D01*
X122230000Y-84584174D01*
X122230000Y-84715826D01*
X122252555Y-84800000D01*
X121640045Y-84800000D01*
X121657084Y-84907579D01*
X121710588Y-85072248D01*
X121789195Y-85226524D01*
X121789197Y-85226528D01*
X121890962Y-85366596D01*
X122013403Y-85489037D01*
X122153471Y-85590802D01*
X122153475Y-85590804D01*
X122307751Y-85669411D01*
X122472419Y-85722914D01*
X122579999Y-85739953D01*
X122580000Y-85739952D01*
X122580000Y-85127445D01*
X122664174Y-85150000D01*
X122795826Y-85150000D01*
X122880000Y-85127445D01*
X122880000Y-85739953D01*
X122987580Y-85722914D01*
X123152248Y-85669411D01*
X123306524Y-85590804D01*
X123306528Y-85590802D01*
X123446596Y-85489037D01*
X123569037Y-85366596D01*
X123670802Y-85226528D01*
X123670804Y-85226524D01*
X123749411Y-85072248D01*
X123802915Y-84907579D01*
X123819954Y-84800000D01*
X123207445Y-84800000D01*
X123230000Y-84715826D01*
X123230000Y-84584174D01*
X123219914Y-84546532D01*
X124219500Y-84546532D01*
X124219500Y-84753467D01*
X124259869Y-84956418D01*
X124339058Y-85147597D01*
X124454020Y-85319651D01*
X124454023Y-85319655D01*
X124600345Y-85465977D01*
X124772402Y-85580941D01*
X124963580Y-85660130D01*
X125166535Y-85700500D01*
X125166536Y-85700500D01*
X125373464Y-85700500D01*
X125373465Y-85700500D01*
X125576420Y-85660130D01*
X125767598Y-85580941D01*
X125939655Y-85465977D01*
X126085977Y-85319655D01*
X126200941Y-85147598D01*
X126280130Y-84956420D01*
X126320500Y-84753465D01*
X126320500Y-84546535D01*
X126320499Y-84546532D01*
X126759500Y-84546532D01*
X126759500Y-84753467D01*
X126799869Y-84956418D01*
X126879058Y-85147597D01*
X126994020Y-85319651D01*
X126994023Y-85319655D01*
X127140345Y-85465977D01*
X127312402Y-85580941D01*
X127503580Y-85660130D01*
X127706535Y-85700500D01*
X127706536Y-85700500D01*
X127913464Y-85700500D01*
X127913465Y-85700500D01*
X128116420Y-85660130D01*
X128307598Y-85580941D01*
X128479655Y-85465977D01*
X128625977Y-85319655D01*
X128740941Y-85147598D01*
X128820130Y-84956420D01*
X128860500Y-84753465D01*
X128860500Y-84546535D01*
X128860499Y-84546532D01*
X129299500Y-84546532D01*
X129299500Y-84753467D01*
X129339869Y-84956418D01*
X129419058Y-85147597D01*
X129534020Y-85319651D01*
X129534023Y-85319655D01*
X129680345Y-85465977D01*
X129852402Y-85580941D01*
X130043580Y-85660130D01*
X130246535Y-85700500D01*
X130246536Y-85700500D01*
X130453464Y-85700500D01*
X130453465Y-85700500D01*
X130656420Y-85660130D01*
X130847598Y-85580941D01*
X131019655Y-85465977D01*
X131165977Y-85319655D01*
X131280941Y-85147598D01*
X131360130Y-84956420D01*
X131400500Y-84753465D01*
X131400500Y-84546535D01*
X131360130Y-84343580D01*
X131280941Y-84152402D01*
X131165977Y-83980345D01*
X131019655Y-83834023D01*
X131005939Y-83824858D01*
X130847597Y-83719058D01*
X130656418Y-83639869D01*
X130453467Y-83599500D01*
X130453465Y-83599500D01*
X130246535Y-83599500D01*
X130246532Y-83599500D01*
X130043581Y-83639869D01*
X129852402Y-83719058D01*
X129680348Y-83834020D01*
X129534020Y-83980348D01*
X129419058Y-84152402D01*
X129339869Y-84343581D01*
X129299500Y-84546532D01*
X128860499Y-84546532D01*
X128820130Y-84343580D01*
X128740941Y-84152402D01*
X128625977Y-83980345D01*
X128479655Y-83834023D01*
X128465939Y-83824858D01*
X128307597Y-83719058D01*
X128116418Y-83639869D01*
X127913467Y-83599500D01*
X127913465Y-83599500D01*
X127706535Y-83599500D01*
X127706532Y-83599500D01*
X127503581Y-83639869D01*
X127312402Y-83719058D01*
X127140348Y-83834020D01*
X126994020Y-83980348D01*
X126879058Y-84152402D01*
X126799869Y-84343581D01*
X126759500Y-84546532D01*
X126320499Y-84546532D01*
X126280130Y-84343580D01*
X126200941Y-84152402D01*
X126085977Y-83980345D01*
X125939655Y-83834023D01*
X125925939Y-83824858D01*
X125767597Y-83719058D01*
X125576418Y-83639869D01*
X125373467Y-83599500D01*
X125373465Y-83599500D01*
X125166535Y-83599500D01*
X125166532Y-83599500D01*
X124963581Y-83639869D01*
X124772402Y-83719058D01*
X124600348Y-83834020D01*
X124454020Y-83980348D01*
X124339058Y-84152402D01*
X124259869Y-84343581D01*
X124219500Y-84546532D01*
X123219914Y-84546532D01*
X123207445Y-84500000D01*
X123819954Y-84500000D01*
X123819954Y-84499999D01*
X123802915Y-84392420D01*
X123749411Y-84227751D01*
X123670804Y-84073475D01*
X123670802Y-84073471D01*
X123569037Y-83933403D01*
X123446596Y-83810962D01*
X123306528Y-83709197D01*
X123306524Y-83709195D01*
X123152248Y-83630588D01*
X122987579Y-83577084D01*
X122880000Y-83560045D01*
X122880000Y-84172554D01*
X122795826Y-84150000D01*
X122664174Y-84150000D01*
X122580000Y-84172554D01*
X122580000Y-83560046D01*
X122579999Y-83560045D01*
X122472420Y-83577084D01*
X122307751Y-83630588D01*
X122153475Y-83709195D01*
X122153471Y-83709197D01*
X122013403Y-83810962D01*
X121890962Y-83933403D01*
X121789197Y-84073471D01*
X121789195Y-84073475D01*
X121710588Y-84227751D01*
X121657084Y-84392420D01*
X121640045Y-84499999D01*
X121279954Y-84499999D01*
X121262915Y-84392420D01*
X121209411Y-84227751D01*
X121130804Y-84073475D01*
X121130802Y-84073471D01*
X121029037Y-83933403D01*
X120906596Y-83810962D01*
X120766528Y-83709197D01*
X120766524Y-83709195D01*
X120612248Y-83630588D01*
X120447579Y-83577084D01*
X120340000Y-83560045D01*
X120340000Y-84172554D01*
X120255826Y-84150000D01*
X120124174Y-84150000D01*
X120040000Y-84172554D01*
X120040000Y-83560046D01*
X120039999Y-83560045D01*
X119932420Y-83577084D01*
X119767751Y-83630588D01*
X119613475Y-83709195D01*
X119613471Y-83709197D01*
X119473403Y-83810962D01*
X119389504Y-83894862D01*
X119334987Y-83922639D01*
X119274555Y-83913068D01*
X119231290Y-83869803D01*
X119220500Y-83824858D01*
X119220500Y-82981456D01*
X142999500Y-82981456D01*
X142999500Y-83178543D01*
X143037949Y-83371834D01*
X143037949Y-83371836D01*
X143113367Y-83553913D01*
X143143828Y-83599500D01*
X143222861Y-83717782D01*
X143362218Y-83857139D01*
X143526086Y-83966632D01*
X143708165Y-84042051D01*
X143901459Y-84080500D01*
X143901460Y-84080500D01*
X144098540Y-84080500D01*
X144098541Y-84080500D01*
X144291835Y-84042051D01*
X144473914Y-83966632D01*
X144637782Y-83857139D01*
X144777139Y-83717782D01*
X144886632Y-83553914D01*
X144962051Y-83371835D01*
X145000500Y-83178541D01*
X145000500Y-82981459D01*
X144962051Y-82788165D01*
X144886632Y-82606086D01*
X144777139Y-82442218D01*
X144637782Y-82302861D01*
X144474233Y-82193581D01*
X144473913Y-82193367D01*
X144291835Y-82117949D01*
X144098543Y-82079500D01*
X144098541Y-82079500D01*
X143901459Y-82079500D01*
X143901456Y-82079500D01*
X143708165Y-82117949D01*
X143708163Y-82117949D01*
X143526086Y-82193367D01*
X143362218Y-82302861D01*
X143362214Y-82302864D01*
X143222864Y-82442214D01*
X143222861Y-82442218D01*
X143113367Y-82606086D01*
X143037949Y-82788163D01*
X143037949Y-82788165D01*
X142999500Y-82981456D01*
X119220500Y-82981456D01*
X119220500Y-78745477D01*
X119239407Y-78687286D01*
X119249490Y-78675480D01*
X119487976Y-78436993D01*
X119542491Y-78409217D01*
X119595862Y-78415533D01*
X119708165Y-78462051D01*
X119901459Y-78500500D01*
X119901460Y-78500500D01*
X120098540Y-78500500D01*
X120098541Y-78500500D01*
X120291835Y-78462051D01*
X120473914Y-78386632D01*
X120637782Y-78277139D01*
X120777139Y-78137782D01*
X120886632Y-77973914D01*
X120962051Y-77791835D01*
X121000500Y-77598541D01*
X121000500Y-77401459D01*
X121000499Y-77401456D01*
X120999529Y-77396581D01*
X123950000Y-77396581D01*
X123950000Y-77603418D01*
X123990349Y-77806272D01*
X124069501Y-77997361D01*
X124158022Y-78129843D01*
X124629532Y-77658332D01*
X124679920Y-77745606D01*
X124754394Y-77820080D01*
X124841665Y-77870465D01*
X124370154Y-78341977D01*
X124502625Y-78430491D01*
X124502639Y-78430498D01*
X124693727Y-78509650D01*
X124896581Y-78549999D01*
X124896586Y-78550000D01*
X125103414Y-78550000D01*
X125103418Y-78549999D01*
X125306272Y-78509650D01*
X125497360Y-78430498D01*
X125629843Y-78341976D01*
X125158333Y-77870466D01*
X125245606Y-77820080D01*
X125320080Y-77745606D01*
X125370466Y-77658333D01*
X125841976Y-78129843D01*
X125930498Y-77997360D01*
X126009650Y-77806272D01*
X126049999Y-77603418D01*
X126050000Y-77603413D01*
X126050000Y-77396586D01*
X126049999Y-77396581D01*
X126009650Y-77193727D01*
X125930498Y-77002639D01*
X125930491Y-77002625D01*
X125841976Y-76870154D01*
X125370465Y-77341665D01*
X125320080Y-77254394D01*
X125245606Y-77179920D01*
X125158332Y-77129532D01*
X125629843Y-76658022D01*
X125497361Y-76569501D01*
X125306272Y-76490349D01*
X125103418Y-76450000D01*
X124896581Y-76450000D01*
X124693727Y-76490349D01*
X124502638Y-76569501D01*
X124370155Y-76658022D01*
X124841666Y-77129533D01*
X124754394Y-77179920D01*
X124679920Y-77254394D01*
X124629533Y-77341666D01*
X124158022Y-76870155D01*
X124069501Y-77002638D01*
X123990349Y-77193727D01*
X123950000Y-77396581D01*
X120999529Y-77396581D01*
X120989390Y-77345606D01*
X120962051Y-77208165D01*
X120886632Y-77026086D01*
X120777139Y-76862218D01*
X120637782Y-76722861D01*
X120473914Y-76613368D01*
X120473912Y-76613367D01*
X120361615Y-76566852D01*
X120315089Y-76527116D01*
X120300500Y-76475388D01*
X120300500Y-72821456D01*
X142999500Y-72821456D01*
X142999500Y-73018543D01*
X143037949Y-73211834D01*
X143037949Y-73211836D01*
X143113367Y-73393913D01*
X143113368Y-73393914D01*
X143222861Y-73557782D01*
X143362218Y-73697139D01*
X143484839Y-73779072D01*
X143526084Y-73806631D01*
X143526085Y-73806631D01*
X143526086Y-73806632D01*
X143638387Y-73853147D01*
X143684911Y-73892881D01*
X143699500Y-73944610D01*
X143699500Y-77849564D01*
X143719978Y-77925988D01*
X143719980Y-77925992D01*
X143747648Y-77973914D01*
X143759540Y-77994511D01*
X146394680Y-80629651D01*
X149024736Y-83259707D01*
X149052513Y-83314224D01*
X149046196Y-83367596D01*
X148989870Y-83503578D01*
X148989870Y-83503580D01*
X148949500Y-83706532D01*
X148949500Y-83913467D01*
X148989869Y-84116418D01*
X149069058Y-84307597D01*
X149173213Y-84463477D01*
X149184023Y-84479655D01*
X149330345Y-84625977D01*
X149502402Y-84740941D01*
X149693580Y-84820130D01*
X149896535Y-84860500D01*
X149896536Y-84860500D01*
X150103464Y-84860500D01*
X150103465Y-84860500D01*
X150306420Y-84820130D01*
X150442405Y-84763802D01*
X150503399Y-84759002D01*
X150550292Y-84785263D01*
X150849204Y-85084175D01*
X150876981Y-85138692D01*
X150878200Y-85154179D01*
X150878200Y-105080500D01*
X150859293Y-105138691D01*
X150809793Y-105174655D01*
X150779200Y-105179500D01*
X149130252Y-105179500D01*
X149130251Y-105179500D01*
X149130241Y-105179501D01*
X149071772Y-105191132D01*
X149071766Y-105191134D01*
X149064702Y-105195855D01*
X149005814Y-105212464D01*
X148948410Y-105191287D01*
X148914417Y-105140413D01*
X148910700Y-105113540D01*
X148910700Y-93490637D01*
X148910699Y-93490635D01*
X148890221Y-93414211D01*
X148890219Y-93414207D01*
X148850660Y-93345689D01*
X148794711Y-93289739D01*
X148794711Y-93289740D01*
X144936994Y-89432023D01*
X144909217Y-89377506D01*
X144915533Y-89324137D01*
X144962051Y-89211835D01*
X145000500Y-89018541D01*
X145000500Y-88821459D01*
X144962051Y-88628165D01*
X144886632Y-88446086D01*
X144777139Y-88282218D01*
X144637782Y-88142861D01*
X144473914Y-88033368D01*
X144473915Y-88033368D01*
X144473913Y-88033367D01*
X144291835Y-87957949D01*
X144098543Y-87919500D01*
X144098541Y-87919500D01*
X143901459Y-87919500D01*
X143901456Y-87919500D01*
X143708165Y-87957949D01*
X143708163Y-87957949D01*
X143526086Y-88033367D01*
X143362218Y-88142861D01*
X143362214Y-88142864D01*
X143222864Y-88282214D01*
X143222861Y-88282218D01*
X143113367Y-88446086D01*
X143037949Y-88628163D01*
X143037949Y-88628165D01*
X142999500Y-88821456D01*
X142999500Y-88821459D01*
X142999500Y-89018541D01*
X143037948Y-89211832D01*
X143037949Y-89211834D01*
X143037949Y-89211836D01*
X143113367Y-89393913D01*
X143149699Y-89448288D01*
X143222861Y-89557782D01*
X143362218Y-89697139D01*
X143526086Y-89806632D01*
X143708165Y-89882051D01*
X143901459Y-89920500D01*
X143901460Y-89920500D01*
X144098540Y-89920500D01*
X144098541Y-89920500D01*
X144291835Y-89882051D01*
X144404137Y-89835533D01*
X144465129Y-89830733D01*
X144512023Y-89856994D01*
X148280704Y-93625675D01*
X148308481Y-93680192D01*
X148309700Y-93695679D01*
X148309700Y-107419764D01*
X148330178Y-107496188D01*
X148330180Y-107496192D01*
X148369738Y-107564708D01*
X148369740Y-107564711D01*
X148728589Y-107923560D01*
X149024736Y-108219707D01*
X149052513Y-108274224D01*
X149046196Y-108327596D01*
X148989870Y-108463578D01*
X148989870Y-108463580D01*
X148949500Y-108666532D01*
X148949500Y-108873467D01*
X148989869Y-109076418D01*
X149069058Y-109267597D01*
X149134344Y-109365305D01*
X149184023Y-109439655D01*
X149330345Y-109585977D01*
X149502402Y-109700941D01*
X149693580Y-109780130D01*
X149896535Y-109820500D01*
X149896536Y-109820500D01*
X150103464Y-109820500D01*
X150103465Y-109820500D01*
X150306420Y-109780130D01*
X150497598Y-109700941D01*
X150669655Y-109585977D01*
X150709198Y-109546433D01*
X150763713Y-109518658D01*
X150824145Y-109528229D01*
X150867410Y-109571494D01*
X150878200Y-109616439D01*
X150878200Y-122580500D01*
X150859293Y-122638691D01*
X150809793Y-122674655D01*
X150779200Y-122679500D01*
X149130252Y-122679500D01*
X149130251Y-122679500D01*
X149130241Y-122679501D01*
X149071772Y-122691132D01*
X149071766Y-122691134D01*
X149005451Y-122735445D01*
X149005445Y-122735451D01*
X148961134Y-122801766D01*
X148961132Y-122801772D01*
X148949501Y-122860241D01*
X148949500Y-122860253D01*
X148949500Y-124599746D01*
X148949501Y-124599758D01*
X148961132Y-124658227D01*
X148961133Y-124658231D01*
X149005448Y-124724552D01*
X149071769Y-124768867D01*
X149116231Y-124777711D01*
X149130241Y-124780498D01*
X149130246Y-124780498D01*
X149130252Y-124780500D01*
X149130253Y-124780500D01*
X150779200Y-124780500D01*
X150794112Y-124785345D01*
X150809793Y-124785345D01*
X150822478Y-124794561D01*
X150837391Y-124799407D01*
X150846607Y-124812092D01*
X150859293Y-124821309D01*
X150864138Y-124836221D01*
X150873355Y-124848907D01*
X150878200Y-124879500D01*
X150878200Y-124925821D01*
X150859293Y-124984012D01*
X150849203Y-124995825D01*
X150550291Y-125294736D01*
X150495775Y-125322513D01*
X150442402Y-125316196D01*
X150306418Y-125259869D01*
X150103467Y-125219500D01*
X150103465Y-125219500D01*
X149896535Y-125219500D01*
X149896532Y-125219500D01*
X149693581Y-125259869D01*
X149502402Y-125339058D01*
X149330348Y-125454020D01*
X149184020Y-125600348D01*
X149069058Y-125772402D01*
X148989869Y-125963581D01*
X148949500Y-126166532D01*
X148949500Y-126373467D01*
X148989869Y-126576418D01*
X149069058Y-126767597D01*
X149069059Y-126767598D01*
X149184023Y-126939655D01*
X149330345Y-127085977D01*
X149502402Y-127200941D01*
X149693580Y-127280130D01*
X149896535Y-127320500D01*
X149896536Y-127320500D01*
X150103464Y-127320500D01*
X150103465Y-127320500D01*
X150306420Y-127280130D01*
X150497598Y-127200941D01*
X150669655Y-127085977D01*
X150815977Y-126939655D01*
X150930941Y-126767598D01*
X151010130Y-126576420D01*
X151050500Y-126373465D01*
X151050500Y-126166535D01*
X151010130Y-125963580D01*
X150953802Y-125827595D01*
X150949002Y-125766599D01*
X150975264Y-125719706D01*
X151094625Y-125600345D01*
X151419160Y-125275811D01*
X151428364Y-125259869D01*
X151458720Y-125207292D01*
X151458720Y-125207290D01*
X151458722Y-125207288D01*
X151479200Y-125130862D01*
X151479200Y-125051738D01*
X151479200Y-84949138D01*
X151475543Y-84935489D01*
X151458722Y-84872712D01*
X151458720Y-84872709D01*
X151458720Y-84872707D01*
X151419163Y-84804193D01*
X151419159Y-84804188D01*
X150975263Y-84360291D01*
X150947486Y-84305775D01*
X150953802Y-84252405D01*
X151010130Y-84116420D01*
X151050500Y-83913465D01*
X151050500Y-83706535D01*
X151010130Y-83503580D01*
X150930941Y-83312402D01*
X150815977Y-83140345D01*
X150669655Y-82994023D01*
X150669651Y-82994020D01*
X150497597Y-82879058D01*
X150306418Y-82799869D01*
X150103467Y-82759500D01*
X150103465Y-82759500D01*
X149896535Y-82759500D01*
X149896532Y-82759500D01*
X149693580Y-82799870D01*
X149693578Y-82799870D01*
X149557596Y-82856196D01*
X149496600Y-82860997D01*
X149449707Y-82834736D01*
X147781503Y-81166532D01*
X148949500Y-81166532D01*
X148949500Y-81373467D01*
X148989869Y-81576418D01*
X149069058Y-81767597D01*
X149184020Y-81939651D01*
X149184023Y-81939655D01*
X149330345Y-82085977D01*
X149502402Y-82200941D01*
X149693580Y-82280130D01*
X149896535Y-82320500D01*
X149896536Y-82320500D01*
X150103464Y-82320500D01*
X150103465Y-82320500D01*
X150306420Y-82280130D01*
X150497598Y-82200941D01*
X150669655Y-82085977D01*
X150815977Y-81939655D01*
X150930941Y-81767598D01*
X151010130Y-81576420D01*
X151050500Y-81373465D01*
X151050500Y-81166535D01*
X151010130Y-80963580D01*
X150930941Y-80772402D01*
X150815977Y-80600345D01*
X150669655Y-80454023D01*
X150497598Y-80339059D01*
X150497599Y-80339059D01*
X150497597Y-80339058D01*
X150306418Y-80259869D01*
X150103467Y-80219500D01*
X150103465Y-80219500D01*
X149896535Y-80219500D01*
X149896532Y-80219500D01*
X149693581Y-80259869D01*
X149502402Y-80339058D01*
X149330348Y-80454020D01*
X149184020Y-80600348D01*
X149069058Y-80772402D01*
X148989869Y-80963581D01*
X148949500Y-81166532D01*
X147781503Y-81166532D01*
X145258395Y-78643424D01*
X148900000Y-78643424D01*
X148900000Y-78816575D01*
X148927084Y-78987579D01*
X148980588Y-79152248D01*
X149059195Y-79306524D01*
X149059197Y-79306528D01*
X149123219Y-79394646D01*
X149556328Y-78961536D01*
X149599901Y-79037007D01*
X149692993Y-79130099D01*
X149768460Y-79173670D01*
X149335352Y-79606778D01*
X149423477Y-79670805D01*
X149577751Y-79749411D01*
X149742420Y-79802915D01*
X149913425Y-79830000D01*
X150086575Y-79830000D01*
X150257579Y-79802915D01*
X150422248Y-79749411D01*
X150576524Y-79670804D01*
X150576530Y-79670800D01*
X150664646Y-79606779D01*
X150664646Y-79606778D01*
X150231538Y-79173670D01*
X150307007Y-79130099D01*
X150400099Y-79037007D01*
X150443670Y-78961538D01*
X150876778Y-79394646D01*
X150876779Y-79394646D01*
X150940800Y-79306530D01*
X150940804Y-79306524D01*
X151019411Y-79152248D01*
X151072915Y-78987579D01*
X151100000Y-78816575D01*
X151100000Y-78643424D01*
X151072915Y-78472420D01*
X151019411Y-78307751D01*
X150940805Y-78153477D01*
X150876778Y-78065352D01*
X150443670Y-78498460D01*
X150400099Y-78422993D01*
X150307007Y-78329901D01*
X150231536Y-78286328D01*
X150664646Y-77853219D01*
X150576528Y-77789197D01*
X150576524Y-77789195D01*
X150422248Y-77710588D01*
X150257579Y-77657084D01*
X150086575Y-77630000D01*
X149913425Y-77630000D01*
X149742420Y-77657084D01*
X149577751Y-77710588D01*
X149423476Y-77789195D01*
X149335352Y-77853219D01*
X149768461Y-78286328D01*
X149692993Y-78329901D01*
X149599901Y-78422993D01*
X149556328Y-78498461D01*
X149123219Y-78065352D01*
X149059195Y-78153476D01*
X148980588Y-78307751D01*
X148927084Y-78472420D01*
X148900000Y-78643424D01*
X145258395Y-78643424D01*
X144329496Y-77714525D01*
X144301719Y-77660008D01*
X144300500Y-77644521D01*
X144300500Y-75320253D01*
X148949500Y-75320253D01*
X148949500Y-77059746D01*
X148949501Y-77059758D01*
X148961132Y-77118227D01*
X148961133Y-77118231D01*
X149005448Y-77184552D01*
X149071769Y-77228867D01*
X149116231Y-77237711D01*
X149130241Y-77240498D01*
X149130246Y-77240498D01*
X149130252Y-77240500D01*
X149130253Y-77240500D01*
X150869747Y-77240500D01*
X150869748Y-77240500D01*
X150928231Y-77228867D01*
X150994552Y-77184552D01*
X151038867Y-77118231D01*
X151050500Y-77059748D01*
X151050500Y-75320252D01*
X151038867Y-75261769D01*
X150994552Y-75195448D01*
X150994548Y-75195445D01*
X150928233Y-75151134D01*
X150928231Y-75151133D01*
X150928228Y-75151132D01*
X150928227Y-75151132D01*
X150869758Y-75139501D01*
X150869748Y-75139500D01*
X149130252Y-75139500D01*
X149130251Y-75139500D01*
X149130241Y-75139501D01*
X149071772Y-75151132D01*
X149071766Y-75151134D01*
X149005451Y-75195445D01*
X149005445Y-75195451D01*
X148961134Y-75261766D01*
X148961132Y-75261772D01*
X148949501Y-75320241D01*
X148949500Y-75320253D01*
X144300500Y-75320253D01*
X144300500Y-73944610D01*
X144319407Y-73886419D01*
X144361612Y-73853148D01*
X144473914Y-73806632D01*
X144637782Y-73697139D01*
X144777139Y-73557782D01*
X144886632Y-73393914D01*
X144962051Y-73211835D01*
X145000500Y-73018541D01*
X145000500Y-72821459D01*
X144962051Y-72628165D01*
X144886632Y-72446086D01*
X144777139Y-72282218D01*
X144637782Y-72142861D01*
X144473914Y-72033368D01*
X144473915Y-72033368D01*
X144473913Y-72033367D01*
X144291835Y-71957949D01*
X144098543Y-71919500D01*
X144098541Y-71919500D01*
X143901459Y-71919500D01*
X143901456Y-71919500D01*
X143708165Y-71957949D01*
X143708163Y-71957949D01*
X143526086Y-72033367D01*
X143362218Y-72142861D01*
X143362214Y-72142864D01*
X143222864Y-72282214D01*
X143222861Y-72282218D01*
X143113367Y-72446086D01*
X143037949Y-72628163D01*
X143037949Y-72628165D01*
X142999500Y-72821456D01*
X120300500Y-72821456D01*
X120300500Y-65285478D01*
X120319407Y-65227287D01*
X120329490Y-65215480D01*
X124458100Y-61086869D01*
X124512615Y-61059094D01*
X124573044Y-61068664D01*
X124659168Y-61112547D01*
X124838882Y-61170940D01*
X124838883Y-61170940D01*
X124838886Y-61170941D01*
X125025516Y-61200500D01*
X125025519Y-61200500D01*
X125214484Y-61200500D01*
X125401113Y-61170941D01*
X125401114Y-61170940D01*
X125401118Y-61170940D01*
X125580832Y-61112547D01*
X125749199Y-61026760D01*
X125902073Y-60915690D01*
X126035690Y-60782073D01*
X126146760Y-60629199D01*
X126232547Y-60460832D01*
X126290940Y-60281118D01*
X126290941Y-60281113D01*
X126320500Y-60094484D01*
X126320500Y-59905515D01*
X126290941Y-59718886D01*
X126290940Y-59718882D01*
X126232547Y-59539168D01*
X126159459Y-59395725D01*
X129749500Y-59395725D01*
X129749500Y-60604274D01*
X129752353Y-60634694D01*
X129752355Y-60634703D01*
X129797207Y-60762883D01*
X129877845Y-60872144D01*
X129877847Y-60872146D01*
X129877850Y-60872150D01*
X129877853Y-60872152D01*
X129877855Y-60872154D01*
X129987116Y-60952792D01*
X129987117Y-60952792D01*
X129987118Y-60952793D01*
X130115301Y-60997646D01*
X130145725Y-61000499D01*
X130145727Y-61000500D01*
X130145734Y-61000500D01*
X131354273Y-61000500D01*
X131354273Y-61000499D01*
X131384699Y-60997646D01*
X131512882Y-60952793D01*
X131622150Y-60872150D01*
X131702793Y-60762882D01*
X131747646Y-60634699D01*
X131750499Y-60604273D01*
X131750500Y-60604273D01*
X131750500Y-59896581D01*
X132200000Y-59896581D01*
X132200000Y-60103418D01*
X132240349Y-60306272D01*
X132319501Y-60497361D01*
X132408022Y-60629843D01*
X132879532Y-60158332D01*
X132929920Y-60245606D01*
X133004394Y-60320080D01*
X133091665Y-60370465D01*
X132620154Y-60841977D01*
X132752625Y-60930491D01*
X132752639Y-60930498D01*
X132943727Y-61009650D01*
X133146581Y-61049999D01*
X133146586Y-61050000D01*
X133353414Y-61050000D01*
X133353418Y-61049999D01*
X133556272Y-61009650D01*
X133747360Y-60930498D01*
X133879843Y-60841976D01*
X133408333Y-60370466D01*
X133495606Y-60320080D01*
X133570080Y-60245606D01*
X133620466Y-60158333D01*
X134091976Y-60629843D01*
X134180498Y-60497360D01*
X134259650Y-60306272D01*
X134299999Y-60103418D01*
X134300000Y-60103413D01*
X134300000Y-59901456D01*
X139499500Y-59901456D01*
X139499500Y-60098543D01*
X139537949Y-60291834D01*
X139537949Y-60291836D01*
X139613367Y-60473913D01*
X139613368Y-60473914D01*
X139722861Y-60637782D01*
X139862218Y-60777139D01*
X140026086Y-60886632D01*
X140208165Y-60962051D01*
X140401459Y-61000500D01*
X140401460Y-61000500D01*
X140598540Y-61000500D01*
X140598541Y-61000500D01*
X140791835Y-60962051D01*
X140973914Y-60886632D01*
X141137782Y-60777139D01*
X141277139Y-60637782D01*
X141386632Y-60473914D01*
X141462051Y-60291835D01*
X141500500Y-60098541D01*
X141500500Y-59901459D01*
X141500499Y-59901456D01*
X141499529Y-59896581D01*
X144450000Y-59896581D01*
X144450000Y-60103418D01*
X144490349Y-60306272D01*
X144569501Y-60497361D01*
X144658022Y-60629843D01*
X145129532Y-60158332D01*
X145179920Y-60245606D01*
X145254394Y-60320080D01*
X145341665Y-60370465D01*
X144870154Y-60841977D01*
X145002625Y-60930491D01*
X145002639Y-60930498D01*
X145193727Y-61009650D01*
X145396581Y-61049999D01*
X145396586Y-61050000D01*
X145603414Y-61050000D01*
X145603418Y-61049999D01*
X145806272Y-61009650D01*
X145997360Y-60930498D01*
X146129843Y-60841976D01*
X145658333Y-60370466D01*
X145745606Y-60320080D01*
X145820080Y-60245606D01*
X145870466Y-60158333D01*
X146341976Y-60629843D01*
X146430498Y-60497360D01*
X146509650Y-60306272D01*
X146549999Y-60103418D01*
X146550000Y-60103413D01*
X146550000Y-59896586D01*
X146549999Y-59896581D01*
X146509650Y-59693727D01*
X146430498Y-59502639D01*
X146430491Y-59502625D01*
X146341976Y-59370154D01*
X145870465Y-59841665D01*
X145820080Y-59754394D01*
X145745606Y-59679920D01*
X145658332Y-59629532D01*
X146129843Y-59158022D01*
X145997361Y-59069501D01*
X145806272Y-58990349D01*
X145603418Y-58950000D01*
X145396581Y-58950000D01*
X145193727Y-58990349D01*
X145002638Y-59069501D01*
X144870155Y-59158022D01*
X145341666Y-59629533D01*
X145254394Y-59679920D01*
X145179920Y-59754394D01*
X145129533Y-59841666D01*
X144658022Y-59370155D01*
X144569501Y-59502638D01*
X144490349Y-59693727D01*
X144450000Y-59896581D01*
X141499529Y-59896581D01*
X141489390Y-59845606D01*
X141462051Y-59708165D01*
X141386632Y-59526086D01*
X141277139Y-59362218D01*
X141137782Y-59222861D01*
X141028288Y-59149699D01*
X140973913Y-59113367D01*
X140791835Y-59037949D01*
X140598543Y-58999500D01*
X140598541Y-58999500D01*
X140401459Y-58999500D01*
X140401456Y-58999500D01*
X140208165Y-59037949D01*
X140208163Y-59037949D01*
X140026086Y-59113367D01*
X139862218Y-59222861D01*
X139862214Y-59222864D01*
X139722864Y-59362214D01*
X139722861Y-59362218D01*
X139613367Y-59526086D01*
X139537949Y-59708163D01*
X139537949Y-59708165D01*
X139499500Y-59901456D01*
X134300000Y-59901456D01*
X134300000Y-59896586D01*
X134299999Y-59896581D01*
X134259650Y-59693727D01*
X134180498Y-59502639D01*
X134180491Y-59502625D01*
X134091976Y-59370154D01*
X133620465Y-59841665D01*
X133570080Y-59754394D01*
X133495606Y-59679920D01*
X133408332Y-59629532D01*
X133879843Y-59158022D01*
X133747361Y-59069501D01*
X133556272Y-58990349D01*
X133353418Y-58950000D01*
X133146581Y-58950000D01*
X132943727Y-58990349D01*
X132752638Y-59069501D01*
X132620155Y-59158022D01*
X133091666Y-59629533D01*
X133004394Y-59679920D01*
X132929920Y-59754394D01*
X132879533Y-59841666D01*
X132408022Y-59370155D01*
X132319501Y-59502638D01*
X132240349Y-59693727D01*
X132200000Y-59896581D01*
X131750500Y-59896581D01*
X131750500Y-59395727D01*
X131750499Y-59395725D01*
X131748162Y-59370803D01*
X131747646Y-59365301D01*
X131702793Y-59237118D01*
X131702790Y-59237115D01*
X131702790Y-59237113D01*
X131622154Y-59127855D01*
X131622152Y-59127853D01*
X131622150Y-59127850D01*
X131622146Y-59127847D01*
X131622144Y-59127845D01*
X131512883Y-59047207D01*
X131384703Y-59002355D01*
X131384694Y-59002353D01*
X131354274Y-58999500D01*
X131354266Y-58999500D01*
X130145734Y-58999500D01*
X130145725Y-58999500D01*
X130115305Y-59002353D01*
X130115296Y-59002355D01*
X129987116Y-59047207D01*
X129877855Y-59127845D01*
X129877845Y-59127855D01*
X129797207Y-59237116D01*
X129752355Y-59365296D01*
X129752353Y-59365305D01*
X129749500Y-59395725D01*
X126159459Y-59395725D01*
X126146760Y-59370801D01*
X126035690Y-59217927D01*
X125902073Y-59084310D01*
X125749199Y-58973240D01*
X125749198Y-58973239D01*
X125749196Y-58973238D01*
X125580832Y-58887453D01*
X125401113Y-58829058D01*
X125214484Y-58799500D01*
X125214481Y-58799500D01*
X125025519Y-58799500D01*
X125025516Y-58799500D01*
X124838886Y-58829058D01*
X124659167Y-58887453D01*
X124490803Y-58973238D01*
X124337928Y-59084309D01*
X124204309Y-59217928D01*
X124093238Y-59370803D01*
X124007453Y-59539167D01*
X123949058Y-59718886D01*
X123919500Y-59905515D01*
X123919500Y-60094484D01*
X123949058Y-60281113D01*
X124007452Y-60460830D01*
X124051333Y-60546952D01*
X124060904Y-60607384D01*
X124033127Y-60661900D01*
X119815489Y-64879540D01*
X119815488Y-64879539D01*
X119759539Y-64935489D01*
X119719980Y-65004007D01*
X119719978Y-65004011D01*
X119699500Y-65080435D01*
X119699500Y-76475388D01*
X119680593Y-76533579D01*
X119638385Y-76566852D01*
X119526087Y-76613367D01*
X119362218Y-76722861D01*
X119362214Y-76722864D01*
X119222864Y-76862214D01*
X119222861Y-76862218D01*
X119113367Y-77026086D01*
X119037949Y-77208163D01*
X119037949Y-77208165D01*
X118999500Y-77401456D01*
X118999500Y-77598543D01*
X119037949Y-77791834D01*
X119037949Y-77791836D01*
X119084464Y-77904135D01*
X119089264Y-77965132D01*
X119063004Y-78012023D01*
X118735489Y-78339539D01*
X118679539Y-78395489D01*
X118639980Y-78464007D01*
X118639978Y-78464011D01*
X118619500Y-78540435D01*
X118619500Y-83894861D01*
X118600593Y-83953052D01*
X118551093Y-83989016D01*
X118489907Y-83989016D01*
X118450498Y-83964866D01*
X118319655Y-83834023D01*
X118305939Y-83824858D01*
X118147597Y-83719058D01*
X117956418Y-83639869D01*
X117753467Y-83599500D01*
X117753465Y-83599500D01*
X117546535Y-83599500D01*
X117546532Y-83599500D01*
X117343581Y-83639869D01*
X117152402Y-83719058D01*
X116980348Y-83834020D01*
X116834020Y-83980348D01*
X116719058Y-84152402D01*
X116639869Y-84343581D01*
X116599500Y-84546532D01*
X107397643Y-84546532D01*
X107430497Y-84497362D01*
X107430499Y-84497357D01*
X107509650Y-84306272D01*
X107549999Y-84103418D01*
X107550000Y-84103413D01*
X107550000Y-83896586D01*
X107549999Y-83896581D01*
X107509650Y-83693727D01*
X107430498Y-83502639D01*
X107430491Y-83502625D01*
X107341976Y-83370154D01*
X106870465Y-83841665D01*
X106820080Y-83754394D01*
X106745606Y-83679920D01*
X106658332Y-83629532D01*
X107129843Y-83158022D01*
X106997361Y-83069501D01*
X106806272Y-82990349D01*
X106603418Y-82950000D01*
X106396581Y-82950000D01*
X106193727Y-82990349D01*
X106002638Y-83069501D01*
X105870155Y-83158022D01*
X106341666Y-83629533D01*
X106254394Y-83679920D01*
X106179920Y-83754394D01*
X106129533Y-83841666D01*
X105658022Y-83370155D01*
X105569501Y-83502638D01*
X105490349Y-83693727D01*
X105450000Y-83896581D01*
X102499529Y-83896581D01*
X102483714Y-83817071D01*
X102462051Y-83708165D01*
X102386632Y-83526086D01*
X102277139Y-83362218D01*
X102137782Y-83222861D01*
X102028288Y-83149699D01*
X101973913Y-83113367D01*
X101791835Y-83037949D01*
X101598543Y-82999500D01*
X101598541Y-82999500D01*
X101401459Y-82999500D01*
X101401456Y-82999500D01*
X101208165Y-83037949D01*
X101208163Y-83037949D01*
X101026086Y-83113367D01*
X100862218Y-83222861D01*
X100862214Y-83222864D01*
X100722864Y-83362214D01*
X100722861Y-83362218D01*
X100613367Y-83526086D01*
X100537949Y-83708163D01*
X100537949Y-83708165D01*
X100499500Y-83901456D01*
X100499500Y-83901458D01*
X100499500Y-83901459D01*
X100499500Y-84098541D01*
X100532223Y-84263051D01*
X100537949Y-84291834D01*
X100537949Y-84291836D01*
X100613367Y-84473913D01*
X100613368Y-84473914D01*
X100722861Y-84637782D01*
X100722864Y-84637785D01*
X100722868Y-84637790D01*
X100860503Y-84775424D01*
X100888281Y-84829941D01*
X100889500Y-84845428D01*
X100889500Y-92900500D01*
X100870593Y-92958691D01*
X100821093Y-92994655D01*
X100790500Y-92999500D01*
X100585725Y-92999500D01*
X100555305Y-93002353D01*
X100555296Y-93002355D01*
X100427116Y-93047207D01*
X100317855Y-93127845D01*
X100317845Y-93127855D01*
X100237207Y-93237116D01*
X100192355Y-93365296D01*
X100192353Y-93365305D01*
X100189500Y-93395725D01*
X92880500Y-93395725D01*
X92880500Y-87401456D01*
X94079500Y-87401456D01*
X94079500Y-87598543D01*
X94117949Y-87791834D01*
X94117949Y-87791836D01*
X94193367Y-87973913D01*
X94193368Y-87973914D01*
X94302861Y-88137782D01*
X94442218Y-88277139D01*
X94606086Y-88386632D01*
X94788165Y-88462051D01*
X94981459Y-88500500D01*
X94981460Y-88500500D01*
X95178540Y-88500500D01*
X95178541Y-88500500D01*
X95371835Y-88462051D01*
X95553914Y-88386632D01*
X95717782Y-88277139D01*
X95857139Y-88137782D01*
X95966632Y-87973914D01*
X96042051Y-87791835D01*
X96080500Y-87598541D01*
X96080500Y-87401459D01*
X96042051Y-87208165D01*
X95966632Y-87026086D01*
X95857139Y-86862218D01*
X95717782Y-86722861D01*
X95553914Y-86613368D01*
X95553915Y-86613368D01*
X95553913Y-86613367D01*
X95371835Y-86537949D01*
X95178543Y-86499500D01*
X95178541Y-86499500D01*
X94981459Y-86499500D01*
X94981456Y-86499500D01*
X94788165Y-86537949D01*
X94788163Y-86537949D01*
X94606086Y-86613367D01*
X94442218Y-86722861D01*
X94442214Y-86722864D01*
X94302864Y-86862214D01*
X94302861Y-86862218D01*
X94193367Y-87026086D01*
X94117949Y-87208163D01*
X94117949Y-87208165D01*
X94079500Y-87401456D01*
X92880500Y-87401456D01*
X92880500Y-76024610D01*
X92899407Y-75966419D01*
X92941612Y-75933148D01*
X93053914Y-75886632D01*
X93217782Y-75777139D01*
X93357139Y-75637782D01*
X93466632Y-75473914D01*
X93542051Y-75291835D01*
X93580500Y-75098541D01*
X93580500Y-74901459D01*
X93542051Y-74708165D01*
X93466632Y-74526086D01*
X93379528Y-74395725D01*
X102689500Y-74395725D01*
X102689500Y-75604274D01*
X102692353Y-75634694D01*
X102692355Y-75634703D01*
X102737207Y-75762883D01*
X102817845Y-75872144D01*
X102817847Y-75872146D01*
X102817850Y-75872150D01*
X102817853Y-75872152D01*
X102817855Y-75872154D01*
X102927116Y-75952792D01*
X102927117Y-75952792D01*
X102927118Y-75952793D01*
X103055301Y-75997646D01*
X103085725Y-76000499D01*
X103085727Y-76000500D01*
X103085734Y-76000500D01*
X104294273Y-76000500D01*
X104294273Y-76000499D01*
X104324699Y-75997646D01*
X104452882Y-75952793D01*
X104562150Y-75872150D01*
X104642793Y-75762882D01*
X104687646Y-75634699D01*
X104690499Y-75604273D01*
X104690500Y-75604273D01*
X104690500Y-74901456D01*
X110309500Y-74901456D01*
X110309500Y-75098543D01*
X110328776Y-75195445D01*
X110341968Y-75261769D01*
X110347949Y-75291834D01*
X110347949Y-75291836D01*
X110423367Y-75473913D01*
X110423368Y-75473914D01*
X110532861Y-75637782D01*
X110672218Y-75777139D01*
X110836086Y-75886632D01*
X111018165Y-75962051D01*
X111211459Y-76000500D01*
X111211460Y-76000500D01*
X111408540Y-76000500D01*
X111408541Y-76000500D01*
X111601835Y-75962051D01*
X111783914Y-75886632D01*
X111947782Y-75777139D01*
X112087139Y-75637782D01*
X112196632Y-75473914D01*
X112272051Y-75291835D01*
X112310500Y-75098541D01*
X112310500Y-74901459D01*
X112272051Y-74708165D01*
X112196632Y-74526086D01*
X112087139Y-74362218D01*
X111947782Y-74222861D01*
X111838288Y-74149699D01*
X111783913Y-74113367D01*
X111601835Y-74037949D01*
X111408543Y-73999500D01*
X111408541Y-73999500D01*
X111211459Y-73999500D01*
X111211456Y-73999500D01*
X111018165Y-74037949D01*
X111018163Y-74037949D01*
X110836086Y-74113367D01*
X110672218Y-74222861D01*
X110672214Y-74222864D01*
X110532864Y-74362214D01*
X110532861Y-74362218D01*
X110423367Y-74526086D01*
X110347949Y-74708163D01*
X110347949Y-74708165D01*
X110309500Y-74901456D01*
X104690500Y-74901456D01*
X104690500Y-74395727D01*
X104690499Y-74395725D01*
X104687646Y-74365305D01*
X104687646Y-74365301D01*
X104642793Y-74237118D01*
X104632273Y-74222864D01*
X104562154Y-74127855D01*
X104562152Y-74127853D01*
X104562150Y-74127850D01*
X104562146Y-74127847D01*
X104562144Y-74127845D01*
X104452883Y-74047207D01*
X104324703Y-74002355D01*
X104324694Y-74002353D01*
X104294274Y-73999500D01*
X104294266Y-73999500D01*
X103085734Y-73999500D01*
X103085725Y-73999500D01*
X103055305Y-74002353D01*
X103055296Y-74002355D01*
X102927116Y-74047207D01*
X102817855Y-74127845D01*
X102817845Y-74127855D01*
X102737207Y-74237116D01*
X102692355Y-74365296D01*
X102692353Y-74365305D01*
X102689500Y-74395725D01*
X93379528Y-74395725D01*
X93357139Y-74362218D01*
X93217782Y-74222861D01*
X93108288Y-74149699D01*
X93053913Y-74113367D01*
X92871835Y-74037949D01*
X92678543Y-73999500D01*
X92678541Y-73999500D01*
X92481459Y-73999500D01*
X92481456Y-73999500D01*
X92288165Y-74037949D01*
X92288163Y-74037949D01*
X92106086Y-74113367D01*
X91942218Y-74222861D01*
X91942214Y-74222864D01*
X91802864Y-74362214D01*
X91802861Y-74362218D01*
X91693367Y-74526086D01*
X91617949Y-74708163D01*
X91617949Y-74708165D01*
X91579500Y-74901456D01*
X91579500Y-75098543D01*
X91598776Y-75195445D01*
X91611968Y-75261769D01*
X91617949Y-75291834D01*
X91617949Y-75291836D01*
X91693367Y-75473913D01*
X91693368Y-75473914D01*
X91802861Y-75637782D01*
X91942218Y-75777139D01*
X92064839Y-75859072D01*
X92106084Y-75886631D01*
X92106085Y-75886631D01*
X92106086Y-75886632D01*
X92218387Y-75933147D01*
X92264911Y-75972881D01*
X92279500Y-76024610D01*
X92279500Y-99674520D01*
X92260593Y-99732711D01*
X92250504Y-99744524D01*
X87932023Y-104063004D01*
X87877506Y-104090781D01*
X87824134Y-104084464D01*
X87711835Y-104037949D01*
X87518543Y-103999500D01*
X87518541Y-103999500D01*
X87321459Y-103999500D01*
X87321456Y-103999500D01*
X87128165Y-104037949D01*
X87128163Y-104037949D01*
X86946086Y-104113367D01*
X86782218Y-104222861D01*
X86782214Y-104222864D01*
X86642864Y-104362214D01*
X86642861Y-104362218D01*
X86533367Y-104526086D01*
X86457949Y-104708163D01*
X86457949Y-104708165D01*
X86419500Y-104901456D01*
X70610971Y-104901456D01*
X70620500Y-104865892D01*
X70620500Y-98987024D01*
X70639407Y-98928833D01*
X70688904Y-98892870D01*
X70695992Y-98890568D01*
X70906433Y-98783343D01*
X71097510Y-98644517D01*
X71264517Y-98477510D01*
X71403343Y-98286433D01*
X71510568Y-98075992D01*
X71583553Y-97851368D01*
X71593611Y-97787866D01*
X71620500Y-97618095D01*
X71620500Y-97381904D01*
X71583554Y-97148636D01*
X71583553Y-97148632D01*
X71510568Y-96924008D01*
X71403343Y-96713567D01*
X71264517Y-96522490D01*
X71097510Y-96355483D01*
X70906433Y-96216657D01*
X70906432Y-96216656D01*
X70906430Y-96216655D01*
X70695988Y-96109430D01*
X70695985Y-96109428D01*
X70688907Y-96107129D01*
X70639407Y-96071165D01*
X70620500Y-96012975D01*
X70620500Y-79090253D01*
X72679500Y-79090253D01*
X72679500Y-80829746D01*
X72679501Y-80829758D01*
X72691132Y-80888227D01*
X72691134Y-80888233D01*
X72735445Y-80954548D01*
X72735448Y-80954552D01*
X72801769Y-80998867D01*
X72846231Y-81007711D01*
X72860241Y-81010498D01*
X72860246Y-81010498D01*
X72860252Y-81010500D01*
X73330500Y-81010500D01*
X73388691Y-81029407D01*
X73424655Y-81078907D01*
X73429500Y-81109500D01*
X73429500Y-81151264D01*
X73449978Y-81227688D01*
X73449980Y-81227692D01*
X73489538Y-81296208D01*
X73489540Y-81296211D01*
X73509159Y-81315830D01*
X73536935Y-81370345D01*
X73527364Y-81430777D01*
X73484099Y-81474042D01*
X73458469Y-81482929D01*
X73423588Y-81489867D01*
X73423582Y-81489869D01*
X73232402Y-81569058D01*
X73060348Y-81684020D01*
X72914020Y-81830348D01*
X72799058Y-82002402D01*
X72719869Y-82193581D01*
X72679500Y-82396532D01*
X72679500Y-82603467D01*
X72719869Y-82806418D01*
X72799058Y-82997597D01*
X72906250Y-83158022D01*
X72914023Y-83169655D01*
X73060345Y-83315977D01*
X73232402Y-83430941D01*
X73423580Y-83510130D01*
X73626535Y-83550500D01*
X73626536Y-83550500D01*
X73833464Y-83550500D01*
X73833465Y-83550500D01*
X74036420Y-83510130D01*
X74172405Y-83453802D01*
X74233399Y-83449002D01*
X74280292Y-83475263D01*
X74590504Y-83785475D01*
X74618281Y-83839992D01*
X74619500Y-83855479D01*
X74619500Y-84204860D01*
X74600593Y-84263051D01*
X74551093Y-84299015D01*
X74489907Y-84299015D01*
X74450497Y-84274864D01*
X74399654Y-84224022D01*
X74227597Y-84109058D01*
X74036418Y-84029869D01*
X73833467Y-83989500D01*
X73833465Y-83989500D01*
X73626535Y-83989500D01*
X73626532Y-83989500D01*
X73423581Y-84029869D01*
X73232402Y-84109058D01*
X73060348Y-84224020D01*
X72914020Y-84370348D01*
X72799058Y-84542402D01*
X72719869Y-84733581D01*
X72679500Y-84936532D01*
X72679500Y-85143467D01*
X72719869Y-85346418D01*
X72799058Y-85537597D01*
X72887133Y-85669411D01*
X72914023Y-85709655D01*
X73060345Y-85855977D01*
X73232402Y-85970941D01*
X73423580Y-86050130D01*
X73626535Y-86090500D01*
X73626536Y-86090500D01*
X73833464Y-86090500D01*
X73833465Y-86090500D01*
X74036420Y-86050130D01*
X74227598Y-85970941D01*
X74399655Y-85855977D01*
X74450498Y-85805133D01*
X74505013Y-85777358D01*
X74565445Y-85786929D01*
X74608710Y-85830194D01*
X74619500Y-85875139D01*
X74619500Y-96975388D01*
X74600593Y-97033579D01*
X74558385Y-97066852D01*
X74446087Y-97113367D01*
X74282218Y-97222861D01*
X74282214Y-97222864D01*
X74142864Y-97362214D01*
X74142861Y-97362218D01*
X74033367Y-97526086D01*
X73957949Y-97708163D01*
X73957949Y-97708165D01*
X73919500Y-97901456D01*
X73919500Y-98098543D01*
X73930610Y-98154394D01*
X73956874Y-98286433D01*
X73957949Y-98291834D01*
X73957949Y-98291836D01*
X74033367Y-98473913D01*
X74049034Y-98497360D01*
X74142861Y-98637782D01*
X74282218Y-98777139D01*
X74446086Y-98886632D01*
X74628165Y-98962051D01*
X74821459Y-99000500D01*
X74821460Y-99000500D01*
X75018540Y-99000500D01*
X75018541Y-99000500D01*
X75211835Y-98962051D01*
X75393914Y-98886632D01*
X75557782Y-98777139D01*
X75697139Y-98637782D01*
X75806632Y-98473914D01*
X75882051Y-98291835D01*
X75920500Y-98098541D01*
X75920500Y-97901459D01*
X75920499Y-97901456D01*
X75919529Y-97896581D01*
X84030000Y-97896581D01*
X84030000Y-98103418D01*
X84070349Y-98306272D01*
X84149501Y-98497361D01*
X84238022Y-98629843D01*
X84709532Y-98158332D01*
X84759920Y-98245606D01*
X84834394Y-98320080D01*
X84921665Y-98370465D01*
X84450154Y-98841977D01*
X84582625Y-98930491D01*
X84582639Y-98930498D01*
X84773727Y-99009650D01*
X84976581Y-99049999D01*
X84976586Y-99050000D01*
X85183414Y-99050000D01*
X85183418Y-99049999D01*
X85386272Y-99009650D01*
X85577360Y-98930498D01*
X85709843Y-98841976D01*
X85238333Y-98370466D01*
X85325606Y-98320080D01*
X85400080Y-98245606D01*
X85450466Y-98158333D01*
X85921976Y-98629843D01*
X86010498Y-98497360D01*
X86089650Y-98306272D01*
X86129999Y-98103418D01*
X86130000Y-98103413D01*
X86130000Y-97896586D01*
X86129999Y-97896581D01*
X86089650Y-97693727D01*
X86010498Y-97502639D01*
X86010491Y-97502625D01*
X85921976Y-97370154D01*
X85450465Y-97841665D01*
X85400080Y-97754394D01*
X85325606Y-97679920D01*
X85238332Y-97629532D01*
X85709843Y-97158022D01*
X85577361Y-97069501D01*
X85386272Y-96990349D01*
X85183418Y-96950000D01*
X84976581Y-96950000D01*
X84773727Y-96990349D01*
X84582638Y-97069501D01*
X84450155Y-97158022D01*
X84921666Y-97629533D01*
X84834394Y-97679920D01*
X84759920Y-97754394D01*
X84709533Y-97841666D01*
X84238022Y-97370155D01*
X84149501Y-97502638D01*
X84070349Y-97693727D01*
X84030000Y-97896581D01*
X75919529Y-97896581D01*
X75903486Y-97815925D01*
X75882051Y-97708165D01*
X75806632Y-97526086D01*
X75697139Y-97362218D01*
X75557782Y-97222861D01*
X75393914Y-97113368D01*
X75393912Y-97113367D01*
X75281615Y-97066852D01*
X75235089Y-97027116D01*
X75220500Y-96975388D01*
X75220500Y-87401456D01*
X83919500Y-87401456D01*
X83919500Y-87598543D01*
X83957949Y-87791834D01*
X83957949Y-87791836D01*
X84033367Y-87973913D01*
X84033368Y-87973914D01*
X84142861Y-88137782D01*
X84282218Y-88277139D01*
X84446086Y-88386632D01*
X84628165Y-88462051D01*
X84821459Y-88500500D01*
X84821460Y-88500500D01*
X85018540Y-88500500D01*
X85018541Y-88500500D01*
X85211835Y-88462051D01*
X85393914Y-88386632D01*
X85557782Y-88277139D01*
X85697139Y-88137782D01*
X85806632Y-87973914D01*
X85882051Y-87791835D01*
X85920500Y-87598541D01*
X85920500Y-87401459D01*
X85882051Y-87208165D01*
X85806632Y-87026086D01*
X85697139Y-86862218D01*
X85557782Y-86722861D01*
X85393914Y-86613368D01*
X85393915Y-86613368D01*
X85393913Y-86613367D01*
X85211835Y-86537949D01*
X85018543Y-86499500D01*
X85018541Y-86499500D01*
X84821459Y-86499500D01*
X84821456Y-86499500D01*
X84628165Y-86537949D01*
X84628163Y-86537949D01*
X84446086Y-86613367D01*
X84282218Y-86722861D01*
X84282214Y-86722864D01*
X84142864Y-86862214D01*
X84142861Y-86862218D01*
X84033367Y-87026086D01*
X83957949Y-87208163D01*
X83957949Y-87208165D01*
X83919500Y-87401456D01*
X75220500Y-87401456D01*
X75220500Y-85686522D01*
X75239407Y-85628331D01*
X75288907Y-85592367D01*
X75350093Y-85592367D01*
X75399593Y-85628331D01*
X75401813Y-85631517D01*
X75454023Y-85709655D01*
X75600345Y-85855977D01*
X75772402Y-85970941D01*
X75963580Y-86050130D01*
X76166535Y-86090500D01*
X76166536Y-86090500D01*
X76373464Y-86090500D01*
X76373465Y-86090500D01*
X76576420Y-86050130D01*
X76767598Y-85970941D01*
X76939655Y-85855977D01*
X77085977Y-85709655D01*
X77200941Y-85537598D01*
X77280130Y-85346420D01*
X77320500Y-85143465D01*
X77320500Y-84936535D01*
X77280130Y-84733580D01*
X77200941Y-84542402D01*
X77085977Y-84370345D01*
X76939655Y-84224023D01*
X76921859Y-84212132D01*
X76767597Y-84109058D01*
X76576418Y-84029869D01*
X76373467Y-83989500D01*
X76373465Y-83989500D01*
X76283879Y-83989500D01*
X76225688Y-83970593D01*
X76213875Y-83960504D01*
X75944592Y-83691221D01*
X75916815Y-83636704D01*
X75926386Y-83576272D01*
X75969651Y-83533007D01*
X76030083Y-83523436D01*
X76033889Y-83524115D01*
X76166535Y-83550500D01*
X76166536Y-83550500D01*
X76373464Y-83550500D01*
X76373465Y-83550500D01*
X76576420Y-83510130D01*
X76767598Y-83430941D01*
X76939655Y-83315977D01*
X77085977Y-83169655D01*
X77200941Y-82997598D01*
X77280130Y-82806420D01*
X77320500Y-82603465D01*
X77320500Y-82396535D01*
X77280130Y-82193580D01*
X77200941Y-82002402D01*
X77085977Y-81830345D01*
X76939655Y-81684023D01*
X76767598Y-81569059D01*
X76767599Y-81569059D01*
X76767597Y-81569058D01*
X76576418Y-81489869D01*
X76373467Y-81449500D01*
X76373465Y-81449500D01*
X76166535Y-81449500D01*
X76166532Y-81449500D01*
X75963581Y-81489869D01*
X75772402Y-81569058D01*
X75600348Y-81684020D01*
X75454019Y-81830349D01*
X75361218Y-81969236D01*
X75313168Y-82007115D01*
X75252030Y-82009517D01*
X75201156Y-81975524D01*
X75183276Y-81939857D01*
X75182200Y-81935841D01*
X75182200Y-81935838D01*
X75161721Y-81859411D01*
X75161719Y-81859408D01*
X75161719Y-81859406D01*
X75122160Y-81790889D01*
X75066211Y-81734939D01*
X75066211Y-81734940D01*
X74510775Y-81179504D01*
X74482998Y-81124987D01*
X74492569Y-81064555D01*
X74535834Y-81021290D01*
X74580779Y-81010500D01*
X74599747Y-81010500D01*
X74599748Y-81010500D01*
X74658231Y-80998867D01*
X74724552Y-80954552D01*
X74768867Y-80888231D01*
X74780500Y-80829748D01*
X74780500Y-79856532D01*
X75219500Y-79856532D01*
X75219500Y-80063467D01*
X75259869Y-80266418D01*
X75339058Y-80457597D01*
X75454020Y-80629651D01*
X75454023Y-80629655D01*
X75600345Y-80775977D01*
X75772402Y-80890941D01*
X75963580Y-80970130D01*
X76166535Y-81010500D01*
X76166536Y-81010500D01*
X76373464Y-81010500D01*
X76373465Y-81010500D01*
X76576420Y-80970130D01*
X76767598Y-80890941D01*
X76939655Y-80775977D01*
X77085977Y-80629655D01*
X77200941Y-80457598D01*
X77280130Y-80266420D01*
X77320500Y-80063465D01*
X77320500Y-79856535D01*
X77280130Y-79653580D01*
X77200941Y-79462402D01*
X77085977Y-79290345D01*
X76939655Y-79144023D01*
X76939651Y-79144020D01*
X76767597Y-79029058D01*
X76576418Y-78949869D01*
X76373467Y-78909500D01*
X76373465Y-78909500D01*
X76166535Y-78909500D01*
X76166532Y-78909500D01*
X75963581Y-78949869D01*
X75772402Y-79029058D01*
X75600348Y-79144020D01*
X75454020Y-79290348D01*
X75339058Y-79462402D01*
X75259869Y-79653581D01*
X75219500Y-79856532D01*
X74780500Y-79856532D01*
X74780500Y-79090252D01*
X74768867Y-79031769D01*
X74724552Y-78965448D01*
X74724548Y-78965445D01*
X74658233Y-78921134D01*
X74658231Y-78921133D01*
X74658228Y-78921132D01*
X74658227Y-78921132D01*
X74599758Y-78909501D01*
X74599748Y-78909500D01*
X72860252Y-78909500D01*
X72860251Y-78909500D01*
X72860241Y-78909501D01*
X72801772Y-78921132D01*
X72801766Y-78921134D01*
X72735451Y-78965445D01*
X72735445Y-78965451D01*
X72691134Y-79031766D01*
X72691132Y-79031772D01*
X72679501Y-79090241D01*
X72679500Y-79090253D01*
X70620500Y-79090253D01*
X70620500Y-74901456D01*
X81419500Y-74901456D01*
X81419500Y-75098543D01*
X81438776Y-75195445D01*
X81451968Y-75261769D01*
X81457949Y-75291834D01*
X81457949Y-75291836D01*
X81533367Y-75473913D01*
X81533368Y-75473914D01*
X81642861Y-75637782D01*
X81782218Y-75777139D01*
X81946086Y-75886632D01*
X82128165Y-75962051D01*
X82321459Y-76000500D01*
X82321460Y-76000500D01*
X82518540Y-76000500D01*
X82518541Y-76000500D01*
X82711835Y-75962051D01*
X82893914Y-75886632D01*
X83057782Y-75777139D01*
X83197139Y-75637782D01*
X83306632Y-75473914D01*
X83382051Y-75291835D01*
X83420500Y-75098541D01*
X83420500Y-74901459D01*
X83382051Y-74708165D01*
X83306632Y-74526086D01*
X83197139Y-74362218D01*
X83057782Y-74222861D01*
X82948288Y-74149699D01*
X82893913Y-74113367D01*
X82711835Y-74037949D01*
X82518543Y-73999500D01*
X82518541Y-73999500D01*
X82321459Y-73999500D01*
X82321456Y-73999500D01*
X82128165Y-74037949D01*
X82128163Y-74037949D01*
X81946086Y-74113367D01*
X81782218Y-74222861D01*
X81782214Y-74222864D01*
X81642864Y-74362214D01*
X81642861Y-74362218D01*
X81533367Y-74526086D01*
X81457949Y-74708163D01*
X81457949Y-74708165D01*
X81419500Y-74901456D01*
X70620500Y-74901456D01*
X70620500Y-68987024D01*
X70639407Y-68928833D01*
X70688904Y-68892870D01*
X70695992Y-68890568D01*
X70906433Y-68783343D01*
X71097510Y-68644517D01*
X71264517Y-68477510D01*
X71403343Y-68286433D01*
X71510568Y-68075992D01*
X71583553Y-67851368D01*
X71620500Y-67618092D01*
X71620500Y-67381908D01*
X71620500Y-67381904D01*
X71583554Y-67148636D01*
X71583553Y-67148632D01*
X71510568Y-66924008D01*
X71403343Y-66713567D01*
X71264517Y-66522490D01*
X71097510Y-66355483D01*
X70906433Y-66216657D01*
X70906432Y-66216656D01*
X70906430Y-66216655D01*
X70695992Y-66109432D01*
X70471363Y-66036445D01*
X70238095Y-65999500D01*
X70238092Y-65999500D01*
X70001908Y-65999500D01*
X70001905Y-65999500D01*
X69768636Y-66036445D01*
X69544007Y-66109432D01*
X69333569Y-66216655D01*
X69142491Y-66355482D01*
X68975482Y-66522491D01*
X68836655Y-66713569D01*
X68729432Y-66924007D01*
X68656445Y-67148636D01*
X68619500Y-67381904D01*
X68619500Y-67618095D01*
X68656445Y-67851363D01*
X68656447Y-67851368D01*
X68729432Y-68075992D01*
X68836657Y-68286433D01*
X68975483Y-68477510D01*
X69142490Y-68644517D01*
X69333567Y-68783343D01*
X69544008Y-68890568D01*
X69551088Y-68892868D01*
X69600590Y-68928829D01*
X69619500Y-68987019D01*
X69619500Y-96012975D01*
X69600593Y-96071166D01*
X69551093Y-96107129D01*
X69544014Y-96109428D01*
X69544011Y-96109430D01*
X69333569Y-96216655D01*
X69142491Y-96355482D01*
X68975482Y-96522491D01*
X68836655Y-96713569D01*
X68729432Y-96924007D01*
X68656445Y-97148636D01*
X68619500Y-97381904D01*
X68619500Y-97618095D01*
X68656445Y-97851363D01*
X68729432Y-98075992D01*
X68833938Y-98281098D01*
X68836657Y-98286433D01*
X68975483Y-98477510D01*
X69142490Y-98644517D01*
X69333567Y-98783343D01*
X69544008Y-98890568D01*
X69551088Y-98892868D01*
X69600590Y-98928829D01*
X69619500Y-98987019D01*
X69619500Y-104551677D01*
X69600593Y-104609868D01*
X69590504Y-104621681D01*
X65217891Y-108994293D01*
X65163374Y-109022070D01*
X65128573Y-109021387D01*
X65018543Y-108999500D01*
X65018541Y-108999500D01*
X64821459Y-108999500D01*
X64821456Y-108999500D01*
X64628165Y-109037949D01*
X64628163Y-109037949D01*
X64446086Y-109113367D01*
X64282218Y-109222861D01*
X64282214Y-109222864D01*
X64142864Y-109362214D01*
X64142861Y-109362218D01*
X64033367Y-109526086D01*
X63957949Y-109708163D01*
X63957949Y-109708165D01*
X63919500Y-109901456D01*
X50500500Y-109901456D01*
X50500500Y-96395725D01*
X53379500Y-96395725D01*
X53379500Y-98604274D01*
X53382353Y-98634694D01*
X53382355Y-98634703D01*
X53427207Y-98762883D01*
X53507845Y-98872144D01*
X53507847Y-98872146D01*
X53507850Y-98872150D01*
X53507853Y-98872152D01*
X53507855Y-98872154D01*
X53617116Y-98952792D01*
X53617117Y-98952792D01*
X53617118Y-98952793D01*
X53745301Y-98997646D01*
X53775725Y-99000499D01*
X53775727Y-99000500D01*
X53775734Y-99000500D01*
X55984273Y-99000500D01*
X55984273Y-99000499D01*
X56014699Y-98997646D01*
X56142882Y-98952793D01*
X56252150Y-98872150D01*
X56332793Y-98762882D01*
X56377646Y-98634699D01*
X56380499Y-98604273D01*
X56380500Y-98604273D01*
X56380500Y-96395727D01*
X56380499Y-96395725D01*
X56377646Y-96365305D01*
X56377646Y-96365301D01*
X56332793Y-96237118D01*
X56317692Y-96216657D01*
X56252154Y-96127855D01*
X56252152Y-96127853D01*
X56252150Y-96127850D01*
X56252146Y-96127847D01*
X56252144Y-96127845D01*
X56142883Y-96047207D01*
X56014703Y-96002355D01*
X56014694Y-96002353D01*
X55984274Y-95999500D01*
X55984266Y-95999500D01*
X55279500Y-95999500D01*
X55221309Y-95980593D01*
X55185345Y-95931093D01*
X55180500Y-95900500D01*
X55180500Y-85285478D01*
X55199407Y-85227287D01*
X55209490Y-85215480D01*
X55471546Y-84953424D01*
X56400000Y-84953424D01*
X56400000Y-85126575D01*
X56427084Y-85297579D01*
X56480588Y-85462248D01*
X56559195Y-85616524D01*
X56559197Y-85616528D01*
X56623219Y-85704646D01*
X57056328Y-85271536D01*
X57099901Y-85347007D01*
X57192993Y-85440099D01*
X57268460Y-85483670D01*
X56835352Y-85916778D01*
X56923477Y-85980805D01*
X57077751Y-86059411D01*
X57242420Y-86112915D01*
X57413425Y-86140000D01*
X57586575Y-86140000D01*
X57757579Y-86112915D01*
X57922248Y-86059411D01*
X58076524Y-85980804D01*
X58076530Y-85980800D01*
X58164646Y-85916779D01*
X58164646Y-85916778D01*
X57731538Y-85483670D01*
X57807007Y-85440099D01*
X57900099Y-85347007D01*
X57943670Y-85271538D01*
X58376778Y-85704646D01*
X58376779Y-85704646D01*
X58440800Y-85616530D01*
X58440804Y-85616524D01*
X58519411Y-85462248D01*
X58572915Y-85297579D01*
X58600000Y-85126575D01*
X58600000Y-84953424D01*
X58572915Y-84782420D01*
X58519411Y-84617751D01*
X58440805Y-84463477D01*
X58376778Y-84375352D01*
X57943670Y-84808460D01*
X57900099Y-84732993D01*
X57807007Y-84639901D01*
X57731536Y-84596328D01*
X58164646Y-84163219D01*
X58076528Y-84099197D01*
X58076524Y-84099195D01*
X57922248Y-84020588D01*
X57757579Y-83967084D01*
X57586575Y-83940000D01*
X57413425Y-83940000D01*
X57242420Y-83967084D01*
X57077751Y-84020588D01*
X56923476Y-84099195D01*
X56835352Y-84163219D01*
X57268461Y-84596328D01*
X57192993Y-84639901D01*
X57099901Y-84732993D01*
X57056328Y-84808461D01*
X56623219Y-84375352D01*
X56559195Y-84463476D01*
X56480588Y-84617751D01*
X56427084Y-84782420D01*
X56400000Y-84953424D01*
X55471546Y-84953424D01*
X56949708Y-83475261D01*
X57004223Y-83447486D01*
X57057595Y-83453802D01*
X57193580Y-83510130D01*
X57396535Y-83550500D01*
X57396536Y-83550500D01*
X57603464Y-83550500D01*
X57603465Y-83550500D01*
X57806420Y-83510130D01*
X57997598Y-83430941D01*
X58169655Y-83315977D01*
X58315977Y-83169655D01*
X58430941Y-82997598D01*
X58510130Y-82806420D01*
X58550500Y-82603465D01*
X58550500Y-82396535D01*
X58510130Y-82193580D01*
X58430941Y-82002402D01*
X58315977Y-81830345D01*
X58169655Y-81684023D01*
X57997598Y-81569059D01*
X57997599Y-81569059D01*
X57997597Y-81569058D01*
X57806418Y-81489869D01*
X57603467Y-81449500D01*
X57603465Y-81449500D01*
X57396535Y-81449500D01*
X57396532Y-81449500D01*
X57193581Y-81489869D01*
X57002402Y-81569058D01*
X56830348Y-81684020D01*
X56684020Y-81830348D01*
X56569058Y-82002402D01*
X56489869Y-82193581D01*
X56449500Y-82396532D01*
X56449500Y-82603467D01*
X56489869Y-82806418D01*
X56546196Y-82942402D01*
X56550997Y-83003399D01*
X56524736Y-83050292D01*
X54695489Y-84879540D01*
X54695488Y-84879539D01*
X54639539Y-84935489D01*
X54599980Y-85004007D01*
X54599978Y-85004011D01*
X54579500Y-85080435D01*
X54579500Y-95900500D01*
X54560593Y-95958691D01*
X54511093Y-95994655D01*
X54480500Y-95999500D01*
X53775725Y-95999500D01*
X53745305Y-96002353D01*
X53745296Y-96002355D01*
X53617116Y-96047207D01*
X53507855Y-96127845D01*
X53507845Y-96127855D01*
X53427207Y-96237116D01*
X53382355Y-96365296D01*
X53382353Y-96365305D01*
X53379500Y-96395725D01*
X50500500Y-96395725D01*
X50500500Y-66395725D01*
X53379500Y-66395725D01*
X53379500Y-68604274D01*
X53382353Y-68634694D01*
X53382355Y-68634703D01*
X53427207Y-68762883D01*
X53507845Y-68872144D01*
X53507847Y-68872146D01*
X53507850Y-68872150D01*
X53507853Y-68872152D01*
X53507855Y-68872154D01*
X53617116Y-68952792D01*
X53617117Y-68952792D01*
X53617118Y-68952793D01*
X53745301Y-68997646D01*
X53775725Y-69000499D01*
X53775727Y-69000500D01*
X53775734Y-69000500D01*
X55914521Y-69000500D01*
X55972712Y-69019407D01*
X55984525Y-69029496D01*
X57170504Y-70215475D01*
X57198281Y-70269992D01*
X57199500Y-70285479D01*
X57199500Y-78810500D01*
X57180593Y-78868691D01*
X57131093Y-78904655D01*
X57100500Y-78909500D01*
X56630252Y-78909500D01*
X56630251Y-78909500D01*
X56630241Y-78909501D01*
X56571772Y-78921132D01*
X56571766Y-78921134D01*
X56505451Y-78965445D01*
X56505445Y-78965451D01*
X56461134Y-79031766D01*
X56461132Y-79031772D01*
X56449501Y-79090241D01*
X56449500Y-79090253D01*
X56449500Y-80829746D01*
X56449501Y-80829758D01*
X56461132Y-80888227D01*
X56461134Y-80888233D01*
X56505445Y-80954548D01*
X56505448Y-80954552D01*
X56571769Y-80998867D01*
X56616231Y-81007711D01*
X56630241Y-81010498D01*
X56630246Y-81010498D01*
X56630252Y-81010500D01*
X56630253Y-81010500D01*
X58369747Y-81010500D01*
X58369748Y-81010500D01*
X58428231Y-80998867D01*
X58494552Y-80954552D01*
X58538867Y-80888231D01*
X58550500Y-80829748D01*
X58550500Y-79090252D01*
X58538867Y-79031769D01*
X58494552Y-78965448D01*
X58494548Y-78965445D01*
X58428233Y-78921134D01*
X58428231Y-78921133D01*
X58428228Y-78921132D01*
X58428227Y-78921132D01*
X58369758Y-78909501D01*
X58369748Y-78909500D01*
X58369747Y-78909500D01*
X57899500Y-78909500D01*
X57841309Y-78890593D01*
X57805345Y-78841093D01*
X57800500Y-78810500D01*
X57800500Y-70080439D01*
X57800500Y-70080438D01*
X57780022Y-70004012D01*
X57780020Y-70004009D01*
X57780020Y-70004007D01*
X57740463Y-69935493D01*
X57740462Y-69935492D01*
X57740461Y-69935491D01*
X57740460Y-69935489D01*
X56409496Y-68604525D01*
X56381719Y-68550008D01*
X56380500Y-68534521D01*
X56380500Y-66395727D01*
X56380499Y-66395725D01*
X56377646Y-66365305D01*
X56377646Y-66365301D01*
X56332793Y-66237118D01*
X56317692Y-66216657D01*
X56252154Y-66127855D01*
X56252152Y-66127853D01*
X56252150Y-66127850D01*
X56252146Y-66127847D01*
X56252144Y-66127845D01*
X56142883Y-66047207D01*
X56014703Y-66002355D01*
X56014694Y-66002353D01*
X55984274Y-65999500D01*
X55984266Y-65999500D01*
X53775734Y-65999500D01*
X53775725Y-65999500D01*
X53745305Y-66002353D01*
X53745296Y-66002355D01*
X53617116Y-66047207D01*
X53507855Y-66127845D01*
X53507845Y-66127855D01*
X53427207Y-66237116D01*
X53382355Y-66365296D01*
X53382353Y-66365305D01*
X53379500Y-66395725D01*
X50500500Y-66395725D01*
X50500500Y-59905515D01*
X108679500Y-59905515D01*
X108679500Y-60094484D01*
X108709058Y-60281113D01*
X108767453Y-60460832D01*
X108843987Y-60611040D01*
X108853240Y-60629199D01*
X108964310Y-60782073D01*
X109097927Y-60915690D01*
X109250801Y-61026760D01*
X109419168Y-61112547D01*
X109598882Y-61170940D01*
X109598883Y-61170940D01*
X109598886Y-61170941D01*
X109785516Y-61200500D01*
X109785519Y-61200500D01*
X109974484Y-61200500D01*
X110161113Y-61170941D01*
X110161114Y-61170940D01*
X110161118Y-61170940D01*
X110340832Y-61112547D01*
X110509199Y-61026760D01*
X110662073Y-60915690D01*
X110795690Y-60782073D01*
X110906760Y-60629199D01*
X110992547Y-60460832D01*
X111050940Y-60281118D01*
X111050941Y-60281113D01*
X111080500Y-60094484D01*
X111080500Y-59905515D01*
X111050941Y-59718886D01*
X111050940Y-59718882D01*
X110992547Y-59539168D01*
X110906760Y-59370801D01*
X110795690Y-59217927D01*
X110662073Y-59084310D01*
X110509199Y-58973240D01*
X110509198Y-58973239D01*
X110509196Y-58973238D01*
X110340832Y-58887453D01*
X110161113Y-58829058D01*
X109974484Y-58799500D01*
X109974481Y-58799500D01*
X109785519Y-58799500D01*
X109785516Y-58799500D01*
X109598886Y-58829058D01*
X109419167Y-58887453D01*
X109250803Y-58973238D01*
X109097928Y-59084309D01*
X108964309Y-59217928D01*
X108853238Y-59370803D01*
X108767453Y-59539167D01*
X108709058Y-59718886D01*
X108679500Y-59905515D01*
X50500500Y-59905515D01*
X50500500Y-52893709D01*
X155649500Y-52893709D01*
X155649500Y-53106290D01*
X155682752Y-53316238D01*
X155748443Y-53518412D01*
X155844948Y-53707815D01*
X155844950Y-53707819D01*
X155969891Y-53879786D01*
X155969893Y-53879788D01*
X155969896Y-53879792D01*
X156120208Y-54030104D01*
X156120211Y-54030106D01*
X156120213Y-54030108D01*
X156292180Y-54155049D01*
X156292184Y-54155051D01*
X156481588Y-54251557D01*
X156683757Y-54317246D01*
X156683758Y-54317246D01*
X156683761Y-54317247D01*
X156893710Y-54350500D01*
X156893713Y-54350500D01*
X157106290Y-54350500D01*
X157316238Y-54317247D01*
X157316239Y-54317246D01*
X157316243Y-54317246D01*
X157518412Y-54251557D01*
X157707816Y-54155051D01*
X157879792Y-54030104D01*
X158030104Y-53879792D01*
X158155051Y-53707816D01*
X158251557Y-53518412D01*
X158317246Y-53316243D01*
X158350500Y-53106287D01*
X158350500Y-52893713D01*
X158350500Y-52893709D01*
X158317247Y-52683761D01*
X158317246Y-52683757D01*
X158251557Y-52481588D01*
X158155051Y-52292184D01*
X158155049Y-52292180D01*
X158030108Y-52120213D01*
X158030106Y-52120211D01*
X158030104Y-52120208D01*
X157879792Y-51969896D01*
X157879788Y-51969893D01*
X157879786Y-51969891D01*
X157707819Y-51844950D01*
X157707815Y-51844948D01*
X157518412Y-51748443D01*
X157316238Y-51682752D01*
X157106290Y-51649500D01*
X157106287Y-51649500D01*
X156893713Y-51649500D01*
X156893710Y-51649500D01*
X156683761Y-51682752D01*
X156481587Y-51748443D01*
X156292184Y-51844948D01*
X156292180Y-51844950D01*
X156120213Y-51969891D01*
X155969891Y-52120213D01*
X155844950Y-52292180D01*
X155844948Y-52292184D01*
X155748443Y-52481587D01*
X155682752Y-52683761D01*
X155649500Y-52893709D01*
X50500500Y-52893709D01*
X50500500Y-50599500D01*
X50519407Y-50541309D01*
X50568907Y-50505345D01*
X50599500Y-50500500D01*
X159400500Y-50500500D01*
X159458691Y-50519407D01*
G37*
G04 #@! TD.AperFunction*
M02*
