M48
; DRILL file {KiCad 9.0.2+dfsg-1} date 2026-10-09T12:30:54+0000
; FORMAT={-:-/ absolute / metric / decimal}
; #@! TF.CreationDate,2026-10-09T12:30:54+00:00
; #@! TF.GenerationSoftware,Kicad,Pcbnew,9.0.2+dfsg-1
; #@! TF.FileFunction,Plated,1,2,PTH
FMAT,2
METRIC
; #@! TA.AperFunction,Plated,PTH,ComponentDrill
T1C0.800
; #@! TA.AperFunction,Plated,PTH,ComponentDrill
T2C0.900
; #@! TA.AperFunction,Plated,PTH,ComponentDrill
T3C1.000
; #@! TA.AperFunction,Plated,PTH,ComponentDrill
T4C1.300
%
G90
G05
T1
X64.92Y-110.0
X74.92Y-98.0
X75.08Y-110.0
X82.42Y-75.0
X84.92Y-87.5
X85.08Y-98.0
X87.42Y-105.0
X92.58Y-75.0
X93.69Y-110.0
X95.08Y-87.5
X97.58Y-105.0
X100.5Y-101.0
X101.19Y-94.0
X101.31Y-110.0
X101.5Y-84.0
X103.69Y-75.0
X105.5Y-101.0
X106.19Y-110.0
X106.5Y-84.0
X108.81Y-94.0
X111.31Y-75.0
X113.81Y-110.0
X120.0Y-77.5
X124.92Y-105.0
X125.0Y-77.5
X130.75Y-60.0
X132.42Y-110.0
X132.42Y-122.5
X133.25Y-60.0
X135.08Y-105.0
X140.5Y-60.0
X142.58Y-110.0
X142.58Y-122.5
X144.0Y-72.92
X144.0Y-83.08
X144.0Y-88.92
X144.0Y-99.08
X145.5Y-60.0
T2
X109.88Y-60.0
X125.12Y-60.0
T3
X57.5Y-79.96
X57.5Y-82.5
X57.5Y-85.04
X73.73Y-79.96
X73.73Y-82.5
X73.73Y-85.04
X76.27Y-79.96
X76.27Y-82.5
X76.27Y-85.04
X117.65Y-84.65
X117.65Y-97.35
X120.0Y-112.46
X120.0Y-115.0
X120.0Y-117.54
X120.19Y-84.65
X120.19Y-97.35
X122.73Y-84.65
X122.73Y-97.35
X125.27Y-84.65
X125.27Y-97.35
X127.81Y-84.65
X127.81Y-97.35
X130.35Y-84.65
X130.35Y-97.35
X150.0Y-76.19
X150.0Y-78.73
X150.0Y-81.27
X150.0Y-83.81
X150.0Y-106.23
X150.0Y-108.77
X150.0Y-123.73
X150.0Y-126.27
T4
X54.88Y-67.5
X54.88Y-97.5
X70.12Y-67.5
X70.12Y-97.5
M30
