G04 #@! TF.GenerationSoftware,KiCad,Pcbnew,9.0.2+dfsg-1*
G04 #@! TF.CreationDate,2026-10-09T12:30:54+00:00*
G04 #@! TF.ProjectId,Ardor_Expression_THT,4172646f-725f-4457-9870-72657373696f,rev?*
G04 #@! TF.SameCoordinates,Original*
G04 #@! TF.FileFunction,Legend,Bot*
G04 #@! TF.FilePolarity,Positive*
%FSLAX46Y46*%
G04 Gerber Fmt 4.6, Leading zero omitted, Abs format (unit mm)*
G04 Created by KiCad (PCBNEW 9.0.2+dfsg-1) date 2026-10-09 12:30:54*
%MOMM*%
%LPD*%
G01*
G04 APERTURE LIST*
G04 Aperture macros list*
%AMRoundRect*
0 Rectangle with rounded corners*
0 $1 Rounding radius*
0 $2 $3 $4 $5 $6 $7 $8 $9 X,Y pos of 4 corners*
0 Add a 4 corners polygon primitive as box body*
4,1,4,$2,$3,$4,$5,$6,$7,$8,$9,$2,$3,0*
0 Add four circle primitives for the rounded corners*
1,1,$1+$1,$2,$3*
1,1,$1+$1,$4,$5*
1,1,$1+$1,$6,$7*
1,1,$1+$1,$8,$9*
0 Add four rect primitives between the rounded corners*
20,1,$1+$1,$2,$3,$4,$5,0*
20,1,$1+$1,$4,$5,$6,$7,0*
20,1,$1+$1,$6,$7,$8,$9,0*
20,1,$1+$1,$8,$9,$2,$3,0*%
G04 Aperture macros list end*
%ADD10C,0.150000*%
%ADD11C,1.600000*%
%ADD12RoundRect,0.250000X-0.550000X-0.550000X0.550000X-0.550000X0.550000X0.550000X-0.550000X0.550000X0*%
%ADD13O,1.700000X1.700000*%
%ADD14R,1.700000X1.700000*%
%ADD15C,1.700000*%
%ADD16RoundRect,0.250000X-1.050000X-1.050000X1.050000X-1.050000X1.050000X1.050000X-1.050000X1.050000X0*%
%ADD17C,2.600000*%
%ADD18C,2.000000*%
%ADD19C,2.200000*%
G04 APERTURE END LIST*
D10*
X71801428Y-80322295D02*
X72258571Y-80322295D01*
X72029999Y-80322295D02*
X72029999Y-79522295D01*
X72029999Y-79522295D02*
X72106190Y-79636580D01*
X72106190Y-79636580D02*
X72182380Y-79712771D01*
X72182380Y-79712771D02*
X72258571Y-79750866D01*
X146266666Y-123918318D02*
X146266666Y-124489746D01*
X146266666Y-124489746D02*
X146304761Y-124604032D01*
X146304761Y-124604032D02*
X146380952Y-124680223D01*
X146380952Y-124680223D02*
X146495237Y-124718318D01*
X146495237Y-124718318D02*
X146571428Y-124718318D01*
X145885713Y-124718318D02*
X145885713Y-123918318D01*
X145885713Y-123918318D02*
X145580951Y-123918318D01*
X145580951Y-123918318D02*
X145504761Y-123956413D01*
X145504761Y-123956413D02*
X145466666Y-123994508D01*
X145466666Y-123994508D02*
X145428570Y-124070699D01*
X145428570Y-124070699D02*
X145428570Y-124184984D01*
X145428570Y-124184984D02*
X145466666Y-124261175D01*
X145466666Y-124261175D02*
X145504761Y-124299270D01*
X145504761Y-124299270D02*
X145580951Y-124337365D01*
X145580951Y-124337365D02*
X145885713Y-124337365D01*
X145161904Y-123918318D02*
X144666666Y-123918318D01*
X144666666Y-123918318D02*
X144933332Y-124223080D01*
X144933332Y-124223080D02*
X144819047Y-124223080D01*
X144819047Y-124223080D02*
X144742856Y-124261175D01*
X144742856Y-124261175D02*
X144704761Y-124299270D01*
X144704761Y-124299270D02*
X144666666Y-124375461D01*
X144666666Y-124375461D02*
X144666666Y-124565937D01*
X144666666Y-124565937D02*
X144704761Y-124642127D01*
X144704761Y-124642127D02*
X144742856Y-124680223D01*
X144742856Y-124680223D02*
X144819047Y-124718318D01*
X144819047Y-124718318D02*
X145047618Y-124718318D01*
X145047618Y-124718318D02*
X145123809Y-124680223D01*
X145123809Y-124680223D02*
X145161904Y-124642127D01*
X144171427Y-123918318D02*
X144095237Y-123918318D01*
X144095237Y-123918318D02*
X144019046Y-123956413D01*
X144019046Y-123956413D02*
X143980951Y-123994508D01*
X143980951Y-123994508D02*
X143942856Y-124070699D01*
X143942856Y-124070699D02*
X143904761Y-124223080D01*
X143904761Y-124223080D02*
X143904761Y-124413556D01*
X143904761Y-124413556D02*
X143942856Y-124565937D01*
X143942856Y-124565937D02*
X143980951Y-124642127D01*
X143980951Y-124642127D02*
X144019046Y-124680223D01*
X144019046Y-124680223D02*
X144095237Y-124718318D01*
X144095237Y-124718318D02*
X144171427Y-124718318D01*
X144171427Y-124718318D02*
X144247618Y-124680223D01*
X144247618Y-124680223D02*
X144285713Y-124642127D01*
X144285713Y-124642127D02*
X144323808Y-124565937D01*
X144323808Y-124565937D02*
X144361904Y-124413556D01*
X144361904Y-124413556D02*
X144361904Y-124223080D01*
X144361904Y-124223080D02*
X144323808Y-124070699D01*
X144323808Y-124070699D02*
X144285713Y-123994508D01*
X144285713Y-123994508D02*
X144247618Y-123956413D01*
X144247618Y-123956413D02*
X144171427Y-123918318D01*
X143219046Y-124184984D02*
X143219046Y-124718318D01*
X143409522Y-123880223D02*
X143599999Y-124451651D01*
X143599999Y-124451651D02*
X143104760Y-124451651D01*
X141733331Y-124642127D02*
X141771427Y-124680223D01*
X141771427Y-124680223D02*
X141885712Y-124718318D01*
X141885712Y-124718318D02*
X141961903Y-124718318D01*
X141961903Y-124718318D02*
X142076189Y-124680223D01*
X142076189Y-124680223D02*
X142152379Y-124604032D01*
X142152379Y-124604032D02*
X142190474Y-124527842D01*
X142190474Y-124527842D02*
X142228570Y-124375461D01*
X142228570Y-124375461D02*
X142228570Y-124261175D01*
X142228570Y-124261175D02*
X142190474Y-124108794D01*
X142190474Y-124108794D02*
X142152379Y-124032603D01*
X142152379Y-124032603D02*
X142076189Y-123956413D01*
X142076189Y-123956413D02*
X141961903Y-123918318D01*
X141961903Y-123918318D02*
X141885712Y-123918318D01*
X141885712Y-123918318D02*
X141771427Y-123956413D01*
X141771427Y-123956413D02*
X141733331Y-123994508D01*
X141009522Y-124718318D02*
X141390474Y-124718318D01*
X141390474Y-124718318D02*
X141390474Y-123918318D01*
X140590474Y-123918318D02*
X140438093Y-123918318D01*
X140438093Y-123918318D02*
X140361903Y-123956413D01*
X140361903Y-123956413D02*
X140285712Y-124032603D01*
X140285712Y-124032603D02*
X140247617Y-124184984D01*
X140247617Y-124184984D02*
X140247617Y-124451651D01*
X140247617Y-124451651D02*
X140285712Y-124604032D01*
X140285712Y-124604032D02*
X140361903Y-124680223D01*
X140361903Y-124680223D02*
X140438093Y-124718318D01*
X140438093Y-124718318D02*
X140590474Y-124718318D01*
X140590474Y-124718318D02*
X140666665Y-124680223D01*
X140666665Y-124680223D02*
X140742855Y-124604032D01*
X140742855Y-124604032D02*
X140780951Y-124451651D01*
X140780951Y-124451651D02*
X140780951Y-124184984D01*
X140780951Y-124184984D02*
X140742855Y-124032603D01*
X140742855Y-124032603D02*
X140666665Y-123956413D01*
X140666665Y-123956413D02*
X140590474Y-123918318D01*
X139447617Y-124642127D02*
X139485713Y-124680223D01*
X139485713Y-124680223D02*
X139599998Y-124718318D01*
X139599998Y-124718318D02*
X139676189Y-124718318D01*
X139676189Y-124718318D02*
X139790475Y-124680223D01*
X139790475Y-124680223D02*
X139866665Y-124604032D01*
X139866665Y-124604032D02*
X139904760Y-124527842D01*
X139904760Y-124527842D02*
X139942856Y-124375461D01*
X139942856Y-124375461D02*
X139942856Y-124261175D01*
X139942856Y-124261175D02*
X139904760Y-124108794D01*
X139904760Y-124108794D02*
X139866665Y-124032603D01*
X139866665Y-124032603D02*
X139790475Y-123956413D01*
X139790475Y-123956413D02*
X139676189Y-123918318D01*
X139676189Y-123918318D02*
X139599998Y-123918318D01*
X139599998Y-123918318D02*
X139485713Y-123956413D01*
X139485713Y-123956413D02*
X139447617Y-123994508D01*
X139104760Y-124718318D02*
X139104760Y-123918318D01*
X138647617Y-124718318D02*
X138990475Y-124261175D01*
X138647617Y-123918318D02*
X139104760Y-124375461D01*
X137695236Y-124718318D02*
X137695236Y-123918318D01*
X137695236Y-123918318D02*
X137390474Y-123918318D01*
X137390474Y-123918318D02*
X137314284Y-123956413D01*
X137314284Y-123956413D02*
X137276189Y-123994508D01*
X137276189Y-123994508D02*
X137238093Y-124070699D01*
X137238093Y-124070699D02*
X137238093Y-124184984D01*
X137238093Y-124184984D02*
X137276189Y-124261175D01*
X137276189Y-124261175D02*
X137314284Y-124299270D01*
X137314284Y-124299270D02*
X137390474Y-124337365D01*
X137390474Y-124337365D02*
X137695236Y-124337365D01*
X136895236Y-123918318D02*
X136895236Y-124565937D01*
X136895236Y-124565937D02*
X136857141Y-124642127D01*
X136857141Y-124642127D02*
X136819046Y-124680223D01*
X136819046Y-124680223D02*
X136742855Y-124718318D01*
X136742855Y-124718318D02*
X136590474Y-124718318D01*
X136590474Y-124718318D02*
X136514284Y-124680223D01*
X136514284Y-124680223D02*
X136476189Y-124642127D01*
X136476189Y-124642127D02*
X136438093Y-124565937D01*
X136438093Y-124565937D02*
X136438093Y-123918318D01*
X135676189Y-124718318D02*
X136057141Y-124718318D01*
X136057141Y-124718318D02*
X136057141Y-123918318D01*
X135028570Y-124718318D02*
X135409522Y-124718318D01*
X135409522Y-124718318D02*
X135409522Y-123918318D01*
X134761903Y-123918318D02*
X134761903Y-124565937D01*
X134761903Y-124565937D02*
X134723808Y-124642127D01*
X134723808Y-124642127D02*
X134685713Y-124680223D01*
X134685713Y-124680223D02*
X134609522Y-124718318D01*
X134609522Y-124718318D02*
X134457141Y-124718318D01*
X134457141Y-124718318D02*
X134380951Y-124680223D01*
X134380951Y-124680223D02*
X134342856Y-124642127D01*
X134342856Y-124642127D02*
X134304760Y-124565937D01*
X134304760Y-124565937D02*
X134304760Y-123918318D01*
X133923808Y-124718318D02*
X133923808Y-123918318D01*
X133923808Y-123918318D02*
X133619046Y-123918318D01*
X133619046Y-123918318D02*
X133542856Y-123956413D01*
X133542856Y-123956413D02*
X133504761Y-123994508D01*
X133504761Y-123994508D02*
X133466665Y-124070699D01*
X133466665Y-124070699D02*
X133466665Y-124184984D01*
X133466665Y-124184984D02*
X133504761Y-124261175D01*
X133504761Y-124261175D02*
X133542856Y-124299270D01*
X133542856Y-124299270D02*
X133619046Y-124337365D01*
X133619046Y-124337365D02*
X133923808Y-124337365D01*
X146514285Y-126006273D02*
X146971428Y-126006273D01*
X146742856Y-126006273D02*
X146742856Y-125206273D01*
X146742856Y-125206273D02*
X146819047Y-125320558D01*
X146819047Y-125320558D02*
X146895237Y-125396749D01*
X146895237Y-125396749D02*
X146971428Y-125434844D01*
X145561903Y-126006273D02*
X145561903Y-125206273D01*
X145561903Y-125206273D02*
X145257141Y-125206273D01*
X145257141Y-125206273D02*
X145180951Y-125244368D01*
X145180951Y-125244368D02*
X145142856Y-125282463D01*
X145142856Y-125282463D02*
X145104760Y-125358654D01*
X145104760Y-125358654D02*
X145104760Y-125472939D01*
X145104760Y-125472939D02*
X145142856Y-125549130D01*
X145142856Y-125549130D02*
X145180951Y-125587225D01*
X145180951Y-125587225D02*
X145257141Y-125625320D01*
X145257141Y-125625320D02*
X145561903Y-125625320D01*
X144761903Y-125206273D02*
X144761903Y-125853892D01*
X144761903Y-125853892D02*
X144723808Y-125930082D01*
X144723808Y-125930082D02*
X144685713Y-125968178D01*
X144685713Y-125968178D02*
X144609522Y-126006273D01*
X144609522Y-126006273D02*
X144457141Y-126006273D01*
X144457141Y-126006273D02*
X144380951Y-125968178D01*
X144380951Y-125968178D02*
X144342856Y-125930082D01*
X144342856Y-125930082D02*
X144304760Y-125853892D01*
X144304760Y-125853892D02*
X144304760Y-125206273D01*
X143542856Y-126006273D02*
X143923808Y-126006273D01*
X143923808Y-126006273D02*
X143923808Y-125206273D01*
X142895237Y-126006273D02*
X143276189Y-126006273D01*
X143276189Y-126006273D02*
X143276189Y-125206273D01*
X142628570Y-125206273D02*
X142628570Y-125853892D01*
X142628570Y-125853892D02*
X142590475Y-125930082D01*
X142590475Y-125930082D02*
X142552380Y-125968178D01*
X142552380Y-125968178D02*
X142476189Y-126006273D01*
X142476189Y-126006273D02*
X142323808Y-126006273D01*
X142323808Y-126006273D02*
X142247618Y-125968178D01*
X142247618Y-125968178D02*
X142209523Y-125930082D01*
X142209523Y-125930082D02*
X142171427Y-125853892D01*
X142171427Y-125853892D02*
X142171427Y-125206273D01*
X141790475Y-126006273D02*
X141790475Y-125206273D01*
X141790475Y-125206273D02*
X141485713Y-125206273D01*
X141485713Y-125206273D02*
X141409523Y-125244368D01*
X141409523Y-125244368D02*
X141371428Y-125282463D01*
X141371428Y-125282463D02*
X141333332Y-125358654D01*
X141333332Y-125358654D02*
X141333332Y-125472939D01*
X141333332Y-125472939D02*
X141371428Y-125549130D01*
X141371428Y-125549130D02*
X141409523Y-125587225D01*
X141409523Y-125587225D02*
X141485713Y-125625320D01*
X141485713Y-125625320D02*
X141790475Y-125625320D01*
X139809523Y-125282463D02*
X139771427Y-125244368D01*
X139771427Y-125244368D02*
X139695237Y-125206273D01*
X139695237Y-125206273D02*
X139504761Y-125206273D01*
X139504761Y-125206273D02*
X139428570Y-125244368D01*
X139428570Y-125244368D02*
X139390475Y-125282463D01*
X139390475Y-125282463D02*
X139352380Y-125358654D01*
X139352380Y-125358654D02*
X139352380Y-125434844D01*
X139352380Y-125434844D02*
X139390475Y-125549130D01*
X139390475Y-125549130D02*
X139847618Y-126006273D01*
X139847618Y-126006273D02*
X139352380Y-126006273D01*
X137942855Y-125930082D02*
X137980951Y-125968178D01*
X137980951Y-125968178D02*
X138095236Y-126006273D01*
X138095236Y-126006273D02*
X138171427Y-126006273D01*
X138171427Y-126006273D02*
X138285713Y-125968178D01*
X138285713Y-125968178D02*
X138361903Y-125891987D01*
X138361903Y-125891987D02*
X138399998Y-125815797D01*
X138399998Y-125815797D02*
X138438094Y-125663416D01*
X138438094Y-125663416D02*
X138438094Y-125549130D01*
X138438094Y-125549130D02*
X138399998Y-125396749D01*
X138399998Y-125396749D02*
X138361903Y-125320558D01*
X138361903Y-125320558D02*
X138285713Y-125244368D01*
X138285713Y-125244368D02*
X138171427Y-125206273D01*
X138171427Y-125206273D02*
X138095236Y-125206273D01*
X138095236Y-125206273D02*
X137980951Y-125244368D01*
X137980951Y-125244368D02*
X137942855Y-125282463D01*
X137219046Y-126006273D02*
X137599998Y-126006273D01*
X137599998Y-126006273D02*
X137599998Y-125206273D01*
X136799998Y-125206273D02*
X136647617Y-125206273D01*
X136647617Y-125206273D02*
X136571427Y-125244368D01*
X136571427Y-125244368D02*
X136495236Y-125320558D01*
X136495236Y-125320558D02*
X136457141Y-125472939D01*
X136457141Y-125472939D02*
X136457141Y-125739606D01*
X136457141Y-125739606D02*
X136495236Y-125891987D01*
X136495236Y-125891987D02*
X136571427Y-125968178D01*
X136571427Y-125968178D02*
X136647617Y-126006273D01*
X136647617Y-126006273D02*
X136799998Y-126006273D01*
X136799998Y-126006273D02*
X136876189Y-125968178D01*
X136876189Y-125968178D02*
X136952379Y-125891987D01*
X136952379Y-125891987D02*
X136990475Y-125739606D01*
X136990475Y-125739606D02*
X136990475Y-125472939D01*
X136990475Y-125472939D02*
X136952379Y-125320558D01*
X136952379Y-125320558D02*
X136876189Y-125244368D01*
X136876189Y-125244368D02*
X136799998Y-125206273D01*
X135657141Y-125930082D02*
X135695237Y-125968178D01*
X135695237Y-125968178D02*
X135809522Y-126006273D01*
X135809522Y-126006273D02*
X135885713Y-126006273D01*
X135885713Y-126006273D02*
X135999999Y-125968178D01*
X135999999Y-125968178D02*
X136076189Y-125891987D01*
X136076189Y-125891987D02*
X136114284Y-125815797D01*
X136114284Y-125815797D02*
X136152380Y-125663416D01*
X136152380Y-125663416D02*
X136152380Y-125549130D01*
X136152380Y-125549130D02*
X136114284Y-125396749D01*
X136114284Y-125396749D02*
X136076189Y-125320558D01*
X136076189Y-125320558D02*
X135999999Y-125244368D01*
X135999999Y-125244368D02*
X135885713Y-125206273D01*
X135885713Y-125206273D02*
X135809522Y-125206273D01*
X135809522Y-125206273D02*
X135695237Y-125244368D01*
X135695237Y-125244368D02*
X135657141Y-125282463D01*
X135314284Y-126006273D02*
X135314284Y-125206273D01*
X134857141Y-126006273D02*
X135199999Y-125549130D01*
X134857141Y-125206273D02*
X135314284Y-125663416D01*
X133904760Y-126006273D02*
X133904760Y-125206273D01*
X133523808Y-126006273D02*
X133523808Y-125206273D01*
X133523808Y-125206273D02*
X133066665Y-126006273D01*
X133066665Y-126006273D02*
X133066665Y-125206273D01*
X145004762Y-78274340D02*
X145004762Y-78845768D01*
X145004762Y-78845768D02*
X145042857Y-78960054D01*
X145042857Y-78960054D02*
X145119048Y-79036245D01*
X145119048Y-79036245D02*
X145233333Y-79074340D01*
X145233333Y-79074340D02*
X145309524Y-79074340D01*
X144204762Y-79074340D02*
X144661905Y-79074340D01*
X144433333Y-79074340D02*
X144433333Y-78274340D01*
X144433333Y-78274340D02*
X144509524Y-78388625D01*
X144509524Y-78388625D02*
X144585714Y-78464816D01*
X144585714Y-78464816D02*
X144661905Y-78502911D01*
X143709523Y-78274340D02*
X143633333Y-78274340D01*
X143633333Y-78274340D02*
X143557142Y-78312435D01*
X143557142Y-78312435D02*
X143519047Y-78350530D01*
X143519047Y-78350530D02*
X143480952Y-78426721D01*
X143480952Y-78426721D02*
X143442857Y-78579102D01*
X143442857Y-78579102D02*
X143442857Y-78769578D01*
X143442857Y-78769578D02*
X143480952Y-78921959D01*
X143480952Y-78921959D02*
X143519047Y-78998149D01*
X143519047Y-78998149D02*
X143557142Y-79036245D01*
X143557142Y-79036245D02*
X143633333Y-79074340D01*
X143633333Y-79074340D02*
X143709523Y-79074340D01*
X143709523Y-79074340D02*
X143785714Y-79036245D01*
X143785714Y-79036245D02*
X143823809Y-78998149D01*
X143823809Y-78998149D02*
X143861904Y-78921959D01*
X143861904Y-78921959D02*
X143900000Y-78769578D01*
X143900000Y-78769578D02*
X143900000Y-78579102D01*
X143900000Y-78579102D02*
X143861904Y-78426721D01*
X143861904Y-78426721D02*
X143823809Y-78350530D01*
X143823809Y-78350530D02*
X143785714Y-78312435D01*
X143785714Y-78312435D02*
X143709523Y-78274340D01*
X142680952Y-79074340D02*
X143138095Y-79074340D01*
X142909523Y-79074340D02*
X142909523Y-78274340D01*
X142909523Y-78274340D02*
X142985714Y-78388625D01*
X142985714Y-78388625D02*
X143061904Y-78464816D01*
X143061904Y-78464816D02*
X143138095Y-78502911D01*
X141728570Y-79074340D02*
X141728570Y-78274340D01*
X141728570Y-78274340D02*
X141423808Y-78274340D01*
X141423808Y-78274340D02*
X141347618Y-78312435D01*
X141347618Y-78312435D02*
X141309523Y-78350530D01*
X141309523Y-78350530D02*
X141271427Y-78426721D01*
X141271427Y-78426721D02*
X141271427Y-78541006D01*
X141271427Y-78541006D02*
X141309523Y-78617197D01*
X141309523Y-78617197D02*
X141347618Y-78655292D01*
X141347618Y-78655292D02*
X141423808Y-78693387D01*
X141423808Y-78693387D02*
X141728570Y-78693387D01*
X141004761Y-78274340D02*
X140814285Y-79074340D01*
X140814285Y-79074340D02*
X140661904Y-78502911D01*
X140661904Y-78502911D02*
X140509523Y-79074340D01*
X140509523Y-79074340D02*
X140319047Y-78274340D01*
X139557141Y-79074340D02*
X139823808Y-78693387D01*
X140014284Y-79074340D02*
X140014284Y-78274340D01*
X140014284Y-78274340D02*
X139709522Y-78274340D01*
X139709522Y-78274340D02*
X139633332Y-78312435D01*
X139633332Y-78312435D02*
X139595237Y-78350530D01*
X139595237Y-78350530D02*
X139557141Y-78426721D01*
X139557141Y-78426721D02*
X139557141Y-78541006D01*
X139557141Y-78541006D02*
X139595237Y-78617197D01*
X139595237Y-78617197D02*
X139633332Y-78655292D01*
X139633332Y-78655292D02*
X139709522Y-78693387D01*
X139709522Y-78693387D02*
X140014284Y-78693387D01*
X138604760Y-79074340D02*
X138604760Y-78274340D01*
X138223808Y-79074340D02*
X138223808Y-78274340D01*
X138223808Y-78274340D02*
X137766665Y-79074340D01*
X137766665Y-79074340D02*
X137766665Y-78274340D01*
X136204761Y-78236245D02*
X136890475Y-79264816D01*
X135328570Y-79074340D02*
X135328570Y-78274340D01*
X134985714Y-78350530D02*
X134947618Y-78312435D01*
X134947618Y-78312435D02*
X134871428Y-78274340D01*
X134871428Y-78274340D02*
X134680952Y-78274340D01*
X134680952Y-78274340D02*
X134604761Y-78312435D01*
X134604761Y-78312435D02*
X134566666Y-78350530D01*
X134566666Y-78350530D02*
X134528571Y-78426721D01*
X134528571Y-78426721D02*
X134528571Y-78502911D01*
X134528571Y-78502911D02*
X134566666Y-78617197D01*
X134566666Y-78617197D02*
X135023809Y-79074340D01*
X135023809Y-79074340D02*
X134528571Y-79074340D01*
X133728570Y-78998149D02*
X133766666Y-79036245D01*
X133766666Y-79036245D02*
X133880951Y-79074340D01*
X133880951Y-79074340D02*
X133957142Y-79074340D01*
X133957142Y-79074340D02*
X134071428Y-79036245D01*
X134071428Y-79036245D02*
X134147618Y-78960054D01*
X134147618Y-78960054D02*
X134185713Y-78883864D01*
X134185713Y-78883864D02*
X134223809Y-78731483D01*
X134223809Y-78731483D02*
X134223809Y-78617197D01*
X134223809Y-78617197D02*
X134185713Y-78464816D01*
X134185713Y-78464816D02*
X134147618Y-78388625D01*
X134147618Y-78388625D02*
X134071428Y-78312435D01*
X134071428Y-78312435D02*
X133957142Y-78274340D01*
X133957142Y-78274340D02*
X133880951Y-78274340D01*
X133880951Y-78274340D02*
X133766666Y-78312435D01*
X133766666Y-78312435D02*
X133728570Y-78350530D01*
X145138095Y-80362295D02*
X145595238Y-80362295D01*
X145366666Y-80362295D02*
X145366666Y-79562295D01*
X145366666Y-79562295D02*
X145442857Y-79676580D01*
X145442857Y-79676580D02*
X145519047Y-79752771D01*
X145519047Y-79752771D02*
X145595238Y-79790866D01*
X144261904Y-79562295D02*
X143766666Y-79562295D01*
X143766666Y-79562295D02*
X144033332Y-79867057D01*
X144033332Y-79867057D02*
X143919047Y-79867057D01*
X143919047Y-79867057D02*
X143842856Y-79905152D01*
X143842856Y-79905152D02*
X143804761Y-79943247D01*
X143804761Y-79943247D02*
X143766666Y-80019438D01*
X143766666Y-80019438D02*
X143766666Y-80209914D01*
X143766666Y-80209914D02*
X143804761Y-80286104D01*
X143804761Y-80286104D02*
X143842856Y-80324200D01*
X143842856Y-80324200D02*
X143919047Y-80362295D01*
X143919047Y-80362295D02*
X144147618Y-80362295D01*
X144147618Y-80362295D02*
X144223809Y-80324200D01*
X144223809Y-80324200D02*
X144261904Y-80286104D01*
X143538094Y-79562295D02*
X143271427Y-80362295D01*
X143271427Y-80362295D02*
X143004761Y-79562295D01*
X142814285Y-79562295D02*
X142319047Y-79562295D01*
X142319047Y-79562295D02*
X142585713Y-79867057D01*
X142585713Y-79867057D02*
X142471428Y-79867057D01*
X142471428Y-79867057D02*
X142395237Y-79905152D01*
X142395237Y-79905152D02*
X142357142Y-79943247D01*
X142357142Y-79943247D02*
X142319047Y-80019438D01*
X142319047Y-80019438D02*
X142319047Y-80209914D01*
X142319047Y-80209914D02*
X142357142Y-80286104D01*
X142357142Y-80286104D02*
X142395237Y-80324200D01*
X142395237Y-80324200D02*
X142471428Y-80362295D01*
X142471428Y-80362295D02*
X142699999Y-80362295D01*
X142699999Y-80362295D02*
X142776190Y-80324200D01*
X142776190Y-80324200D02*
X142814285Y-80286104D01*
X141366665Y-80362295D02*
X141366665Y-79562295D01*
X140985713Y-80362295D02*
X140985713Y-79562295D01*
X140985713Y-79562295D02*
X140528570Y-80362295D01*
X140528570Y-80362295D02*
X140528570Y-79562295D01*
X138966666Y-79638485D02*
X138928570Y-79600390D01*
X138928570Y-79600390D02*
X138852380Y-79562295D01*
X138852380Y-79562295D02*
X138661904Y-79562295D01*
X138661904Y-79562295D02*
X138585713Y-79600390D01*
X138585713Y-79600390D02*
X138547618Y-79638485D01*
X138547618Y-79638485D02*
X138509523Y-79714676D01*
X138509523Y-79714676D02*
X138509523Y-79790866D01*
X138509523Y-79790866D02*
X138547618Y-79905152D01*
X138547618Y-79905152D02*
X139004761Y-80362295D01*
X139004761Y-80362295D02*
X138509523Y-80362295D01*
X137138094Y-79600390D02*
X137214284Y-79562295D01*
X137214284Y-79562295D02*
X137328570Y-79562295D01*
X137328570Y-79562295D02*
X137442856Y-79600390D01*
X137442856Y-79600390D02*
X137519046Y-79676580D01*
X137519046Y-79676580D02*
X137557141Y-79752771D01*
X137557141Y-79752771D02*
X137595237Y-79905152D01*
X137595237Y-79905152D02*
X137595237Y-80019438D01*
X137595237Y-80019438D02*
X137557141Y-80171819D01*
X137557141Y-80171819D02*
X137519046Y-80248009D01*
X137519046Y-80248009D02*
X137442856Y-80324200D01*
X137442856Y-80324200D02*
X137328570Y-80362295D01*
X137328570Y-80362295D02*
X137252379Y-80362295D01*
X137252379Y-80362295D02*
X137138094Y-80324200D01*
X137138094Y-80324200D02*
X137099998Y-80286104D01*
X137099998Y-80286104D02*
X137099998Y-80019438D01*
X137099998Y-80019438D02*
X137252379Y-80019438D01*
X136757141Y-80362295D02*
X136757141Y-79562295D01*
X136757141Y-79562295D02*
X136299998Y-80362295D01*
X136299998Y-80362295D02*
X136299998Y-79562295D01*
X135919046Y-80362295D02*
X135919046Y-79562295D01*
X135919046Y-79562295D02*
X135728570Y-79562295D01*
X135728570Y-79562295D02*
X135614284Y-79600390D01*
X135614284Y-79600390D02*
X135538094Y-79676580D01*
X135538094Y-79676580D02*
X135499999Y-79752771D01*
X135499999Y-79752771D02*
X135461903Y-79905152D01*
X135461903Y-79905152D02*
X135461903Y-80019438D01*
X135461903Y-80019438D02*
X135499999Y-80171819D01*
X135499999Y-80171819D02*
X135538094Y-80248009D01*
X135538094Y-80248009D02*
X135614284Y-80324200D01*
X135614284Y-80324200D02*
X135728570Y-80362295D01*
X135728570Y-80362295D02*
X135919046Y-80362295D01*
X134357141Y-79562295D02*
X134280951Y-79562295D01*
X134280951Y-79562295D02*
X134204760Y-79600390D01*
X134204760Y-79600390D02*
X134166665Y-79638485D01*
X134166665Y-79638485D02*
X134128570Y-79714676D01*
X134128570Y-79714676D02*
X134090475Y-79867057D01*
X134090475Y-79867057D02*
X134090475Y-80057533D01*
X134090475Y-80057533D02*
X134128570Y-80209914D01*
X134128570Y-80209914D02*
X134166665Y-80286104D01*
X134166665Y-80286104D02*
X134204760Y-80324200D01*
X134204760Y-80324200D02*
X134280951Y-80362295D01*
X134280951Y-80362295D02*
X134357141Y-80362295D01*
X134357141Y-80362295D02*
X134433332Y-80324200D01*
X134433332Y-80324200D02*
X134471427Y-80286104D01*
X134471427Y-80286104D02*
X134509522Y-80209914D01*
X134509522Y-80209914D02*
X134547618Y-80057533D01*
X134547618Y-80057533D02*
X134547618Y-79867057D01*
X134547618Y-79867057D02*
X134509522Y-79714676D01*
X134509522Y-79714676D02*
X134471427Y-79638485D01*
X134471427Y-79638485D02*
X134433332Y-79600390D01*
X134433332Y-79600390D02*
X134357141Y-79562295D01*
X133861903Y-79562295D02*
X133595236Y-80362295D01*
X133595236Y-80362295D02*
X133328570Y-79562295D01*
X146947618Y-80850250D02*
X146452380Y-80850250D01*
X146452380Y-80850250D02*
X146719046Y-81155012D01*
X146719046Y-81155012D02*
X146604761Y-81155012D01*
X146604761Y-81155012D02*
X146528570Y-81193107D01*
X146528570Y-81193107D02*
X146490475Y-81231202D01*
X146490475Y-81231202D02*
X146452380Y-81307393D01*
X146452380Y-81307393D02*
X146452380Y-81497869D01*
X146452380Y-81497869D02*
X146490475Y-81574059D01*
X146490475Y-81574059D02*
X146528570Y-81612155D01*
X146528570Y-81612155D02*
X146604761Y-81650250D01*
X146604761Y-81650250D02*
X146833332Y-81650250D01*
X146833332Y-81650250D02*
X146909523Y-81612155D01*
X146909523Y-81612155D02*
X146947618Y-81574059D01*
X145499998Y-81650250D02*
X145499998Y-80850250D01*
X145499998Y-80850250D02*
X145309522Y-80850250D01*
X145309522Y-80850250D02*
X145195236Y-80888345D01*
X145195236Y-80888345D02*
X145119046Y-80964535D01*
X145119046Y-80964535D02*
X145080951Y-81040726D01*
X145080951Y-81040726D02*
X145042855Y-81193107D01*
X145042855Y-81193107D02*
X145042855Y-81307393D01*
X145042855Y-81307393D02*
X145080951Y-81459774D01*
X145080951Y-81459774D02*
X145119046Y-81535964D01*
X145119046Y-81535964D02*
X145195236Y-81612155D01*
X145195236Y-81612155D02*
X145309522Y-81650250D01*
X145309522Y-81650250D02*
X145499998Y-81650250D01*
X144738094Y-81421678D02*
X144357141Y-81421678D01*
X144814284Y-81650250D02*
X144547617Y-80850250D01*
X144547617Y-80850250D02*
X144280951Y-81650250D01*
X144128570Y-80850250D02*
X143671427Y-80850250D01*
X143899999Y-81650250D02*
X143899999Y-80850250D01*
X143442856Y-81421678D02*
X143061903Y-81421678D01*
X143519046Y-81650250D02*
X143252379Y-80850250D01*
X143252379Y-80850250D02*
X142985713Y-81650250D01*
X142109522Y-81650250D02*
X142109522Y-80850250D01*
X141157142Y-80812155D02*
X141842856Y-81840726D01*
X140738094Y-80850250D02*
X140585713Y-80850250D01*
X140585713Y-80850250D02*
X140509523Y-80888345D01*
X140509523Y-80888345D02*
X140433332Y-80964535D01*
X140433332Y-80964535D02*
X140395237Y-81116916D01*
X140395237Y-81116916D02*
X140395237Y-81383583D01*
X140395237Y-81383583D02*
X140433332Y-81535964D01*
X140433332Y-81535964D02*
X140509523Y-81612155D01*
X140509523Y-81612155D02*
X140585713Y-81650250D01*
X140585713Y-81650250D02*
X140738094Y-81650250D01*
X140738094Y-81650250D02*
X140814285Y-81612155D01*
X140814285Y-81612155D02*
X140890475Y-81535964D01*
X140890475Y-81535964D02*
X140928571Y-81383583D01*
X140928571Y-81383583D02*
X140928571Y-81116916D01*
X140928571Y-81116916D02*
X140890475Y-80964535D01*
X140890475Y-80964535D02*
X140814285Y-80888345D01*
X140814285Y-80888345D02*
X140738094Y-80850250D01*
X138490475Y-81116916D02*
X138490475Y-81650250D01*
X138680951Y-80812155D02*
X138871428Y-81383583D01*
X138871428Y-81383583D02*
X138376189Y-81383583D01*
X137004760Y-81574059D02*
X137042856Y-81612155D01*
X137042856Y-81612155D02*
X137157141Y-81650250D01*
X137157141Y-81650250D02*
X137233332Y-81650250D01*
X137233332Y-81650250D02*
X137347618Y-81612155D01*
X137347618Y-81612155D02*
X137423808Y-81535964D01*
X137423808Y-81535964D02*
X137461903Y-81459774D01*
X137461903Y-81459774D02*
X137499999Y-81307393D01*
X137499999Y-81307393D02*
X137499999Y-81193107D01*
X137499999Y-81193107D02*
X137461903Y-81040726D01*
X137461903Y-81040726D02*
X137423808Y-80964535D01*
X137423808Y-80964535D02*
X137347618Y-80888345D01*
X137347618Y-80888345D02*
X137233332Y-80850250D01*
X137233332Y-80850250D02*
X137157141Y-80850250D01*
X137157141Y-80850250D02*
X137042856Y-80888345D01*
X137042856Y-80888345D02*
X137004760Y-80926440D01*
X136280951Y-81650250D02*
X136661903Y-81650250D01*
X136661903Y-81650250D02*
X136661903Y-80850250D01*
X135861903Y-80850250D02*
X135709522Y-80850250D01*
X135709522Y-80850250D02*
X135633332Y-80888345D01*
X135633332Y-80888345D02*
X135557141Y-80964535D01*
X135557141Y-80964535D02*
X135519046Y-81116916D01*
X135519046Y-81116916D02*
X135519046Y-81383583D01*
X135519046Y-81383583D02*
X135557141Y-81535964D01*
X135557141Y-81535964D02*
X135633332Y-81612155D01*
X135633332Y-81612155D02*
X135709522Y-81650250D01*
X135709522Y-81650250D02*
X135861903Y-81650250D01*
X135861903Y-81650250D02*
X135938094Y-81612155D01*
X135938094Y-81612155D02*
X136014284Y-81535964D01*
X136014284Y-81535964D02*
X136052380Y-81383583D01*
X136052380Y-81383583D02*
X136052380Y-81116916D01*
X136052380Y-81116916D02*
X136014284Y-80964535D01*
X136014284Y-80964535D02*
X135938094Y-80888345D01*
X135938094Y-80888345D02*
X135861903Y-80850250D01*
X134719046Y-81574059D02*
X134757142Y-81612155D01*
X134757142Y-81612155D02*
X134871427Y-81650250D01*
X134871427Y-81650250D02*
X134947618Y-81650250D01*
X134947618Y-81650250D02*
X135061904Y-81612155D01*
X135061904Y-81612155D02*
X135138094Y-81535964D01*
X135138094Y-81535964D02*
X135176189Y-81459774D01*
X135176189Y-81459774D02*
X135214285Y-81307393D01*
X135214285Y-81307393D02*
X135214285Y-81193107D01*
X135214285Y-81193107D02*
X135176189Y-81040726D01*
X135176189Y-81040726D02*
X135138094Y-80964535D01*
X135138094Y-80964535D02*
X135061904Y-80888345D01*
X135061904Y-80888345D02*
X134947618Y-80850250D01*
X134947618Y-80850250D02*
X134871427Y-80850250D01*
X134871427Y-80850250D02*
X134757142Y-80888345D01*
X134757142Y-80888345D02*
X134719046Y-80926440D01*
X134376189Y-81650250D02*
X134376189Y-80850250D01*
X133919046Y-81650250D02*
X134261904Y-81193107D01*
X133919046Y-80850250D02*
X134376189Y-81307393D01*
X132966665Y-81650250D02*
X132966665Y-80850250D01*
X132585713Y-81650250D02*
X132585713Y-80850250D01*
X132585713Y-80850250D02*
X132128570Y-81650250D01*
X132128570Y-81650250D02*
X132128570Y-80850250D01*
X145714285Y-106418318D02*
X145714285Y-106989746D01*
X145714285Y-106989746D02*
X145752380Y-107104032D01*
X145752380Y-107104032D02*
X145828571Y-107180223D01*
X145828571Y-107180223D02*
X145942856Y-107218318D01*
X145942856Y-107218318D02*
X146019047Y-107218318D01*
X145333332Y-107218318D02*
X145333332Y-106418318D01*
X145333332Y-106418318D02*
X145028570Y-106418318D01*
X145028570Y-106418318D02*
X144952380Y-106456413D01*
X144952380Y-106456413D02*
X144914285Y-106494508D01*
X144914285Y-106494508D02*
X144876189Y-106570699D01*
X144876189Y-106570699D02*
X144876189Y-106684984D01*
X144876189Y-106684984D02*
X144914285Y-106761175D01*
X144914285Y-106761175D02*
X144952380Y-106799270D01*
X144952380Y-106799270D02*
X145028570Y-106837365D01*
X145028570Y-106837365D02*
X145333332Y-106837365D01*
X144609523Y-106418318D02*
X144114285Y-106418318D01*
X144114285Y-106418318D02*
X144380951Y-106723080D01*
X144380951Y-106723080D02*
X144266666Y-106723080D01*
X144266666Y-106723080D02*
X144190475Y-106761175D01*
X144190475Y-106761175D02*
X144152380Y-106799270D01*
X144152380Y-106799270D02*
X144114285Y-106875461D01*
X144114285Y-106875461D02*
X144114285Y-107065937D01*
X144114285Y-107065937D02*
X144152380Y-107142127D01*
X144152380Y-107142127D02*
X144190475Y-107180223D01*
X144190475Y-107180223D02*
X144266666Y-107218318D01*
X144266666Y-107218318D02*
X144495237Y-107218318D01*
X144495237Y-107218318D02*
X144571428Y-107180223D01*
X144571428Y-107180223D02*
X144609523Y-107142127D01*
X143619046Y-106418318D02*
X143542856Y-106418318D01*
X143542856Y-106418318D02*
X143466665Y-106456413D01*
X143466665Y-106456413D02*
X143428570Y-106494508D01*
X143428570Y-106494508D02*
X143390475Y-106570699D01*
X143390475Y-106570699D02*
X143352380Y-106723080D01*
X143352380Y-106723080D02*
X143352380Y-106913556D01*
X143352380Y-106913556D02*
X143390475Y-107065937D01*
X143390475Y-107065937D02*
X143428570Y-107142127D01*
X143428570Y-107142127D02*
X143466665Y-107180223D01*
X143466665Y-107180223D02*
X143542856Y-107218318D01*
X143542856Y-107218318D02*
X143619046Y-107218318D01*
X143619046Y-107218318D02*
X143695237Y-107180223D01*
X143695237Y-107180223D02*
X143733332Y-107142127D01*
X143733332Y-107142127D02*
X143771427Y-107065937D01*
X143771427Y-107065937D02*
X143809523Y-106913556D01*
X143809523Y-106913556D02*
X143809523Y-106723080D01*
X143809523Y-106723080D02*
X143771427Y-106570699D01*
X143771427Y-106570699D02*
X143733332Y-106494508D01*
X143733332Y-106494508D02*
X143695237Y-106456413D01*
X143695237Y-106456413D02*
X143619046Y-106418318D01*
X143085713Y-106418318D02*
X142590475Y-106418318D01*
X142590475Y-106418318D02*
X142857141Y-106723080D01*
X142857141Y-106723080D02*
X142742856Y-106723080D01*
X142742856Y-106723080D02*
X142666665Y-106761175D01*
X142666665Y-106761175D02*
X142628570Y-106799270D01*
X142628570Y-106799270D02*
X142590475Y-106875461D01*
X142590475Y-106875461D02*
X142590475Y-107065937D01*
X142590475Y-107065937D02*
X142628570Y-107142127D01*
X142628570Y-107142127D02*
X142666665Y-107180223D01*
X142666665Y-107180223D02*
X142742856Y-107218318D01*
X142742856Y-107218318D02*
X142971427Y-107218318D01*
X142971427Y-107218318D02*
X143047618Y-107180223D01*
X143047618Y-107180223D02*
X143085713Y-107142127D01*
X141638093Y-107218318D02*
X141638093Y-106418318D01*
X141638093Y-106418318D02*
X141447617Y-106418318D01*
X141447617Y-106418318D02*
X141333331Y-106456413D01*
X141333331Y-106456413D02*
X141257141Y-106532603D01*
X141257141Y-106532603D02*
X141219046Y-106608794D01*
X141219046Y-106608794D02*
X141180950Y-106761175D01*
X141180950Y-106761175D02*
X141180950Y-106875461D01*
X141180950Y-106875461D02*
X141219046Y-107027842D01*
X141219046Y-107027842D02*
X141257141Y-107104032D01*
X141257141Y-107104032D02*
X141333331Y-107180223D01*
X141333331Y-107180223D02*
X141447617Y-107218318D01*
X141447617Y-107218318D02*
X141638093Y-107218318D01*
X140876189Y-106989746D02*
X140495236Y-106989746D01*
X140952379Y-107218318D02*
X140685712Y-106418318D01*
X140685712Y-106418318D02*
X140419046Y-107218318D01*
X140266665Y-106418318D02*
X139809522Y-106418318D01*
X140038094Y-107218318D02*
X140038094Y-106418318D01*
X139580951Y-106989746D02*
X139199998Y-106989746D01*
X139657141Y-107218318D02*
X139390474Y-106418318D01*
X139390474Y-106418318D02*
X139123808Y-107218318D01*
X138247617Y-107218318D02*
X138247617Y-106418318D01*
X138247617Y-106418318D02*
X137942855Y-106418318D01*
X137942855Y-106418318D02*
X137866665Y-106456413D01*
X137866665Y-106456413D02*
X137828570Y-106494508D01*
X137828570Y-106494508D02*
X137790474Y-106570699D01*
X137790474Y-106570699D02*
X137790474Y-106684984D01*
X137790474Y-106684984D02*
X137828570Y-106761175D01*
X137828570Y-106761175D02*
X137866665Y-106799270D01*
X137866665Y-106799270D02*
X137942855Y-106837365D01*
X137942855Y-106837365D02*
X138247617Y-106837365D01*
X137447617Y-106418318D02*
X137447617Y-107065937D01*
X137447617Y-107065937D02*
X137409522Y-107142127D01*
X137409522Y-107142127D02*
X137371427Y-107180223D01*
X137371427Y-107180223D02*
X137295236Y-107218318D01*
X137295236Y-107218318D02*
X137142855Y-107218318D01*
X137142855Y-107218318D02*
X137066665Y-107180223D01*
X137066665Y-107180223D02*
X137028570Y-107142127D01*
X137028570Y-107142127D02*
X136990474Y-107065937D01*
X136990474Y-107065937D02*
X136990474Y-106418318D01*
X136228570Y-107218318D02*
X136609522Y-107218318D01*
X136609522Y-107218318D02*
X136609522Y-106418318D01*
X135580951Y-107218318D02*
X135961903Y-107218318D01*
X135961903Y-107218318D02*
X135961903Y-106418318D01*
X135314284Y-106418318D02*
X135314284Y-107065937D01*
X135314284Y-107065937D02*
X135276189Y-107142127D01*
X135276189Y-107142127D02*
X135238094Y-107180223D01*
X135238094Y-107180223D02*
X135161903Y-107218318D01*
X135161903Y-107218318D02*
X135009522Y-107218318D01*
X135009522Y-107218318D02*
X134933332Y-107180223D01*
X134933332Y-107180223D02*
X134895237Y-107142127D01*
X134895237Y-107142127D02*
X134857141Y-107065937D01*
X134857141Y-107065937D02*
X134857141Y-106418318D01*
X134476189Y-107218318D02*
X134476189Y-106418318D01*
X134476189Y-106418318D02*
X134171427Y-106418318D01*
X134171427Y-106418318D02*
X134095237Y-106456413D01*
X134095237Y-106456413D02*
X134057142Y-106494508D01*
X134057142Y-106494508D02*
X134019046Y-106570699D01*
X134019046Y-106570699D02*
X134019046Y-106684984D01*
X134019046Y-106684984D02*
X134057142Y-106761175D01*
X134057142Y-106761175D02*
X134095237Y-106799270D01*
X134095237Y-106799270D02*
X134171427Y-106837365D01*
X134171427Y-106837365D02*
X134476189Y-106837365D01*
X146380952Y-108506273D02*
X146838095Y-108506273D01*
X146609523Y-108506273D02*
X146609523Y-107706273D01*
X146609523Y-107706273D02*
X146685714Y-107820558D01*
X146685714Y-107820558D02*
X146761904Y-107896749D01*
X146761904Y-107896749D02*
X146838095Y-107934844D01*
X145428570Y-108506273D02*
X145428570Y-107706273D01*
X145428570Y-107706273D02*
X145123808Y-107706273D01*
X145123808Y-107706273D02*
X145047618Y-107744368D01*
X145047618Y-107744368D02*
X145009523Y-107782463D01*
X145009523Y-107782463D02*
X144971427Y-107858654D01*
X144971427Y-107858654D02*
X144971427Y-107972939D01*
X144971427Y-107972939D02*
X145009523Y-108049130D01*
X145009523Y-108049130D02*
X145047618Y-108087225D01*
X145047618Y-108087225D02*
X145123808Y-108125320D01*
X145123808Y-108125320D02*
X145428570Y-108125320D01*
X144628570Y-107706273D02*
X144628570Y-108353892D01*
X144628570Y-108353892D02*
X144590475Y-108430082D01*
X144590475Y-108430082D02*
X144552380Y-108468178D01*
X144552380Y-108468178D02*
X144476189Y-108506273D01*
X144476189Y-108506273D02*
X144323808Y-108506273D01*
X144323808Y-108506273D02*
X144247618Y-108468178D01*
X144247618Y-108468178D02*
X144209523Y-108430082D01*
X144209523Y-108430082D02*
X144171427Y-108353892D01*
X144171427Y-108353892D02*
X144171427Y-107706273D01*
X143409523Y-108506273D02*
X143790475Y-108506273D01*
X143790475Y-108506273D02*
X143790475Y-107706273D01*
X142761904Y-108506273D02*
X143142856Y-108506273D01*
X143142856Y-108506273D02*
X143142856Y-107706273D01*
X142495237Y-107706273D02*
X142495237Y-108353892D01*
X142495237Y-108353892D02*
X142457142Y-108430082D01*
X142457142Y-108430082D02*
X142419047Y-108468178D01*
X142419047Y-108468178D02*
X142342856Y-108506273D01*
X142342856Y-108506273D02*
X142190475Y-108506273D01*
X142190475Y-108506273D02*
X142114285Y-108468178D01*
X142114285Y-108468178D02*
X142076190Y-108430082D01*
X142076190Y-108430082D02*
X142038094Y-108353892D01*
X142038094Y-108353892D02*
X142038094Y-107706273D01*
X141657142Y-108506273D02*
X141657142Y-107706273D01*
X141657142Y-107706273D02*
X141352380Y-107706273D01*
X141352380Y-107706273D02*
X141276190Y-107744368D01*
X141276190Y-107744368D02*
X141238095Y-107782463D01*
X141238095Y-107782463D02*
X141199999Y-107858654D01*
X141199999Y-107858654D02*
X141199999Y-107972939D01*
X141199999Y-107972939D02*
X141238095Y-108049130D01*
X141238095Y-108049130D02*
X141276190Y-108087225D01*
X141276190Y-108087225D02*
X141352380Y-108125320D01*
X141352380Y-108125320D02*
X141657142Y-108125320D01*
X139676190Y-107782463D02*
X139638094Y-107744368D01*
X139638094Y-107744368D02*
X139561904Y-107706273D01*
X139561904Y-107706273D02*
X139371428Y-107706273D01*
X139371428Y-107706273D02*
X139295237Y-107744368D01*
X139295237Y-107744368D02*
X139257142Y-107782463D01*
X139257142Y-107782463D02*
X139219047Y-107858654D01*
X139219047Y-107858654D02*
X139219047Y-107934844D01*
X139219047Y-107934844D02*
X139257142Y-108049130D01*
X139257142Y-108049130D02*
X139714285Y-108506273D01*
X139714285Y-108506273D02*
X139219047Y-108506273D01*
X138266665Y-108506273D02*
X138266665Y-107706273D01*
X138266665Y-107706273D02*
X138076189Y-107706273D01*
X138076189Y-107706273D02*
X137961903Y-107744368D01*
X137961903Y-107744368D02*
X137885713Y-107820558D01*
X137885713Y-107820558D02*
X137847618Y-107896749D01*
X137847618Y-107896749D02*
X137809522Y-108049130D01*
X137809522Y-108049130D02*
X137809522Y-108163416D01*
X137809522Y-108163416D02*
X137847618Y-108315797D01*
X137847618Y-108315797D02*
X137885713Y-108391987D01*
X137885713Y-108391987D02*
X137961903Y-108468178D01*
X137961903Y-108468178D02*
X138076189Y-108506273D01*
X138076189Y-108506273D02*
X138266665Y-108506273D01*
X137504761Y-108277701D02*
X137123808Y-108277701D01*
X137580951Y-108506273D02*
X137314284Y-107706273D01*
X137314284Y-107706273D02*
X137047618Y-108506273D01*
X136895237Y-107706273D02*
X136438094Y-107706273D01*
X136666666Y-108506273D02*
X136666666Y-107706273D01*
X136209523Y-108277701D02*
X135828570Y-108277701D01*
X136285713Y-108506273D02*
X136019046Y-107706273D01*
X136019046Y-107706273D02*
X135752380Y-108506273D01*
X134876189Y-108506273D02*
X134876189Y-107706273D01*
X133923809Y-107668178D02*
X134609523Y-108696749D01*
X133504761Y-107706273D02*
X133352380Y-107706273D01*
X133352380Y-107706273D02*
X133276190Y-107744368D01*
X133276190Y-107744368D02*
X133199999Y-107820558D01*
X133199999Y-107820558D02*
X133161904Y-107972939D01*
X133161904Y-107972939D02*
X133161904Y-108239606D01*
X133161904Y-108239606D02*
X133199999Y-108391987D01*
X133199999Y-108391987D02*
X133276190Y-108468178D01*
X133276190Y-108468178D02*
X133352380Y-108506273D01*
X133352380Y-108506273D02*
X133504761Y-108506273D01*
X133504761Y-108506273D02*
X133580952Y-108468178D01*
X133580952Y-108468178D02*
X133657142Y-108391987D01*
X133657142Y-108391987D02*
X133695238Y-108239606D01*
X133695238Y-108239606D02*
X133695238Y-107972939D01*
X133695238Y-107972939D02*
X133657142Y-107820558D01*
X133657142Y-107820558D02*
X133580952Y-107744368D01*
X133580952Y-107744368D02*
X133504761Y-107706273D01*
X71839523Y-84602295D02*
X72220475Y-84602295D01*
X72220475Y-84602295D02*
X72258571Y-84983247D01*
X72258571Y-84983247D02*
X72220475Y-84945152D01*
X72220475Y-84945152D02*
X72144285Y-84907057D01*
X72144285Y-84907057D02*
X71953809Y-84907057D01*
X71953809Y-84907057D02*
X71877618Y-84945152D01*
X71877618Y-84945152D02*
X71839523Y-84983247D01*
X71839523Y-84983247D02*
X71801428Y-85059438D01*
X71801428Y-85059438D02*
X71801428Y-85249914D01*
X71801428Y-85249914D02*
X71839523Y-85326104D01*
X71839523Y-85326104D02*
X71877618Y-85364200D01*
X71877618Y-85364200D02*
X71953809Y-85402295D01*
X71953809Y-85402295D02*
X72144285Y-85402295D01*
X72144285Y-85402295D02*
X72220475Y-85364200D01*
X72220475Y-85364200D02*
X72258571Y-85326104D01*
X108104761Y-88062295D02*
X108104761Y-88633723D01*
X108104761Y-88633723D02*
X108142856Y-88748009D01*
X108142856Y-88748009D02*
X108219047Y-88824200D01*
X108219047Y-88824200D02*
X108333332Y-88862295D01*
X108333332Y-88862295D02*
X108409523Y-88862295D01*
X107723808Y-88862295D02*
X107723808Y-88062295D01*
X107723808Y-88062295D02*
X107419046Y-88062295D01*
X107419046Y-88062295D02*
X107342856Y-88100390D01*
X107342856Y-88100390D02*
X107304761Y-88138485D01*
X107304761Y-88138485D02*
X107266665Y-88214676D01*
X107266665Y-88214676D02*
X107266665Y-88328961D01*
X107266665Y-88328961D02*
X107304761Y-88405152D01*
X107304761Y-88405152D02*
X107342856Y-88443247D01*
X107342856Y-88443247D02*
X107419046Y-88481342D01*
X107419046Y-88481342D02*
X107723808Y-88481342D01*
X106923808Y-88443247D02*
X106314285Y-88443247D01*
X106314285Y-88671819D02*
X106923808Y-88671819D01*
X105971428Y-88824200D02*
X105857142Y-88862295D01*
X105857142Y-88862295D02*
X105666666Y-88862295D01*
X105666666Y-88862295D02*
X105590475Y-88824200D01*
X105590475Y-88824200D02*
X105552380Y-88786104D01*
X105552380Y-88786104D02*
X105514285Y-88709914D01*
X105514285Y-88709914D02*
X105514285Y-88633723D01*
X105514285Y-88633723D02*
X105552380Y-88557533D01*
X105552380Y-88557533D02*
X105590475Y-88519438D01*
X105590475Y-88519438D02*
X105666666Y-88481342D01*
X105666666Y-88481342D02*
X105819047Y-88443247D01*
X105819047Y-88443247D02*
X105895237Y-88405152D01*
X105895237Y-88405152D02*
X105933332Y-88367057D01*
X105933332Y-88367057D02*
X105971428Y-88290866D01*
X105971428Y-88290866D02*
X105971428Y-88214676D01*
X105971428Y-88214676D02*
X105933332Y-88138485D01*
X105933332Y-88138485D02*
X105895237Y-88100390D01*
X105895237Y-88100390D02*
X105819047Y-88062295D01*
X105819047Y-88062295D02*
X105628570Y-88062295D01*
X105628570Y-88062295D02*
X105514285Y-88100390D01*
X105171427Y-88862295D02*
X105171427Y-88062295D01*
X105171427Y-88443247D02*
X104714284Y-88443247D01*
X104714284Y-88862295D02*
X104714284Y-88062295D01*
X104333332Y-88062295D02*
X104333332Y-88709914D01*
X104333332Y-88709914D02*
X104295237Y-88786104D01*
X104295237Y-88786104D02*
X104257142Y-88824200D01*
X104257142Y-88824200D02*
X104180951Y-88862295D01*
X104180951Y-88862295D02*
X104028570Y-88862295D01*
X104028570Y-88862295D02*
X103952380Y-88824200D01*
X103952380Y-88824200D02*
X103914285Y-88786104D01*
X103914285Y-88786104D02*
X103876189Y-88709914D01*
X103876189Y-88709914D02*
X103876189Y-88062295D01*
X103495237Y-88862295D02*
X103495237Y-88062295D01*
X103495237Y-88062295D02*
X103038094Y-88862295D01*
X103038094Y-88862295D02*
X103038094Y-88062295D01*
X102771428Y-88062295D02*
X102314285Y-88062295D01*
X102542857Y-88862295D02*
X102542857Y-88062295D01*
X102085714Y-88824200D02*
X101971428Y-88862295D01*
X101971428Y-88862295D02*
X101780952Y-88862295D01*
X101780952Y-88862295D02*
X101704761Y-88824200D01*
X101704761Y-88824200D02*
X101666666Y-88786104D01*
X101666666Y-88786104D02*
X101628571Y-88709914D01*
X101628571Y-88709914D02*
X101628571Y-88633723D01*
X101628571Y-88633723D02*
X101666666Y-88557533D01*
X101666666Y-88557533D02*
X101704761Y-88519438D01*
X101704761Y-88519438D02*
X101780952Y-88481342D01*
X101780952Y-88481342D02*
X101933333Y-88443247D01*
X101933333Y-88443247D02*
X102009523Y-88405152D01*
X102009523Y-88405152D02*
X102047618Y-88367057D01*
X102047618Y-88367057D02*
X102085714Y-88290866D01*
X102085714Y-88290866D02*
X102085714Y-88214676D01*
X102085714Y-88214676D02*
X102047618Y-88138485D01*
X102047618Y-88138485D02*
X102009523Y-88100390D01*
X102009523Y-88100390D02*
X101933333Y-88062295D01*
X101933333Y-88062295D02*
X101742856Y-88062295D01*
X101742856Y-88062295D02*
X101628571Y-88100390D01*
X151428571Y-120792295D02*
X151428571Y-121363723D01*
X151428571Y-121363723D02*
X151466666Y-121478009D01*
X151466666Y-121478009D02*
X151542857Y-121554200D01*
X151542857Y-121554200D02*
X151657142Y-121592295D01*
X151657142Y-121592295D02*
X151733333Y-121592295D01*
X151047618Y-121592295D02*
X151047618Y-120792295D01*
X151047618Y-120792295D02*
X150742856Y-120792295D01*
X150742856Y-120792295D02*
X150666666Y-120830390D01*
X150666666Y-120830390D02*
X150628571Y-120868485D01*
X150628571Y-120868485D02*
X150590475Y-120944676D01*
X150590475Y-120944676D02*
X150590475Y-121058961D01*
X150590475Y-121058961D02*
X150628571Y-121135152D01*
X150628571Y-121135152D02*
X150666666Y-121173247D01*
X150666666Y-121173247D02*
X150742856Y-121211342D01*
X150742856Y-121211342D02*
X151047618Y-121211342D01*
X150323809Y-120792295D02*
X149828571Y-120792295D01*
X149828571Y-120792295D02*
X150095237Y-121097057D01*
X150095237Y-121097057D02*
X149980952Y-121097057D01*
X149980952Y-121097057D02*
X149904761Y-121135152D01*
X149904761Y-121135152D02*
X149866666Y-121173247D01*
X149866666Y-121173247D02*
X149828571Y-121249438D01*
X149828571Y-121249438D02*
X149828571Y-121439914D01*
X149828571Y-121439914D02*
X149866666Y-121516104D01*
X149866666Y-121516104D02*
X149904761Y-121554200D01*
X149904761Y-121554200D02*
X149980952Y-121592295D01*
X149980952Y-121592295D02*
X150209523Y-121592295D01*
X150209523Y-121592295D02*
X150285714Y-121554200D01*
X150285714Y-121554200D02*
X150323809Y-121516104D01*
X149333332Y-120792295D02*
X149257142Y-120792295D01*
X149257142Y-120792295D02*
X149180951Y-120830390D01*
X149180951Y-120830390D02*
X149142856Y-120868485D01*
X149142856Y-120868485D02*
X149104761Y-120944676D01*
X149104761Y-120944676D02*
X149066666Y-121097057D01*
X149066666Y-121097057D02*
X149066666Y-121287533D01*
X149066666Y-121287533D02*
X149104761Y-121439914D01*
X149104761Y-121439914D02*
X149142856Y-121516104D01*
X149142856Y-121516104D02*
X149180951Y-121554200D01*
X149180951Y-121554200D02*
X149257142Y-121592295D01*
X149257142Y-121592295D02*
X149333332Y-121592295D01*
X149333332Y-121592295D02*
X149409523Y-121554200D01*
X149409523Y-121554200D02*
X149447618Y-121516104D01*
X149447618Y-121516104D02*
X149485713Y-121439914D01*
X149485713Y-121439914D02*
X149523809Y-121287533D01*
X149523809Y-121287533D02*
X149523809Y-121097057D01*
X149523809Y-121097057D02*
X149485713Y-120944676D01*
X149485713Y-120944676D02*
X149447618Y-120868485D01*
X149447618Y-120868485D02*
X149409523Y-120830390D01*
X149409523Y-120830390D02*
X149333332Y-120792295D01*
X148380951Y-121058961D02*
X148380951Y-121592295D01*
X148571427Y-120754200D02*
X148761904Y-121325628D01*
X148761904Y-121325628D02*
X148266665Y-121325628D01*
X92709524Y-80130363D02*
X92709524Y-80701791D01*
X92709524Y-80701791D02*
X92747619Y-80816077D01*
X92747619Y-80816077D02*
X92823810Y-80892268D01*
X92823810Y-80892268D02*
X92938095Y-80930363D01*
X92938095Y-80930363D02*
X93014286Y-80930363D01*
X92328571Y-80930363D02*
X92328571Y-80130363D01*
X92328571Y-80130363D02*
X92023809Y-80130363D01*
X92023809Y-80130363D02*
X91947619Y-80168458D01*
X91947619Y-80168458D02*
X91909524Y-80206553D01*
X91909524Y-80206553D02*
X91871428Y-80282744D01*
X91871428Y-80282744D02*
X91871428Y-80397029D01*
X91871428Y-80397029D02*
X91909524Y-80473220D01*
X91909524Y-80473220D02*
X91947619Y-80511315D01*
X91947619Y-80511315D02*
X92023809Y-80549410D01*
X92023809Y-80549410D02*
X92328571Y-80549410D01*
X91604762Y-80130363D02*
X91109524Y-80130363D01*
X91109524Y-80130363D02*
X91376190Y-80435125D01*
X91376190Y-80435125D02*
X91261905Y-80435125D01*
X91261905Y-80435125D02*
X91185714Y-80473220D01*
X91185714Y-80473220D02*
X91147619Y-80511315D01*
X91147619Y-80511315D02*
X91109524Y-80587506D01*
X91109524Y-80587506D02*
X91109524Y-80777982D01*
X91109524Y-80777982D02*
X91147619Y-80854172D01*
X91147619Y-80854172D02*
X91185714Y-80892268D01*
X91185714Y-80892268D02*
X91261905Y-80930363D01*
X91261905Y-80930363D02*
X91490476Y-80930363D01*
X91490476Y-80930363D02*
X91566667Y-80892268D01*
X91566667Y-80892268D02*
X91604762Y-80854172D01*
X90614285Y-80130363D02*
X90538095Y-80130363D01*
X90538095Y-80130363D02*
X90461904Y-80168458D01*
X90461904Y-80168458D02*
X90423809Y-80206553D01*
X90423809Y-80206553D02*
X90385714Y-80282744D01*
X90385714Y-80282744D02*
X90347619Y-80435125D01*
X90347619Y-80435125D02*
X90347619Y-80625601D01*
X90347619Y-80625601D02*
X90385714Y-80777982D01*
X90385714Y-80777982D02*
X90423809Y-80854172D01*
X90423809Y-80854172D02*
X90461904Y-80892268D01*
X90461904Y-80892268D02*
X90538095Y-80930363D01*
X90538095Y-80930363D02*
X90614285Y-80930363D01*
X90614285Y-80930363D02*
X90690476Y-80892268D01*
X90690476Y-80892268D02*
X90728571Y-80854172D01*
X90728571Y-80854172D02*
X90766666Y-80777982D01*
X90766666Y-80777982D02*
X90804762Y-80625601D01*
X90804762Y-80625601D02*
X90804762Y-80435125D01*
X90804762Y-80435125D02*
X90766666Y-80282744D01*
X90766666Y-80282744D02*
X90728571Y-80206553D01*
X90728571Y-80206553D02*
X90690476Y-80168458D01*
X90690476Y-80168458D02*
X90614285Y-80130363D01*
X89585714Y-80930363D02*
X90042857Y-80930363D01*
X89814285Y-80930363D02*
X89814285Y-80130363D01*
X89814285Y-80130363D02*
X89890476Y-80244648D01*
X89890476Y-80244648D02*
X89966666Y-80320839D01*
X89966666Y-80320839D02*
X90042857Y-80358934D01*
X88633332Y-80930363D02*
X88633332Y-80130363D01*
X88633332Y-80130363D02*
X88328570Y-80130363D01*
X88328570Y-80130363D02*
X88252380Y-80168458D01*
X88252380Y-80168458D02*
X88214285Y-80206553D01*
X88214285Y-80206553D02*
X88176189Y-80282744D01*
X88176189Y-80282744D02*
X88176189Y-80397029D01*
X88176189Y-80397029D02*
X88214285Y-80473220D01*
X88214285Y-80473220D02*
X88252380Y-80511315D01*
X88252380Y-80511315D02*
X88328570Y-80549410D01*
X88328570Y-80549410D02*
X88633332Y-80549410D01*
X87833332Y-80511315D02*
X87566666Y-80511315D01*
X87452380Y-80930363D02*
X87833332Y-80930363D01*
X87833332Y-80930363D02*
X87833332Y-80130363D01*
X87833332Y-80130363D02*
X87452380Y-80130363D01*
X87109522Y-80930363D02*
X87109522Y-80130363D01*
X87109522Y-80130363D02*
X86919046Y-80130363D01*
X86919046Y-80130363D02*
X86804760Y-80168458D01*
X86804760Y-80168458D02*
X86728570Y-80244648D01*
X86728570Y-80244648D02*
X86690475Y-80320839D01*
X86690475Y-80320839D02*
X86652379Y-80473220D01*
X86652379Y-80473220D02*
X86652379Y-80587506D01*
X86652379Y-80587506D02*
X86690475Y-80739887D01*
X86690475Y-80739887D02*
X86728570Y-80816077D01*
X86728570Y-80816077D02*
X86804760Y-80892268D01*
X86804760Y-80892268D02*
X86919046Y-80930363D01*
X86919046Y-80930363D02*
X87109522Y-80930363D01*
X86347618Y-80701791D02*
X85966665Y-80701791D01*
X86423808Y-80930363D02*
X86157141Y-80130363D01*
X86157141Y-80130363D02*
X85890475Y-80930363D01*
X85242856Y-80930363D02*
X85623808Y-80930363D01*
X85623808Y-80930363D02*
X85623808Y-80130363D01*
X84138094Y-80130363D02*
X84138094Y-80701791D01*
X84138094Y-80701791D02*
X84176189Y-80816077D01*
X84176189Y-80816077D02*
X84252380Y-80892268D01*
X84252380Y-80892268D02*
X84366665Y-80930363D01*
X84366665Y-80930363D02*
X84442856Y-80930363D01*
X83757141Y-80130363D02*
X83757141Y-80777982D01*
X83757141Y-80777982D02*
X83719046Y-80854172D01*
X83719046Y-80854172D02*
X83680951Y-80892268D01*
X83680951Y-80892268D02*
X83604760Y-80930363D01*
X83604760Y-80930363D02*
X83452379Y-80930363D01*
X83452379Y-80930363D02*
X83376189Y-80892268D01*
X83376189Y-80892268D02*
X83338094Y-80854172D01*
X83338094Y-80854172D02*
X83299998Y-80777982D01*
X83299998Y-80777982D02*
X83299998Y-80130363D01*
X82919046Y-80930363D02*
X82919046Y-80130363D01*
X82919046Y-80130363D02*
X82652380Y-80701791D01*
X82652380Y-80701791D02*
X82385713Y-80130363D01*
X82385713Y-80130363D02*
X82385713Y-80930363D01*
X82004760Y-80930363D02*
X82004760Y-80130363D01*
X82004760Y-80130363D02*
X81699998Y-80130363D01*
X81699998Y-80130363D02*
X81623808Y-80168458D01*
X81623808Y-80168458D02*
X81585713Y-80206553D01*
X81585713Y-80206553D02*
X81547617Y-80282744D01*
X81547617Y-80282744D02*
X81547617Y-80397029D01*
X81547617Y-80397029D02*
X81585713Y-80473220D01*
X81585713Y-80473220D02*
X81623808Y-80511315D01*
X81623808Y-80511315D02*
X81699998Y-80549410D01*
X81699998Y-80549410D02*
X82004760Y-80549410D01*
X81204760Y-80511315D02*
X80938094Y-80511315D01*
X80823808Y-80930363D02*
X81204760Y-80930363D01*
X81204760Y-80930363D02*
X81204760Y-80130363D01*
X81204760Y-80130363D02*
X80823808Y-80130363D01*
X80023807Y-80930363D02*
X80290474Y-80549410D01*
X80480950Y-80930363D02*
X80480950Y-80130363D01*
X80480950Y-80130363D02*
X80176188Y-80130363D01*
X80176188Y-80130363D02*
X80099998Y-80168458D01*
X80099998Y-80168458D02*
X80061903Y-80206553D01*
X80061903Y-80206553D02*
X80023807Y-80282744D01*
X80023807Y-80282744D02*
X80023807Y-80397029D01*
X80023807Y-80397029D02*
X80061903Y-80473220D01*
X80061903Y-80473220D02*
X80099998Y-80511315D01*
X80099998Y-80511315D02*
X80176188Y-80549410D01*
X80176188Y-80549410D02*
X80480950Y-80549410D01*
X90480952Y-82218318D02*
X90938095Y-82218318D01*
X90709523Y-82218318D02*
X90709523Y-81418318D01*
X90709523Y-81418318D02*
X90785714Y-81532603D01*
X90785714Y-81532603D02*
X90861904Y-81608794D01*
X90861904Y-81608794D02*
X90938095Y-81646889D01*
X89642856Y-81418318D02*
X89185713Y-81418318D01*
X89414285Y-82218318D02*
X89414285Y-81418318D01*
X88919046Y-82218318D02*
X88919046Y-81418318D01*
X88538094Y-82218318D02*
X88538094Y-81418318D01*
X88538094Y-81418318D02*
X88233332Y-81418318D01*
X88233332Y-81418318D02*
X88157142Y-81456413D01*
X88157142Y-81456413D02*
X88119047Y-81494508D01*
X88119047Y-81494508D02*
X88080951Y-81570699D01*
X88080951Y-81570699D02*
X88080951Y-81684984D01*
X88080951Y-81684984D02*
X88119047Y-81761175D01*
X88119047Y-81761175D02*
X88157142Y-81799270D01*
X88157142Y-81799270D02*
X88233332Y-81837365D01*
X88233332Y-81837365D02*
X88538094Y-81837365D01*
X85947618Y-81494508D02*
X85909522Y-81456413D01*
X85909522Y-81456413D02*
X85833332Y-81418318D01*
X85833332Y-81418318D02*
X85642856Y-81418318D01*
X85642856Y-81418318D02*
X85566665Y-81456413D01*
X85566665Y-81456413D02*
X85528570Y-81494508D01*
X85528570Y-81494508D02*
X85490475Y-81570699D01*
X85490475Y-81570699D02*
X85490475Y-81646889D01*
X85490475Y-81646889D02*
X85528570Y-81761175D01*
X85528570Y-81761175D02*
X85985713Y-82218318D01*
X85985713Y-82218318D02*
X85490475Y-82218318D01*
X84080950Y-82218318D02*
X84347617Y-81837365D01*
X84538093Y-82218318D02*
X84538093Y-81418318D01*
X84538093Y-81418318D02*
X84233331Y-81418318D01*
X84233331Y-81418318D02*
X84157141Y-81456413D01*
X84157141Y-81456413D02*
X84119046Y-81494508D01*
X84119046Y-81494508D02*
X84080950Y-81570699D01*
X84080950Y-81570699D02*
X84080950Y-81684984D01*
X84080950Y-81684984D02*
X84119046Y-81761175D01*
X84119046Y-81761175D02*
X84157141Y-81799270D01*
X84157141Y-81799270D02*
X84233331Y-81837365D01*
X84233331Y-81837365D02*
X84538093Y-81837365D01*
X83738093Y-82218318D02*
X83738093Y-81418318D01*
X83357141Y-82218318D02*
X83357141Y-81418318D01*
X83357141Y-81418318D02*
X82899998Y-82218318D01*
X82899998Y-82218318D02*
X82899998Y-81418318D01*
X82099999Y-81456413D02*
X82176189Y-81418318D01*
X82176189Y-81418318D02*
X82290475Y-81418318D01*
X82290475Y-81418318D02*
X82404761Y-81456413D01*
X82404761Y-81456413D02*
X82480951Y-81532603D01*
X82480951Y-81532603D02*
X82519046Y-81608794D01*
X82519046Y-81608794D02*
X82557142Y-81761175D01*
X82557142Y-81761175D02*
X82557142Y-81875461D01*
X82557142Y-81875461D02*
X82519046Y-82027842D01*
X82519046Y-82027842D02*
X82480951Y-82104032D01*
X82480951Y-82104032D02*
X82404761Y-82180223D01*
X82404761Y-82180223D02*
X82290475Y-82218318D01*
X82290475Y-82218318D02*
X82214284Y-82218318D01*
X82214284Y-82218318D02*
X82099999Y-82180223D01*
X82099999Y-82180223D02*
X82061903Y-82142127D01*
X82061903Y-82142127D02*
X82061903Y-81875461D01*
X82061903Y-81875461D02*
X82214284Y-81875461D01*
X93700000Y-82706273D02*
X93204762Y-82706273D01*
X93204762Y-82706273D02*
X93471428Y-83011035D01*
X93471428Y-83011035D02*
X93357143Y-83011035D01*
X93357143Y-83011035D02*
X93280952Y-83049130D01*
X93280952Y-83049130D02*
X93242857Y-83087225D01*
X93242857Y-83087225D02*
X93204762Y-83163416D01*
X93204762Y-83163416D02*
X93204762Y-83353892D01*
X93204762Y-83353892D02*
X93242857Y-83430082D01*
X93242857Y-83430082D02*
X93280952Y-83468178D01*
X93280952Y-83468178D02*
X93357143Y-83506273D01*
X93357143Y-83506273D02*
X93585714Y-83506273D01*
X93585714Y-83506273D02*
X93661905Y-83468178D01*
X93661905Y-83468178D02*
X93700000Y-83430082D01*
X92252380Y-83506273D02*
X92252380Y-82706273D01*
X92252380Y-82706273D02*
X91947618Y-82706273D01*
X91947618Y-82706273D02*
X91871428Y-82744368D01*
X91871428Y-82744368D02*
X91833333Y-82782463D01*
X91833333Y-82782463D02*
X91795237Y-82858654D01*
X91795237Y-82858654D02*
X91795237Y-82972939D01*
X91795237Y-82972939D02*
X91833333Y-83049130D01*
X91833333Y-83049130D02*
X91871428Y-83087225D01*
X91871428Y-83087225D02*
X91947618Y-83125320D01*
X91947618Y-83125320D02*
X92252380Y-83125320D01*
X91452380Y-83087225D02*
X91185714Y-83087225D01*
X91071428Y-83506273D02*
X91452380Y-83506273D01*
X91452380Y-83506273D02*
X91452380Y-82706273D01*
X91452380Y-82706273D02*
X91071428Y-82706273D01*
X90728570Y-83506273D02*
X90728570Y-82706273D01*
X90728570Y-82706273D02*
X90538094Y-82706273D01*
X90538094Y-82706273D02*
X90423808Y-82744368D01*
X90423808Y-82744368D02*
X90347618Y-82820558D01*
X90347618Y-82820558D02*
X90309523Y-82896749D01*
X90309523Y-82896749D02*
X90271427Y-83049130D01*
X90271427Y-83049130D02*
X90271427Y-83163416D01*
X90271427Y-83163416D02*
X90309523Y-83315797D01*
X90309523Y-83315797D02*
X90347618Y-83391987D01*
X90347618Y-83391987D02*
X90423808Y-83468178D01*
X90423808Y-83468178D02*
X90538094Y-83506273D01*
X90538094Y-83506273D02*
X90728570Y-83506273D01*
X89966666Y-83277701D02*
X89585713Y-83277701D01*
X90042856Y-83506273D02*
X89776189Y-82706273D01*
X89776189Y-82706273D02*
X89509523Y-83506273D01*
X88861904Y-83506273D02*
X89242856Y-83506273D01*
X89242856Y-83506273D02*
X89242856Y-82706273D01*
X87985713Y-83506273D02*
X87985713Y-82706273D01*
X87604761Y-83506273D02*
X87604761Y-82706273D01*
X87604761Y-82706273D02*
X87147618Y-83506273D01*
X87147618Y-83506273D02*
X87147618Y-82706273D01*
X85204761Y-82972939D02*
X85204761Y-83506273D01*
X85395237Y-82668178D02*
X85585714Y-83239606D01*
X85585714Y-83239606D02*
X85090475Y-83239606D01*
X84176189Y-83087225D02*
X83909523Y-83087225D01*
X83795237Y-83506273D02*
X84176189Y-83506273D01*
X84176189Y-83506273D02*
X84176189Y-82706273D01*
X84176189Y-82706273D02*
X83795237Y-82706273D01*
X83528570Y-82706273D02*
X82995236Y-83506273D01*
X82995236Y-82706273D02*
X83528570Y-83506273D01*
X82233331Y-83430082D02*
X82271427Y-83468178D01*
X82271427Y-83468178D02*
X82385712Y-83506273D01*
X82385712Y-83506273D02*
X82461903Y-83506273D01*
X82461903Y-83506273D02*
X82576189Y-83468178D01*
X82576189Y-83468178D02*
X82652379Y-83391987D01*
X82652379Y-83391987D02*
X82690474Y-83315797D01*
X82690474Y-83315797D02*
X82728570Y-83163416D01*
X82728570Y-83163416D02*
X82728570Y-83049130D01*
X82728570Y-83049130D02*
X82690474Y-82896749D01*
X82690474Y-82896749D02*
X82652379Y-82820558D01*
X82652379Y-82820558D02*
X82576189Y-82744368D01*
X82576189Y-82744368D02*
X82461903Y-82706273D01*
X82461903Y-82706273D02*
X82385712Y-82706273D01*
X82385712Y-82706273D02*
X82271427Y-82744368D01*
X82271427Y-82744368D02*
X82233331Y-82782463D01*
X81128569Y-82706273D02*
X80976188Y-82706273D01*
X80976188Y-82706273D02*
X80899998Y-82744368D01*
X80899998Y-82744368D02*
X80823807Y-82820558D01*
X80823807Y-82820558D02*
X80785712Y-82972939D01*
X80785712Y-82972939D02*
X80785712Y-83239606D01*
X80785712Y-83239606D02*
X80823807Y-83391987D01*
X80823807Y-83391987D02*
X80899998Y-83468178D01*
X80899998Y-83468178D02*
X80976188Y-83506273D01*
X80976188Y-83506273D02*
X81128569Y-83506273D01*
X81128569Y-83506273D02*
X81204760Y-83468178D01*
X81204760Y-83468178D02*
X81280950Y-83391987D01*
X81280950Y-83391987D02*
X81319046Y-83239606D01*
X81319046Y-83239606D02*
X81319046Y-82972939D01*
X81319046Y-82972939D02*
X81280950Y-82820558D01*
X81280950Y-82820558D02*
X81204760Y-82744368D01*
X81204760Y-82744368D02*
X81128569Y-82706273D01*
X80442855Y-82706273D02*
X80442855Y-83353892D01*
X80442855Y-83353892D02*
X80404760Y-83430082D01*
X80404760Y-83430082D02*
X80366665Y-83468178D01*
X80366665Y-83468178D02*
X80290474Y-83506273D01*
X80290474Y-83506273D02*
X80138093Y-83506273D01*
X80138093Y-83506273D02*
X80061903Y-83468178D01*
X80061903Y-83468178D02*
X80023808Y-83430082D01*
X80023808Y-83430082D02*
X79985712Y-83353892D01*
X79985712Y-83353892D02*
X79985712Y-82706273D01*
X79719046Y-82706273D02*
X79261903Y-82706273D01*
X79490475Y-83506273D02*
X79490475Y-82706273D01*
X90214285Y-83994228D02*
X90595237Y-83994228D01*
X90595237Y-83994228D02*
X90633333Y-84375180D01*
X90633333Y-84375180D02*
X90595237Y-84337085D01*
X90595237Y-84337085D02*
X90519047Y-84298990D01*
X90519047Y-84298990D02*
X90328571Y-84298990D01*
X90328571Y-84298990D02*
X90252380Y-84337085D01*
X90252380Y-84337085D02*
X90214285Y-84375180D01*
X90214285Y-84375180D02*
X90176190Y-84451371D01*
X90176190Y-84451371D02*
X90176190Y-84641847D01*
X90176190Y-84641847D02*
X90214285Y-84718037D01*
X90214285Y-84718037D02*
X90252380Y-84756133D01*
X90252380Y-84756133D02*
X90328571Y-84794228D01*
X90328571Y-84794228D02*
X90519047Y-84794228D01*
X90519047Y-84794228D02*
X90595237Y-84756133D01*
X90595237Y-84756133D02*
X90633333Y-84718037D01*
X88766665Y-84794228D02*
X89033332Y-84413275D01*
X89223808Y-84794228D02*
X89223808Y-83994228D01*
X89223808Y-83994228D02*
X88919046Y-83994228D01*
X88919046Y-83994228D02*
X88842856Y-84032323D01*
X88842856Y-84032323D02*
X88804761Y-84070418D01*
X88804761Y-84070418D02*
X88766665Y-84146609D01*
X88766665Y-84146609D02*
X88766665Y-84260894D01*
X88766665Y-84260894D02*
X88804761Y-84337085D01*
X88804761Y-84337085D02*
X88842856Y-84375180D01*
X88842856Y-84375180D02*
X88919046Y-84413275D01*
X88919046Y-84413275D02*
X89223808Y-84413275D01*
X88423808Y-84794228D02*
X88423808Y-83994228D01*
X88042856Y-84794228D02*
X88042856Y-83994228D01*
X88042856Y-83994228D02*
X87585713Y-84794228D01*
X87585713Y-84794228D02*
X87585713Y-83994228D01*
X86785714Y-84032323D02*
X86861904Y-83994228D01*
X86861904Y-83994228D02*
X86976190Y-83994228D01*
X86976190Y-83994228D02*
X87090476Y-84032323D01*
X87090476Y-84032323D02*
X87166666Y-84108513D01*
X87166666Y-84108513D02*
X87204761Y-84184704D01*
X87204761Y-84184704D02*
X87242857Y-84337085D01*
X87242857Y-84337085D02*
X87242857Y-84451371D01*
X87242857Y-84451371D02*
X87204761Y-84603752D01*
X87204761Y-84603752D02*
X87166666Y-84679942D01*
X87166666Y-84679942D02*
X87090476Y-84756133D01*
X87090476Y-84756133D02*
X86976190Y-84794228D01*
X86976190Y-84794228D02*
X86899999Y-84794228D01*
X86899999Y-84794228D02*
X86785714Y-84756133D01*
X86785714Y-84756133D02*
X86747618Y-84718037D01*
X86747618Y-84718037D02*
X86747618Y-84451371D01*
X86747618Y-84451371D02*
X86899999Y-84451371D01*
X84842856Y-83994228D02*
X84995237Y-83994228D01*
X84995237Y-83994228D02*
X85071428Y-84032323D01*
X85071428Y-84032323D02*
X85109523Y-84070418D01*
X85109523Y-84070418D02*
X85185713Y-84184704D01*
X85185713Y-84184704D02*
X85223809Y-84337085D01*
X85223809Y-84337085D02*
X85223809Y-84641847D01*
X85223809Y-84641847D02*
X85185713Y-84718037D01*
X85185713Y-84718037D02*
X85147618Y-84756133D01*
X85147618Y-84756133D02*
X85071428Y-84794228D01*
X85071428Y-84794228D02*
X84919047Y-84794228D01*
X84919047Y-84794228D02*
X84842856Y-84756133D01*
X84842856Y-84756133D02*
X84804761Y-84718037D01*
X84804761Y-84718037D02*
X84766666Y-84641847D01*
X84766666Y-84641847D02*
X84766666Y-84451371D01*
X84766666Y-84451371D02*
X84804761Y-84375180D01*
X84804761Y-84375180D02*
X84842856Y-84337085D01*
X84842856Y-84337085D02*
X84919047Y-84298990D01*
X84919047Y-84298990D02*
X85071428Y-84298990D01*
X85071428Y-84298990D02*
X85147618Y-84337085D01*
X85147618Y-84337085D02*
X85185713Y-84375180D01*
X85185713Y-84375180D02*
X85223809Y-84451371D01*
X83928570Y-83994228D02*
X83471427Y-83994228D01*
X83699999Y-84794228D02*
X83699999Y-83994228D01*
X83204760Y-84794228D02*
X83204760Y-83994228D01*
X82823808Y-84794228D02*
X82823808Y-83994228D01*
X82823808Y-83994228D02*
X82519046Y-83994228D01*
X82519046Y-83994228D02*
X82442856Y-84032323D01*
X82442856Y-84032323D02*
X82404761Y-84070418D01*
X82404761Y-84070418D02*
X82366665Y-84146609D01*
X82366665Y-84146609D02*
X82366665Y-84260894D01*
X82366665Y-84260894D02*
X82404761Y-84337085D01*
X82404761Y-84337085D02*
X82442856Y-84375180D01*
X82442856Y-84375180D02*
X82519046Y-84413275D01*
X82519046Y-84413275D02*
X82823808Y-84413275D01*
X151428571Y-103292295D02*
X151428571Y-103863723D01*
X151428571Y-103863723D02*
X151466666Y-103978009D01*
X151466666Y-103978009D02*
X151542857Y-104054200D01*
X151542857Y-104054200D02*
X151657142Y-104092295D01*
X151657142Y-104092295D02*
X151733333Y-104092295D01*
X151047618Y-104092295D02*
X151047618Y-103292295D01*
X151047618Y-103292295D02*
X150742856Y-103292295D01*
X150742856Y-103292295D02*
X150666666Y-103330390D01*
X150666666Y-103330390D02*
X150628571Y-103368485D01*
X150628571Y-103368485D02*
X150590475Y-103444676D01*
X150590475Y-103444676D02*
X150590475Y-103558961D01*
X150590475Y-103558961D02*
X150628571Y-103635152D01*
X150628571Y-103635152D02*
X150666666Y-103673247D01*
X150666666Y-103673247D02*
X150742856Y-103711342D01*
X150742856Y-103711342D02*
X151047618Y-103711342D01*
X150323809Y-103292295D02*
X149828571Y-103292295D01*
X149828571Y-103292295D02*
X150095237Y-103597057D01*
X150095237Y-103597057D02*
X149980952Y-103597057D01*
X149980952Y-103597057D02*
X149904761Y-103635152D01*
X149904761Y-103635152D02*
X149866666Y-103673247D01*
X149866666Y-103673247D02*
X149828571Y-103749438D01*
X149828571Y-103749438D02*
X149828571Y-103939914D01*
X149828571Y-103939914D02*
X149866666Y-104016104D01*
X149866666Y-104016104D02*
X149904761Y-104054200D01*
X149904761Y-104054200D02*
X149980952Y-104092295D01*
X149980952Y-104092295D02*
X150209523Y-104092295D01*
X150209523Y-104092295D02*
X150285714Y-104054200D01*
X150285714Y-104054200D02*
X150323809Y-104016104D01*
X149333332Y-103292295D02*
X149257142Y-103292295D01*
X149257142Y-103292295D02*
X149180951Y-103330390D01*
X149180951Y-103330390D02*
X149142856Y-103368485D01*
X149142856Y-103368485D02*
X149104761Y-103444676D01*
X149104761Y-103444676D02*
X149066666Y-103597057D01*
X149066666Y-103597057D02*
X149066666Y-103787533D01*
X149066666Y-103787533D02*
X149104761Y-103939914D01*
X149104761Y-103939914D02*
X149142856Y-104016104D01*
X149142856Y-104016104D02*
X149180951Y-104054200D01*
X149180951Y-104054200D02*
X149257142Y-104092295D01*
X149257142Y-104092295D02*
X149333332Y-104092295D01*
X149333332Y-104092295D02*
X149409523Y-104054200D01*
X149409523Y-104054200D02*
X149447618Y-104016104D01*
X149447618Y-104016104D02*
X149485713Y-103939914D01*
X149485713Y-103939914D02*
X149523809Y-103787533D01*
X149523809Y-103787533D02*
X149523809Y-103597057D01*
X149523809Y-103597057D02*
X149485713Y-103444676D01*
X149485713Y-103444676D02*
X149447618Y-103368485D01*
X149447618Y-103368485D02*
X149409523Y-103330390D01*
X149409523Y-103330390D02*
X149333332Y-103292295D01*
X148799999Y-103292295D02*
X148304761Y-103292295D01*
X148304761Y-103292295D02*
X148571427Y-103597057D01*
X148571427Y-103597057D02*
X148457142Y-103597057D01*
X148457142Y-103597057D02*
X148380951Y-103635152D01*
X148380951Y-103635152D02*
X148342856Y-103673247D01*
X148342856Y-103673247D02*
X148304761Y-103749438D01*
X148304761Y-103749438D02*
X148304761Y-103939914D01*
X148304761Y-103939914D02*
X148342856Y-104016104D01*
X148342856Y-104016104D02*
X148380951Y-104054200D01*
X148380951Y-104054200D02*
X148457142Y-104092295D01*
X148457142Y-104092295D02*
X148685713Y-104092295D01*
X148685713Y-104092295D02*
X148761904Y-104054200D01*
X148761904Y-104054200D02*
X148799999Y-104016104D01*
X78198571Y-79598485D02*
X78160475Y-79560390D01*
X78160475Y-79560390D02*
X78084285Y-79522295D01*
X78084285Y-79522295D02*
X77893809Y-79522295D01*
X77893809Y-79522295D02*
X77817618Y-79560390D01*
X77817618Y-79560390D02*
X77779523Y-79598485D01*
X77779523Y-79598485D02*
X77741428Y-79674676D01*
X77741428Y-79674676D02*
X77741428Y-79750866D01*
X77741428Y-79750866D02*
X77779523Y-79865152D01*
X77779523Y-79865152D02*
X78236666Y-80322295D01*
X78236666Y-80322295D02*
X77741428Y-80322295D01*
X148071428Y-124092295D02*
X148528571Y-124092295D01*
X148299999Y-124092295D02*
X148299999Y-123292295D01*
X148299999Y-123292295D02*
X148376190Y-123406580D01*
X148376190Y-123406580D02*
X148452380Y-123482771D01*
X148452380Y-123482771D02*
X148528571Y-123520866D01*
X58528571Y-77022295D02*
X58528571Y-77593723D01*
X58528571Y-77593723D02*
X58566666Y-77708009D01*
X58566666Y-77708009D02*
X58642857Y-77784200D01*
X58642857Y-77784200D02*
X58757142Y-77822295D01*
X58757142Y-77822295D02*
X58833333Y-77822295D01*
X58223809Y-77022295D02*
X57728571Y-77022295D01*
X57728571Y-77022295D02*
X57995237Y-77327057D01*
X57995237Y-77327057D02*
X57880952Y-77327057D01*
X57880952Y-77327057D02*
X57804761Y-77365152D01*
X57804761Y-77365152D02*
X57766666Y-77403247D01*
X57766666Y-77403247D02*
X57728571Y-77479438D01*
X57728571Y-77479438D02*
X57728571Y-77669914D01*
X57728571Y-77669914D02*
X57766666Y-77746104D01*
X57766666Y-77746104D02*
X57804761Y-77784200D01*
X57804761Y-77784200D02*
X57880952Y-77822295D01*
X57880952Y-77822295D02*
X58109523Y-77822295D01*
X58109523Y-77822295D02*
X58185714Y-77784200D01*
X58185714Y-77784200D02*
X58223809Y-77746104D01*
X57233332Y-77022295D02*
X57157142Y-77022295D01*
X57157142Y-77022295D02*
X57080951Y-77060390D01*
X57080951Y-77060390D02*
X57042856Y-77098485D01*
X57042856Y-77098485D02*
X57004761Y-77174676D01*
X57004761Y-77174676D02*
X56966666Y-77327057D01*
X56966666Y-77327057D02*
X56966666Y-77517533D01*
X56966666Y-77517533D02*
X57004761Y-77669914D01*
X57004761Y-77669914D02*
X57042856Y-77746104D01*
X57042856Y-77746104D02*
X57080951Y-77784200D01*
X57080951Y-77784200D02*
X57157142Y-77822295D01*
X57157142Y-77822295D02*
X57233332Y-77822295D01*
X57233332Y-77822295D02*
X57309523Y-77784200D01*
X57309523Y-77784200D02*
X57347618Y-77746104D01*
X57347618Y-77746104D02*
X57385713Y-77669914D01*
X57385713Y-77669914D02*
X57423809Y-77517533D01*
X57423809Y-77517533D02*
X57423809Y-77327057D01*
X57423809Y-77327057D02*
X57385713Y-77174676D01*
X57385713Y-77174676D02*
X57347618Y-77098485D01*
X57347618Y-77098485D02*
X57309523Y-77060390D01*
X57309523Y-77060390D02*
X57233332Y-77022295D01*
X56661904Y-77098485D02*
X56623808Y-77060390D01*
X56623808Y-77060390D02*
X56547618Y-77022295D01*
X56547618Y-77022295D02*
X56357142Y-77022295D01*
X56357142Y-77022295D02*
X56280951Y-77060390D01*
X56280951Y-77060390D02*
X56242856Y-77098485D01*
X56242856Y-77098485D02*
X56204761Y-77174676D01*
X56204761Y-77174676D02*
X56204761Y-77250866D01*
X56204761Y-77250866D02*
X56242856Y-77365152D01*
X56242856Y-77365152D02*
X56699999Y-77822295D01*
X56699999Y-77822295D02*
X56204761Y-77822295D01*
X59428571Y-82138485D02*
X59390475Y-82100390D01*
X59390475Y-82100390D02*
X59314285Y-82062295D01*
X59314285Y-82062295D02*
X59123809Y-82062295D01*
X59123809Y-82062295D02*
X59047618Y-82100390D01*
X59047618Y-82100390D02*
X59009523Y-82138485D01*
X59009523Y-82138485D02*
X58971428Y-82214676D01*
X58971428Y-82214676D02*
X58971428Y-82290866D01*
X58971428Y-82290866D02*
X59009523Y-82405152D01*
X59009523Y-82405152D02*
X59466666Y-82862295D01*
X59466666Y-82862295D02*
X58971428Y-82862295D01*
X77817618Y-84602295D02*
X77969999Y-84602295D01*
X77969999Y-84602295D02*
X78046190Y-84640390D01*
X78046190Y-84640390D02*
X78084285Y-84678485D01*
X78084285Y-84678485D02*
X78160475Y-84792771D01*
X78160475Y-84792771D02*
X78198571Y-84945152D01*
X78198571Y-84945152D02*
X78198571Y-85249914D01*
X78198571Y-85249914D02*
X78160475Y-85326104D01*
X78160475Y-85326104D02*
X78122380Y-85364200D01*
X78122380Y-85364200D02*
X78046190Y-85402295D01*
X78046190Y-85402295D02*
X77893809Y-85402295D01*
X77893809Y-85402295D02*
X77817618Y-85364200D01*
X77817618Y-85364200D02*
X77779523Y-85326104D01*
X77779523Y-85326104D02*
X77741428Y-85249914D01*
X77741428Y-85249914D02*
X77741428Y-85059438D01*
X77741428Y-85059438D02*
X77779523Y-84983247D01*
X77779523Y-84983247D02*
X77817618Y-84945152D01*
X77817618Y-84945152D02*
X77893809Y-84907057D01*
X77893809Y-84907057D02*
X78046190Y-84907057D01*
X78046190Y-84907057D02*
X78122380Y-84945152D01*
X78122380Y-84945152D02*
X78160475Y-84983247D01*
X78160475Y-84983247D02*
X78198571Y-85059438D01*
X107876189Y-96362295D02*
X107876189Y-95562295D01*
X106923809Y-95524200D02*
X107609523Y-96552771D01*
X106504761Y-95562295D02*
X106352380Y-95562295D01*
X106352380Y-95562295D02*
X106276190Y-95600390D01*
X106276190Y-95600390D02*
X106199999Y-95676580D01*
X106199999Y-95676580D02*
X106161904Y-95828961D01*
X106161904Y-95828961D02*
X106161904Y-96095628D01*
X106161904Y-96095628D02*
X106199999Y-96248009D01*
X106199999Y-96248009D02*
X106276190Y-96324200D01*
X106276190Y-96324200D02*
X106352380Y-96362295D01*
X106352380Y-96362295D02*
X106504761Y-96362295D01*
X106504761Y-96362295D02*
X106580952Y-96324200D01*
X106580952Y-96324200D02*
X106657142Y-96248009D01*
X106657142Y-96248009D02*
X106695238Y-96095628D01*
X106695238Y-96095628D02*
X106695238Y-95828961D01*
X106695238Y-95828961D02*
X106657142Y-95676580D01*
X106657142Y-95676580D02*
X106580952Y-95600390D01*
X106580952Y-95600390D02*
X106504761Y-95562295D01*
X105819047Y-95943247D02*
X105209524Y-95943247D01*
X105209524Y-96171819D02*
X105819047Y-96171819D01*
X104561905Y-95943247D02*
X104447619Y-95981342D01*
X104447619Y-95981342D02*
X104409524Y-96019438D01*
X104409524Y-96019438D02*
X104371428Y-96095628D01*
X104371428Y-96095628D02*
X104371428Y-96209914D01*
X104371428Y-96209914D02*
X104409524Y-96286104D01*
X104409524Y-96286104D02*
X104447619Y-96324200D01*
X104447619Y-96324200D02*
X104523809Y-96362295D01*
X104523809Y-96362295D02*
X104828571Y-96362295D01*
X104828571Y-96362295D02*
X104828571Y-95562295D01*
X104828571Y-95562295D02*
X104561905Y-95562295D01*
X104561905Y-95562295D02*
X104485714Y-95600390D01*
X104485714Y-95600390D02*
X104447619Y-95638485D01*
X104447619Y-95638485D02*
X104409524Y-95714676D01*
X104409524Y-95714676D02*
X104409524Y-95790866D01*
X104409524Y-95790866D02*
X104447619Y-95867057D01*
X104447619Y-95867057D02*
X104485714Y-95905152D01*
X104485714Y-95905152D02*
X104561905Y-95943247D01*
X104561905Y-95943247D02*
X104828571Y-95943247D01*
X103876190Y-95562295D02*
X103723809Y-95562295D01*
X103723809Y-95562295D02*
X103647619Y-95600390D01*
X103647619Y-95600390D02*
X103571428Y-95676580D01*
X103571428Y-95676580D02*
X103533333Y-95828961D01*
X103533333Y-95828961D02*
X103533333Y-96095628D01*
X103533333Y-96095628D02*
X103571428Y-96248009D01*
X103571428Y-96248009D02*
X103647619Y-96324200D01*
X103647619Y-96324200D02*
X103723809Y-96362295D01*
X103723809Y-96362295D02*
X103876190Y-96362295D01*
X103876190Y-96362295D02*
X103952381Y-96324200D01*
X103952381Y-96324200D02*
X104028571Y-96248009D01*
X104028571Y-96248009D02*
X104066667Y-96095628D01*
X104066667Y-96095628D02*
X104066667Y-95828961D01*
X104066667Y-95828961D02*
X104028571Y-95676580D01*
X104028571Y-95676580D02*
X103952381Y-95600390D01*
X103952381Y-95600390D02*
X103876190Y-95562295D01*
X103304762Y-95562295D02*
X102847619Y-95562295D01*
X103076191Y-96362295D02*
X103076191Y-95562295D01*
X102580952Y-96362295D02*
X102580952Y-95562295D01*
X102580952Y-95943247D02*
X102123809Y-95943247D01*
X102123809Y-96362295D02*
X102123809Y-95562295D01*
X148071428Y-106592295D02*
X148528571Y-106592295D01*
X148299999Y-106592295D02*
X148299999Y-105792295D01*
X148299999Y-105792295D02*
X148376190Y-105906580D01*
X148376190Y-105906580D02*
X148452380Y-105982771D01*
X148452380Y-105982771D02*
X148528571Y-106020866D01*
X107247617Y-92862295D02*
X107247617Y-92062295D01*
X106866665Y-92862295D02*
X106866665Y-92062295D01*
X106866665Y-92062295D02*
X106409522Y-92862295D01*
X106409522Y-92862295D02*
X106409522Y-92062295D01*
X106028570Y-92443247D02*
X105419047Y-92443247D01*
X105419047Y-92671819D02*
X106028570Y-92671819D01*
X105038094Y-92862295D02*
X105038094Y-92062295D01*
X104657142Y-92862295D02*
X104657142Y-92062295D01*
X104657142Y-92062295D02*
X104199999Y-92862295D01*
X104199999Y-92862295D02*
X104199999Y-92062295D01*
X103933333Y-92062295D02*
X103476190Y-92062295D01*
X103704762Y-92862295D02*
X103704762Y-92062295D01*
X103057142Y-92062295D02*
X102904761Y-92062295D01*
X102904761Y-92062295D02*
X102828571Y-92100390D01*
X102828571Y-92100390D02*
X102752380Y-92176580D01*
X102752380Y-92176580D02*
X102714285Y-92328961D01*
X102714285Y-92328961D02*
X102714285Y-92595628D01*
X102714285Y-92595628D02*
X102752380Y-92748009D01*
X102752380Y-92748009D02*
X102828571Y-92824200D01*
X102828571Y-92824200D02*
X102904761Y-92862295D01*
X102904761Y-92862295D02*
X103057142Y-92862295D01*
X103057142Y-92862295D02*
X103133333Y-92824200D01*
X103133333Y-92824200D02*
X103209523Y-92748009D01*
X103209523Y-92748009D02*
X103247619Y-92595628D01*
X103247619Y-92595628D02*
X103247619Y-92328961D01*
X103247619Y-92328961D02*
X103209523Y-92176580D01*
X103209523Y-92176580D02*
X103133333Y-92100390D01*
X103133333Y-92100390D02*
X103057142Y-92062295D01*
X148528571Y-78368485D02*
X148490475Y-78330390D01*
X148490475Y-78330390D02*
X148414285Y-78292295D01*
X148414285Y-78292295D02*
X148223809Y-78292295D01*
X148223809Y-78292295D02*
X148147618Y-78330390D01*
X148147618Y-78330390D02*
X148109523Y-78368485D01*
X148109523Y-78368485D02*
X148071428Y-78444676D01*
X148071428Y-78444676D02*
X148071428Y-78520866D01*
X148071428Y-78520866D02*
X148109523Y-78635152D01*
X148109523Y-78635152D02*
X148566666Y-79092295D01*
X148566666Y-79092295D02*
X148071428Y-79092295D01*
X115923810Y-113274340D02*
X115923810Y-113845768D01*
X115923810Y-113845768D02*
X115961905Y-113960054D01*
X115961905Y-113960054D02*
X116038096Y-114036245D01*
X116038096Y-114036245D02*
X116152381Y-114074340D01*
X116152381Y-114074340D02*
X116228572Y-114074340D01*
X115542857Y-114074340D02*
X115542857Y-113274340D01*
X115542857Y-113274340D02*
X115238095Y-113274340D01*
X115238095Y-113274340D02*
X115161905Y-113312435D01*
X115161905Y-113312435D02*
X115123810Y-113350530D01*
X115123810Y-113350530D02*
X115085714Y-113426721D01*
X115085714Y-113426721D02*
X115085714Y-113541006D01*
X115085714Y-113541006D02*
X115123810Y-113617197D01*
X115123810Y-113617197D02*
X115161905Y-113655292D01*
X115161905Y-113655292D02*
X115238095Y-113693387D01*
X115238095Y-113693387D02*
X115542857Y-113693387D01*
X114819048Y-113274340D02*
X114323810Y-113274340D01*
X114323810Y-113274340D02*
X114590476Y-113579102D01*
X114590476Y-113579102D02*
X114476191Y-113579102D01*
X114476191Y-113579102D02*
X114400000Y-113617197D01*
X114400000Y-113617197D02*
X114361905Y-113655292D01*
X114361905Y-113655292D02*
X114323810Y-113731483D01*
X114323810Y-113731483D02*
X114323810Y-113921959D01*
X114323810Y-113921959D02*
X114361905Y-113998149D01*
X114361905Y-113998149D02*
X114400000Y-114036245D01*
X114400000Y-114036245D02*
X114476191Y-114074340D01*
X114476191Y-114074340D02*
X114704762Y-114074340D01*
X114704762Y-114074340D02*
X114780953Y-114036245D01*
X114780953Y-114036245D02*
X114819048Y-113998149D01*
X113828571Y-113274340D02*
X113752381Y-113274340D01*
X113752381Y-113274340D02*
X113676190Y-113312435D01*
X113676190Y-113312435D02*
X113638095Y-113350530D01*
X113638095Y-113350530D02*
X113600000Y-113426721D01*
X113600000Y-113426721D02*
X113561905Y-113579102D01*
X113561905Y-113579102D02*
X113561905Y-113769578D01*
X113561905Y-113769578D02*
X113600000Y-113921959D01*
X113600000Y-113921959D02*
X113638095Y-113998149D01*
X113638095Y-113998149D02*
X113676190Y-114036245D01*
X113676190Y-114036245D02*
X113752381Y-114074340D01*
X113752381Y-114074340D02*
X113828571Y-114074340D01*
X113828571Y-114074340D02*
X113904762Y-114036245D01*
X113904762Y-114036245D02*
X113942857Y-113998149D01*
X113942857Y-113998149D02*
X113980952Y-113921959D01*
X113980952Y-113921959D02*
X114019048Y-113769578D01*
X114019048Y-113769578D02*
X114019048Y-113579102D01*
X114019048Y-113579102D02*
X113980952Y-113426721D01*
X113980952Y-113426721D02*
X113942857Y-113350530D01*
X113942857Y-113350530D02*
X113904762Y-113312435D01*
X113904762Y-113312435D02*
X113828571Y-113274340D01*
X113257143Y-113350530D02*
X113219047Y-113312435D01*
X113219047Y-113312435D02*
X113142857Y-113274340D01*
X113142857Y-113274340D02*
X112952381Y-113274340D01*
X112952381Y-113274340D02*
X112876190Y-113312435D01*
X112876190Y-113312435D02*
X112838095Y-113350530D01*
X112838095Y-113350530D02*
X112800000Y-113426721D01*
X112800000Y-113426721D02*
X112800000Y-113502911D01*
X112800000Y-113502911D02*
X112838095Y-113617197D01*
X112838095Y-113617197D02*
X113295238Y-114074340D01*
X113295238Y-114074340D02*
X112800000Y-114074340D01*
X111885714Y-113845768D02*
X111504761Y-113845768D01*
X111961904Y-114074340D02*
X111695237Y-113274340D01*
X111695237Y-113274340D02*
X111428571Y-114074340D01*
X111161904Y-114074340D02*
X111161904Y-113274340D01*
X111161904Y-113274340D02*
X110971428Y-113274340D01*
X110971428Y-113274340D02*
X110857142Y-113312435D01*
X110857142Y-113312435D02*
X110780952Y-113388625D01*
X110780952Y-113388625D02*
X110742857Y-113464816D01*
X110742857Y-113464816D02*
X110704761Y-113617197D01*
X110704761Y-113617197D02*
X110704761Y-113731483D01*
X110704761Y-113731483D02*
X110742857Y-113883864D01*
X110742857Y-113883864D02*
X110780952Y-113960054D01*
X110780952Y-113960054D02*
X110857142Y-114036245D01*
X110857142Y-114036245D02*
X110971428Y-114074340D01*
X110971428Y-114074340D02*
X111161904Y-114074340D01*
X110361904Y-114074340D02*
X110361904Y-113274340D01*
X110361904Y-113274340D02*
X110171428Y-113274340D01*
X110171428Y-113274340D02*
X110057142Y-113312435D01*
X110057142Y-113312435D02*
X109980952Y-113388625D01*
X109980952Y-113388625D02*
X109942857Y-113464816D01*
X109942857Y-113464816D02*
X109904761Y-113617197D01*
X109904761Y-113617197D02*
X109904761Y-113731483D01*
X109904761Y-113731483D02*
X109942857Y-113883864D01*
X109942857Y-113883864D02*
X109980952Y-113960054D01*
X109980952Y-113960054D02*
X110057142Y-114036245D01*
X110057142Y-114036245D02*
X110171428Y-114074340D01*
X110171428Y-114074340D02*
X110361904Y-114074340D01*
X109104761Y-114074340D02*
X109371428Y-113693387D01*
X109561904Y-114074340D02*
X109561904Y-113274340D01*
X109561904Y-113274340D02*
X109257142Y-113274340D01*
X109257142Y-113274340D02*
X109180952Y-113312435D01*
X109180952Y-113312435D02*
X109142857Y-113350530D01*
X109142857Y-113350530D02*
X109104761Y-113426721D01*
X109104761Y-113426721D02*
X109104761Y-113541006D01*
X109104761Y-113541006D02*
X109142857Y-113617197D01*
X109142857Y-113617197D02*
X109180952Y-113655292D01*
X109180952Y-113655292D02*
X109257142Y-113693387D01*
X109257142Y-113693387D02*
X109561904Y-113693387D01*
X107923809Y-113274340D02*
X107923809Y-113845768D01*
X107923809Y-113845768D02*
X107961904Y-113960054D01*
X107961904Y-113960054D02*
X108038095Y-114036245D01*
X108038095Y-114036245D02*
X108152380Y-114074340D01*
X108152380Y-114074340D02*
X108228571Y-114074340D01*
X107542856Y-113274340D02*
X107542856Y-113921959D01*
X107542856Y-113921959D02*
X107504761Y-113998149D01*
X107504761Y-113998149D02*
X107466666Y-114036245D01*
X107466666Y-114036245D02*
X107390475Y-114074340D01*
X107390475Y-114074340D02*
X107238094Y-114074340D01*
X107238094Y-114074340D02*
X107161904Y-114036245D01*
X107161904Y-114036245D02*
X107123809Y-113998149D01*
X107123809Y-113998149D02*
X107085713Y-113921959D01*
X107085713Y-113921959D02*
X107085713Y-113274340D01*
X106704761Y-114074340D02*
X106704761Y-113274340D01*
X106704761Y-113274340D02*
X106438095Y-113845768D01*
X106438095Y-113845768D02*
X106171428Y-113274340D01*
X106171428Y-113274340D02*
X106171428Y-114074340D01*
X105790475Y-114074340D02*
X105790475Y-113274340D01*
X105790475Y-113274340D02*
X105485713Y-113274340D01*
X105485713Y-113274340D02*
X105409523Y-113312435D01*
X105409523Y-113312435D02*
X105371428Y-113350530D01*
X105371428Y-113350530D02*
X105333332Y-113426721D01*
X105333332Y-113426721D02*
X105333332Y-113541006D01*
X105333332Y-113541006D02*
X105371428Y-113617197D01*
X105371428Y-113617197D02*
X105409523Y-113655292D01*
X105409523Y-113655292D02*
X105485713Y-113693387D01*
X105485713Y-113693387D02*
X105790475Y-113693387D01*
X104990475Y-113655292D02*
X104723809Y-113655292D01*
X104609523Y-114074340D02*
X104990475Y-114074340D01*
X104990475Y-114074340D02*
X104990475Y-113274340D01*
X104990475Y-113274340D02*
X104609523Y-113274340D01*
X103809522Y-114074340D02*
X104076189Y-113693387D01*
X104266665Y-114074340D02*
X104266665Y-113274340D01*
X104266665Y-113274340D02*
X103961903Y-113274340D01*
X103961903Y-113274340D02*
X103885713Y-113312435D01*
X103885713Y-113312435D02*
X103847618Y-113350530D01*
X103847618Y-113350530D02*
X103809522Y-113426721D01*
X103809522Y-113426721D02*
X103809522Y-113541006D01*
X103809522Y-113541006D02*
X103847618Y-113617197D01*
X103847618Y-113617197D02*
X103885713Y-113655292D01*
X103885713Y-113655292D02*
X103961903Y-113693387D01*
X103961903Y-113693387D02*
X104266665Y-113693387D01*
X116514287Y-115362295D02*
X116971430Y-115362295D01*
X116742858Y-115362295D02*
X116742858Y-114562295D01*
X116742858Y-114562295D02*
X116819049Y-114676580D01*
X116819049Y-114676580D02*
X116895239Y-114752771D01*
X116895239Y-114752771D02*
X116971430Y-114790866D01*
X115142858Y-114600390D02*
X115219048Y-114562295D01*
X115219048Y-114562295D02*
X115333334Y-114562295D01*
X115333334Y-114562295D02*
X115447620Y-114600390D01*
X115447620Y-114600390D02*
X115523810Y-114676580D01*
X115523810Y-114676580D02*
X115561905Y-114752771D01*
X115561905Y-114752771D02*
X115600001Y-114905152D01*
X115600001Y-114905152D02*
X115600001Y-115019438D01*
X115600001Y-115019438D02*
X115561905Y-115171819D01*
X115561905Y-115171819D02*
X115523810Y-115248009D01*
X115523810Y-115248009D02*
X115447620Y-115324200D01*
X115447620Y-115324200D02*
X115333334Y-115362295D01*
X115333334Y-115362295D02*
X115257143Y-115362295D01*
X115257143Y-115362295D02*
X115142858Y-115324200D01*
X115142858Y-115324200D02*
X115104762Y-115286104D01*
X115104762Y-115286104D02*
X115104762Y-115019438D01*
X115104762Y-115019438D02*
X115257143Y-115019438D01*
X114761905Y-115362295D02*
X114761905Y-114562295D01*
X114761905Y-114562295D02*
X114304762Y-115362295D01*
X114304762Y-115362295D02*
X114304762Y-114562295D01*
X113923810Y-115362295D02*
X113923810Y-114562295D01*
X113923810Y-114562295D02*
X113733334Y-114562295D01*
X113733334Y-114562295D02*
X113619048Y-114600390D01*
X113619048Y-114600390D02*
X113542858Y-114676580D01*
X113542858Y-114676580D02*
X113504763Y-114752771D01*
X113504763Y-114752771D02*
X113466667Y-114905152D01*
X113466667Y-114905152D02*
X113466667Y-115019438D01*
X113466667Y-115019438D02*
X113504763Y-115171819D01*
X113504763Y-115171819D02*
X113542858Y-115248009D01*
X113542858Y-115248009D02*
X113619048Y-115324200D01*
X113619048Y-115324200D02*
X113733334Y-115362295D01*
X113733334Y-115362295D02*
X113923810Y-115362295D01*
X112552382Y-114638485D02*
X112514286Y-114600390D01*
X112514286Y-114600390D02*
X112438096Y-114562295D01*
X112438096Y-114562295D02*
X112247620Y-114562295D01*
X112247620Y-114562295D02*
X112171429Y-114600390D01*
X112171429Y-114600390D02*
X112133334Y-114638485D01*
X112133334Y-114638485D02*
X112095239Y-114714676D01*
X112095239Y-114714676D02*
X112095239Y-114790866D01*
X112095239Y-114790866D02*
X112133334Y-114905152D01*
X112133334Y-114905152D02*
X112590477Y-115362295D01*
X112590477Y-115362295D02*
X112095239Y-115362295D01*
X111180953Y-115324200D02*
X111066667Y-115362295D01*
X111066667Y-115362295D02*
X110876191Y-115362295D01*
X110876191Y-115362295D02*
X110800000Y-115324200D01*
X110800000Y-115324200D02*
X110761905Y-115286104D01*
X110761905Y-115286104D02*
X110723810Y-115209914D01*
X110723810Y-115209914D02*
X110723810Y-115133723D01*
X110723810Y-115133723D02*
X110761905Y-115057533D01*
X110761905Y-115057533D02*
X110800000Y-115019438D01*
X110800000Y-115019438D02*
X110876191Y-114981342D01*
X110876191Y-114981342D02*
X111028572Y-114943247D01*
X111028572Y-114943247D02*
X111104762Y-114905152D01*
X111104762Y-114905152D02*
X111142857Y-114867057D01*
X111142857Y-114867057D02*
X111180953Y-114790866D01*
X111180953Y-114790866D02*
X111180953Y-114714676D01*
X111180953Y-114714676D02*
X111142857Y-114638485D01*
X111142857Y-114638485D02*
X111104762Y-114600390D01*
X111104762Y-114600390D02*
X111028572Y-114562295D01*
X111028572Y-114562295D02*
X110838095Y-114562295D01*
X110838095Y-114562295D02*
X110723810Y-114600390D01*
X110380952Y-114943247D02*
X110114286Y-114943247D01*
X110000000Y-115362295D02*
X110380952Y-115362295D01*
X110380952Y-115362295D02*
X110380952Y-114562295D01*
X110380952Y-114562295D02*
X110000000Y-114562295D01*
X109276190Y-115362295D02*
X109657142Y-115362295D01*
X109657142Y-115362295D02*
X109657142Y-114562295D01*
X109009523Y-114943247D02*
X108742857Y-114943247D01*
X108628571Y-115362295D02*
X109009523Y-115362295D01*
X109009523Y-115362295D02*
X109009523Y-114562295D01*
X109009523Y-114562295D02*
X108628571Y-114562295D01*
X107828570Y-115286104D02*
X107866666Y-115324200D01*
X107866666Y-115324200D02*
X107980951Y-115362295D01*
X107980951Y-115362295D02*
X108057142Y-115362295D01*
X108057142Y-115362295D02*
X108171428Y-115324200D01*
X108171428Y-115324200D02*
X108247618Y-115248009D01*
X108247618Y-115248009D02*
X108285713Y-115171819D01*
X108285713Y-115171819D02*
X108323809Y-115019438D01*
X108323809Y-115019438D02*
X108323809Y-114905152D01*
X108323809Y-114905152D02*
X108285713Y-114752771D01*
X108285713Y-114752771D02*
X108247618Y-114676580D01*
X108247618Y-114676580D02*
X108171428Y-114600390D01*
X108171428Y-114600390D02*
X108057142Y-114562295D01*
X108057142Y-114562295D02*
X107980951Y-114562295D01*
X107980951Y-114562295D02*
X107866666Y-114600390D01*
X107866666Y-114600390D02*
X107828570Y-114638485D01*
X107599999Y-114562295D02*
X107142856Y-114562295D01*
X107371428Y-115362295D02*
X107371428Y-114562295D01*
X106342856Y-114562295D02*
X105847618Y-114562295D01*
X105847618Y-114562295D02*
X106114284Y-114867057D01*
X106114284Y-114867057D02*
X105999999Y-114867057D01*
X105999999Y-114867057D02*
X105923808Y-114905152D01*
X105923808Y-114905152D02*
X105885713Y-114943247D01*
X105885713Y-114943247D02*
X105847618Y-115019438D01*
X105847618Y-115019438D02*
X105847618Y-115209914D01*
X105847618Y-115209914D02*
X105885713Y-115286104D01*
X105885713Y-115286104D02*
X105923808Y-115324200D01*
X105923808Y-115324200D02*
X105999999Y-115362295D01*
X105999999Y-115362295D02*
X106228570Y-115362295D01*
X106228570Y-115362295D02*
X106304761Y-115324200D01*
X106304761Y-115324200D02*
X106342856Y-115286104D01*
X104971427Y-114562295D02*
X104476189Y-114562295D01*
X104476189Y-114562295D02*
X104742855Y-114867057D01*
X104742855Y-114867057D02*
X104628570Y-114867057D01*
X104628570Y-114867057D02*
X104552379Y-114905152D01*
X104552379Y-114905152D02*
X104514284Y-114943247D01*
X104514284Y-114943247D02*
X104476189Y-115019438D01*
X104476189Y-115019438D02*
X104476189Y-115209914D01*
X104476189Y-115209914D02*
X104514284Y-115286104D01*
X104514284Y-115286104D02*
X104552379Y-115324200D01*
X104552379Y-115324200D02*
X104628570Y-115362295D01*
X104628570Y-115362295D02*
X104857141Y-115362295D01*
X104857141Y-115362295D02*
X104933332Y-115324200D01*
X104933332Y-115324200D02*
X104971427Y-115286104D01*
X104247617Y-114562295D02*
X103980950Y-115362295D01*
X103980950Y-115362295D02*
X103714284Y-114562295D01*
X103523808Y-114562295D02*
X103028570Y-114562295D01*
X103028570Y-114562295D02*
X103295236Y-114867057D01*
X103295236Y-114867057D02*
X103180951Y-114867057D01*
X103180951Y-114867057D02*
X103104760Y-114905152D01*
X103104760Y-114905152D02*
X103066665Y-114943247D01*
X103066665Y-114943247D02*
X103028570Y-115019438D01*
X103028570Y-115019438D02*
X103028570Y-115209914D01*
X103028570Y-115209914D02*
X103066665Y-115286104D01*
X103066665Y-115286104D02*
X103104760Y-115324200D01*
X103104760Y-115324200D02*
X103180951Y-115362295D01*
X103180951Y-115362295D02*
X103409522Y-115362295D01*
X103409522Y-115362295D02*
X103485713Y-115324200D01*
X103485713Y-115324200D02*
X103523808Y-115286104D01*
X114495238Y-116116916D02*
X114495238Y-116650250D01*
X114685714Y-115812155D02*
X114876191Y-116383583D01*
X114876191Y-116383583D02*
X114380952Y-116383583D01*
X113961905Y-116193107D02*
X114038095Y-116155012D01*
X114038095Y-116155012D02*
X114076190Y-116116916D01*
X114076190Y-116116916D02*
X114114286Y-116040726D01*
X114114286Y-116040726D02*
X114114286Y-116002631D01*
X114114286Y-116002631D02*
X114076190Y-115926440D01*
X114076190Y-115926440D02*
X114038095Y-115888345D01*
X114038095Y-115888345D02*
X113961905Y-115850250D01*
X113961905Y-115850250D02*
X113809524Y-115850250D01*
X113809524Y-115850250D02*
X113733333Y-115888345D01*
X113733333Y-115888345D02*
X113695238Y-115926440D01*
X113695238Y-115926440D02*
X113657143Y-116002631D01*
X113657143Y-116002631D02*
X113657143Y-116040726D01*
X113657143Y-116040726D02*
X113695238Y-116116916D01*
X113695238Y-116116916D02*
X113733333Y-116155012D01*
X113733333Y-116155012D02*
X113809524Y-116193107D01*
X113809524Y-116193107D02*
X113961905Y-116193107D01*
X113961905Y-116193107D02*
X114038095Y-116231202D01*
X114038095Y-116231202D02*
X114076190Y-116269297D01*
X114076190Y-116269297D02*
X114114286Y-116345488D01*
X114114286Y-116345488D02*
X114114286Y-116497869D01*
X114114286Y-116497869D02*
X114076190Y-116574059D01*
X114076190Y-116574059D02*
X114038095Y-116612155D01*
X114038095Y-116612155D02*
X113961905Y-116650250D01*
X113961905Y-116650250D02*
X113809524Y-116650250D01*
X113809524Y-116650250D02*
X113733333Y-116612155D01*
X113733333Y-116612155D02*
X113695238Y-116574059D01*
X113695238Y-116574059D02*
X113657143Y-116497869D01*
X113657143Y-116497869D02*
X113657143Y-116345488D01*
X113657143Y-116345488D02*
X113695238Y-116269297D01*
X113695238Y-116269297D02*
X113733333Y-116231202D01*
X113733333Y-116231202D02*
X113809524Y-116193107D01*
X113314285Y-116574059D02*
X113276190Y-116612155D01*
X113276190Y-116612155D02*
X113314285Y-116650250D01*
X113314285Y-116650250D02*
X113352381Y-116612155D01*
X113352381Y-116612155D02*
X113314285Y-116574059D01*
X113314285Y-116574059D02*
X113314285Y-116650250D01*
X113314285Y-116155012D02*
X113276190Y-116193107D01*
X113276190Y-116193107D02*
X113314285Y-116231202D01*
X113314285Y-116231202D02*
X113352381Y-116193107D01*
X113352381Y-116193107D02*
X113314285Y-116155012D01*
X113314285Y-116155012D02*
X113314285Y-116231202D01*
X112514286Y-116650250D02*
X112971429Y-116650250D01*
X112742857Y-116650250D02*
X112742857Y-115850250D01*
X112742857Y-115850250D02*
X112819048Y-115964535D01*
X112819048Y-115964535D02*
X112895238Y-116040726D01*
X112895238Y-116040726D02*
X112971429Y-116078821D01*
X112171428Y-116345488D02*
X111561905Y-116345488D01*
X111219048Y-115926440D02*
X111180952Y-115888345D01*
X111180952Y-115888345D02*
X111104762Y-115850250D01*
X111104762Y-115850250D02*
X110914286Y-115850250D01*
X110914286Y-115850250D02*
X110838095Y-115888345D01*
X110838095Y-115888345D02*
X110800000Y-115926440D01*
X110800000Y-115926440D02*
X110761905Y-116002631D01*
X110761905Y-116002631D02*
X110761905Y-116078821D01*
X110761905Y-116078821D02*
X110800000Y-116193107D01*
X110800000Y-116193107D02*
X111257143Y-116650250D01*
X111257143Y-116650250D02*
X110761905Y-116650250D01*
X108857142Y-116116916D02*
X108857142Y-116650250D01*
X109047618Y-115812155D02*
X109238095Y-116383583D01*
X109238095Y-116383583D02*
X108742856Y-116383583D01*
X108399999Y-116650250D02*
X108247618Y-116650250D01*
X108247618Y-116650250D02*
X108171428Y-116612155D01*
X108171428Y-116612155D02*
X108133332Y-116574059D01*
X108133332Y-116574059D02*
X108057142Y-116459774D01*
X108057142Y-116459774D02*
X108019047Y-116307393D01*
X108019047Y-116307393D02*
X108019047Y-116002631D01*
X108019047Y-116002631D02*
X108057142Y-115926440D01*
X108057142Y-115926440D02*
X108095237Y-115888345D01*
X108095237Y-115888345D02*
X108171428Y-115850250D01*
X108171428Y-115850250D02*
X108323809Y-115850250D01*
X108323809Y-115850250D02*
X108399999Y-115888345D01*
X108399999Y-115888345D02*
X108438094Y-115926440D01*
X108438094Y-115926440D02*
X108476190Y-116002631D01*
X108476190Y-116002631D02*
X108476190Y-116193107D01*
X108476190Y-116193107D02*
X108438094Y-116269297D01*
X108438094Y-116269297D02*
X108399999Y-116307393D01*
X108399999Y-116307393D02*
X108323809Y-116345488D01*
X108323809Y-116345488D02*
X108171428Y-116345488D01*
X108171428Y-116345488D02*
X108095237Y-116307393D01*
X108095237Y-116307393D02*
X108057142Y-116269297D01*
X108057142Y-116269297D02*
X108019047Y-116193107D01*
X107676189Y-116574059D02*
X107638094Y-116612155D01*
X107638094Y-116612155D02*
X107676189Y-116650250D01*
X107676189Y-116650250D02*
X107714285Y-116612155D01*
X107714285Y-116612155D02*
X107676189Y-116574059D01*
X107676189Y-116574059D02*
X107676189Y-116650250D01*
X107676189Y-116155012D02*
X107638094Y-116193107D01*
X107638094Y-116193107D02*
X107676189Y-116231202D01*
X107676189Y-116231202D02*
X107714285Y-116193107D01*
X107714285Y-116193107D02*
X107676189Y-116155012D01*
X107676189Y-116155012D02*
X107676189Y-116231202D01*
X107333333Y-115926440D02*
X107295237Y-115888345D01*
X107295237Y-115888345D02*
X107219047Y-115850250D01*
X107219047Y-115850250D02*
X107028571Y-115850250D01*
X107028571Y-115850250D02*
X106952380Y-115888345D01*
X106952380Y-115888345D02*
X106914285Y-115926440D01*
X106914285Y-115926440D02*
X106876190Y-116002631D01*
X106876190Y-116002631D02*
X106876190Y-116078821D01*
X106876190Y-116078821D02*
X106914285Y-116193107D01*
X106914285Y-116193107D02*
X107371428Y-116650250D01*
X107371428Y-116650250D02*
X106876190Y-116650250D01*
X106533332Y-116345488D02*
X105923809Y-116345488D01*
X105619047Y-115850250D02*
X105123809Y-115850250D01*
X105123809Y-115850250D02*
X105390475Y-116155012D01*
X105390475Y-116155012D02*
X105276190Y-116155012D01*
X105276190Y-116155012D02*
X105199999Y-116193107D01*
X105199999Y-116193107D02*
X105161904Y-116231202D01*
X105161904Y-116231202D02*
X105123809Y-116307393D01*
X105123809Y-116307393D02*
X105123809Y-116497869D01*
X105123809Y-116497869D02*
X105161904Y-116574059D01*
X105161904Y-116574059D02*
X105199999Y-116612155D01*
X105199999Y-116612155D02*
X105276190Y-116650250D01*
X105276190Y-116650250D02*
X105504761Y-116650250D01*
X105504761Y-116650250D02*
X105580952Y-116612155D01*
X105580952Y-116612155D02*
X105619047Y-116574059D01*
X107914284Y-90062295D02*
X107761903Y-90062295D01*
X107761903Y-90062295D02*
X107685713Y-90100390D01*
X107685713Y-90100390D02*
X107609522Y-90176580D01*
X107609522Y-90176580D02*
X107571427Y-90328961D01*
X107571427Y-90328961D02*
X107571427Y-90595628D01*
X107571427Y-90595628D02*
X107609522Y-90748009D01*
X107609522Y-90748009D02*
X107685713Y-90824200D01*
X107685713Y-90824200D02*
X107761903Y-90862295D01*
X107761903Y-90862295D02*
X107914284Y-90862295D01*
X107914284Y-90862295D02*
X107990475Y-90824200D01*
X107990475Y-90824200D02*
X108066665Y-90748009D01*
X108066665Y-90748009D02*
X108104761Y-90595628D01*
X108104761Y-90595628D02*
X108104761Y-90328961D01*
X108104761Y-90328961D02*
X108066665Y-90176580D01*
X108066665Y-90176580D02*
X107990475Y-90100390D01*
X107990475Y-90100390D02*
X107914284Y-90062295D01*
X107228570Y-90062295D02*
X107228570Y-90709914D01*
X107228570Y-90709914D02*
X107190475Y-90786104D01*
X107190475Y-90786104D02*
X107152380Y-90824200D01*
X107152380Y-90824200D02*
X107076189Y-90862295D01*
X107076189Y-90862295D02*
X106923808Y-90862295D01*
X106923808Y-90862295D02*
X106847618Y-90824200D01*
X106847618Y-90824200D02*
X106809523Y-90786104D01*
X106809523Y-90786104D02*
X106771427Y-90709914D01*
X106771427Y-90709914D02*
X106771427Y-90062295D01*
X106504761Y-90062295D02*
X106047618Y-90062295D01*
X106276190Y-90862295D02*
X106276190Y-90062295D01*
X105780951Y-90443247D02*
X105171428Y-90443247D01*
X105171428Y-90671819D02*
X105780951Y-90671819D01*
X104523809Y-90443247D02*
X104790475Y-90443247D01*
X104790475Y-90862295D02*
X104790475Y-90062295D01*
X104790475Y-90062295D02*
X104409523Y-90062295D01*
X103647618Y-90862295D02*
X103914285Y-90481342D01*
X104104761Y-90862295D02*
X104104761Y-90062295D01*
X104104761Y-90062295D02*
X103799999Y-90062295D01*
X103799999Y-90062295D02*
X103723809Y-90100390D01*
X103723809Y-90100390D02*
X103685714Y-90138485D01*
X103685714Y-90138485D02*
X103647618Y-90214676D01*
X103647618Y-90214676D02*
X103647618Y-90328961D01*
X103647618Y-90328961D02*
X103685714Y-90405152D01*
X103685714Y-90405152D02*
X103723809Y-90443247D01*
X103723809Y-90443247D02*
X103799999Y-90481342D01*
X103799999Y-90481342D02*
X104104761Y-90481342D01*
X103152380Y-90062295D02*
X102999999Y-90062295D01*
X102999999Y-90062295D02*
X102923809Y-90100390D01*
X102923809Y-90100390D02*
X102847618Y-90176580D01*
X102847618Y-90176580D02*
X102809523Y-90328961D01*
X102809523Y-90328961D02*
X102809523Y-90595628D01*
X102809523Y-90595628D02*
X102847618Y-90748009D01*
X102847618Y-90748009D02*
X102923809Y-90824200D01*
X102923809Y-90824200D02*
X102999999Y-90862295D01*
X102999999Y-90862295D02*
X103152380Y-90862295D01*
X103152380Y-90862295D02*
X103228571Y-90824200D01*
X103228571Y-90824200D02*
X103304761Y-90748009D01*
X103304761Y-90748009D02*
X103342857Y-90595628D01*
X103342857Y-90595628D02*
X103342857Y-90328961D01*
X103342857Y-90328961D02*
X103304761Y-90176580D01*
X103304761Y-90176580D02*
X103228571Y-90100390D01*
X103228571Y-90100390D02*
X103152380Y-90062295D01*
X102466666Y-90862295D02*
X102466666Y-90062295D01*
X102466666Y-90062295D02*
X102200000Y-90633723D01*
X102200000Y-90633723D02*
X101933333Y-90062295D01*
X101933333Y-90062295D02*
X101933333Y-90862295D01*
X148566666Y-80832295D02*
X148071428Y-80832295D01*
X148071428Y-80832295D02*
X148338094Y-81137057D01*
X148338094Y-81137057D02*
X148223809Y-81137057D01*
X148223809Y-81137057D02*
X148147618Y-81175152D01*
X148147618Y-81175152D02*
X148109523Y-81213247D01*
X148109523Y-81213247D02*
X148071428Y-81289438D01*
X148071428Y-81289438D02*
X148071428Y-81479914D01*
X148071428Y-81479914D02*
X148109523Y-81556104D01*
X148109523Y-81556104D02*
X148147618Y-81594200D01*
X148147618Y-81594200D02*
X148223809Y-81632295D01*
X148223809Y-81632295D02*
X148452380Y-81632295D01*
X148452380Y-81632295D02*
X148528571Y-81594200D01*
X148528571Y-81594200D02*
X148566666Y-81556104D01*
X133566666Y-99418318D02*
X133566666Y-100065937D01*
X133566666Y-100065937D02*
X133528571Y-100142127D01*
X133528571Y-100142127D02*
X133490476Y-100180223D01*
X133490476Y-100180223D02*
X133414285Y-100218318D01*
X133414285Y-100218318D02*
X133261904Y-100218318D01*
X133261904Y-100218318D02*
X133185714Y-100180223D01*
X133185714Y-100180223D02*
X133147619Y-100142127D01*
X133147619Y-100142127D02*
X133109523Y-100065937D01*
X133109523Y-100065937D02*
X133109523Y-99418318D01*
X132804762Y-99418318D02*
X132309524Y-99418318D01*
X132309524Y-99418318D02*
X132576190Y-99723080D01*
X132576190Y-99723080D02*
X132461905Y-99723080D01*
X132461905Y-99723080D02*
X132385714Y-99761175D01*
X132385714Y-99761175D02*
X132347619Y-99799270D01*
X132347619Y-99799270D02*
X132309524Y-99875461D01*
X132309524Y-99875461D02*
X132309524Y-100065937D01*
X132309524Y-100065937D02*
X132347619Y-100142127D01*
X132347619Y-100142127D02*
X132385714Y-100180223D01*
X132385714Y-100180223D02*
X132461905Y-100218318D01*
X132461905Y-100218318D02*
X132690476Y-100218318D01*
X132690476Y-100218318D02*
X132766667Y-100180223D01*
X132766667Y-100180223D02*
X132804762Y-100142127D01*
X131814285Y-99418318D02*
X131738095Y-99418318D01*
X131738095Y-99418318D02*
X131661904Y-99456413D01*
X131661904Y-99456413D02*
X131623809Y-99494508D01*
X131623809Y-99494508D02*
X131585714Y-99570699D01*
X131585714Y-99570699D02*
X131547619Y-99723080D01*
X131547619Y-99723080D02*
X131547619Y-99913556D01*
X131547619Y-99913556D02*
X131585714Y-100065937D01*
X131585714Y-100065937D02*
X131623809Y-100142127D01*
X131623809Y-100142127D02*
X131661904Y-100180223D01*
X131661904Y-100180223D02*
X131738095Y-100218318D01*
X131738095Y-100218318D02*
X131814285Y-100218318D01*
X131814285Y-100218318D02*
X131890476Y-100180223D01*
X131890476Y-100180223D02*
X131928571Y-100142127D01*
X131928571Y-100142127D02*
X131966666Y-100065937D01*
X131966666Y-100065937D02*
X132004762Y-99913556D01*
X132004762Y-99913556D02*
X132004762Y-99723080D01*
X132004762Y-99723080D02*
X131966666Y-99570699D01*
X131966666Y-99570699D02*
X131928571Y-99494508D01*
X131928571Y-99494508D02*
X131890476Y-99456413D01*
X131890476Y-99456413D02*
X131814285Y-99418318D01*
X130785714Y-100218318D02*
X131242857Y-100218318D01*
X131014285Y-100218318D02*
X131014285Y-99418318D01*
X131014285Y-99418318D02*
X131090476Y-99532603D01*
X131090476Y-99532603D02*
X131166666Y-99608794D01*
X131166666Y-99608794D02*
X131242857Y-99646889D01*
X130442856Y-100142127D02*
X130404761Y-100180223D01*
X130404761Y-100180223D02*
X130442856Y-100218318D01*
X130442856Y-100218318D02*
X130480952Y-100180223D01*
X130480952Y-100180223D02*
X130442856Y-100142127D01*
X130442856Y-100142127D02*
X130442856Y-100218318D01*
X130100000Y-99494508D02*
X130061904Y-99456413D01*
X130061904Y-99456413D02*
X129985714Y-99418318D01*
X129985714Y-99418318D02*
X129795238Y-99418318D01*
X129795238Y-99418318D02*
X129719047Y-99456413D01*
X129719047Y-99456413D02*
X129680952Y-99494508D01*
X129680952Y-99494508D02*
X129642857Y-99570699D01*
X129642857Y-99570699D02*
X129642857Y-99646889D01*
X129642857Y-99646889D02*
X129680952Y-99761175D01*
X129680952Y-99761175D02*
X130138095Y-100218318D01*
X130138095Y-100218318D02*
X129642857Y-100218318D01*
X128690475Y-100218318D02*
X128690475Y-99418318D01*
X128690475Y-99418318D02*
X128233332Y-100218318D01*
X128233332Y-100218318D02*
X128233332Y-99418318D01*
X127395237Y-100142127D02*
X127433333Y-100180223D01*
X127433333Y-100180223D02*
X127547618Y-100218318D01*
X127547618Y-100218318D02*
X127623809Y-100218318D01*
X127623809Y-100218318D02*
X127738095Y-100180223D01*
X127738095Y-100180223D02*
X127814285Y-100104032D01*
X127814285Y-100104032D02*
X127852380Y-100027842D01*
X127852380Y-100027842D02*
X127890476Y-99875461D01*
X127890476Y-99875461D02*
X127890476Y-99761175D01*
X127890476Y-99761175D02*
X127852380Y-99608794D01*
X127852380Y-99608794D02*
X127814285Y-99532603D01*
X127814285Y-99532603D02*
X127738095Y-99456413D01*
X127738095Y-99456413D02*
X127623809Y-99418318D01*
X127623809Y-99418318D02*
X127547618Y-99418318D01*
X127547618Y-99418318D02*
X127433333Y-99456413D01*
X127433333Y-99456413D02*
X127395237Y-99494508D01*
X132861904Y-101506273D02*
X132861904Y-100706273D01*
X132861904Y-100706273D02*
X132404761Y-101506273D01*
X132404761Y-101506273D02*
X132404761Y-100706273D01*
X131871428Y-100706273D02*
X131719047Y-100706273D01*
X131719047Y-100706273D02*
X131642857Y-100744368D01*
X131642857Y-100744368D02*
X131566666Y-100820558D01*
X131566666Y-100820558D02*
X131528571Y-100972939D01*
X131528571Y-100972939D02*
X131528571Y-101239606D01*
X131528571Y-101239606D02*
X131566666Y-101391987D01*
X131566666Y-101391987D02*
X131642857Y-101468178D01*
X131642857Y-101468178D02*
X131719047Y-101506273D01*
X131719047Y-101506273D02*
X131871428Y-101506273D01*
X131871428Y-101506273D02*
X131947619Y-101468178D01*
X131947619Y-101468178D02*
X132023809Y-101391987D01*
X132023809Y-101391987D02*
X132061905Y-101239606D01*
X132061905Y-101239606D02*
X132061905Y-100972939D01*
X132061905Y-100972939D02*
X132023809Y-100820558D01*
X132023809Y-100820558D02*
X131947619Y-100744368D01*
X131947619Y-100744368D02*
X131871428Y-100706273D01*
X130652381Y-100706273D02*
X130461905Y-101506273D01*
X130461905Y-101506273D02*
X130309524Y-100934844D01*
X130309524Y-100934844D02*
X130157143Y-101506273D01*
X130157143Y-101506273D02*
X129966667Y-100706273D01*
X129661904Y-101506273D02*
X129661904Y-100706273D01*
X128823809Y-101506273D02*
X129090476Y-101125320D01*
X129280952Y-101506273D02*
X129280952Y-100706273D01*
X129280952Y-100706273D02*
X128976190Y-100706273D01*
X128976190Y-100706273D02*
X128900000Y-100744368D01*
X128900000Y-100744368D02*
X128861905Y-100782463D01*
X128861905Y-100782463D02*
X128823809Y-100858654D01*
X128823809Y-100858654D02*
X128823809Y-100972939D01*
X128823809Y-100972939D02*
X128861905Y-101049130D01*
X128861905Y-101049130D02*
X128900000Y-101087225D01*
X128900000Y-101087225D02*
X128976190Y-101125320D01*
X128976190Y-101125320D02*
X129280952Y-101125320D01*
X128480952Y-101087225D02*
X128214286Y-101087225D01*
X128100000Y-101506273D02*
X128480952Y-101506273D01*
X128480952Y-101506273D02*
X128480952Y-100706273D01*
X128480952Y-100706273D02*
X128100000Y-100706273D01*
X71366667Y-86774340D02*
X71366667Y-87345768D01*
X71366667Y-87345768D02*
X71404762Y-87460054D01*
X71404762Y-87460054D02*
X71480953Y-87536245D01*
X71480953Y-87536245D02*
X71595238Y-87574340D01*
X71595238Y-87574340D02*
X71671429Y-87574340D01*
X71061905Y-86774340D02*
X70566667Y-86774340D01*
X70566667Y-86774340D02*
X70833333Y-87079102D01*
X70833333Y-87079102D02*
X70719048Y-87079102D01*
X70719048Y-87079102D02*
X70642857Y-87117197D01*
X70642857Y-87117197D02*
X70604762Y-87155292D01*
X70604762Y-87155292D02*
X70566667Y-87231483D01*
X70566667Y-87231483D02*
X70566667Y-87421959D01*
X70566667Y-87421959D02*
X70604762Y-87498149D01*
X70604762Y-87498149D02*
X70642857Y-87536245D01*
X70642857Y-87536245D02*
X70719048Y-87574340D01*
X70719048Y-87574340D02*
X70947619Y-87574340D01*
X70947619Y-87574340D02*
X71023810Y-87536245D01*
X71023810Y-87536245D02*
X71061905Y-87498149D01*
X70071428Y-86774340D02*
X69995238Y-86774340D01*
X69995238Y-86774340D02*
X69919047Y-86812435D01*
X69919047Y-86812435D02*
X69880952Y-86850530D01*
X69880952Y-86850530D02*
X69842857Y-86926721D01*
X69842857Y-86926721D02*
X69804762Y-87079102D01*
X69804762Y-87079102D02*
X69804762Y-87269578D01*
X69804762Y-87269578D02*
X69842857Y-87421959D01*
X69842857Y-87421959D02*
X69880952Y-87498149D01*
X69880952Y-87498149D02*
X69919047Y-87536245D01*
X69919047Y-87536245D02*
X69995238Y-87574340D01*
X69995238Y-87574340D02*
X70071428Y-87574340D01*
X70071428Y-87574340D02*
X70147619Y-87536245D01*
X70147619Y-87536245D02*
X70185714Y-87498149D01*
X70185714Y-87498149D02*
X70223809Y-87421959D01*
X70223809Y-87421959D02*
X70261905Y-87269578D01*
X70261905Y-87269578D02*
X70261905Y-87079102D01*
X70261905Y-87079102D02*
X70223809Y-86926721D01*
X70223809Y-86926721D02*
X70185714Y-86850530D01*
X70185714Y-86850530D02*
X70147619Y-86812435D01*
X70147619Y-86812435D02*
X70071428Y-86774340D01*
X69500000Y-86850530D02*
X69461904Y-86812435D01*
X69461904Y-86812435D02*
X69385714Y-86774340D01*
X69385714Y-86774340D02*
X69195238Y-86774340D01*
X69195238Y-86774340D02*
X69119047Y-86812435D01*
X69119047Y-86812435D02*
X69080952Y-86850530D01*
X69080952Y-86850530D02*
X69042857Y-86926721D01*
X69042857Y-86926721D02*
X69042857Y-87002911D01*
X69042857Y-87002911D02*
X69080952Y-87117197D01*
X69080952Y-87117197D02*
X69538095Y-87574340D01*
X69538095Y-87574340D02*
X69042857Y-87574340D01*
X68090475Y-87574340D02*
X68090475Y-86774340D01*
X68090475Y-86774340D02*
X67785713Y-86774340D01*
X67785713Y-86774340D02*
X67709523Y-86812435D01*
X67709523Y-86812435D02*
X67671428Y-86850530D01*
X67671428Y-86850530D02*
X67633332Y-86926721D01*
X67633332Y-86926721D02*
X67633332Y-87041006D01*
X67633332Y-87041006D02*
X67671428Y-87117197D01*
X67671428Y-87117197D02*
X67709523Y-87155292D01*
X67709523Y-87155292D02*
X67785713Y-87193387D01*
X67785713Y-87193387D02*
X68090475Y-87193387D01*
X67328571Y-87345768D02*
X66947618Y-87345768D01*
X67404761Y-87574340D02*
X67138094Y-86774340D01*
X67138094Y-86774340D02*
X66871428Y-87574340D01*
X66642857Y-87536245D02*
X66528571Y-87574340D01*
X66528571Y-87574340D02*
X66338095Y-87574340D01*
X66338095Y-87574340D02*
X66261904Y-87536245D01*
X66261904Y-87536245D02*
X66223809Y-87498149D01*
X66223809Y-87498149D02*
X66185714Y-87421959D01*
X66185714Y-87421959D02*
X66185714Y-87345768D01*
X66185714Y-87345768D02*
X66223809Y-87269578D01*
X66223809Y-87269578D02*
X66261904Y-87231483D01*
X66261904Y-87231483D02*
X66338095Y-87193387D01*
X66338095Y-87193387D02*
X66490476Y-87155292D01*
X66490476Y-87155292D02*
X66566666Y-87117197D01*
X66566666Y-87117197D02*
X66604761Y-87079102D01*
X66604761Y-87079102D02*
X66642857Y-87002911D01*
X66642857Y-87002911D02*
X66642857Y-86926721D01*
X66642857Y-86926721D02*
X66604761Y-86850530D01*
X66604761Y-86850530D02*
X66566666Y-86812435D01*
X66566666Y-86812435D02*
X66490476Y-86774340D01*
X66490476Y-86774340D02*
X66299999Y-86774340D01*
X66299999Y-86774340D02*
X66185714Y-86812435D01*
X65880952Y-87536245D02*
X65766666Y-87574340D01*
X65766666Y-87574340D02*
X65576190Y-87574340D01*
X65576190Y-87574340D02*
X65499999Y-87536245D01*
X65499999Y-87536245D02*
X65461904Y-87498149D01*
X65461904Y-87498149D02*
X65423809Y-87421959D01*
X65423809Y-87421959D02*
X65423809Y-87345768D01*
X65423809Y-87345768D02*
X65461904Y-87269578D01*
X65461904Y-87269578D02*
X65499999Y-87231483D01*
X65499999Y-87231483D02*
X65576190Y-87193387D01*
X65576190Y-87193387D02*
X65728571Y-87155292D01*
X65728571Y-87155292D02*
X65804761Y-87117197D01*
X65804761Y-87117197D02*
X65842856Y-87079102D01*
X65842856Y-87079102D02*
X65880952Y-87002911D01*
X65880952Y-87002911D02*
X65880952Y-86926721D01*
X65880952Y-86926721D02*
X65842856Y-86850530D01*
X65842856Y-86850530D02*
X65804761Y-86812435D01*
X65804761Y-86812435D02*
X65728571Y-86774340D01*
X65728571Y-86774340D02*
X65538094Y-86774340D01*
X65538094Y-86774340D02*
X65423809Y-86812435D01*
X65080951Y-87574340D02*
X65080951Y-86774340D01*
X64814285Y-86774340D02*
X64547618Y-87574340D01*
X64547618Y-87574340D02*
X64280952Y-86774340D01*
X64014285Y-87155292D02*
X63747619Y-87155292D01*
X63633333Y-87574340D02*
X64014285Y-87574340D01*
X64014285Y-87574340D02*
X64014285Y-86774340D01*
X64014285Y-86774340D02*
X63633333Y-86774340D01*
X62680951Y-87574340D02*
X62680951Y-86774340D01*
X62680951Y-86774340D02*
X62376189Y-86774340D01*
X62376189Y-86774340D02*
X62299999Y-86812435D01*
X62299999Y-86812435D02*
X62261904Y-86850530D01*
X62261904Y-86850530D02*
X62223808Y-86926721D01*
X62223808Y-86926721D02*
X62223808Y-87041006D01*
X62223808Y-87041006D02*
X62261904Y-87117197D01*
X62261904Y-87117197D02*
X62299999Y-87155292D01*
X62299999Y-87155292D02*
X62376189Y-87193387D01*
X62376189Y-87193387D02*
X62680951Y-87193387D01*
X61880951Y-87155292D02*
X61614285Y-87155292D01*
X61499999Y-87574340D02*
X61880951Y-87574340D01*
X61880951Y-87574340D02*
X61880951Y-86774340D01*
X61880951Y-86774340D02*
X61499999Y-86774340D01*
X61157141Y-87574340D02*
X61157141Y-86774340D01*
X61157141Y-86774340D02*
X60966665Y-86774340D01*
X60966665Y-86774340D02*
X60852379Y-86812435D01*
X60852379Y-86812435D02*
X60776189Y-86888625D01*
X60776189Y-86888625D02*
X60738094Y-86964816D01*
X60738094Y-86964816D02*
X60699998Y-87117197D01*
X60699998Y-87117197D02*
X60699998Y-87231483D01*
X60699998Y-87231483D02*
X60738094Y-87383864D01*
X60738094Y-87383864D02*
X60776189Y-87460054D01*
X60776189Y-87460054D02*
X60852379Y-87536245D01*
X60852379Y-87536245D02*
X60966665Y-87574340D01*
X60966665Y-87574340D02*
X61157141Y-87574340D01*
X60395237Y-87345768D02*
X60014284Y-87345768D01*
X60471427Y-87574340D02*
X60204760Y-86774340D01*
X60204760Y-86774340D02*
X59938094Y-87574340D01*
X59290475Y-87574340D02*
X59671427Y-87574340D01*
X59671427Y-87574340D02*
X59671427Y-86774340D01*
X71842856Y-88862295D02*
X72299999Y-88862295D01*
X72071427Y-88862295D02*
X72071427Y-88062295D01*
X72071427Y-88062295D02*
X72147618Y-88176580D01*
X72147618Y-88176580D02*
X72223808Y-88252771D01*
X72223808Y-88252771D02*
X72299999Y-88290866D01*
X71004760Y-88062295D02*
X70547617Y-88062295D01*
X70776189Y-88862295D02*
X70776189Y-88062295D01*
X70280950Y-88862295D02*
X70280950Y-88062295D01*
X69899998Y-88862295D02*
X69899998Y-88062295D01*
X69899998Y-88062295D02*
X69595236Y-88062295D01*
X69595236Y-88062295D02*
X69519046Y-88100390D01*
X69519046Y-88100390D02*
X69480951Y-88138485D01*
X69480951Y-88138485D02*
X69442855Y-88214676D01*
X69442855Y-88214676D02*
X69442855Y-88328961D01*
X69442855Y-88328961D02*
X69480951Y-88405152D01*
X69480951Y-88405152D02*
X69519046Y-88443247D01*
X69519046Y-88443247D02*
X69595236Y-88481342D01*
X69595236Y-88481342D02*
X69899998Y-88481342D01*
X68490474Y-88862295D02*
X68490474Y-88062295D01*
X67538094Y-88024200D02*
X68223808Y-89052771D01*
X67119046Y-88062295D02*
X66966665Y-88062295D01*
X66966665Y-88062295D02*
X66890475Y-88100390D01*
X66890475Y-88100390D02*
X66814284Y-88176580D01*
X66814284Y-88176580D02*
X66776189Y-88328961D01*
X66776189Y-88328961D02*
X66776189Y-88595628D01*
X66776189Y-88595628D02*
X66814284Y-88748009D01*
X66814284Y-88748009D02*
X66890475Y-88824200D01*
X66890475Y-88824200D02*
X66966665Y-88862295D01*
X66966665Y-88862295D02*
X67119046Y-88862295D01*
X67119046Y-88862295D02*
X67195237Y-88824200D01*
X67195237Y-88824200D02*
X67271427Y-88748009D01*
X67271427Y-88748009D02*
X67309523Y-88595628D01*
X67309523Y-88595628D02*
X67309523Y-88328961D01*
X67309523Y-88328961D02*
X67271427Y-88176580D01*
X67271427Y-88176580D02*
X67195237Y-88100390D01*
X67195237Y-88100390D02*
X67119046Y-88062295D01*
X65252380Y-88138485D02*
X65214284Y-88100390D01*
X65214284Y-88100390D02*
X65138094Y-88062295D01*
X65138094Y-88062295D02*
X64947618Y-88062295D01*
X64947618Y-88062295D02*
X64871427Y-88100390D01*
X64871427Y-88100390D02*
X64833332Y-88138485D01*
X64833332Y-88138485D02*
X64795237Y-88214676D01*
X64795237Y-88214676D02*
X64795237Y-88290866D01*
X64795237Y-88290866D02*
X64833332Y-88405152D01*
X64833332Y-88405152D02*
X65290475Y-88862295D01*
X65290475Y-88862295D02*
X64795237Y-88862295D01*
X63385712Y-88862295D02*
X63652379Y-88481342D01*
X63842855Y-88862295D02*
X63842855Y-88062295D01*
X63842855Y-88062295D02*
X63538093Y-88062295D01*
X63538093Y-88062295D02*
X63461903Y-88100390D01*
X63461903Y-88100390D02*
X63423808Y-88138485D01*
X63423808Y-88138485D02*
X63385712Y-88214676D01*
X63385712Y-88214676D02*
X63385712Y-88328961D01*
X63385712Y-88328961D02*
X63423808Y-88405152D01*
X63423808Y-88405152D02*
X63461903Y-88443247D01*
X63461903Y-88443247D02*
X63538093Y-88481342D01*
X63538093Y-88481342D02*
X63842855Y-88481342D01*
X63042855Y-88862295D02*
X63042855Y-88062295D01*
X62661903Y-88862295D02*
X62661903Y-88062295D01*
X62661903Y-88062295D02*
X62204760Y-88862295D01*
X62204760Y-88862295D02*
X62204760Y-88062295D01*
X61404761Y-88100390D02*
X61480951Y-88062295D01*
X61480951Y-88062295D02*
X61595237Y-88062295D01*
X61595237Y-88062295D02*
X61709523Y-88100390D01*
X61709523Y-88100390D02*
X61785713Y-88176580D01*
X61785713Y-88176580D02*
X61823808Y-88252771D01*
X61823808Y-88252771D02*
X61861904Y-88405152D01*
X61861904Y-88405152D02*
X61861904Y-88519438D01*
X61861904Y-88519438D02*
X61823808Y-88671819D01*
X61823808Y-88671819D02*
X61785713Y-88748009D01*
X61785713Y-88748009D02*
X61709523Y-88824200D01*
X61709523Y-88824200D02*
X61595237Y-88862295D01*
X61595237Y-88862295D02*
X61519046Y-88862295D01*
X61519046Y-88862295D02*
X61404761Y-88824200D01*
X61404761Y-88824200D02*
X61366665Y-88786104D01*
X61366665Y-88786104D02*
X61366665Y-88519438D01*
X61366665Y-88519438D02*
X61519046Y-88519438D01*
X60414284Y-88862295D02*
X60414284Y-88062295D01*
X59461904Y-88024200D02*
X60147618Y-89052771D01*
X59042856Y-88062295D02*
X58890475Y-88062295D01*
X58890475Y-88062295D02*
X58814285Y-88100390D01*
X58814285Y-88100390D02*
X58738094Y-88176580D01*
X58738094Y-88176580D02*
X58699999Y-88328961D01*
X58699999Y-88328961D02*
X58699999Y-88595628D01*
X58699999Y-88595628D02*
X58738094Y-88748009D01*
X58738094Y-88748009D02*
X58814285Y-88824200D01*
X58814285Y-88824200D02*
X58890475Y-88862295D01*
X58890475Y-88862295D02*
X59042856Y-88862295D01*
X59042856Y-88862295D02*
X59119047Y-88824200D01*
X59119047Y-88824200D02*
X59195237Y-88748009D01*
X59195237Y-88748009D02*
X59233333Y-88595628D01*
X59233333Y-88595628D02*
X59233333Y-88328961D01*
X59233333Y-88328961D02*
X59195237Y-88176580D01*
X59195237Y-88176580D02*
X59119047Y-88100390D01*
X59119047Y-88100390D02*
X59042856Y-88062295D01*
X68319047Y-89350250D02*
X67823809Y-89350250D01*
X67823809Y-89350250D02*
X68090475Y-89655012D01*
X68090475Y-89655012D02*
X67976190Y-89655012D01*
X67976190Y-89655012D02*
X67899999Y-89693107D01*
X67899999Y-89693107D02*
X67861904Y-89731202D01*
X67861904Y-89731202D02*
X67823809Y-89807393D01*
X67823809Y-89807393D02*
X67823809Y-89997869D01*
X67823809Y-89997869D02*
X67861904Y-90074059D01*
X67861904Y-90074059D02*
X67899999Y-90112155D01*
X67899999Y-90112155D02*
X67976190Y-90150250D01*
X67976190Y-90150250D02*
X68204761Y-90150250D01*
X68204761Y-90150250D02*
X68280952Y-90112155D01*
X68280952Y-90112155D02*
X68319047Y-90074059D01*
X66452380Y-89388345D02*
X66528570Y-89350250D01*
X66528570Y-89350250D02*
X66642856Y-89350250D01*
X66642856Y-89350250D02*
X66757142Y-89388345D01*
X66757142Y-89388345D02*
X66833332Y-89464535D01*
X66833332Y-89464535D02*
X66871427Y-89540726D01*
X66871427Y-89540726D02*
X66909523Y-89693107D01*
X66909523Y-89693107D02*
X66909523Y-89807393D01*
X66909523Y-89807393D02*
X66871427Y-89959774D01*
X66871427Y-89959774D02*
X66833332Y-90035964D01*
X66833332Y-90035964D02*
X66757142Y-90112155D01*
X66757142Y-90112155D02*
X66642856Y-90150250D01*
X66642856Y-90150250D02*
X66566665Y-90150250D01*
X66566665Y-90150250D02*
X66452380Y-90112155D01*
X66452380Y-90112155D02*
X66414284Y-90074059D01*
X66414284Y-90074059D02*
X66414284Y-89807393D01*
X66414284Y-89807393D02*
X66566665Y-89807393D01*
X66071427Y-90150250D02*
X66071427Y-89350250D01*
X66071427Y-89350250D02*
X65614284Y-90150250D01*
X65614284Y-90150250D02*
X65614284Y-89350250D01*
X65233332Y-90150250D02*
X65233332Y-89350250D01*
X65233332Y-89350250D02*
X65042856Y-89350250D01*
X65042856Y-89350250D02*
X64928570Y-89388345D01*
X64928570Y-89388345D02*
X64852380Y-89464535D01*
X64852380Y-89464535D02*
X64814285Y-89540726D01*
X64814285Y-89540726D02*
X64776189Y-89693107D01*
X64776189Y-89693107D02*
X64776189Y-89807393D01*
X64776189Y-89807393D02*
X64814285Y-89959774D01*
X64814285Y-89959774D02*
X64852380Y-90035964D01*
X64852380Y-90035964D02*
X64928570Y-90112155D01*
X64928570Y-90112155D02*
X65042856Y-90150250D01*
X65042856Y-90150250D02*
X65233332Y-90150250D01*
X63671427Y-89350250D02*
X63595237Y-89350250D01*
X63595237Y-89350250D02*
X63519046Y-89388345D01*
X63519046Y-89388345D02*
X63480951Y-89426440D01*
X63480951Y-89426440D02*
X63442856Y-89502631D01*
X63442856Y-89502631D02*
X63404761Y-89655012D01*
X63404761Y-89655012D02*
X63404761Y-89845488D01*
X63404761Y-89845488D02*
X63442856Y-89997869D01*
X63442856Y-89997869D02*
X63480951Y-90074059D01*
X63480951Y-90074059D02*
X63519046Y-90112155D01*
X63519046Y-90112155D02*
X63595237Y-90150250D01*
X63595237Y-90150250D02*
X63671427Y-90150250D01*
X63671427Y-90150250D02*
X63747618Y-90112155D01*
X63747618Y-90112155D02*
X63785713Y-90074059D01*
X63785713Y-90074059D02*
X63823808Y-89997869D01*
X63823808Y-89997869D02*
X63861904Y-89845488D01*
X63861904Y-89845488D02*
X63861904Y-89655012D01*
X63861904Y-89655012D02*
X63823808Y-89502631D01*
X63823808Y-89502631D02*
X63785713Y-89426440D01*
X63785713Y-89426440D02*
X63747618Y-89388345D01*
X63747618Y-89388345D02*
X63671427Y-89350250D01*
X63176189Y-89350250D02*
X62909522Y-90150250D01*
X62909522Y-90150250D02*
X62642856Y-89350250D01*
X148071428Y-76552295D02*
X148528571Y-76552295D01*
X148299999Y-76552295D02*
X148299999Y-75752295D01*
X148299999Y-75752295D02*
X148376190Y-75866580D01*
X148376190Y-75866580D02*
X148452380Y-75942771D01*
X148452380Y-75942771D02*
X148528571Y-75980866D01*
X72296666Y-82062295D02*
X71801428Y-82062295D01*
X71801428Y-82062295D02*
X72068094Y-82367057D01*
X72068094Y-82367057D02*
X71953809Y-82367057D01*
X71953809Y-82367057D02*
X71877618Y-82405152D01*
X71877618Y-82405152D02*
X71839523Y-82443247D01*
X71839523Y-82443247D02*
X71801428Y-82519438D01*
X71801428Y-82519438D02*
X71801428Y-82709914D01*
X71801428Y-82709914D02*
X71839523Y-82786104D01*
X71839523Y-82786104D02*
X71877618Y-82824200D01*
X71877618Y-82824200D02*
X71953809Y-82862295D01*
X71953809Y-82862295D02*
X72182380Y-82862295D01*
X72182380Y-82862295D02*
X72258571Y-82824200D01*
X72258571Y-82824200D02*
X72296666Y-82786104D01*
X118566666Y-117102295D02*
X118071428Y-117102295D01*
X118071428Y-117102295D02*
X118338094Y-117407057D01*
X118338094Y-117407057D02*
X118223809Y-117407057D01*
X118223809Y-117407057D02*
X118147618Y-117445152D01*
X118147618Y-117445152D02*
X118109523Y-117483247D01*
X118109523Y-117483247D02*
X118071428Y-117559438D01*
X118071428Y-117559438D02*
X118071428Y-117749914D01*
X118071428Y-117749914D02*
X118109523Y-117826104D01*
X118109523Y-117826104D02*
X118147618Y-117864200D01*
X118147618Y-117864200D02*
X118223809Y-117902295D01*
X118223809Y-117902295D02*
X118452380Y-117902295D01*
X118452380Y-117902295D02*
X118528571Y-117864200D01*
X118528571Y-117864200D02*
X118566666Y-117826104D01*
X58971428Y-80322295D02*
X59428571Y-80322295D01*
X59199999Y-80322295D02*
X59199999Y-79522295D01*
X59199999Y-79522295D02*
X59276190Y-79636580D01*
X59276190Y-79636580D02*
X59352380Y-79712771D01*
X59352380Y-79712771D02*
X59428571Y-79750866D01*
X121428571Y-109522295D02*
X121428571Y-110093723D01*
X121428571Y-110093723D02*
X121466666Y-110208009D01*
X121466666Y-110208009D02*
X121542857Y-110284200D01*
X121542857Y-110284200D02*
X121657142Y-110322295D01*
X121657142Y-110322295D02*
X121733333Y-110322295D01*
X121047618Y-110322295D02*
X121047618Y-109522295D01*
X121047618Y-109522295D02*
X120742856Y-109522295D01*
X120742856Y-109522295D02*
X120666666Y-109560390D01*
X120666666Y-109560390D02*
X120628571Y-109598485D01*
X120628571Y-109598485D02*
X120590475Y-109674676D01*
X120590475Y-109674676D02*
X120590475Y-109788961D01*
X120590475Y-109788961D02*
X120628571Y-109865152D01*
X120628571Y-109865152D02*
X120666666Y-109903247D01*
X120666666Y-109903247D02*
X120742856Y-109941342D01*
X120742856Y-109941342D02*
X121047618Y-109941342D01*
X120323809Y-109522295D02*
X119828571Y-109522295D01*
X119828571Y-109522295D02*
X120095237Y-109827057D01*
X120095237Y-109827057D02*
X119980952Y-109827057D01*
X119980952Y-109827057D02*
X119904761Y-109865152D01*
X119904761Y-109865152D02*
X119866666Y-109903247D01*
X119866666Y-109903247D02*
X119828571Y-109979438D01*
X119828571Y-109979438D02*
X119828571Y-110169914D01*
X119828571Y-110169914D02*
X119866666Y-110246104D01*
X119866666Y-110246104D02*
X119904761Y-110284200D01*
X119904761Y-110284200D02*
X119980952Y-110322295D01*
X119980952Y-110322295D02*
X120209523Y-110322295D01*
X120209523Y-110322295D02*
X120285714Y-110284200D01*
X120285714Y-110284200D02*
X120323809Y-110246104D01*
X119333332Y-109522295D02*
X119257142Y-109522295D01*
X119257142Y-109522295D02*
X119180951Y-109560390D01*
X119180951Y-109560390D02*
X119142856Y-109598485D01*
X119142856Y-109598485D02*
X119104761Y-109674676D01*
X119104761Y-109674676D02*
X119066666Y-109827057D01*
X119066666Y-109827057D02*
X119066666Y-110017533D01*
X119066666Y-110017533D02*
X119104761Y-110169914D01*
X119104761Y-110169914D02*
X119142856Y-110246104D01*
X119142856Y-110246104D02*
X119180951Y-110284200D01*
X119180951Y-110284200D02*
X119257142Y-110322295D01*
X119257142Y-110322295D02*
X119333332Y-110322295D01*
X119333332Y-110322295D02*
X119409523Y-110284200D01*
X119409523Y-110284200D02*
X119447618Y-110246104D01*
X119447618Y-110246104D02*
X119485713Y-110169914D01*
X119485713Y-110169914D02*
X119523809Y-110017533D01*
X119523809Y-110017533D02*
X119523809Y-109827057D01*
X119523809Y-109827057D02*
X119485713Y-109674676D01*
X119485713Y-109674676D02*
X119447618Y-109598485D01*
X119447618Y-109598485D02*
X119409523Y-109560390D01*
X119409523Y-109560390D02*
X119333332Y-109522295D01*
X118761904Y-109598485D02*
X118723808Y-109560390D01*
X118723808Y-109560390D02*
X118647618Y-109522295D01*
X118647618Y-109522295D02*
X118457142Y-109522295D01*
X118457142Y-109522295D02*
X118380951Y-109560390D01*
X118380951Y-109560390D02*
X118342856Y-109598485D01*
X118342856Y-109598485D02*
X118304761Y-109674676D01*
X118304761Y-109674676D02*
X118304761Y-109750866D01*
X118304761Y-109750866D02*
X118342856Y-109865152D01*
X118342856Y-109865152D02*
X118799999Y-110322295D01*
X118799999Y-110322295D02*
X118304761Y-110322295D01*
X133947618Y-86418318D02*
X133947618Y-87065937D01*
X133947618Y-87065937D02*
X133909523Y-87142127D01*
X133909523Y-87142127D02*
X133871428Y-87180223D01*
X133871428Y-87180223D02*
X133795237Y-87218318D01*
X133795237Y-87218318D02*
X133642856Y-87218318D01*
X133642856Y-87218318D02*
X133566666Y-87180223D01*
X133566666Y-87180223D02*
X133528571Y-87142127D01*
X133528571Y-87142127D02*
X133490475Y-87065937D01*
X133490475Y-87065937D02*
X133490475Y-86418318D01*
X133185714Y-86418318D02*
X132690476Y-86418318D01*
X132690476Y-86418318D02*
X132957142Y-86723080D01*
X132957142Y-86723080D02*
X132842857Y-86723080D01*
X132842857Y-86723080D02*
X132766666Y-86761175D01*
X132766666Y-86761175D02*
X132728571Y-86799270D01*
X132728571Y-86799270D02*
X132690476Y-86875461D01*
X132690476Y-86875461D02*
X132690476Y-87065937D01*
X132690476Y-87065937D02*
X132728571Y-87142127D01*
X132728571Y-87142127D02*
X132766666Y-87180223D01*
X132766666Y-87180223D02*
X132842857Y-87218318D01*
X132842857Y-87218318D02*
X133071428Y-87218318D01*
X133071428Y-87218318D02*
X133147619Y-87180223D01*
X133147619Y-87180223D02*
X133185714Y-87142127D01*
X132195237Y-86418318D02*
X132119047Y-86418318D01*
X132119047Y-86418318D02*
X132042856Y-86456413D01*
X132042856Y-86456413D02*
X132004761Y-86494508D01*
X132004761Y-86494508D02*
X131966666Y-86570699D01*
X131966666Y-86570699D02*
X131928571Y-86723080D01*
X131928571Y-86723080D02*
X131928571Y-86913556D01*
X131928571Y-86913556D02*
X131966666Y-87065937D01*
X131966666Y-87065937D02*
X132004761Y-87142127D01*
X132004761Y-87142127D02*
X132042856Y-87180223D01*
X132042856Y-87180223D02*
X132119047Y-87218318D01*
X132119047Y-87218318D02*
X132195237Y-87218318D01*
X132195237Y-87218318D02*
X132271428Y-87180223D01*
X132271428Y-87180223D02*
X132309523Y-87142127D01*
X132309523Y-87142127D02*
X132347618Y-87065937D01*
X132347618Y-87065937D02*
X132385714Y-86913556D01*
X132385714Y-86913556D02*
X132385714Y-86723080D01*
X132385714Y-86723080D02*
X132347618Y-86570699D01*
X132347618Y-86570699D02*
X132309523Y-86494508D01*
X132309523Y-86494508D02*
X132271428Y-86456413D01*
X132271428Y-86456413D02*
X132195237Y-86418318D01*
X131166666Y-87218318D02*
X131623809Y-87218318D01*
X131395237Y-87218318D02*
X131395237Y-86418318D01*
X131395237Y-86418318D02*
X131471428Y-86532603D01*
X131471428Y-86532603D02*
X131547618Y-86608794D01*
X131547618Y-86608794D02*
X131623809Y-86646889D01*
X130823808Y-87142127D02*
X130785713Y-87180223D01*
X130785713Y-87180223D02*
X130823808Y-87218318D01*
X130823808Y-87218318D02*
X130861904Y-87180223D01*
X130861904Y-87180223D02*
X130823808Y-87142127D01*
X130823808Y-87142127D02*
X130823808Y-87218318D01*
X130023809Y-87218318D02*
X130480952Y-87218318D01*
X130252380Y-87218318D02*
X130252380Y-86418318D01*
X130252380Y-86418318D02*
X130328571Y-86532603D01*
X130328571Y-86532603D02*
X130404761Y-86608794D01*
X130404761Y-86608794D02*
X130480952Y-86646889D01*
X129719047Y-86494508D02*
X129680951Y-86456413D01*
X129680951Y-86456413D02*
X129604761Y-86418318D01*
X129604761Y-86418318D02*
X129414285Y-86418318D01*
X129414285Y-86418318D02*
X129338094Y-86456413D01*
X129338094Y-86456413D02*
X129299999Y-86494508D01*
X129299999Y-86494508D02*
X129261904Y-86570699D01*
X129261904Y-86570699D02*
X129261904Y-86646889D01*
X129261904Y-86646889D02*
X129299999Y-86761175D01*
X129299999Y-86761175D02*
X129757142Y-87218318D01*
X129757142Y-87218318D02*
X129261904Y-87218318D01*
X128309522Y-87218318D02*
X128309522Y-86418318D01*
X128309522Y-86418318D02*
X127852379Y-87218318D01*
X127852379Y-87218318D02*
X127852379Y-86418318D01*
X127014284Y-87142127D02*
X127052380Y-87180223D01*
X127052380Y-87180223D02*
X127166665Y-87218318D01*
X127166665Y-87218318D02*
X127242856Y-87218318D01*
X127242856Y-87218318D02*
X127357142Y-87180223D01*
X127357142Y-87180223D02*
X127433332Y-87104032D01*
X127433332Y-87104032D02*
X127471427Y-87027842D01*
X127471427Y-87027842D02*
X127509523Y-86875461D01*
X127509523Y-86875461D02*
X127509523Y-86761175D01*
X127509523Y-86761175D02*
X127471427Y-86608794D01*
X127471427Y-86608794D02*
X127433332Y-86532603D01*
X127433332Y-86532603D02*
X127357142Y-86456413D01*
X127357142Y-86456413D02*
X127242856Y-86418318D01*
X127242856Y-86418318D02*
X127166665Y-86418318D01*
X127166665Y-86418318D02*
X127052380Y-86456413D01*
X127052380Y-86456413D02*
X127014284Y-86494508D01*
X132861904Y-88506273D02*
X132861904Y-87706273D01*
X132861904Y-87706273D02*
X132404761Y-88506273D01*
X132404761Y-88506273D02*
X132404761Y-87706273D01*
X131871428Y-87706273D02*
X131719047Y-87706273D01*
X131719047Y-87706273D02*
X131642857Y-87744368D01*
X131642857Y-87744368D02*
X131566666Y-87820558D01*
X131566666Y-87820558D02*
X131528571Y-87972939D01*
X131528571Y-87972939D02*
X131528571Y-88239606D01*
X131528571Y-88239606D02*
X131566666Y-88391987D01*
X131566666Y-88391987D02*
X131642857Y-88468178D01*
X131642857Y-88468178D02*
X131719047Y-88506273D01*
X131719047Y-88506273D02*
X131871428Y-88506273D01*
X131871428Y-88506273D02*
X131947619Y-88468178D01*
X131947619Y-88468178D02*
X132023809Y-88391987D01*
X132023809Y-88391987D02*
X132061905Y-88239606D01*
X132061905Y-88239606D02*
X132061905Y-87972939D01*
X132061905Y-87972939D02*
X132023809Y-87820558D01*
X132023809Y-87820558D02*
X131947619Y-87744368D01*
X131947619Y-87744368D02*
X131871428Y-87706273D01*
X130652381Y-87706273D02*
X130461905Y-88506273D01*
X130461905Y-88506273D02*
X130309524Y-87934844D01*
X130309524Y-87934844D02*
X130157143Y-88506273D01*
X130157143Y-88506273D02*
X129966667Y-87706273D01*
X129661904Y-88506273D02*
X129661904Y-87706273D01*
X128823809Y-88506273D02*
X129090476Y-88125320D01*
X129280952Y-88506273D02*
X129280952Y-87706273D01*
X129280952Y-87706273D02*
X128976190Y-87706273D01*
X128976190Y-87706273D02*
X128900000Y-87744368D01*
X128900000Y-87744368D02*
X128861905Y-87782463D01*
X128861905Y-87782463D02*
X128823809Y-87858654D01*
X128823809Y-87858654D02*
X128823809Y-87972939D01*
X128823809Y-87972939D02*
X128861905Y-88049130D01*
X128861905Y-88049130D02*
X128900000Y-88087225D01*
X128900000Y-88087225D02*
X128976190Y-88125320D01*
X128976190Y-88125320D02*
X129280952Y-88125320D01*
X128480952Y-88087225D02*
X128214286Y-88087225D01*
X128100000Y-88506273D02*
X128480952Y-88506273D01*
X128480952Y-88506273D02*
X128480952Y-87706273D01*
X128480952Y-87706273D02*
X128100000Y-87706273D01*
X110809523Y-133469104D02*
X110333333Y-133469104D01*
X110904761Y-133754819D02*
X110571428Y-132754819D01*
X110571428Y-132754819D02*
X110238095Y-133754819D01*
X109333333Y-133754819D02*
X109666666Y-133278628D01*
X109904761Y-133754819D02*
X109904761Y-132754819D01*
X109904761Y-132754819D02*
X109523809Y-132754819D01*
X109523809Y-132754819D02*
X109428571Y-132802438D01*
X109428571Y-132802438D02*
X109380952Y-132850057D01*
X109380952Y-132850057D02*
X109333333Y-132945295D01*
X109333333Y-132945295D02*
X109333333Y-133088152D01*
X109333333Y-133088152D02*
X109380952Y-133183390D01*
X109380952Y-133183390D02*
X109428571Y-133231009D01*
X109428571Y-133231009D02*
X109523809Y-133278628D01*
X109523809Y-133278628D02*
X109904761Y-133278628D01*
X108904761Y-133754819D02*
X108904761Y-132754819D01*
X108904761Y-132754819D02*
X108666666Y-132754819D01*
X108666666Y-132754819D02*
X108523809Y-132802438D01*
X108523809Y-132802438D02*
X108428571Y-132897676D01*
X108428571Y-132897676D02*
X108380952Y-132992914D01*
X108380952Y-132992914D02*
X108333333Y-133183390D01*
X108333333Y-133183390D02*
X108333333Y-133326247D01*
X108333333Y-133326247D02*
X108380952Y-133516723D01*
X108380952Y-133516723D02*
X108428571Y-133611961D01*
X108428571Y-133611961D02*
X108523809Y-133707200D01*
X108523809Y-133707200D02*
X108666666Y-133754819D01*
X108666666Y-133754819D02*
X108904761Y-133754819D01*
X107714285Y-132754819D02*
X107523809Y-132754819D01*
X107523809Y-132754819D02*
X107428571Y-132802438D01*
X107428571Y-132802438D02*
X107333333Y-132897676D01*
X107333333Y-132897676D02*
X107285714Y-133088152D01*
X107285714Y-133088152D02*
X107285714Y-133421485D01*
X107285714Y-133421485D02*
X107333333Y-133611961D01*
X107333333Y-133611961D02*
X107428571Y-133707200D01*
X107428571Y-133707200D02*
X107523809Y-133754819D01*
X107523809Y-133754819D02*
X107714285Y-133754819D01*
X107714285Y-133754819D02*
X107809523Y-133707200D01*
X107809523Y-133707200D02*
X107904761Y-133611961D01*
X107904761Y-133611961D02*
X107952380Y-133421485D01*
X107952380Y-133421485D02*
X107952380Y-133088152D01*
X107952380Y-133088152D02*
X107904761Y-132897676D01*
X107904761Y-132897676D02*
X107809523Y-132802438D01*
X107809523Y-132802438D02*
X107714285Y-132754819D01*
X106285714Y-133754819D02*
X106619047Y-133278628D01*
X106857142Y-133754819D02*
X106857142Y-132754819D01*
X106857142Y-132754819D02*
X106476190Y-132754819D01*
X106476190Y-132754819D02*
X106380952Y-132802438D01*
X106380952Y-132802438D02*
X106333333Y-132850057D01*
X106333333Y-132850057D02*
X106285714Y-132945295D01*
X106285714Y-132945295D02*
X106285714Y-133088152D01*
X106285714Y-133088152D02*
X106333333Y-133183390D01*
X106333333Y-133183390D02*
X106380952Y-133231009D01*
X106380952Y-133231009D02*
X106476190Y-133278628D01*
X106476190Y-133278628D02*
X106857142Y-133278628D01*
X105095237Y-133231009D02*
X104761904Y-133231009D01*
X104619047Y-133754819D02*
X105095237Y-133754819D01*
X105095237Y-133754819D02*
X105095237Y-132754819D01*
X105095237Y-132754819D02*
X104619047Y-132754819D01*
X104285713Y-132754819D02*
X103619047Y-133754819D01*
X103619047Y-132754819D02*
X104285713Y-133754819D01*
X103238094Y-133754819D02*
X103238094Y-132754819D01*
X103238094Y-132754819D02*
X102857142Y-132754819D01*
X102857142Y-132754819D02*
X102761904Y-132802438D01*
X102761904Y-132802438D02*
X102714285Y-132850057D01*
X102714285Y-132850057D02*
X102666666Y-132945295D01*
X102666666Y-132945295D02*
X102666666Y-133088152D01*
X102666666Y-133088152D02*
X102714285Y-133183390D01*
X102714285Y-133183390D02*
X102761904Y-133231009D01*
X102761904Y-133231009D02*
X102857142Y-133278628D01*
X102857142Y-133278628D02*
X103238094Y-133278628D01*
X101666666Y-133754819D02*
X101999999Y-133278628D01*
X102238094Y-133754819D02*
X102238094Y-132754819D01*
X102238094Y-132754819D02*
X101857142Y-132754819D01*
X101857142Y-132754819D02*
X101761904Y-132802438D01*
X101761904Y-132802438D02*
X101714285Y-132850057D01*
X101714285Y-132850057D02*
X101666666Y-132945295D01*
X101666666Y-132945295D02*
X101666666Y-133088152D01*
X101666666Y-133088152D02*
X101714285Y-133183390D01*
X101714285Y-133183390D02*
X101761904Y-133231009D01*
X101761904Y-133231009D02*
X101857142Y-133278628D01*
X101857142Y-133278628D02*
X102238094Y-133278628D01*
X100619046Y-132754819D02*
X100047618Y-132754819D01*
X100333332Y-133754819D02*
X100333332Y-132754819D01*
X99190475Y-133754819D02*
X99761903Y-133754819D01*
X99476189Y-133754819D02*
X99476189Y-132754819D01*
X99476189Y-132754819D02*
X99571427Y-132897676D01*
X99571427Y-132897676D02*
X99666665Y-132992914D01*
X99666665Y-132992914D02*
X99761903Y-133040533D01*
X151028571Y-73252295D02*
X151028571Y-73823723D01*
X151028571Y-73823723D02*
X151066666Y-73938009D01*
X151066666Y-73938009D02*
X151142857Y-74014200D01*
X151142857Y-74014200D02*
X151257142Y-74052295D01*
X151257142Y-74052295D02*
X151333333Y-74052295D01*
X150228571Y-74052295D02*
X150685714Y-74052295D01*
X150457142Y-74052295D02*
X150457142Y-73252295D01*
X150457142Y-73252295D02*
X150533333Y-73366580D01*
X150533333Y-73366580D02*
X150609523Y-73442771D01*
X150609523Y-73442771D02*
X150685714Y-73480866D01*
X149733332Y-73252295D02*
X149657142Y-73252295D01*
X149657142Y-73252295D02*
X149580951Y-73290390D01*
X149580951Y-73290390D02*
X149542856Y-73328485D01*
X149542856Y-73328485D02*
X149504761Y-73404676D01*
X149504761Y-73404676D02*
X149466666Y-73557057D01*
X149466666Y-73557057D02*
X149466666Y-73747533D01*
X149466666Y-73747533D02*
X149504761Y-73899914D01*
X149504761Y-73899914D02*
X149542856Y-73976104D01*
X149542856Y-73976104D02*
X149580951Y-74014200D01*
X149580951Y-74014200D02*
X149657142Y-74052295D01*
X149657142Y-74052295D02*
X149733332Y-74052295D01*
X149733332Y-74052295D02*
X149809523Y-74014200D01*
X149809523Y-74014200D02*
X149847618Y-73976104D01*
X149847618Y-73976104D02*
X149885713Y-73899914D01*
X149885713Y-73899914D02*
X149923809Y-73747533D01*
X149923809Y-73747533D02*
X149923809Y-73557057D01*
X149923809Y-73557057D02*
X149885713Y-73404676D01*
X149885713Y-73404676D02*
X149847618Y-73328485D01*
X149847618Y-73328485D02*
X149809523Y-73290390D01*
X149809523Y-73290390D02*
X149733332Y-73252295D01*
X148704761Y-74052295D02*
X149161904Y-74052295D01*
X148933332Y-74052295D02*
X148933332Y-73252295D01*
X148933332Y-73252295D02*
X149009523Y-73366580D01*
X149009523Y-73366580D02*
X149085713Y-73442771D01*
X149085713Y-73442771D02*
X149161904Y-73480866D01*
X118071428Y-112822295D02*
X118528571Y-112822295D01*
X118299999Y-112822295D02*
X118299999Y-112022295D01*
X118299999Y-112022295D02*
X118376190Y-112136580D01*
X118376190Y-112136580D02*
X118452380Y-112212771D01*
X118452380Y-112212771D02*
X118528571Y-112250866D01*
X148528571Y-125908485D02*
X148490475Y-125870390D01*
X148490475Y-125870390D02*
X148414285Y-125832295D01*
X148414285Y-125832295D02*
X148223809Y-125832295D01*
X148223809Y-125832295D02*
X148147618Y-125870390D01*
X148147618Y-125870390D02*
X148109523Y-125908485D01*
X148109523Y-125908485D02*
X148071428Y-125984676D01*
X148071428Y-125984676D02*
X148071428Y-126060866D01*
X148071428Y-126060866D02*
X148109523Y-126175152D01*
X148109523Y-126175152D02*
X148566666Y-126632295D01*
X148566666Y-126632295D02*
X148071428Y-126632295D01*
X76428571Y-77022295D02*
X76428571Y-77593723D01*
X76428571Y-77593723D02*
X76466666Y-77708009D01*
X76466666Y-77708009D02*
X76542857Y-77784200D01*
X76542857Y-77784200D02*
X76657142Y-77822295D01*
X76657142Y-77822295D02*
X76733333Y-77822295D01*
X76047618Y-77822295D02*
X76047618Y-77022295D01*
X76047618Y-77022295D02*
X75742856Y-77022295D01*
X75742856Y-77022295D02*
X75666666Y-77060390D01*
X75666666Y-77060390D02*
X75628571Y-77098485D01*
X75628571Y-77098485D02*
X75590475Y-77174676D01*
X75590475Y-77174676D02*
X75590475Y-77288961D01*
X75590475Y-77288961D02*
X75628571Y-77365152D01*
X75628571Y-77365152D02*
X75666666Y-77403247D01*
X75666666Y-77403247D02*
X75742856Y-77441342D01*
X75742856Y-77441342D02*
X76047618Y-77441342D01*
X75323809Y-77022295D02*
X74828571Y-77022295D01*
X74828571Y-77022295D02*
X75095237Y-77327057D01*
X75095237Y-77327057D02*
X74980952Y-77327057D01*
X74980952Y-77327057D02*
X74904761Y-77365152D01*
X74904761Y-77365152D02*
X74866666Y-77403247D01*
X74866666Y-77403247D02*
X74828571Y-77479438D01*
X74828571Y-77479438D02*
X74828571Y-77669914D01*
X74828571Y-77669914D02*
X74866666Y-77746104D01*
X74866666Y-77746104D02*
X74904761Y-77784200D01*
X74904761Y-77784200D02*
X74980952Y-77822295D01*
X74980952Y-77822295D02*
X75209523Y-77822295D01*
X75209523Y-77822295D02*
X75285714Y-77784200D01*
X75285714Y-77784200D02*
X75323809Y-77746104D01*
X74333332Y-77022295D02*
X74257142Y-77022295D01*
X74257142Y-77022295D02*
X74180951Y-77060390D01*
X74180951Y-77060390D02*
X74142856Y-77098485D01*
X74142856Y-77098485D02*
X74104761Y-77174676D01*
X74104761Y-77174676D02*
X74066666Y-77327057D01*
X74066666Y-77327057D02*
X74066666Y-77517533D01*
X74066666Y-77517533D02*
X74104761Y-77669914D01*
X74104761Y-77669914D02*
X74142856Y-77746104D01*
X74142856Y-77746104D02*
X74180951Y-77784200D01*
X74180951Y-77784200D02*
X74257142Y-77822295D01*
X74257142Y-77822295D02*
X74333332Y-77822295D01*
X74333332Y-77822295D02*
X74409523Y-77784200D01*
X74409523Y-77784200D02*
X74447618Y-77746104D01*
X74447618Y-77746104D02*
X74485713Y-77669914D01*
X74485713Y-77669914D02*
X74523809Y-77517533D01*
X74523809Y-77517533D02*
X74523809Y-77327057D01*
X74523809Y-77327057D02*
X74485713Y-77174676D01*
X74485713Y-77174676D02*
X74447618Y-77098485D01*
X74447618Y-77098485D02*
X74409523Y-77060390D01*
X74409523Y-77060390D02*
X74333332Y-77022295D01*
X73304761Y-77822295D02*
X73761904Y-77822295D01*
X73533332Y-77822295D02*
X73533332Y-77022295D01*
X73533332Y-77022295D02*
X73609523Y-77136580D01*
X73609523Y-77136580D02*
X73685713Y-77212771D01*
X73685713Y-77212771D02*
X73761904Y-77250866D01*
X77817618Y-82328961D02*
X77817618Y-82862295D01*
X78008094Y-82024200D02*
X78198571Y-82595628D01*
X78198571Y-82595628D02*
X77703332Y-82595628D01*
X120947618Y-86418318D02*
X120947618Y-87065937D01*
X120947618Y-87065937D02*
X120909523Y-87142127D01*
X120909523Y-87142127D02*
X120871428Y-87180223D01*
X120871428Y-87180223D02*
X120795237Y-87218318D01*
X120795237Y-87218318D02*
X120642856Y-87218318D01*
X120642856Y-87218318D02*
X120566666Y-87180223D01*
X120566666Y-87180223D02*
X120528571Y-87142127D01*
X120528571Y-87142127D02*
X120490475Y-87065937D01*
X120490475Y-87065937D02*
X120490475Y-86418318D01*
X120185714Y-86418318D02*
X119690476Y-86418318D01*
X119690476Y-86418318D02*
X119957142Y-86723080D01*
X119957142Y-86723080D02*
X119842857Y-86723080D01*
X119842857Y-86723080D02*
X119766666Y-86761175D01*
X119766666Y-86761175D02*
X119728571Y-86799270D01*
X119728571Y-86799270D02*
X119690476Y-86875461D01*
X119690476Y-86875461D02*
X119690476Y-87065937D01*
X119690476Y-87065937D02*
X119728571Y-87142127D01*
X119728571Y-87142127D02*
X119766666Y-87180223D01*
X119766666Y-87180223D02*
X119842857Y-87218318D01*
X119842857Y-87218318D02*
X120071428Y-87218318D01*
X120071428Y-87218318D02*
X120147619Y-87180223D01*
X120147619Y-87180223D02*
X120185714Y-87142127D01*
X119195237Y-86418318D02*
X119119047Y-86418318D01*
X119119047Y-86418318D02*
X119042856Y-86456413D01*
X119042856Y-86456413D02*
X119004761Y-86494508D01*
X119004761Y-86494508D02*
X118966666Y-86570699D01*
X118966666Y-86570699D02*
X118928571Y-86723080D01*
X118928571Y-86723080D02*
X118928571Y-86913556D01*
X118928571Y-86913556D02*
X118966666Y-87065937D01*
X118966666Y-87065937D02*
X119004761Y-87142127D01*
X119004761Y-87142127D02*
X119042856Y-87180223D01*
X119042856Y-87180223D02*
X119119047Y-87218318D01*
X119119047Y-87218318D02*
X119195237Y-87218318D01*
X119195237Y-87218318D02*
X119271428Y-87180223D01*
X119271428Y-87180223D02*
X119309523Y-87142127D01*
X119309523Y-87142127D02*
X119347618Y-87065937D01*
X119347618Y-87065937D02*
X119385714Y-86913556D01*
X119385714Y-86913556D02*
X119385714Y-86723080D01*
X119385714Y-86723080D02*
X119347618Y-86570699D01*
X119347618Y-86570699D02*
X119309523Y-86494508D01*
X119309523Y-86494508D02*
X119271428Y-86456413D01*
X119271428Y-86456413D02*
X119195237Y-86418318D01*
X118166666Y-87218318D02*
X118623809Y-87218318D01*
X118395237Y-87218318D02*
X118395237Y-86418318D01*
X118395237Y-86418318D02*
X118471428Y-86532603D01*
X118471428Y-86532603D02*
X118547618Y-86608794D01*
X118547618Y-86608794D02*
X118623809Y-86646889D01*
X117823808Y-87142127D02*
X117785713Y-87180223D01*
X117785713Y-87180223D02*
X117823808Y-87218318D01*
X117823808Y-87218318D02*
X117861904Y-87180223D01*
X117861904Y-87180223D02*
X117823808Y-87142127D01*
X117823808Y-87142127D02*
X117823808Y-87218318D01*
X117023809Y-87218318D02*
X117480952Y-87218318D01*
X117252380Y-87218318D02*
X117252380Y-86418318D01*
X117252380Y-86418318D02*
X117328571Y-86532603D01*
X117328571Y-86532603D02*
X117404761Y-86608794D01*
X117404761Y-86608794D02*
X117480952Y-86646889D01*
X116261904Y-87218318D02*
X116719047Y-87218318D01*
X116490475Y-87218318D02*
X116490475Y-86418318D01*
X116490475Y-86418318D02*
X116566666Y-86532603D01*
X116566666Y-86532603D02*
X116642856Y-86608794D01*
X116642856Y-86608794D02*
X116719047Y-86646889D01*
X115309522Y-87218318D02*
X115309522Y-86418318D01*
X115309522Y-86418318D02*
X114852379Y-87218318D01*
X114852379Y-87218318D02*
X114852379Y-86418318D01*
X114014284Y-87142127D02*
X114052380Y-87180223D01*
X114052380Y-87180223D02*
X114166665Y-87218318D01*
X114166665Y-87218318D02*
X114242856Y-87218318D01*
X114242856Y-87218318D02*
X114357142Y-87180223D01*
X114357142Y-87180223D02*
X114433332Y-87104032D01*
X114433332Y-87104032D02*
X114471427Y-87027842D01*
X114471427Y-87027842D02*
X114509523Y-86875461D01*
X114509523Y-86875461D02*
X114509523Y-86761175D01*
X114509523Y-86761175D02*
X114471427Y-86608794D01*
X114471427Y-86608794D02*
X114433332Y-86532603D01*
X114433332Y-86532603D02*
X114357142Y-86456413D01*
X114357142Y-86456413D02*
X114242856Y-86418318D01*
X114242856Y-86418318D02*
X114166665Y-86418318D01*
X114166665Y-86418318D02*
X114052380Y-86456413D01*
X114052380Y-86456413D02*
X114014284Y-86494508D01*
X119861904Y-88506273D02*
X119861904Y-87706273D01*
X119861904Y-87706273D02*
X119404761Y-88506273D01*
X119404761Y-88506273D02*
X119404761Y-87706273D01*
X118871428Y-87706273D02*
X118719047Y-87706273D01*
X118719047Y-87706273D02*
X118642857Y-87744368D01*
X118642857Y-87744368D02*
X118566666Y-87820558D01*
X118566666Y-87820558D02*
X118528571Y-87972939D01*
X118528571Y-87972939D02*
X118528571Y-88239606D01*
X118528571Y-88239606D02*
X118566666Y-88391987D01*
X118566666Y-88391987D02*
X118642857Y-88468178D01*
X118642857Y-88468178D02*
X118719047Y-88506273D01*
X118719047Y-88506273D02*
X118871428Y-88506273D01*
X118871428Y-88506273D02*
X118947619Y-88468178D01*
X118947619Y-88468178D02*
X119023809Y-88391987D01*
X119023809Y-88391987D02*
X119061905Y-88239606D01*
X119061905Y-88239606D02*
X119061905Y-87972939D01*
X119061905Y-87972939D02*
X119023809Y-87820558D01*
X119023809Y-87820558D02*
X118947619Y-87744368D01*
X118947619Y-87744368D02*
X118871428Y-87706273D01*
X117652381Y-87706273D02*
X117461905Y-88506273D01*
X117461905Y-88506273D02*
X117309524Y-87934844D01*
X117309524Y-87934844D02*
X117157143Y-88506273D01*
X117157143Y-88506273D02*
X116966667Y-87706273D01*
X116661904Y-88506273D02*
X116661904Y-87706273D01*
X115823809Y-88506273D02*
X116090476Y-88125320D01*
X116280952Y-88506273D02*
X116280952Y-87706273D01*
X116280952Y-87706273D02*
X115976190Y-87706273D01*
X115976190Y-87706273D02*
X115900000Y-87744368D01*
X115900000Y-87744368D02*
X115861905Y-87782463D01*
X115861905Y-87782463D02*
X115823809Y-87858654D01*
X115823809Y-87858654D02*
X115823809Y-87972939D01*
X115823809Y-87972939D02*
X115861905Y-88049130D01*
X115861905Y-88049130D02*
X115900000Y-88087225D01*
X115900000Y-88087225D02*
X115976190Y-88125320D01*
X115976190Y-88125320D02*
X116280952Y-88125320D01*
X115480952Y-88087225D02*
X115214286Y-88087225D01*
X115100000Y-88506273D02*
X115480952Y-88506273D01*
X115480952Y-88506273D02*
X115480952Y-87706273D01*
X115480952Y-87706273D02*
X115100000Y-87706273D01*
X59466666Y-84602295D02*
X58971428Y-84602295D01*
X58971428Y-84602295D02*
X59238094Y-84907057D01*
X59238094Y-84907057D02*
X59123809Y-84907057D01*
X59123809Y-84907057D02*
X59047618Y-84945152D01*
X59047618Y-84945152D02*
X59009523Y-84983247D01*
X59009523Y-84983247D02*
X58971428Y-85059438D01*
X58971428Y-85059438D02*
X58971428Y-85249914D01*
X58971428Y-85249914D02*
X59009523Y-85326104D01*
X59009523Y-85326104D02*
X59047618Y-85364200D01*
X59047618Y-85364200D02*
X59123809Y-85402295D01*
X59123809Y-85402295D02*
X59352380Y-85402295D01*
X59352380Y-85402295D02*
X59428571Y-85364200D01*
X59428571Y-85364200D02*
X59466666Y-85326104D01*
X148147618Y-83638961D02*
X148147618Y-84172295D01*
X148338094Y-83334200D02*
X148528571Y-83905628D01*
X148528571Y-83905628D02*
X148033332Y-83905628D01*
X148528571Y-108408485D02*
X148490475Y-108370390D01*
X148490475Y-108370390D02*
X148414285Y-108332295D01*
X148414285Y-108332295D02*
X148223809Y-108332295D01*
X148223809Y-108332295D02*
X148147618Y-108370390D01*
X148147618Y-108370390D02*
X148109523Y-108408485D01*
X148109523Y-108408485D02*
X148071428Y-108484676D01*
X148071428Y-108484676D02*
X148071428Y-108560866D01*
X148071428Y-108560866D02*
X148109523Y-108675152D01*
X148109523Y-108675152D02*
X148566666Y-109132295D01*
X148566666Y-109132295D02*
X148071428Y-109132295D01*
X118528571Y-114638485D02*
X118490475Y-114600390D01*
X118490475Y-114600390D02*
X118414285Y-114562295D01*
X118414285Y-114562295D02*
X118223809Y-114562295D01*
X118223809Y-114562295D02*
X118147618Y-114600390D01*
X118147618Y-114600390D02*
X118109523Y-114638485D01*
X118109523Y-114638485D02*
X118071428Y-114714676D01*
X118071428Y-114714676D02*
X118071428Y-114790866D01*
X118071428Y-114790866D02*
X118109523Y-114905152D01*
X118109523Y-114905152D02*
X118566666Y-115362295D01*
X118566666Y-115362295D02*
X118071428Y-115362295D01*
%LPC*%
D11*
X144000000Y-99080000D03*
X144000000Y-88920000D03*
X120000000Y-77500000D03*
X125000000Y-77500000D03*
X144000000Y-83080000D03*
X144000000Y-72920000D03*
D12*
X130750000Y-60000000D03*
D11*
X133250000Y-60000000D03*
D13*
X127810000Y-97350000D03*
X130350000Y-97350000D03*
X120190000Y-97350000D03*
X127810000Y-84650000D03*
X125270000Y-84650000D03*
X122730000Y-84650000D03*
X120190000Y-84650000D03*
D14*
X117650000Y-97350000D03*
D13*
X125270000Y-97350000D03*
X122730000Y-97350000D03*
X117650000Y-84650000D03*
X130350000Y-84650000D03*
D14*
X150000000Y-106230000D03*
D15*
X150000000Y-108770000D03*
D12*
X106190000Y-110000000D03*
D11*
X113810000Y-110000000D03*
D14*
X57500000Y-79960000D03*
D15*
X57500000Y-82500000D03*
X57500000Y-85040000D03*
D16*
X54880000Y-67500000D03*
D17*
X70120000Y-67500000D03*
D11*
X64920000Y-110000000D03*
X75080000Y-110000000D03*
D12*
X101190000Y-94000000D03*
D11*
X108810000Y-94000000D03*
X101500000Y-84000000D03*
X106500000Y-84000000D03*
D14*
X120000000Y-112460000D03*
D15*
X120000000Y-115000000D03*
X120000000Y-117540000D03*
D18*
X109880000Y-60000000D03*
X125120000Y-60000000D03*
D11*
X100500000Y-101000000D03*
X105500000Y-101000000D03*
X74920000Y-98000000D03*
X85080000Y-98000000D03*
D19*
X53000000Y-132000000D03*
D11*
X132420000Y-110000000D03*
X142580000Y-110000000D03*
X140500000Y-60000000D03*
X145500000Y-60000000D03*
D14*
X150000000Y-123730000D03*
D15*
X150000000Y-126270000D03*
D11*
X124920000Y-105000000D03*
X135080000Y-105000000D03*
D14*
X73730000Y-79960000D03*
D15*
X76270000Y-79960000D03*
X73730000Y-82500000D03*
X76270000Y-82500000D03*
X73730000Y-85040000D03*
X76270000Y-85040000D03*
D11*
X82420000Y-75000000D03*
X92580000Y-75000000D03*
D19*
X157000000Y-53000000D03*
D12*
X103690000Y-75000000D03*
D11*
X111310000Y-75000000D03*
D14*
X150000000Y-76190000D03*
D15*
X150000000Y-78730000D03*
X150000000Y-81270000D03*
X150000000Y-83810000D03*
D11*
X84920000Y-87500000D03*
X95080000Y-87500000D03*
X87420000Y-105000000D03*
X97580000Y-105000000D03*
D16*
X54880000Y-97500000D03*
D17*
X70120000Y-97500000D03*
D11*
X132420000Y-122500000D03*
X142580000Y-122500000D03*
D12*
X93690000Y-110000000D03*
D11*
X101310000Y-110000000D03*
%LPD*%
M02*
