G04 #@! TF.GenerationSoftware,KiCad,Pcbnew,9.0.2+dfsg-1*
G04 #@! TF.CreationDate,2026-10-09T12:30:54+00:00*
G04 #@! TF.ProjectId,Ardor_Expression_THT,4172646f-725f-4457-9870-72657373696f,rev?*
G04 #@! TF.SameCoordinates,Original*
G04 #@! TF.FileFunction,Legend,Top*
G04 #@! TF.FilePolarity,Positive*
%FSLAX46Y46*%
G04 Gerber Fmt 4.6, Leading zero omitted, Abs format (unit mm)*
G04 Created by KiCad (PCBNEW 9.0.2+dfsg-1) date 2026-10-09 12:30:54*
%MOMM*%
%LPD*%
G01*
G04 APERTURE LIST*
G04 Aperture macros list*
%AMRoundRect*
0 Rectangle with rounded corners*
0 $1 Rounding radius*
0 $2 $3 $4 $5 $6 $7 $8 $9 X,Y pos of 4 corners*
0 Add a 4 corners polygon primitive as box body*
4,1,4,$2,$3,$4,$5,$6,$7,$8,$9,$2,$3,0*
0 Add four circle primitives for the rounded corners*
1,1,$1+$1,$2,$3*
1,1,$1+$1,$4,$5*
1,1,$1+$1,$6,$7*
1,1,$1+$1,$8,$9*
0 Add four rect primitives between the rounded corners*
20,1,$1+$1,$2,$3,$4,$5,0*
20,1,$1+$1,$4,$5,$6,$7,0*
20,1,$1+$1,$6,$7,$8,$9,0*
20,1,$1+$1,$8,$9,$2,$3,0*%
G04 Aperture macros list end*
%ADD10C,0.150000*%
%ADD11C,0.120000*%
%ADD12C,1.600000*%
%ADD13RoundRect,0.250000X-0.550000X-0.550000X0.550000X-0.550000X0.550000X0.550000X-0.550000X0.550000X0*%
%ADD14O,1.700000X1.700000*%
%ADD15R,1.700000X1.700000*%
%ADD16C,1.700000*%
%ADD17RoundRect,0.250000X-1.050000X-1.050000X1.050000X-1.050000X1.050000X1.050000X-1.050000X1.050000X0*%
%ADD18C,2.600000*%
%ADD19C,2.000000*%
%ADD20C,2.200000*%
G04 APERTURE END LIST*
D10*
X136492857Y-120038557D02*
X136192857Y-119609985D01*
X135978571Y-120038557D02*
X135978571Y-119138557D01*
X135978571Y-119138557D02*
X136321428Y-119138557D01*
X136321428Y-119138557D02*
X136407143Y-119181414D01*
X136407143Y-119181414D02*
X136450000Y-119224271D01*
X136450000Y-119224271D02*
X136492857Y-119309985D01*
X136492857Y-119309985D02*
X136492857Y-119438557D01*
X136492857Y-119438557D02*
X136450000Y-119524271D01*
X136450000Y-119524271D02*
X136407143Y-119567128D01*
X136407143Y-119567128D02*
X136321428Y-119609985D01*
X136321428Y-119609985D02*
X135978571Y-119609985D01*
X136792857Y-119138557D02*
X137350000Y-119138557D01*
X137350000Y-119138557D02*
X137050000Y-119481414D01*
X137050000Y-119481414D02*
X137178571Y-119481414D01*
X137178571Y-119481414D02*
X137264286Y-119524271D01*
X137264286Y-119524271D02*
X137307143Y-119567128D01*
X137307143Y-119567128D02*
X137350000Y-119652842D01*
X137350000Y-119652842D02*
X137350000Y-119867128D01*
X137350000Y-119867128D02*
X137307143Y-119952842D01*
X137307143Y-119952842D02*
X137264286Y-119995700D01*
X137264286Y-119995700D02*
X137178571Y-120038557D01*
X137178571Y-120038557D02*
X136921428Y-120038557D01*
X136921428Y-120038557D02*
X136835714Y-119995700D01*
X136835714Y-119995700D02*
X136792857Y-119952842D01*
X137907143Y-119138557D02*
X137992857Y-119138557D01*
X137992857Y-119138557D02*
X138078571Y-119181414D01*
X138078571Y-119181414D02*
X138121429Y-119224271D01*
X138121429Y-119224271D02*
X138164286Y-119309985D01*
X138164286Y-119309985D02*
X138207143Y-119481414D01*
X138207143Y-119481414D02*
X138207143Y-119695700D01*
X138207143Y-119695700D02*
X138164286Y-119867128D01*
X138164286Y-119867128D02*
X138121429Y-119952842D01*
X138121429Y-119952842D02*
X138078571Y-119995700D01*
X138078571Y-119995700D02*
X137992857Y-120038557D01*
X137992857Y-120038557D02*
X137907143Y-120038557D01*
X137907143Y-120038557D02*
X137821429Y-119995700D01*
X137821429Y-119995700D02*
X137778571Y-119952842D01*
X137778571Y-119952842D02*
X137735714Y-119867128D01*
X137735714Y-119867128D02*
X137692857Y-119695700D01*
X137692857Y-119695700D02*
X137692857Y-119481414D01*
X137692857Y-119481414D02*
X137735714Y-119309985D01*
X137735714Y-119309985D02*
X137778571Y-119224271D01*
X137778571Y-119224271D02*
X137821429Y-119181414D01*
X137821429Y-119181414D02*
X137907143Y-119138557D01*
X138635714Y-120038557D02*
X138807143Y-120038557D01*
X138807143Y-120038557D02*
X138892857Y-119995700D01*
X138892857Y-119995700D02*
X138935714Y-119952842D01*
X138935714Y-119952842D02*
X139021429Y-119824271D01*
X139021429Y-119824271D02*
X139064286Y-119652842D01*
X139064286Y-119652842D02*
X139064286Y-119309985D01*
X139064286Y-119309985D02*
X139021429Y-119224271D01*
X139021429Y-119224271D02*
X138978572Y-119181414D01*
X138978572Y-119181414D02*
X138892857Y-119138557D01*
X138892857Y-119138557D02*
X138721429Y-119138557D01*
X138721429Y-119138557D02*
X138635714Y-119181414D01*
X138635714Y-119181414D02*
X138592857Y-119224271D01*
X138592857Y-119224271D02*
X138550000Y-119309985D01*
X138550000Y-119309985D02*
X138550000Y-119524271D01*
X138550000Y-119524271D02*
X138592857Y-119609985D01*
X138592857Y-119609985D02*
X138635714Y-119652842D01*
X138635714Y-119652842D02*
X138721429Y-119695700D01*
X138721429Y-119695700D02*
X138892857Y-119695700D01*
X138892857Y-119695700D02*
X138978572Y-119652842D01*
X138978572Y-119652842D02*
X139021429Y-119609985D01*
X139021429Y-119609985D02*
X139064286Y-119524271D01*
X126957142Y-79508557D02*
X126957142Y-80237128D01*
X126957142Y-80237128D02*
X126999999Y-80322842D01*
X126999999Y-80322842D02*
X127042857Y-80365700D01*
X127042857Y-80365700D02*
X127128571Y-80408557D01*
X127128571Y-80408557D02*
X127299999Y-80408557D01*
X127299999Y-80408557D02*
X127385714Y-80365700D01*
X127385714Y-80365700D02*
X127428571Y-80322842D01*
X127428571Y-80322842D02*
X127471428Y-80237128D01*
X127471428Y-80237128D02*
X127471428Y-79508557D01*
X127814285Y-79508557D02*
X128371428Y-79508557D01*
X128371428Y-79508557D02*
X128071428Y-79851414D01*
X128071428Y-79851414D02*
X128199999Y-79851414D01*
X128199999Y-79851414D02*
X128285714Y-79894271D01*
X128285714Y-79894271D02*
X128328571Y-79937128D01*
X128328571Y-79937128D02*
X128371428Y-80022842D01*
X128371428Y-80022842D02*
X128371428Y-80237128D01*
X128371428Y-80237128D02*
X128328571Y-80322842D01*
X128328571Y-80322842D02*
X128285714Y-80365700D01*
X128285714Y-80365700D02*
X128199999Y-80408557D01*
X128199999Y-80408557D02*
X127942856Y-80408557D01*
X127942856Y-80408557D02*
X127857142Y-80365700D01*
X127857142Y-80365700D02*
X127814285Y-80322842D01*
X128928571Y-79508557D02*
X129014285Y-79508557D01*
X129014285Y-79508557D02*
X129099999Y-79551414D01*
X129099999Y-79551414D02*
X129142857Y-79594271D01*
X129142857Y-79594271D02*
X129185714Y-79679985D01*
X129185714Y-79679985D02*
X129228571Y-79851414D01*
X129228571Y-79851414D02*
X129228571Y-80065700D01*
X129228571Y-80065700D02*
X129185714Y-80237128D01*
X129185714Y-80237128D02*
X129142857Y-80322842D01*
X129142857Y-80322842D02*
X129099999Y-80365700D01*
X129099999Y-80365700D02*
X129014285Y-80408557D01*
X129014285Y-80408557D02*
X128928571Y-80408557D01*
X128928571Y-80408557D02*
X128842857Y-80365700D01*
X128842857Y-80365700D02*
X128799999Y-80322842D01*
X128799999Y-80322842D02*
X128757142Y-80237128D01*
X128757142Y-80237128D02*
X128714285Y-80065700D01*
X128714285Y-80065700D02*
X128714285Y-79851414D01*
X128714285Y-79851414D02*
X128757142Y-79679985D01*
X128757142Y-79679985D02*
X128799999Y-79594271D01*
X128799999Y-79594271D02*
X128842857Y-79551414D01*
X128842857Y-79551414D02*
X128928571Y-79508557D01*
X130085714Y-80408557D02*
X129571428Y-80408557D01*
X129828571Y-80408557D02*
X129828571Y-79508557D01*
X129828571Y-79508557D02*
X129742857Y-79637128D01*
X129742857Y-79637128D02*
X129657142Y-79722842D01*
X129657142Y-79722842D02*
X129571428Y-79765700D01*
X73392857Y-76088557D02*
X73392857Y-76731414D01*
X73392857Y-76731414D02*
X73350000Y-76859985D01*
X73350000Y-76859985D02*
X73264286Y-76945700D01*
X73264286Y-76945700D02*
X73135714Y-76988557D01*
X73135714Y-76988557D02*
X73050000Y-76988557D01*
X73821428Y-76988557D02*
X73821428Y-76088557D01*
X73821428Y-76088557D02*
X74164285Y-76088557D01*
X74164285Y-76088557D02*
X74250000Y-76131414D01*
X74250000Y-76131414D02*
X74292857Y-76174271D01*
X74292857Y-76174271D02*
X74335714Y-76259985D01*
X74335714Y-76259985D02*
X74335714Y-76388557D01*
X74335714Y-76388557D02*
X74292857Y-76474271D01*
X74292857Y-76474271D02*
X74250000Y-76517128D01*
X74250000Y-76517128D02*
X74164285Y-76559985D01*
X74164285Y-76559985D02*
X73821428Y-76559985D01*
X74635714Y-76088557D02*
X75192857Y-76088557D01*
X75192857Y-76088557D02*
X74892857Y-76431414D01*
X74892857Y-76431414D02*
X75021428Y-76431414D01*
X75021428Y-76431414D02*
X75107143Y-76474271D01*
X75107143Y-76474271D02*
X75150000Y-76517128D01*
X75150000Y-76517128D02*
X75192857Y-76602842D01*
X75192857Y-76602842D02*
X75192857Y-76817128D01*
X75192857Y-76817128D02*
X75150000Y-76902842D01*
X75150000Y-76902842D02*
X75107143Y-76945700D01*
X75107143Y-76945700D02*
X75021428Y-76988557D01*
X75021428Y-76988557D02*
X74764285Y-76988557D01*
X74764285Y-76988557D02*
X74678571Y-76945700D01*
X74678571Y-76945700D02*
X74635714Y-76902842D01*
X75750000Y-76088557D02*
X75835714Y-76088557D01*
X75835714Y-76088557D02*
X75921428Y-76131414D01*
X75921428Y-76131414D02*
X75964286Y-76174271D01*
X75964286Y-76174271D02*
X76007143Y-76259985D01*
X76007143Y-76259985D02*
X76050000Y-76431414D01*
X76050000Y-76431414D02*
X76050000Y-76645700D01*
X76050000Y-76645700D02*
X76007143Y-76817128D01*
X76007143Y-76817128D02*
X75964286Y-76902842D01*
X75964286Y-76902842D02*
X75921428Y-76945700D01*
X75921428Y-76945700D02*
X75835714Y-76988557D01*
X75835714Y-76988557D02*
X75750000Y-76988557D01*
X75750000Y-76988557D02*
X75664286Y-76945700D01*
X75664286Y-76945700D02*
X75621428Y-76902842D01*
X75621428Y-76902842D02*
X75578571Y-76817128D01*
X75578571Y-76817128D02*
X75535714Y-76645700D01*
X75535714Y-76645700D02*
X75535714Y-76431414D01*
X75535714Y-76431414D02*
X75578571Y-76259985D01*
X75578571Y-76259985D02*
X75621428Y-76174271D01*
X75621428Y-76174271D02*
X75664286Y-76131414D01*
X75664286Y-76131414D02*
X75750000Y-76088557D01*
X76907143Y-76988557D02*
X76392857Y-76988557D01*
X76650000Y-76988557D02*
X76650000Y-76088557D01*
X76650000Y-76088557D02*
X76564286Y-76217128D01*
X76564286Y-76217128D02*
X76478571Y-76302842D01*
X76478571Y-76302842D02*
X76392857Y-76345700D01*
X139122857Y-94408557D02*
X138822857Y-93979985D01*
X138608571Y-94408557D02*
X138608571Y-93508557D01*
X138608571Y-93508557D02*
X138951428Y-93508557D01*
X138951428Y-93508557D02*
X139037143Y-93551414D01*
X139037143Y-93551414D02*
X139080000Y-93594271D01*
X139080000Y-93594271D02*
X139122857Y-93679985D01*
X139122857Y-93679985D02*
X139122857Y-93808557D01*
X139122857Y-93808557D02*
X139080000Y-93894271D01*
X139080000Y-93894271D02*
X139037143Y-93937128D01*
X139037143Y-93937128D02*
X138951428Y-93979985D01*
X138951428Y-93979985D02*
X138608571Y-93979985D01*
X139422857Y-93508557D02*
X139980000Y-93508557D01*
X139980000Y-93508557D02*
X139680000Y-93851414D01*
X139680000Y-93851414D02*
X139808571Y-93851414D01*
X139808571Y-93851414D02*
X139894286Y-93894271D01*
X139894286Y-93894271D02*
X139937143Y-93937128D01*
X139937143Y-93937128D02*
X139980000Y-94022842D01*
X139980000Y-94022842D02*
X139980000Y-94237128D01*
X139980000Y-94237128D02*
X139937143Y-94322842D01*
X139937143Y-94322842D02*
X139894286Y-94365700D01*
X139894286Y-94365700D02*
X139808571Y-94408557D01*
X139808571Y-94408557D02*
X139551428Y-94408557D01*
X139551428Y-94408557D02*
X139465714Y-94365700D01*
X139465714Y-94365700D02*
X139422857Y-94322842D01*
X140537143Y-93508557D02*
X140622857Y-93508557D01*
X140622857Y-93508557D02*
X140708571Y-93551414D01*
X140708571Y-93551414D02*
X140751429Y-93594271D01*
X140751429Y-93594271D02*
X140794286Y-93679985D01*
X140794286Y-93679985D02*
X140837143Y-93851414D01*
X140837143Y-93851414D02*
X140837143Y-94065700D01*
X140837143Y-94065700D02*
X140794286Y-94237128D01*
X140794286Y-94237128D02*
X140751429Y-94322842D01*
X140751429Y-94322842D02*
X140708571Y-94365700D01*
X140708571Y-94365700D02*
X140622857Y-94408557D01*
X140622857Y-94408557D02*
X140537143Y-94408557D01*
X140537143Y-94408557D02*
X140451429Y-94365700D01*
X140451429Y-94365700D02*
X140408571Y-94322842D01*
X140408571Y-94322842D02*
X140365714Y-94237128D01*
X140365714Y-94237128D02*
X140322857Y-94065700D01*
X140322857Y-94065700D02*
X140322857Y-93851414D01*
X140322857Y-93851414D02*
X140365714Y-93679985D01*
X140365714Y-93679985D02*
X140408571Y-93594271D01*
X140408571Y-93594271D02*
X140451429Y-93551414D01*
X140451429Y-93551414D02*
X140537143Y-93508557D01*
X141608572Y-93508557D02*
X141437143Y-93508557D01*
X141437143Y-93508557D02*
X141351429Y-93551414D01*
X141351429Y-93551414D02*
X141308572Y-93594271D01*
X141308572Y-93594271D02*
X141222857Y-93722842D01*
X141222857Y-93722842D02*
X141180000Y-93894271D01*
X141180000Y-93894271D02*
X141180000Y-94237128D01*
X141180000Y-94237128D02*
X141222857Y-94322842D01*
X141222857Y-94322842D02*
X141265714Y-94365700D01*
X141265714Y-94365700D02*
X141351429Y-94408557D01*
X141351429Y-94408557D02*
X141522857Y-94408557D01*
X141522857Y-94408557D02*
X141608572Y-94365700D01*
X141608572Y-94365700D02*
X141651429Y-94322842D01*
X141651429Y-94322842D02*
X141694286Y-94237128D01*
X141694286Y-94237128D02*
X141694286Y-94022842D01*
X141694286Y-94022842D02*
X141651429Y-93937128D01*
X141651429Y-93937128D02*
X141608572Y-93894271D01*
X141608572Y-93894271D02*
X141522857Y-93851414D01*
X141522857Y-93851414D02*
X141351429Y-93851414D01*
X141351429Y-93851414D02*
X141265714Y-93894271D01*
X141265714Y-93894271D02*
X141222857Y-93937128D01*
X141222857Y-93937128D02*
X141180000Y-94022842D01*
X141992857Y-57322842D02*
X141950000Y-57365700D01*
X141950000Y-57365700D02*
X141821428Y-57408557D01*
X141821428Y-57408557D02*
X141735714Y-57408557D01*
X141735714Y-57408557D02*
X141607143Y-57365700D01*
X141607143Y-57365700D02*
X141521428Y-57279985D01*
X141521428Y-57279985D02*
X141478571Y-57194271D01*
X141478571Y-57194271D02*
X141435714Y-57022842D01*
X141435714Y-57022842D02*
X141435714Y-56894271D01*
X141435714Y-56894271D02*
X141478571Y-56722842D01*
X141478571Y-56722842D02*
X141521428Y-56637128D01*
X141521428Y-56637128D02*
X141607143Y-56551414D01*
X141607143Y-56551414D02*
X141735714Y-56508557D01*
X141735714Y-56508557D02*
X141821428Y-56508557D01*
X141821428Y-56508557D02*
X141950000Y-56551414D01*
X141950000Y-56551414D02*
X141992857Y-56594271D01*
X142850000Y-57408557D02*
X142335714Y-57408557D01*
X142592857Y-57408557D02*
X142592857Y-56508557D01*
X142592857Y-56508557D02*
X142507143Y-56637128D01*
X142507143Y-56637128D02*
X142421428Y-56722842D01*
X142421428Y-56722842D02*
X142335714Y-56765700D01*
X143407143Y-56508557D02*
X143492857Y-56508557D01*
X143492857Y-56508557D02*
X143578571Y-56551414D01*
X143578571Y-56551414D02*
X143621429Y-56594271D01*
X143621429Y-56594271D02*
X143664286Y-56679985D01*
X143664286Y-56679985D02*
X143707143Y-56851414D01*
X143707143Y-56851414D02*
X143707143Y-57065700D01*
X143707143Y-57065700D02*
X143664286Y-57237128D01*
X143664286Y-57237128D02*
X143621429Y-57322842D01*
X143621429Y-57322842D02*
X143578571Y-57365700D01*
X143578571Y-57365700D02*
X143492857Y-57408557D01*
X143492857Y-57408557D02*
X143407143Y-57408557D01*
X143407143Y-57408557D02*
X143321429Y-57365700D01*
X143321429Y-57365700D02*
X143278571Y-57322842D01*
X143278571Y-57322842D02*
X143235714Y-57237128D01*
X143235714Y-57237128D02*
X143192857Y-57065700D01*
X143192857Y-57065700D02*
X143192857Y-56851414D01*
X143192857Y-56851414D02*
X143235714Y-56679985D01*
X143235714Y-56679985D02*
X143278571Y-56594271D01*
X143278571Y-56594271D02*
X143321429Y-56551414D01*
X143321429Y-56551414D02*
X143407143Y-56508557D01*
X144050000Y-56594271D02*
X144092857Y-56551414D01*
X144092857Y-56551414D02*
X144178572Y-56508557D01*
X144178572Y-56508557D02*
X144392857Y-56508557D01*
X144392857Y-56508557D02*
X144478572Y-56551414D01*
X144478572Y-56551414D02*
X144521429Y-56594271D01*
X144521429Y-56594271D02*
X144564286Y-56679985D01*
X144564286Y-56679985D02*
X144564286Y-56765700D01*
X144564286Y-56765700D02*
X144521429Y-56894271D01*
X144521429Y-56894271D02*
X144007143Y-57408557D01*
X144007143Y-57408557D02*
X144564286Y-57408557D01*
X68992857Y-107538557D02*
X68692857Y-107109985D01*
X68478571Y-107538557D02*
X68478571Y-106638557D01*
X68478571Y-106638557D02*
X68821428Y-106638557D01*
X68821428Y-106638557D02*
X68907143Y-106681414D01*
X68907143Y-106681414D02*
X68950000Y-106724271D01*
X68950000Y-106724271D02*
X68992857Y-106809985D01*
X68992857Y-106809985D02*
X68992857Y-106938557D01*
X68992857Y-106938557D02*
X68950000Y-107024271D01*
X68950000Y-107024271D02*
X68907143Y-107067128D01*
X68907143Y-107067128D02*
X68821428Y-107109985D01*
X68821428Y-107109985D02*
X68478571Y-107109985D01*
X69850000Y-107538557D02*
X69335714Y-107538557D01*
X69592857Y-107538557D02*
X69592857Y-106638557D01*
X69592857Y-106638557D02*
X69507143Y-106767128D01*
X69507143Y-106767128D02*
X69421428Y-106852842D01*
X69421428Y-106852842D02*
X69335714Y-106895700D01*
X70407143Y-106638557D02*
X70492857Y-106638557D01*
X70492857Y-106638557D02*
X70578571Y-106681414D01*
X70578571Y-106681414D02*
X70621429Y-106724271D01*
X70621429Y-106724271D02*
X70664286Y-106809985D01*
X70664286Y-106809985D02*
X70707143Y-106981414D01*
X70707143Y-106981414D02*
X70707143Y-107195700D01*
X70707143Y-107195700D02*
X70664286Y-107367128D01*
X70664286Y-107367128D02*
X70621429Y-107452842D01*
X70621429Y-107452842D02*
X70578571Y-107495700D01*
X70578571Y-107495700D02*
X70492857Y-107538557D01*
X70492857Y-107538557D02*
X70407143Y-107538557D01*
X70407143Y-107538557D02*
X70321429Y-107495700D01*
X70321429Y-107495700D02*
X70278571Y-107452842D01*
X70278571Y-107452842D02*
X70235714Y-107367128D01*
X70235714Y-107367128D02*
X70192857Y-107195700D01*
X70192857Y-107195700D02*
X70192857Y-106981414D01*
X70192857Y-106981414D02*
X70235714Y-106809985D01*
X70235714Y-106809985D02*
X70278571Y-106724271D01*
X70278571Y-106724271D02*
X70321429Y-106681414D01*
X70321429Y-106681414D02*
X70407143Y-106638557D01*
X71564286Y-107538557D02*
X71050000Y-107538557D01*
X71307143Y-107538557D02*
X71307143Y-106638557D01*
X71307143Y-106638557D02*
X71221429Y-106767128D01*
X71221429Y-106767128D02*
X71135714Y-106852842D01*
X71135714Y-106852842D02*
X71050000Y-106895700D01*
X56342857Y-76088557D02*
X56342857Y-76731414D01*
X56342857Y-76731414D02*
X56300000Y-76859985D01*
X56300000Y-76859985D02*
X56214286Y-76945700D01*
X56214286Y-76945700D02*
X56085714Y-76988557D01*
X56085714Y-76988557D02*
X56000000Y-76988557D01*
X56685714Y-76088557D02*
X57242857Y-76088557D01*
X57242857Y-76088557D02*
X56942857Y-76431414D01*
X56942857Y-76431414D02*
X57071428Y-76431414D01*
X57071428Y-76431414D02*
X57157143Y-76474271D01*
X57157143Y-76474271D02*
X57200000Y-76517128D01*
X57200000Y-76517128D02*
X57242857Y-76602842D01*
X57242857Y-76602842D02*
X57242857Y-76817128D01*
X57242857Y-76817128D02*
X57200000Y-76902842D01*
X57200000Y-76902842D02*
X57157143Y-76945700D01*
X57157143Y-76945700D02*
X57071428Y-76988557D01*
X57071428Y-76988557D02*
X56814285Y-76988557D01*
X56814285Y-76988557D02*
X56728571Y-76945700D01*
X56728571Y-76945700D02*
X56685714Y-76902842D01*
X57800000Y-76088557D02*
X57885714Y-76088557D01*
X57885714Y-76088557D02*
X57971428Y-76131414D01*
X57971428Y-76131414D02*
X58014286Y-76174271D01*
X58014286Y-76174271D02*
X58057143Y-76259985D01*
X58057143Y-76259985D02*
X58100000Y-76431414D01*
X58100000Y-76431414D02*
X58100000Y-76645700D01*
X58100000Y-76645700D02*
X58057143Y-76817128D01*
X58057143Y-76817128D02*
X58014286Y-76902842D01*
X58014286Y-76902842D02*
X57971428Y-76945700D01*
X57971428Y-76945700D02*
X57885714Y-76988557D01*
X57885714Y-76988557D02*
X57800000Y-76988557D01*
X57800000Y-76988557D02*
X57714286Y-76945700D01*
X57714286Y-76945700D02*
X57671428Y-76902842D01*
X57671428Y-76902842D02*
X57628571Y-76817128D01*
X57628571Y-76817128D02*
X57585714Y-76645700D01*
X57585714Y-76645700D02*
X57585714Y-76431414D01*
X57585714Y-76431414D02*
X57628571Y-76259985D01*
X57628571Y-76259985D02*
X57671428Y-76174271D01*
X57671428Y-76174271D02*
X57714286Y-76131414D01*
X57714286Y-76131414D02*
X57800000Y-76088557D01*
X58442857Y-76174271D02*
X58485714Y-76131414D01*
X58485714Y-76131414D02*
X58571429Y-76088557D01*
X58571429Y-76088557D02*
X58785714Y-76088557D01*
X58785714Y-76088557D02*
X58871429Y-76131414D01*
X58871429Y-76131414D02*
X58914286Y-76174271D01*
X58914286Y-76174271D02*
X58957143Y-76259985D01*
X58957143Y-76259985D02*
X58957143Y-76345700D01*
X58957143Y-76345700D02*
X58914286Y-76474271D01*
X58914286Y-76474271D02*
X58400000Y-76988557D01*
X58400000Y-76988557D02*
X58957143Y-76988557D01*
X108478571Y-107788557D02*
X108478571Y-106888557D01*
X108478571Y-106888557D02*
X108692857Y-106888557D01*
X108692857Y-106888557D02*
X108821428Y-106931414D01*
X108821428Y-106931414D02*
X108907143Y-107017128D01*
X108907143Y-107017128D02*
X108950000Y-107102842D01*
X108950000Y-107102842D02*
X108992857Y-107274271D01*
X108992857Y-107274271D02*
X108992857Y-107402842D01*
X108992857Y-107402842D02*
X108950000Y-107574271D01*
X108950000Y-107574271D02*
X108907143Y-107659985D01*
X108907143Y-107659985D02*
X108821428Y-107745700D01*
X108821428Y-107745700D02*
X108692857Y-107788557D01*
X108692857Y-107788557D02*
X108478571Y-107788557D01*
X109292857Y-106888557D02*
X109850000Y-106888557D01*
X109850000Y-106888557D02*
X109550000Y-107231414D01*
X109550000Y-107231414D02*
X109678571Y-107231414D01*
X109678571Y-107231414D02*
X109764286Y-107274271D01*
X109764286Y-107274271D02*
X109807143Y-107317128D01*
X109807143Y-107317128D02*
X109850000Y-107402842D01*
X109850000Y-107402842D02*
X109850000Y-107617128D01*
X109850000Y-107617128D02*
X109807143Y-107702842D01*
X109807143Y-107702842D02*
X109764286Y-107745700D01*
X109764286Y-107745700D02*
X109678571Y-107788557D01*
X109678571Y-107788557D02*
X109421428Y-107788557D01*
X109421428Y-107788557D02*
X109335714Y-107745700D01*
X109335714Y-107745700D02*
X109292857Y-107702842D01*
X110407143Y-106888557D02*
X110492857Y-106888557D01*
X110492857Y-106888557D02*
X110578571Y-106931414D01*
X110578571Y-106931414D02*
X110621429Y-106974271D01*
X110621429Y-106974271D02*
X110664286Y-107059985D01*
X110664286Y-107059985D02*
X110707143Y-107231414D01*
X110707143Y-107231414D02*
X110707143Y-107445700D01*
X110707143Y-107445700D02*
X110664286Y-107617128D01*
X110664286Y-107617128D02*
X110621429Y-107702842D01*
X110621429Y-107702842D02*
X110578571Y-107745700D01*
X110578571Y-107745700D02*
X110492857Y-107788557D01*
X110492857Y-107788557D02*
X110407143Y-107788557D01*
X110407143Y-107788557D02*
X110321429Y-107745700D01*
X110321429Y-107745700D02*
X110278571Y-107702842D01*
X110278571Y-107702842D02*
X110235714Y-107617128D01*
X110235714Y-107617128D02*
X110192857Y-107445700D01*
X110192857Y-107445700D02*
X110192857Y-107231414D01*
X110192857Y-107231414D02*
X110235714Y-107059985D01*
X110235714Y-107059985D02*
X110278571Y-106974271D01*
X110278571Y-106974271D02*
X110321429Y-106931414D01*
X110321429Y-106931414D02*
X110407143Y-106888557D01*
X111478572Y-106888557D02*
X111307143Y-106888557D01*
X111307143Y-106888557D02*
X111221429Y-106931414D01*
X111221429Y-106931414D02*
X111178572Y-106974271D01*
X111178572Y-106974271D02*
X111092857Y-107102842D01*
X111092857Y-107102842D02*
X111050000Y-107274271D01*
X111050000Y-107274271D02*
X111050000Y-107617128D01*
X111050000Y-107617128D02*
X111092857Y-107702842D01*
X111092857Y-107702842D02*
X111135714Y-107745700D01*
X111135714Y-107745700D02*
X111221429Y-107788557D01*
X111221429Y-107788557D02*
X111392857Y-107788557D01*
X111392857Y-107788557D02*
X111478572Y-107745700D01*
X111478572Y-107745700D02*
X111521429Y-107702842D01*
X111521429Y-107702842D02*
X111564286Y-107617128D01*
X111564286Y-107617128D02*
X111564286Y-107402842D01*
X111564286Y-107402842D02*
X111521429Y-107317128D01*
X111521429Y-107317128D02*
X111478572Y-107274271D01*
X111478572Y-107274271D02*
X111392857Y-107231414D01*
X111392857Y-107231414D02*
X111221429Y-107231414D01*
X111221429Y-107231414D02*
X111135714Y-107274271D01*
X111135714Y-107274271D02*
X111092857Y-107317128D01*
X111092857Y-107317128D02*
X111050000Y-107402842D01*
X60978571Y-93408557D02*
X60978571Y-92508557D01*
X60978571Y-92508557D02*
X61192857Y-92508557D01*
X61192857Y-92508557D02*
X61321428Y-92551414D01*
X61321428Y-92551414D02*
X61407143Y-92637128D01*
X61407143Y-92637128D02*
X61450000Y-92722842D01*
X61450000Y-92722842D02*
X61492857Y-92894271D01*
X61492857Y-92894271D02*
X61492857Y-93022842D01*
X61492857Y-93022842D02*
X61450000Y-93194271D01*
X61450000Y-93194271D02*
X61407143Y-93279985D01*
X61407143Y-93279985D02*
X61321428Y-93365700D01*
X61321428Y-93365700D02*
X61192857Y-93408557D01*
X61192857Y-93408557D02*
X60978571Y-93408557D01*
X61792857Y-92508557D02*
X62350000Y-92508557D01*
X62350000Y-92508557D02*
X62050000Y-92851414D01*
X62050000Y-92851414D02*
X62178571Y-92851414D01*
X62178571Y-92851414D02*
X62264286Y-92894271D01*
X62264286Y-92894271D02*
X62307143Y-92937128D01*
X62307143Y-92937128D02*
X62350000Y-93022842D01*
X62350000Y-93022842D02*
X62350000Y-93237128D01*
X62350000Y-93237128D02*
X62307143Y-93322842D01*
X62307143Y-93322842D02*
X62264286Y-93365700D01*
X62264286Y-93365700D02*
X62178571Y-93408557D01*
X62178571Y-93408557D02*
X61921428Y-93408557D01*
X61921428Y-93408557D02*
X61835714Y-93365700D01*
X61835714Y-93365700D02*
X61792857Y-93322842D01*
X62907143Y-92508557D02*
X62992857Y-92508557D01*
X62992857Y-92508557D02*
X63078571Y-92551414D01*
X63078571Y-92551414D02*
X63121429Y-92594271D01*
X63121429Y-92594271D02*
X63164286Y-92679985D01*
X63164286Y-92679985D02*
X63207143Y-92851414D01*
X63207143Y-92851414D02*
X63207143Y-93065700D01*
X63207143Y-93065700D02*
X63164286Y-93237128D01*
X63164286Y-93237128D02*
X63121429Y-93322842D01*
X63121429Y-93322842D02*
X63078571Y-93365700D01*
X63078571Y-93365700D02*
X62992857Y-93408557D01*
X62992857Y-93408557D02*
X62907143Y-93408557D01*
X62907143Y-93408557D02*
X62821429Y-93365700D01*
X62821429Y-93365700D02*
X62778571Y-93322842D01*
X62778571Y-93322842D02*
X62735714Y-93237128D01*
X62735714Y-93237128D02*
X62692857Y-93065700D01*
X62692857Y-93065700D02*
X62692857Y-92851414D01*
X62692857Y-92851414D02*
X62735714Y-92679985D01*
X62735714Y-92679985D02*
X62778571Y-92594271D01*
X62778571Y-92594271D02*
X62821429Y-92551414D01*
X62821429Y-92551414D02*
X62907143Y-92508557D01*
X63550000Y-92594271D02*
X63592857Y-92551414D01*
X63592857Y-92551414D02*
X63678572Y-92508557D01*
X63678572Y-92508557D02*
X63892857Y-92508557D01*
X63892857Y-92508557D02*
X63978572Y-92551414D01*
X63978572Y-92551414D02*
X64021429Y-92594271D01*
X64021429Y-92594271D02*
X64064286Y-92679985D01*
X64064286Y-92679985D02*
X64064286Y-92765700D01*
X64064286Y-92765700D02*
X64021429Y-92894271D01*
X64021429Y-92894271D02*
X63507143Y-93408557D01*
X63507143Y-93408557D02*
X64064286Y-93408557D01*
X102992857Y-81322842D02*
X102950000Y-81365700D01*
X102950000Y-81365700D02*
X102821428Y-81408557D01*
X102821428Y-81408557D02*
X102735714Y-81408557D01*
X102735714Y-81408557D02*
X102607143Y-81365700D01*
X102607143Y-81365700D02*
X102521428Y-81279985D01*
X102521428Y-81279985D02*
X102478571Y-81194271D01*
X102478571Y-81194271D02*
X102435714Y-81022842D01*
X102435714Y-81022842D02*
X102435714Y-80894271D01*
X102435714Y-80894271D02*
X102478571Y-80722842D01*
X102478571Y-80722842D02*
X102521428Y-80637128D01*
X102521428Y-80637128D02*
X102607143Y-80551414D01*
X102607143Y-80551414D02*
X102735714Y-80508557D01*
X102735714Y-80508557D02*
X102821428Y-80508557D01*
X102821428Y-80508557D02*
X102950000Y-80551414D01*
X102950000Y-80551414D02*
X102992857Y-80594271D01*
X103292857Y-80508557D02*
X103850000Y-80508557D01*
X103850000Y-80508557D02*
X103550000Y-80851414D01*
X103550000Y-80851414D02*
X103678571Y-80851414D01*
X103678571Y-80851414D02*
X103764286Y-80894271D01*
X103764286Y-80894271D02*
X103807143Y-80937128D01*
X103807143Y-80937128D02*
X103850000Y-81022842D01*
X103850000Y-81022842D02*
X103850000Y-81237128D01*
X103850000Y-81237128D02*
X103807143Y-81322842D01*
X103807143Y-81322842D02*
X103764286Y-81365700D01*
X103764286Y-81365700D02*
X103678571Y-81408557D01*
X103678571Y-81408557D02*
X103421428Y-81408557D01*
X103421428Y-81408557D02*
X103335714Y-81365700D01*
X103335714Y-81365700D02*
X103292857Y-81322842D01*
X104407143Y-80508557D02*
X104492857Y-80508557D01*
X104492857Y-80508557D02*
X104578571Y-80551414D01*
X104578571Y-80551414D02*
X104621429Y-80594271D01*
X104621429Y-80594271D02*
X104664286Y-80679985D01*
X104664286Y-80679985D02*
X104707143Y-80851414D01*
X104707143Y-80851414D02*
X104707143Y-81065700D01*
X104707143Y-81065700D02*
X104664286Y-81237128D01*
X104664286Y-81237128D02*
X104621429Y-81322842D01*
X104621429Y-81322842D02*
X104578571Y-81365700D01*
X104578571Y-81365700D02*
X104492857Y-81408557D01*
X104492857Y-81408557D02*
X104407143Y-81408557D01*
X104407143Y-81408557D02*
X104321429Y-81365700D01*
X104321429Y-81365700D02*
X104278571Y-81322842D01*
X104278571Y-81322842D02*
X104235714Y-81237128D01*
X104235714Y-81237128D02*
X104192857Y-81065700D01*
X104192857Y-81065700D02*
X104192857Y-80851414D01*
X104192857Y-80851414D02*
X104235714Y-80679985D01*
X104235714Y-80679985D02*
X104278571Y-80594271D01*
X104278571Y-80594271D02*
X104321429Y-80551414D01*
X104321429Y-80551414D02*
X104407143Y-80508557D01*
X105564286Y-81408557D02*
X105050000Y-81408557D01*
X105307143Y-81408557D02*
X105307143Y-80508557D01*
X105307143Y-80508557D02*
X105221429Y-80637128D01*
X105221429Y-80637128D02*
X105135714Y-80722842D01*
X105135714Y-80722842D02*
X105050000Y-80765700D01*
X148392857Y-102358557D02*
X148392857Y-103001414D01*
X148392857Y-103001414D02*
X148350000Y-103129985D01*
X148350000Y-103129985D02*
X148264286Y-103215700D01*
X148264286Y-103215700D02*
X148135714Y-103258557D01*
X148135714Y-103258557D02*
X148050000Y-103258557D01*
X148821428Y-103258557D02*
X148821428Y-102358557D01*
X148821428Y-102358557D02*
X149164285Y-102358557D01*
X149164285Y-102358557D02*
X149250000Y-102401414D01*
X149250000Y-102401414D02*
X149292857Y-102444271D01*
X149292857Y-102444271D02*
X149335714Y-102529985D01*
X149335714Y-102529985D02*
X149335714Y-102658557D01*
X149335714Y-102658557D02*
X149292857Y-102744271D01*
X149292857Y-102744271D02*
X149250000Y-102787128D01*
X149250000Y-102787128D02*
X149164285Y-102829985D01*
X149164285Y-102829985D02*
X148821428Y-102829985D01*
X149635714Y-102358557D02*
X150192857Y-102358557D01*
X150192857Y-102358557D02*
X149892857Y-102701414D01*
X149892857Y-102701414D02*
X150021428Y-102701414D01*
X150021428Y-102701414D02*
X150107143Y-102744271D01*
X150107143Y-102744271D02*
X150150000Y-102787128D01*
X150150000Y-102787128D02*
X150192857Y-102872842D01*
X150192857Y-102872842D02*
X150192857Y-103087128D01*
X150192857Y-103087128D02*
X150150000Y-103172842D01*
X150150000Y-103172842D02*
X150107143Y-103215700D01*
X150107143Y-103215700D02*
X150021428Y-103258557D01*
X150021428Y-103258557D02*
X149764285Y-103258557D01*
X149764285Y-103258557D02*
X149678571Y-103215700D01*
X149678571Y-103215700D02*
X149635714Y-103172842D01*
X150750000Y-102358557D02*
X150835714Y-102358557D01*
X150835714Y-102358557D02*
X150921428Y-102401414D01*
X150921428Y-102401414D02*
X150964286Y-102444271D01*
X150964286Y-102444271D02*
X151007143Y-102529985D01*
X151007143Y-102529985D02*
X151050000Y-102701414D01*
X151050000Y-102701414D02*
X151050000Y-102915700D01*
X151050000Y-102915700D02*
X151007143Y-103087128D01*
X151007143Y-103087128D02*
X150964286Y-103172842D01*
X150964286Y-103172842D02*
X150921428Y-103215700D01*
X150921428Y-103215700D02*
X150835714Y-103258557D01*
X150835714Y-103258557D02*
X150750000Y-103258557D01*
X150750000Y-103258557D02*
X150664286Y-103215700D01*
X150664286Y-103215700D02*
X150621428Y-103172842D01*
X150621428Y-103172842D02*
X150578571Y-103087128D01*
X150578571Y-103087128D02*
X150535714Y-102915700D01*
X150535714Y-102915700D02*
X150535714Y-102701414D01*
X150535714Y-102701414D02*
X150578571Y-102529985D01*
X150578571Y-102529985D02*
X150621428Y-102444271D01*
X150621428Y-102444271D02*
X150664286Y-102401414D01*
X150664286Y-102401414D02*
X150750000Y-102358557D01*
X151350000Y-102358557D02*
X151907143Y-102358557D01*
X151907143Y-102358557D02*
X151607143Y-102701414D01*
X151607143Y-102701414D02*
X151735714Y-102701414D01*
X151735714Y-102701414D02*
X151821429Y-102744271D01*
X151821429Y-102744271D02*
X151864286Y-102787128D01*
X151864286Y-102787128D02*
X151907143Y-102872842D01*
X151907143Y-102872842D02*
X151907143Y-103087128D01*
X151907143Y-103087128D02*
X151864286Y-103172842D01*
X151864286Y-103172842D02*
X151821429Y-103215700D01*
X151821429Y-103215700D02*
X151735714Y-103258557D01*
X151735714Y-103258557D02*
X151478571Y-103258557D01*
X151478571Y-103258557D02*
X151392857Y-103215700D01*
X151392857Y-103215700D02*
X151350000Y-103172842D01*
X128992857Y-102538557D02*
X128692857Y-102109985D01*
X128478571Y-102538557D02*
X128478571Y-101638557D01*
X128478571Y-101638557D02*
X128821428Y-101638557D01*
X128821428Y-101638557D02*
X128907143Y-101681414D01*
X128907143Y-101681414D02*
X128950000Y-101724271D01*
X128950000Y-101724271D02*
X128992857Y-101809985D01*
X128992857Y-101809985D02*
X128992857Y-101938557D01*
X128992857Y-101938557D02*
X128950000Y-102024271D01*
X128950000Y-102024271D02*
X128907143Y-102067128D01*
X128907143Y-102067128D02*
X128821428Y-102109985D01*
X128821428Y-102109985D02*
X128478571Y-102109985D01*
X129292857Y-101638557D02*
X129850000Y-101638557D01*
X129850000Y-101638557D02*
X129550000Y-101981414D01*
X129550000Y-101981414D02*
X129678571Y-101981414D01*
X129678571Y-101981414D02*
X129764286Y-102024271D01*
X129764286Y-102024271D02*
X129807143Y-102067128D01*
X129807143Y-102067128D02*
X129850000Y-102152842D01*
X129850000Y-102152842D02*
X129850000Y-102367128D01*
X129850000Y-102367128D02*
X129807143Y-102452842D01*
X129807143Y-102452842D02*
X129764286Y-102495700D01*
X129764286Y-102495700D02*
X129678571Y-102538557D01*
X129678571Y-102538557D02*
X129421428Y-102538557D01*
X129421428Y-102538557D02*
X129335714Y-102495700D01*
X129335714Y-102495700D02*
X129292857Y-102452842D01*
X130407143Y-101638557D02*
X130492857Y-101638557D01*
X130492857Y-101638557D02*
X130578571Y-101681414D01*
X130578571Y-101681414D02*
X130621429Y-101724271D01*
X130621429Y-101724271D02*
X130664286Y-101809985D01*
X130664286Y-101809985D02*
X130707143Y-101981414D01*
X130707143Y-101981414D02*
X130707143Y-102195700D01*
X130707143Y-102195700D02*
X130664286Y-102367128D01*
X130664286Y-102367128D02*
X130621429Y-102452842D01*
X130621429Y-102452842D02*
X130578571Y-102495700D01*
X130578571Y-102495700D02*
X130492857Y-102538557D01*
X130492857Y-102538557D02*
X130407143Y-102538557D01*
X130407143Y-102538557D02*
X130321429Y-102495700D01*
X130321429Y-102495700D02*
X130278571Y-102452842D01*
X130278571Y-102452842D02*
X130235714Y-102367128D01*
X130235714Y-102367128D02*
X130192857Y-102195700D01*
X130192857Y-102195700D02*
X130192857Y-101981414D01*
X130192857Y-101981414D02*
X130235714Y-101809985D01*
X130235714Y-101809985D02*
X130278571Y-101724271D01*
X130278571Y-101724271D02*
X130321429Y-101681414D01*
X130321429Y-101681414D02*
X130407143Y-101638557D01*
X131007143Y-101638557D02*
X131607143Y-101638557D01*
X131607143Y-101638557D02*
X131221429Y-102538557D01*
X91492857Y-102538557D02*
X91192857Y-102109985D01*
X90978571Y-102538557D02*
X90978571Y-101638557D01*
X90978571Y-101638557D02*
X91321428Y-101638557D01*
X91321428Y-101638557D02*
X91407143Y-101681414D01*
X91407143Y-101681414D02*
X91450000Y-101724271D01*
X91450000Y-101724271D02*
X91492857Y-101809985D01*
X91492857Y-101809985D02*
X91492857Y-101938557D01*
X91492857Y-101938557D02*
X91450000Y-102024271D01*
X91450000Y-102024271D02*
X91407143Y-102067128D01*
X91407143Y-102067128D02*
X91321428Y-102109985D01*
X91321428Y-102109985D02*
X90978571Y-102109985D01*
X91792857Y-101638557D02*
X92350000Y-101638557D01*
X92350000Y-101638557D02*
X92050000Y-101981414D01*
X92050000Y-101981414D02*
X92178571Y-101981414D01*
X92178571Y-101981414D02*
X92264286Y-102024271D01*
X92264286Y-102024271D02*
X92307143Y-102067128D01*
X92307143Y-102067128D02*
X92350000Y-102152842D01*
X92350000Y-102152842D02*
X92350000Y-102367128D01*
X92350000Y-102367128D02*
X92307143Y-102452842D01*
X92307143Y-102452842D02*
X92264286Y-102495700D01*
X92264286Y-102495700D02*
X92178571Y-102538557D01*
X92178571Y-102538557D02*
X91921428Y-102538557D01*
X91921428Y-102538557D02*
X91835714Y-102495700D01*
X91835714Y-102495700D02*
X91792857Y-102452842D01*
X92907143Y-101638557D02*
X92992857Y-101638557D01*
X92992857Y-101638557D02*
X93078571Y-101681414D01*
X93078571Y-101681414D02*
X93121429Y-101724271D01*
X93121429Y-101724271D02*
X93164286Y-101809985D01*
X93164286Y-101809985D02*
X93207143Y-101981414D01*
X93207143Y-101981414D02*
X93207143Y-102195700D01*
X93207143Y-102195700D02*
X93164286Y-102367128D01*
X93164286Y-102367128D02*
X93121429Y-102452842D01*
X93121429Y-102452842D02*
X93078571Y-102495700D01*
X93078571Y-102495700D02*
X92992857Y-102538557D01*
X92992857Y-102538557D02*
X92907143Y-102538557D01*
X92907143Y-102538557D02*
X92821429Y-102495700D01*
X92821429Y-102495700D02*
X92778571Y-102452842D01*
X92778571Y-102452842D02*
X92735714Y-102367128D01*
X92735714Y-102367128D02*
X92692857Y-102195700D01*
X92692857Y-102195700D02*
X92692857Y-101981414D01*
X92692857Y-101981414D02*
X92735714Y-101809985D01*
X92735714Y-101809985D02*
X92778571Y-101724271D01*
X92778571Y-101724271D02*
X92821429Y-101681414D01*
X92821429Y-101681414D02*
X92907143Y-101638557D01*
X93978572Y-101938557D02*
X93978572Y-102538557D01*
X93764286Y-101595700D02*
X93550000Y-102238557D01*
X93550000Y-102238557D02*
X94107143Y-102238557D01*
X118392857Y-108588557D02*
X118392857Y-109231414D01*
X118392857Y-109231414D02*
X118350000Y-109359985D01*
X118350000Y-109359985D02*
X118264286Y-109445700D01*
X118264286Y-109445700D02*
X118135714Y-109488557D01*
X118135714Y-109488557D02*
X118050000Y-109488557D01*
X118821428Y-109488557D02*
X118821428Y-108588557D01*
X118821428Y-108588557D02*
X119164285Y-108588557D01*
X119164285Y-108588557D02*
X119250000Y-108631414D01*
X119250000Y-108631414D02*
X119292857Y-108674271D01*
X119292857Y-108674271D02*
X119335714Y-108759985D01*
X119335714Y-108759985D02*
X119335714Y-108888557D01*
X119335714Y-108888557D02*
X119292857Y-108974271D01*
X119292857Y-108974271D02*
X119250000Y-109017128D01*
X119250000Y-109017128D02*
X119164285Y-109059985D01*
X119164285Y-109059985D02*
X118821428Y-109059985D01*
X119635714Y-108588557D02*
X120192857Y-108588557D01*
X120192857Y-108588557D02*
X119892857Y-108931414D01*
X119892857Y-108931414D02*
X120021428Y-108931414D01*
X120021428Y-108931414D02*
X120107143Y-108974271D01*
X120107143Y-108974271D02*
X120150000Y-109017128D01*
X120150000Y-109017128D02*
X120192857Y-109102842D01*
X120192857Y-109102842D02*
X120192857Y-109317128D01*
X120192857Y-109317128D02*
X120150000Y-109402842D01*
X120150000Y-109402842D02*
X120107143Y-109445700D01*
X120107143Y-109445700D02*
X120021428Y-109488557D01*
X120021428Y-109488557D02*
X119764285Y-109488557D01*
X119764285Y-109488557D02*
X119678571Y-109445700D01*
X119678571Y-109445700D02*
X119635714Y-109402842D01*
X120750000Y-108588557D02*
X120835714Y-108588557D01*
X120835714Y-108588557D02*
X120921428Y-108631414D01*
X120921428Y-108631414D02*
X120964286Y-108674271D01*
X120964286Y-108674271D02*
X121007143Y-108759985D01*
X121007143Y-108759985D02*
X121050000Y-108931414D01*
X121050000Y-108931414D02*
X121050000Y-109145700D01*
X121050000Y-109145700D02*
X121007143Y-109317128D01*
X121007143Y-109317128D02*
X120964286Y-109402842D01*
X120964286Y-109402842D02*
X120921428Y-109445700D01*
X120921428Y-109445700D02*
X120835714Y-109488557D01*
X120835714Y-109488557D02*
X120750000Y-109488557D01*
X120750000Y-109488557D02*
X120664286Y-109445700D01*
X120664286Y-109445700D02*
X120621428Y-109402842D01*
X120621428Y-109402842D02*
X120578571Y-109317128D01*
X120578571Y-109317128D02*
X120535714Y-109145700D01*
X120535714Y-109145700D02*
X120535714Y-108931414D01*
X120535714Y-108931414D02*
X120578571Y-108759985D01*
X120578571Y-108759985D02*
X120621428Y-108674271D01*
X120621428Y-108674271D02*
X120664286Y-108631414D01*
X120664286Y-108631414D02*
X120750000Y-108588557D01*
X121392857Y-108674271D02*
X121435714Y-108631414D01*
X121435714Y-108631414D02*
X121521429Y-108588557D01*
X121521429Y-108588557D02*
X121735714Y-108588557D01*
X121735714Y-108588557D02*
X121821429Y-108631414D01*
X121821429Y-108631414D02*
X121864286Y-108674271D01*
X121864286Y-108674271D02*
X121907143Y-108759985D01*
X121907143Y-108759985D02*
X121907143Y-108845700D01*
X121907143Y-108845700D02*
X121864286Y-108974271D01*
X121864286Y-108974271D02*
X121350000Y-109488557D01*
X121350000Y-109488557D02*
X121907143Y-109488557D01*
X86492857Y-72538557D02*
X86192857Y-72109985D01*
X85978571Y-72538557D02*
X85978571Y-71638557D01*
X85978571Y-71638557D02*
X86321428Y-71638557D01*
X86321428Y-71638557D02*
X86407143Y-71681414D01*
X86407143Y-71681414D02*
X86450000Y-71724271D01*
X86450000Y-71724271D02*
X86492857Y-71809985D01*
X86492857Y-71809985D02*
X86492857Y-71938557D01*
X86492857Y-71938557D02*
X86450000Y-72024271D01*
X86450000Y-72024271D02*
X86407143Y-72067128D01*
X86407143Y-72067128D02*
X86321428Y-72109985D01*
X86321428Y-72109985D02*
X85978571Y-72109985D01*
X86792857Y-71638557D02*
X87350000Y-71638557D01*
X87350000Y-71638557D02*
X87050000Y-71981414D01*
X87050000Y-71981414D02*
X87178571Y-71981414D01*
X87178571Y-71981414D02*
X87264286Y-72024271D01*
X87264286Y-72024271D02*
X87307143Y-72067128D01*
X87307143Y-72067128D02*
X87350000Y-72152842D01*
X87350000Y-72152842D02*
X87350000Y-72367128D01*
X87350000Y-72367128D02*
X87307143Y-72452842D01*
X87307143Y-72452842D02*
X87264286Y-72495700D01*
X87264286Y-72495700D02*
X87178571Y-72538557D01*
X87178571Y-72538557D02*
X86921428Y-72538557D01*
X86921428Y-72538557D02*
X86835714Y-72495700D01*
X86835714Y-72495700D02*
X86792857Y-72452842D01*
X87907143Y-71638557D02*
X87992857Y-71638557D01*
X87992857Y-71638557D02*
X88078571Y-71681414D01*
X88078571Y-71681414D02*
X88121429Y-71724271D01*
X88121429Y-71724271D02*
X88164286Y-71809985D01*
X88164286Y-71809985D02*
X88207143Y-71981414D01*
X88207143Y-71981414D02*
X88207143Y-72195700D01*
X88207143Y-72195700D02*
X88164286Y-72367128D01*
X88164286Y-72367128D02*
X88121429Y-72452842D01*
X88121429Y-72452842D02*
X88078571Y-72495700D01*
X88078571Y-72495700D02*
X87992857Y-72538557D01*
X87992857Y-72538557D02*
X87907143Y-72538557D01*
X87907143Y-72538557D02*
X87821429Y-72495700D01*
X87821429Y-72495700D02*
X87778571Y-72452842D01*
X87778571Y-72452842D02*
X87735714Y-72367128D01*
X87735714Y-72367128D02*
X87692857Y-72195700D01*
X87692857Y-72195700D02*
X87692857Y-71981414D01*
X87692857Y-71981414D02*
X87735714Y-71809985D01*
X87735714Y-71809985D02*
X87778571Y-71724271D01*
X87778571Y-71724271D02*
X87821429Y-71681414D01*
X87821429Y-71681414D02*
X87907143Y-71638557D01*
X89064286Y-72538557D02*
X88550000Y-72538557D01*
X88807143Y-72538557D02*
X88807143Y-71638557D01*
X88807143Y-71638557D02*
X88721429Y-71767128D01*
X88721429Y-71767128D02*
X88635714Y-71852842D01*
X88635714Y-71852842D02*
X88550000Y-71895700D01*
X60978571Y-63408557D02*
X60978571Y-62508557D01*
X60978571Y-62508557D02*
X61192857Y-62508557D01*
X61192857Y-62508557D02*
X61321428Y-62551414D01*
X61321428Y-62551414D02*
X61407143Y-62637128D01*
X61407143Y-62637128D02*
X61450000Y-62722842D01*
X61450000Y-62722842D02*
X61492857Y-62894271D01*
X61492857Y-62894271D02*
X61492857Y-63022842D01*
X61492857Y-63022842D02*
X61450000Y-63194271D01*
X61450000Y-63194271D02*
X61407143Y-63279985D01*
X61407143Y-63279985D02*
X61321428Y-63365700D01*
X61321428Y-63365700D02*
X61192857Y-63408557D01*
X61192857Y-63408557D02*
X60978571Y-63408557D01*
X61792857Y-62508557D02*
X62350000Y-62508557D01*
X62350000Y-62508557D02*
X62050000Y-62851414D01*
X62050000Y-62851414D02*
X62178571Y-62851414D01*
X62178571Y-62851414D02*
X62264286Y-62894271D01*
X62264286Y-62894271D02*
X62307143Y-62937128D01*
X62307143Y-62937128D02*
X62350000Y-63022842D01*
X62350000Y-63022842D02*
X62350000Y-63237128D01*
X62350000Y-63237128D02*
X62307143Y-63322842D01*
X62307143Y-63322842D02*
X62264286Y-63365700D01*
X62264286Y-63365700D02*
X62178571Y-63408557D01*
X62178571Y-63408557D02*
X61921428Y-63408557D01*
X61921428Y-63408557D02*
X61835714Y-63365700D01*
X61835714Y-63365700D02*
X61792857Y-63322842D01*
X62907143Y-62508557D02*
X62992857Y-62508557D01*
X62992857Y-62508557D02*
X63078571Y-62551414D01*
X63078571Y-62551414D02*
X63121429Y-62594271D01*
X63121429Y-62594271D02*
X63164286Y-62679985D01*
X63164286Y-62679985D02*
X63207143Y-62851414D01*
X63207143Y-62851414D02*
X63207143Y-63065700D01*
X63207143Y-63065700D02*
X63164286Y-63237128D01*
X63164286Y-63237128D02*
X63121429Y-63322842D01*
X63121429Y-63322842D02*
X63078571Y-63365700D01*
X63078571Y-63365700D02*
X62992857Y-63408557D01*
X62992857Y-63408557D02*
X62907143Y-63408557D01*
X62907143Y-63408557D02*
X62821429Y-63365700D01*
X62821429Y-63365700D02*
X62778571Y-63322842D01*
X62778571Y-63322842D02*
X62735714Y-63237128D01*
X62735714Y-63237128D02*
X62692857Y-63065700D01*
X62692857Y-63065700D02*
X62692857Y-62851414D01*
X62692857Y-62851414D02*
X62735714Y-62679985D01*
X62735714Y-62679985D02*
X62778571Y-62594271D01*
X62778571Y-62594271D02*
X62821429Y-62551414D01*
X62821429Y-62551414D02*
X62907143Y-62508557D01*
X64064286Y-63408557D02*
X63550000Y-63408557D01*
X63807143Y-63408557D02*
X63807143Y-62508557D01*
X63807143Y-62508557D02*
X63721429Y-62637128D01*
X63721429Y-62637128D02*
X63635714Y-62722842D01*
X63635714Y-62722842D02*
X63550000Y-62765700D01*
X121492857Y-74822842D02*
X121450000Y-74865700D01*
X121450000Y-74865700D02*
X121321428Y-74908557D01*
X121321428Y-74908557D02*
X121235714Y-74908557D01*
X121235714Y-74908557D02*
X121107143Y-74865700D01*
X121107143Y-74865700D02*
X121021428Y-74779985D01*
X121021428Y-74779985D02*
X120978571Y-74694271D01*
X120978571Y-74694271D02*
X120935714Y-74522842D01*
X120935714Y-74522842D02*
X120935714Y-74394271D01*
X120935714Y-74394271D02*
X120978571Y-74222842D01*
X120978571Y-74222842D02*
X121021428Y-74137128D01*
X121021428Y-74137128D02*
X121107143Y-74051414D01*
X121107143Y-74051414D02*
X121235714Y-74008557D01*
X121235714Y-74008557D02*
X121321428Y-74008557D01*
X121321428Y-74008557D02*
X121450000Y-74051414D01*
X121450000Y-74051414D02*
X121492857Y-74094271D01*
X121792857Y-74008557D02*
X122350000Y-74008557D01*
X122350000Y-74008557D02*
X122050000Y-74351414D01*
X122050000Y-74351414D02*
X122178571Y-74351414D01*
X122178571Y-74351414D02*
X122264286Y-74394271D01*
X122264286Y-74394271D02*
X122307143Y-74437128D01*
X122307143Y-74437128D02*
X122350000Y-74522842D01*
X122350000Y-74522842D02*
X122350000Y-74737128D01*
X122350000Y-74737128D02*
X122307143Y-74822842D01*
X122307143Y-74822842D02*
X122264286Y-74865700D01*
X122264286Y-74865700D02*
X122178571Y-74908557D01*
X122178571Y-74908557D02*
X121921428Y-74908557D01*
X121921428Y-74908557D02*
X121835714Y-74865700D01*
X121835714Y-74865700D02*
X121792857Y-74822842D01*
X122907143Y-74008557D02*
X122992857Y-74008557D01*
X122992857Y-74008557D02*
X123078571Y-74051414D01*
X123078571Y-74051414D02*
X123121429Y-74094271D01*
X123121429Y-74094271D02*
X123164286Y-74179985D01*
X123164286Y-74179985D02*
X123207143Y-74351414D01*
X123207143Y-74351414D02*
X123207143Y-74565700D01*
X123207143Y-74565700D02*
X123164286Y-74737128D01*
X123164286Y-74737128D02*
X123121429Y-74822842D01*
X123121429Y-74822842D02*
X123078571Y-74865700D01*
X123078571Y-74865700D02*
X122992857Y-74908557D01*
X122992857Y-74908557D02*
X122907143Y-74908557D01*
X122907143Y-74908557D02*
X122821429Y-74865700D01*
X122821429Y-74865700D02*
X122778571Y-74822842D01*
X122778571Y-74822842D02*
X122735714Y-74737128D01*
X122735714Y-74737128D02*
X122692857Y-74565700D01*
X122692857Y-74565700D02*
X122692857Y-74351414D01*
X122692857Y-74351414D02*
X122735714Y-74179985D01*
X122735714Y-74179985D02*
X122778571Y-74094271D01*
X122778571Y-74094271D02*
X122821429Y-74051414D01*
X122821429Y-74051414D02*
X122907143Y-74008557D01*
X123507143Y-74008557D02*
X124064286Y-74008557D01*
X124064286Y-74008557D02*
X123764286Y-74351414D01*
X123764286Y-74351414D02*
X123892857Y-74351414D01*
X123892857Y-74351414D02*
X123978572Y-74394271D01*
X123978572Y-74394271D02*
X124021429Y-74437128D01*
X124021429Y-74437128D02*
X124064286Y-74522842D01*
X124064286Y-74522842D02*
X124064286Y-74737128D01*
X124064286Y-74737128D02*
X124021429Y-74822842D01*
X124021429Y-74822842D02*
X123978572Y-74865700D01*
X123978572Y-74865700D02*
X123892857Y-74908557D01*
X123892857Y-74908557D02*
X123635714Y-74908557D01*
X123635714Y-74908557D02*
X123550000Y-74865700D01*
X123550000Y-74865700D02*
X123507143Y-74822842D01*
X78992857Y-95538557D02*
X78692857Y-95109985D01*
X78478571Y-95538557D02*
X78478571Y-94638557D01*
X78478571Y-94638557D02*
X78821428Y-94638557D01*
X78821428Y-94638557D02*
X78907143Y-94681414D01*
X78907143Y-94681414D02*
X78950000Y-94724271D01*
X78950000Y-94724271D02*
X78992857Y-94809985D01*
X78992857Y-94809985D02*
X78992857Y-94938557D01*
X78992857Y-94938557D02*
X78950000Y-95024271D01*
X78950000Y-95024271D02*
X78907143Y-95067128D01*
X78907143Y-95067128D02*
X78821428Y-95109985D01*
X78821428Y-95109985D02*
X78478571Y-95109985D01*
X79292857Y-94638557D02*
X79850000Y-94638557D01*
X79850000Y-94638557D02*
X79550000Y-94981414D01*
X79550000Y-94981414D02*
X79678571Y-94981414D01*
X79678571Y-94981414D02*
X79764286Y-95024271D01*
X79764286Y-95024271D02*
X79807143Y-95067128D01*
X79807143Y-95067128D02*
X79850000Y-95152842D01*
X79850000Y-95152842D02*
X79850000Y-95367128D01*
X79850000Y-95367128D02*
X79807143Y-95452842D01*
X79807143Y-95452842D02*
X79764286Y-95495700D01*
X79764286Y-95495700D02*
X79678571Y-95538557D01*
X79678571Y-95538557D02*
X79421428Y-95538557D01*
X79421428Y-95538557D02*
X79335714Y-95495700D01*
X79335714Y-95495700D02*
X79292857Y-95452842D01*
X80407143Y-94638557D02*
X80492857Y-94638557D01*
X80492857Y-94638557D02*
X80578571Y-94681414D01*
X80578571Y-94681414D02*
X80621429Y-94724271D01*
X80621429Y-94724271D02*
X80664286Y-94809985D01*
X80664286Y-94809985D02*
X80707143Y-94981414D01*
X80707143Y-94981414D02*
X80707143Y-95195700D01*
X80707143Y-95195700D02*
X80664286Y-95367128D01*
X80664286Y-95367128D02*
X80621429Y-95452842D01*
X80621429Y-95452842D02*
X80578571Y-95495700D01*
X80578571Y-95495700D02*
X80492857Y-95538557D01*
X80492857Y-95538557D02*
X80407143Y-95538557D01*
X80407143Y-95538557D02*
X80321429Y-95495700D01*
X80321429Y-95495700D02*
X80278571Y-95452842D01*
X80278571Y-95452842D02*
X80235714Y-95367128D01*
X80235714Y-95367128D02*
X80192857Y-95195700D01*
X80192857Y-95195700D02*
X80192857Y-94981414D01*
X80192857Y-94981414D02*
X80235714Y-94809985D01*
X80235714Y-94809985D02*
X80278571Y-94724271D01*
X80278571Y-94724271D02*
X80321429Y-94681414D01*
X80321429Y-94681414D02*
X80407143Y-94638557D01*
X81007143Y-94638557D02*
X81564286Y-94638557D01*
X81564286Y-94638557D02*
X81264286Y-94981414D01*
X81264286Y-94981414D02*
X81392857Y-94981414D01*
X81392857Y-94981414D02*
X81478572Y-95024271D01*
X81478572Y-95024271D02*
X81521429Y-95067128D01*
X81521429Y-95067128D02*
X81564286Y-95152842D01*
X81564286Y-95152842D02*
X81564286Y-95367128D01*
X81564286Y-95367128D02*
X81521429Y-95452842D01*
X81521429Y-95452842D02*
X81478572Y-95495700D01*
X81478572Y-95495700D02*
X81392857Y-95538557D01*
X81392857Y-95538557D02*
X81135714Y-95538557D01*
X81135714Y-95538557D02*
X81050000Y-95495700D01*
X81050000Y-95495700D02*
X81007143Y-95452842D01*
X88992857Y-85038557D02*
X88692857Y-84609985D01*
X88478571Y-85038557D02*
X88478571Y-84138557D01*
X88478571Y-84138557D02*
X88821428Y-84138557D01*
X88821428Y-84138557D02*
X88907143Y-84181414D01*
X88907143Y-84181414D02*
X88950000Y-84224271D01*
X88950000Y-84224271D02*
X88992857Y-84309985D01*
X88992857Y-84309985D02*
X88992857Y-84438557D01*
X88992857Y-84438557D02*
X88950000Y-84524271D01*
X88950000Y-84524271D02*
X88907143Y-84567128D01*
X88907143Y-84567128D02*
X88821428Y-84609985D01*
X88821428Y-84609985D02*
X88478571Y-84609985D01*
X89292857Y-84138557D02*
X89850000Y-84138557D01*
X89850000Y-84138557D02*
X89550000Y-84481414D01*
X89550000Y-84481414D02*
X89678571Y-84481414D01*
X89678571Y-84481414D02*
X89764286Y-84524271D01*
X89764286Y-84524271D02*
X89807143Y-84567128D01*
X89807143Y-84567128D02*
X89850000Y-84652842D01*
X89850000Y-84652842D02*
X89850000Y-84867128D01*
X89850000Y-84867128D02*
X89807143Y-84952842D01*
X89807143Y-84952842D02*
X89764286Y-84995700D01*
X89764286Y-84995700D02*
X89678571Y-85038557D01*
X89678571Y-85038557D02*
X89421428Y-85038557D01*
X89421428Y-85038557D02*
X89335714Y-84995700D01*
X89335714Y-84995700D02*
X89292857Y-84952842D01*
X90407143Y-84138557D02*
X90492857Y-84138557D01*
X90492857Y-84138557D02*
X90578571Y-84181414D01*
X90578571Y-84181414D02*
X90621429Y-84224271D01*
X90621429Y-84224271D02*
X90664286Y-84309985D01*
X90664286Y-84309985D02*
X90707143Y-84481414D01*
X90707143Y-84481414D02*
X90707143Y-84695700D01*
X90707143Y-84695700D02*
X90664286Y-84867128D01*
X90664286Y-84867128D02*
X90621429Y-84952842D01*
X90621429Y-84952842D02*
X90578571Y-84995700D01*
X90578571Y-84995700D02*
X90492857Y-85038557D01*
X90492857Y-85038557D02*
X90407143Y-85038557D01*
X90407143Y-85038557D02*
X90321429Y-84995700D01*
X90321429Y-84995700D02*
X90278571Y-84952842D01*
X90278571Y-84952842D02*
X90235714Y-84867128D01*
X90235714Y-84867128D02*
X90192857Y-84695700D01*
X90192857Y-84695700D02*
X90192857Y-84481414D01*
X90192857Y-84481414D02*
X90235714Y-84309985D01*
X90235714Y-84309985D02*
X90278571Y-84224271D01*
X90278571Y-84224271D02*
X90321429Y-84181414D01*
X90321429Y-84181414D02*
X90407143Y-84138557D01*
X91050000Y-84224271D02*
X91092857Y-84181414D01*
X91092857Y-84181414D02*
X91178572Y-84138557D01*
X91178572Y-84138557D02*
X91392857Y-84138557D01*
X91392857Y-84138557D02*
X91478572Y-84181414D01*
X91478572Y-84181414D02*
X91521429Y-84224271D01*
X91521429Y-84224271D02*
X91564286Y-84309985D01*
X91564286Y-84309985D02*
X91564286Y-84395700D01*
X91564286Y-84395700D02*
X91521429Y-84524271D01*
X91521429Y-84524271D02*
X91007143Y-85038557D01*
X91007143Y-85038557D02*
X91564286Y-85038557D01*
X103478571Y-91788557D02*
X103478571Y-90888557D01*
X103478571Y-90888557D02*
X103692857Y-90888557D01*
X103692857Y-90888557D02*
X103821428Y-90931414D01*
X103821428Y-90931414D02*
X103907143Y-91017128D01*
X103907143Y-91017128D02*
X103950000Y-91102842D01*
X103950000Y-91102842D02*
X103992857Y-91274271D01*
X103992857Y-91274271D02*
X103992857Y-91402842D01*
X103992857Y-91402842D02*
X103950000Y-91574271D01*
X103950000Y-91574271D02*
X103907143Y-91659985D01*
X103907143Y-91659985D02*
X103821428Y-91745700D01*
X103821428Y-91745700D02*
X103692857Y-91788557D01*
X103692857Y-91788557D02*
X103478571Y-91788557D01*
X104292857Y-90888557D02*
X104850000Y-90888557D01*
X104850000Y-90888557D02*
X104550000Y-91231414D01*
X104550000Y-91231414D02*
X104678571Y-91231414D01*
X104678571Y-91231414D02*
X104764286Y-91274271D01*
X104764286Y-91274271D02*
X104807143Y-91317128D01*
X104807143Y-91317128D02*
X104850000Y-91402842D01*
X104850000Y-91402842D02*
X104850000Y-91617128D01*
X104850000Y-91617128D02*
X104807143Y-91702842D01*
X104807143Y-91702842D02*
X104764286Y-91745700D01*
X104764286Y-91745700D02*
X104678571Y-91788557D01*
X104678571Y-91788557D02*
X104421428Y-91788557D01*
X104421428Y-91788557D02*
X104335714Y-91745700D01*
X104335714Y-91745700D02*
X104292857Y-91702842D01*
X105407143Y-90888557D02*
X105492857Y-90888557D01*
X105492857Y-90888557D02*
X105578571Y-90931414D01*
X105578571Y-90931414D02*
X105621429Y-90974271D01*
X105621429Y-90974271D02*
X105664286Y-91059985D01*
X105664286Y-91059985D02*
X105707143Y-91231414D01*
X105707143Y-91231414D02*
X105707143Y-91445700D01*
X105707143Y-91445700D02*
X105664286Y-91617128D01*
X105664286Y-91617128D02*
X105621429Y-91702842D01*
X105621429Y-91702842D02*
X105578571Y-91745700D01*
X105578571Y-91745700D02*
X105492857Y-91788557D01*
X105492857Y-91788557D02*
X105407143Y-91788557D01*
X105407143Y-91788557D02*
X105321429Y-91745700D01*
X105321429Y-91745700D02*
X105278571Y-91702842D01*
X105278571Y-91702842D02*
X105235714Y-91617128D01*
X105235714Y-91617128D02*
X105192857Y-91445700D01*
X105192857Y-91445700D02*
X105192857Y-91231414D01*
X105192857Y-91231414D02*
X105235714Y-91059985D01*
X105235714Y-91059985D02*
X105278571Y-90974271D01*
X105278571Y-90974271D02*
X105321429Y-90931414D01*
X105321429Y-90931414D02*
X105407143Y-90888557D01*
X106478572Y-91188557D02*
X106478572Y-91788557D01*
X106264286Y-90845700D02*
X106050000Y-91488557D01*
X106050000Y-91488557D02*
X106607143Y-91488557D01*
X148842857Y-72318557D02*
X148842857Y-72961414D01*
X148842857Y-72961414D02*
X148800000Y-73089985D01*
X148800000Y-73089985D02*
X148714286Y-73175700D01*
X148714286Y-73175700D02*
X148585714Y-73218557D01*
X148585714Y-73218557D02*
X148500000Y-73218557D01*
X149742857Y-73218557D02*
X149228571Y-73218557D01*
X149485714Y-73218557D02*
X149485714Y-72318557D01*
X149485714Y-72318557D02*
X149400000Y-72447128D01*
X149400000Y-72447128D02*
X149314285Y-72532842D01*
X149314285Y-72532842D02*
X149228571Y-72575700D01*
X150300000Y-72318557D02*
X150385714Y-72318557D01*
X150385714Y-72318557D02*
X150471428Y-72361414D01*
X150471428Y-72361414D02*
X150514286Y-72404271D01*
X150514286Y-72404271D02*
X150557143Y-72489985D01*
X150557143Y-72489985D02*
X150600000Y-72661414D01*
X150600000Y-72661414D02*
X150600000Y-72875700D01*
X150600000Y-72875700D02*
X150557143Y-73047128D01*
X150557143Y-73047128D02*
X150514286Y-73132842D01*
X150514286Y-73132842D02*
X150471428Y-73175700D01*
X150471428Y-73175700D02*
X150385714Y-73218557D01*
X150385714Y-73218557D02*
X150300000Y-73218557D01*
X150300000Y-73218557D02*
X150214286Y-73175700D01*
X150214286Y-73175700D02*
X150171428Y-73132842D01*
X150171428Y-73132842D02*
X150128571Y-73047128D01*
X150128571Y-73047128D02*
X150085714Y-72875700D01*
X150085714Y-72875700D02*
X150085714Y-72661414D01*
X150085714Y-72661414D02*
X150128571Y-72489985D01*
X150128571Y-72489985D02*
X150171428Y-72404271D01*
X150171428Y-72404271D02*
X150214286Y-72361414D01*
X150214286Y-72361414D02*
X150300000Y-72318557D01*
X151457143Y-73218557D02*
X150942857Y-73218557D01*
X151200000Y-73218557D02*
X151200000Y-72318557D01*
X151200000Y-72318557D02*
X151114286Y-72447128D01*
X151114286Y-72447128D02*
X151028571Y-72532842D01*
X151028571Y-72532842D02*
X150942857Y-72575700D01*
X148392857Y-119858557D02*
X148392857Y-120501414D01*
X148392857Y-120501414D02*
X148350000Y-120629985D01*
X148350000Y-120629985D02*
X148264286Y-120715700D01*
X148264286Y-120715700D02*
X148135714Y-120758557D01*
X148135714Y-120758557D02*
X148050000Y-120758557D01*
X148821428Y-120758557D02*
X148821428Y-119858557D01*
X148821428Y-119858557D02*
X149164285Y-119858557D01*
X149164285Y-119858557D02*
X149250000Y-119901414D01*
X149250000Y-119901414D02*
X149292857Y-119944271D01*
X149292857Y-119944271D02*
X149335714Y-120029985D01*
X149335714Y-120029985D02*
X149335714Y-120158557D01*
X149335714Y-120158557D02*
X149292857Y-120244271D01*
X149292857Y-120244271D02*
X149250000Y-120287128D01*
X149250000Y-120287128D02*
X149164285Y-120329985D01*
X149164285Y-120329985D02*
X148821428Y-120329985D01*
X149635714Y-119858557D02*
X150192857Y-119858557D01*
X150192857Y-119858557D02*
X149892857Y-120201414D01*
X149892857Y-120201414D02*
X150021428Y-120201414D01*
X150021428Y-120201414D02*
X150107143Y-120244271D01*
X150107143Y-120244271D02*
X150150000Y-120287128D01*
X150150000Y-120287128D02*
X150192857Y-120372842D01*
X150192857Y-120372842D02*
X150192857Y-120587128D01*
X150192857Y-120587128D02*
X150150000Y-120672842D01*
X150150000Y-120672842D02*
X150107143Y-120715700D01*
X150107143Y-120715700D02*
X150021428Y-120758557D01*
X150021428Y-120758557D02*
X149764285Y-120758557D01*
X149764285Y-120758557D02*
X149678571Y-120715700D01*
X149678571Y-120715700D02*
X149635714Y-120672842D01*
X150750000Y-119858557D02*
X150835714Y-119858557D01*
X150835714Y-119858557D02*
X150921428Y-119901414D01*
X150921428Y-119901414D02*
X150964286Y-119944271D01*
X150964286Y-119944271D02*
X151007143Y-120029985D01*
X151007143Y-120029985D02*
X151050000Y-120201414D01*
X151050000Y-120201414D02*
X151050000Y-120415700D01*
X151050000Y-120415700D02*
X151007143Y-120587128D01*
X151007143Y-120587128D02*
X150964286Y-120672842D01*
X150964286Y-120672842D02*
X150921428Y-120715700D01*
X150921428Y-120715700D02*
X150835714Y-120758557D01*
X150835714Y-120758557D02*
X150750000Y-120758557D01*
X150750000Y-120758557D02*
X150664286Y-120715700D01*
X150664286Y-120715700D02*
X150621428Y-120672842D01*
X150621428Y-120672842D02*
X150578571Y-120587128D01*
X150578571Y-120587128D02*
X150535714Y-120415700D01*
X150535714Y-120415700D02*
X150535714Y-120201414D01*
X150535714Y-120201414D02*
X150578571Y-120029985D01*
X150578571Y-120029985D02*
X150621428Y-119944271D01*
X150621428Y-119944271D02*
X150664286Y-119901414D01*
X150664286Y-119901414D02*
X150750000Y-119858557D01*
X151821429Y-120158557D02*
X151821429Y-120758557D01*
X151607143Y-119815700D02*
X151392857Y-120458557D01*
X151392857Y-120458557D02*
X151950000Y-120458557D01*
X101992857Y-98322842D02*
X101950000Y-98365700D01*
X101950000Y-98365700D02*
X101821428Y-98408557D01*
X101821428Y-98408557D02*
X101735714Y-98408557D01*
X101735714Y-98408557D02*
X101607143Y-98365700D01*
X101607143Y-98365700D02*
X101521428Y-98279985D01*
X101521428Y-98279985D02*
X101478571Y-98194271D01*
X101478571Y-98194271D02*
X101435714Y-98022842D01*
X101435714Y-98022842D02*
X101435714Y-97894271D01*
X101435714Y-97894271D02*
X101478571Y-97722842D01*
X101478571Y-97722842D02*
X101521428Y-97637128D01*
X101521428Y-97637128D02*
X101607143Y-97551414D01*
X101607143Y-97551414D02*
X101735714Y-97508557D01*
X101735714Y-97508557D02*
X101821428Y-97508557D01*
X101821428Y-97508557D02*
X101950000Y-97551414D01*
X101950000Y-97551414D02*
X101992857Y-97594271D01*
X102292857Y-97508557D02*
X102850000Y-97508557D01*
X102850000Y-97508557D02*
X102550000Y-97851414D01*
X102550000Y-97851414D02*
X102678571Y-97851414D01*
X102678571Y-97851414D02*
X102764286Y-97894271D01*
X102764286Y-97894271D02*
X102807143Y-97937128D01*
X102807143Y-97937128D02*
X102850000Y-98022842D01*
X102850000Y-98022842D02*
X102850000Y-98237128D01*
X102850000Y-98237128D02*
X102807143Y-98322842D01*
X102807143Y-98322842D02*
X102764286Y-98365700D01*
X102764286Y-98365700D02*
X102678571Y-98408557D01*
X102678571Y-98408557D02*
X102421428Y-98408557D01*
X102421428Y-98408557D02*
X102335714Y-98365700D01*
X102335714Y-98365700D02*
X102292857Y-98322842D01*
X103407143Y-97508557D02*
X103492857Y-97508557D01*
X103492857Y-97508557D02*
X103578571Y-97551414D01*
X103578571Y-97551414D02*
X103621429Y-97594271D01*
X103621429Y-97594271D02*
X103664286Y-97679985D01*
X103664286Y-97679985D02*
X103707143Y-97851414D01*
X103707143Y-97851414D02*
X103707143Y-98065700D01*
X103707143Y-98065700D02*
X103664286Y-98237128D01*
X103664286Y-98237128D02*
X103621429Y-98322842D01*
X103621429Y-98322842D02*
X103578571Y-98365700D01*
X103578571Y-98365700D02*
X103492857Y-98408557D01*
X103492857Y-98408557D02*
X103407143Y-98408557D01*
X103407143Y-98408557D02*
X103321429Y-98365700D01*
X103321429Y-98365700D02*
X103278571Y-98322842D01*
X103278571Y-98322842D02*
X103235714Y-98237128D01*
X103235714Y-98237128D02*
X103192857Y-98065700D01*
X103192857Y-98065700D02*
X103192857Y-97851414D01*
X103192857Y-97851414D02*
X103235714Y-97679985D01*
X103235714Y-97679985D02*
X103278571Y-97594271D01*
X103278571Y-97594271D02*
X103321429Y-97551414D01*
X103321429Y-97551414D02*
X103407143Y-97508557D01*
X104050000Y-97594271D02*
X104092857Y-97551414D01*
X104092857Y-97551414D02*
X104178572Y-97508557D01*
X104178572Y-97508557D02*
X104392857Y-97508557D01*
X104392857Y-97508557D02*
X104478572Y-97551414D01*
X104478572Y-97551414D02*
X104521429Y-97594271D01*
X104521429Y-97594271D02*
X104564286Y-97679985D01*
X104564286Y-97679985D02*
X104564286Y-97765700D01*
X104564286Y-97765700D02*
X104521429Y-97894271D01*
X104521429Y-97894271D02*
X104007143Y-98408557D01*
X104007143Y-98408557D02*
X104564286Y-98408557D01*
X139122857Y-78408557D02*
X138822857Y-77979985D01*
X138608571Y-78408557D02*
X138608571Y-77508557D01*
X138608571Y-77508557D02*
X138951428Y-77508557D01*
X138951428Y-77508557D02*
X139037143Y-77551414D01*
X139037143Y-77551414D02*
X139080000Y-77594271D01*
X139080000Y-77594271D02*
X139122857Y-77679985D01*
X139122857Y-77679985D02*
X139122857Y-77808557D01*
X139122857Y-77808557D02*
X139080000Y-77894271D01*
X139080000Y-77894271D02*
X139037143Y-77937128D01*
X139037143Y-77937128D02*
X138951428Y-77979985D01*
X138951428Y-77979985D02*
X138608571Y-77979985D01*
X139422857Y-77508557D02*
X139980000Y-77508557D01*
X139980000Y-77508557D02*
X139680000Y-77851414D01*
X139680000Y-77851414D02*
X139808571Y-77851414D01*
X139808571Y-77851414D02*
X139894286Y-77894271D01*
X139894286Y-77894271D02*
X139937143Y-77937128D01*
X139937143Y-77937128D02*
X139980000Y-78022842D01*
X139980000Y-78022842D02*
X139980000Y-78237128D01*
X139980000Y-78237128D02*
X139937143Y-78322842D01*
X139937143Y-78322842D02*
X139894286Y-78365700D01*
X139894286Y-78365700D02*
X139808571Y-78408557D01*
X139808571Y-78408557D02*
X139551428Y-78408557D01*
X139551428Y-78408557D02*
X139465714Y-78365700D01*
X139465714Y-78365700D02*
X139422857Y-78322842D01*
X140537143Y-77508557D02*
X140622857Y-77508557D01*
X140622857Y-77508557D02*
X140708571Y-77551414D01*
X140708571Y-77551414D02*
X140751429Y-77594271D01*
X140751429Y-77594271D02*
X140794286Y-77679985D01*
X140794286Y-77679985D02*
X140837143Y-77851414D01*
X140837143Y-77851414D02*
X140837143Y-78065700D01*
X140837143Y-78065700D02*
X140794286Y-78237128D01*
X140794286Y-78237128D02*
X140751429Y-78322842D01*
X140751429Y-78322842D02*
X140708571Y-78365700D01*
X140708571Y-78365700D02*
X140622857Y-78408557D01*
X140622857Y-78408557D02*
X140537143Y-78408557D01*
X140537143Y-78408557D02*
X140451429Y-78365700D01*
X140451429Y-78365700D02*
X140408571Y-78322842D01*
X140408571Y-78322842D02*
X140365714Y-78237128D01*
X140365714Y-78237128D02*
X140322857Y-78065700D01*
X140322857Y-78065700D02*
X140322857Y-77851414D01*
X140322857Y-77851414D02*
X140365714Y-77679985D01*
X140365714Y-77679985D02*
X140408571Y-77594271D01*
X140408571Y-77594271D02*
X140451429Y-77551414D01*
X140451429Y-77551414D02*
X140537143Y-77508557D01*
X141651429Y-77508557D02*
X141222857Y-77508557D01*
X141222857Y-77508557D02*
X141180000Y-77937128D01*
X141180000Y-77937128D02*
X141222857Y-77894271D01*
X141222857Y-77894271D02*
X141308572Y-77851414D01*
X141308572Y-77851414D02*
X141522857Y-77851414D01*
X141522857Y-77851414D02*
X141608572Y-77894271D01*
X141608572Y-77894271D02*
X141651429Y-77937128D01*
X141651429Y-77937128D02*
X141694286Y-78022842D01*
X141694286Y-78022842D02*
X141694286Y-78237128D01*
X141694286Y-78237128D02*
X141651429Y-78322842D01*
X141651429Y-78322842D02*
X141608572Y-78365700D01*
X141608572Y-78365700D02*
X141522857Y-78408557D01*
X141522857Y-78408557D02*
X141308572Y-78408557D01*
X141308572Y-78408557D02*
X141222857Y-78365700D01*
X141222857Y-78365700D02*
X141180000Y-78322842D01*
X105978571Y-72788557D02*
X105978571Y-71888557D01*
X105978571Y-71888557D02*
X106192857Y-71888557D01*
X106192857Y-71888557D02*
X106321428Y-71931414D01*
X106321428Y-71931414D02*
X106407143Y-72017128D01*
X106407143Y-72017128D02*
X106450000Y-72102842D01*
X106450000Y-72102842D02*
X106492857Y-72274271D01*
X106492857Y-72274271D02*
X106492857Y-72402842D01*
X106492857Y-72402842D02*
X106450000Y-72574271D01*
X106450000Y-72574271D02*
X106407143Y-72659985D01*
X106407143Y-72659985D02*
X106321428Y-72745700D01*
X106321428Y-72745700D02*
X106192857Y-72788557D01*
X106192857Y-72788557D02*
X105978571Y-72788557D01*
X106792857Y-71888557D02*
X107350000Y-71888557D01*
X107350000Y-71888557D02*
X107050000Y-72231414D01*
X107050000Y-72231414D02*
X107178571Y-72231414D01*
X107178571Y-72231414D02*
X107264286Y-72274271D01*
X107264286Y-72274271D02*
X107307143Y-72317128D01*
X107307143Y-72317128D02*
X107350000Y-72402842D01*
X107350000Y-72402842D02*
X107350000Y-72617128D01*
X107350000Y-72617128D02*
X107307143Y-72702842D01*
X107307143Y-72702842D02*
X107264286Y-72745700D01*
X107264286Y-72745700D02*
X107178571Y-72788557D01*
X107178571Y-72788557D02*
X106921428Y-72788557D01*
X106921428Y-72788557D02*
X106835714Y-72745700D01*
X106835714Y-72745700D02*
X106792857Y-72702842D01*
X107907143Y-71888557D02*
X107992857Y-71888557D01*
X107992857Y-71888557D02*
X108078571Y-71931414D01*
X108078571Y-71931414D02*
X108121429Y-71974271D01*
X108121429Y-71974271D02*
X108164286Y-72059985D01*
X108164286Y-72059985D02*
X108207143Y-72231414D01*
X108207143Y-72231414D02*
X108207143Y-72445700D01*
X108207143Y-72445700D02*
X108164286Y-72617128D01*
X108164286Y-72617128D02*
X108121429Y-72702842D01*
X108121429Y-72702842D02*
X108078571Y-72745700D01*
X108078571Y-72745700D02*
X107992857Y-72788557D01*
X107992857Y-72788557D02*
X107907143Y-72788557D01*
X107907143Y-72788557D02*
X107821429Y-72745700D01*
X107821429Y-72745700D02*
X107778571Y-72702842D01*
X107778571Y-72702842D02*
X107735714Y-72617128D01*
X107735714Y-72617128D02*
X107692857Y-72445700D01*
X107692857Y-72445700D02*
X107692857Y-72231414D01*
X107692857Y-72231414D02*
X107735714Y-72059985D01*
X107735714Y-72059985D02*
X107778571Y-71974271D01*
X107778571Y-71974271D02*
X107821429Y-71931414D01*
X107821429Y-71931414D02*
X107907143Y-71888557D01*
X108507143Y-71888557D02*
X109064286Y-71888557D01*
X109064286Y-71888557D02*
X108764286Y-72231414D01*
X108764286Y-72231414D02*
X108892857Y-72231414D01*
X108892857Y-72231414D02*
X108978572Y-72274271D01*
X108978572Y-72274271D02*
X109021429Y-72317128D01*
X109021429Y-72317128D02*
X109064286Y-72402842D01*
X109064286Y-72402842D02*
X109064286Y-72617128D01*
X109064286Y-72617128D02*
X109021429Y-72702842D01*
X109021429Y-72702842D02*
X108978572Y-72745700D01*
X108978572Y-72745700D02*
X108892857Y-72788557D01*
X108892857Y-72788557D02*
X108635714Y-72788557D01*
X108635714Y-72788557D02*
X108550000Y-72745700D01*
X108550000Y-72745700D02*
X108507143Y-72702842D01*
X99478571Y-107788557D02*
X99478571Y-106888557D01*
X99478571Y-106888557D02*
X99692857Y-106888557D01*
X99692857Y-106888557D02*
X99821428Y-106931414D01*
X99821428Y-106931414D02*
X99907143Y-107017128D01*
X99907143Y-107017128D02*
X99950000Y-107102842D01*
X99950000Y-107102842D02*
X99992857Y-107274271D01*
X99992857Y-107274271D02*
X99992857Y-107402842D01*
X99992857Y-107402842D02*
X99950000Y-107574271D01*
X99950000Y-107574271D02*
X99907143Y-107659985D01*
X99907143Y-107659985D02*
X99821428Y-107745700D01*
X99821428Y-107745700D02*
X99692857Y-107788557D01*
X99692857Y-107788557D02*
X99478571Y-107788557D01*
X100292857Y-106888557D02*
X100850000Y-106888557D01*
X100850000Y-106888557D02*
X100550000Y-107231414D01*
X100550000Y-107231414D02*
X100678571Y-107231414D01*
X100678571Y-107231414D02*
X100764286Y-107274271D01*
X100764286Y-107274271D02*
X100807143Y-107317128D01*
X100807143Y-107317128D02*
X100850000Y-107402842D01*
X100850000Y-107402842D02*
X100850000Y-107617128D01*
X100850000Y-107617128D02*
X100807143Y-107702842D01*
X100807143Y-107702842D02*
X100764286Y-107745700D01*
X100764286Y-107745700D02*
X100678571Y-107788557D01*
X100678571Y-107788557D02*
X100421428Y-107788557D01*
X100421428Y-107788557D02*
X100335714Y-107745700D01*
X100335714Y-107745700D02*
X100292857Y-107702842D01*
X101407143Y-106888557D02*
X101492857Y-106888557D01*
X101492857Y-106888557D02*
X101578571Y-106931414D01*
X101578571Y-106931414D02*
X101621429Y-106974271D01*
X101621429Y-106974271D02*
X101664286Y-107059985D01*
X101664286Y-107059985D02*
X101707143Y-107231414D01*
X101707143Y-107231414D02*
X101707143Y-107445700D01*
X101707143Y-107445700D02*
X101664286Y-107617128D01*
X101664286Y-107617128D02*
X101621429Y-107702842D01*
X101621429Y-107702842D02*
X101578571Y-107745700D01*
X101578571Y-107745700D02*
X101492857Y-107788557D01*
X101492857Y-107788557D02*
X101407143Y-107788557D01*
X101407143Y-107788557D02*
X101321429Y-107745700D01*
X101321429Y-107745700D02*
X101278571Y-107702842D01*
X101278571Y-107702842D02*
X101235714Y-107617128D01*
X101235714Y-107617128D02*
X101192857Y-107445700D01*
X101192857Y-107445700D02*
X101192857Y-107231414D01*
X101192857Y-107231414D02*
X101235714Y-107059985D01*
X101235714Y-107059985D02*
X101278571Y-106974271D01*
X101278571Y-106974271D02*
X101321429Y-106931414D01*
X101321429Y-106931414D02*
X101407143Y-106888557D01*
X102521429Y-106888557D02*
X102092857Y-106888557D01*
X102092857Y-106888557D02*
X102050000Y-107317128D01*
X102050000Y-107317128D02*
X102092857Y-107274271D01*
X102092857Y-107274271D02*
X102178572Y-107231414D01*
X102178572Y-107231414D02*
X102392857Y-107231414D01*
X102392857Y-107231414D02*
X102478572Y-107274271D01*
X102478572Y-107274271D02*
X102521429Y-107317128D01*
X102521429Y-107317128D02*
X102564286Y-107402842D01*
X102564286Y-107402842D02*
X102564286Y-107617128D01*
X102564286Y-107617128D02*
X102521429Y-107702842D01*
X102521429Y-107702842D02*
X102478572Y-107745700D01*
X102478572Y-107745700D02*
X102392857Y-107788557D01*
X102392857Y-107788557D02*
X102178572Y-107788557D01*
X102178572Y-107788557D02*
X102092857Y-107745700D01*
X102092857Y-107745700D02*
X102050000Y-107702842D01*
X115892856Y-54937128D02*
X115592856Y-54937128D01*
X115592856Y-55408557D02*
X115592856Y-54508557D01*
X115592856Y-54508557D02*
X116021428Y-54508557D01*
X116664285Y-54937128D02*
X116792857Y-54979985D01*
X116792857Y-54979985D02*
X116835714Y-55022842D01*
X116835714Y-55022842D02*
X116878571Y-55108557D01*
X116878571Y-55108557D02*
X116878571Y-55237128D01*
X116878571Y-55237128D02*
X116835714Y-55322842D01*
X116835714Y-55322842D02*
X116792857Y-55365700D01*
X116792857Y-55365700D02*
X116707142Y-55408557D01*
X116707142Y-55408557D02*
X116364285Y-55408557D01*
X116364285Y-55408557D02*
X116364285Y-54508557D01*
X116364285Y-54508557D02*
X116664285Y-54508557D01*
X116664285Y-54508557D02*
X116750000Y-54551414D01*
X116750000Y-54551414D02*
X116792857Y-54594271D01*
X116792857Y-54594271D02*
X116835714Y-54679985D01*
X116835714Y-54679985D02*
X116835714Y-54765700D01*
X116835714Y-54765700D02*
X116792857Y-54851414D01*
X116792857Y-54851414D02*
X116750000Y-54894271D01*
X116750000Y-54894271D02*
X116664285Y-54937128D01*
X116664285Y-54937128D02*
X116364285Y-54937128D01*
X117735714Y-55408557D02*
X117221428Y-55408557D01*
X117478571Y-55408557D02*
X117478571Y-54508557D01*
X117478571Y-54508557D02*
X117392857Y-54637128D01*
X117392857Y-54637128D02*
X117307142Y-54722842D01*
X117307142Y-54722842D02*
X117221428Y-54765700D01*
X118292857Y-54508557D02*
X118378571Y-54508557D01*
X118378571Y-54508557D02*
X118464285Y-54551414D01*
X118464285Y-54551414D02*
X118507143Y-54594271D01*
X118507143Y-54594271D02*
X118550000Y-54679985D01*
X118550000Y-54679985D02*
X118592857Y-54851414D01*
X118592857Y-54851414D02*
X118592857Y-55065700D01*
X118592857Y-55065700D02*
X118550000Y-55237128D01*
X118550000Y-55237128D02*
X118507143Y-55322842D01*
X118507143Y-55322842D02*
X118464285Y-55365700D01*
X118464285Y-55365700D02*
X118378571Y-55408557D01*
X118378571Y-55408557D02*
X118292857Y-55408557D01*
X118292857Y-55408557D02*
X118207143Y-55365700D01*
X118207143Y-55365700D02*
X118164285Y-55322842D01*
X118164285Y-55322842D02*
X118121428Y-55237128D01*
X118121428Y-55237128D02*
X118078571Y-55065700D01*
X118078571Y-55065700D02*
X118078571Y-54851414D01*
X118078571Y-54851414D02*
X118121428Y-54679985D01*
X118121428Y-54679985D02*
X118164285Y-54594271D01*
X118164285Y-54594271D02*
X118207143Y-54551414D01*
X118207143Y-54551414D02*
X118292857Y-54508557D01*
X119450000Y-55408557D02*
X118935714Y-55408557D01*
X119192857Y-55408557D02*
X119192857Y-54508557D01*
X119192857Y-54508557D02*
X119107143Y-54637128D01*
X119107143Y-54637128D02*
X119021428Y-54722842D01*
X119021428Y-54722842D02*
X118935714Y-54765700D01*
X130992857Y-55422842D02*
X130950000Y-55465700D01*
X130950000Y-55465700D02*
X130821428Y-55508557D01*
X130821428Y-55508557D02*
X130735714Y-55508557D01*
X130735714Y-55508557D02*
X130607143Y-55465700D01*
X130607143Y-55465700D02*
X130521428Y-55379985D01*
X130521428Y-55379985D02*
X130478571Y-55294271D01*
X130478571Y-55294271D02*
X130435714Y-55122842D01*
X130435714Y-55122842D02*
X130435714Y-54994271D01*
X130435714Y-54994271D02*
X130478571Y-54822842D01*
X130478571Y-54822842D02*
X130521428Y-54737128D01*
X130521428Y-54737128D02*
X130607143Y-54651414D01*
X130607143Y-54651414D02*
X130735714Y-54608557D01*
X130735714Y-54608557D02*
X130821428Y-54608557D01*
X130821428Y-54608557D02*
X130950000Y-54651414D01*
X130950000Y-54651414D02*
X130992857Y-54694271D01*
X131850000Y-55508557D02*
X131335714Y-55508557D01*
X131592857Y-55508557D02*
X131592857Y-54608557D01*
X131592857Y-54608557D02*
X131507143Y-54737128D01*
X131507143Y-54737128D02*
X131421428Y-54822842D01*
X131421428Y-54822842D02*
X131335714Y-54865700D01*
X132407143Y-54608557D02*
X132492857Y-54608557D01*
X132492857Y-54608557D02*
X132578571Y-54651414D01*
X132578571Y-54651414D02*
X132621429Y-54694271D01*
X132621429Y-54694271D02*
X132664286Y-54779985D01*
X132664286Y-54779985D02*
X132707143Y-54951414D01*
X132707143Y-54951414D02*
X132707143Y-55165700D01*
X132707143Y-55165700D02*
X132664286Y-55337128D01*
X132664286Y-55337128D02*
X132621429Y-55422842D01*
X132621429Y-55422842D02*
X132578571Y-55465700D01*
X132578571Y-55465700D02*
X132492857Y-55508557D01*
X132492857Y-55508557D02*
X132407143Y-55508557D01*
X132407143Y-55508557D02*
X132321429Y-55465700D01*
X132321429Y-55465700D02*
X132278571Y-55422842D01*
X132278571Y-55422842D02*
X132235714Y-55337128D01*
X132235714Y-55337128D02*
X132192857Y-55165700D01*
X132192857Y-55165700D02*
X132192857Y-54951414D01*
X132192857Y-54951414D02*
X132235714Y-54779985D01*
X132235714Y-54779985D02*
X132278571Y-54694271D01*
X132278571Y-54694271D02*
X132321429Y-54651414D01*
X132321429Y-54651414D02*
X132407143Y-54608557D01*
X133564286Y-55508557D02*
X133050000Y-55508557D01*
X133307143Y-55508557D02*
X133307143Y-54608557D01*
X133307143Y-54608557D02*
X133221429Y-54737128D01*
X133221429Y-54737128D02*
X133135714Y-54822842D01*
X133135714Y-54822842D02*
X133050000Y-54865700D01*
X137492857Y-107538557D02*
X137192857Y-107109985D01*
X136978571Y-107538557D02*
X136978571Y-106638557D01*
X136978571Y-106638557D02*
X137321428Y-106638557D01*
X137321428Y-106638557D02*
X137407143Y-106681414D01*
X137407143Y-106681414D02*
X137450000Y-106724271D01*
X137450000Y-106724271D02*
X137492857Y-106809985D01*
X137492857Y-106809985D02*
X137492857Y-106938557D01*
X137492857Y-106938557D02*
X137450000Y-107024271D01*
X137450000Y-107024271D02*
X137407143Y-107067128D01*
X137407143Y-107067128D02*
X137321428Y-107109985D01*
X137321428Y-107109985D02*
X136978571Y-107109985D01*
X137792857Y-106638557D02*
X138350000Y-106638557D01*
X138350000Y-106638557D02*
X138050000Y-106981414D01*
X138050000Y-106981414D02*
X138178571Y-106981414D01*
X138178571Y-106981414D02*
X138264286Y-107024271D01*
X138264286Y-107024271D02*
X138307143Y-107067128D01*
X138307143Y-107067128D02*
X138350000Y-107152842D01*
X138350000Y-107152842D02*
X138350000Y-107367128D01*
X138350000Y-107367128D02*
X138307143Y-107452842D01*
X138307143Y-107452842D02*
X138264286Y-107495700D01*
X138264286Y-107495700D02*
X138178571Y-107538557D01*
X138178571Y-107538557D02*
X137921428Y-107538557D01*
X137921428Y-107538557D02*
X137835714Y-107495700D01*
X137835714Y-107495700D02*
X137792857Y-107452842D01*
X138907143Y-106638557D02*
X138992857Y-106638557D01*
X138992857Y-106638557D02*
X139078571Y-106681414D01*
X139078571Y-106681414D02*
X139121429Y-106724271D01*
X139121429Y-106724271D02*
X139164286Y-106809985D01*
X139164286Y-106809985D02*
X139207143Y-106981414D01*
X139207143Y-106981414D02*
X139207143Y-107195700D01*
X139207143Y-107195700D02*
X139164286Y-107367128D01*
X139164286Y-107367128D02*
X139121429Y-107452842D01*
X139121429Y-107452842D02*
X139078571Y-107495700D01*
X139078571Y-107495700D02*
X138992857Y-107538557D01*
X138992857Y-107538557D02*
X138907143Y-107538557D01*
X138907143Y-107538557D02*
X138821429Y-107495700D01*
X138821429Y-107495700D02*
X138778571Y-107452842D01*
X138778571Y-107452842D02*
X138735714Y-107367128D01*
X138735714Y-107367128D02*
X138692857Y-107195700D01*
X138692857Y-107195700D02*
X138692857Y-106981414D01*
X138692857Y-106981414D02*
X138735714Y-106809985D01*
X138735714Y-106809985D02*
X138778571Y-106724271D01*
X138778571Y-106724271D02*
X138821429Y-106681414D01*
X138821429Y-106681414D02*
X138907143Y-106638557D01*
X139721429Y-107024271D02*
X139635714Y-106981414D01*
X139635714Y-106981414D02*
X139592857Y-106938557D01*
X139592857Y-106938557D02*
X139550000Y-106852842D01*
X139550000Y-106852842D02*
X139550000Y-106809985D01*
X139550000Y-106809985D02*
X139592857Y-106724271D01*
X139592857Y-106724271D02*
X139635714Y-106681414D01*
X139635714Y-106681414D02*
X139721429Y-106638557D01*
X139721429Y-106638557D02*
X139892857Y-106638557D01*
X139892857Y-106638557D02*
X139978572Y-106681414D01*
X139978572Y-106681414D02*
X140021429Y-106724271D01*
X140021429Y-106724271D02*
X140064286Y-106809985D01*
X140064286Y-106809985D02*
X140064286Y-106852842D01*
X140064286Y-106852842D02*
X140021429Y-106938557D01*
X140021429Y-106938557D02*
X139978572Y-106981414D01*
X139978572Y-106981414D02*
X139892857Y-107024271D01*
X139892857Y-107024271D02*
X139721429Y-107024271D01*
X139721429Y-107024271D02*
X139635714Y-107067128D01*
X139635714Y-107067128D02*
X139592857Y-107109985D01*
X139592857Y-107109985D02*
X139550000Y-107195700D01*
X139550000Y-107195700D02*
X139550000Y-107367128D01*
X139550000Y-107367128D02*
X139592857Y-107452842D01*
X139592857Y-107452842D02*
X139635714Y-107495700D01*
X139635714Y-107495700D02*
X139721429Y-107538557D01*
X139721429Y-107538557D02*
X139892857Y-107538557D01*
X139892857Y-107538557D02*
X139978572Y-107495700D01*
X139978572Y-107495700D02*
X140021429Y-107452842D01*
X140021429Y-107452842D02*
X140064286Y-107367128D01*
X140064286Y-107367128D02*
X140064286Y-107195700D01*
X140064286Y-107195700D02*
X140021429Y-107109985D01*
X140021429Y-107109985D02*
X139978572Y-107067128D01*
X139978572Y-107067128D02*
X139892857Y-107024271D01*
X105928095Y-108654819D02*
X105928095Y-107654819D01*
X106499523Y-108654819D02*
X106070952Y-108083390D01*
X106499523Y-107654819D02*
X105928095Y-108226247D01*
X100928095Y-92654819D02*
X100928095Y-91654819D01*
X101499523Y-92654819D02*
X101070952Y-92083390D01*
X101499523Y-91654819D02*
X100928095Y-92226247D01*
X103428095Y-73654819D02*
X103428095Y-72654819D01*
X103999523Y-73654819D02*
X103570952Y-73083390D01*
X103999523Y-72654819D02*
X103428095Y-73226247D01*
X93428095Y-108654819D02*
X93428095Y-107654819D01*
X93999523Y-108654819D02*
X93570952Y-108083390D01*
X93999523Y-107654819D02*
X93428095Y-108226247D01*
D11*
X144000000Y-89960000D02*
X144000000Y-90730000D01*
X144000000Y-98040000D02*
X144000000Y-97270000D01*
X142630000Y-97270000D02*
X145370000Y-97270000D01*
X145370000Y-90730000D01*
X142630000Y-90730000D01*
X142630000Y-97270000D01*
X119880000Y-76130000D02*
X119880000Y-76467000D01*
X119880000Y-76130000D02*
X125120000Y-76130000D01*
X119880000Y-78533000D02*
X119880000Y-78870000D01*
X119880000Y-78870000D02*
X125120000Y-78870000D01*
X125120000Y-76130000D02*
X125120000Y-76467000D01*
X125120000Y-78533000D02*
X125120000Y-78870000D01*
X144000000Y-73960000D02*
X144000000Y-74730000D01*
X144000000Y-82040000D02*
X144000000Y-81270000D01*
X142630000Y-81270000D02*
X145370000Y-81270000D01*
X145370000Y-74730000D01*
X142630000Y-74730000D01*
X142630000Y-81270000D01*
X128499759Y-58161000D02*
X129129759Y-58161000D01*
X128814759Y-57846000D02*
X128814759Y-58476000D01*
X132000000Y-56770000D02*
X132000000Y-63230000D01*
X132040000Y-56770000D02*
X132040000Y-63230000D01*
X132080000Y-56771000D02*
X132080000Y-63229000D01*
X132120000Y-56772000D02*
X132120000Y-63228000D01*
X132160000Y-56774000D02*
X132160000Y-63226000D01*
X132200000Y-56776000D02*
X132200000Y-63224000D01*
X132240000Y-56779000D02*
X132240000Y-58960000D01*
X132240000Y-61040000D02*
X132240000Y-63221000D01*
X132280000Y-56782000D02*
X132280000Y-58960000D01*
X132280000Y-61040000D02*
X132280000Y-63218000D01*
X132320000Y-56786000D02*
X132320000Y-58960000D01*
X132320000Y-61040000D02*
X132320000Y-63214000D01*
X132360000Y-56790000D02*
X132360000Y-58960000D01*
X132360000Y-61040000D02*
X132360000Y-63210000D01*
X132400000Y-56795000D02*
X132400000Y-58960000D01*
X132400000Y-61040000D02*
X132400000Y-63205000D01*
X132440000Y-56800000D02*
X132440000Y-58960000D01*
X132440000Y-61040000D02*
X132440000Y-63200000D01*
X132480000Y-56805000D02*
X132480000Y-58960000D01*
X132480000Y-61040000D02*
X132480000Y-63195000D01*
X132520000Y-56812000D02*
X132520000Y-58960000D01*
X132520000Y-61040000D02*
X132520000Y-63188000D01*
X132560000Y-56818000D02*
X132560000Y-58960000D01*
X132560000Y-61040000D02*
X132560000Y-63182000D01*
X132600000Y-56826000D02*
X132600000Y-58960000D01*
X132600000Y-61040000D02*
X132600000Y-63174000D01*
X132640000Y-56833000D02*
X132640000Y-58960000D01*
X132640000Y-61040000D02*
X132640000Y-63167000D01*
X132680000Y-56841000D02*
X132680000Y-58960000D01*
X132680000Y-61040000D02*
X132680000Y-63159000D01*
X132720000Y-56850000D02*
X132720000Y-58960000D01*
X132720000Y-61040000D02*
X132720000Y-63150000D01*
X132760000Y-56860000D02*
X132760000Y-58960000D01*
X132760000Y-61040000D02*
X132760000Y-63140000D01*
X132800000Y-56869000D02*
X132800000Y-58960000D01*
X132800000Y-61040000D02*
X132800000Y-63131000D01*
X132840000Y-56880000D02*
X132840000Y-58960000D01*
X132840000Y-61040000D02*
X132840000Y-63120000D01*
X132880000Y-56891000D02*
X132880000Y-58960000D01*
X132880000Y-61040000D02*
X132880000Y-63109000D01*
X132920000Y-56902000D02*
X132920000Y-58960000D01*
X132920000Y-61040000D02*
X132920000Y-63098000D01*
X132960000Y-56914000D02*
X132960000Y-58960000D01*
X132960000Y-61040000D02*
X132960000Y-63086000D01*
X133000000Y-56927000D02*
X133000000Y-58960000D01*
X133000000Y-61040000D02*
X133000000Y-63073000D01*
X133040000Y-56940000D02*
X133040000Y-58960000D01*
X133040000Y-61040000D02*
X133040000Y-63060000D01*
X133080000Y-56953000D02*
X133080000Y-58960000D01*
X133080000Y-61040000D02*
X133080000Y-63047000D01*
X133120000Y-56968000D02*
X133120000Y-58960000D01*
X133120000Y-61040000D02*
X133120000Y-63032000D01*
X133160000Y-56983000D02*
X133160000Y-58960000D01*
X133160000Y-61040000D02*
X133160000Y-63017000D01*
X133200000Y-56998000D02*
X133200000Y-58960000D01*
X133200000Y-61040000D02*
X133200000Y-63002000D01*
X133240000Y-57014000D02*
X133240000Y-58960000D01*
X133240000Y-61040000D02*
X133240000Y-62986000D01*
X133280000Y-57031000D02*
X133280000Y-58960000D01*
X133280000Y-61040000D02*
X133280000Y-62969000D01*
X133320000Y-57048000D02*
X133320000Y-58960000D01*
X133320000Y-61040000D02*
X133320000Y-62952000D01*
X133360000Y-57066000D02*
X133360000Y-58960000D01*
X133360000Y-61040000D02*
X133360000Y-62934000D01*
X133400000Y-57085000D02*
X133400000Y-58960000D01*
X133400000Y-61040000D02*
X133400000Y-62915000D01*
X133440000Y-57104000D02*
X133440000Y-58960000D01*
X133440000Y-61040000D02*
X133440000Y-62896000D01*
X133480000Y-57124000D02*
X133480000Y-58960000D01*
X133480000Y-61040000D02*
X133480000Y-62876000D01*
X133520000Y-57145000D02*
X133520000Y-58960000D01*
X133520000Y-61040000D02*
X133520000Y-62855000D01*
X133560000Y-57166000D02*
X133560000Y-58960000D01*
X133560000Y-61040000D02*
X133560000Y-62834000D01*
X133600000Y-57188000D02*
X133600000Y-58960000D01*
X133600000Y-61040000D02*
X133600000Y-62812000D01*
X133640000Y-57211000D02*
X133640000Y-58960000D01*
X133640000Y-61040000D02*
X133640000Y-62789000D01*
X133680000Y-57235000D02*
X133680000Y-58960000D01*
X133680000Y-61040000D02*
X133680000Y-62765000D01*
X133720000Y-57259000D02*
X133720000Y-58960000D01*
X133720000Y-61040000D02*
X133720000Y-62741000D01*
X133760000Y-57284000D02*
X133760000Y-58960000D01*
X133760000Y-61040000D02*
X133760000Y-62716000D01*
X133800000Y-57310000D02*
X133800000Y-58960000D01*
X133800000Y-61040000D02*
X133800000Y-62690000D01*
X133840000Y-57337000D02*
X133840000Y-58960000D01*
X133840000Y-61040000D02*
X133840000Y-62663000D01*
X133880000Y-57364000D02*
X133880000Y-58960000D01*
X133880000Y-61040000D02*
X133880000Y-62636000D01*
X133920000Y-57393000D02*
X133920000Y-58960000D01*
X133920000Y-61040000D02*
X133920000Y-62607000D01*
X133960000Y-57423000D02*
X133960000Y-58960000D01*
X133960000Y-61040000D02*
X133960000Y-62577000D01*
X134000000Y-57453000D02*
X134000000Y-58960000D01*
X134000000Y-61040000D02*
X134000000Y-62547000D01*
X134040000Y-57484000D02*
X134040000Y-58960000D01*
X134040000Y-61040000D02*
X134040000Y-62516000D01*
X134080000Y-57517000D02*
X134080000Y-58960000D01*
X134080000Y-61040000D02*
X134080000Y-62483000D01*
X134120000Y-57550000D02*
X134120000Y-58960000D01*
X134120000Y-61040000D02*
X134120000Y-62450000D01*
X134160000Y-57585000D02*
X134160000Y-58960000D01*
X134160000Y-61040000D02*
X134160000Y-62415000D01*
X134200000Y-57621000D02*
X134200000Y-58960000D01*
X134200000Y-61040000D02*
X134200000Y-62379000D01*
X134240000Y-57658000D02*
X134240000Y-58960000D01*
X134240000Y-61040000D02*
X134240000Y-62342000D01*
X134280000Y-57696000D02*
X134280000Y-58960000D01*
X134280000Y-61040000D02*
X134280000Y-62304000D01*
X134320000Y-57736000D02*
X134320000Y-62264000D01*
X134360000Y-57777000D02*
X134360000Y-62223000D01*
X134400000Y-57819000D02*
X134400000Y-62181000D01*
X134440000Y-57863000D02*
X134440000Y-62137000D01*
X134480000Y-57909000D02*
X134480000Y-62091000D01*
X134520000Y-57956000D02*
X134520000Y-62044000D01*
X134560000Y-58005000D02*
X134560000Y-61995000D01*
X134600000Y-58057000D02*
X134600000Y-61943000D01*
X134640000Y-58110000D02*
X134640000Y-61890000D01*
X134680000Y-58166000D02*
X134680000Y-61834000D01*
X134720000Y-58225000D02*
X134720000Y-61775000D01*
X134760000Y-58286000D02*
X134760000Y-61714000D01*
X134800000Y-58351000D02*
X134800000Y-61649000D01*
X134840000Y-58419000D02*
X134840000Y-61581000D01*
X134880000Y-58491000D02*
X134880000Y-61509000D01*
X134920000Y-58568000D02*
X134920000Y-61432000D01*
X134960000Y-58650000D02*
X134960000Y-61350000D01*
X135000000Y-58739000D02*
X135000000Y-61261000D01*
X135040000Y-58835000D02*
X135040000Y-61165000D01*
X135080000Y-58942000D02*
X135080000Y-61058000D01*
X135120000Y-59061000D02*
X135120000Y-60939000D01*
X135160000Y-59199000D02*
X135160000Y-60801000D01*
X135200000Y-59367000D02*
X135200000Y-60633000D01*
X135240000Y-59598000D02*
X135240000Y-60402000D01*
X135270000Y-60000000D02*
G75*
G02*
X128730000Y-60000000I-3270000J0D01*
G01*
X128730000Y-60000000D02*
G75*
G02*
X135270000Y-60000000I3270000J0D01*
G01*
D10*
X111300000Y-82110000D02*
X136700000Y-82110000D01*
X136700000Y-99890000D01*
X111300000Y-99890000D01*
X111300000Y-82110000D01*
D11*
X148620000Y-104850000D02*
X150000000Y-104850000D01*
X148620000Y-106230000D02*
X148620000Y-104850000D01*
X148620000Y-107500000D02*
X148620000Y-110150000D01*
X148620000Y-107500000D02*
X151380000Y-107500000D01*
X148620000Y-110150000D02*
X151380000Y-110150000D01*
X151380000Y-107500000D02*
X151380000Y-110150000D01*
X107230000Y-110000000D02*
X107880000Y-110000000D01*
X108480000Y-108880000D02*
X108480000Y-111120000D01*
X108600000Y-108880000D02*
X108600000Y-111120000D01*
X108720000Y-108880000D02*
X108720000Y-111120000D01*
X112770000Y-110000000D02*
X112120000Y-110000000D01*
X107880000Y-108880000D02*
X112120000Y-108880000D01*
X112120000Y-111120000D01*
X107880000Y-111120000D01*
X107880000Y-108880000D01*
X56120000Y-78580000D02*
X57500000Y-78580000D01*
X56120000Y-79960000D02*
X56120000Y-78580000D01*
X56120000Y-81230000D02*
X56120000Y-86420000D01*
X56120000Y-81230000D02*
X58880000Y-81230000D01*
X56120000Y-86420000D02*
X58880000Y-86420000D01*
X58880000Y-81230000D02*
X58880000Y-86420000D01*
X56420000Y-67500000D02*
X57630000Y-67500000D01*
X67370000Y-67500000D02*
X68580000Y-67500000D01*
X57630000Y-64580000D02*
X67370000Y-64580000D01*
X67370000Y-70420000D01*
X57630000Y-70420000D01*
X57630000Y-64580000D01*
X65960000Y-110000000D02*
X66730000Y-110000000D01*
X74040000Y-110000000D02*
X73270000Y-110000000D01*
X66730000Y-108630000D02*
X73270000Y-108630000D01*
X73270000Y-111370000D01*
X66730000Y-111370000D01*
X66730000Y-108630000D01*
X102230000Y-94000000D02*
X102880000Y-94000000D01*
X103480000Y-92880000D02*
X103480000Y-95120000D01*
X103600000Y-92880000D02*
X103600000Y-95120000D01*
X103720000Y-92880000D02*
X103720000Y-95120000D01*
X107770000Y-94000000D02*
X107120000Y-94000000D01*
X102880000Y-92880000D02*
X107120000Y-92880000D01*
X107120000Y-95120000D01*
X102880000Y-95120000D01*
X102880000Y-92880000D01*
X101380000Y-82630000D02*
X101380000Y-82967000D01*
X101380000Y-82630000D02*
X106620000Y-82630000D01*
X101380000Y-85033000D02*
X101380000Y-85370000D01*
X101380000Y-85370000D02*
X106620000Y-85370000D01*
X106620000Y-82630000D02*
X106620000Y-82967000D01*
X106620000Y-85033000D02*
X106620000Y-85370000D01*
X118620000Y-111080000D02*
X120000000Y-111080000D01*
X118620000Y-112460000D02*
X118620000Y-111080000D01*
X118620000Y-113730000D02*
X118620000Y-118920000D01*
X118620000Y-113730000D02*
X121380000Y-113730000D01*
X118620000Y-118920000D02*
X121380000Y-118920000D01*
X121380000Y-113730000D02*
X121380000Y-118920000D01*
D10*
X112250000Y-56850000D02*
X122750000Y-56850000D01*
X122750000Y-63150000D01*
X112250000Y-63150000D01*
X112250000Y-56850000D01*
D11*
X100380000Y-99630000D02*
X100380000Y-99967000D01*
X100380000Y-99630000D02*
X105620000Y-99630000D01*
X100380000Y-102033000D02*
X100380000Y-102370000D01*
X100380000Y-102370000D02*
X105620000Y-102370000D01*
X105620000Y-99630000D02*
X105620000Y-99967000D01*
X105620000Y-102033000D02*
X105620000Y-102370000D01*
X75960000Y-98000000D02*
X76730000Y-98000000D01*
X84040000Y-98000000D02*
X83270000Y-98000000D01*
X76730000Y-96630000D02*
X83270000Y-96630000D01*
X83270000Y-99370000D01*
X76730000Y-99370000D01*
X76730000Y-96630000D01*
X133460000Y-110000000D02*
X134230000Y-110000000D01*
X141540000Y-110000000D02*
X140770000Y-110000000D01*
X134230000Y-108630000D02*
X140770000Y-108630000D01*
X140770000Y-111370000D01*
X134230000Y-111370000D01*
X134230000Y-108630000D01*
X140380000Y-58630000D02*
X140380000Y-58967000D01*
X140380000Y-58630000D02*
X145620000Y-58630000D01*
X140380000Y-61033000D02*
X140380000Y-61370000D01*
X140380000Y-61370000D02*
X145620000Y-61370000D01*
X145620000Y-58630000D02*
X145620000Y-58967000D01*
X145620000Y-61033000D02*
X145620000Y-61370000D01*
X148620000Y-122350000D02*
X150000000Y-122350000D01*
X148620000Y-123730000D02*
X148620000Y-122350000D01*
X148620000Y-125000000D02*
X148620000Y-127650000D01*
X148620000Y-125000000D02*
X151380000Y-125000000D01*
X148620000Y-127650000D02*
X151380000Y-127650000D01*
X151380000Y-125000000D02*
X151380000Y-127650000D01*
X125960000Y-105000000D02*
X126730000Y-105000000D01*
X134040000Y-105000000D02*
X133270000Y-105000000D01*
X126730000Y-103630000D02*
X133270000Y-103630000D01*
X133270000Y-106370000D01*
X126730000Y-106370000D01*
X126730000Y-103630000D01*
X72350000Y-78580000D02*
X73730000Y-78580000D01*
X72350000Y-79960000D02*
X72350000Y-78580000D01*
X72350000Y-81230000D02*
X72350000Y-86420000D01*
X72350000Y-81230000D02*
X75000000Y-81230000D01*
X72350000Y-86420000D02*
X77650000Y-86420000D01*
X75000000Y-78580000D02*
X77650000Y-78580000D01*
X75000000Y-81230000D02*
X75000000Y-78580000D01*
X77650000Y-78580000D02*
X77650000Y-86420000D01*
X83460000Y-75000000D02*
X84230000Y-75000000D01*
X91540000Y-75000000D02*
X90770000Y-75000000D01*
X84230000Y-73630000D02*
X90770000Y-73630000D01*
X90770000Y-76370000D01*
X84230000Y-76370000D01*
X84230000Y-73630000D01*
X104730000Y-75000000D02*
X105380000Y-75000000D01*
X105980000Y-73880000D02*
X105980000Y-76120000D01*
X106100000Y-73880000D02*
X106100000Y-76120000D01*
X106220000Y-73880000D02*
X106220000Y-76120000D01*
X110270000Y-75000000D02*
X109620000Y-75000000D01*
X105380000Y-73880000D02*
X109620000Y-73880000D01*
X109620000Y-76120000D01*
X105380000Y-76120000D01*
X105380000Y-73880000D01*
X148620000Y-74810000D02*
X150000000Y-74810000D01*
X148620000Y-76190000D02*
X148620000Y-74810000D01*
X148620000Y-77460000D02*
X148620000Y-85190000D01*
X148620000Y-77460000D02*
X151380000Y-77460000D01*
X148620000Y-85190000D02*
X151380000Y-85190000D01*
X151380000Y-77460000D02*
X151380000Y-85190000D01*
X85960000Y-87500000D02*
X86730000Y-87500000D01*
X94040000Y-87500000D02*
X93270000Y-87500000D01*
X86730000Y-86130000D02*
X93270000Y-86130000D01*
X93270000Y-88870000D01*
X86730000Y-88870000D01*
X86730000Y-86130000D01*
X88460000Y-105000000D02*
X89230000Y-105000000D01*
X96540000Y-105000000D02*
X95770000Y-105000000D01*
X89230000Y-103630000D02*
X95770000Y-103630000D01*
X95770000Y-106370000D01*
X89230000Y-106370000D01*
X89230000Y-103630000D01*
X56420000Y-97500000D02*
X57630000Y-97500000D01*
X67370000Y-97500000D02*
X68580000Y-97500000D01*
X57630000Y-94580000D02*
X67370000Y-94580000D01*
X67370000Y-100420000D01*
X57630000Y-100420000D01*
X57630000Y-94580000D01*
X133460000Y-122500000D02*
X134230000Y-122500000D01*
X141540000Y-122500000D02*
X140770000Y-122500000D01*
X134230000Y-121130000D02*
X140770000Y-121130000D01*
X140770000Y-123870000D01*
X134230000Y-123870000D01*
X134230000Y-121130000D01*
X94730000Y-110000000D02*
X95380000Y-110000000D01*
X95980000Y-108880000D02*
X95980000Y-111120000D01*
X96100000Y-108880000D02*
X96100000Y-111120000D01*
X96220000Y-108880000D02*
X96220000Y-111120000D01*
X100270000Y-110000000D02*
X99620000Y-110000000D01*
X95380000Y-108880000D02*
X99620000Y-108880000D01*
X99620000Y-111120000D01*
X95380000Y-111120000D01*
X95380000Y-108880000D01*
%LPC*%
D12*
X144000000Y-99080000D03*
X144000000Y-88920000D03*
X120000000Y-77500000D03*
X125000000Y-77500000D03*
X144000000Y-83080000D03*
X144000000Y-72920000D03*
D13*
X130750000Y-60000000D03*
D12*
X133250000Y-60000000D03*
D14*
X127810000Y-97350000D03*
X130350000Y-97350000D03*
X120190000Y-97350000D03*
X127810000Y-84650000D03*
X125270000Y-84650000D03*
X122730000Y-84650000D03*
X120190000Y-84650000D03*
D15*
X117650000Y-97350000D03*
D14*
X125270000Y-97350000D03*
X122730000Y-97350000D03*
X117650000Y-84650000D03*
X130350000Y-84650000D03*
D15*
X150000000Y-106230000D03*
D16*
X150000000Y-108770000D03*
D13*
X106190000Y-110000000D03*
D12*
X113810000Y-110000000D03*
D15*
X57500000Y-79960000D03*
D16*
X57500000Y-82500000D03*
X57500000Y-85040000D03*
D17*
X54880000Y-67500000D03*
D18*
X70120000Y-67500000D03*
D12*
X64920000Y-110000000D03*
X75080000Y-110000000D03*
D13*
X101190000Y-94000000D03*
D12*
X108810000Y-94000000D03*
X101500000Y-84000000D03*
X106500000Y-84000000D03*
D15*
X120000000Y-112460000D03*
D16*
X120000000Y-115000000D03*
X120000000Y-117540000D03*
D19*
X109880000Y-60000000D03*
X125120000Y-60000000D03*
D12*
X100500000Y-101000000D03*
X105500000Y-101000000D03*
X74920000Y-98000000D03*
X85080000Y-98000000D03*
D20*
X53000000Y-132000000D03*
D12*
X132420000Y-110000000D03*
X142580000Y-110000000D03*
X140500000Y-60000000D03*
X145500000Y-60000000D03*
D15*
X150000000Y-123730000D03*
D16*
X150000000Y-126270000D03*
D12*
X124920000Y-105000000D03*
X135080000Y-105000000D03*
D15*
X73730000Y-79960000D03*
D16*
X76270000Y-79960000D03*
X73730000Y-82500000D03*
X76270000Y-82500000D03*
X73730000Y-85040000D03*
X76270000Y-85040000D03*
D12*
X82420000Y-75000000D03*
X92580000Y-75000000D03*
D20*
X157000000Y-53000000D03*
D13*
X103690000Y-75000000D03*
D12*
X111310000Y-75000000D03*
D15*
X150000000Y-76190000D03*
D16*
X150000000Y-78730000D03*
X150000000Y-81270000D03*
X150000000Y-83810000D03*
D12*
X84920000Y-87500000D03*
X95080000Y-87500000D03*
X87420000Y-105000000D03*
X97580000Y-105000000D03*
D17*
X54880000Y-97500000D03*
D18*
X70120000Y-97500000D03*
D12*
X132420000Y-122500000D03*
X142580000Y-122500000D03*
D13*
X93690000Y-110000000D03*
D12*
X101310000Y-110000000D03*
%LPD*%
M02*
