G04 #@! TF.GenerationSoftware,KiCad,Pcbnew,9.0.2+dfsg-1*
G04 #@! TF.CreationDate,2026-10-09T12:30:51+00:00*
G04 #@! TF.ProjectId,Ardor_Line_Out_THT,4172646f-725f-44c6-996e-655f4f75745f,rev?*
G04 #@! TF.SameCoordinates,Original*
G04 #@! TF.FileFunction,Soldermask,Bot*
G04 #@! TF.FilePolarity,Negative*
%FSLAX46Y46*%
G04 Gerber Fmt 4.6, Leading zero omitted, Abs format (unit mm)*
G04 Created by KiCad (PCBNEW 9.0.2+dfsg-1) date 2026-10-09 12:30:51*
%MOMM*%
%LPD*%
G01*
G04 APERTURE LIST*
G04 Aperture macros list*
%AMRoundRect*
0 Rectangle with rounded corners*
0 $1 Rounding radius*
0 $2 $3 $4 $5 $6 $7 $8 $9 X,Y pos of 4 corners*
0 Add a 4 corners polygon primitive as box body*
4,1,4,$2,$3,$4,$5,$6,$7,$8,$9,$2,$3,0*
0 Add four circle primitives for the rounded corners*
1,1,$1+$1,$2,$3*
1,1,$1+$1,$4,$5*
1,1,$1+$1,$6,$7*
1,1,$1+$1,$8,$9*
0 Add four rect primitives between the rounded corners*
20,1,$1+$1,$2,$3,$4,$5,0*
20,1,$1+$1,$4,$5,$6,$7,0*
20,1,$1+$1,$6,$7,$8,$9,0*
20,1,$1+$1,$8,$9,$2,$3,0*%
G04 Aperture macros list end*
%ADD10C,1.600000*%
%ADD11R,1.700000X1.700000*%
%ADD12C,1.700000*%
%ADD13RoundRect,0.250000X-0.550000X-0.550000X0.550000X-0.550000X0.550000X0.550000X-0.550000X0.550000X0*%
%ADD14RoundRect,0.250000X-1.050000X-1.050000X1.050000X-1.050000X1.050000X1.050000X-1.050000X1.050000X0*%
%ADD15C,2.600000*%
%ADD16C,2.200000*%
%ADD17C,2.000000*%
%ADD18R,1.500000X1.500000*%
%ADD19C,1.500000*%
%ADD20R,2.000000X2.000000*%
G04 APERTURE END LIST*
D10*
X114920000Y-125000000D03*
X125080000Y-125000000D03*
X89920000Y-122500000D03*
X100080000Y-122500000D03*
X112420000Y-67500000D03*
X122580000Y-67500000D03*
X127420000Y-112500000D03*
X137580000Y-112500000D03*
D11*
X57500000Y-69960000D03*
D12*
X57500000Y-72500000D03*
X57500000Y-75040000D03*
D10*
X89920000Y-112500000D03*
X100080000Y-112500000D03*
D13*
X126190000Y-100000000D03*
D10*
X133810000Y-100000000D03*
X137420000Y-117500000D03*
X147580000Y-117500000D03*
X95500000Y-60000000D03*
X100500000Y-60000000D03*
D14*
X139880000Y-102500000D03*
D15*
X155120000Y-102500000D03*
D16*
X162000000Y-53000000D03*
D11*
X155000000Y-91230000D03*
D12*
X155000000Y-93770000D03*
D13*
X81190000Y-83690000D03*
D10*
X81190000Y-86230000D03*
X81190000Y-88770000D03*
X81190000Y-91310000D03*
X88810000Y-91310000D03*
X88810000Y-88770000D03*
X88810000Y-86230000D03*
X88810000Y-83690000D03*
X102420000Y-112500000D03*
X112580000Y-112500000D03*
D13*
X87750000Y-60000000D03*
D10*
X90250000Y-60000000D03*
D11*
X155000000Y-113730000D03*
D12*
X155000000Y-116270000D03*
D13*
X103750000Y-122500000D03*
D10*
X106250000Y-122500000D03*
X104920000Y-97500000D03*
X115080000Y-97500000D03*
D17*
X64380000Y-60000000D03*
X79620000Y-60000000D03*
D10*
X80000000Y-72500000D03*
X85000000Y-72500000D03*
D11*
X57500000Y-98730000D03*
D12*
X57500000Y-101270000D03*
D13*
X111250000Y-80000000D03*
D10*
X113750000Y-80000000D03*
D13*
X68750000Y-100000000D03*
D10*
X71250000Y-100000000D03*
D16*
X53000000Y-132000000D03*
D13*
X83750000Y-115000000D03*
D10*
X86250000Y-115000000D03*
D18*
X117460000Y-112500000D03*
D19*
X120000000Y-112500000D03*
X122540000Y-112500000D03*
D20*
X134960000Y-67420000D03*
D17*
X134960000Y-69960000D03*
X134960000Y-77580000D03*
X140040000Y-77580000D03*
X140040000Y-69960000D03*
X140040000Y-67420000D03*
D10*
X89920000Y-105000000D03*
X100080000Y-105000000D03*
X67420000Y-110000000D03*
X77580000Y-110000000D03*
M02*
