G04 #@! TF.GenerationSoftware,KiCad,Pcbnew,9.0.2+dfsg-1*
G04 #@! TF.CreationDate,2026-10-09T12:30:51+00:00*
G04 #@! TF.ProjectId,Ardor_Line_Out_THT,4172646f-725f-44c6-996e-655f4f75745f,rev?*
G04 #@! TF.SameCoordinates,Original*
G04 #@! TF.FileFunction,Copper,L2,Bot*
G04 #@! TF.FilePolarity,Positive*
%FSLAX46Y46*%
G04 Gerber Fmt 4.6, Leading zero omitted, Abs format (unit mm)*
G04 Created by KiCad (PCBNEW 9.0.2+dfsg-1) date 2026-10-09 12:30:51*
%MOMM*%
%LPD*%
G01*
G04 APERTURE LIST*
G04 Aperture macros list*
%AMRoundRect*
0 Rectangle with rounded corners*
0 $1 Rounding radius*
0 $2 $3 $4 $5 $6 $7 $8 $9 X,Y pos of 4 corners*
0 Add a 4 corners polygon primitive as box body*
4,1,4,$2,$3,$4,$5,$6,$7,$8,$9,$2,$3,0*
0 Add four circle primitives for the rounded corners*
1,1,$1+$1,$2,$3*
1,1,$1+$1,$4,$5*
1,1,$1+$1,$6,$7*
1,1,$1+$1,$8,$9*
0 Add four rect primitives between the rounded corners*
20,1,$1+$1,$2,$3,$4,$5,0*
20,1,$1+$1,$4,$5,$6,$7,0*
20,1,$1+$1,$6,$7,$8,$9,0*
20,1,$1+$1,$8,$9,$2,$3,0*%
G04 Aperture macros list end*
G04 #@! TA.AperFunction,ComponentPad*
%ADD10C,1.600000*%
G04 #@! TD*
G04 #@! TA.AperFunction,ComponentPad*
%ADD11R,1.700000X1.700000*%
G04 #@! TD*
G04 #@! TA.AperFunction,ComponentPad*
%ADD12C,1.700000*%
G04 #@! TD*
G04 #@! TA.AperFunction,ComponentPad*
%ADD13RoundRect,0.250000X-0.550000X-0.550000X0.550000X-0.550000X0.550000X0.550000X-0.550000X0.550000X0*%
G04 #@! TD*
G04 #@! TA.AperFunction,ComponentPad*
%ADD14RoundRect,0.250000X-1.050000X-1.050000X1.050000X-1.050000X1.050000X1.050000X-1.050000X1.050000X0*%
G04 #@! TD*
G04 #@! TA.AperFunction,ComponentPad*
%ADD15C,2.600000*%
G04 #@! TD*
G04 #@! TA.AperFunction,ComponentPad*
%ADD16C,2.000000*%
G04 #@! TD*
G04 #@! TA.AperFunction,ComponentPad*
%ADD17R,1.500000X1.500000*%
G04 #@! TD*
G04 #@! TA.AperFunction,ComponentPad*
%ADD18C,1.500000*%
G04 #@! TD*
G04 #@! TA.AperFunction,ComponentPad*
%ADD19R,2.000000X2.000000*%
G04 #@! TD*
G04 #@! TA.AperFunction,Conductor*
%ADD20C,0.200000*%
G04 #@! TD*
G04 #@! TA.AperFunction,Conductor*
%ADD21C,0.600000*%
G04 #@! TD*
G04 APERTURE END LIST*
D10*
X114920000Y-125000000D03*
X125080000Y-125000000D03*
X89920000Y-122500000D03*
X100080000Y-122500000D03*
X112420000Y-67500000D03*
X122580000Y-67500000D03*
X127420000Y-112500000D03*
X137580000Y-112500000D03*
D11*
X57500000Y-69960000D03*
D12*
X57500000Y-72500000D03*
X57500000Y-75040000D03*
D10*
X89920000Y-112500000D03*
X100080000Y-112500000D03*
D13*
X126190000Y-100000000D03*
D10*
X133810000Y-100000000D03*
X137420000Y-117500000D03*
X147580000Y-117500000D03*
X95500000Y-60000000D03*
X100500000Y-60000000D03*
D14*
X139880000Y-102500000D03*
D15*
X155120000Y-102500000D03*
D11*
X155000000Y-91230000D03*
D12*
X155000000Y-93770000D03*
D13*
X81190000Y-83690000D03*
D10*
X81190000Y-86230000D03*
X81190000Y-88770000D03*
X81190000Y-91310000D03*
X88810000Y-91310000D03*
X88810000Y-88770000D03*
X88810000Y-86230000D03*
X88810000Y-83690000D03*
X102420000Y-112500000D03*
X112580000Y-112500000D03*
D13*
X87750000Y-60000000D03*
D10*
X90250000Y-60000000D03*
D11*
X155000000Y-113730000D03*
D12*
X155000000Y-116270000D03*
D13*
X103750000Y-122500000D03*
D10*
X106250000Y-122500000D03*
X104920000Y-97500000D03*
X115080000Y-97500000D03*
D16*
X64380000Y-60000000D03*
X79620000Y-60000000D03*
D10*
X80000000Y-72500000D03*
X85000000Y-72500000D03*
D11*
X57500000Y-98730000D03*
D12*
X57500000Y-101270000D03*
D13*
X111250000Y-80000000D03*
D10*
X113750000Y-80000000D03*
D13*
X68750000Y-100000000D03*
D10*
X71250000Y-100000000D03*
D13*
X83750000Y-115000000D03*
D10*
X86250000Y-115000000D03*
D17*
X117460000Y-112500000D03*
D18*
X120000000Y-112500000D03*
X122540000Y-112500000D03*
D19*
X134960000Y-67420000D03*
D16*
X134960000Y-69960000D03*
X134960000Y-77580000D03*
X140040000Y-77580000D03*
X140040000Y-69960000D03*
X140040000Y-67420000D03*
D10*
X89920000Y-105000000D03*
X100080000Y-105000000D03*
X67420000Y-110000000D03*
X77580000Y-110000000D03*
D20*
X74340000Y-69960000D02*
X134960000Y-69960000D01*
X64380000Y-60000000D02*
X74340000Y-69960000D01*
X79620000Y-60000000D02*
X87750000Y-60000000D01*
X95500000Y-60000000D02*
X94328500Y-58828500D01*
X88921500Y-58828500D02*
X87750000Y-60000000D01*
X94328500Y-58828500D02*
X88921500Y-58828500D01*
D21*
X132439500Y-107480500D02*
X127420000Y-112500000D01*
X150139500Y-107480500D02*
X132439500Y-107480500D01*
X155120000Y-102500000D02*
X150139500Y-107480500D01*
D20*
X112420000Y-122500000D02*
X114920000Y-125000000D01*
X106250000Y-122500000D02*
X112420000Y-122500000D01*
X153848300Y-91230000D02*
X142578300Y-102500000D01*
X134960000Y-77580000D02*
X140040000Y-77580000D01*
X155000000Y-91230000D02*
X153848300Y-91230000D01*
X142578300Y-102500000D02*
X139880000Y-102500000D01*
X68750000Y-100000000D02*
X59921700Y-100000000D01*
X57500000Y-98730000D02*
X58651700Y-98730000D01*
X59921700Y-100000000D02*
X58651700Y-98730000D01*
X132580000Y-117500000D02*
X137420000Y-117500000D01*
X125080000Y-125000000D02*
X132580000Y-117500000D01*
X141190000Y-113730000D02*
X155000000Y-113730000D01*
X137420000Y-117500000D02*
X141190000Y-113730000D01*
X138738300Y-66118300D02*
X140040000Y-67420000D01*
X123961700Y-66118300D02*
X138738300Y-66118300D01*
X122580000Y-67500000D02*
X123961700Y-66118300D01*
X103528100Y-113608100D02*
X102420000Y-112500000D01*
X120000000Y-112500000D02*
X118891900Y-113608100D01*
X118891900Y-113608100D02*
X103528100Y-113608100D01*
X71250000Y-98710000D02*
X71250000Y-100000000D01*
X81190000Y-88770000D02*
X71250000Y-98710000D01*
X111250000Y-80000000D02*
X84880000Y-80000000D01*
X84880000Y-80000000D02*
X81190000Y-83690000D01*
X89920000Y-112500000D02*
X86250000Y-112500000D01*
X97420000Y-105000000D02*
X100080000Y-105000000D01*
X89920000Y-112500000D02*
X97420000Y-105000000D01*
X86250000Y-112500000D02*
X83750000Y-115000000D01*
G04 #@! TA.AperFunction,Conductor*
G36*
X164458691Y-50519407D02*
G01*
X164494655Y-50568907D01*
X164499500Y-50599500D01*
X164499500Y-134400500D01*
X164480593Y-134458691D01*
X164431093Y-134494655D01*
X164400500Y-134499500D01*
X50599500Y-134499500D01*
X50541309Y-134480593D01*
X50505345Y-134431093D01*
X50500500Y-134400500D01*
X50500500Y-131893709D01*
X51649500Y-131893709D01*
X51649500Y-132106290D01*
X51682752Y-132316238D01*
X51748443Y-132518412D01*
X51844948Y-132707815D01*
X51844950Y-132707819D01*
X51969891Y-132879786D01*
X51969893Y-132879788D01*
X51969896Y-132879792D01*
X52120208Y-133030104D01*
X52120211Y-133030106D01*
X52120213Y-133030108D01*
X52292180Y-133155049D01*
X52292184Y-133155051D01*
X52481588Y-133251557D01*
X52683757Y-133317246D01*
X52683758Y-133317246D01*
X52683761Y-133317247D01*
X52893710Y-133350500D01*
X52893713Y-133350500D01*
X53106290Y-133350500D01*
X53316238Y-133317247D01*
X53316239Y-133317246D01*
X53316243Y-133317246D01*
X53518412Y-133251557D01*
X53707816Y-133155051D01*
X53879792Y-133030104D01*
X54030104Y-132879792D01*
X54155051Y-132707816D01*
X54251557Y-132518412D01*
X54317246Y-132316243D01*
X54350500Y-132106287D01*
X54350500Y-131893713D01*
X54350500Y-131893709D01*
X54317247Y-131683761D01*
X54317246Y-131683757D01*
X54251557Y-131481588D01*
X54155051Y-131292184D01*
X54155049Y-131292180D01*
X54030108Y-131120213D01*
X54030106Y-131120211D01*
X54030104Y-131120208D01*
X53879792Y-130969896D01*
X53879788Y-130969893D01*
X53879786Y-130969891D01*
X53707819Y-130844950D01*
X53707815Y-130844948D01*
X53518412Y-130748443D01*
X53316238Y-130682752D01*
X53106290Y-130649500D01*
X53106287Y-130649500D01*
X52893713Y-130649500D01*
X52893710Y-130649500D01*
X52683761Y-130682752D01*
X52481587Y-130748443D01*
X52292184Y-130844948D01*
X52292180Y-130844950D01*
X52120213Y-130969891D01*
X51969891Y-131120213D01*
X51844950Y-131292180D01*
X51844948Y-131292184D01*
X51748443Y-131481587D01*
X51682752Y-131683761D01*
X51649500Y-131893709D01*
X50500500Y-131893709D01*
X50500500Y-122401456D01*
X88919500Y-122401456D01*
X88919500Y-122598543D01*
X88957949Y-122791834D01*
X88957949Y-122791836D01*
X89033367Y-122973913D01*
X89033368Y-122973914D01*
X89142861Y-123137782D01*
X89282218Y-123277139D01*
X89446086Y-123386632D01*
X89628165Y-123462051D01*
X89821459Y-123500500D01*
X89821460Y-123500500D01*
X90018540Y-123500500D01*
X90018541Y-123500500D01*
X90211835Y-123462051D01*
X90393914Y-123386632D01*
X90557782Y-123277139D01*
X90697139Y-123137782D01*
X90806632Y-122973914D01*
X90882051Y-122791835D01*
X90920500Y-122598541D01*
X90920500Y-122401459D01*
X90920499Y-122401456D01*
X99079500Y-122401456D01*
X99079500Y-122598543D01*
X99117949Y-122791834D01*
X99117949Y-122791836D01*
X99193367Y-122973913D01*
X99193368Y-122973914D01*
X99302861Y-123137782D01*
X99442218Y-123277139D01*
X99606086Y-123386632D01*
X99788165Y-123462051D01*
X99981459Y-123500500D01*
X99981460Y-123500500D01*
X100178540Y-123500500D01*
X100178541Y-123500500D01*
X100371835Y-123462051D01*
X100553914Y-123386632D01*
X100717782Y-123277139D01*
X100857139Y-123137782D01*
X100966632Y-122973914D01*
X101042051Y-122791835D01*
X101080500Y-122598541D01*
X101080500Y-122401459D01*
X101042051Y-122208165D01*
X100966632Y-122026086D01*
X100879528Y-121895725D01*
X102749500Y-121895725D01*
X102749500Y-123104274D01*
X102752353Y-123134694D01*
X102752355Y-123134703D01*
X102797207Y-123262883D01*
X102877845Y-123372144D01*
X102877847Y-123372146D01*
X102877850Y-123372150D01*
X102877853Y-123372152D01*
X102877855Y-123372154D01*
X102987116Y-123452792D01*
X102987117Y-123452792D01*
X102987118Y-123452793D01*
X103115301Y-123497646D01*
X103145725Y-123500499D01*
X103145727Y-123500500D01*
X103145734Y-123500500D01*
X104354273Y-123500500D01*
X104354273Y-123500499D01*
X104384699Y-123497646D01*
X104512882Y-123452793D01*
X104622150Y-123372150D01*
X104702793Y-123262882D01*
X104747646Y-123134699D01*
X104750499Y-123104273D01*
X104750500Y-123104273D01*
X104750500Y-122401456D01*
X105249500Y-122401456D01*
X105249500Y-122598543D01*
X105287949Y-122791834D01*
X105287949Y-122791836D01*
X105363367Y-122973913D01*
X105363368Y-122973914D01*
X105472861Y-123137782D01*
X105612218Y-123277139D01*
X105776086Y-123386632D01*
X105958165Y-123462051D01*
X106151459Y-123500500D01*
X106151460Y-123500500D01*
X106348540Y-123500500D01*
X106348541Y-123500500D01*
X106541835Y-123462051D01*
X106723914Y-123386632D01*
X106887782Y-123277139D01*
X107027139Y-123137782D01*
X107136632Y-122973914D01*
X107165421Y-122904409D01*
X107183148Y-122861615D01*
X107222884Y-122815089D01*
X107274612Y-122800500D01*
X112254521Y-122800500D01*
X112312712Y-122819407D01*
X112324525Y-122829496D01*
X113983004Y-124487975D01*
X114010781Y-124542492D01*
X114004465Y-124595864D01*
X113957948Y-124708168D01*
X113919500Y-124901456D01*
X113919500Y-125098543D01*
X113957949Y-125291834D01*
X113957949Y-125291836D01*
X114033367Y-125473913D01*
X114033368Y-125473914D01*
X114142861Y-125637782D01*
X114282218Y-125777139D01*
X114446086Y-125886632D01*
X114628165Y-125962051D01*
X114821459Y-126000500D01*
X114821460Y-126000500D01*
X115018540Y-126000500D01*
X115018541Y-126000500D01*
X115211835Y-125962051D01*
X115393914Y-125886632D01*
X115557782Y-125777139D01*
X115697139Y-125637782D01*
X115806632Y-125473914D01*
X115882051Y-125291835D01*
X115920500Y-125098541D01*
X115920500Y-124901459D01*
X115920499Y-124901456D01*
X124079500Y-124901456D01*
X124079500Y-125098543D01*
X124117949Y-125291834D01*
X124117949Y-125291836D01*
X124193367Y-125473913D01*
X124193368Y-125473914D01*
X124302861Y-125637782D01*
X124442218Y-125777139D01*
X124606086Y-125886632D01*
X124788165Y-125962051D01*
X124981459Y-126000500D01*
X124981460Y-126000500D01*
X125178540Y-126000500D01*
X125178541Y-126000500D01*
X125371835Y-125962051D01*
X125553914Y-125886632D01*
X125717782Y-125777139D01*
X125857139Y-125637782D01*
X125966632Y-125473914D01*
X126042051Y-125291835D01*
X126080500Y-125098541D01*
X126080500Y-124901459D01*
X126042051Y-124708165D01*
X125995533Y-124595862D01*
X125990733Y-124534868D01*
X126016992Y-124487977D01*
X132675475Y-117829496D01*
X132729992Y-117801719D01*
X132745479Y-117800500D01*
X136395388Y-117800500D01*
X136453579Y-117819407D01*
X136486852Y-117861615D01*
X136491461Y-117872741D01*
X136533368Y-117973914D01*
X136642861Y-118137782D01*
X136782218Y-118277139D01*
X136946086Y-118386632D01*
X137128165Y-118462051D01*
X137321459Y-118500500D01*
X137321460Y-118500500D01*
X137518540Y-118500500D01*
X137518541Y-118500500D01*
X137711835Y-118462051D01*
X137893914Y-118386632D01*
X138057782Y-118277139D01*
X138197139Y-118137782D01*
X138306632Y-117973914D01*
X138382051Y-117791835D01*
X138420500Y-117598541D01*
X138420500Y-117401459D01*
X138419530Y-117396581D01*
X146530000Y-117396581D01*
X146530000Y-117603418D01*
X146570349Y-117806272D01*
X146649501Y-117997361D01*
X146738022Y-118129843D01*
X147209532Y-117658332D01*
X147259920Y-117745606D01*
X147334394Y-117820080D01*
X147421665Y-117870465D01*
X146950154Y-118341977D01*
X147082625Y-118430491D01*
X147082639Y-118430498D01*
X147273727Y-118509650D01*
X147476581Y-118549999D01*
X147476586Y-118550000D01*
X147683414Y-118550000D01*
X147683418Y-118549999D01*
X147886272Y-118509650D01*
X148077360Y-118430498D01*
X148209843Y-118341976D01*
X147738333Y-117870466D01*
X147825606Y-117820080D01*
X147900080Y-117745606D01*
X147950466Y-117658333D01*
X148421976Y-118129843D01*
X148510498Y-117997360D01*
X148589650Y-117806272D01*
X148629999Y-117603418D01*
X148630000Y-117603413D01*
X148630000Y-117396586D01*
X148629999Y-117396581D01*
X148589650Y-117193727D01*
X148570267Y-117146933D01*
X148510498Y-117002639D01*
X148510491Y-117002625D01*
X148421976Y-116870154D01*
X147950465Y-117341665D01*
X147900080Y-117254394D01*
X147825606Y-117179920D01*
X147738332Y-117129532D01*
X148209843Y-116658022D01*
X148077361Y-116569501D01*
X147886272Y-116490349D01*
X147683418Y-116450000D01*
X147476581Y-116450000D01*
X147273727Y-116490349D01*
X147082638Y-116569501D01*
X146950155Y-116658022D01*
X147421666Y-117129533D01*
X147334394Y-117179920D01*
X147259920Y-117254394D01*
X147209533Y-117341666D01*
X146738022Y-116870155D01*
X146649501Y-117002638D01*
X146570349Y-117193727D01*
X146530000Y-117396581D01*
X138419530Y-117396581D01*
X138382051Y-117208165D01*
X138335533Y-117095862D01*
X138330733Y-117034868D01*
X138356992Y-116987977D01*
X139161546Y-116183424D01*
X153900000Y-116183424D01*
X153900000Y-116356575D01*
X153927084Y-116527579D01*
X153980588Y-116692248D01*
X154059195Y-116846524D01*
X154059197Y-116846528D01*
X154123219Y-116934646D01*
X154556328Y-116501536D01*
X154599901Y-116577007D01*
X154692993Y-116670099D01*
X154768460Y-116713670D01*
X154335352Y-117146778D01*
X154423477Y-117210805D01*
X154577751Y-117289411D01*
X154742420Y-117342915D01*
X154913425Y-117370000D01*
X155086575Y-117370000D01*
X155257579Y-117342915D01*
X155422248Y-117289411D01*
X155576524Y-117210804D01*
X155576530Y-117210800D01*
X155664646Y-117146779D01*
X155664646Y-117146778D01*
X155231538Y-116713670D01*
X155307007Y-116670099D01*
X155400099Y-116577007D01*
X155443670Y-116501538D01*
X155876778Y-116934646D01*
X155876779Y-116934646D01*
X155940800Y-116846530D01*
X155940804Y-116846524D01*
X156019411Y-116692248D01*
X156072915Y-116527579D01*
X156100000Y-116356575D01*
X156100000Y-116183424D01*
X156072915Y-116012420D01*
X156019411Y-115847751D01*
X155940805Y-115693477D01*
X155876778Y-115605352D01*
X155443670Y-116038460D01*
X155400099Y-115962993D01*
X155307007Y-115869901D01*
X155231536Y-115826328D01*
X155664646Y-115393219D01*
X155576528Y-115329197D01*
X155576524Y-115329195D01*
X155422248Y-115250588D01*
X155257579Y-115197084D01*
X155086575Y-115170000D01*
X154913425Y-115170000D01*
X154742420Y-115197084D01*
X154577751Y-115250588D01*
X154423476Y-115329195D01*
X154335352Y-115393219D01*
X154768461Y-115826328D01*
X154692993Y-115869901D01*
X154599901Y-115962993D01*
X154556328Y-116038461D01*
X154123219Y-115605352D01*
X154059195Y-115693476D01*
X153980588Y-115847751D01*
X153927084Y-116012420D01*
X153900000Y-116183424D01*
X139161546Y-116183424D01*
X141285475Y-114059496D01*
X141339992Y-114031719D01*
X141355479Y-114030500D01*
X153850500Y-114030500D01*
X153908691Y-114049407D01*
X153944655Y-114098907D01*
X153949500Y-114129500D01*
X153949500Y-114599746D01*
X153949501Y-114599758D01*
X153954972Y-114627259D01*
X153961133Y-114658231D01*
X154005448Y-114724552D01*
X154071769Y-114768867D01*
X154116231Y-114777711D01*
X154130241Y-114780498D01*
X154130246Y-114780498D01*
X154130252Y-114780500D01*
X154130253Y-114780500D01*
X155869747Y-114780500D01*
X155869748Y-114780500D01*
X155928231Y-114768867D01*
X155994552Y-114724552D01*
X156038867Y-114658231D01*
X156050500Y-114599748D01*
X156050500Y-112860252D01*
X156038867Y-112801769D01*
X155994552Y-112735448D01*
X155959658Y-112712132D01*
X155928233Y-112691134D01*
X155928231Y-112691133D01*
X155928228Y-112691132D01*
X155928227Y-112691132D01*
X155869758Y-112679501D01*
X155869748Y-112679500D01*
X154130252Y-112679500D01*
X154130251Y-112679500D01*
X154130241Y-112679501D01*
X154071772Y-112691132D01*
X154071766Y-112691134D01*
X154005451Y-112735445D01*
X154005445Y-112735451D01*
X153961134Y-112801766D01*
X153961132Y-112801772D01*
X153949501Y-112860241D01*
X153949500Y-112860253D01*
X153949500Y-113330500D01*
X153930593Y-113388691D01*
X153881093Y-113424655D01*
X153850500Y-113429500D01*
X141150435Y-113429500D01*
X141074013Y-113449978D01*
X141074011Y-113449978D01*
X141074011Y-113449979D01*
X141053102Y-113462051D01*
X141005489Y-113489540D01*
X137932023Y-116563004D01*
X137877506Y-116590781D01*
X137824134Y-116584464D01*
X137711835Y-116537949D01*
X137518543Y-116499500D01*
X137518541Y-116499500D01*
X137321459Y-116499500D01*
X137321456Y-116499500D01*
X137128165Y-116537949D01*
X137128163Y-116537949D01*
X136946086Y-116613367D01*
X136782218Y-116722861D01*
X136782214Y-116722864D01*
X136642864Y-116862214D01*
X136642861Y-116862218D01*
X136533367Y-117026087D01*
X136486852Y-117138385D01*
X136447116Y-117184911D01*
X136395388Y-117199500D01*
X132619562Y-117199500D01*
X132540438Y-117199500D01*
X132498247Y-117210805D01*
X132464007Y-117219979D01*
X132395493Y-117259536D01*
X132395492Y-117259537D01*
X125592023Y-124063004D01*
X125537506Y-124090781D01*
X125484134Y-124084464D01*
X125371835Y-124037949D01*
X125178543Y-123999500D01*
X125178541Y-123999500D01*
X124981459Y-123999500D01*
X124981456Y-123999500D01*
X124788165Y-124037949D01*
X124788163Y-124037949D01*
X124606086Y-124113367D01*
X124442218Y-124222861D01*
X124442214Y-124222864D01*
X124302864Y-124362214D01*
X124302861Y-124362218D01*
X124193367Y-124526086D01*
X124117949Y-124708163D01*
X124117949Y-124708165D01*
X124079500Y-124901456D01*
X115920499Y-124901456D01*
X115882051Y-124708165D01*
X115806632Y-124526086D01*
X115697139Y-124362218D01*
X115557782Y-124222861D01*
X115393914Y-124113368D01*
X115393915Y-124113368D01*
X115393913Y-124113367D01*
X115211835Y-124037949D01*
X115018543Y-123999500D01*
X115018541Y-123999500D01*
X114821459Y-123999500D01*
X114821456Y-123999500D01*
X114628168Y-124037948D01*
X114628166Y-124037948D01*
X114628165Y-124037949D01*
X114567676Y-124063004D01*
X114515864Y-124084465D01*
X114454867Y-124089264D01*
X114407975Y-124063004D01*
X113607853Y-123262882D01*
X112604511Y-122259540D01*
X112604508Y-122259538D01*
X112535992Y-122219980D01*
X112535988Y-122219978D01*
X112459564Y-122199500D01*
X112459562Y-122199500D01*
X107274612Y-122199500D01*
X107216421Y-122180593D01*
X107183148Y-122138385D01*
X107136632Y-122026087D01*
X107136632Y-122026086D01*
X107027139Y-121862218D01*
X106887782Y-121722861D01*
X106778288Y-121649699D01*
X106723913Y-121613367D01*
X106541835Y-121537949D01*
X106348543Y-121499500D01*
X106348541Y-121499500D01*
X106151459Y-121499500D01*
X106151456Y-121499500D01*
X105958165Y-121537949D01*
X105958163Y-121537949D01*
X105776086Y-121613367D01*
X105612218Y-121722861D01*
X105612214Y-121722864D01*
X105472864Y-121862214D01*
X105472861Y-121862218D01*
X105363367Y-122026086D01*
X105287949Y-122208163D01*
X105287949Y-122208165D01*
X105249500Y-122401456D01*
X104750500Y-122401456D01*
X104750500Y-121895727D01*
X104750499Y-121895725D01*
X104747646Y-121865305D01*
X104747646Y-121865301D01*
X104702793Y-121737118D01*
X104692273Y-121722864D01*
X104622154Y-121627855D01*
X104622152Y-121627853D01*
X104622150Y-121627850D01*
X104622146Y-121627847D01*
X104622144Y-121627845D01*
X104512883Y-121547207D01*
X104384703Y-121502355D01*
X104384694Y-121502353D01*
X104354274Y-121499500D01*
X104354266Y-121499500D01*
X103145734Y-121499500D01*
X103145725Y-121499500D01*
X103115305Y-121502353D01*
X103115296Y-121502355D01*
X102987116Y-121547207D01*
X102877855Y-121627845D01*
X102877845Y-121627855D01*
X102797207Y-121737116D01*
X102752355Y-121865296D01*
X102752353Y-121865305D01*
X102749500Y-121895725D01*
X100879528Y-121895725D01*
X100857139Y-121862218D01*
X100717782Y-121722861D01*
X100608288Y-121649699D01*
X100553913Y-121613367D01*
X100371835Y-121537949D01*
X100178543Y-121499500D01*
X100178541Y-121499500D01*
X99981459Y-121499500D01*
X99981456Y-121499500D01*
X99788165Y-121537949D01*
X99788163Y-121537949D01*
X99606086Y-121613367D01*
X99442218Y-121722861D01*
X99442214Y-121722864D01*
X99302864Y-121862214D01*
X99302861Y-121862218D01*
X99193367Y-122026086D01*
X99117949Y-122208163D01*
X99117949Y-122208165D01*
X99079500Y-122401456D01*
X90920499Y-122401456D01*
X90882051Y-122208165D01*
X90806632Y-122026086D01*
X90697139Y-121862218D01*
X90557782Y-121722861D01*
X90448288Y-121649699D01*
X90393913Y-121613367D01*
X90211835Y-121537949D01*
X90018543Y-121499500D01*
X90018541Y-121499500D01*
X89821459Y-121499500D01*
X89821456Y-121499500D01*
X89628165Y-121537949D01*
X89628163Y-121537949D01*
X89446086Y-121613367D01*
X89282218Y-121722861D01*
X89282214Y-121722864D01*
X89142864Y-121862214D01*
X89142861Y-121862218D01*
X89033367Y-122026086D01*
X88957949Y-122208163D01*
X88957949Y-122208165D01*
X88919500Y-122401456D01*
X50500500Y-122401456D01*
X50500500Y-114395725D01*
X82749500Y-114395725D01*
X82749500Y-115604274D01*
X82752353Y-115634694D01*
X82752355Y-115634703D01*
X82797207Y-115762883D01*
X82877845Y-115872144D01*
X82877847Y-115872146D01*
X82877850Y-115872150D01*
X82877853Y-115872152D01*
X82877855Y-115872154D01*
X82987116Y-115952792D01*
X82987117Y-115952792D01*
X82987118Y-115952793D01*
X83115301Y-115997646D01*
X83145725Y-116000499D01*
X83145727Y-116000500D01*
X83145734Y-116000500D01*
X84354273Y-116000500D01*
X84354273Y-116000499D01*
X84384699Y-115997646D01*
X84512882Y-115952793D01*
X84622150Y-115872150D01*
X84702793Y-115762882D01*
X84747646Y-115634699D01*
X84750499Y-115604273D01*
X84750500Y-115604273D01*
X84750500Y-114896581D01*
X85200000Y-114896581D01*
X85200000Y-115103418D01*
X85240349Y-115306272D01*
X85319501Y-115497361D01*
X85408022Y-115629843D01*
X85879532Y-115158332D01*
X85929920Y-115245606D01*
X86004394Y-115320080D01*
X86091665Y-115370465D01*
X85620154Y-115841977D01*
X85752625Y-115930491D01*
X85752639Y-115930498D01*
X85943727Y-116009650D01*
X86146581Y-116049999D01*
X86146586Y-116050000D01*
X86353414Y-116050000D01*
X86353418Y-116049999D01*
X86556272Y-116009650D01*
X86747360Y-115930498D01*
X86879843Y-115841976D01*
X86408333Y-115370466D01*
X86495606Y-115320080D01*
X86570080Y-115245606D01*
X86620466Y-115158333D01*
X87091976Y-115629843D01*
X87180498Y-115497360D01*
X87259650Y-115306272D01*
X87299999Y-115103418D01*
X87300000Y-115103413D01*
X87300000Y-114896586D01*
X87299999Y-114896581D01*
X87259650Y-114693727D01*
X87180498Y-114502639D01*
X87180491Y-114502625D01*
X87091976Y-114370154D01*
X86620465Y-114841665D01*
X86570080Y-114754394D01*
X86495606Y-114679920D01*
X86408332Y-114629532D01*
X86879843Y-114158022D01*
X86747361Y-114069501D01*
X86556272Y-113990349D01*
X86353418Y-113950000D01*
X86146581Y-113950000D01*
X85943727Y-113990349D01*
X85752638Y-114069501D01*
X85620155Y-114158022D01*
X86091666Y-114629533D01*
X86004394Y-114679920D01*
X85929920Y-114754394D01*
X85879533Y-114841666D01*
X85408022Y-114370155D01*
X85319501Y-114502638D01*
X85240349Y-114693727D01*
X85200000Y-114896581D01*
X84750500Y-114896581D01*
X84750500Y-114465479D01*
X84769407Y-114407288D01*
X84779496Y-114395475D01*
X86345475Y-112829496D01*
X86399992Y-112801719D01*
X86415479Y-112800500D01*
X88895388Y-112800500D01*
X88953579Y-112819407D01*
X88986852Y-112861615D01*
X89029779Y-112965249D01*
X89033368Y-112973914D01*
X89142861Y-113137782D01*
X89282218Y-113277139D01*
X89446086Y-113386632D01*
X89628165Y-113462051D01*
X89821459Y-113500500D01*
X89821460Y-113500500D01*
X90018540Y-113500500D01*
X90018541Y-113500500D01*
X90211835Y-113462051D01*
X90393914Y-113386632D01*
X90557782Y-113277139D01*
X90697139Y-113137782D01*
X90806632Y-112973914D01*
X90882051Y-112791835D01*
X90920500Y-112598541D01*
X90920500Y-112401459D01*
X90920499Y-112401456D01*
X90919529Y-112396581D01*
X99030000Y-112396581D01*
X99030000Y-112603418D01*
X99070349Y-112806272D01*
X99149501Y-112997361D01*
X99238022Y-113129843D01*
X99709532Y-112658332D01*
X99759920Y-112745606D01*
X99834394Y-112820080D01*
X99921665Y-112870465D01*
X99450154Y-113341977D01*
X99582625Y-113430491D01*
X99582639Y-113430498D01*
X99773727Y-113509650D01*
X99976581Y-113549999D01*
X99976586Y-113550000D01*
X100183414Y-113550000D01*
X100183418Y-113549999D01*
X100386272Y-113509650D01*
X100577360Y-113430498D01*
X100709843Y-113341976D01*
X100238333Y-112870466D01*
X100325606Y-112820080D01*
X100400080Y-112745606D01*
X100450466Y-112658333D01*
X100921976Y-113129843D01*
X101010498Y-112997360D01*
X101089650Y-112806272D01*
X101129999Y-112603418D01*
X101130000Y-112603413D01*
X101130000Y-112401456D01*
X101419500Y-112401456D01*
X101419500Y-112401458D01*
X101419500Y-112401459D01*
X101419500Y-112598541D01*
X101457948Y-112791832D01*
X101457949Y-112791834D01*
X101457949Y-112791836D01*
X101533367Y-112973913D01*
X101569699Y-113028288D01*
X101642861Y-113137782D01*
X101782218Y-113277139D01*
X101946086Y-113386632D01*
X102128165Y-113462051D01*
X102321459Y-113500500D01*
X102321460Y-113500500D01*
X102518540Y-113500500D01*
X102518541Y-113500500D01*
X102711835Y-113462051D01*
X102824137Y-113415533D01*
X102885129Y-113410733D01*
X102932023Y-113436994D01*
X103287640Y-113792611D01*
X103287639Y-113792611D01*
X103343589Y-113848560D01*
X103412107Y-113888119D01*
X103412111Y-113888121D01*
X103488535Y-113908599D01*
X103488537Y-113908600D01*
X103488538Y-113908600D01*
X118931463Y-113908600D01*
X118931463Y-113908599D01*
X119007889Y-113888121D01*
X119076411Y-113848560D01*
X119104385Y-113820585D01*
X119132361Y-113792611D01*
X119435430Y-113489540D01*
X119526244Y-113398725D01*
X119580759Y-113370949D01*
X119634130Y-113377265D01*
X119722749Y-113413973D01*
X119906384Y-113450500D01*
X119906385Y-113450500D01*
X120093615Y-113450500D01*
X120093616Y-113450500D01*
X120277251Y-113413973D01*
X120450231Y-113342322D01*
X120450234Y-113342319D01*
X120450238Y-113342318D01*
X120502196Y-113307600D01*
X120605908Y-113238302D01*
X120738302Y-113105908D01*
X120826498Y-112973914D01*
X120842318Y-112950238D01*
X120842319Y-112950234D01*
X120842322Y-112950231D01*
X120913973Y-112777251D01*
X120950500Y-112593616D01*
X120950500Y-112406384D01*
X120950499Y-112406381D01*
X121589500Y-112406381D01*
X121589500Y-112593618D01*
X121626026Y-112777249D01*
X121697677Y-112950229D01*
X121697681Y-112950238D01*
X121772065Y-113061559D01*
X121801698Y-113105908D01*
X121934092Y-113238302D01*
X121976729Y-113266791D01*
X122089761Y-113342318D01*
X122089767Y-113342320D01*
X122089769Y-113342322D01*
X122262749Y-113413973D01*
X122446384Y-113450500D01*
X122446385Y-113450500D01*
X122633615Y-113450500D01*
X122633616Y-113450500D01*
X122817251Y-113413973D01*
X122990231Y-113342322D01*
X122990234Y-113342319D01*
X122990238Y-113342318D01*
X123042196Y-113307600D01*
X123145908Y-113238302D01*
X123278302Y-113105908D01*
X123366498Y-112973914D01*
X123382318Y-112950238D01*
X123382319Y-112950234D01*
X123382322Y-112950231D01*
X123453973Y-112777251D01*
X123490500Y-112593616D01*
X123490500Y-112406384D01*
X123490499Y-112406381D01*
X123489519Y-112401456D01*
X126419500Y-112401456D01*
X126419500Y-112401458D01*
X126419500Y-112401459D01*
X126419500Y-112598541D01*
X126457948Y-112791832D01*
X126457949Y-112791834D01*
X126457949Y-112791836D01*
X126533367Y-112973913D01*
X126569699Y-113028288D01*
X126642861Y-113137782D01*
X126782218Y-113277139D01*
X126946086Y-113386632D01*
X127128165Y-113462051D01*
X127321459Y-113500500D01*
X127321460Y-113500500D01*
X127518540Y-113500500D01*
X127518541Y-113500500D01*
X127711835Y-113462051D01*
X127893914Y-113386632D01*
X128057782Y-113277139D01*
X128197139Y-113137782D01*
X128306632Y-112973914D01*
X128382051Y-112791835D01*
X128420500Y-112598541D01*
X128420500Y-112401459D01*
X128419530Y-112396581D01*
X136530000Y-112396581D01*
X136530000Y-112603418D01*
X136570349Y-112806272D01*
X136649501Y-112997361D01*
X136738022Y-113129843D01*
X137209532Y-112658332D01*
X137259920Y-112745606D01*
X137334394Y-112820080D01*
X137421665Y-112870465D01*
X136950154Y-113341977D01*
X137082625Y-113430491D01*
X137082639Y-113430498D01*
X137273727Y-113509650D01*
X137476581Y-113549999D01*
X137476586Y-113550000D01*
X137683414Y-113550000D01*
X137683418Y-113549999D01*
X137886272Y-113509650D01*
X138077360Y-113430498D01*
X138209843Y-113341976D01*
X137738333Y-112870466D01*
X137825606Y-112820080D01*
X137900080Y-112745606D01*
X137950466Y-112658333D01*
X138421976Y-113129843D01*
X138510498Y-112997360D01*
X138589650Y-112806272D01*
X138629999Y-112603418D01*
X138630000Y-112603413D01*
X138630000Y-112396586D01*
X138629999Y-112396581D01*
X138589650Y-112193727D01*
X138510498Y-112002639D01*
X138510491Y-112002625D01*
X138421976Y-111870154D01*
X137950465Y-112341665D01*
X137900080Y-112254394D01*
X137825606Y-112179920D01*
X137738332Y-112129532D01*
X138209843Y-111658022D01*
X138077361Y-111569501D01*
X137886272Y-111490349D01*
X137683418Y-111450000D01*
X137476581Y-111450000D01*
X137273727Y-111490349D01*
X137082638Y-111569501D01*
X136950155Y-111658022D01*
X137421666Y-112129533D01*
X137334394Y-112179920D01*
X137259920Y-112254394D01*
X137209533Y-112341666D01*
X136738022Y-111870155D01*
X136649501Y-112002638D01*
X136570349Y-112193727D01*
X136530000Y-112396581D01*
X128419530Y-112396581D01*
X128398537Y-112291048D01*
X128402216Y-112260961D01*
X128405802Y-112230664D01*
X128405946Y-112230456D01*
X128405964Y-112230316D01*
X128406283Y-112229972D01*
X128425702Y-112202110D01*
X132617818Y-108009996D01*
X132672335Y-107982219D01*
X132687822Y-107981000D01*
X150205390Y-107981000D01*
X150205392Y-107981000D01*
X150332686Y-107946892D01*
X150332688Y-107946890D01*
X150332690Y-107946890D01*
X150446809Y-107881003D01*
X150446809Y-107881002D01*
X150446814Y-107881000D01*
X154422423Y-103905389D01*
X154476938Y-103877614D01*
X154537367Y-103887184D01*
X154544008Y-103890568D01*
X154768632Y-103963553D01*
X154768633Y-103963553D01*
X154768636Y-103963554D01*
X155001905Y-104000500D01*
X155001908Y-104000500D01*
X155238095Y-104000500D01*
X155471363Y-103963554D01*
X155471364Y-103963553D01*
X155471368Y-103963553D01*
X155695992Y-103890568D01*
X155906433Y-103783343D01*
X156097510Y-103644517D01*
X156264517Y-103477510D01*
X156403343Y-103286433D01*
X156510568Y-103075992D01*
X156583553Y-102851368D01*
X156585146Y-102841309D01*
X156620500Y-102618095D01*
X156620500Y-102381904D01*
X156583554Y-102148636D01*
X156582951Y-102146779D01*
X156510568Y-101924008D01*
X156403343Y-101713567D01*
X156264517Y-101522490D01*
X156097510Y-101355483D01*
X155906433Y-101216657D01*
X155906432Y-101216656D01*
X155906430Y-101216655D01*
X155695992Y-101109432D01*
X155471363Y-101036445D01*
X155238095Y-100999500D01*
X155238092Y-100999500D01*
X155001908Y-100999500D01*
X155001905Y-100999500D01*
X154768636Y-101036445D01*
X154544007Y-101109432D01*
X154333569Y-101216655D01*
X154142491Y-101355482D01*
X153975482Y-101522491D01*
X153836655Y-101713569D01*
X153729432Y-101924007D01*
X153656445Y-102148636D01*
X153619500Y-102381904D01*
X153619500Y-102618095D01*
X153656445Y-102851363D01*
X153729433Y-103075996D01*
X153729435Y-103076000D01*
X153732813Y-103082630D01*
X153742384Y-103143062D01*
X153714607Y-103197577D01*
X149961182Y-106951004D01*
X149906665Y-106978781D01*
X149891178Y-106980000D01*
X132505392Y-106980000D01*
X132373608Y-106980000D01*
X132295700Y-107000875D01*
X132246309Y-107014109D01*
X132132190Y-107079996D01*
X132132189Y-107079997D01*
X127717891Y-111494293D01*
X127663374Y-111522070D01*
X127628573Y-111521387D01*
X127518543Y-111499500D01*
X127518541Y-111499500D01*
X127321459Y-111499500D01*
X127321456Y-111499500D01*
X127128165Y-111537949D01*
X127128163Y-111537949D01*
X126946086Y-111613367D01*
X126782218Y-111722861D01*
X126782214Y-111722864D01*
X126642864Y-111862214D01*
X126642861Y-111862218D01*
X126533367Y-112026086D01*
X126457949Y-112208163D01*
X126457949Y-112208165D01*
X126419500Y-112401456D01*
X123489519Y-112401456D01*
X123461291Y-112259538D01*
X123453973Y-112222749D01*
X123382322Y-112049769D01*
X123382320Y-112049767D01*
X123382318Y-112049761D01*
X123322649Y-111960463D01*
X123278302Y-111894092D01*
X123145908Y-111761698D01*
X123087789Y-111722864D01*
X122990238Y-111657681D01*
X122990229Y-111657677D01*
X122817249Y-111586026D01*
X122633618Y-111549500D01*
X122633616Y-111549500D01*
X122446384Y-111549500D01*
X122446381Y-111549500D01*
X122262750Y-111586026D01*
X122089770Y-111657677D01*
X122089761Y-111657681D01*
X121934092Y-111761698D01*
X121934088Y-111761701D01*
X121801701Y-111894088D01*
X121801698Y-111894092D01*
X121697681Y-112049761D01*
X121697677Y-112049770D01*
X121626026Y-112222750D01*
X121589500Y-112406381D01*
X120950499Y-112406381D01*
X120913973Y-112222749D01*
X120842322Y-112049769D01*
X120842320Y-112049767D01*
X120842318Y-112049761D01*
X120782649Y-111960463D01*
X120738302Y-111894092D01*
X120605908Y-111761698D01*
X120547789Y-111722864D01*
X120450238Y-111657681D01*
X120450229Y-111657677D01*
X120277249Y-111586026D01*
X120093618Y-111549500D01*
X120093616Y-111549500D01*
X119906384Y-111549500D01*
X119906381Y-111549500D01*
X119722750Y-111586026D01*
X119549770Y-111657677D01*
X119549761Y-111657681D01*
X119394092Y-111761698D01*
X119394088Y-111761701D01*
X119261701Y-111894088D01*
X119261698Y-111894092D01*
X119157681Y-112049761D01*
X119157677Y-112049770D01*
X119086026Y-112222750D01*
X119049500Y-112406381D01*
X119049500Y-112593618D01*
X119061589Y-112654394D01*
X119079732Y-112745606D01*
X119086027Y-112777250D01*
X119086027Y-112777252D01*
X119122732Y-112865867D01*
X119127532Y-112926864D01*
X119101272Y-112973755D01*
X118796426Y-113278603D01*
X118789309Y-113282229D01*
X118784613Y-113288693D01*
X118762562Y-113295857D01*
X118741909Y-113306381D01*
X118726422Y-113307600D01*
X118559000Y-113307600D01*
X118500809Y-113288693D01*
X118464845Y-113239193D01*
X118460000Y-113208600D01*
X118460000Y-112650001D01*
X118459999Y-112650000D01*
X117833918Y-112650000D01*
X117860000Y-112552661D01*
X117860000Y-112447339D01*
X117833918Y-112350000D01*
X118459999Y-112350000D01*
X118460000Y-112349999D01*
X118460000Y-111725377D01*
X118459999Y-111725375D01*
X118445493Y-111652453D01*
X118445492Y-111652451D01*
X118390241Y-111569762D01*
X118390237Y-111569758D01*
X118307548Y-111514507D01*
X118307546Y-111514506D01*
X118234624Y-111500000D01*
X117610001Y-111500000D01*
X117610000Y-111500001D01*
X117610000Y-112126081D01*
X117512661Y-112100000D01*
X117407339Y-112100000D01*
X117310000Y-112126081D01*
X117310000Y-111500001D01*
X117309999Y-111500000D01*
X116685375Y-111500000D01*
X116612453Y-111514506D01*
X116612451Y-111514507D01*
X116529762Y-111569758D01*
X116529758Y-111569762D01*
X116474507Y-111652451D01*
X116474506Y-111652453D01*
X116460000Y-111725375D01*
X116460000Y-112349999D01*
X116460001Y-112350000D01*
X117086082Y-112350000D01*
X117060000Y-112447339D01*
X117060000Y-112552661D01*
X117086082Y-112650000D01*
X116460001Y-112650000D01*
X116460000Y-112650001D01*
X116460000Y-113208600D01*
X116441093Y-113266791D01*
X116391593Y-113302755D01*
X116361000Y-113307600D01*
X113488420Y-113307600D01*
X113430229Y-113288693D01*
X113394265Y-113239193D01*
X113394265Y-113178007D01*
X113406105Y-113153598D01*
X113510494Y-112997369D01*
X113510498Y-112997360D01*
X113589650Y-112806272D01*
X113629999Y-112603418D01*
X113630000Y-112603413D01*
X113630000Y-112396586D01*
X113629999Y-112396581D01*
X113589650Y-112193727D01*
X113510498Y-112002639D01*
X113510491Y-112002625D01*
X113421976Y-111870154D01*
X112950465Y-112341665D01*
X112900080Y-112254394D01*
X112825606Y-112179920D01*
X112738332Y-112129532D01*
X113209843Y-111658022D01*
X113077361Y-111569501D01*
X112886272Y-111490349D01*
X112683418Y-111450000D01*
X112476581Y-111450000D01*
X112273727Y-111490349D01*
X112082638Y-111569501D01*
X111950155Y-111658022D01*
X112421666Y-112129533D01*
X112334394Y-112179920D01*
X112259920Y-112254394D01*
X112209533Y-112341666D01*
X111738022Y-111870155D01*
X111649501Y-112002638D01*
X111570349Y-112193727D01*
X111530000Y-112396581D01*
X111530000Y-112603418D01*
X111570349Y-112806272D01*
X111649501Y-112997360D01*
X111649505Y-112997369D01*
X111753895Y-113153598D01*
X111770504Y-113212487D01*
X111749326Y-113269890D01*
X111698453Y-113303883D01*
X111671580Y-113307600D01*
X103693579Y-113307600D01*
X103635388Y-113288693D01*
X103623575Y-113278604D01*
X103356994Y-113012023D01*
X103329217Y-112957506D01*
X103335533Y-112904137D01*
X103382051Y-112791835D01*
X103420500Y-112598541D01*
X103420500Y-112401459D01*
X103382051Y-112208165D01*
X103306632Y-112026086D01*
X103197139Y-111862218D01*
X103057782Y-111722861D01*
X102948288Y-111649699D01*
X102893913Y-111613367D01*
X102711835Y-111537949D01*
X102518543Y-111499500D01*
X102518541Y-111499500D01*
X102321459Y-111499500D01*
X102321456Y-111499500D01*
X102128165Y-111537949D01*
X102128163Y-111537949D01*
X101946086Y-111613367D01*
X101782218Y-111722861D01*
X101782214Y-111722864D01*
X101642864Y-111862214D01*
X101642861Y-111862218D01*
X101533367Y-112026086D01*
X101457949Y-112208163D01*
X101457949Y-112208165D01*
X101419500Y-112401456D01*
X101130000Y-112401456D01*
X101130000Y-112396586D01*
X101129999Y-112396581D01*
X101089650Y-112193727D01*
X101010498Y-112002639D01*
X101010491Y-112002625D01*
X100921976Y-111870154D01*
X100450465Y-112341665D01*
X100400080Y-112254394D01*
X100325606Y-112179920D01*
X100238332Y-112129532D01*
X100709843Y-111658022D01*
X100577361Y-111569501D01*
X100386272Y-111490349D01*
X100183418Y-111450000D01*
X99976581Y-111450000D01*
X99773727Y-111490349D01*
X99582638Y-111569501D01*
X99450155Y-111658022D01*
X99921666Y-112129533D01*
X99834394Y-112179920D01*
X99759920Y-112254394D01*
X99709533Y-112341666D01*
X99238022Y-111870155D01*
X99149501Y-112002638D01*
X99070349Y-112193727D01*
X99030000Y-112396581D01*
X90919529Y-112396581D01*
X90882051Y-112208166D01*
X90882050Y-112208163D01*
X90835533Y-112095862D01*
X90830733Y-112034868D01*
X90856992Y-111987977D01*
X97515475Y-105329496D01*
X97569992Y-105301719D01*
X97585479Y-105300500D01*
X99055388Y-105300500D01*
X99113579Y-105319407D01*
X99146852Y-105361615D01*
X99193367Y-105473912D01*
X99193368Y-105473914D01*
X99302861Y-105637782D01*
X99442218Y-105777139D01*
X99606086Y-105886632D01*
X99788165Y-105962051D01*
X99981459Y-106000500D01*
X99981460Y-106000500D01*
X100178540Y-106000500D01*
X100178541Y-106000500D01*
X100371835Y-105962051D01*
X100553914Y-105886632D01*
X100717782Y-105777139D01*
X100857139Y-105637782D01*
X100966632Y-105473914D01*
X101042051Y-105291835D01*
X101080500Y-105098541D01*
X101080500Y-104901459D01*
X101042051Y-104708165D01*
X100966632Y-104526086D01*
X100857139Y-104362218D01*
X100717782Y-104222861D01*
X100553914Y-104113368D01*
X100553915Y-104113368D01*
X100553913Y-104113367D01*
X100371835Y-104037949D01*
X100178543Y-103999500D01*
X100178541Y-103999500D01*
X99981459Y-103999500D01*
X99981456Y-103999500D01*
X99788165Y-104037949D01*
X99788163Y-104037949D01*
X99606086Y-104113367D01*
X99442218Y-104222861D01*
X99442214Y-104222864D01*
X99302864Y-104362214D01*
X99302861Y-104362218D01*
X99193367Y-104526087D01*
X99146852Y-104638385D01*
X99107116Y-104684911D01*
X99055388Y-104699500D01*
X97459562Y-104699500D01*
X97380438Y-104699500D01*
X97333661Y-104712033D01*
X97304007Y-104719979D01*
X97235493Y-104759536D01*
X97235492Y-104759537D01*
X90432023Y-111563004D01*
X90377506Y-111590781D01*
X90324134Y-111584464D01*
X90211835Y-111537949D01*
X90018543Y-111499500D01*
X90018541Y-111499500D01*
X89821459Y-111499500D01*
X89821456Y-111499500D01*
X89628165Y-111537949D01*
X89628163Y-111537949D01*
X89446086Y-111613367D01*
X89282218Y-111722861D01*
X89282214Y-111722864D01*
X89142864Y-111862214D01*
X89142861Y-111862218D01*
X89033367Y-112026087D01*
X88986852Y-112138385D01*
X88947116Y-112184911D01*
X88895388Y-112199500D01*
X86210435Y-112199500D01*
X86134011Y-112219978D01*
X86134007Y-112219980D01*
X86065491Y-112259538D01*
X84354525Y-113970504D01*
X84300008Y-113998281D01*
X84284521Y-113999500D01*
X83145725Y-113999500D01*
X83115305Y-114002353D01*
X83115296Y-114002355D01*
X82987116Y-114047207D01*
X82877855Y-114127845D01*
X82877845Y-114127855D01*
X82797207Y-114237116D01*
X82752355Y-114365296D01*
X82752353Y-114365305D01*
X82749500Y-114395725D01*
X50500500Y-114395725D01*
X50500500Y-109901456D01*
X66419500Y-109901456D01*
X66419500Y-110098543D01*
X66457949Y-110291834D01*
X66457949Y-110291836D01*
X66533367Y-110473913D01*
X66533368Y-110473914D01*
X66642861Y-110637782D01*
X66782218Y-110777139D01*
X66946086Y-110886632D01*
X67128165Y-110962051D01*
X67321459Y-111000500D01*
X67321460Y-111000500D01*
X67518540Y-111000500D01*
X67518541Y-111000500D01*
X67711835Y-110962051D01*
X67893914Y-110886632D01*
X68057782Y-110777139D01*
X68197139Y-110637782D01*
X68306632Y-110473914D01*
X68382051Y-110291835D01*
X68420500Y-110098541D01*
X68420500Y-109901459D01*
X68420499Y-109901456D01*
X76579500Y-109901456D01*
X76579500Y-110098543D01*
X76617949Y-110291834D01*
X76617949Y-110291836D01*
X76693367Y-110473913D01*
X76693368Y-110473914D01*
X76802861Y-110637782D01*
X76942218Y-110777139D01*
X77106086Y-110886632D01*
X77288165Y-110962051D01*
X77481459Y-111000500D01*
X77481460Y-111000500D01*
X77678540Y-111000500D01*
X77678541Y-111000500D01*
X77871835Y-110962051D01*
X78053914Y-110886632D01*
X78217782Y-110777139D01*
X78357139Y-110637782D01*
X78466632Y-110473914D01*
X78542051Y-110291835D01*
X78580500Y-110098541D01*
X78580500Y-109901459D01*
X78542051Y-109708165D01*
X78466632Y-109526086D01*
X78357139Y-109362218D01*
X78217782Y-109222861D01*
X78053914Y-109113368D01*
X78053915Y-109113368D01*
X78053913Y-109113367D01*
X77871835Y-109037949D01*
X77678543Y-108999500D01*
X77678541Y-108999500D01*
X77481459Y-108999500D01*
X77481456Y-108999500D01*
X77288165Y-109037949D01*
X77288163Y-109037949D01*
X77106086Y-109113367D01*
X76942218Y-109222861D01*
X76942214Y-109222864D01*
X76802864Y-109362214D01*
X76802861Y-109362218D01*
X76693367Y-109526086D01*
X76617949Y-109708163D01*
X76617949Y-109708165D01*
X76579500Y-109901456D01*
X68420499Y-109901456D01*
X68382051Y-109708165D01*
X68306632Y-109526086D01*
X68197139Y-109362218D01*
X68057782Y-109222861D01*
X67893914Y-109113368D01*
X67893915Y-109113368D01*
X67893913Y-109113367D01*
X67711835Y-109037949D01*
X67518543Y-108999500D01*
X67518541Y-108999500D01*
X67321459Y-108999500D01*
X67321456Y-108999500D01*
X67128165Y-109037949D01*
X67128163Y-109037949D01*
X66946086Y-109113367D01*
X66782218Y-109222861D01*
X66782214Y-109222864D01*
X66642864Y-109362214D01*
X66642861Y-109362218D01*
X66533367Y-109526086D01*
X66457949Y-109708163D01*
X66457949Y-109708165D01*
X66419500Y-109901456D01*
X50500500Y-109901456D01*
X50500500Y-104901456D01*
X88919500Y-104901456D01*
X88919500Y-105098543D01*
X88957949Y-105291834D01*
X88957949Y-105291836D01*
X89033367Y-105473913D01*
X89033368Y-105473914D01*
X89142861Y-105637782D01*
X89282218Y-105777139D01*
X89446086Y-105886632D01*
X89628165Y-105962051D01*
X89821459Y-106000500D01*
X89821460Y-106000500D01*
X90018540Y-106000500D01*
X90018541Y-106000500D01*
X90211835Y-105962051D01*
X90393914Y-105886632D01*
X90557782Y-105777139D01*
X90697139Y-105637782D01*
X90806632Y-105473914D01*
X90882051Y-105291835D01*
X90920500Y-105098541D01*
X90920500Y-104901459D01*
X90882051Y-104708165D01*
X90806632Y-104526086D01*
X90697139Y-104362218D01*
X90557782Y-104222861D01*
X90393914Y-104113368D01*
X90393915Y-104113368D01*
X90393913Y-104113367D01*
X90211835Y-104037949D01*
X90018543Y-103999500D01*
X90018541Y-103999500D01*
X89821459Y-103999500D01*
X89821456Y-103999500D01*
X89628165Y-104037949D01*
X89628163Y-104037949D01*
X89446086Y-104113367D01*
X89282218Y-104222861D01*
X89282214Y-104222864D01*
X89142864Y-104362214D01*
X89142861Y-104362218D01*
X89033367Y-104526086D01*
X88957949Y-104708163D01*
X88957949Y-104708165D01*
X88919500Y-104901456D01*
X50500500Y-104901456D01*
X50500500Y-101183424D01*
X56400000Y-101183424D01*
X56400000Y-101356575D01*
X56427084Y-101527579D01*
X56480588Y-101692248D01*
X56559195Y-101846524D01*
X56559197Y-101846528D01*
X56623219Y-101934646D01*
X57056328Y-101501536D01*
X57099901Y-101577007D01*
X57192993Y-101670099D01*
X57268460Y-101713670D01*
X56835352Y-102146778D01*
X56923477Y-102210805D01*
X57077751Y-102289411D01*
X57242420Y-102342915D01*
X57413425Y-102370000D01*
X57586575Y-102370000D01*
X57757579Y-102342915D01*
X57922248Y-102289411D01*
X58076524Y-102210804D01*
X58076530Y-102210800D01*
X58164646Y-102146779D01*
X58164646Y-102146778D01*
X57731538Y-101713670D01*
X57807007Y-101670099D01*
X57900099Y-101577007D01*
X57943670Y-101501538D01*
X58376778Y-101934646D01*
X58376779Y-101934646D01*
X58440800Y-101846530D01*
X58440804Y-101846524D01*
X58519411Y-101692248D01*
X58572915Y-101527579D01*
X58593799Y-101395725D01*
X138379500Y-101395725D01*
X138379500Y-103604274D01*
X138382353Y-103634694D01*
X138382355Y-103634703D01*
X138427207Y-103762883D01*
X138507845Y-103872144D01*
X138507847Y-103872146D01*
X138507850Y-103872150D01*
X138507853Y-103872152D01*
X138507855Y-103872154D01*
X138617116Y-103952792D01*
X138617117Y-103952792D01*
X138617118Y-103952793D01*
X138745301Y-103997646D01*
X138775725Y-104000499D01*
X138775727Y-104000500D01*
X138775734Y-104000500D01*
X140984273Y-104000500D01*
X140984273Y-104000499D01*
X141014699Y-103997646D01*
X141142882Y-103952793D01*
X141252150Y-103872150D01*
X141332793Y-103762882D01*
X141377646Y-103634699D01*
X141380499Y-103604273D01*
X141380500Y-103604273D01*
X141380500Y-102899500D01*
X141399407Y-102841309D01*
X141448907Y-102805345D01*
X141479500Y-102800500D01*
X142617863Y-102800500D01*
X142617863Y-102800499D01*
X142694289Y-102780021D01*
X142762811Y-102740460D01*
X142818760Y-102684511D01*
X151819847Y-93683424D01*
X153900000Y-93683424D01*
X153900000Y-93856575D01*
X153927084Y-94027579D01*
X153980588Y-94192248D01*
X154059195Y-94346524D01*
X154059197Y-94346528D01*
X154123219Y-94434646D01*
X154556328Y-94001536D01*
X154599901Y-94077007D01*
X154692993Y-94170099D01*
X154768460Y-94213670D01*
X154335352Y-94646778D01*
X154423477Y-94710805D01*
X154577751Y-94789411D01*
X154742420Y-94842915D01*
X154913425Y-94870000D01*
X155086575Y-94870000D01*
X155257579Y-94842915D01*
X155422248Y-94789411D01*
X155576524Y-94710804D01*
X155576530Y-94710800D01*
X155664646Y-94646779D01*
X155664646Y-94646778D01*
X155231538Y-94213670D01*
X155307007Y-94170099D01*
X155400099Y-94077007D01*
X155443670Y-94001538D01*
X155876778Y-94434646D01*
X155876779Y-94434646D01*
X155940800Y-94346530D01*
X155940804Y-94346524D01*
X156019411Y-94192248D01*
X156072915Y-94027579D01*
X156100000Y-93856575D01*
X156100000Y-93683424D01*
X156072915Y-93512420D01*
X156019411Y-93347751D01*
X155940805Y-93193477D01*
X155876778Y-93105352D01*
X155443670Y-93538460D01*
X155400099Y-93462993D01*
X155307007Y-93369901D01*
X155231536Y-93326328D01*
X155664646Y-92893219D01*
X155576528Y-92829197D01*
X155576524Y-92829195D01*
X155422248Y-92750588D01*
X155257579Y-92697084D01*
X155086575Y-92670000D01*
X154913425Y-92670000D01*
X154742420Y-92697084D01*
X154577751Y-92750588D01*
X154423476Y-92829195D01*
X154335352Y-92893219D01*
X154768461Y-93326328D01*
X154692993Y-93369901D01*
X154599901Y-93462993D01*
X154556328Y-93538461D01*
X154123219Y-93105352D01*
X154059195Y-93193476D01*
X153980588Y-93347751D01*
X153927084Y-93512420D01*
X153900000Y-93683424D01*
X151819847Y-93683424D01*
X153780496Y-91722775D01*
X153835013Y-91694998D01*
X153895445Y-91704569D01*
X153938710Y-91747834D01*
X153949500Y-91792779D01*
X153949500Y-92099746D01*
X153949501Y-92099758D01*
X153959889Y-92151976D01*
X153961133Y-92158231D01*
X154005448Y-92224552D01*
X154071769Y-92268867D01*
X154116231Y-92277711D01*
X154130241Y-92280498D01*
X154130246Y-92280498D01*
X154130252Y-92280500D01*
X154130253Y-92280500D01*
X155869747Y-92280500D01*
X155869748Y-92280500D01*
X155928231Y-92268867D01*
X155994552Y-92224552D01*
X156038867Y-92158231D01*
X156050500Y-92099748D01*
X156050500Y-90360252D01*
X156038867Y-90301769D01*
X155994552Y-90235448D01*
X155994548Y-90235445D01*
X155928233Y-90191134D01*
X155928231Y-90191133D01*
X155928228Y-90191132D01*
X155928227Y-90191132D01*
X155869758Y-90179501D01*
X155869748Y-90179500D01*
X154130252Y-90179500D01*
X154130251Y-90179500D01*
X154130241Y-90179501D01*
X154071772Y-90191132D01*
X154071766Y-90191134D01*
X154005451Y-90235445D01*
X154005445Y-90235451D01*
X153961134Y-90301766D01*
X153961132Y-90301772D01*
X153949501Y-90360241D01*
X153949500Y-90360253D01*
X153949500Y-90830500D01*
X153930593Y-90888691D01*
X153881093Y-90924655D01*
X153850500Y-90929500D01*
X153808735Y-90929500D01*
X153732311Y-90949978D01*
X153732307Y-90949980D01*
X153663791Y-90989538D01*
X142482825Y-102170504D01*
X142428308Y-102198281D01*
X142412821Y-102199500D01*
X141479500Y-102199500D01*
X141421309Y-102180593D01*
X141385345Y-102131093D01*
X141380500Y-102100500D01*
X141380500Y-101395727D01*
X141380499Y-101395725D01*
X141377646Y-101365301D01*
X141332793Y-101237118D01*
X141317692Y-101216657D01*
X141252154Y-101127855D01*
X141252152Y-101127853D01*
X141252150Y-101127850D01*
X141252146Y-101127847D01*
X141252144Y-101127845D01*
X141142883Y-101047207D01*
X141014703Y-101002355D01*
X141014694Y-101002353D01*
X140984274Y-100999500D01*
X140984266Y-100999500D01*
X138775734Y-100999500D01*
X138775725Y-100999500D01*
X138745305Y-101002353D01*
X138745296Y-101002355D01*
X138617116Y-101047207D01*
X138507855Y-101127845D01*
X138507845Y-101127855D01*
X138427207Y-101237116D01*
X138382355Y-101365296D01*
X138382353Y-101365305D01*
X138379500Y-101395725D01*
X58593799Y-101395725D01*
X58596617Y-101377932D01*
X58596617Y-101377930D01*
X58600000Y-101356572D01*
X58600000Y-101183424D01*
X58572915Y-101012420D01*
X58519411Y-100847751D01*
X58440805Y-100693477D01*
X58376778Y-100605352D01*
X57943670Y-101038460D01*
X57900099Y-100962993D01*
X57807007Y-100869901D01*
X57731536Y-100826328D01*
X58164646Y-100393219D01*
X58076528Y-100329197D01*
X58076524Y-100329195D01*
X57922248Y-100250588D01*
X57757579Y-100197084D01*
X57586575Y-100170000D01*
X57413425Y-100170000D01*
X57242420Y-100197084D01*
X57077751Y-100250588D01*
X56923476Y-100329195D01*
X56835352Y-100393219D01*
X57268461Y-100826328D01*
X57192993Y-100869901D01*
X57099901Y-100962993D01*
X57056328Y-101038461D01*
X56623219Y-100605352D01*
X56559195Y-100693476D01*
X56480588Y-100847751D01*
X56427084Y-101012420D01*
X56400000Y-101183424D01*
X50500500Y-101183424D01*
X50500500Y-97860253D01*
X56449500Y-97860253D01*
X56449500Y-99599746D01*
X56449501Y-99599758D01*
X56461132Y-99658227D01*
X56461134Y-99658233D01*
X56494497Y-99708163D01*
X56505448Y-99724552D01*
X56571769Y-99768867D01*
X56616231Y-99777711D01*
X56630241Y-99780498D01*
X56630246Y-99780498D01*
X56630252Y-99780500D01*
X56630253Y-99780500D01*
X58369747Y-99780500D01*
X58369748Y-99780500D01*
X58428231Y-99768867D01*
X58494552Y-99724552D01*
X58538867Y-99658231D01*
X58550500Y-99599748D01*
X58550500Y-99292779D01*
X58569407Y-99234588D01*
X58618907Y-99198624D01*
X58680093Y-99198624D01*
X58719504Y-99222775D01*
X59681240Y-100184511D01*
X59681239Y-100184511D01*
X59737189Y-100240460D01*
X59805707Y-100280019D01*
X59805711Y-100280021D01*
X59882135Y-100300499D01*
X59882137Y-100300500D01*
X59882138Y-100300500D01*
X59961262Y-100300500D01*
X67650500Y-100300500D01*
X67708691Y-100319407D01*
X67744655Y-100368907D01*
X67749500Y-100399500D01*
X67749500Y-100604274D01*
X67752353Y-100634694D01*
X67752355Y-100634703D01*
X67797207Y-100762883D01*
X67877845Y-100872144D01*
X67877847Y-100872146D01*
X67877850Y-100872150D01*
X67877853Y-100872152D01*
X67877855Y-100872154D01*
X67987116Y-100952792D01*
X67987117Y-100952792D01*
X67987118Y-100952793D01*
X68115301Y-100997646D01*
X68145725Y-101000499D01*
X68145727Y-101000500D01*
X68145734Y-101000500D01*
X69354273Y-101000500D01*
X69354273Y-101000499D01*
X69384699Y-100997646D01*
X69512882Y-100952793D01*
X69622150Y-100872150D01*
X69702793Y-100762882D01*
X69747646Y-100634699D01*
X69750499Y-100604273D01*
X69750500Y-100604273D01*
X69750500Y-99901456D01*
X70249500Y-99901456D01*
X70249500Y-100098543D01*
X70287949Y-100291834D01*
X70287949Y-100291836D01*
X70363367Y-100473913D01*
X70363368Y-100473914D01*
X70472861Y-100637782D01*
X70612218Y-100777139D01*
X70776086Y-100886632D01*
X70958165Y-100962051D01*
X71151459Y-101000500D01*
X71151460Y-101000500D01*
X71348540Y-101000500D01*
X71348541Y-101000500D01*
X71541835Y-100962051D01*
X71723914Y-100886632D01*
X71887782Y-100777139D01*
X72027139Y-100637782D01*
X72136632Y-100473914D01*
X72212051Y-100291835D01*
X72250500Y-100098541D01*
X72250500Y-99901459D01*
X72212051Y-99708165D01*
X72136632Y-99526086D01*
X72049528Y-99395725D01*
X125189500Y-99395725D01*
X125189500Y-100604274D01*
X125192353Y-100634694D01*
X125192355Y-100634703D01*
X125237207Y-100762883D01*
X125317845Y-100872144D01*
X125317847Y-100872146D01*
X125317850Y-100872150D01*
X125317853Y-100872152D01*
X125317855Y-100872154D01*
X125427116Y-100952792D01*
X125427117Y-100952792D01*
X125427118Y-100952793D01*
X125555301Y-100997646D01*
X125585725Y-101000499D01*
X125585727Y-101000500D01*
X125585734Y-101000500D01*
X126794273Y-101000500D01*
X126794273Y-101000499D01*
X126824699Y-100997646D01*
X126952882Y-100952793D01*
X127062150Y-100872150D01*
X127142793Y-100762882D01*
X127187646Y-100634699D01*
X127190499Y-100604273D01*
X127190500Y-100604273D01*
X127190500Y-99901456D01*
X132809500Y-99901456D01*
X132809500Y-100098543D01*
X132847949Y-100291834D01*
X132847949Y-100291836D01*
X132923367Y-100473913D01*
X132923368Y-100473914D01*
X133032861Y-100637782D01*
X133172218Y-100777139D01*
X133336086Y-100886632D01*
X133518165Y-100962051D01*
X133711459Y-101000500D01*
X133711460Y-101000500D01*
X133908540Y-101000500D01*
X133908541Y-101000500D01*
X134101835Y-100962051D01*
X134283914Y-100886632D01*
X134447782Y-100777139D01*
X134587139Y-100637782D01*
X134696632Y-100473914D01*
X134772051Y-100291835D01*
X134810500Y-100098541D01*
X134810500Y-99901459D01*
X134772051Y-99708165D01*
X134696632Y-99526086D01*
X134587139Y-99362218D01*
X134447782Y-99222861D01*
X134338288Y-99149699D01*
X134283913Y-99113367D01*
X134101835Y-99037949D01*
X133908543Y-98999500D01*
X133908541Y-98999500D01*
X133711459Y-98999500D01*
X133711456Y-98999500D01*
X133518165Y-99037949D01*
X133518163Y-99037949D01*
X133336086Y-99113367D01*
X133172218Y-99222861D01*
X133172214Y-99222864D01*
X133032864Y-99362214D01*
X133032861Y-99362218D01*
X132923367Y-99526086D01*
X132847949Y-99708163D01*
X132847949Y-99708165D01*
X132809500Y-99901456D01*
X127190500Y-99901456D01*
X127190500Y-99395727D01*
X127190499Y-99395725D01*
X127187646Y-99365305D01*
X127187646Y-99365301D01*
X127142793Y-99237118D01*
X127132273Y-99222864D01*
X127062154Y-99127855D01*
X127062152Y-99127853D01*
X127062150Y-99127850D01*
X127062146Y-99127847D01*
X127062144Y-99127845D01*
X126952883Y-99047207D01*
X126824703Y-99002355D01*
X126824694Y-99002353D01*
X126794274Y-98999500D01*
X126794266Y-98999500D01*
X125585734Y-98999500D01*
X125585725Y-98999500D01*
X125555305Y-99002353D01*
X125555296Y-99002355D01*
X125427116Y-99047207D01*
X125317855Y-99127845D01*
X125317845Y-99127855D01*
X125237207Y-99237116D01*
X125192355Y-99365296D01*
X125192353Y-99365305D01*
X125189500Y-99395725D01*
X72049528Y-99395725D01*
X72027139Y-99362218D01*
X71887782Y-99222861D01*
X71723914Y-99113368D01*
X71723912Y-99113367D01*
X71611615Y-99066852D01*
X71591170Y-99049391D01*
X71569407Y-99033579D01*
X71568158Y-99029737D01*
X71565089Y-99027116D01*
X71550500Y-98975388D01*
X71550500Y-98875478D01*
X71569407Y-98817287D01*
X71579490Y-98805480D01*
X72983514Y-97401456D01*
X103919500Y-97401456D01*
X103919500Y-97598543D01*
X103957949Y-97791834D01*
X103957949Y-97791836D01*
X104033367Y-97973913D01*
X104033368Y-97973914D01*
X104142861Y-98137782D01*
X104282218Y-98277139D01*
X104446086Y-98386632D01*
X104628165Y-98462051D01*
X104821459Y-98500500D01*
X104821460Y-98500500D01*
X105018540Y-98500500D01*
X105018541Y-98500500D01*
X105211835Y-98462051D01*
X105393914Y-98386632D01*
X105557782Y-98277139D01*
X105697139Y-98137782D01*
X105806632Y-97973914D01*
X105882051Y-97791835D01*
X105920500Y-97598541D01*
X105920500Y-97401459D01*
X105920499Y-97401456D01*
X105919529Y-97396581D01*
X114030000Y-97396581D01*
X114030000Y-97603418D01*
X114070349Y-97806272D01*
X114149501Y-97997361D01*
X114238022Y-98129843D01*
X114709532Y-97658332D01*
X114759920Y-97745606D01*
X114834394Y-97820080D01*
X114921665Y-97870465D01*
X114450154Y-98341977D01*
X114582625Y-98430491D01*
X114582639Y-98430498D01*
X114773727Y-98509650D01*
X114976581Y-98549999D01*
X114976586Y-98550000D01*
X115183414Y-98550000D01*
X115183418Y-98549999D01*
X115386272Y-98509650D01*
X115577360Y-98430498D01*
X115709843Y-98341976D01*
X115238333Y-97870466D01*
X115325606Y-97820080D01*
X115400080Y-97745606D01*
X115450466Y-97658333D01*
X115921976Y-98129843D01*
X116010498Y-97997360D01*
X116089650Y-97806272D01*
X116129999Y-97603418D01*
X116130000Y-97603413D01*
X116130000Y-97396586D01*
X116129999Y-97396581D01*
X116089650Y-97193727D01*
X116010498Y-97002639D01*
X116010491Y-97002625D01*
X115921976Y-96870154D01*
X115450465Y-97341665D01*
X115400080Y-97254394D01*
X115325606Y-97179920D01*
X115238332Y-97129532D01*
X115709843Y-96658022D01*
X115577361Y-96569501D01*
X115386272Y-96490349D01*
X115183418Y-96450000D01*
X114976581Y-96450000D01*
X114773727Y-96490349D01*
X114582638Y-96569501D01*
X114450155Y-96658022D01*
X114921666Y-97129533D01*
X114834394Y-97179920D01*
X114759920Y-97254394D01*
X114709533Y-97341666D01*
X114238022Y-96870155D01*
X114149501Y-97002638D01*
X114070349Y-97193727D01*
X114030000Y-97396581D01*
X105919529Y-97396581D01*
X105909390Y-97345606D01*
X105882051Y-97208165D01*
X105806632Y-97026086D01*
X105697139Y-96862218D01*
X105557782Y-96722861D01*
X105393914Y-96613368D01*
X105393915Y-96613368D01*
X105393913Y-96613367D01*
X105211835Y-96537949D01*
X105018543Y-96499500D01*
X105018541Y-96499500D01*
X104821459Y-96499500D01*
X104821456Y-96499500D01*
X104628165Y-96537949D01*
X104628163Y-96537949D01*
X104446086Y-96613367D01*
X104282218Y-96722861D01*
X104282214Y-96722864D01*
X104142864Y-96862214D01*
X104142861Y-96862218D01*
X104033367Y-97026086D01*
X103957949Y-97208163D01*
X103957949Y-97208165D01*
X103919500Y-97401456D01*
X72983514Y-97401456D01*
X79178388Y-91206581D01*
X80140000Y-91206581D01*
X80140000Y-91413418D01*
X80180349Y-91616272D01*
X80259501Y-91807361D01*
X80348022Y-91939843D01*
X80819532Y-91468332D01*
X80869920Y-91555606D01*
X80944394Y-91630080D01*
X81031665Y-91680465D01*
X80560154Y-92151977D01*
X80692625Y-92240491D01*
X80692639Y-92240498D01*
X80883727Y-92319650D01*
X81086581Y-92359999D01*
X81086586Y-92360000D01*
X81293414Y-92360000D01*
X81293418Y-92359999D01*
X81496272Y-92319650D01*
X81687360Y-92240498D01*
X81819843Y-92151976D01*
X81348333Y-91680466D01*
X81435606Y-91630080D01*
X81510080Y-91555606D01*
X81560466Y-91468333D01*
X82031976Y-91939843D01*
X82120498Y-91807360D01*
X82199650Y-91616272D01*
X82239999Y-91413418D01*
X82240000Y-91413413D01*
X82240000Y-91211456D01*
X87809500Y-91211456D01*
X87809500Y-91408543D01*
X87847949Y-91601834D01*
X87847949Y-91601836D01*
X87923367Y-91783913D01*
X87923368Y-91783914D01*
X88032861Y-91947782D01*
X88172218Y-92087139D01*
X88336086Y-92196632D01*
X88518165Y-92272051D01*
X88711459Y-92310500D01*
X88711460Y-92310500D01*
X88908540Y-92310500D01*
X88908541Y-92310500D01*
X89101835Y-92272051D01*
X89283914Y-92196632D01*
X89447782Y-92087139D01*
X89587139Y-91947782D01*
X89696632Y-91783914D01*
X89772051Y-91601835D01*
X89810500Y-91408541D01*
X89810500Y-91211459D01*
X89772051Y-91018165D01*
X89696632Y-90836086D01*
X89587139Y-90672218D01*
X89447782Y-90532861D01*
X89283914Y-90423368D01*
X89283915Y-90423368D01*
X89283913Y-90423367D01*
X89101835Y-90347949D01*
X88908543Y-90309500D01*
X88908541Y-90309500D01*
X88711459Y-90309500D01*
X88711456Y-90309500D01*
X88518165Y-90347949D01*
X88518163Y-90347949D01*
X88336086Y-90423367D01*
X88172218Y-90532861D01*
X88172214Y-90532864D01*
X88032864Y-90672214D01*
X88032861Y-90672218D01*
X87923367Y-90836086D01*
X87847949Y-91018163D01*
X87847949Y-91018165D01*
X87809500Y-91211456D01*
X82240000Y-91211456D01*
X82240000Y-91206586D01*
X82239999Y-91206581D01*
X82199650Y-91003727D01*
X82120498Y-90812639D01*
X82120491Y-90812625D01*
X82031976Y-90680154D01*
X81560465Y-91151665D01*
X81510080Y-91064394D01*
X81435606Y-90989920D01*
X81348332Y-90939532D01*
X81819843Y-90468022D01*
X81687361Y-90379501D01*
X81496272Y-90300349D01*
X81293418Y-90260000D01*
X81086581Y-90260000D01*
X80883727Y-90300349D01*
X80692638Y-90379501D01*
X80560155Y-90468022D01*
X81031666Y-90939533D01*
X80944394Y-90989920D01*
X80869920Y-91064394D01*
X80819533Y-91151666D01*
X80348022Y-90680155D01*
X80259501Y-90812638D01*
X80180349Y-91003727D01*
X80140000Y-91206581D01*
X79178388Y-91206581D01*
X80677977Y-89706992D01*
X80732492Y-89679217D01*
X80785862Y-89685533D01*
X80898165Y-89732051D01*
X81091459Y-89770500D01*
X81091460Y-89770500D01*
X81288540Y-89770500D01*
X81288541Y-89770500D01*
X81481835Y-89732051D01*
X81663914Y-89656632D01*
X81827782Y-89547139D01*
X81967139Y-89407782D01*
X82076632Y-89243914D01*
X82152051Y-89061835D01*
X82190500Y-88868541D01*
X82190500Y-88671459D01*
X82190499Y-88671456D01*
X87809500Y-88671456D01*
X87809500Y-88868543D01*
X87847949Y-89061834D01*
X87847949Y-89061836D01*
X87923367Y-89243913D01*
X87959699Y-89298288D01*
X88032861Y-89407782D01*
X88172218Y-89547139D01*
X88336086Y-89656632D01*
X88518165Y-89732051D01*
X88711459Y-89770500D01*
X88711460Y-89770500D01*
X88908540Y-89770500D01*
X88908541Y-89770500D01*
X89101835Y-89732051D01*
X89283914Y-89656632D01*
X89447782Y-89547139D01*
X89587139Y-89407782D01*
X89696632Y-89243914D01*
X89772051Y-89061835D01*
X89810500Y-88868541D01*
X89810500Y-88671459D01*
X89772051Y-88478165D01*
X89696632Y-88296086D01*
X89587139Y-88132218D01*
X89447782Y-87992861D01*
X89283914Y-87883368D01*
X89283915Y-87883368D01*
X89283913Y-87883367D01*
X89101835Y-87807949D01*
X88908543Y-87769500D01*
X88908541Y-87769500D01*
X88711459Y-87769500D01*
X88711456Y-87769500D01*
X88518165Y-87807949D01*
X88518163Y-87807949D01*
X88336086Y-87883367D01*
X88172218Y-87992861D01*
X88172214Y-87992864D01*
X88032864Y-88132214D01*
X88032861Y-88132218D01*
X87923367Y-88296086D01*
X87847949Y-88478163D01*
X87847949Y-88478165D01*
X87809500Y-88671456D01*
X82190499Y-88671456D01*
X82152051Y-88478165D01*
X82076632Y-88296086D01*
X81967139Y-88132218D01*
X81827782Y-87992861D01*
X81663914Y-87883368D01*
X81663915Y-87883368D01*
X81663913Y-87883367D01*
X81481835Y-87807949D01*
X81288543Y-87769500D01*
X81288541Y-87769500D01*
X81091459Y-87769500D01*
X81091456Y-87769500D01*
X80898165Y-87807949D01*
X80898163Y-87807949D01*
X80716086Y-87883367D01*
X80552218Y-87992861D01*
X80552214Y-87992864D01*
X80412864Y-88132214D01*
X80412861Y-88132218D01*
X80303367Y-88296086D01*
X80227949Y-88478163D01*
X80227949Y-88478165D01*
X80189500Y-88671456D01*
X80189500Y-88868543D01*
X80227949Y-89061834D01*
X80227949Y-89061836D01*
X80274464Y-89174134D01*
X80279264Y-89235131D01*
X80253004Y-89282023D01*
X71065489Y-98469540D01*
X71065488Y-98469539D01*
X71009539Y-98525489D01*
X70969980Y-98594007D01*
X70969978Y-98594011D01*
X70949500Y-98670435D01*
X70949500Y-98975388D01*
X70930593Y-99033579D01*
X70888385Y-99066852D01*
X70776087Y-99113367D01*
X70612218Y-99222861D01*
X70612214Y-99222864D01*
X70472864Y-99362214D01*
X70472861Y-99362218D01*
X70363367Y-99526086D01*
X70287949Y-99708163D01*
X70287949Y-99708165D01*
X70249500Y-99901456D01*
X69750500Y-99901456D01*
X69750500Y-99395727D01*
X69750499Y-99395725D01*
X69747646Y-99365305D01*
X69747646Y-99365301D01*
X69702793Y-99237118D01*
X69692273Y-99222864D01*
X69622154Y-99127855D01*
X69622152Y-99127853D01*
X69622150Y-99127850D01*
X69622146Y-99127847D01*
X69622144Y-99127845D01*
X69512883Y-99047207D01*
X69384703Y-99002355D01*
X69384694Y-99002353D01*
X69354274Y-98999500D01*
X69354266Y-98999500D01*
X68145734Y-98999500D01*
X68145725Y-98999500D01*
X68115305Y-99002353D01*
X68115296Y-99002355D01*
X67987116Y-99047207D01*
X67877855Y-99127845D01*
X67877845Y-99127855D01*
X67797207Y-99237116D01*
X67752355Y-99365296D01*
X67752353Y-99365305D01*
X67749500Y-99395725D01*
X67749500Y-99600500D01*
X67730593Y-99658691D01*
X67681093Y-99694655D01*
X67650500Y-99699500D01*
X60087179Y-99699500D01*
X60028988Y-99680593D01*
X60017175Y-99670504D01*
X59460038Y-99113367D01*
X58836211Y-98489540D01*
X58836208Y-98489538D01*
X58767692Y-98449980D01*
X58767688Y-98449978D01*
X58691264Y-98429500D01*
X58691262Y-98429500D01*
X58649500Y-98429500D01*
X58591309Y-98410593D01*
X58555345Y-98361093D01*
X58550500Y-98330500D01*
X58550500Y-97860253D01*
X58550498Y-97860241D01*
X58542509Y-97820080D01*
X58538867Y-97801769D01*
X58494552Y-97735448D01*
X58459658Y-97712132D01*
X58428233Y-97691134D01*
X58428231Y-97691133D01*
X58428228Y-97691132D01*
X58428227Y-97691132D01*
X58369758Y-97679501D01*
X58369748Y-97679500D01*
X56630252Y-97679500D01*
X56630251Y-97679500D01*
X56630241Y-97679501D01*
X56571772Y-97691132D01*
X56571766Y-97691134D01*
X56505451Y-97735445D01*
X56505445Y-97735451D01*
X56461134Y-97801766D01*
X56461132Y-97801772D01*
X56449501Y-97860241D01*
X56449500Y-97860253D01*
X50500500Y-97860253D01*
X50500500Y-86131456D01*
X80189500Y-86131456D01*
X80189500Y-86328543D01*
X80227949Y-86521834D01*
X80227949Y-86521836D01*
X80303367Y-86703913D01*
X80303368Y-86703914D01*
X80412861Y-86867782D01*
X80552218Y-87007139D01*
X80716086Y-87116632D01*
X80898165Y-87192051D01*
X81091459Y-87230500D01*
X81091460Y-87230500D01*
X81288540Y-87230500D01*
X81288541Y-87230500D01*
X81481835Y-87192051D01*
X81663914Y-87116632D01*
X81827782Y-87007139D01*
X81967139Y-86867782D01*
X82076632Y-86703914D01*
X82152051Y-86521835D01*
X82190500Y-86328541D01*
X82190500Y-86131459D01*
X82190499Y-86131456D01*
X87809500Y-86131456D01*
X87809500Y-86328543D01*
X87847949Y-86521834D01*
X87847949Y-86521836D01*
X87923367Y-86703913D01*
X87923368Y-86703914D01*
X88032861Y-86867782D01*
X88172218Y-87007139D01*
X88336086Y-87116632D01*
X88518165Y-87192051D01*
X88711459Y-87230500D01*
X88711460Y-87230500D01*
X88908540Y-87230500D01*
X88908541Y-87230500D01*
X89101835Y-87192051D01*
X89283914Y-87116632D01*
X89447782Y-87007139D01*
X89587139Y-86867782D01*
X89696632Y-86703914D01*
X89772051Y-86521835D01*
X89810500Y-86328541D01*
X89810500Y-86131459D01*
X89772051Y-85938165D01*
X89696632Y-85756086D01*
X89587139Y-85592218D01*
X89447782Y-85452861D01*
X89283914Y-85343368D01*
X89283915Y-85343368D01*
X89283913Y-85343367D01*
X89101835Y-85267949D01*
X88908543Y-85229500D01*
X88908541Y-85229500D01*
X88711459Y-85229500D01*
X88711456Y-85229500D01*
X88518165Y-85267949D01*
X88518163Y-85267949D01*
X88336086Y-85343367D01*
X88172218Y-85452861D01*
X88172214Y-85452864D01*
X88032864Y-85592214D01*
X88032861Y-85592218D01*
X87923367Y-85756086D01*
X87847949Y-85938163D01*
X87847949Y-85938165D01*
X87809500Y-86131456D01*
X82190499Y-86131456D01*
X82152051Y-85938165D01*
X82076632Y-85756086D01*
X81967139Y-85592218D01*
X81827782Y-85452861D01*
X81663914Y-85343368D01*
X81663915Y-85343368D01*
X81663913Y-85343367D01*
X81481835Y-85267949D01*
X81288543Y-85229500D01*
X81288541Y-85229500D01*
X81091459Y-85229500D01*
X81091456Y-85229500D01*
X80898165Y-85267949D01*
X80898163Y-85267949D01*
X80716086Y-85343367D01*
X80552218Y-85452861D01*
X80552214Y-85452864D01*
X80412864Y-85592214D01*
X80412861Y-85592218D01*
X80303367Y-85756086D01*
X80227949Y-85938163D01*
X80227949Y-85938165D01*
X80189500Y-86131456D01*
X50500500Y-86131456D01*
X50500500Y-83085725D01*
X80189500Y-83085725D01*
X80189500Y-84294274D01*
X80192353Y-84324694D01*
X80192355Y-84324703D01*
X80237207Y-84452883D01*
X80317845Y-84562144D01*
X80317847Y-84562146D01*
X80317850Y-84562150D01*
X80317853Y-84562152D01*
X80317855Y-84562154D01*
X80427116Y-84642792D01*
X80427117Y-84642792D01*
X80427118Y-84642793D01*
X80555301Y-84687646D01*
X80585725Y-84690499D01*
X80585727Y-84690500D01*
X80585734Y-84690500D01*
X81794273Y-84690500D01*
X81794273Y-84690499D01*
X81824699Y-84687646D01*
X81952882Y-84642793D01*
X82062150Y-84562150D01*
X82142793Y-84452882D01*
X82187646Y-84324699D01*
X82190499Y-84294273D01*
X82190500Y-84294273D01*
X82190500Y-83591456D01*
X87809500Y-83591456D01*
X87809500Y-83788543D01*
X87847949Y-83981834D01*
X87847949Y-83981836D01*
X87923367Y-84163913D01*
X87923368Y-84163914D01*
X88032861Y-84327782D01*
X88172218Y-84467139D01*
X88336086Y-84576632D01*
X88518165Y-84652051D01*
X88711459Y-84690500D01*
X88711460Y-84690500D01*
X88908540Y-84690500D01*
X88908541Y-84690500D01*
X89101835Y-84652051D01*
X89283914Y-84576632D01*
X89447782Y-84467139D01*
X89587139Y-84327782D01*
X89696632Y-84163914D01*
X89772051Y-83981835D01*
X89810500Y-83788541D01*
X89810500Y-83591459D01*
X89772051Y-83398165D01*
X89696632Y-83216086D01*
X89587139Y-83052218D01*
X89447782Y-82912861D01*
X89338288Y-82839699D01*
X89283913Y-82803367D01*
X89101835Y-82727949D01*
X88908543Y-82689500D01*
X88908541Y-82689500D01*
X88711459Y-82689500D01*
X88711456Y-82689500D01*
X88518165Y-82727949D01*
X88518163Y-82727949D01*
X88336086Y-82803367D01*
X88172218Y-82912861D01*
X88172214Y-82912864D01*
X88032864Y-83052214D01*
X88032861Y-83052218D01*
X87923367Y-83216086D01*
X87847949Y-83398163D01*
X87847949Y-83398165D01*
X87809500Y-83591456D01*
X82190500Y-83591456D01*
X82190500Y-83155479D01*
X82209407Y-83097288D01*
X82219496Y-83085475D01*
X84975475Y-80329496D01*
X85029992Y-80301719D01*
X85045479Y-80300500D01*
X110150500Y-80300500D01*
X110208691Y-80319407D01*
X110244655Y-80368907D01*
X110249500Y-80399500D01*
X110249500Y-80604274D01*
X110252353Y-80634694D01*
X110252355Y-80634703D01*
X110297207Y-80762883D01*
X110377845Y-80872144D01*
X110377847Y-80872146D01*
X110377850Y-80872150D01*
X110377853Y-80872152D01*
X110377855Y-80872154D01*
X110487116Y-80952792D01*
X110487117Y-80952792D01*
X110487118Y-80952793D01*
X110615301Y-80997646D01*
X110645725Y-81000499D01*
X110645727Y-81000500D01*
X110645734Y-81000500D01*
X111854273Y-81000500D01*
X111854273Y-81000499D01*
X111884699Y-80997646D01*
X112012882Y-80952793D01*
X112122150Y-80872150D01*
X112202793Y-80762882D01*
X112247646Y-80634699D01*
X112250499Y-80604273D01*
X112250500Y-80604273D01*
X112250500Y-79901456D01*
X112749500Y-79901456D01*
X112749500Y-80098543D01*
X112787949Y-80291834D01*
X112787949Y-80291836D01*
X112863367Y-80473913D01*
X112863368Y-80473914D01*
X112972861Y-80637782D01*
X113112218Y-80777139D01*
X113276086Y-80886632D01*
X113458165Y-80962051D01*
X113651459Y-81000500D01*
X113651460Y-81000500D01*
X113848540Y-81000500D01*
X113848541Y-81000500D01*
X114041835Y-80962051D01*
X114223914Y-80886632D01*
X114387782Y-80777139D01*
X114527139Y-80637782D01*
X114636632Y-80473914D01*
X114712051Y-80291835D01*
X114750500Y-80098541D01*
X114750500Y-79901459D01*
X114712051Y-79708165D01*
X114636632Y-79526086D01*
X114527139Y-79362218D01*
X114387782Y-79222861D01*
X114278288Y-79149699D01*
X114223913Y-79113367D01*
X114041835Y-79037949D01*
X113848543Y-78999500D01*
X113848541Y-78999500D01*
X113651459Y-78999500D01*
X113651456Y-78999500D01*
X113458165Y-79037949D01*
X113458163Y-79037949D01*
X113276086Y-79113367D01*
X113112218Y-79222861D01*
X113112214Y-79222864D01*
X112972864Y-79362214D01*
X112972861Y-79362218D01*
X112863367Y-79526086D01*
X112787949Y-79708163D01*
X112787949Y-79708165D01*
X112749500Y-79901456D01*
X112250500Y-79901456D01*
X112250500Y-79395727D01*
X112250499Y-79395725D01*
X112247646Y-79365305D01*
X112247646Y-79365301D01*
X112202793Y-79237118D01*
X112192273Y-79222864D01*
X112122154Y-79127855D01*
X112122152Y-79127853D01*
X112122150Y-79127850D01*
X112122146Y-79127847D01*
X112122144Y-79127845D01*
X112012883Y-79047207D01*
X111884703Y-79002355D01*
X111884694Y-79002353D01*
X111854274Y-78999500D01*
X111854266Y-78999500D01*
X110645734Y-78999500D01*
X110645725Y-78999500D01*
X110615305Y-79002353D01*
X110615296Y-79002355D01*
X110487116Y-79047207D01*
X110377855Y-79127845D01*
X110377845Y-79127855D01*
X110297207Y-79237116D01*
X110252355Y-79365296D01*
X110252353Y-79365305D01*
X110249500Y-79395725D01*
X110249500Y-79600500D01*
X110230593Y-79658691D01*
X110181093Y-79694655D01*
X110150500Y-79699500D01*
X84840435Y-79699500D01*
X84764011Y-79719978D01*
X84764007Y-79719980D01*
X84695491Y-79759538D01*
X81794525Y-82660504D01*
X81740008Y-82688281D01*
X81724521Y-82689500D01*
X80585725Y-82689500D01*
X80555305Y-82692353D01*
X80555296Y-82692355D01*
X80427116Y-82737207D01*
X80317855Y-82817845D01*
X80317845Y-82817855D01*
X80237207Y-82927116D01*
X80192355Y-83055296D01*
X80192353Y-83055305D01*
X80189500Y-83085725D01*
X50500500Y-83085725D01*
X50500500Y-77485515D01*
X133759500Y-77485515D01*
X133759500Y-77674484D01*
X133789058Y-77861113D01*
X133847453Y-78040832D01*
X133933240Y-78209199D01*
X134044310Y-78362073D01*
X134177927Y-78495690D01*
X134330801Y-78606760D01*
X134499168Y-78692547D01*
X134678882Y-78750940D01*
X134678883Y-78750940D01*
X134678886Y-78750941D01*
X134865516Y-78780500D01*
X134865519Y-78780500D01*
X135054484Y-78780500D01*
X135241113Y-78750941D01*
X135241114Y-78750940D01*
X135241118Y-78750940D01*
X135420832Y-78692547D01*
X135589199Y-78606760D01*
X135742073Y-78495690D01*
X135875690Y-78362073D01*
X135986760Y-78209199D01*
X136072547Y-78040832D01*
X136102415Y-77948906D01*
X136138379Y-77899407D01*
X136196570Y-77880500D01*
X138803430Y-77880500D01*
X138861621Y-77899407D01*
X138897584Y-77948906D01*
X138927453Y-78040832D01*
X139013240Y-78209199D01*
X139124310Y-78362073D01*
X139257927Y-78495690D01*
X139410801Y-78606760D01*
X139579168Y-78692547D01*
X139758882Y-78750940D01*
X139758883Y-78750940D01*
X139758886Y-78750941D01*
X139945516Y-78780500D01*
X139945519Y-78780500D01*
X140134484Y-78780500D01*
X140321113Y-78750941D01*
X140321114Y-78750940D01*
X140321118Y-78750940D01*
X140500832Y-78692547D01*
X140669199Y-78606760D01*
X140822073Y-78495690D01*
X140955690Y-78362073D01*
X141066760Y-78209199D01*
X141152547Y-78040832D01*
X141210940Y-77861118D01*
X141240500Y-77674481D01*
X141240500Y-77485519D01*
X141240500Y-77485515D01*
X141210941Y-77298886D01*
X141182415Y-77211093D01*
X141152547Y-77119168D01*
X141066760Y-76950801D01*
X140955690Y-76797927D01*
X140822073Y-76664310D01*
X140669199Y-76553240D01*
X140669198Y-76553239D01*
X140669196Y-76553238D01*
X140500832Y-76467453D01*
X140321113Y-76409058D01*
X140134484Y-76379500D01*
X140134481Y-76379500D01*
X139945519Y-76379500D01*
X139945516Y-76379500D01*
X139758886Y-76409058D01*
X139579167Y-76467453D01*
X139410803Y-76553238D01*
X139257928Y-76664309D01*
X139124309Y-76797928D01*
X139013238Y-76950803D01*
X138927453Y-77119167D01*
X138897585Y-77211093D01*
X138861621Y-77260593D01*
X138803430Y-77279500D01*
X136196570Y-77279500D01*
X136138379Y-77260593D01*
X136102415Y-77211093D01*
X136072547Y-77119168D01*
X135986760Y-76950801D01*
X135875690Y-76797927D01*
X135742073Y-76664310D01*
X135589199Y-76553240D01*
X135589198Y-76553239D01*
X135589196Y-76553238D01*
X135420832Y-76467453D01*
X135241113Y-76409058D01*
X135054484Y-76379500D01*
X135054481Y-76379500D01*
X134865519Y-76379500D01*
X134865516Y-76379500D01*
X134678886Y-76409058D01*
X134499167Y-76467453D01*
X134330803Y-76553238D01*
X134177928Y-76664309D01*
X134044309Y-76797928D01*
X133933238Y-76950803D01*
X133847453Y-77119167D01*
X133789058Y-77298886D01*
X133759500Y-77485515D01*
X50500500Y-77485515D01*
X50500500Y-74936532D01*
X56449500Y-74936532D01*
X56449500Y-75143467D01*
X56489869Y-75346418D01*
X56569058Y-75537597D01*
X56569059Y-75537598D01*
X56684023Y-75709655D01*
X56830345Y-75855977D01*
X57002402Y-75970941D01*
X57193580Y-76050130D01*
X57396535Y-76090500D01*
X57396536Y-76090500D01*
X57603464Y-76090500D01*
X57603465Y-76090500D01*
X57806420Y-76050130D01*
X57997598Y-75970941D01*
X58169655Y-75855977D01*
X58315977Y-75709655D01*
X58430941Y-75537598D01*
X58510130Y-75346420D01*
X58550500Y-75143465D01*
X58550500Y-74936535D01*
X58510130Y-74733580D01*
X58430941Y-74542402D01*
X58315977Y-74370345D01*
X58169655Y-74224023D01*
X57997598Y-74109059D01*
X57997599Y-74109059D01*
X57997597Y-74109058D01*
X57806418Y-74029869D01*
X57603467Y-73989500D01*
X57603465Y-73989500D01*
X57396535Y-73989500D01*
X57396532Y-73989500D01*
X57193581Y-74029869D01*
X57002402Y-74109058D01*
X56830348Y-74224020D01*
X56684020Y-74370348D01*
X56569058Y-74542402D01*
X56489869Y-74733581D01*
X56449500Y-74936532D01*
X50500500Y-74936532D01*
X50500500Y-72413424D01*
X56400000Y-72413424D01*
X56400000Y-72586575D01*
X56427084Y-72757579D01*
X56480588Y-72922248D01*
X56559195Y-73076524D01*
X56559197Y-73076528D01*
X56623219Y-73164646D01*
X57056328Y-72731536D01*
X57099901Y-72807007D01*
X57192993Y-72900099D01*
X57268460Y-72943670D01*
X56835352Y-73376778D01*
X56923477Y-73440805D01*
X57077751Y-73519411D01*
X57242420Y-73572915D01*
X57413425Y-73600000D01*
X57586575Y-73600000D01*
X57757579Y-73572915D01*
X57922248Y-73519411D01*
X58076524Y-73440804D01*
X58076530Y-73440800D01*
X58164646Y-73376779D01*
X58164646Y-73376778D01*
X57731538Y-72943670D01*
X57807007Y-72900099D01*
X57900099Y-72807007D01*
X57943670Y-72731538D01*
X58376778Y-73164646D01*
X58376779Y-73164646D01*
X58440800Y-73076530D01*
X58440804Y-73076524D01*
X58519411Y-72922248D01*
X58572915Y-72757579D01*
X58600000Y-72586575D01*
X58600000Y-72413426D01*
X58599788Y-72412088D01*
X58599788Y-72412086D01*
X58599787Y-72412082D01*
X58598104Y-72401456D01*
X78999500Y-72401456D01*
X78999500Y-72598543D01*
X79037949Y-72791834D01*
X79037949Y-72791836D01*
X79113367Y-72973913D01*
X79113368Y-72973914D01*
X79222861Y-73137782D01*
X79362218Y-73277139D01*
X79526086Y-73386632D01*
X79708165Y-73462051D01*
X79901459Y-73500500D01*
X79901460Y-73500500D01*
X80098540Y-73500500D01*
X80098541Y-73500500D01*
X80291835Y-73462051D01*
X80473914Y-73386632D01*
X80637782Y-73277139D01*
X80777139Y-73137782D01*
X80886632Y-72973914D01*
X80962051Y-72791835D01*
X81000500Y-72598541D01*
X81000500Y-72401459D01*
X81000499Y-72401456D01*
X80999529Y-72396581D01*
X83950000Y-72396581D01*
X83950000Y-72603418D01*
X83990349Y-72806272D01*
X84069501Y-72997361D01*
X84158022Y-73129843D01*
X84629532Y-72658332D01*
X84679920Y-72745606D01*
X84754394Y-72820080D01*
X84841665Y-72870465D01*
X84370154Y-73341977D01*
X84502625Y-73430491D01*
X84502639Y-73430498D01*
X84693727Y-73509650D01*
X84896581Y-73549999D01*
X84896586Y-73550000D01*
X85103414Y-73550000D01*
X85103418Y-73549999D01*
X85306272Y-73509650D01*
X85497360Y-73430498D01*
X85629843Y-73341976D01*
X85158333Y-72870466D01*
X85245606Y-72820080D01*
X85320080Y-72745606D01*
X85370466Y-72658333D01*
X85841976Y-73129843D01*
X85930498Y-72997360D01*
X86009650Y-72806272D01*
X86049999Y-72603418D01*
X86050000Y-72603413D01*
X86050000Y-72396586D01*
X86049999Y-72396581D01*
X86009650Y-72193727D01*
X85930498Y-72002639D01*
X85930491Y-72002625D01*
X85841976Y-71870154D01*
X85370465Y-72341665D01*
X85320080Y-72254394D01*
X85245606Y-72179920D01*
X85158332Y-72129532D01*
X85629843Y-71658022D01*
X85497361Y-71569501D01*
X85306272Y-71490349D01*
X85103418Y-71450000D01*
X84896581Y-71450000D01*
X84693727Y-71490349D01*
X84502638Y-71569501D01*
X84370155Y-71658022D01*
X84841666Y-72129533D01*
X84754394Y-72179920D01*
X84679920Y-72254394D01*
X84629533Y-72341666D01*
X84158022Y-71870155D01*
X84069501Y-72002638D01*
X83990349Y-72193727D01*
X83950000Y-72396581D01*
X80999529Y-72396581D01*
X80981712Y-72307007D01*
X80962051Y-72208165D01*
X80886632Y-72026086D01*
X80777139Y-71862218D01*
X80637782Y-71722861D01*
X80473914Y-71613368D01*
X80473915Y-71613368D01*
X80473913Y-71613367D01*
X80291835Y-71537949D01*
X80098543Y-71499500D01*
X80098541Y-71499500D01*
X79901459Y-71499500D01*
X79901456Y-71499500D01*
X79708165Y-71537949D01*
X79708163Y-71537949D01*
X79526086Y-71613367D01*
X79362218Y-71722861D01*
X79362214Y-71722864D01*
X79222864Y-71862214D01*
X79222861Y-71862218D01*
X79113367Y-72026086D01*
X79037949Y-72208163D01*
X79037949Y-72208165D01*
X78999500Y-72401456D01*
X58598104Y-72401456D01*
X58572915Y-72242420D01*
X58519411Y-72077751D01*
X58440805Y-71923477D01*
X58376778Y-71835352D01*
X57943670Y-72268460D01*
X57900099Y-72192993D01*
X57807007Y-72099901D01*
X57731536Y-72056328D01*
X58164646Y-71623219D01*
X58076528Y-71559197D01*
X58076524Y-71559195D01*
X57922248Y-71480588D01*
X57757579Y-71427084D01*
X57586575Y-71400000D01*
X57413425Y-71400000D01*
X57242420Y-71427084D01*
X57077751Y-71480588D01*
X56923476Y-71559195D01*
X56835352Y-71623219D01*
X57268461Y-72056328D01*
X57192993Y-72099901D01*
X57099901Y-72192993D01*
X57056328Y-72268461D01*
X56623219Y-71835352D01*
X56559195Y-71923476D01*
X56480588Y-72077751D01*
X56427084Y-72242420D01*
X56400000Y-72413424D01*
X50500500Y-72413424D01*
X50500500Y-69090253D01*
X56449500Y-69090253D01*
X56449500Y-70829746D01*
X56449501Y-70829758D01*
X56458638Y-70875690D01*
X56461133Y-70888231D01*
X56505448Y-70954552D01*
X56571769Y-70998867D01*
X56616231Y-71007711D01*
X56630241Y-71010498D01*
X56630246Y-71010498D01*
X56630252Y-71010500D01*
X56630253Y-71010500D01*
X58369747Y-71010500D01*
X58369748Y-71010500D01*
X58428231Y-70998867D01*
X58494552Y-70954552D01*
X58538867Y-70888231D01*
X58550500Y-70829748D01*
X58550500Y-69090252D01*
X58538867Y-69031769D01*
X58494552Y-68965448D01*
X58494548Y-68965445D01*
X58428233Y-68921134D01*
X58428231Y-68921133D01*
X58428228Y-68921132D01*
X58428227Y-68921132D01*
X58369758Y-68909501D01*
X58369748Y-68909500D01*
X56630252Y-68909500D01*
X56630251Y-68909500D01*
X56630241Y-68909501D01*
X56571772Y-68921132D01*
X56571766Y-68921134D01*
X56505451Y-68965445D01*
X56505445Y-68965451D01*
X56461134Y-69031766D01*
X56461132Y-69031772D01*
X56449501Y-69090241D01*
X56449500Y-69090253D01*
X50500500Y-69090253D01*
X50500500Y-59905515D01*
X63179500Y-59905515D01*
X63179500Y-60094484D01*
X63209058Y-60281113D01*
X63267453Y-60460832D01*
X63343987Y-60611040D01*
X63353240Y-60629199D01*
X63464310Y-60782073D01*
X63597927Y-60915690D01*
X63750801Y-61026760D01*
X63919168Y-61112547D01*
X64098882Y-61170940D01*
X64098883Y-61170940D01*
X64098886Y-61170941D01*
X64285516Y-61200500D01*
X64285519Y-61200500D01*
X64474484Y-61200500D01*
X64661113Y-61170941D01*
X64661114Y-61170940D01*
X64661118Y-61170940D01*
X64840832Y-61112547D01*
X64926952Y-61068665D01*
X64987382Y-61059094D01*
X65041899Y-61086870D01*
X74099540Y-70144511D01*
X74099539Y-70144511D01*
X74155489Y-70200460D01*
X74224007Y-70240019D01*
X74224011Y-70240021D01*
X74300435Y-70260499D01*
X74300437Y-70260500D01*
X74300438Y-70260500D01*
X74379562Y-70260500D01*
X133723430Y-70260500D01*
X133781621Y-70279407D01*
X133817584Y-70328906D01*
X133847453Y-70420832D01*
X133933240Y-70589199D01*
X134044310Y-70742073D01*
X134177927Y-70875690D01*
X134330801Y-70986760D01*
X134499168Y-71072547D01*
X134678882Y-71130940D01*
X134678883Y-71130940D01*
X134678886Y-71130941D01*
X134865516Y-71160500D01*
X134865519Y-71160500D01*
X135054484Y-71160500D01*
X135241113Y-71130941D01*
X135241114Y-71130940D01*
X135241118Y-71130940D01*
X135420832Y-71072547D01*
X135589199Y-70986760D01*
X135742073Y-70875690D01*
X135875690Y-70742073D01*
X135986760Y-70589199D01*
X136072547Y-70420832D01*
X136130940Y-70241118D01*
X136160500Y-70054481D01*
X136160500Y-69865519D01*
X136160500Y-69865515D01*
X136130941Y-69678886D01*
X136102415Y-69591093D01*
X136072547Y-69499168D01*
X135986760Y-69330801D01*
X135875690Y-69177927D01*
X135742073Y-69044310D01*
X135589199Y-68933240D01*
X135589198Y-68933239D01*
X135589196Y-68933238D01*
X135439981Y-68857210D01*
X135396716Y-68813945D01*
X135387145Y-68753513D01*
X135414922Y-68698997D01*
X135469439Y-68671219D01*
X135484926Y-68670000D01*
X135984623Y-68670000D01*
X135984624Y-68669999D01*
X136057546Y-68655493D01*
X136057548Y-68655492D01*
X136140237Y-68600241D01*
X136140241Y-68600237D01*
X136195492Y-68517548D01*
X136195493Y-68517546D01*
X136209999Y-68444624D01*
X136210000Y-68444622D01*
X136210000Y-67570001D01*
X136209999Y-67570000D01*
X135437445Y-67570000D01*
X135460000Y-67485826D01*
X135460000Y-67354174D01*
X135437445Y-67270000D01*
X136209999Y-67270000D01*
X136210000Y-67269999D01*
X136210000Y-66517800D01*
X136228907Y-66459609D01*
X136278407Y-66423645D01*
X136309000Y-66418800D01*
X138572821Y-66418800D01*
X138631012Y-66437707D01*
X138642825Y-66447796D01*
X138953127Y-66758098D01*
X138980904Y-66812615D01*
X138971333Y-66873046D01*
X138927454Y-66959164D01*
X138869058Y-67138886D01*
X138839500Y-67325515D01*
X138839500Y-67514484D01*
X138869058Y-67701113D01*
X138927453Y-67880832D01*
X139013240Y-68049199D01*
X139124310Y-68202073D01*
X139257927Y-68335690D01*
X139410801Y-68446760D01*
X139579168Y-68532547D01*
X139758882Y-68590940D01*
X139758883Y-68590940D01*
X139758886Y-68590941D01*
X139766954Y-68592219D01*
X139821471Y-68619996D01*
X139849248Y-68674513D01*
X139839677Y-68734945D01*
X139796412Y-68778210D01*
X139766954Y-68787781D01*
X139758886Y-68789058D01*
X139579167Y-68847453D01*
X139410803Y-68933238D01*
X139257928Y-69044309D01*
X139124309Y-69177928D01*
X139013238Y-69330803D01*
X138927453Y-69499167D01*
X138869058Y-69678886D01*
X138839500Y-69865515D01*
X138839500Y-70054484D01*
X138869058Y-70241113D01*
X138927453Y-70420832D01*
X139013240Y-70589199D01*
X139124310Y-70742073D01*
X139257927Y-70875690D01*
X139410801Y-70986760D01*
X139579168Y-71072547D01*
X139758882Y-71130940D01*
X139758883Y-71130940D01*
X139758886Y-71130941D01*
X139945516Y-71160500D01*
X139945519Y-71160500D01*
X140134484Y-71160500D01*
X140321113Y-71130941D01*
X140321114Y-71130940D01*
X140321118Y-71130940D01*
X140500832Y-71072547D01*
X140669199Y-70986760D01*
X140822073Y-70875690D01*
X140955690Y-70742073D01*
X141066760Y-70589199D01*
X141152547Y-70420832D01*
X141210940Y-70241118D01*
X141240500Y-70054481D01*
X141240500Y-69865519D01*
X141240500Y-69865515D01*
X141210941Y-69678886D01*
X141182415Y-69591093D01*
X141152547Y-69499168D01*
X141066760Y-69330801D01*
X140955690Y-69177927D01*
X140822073Y-69044310D01*
X140669199Y-68933240D01*
X140669198Y-68933239D01*
X140669196Y-68933238D01*
X140500832Y-68847453D01*
X140321113Y-68789058D01*
X140313046Y-68787781D01*
X140258529Y-68760004D01*
X140230751Y-68705488D01*
X140240322Y-68645056D01*
X140283586Y-68601791D01*
X140313046Y-68592219D01*
X140321113Y-68590941D01*
X140321114Y-68590940D01*
X140321118Y-68590940D01*
X140500832Y-68532547D01*
X140669199Y-68446760D01*
X140822073Y-68335690D01*
X140955690Y-68202073D01*
X141066760Y-68049199D01*
X141152547Y-67880832D01*
X141210940Y-67701118D01*
X141210941Y-67701113D01*
X141240500Y-67514484D01*
X141240500Y-67325515D01*
X141210941Y-67138886D01*
X141202528Y-67112993D01*
X141152547Y-66959168D01*
X141066760Y-66790801D01*
X140955690Y-66637927D01*
X140822073Y-66504310D01*
X140669199Y-66393240D01*
X140669198Y-66393239D01*
X140669196Y-66393238D01*
X140500832Y-66307453D01*
X140321113Y-66249058D01*
X140134484Y-66219500D01*
X140134481Y-66219500D01*
X139945519Y-66219500D01*
X139945516Y-66219500D01*
X139758886Y-66249058D01*
X139579164Y-66307454D01*
X139493046Y-66351333D01*
X139432614Y-66360904D01*
X139378099Y-66333127D01*
X138922810Y-65877839D01*
X138854292Y-65838280D01*
X138854288Y-65838278D01*
X138777864Y-65817800D01*
X138777862Y-65817800D01*
X123922138Y-65817800D01*
X123922135Y-65817800D01*
X123845711Y-65838278D01*
X123845707Y-65838280D01*
X123777189Y-65877839D01*
X123092022Y-66563004D01*
X123037506Y-66590781D01*
X122984134Y-66584464D01*
X122871835Y-66537949D01*
X122678543Y-66499500D01*
X122678541Y-66499500D01*
X122481459Y-66499500D01*
X122481456Y-66499500D01*
X122288165Y-66537949D01*
X122288163Y-66537949D01*
X122106086Y-66613367D01*
X121942218Y-66722861D01*
X121942214Y-66722864D01*
X121802864Y-66862214D01*
X121802861Y-66862218D01*
X121693367Y-67026086D01*
X121617949Y-67208163D01*
X121617949Y-67208165D01*
X121579500Y-67401456D01*
X121579500Y-67598543D01*
X121617949Y-67791834D01*
X121617949Y-67791836D01*
X121693367Y-67973913D01*
X121693368Y-67973914D01*
X121802861Y-68137782D01*
X121942218Y-68277139D01*
X122106086Y-68386632D01*
X122288165Y-68462051D01*
X122481459Y-68500500D01*
X122481460Y-68500500D01*
X122678540Y-68500500D01*
X122678541Y-68500500D01*
X122871835Y-68462051D01*
X123053914Y-68386632D01*
X123217782Y-68277139D01*
X123357139Y-68137782D01*
X123466632Y-67973914D01*
X123542051Y-67791835D01*
X123580500Y-67598541D01*
X123580500Y-67401459D01*
X123542051Y-67208165D01*
X123495533Y-67095862D01*
X123490733Y-67034868D01*
X123516995Y-66987975D01*
X124057176Y-66447796D01*
X124111692Y-66420019D01*
X124127179Y-66418800D01*
X133611000Y-66418800D01*
X133669191Y-66437707D01*
X133705155Y-66487207D01*
X133710000Y-66517800D01*
X133710000Y-67269999D01*
X133710001Y-67270000D01*
X134482555Y-67270000D01*
X134460000Y-67354174D01*
X134460000Y-67485826D01*
X134482555Y-67570000D01*
X133710001Y-67570000D01*
X133710000Y-67570001D01*
X133710000Y-68444624D01*
X133724506Y-68517546D01*
X133724507Y-68517548D01*
X133779758Y-68600237D01*
X133779762Y-68600241D01*
X133862451Y-68655492D01*
X133862453Y-68655493D01*
X133935375Y-68669999D01*
X133935377Y-68670000D01*
X134435074Y-68670000D01*
X134493265Y-68688907D01*
X134529229Y-68738407D01*
X134529229Y-68799593D01*
X134493265Y-68849093D01*
X134480019Y-68857210D01*
X134330803Y-68933238D01*
X134177928Y-69044309D01*
X134044309Y-69177928D01*
X133933238Y-69330803D01*
X133847453Y-69499167D01*
X133817585Y-69591093D01*
X133781621Y-69640593D01*
X133723430Y-69659500D01*
X74505479Y-69659500D01*
X74447288Y-69640593D01*
X74435475Y-69630504D01*
X72206427Y-67401456D01*
X111419500Y-67401456D01*
X111419500Y-67598543D01*
X111457949Y-67791834D01*
X111457949Y-67791836D01*
X111533367Y-67973913D01*
X111533368Y-67973914D01*
X111642861Y-68137782D01*
X111782218Y-68277139D01*
X111946086Y-68386632D01*
X112128165Y-68462051D01*
X112321459Y-68500500D01*
X112321460Y-68500500D01*
X112518540Y-68500500D01*
X112518541Y-68500500D01*
X112711835Y-68462051D01*
X112893914Y-68386632D01*
X113057782Y-68277139D01*
X113197139Y-68137782D01*
X113306632Y-67973914D01*
X113382051Y-67791835D01*
X113420500Y-67598541D01*
X113420500Y-67401459D01*
X113382051Y-67208165D01*
X113306632Y-67026086D01*
X113197139Y-66862218D01*
X113057782Y-66722861D01*
X112893914Y-66613368D01*
X112893915Y-66613368D01*
X112893913Y-66613367D01*
X112711835Y-66537949D01*
X112518543Y-66499500D01*
X112518541Y-66499500D01*
X112321459Y-66499500D01*
X112321456Y-66499500D01*
X112128165Y-66537949D01*
X112128163Y-66537949D01*
X111946086Y-66613367D01*
X111782218Y-66722861D01*
X111782214Y-66722864D01*
X111642864Y-66862214D01*
X111642861Y-66862218D01*
X111533367Y-67026086D01*
X111457949Y-67208163D01*
X111457949Y-67208165D01*
X111419500Y-67401456D01*
X72206427Y-67401456D01*
X65466871Y-60661900D01*
X65439094Y-60607383D01*
X65448664Y-60546955D01*
X65492547Y-60460832D01*
X65550940Y-60281118D01*
X65550941Y-60281113D01*
X65580500Y-60094484D01*
X65580500Y-59905515D01*
X78419500Y-59905515D01*
X78419500Y-60094484D01*
X78449058Y-60281113D01*
X78507453Y-60460832D01*
X78583987Y-60611040D01*
X78593240Y-60629199D01*
X78704310Y-60782073D01*
X78837927Y-60915690D01*
X78990801Y-61026760D01*
X79159168Y-61112547D01*
X79338882Y-61170940D01*
X79338883Y-61170940D01*
X79338886Y-61170941D01*
X79525516Y-61200500D01*
X79525519Y-61200500D01*
X79714484Y-61200500D01*
X79901113Y-61170941D01*
X79901114Y-61170940D01*
X79901118Y-61170940D01*
X80080832Y-61112547D01*
X80249199Y-61026760D01*
X80402073Y-60915690D01*
X80535690Y-60782073D01*
X80646760Y-60629199D01*
X80732547Y-60460832D01*
X80762415Y-60368906D01*
X80798379Y-60319407D01*
X80856570Y-60300500D01*
X86650500Y-60300500D01*
X86708691Y-60319407D01*
X86744655Y-60368907D01*
X86749500Y-60399500D01*
X86749500Y-60604274D01*
X86752353Y-60634694D01*
X86752355Y-60634703D01*
X86797207Y-60762883D01*
X86877845Y-60872144D01*
X86877847Y-60872146D01*
X86877850Y-60872150D01*
X86877853Y-60872152D01*
X86877855Y-60872154D01*
X86987116Y-60952792D01*
X86987117Y-60952792D01*
X86987118Y-60952793D01*
X87115301Y-60997646D01*
X87145725Y-61000499D01*
X87145727Y-61000500D01*
X87145734Y-61000500D01*
X88354273Y-61000500D01*
X88354273Y-61000499D01*
X88384699Y-60997646D01*
X88512882Y-60952793D01*
X88622150Y-60872150D01*
X88702793Y-60762882D01*
X88747646Y-60634699D01*
X88750499Y-60604273D01*
X88750500Y-60604273D01*
X88750500Y-59465479D01*
X88769407Y-59407288D01*
X88779496Y-59395475D01*
X89016975Y-59157996D01*
X89071492Y-59130219D01*
X89086979Y-59129000D01*
X89550125Y-59129000D01*
X89608316Y-59147907D01*
X89620129Y-59157996D01*
X90091666Y-59629533D01*
X90004394Y-59679920D01*
X89929920Y-59754394D01*
X89879533Y-59841666D01*
X89408022Y-59370155D01*
X89319501Y-59502638D01*
X89240349Y-59693727D01*
X89200000Y-59896581D01*
X89200000Y-60103418D01*
X89240349Y-60306272D01*
X89319501Y-60497361D01*
X89408022Y-60629843D01*
X89879532Y-60158332D01*
X89929920Y-60245606D01*
X90004394Y-60320080D01*
X90091665Y-60370465D01*
X89620154Y-60841977D01*
X89752625Y-60930491D01*
X89752639Y-60930498D01*
X89943727Y-61009650D01*
X90146581Y-61049999D01*
X90146586Y-61050000D01*
X90353414Y-61050000D01*
X90353418Y-61049999D01*
X90556272Y-61009650D01*
X90747360Y-60930498D01*
X90879843Y-60841976D01*
X90408333Y-60370466D01*
X90495606Y-60320080D01*
X90570080Y-60245606D01*
X90620466Y-60158333D01*
X91091976Y-60629843D01*
X91180498Y-60497360D01*
X91259650Y-60306272D01*
X91299999Y-60103418D01*
X91300000Y-60103413D01*
X91300000Y-59896586D01*
X91299999Y-59896581D01*
X91259650Y-59693727D01*
X91180498Y-59502639D01*
X91180491Y-59502625D01*
X91091976Y-59370154D01*
X90620465Y-59841665D01*
X90570080Y-59754394D01*
X90495606Y-59679920D01*
X90408332Y-59629532D01*
X90879870Y-59157996D01*
X90934387Y-59130219D01*
X90949874Y-59129000D01*
X94163021Y-59129000D01*
X94221212Y-59147907D01*
X94233025Y-59157996D01*
X94563004Y-59487975D01*
X94590781Y-59542492D01*
X94584464Y-59595864D01*
X94543930Y-59693727D01*
X94537948Y-59708168D01*
X94499500Y-59901456D01*
X94499500Y-60098543D01*
X94537949Y-60291834D01*
X94537949Y-60291836D01*
X94613367Y-60473913D01*
X94613368Y-60473914D01*
X94722861Y-60637782D01*
X94862218Y-60777139D01*
X95026086Y-60886632D01*
X95208165Y-60962051D01*
X95401459Y-61000500D01*
X95401460Y-61000500D01*
X95598540Y-61000500D01*
X95598541Y-61000500D01*
X95791835Y-60962051D01*
X95973914Y-60886632D01*
X96137782Y-60777139D01*
X96277139Y-60637782D01*
X96386632Y-60473914D01*
X96462051Y-60291835D01*
X96500500Y-60098541D01*
X96500500Y-59901459D01*
X96500499Y-59901456D01*
X96499529Y-59896581D01*
X99450000Y-59896581D01*
X99450000Y-60103418D01*
X99490349Y-60306272D01*
X99569501Y-60497361D01*
X99658022Y-60629843D01*
X100129532Y-60158332D01*
X100179920Y-60245606D01*
X100254394Y-60320080D01*
X100341665Y-60370465D01*
X99870154Y-60841977D01*
X100002625Y-60930491D01*
X100002639Y-60930498D01*
X100193727Y-61009650D01*
X100396581Y-61049999D01*
X100396586Y-61050000D01*
X100603414Y-61050000D01*
X100603418Y-61049999D01*
X100806272Y-61009650D01*
X100997360Y-60930498D01*
X101129843Y-60841976D01*
X100658333Y-60370466D01*
X100745606Y-60320080D01*
X100820080Y-60245606D01*
X100870466Y-60158333D01*
X101341976Y-60629843D01*
X101430498Y-60497360D01*
X101509650Y-60306272D01*
X101549999Y-60103418D01*
X101550000Y-60103413D01*
X101550000Y-59896586D01*
X101549999Y-59896581D01*
X101509650Y-59693727D01*
X101430498Y-59502639D01*
X101430491Y-59502625D01*
X101341976Y-59370154D01*
X100870465Y-59841665D01*
X100820080Y-59754394D01*
X100745606Y-59679920D01*
X100658332Y-59629532D01*
X101129843Y-59158022D01*
X100997361Y-59069501D01*
X100806272Y-58990349D01*
X100603418Y-58950000D01*
X100396581Y-58950000D01*
X100193727Y-58990349D01*
X100002638Y-59069501D01*
X99870155Y-59158022D01*
X100341666Y-59629533D01*
X100254394Y-59679920D01*
X100179920Y-59754394D01*
X100129533Y-59841666D01*
X99658022Y-59370155D01*
X99569501Y-59502638D01*
X99490349Y-59693727D01*
X99450000Y-59896581D01*
X96499529Y-59896581D01*
X96489390Y-59845606D01*
X96462051Y-59708165D01*
X96386632Y-59526086D01*
X96277139Y-59362218D01*
X96137782Y-59222861D01*
X96025605Y-59147907D01*
X95973913Y-59113367D01*
X95791835Y-59037949D01*
X95598543Y-58999500D01*
X95598541Y-58999500D01*
X95401459Y-58999500D01*
X95401456Y-58999500D01*
X95208168Y-59037948D01*
X95208166Y-59037948D01*
X95208165Y-59037949D01*
X95185814Y-59047207D01*
X95095864Y-59084465D01*
X95034867Y-59089264D01*
X94987976Y-59063004D01*
X94513010Y-58588039D01*
X94444492Y-58548480D01*
X94444488Y-58548478D01*
X94368064Y-58528000D01*
X94368062Y-58528000D01*
X88881938Y-58528000D01*
X88881935Y-58528000D01*
X88805511Y-58548478D01*
X88805507Y-58548480D01*
X88736989Y-58588039D01*
X88354524Y-58970504D01*
X88300008Y-58998281D01*
X88284521Y-58999500D01*
X87145725Y-58999500D01*
X87115305Y-59002353D01*
X87115296Y-59002355D01*
X86987116Y-59047207D01*
X86877855Y-59127845D01*
X86877845Y-59127855D01*
X86797207Y-59237116D01*
X86752355Y-59365296D01*
X86752353Y-59365305D01*
X86749500Y-59395725D01*
X86749500Y-59600500D01*
X86730593Y-59658691D01*
X86681093Y-59694655D01*
X86650500Y-59699500D01*
X80856570Y-59699500D01*
X80798379Y-59680593D01*
X80762415Y-59631093D01*
X80752475Y-59600500D01*
X80732547Y-59539168D01*
X80646760Y-59370801D01*
X80535690Y-59217927D01*
X80402073Y-59084310D01*
X80249199Y-58973240D01*
X80249198Y-58973239D01*
X80249196Y-58973238D01*
X80080832Y-58887453D01*
X79901113Y-58829058D01*
X79714484Y-58799500D01*
X79714481Y-58799500D01*
X79525519Y-58799500D01*
X79525516Y-58799500D01*
X79338886Y-58829058D01*
X79159167Y-58887453D01*
X78990803Y-58973238D01*
X78837928Y-59084309D01*
X78704309Y-59217928D01*
X78593238Y-59370803D01*
X78507453Y-59539167D01*
X78449058Y-59718886D01*
X78419500Y-59905515D01*
X65580500Y-59905515D01*
X65550941Y-59718886D01*
X65550940Y-59718882D01*
X65492547Y-59539168D01*
X65406760Y-59370801D01*
X65295690Y-59217927D01*
X65162073Y-59084310D01*
X65009199Y-58973240D01*
X65009198Y-58973239D01*
X65009196Y-58973238D01*
X64840832Y-58887453D01*
X64661113Y-58829058D01*
X64474484Y-58799500D01*
X64474481Y-58799500D01*
X64285519Y-58799500D01*
X64285516Y-58799500D01*
X64098886Y-58829058D01*
X63919167Y-58887453D01*
X63750803Y-58973238D01*
X63597928Y-59084309D01*
X63464309Y-59217928D01*
X63353238Y-59370803D01*
X63267453Y-59539167D01*
X63209058Y-59718886D01*
X63179500Y-59905515D01*
X50500500Y-59905515D01*
X50500500Y-52893709D01*
X160649500Y-52893709D01*
X160649500Y-53106290D01*
X160682752Y-53316238D01*
X160748443Y-53518412D01*
X160844948Y-53707815D01*
X160844950Y-53707819D01*
X160969891Y-53879786D01*
X160969893Y-53879788D01*
X160969896Y-53879792D01*
X161120208Y-54030104D01*
X161120211Y-54030106D01*
X161120213Y-54030108D01*
X161292180Y-54155049D01*
X161292184Y-54155051D01*
X161481588Y-54251557D01*
X161683757Y-54317246D01*
X161683758Y-54317246D01*
X161683761Y-54317247D01*
X161893710Y-54350500D01*
X161893713Y-54350500D01*
X162106290Y-54350500D01*
X162316238Y-54317247D01*
X162316239Y-54317246D01*
X162316243Y-54317246D01*
X162518412Y-54251557D01*
X162707816Y-54155051D01*
X162879792Y-54030104D01*
X163030104Y-53879792D01*
X163155051Y-53707816D01*
X163251557Y-53518412D01*
X163317246Y-53316243D01*
X163350500Y-53106287D01*
X163350500Y-52893713D01*
X163350500Y-52893709D01*
X163317247Y-52683761D01*
X163317246Y-52683757D01*
X163251557Y-52481588D01*
X163155051Y-52292184D01*
X163155049Y-52292180D01*
X163030108Y-52120213D01*
X163030106Y-52120211D01*
X163030104Y-52120208D01*
X162879792Y-51969896D01*
X162879788Y-51969893D01*
X162879786Y-51969891D01*
X162707819Y-51844950D01*
X162707815Y-51844948D01*
X162518412Y-51748443D01*
X162316238Y-51682752D01*
X162106290Y-51649500D01*
X162106287Y-51649500D01*
X161893713Y-51649500D01*
X161893710Y-51649500D01*
X161683761Y-51682752D01*
X161481587Y-51748443D01*
X161292184Y-51844948D01*
X161292180Y-51844950D01*
X161120213Y-51969891D01*
X160969891Y-52120213D01*
X160844950Y-52292180D01*
X160844948Y-52292184D01*
X160748443Y-52481587D01*
X160682752Y-52683761D01*
X160649500Y-52893709D01*
X50500500Y-52893709D01*
X50500500Y-50599500D01*
X50519407Y-50541309D01*
X50568907Y-50505345D01*
X50599500Y-50500500D01*
X164400500Y-50500500D01*
X164458691Y-50519407D01*
G37*
G04 #@! TD.AperFunction*
M02*
