M48
; DRILL file {KiCad 9.0.2+dfsg-1} date 2026-10-09T12:30:52+0000
; FORMAT={-:-/ absolute / metric / decimal}
; #@! TF.CreationDate,2026-10-09T12:30:52+00:00
; #@! TF.GenerationSoftware,Kicad,Pcbnew,9.0.2+dfsg-1
; #@! TF.FileFunction,Plated,1,2,PTH
FMAT,2
METRIC
; #@! TA.AperFunction,Plated,PTH,ComponentDrill
T1C0.800
; #@! TA.AperFunction,Plated,PTH,ComponentDrill
T2C0.900
; #@! TA.AperFunction,Plated,PTH,ComponentDrill
T3C1.000
; #@! TA.AperFunction,Plated,PTH,ComponentDrill
T4C1.300
%
G90
G05
T1
X67.42Y-110.0
X68.75Y-100.0
X71.25Y-100.0
X77.58Y-110.0
X80.0Y-72.5
X81.19Y-83.69
X81.19Y-86.23
X81.19Y-88.77
X81.19Y-91.31
X83.75Y-115.0
X85.0Y-72.5
X86.25Y-115.0
X87.75Y-60.0
X88.81Y-83.69
X88.81Y-86.23
X88.81Y-88.77
X88.81Y-91.31
X89.92Y-105.0
X89.92Y-112.5
X89.92Y-122.5
X90.25Y-60.0
X95.5Y-60.0
X100.08Y-105.0
X100.08Y-112.5
X100.08Y-122.5
X100.5Y-60.0
X102.42Y-112.5
X103.75Y-122.5
X104.92Y-97.5
X106.25Y-122.5
X111.25Y-80.0
X112.42Y-67.5
X112.58Y-112.5
X113.75Y-80.0
X114.92Y-125.0
X115.08Y-97.5
X117.46Y-112.5
X120.0Y-112.5
X122.54Y-112.5
X122.58Y-67.5
X125.08Y-125.0
X126.19Y-100.0
X127.42Y-112.5
X133.81Y-100.0
X137.42Y-117.5
X137.58Y-112.5
X147.58Y-117.5
T2
X64.38Y-60.0
X79.62Y-60.0
T3
X57.5Y-69.96
X57.5Y-72.5
X57.5Y-75.04
X57.5Y-98.73
X57.5Y-101.27
X134.96Y-67.42
X134.96Y-69.96
X134.96Y-77.58
X140.04Y-67.42
X140.04Y-69.96
X140.04Y-77.58
X155.0Y-91.23
X155.0Y-93.77
X155.0Y-113.73
X155.0Y-116.27
T4
X139.88Y-102.5
X155.12Y-102.5
M30
