M48
; DRILL file {KiCad 9.0.2+dfsg-1} date 2026-10-09T12:30:49+0000
; FORMAT={-:-/ absolute / metric / decimal}
; #@! TF.CreationDate,2026-10-09T12:30:49+00:00
; #@! TF.GenerationSoftware,Kicad,Pcbnew,9.0.2+dfsg-1
; #@! TF.FileFunction,Plated,1,2,PTH
FMAT,2
METRIC
; #@! TA.AperFunction,Plated,PTH,ComponentDrill
T1C0.700
; #@! TA.AperFunction,Plated,PTH,ComponentDrill
T2C0.800
; #@! TA.AperFunction,Plated,PTH,ComponentDrill
T3C0.900
; #@! TA.AperFunction,Plated,PTH,ComponentDrill
T4C1.000
; #@! TA.AperFunction,Plated,PTH,ComponentDrill
T5C1.300
%
G90
G05
T1
X121.19Y-103.11
X121.19Y-110.73
X121.19Y-115.81
X121.19Y-120.89
X128.81Y-103.11
X128.81Y-110.73
X128.81Y-115.81
X128.81Y-120.89
T2
X64.75Y-81.23
X67.25Y-81.23
X72.42Y-81.23
X77.92Y-103.0
X79.92Y-120.0
X81.0Y-62.92
X81.0Y-73.08
X82.58Y-81.23
X85.0Y-74.0
X86.23Y-81.23
X88.08Y-103.0
X88.77Y-81.23
X89.75Y-127.0
X90.0Y-74.0
X90.08Y-120.0
X90.5Y-91.0
X92.25Y-127.0
X92.75Y-100.0
X95.25Y-100.0
X95.5Y-91.0
X97.0Y-114.92
X97.0Y-125.08
X98.0Y-89.0
X99.23Y-82.5
X100.0Y-76.25
X100.0Y-78.75
X100.92Y-103.0
X101.77Y-82.5
X103.0Y-89.0
X104.46Y-119.0
X105.5Y-128.0
X105.92Y-82.5
X105.92Y-100.0
X106.25Y-66.0
X107.0Y-119.0
X109.54Y-119.0
X109.75Y-66.0
X110.5Y-128.0
X111.08Y-103.0
X113.25Y-109.0
X116.08Y-82.5
X116.08Y-100.0
X116.75Y-109.0
X119.19Y-126.0
X121.75Y-82.5
X124.25Y-82.5
X126.81Y-126.0
X128.0Y-64.92
X128.0Y-75.08
X135.0Y-99.92
X135.0Y-110.08
X139.0Y-112.92
X139.0Y-123.08
T3
X61.38Y-124.0
X76.62Y-124.0
T4
X55.0Y-69.46
X55.0Y-72.0
X55.0Y-74.54
X55.0Y-105.46
X55.0Y-108.0
X55.0Y-110.54
X140.0Y-71.46
X140.0Y-74.0
X140.0Y-76.54
T5
X127.38Y-59.5
X127.38Y-90.0
X142.62Y-59.5
X142.62Y-90.0
M30
