G04 #@! TF.GenerationSoftware,KiCad,Pcbnew,9.0.2+dfsg-1*
G04 #@! TF.CreationDate,2026-10-09T12:30:48+00:00*
G04 #@! TF.ProjectId,Ardor_Headphones_THT,4172646f-725f-4486-9561-6470686f6e65,rev?*
G04 #@! TF.SameCoordinates,Original*
G04 #@! TF.FileFunction,Soldermask,Bot*
G04 #@! TF.FilePolarity,Negative*
%FSLAX46Y46*%
G04 Gerber Fmt 4.6, Leading zero omitted, Abs format (unit mm)*
G04 Created by KiCad (PCBNEW 9.0.2+dfsg-1) date 2026-10-09 12:30:48*
%MOMM*%
%LPD*%
G01*
G04 APERTURE LIST*
G04 Aperture macros list*
%AMRoundRect*
0 Rectangle with rounded corners*
0 $1 Rounding radius*
0 $2 $3 $4 $5 $6 $7 $8 $9 X,Y pos of 4 corners*
0 Add a 4 corners polygon primitive as box body*
4,1,4,$2,$3,$4,$5,$6,$7,$8,$9,$2,$3,0*
0 Add four circle primitives for the rounded corners*
1,1,$1+$1,$2,$3*
1,1,$1+$1,$4,$5*
1,1,$1+$1,$6,$7*
1,1,$1+$1,$8,$9*
0 Add four rect primitives between the rounded corners*
20,1,$1+$1,$2,$3,$4,$5,0*
20,1,$1+$1,$4,$5,$6,$7,0*
20,1,$1+$1,$6,$7,$8,$9,0*
20,1,$1+$1,$8,$9,$2,$3,0*%
G04 Aperture macros list end*
%ADD10RoundRect,0.250000X-0.550000X-0.550000X0.550000X-0.550000X0.550000X0.550000X-0.550000X0.550000X0*%
%ADD11C,1.600000*%
%ADD12R,1.400000X1.400000*%
%ADD13C,1.400000*%
%ADD14R,1.700000X1.700000*%
%ADD15C,1.700000*%
%ADD16C,2.200000*%
%ADD17C,2.000000*%
%ADD18RoundRect,0.250000X-1.050000X-1.050000X1.050000X-1.050000X1.050000X1.050000X-1.050000X1.050000X0*%
%ADD19C,2.600000*%
%ADD20R,1.500000X1.500000*%
%ADD21C,1.500000*%
G04 APERTURE END LIST*
D10*
X121750000Y-82500000D03*
D11*
X124250000Y-82500000D03*
X101770000Y-82500000D03*
X99230000Y-82500000D03*
X90500000Y-91000000D03*
X95500000Y-91000000D03*
X105500000Y-128000000D03*
X110500000Y-128000000D03*
D10*
X113250000Y-109000000D03*
D11*
X116750000Y-109000000D03*
D12*
X121190000Y-103110000D03*
D13*
X121190000Y-110730000D03*
X121190000Y-115810000D03*
X121190000Y-120890000D03*
X128810000Y-120890000D03*
X128810000Y-115810000D03*
X128810000Y-110730000D03*
X128810000Y-103110000D03*
D11*
X100920000Y-103000000D03*
X111080000Y-103000000D03*
X139000000Y-123080000D03*
X139000000Y-112920000D03*
D10*
X89750000Y-127000000D03*
D11*
X92250000Y-127000000D03*
X97000000Y-125080000D03*
X97000000Y-114920000D03*
D10*
X92750000Y-100000000D03*
D11*
X95250000Y-100000000D03*
D10*
X119190000Y-126000000D03*
D11*
X126810000Y-126000000D03*
D10*
X64750000Y-81230000D03*
D11*
X67250000Y-81230000D03*
D14*
X55000000Y-105460000D03*
D15*
X55000000Y-108000000D03*
X55000000Y-110540000D03*
D16*
X143000000Y-53000000D03*
D11*
X85000000Y-74000000D03*
X90000000Y-74000000D03*
X81000000Y-73080000D03*
X81000000Y-62920000D03*
D14*
X55000000Y-69460000D03*
D15*
X55000000Y-72000000D03*
X55000000Y-74540000D03*
D11*
X116080000Y-82500000D03*
X105920000Y-82500000D03*
X105920000Y-100000000D03*
X116080000Y-100000000D03*
D17*
X61380000Y-124000000D03*
X76620000Y-124000000D03*
D11*
X77920000Y-103000000D03*
X88080000Y-103000000D03*
D18*
X127380000Y-59500000D03*
D19*
X142620000Y-59500000D03*
D11*
X135000000Y-110080000D03*
X135000000Y-99920000D03*
X103000000Y-89000000D03*
X98000000Y-89000000D03*
D18*
X127380000Y-90000000D03*
D19*
X142620000Y-90000000D03*
D16*
X53000000Y-131000000D03*
D14*
X140000000Y-71460000D03*
D15*
X140000000Y-74000000D03*
X140000000Y-76540000D03*
D11*
X79920000Y-120000000D03*
X90080000Y-120000000D03*
D10*
X106250000Y-66000000D03*
D11*
X109750000Y-66000000D03*
X100000000Y-78750000D03*
X100000000Y-76250000D03*
X72420000Y-81230000D03*
X82580000Y-81230000D03*
X86230000Y-81230000D03*
X88770000Y-81230000D03*
D20*
X104460000Y-119000000D03*
D21*
X107000000Y-119000000D03*
X109540000Y-119000000D03*
D11*
X128000000Y-75080000D03*
X128000000Y-64920000D03*
M02*
