G04 #@! TF.GenerationSoftware,KiCad,Pcbnew,9.0.2+dfsg-1*
G04 #@! TF.CreationDate,2026-10-09T12:30:48+00:00*
G04 #@! TF.ProjectId,Ardor_Headphones_THT,4172646f-725f-4486-9561-6470686f6e65,rev?*
G04 #@! TF.SameCoordinates,Original*
G04 #@! TF.FileFunction,Legend,Bot*
G04 #@! TF.FilePolarity,Positive*
%FSLAX46Y46*%
G04 Gerber Fmt 4.6, Leading zero omitted, Abs format (unit mm)*
G04 Created by KiCad (PCBNEW 9.0.2+dfsg-1) date 2026-10-09 12:30:48*
%MOMM*%
%LPD*%
G01*
G04 APERTURE LIST*
G04 Aperture macros list*
%AMRoundRect*
0 Rectangle with rounded corners*
0 $1 Rounding radius*
0 $2 $3 $4 $5 $6 $7 $8 $9 X,Y pos of 4 corners*
0 Add a 4 corners polygon primitive as box body*
4,1,4,$2,$3,$4,$5,$6,$7,$8,$9,$2,$3,0*
0 Add four circle primitives for the rounded corners*
1,1,$1+$1,$2,$3*
1,1,$1+$1,$4,$5*
1,1,$1+$1,$6,$7*
1,1,$1+$1,$8,$9*
0 Add four rect primitives between the rounded corners*
20,1,$1+$1,$2,$3,$4,$5,0*
20,1,$1+$1,$4,$5,$6,$7,0*
20,1,$1+$1,$6,$7,$8,$9,0*
20,1,$1+$1,$8,$9,$2,$3,0*%
G04 Aperture macros list end*
%ADD10C,0.150000*%
%ADD11RoundRect,0.250000X-0.550000X-0.550000X0.550000X-0.550000X0.550000X0.550000X-0.550000X0.550000X0*%
%ADD12C,1.600000*%
%ADD13R,1.400000X1.400000*%
%ADD14C,1.400000*%
%ADD15R,1.700000X1.700000*%
%ADD16C,1.700000*%
%ADD17C,2.200000*%
%ADD18C,2.000000*%
%ADD19RoundRect,0.250000X-1.050000X-1.050000X1.050000X-1.050000X1.050000X1.050000X-1.050000X1.050000X0*%
%ADD20C,2.600000*%
%ADD21R,1.500000X1.500000*%
%ADD22C,1.500000*%
G04 APERTURE END LIST*
D10*
X102914284Y-90562295D02*
X102761903Y-90562295D01*
X102761903Y-90562295D02*
X102685713Y-90600390D01*
X102685713Y-90600390D02*
X102609522Y-90676580D01*
X102609522Y-90676580D02*
X102571427Y-90828961D01*
X102571427Y-90828961D02*
X102571427Y-91095628D01*
X102571427Y-91095628D02*
X102609522Y-91248009D01*
X102609522Y-91248009D02*
X102685713Y-91324200D01*
X102685713Y-91324200D02*
X102761903Y-91362295D01*
X102761903Y-91362295D02*
X102914284Y-91362295D01*
X102914284Y-91362295D02*
X102990475Y-91324200D01*
X102990475Y-91324200D02*
X103066665Y-91248009D01*
X103066665Y-91248009D02*
X103104761Y-91095628D01*
X103104761Y-91095628D02*
X103104761Y-90828961D01*
X103104761Y-90828961D02*
X103066665Y-90676580D01*
X103066665Y-90676580D02*
X102990475Y-90600390D01*
X102990475Y-90600390D02*
X102914284Y-90562295D01*
X102228570Y-90562295D02*
X102228570Y-91209914D01*
X102228570Y-91209914D02*
X102190475Y-91286104D01*
X102190475Y-91286104D02*
X102152380Y-91324200D01*
X102152380Y-91324200D02*
X102076189Y-91362295D01*
X102076189Y-91362295D02*
X101923808Y-91362295D01*
X101923808Y-91362295D02*
X101847618Y-91324200D01*
X101847618Y-91324200D02*
X101809523Y-91286104D01*
X101809523Y-91286104D02*
X101771427Y-91209914D01*
X101771427Y-91209914D02*
X101771427Y-90562295D01*
X101504761Y-90562295D02*
X101047618Y-90562295D01*
X101276190Y-91362295D02*
X101276190Y-90562295D01*
X100780951Y-90943247D02*
X100171428Y-90943247D01*
X100171428Y-91171819D02*
X100780951Y-91171819D01*
X99523809Y-90943247D02*
X99790475Y-90943247D01*
X99790475Y-91362295D02*
X99790475Y-90562295D01*
X99790475Y-90562295D02*
X99409523Y-90562295D01*
X98647618Y-91362295D02*
X98914285Y-90981342D01*
X99104761Y-91362295D02*
X99104761Y-90562295D01*
X99104761Y-90562295D02*
X98799999Y-90562295D01*
X98799999Y-90562295D02*
X98723809Y-90600390D01*
X98723809Y-90600390D02*
X98685714Y-90638485D01*
X98685714Y-90638485D02*
X98647618Y-90714676D01*
X98647618Y-90714676D02*
X98647618Y-90828961D01*
X98647618Y-90828961D02*
X98685714Y-90905152D01*
X98685714Y-90905152D02*
X98723809Y-90943247D01*
X98723809Y-90943247D02*
X98799999Y-90981342D01*
X98799999Y-90981342D02*
X99104761Y-90981342D01*
X98152380Y-90562295D02*
X97999999Y-90562295D01*
X97999999Y-90562295D02*
X97923809Y-90600390D01*
X97923809Y-90600390D02*
X97847618Y-90676580D01*
X97847618Y-90676580D02*
X97809523Y-90828961D01*
X97809523Y-90828961D02*
X97809523Y-91095628D01*
X97809523Y-91095628D02*
X97847618Y-91248009D01*
X97847618Y-91248009D02*
X97923809Y-91324200D01*
X97923809Y-91324200D02*
X97999999Y-91362295D01*
X97999999Y-91362295D02*
X98152380Y-91362295D01*
X98152380Y-91362295D02*
X98228571Y-91324200D01*
X98228571Y-91324200D02*
X98304761Y-91248009D01*
X98304761Y-91248009D02*
X98342857Y-91095628D01*
X98342857Y-91095628D02*
X98342857Y-90828961D01*
X98342857Y-90828961D02*
X98304761Y-90676580D01*
X98304761Y-90676580D02*
X98228571Y-90600390D01*
X98228571Y-90600390D02*
X98152380Y-90562295D01*
X97466666Y-91362295D02*
X97466666Y-90562295D01*
X97466666Y-90562295D02*
X97200000Y-91133723D01*
X97200000Y-91133723D02*
X96933333Y-90562295D01*
X96933333Y-90562295D02*
X96933333Y-91362295D01*
X56471428Y-69822295D02*
X56928571Y-69822295D01*
X56699999Y-69822295D02*
X56699999Y-69022295D01*
X56699999Y-69022295D02*
X56776190Y-69136580D01*
X56776190Y-69136580D02*
X56852380Y-69212771D01*
X56852380Y-69212771D02*
X56928571Y-69250866D01*
X141028571Y-68522295D02*
X141028571Y-69093723D01*
X141028571Y-69093723D02*
X141066666Y-69208009D01*
X141066666Y-69208009D02*
X141142857Y-69284200D01*
X141142857Y-69284200D02*
X141257142Y-69322295D01*
X141257142Y-69322295D02*
X141333333Y-69322295D01*
X140304761Y-68522295D02*
X140457142Y-68522295D01*
X140457142Y-68522295D02*
X140533333Y-68560390D01*
X140533333Y-68560390D02*
X140571428Y-68598485D01*
X140571428Y-68598485D02*
X140647618Y-68712771D01*
X140647618Y-68712771D02*
X140685714Y-68865152D01*
X140685714Y-68865152D02*
X140685714Y-69169914D01*
X140685714Y-69169914D02*
X140647618Y-69246104D01*
X140647618Y-69246104D02*
X140609523Y-69284200D01*
X140609523Y-69284200D02*
X140533333Y-69322295D01*
X140533333Y-69322295D02*
X140380952Y-69322295D01*
X140380952Y-69322295D02*
X140304761Y-69284200D01*
X140304761Y-69284200D02*
X140266666Y-69246104D01*
X140266666Y-69246104D02*
X140228571Y-69169914D01*
X140228571Y-69169914D02*
X140228571Y-68979438D01*
X140228571Y-68979438D02*
X140266666Y-68903247D01*
X140266666Y-68903247D02*
X140304761Y-68865152D01*
X140304761Y-68865152D02*
X140380952Y-68827057D01*
X140380952Y-68827057D02*
X140533333Y-68827057D01*
X140533333Y-68827057D02*
X140609523Y-68865152D01*
X140609523Y-68865152D02*
X140647618Y-68903247D01*
X140647618Y-68903247D02*
X140685714Y-68979438D01*
X139733332Y-68522295D02*
X139657142Y-68522295D01*
X139657142Y-68522295D02*
X139580951Y-68560390D01*
X139580951Y-68560390D02*
X139542856Y-68598485D01*
X139542856Y-68598485D02*
X139504761Y-68674676D01*
X139504761Y-68674676D02*
X139466666Y-68827057D01*
X139466666Y-68827057D02*
X139466666Y-69017533D01*
X139466666Y-69017533D02*
X139504761Y-69169914D01*
X139504761Y-69169914D02*
X139542856Y-69246104D01*
X139542856Y-69246104D02*
X139580951Y-69284200D01*
X139580951Y-69284200D02*
X139657142Y-69322295D01*
X139657142Y-69322295D02*
X139733332Y-69322295D01*
X139733332Y-69322295D02*
X139809523Y-69284200D01*
X139809523Y-69284200D02*
X139847618Y-69246104D01*
X139847618Y-69246104D02*
X139885713Y-69169914D01*
X139885713Y-69169914D02*
X139923809Y-69017533D01*
X139923809Y-69017533D02*
X139923809Y-68827057D01*
X139923809Y-68827057D02*
X139885713Y-68674676D01*
X139885713Y-68674676D02*
X139847618Y-68598485D01*
X139847618Y-68598485D02*
X139809523Y-68560390D01*
X139809523Y-68560390D02*
X139733332Y-68522295D01*
X139161904Y-68598485D02*
X139123808Y-68560390D01*
X139123808Y-68560390D02*
X139047618Y-68522295D01*
X139047618Y-68522295D02*
X138857142Y-68522295D01*
X138857142Y-68522295D02*
X138780951Y-68560390D01*
X138780951Y-68560390D02*
X138742856Y-68598485D01*
X138742856Y-68598485D02*
X138704761Y-68674676D01*
X138704761Y-68674676D02*
X138704761Y-68750866D01*
X138704761Y-68750866D02*
X138742856Y-68865152D01*
X138742856Y-68865152D02*
X139199999Y-69322295D01*
X139199999Y-69322295D02*
X138704761Y-69322295D01*
X71819048Y-106274340D02*
X71819048Y-106845768D01*
X71819048Y-106845768D02*
X71857143Y-106960054D01*
X71857143Y-106960054D02*
X71933334Y-107036245D01*
X71933334Y-107036245D02*
X72047619Y-107074340D01*
X72047619Y-107074340D02*
X72123810Y-107074340D01*
X71019048Y-107074340D02*
X71476191Y-107074340D01*
X71247619Y-107074340D02*
X71247619Y-106274340D01*
X71247619Y-106274340D02*
X71323810Y-106388625D01*
X71323810Y-106388625D02*
X71400000Y-106464816D01*
X71400000Y-106464816D02*
X71476191Y-106502911D01*
X70523809Y-106274340D02*
X70447619Y-106274340D01*
X70447619Y-106274340D02*
X70371428Y-106312435D01*
X70371428Y-106312435D02*
X70333333Y-106350530D01*
X70333333Y-106350530D02*
X70295238Y-106426721D01*
X70295238Y-106426721D02*
X70257143Y-106579102D01*
X70257143Y-106579102D02*
X70257143Y-106769578D01*
X70257143Y-106769578D02*
X70295238Y-106921959D01*
X70295238Y-106921959D02*
X70333333Y-106998149D01*
X70333333Y-106998149D02*
X70371428Y-107036245D01*
X70371428Y-107036245D02*
X70447619Y-107074340D01*
X70447619Y-107074340D02*
X70523809Y-107074340D01*
X70523809Y-107074340D02*
X70600000Y-107036245D01*
X70600000Y-107036245D02*
X70638095Y-106998149D01*
X70638095Y-106998149D02*
X70676190Y-106921959D01*
X70676190Y-106921959D02*
X70714286Y-106769578D01*
X70714286Y-106769578D02*
X70714286Y-106579102D01*
X70714286Y-106579102D02*
X70676190Y-106426721D01*
X70676190Y-106426721D02*
X70638095Y-106350530D01*
X70638095Y-106350530D02*
X70600000Y-106312435D01*
X70600000Y-106312435D02*
X70523809Y-106274340D01*
X69495238Y-107074340D02*
X69952381Y-107074340D01*
X69723809Y-107074340D02*
X69723809Y-106274340D01*
X69723809Y-106274340D02*
X69800000Y-106388625D01*
X69800000Y-106388625D02*
X69876190Y-106464816D01*
X69876190Y-106464816D02*
X69952381Y-106502911D01*
X68542856Y-107074340D02*
X68542856Y-106274340D01*
X68542856Y-106274340D02*
X68238094Y-106274340D01*
X68238094Y-106274340D02*
X68161904Y-106312435D01*
X68161904Y-106312435D02*
X68123809Y-106350530D01*
X68123809Y-106350530D02*
X68085713Y-106426721D01*
X68085713Y-106426721D02*
X68085713Y-106541006D01*
X68085713Y-106541006D02*
X68123809Y-106617197D01*
X68123809Y-106617197D02*
X68161904Y-106655292D01*
X68161904Y-106655292D02*
X68238094Y-106693387D01*
X68238094Y-106693387D02*
X68542856Y-106693387D01*
X67819047Y-106274340D02*
X67628571Y-107074340D01*
X67628571Y-107074340D02*
X67476190Y-106502911D01*
X67476190Y-106502911D02*
X67323809Y-107074340D01*
X67323809Y-107074340D02*
X67133333Y-106274340D01*
X66371427Y-107074340D02*
X66638094Y-106693387D01*
X66828570Y-107074340D02*
X66828570Y-106274340D01*
X66828570Y-106274340D02*
X66523808Y-106274340D01*
X66523808Y-106274340D02*
X66447618Y-106312435D01*
X66447618Y-106312435D02*
X66409523Y-106350530D01*
X66409523Y-106350530D02*
X66371427Y-106426721D01*
X66371427Y-106426721D02*
X66371427Y-106541006D01*
X66371427Y-106541006D02*
X66409523Y-106617197D01*
X66409523Y-106617197D02*
X66447618Y-106655292D01*
X66447618Y-106655292D02*
X66523808Y-106693387D01*
X66523808Y-106693387D02*
X66828570Y-106693387D01*
X65419046Y-106769578D02*
X64809523Y-106769578D01*
X65114284Y-107074340D02*
X65114284Y-106464816D01*
X63819046Y-106655292D02*
X63552380Y-106655292D01*
X63438094Y-107074340D02*
X63819046Y-107074340D01*
X63819046Y-107074340D02*
X63819046Y-106274340D01*
X63819046Y-106274340D02*
X63438094Y-106274340D01*
X63095236Y-107074340D02*
X63095236Y-106274340D01*
X63095236Y-106274340D02*
X62638093Y-107074340D01*
X62638093Y-107074340D02*
X62638093Y-106274340D01*
X62295237Y-106845768D02*
X61914284Y-106845768D01*
X62371427Y-107074340D02*
X62104760Y-106274340D01*
X62104760Y-106274340D02*
X61838094Y-107074340D01*
X61304761Y-106655292D02*
X61190475Y-106693387D01*
X61190475Y-106693387D02*
X61152380Y-106731483D01*
X61152380Y-106731483D02*
X61114284Y-106807673D01*
X61114284Y-106807673D02*
X61114284Y-106921959D01*
X61114284Y-106921959D02*
X61152380Y-106998149D01*
X61152380Y-106998149D02*
X61190475Y-107036245D01*
X61190475Y-107036245D02*
X61266665Y-107074340D01*
X61266665Y-107074340D02*
X61571427Y-107074340D01*
X61571427Y-107074340D02*
X61571427Y-106274340D01*
X61571427Y-106274340D02*
X61304761Y-106274340D01*
X61304761Y-106274340D02*
X61228570Y-106312435D01*
X61228570Y-106312435D02*
X61190475Y-106350530D01*
X61190475Y-106350530D02*
X61152380Y-106426721D01*
X61152380Y-106426721D02*
X61152380Y-106502911D01*
X61152380Y-106502911D02*
X61190475Y-106579102D01*
X61190475Y-106579102D02*
X61228570Y-106617197D01*
X61228570Y-106617197D02*
X61304761Y-106655292D01*
X61304761Y-106655292D02*
X61571427Y-106655292D01*
X60390475Y-107074340D02*
X60771427Y-107074340D01*
X60771427Y-107074340D02*
X60771427Y-106274340D01*
X60123808Y-106655292D02*
X59857142Y-106655292D01*
X59742856Y-107074340D02*
X60123808Y-107074340D01*
X60123808Y-107074340D02*
X60123808Y-106274340D01*
X60123808Y-106274340D02*
X59742856Y-106274340D01*
X58790474Y-107074340D02*
X58790474Y-106274340D01*
X58409522Y-107074340D02*
X58409522Y-106274340D01*
X58409522Y-106274340D02*
X57952379Y-107074340D01*
X57952379Y-107074340D02*
X57952379Y-106274340D01*
X70257143Y-108362295D02*
X70714286Y-108362295D01*
X70485714Y-108362295D02*
X70485714Y-107562295D01*
X70485714Y-107562295D02*
X70561905Y-107676580D01*
X70561905Y-107676580D02*
X70638095Y-107752771D01*
X70638095Y-107752771D02*
X70714286Y-107790866D01*
X68923809Y-107562295D02*
X69304761Y-107562295D01*
X69304761Y-107562295D02*
X69342857Y-107943247D01*
X69342857Y-107943247D02*
X69304761Y-107905152D01*
X69304761Y-107905152D02*
X69228571Y-107867057D01*
X69228571Y-107867057D02*
X69038095Y-107867057D01*
X69038095Y-107867057D02*
X68961904Y-107905152D01*
X68961904Y-107905152D02*
X68923809Y-107943247D01*
X68923809Y-107943247D02*
X68885714Y-108019438D01*
X68885714Y-108019438D02*
X68885714Y-108209914D01*
X68885714Y-108209914D02*
X68923809Y-108286104D01*
X68923809Y-108286104D02*
X68961904Y-108324200D01*
X68961904Y-108324200D02*
X69038095Y-108362295D01*
X69038095Y-108362295D02*
X69228571Y-108362295D01*
X69228571Y-108362295D02*
X69304761Y-108324200D01*
X69304761Y-108324200D02*
X69342857Y-108286104D01*
X68657142Y-107562295D02*
X68390475Y-108362295D01*
X68390475Y-108362295D02*
X68123809Y-107562295D01*
X67247618Y-108362295D02*
X67247618Y-107562295D01*
X66866666Y-108362295D02*
X66866666Y-107562295D01*
X66866666Y-107562295D02*
X66409523Y-108362295D01*
X66409523Y-108362295D02*
X66409523Y-107562295D01*
X64847619Y-107638485D02*
X64809523Y-107600390D01*
X64809523Y-107600390D02*
X64733333Y-107562295D01*
X64733333Y-107562295D02*
X64542857Y-107562295D01*
X64542857Y-107562295D02*
X64466666Y-107600390D01*
X64466666Y-107600390D02*
X64428571Y-107638485D01*
X64428571Y-107638485D02*
X64390476Y-107714676D01*
X64390476Y-107714676D02*
X64390476Y-107790866D01*
X64390476Y-107790866D02*
X64428571Y-107905152D01*
X64428571Y-107905152D02*
X64885714Y-108362295D01*
X64885714Y-108362295D02*
X64390476Y-108362295D01*
X63019047Y-107600390D02*
X63095237Y-107562295D01*
X63095237Y-107562295D02*
X63209523Y-107562295D01*
X63209523Y-107562295D02*
X63323809Y-107600390D01*
X63323809Y-107600390D02*
X63399999Y-107676580D01*
X63399999Y-107676580D02*
X63438094Y-107752771D01*
X63438094Y-107752771D02*
X63476190Y-107905152D01*
X63476190Y-107905152D02*
X63476190Y-108019438D01*
X63476190Y-108019438D02*
X63438094Y-108171819D01*
X63438094Y-108171819D02*
X63399999Y-108248009D01*
X63399999Y-108248009D02*
X63323809Y-108324200D01*
X63323809Y-108324200D02*
X63209523Y-108362295D01*
X63209523Y-108362295D02*
X63133332Y-108362295D01*
X63133332Y-108362295D02*
X63019047Y-108324200D01*
X63019047Y-108324200D02*
X62980951Y-108286104D01*
X62980951Y-108286104D02*
X62980951Y-108019438D01*
X62980951Y-108019438D02*
X63133332Y-108019438D01*
X62638094Y-108362295D02*
X62638094Y-107562295D01*
X62638094Y-107562295D02*
X62180951Y-108362295D01*
X62180951Y-108362295D02*
X62180951Y-107562295D01*
X61799999Y-108362295D02*
X61799999Y-107562295D01*
X61799999Y-107562295D02*
X61609523Y-107562295D01*
X61609523Y-107562295D02*
X61495237Y-107600390D01*
X61495237Y-107600390D02*
X61419047Y-107676580D01*
X61419047Y-107676580D02*
X61380952Y-107752771D01*
X61380952Y-107752771D02*
X61342856Y-107905152D01*
X61342856Y-107905152D02*
X61342856Y-108019438D01*
X61342856Y-108019438D02*
X61380952Y-108171819D01*
X61380952Y-108171819D02*
X61419047Y-108248009D01*
X61419047Y-108248009D02*
X61495237Y-108324200D01*
X61495237Y-108324200D02*
X61609523Y-108362295D01*
X61609523Y-108362295D02*
X61799999Y-108362295D01*
X60238094Y-107562295D02*
X60161904Y-107562295D01*
X60161904Y-107562295D02*
X60085713Y-107600390D01*
X60085713Y-107600390D02*
X60047618Y-107638485D01*
X60047618Y-107638485D02*
X60009523Y-107714676D01*
X60009523Y-107714676D02*
X59971428Y-107867057D01*
X59971428Y-107867057D02*
X59971428Y-108057533D01*
X59971428Y-108057533D02*
X60009523Y-108209914D01*
X60009523Y-108209914D02*
X60047618Y-108286104D01*
X60047618Y-108286104D02*
X60085713Y-108324200D01*
X60085713Y-108324200D02*
X60161904Y-108362295D01*
X60161904Y-108362295D02*
X60238094Y-108362295D01*
X60238094Y-108362295D02*
X60314285Y-108324200D01*
X60314285Y-108324200D02*
X60352380Y-108286104D01*
X60352380Y-108286104D02*
X60390475Y-108209914D01*
X60390475Y-108209914D02*
X60428571Y-108057533D01*
X60428571Y-108057533D02*
X60428571Y-107867057D01*
X60428571Y-107867057D02*
X60390475Y-107714676D01*
X60390475Y-107714676D02*
X60352380Y-107638485D01*
X60352380Y-107638485D02*
X60314285Y-107600390D01*
X60314285Y-107600390D02*
X60238094Y-107562295D01*
X59742856Y-107562295D02*
X59476189Y-108362295D01*
X59476189Y-108362295D02*
X59209523Y-107562295D01*
X68695238Y-108850250D02*
X68200000Y-108850250D01*
X68200000Y-108850250D02*
X68466666Y-109155012D01*
X68466666Y-109155012D02*
X68352381Y-109155012D01*
X68352381Y-109155012D02*
X68276190Y-109193107D01*
X68276190Y-109193107D02*
X68238095Y-109231202D01*
X68238095Y-109231202D02*
X68200000Y-109307393D01*
X68200000Y-109307393D02*
X68200000Y-109497869D01*
X68200000Y-109497869D02*
X68238095Y-109574059D01*
X68238095Y-109574059D02*
X68276190Y-109612155D01*
X68276190Y-109612155D02*
X68352381Y-109650250D01*
X68352381Y-109650250D02*
X68580952Y-109650250D01*
X68580952Y-109650250D02*
X68657143Y-109612155D01*
X68657143Y-109612155D02*
X68695238Y-109574059D01*
X67247618Y-109231202D02*
X66980952Y-109231202D01*
X66866666Y-109650250D02*
X67247618Y-109650250D01*
X67247618Y-109650250D02*
X67247618Y-108850250D01*
X67247618Y-108850250D02*
X66866666Y-108850250D01*
X66523808Y-109650250D02*
X66523808Y-108850250D01*
X66523808Y-108850250D02*
X66066665Y-109650250D01*
X66066665Y-109650250D02*
X66066665Y-108850250D01*
X65723809Y-109421678D02*
X65342856Y-109421678D01*
X65799999Y-109650250D02*
X65533332Y-108850250D01*
X65533332Y-108850250D02*
X65266666Y-109650250D01*
X64733333Y-109231202D02*
X64619047Y-109269297D01*
X64619047Y-109269297D02*
X64580952Y-109307393D01*
X64580952Y-109307393D02*
X64542856Y-109383583D01*
X64542856Y-109383583D02*
X64542856Y-109497869D01*
X64542856Y-109497869D02*
X64580952Y-109574059D01*
X64580952Y-109574059D02*
X64619047Y-109612155D01*
X64619047Y-109612155D02*
X64695237Y-109650250D01*
X64695237Y-109650250D02*
X64999999Y-109650250D01*
X64999999Y-109650250D02*
X64999999Y-108850250D01*
X64999999Y-108850250D02*
X64733333Y-108850250D01*
X64733333Y-108850250D02*
X64657142Y-108888345D01*
X64657142Y-108888345D02*
X64619047Y-108926440D01*
X64619047Y-108926440D02*
X64580952Y-109002631D01*
X64580952Y-109002631D02*
X64580952Y-109078821D01*
X64580952Y-109078821D02*
X64619047Y-109155012D01*
X64619047Y-109155012D02*
X64657142Y-109193107D01*
X64657142Y-109193107D02*
X64733333Y-109231202D01*
X64733333Y-109231202D02*
X64999999Y-109231202D01*
X63819047Y-109650250D02*
X64199999Y-109650250D01*
X64199999Y-109650250D02*
X64199999Y-108850250D01*
X63552380Y-109231202D02*
X63285714Y-109231202D01*
X63171428Y-109650250D02*
X63552380Y-109650250D01*
X63552380Y-109650250D02*
X63552380Y-108850250D01*
X63552380Y-108850250D02*
X63171428Y-108850250D01*
X62219046Y-109650250D02*
X62219046Y-108850250D01*
X61838094Y-109650250D02*
X61838094Y-108850250D01*
X61838094Y-108850250D02*
X61380951Y-109650250D01*
X61380951Y-109650250D02*
X61380951Y-108850250D01*
X135823809Y-70274340D02*
X135823809Y-70845768D01*
X135823809Y-70845768D02*
X135861904Y-70960054D01*
X135861904Y-70960054D02*
X135938095Y-71036245D01*
X135938095Y-71036245D02*
X136052380Y-71074340D01*
X136052380Y-71074340D02*
X136128571Y-71074340D01*
X135099999Y-70274340D02*
X135252380Y-70274340D01*
X135252380Y-70274340D02*
X135328571Y-70312435D01*
X135328571Y-70312435D02*
X135366666Y-70350530D01*
X135366666Y-70350530D02*
X135442856Y-70464816D01*
X135442856Y-70464816D02*
X135480952Y-70617197D01*
X135480952Y-70617197D02*
X135480952Y-70921959D01*
X135480952Y-70921959D02*
X135442856Y-70998149D01*
X135442856Y-70998149D02*
X135404761Y-71036245D01*
X135404761Y-71036245D02*
X135328571Y-71074340D01*
X135328571Y-71074340D02*
X135176190Y-71074340D01*
X135176190Y-71074340D02*
X135099999Y-71036245D01*
X135099999Y-71036245D02*
X135061904Y-70998149D01*
X135061904Y-70998149D02*
X135023809Y-70921959D01*
X135023809Y-70921959D02*
X135023809Y-70731483D01*
X135023809Y-70731483D02*
X135061904Y-70655292D01*
X135061904Y-70655292D02*
X135099999Y-70617197D01*
X135099999Y-70617197D02*
X135176190Y-70579102D01*
X135176190Y-70579102D02*
X135328571Y-70579102D01*
X135328571Y-70579102D02*
X135404761Y-70617197D01*
X135404761Y-70617197D02*
X135442856Y-70655292D01*
X135442856Y-70655292D02*
X135480952Y-70731483D01*
X134528570Y-70274340D02*
X134452380Y-70274340D01*
X134452380Y-70274340D02*
X134376189Y-70312435D01*
X134376189Y-70312435D02*
X134338094Y-70350530D01*
X134338094Y-70350530D02*
X134299999Y-70426721D01*
X134299999Y-70426721D02*
X134261904Y-70579102D01*
X134261904Y-70579102D02*
X134261904Y-70769578D01*
X134261904Y-70769578D02*
X134299999Y-70921959D01*
X134299999Y-70921959D02*
X134338094Y-70998149D01*
X134338094Y-70998149D02*
X134376189Y-71036245D01*
X134376189Y-71036245D02*
X134452380Y-71074340D01*
X134452380Y-71074340D02*
X134528570Y-71074340D01*
X134528570Y-71074340D02*
X134604761Y-71036245D01*
X134604761Y-71036245D02*
X134642856Y-70998149D01*
X134642856Y-70998149D02*
X134680951Y-70921959D01*
X134680951Y-70921959D02*
X134719047Y-70769578D01*
X134719047Y-70769578D02*
X134719047Y-70579102D01*
X134719047Y-70579102D02*
X134680951Y-70426721D01*
X134680951Y-70426721D02*
X134642856Y-70350530D01*
X134642856Y-70350530D02*
X134604761Y-70312435D01*
X134604761Y-70312435D02*
X134528570Y-70274340D01*
X133957142Y-70350530D02*
X133919046Y-70312435D01*
X133919046Y-70312435D02*
X133842856Y-70274340D01*
X133842856Y-70274340D02*
X133652380Y-70274340D01*
X133652380Y-70274340D02*
X133576189Y-70312435D01*
X133576189Y-70312435D02*
X133538094Y-70350530D01*
X133538094Y-70350530D02*
X133499999Y-70426721D01*
X133499999Y-70426721D02*
X133499999Y-70502911D01*
X133499999Y-70502911D02*
X133538094Y-70617197D01*
X133538094Y-70617197D02*
X133995237Y-71074340D01*
X133995237Y-71074340D02*
X133499999Y-71074340D01*
X132547617Y-71074340D02*
X132547617Y-70274340D01*
X132547617Y-70655292D02*
X132090474Y-70655292D01*
X132090474Y-71074340D02*
X132090474Y-70274340D01*
X131709522Y-70655292D02*
X131442856Y-70655292D01*
X131328570Y-71074340D02*
X131709522Y-71074340D01*
X131709522Y-71074340D02*
X131709522Y-70274340D01*
X131709522Y-70274340D02*
X131328570Y-70274340D01*
X131023808Y-70845768D02*
X130642855Y-70845768D01*
X131099998Y-71074340D02*
X130833331Y-70274340D01*
X130833331Y-70274340D02*
X130566665Y-71074340D01*
X130299998Y-71074340D02*
X130299998Y-70274340D01*
X130299998Y-70274340D02*
X130109522Y-70274340D01*
X130109522Y-70274340D02*
X129995236Y-70312435D01*
X129995236Y-70312435D02*
X129919046Y-70388625D01*
X129919046Y-70388625D02*
X129880951Y-70464816D01*
X129880951Y-70464816D02*
X129842855Y-70617197D01*
X129842855Y-70617197D02*
X129842855Y-70731483D01*
X129842855Y-70731483D02*
X129880951Y-70883864D01*
X129880951Y-70883864D02*
X129919046Y-70960054D01*
X129919046Y-70960054D02*
X129995236Y-71036245D01*
X129995236Y-71036245D02*
X130109522Y-71074340D01*
X130109522Y-71074340D02*
X130299998Y-71074340D01*
X129499998Y-71074340D02*
X129499998Y-70274340D01*
X129499998Y-70274340D02*
X129195236Y-70274340D01*
X129195236Y-70274340D02*
X129119046Y-70312435D01*
X129119046Y-70312435D02*
X129080951Y-70350530D01*
X129080951Y-70350530D02*
X129042855Y-70426721D01*
X129042855Y-70426721D02*
X129042855Y-70541006D01*
X129042855Y-70541006D02*
X129080951Y-70617197D01*
X129080951Y-70617197D02*
X129119046Y-70655292D01*
X129119046Y-70655292D02*
X129195236Y-70693387D01*
X129195236Y-70693387D02*
X129499998Y-70693387D01*
X128699998Y-71074340D02*
X128699998Y-70274340D01*
X128699998Y-70655292D02*
X128242855Y-70655292D01*
X128242855Y-71074340D02*
X128242855Y-70274340D01*
X127709522Y-70274340D02*
X127557141Y-70274340D01*
X127557141Y-70274340D02*
X127480951Y-70312435D01*
X127480951Y-70312435D02*
X127404760Y-70388625D01*
X127404760Y-70388625D02*
X127366665Y-70541006D01*
X127366665Y-70541006D02*
X127366665Y-70807673D01*
X127366665Y-70807673D02*
X127404760Y-70960054D01*
X127404760Y-70960054D02*
X127480951Y-71036245D01*
X127480951Y-71036245D02*
X127557141Y-71074340D01*
X127557141Y-71074340D02*
X127709522Y-71074340D01*
X127709522Y-71074340D02*
X127785713Y-71036245D01*
X127785713Y-71036245D02*
X127861903Y-70960054D01*
X127861903Y-70960054D02*
X127899999Y-70807673D01*
X127899999Y-70807673D02*
X127899999Y-70541006D01*
X127899999Y-70541006D02*
X127861903Y-70388625D01*
X127861903Y-70388625D02*
X127785713Y-70312435D01*
X127785713Y-70312435D02*
X127709522Y-70274340D01*
X127023808Y-71074340D02*
X127023808Y-70274340D01*
X127023808Y-70274340D02*
X126566665Y-71074340D01*
X126566665Y-71074340D02*
X126566665Y-70274340D01*
X126185713Y-70655292D02*
X125919047Y-70655292D01*
X125804761Y-71074340D02*
X126185713Y-71074340D01*
X126185713Y-71074340D02*
X126185713Y-70274340D01*
X126185713Y-70274340D02*
X125804761Y-70274340D01*
X124699998Y-70274340D02*
X124547617Y-70274340D01*
X124547617Y-70274340D02*
X124471427Y-70312435D01*
X124471427Y-70312435D02*
X124395236Y-70388625D01*
X124395236Y-70388625D02*
X124357141Y-70541006D01*
X124357141Y-70541006D02*
X124357141Y-70807673D01*
X124357141Y-70807673D02*
X124395236Y-70960054D01*
X124395236Y-70960054D02*
X124471427Y-71036245D01*
X124471427Y-71036245D02*
X124547617Y-71074340D01*
X124547617Y-71074340D02*
X124699998Y-71074340D01*
X124699998Y-71074340D02*
X124776189Y-71036245D01*
X124776189Y-71036245D02*
X124852379Y-70960054D01*
X124852379Y-70960054D02*
X124890475Y-70807673D01*
X124890475Y-70807673D02*
X124890475Y-70541006D01*
X124890475Y-70541006D02*
X124852379Y-70388625D01*
X124852379Y-70388625D02*
X124776189Y-70312435D01*
X124776189Y-70312435D02*
X124699998Y-70274340D01*
X124014284Y-70274340D02*
X124014284Y-70921959D01*
X124014284Y-70921959D02*
X123976189Y-70998149D01*
X123976189Y-70998149D02*
X123938094Y-71036245D01*
X123938094Y-71036245D02*
X123861903Y-71074340D01*
X123861903Y-71074340D02*
X123709522Y-71074340D01*
X123709522Y-71074340D02*
X123633332Y-71036245D01*
X123633332Y-71036245D02*
X123595237Y-70998149D01*
X123595237Y-70998149D02*
X123557141Y-70921959D01*
X123557141Y-70921959D02*
X123557141Y-70274340D01*
X123290475Y-70274340D02*
X122833332Y-70274340D01*
X123061904Y-71074340D02*
X123061904Y-70274340D01*
X136814286Y-72362295D02*
X137271429Y-72362295D01*
X137042857Y-72362295D02*
X137042857Y-71562295D01*
X137042857Y-71562295D02*
X137119048Y-71676580D01*
X137119048Y-71676580D02*
X137195238Y-71752771D01*
X137195238Y-71752771D02*
X137271429Y-71790866D01*
X135480952Y-72362295D02*
X135861904Y-72362295D01*
X135861904Y-72362295D02*
X135861904Y-71562295D01*
X135214285Y-71943247D02*
X134947619Y-71943247D01*
X134833333Y-72362295D02*
X135214285Y-72362295D01*
X135214285Y-72362295D02*
X135214285Y-71562295D01*
X135214285Y-71562295D02*
X134833333Y-71562295D01*
X134223809Y-71943247D02*
X134490475Y-71943247D01*
X134490475Y-72362295D02*
X134490475Y-71562295D01*
X134490475Y-71562295D02*
X134109523Y-71562295D01*
X133919047Y-71562295D02*
X133461904Y-71562295D01*
X133690476Y-72362295D02*
X133690476Y-71562295D01*
X132433332Y-71562295D02*
X132280951Y-71562295D01*
X132280951Y-71562295D02*
X132204761Y-71600390D01*
X132204761Y-71600390D02*
X132128570Y-71676580D01*
X132128570Y-71676580D02*
X132090475Y-71828961D01*
X132090475Y-71828961D02*
X132090475Y-72095628D01*
X132090475Y-72095628D02*
X132128570Y-72248009D01*
X132128570Y-72248009D02*
X132204761Y-72324200D01*
X132204761Y-72324200D02*
X132280951Y-72362295D01*
X132280951Y-72362295D02*
X132433332Y-72362295D01*
X132433332Y-72362295D02*
X132509523Y-72324200D01*
X132509523Y-72324200D02*
X132585713Y-72248009D01*
X132585713Y-72248009D02*
X132623809Y-72095628D01*
X132623809Y-72095628D02*
X132623809Y-71828961D01*
X132623809Y-71828961D02*
X132585713Y-71676580D01*
X132585713Y-71676580D02*
X132509523Y-71600390D01*
X132509523Y-71600390D02*
X132433332Y-71562295D01*
X131747618Y-71562295D02*
X131747618Y-72209914D01*
X131747618Y-72209914D02*
X131709523Y-72286104D01*
X131709523Y-72286104D02*
X131671428Y-72324200D01*
X131671428Y-72324200D02*
X131595237Y-72362295D01*
X131595237Y-72362295D02*
X131442856Y-72362295D01*
X131442856Y-72362295D02*
X131366666Y-72324200D01*
X131366666Y-72324200D02*
X131328571Y-72286104D01*
X131328571Y-72286104D02*
X131290475Y-72209914D01*
X131290475Y-72209914D02*
X131290475Y-71562295D01*
X131023809Y-71562295D02*
X130566666Y-71562295D01*
X130795238Y-72362295D02*
X130795238Y-71562295D01*
X129119047Y-71638485D02*
X129080951Y-71600390D01*
X129080951Y-71600390D02*
X129004761Y-71562295D01*
X129004761Y-71562295D02*
X128814285Y-71562295D01*
X128814285Y-71562295D02*
X128738094Y-71600390D01*
X128738094Y-71600390D02*
X128699999Y-71638485D01*
X128699999Y-71638485D02*
X128661904Y-71714676D01*
X128661904Y-71714676D02*
X128661904Y-71790866D01*
X128661904Y-71790866D02*
X128699999Y-71905152D01*
X128699999Y-71905152D02*
X129157142Y-72362295D01*
X129157142Y-72362295D02*
X128661904Y-72362295D01*
X127252379Y-72362295D02*
X127519046Y-71981342D01*
X127709522Y-72362295D02*
X127709522Y-71562295D01*
X127709522Y-71562295D02*
X127404760Y-71562295D01*
X127404760Y-71562295D02*
X127328570Y-71600390D01*
X127328570Y-71600390D02*
X127290475Y-71638485D01*
X127290475Y-71638485D02*
X127252379Y-71714676D01*
X127252379Y-71714676D02*
X127252379Y-71828961D01*
X127252379Y-71828961D02*
X127290475Y-71905152D01*
X127290475Y-71905152D02*
X127328570Y-71943247D01*
X127328570Y-71943247D02*
X127404760Y-71981342D01*
X127404760Y-71981342D02*
X127709522Y-71981342D01*
X126909522Y-72362295D02*
X126909522Y-71562295D01*
X126109523Y-71600390D02*
X126185713Y-71562295D01*
X126185713Y-71562295D02*
X126299999Y-71562295D01*
X126299999Y-71562295D02*
X126414285Y-71600390D01*
X126414285Y-71600390D02*
X126490475Y-71676580D01*
X126490475Y-71676580D02*
X126528570Y-71752771D01*
X126528570Y-71752771D02*
X126566666Y-71905152D01*
X126566666Y-71905152D02*
X126566666Y-72019438D01*
X126566666Y-72019438D02*
X126528570Y-72171819D01*
X126528570Y-72171819D02*
X126490475Y-72248009D01*
X126490475Y-72248009D02*
X126414285Y-72324200D01*
X126414285Y-72324200D02*
X126299999Y-72362295D01*
X126299999Y-72362295D02*
X126223808Y-72362295D01*
X126223808Y-72362295D02*
X126109523Y-72324200D01*
X126109523Y-72324200D02*
X126071427Y-72286104D01*
X126071427Y-72286104D02*
X126071427Y-72019438D01*
X126071427Y-72019438D02*
X126223808Y-72019438D01*
X125728570Y-72362295D02*
X125728570Y-71562295D01*
X125728570Y-71943247D02*
X125271427Y-71943247D01*
X125271427Y-72362295D02*
X125271427Y-71562295D01*
X125004761Y-71562295D02*
X124547618Y-71562295D01*
X124776190Y-72362295D02*
X124776190Y-71562295D01*
X123519046Y-71562295D02*
X123366665Y-71562295D01*
X123366665Y-71562295D02*
X123290475Y-71600390D01*
X123290475Y-71600390D02*
X123214284Y-71676580D01*
X123214284Y-71676580D02*
X123176189Y-71828961D01*
X123176189Y-71828961D02*
X123176189Y-72095628D01*
X123176189Y-72095628D02*
X123214284Y-72248009D01*
X123214284Y-72248009D02*
X123290475Y-72324200D01*
X123290475Y-72324200D02*
X123366665Y-72362295D01*
X123366665Y-72362295D02*
X123519046Y-72362295D01*
X123519046Y-72362295D02*
X123595237Y-72324200D01*
X123595237Y-72324200D02*
X123671427Y-72248009D01*
X123671427Y-72248009D02*
X123709523Y-72095628D01*
X123709523Y-72095628D02*
X123709523Y-71828961D01*
X123709523Y-71828961D02*
X123671427Y-71676580D01*
X123671427Y-71676580D02*
X123595237Y-71600390D01*
X123595237Y-71600390D02*
X123519046Y-71562295D01*
X122833332Y-71562295D02*
X122833332Y-72209914D01*
X122833332Y-72209914D02*
X122795237Y-72286104D01*
X122795237Y-72286104D02*
X122757142Y-72324200D01*
X122757142Y-72324200D02*
X122680951Y-72362295D01*
X122680951Y-72362295D02*
X122528570Y-72362295D01*
X122528570Y-72362295D02*
X122452380Y-72324200D01*
X122452380Y-72324200D02*
X122414285Y-72286104D01*
X122414285Y-72286104D02*
X122376189Y-72209914D01*
X122376189Y-72209914D02*
X122376189Y-71562295D01*
X122109523Y-71562295D02*
X121652380Y-71562295D01*
X121880952Y-72362295D02*
X121880952Y-71562295D01*
X132319047Y-72850250D02*
X131823809Y-72850250D01*
X131823809Y-72850250D02*
X132090475Y-73155012D01*
X132090475Y-73155012D02*
X131976190Y-73155012D01*
X131976190Y-73155012D02*
X131899999Y-73193107D01*
X131899999Y-73193107D02*
X131861904Y-73231202D01*
X131861904Y-73231202D02*
X131823809Y-73307393D01*
X131823809Y-73307393D02*
X131823809Y-73497869D01*
X131823809Y-73497869D02*
X131861904Y-73574059D01*
X131861904Y-73574059D02*
X131899999Y-73612155D01*
X131899999Y-73612155D02*
X131976190Y-73650250D01*
X131976190Y-73650250D02*
X132204761Y-73650250D01*
X132204761Y-73650250D02*
X132280952Y-73612155D01*
X132280952Y-73612155D02*
X132319047Y-73574059D01*
X130452380Y-72888345D02*
X130528570Y-72850250D01*
X130528570Y-72850250D02*
X130642856Y-72850250D01*
X130642856Y-72850250D02*
X130757142Y-72888345D01*
X130757142Y-72888345D02*
X130833332Y-72964535D01*
X130833332Y-72964535D02*
X130871427Y-73040726D01*
X130871427Y-73040726D02*
X130909523Y-73193107D01*
X130909523Y-73193107D02*
X130909523Y-73307393D01*
X130909523Y-73307393D02*
X130871427Y-73459774D01*
X130871427Y-73459774D02*
X130833332Y-73535964D01*
X130833332Y-73535964D02*
X130757142Y-73612155D01*
X130757142Y-73612155D02*
X130642856Y-73650250D01*
X130642856Y-73650250D02*
X130566665Y-73650250D01*
X130566665Y-73650250D02*
X130452380Y-73612155D01*
X130452380Y-73612155D02*
X130414284Y-73574059D01*
X130414284Y-73574059D02*
X130414284Y-73307393D01*
X130414284Y-73307393D02*
X130566665Y-73307393D01*
X130071427Y-73650250D02*
X130071427Y-72850250D01*
X130071427Y-72850250D02*
X129614284Y-73650250D01*
X129614284Y-73650250D02*
X129614284Y-72850250D01*
X129233332Y-73650250D02*
X129233332Y-72850250D01*
X129233332Y-72850250D02*
X129042856Y-72850250D01*
X129042856Y-72850250D02*
X128928570Y-72888345D01*
X128928570Y-72888345D02*
X128852380Y-72964535D01*
X128852380Y-72964535D02*
X128814285Y-73040726D01*
X128814285Y-73040726D02*
X128776189Y-73193107D01*
X128776189Y-73193107D02*
X128776189Y-73307393D01*
X128776189Y-73307393D02*
X128814285Y-73459774D01*
X128814285Y-73459774D02*
X128852380Y-73535964D01*
X128852380Y-73535964D02*
X128928570Y-73612155D01*
X128928570Y-73612155D02*
X129042856Y-73650250D01*
X129042856Y-73650250D02*
X129233332Y-73650250D01*
X127671427Y-72850250D02*
X127595237Y-72850250D01*
X127595237Y-72850250D02*
X127519046Y-72888345D01*
X127519046Y-72888345D02*
X127480951Y-72926440D01*
X127480951Y-72926440D02*
X127442856Y-73002631D01*
X127442856Y-73002631D02*
X127404761Y-73155012D01*
X127404761Y-73155012D02*
X127404761Y-73345488D01*
X127404761Y-73345488D02*
X127442856Y-73497869D01*
X127442856Y-73497869D02*
X127480951Y-73574059D01*
X127480951Y-73574059D02*
X127519046Y-73612155D01*
X127519046Y-73612155D02*
X127595237Y-73650250D01*
X127595237Y-73650250D02*
X127671427Y-73650250D01*
X127671427Y-73650250D02*
X127747618Y-73612155D01*
X127747618Y-73612155D02*
X127785713Y-73574059D01*
X127785713Y-73574059D02*
X127823808Y-73497869D01*
X127823808Y-73497869D02*
X127861904Y-73345488D01*
X127861904Y-73345488D02*
X127861904Y-73155012D01*
X127861904Y-73155012D02*
X127823808Y-73002631D01*
X127823808Y-73002631D02*
X127785713Y-72926440D01*
X127785713Y-72926440D02*
X127747618Y-72888345D01*
X127747618Y-72888345D02*
X127671427Y-72850250D01*
X127176189Y-72850250D02*
X126909522Y-73650250D01*
X126909522Y-73650250D02*
X126642856Y-72850250D01*
X56028571Y-102522295D02*
X56028571Y-103093723D01*
X56028571Y-103093723D02*
X56066666Y-103208009D01*
X56066666Y-103208009D02*
X56142857Y-103284200D01*
X56142857Y-103284200D02*
X56257142Y-103322295D01*
X56257142Y-103322295D02*
X56333333Y-103322295D01*
X55228571Y-103322295D02*
X55685714Y-103322295D01*
X55457142Y-103322295D02*
X55457142Y-102522295D01*
X55457142Y-102522295D02*
X55533333Y-102636580D01*
X55533333Y-102636580D02*
X55609523Y-102712771D01*
X55609523Y-102712771D02*
X55685714Y-102750866D01*
X54733332Y-102522295D02*
X54657142Y-102522295D01*
X54657142Y-102522295D02*
X54580951Y-102560390D01*
X54580951Y-102560390D02*
X54542856Y-102598485D01*
X54542856Y-102598485D02*
X54504761Y-102674676D01*
X54504761Y-102674676D02*
X54466666Y-102827057D01*
X54466666Y-102827057D02*
X54466666Y-103017533D01*
X54466666Y-103017533D02*
X54504761Y-103169914D01*
X54504761Y-103169914D02*
X54542856Y-103246104D01*
X54542856Y-103246104D02*
X54580951Y-103284200D01*
X54580951Y-103284200D02*
X54657142Y-103322295D01*
X54657142Y-103322295D02*
X54733332Y-103322295D01*
X54733332Y-103322295D02*
X54809523Y-103284200D01*
X54809523Y-103284200D02*
X54847618Y-103246104D01*
X54847618Y-103246104D02*
X54885713Y-103169914D01*
X54885713Y-103169914D02*
X54923809Y-103017533D01*
X54923809Y-103017533D02*
X54923809Y-102827057D01*
X54923809Y-102827057D02*
X54885713Y-102674676D01*
X54885713Y-102674676D02*
X54847618Y-102598485D01*
X54847618Y-102598485D02*
X54809523Y-102560390D01*
X54809523Y-102560390D02*
X54733332Y-102522295D01*
X53704761Y-103322295D02*
X54161904Y-103322295D01*
X53933332Y-103322295D02*
X53933332Y-102522295D01*
X53933332Y-102522295D02*
X54009523Y-102636580D01*
X54009523Y-102636580D02*
X54085713Y-102712771D01*
X54085713Y-102712771D02*
X54161904Y-102750866D01*
X56471428Y-105822295D02*
X56928571Y-105822295D01*
X56699999Y-105822295D02*
X56699999Y-105022295D01*
X56699999Y-105022295D02*
X56776190Y-105136580D01*
X56776190Y-105136580D02*
X56852380Y-105212771D01*
X56852380Y-105212771D02*
X56928571Y-105250866D01*
X102904761Y-132469104D02*
X102428571Y-132469104D01*
X102999999Y-132754819D02*
X102666666Y-131754819D01*
X102666666Y-131754819D02*
X102333333Y-132754819D01*
X101428571Y-132754819D02*
X101761904Y-132278628D01*
X101999999Y-132754819D02*
X101999999Y-131754819D01*
X101999999Y-131754819D02*
X101619047Y-131754819D01*
X101619047Y-131754819D02*
X101523809Y-131802438D01*
X101523809Y-131802438D02*
X101476190Y-131850057D01*
X101476190Y-131850057D02*
X101428571Y-131945295D01*
X101428571Y-131945295D02*
X101428571Y-132088152D01*
X101428571Y-132088152D02*
X101476190Y-132183390D01*
X101476190Y-132183390D02*
X101523809Y-132231009D01*
X101523809Y-132231009D02*
X101619047Y-132278628D01*
X101619047Y-132278628D02*
X101999999Y-132278628D01*
X100999999Y-132754819D02*
X100999999Y-131754819D01*
X100999999Y-131754819D02*
X100761904Y-131754819D01*
X100761904Y-131754819D02*
X100619047Y-131802438D01*
X100619047Y-131802438D02*
X100523809Y-131897676D01*
X100523809Y-131897676D02*
X100476190Y-131992914D01*
X100476190Y-131992914D02*
X100428571Y-132183390D01*
X100428571Y-132183390D02*
X100428571Y-132326247D01*
X100428571Y-132326247D02*
X100476190Y-132516723D01*
X100476190Y-132516723D02*
X100523809Y-132611961D01*
X100523809Y-132611961D02*
X100619047Y-132707200D01*
X100619047Y-132707200D02*
X100761904Y-132754819D01*
X100761904Y-132754819D02*
X100999999Y-132754819D01*
X99809523Y-131754819D02*
X99619047Y-131754819D01*
X99619047Y-131754819D02*
X99523809Y-131802438D01*
X99523809Y-131802438D02*
X99428571Y-131897676D01*
X99428571Y-131897676D02*
X99380952Y-132088152D01*
X99380952Y-132088152D02*
X99380952Y-132421485D01*
X99380952Y-132421485D02*
X99428571Y-132611961D01*
X99428571Y-132611961D02*
X99523809Y-132707200D01*
X99523809Y-132707200D02*
X99619047Y-132754819D01*
X99619047Y-132754819D02*
X99809523Y-132754819D01*
X99809523Y-132754819D02*
X99904761Y-132707200D01*
X99904761Y-132707200D02*
X99999999Y-132611961D01*
X99999999Y-132611961D02*
X100047618Y-132421485D01*
X100047618Y-132421485D02*
X100047618Y-132088152D01*
X100047618Y-132088152D02*
X99999999Y-131897676D01*
X99999999Y-131897676D02*
X99904761Y-131802438D01*
X99904761Y-131802438D02*
X99809523Y-131754819D01*
X98380952Y-132754819D02*
X98714285Y-132278628D01*
X98952380Y-132754819D02*
X98952380Y-131754819D01*
X98952380Y-131754819D02*
X98571428Y-131754819D01*
X98571428Y-131754819D02*
X98476190Y-131802438D01*
X98476190Y-131802438D02*
X98428571Y-131850057D01*
X98428571Y-131850057D02*
X98380952Y-131945295D01*
X98380952Y-131945295D02*
X98380952Y-132088152D01*
X98380952Y-132088152D02*
X98428571Y-132183390D01*
X98428571Y-132183390D02*
X98476190Y-132231009D01*
X98476190Y-132231009D02*
X98571428Y-132278628D01*
X98571428Y-132278628D02*
X98952380Y-132278628D01*
X97190475Y-132754819D02*
X97190475Y-131754819D01*
X97190475Y-132231009D02*
X96619047Y-132231009D01*
X96619047Y-132754819D02*
X96619047Y-131754819D01*
X96142856Y-132754819D02*
X96142856Y-131754819D01*
X96142856Y-131754819D02*
X95761904Y-131754819D01*
X95761904Y-131754819D02*
X95666666Y-131802438D01*
X95666666Y-131802438D02*
X95619047Y-131850057D01*
X95619047Y-131850057D02*
X95571428Y-131945295D01*
X95571428Y-131945295D02*
X95571428Y-132088152D01*
X95571428Y-132088152D02*
X95619047Y-132183390D01*
X95619047Y-132183390D02*
X95666666Y-132231009D01*
X95666666Y-132231009D02*
X95761904Y-132278628D01*
X95761904Y-132278628D02*
X96142856Y-132278628D01*
X94523808Y-131754819D02*
X93952380Y-131754819D01*
X94238094Y-132754819D02*
X94238094Y-131754819D01*
X93095237Y-132754819D02*
X93666665Y-132754819D01*
X93380951Y-132754819D02*
X93380951Y-131754819D01*
X93380951Y-131754819D02*
X93476189Y-131897676D01*
X93476189Y-131897676D02*
X93571427Y-131992914D01*
X93571427Y-131992914D02*
X93666665Y-132040533D01*
X68519047Y-70274340D02*
X68519047Y-70845768D01*
X68519047Y-70845768D02*
X68557142Y-70960054D01*
X68557142Y-70960054D02*
X68633333Y-71036245D01*
X68633333Y-71036245D02*
X68747618Y-71074340D01*
X68747618Y-71074340D02*
X68823809Y-71074340D01*
X67719047Y-71074340D02*
X68176190Y-71074340D01*
X67947618Y-71074340D02*
X67947618Y-70274340D01*
X67947618Y-70274340D02*
X68023809Y-70388625D01*
X68023809Y-70388625D02*
X68099999Y-70464816D01*
X68099999Y-70464816D02*
X68176190Y-70502911D01*
X67223808Y-70274340D02*
X67147618Y-70274340D01*
X67147618Y-70274340D02*
X67071427Y-70312435D01*
X67071427Y-70312435D02*
X67033332Y-70350530D01*
X67033332Y-70350530D02*
X66995237Y-70426721D01*
X66995237Y-70426721D02*
X66957142Y-70579102D01*
X66957142Y-70579102D02*
X66957142Y-70769578D01*
X66957142Y-70769578D02*
X66995237Y-70921959D01*
X66995237Y-70921959D02*
X67033332Y-70998149D01*
X67033332Y-70998149D02*
X67071427Y-71036245D01*
X67071427Y-71036245D02*
X67147618Y-71074340D01*
X67147618Y-71074340D02*
X67223808Y-71074340D01*
X67223808Y-71074340D02*
X67299999Y-71036245D01*
X67299999Y-71036245D02*
X67338094Y-70998149D01*
X67338094Y-70998149D02*
X67376189Y-70921959D01*
X67376189Y-70921959D02*
X67414285Y-70769578D01*
X67414285Y-70769578D02*
X67414285Y-70579102D01*
X67414285Y-70579102D02*
X67376189Y-70426721D01*
X67376189Y-70426721D02*
X67338094Y-70350530D01*
X67338094Y-70350530D02*
X67299999Y-70312435D01*
X67299999Y-70312435D02*
X67223808Y-70274340D01*
X66652380Y-70350530D02*
X66614284Y-70312435D01*
X66614284Y-70312435D02*
X66538094Y-70274340D01*
X66538094Y-70274340D02*
X66347618Y-70274340D01*
X66347618Y-70274340D02*
X66271427Y-70312435D01*
X66271427Y-70312435D02*
X66233332Y-70350530D01*
X66233332Y-70350530D02*
X66195237Y-70426721D01*
X66195237Y-70426721D02*
X66195237Y-70502911D01*
X66195237Y-70502911D02*
X66233332Y-70617197D01*
X66233332Y-70617197D02*
X66690475Y-71074340D01*
X66690475Y-71074340D02*
X66195237Y-71074340D01*
X65280951Y-70845768D02*
X64899998Y-70845768D01*
X65357141Y-71074340D02*
X65090474Y-70274340D01*
X65090474Y-70274340D02*
X64823808Y-71074340D01*
X64557141Y-70274340D02*
X64557141Y-70921959D01*
X64557141Y-70921959D02*
X64519046Y-70998149D01*
X64519046Y-70998149D02*
X64480951Y-71036245D01*
X64480951Y-71036245D02*
X64404760Y-71074340D01*
X64404760Y-71074340D02*
X64252379Y-71074340D01*
X64252379Y-71074340D02*
X64176189Y-71036245D01*
X64176189Y-71036245D02*
X64138094Y-70998149D01*
X64138094Y-70998149D02*
X64099998Y-70921959D01*
X64099998Y-70921959D02*
X64099998Y-70274340D01*
X63719046Y-71074340D02*
X63719046Y-70274340D01*
X63719046Y-70274340D02*
X63528570Y-70274340D01*
X63528570Y-70274340D02*
X63414284Y-70312435D01*
X63414284Y-70312435D02*
X63338094Y-70388625D01*
X63338094Y-70388625D02*
X63299999Y-70464816D01*
X63299999Y-70464816D02*
X63261903Y-70617197D01*
X63261903Y-70617197D02*
X63261903Y-70731483D01*
X63261903Y-70731483D02*
X63299999Y-70883864D01*
X63299999Y-70883864D02*
X63338094Y-70960054D01*
X63338094Y-70960054D02*
X63414284Y-71036245D01*
X63414284Y-71036245D02*
X63528570Y-71074340D01*
X63528570Y-71074340D02*
X63719046Y-71074340D01*
X62919046Y-71074340D02*
X62919046Y-70274340D01*
X62385713Y-70274340D02*
X62233332Y-70274340D01*
X62233332Y-70274340D02*
X62157142Y-70312435D01*
X62157142Y-70312435D02*
X62080951Y-70388625D01*
X62080951Y-70388625D02*
X62042856Y-70541006D01*
X62042856Y-70541006D02*
X62042856Y-70807673D01*
X62042856Y-70807673D02*
X62080951Y-70960054D01*
X62080951Y-70960054D02*
X62157142Y-71036245D01*
X62157142Y-71036245D02*
X62233332Y-71074340D01*
X62233332Y-71074340D02*
X62385713Y-71074340D01*
X62385713Y-71074340D02*
X62461904Y-71036245D01*
X62461904Y-71036245D02*
X62538094Y-70960054D01*
X62538094Y-70960054D02*
X62576190Y-70807673D01*
X62576190Y-70807673D02*
X62576190Y-70541006D01*
X62576190Y-70541006D02*
X62538094Y-70388625D01*
X62538094Y-70388625D02*
X62461904Y-70312435D01*
X62461904Y-70312435D02*
X62385713Y-70274340D01*
X61090475Y-71074340D02*
X61090475Y-70274340D01*
X60709523Y-71074340D02*
X60709523Y-70274340D01*
X60709523Y-70274340D02*
X60252380Y-71074340D01*
X60252380Y-71074340D02*
X60252380Y-70274340D01*
X70366667Y-72362295D02*
X70823810Y-72362295D01*
X70595238Y-72362295D02*
X70595238Y-71562295D01*
X70595238Y-71562295D02*
X70671429Y-71676580D01*
X70671429Y-71676580D02*
X70747619Y-71752771D01*
X70747619Y-71752771D02*
X70823810Y-71790866D01*
X69033333Y-72362295D02*
X69414285Y-72362295D01*
X69414285Y-72362295D02*
X69414285Y-71562295D01*
X68766666Y-71943247D02*
X68500000Y-71943247D01*
X68385714Y-72362295D02*
X68766666Y-72362295D01*
X68766666Y-72362295D02*
X68766666Y-71562295D01*
X68766666Y-71562295D02*
X68385714Y-71562295D01*
X67776190Y-71943247D02*
X68042856Y-71943247D01*
X68042856Y-72362295D02*
X68042856Y-71562295D01*
X68042856Y-71562295D02*
X67661904Y-71562295D01*
X67471428Y-71562295D02*
X67014285Y-71562295D01*
X67242857Y-72362295D02*
X67242857Y-71562295D01*
X66138094Y-72362295D02*
X66138094Y-71562295D01*
X65757142Y-72362295D02*
X65757142Y-71562295D01*
X65757142Y-71562295D02*
X65299999Y-72362295D01*
X65299999Y-72362295D02*
X65299999Y-71562295D01*
X63738095Y-71638485D02*
X63699999Y-71600390D01*
X63699999Y-71600390D02*
X63623809Y-71562295D01*
X63623809Y-71562295D02*
X63433333Y-71562295D01*
X63433333Y-71562295D02*
X63357142Y-71600390D01*
X63357142Y-71600390D02*
X63319047Y-71638485D01*
X63319047Y-71638485D02*
X63280952Y-71714676D01*
X63280952Y-71714676D02*
X63280952Y-71790866D01*
X63280952Y-71790866D02*
X63319047Y-71905152D01*
X63319047Y-71905152D02*
X63776190Y-72362295D01*
X63776190Y-72362295D02*
X63280952Y-72362295D01*
X61909523Y-71600390D02*
X61985713Y-71562295D01*
X61985713Y-71562295D02*
X62099999Y-71562295D01*
X62099999Y-71562295D02*
X62214285Y-71600390D01*
X62214285Y-71600390D02*
X62290475Y-71676580D01*
X62290475Y-71676580D02*
X62328570Y-71752771D01*
X62328570Y-71752771D02*
X62366666Y-71905152D01*
X62366666Y-71905152D02*
X62366666Y-72019438D01*
X62366666Y-72019438D02*
X62328570Y-72171819D01*
X62328570Y-72171819D02*
X62290475Y-72248009D01*
X62290475Y-72248009D02*
X62214285Y-72324200D01*
X62214285Y-72324200D02*
X62099999Y-72362295D01*
X62099999Y-72362295D02*
X62023808Y-72362295D01*
X62023808Y-72362295D02*
X61909523Y-72324200D01*
X61909523Y-72324200D02*
X61871427Y-72286104D01*
X61871427Y-72286104D02*
X61871427Y-72019438D01*
X61871427Y-72019438D02*
X62023808Y-72019438D01*
X61528570Y-72362295D02*
X61528570Y-71562295D01*
X61528570Y-71562295D02*
X61071427Y-72362295D01*
X61071427Y-72362295D02*
X61071427Y-71562295D01*
X60690475Y-72362295D02*
X60690475Y-71562295D01*
X60690475Y-71562295D02*
X60499999Y-71562295D01*
X60499999Y-71562295D02*
X60385713Y-71600390D01*
X60385713Y-71600390D02*
X60309523Y-71676580D01*
X60309523Y-71676580D02*
X60271428Y-71752771D01*
X60271428Y-71752771D02*
X60233332Y-71905152D01*
X60233332Y-71905152D02*
X60233332Y-72019438D01*
X60233332Y-72019438D02*
X60271428Y-72171819D01*
X60271428Y-72171819D02*
X60309523Y-72248009D01*
X60309523Y-72248009D02*
X60385713Y-72324200D01*
X60385713Y-72324200D02*
X60499999Y-72362295D01*
X60499999Y-72362295D02*
X60690475Y-72362295D01*
X59128570Y-71562295D02*
X59052380Y-71562295D01*
X59052380Y-71562295D02*
X58976189Y-71600390D01*
X58976189Y-71600390D02*
X58938094Y-71638485D01*
X58938094Y-71638485D02*
X58899999Y-71714676D01*
X58899999Y-71714676D02*
X58861904Y-71867057D01*
X58861904Y-71867057D02*
X58861904Y-72057533D01*
X58861904Y-72057533D02*
X58899999Y-72209914D01*
X58899999Y-72209914D02*
X58938094Y-72286104D01*
X58938094Y-72286104D02*
X58976189Y-72324200D01*
X58976189Y-72324200D02*
X59052380Y-72362295D01*
X59052380Y-72362295D02*
X59128570Y-72362295D01*
X59128570Y-72362295D02*
X59204761Y-72324200D01*
X59204761Y-72324200D02*
X59242856Y-72286104D01*
X59242856Y-72286104D02*
X59280951Y-72209914D01*
X59280951Y-72209914D02*
X59319047Y-72057533D01*
X59319047Y-72057533D02*
X59319047Y-71867057D01*
X59319047Y-71867057D02*
X59280951Y-71714676D01*
X59280951Y-71714676D02*
X59242856Y-71638485D01*
X59242856Y-71638485D02*
X59204761Y-71600390D01*
X59204761Y-71600390D02*
X59128570Y-71562295D01*
X58633332Y-71562295D02*
X58366665Y-72362295D01*
X58366665Y-72362295D02*
X58099999Y-71562295D01*
X67699999Y-72850250D02*
X67204761Y-72850250D01*
X67204761Y-72850250D02*
X67471427Y-73155012D01*
X67471427Y-73155012D02*
X67357142Y-73155012D01*
X67357142Y-73155012D02*
X67280951Y-73193107D01*
X67280951Y-73193107D02*
X67242856Y-73231202D01*
X67242856Y-73231202D02*
X67204761Y-73307393D01*
X67204761Y-73307393D02*
X67204761Y-73497869D01*
X67204761Y-73497869D02*
X67242856Y-73574059D01*
X67242856Y-73574059D02*
X67280951Y-73612155D01*
X67280951Y-73612155D02*
X67357142Y-73650250D01*
X67357142Y-73650250D02*
X67585713Y-73650250D01*
X67585713Y-73650250D02*
X67661904Y-73612155D01*
X67661904Y-73612155D02*
X67699999Y-73574059D01*
X65795236Y-73650250D02*
X66061903Y-73269297D01*
X66252379Y-73650250D02*
X66252379Y-72850250D01*
X66252379Y-72850250D02*
X65947617Y-72850250D01*
X65947617Y-72850250D02*
X65871427Y-72888345D01*
X65871427Y-72888345D02*
X65833332Y-72926440D01*
X65833332Y-72926440D02*
X65795236Y-73002631D01*
X65795236Y-73002631D02*
X65795236Y-73116916D01*
X65795236Y-73116916D02*
X65833332Y-73193107D01*
X65833332Y-73193107D02*
X65871427Y-73231202D01*
X65871427Y-73231202D02*
X65947617Y-73269297D01*
X65947617Y-73269297D02*
X66252379Y-73269297D01*
X65452379Y-73650250D02*
X65452379Y-72850250D01*
X64652380Y-72888345D02*
X64728570Y-72850250D01*
X64728570Y-72850250D02*
X64842856Y-72850250D01*
X64842856Y-72850250D02*
X64957142Y-72888345D01*
X64957142Y-72888345D02*
X65033332Y-72964535D01*
X65033332Y-72964535D02*
X65071427Y-73040726D01*
X65071427Y-73040726D02*
X65109523Y-73193107D01*
X65109523Y-73193107D02*
X65109523Y-73307393D01*
X65109523Y-73307393D02*
X65071427Y-73459774D01*
X65071427Y-73459774D02*
X65033332Y-73535964D01*
X65033332Y-73535964D02*
X64957142Y-73612155D01*
X64957142Y-73612155D02*
X64842856Y-73650250D01*
X64842856Y-73650250D02*
X64766665Y-73650250D01*
X64766665Y-73650250D02*
X64652380Y-73612155D01*
X64652380Y-73612155D02*
X64614284Y-73574059D01*
X64614284Y-73574059D02*
X64614284Y-73307393D01*
X64614284Y-73307393D02*
X64766665Y-73307393D01*
X64271427Y-73650250D02*
X64271427Y-72850250D01*
X64271427Y-73231202D02*
X63814284Y-73231202D01*
X63814284Y-73650250D02*
X63814284Y-72850250D01*
X63547618Y-72850250D02*
X63090475Y-72850250D01*
X63319047Y-73650250D02*
X63319047Y-72850250D01*
X62214284Y-73650250D02*
X62214284Y-72850250D01*
X61833332Y-73650250D02*
X61833332Y-72850250D01*
X61833332Y-72850250D02*
X61376189Y-73650250D01*
X61376189Y-73650250D02*
X61376189Y-72850250D01*
X56966666Y-110102295D02*
X56471428Y-110102295D01*
X56471428Y-110102295D02*
X56738094Y-110407057D01*
X56738094Y-110407057D02*
X56623809Y-110407057D01*
X56623809Y-110407057D02*
X56547618Y-110445152D01*
X56547618Y-110445152D02*
X56509523Y-110483247D01*
X56509523Y-110483247D02*
X56471428Y-110559438D01*
X56471428Y-110559438D02*
X56471428Y-110749914D01*
X56471428Y-110749914D02*
X56509523Y-110826104D01*
X56509523Y-110826104D02*
X56547618Y-110864200D01*
X56547618Y-110864200D02*
X56623809Y-110902295D01*
X56623809Y-110902295D02*
X56852380Y-110902295D01*
X56852380Y-110902295D02*
X56928571Y-110864200D01*
X56928571Y-110864200D02*
X56966666Y-110826104D01*
X56966666Y-74102295D02*
X56471428Y-74102295D01*
X56471428Y-74102295D02*
X56738094Y-74407057D01*
X56738094Y-74407057D02*
X56623809Y-74407057D01*
X56623809Y-74407057D02*
X56547618Y-74445152D01*
X56547618Y-74445152D02*
X56509523Y-74483247D01*
X56509523Y-74483247D02*
X56471428Y-74559438D01*
X56471428Y-74559438D02*
X56471428Y-74749914D01*
X56471428Y-74749914D02*
X56509523Y-74826104D01*
X56509523Y-74826104D02*
X56547618Y-74864200D01*
X56547618Y-74864200D02*
X56623809Y-74902295D01*
X56623809Y-74902295D02*
X56852380Y-74902295D01*
X56852380Y-74902295D02*
X56928571Y-74864200D01*
X56928571Y-74864200D02*
X56966666Y-74826104D01*
X138566666Y-76102295D02*
X138071428Y-76102295D01*
X138071428Y-76102295D02*
X138338094Y-76407057D01*
X138338094Y-76407057D02*
X138223809Y-76407057D01*
X138223809Y-76407057D02*
X138147618Y-76445152D01*
X138147618Y-76445152D02*
X138109523Y-76483247D01*
X138109523Y-76483247D02*
X138071428Y-76559438D01*
X138071428Y-76559438D02*
X138071428Y-76749914D01*
X138071428Y-76749914D02*
X138109523Y-76826104D01*
X138109523Y-76826104D02*
X138147618Y-76864200D01*
X138147618Y-76864200D02*
X138223809Y-76902295D01*
X138223809Y-76902295D02*
X138452380Y-76902295D01*
X138452380Y-76902295D02*
X138528571Y-76864200D01*
X138528571Y-76864200D02*
X138566666Y-76826104D01*
X56028571Y-66522294D02*
X56028571Y-67093722D01*
X56028571Y-67093722D02*
X56066666Y-67208008D01*
X56066666Y-67208008D02*
X56142857Y-67284199D01*
X56142857Y-67284199D02*
X56257142Y-67322294D01*
X56257142Y-67322294D02*
X56333333Y-67322294D01*
X55228571Y-67322294D02*
X55685714Y-67322294D01*
X55457142Y-67322294D02*
X55457142Y-66522294D01*
X55457142Y-66522294D02*
X55533333Y-66636579D01*
X55533333Y-66636579D02*
X55609523Y-66712770D01*
X55609523Y-66712770D02*
X55685714Y-66750865D01*
X54733332Y-66522294D02*
X54657142Y-66522294D01*
X54657142Y-66522294D02*
X54580951Y-66560389D01*
X54580951Y-66560389D02*
X54542856Y-66598484D01*
X54542856Y-66598484D02*
X54504761Y-66674675D01*
X54504761Y-66674675D02*
X54466666Y-66827056D01*
X54466666Y-66827056D02*
X54466666Y-67017532D01*
X54466666Y-67017532D02*
X54504761Y-67169913D01*
X54504761Y-67169913D02*
X54542856Y-67246103D01*
X54542856Y-67246103D02*
X54580951Y-67284199D01*
X54580951Y-67284199D02*
X54657142Y-67322294D01*
X54657142Y-67322294D02*
X54733332Y-67322294D01*
X54733332Y-67322294D02*
X54809523Y-67284199D01*
X54809523Y-67284199D02*
X54847618Y-67246103D01*
X54847618Y-67246103D02*
X54885713Y-67169913D01*
X54885713Y-67169913D02*
X54923809Y-67017532D01*
X54923809Y-67017532D02*
X54923809Y-66827056D01*
X54923809Y-66827056D02*
X54885713Y-66674675D01*
X54885713Y-66674675D02*
X54847618Y-66598484D01*
X54847618Y-66598484D02*
X54809523Y-66560389D01*
X54809523Y-66560389D02*
X54733332Y-66522294D01*
X54161904Y-66598484D02*
X54123808Y-66560389D01*
X54123808Y-66560389D02*
X54047618Y-66522294D01*
X54047618Y-66522294D02*
X53857142Y-66522294D01*
X53857142Y-66522294D02*
X53780951Y-66560389D01*
X53780951Y-66560389D02*
X53742856Y-66598484D01*
X53742856Y-66598484D02*
X53704761Y-66674675D01*
X53704761Y-66674675D02*
X53704761Y-66750865D01*
X53704761Y-66750865D02*
X53742856Y-66865151D01*
X53742856Y-66865151D02*
X54199999Y-67322294D01*
X54199999Y-67322294D02*
X53704761Y-67322294D01*
X138528571Y-73638485D02*
X138490475Y-73600390D01*
X138490475Y-73600390D02*
X138414285Y-73562295D01*
X138414285Y-73562295D02*
X138223809Y-73562295D01*
X138223809Y-73562295D02*
X138147618Y-73600390D01*
X138147618Y-73600390D02*
X138109523Y-73638485D01*
X138109523Y-73638485D02*
X138071428Y-73714676D01*
X138071428Y-73714676D02*
X138071428Y-73790866D01*
X138071428Y-73790866D02*
X138109523Y-73905152D01*
X138109523Y-73905152D02*
X138566666Y-74362295D01*
X138566666Y-74362295D02*
X138071428Y-74362295D01*
X56928571Y-107638485D02*
X56890475Y-107600390D01*
X56890475Y-107600390D02*
X56814285Y-107562295D01*
X56814285Y-107562295D02*
X56623809Y-107562295D01*
X56623809Y-107562295D02*
X56547618Y-107600390D01*
X56547618Y-107600390D02*
X56509523Y-107638485D01*
X56509523Y-107638485D02*
X56471428Y-107714676D01*
X56471428Y-107714676D02*
X56471428Y-107790866D01*
X56471428Y-107790866D02*
X56509523Y-107905152D01*
X56509523Y-107905152D02*
X56966666Y-108362295D01*
X56966666Y-108362295D02*
X56471428Y-108362295D01*
X56928571Y-71638485D02*
X56890475Y-71600390D01*
X56890475Y-71600390D02*
X56814285Y-71562295D01*
X56814285Y-71562295D02*
X56623809Y-71562295D01*
X56623809Y-71562295D02*
X56547618Y-71600390D01*
X56547618Y-71600390D02*
X56509523Y-71638485D01*
X56509523Y-71638485D02*
X56471428Y-71714676D01*
X56471428Y-71714676D02*
X56471428Y-71790866D01*
X56471428Y-71790866D02*
X56509523Y-71905152D01*
X56509523Y-71905152D02*
X56966666Y-72362295D01*
X56966666Y-72362295D02*
X56471428Y-72362295D01*
X138071428Y-71822295D02*
X138528571Y-71822295D01*
X138299999Y-71822295D02*
X138299999Y-71022295D01*
X138299999Y-71022295D02*
X138376190Y-71136580D01*
X138376190Y-71136580D02*
X138452380Y-71212771D01*
X138452380Y-71212771D02*
X138528571Y-71250866D01*
X100247617Y-93362295D02*
X100247617Y-92562295D01*
X99866665Y-93362295D02*
X99866665Y-92562295D01*
X99866665Y-92562295D02*
X99409522Y-93362295D01*
X99409522Y-93362295D02*
X99409522Y-92562295D01*
X99028570Y-92943247D02*
X98419047Y-92943247D01*
X98419047Y-93171819D02*
X99028570Y-93171819D01*
X98038094Y-93362295D02*
X98038094Y-92562295D01*
X97657142Y-93362295D02*
X97657142Y-92562295D01*
X97657142Y-92562295D02*
X97199999Y-93362295D01*
X97199999Y-93362295D02*
X97199999Y-92562295D01*
X96933333Y-92562295D02*
X96476190Y-92562295D01*
X96704762Y-93362295D02*
X96704762Y-92562295D01*
X96057142Y-92562295D02*
X95904761Y-92562295D01*
X95904761Y-92562295D02*
X95828571Y-92600390D01*
X95828571Y-92600390D02*
X95752380Y-92676580D01*
X95752380Y-92676580D02*
X95714285Y-92828961D01*
X95714285Y-92828961D02*
X95714285Y-93095628D01*
X95714285Y-93095628D02*
X95752380Y-93248009D01*
X95752380Y-93248009D02*
X95828571Y-93324200D01*
X95828571Y-93324200D02*
X95904761Y-93362295D01*
X95904761Y-93362295D02*
X96057142Y-93362295D01*
X96057142Y-93362295D02*
X96133333Y-93324200D01*
X96133333Y-93324200D02*
X96209523Y-93248009D01*
X96209523Y-93248009D02*
X96247619Y-93095628D01*
X96247619Y-93095628D02*
X96247619Y-92828961D01*
X96247619Y-92828961D02*
X96209523Y-92676580D01*
X96209523Y-92676580D02*
X96133333Y-92600390D01*
X96133333Y-92600390D02*
X96057142Y-92562295D01*
%LPC*%
D11*
X121750000Y-82500000D03*
D12*
X124250000Y-82500000D03*
X101770000Y-82500000D03*
X99230000Y-82500000D03*
X90500000Y-91000000D03*
X95500000Y-91000000D03*
X105500000Y-128000000D03*
X110500000Y-128000000D03*
D11*
X113250000Y-109000000D03*
D12*
X116750000Y-109000000D03*
D13*
X121190000Y-103110000D03*
D14*
X121190000Y-110730000D03*
X121190000Y-115810000D03*
X121190000Y-120890000D03*
X128810000Y-120890000D03*
X128810000Y-115810000D03*
X128810000Y-110730000D03*
X128810000Y-103110000D03*
D12*
X100920000Y-103000000D03*
X111080000Y-103000000D03*
X139000000Y-123080000D03*
X139000000Y-112920000D03*
D11*
X89750000Y-127000000D03*
D12*
X92250000Y-127000000D03*
X97000000Y-125080000D03*
X97000000Y-114920000D03*
D11*
X92750000Y-100000000D03*
D12*
X95250000Y-100000000D03*
D11*
X119190000Y-126000000D03*
D12*
X126810000Y-126000000D03*
D11*
X64750000Y-81230000D03*
D12*
X67250000Y-81230000D03*
D15*
X55000000Y-105460000D03*
D16*
X55000000Y-108000000D03*
X55000000Y-110540000D03*
D17*
X143000000Y-53000000D03*
D12*
X85000000Y-74000000D03*
X90000000Y-74000000D03*
X81000000Y-73080000D03*
X81000000Y-62920000D03*
D15*
X55000000Y-69460000D03*
D16*
X55000000Y-72000000D03*
X55000000Y-74540000D03*
D12*
X116080000Y-82500000D03*
X105920000Y-82500000D03*
X105920000Y-100000000D03*
X116080000Y-100000000D03*
D18*
X61380000Y-124000000D03*
X76620000Y-124000000D03*
D12*
X77920000Y-103000000D03*
X88080000Y-103000000D03*
D19*
X127380000Y-59500000D03*
D20*
X142620000Y-59500000D03*
D12*
X135000000Y-110080000D03*
X135000000Y-99920000D03*
X103000000Y-89000000D03*
X98000000Y-89000000D03*
D19*
X127380000Y-90000000D03*
D20*
X142620000Y-90000000D03*
D17*
X53000000Y-131000000D03*
D15*
X140000000Y-71460000D03*
D16*
X140000000Y-74000000D03*
X140000000Y-76540000D03*
D12*
X79920000Y-120000000D03*
X90080000Y-120000000D03*
D11*
X106250000Y-66000000D03*
D12*
X109750000Y-66000000D03*
X100000000Y-78750000D03*
X100000000Y-76250000D03*
X72420000Y-81230000D03*
X82580000Y-81230000D03*
X86230000Y-81230000D03*
X88770000Y-81230000D03*
D21*
X104460000Y-119000000D03*
D22*
X107000000Y-119000000D03*
X109540000Y-119000000D03*
D12*
X128000000Y-75080000D03*
X128000000Y-64920000D03*
%LPD*%
M02*
