G04 #@! TF.GenerationSoftware,KiCad,Pcbnew,9.0.2+dfsg-1*
G04 #@! TF.CreationDate,2026-10-08T19:46:54+00:00*
G04 #@! TF.ProjectId,Ardor_Headphones_THT,4172646f-725f-4486-9561-6470686f6e65,rev?*
G04 #@! TF.SameCoordinates,Original*
G04 #@! TF.FileFunction,Soldermask,Bot*
G04 #@! TF.FilePolarity,Negative*
%FSLAX46Y46*%
G04 Gerber Fmt 4.6, Leading zero omitted, Abs format (unit mm)*
G04 Created by KiCad (PCBNEW 9.0.2+dfsg-1) date 2026-10-08 19:46:54*
%MOMM*%
%LPD*%
G01*
G04 APERTURE LIST*
G04 Aperture macros list*
%AMRoundRect*
0 Rectangle with rounded corners*
0 $1 Rounding radius*
0 $2 $3 $4 $5 $6 $7 $8 $9 X,Y pos of 4 corners*
0 Add a 4 corners polygon primitive as box body*
4,1,4,$2,$3,$4,$5,$6,$7,$8,$9,$2,$3,0*
0 Add four circle primitives for the rounded corners*
1,1,$1+$1,$2,$3*
1,1,$1+$1,$4,$5*
1,1,$1+$1,$6,$7*
1,1,$1+$1,$8,$9*
0 Add four rect primitives between the rounded corners*
20,1,$1+$1,$2,$3,$4,$5,0*
20,1,$1+$1,$4,$5,$6,$7,0*
20,1,$1+$1,$6,$7,$8,$9,0*
20,1,$1+$1,$8,$9,$2,$3,0*%
G04 Aperture macros list end*
%ADD10C,1.600000*%
%ADD11C,2.000000*%
%ADD12RoundRect,0.250000X-0.550000X-0.550000X0.550000X-0.550000X0.550000X0.550000X-0.550000X0.550000X0*%
%ADD13C,2.200000*%
%ADD14RoundRect,0.250001X-0.949999X-0.949999X0.949999X-0.949999X0.949999X0.949999X-0.949999X0.949999X0*%
%ADD15C,2.400000*%
%ADD16R,1.700000X1.700000*%
%ADD17C,1.700000*%
%ADD18R,1.500000X1.500000*%
%ADD19C,1.500000*%
%ADD20R,1.400000X1.400000*%
%ADD21C,1.400000*%
G04 APERTURE END LIST*
D10*
X78920000Y-105000000D03*
X89080000Y-105000000D03*
X79920000Y-120000000D03*
X90080000Y-120000000D03*
X72920000Y-70000000D03*
X83080000Y-70000000D03*
X116920000Y-70000000D03*
X127080000Y-70000000D03*
X105500000Y-128000000D03*
X110500000Y-128000000D03*
D11*
X61380000Y-124000000D03*
X76620000Y-124000000D03*
D10*
X135000000Y-110080000D03*
X135000000Y-99920000D03*
D12*
X93750000Y-82000000D03*
D10*
X96250000Y-82000000D03*
X64500000Y-95000000D03*
X69500000Y-95000000D03*
X78920000Y-80000000D03*
X89080000Y-80000000D03*
X99500000Y-63000000D03*
X104500000Y-63000000D03*
X105000000Y-110080000D03*
X105000000Y-99920000D03*
X72920000Y-95000000D03*
X83080000Y-95000000D03*
D13*
X53000000Y-131000000D03*
D14*
X131920000Y-87000000D03*
D15*
X142080000Y-87000000D03*
D12*
X108250000Y-95000000D03*
D10*
X111750000Y-95000000D03*
X116920000Y-95000000D03*
X127080000Y-95000000D03*
D16*
X140000000Y-71460000D03*
D17*
X140000000Y-74000000D03*
X140000000Y-76540000D03*
D16*
X55000000Y-105460000D03*
D17*
X55000000Y-108000000D03*
X55000000Y-110540000D03*
D12*
X108250000Y-70000000D03*
D10*
X111750000Y-70000000D03*
X105000000Y-85080000D03*
X105000000Y-74920000D03*
X109500000Y-107000000D03*
X114500000Y-107000000D03*
D13*
X143000000Y-53000000D03*
D10*
X64500000Y-70000000D03*
X69500000Y-70000000D03*
D12*
X90190000Y-91190000D03*
D10*
X90190000Y-93730000D03*
X90190000Y-96270000D03*
X90190000Y-98810000D03*
X97810000Y-98810000D03*
X97810000Y-96270000D03*
X97810000Y-93730000D03*
X97810000Y-91190000D03*
X139000000Y-123080000D03*
X139000000Y-112920000D03*
D18*
X104460000Y-119000000D03*
D19*
X107000000Y-119000000D03*
X109540000Y-119000000D03*
D20*
X121190000Y-103110000D03*
D21*
X121190000Y-110730000D03*
X121190000Y-115810000D03*
X121190000Y-120890000D03*
X128810000Y-120890000D03*
X128810000Y-115810000D03*
X128810000Y-110730000D03*
X128810000Y-103110000D03*
D10*
X99500000Y-88000000D03*
X104500000Y-88000000D03*
X126920000Y-80000000D03*
X137080000Y-80000000D03*
X97000000Y-125080000D03*
X97000000Y-114920000D03*
X109500000Y-82000000D03*
X114500000Y-82000000D03*
D12*
X90190000Y-66190000D03*
D10*
X90190000Y-68730000D03*
X90190000Y-71270000D03*
X90190000Y-73810000D03*
X97810000Y-73810000D03*
X97810000Y-71270000D03*
X97810000Y-68730000D03*
X97810000Y-66190000D03*
D14*
X131920000Y-62000000D03*
D15*
X142080000Y-62000000D03*
D16*
X55000000Y-69460000D03*
D17*
X55000000Y-72000000D03*
X55000000Y-74540000D03*
D12*
X119190000Y-126000000D03*
D10*
X126810000Y-126000000D03*
D12*
X89750000Y-127000000D03*
D10*
X92250000Y-127000000D03*
D12*
X93750000Y-107000000D03*
D10*
X96250000Y-107000000D03*
M02*
