G04 #@! TF.GenerationSoftware,KiCad,Pcbnew,9.0.2+dfsg-1*
G04 #@! TF.CreationDate,2026-10-08T19:46:54+00:00*
G04 #@! TF.ProjectId,Ardor_Headphones_THT,4172646f-725f-4486-9561-6470686f6e65,rev?*
G04 #@! TF.SameCoordinates,Original*
G04 #@! TF.FileFunction,Copper,L1,Top*
G04 #@! TF.FilePolarity,Positive*
%FSLAX46Y46*%
G04 Gerber Fmt 4.6, Leading zero omitted, Abs format (unit mm)*
G04 Created by KiCad (PCBNEW 9.0.2+dfsg-1) date 2026-10-08 19:46:54*
%MOMM*%
%LPD*%
G01*
G04 APERTURE LIST*
G04 Aperture macros list*
%AMRoundRect*
0 Rectangle with rounded corners*
0 $1 Rounding radius*
0 $2 $3 $4 $5 $6 $7 $8 $9 X,Y pos of 4 corners*
0 Add a 4 corners polygon primitive as box body*
4,1,4,$2,$3,$4,$5,$6,$7,$8,$9,$2,$3,0*
0 Add four circle primitives for the rounded corners*
1,1,$1+$1,$2,$3*
1,1,$1+$1,$4,$5*
1,1,$1+$1,$6,$7*
1,1,$1+$1,$8,$9*
0 Add four rect primitives between the rounded corners*
20,1,$1+$1,$2,$3,$4,$5,0*
20,1,$1+$1,$4,$5,$6,$7,0*
20,1,$1+$1,$6,$7,$8,$9,0*
20,1,$1+$1,$8,$9,$2,$3,0*%
G04 Aperture macros list end*
G04 #@! TA.AperFunction,ComponentPad*
%ADD10C,1.600000*%
G04 #@! TD*
G04 #@! TA.AperFunction,ComponentPad*
%ADD11C,2.000000*%
G04 #@! TD*
G04 #@! TA.AperFunction,ComponentPad*
%ADD12RoundRect,0.250000X-0.550000X-0.550000X0.550000X-0.550000X0.550000X0.550000X-0.550000X0.550000X0*%
G04 #@! TD*
G04 #@! TA.AperFunction,ComponentPad*
%ADD13RoundRect,0.250001X-0.949999X-0.949999X0.949999X-0.949999X0.949999X0.949999X-0.949999X0.949999X0*%
G04 #@! TD*
G04 #@! TA.AperFunction,ComponentPad*
%ADD14C,2.400000*%
G04 #@! TD*
G04 #@! TA.AperFunction,ComponentPad*
%ADD15R,1.700000X1.700000*%
G04 #@! TD*
G04 #@! TA.AperFunction,ComponentPad*
%ADD16C,1.700000*%
G04 #@! TD*
G04 #@! TA.AperFunction,ComponentPad*
%ADD17R,1.500000X1.500000*%
G04 #@! TD*
G04 #@! TA.AperFunction,ComponentPad*
%ADD18C,1.500000*%
G04 #@! TD*
G04 #@! TA.AperFunction,ComponentPad*
%ADD19R,1.400000X1.400000*%
G04 #@! TD*
G04 #@! TA.AperFunction,ComponentPad*
%ADD20C,1.400000*%
G04 #@! TD*
G04 #@! TA.AperFunction,Conductor*
%ADD21C,0.200000*%
G04 #@! TD*
G04 #@! TA.AperFunction,Conductor*
%ADD22C,0.600000*%
G04 #@! TD*
G04 APERTURE END LIST*
D10*
X78920000Y-105000000D03*
X89080000Y-105000000D03*
X79920000Y-120000000D03*
X90080000Y-120000000D03*
X72920000Y-70000000D03*
X83080000Y-70000000D03*
X116920000Y-70000000D03*
X127080000Y-70000000D03*
X105500000Y-128000000D03*
X110500000Y-128000000D03*
D11*
X61380000Y-124000000D03*
X76620000Y-124000000D03*
D10*
X135000000Y-110080000D03*
X135000000Y-99920000D03*
D12*
X93750000Y-82000000D03*
D10*
X96250000Y-82000000D03*
X64500000Y-95000000D03*
X69500000Y-95000000D03*
X78920000Y-80000000D03*
X89080000Y-80000000D03*
X99500000Y-63000000D03*
X104500000Y-63000000D03*
X105000000Y-110080000D03*
X105000000Y-99920000D03*
X72920000Y-95000000D03*
X83080000Y-95000000D03*
D13*
X131920000Y-87000000D03*
D14*
X142080000Y-87000000D03*
D12*
X108250000Y-95000000D03*
D10*
X111750000Y-95000000D03*
X116920000Y-95000000D03*
X127080000Y-95000000D03*
D15*
X140000000Y-71460000D03*
D16*
X140000000Y-74000000D03*
X140000000Y-76540000D03*
D15*
X55000000Y-105460000D03*
D16*
X55000000Y-108000000D03*
X55000000Y-110540000D03*
D12*
X108250000Y-70000000D03*
D10*
X111750000Y-70000000D03*
X105000000Y-85080000D03*
X105000000Y-74920000D03*
X109500000Y-107000000D03*
X114500000Y-107000000D03*
X64500000Y-70000000D03*
X69500000Y-70000000D03*
D12*
X90190000Y-91190000D03*
D10*
X90190000Y-93730000D03*
X90190000Y-96270000D03*
X90190000Y-98810000D03*
X97810000Y-98810000D03*
X97810000Y-96270000D03*
X97810000Y-93730000D03*
X97810000Y-91190000D03*
X139000000Y-123080000D03*
X139000000Y-112920000D03*
D17*
X104460000Y-119000000D03*
D18*
X107000000Y-119000000D03*
X109540000Y-119000000D03*
D19*
X121190000Y-103110000D03*
D20*
X121190000Y-110730000D03*
X121190000Y-115810000D03*
X121190000Y-120890000D03*
X128810000Y-120890000D03*
X128810000Y-115810000D03*
X128810000Y-110730000D03*
X128810000Y-103110000D03*
D10*
X99500000Y-88000000D03*
X104500000Y-88000000D03*
X126920000Y-80000000D03*
X137080000Y-80000000D03*
X97000000Y-125080000D03*
X97000000Y-114920000D03*
X109500000Y-82000000D03*
X114500000Y-82000000D03*
D12*
X90190000Y-66190000D03*
D10*
X90190000Y-68730000D03*
X90190000Y-71270000D03*
X90190000Y-73810000D03*
X97810000Y-73810000D03*
X97810000Y-71270000D03*
X97810000Y-68730000D03*
X97810000Y-66190000D03*
D13*
X131920000Y-62000000D03*
D14*
X142080000Y-62000000D03*
D15*
X55000000Y-69460000D03*
D16*
X55000000Y-72000000D03*
X55000000Y-74540000D03*
D12*
X119190000Y-126000000D03*
D10*
X126810000Y-126000000D03*
D12*
X89750000Y-127000000D03*
D10*
X92250000Y-127000000D03*
D12*
X93750000Y-107000000D03*
D10*
X96250000Y-107000000D03*
D21*
X121190000Y-104111700D02*
X119190000Y-106111700D01*
X61380000Y-112703800D02*
X61380000Y-124000000D01*
X55000000Y-106611700D02*
X55287900Y-106611700D01*
X55000000Y-105460000D02*
X55000000Y-106611700D01*
X119190000Y-106111700D02*
X119190000Y-126000000D01*
X121190000Y-103110000D02*
X121190000Y-104111700D01*
X55287900Y-106611700D02*
X61380000Y-112703800D01*
X96640200Y-75235200D02*
X96640200Y-72439800D01*
X99500000Y-88000000D02*
X99500000Y-94580000D01*
X97351700Y-106543600D02*
X97351700Y-112041000D01*
X99500000Y-88000000D02*
X99500000Y-78095000D01*
X99500000Y-78095000D02*
X96640200Y-75235200D01*
X99500000Y-94580000D02*
X97810000Y-96270000D01*
X97351700Y-112041000D02*
X91545400Y-117847300D01*
X96680200Y-105872100D02*
X97351700Y-106543600D01*
X97810000Y-96270000D02*
X96680200Y-97399800D01*
X97810000Y-71270000D02*
X99500000Y-69580000D01*
X96640200Y-72439800D02*
X97810000Y-71270000D01*
X91545400Y-125204600D02*
X89750000Y-127000000D01*
X91545400Y-117847300D02*
X91545400Y-125204600D01*
X99500000Y-69580000D02*
X99500000Y-63000000D01*
X96680200Y-97399800D02*
X96680200Y-105872100D01*
D22*
X142080000Y-120000000D02*
X142080000Y-87000000D01*
X142080000Y-62000000D02*
X142080000Y-87000000D01*
X139000000Y-123080000D02*
X142080000Y-120000000D01*
D21*
X126920000Y-80000000D02*
X125000000Y-81920000D01*
X125000000Y-117080000D02*
X121190000Y-120890000D01*
X127080000Y-70000000D02*
X127080000Y-79840000D01*
X125000000Y-81920000D02*
X125000000Y-117080000D01*
X127080000Y-79840000D02*
X126920000Y-80000000D01*
X135000000Y-110080000D02*
X135000000Y-114700000D01*
X127080000Y-95000000D02*
X135000000Y-102920000D01*
X135000000Y-114700000D02*
X128810000Y-120890000D01*
X135000000Y-102920000D02*
X135000000Y-110080000D01*
X140000000Y-70080000D02*
X131920000Y-62000000D01*
X121190000Y-110730000D02*
X122757700Y-109162300D01*
X122757700Y-109162300D02*
X122757700Y-71162300D01*
X122757700Y-71162300D02*
X131920000Y-62000000D01*
X140000000Y-71460000D02*
X140000000Y-70080000D01*
X128810000Y-110730000D02*
X129856500Y-109683500D01*
X131920000Y-82080000D02*
X140000000Y-74000000D01*
X129856500Y-109683500D02*
X129856500Y-101421900D01*
X131920000Y-87000000D02*
X131920000Y-82080000D01*
X125925900Y-97491300D02*
X125925900Y-92994100D01*
X125925900Y-92994100D02*
X131920000Y-87000000D01*
X129856500Y-101421900D02*
X125925900Y-97491300D01*
X126810000Y-126000000D02*
X126810000Y-105110000D01*
X126810000Y-105110000D02*
X128810000Y-103110000D01*
X108250000Y-81830000D02*
X105000000Y-85080000D01*
X108250000Y-70000000D02*
X108250000Y-81830000D01*
X105000000Y-110080000D02*
X97810000Y-102890000D01*
X97810000Y-102890000D02*
X97810000Y-98810000D01*
X109500000Y-104420000D02*
X109500000Y-107000000D01*
X105000000Y-99920000D02*
X109500000Y-104420000D01*
X64500000Y-84040000D02*
X64500000Y-95000000D01*
X55000000Y-74540000D02*
X64500000Y-84040000D01*
X78920000Y-80000000D02*
X78920000Y-74160000D01*
X78920000Y-74160000D02*
X83080000Y-70000000D01*
X97810000Y-68730000D02*
X93750000Y-72790000D01*
X93750000Y-72790000D02*
X93750000Y-82000000D01*
X78920000Y-99160000D02*
X83080000Y-95000000D01*
X78920000Y-105000000D02*
X78920000Y-99160000D01*
X93750000Y-107000000D02*
X93750000Y-97790000D01*
X93750000Y-97790000D02*
X97810000Y-93730000D01*
G04 #@! TA.AperFunction,Conductor*
G36*
X145458691Y-50519407D02*
G01*
X145494655Y-50568907D01*
X145499500Y-50599500D01*
X145499500Y-133400500D01*
X145480593Y-133458691D01*
X145431093Y-133494655D01*
X145400500Y-133499500D01*
X50599500Y-133499500D01*
X50541309Y-133480593D01*
X50505345Y-133431093D01*
X50500500Y-133400500D01*
X50500500Y-130893709D01*
X51649500Y-130893709D01*
X51649500Y-131106290D01*
X51682752Y-131316238D01*
X51748443Y-131518412D01*
X51844948Y-131707815D01*
X51844950Y-131707819D01*
X51969891Y-131879786D01*
X51969893Y-131879788D01*
X51969896Y-131879792D01*
X52120208Y-132030104D01*
X52120211Y-132030106D01*
X52120213Y-132030108D01*
X52292180Y-132155049D01*
X52292184Y-132155051D01*
X52481588Y-132251557D01*
X52683757Y-132317246D01*
X52683758Y-132317246D01*
X52683761Y-132317247D01*
X52893710Y-132350500D01*
X52893713Y-132350500D01*
X53106290Y-132350500D01*
X53316238Y-132317247D01*
X53316239Y-132317246D01*
X53316243Y-132317246D01*
X53518412Y-132251557D01*
X53707816Y-132155051D01*
X53879792Y-132030104D01*
X54030104Y-131879792D01*
X54155051Y-131707816D01*
X54251557Y-131518412D01*
X54317246Y-131316243D01*
X54350500Y-131106287D01*
X54350500Y-130893713D01*
X54350500Y-130893709D01*
X54317247Y-130683761D01*
X54317246Y-130683757D01*
X54251557Y-130481588D01*
X54155051Y-130292184D01*
X54155049Y-130292180D01*
X54030108Y-130120213D01*
X54030106Y-130120211D01*
X54030104Y-130120208D01*
X53879792Y-129969896D01*
X53879788Y-129969893D01*
X53879786Y-129969891D01*
X53707819Y-129844950D01*
X53707815Y-129844948D01*
X53518412Y-129748443D01*
X53316238Y-129682752D01*
X53106290Y-129649500D01*
X53106287Y-129649500D01*
X52893713Y-129649500D01*
X52893710Y-129649500D01*
X52683761Y-129682752D01*
X52481587Y-129748443D01*
X52292184Y-129844948D01*
X52292180Y-129844950D01*
X52120213Y-129969891D01*
X51969891Y-130120213D01*
X51844950Y-130292180D01*
X51844948Y-130292184D01*
X51748443Y-130481587D01*
X51682752Y-130683761D01*
X51649500Y-130893709D01*
X50500500Y-130893709D01*
X50500500Y-126395725D01*
X88749500Y-126395725D01*
X88749500Y-127604274D01*
X88752353Y-127634694D01*
X88752355Y-127634703D01*
X88797207Y-127762883D01*
X88877845Y-127872144D01*
X88877847Y-127872146D01*
X88877850Y-127872150D01*
X88877853Y-127872152D01*
X88877855Y-127872154D01*
X88987116Y-127952792D01*
X88987117Y-127952792D01*
X88987118Y-127952793D01*
X89115301Y-127997646D01*
X89145725Y-128000499D01*
X89145727Y-128000500D01*
X89145734Y-128000500D01*
X90354273Y-128000500D01*
X90354273Y-128000499D01*
X90384699Y-127997646D01*
X90512882Y-127952793D01*
X90622150Y-127872150D01*
X90702793Y-127762882D01*
X90747646Y-127634699D01*
X90750499Y-127604273D01*
X90750500Y-127604273D01*
X90750500Y-126896581D01*
X91200000Y-126896581D01*
X91200000Y-127103418D01*
X91240349Y-127306272D01*
X91319501Y-127497361D01*
X91408022Y-127629843D01*
X91879532Y-127158332D01*
X91929920Y-127245606D01*
X92004394Y-127320080D01*
X92091665Y-127370465D01*
X91620154Y-127841977D01*
X91752625Y-127930491D01*
X91752639Y-127930498D01*
X91943727Y-128009650D01*
X92146581Y-128049999D01*
X92146586Y-128050000D01*
X92353414Y-128050000D01*
X92353418Y-128049999D01*
X92556272Y-128009650D01*
X92747360Y-127930498D01*
X92790825Y-127901456D01*
X104499500Y-127901456D01*
X104499500Y-128098543D01*
X104537949Y-128291834D01*
X104537949Y-128291836D01*
X104613367Y-128473913D01*
X104613368Y-128473914D01*
X104722861Y-128637782D01*
X104862218Y-128777139D01*
X105026086Y-128886632D01*
X105208165Y-128962051D01*
X105401459Y-129000500D01*
X105401460Y-129000500D01*
X105598540Y-129000500D01*
X105598541Y-129000500D01*
X105791835Y-128962051D01*
X105973914Y-128886632D01*
X106137782Y-128777139D01*
X106277139Y-128637782D01*
X106386632Y-128473914D01*
X106462051Y-128291835D01*
X106500500Y-128098541D01*
X106500500Y-127901459D01*
X106500499Y-127901456D01*
X106499529Y-127896581D01*
X109450000Y-127896581D01*
X109450000Y-128103418D01*
X109490349Y-128306272D01*
X109569501Y-128497361D01*
X109658022Y-128629843D01*
X110129532Y-128158332D01*
X110179920Y-128245606D01*
X110254394Y-128320080D01*
X110341665Y-128370465D01*
X109870154Y-128841977D01*
X110002625Y-128930491D01*
X110002639Y-128930498D01*
X110193727Y-129009650D01*
X110396581Y-129049999D01*
X110396586Y-129050000D01*
X110603414Y-129050000D01*
X110603418Y-129049999D01*
X110806272Y-129009650D01*
X110997360Y-128930498D01*
X111129843Y-128841976D01*
X110658333Y-128370466D01*
X110745606Y-128320080D01*
X110820080Y-128245606D01*
X110870466Y-128158333D01*
X111341976Y-128629843D01*
X111430498Y-128497360D01*
X111509650Y-128306272D01*
X111549999Y-128103418D01*
X111550000Y-128103413D01*
X111550000Y-127896586D01*
X111549999Y-127896581D01*
X111509650Y-127693727D01*
X111430498Y-127502639D01*
X111430491Y-127502625D01*
X111341976Y-127370154D01*
X110870465Y-127841665D01*
X110820080Y-127754394D01*
X110745606Y-127679920D01*
X110658332Y-127629532D01*
X111129843Y-127158022D01*
X110997361Y-127069501D01*
X110806272Y-126990349D01*
X110603418Y-126950000D01*
X110396581Y-126950000D01*
X110193727Y-126990349D01*
X110002638Y-127069501D01*
X109870155Y-127158022D01*
X110341666Y-127629533D01*
X110254394Y-127679920D01*
X110179920Y-127754394D01*
X110129533Y-127841666D01*
X109658022Y-127370155D01*
X109569501Y-127502638D01*
X109490349Y-127693727D01*
X109450000Y-127896581D01*
X106499529Y-127896581D01*
X106488668Y-127841976D01*
X106462051Y-127708165D01*
X106386632Y-127526086D01*
X106277139Y-127362218D01*
X106137782Y-127222861D01*
X105973914Y-127113368D01*
X105973915Y-127113368D01*
X105973913Y-127113367D01*
X105791835Y-127037949D01*
X105598543Y-126999500D01*
X105598541Y-126999500D01*
X105401459Y-126999500D01*
X105401456Y-126999500D01*
X105208165Y-127037949D01*
X105208163Y-127037949D01*
X105026086Y-127113367D01*
X104862218Y-127222861D01*
X104862214Y-127222864D01*
X104722864Y-127362214D01*
X104722861Y-127362218D01*
X104613367Y-127526086D01*
X104537949Y-127708163D01*
X104537949Y-127708165D01*
X104499500Y-127901456D01*
X92790825Y-127901456D01*
X92879843Y-127841976D01*
X92408333Y-127370466D01*
X92495606Y-127320080D01*
X92570080Y-127245606D01*
X92620466Y-127158333D01*
X93091976Y-127629843D01*
X93180498Y-127497360D01*
X93259650Y-127306272D01*
X93299999Y-127103418D01*
X93300000Y-127103413D01*
X93300000Y-126896586D01*
X93299999Y-126896581D01*
X93259650Y-126693727D01*
X93180498Y-126502639D01*
X93180491Y-126502625D01*
X93091976Y-126370154D01*
X92620465Y-126841665D01*
X92570080Y-126754394D01*
X92495606Y-126679920D01*
X92408332Y-126629532D01*
X92879843Y-126158022D01*
X92747361Y-126069501D01*
X92556272Y-125990349D01*
X92353418Y-125950000D01*
X92146581Y-125950000D01*
X91943727Y-125990349D01*
X91752638Y-126069501D01*
X91620155Y-126158022D01*
X92091666Y-126629533D01*
X92004394Y-126679920D01*
X91929920Y-126754394D01*
X91879533Y-126841666D01*
X91408022Y-126370155D01*
X91319501Y-126502638D01*
X91240349Y-126693727D01*
X91200000Y-126896581D01*
X90750500Y-126896581D01*
X90750500Y-126465478D01*
X90769407Y-126407287D01*
X90779490Y-126395480D01*
X91785860Y-125389111D01*
X91795834Y-125371835D01*
X91825421Y-125320589D01*
X91845900Y-125244162D01*
X91845900Y-124981456D01*
X95999500Y-124981456D01*
X95999500Y-125178543D01*
X96037948Y-125371831D01*
X96037949Y-125371836D01*
X96113367Y-125553913D01*
X96113368Y-125553914D01*
X96222861Y-125717782D01*
X96362218Y-125857139D01*
X96526086Y-125966632D01*
X96708165Y-126042051D01*
X96901459Y-126080500D01*
X96901460Y-126080500D01*
X97098540Y-126080500D01*
X97098541Y-126080500D01*
X97291835Y-126042051D01*
X97473914Y-125966632D01*
X97637782Y-125857139D01*
X97777139Y-125717782D01*
X97886632Y-125553914D01*
X97952156Y-125395725D01*
X118189500Y-125395725D01*
X118189500Y-126604274D01*
X118192353Y-126634694D01*
X118192355Y-126634703D01*
X118237207Y-126762883D01*
X118317845Y-126872144D01*
X118317847Y-126872146D01*
X118317850Y-126872150D01*
X118317853Y-126872152D01*
X118317855Y-126872154D01*
X118427116Y-126952792D01*
X118427117Y-126952792D01*
X118427118Y-126952793D01*
X118555301Y-126997646D01*
X118585725Y-127000499D01*
X118585727Y-127000500D01*
X118585734Y-127000500D01*
X119794273Y-127000500D01*
X119794273Y-127000499D01*
X119824699Y-126997646D01*
X119952882Y-126952793D01*
X120062150Y-126872150D01*
X120142793Y-126762882D01*
X120187646Y-126634699D01*
X120190499Y-126604273D01*
X120190500Y-126604273D01*
X120190500Y-125395727D01*
X120190499Y-125395725D01*
X120189879Y-125389111D01*
X120187646Y-125365301D01*
X120142793Y-125237118D01*
X120132273Y-125222864D01*
X120062154Y-125127855D01*
X120062152Y-125127853D01*
X120062150Y-125127850D01*
X120062146Y-125127847D01*
X120062144Y-125127845D01*
X119952883Y-125047207D01*
X119824703Y-125002355D01*
X119824694Y-125002353D01*
X119794274Y-124999500D01*
X119794266Y-124999500D01*
X119589500Y-124999500D01*
X119531309Y-124980593D01*
X119495345Y-124931093D01*
X119490500Y-124900500D01*
X119490500Y-120801306D01*
X120289500Y-120801306D01*
X120289500Y-120978693D01*
X120324106Y-121152665D01*
X120324106Y-121152667D01*
X120391985Y-121316544D01*
X120391985Y-121316545D01*
X120490535Y-121464034D01*
X120490536Y-121464035D01*
X120615965Y-121589464D01*
X120763453Y-121688013D01*
X120927334Y-121755894D01*
X121101309Y-121790500D01*
X121101310Y-121790500D01*
X121278690Y-121790500D01*
X121278691Y-121790500D01*
X121452666Y-121755894D01*
X121616547Y-121688013D01*
X121764035Y-121589464D01*
X121889464Y-121464035D01*
X121988013Y-121316547D01*
X122055894Y-121152666D01*
X122090500Y-120978691D01*
X122090500Y-120801309D01*
X122055894Y-120627334D01*
X122028998Y-120562400D01*
X122024198Y-120501403D01*
X122050456Y-120454513D01*
X125240460Y-117264511D01*
X125280022Y-117195988D01*
X125300500Y-117119562D01*
X125300500Y-117040438D01*
X125300500Y-92954535D01*
X125625400Y-92954535D01*
X125625400Y-97530864D01*
X125645878Y-97607288D01*
X125645879Y-97607290D01*
X125664913Y-97640256D01*
X125664913Y-97640259D01*
X125664914Y-97640259D01*
X125664915Y-97640260D01*
X125685440Y-97675811D01*
X129527005Y-101517376D01*
X129554781Y-101571891D01*
X129556000Y-101587378D01*
X129556000Y-102343493D01*
X129537093Y-102401684D01*
X129487593Y-102437648D01*
X129426407Y-102437648D01*
X129386996Y-102413497D01*
X129384034Y-102410535D01*
X129236544Y-102311985D01*
X129072666Y-102244106D01*
X128898693Y-102209500D01*
X128898691Y-102209500D01*
X128721309Y-102209500D01*
X128721306Y-102209500D01*
X128547334Y-102244106D01*
X128547332Y-102244106D01*
X128383455Y-102311985D01*
X128383454Y-102311985D01*
X128235965Y-102410535D01*
X128110535Y-102535965D01*
X128011985Y-102683454D01*
X128011985Y-102683455D01*
X127944106Y-102847332D01*
X127944106Y-102847334D01*
X127909500Y-103021306D01*
X127909500Y-103198693D01*
X127944106Y-103372665D01*
X127944106Y-103372667D01*
X127971001Y-103437598D01*
X127975801Y-103498595D01*
X127949541Y-103545487D01*
X126625489Y-104869540D01*
X126625488Y-104869539D01*
X126569539Y-104925489D01*
X126529980Y-104994007D01*
X126529978Y-104994011D01*
X126509500Y-105070435D01*
X126509500Y-124975388D01*
X126490593Y-125033579D01*
X126448385Y-125066852D01*
X126336087Y-125113367D01*
X126172218Y-125222861D01*
X126172214Y-125222864D01*
X126032864Y-125362214D01*
X126032861Y-125362218D01*
X125923367Y-125526086D01*
X125847949Y-125708163D01*
X125847949Y-125708165D01*
X125809500Y-125901456D01*
X125809500Y-126098543D01*
X125847949Y-126291834D01*
X125847949Y-126291836D01*
X125923367Y-126473913D01*
X125923368Y-126473914D01*
X126032861Y-126637782D01*
X126172218Y-126777139D01*
X126336086Y-126886632D01*
X126518165Y-126962051D01*
X126711459Y-127000500D01*
X126711460Y-127000500D01*
X126908540Y-127000500D01*
X126908541Y-127000500D01*
X127101835Y-126962051D01*
X127283914Y-126886632D01*
X127447782Y-126777139D01*
X127587139Y-126637782D01*
X127696632Y-126473914D01*
X127772051Y-126291835D01*
X127810500Y-126098541D01*
X127810500Y-125901459D01*
X127772051Y-125708165D01*
X127696632Y-125526086D01*
X127587139Y-125362218D01*
X127447782Y-125222861D01*
X127283914Y-125113368D01*
X127281930Y-125112546D01*
X127171615Y-125066852D01*
X127125089Y-125027116D01*
X127110500Y-124975388D01*
X127110500Y-122981456D01*
X137999500Y-122981456D01*
X137999500Y-123178543D01*
X138025132Y-123307403D01*
X138037743Y-123370801D01*
X138037949Y-123371834D01*
X138037949Y-123371836D01*
X138113367Y-123553913D01*
X138113368Y-123553914D01*
X138222861Y-123717782D01*
X138362218Y-123857139D01*
X138526086Y-123966632D01*
X138708165Y-124042051D01*
X138901459Y-124080500D01*
X138901460Y-124080500D01*
X139098540Y-124080500D01*
X139098541Y-124080500D01*
X139291835Y-124042051D01*
X139473914Y-123966632D01*
X139637782Y-123857139D01*
X139777139Y-123717782D01*
X139886632Y-123553914D01*
X139962051Y-123371835D01*
X140000500Y-123178541D01*
X140000500Y-122981459D01*
X139978611Y-122871422D01*
X139985802Y-122810664D01*
X140005702Y-122782110D01*
X142480500Y-120307314D01*
X142489437Y-120291835D01*
X142546390Y-120193190D01*
X142546390Y-120193188D01*
X142546392Y-120193186D01*
X142580500Y-120065892D01*
X142580500Y-119934107D01*
X142580500Y-88377468D01*
X142599407Y-88319277D01*
X142634552Y-88289260D01*
X142814022Y-88197815D01*
X142992365Y-88068242D01*
X143148242Y-87912365D01*
X143277815Y-87734022D01*
X143377895Y-87537606D01*
X143446015Y-87327951D01*
X143480500Y-87110222D01*
X143480500Y-86889778D01*
X143480500Y-86889774D01*
X143446015Y-86672051D01*
X143446015Y-86672049D01*
X143377895Y-86462394D01*
X143277815Y-86265978D01*
X143148242Y-86087635D01*
X142992365Y-85931758D01*
X142814022Y-85802185D01*
X142814018Y-85802182D01*
X142814011Y-85802178D01*
X142634555Y-85710740D01*
X142591290Y-85667476D01*
X142580500Y-85622531D01*
X142580500Y-63377468D01*
X142599407Y-63319277D01*
X142634552Y-63289260D01*
X142814022Y-63197815D01*
X142992365Y-63068242D01*
X143148242Y-62912365D01*
X143277815Y-62734022D01*
X143377895Y-62537606D01*
X143446015Y-62327951D01*
X143480500Y-62110222D01*
X143480500Y-61889778D01*
X143480500Y-61889774D01*
X143446015Y-61672051D01*
X143446015Y-61672049D01*
X143377895Y-61462394D01*
X143277815Y-61265978D01*
X143148242Y-61087635D01*
X142992365Y-60931758D01*
X142814022Y-60802185D01*
X142814021Y-60802184D01*
X142814019Y-60802183D01*
X142724825Y-60756736D01*
X142617606Y-60702105D01*
X142617602Y-60702104D01*
X142617599Y-60702102D01*
X142407948Y-60633984D01*
X142190225Y-60599500D01*
X142190222Y-60599500D01*
X141969778Y-60599500D01*
X141969775Y-60599500D01*
X141752051Y-60633984D01*
X141542400Y-60702102D01*
X141345980Y-60802183D01*
X141256806Y-60866971D01*
X141167635Y-60931758D01*
X141011758Y-61087635D01*
X140946971Y-61176806D01*
X140882183Y-61265980D01*
X140782102Y-61462400D01*
X140713984Y-61672051D01*
X140679500Y-61889774D01*
X140679500Y-62110225D01*
X140713984Y-62327948D01*
X140782102Y-62537599D01*
X140782104Y-62537602D01*
X140782105Y-62537606D01*
X140882185Y-62734022D01*
X141011758Y-62912365D01*
X141167635Y-63068242D01*
X141345978Y-63197815D01*
X141525446Y-63289259D01*
X141568710Y-63332523D01*
X141579500Y-63377468D01*
X141579500Y-85622531D01*
X141560593Y-85680722D01*
X141525445Y-85710740D01*
X141345988Y-85802178D01*
X141345981Y-85802182D01*
X141270345Y-85857135D01*
X141167635Y-85931758D01*
X141011758Y-86087635D01*
X140946971Y-86176806D01*
X140882183Y-86265980D01*
X140782102Y-86462400D01*
X140713984Y-86672051D01*
X140679500Y-86889774D01*
X140679500Y-87110225D01*
X140713984Y-87327948D01*
X140782102Y-87537599D01*
X140782104Y-87537602D01*
X140782105Y-87537606D01*
X140882185Y-87734022D01*
X141011758Y-87912365D01*
X141167635Y-88068242D01*
X141345978Y-88197815D01*
X141525446Y-88289259D01*
X141568710Y-88332523D01*
X141579500Y-88377468D01*
X141579500Y-119751677D01*
X141560593Y-119809868D01*
X141550504Y-119821681D01*
X139297891Y-122074293D01*
X139243374Y-122102070D01*
X139208573Y-122101387D01*
X139098543Y-122079500D01*
X139098541Y-122079500D01*
X138901459Y-122079500D01*
X138901456Y-122079500D01*
X138708165Y-122117949D01*
X138708163Y-122117949D01*
X138526086Y-122193367D01*
X138362218Y-122302861D01*
X138362214Y-122302864D01*
X138222864Y-122442214D01*
X138222861Y-122442218D01*
X138113367Y-122606086D01*
X138037949Y-122788163D01*
X138037949Y-122788165D01*
X137999500Y-122981456D01*
X127110500Y-122981456D01*
X127110500Y-115716430D01*
X127860000Y-115716430D01*
X127860000Y-115903569D01*
X127896508Y-116087104D01*
X127896508Y-116087106D01*
X127968119Y-116259991D01*
X128040118Y-116367747D01*
X128479396Y-115928468D01*
X128483852Y-115945095D01*
X128529930Y-116024905D01*
X128595095Y-116090070D01*
X128674905Y-116136148D01*
X128691528Y-116140602D01*
X128252251Y-116579880D01*
X128360008Y-116651880D01*
X128532894Y-116723491D01*
X128716430Y-116759999D01*
X128716434Y-116760000D01*
X128903566Y-116760000D01*
X128903569Y-116759999D01*
X129087104Y-116723491D01*
X129087106Y-116723491D01*
X129259989Y-116651881D01*
X129260001Y-116651875D01*
X129367747Y-116579880D01*
X128928469Y-116140602D01*
X128945095Y-116136148D01*
X129024905Y-116090070D01*
X129090070Y-116024905D01*
X129136148Y-115945095D01*
X129140602Y-115928469D01*
X129579880Y-116367747D01*
X129651875Y-116260001D01*
X129651881Y-116259989D01*
X129723491Y-116087106D01*
X129723491Y-116087104D01*
X129759999Y-115903569D01*
X129760000Y-115903565D01*
X129760000Y-115716434D01*
X129759999Y-115716430D01*
X129723491Y-115532895D01*
X129723491Y-115532893D01*
X129651880Y-115360008D01*
X129579880Y-115252251D01*
X129140602Y-115691528D01*
X129136148Y-115674905D01*
X129090070Y-115595095D01*
X129024905Y-115529930D01*
X128945095Y-115483852D01*
X128928468Y-115479396D01*
X129367747Y-115040118D01*
X129259991Y-114968119D01*
X129087105Y-114896508D01*
X128903569Y-114860000D01*
X128716430Y-114860000D01*
X128532895Y-114896508D01*
X128532893Y-114896508D01*
X128360008Y-114968119D01*
X128252251Y-115040118D01*
X128691530Y-115479397D01*
X128674905Y-115483852D01*
X128595095Y-115529930D01*
X128529930Y-115595095D01*
X128483852Y-115674905D01*
X128479397Y-115691530D01*
X128040118Y-115252251D01*
X127968119Y-115360008D01*
X127896508Y-115532893D01*
X127896508Y-115532895D01*
X127860000Y-115716430D01*
X127110500Y-115716430D01*
X127110500Y-105275478D01*
X127129407Y-105217287D01*
X127139490Y-105205480D01*
X128374513Y-103970456D01*
X128429028Y-103942681D01*
X128482400Y-103948998D01*
X128547334Y-103975894D01*
X128721309Y-104010500D01*
X128721310Y-104010500D01*
X128898690Y-104010500D01*
X128898691Y-104010500D01*
X129072666Y-103975894D01*
X129236547Y-103908013D01*
X129384035Y-103809464D01*
X129386996Y-103806503D01*
X129441513Y-103778726D01*
X129501945Y-103788297D01*
X129545210Y-103831562D01*
X129556000Y-103876507D01*
X129556000Y-109518021D01*
X129537093Y-109576212D01*
X129527003Y-109588025D01*
X129245486Y-109869541D01*
X129190970Y-109897318D01*
X129137598Y-109891001D01*
X129072666Y-109864106D01*
X128898693Y-109829500D01*
X128898691Y-109829500D01*
X128721309Y-109829500D01*
X128721306Y-109829500D01*
X128547334Y-109864106D01*
X128547332Y-109864106D01*
X128383455Y-109931985D01*
X128383454Y-109931985D01*
X128235965Y-110030535D01*
X128110535Y-110155965D01*
X128011985Y-110303454D01*
X128011985Y-110303455D01*
X127944106Y-110467332D01*
X127944106Y-110467334D01*
X127909500Y-110641306D01*
X127909500Y-110818693D01*
X127917148Y-110857139D01*
X127938927Y-110966632D01*
X127944106Y-110992665D01*
X127944106Y-110992667D01*
X128011985Y-111156544D01*
X128011985Y-111156545D01*
X128110535Y-111304034D01*
X128110536Y-111304035D01*
X128235965Y-111429464D01*
X128383453Y-111528013D01*
X128547334Y-111595894D01*
X128721309Y-111630500D01*
X128721310Y-111630500D01*
X128898690Y-111630500D01*
X128898691Y-111630500D01*
X129072666Y-111595894D01*
X129236547Y-111528013D01*
X129384035Y-111429464D01*
X129509464Y-111304035D01*
X129608013Y-111156547D01*
X129675894Y-110992666D01*
X129710500Y-110818691D01*
X129710500Y-110641309D01*
X129675894Y-110467334D01*
X129648996Y-110402397D01*
X129644196Y-110341404D01*
X129670456Y-110294513D01*
X130096960Y-109868011D01*
X130099215Y-109864106D01*
X130136521Y-109799489D01*
X130157000Y-109723062D01*
X130157000Y-101382338D01*
X130136521Y-101305911D01*
X130096960Y-101237389D01*
X130041011Y-101181439D01*
X130041011Y-101181440D01*
X126255396Y-97395825D01*
X126227619Y-97341308D01*
X126226400Y-97325821D01*
X126226400Y-95800328D01*
X126245307Y-95742137D01*
X126294807Y-95706173D01*
X126355993Y-95706173D01*
X126395404Y-95730325D01*
X126442209Y-95777131D01*
X126442213Y-95777134D01*
X126442218Y-95777139D01*
X126606086Y-95886632D01*
X126788165Y-95962051D01*
X126981459Y-96000500D01*
X126981460Y-96000500D01*
X127178540Y-96000500D01*
X127178541Y-96000500D01*
X127371835Y-95962051D01*
X127484137Y-95915533D01*
X127545129Y-95910733D01*
X127592023Y-95936994D01*
X134670504Y-103015475D01*
X134698281Y-103069992D01*
X134699500Y-103085479D01*
X134699500Y-109055388D01*
X134680593Y-109113579D01*
X134638385Y-109146852D01*
X134526087Y-109193367D01*
X134362218Y-109302861D01*
X134362214Y-109302864D01*
X134222864Y-109442214D01*
X134222861Y-109442218D01*
X134113367Y-109606086D01*
X134037949Y-109788163D01*
X134037949Y-109788165D01*
X133999500Y-109981456D01*
X133999500Y-110178543D01*
X134037949Y-110371834D01*
X134037949Y-110371836D01*
X134113367Y-110553913D01*
X134113368Y-110553914D01*
X134222861Y-110717782D01*
X134362218Y-110857139D01*
X134484839Y-110939072D01*
X134526084Y-110966631D01*
X134526085Y-110966631D01*
X134526086Y-110966632D01*
X134638387Y-111013147D01*
X134684911Y-111052881D01*
X134699500Y-111104610D01*
X134699500Y-114534520D01*
X134680593Y-114592711D01*
X134670504Y-114604524D01*
X129245486Y-120029541D01*
X129190969Y-120057318D01*
X129137598Y-120051001D01*
X129072666Y-120024106D01*
X128898693Y-119989500D01*
X128898691Y-119989500D01*
X128721309Y-119989500D01*
X128721306Y-119989500D01*
X128547334Y-120024106D01*
X128547332Y-120024106D01*
X128383455Y-120091985D01*
X128383454Y-120091985D01*
X128235965Y-120190535D01*
X128110535Y-120315965D01*
X128011985Y-120463454D01*
X128011985Y-120463455D01*
X127944106Y-120627332D01*
X127944106Y-120627334D01*
X127909500Y-120801306D01*
X127909500Y-120978693D01*
X127944106Y-121152665D01*
X127944106Y-121152667D01*
X128011985Y-121316544D01*
X128011985Y-121316545D01*
X128110535Y-121464034D01*
X128110536Y-121464035D01*
X128235965Y-121589464D01*
X128383453Y-121688013D01*
X128547334Y-121755894D01*
X128721309Y-121790500D01*
X128721310Y-121790500D01*
X128898690Y-121790500D01*
X128898691Y-121790500D01*
X129072666Y-121755894D01*
X129236547Y-121688013D01*
X129384035Y-121589464D01*
X129509464Y-121464035D01*
X129608013Y-121316547D01*
X129675894Y-121152666D01*
X129710500Y-120978691D01*
X129710500Y-120801309D01*
X129675894Y-120627334D01*
X129648998Y-120562400D01*
X129644198Y-120501403D01*
X129670456Y-120454513D01*
X135240460Y-114884511D01*
X135280021Y-114815989D01*
X135300500Y-114739562D01*
X135300500Y-112816581D01*
X137950000Y-112816581D01*
X137950000Y-113023418D01*
X137990349Y-113226272D01*
X138069501Y-113417361D01*
X138158022Y-113549843D01*
X138629532Y-113078332D01*
X138679920Y-113165606D01*
X138754394Y-113240080D01*
X138841665Y-113290465D01*
X138370154Y-113761977D01*
X138502625Y-113850491D01*
X138502639Y-113850498D01*
X138693727Y-113929650D01*
X138896581Y-113969999D01*
X138896586Y-113970000D01*
X139103414Y-113970000D01*
X139103418Y-113969999D01*
X139306272Y-113929650D01*
X139497360Y-113850498D01*
X139629843Y-113761976D01*
X139158333Y-113290466D01*
X139245606Y-113240080D01*
X139320080Y-113165606D01*
X139370466Y-113078333D01*
X139841976Y-113549843D01*
X139930498Y-113417360D01*
X140009650Y-113226272D01*
X140049999Y-113023418D01*
X140050000Y-113023413D01*
X140050000Y-112816586D01*
X140049999Y-112816581D01*
X140009650Y-112613727D01*
X139930498Y-112422639D01*
X139930491Y-112422625D01*
X139841976Y-112290154D01*
X139370465Y-112761665D01*
X139320080Y-112674394D01*
X139245606Y-112599920D01*
X139158332Y-112549532D01*
X139629843Y-112078022D01*
X139497361Y-111989501D01*
X139306272Y-111910349D01*
X139103418Y-111870000D01*
X138896581Y-111870000D01*
X138693727Y-111910349D01*
X138502638Y-111989501D01*
X138370155Y-112078022D01*
X138841666Y-112549533D01*
X138754394Y-112599920D01*
X138679920Y-112674394D01*
X138629533Y-112761666D01*
X138158022Y-112290155D01*
X138069501Y-112422638D01*
X137990349Y-112613727D01*
X137950000Y-112816581D01*
X135300500Y-112816581D01*
X135300500Y-111104610D01*
X135319407Y-111046419D01*
X135361612Y-111013148D01*
X135473914Y-110966632D01*
X135637782Y-110857139D01*
X135777139Y-110717782D01*
X135886632Y-110553914D01*
X135962051Y-110371835D01*
X136000500Y-110178541D01*
X136000500Y-109981459D01*
X135962051Y-109788165D01*
X135886632Y-109606086D01*
X135777139Y-109442218D01*
X135637782Y-109302861D01*
X135473914Y-109193368D01*
X135473912Y-109193367D01*
X135361615Y-109146852D01*
X135315089Y-109107116D01*
X135300500Y-109055388D01*
X135300500Y-102880437D01*
X135300499Y-102880435D01*
X135280021Y-102804011D01*
X135280019Y-102804007D01*
X135240460Y-102735489D01*
X135184511Y-102679539D01*
X135184511Y-102679540D01*
X132321552Y-99816581D01*
X133950000Y-99816581D01*
X133950000Y-100023418D01*
X133990349Y-100226272D01*
X134069501Y-100417361D01*
X134158022Y-100549843D01*
X134629532Y-100078332D01*
X134679920Y-100165606D01*
X134754394Y-100240080D01*
X134841665Y-100290465D01*
X134370154Y-100761977D01*
X134502625Y-100850491D01*
X134502639Y-100850498D01*
X134693727Y-100929650D01*
X134896581Y-100969999D01*
X134896586Y-100970000D01*
X135103414Y-100970000D01*
X135103418Y-100969999D01*
X135306272Y-100929650D01*
X135497360Y-100850498D01*
X135629843Y-100761976D01*
X135158333Y-100290466D01*
X135245606Y-100240080D01*
X135320080Y-100165606D01*
X135370466Y-100078333D01*
X135841976Y-100549843D01*
X135930498Y-100417360D01*
X136009650Y-100226272D01*
X136049999Y-100023418D01*
X136050000Y-100023413D01*
X136050000Y-99816586D01*
X136049999Y-99816581D01*
X136009650Y-99613727D01*
X135930498Y-99422639D01*
X135930491Y-99422625D01*
X135841976Y-99290154D01*
X135370465Y-99761665D01*
X135320080Y-99674394D01*
X135245606Y-99599920D01*
X135158332Y-99549532D01*
X135629843Y-99078022D01*
X135497361Y-98989501D01*
X135306272Y-98910349D01*
X135103418Y-98870000D01*
X134896581Y-98870000D01*
X134693727Y-98910349D01*
X134502638Y-98989501D01*
X134370155Y-99078022D01*
X134841666Y-99549533D01*
X134754394Y-99599920D01*
X134679920Y-99674394D01*
X134629533Y-99761666D01*
X134158022Y-99290155D01*
X134069501Y-99422638D01*
X133990349Y-99613727D01*
X133950000Y-99816581D01*
X132321552Y-99816581D01*
X128016994Y-95512023D01*
X127989217Y-95457506D01*
X127995533Y-95404137D01*
X128042051Y-95291835D01*
X128080500Y-95098541D01*
X128080500Y-94901459D01*
X128042051Y-94708165D01*
X128035376Y-94692051D01*
X127966632Y-94526086D01*
X127919487Y-94455529D01*
X127857139Y-94362218D01*
X127717782Y-94222861D01*
X127578806Y-94130000D01*
X127553913Y-94113367D01*
X127371835Y-94037949D01*
X127178543Y-93999500D01*
X127178541Y-93999500D01*
X126981459Y-93999500D01*
X126981456Y-93999500D01*
X126788165Y-94037949D01*
X126788163Y-94037949D01*
X126606086Y-94113367D01*
X126442218Y-94222861D01*
X126442214Y-94222864D01*
X126395404Y-94269675D01*
X126340887Y-94297452D01*
X126280455Y-94287881D01*
X126237190Y-94244616D01*
X126226400Y-94199671D01*
X126226400Y-93159578D01*
X126245307Y-93101387D01*
X126255390Y-93089580D01*
X130915475Y-88429494D01*
X130969992Y-88401718D01*
X130985479Y-88400499D01*
X132924265Y-88400499D01*
X132930350Y-88399928D01*
X132954698Y-88397646D01*
X133082882Y-88352793D01*
X133192150Y-88272150D01*
X133272793Y-88162882D01*
X133317646Y-88034698D01*
X133320500Y-88004265D01*
X133320499Y-85995736D01*
X133317646Y-85965302D01*
X133272793Y-85837118D01*
X133272791Y-85837116D01*
X133272791Y-85837114D01*
X133192154Y-85727855D01*
X133192152Y-85727853D01*
X133192150Y-85727850D01*
X133192146Y-85727847D01*
X133192144Y-85727845D01*
X133082885Y-85647208D01*
X133012361Y-85622531D01*
X132954698Y-85602354D01*
X132954696Y-85602353D01*
X132954694Y-85602353D01*
X132924273Y-85599500D01*
X132924265Y-85599500D01*
X132319500Y-85599500D01*
X132261309Y-85580593D01*
X132225345Y-85531093D01*
X132220500Y-85500500D01*
X132220500Y-82245478D01*
X132239407Y-82187287D01*
X132249490Y-82175480D01*
X134528389Y-79896581D01*
X136030000Y-79896581D01*
X136030000Y-80103418D01*
X136070349Y-80306272D01*
X136149501Y-80497361D01*
X136238022Y-80629843D01*
X136709532Y-80158332D01*
X136759920Y-80245606D01*
X136834394Y-80320080D01*
X136921665Y-80370465D01*
X136450154Y-80841977D01*
X136582625Y-80930491D01*
X136582639Y-80930498D01*
X136773727Y-81009650D01*
X136976581Y-81049999D01*
X136976586Y-81050000D01*
X137183414Y-81050000D01*
X137183418Y-81049999D01*
X137386272Y-81009650D01*
X137577360Y-80930498D01*
X137709843Y-80841976D01*
X137238333Y-80370466D01*
X137325606Y-80320080D01*
X137400080Y-80245606D01*
X137450466Y-80158333D01*
X137921976Y-80629843D01*
X138010498Y-80497360D01*
X138089650Y-80306272D01*
X138129999Y-80103418D01*
X138130000Y-80103413D01*
X138130000Y-79896586D01*
X138129999Y-79896581D01*
X138089650Y-79693727D01*
X138010498Y-79502639D01*
X138010491Y-79502625D01*
X137921976Y-79370154D01*
X137450465Y-79841665D01*
X137400080Y-79754394D01*
X137325606Y-79679920D01*
X137238332Y-79629532D01*
X137709843Y-79158022D01*
X137577361Y-79069501D01*
X137386272Y-78990349D01*
X137183418Y-78950000D01*
X136976581Y-78950000D01*
X136773727Y-78990349D01*
X136582638Y-79069501D01*
X136450155Y-79158022D01*
X136921666Y-79629533D01*
X136834394Y-79679920D01*
X136759920Y-79754394D01*
X136709533Y-79841666D01*
X136238022Y-79370155D01*
X136149501Y-79502638D01*
X136070349Y-79693727D01*
X136030000Y-79896581D01*
X134528389Y-79896581D01*
X137971545Y-76453424D01*
X138900000Y-76453424D01*
X138900000Y-76626575D01*
X138927084Y-76797579D01*
X138980588Y-76962248D01*
X139059195Y-77116524D01*
X139059197Y-77116528D01*
X139123219Y-77204646D01*
X139556328Y-76771536D01*
X139599901Y-76847007D01*
X139692993Y-76940099D01*
X139768460Y-76983670D01*
X139335352Y-77416778D01*
X139423477Y-77480805D01*
X139577751Y-77559411D01*
X139742420Y-77612915D01*
X139913425Y-77640000D01*
X140086575Y-77640000D01*
X140257579Y-77612915D01*
X140422248Y-77559411D01*
X140576524Y-77480804D01*
X140576530Y-77480800D01*
X140664646Y-77416779D01*
X140664646Y-77416778D01*
X140231538Y-76983670D01*
X140307007Y-76940099D01*
X140400099Y-76847007D01*
X140443670Y-76771538D01*
X140876778Y-77204646D01*
X140876779Y-77204646D01*
X140940800Y-77116530D01*
X140940804Y-77116524D01*
X141019411Y-76962248D01*
X141072915Y-76797579D01*
X141100000Y-76626575D01*
X141100000Y-76453424D01*
X141072915Y-76282420D01*
X141019411Y-76117751D01*
X140940805Y-75963477D01*
X140876778Y-75875352D01*
X140443670Y-76308460D01*
X140400099Y-76232993D01*
X140307007Y-76139901D01*
X140231536Y-76096328D01*
X140664646Y-75663219D01*
X140576528Y-75599197D01*
X140576524Y-75599195D01*
X140422248Y-75520588D01*
X140257579Y-75467084D01*
X140086575Y-75440000D01*
X139913425Y-75440000D01*
X139742420Y-75467084D01*
X139577751Y-75520588D01*
X139423476Y-75599195D01*
X139335352Y-75663219D01*
X139768461Y-76096328D01*
X139692993Y-76139901D01*
X139599901Y-76232993D01*
X139556328Y-76308461D01*
X139123219Y-75875352D01*
X139059195Y-75963476D01*
X138980588Y-76117751D01*
X138927084Y-76282420D01*
X138900000Y-76453424D01*
X137971545Y-76453424D01*
X139449708Y-74975261D01*
X139504223Y-74947486D01*
X139557595Y-74953802D01*
X139693580Y-75010130D01*
X139896535Y-75050500D01*
X139896536Y-75050500D01*
X140103464Y-75050500D01*
X140103465Y-75050500D01*
X140306420Y-75010130D01*
X140497598Y-74930941D01*
X140669655Y-74815977D01*
X140815977Y-74669655D01*
X140930941Y-74497598D01*
X141010130Y-74306420D01*
X141050500Y-74103465D01*
X141050500Y-73896535D01*
X141010130Y-73693580D01*
X140930941Y-73502402D01*
X140815977Y-73330345D01*
X140669655Y-73184023D01*
X140669651Y-73184020D01*
X140497597Y-73069058D01*
X140306418Y-72989869D01*
X140103467Y-72949500D01*
X140103465Y-72949500D01*
X139896535Y-72949500D01*
X139896532Y-72949500D01*
X139693581Y-72989869D01*
X139502402Y-73069058D01*
X139330348Y-73184020D01*
X139184020Y-73330348D01*
X139069058Y-73502402D01*
X138989869Y-73693581D01*
X138949500Y-73896532D01*
X138949500Y-74103467D01*
X138989869Y-74306418D01*
X138989870Y-74306420D01*
X139043766Y-74436536D01*
X139046196Y-74442401D01*
X139050997Y-74503398D01*
X139024736Y-74550291D01*
X131735489Y-81839540D01*
X131735488Y-81839539D01*
X131679539Y-81895489D01*
X131639980Y-81964007D01*
X131639978Y-81964011D01*
X131619500Y-82040435D01*
X131619500Y-85500500D01*
X131600593Y-85558691D01*
X131551093Y-85594655D01*
X131520500Y-85599500D01*
X130915734Y-85599500D01*
X130885305Y-85602353D01*
X130757114Y-85647208D01*
X130647855Y-85727845D01*
X130647845Y-85727855D01*
X130567208Y-85837114D01*
X130522353Y-85965305D01*
X130519500Y-85995726D01*
X130519500Y-87934520D01*
X130500593Y-87992711D01*
X130490504Y-88004524D01*
X125741389Y-92753640D01*
X125741388Y-92753639D01*
X125685439Y-92809589D01*
X125645880Y-92878107D01*
X125645878Y-92878111D01*
X125625400Y-92954535D01*
X125300500Y-92954535D01*
X125300500Y-82085478D01*
X125319407Y-82027287D01*
X125329490Y-82015480D01*
X126407977Y-80936992D01*
X126462492Y-80909217D01*
X126515862Y-80915533D01*
X126628165Y-80962051D01*
X126821459Y-81000500D01*
X126821460Y-81000500D01*
X127018540Y-81000500D01*
X127018541Y-81000500D01*
X127211835Y-80962051D01*
X127393914Y-80886632D01*
X127557782Y-80777139D01*
X127697139Y-80637782D01*
X127806632Y-80473914D01*
X127882051Y-80291835D01*
X127920500Y-80098541D01*
X127920500Y-79901459D01*
X127882051Y-79708165D01*
X127806632Y-79526086D01*
X127697139Y-79362218D01*
X127557782Y-79222861D01*
X127485112Y-79174305D01*
X127424498Y-79133803D01*
X127386619Y-79085753D01*
X127380500Y-79051488D01*
X127380500Y-71024610D01*
X127399407Y-70966419D01*
X127441612Y-70933148D01*
X127553914Y-70886632D01*
X127717782Y-70777139D01*
X127857139Y-70637782D01*
X127966632Y-70473914D01*
X128042051Y-70291835D01*
X128080500Y-70098541D01*
X128080500Y-69901459D01*
X128042051Y-69708165D01*
X128035376Y-69692051D01*
X127966632Y-69526086D01*
X127919487Y-69455529D01*
X127857139Y-69362218D01*
X127717782Y-69222861D01*
X127578806Y-69130000D01*
X127553913Y-69113367D01*
X127371835Y-69037949D01*
X127178543Y-68999500D01*
X127178541Y-68999500D01*
X126981459Y-68999500D01*
X126981456Y-68999500D01*
X126788165Y-69037949D01*
X126788163Y-69037949D01*
X126606086Y-69113367D01*
X126442218Y-69222861D01*
X126442214Y-69222864D01*
X126302864Y-69362214D01*
X126302861Y-69362218D01*
X126193367Y-69526086D01*
X126117950Y-69708162D01*
X126117949Y-69708165D01*
X126079500Y-69901456D01*
X126079500Y-70098543D01*
X126117949Y-70291834D01*
X126117949Y-70291836D01*
X126193367Y-70473913D01*
X126229699Y-70528288D01*
X126302861Y-70637782D01*
X126442218Y-70777139D01*
X126564839Y-70859072D01*
X126606084Y-70886631D01*
X126606085Y-70886631D01*
X126606086Y-70886632D01*
X126718387Y-70933147D01*
X126764911Y-70972881D01*
X126779500Y-71024610D01*
X126779500Y-78926598D01*
X126760593Y-78984789D01*
X126711093Y-79020753D01*
X126699816Y-79023695D01*
X126628171Y-79037947D01*
X126628163Y-79037949D01*
X126446086Y-79113367D01*
X126282218Y-79222861D01*
X126282214Y-79222864D01*
X126142864Y-79362214D01*
X126142861Y-79362218D01*
X126033367Y-79526086D01*
X125957949Y-79708163D01*
X125957949Y-79708165D01*
X125919500Y-79901456D01*
X125919500Y-80098543D01*
X125957949Y-80291834D01*
X125957949Y-80291836D01*
X126004464Y-80404134D01*
X126009264Y-80465131D01*
X125983004Y-80512023D01*
X124815489Y-81679540D01*
X124815488Y-81679539D01*
X124759539Y-81735489D01*
X124719980Y-81804007D01*
X124719978Y-81804011D01*
X124699500Y-81880435D01*
X124699500Y-116914520D01*
X124680593Y-116972711D01*
X124670504Y-116984524D01*
X121625487Y-120029541D01*
X121570970Y-120057318D01*
X121517598Y-120051001D01*
X121452666Y-120024106D01*
X121278693Y-119989500D01*
X121278691Y-119989500D01*
X121101309Y-119989500D01*
X121101306Y-119989500D01*
X120927334Y-120024106D01*
X120927332Y-120024106D01*
X120763455Y-120091985D01*
X120763454Y-120091985D01*
X120615965Y-120190535D01*
X120490535Y-120315965D01*
X120391985Y-120463454D01*
X120391985Y-120463455D01*
X120324106Y-120627332D01*
X120324106Y-120627334D01*
X120289500Y-120801306D01*
X119490500Y-120801306D01*
X119490500Y-115716430D01*
X120240000Y-115716430D01*
X120240000Y-115903569D01*
X120276508Y-116087104D01*
X120276508Y-116087106D01*
X120348119Y-116259991D01*
X120420118Y-116367747D01*
X120859396Y-115928468D01*
X120863852Y-115945095D01*
X120909930Y-116024905D01*
X120975095Y-116090070D01*
X121054905Y-116136148D01*
X121071528Y-116140602D01*
X120632251Y-116579880D01*
X120740008Y-116651880D01*
X120912894Y-116723491D01*
X121096430Y-116759999D01*
X121096434Y-116760000D01*
X121283566Y-116760000D01*
X121283569Y-116759999D01*
X121467104Y-116723491D01*
X121467106Y-116723491D01*
X121639989Y-116651881D01*
X121640001Y-116651875D01*
X121747747Y-116579880D01*
X121308469Y-116140602D01*
X121325095Y-116136148D01*
X121404905Y-116090070D01*
X121470070Y-116024905D01*
X121516148Y-115945095D01*
X121520602Y-115928469D01*
X121959880Y-116367747D01*
X122031875Y-116260001D01*
X122031881Y-116259989D01*
X122103491Y-116087106D01*
X122103491Y-116087104D01*
X122139999Y-115903569D01*
X122140000Y-115903565D01*
X122140000Y-115716434D01*
X122139999Y-115716430D01*
X122103491Y-115532895D01*
X122103491Y-115532893D01*
X122031880Y-115360008D01*
X121959880Y-115252251D01*
X121520602Y-115691528D01*
X121516148Y-115674905D01*
X121470070Y-115595095D01*
X121404905Y-115529930D01*
X121325095Y-115483852D01*
X121308468Y-115479396D01*
X121747747Y-115040118D01*
X121639991Y-114968119D01*
X121467105Y-114896508D01*
X121283569Y-114860000D01*
X121096430Y-114860000D01*
X120912895Y-114896508D01*
X120912893Y-114896508D01*
X120740008Y-114968119D01*
X120632251Y-115040118D01*
X121071530Y-115479397D01*
X121054905Y-115483852D01*
X120975095Y-115529930D01*
X120909930Y-115595095D01*
X120863852Y-115674905D01*
X120859397Y-115691530D01*
X120420118Y-115252251D01*
X120348119Y-115360008D01*
X120276508Y-115532893D01*
X120276508Y-115532895D01*
X120240000Y-115716430D01*
X119490500Y-115716430D01*
X119490500Y-110641306D01*
X120289500Y-110641306D01*
X120289500Y-110818693D01*
X120297148Y-110857139D01*
X120318927Y-110966632D01*
X120324106Y-110992665D01*
X120324106Y-110992667D01*
X120391985Y-111156544D01*
X120391985Y-111156545D01*
X120490535Y-111304034D01*
X120490536Y-111304035D01*
X120615965Y-111429464D01*
X120763453Y-111528013D01*
X120927334Y-111595894D01*
X121101309Y-111630500D01*
X121101310Y-111630500D01*
X121278690Y-111630500D01*
X121278691Y-111630500D01*
X121452666Y-111595894D01*
X121616547Y-111528013D01*
X121764035Y-111429464D01*
X121889464Y-111304035D01*
X121988013Y-111156547D01*
X122055894Y-110992666D01*
X122090500Y-110818691D01*
X122090500Y-110641309D01*
X122055894Y-110467334D01*
X122028998Y-110402400D01*
X122024198Y-110341403D01*
X122050456Y-110294513D01*
X122998160Y-109346811D01*
X123037722Y-109278288D01*
X123058200Y-109201862D01*
X123058200Y-109122738D01*
X123058200Y-71327778D01*
X123077107Y-71269587D01*
X123087190Y-71257780D01*
X130915475Y-63429494D01*
X130969992Y-63401718D01*
X130985479Y-63400499D01*
X132854520Y-63400499D01*
X132912711Y-63419406D01*
X132924524Y-63429495D01*
X139670504Y-70175475D01*
X139674130Y-70182592D01*
X139680593Y-70187288D01*
X139687756Y-70209336D01*
X139698281Y-70229992D01*
X139699500Y-70245479D01*
X139699500Y-70310500D01*
X139680593Y-70368691D01*
X139631093Y-70404655D01*
X139600500Y-70409500D01*
X139130252Y-70409500D01*
X139130251Y-70409500D01*
X139130241Y-70409501D01*
X139071772Y-70421132D01*
X139071766Y-70421134D01*
X139005451Y-70465445D01*
X139005445Y-70465451D01*
X138961134Y-70531766D01*
X138961132Y-70531772D01*
X138949501Y-70590241D01*
X138949500Y-70590253D01*
X138949500Y-72329746D01*
X138949501Y-72329758D01*
X138961132Y-72388227D01*
X138961134Y-72388233D01*
X139005445Y-72454548D01*
X139005448Y-72454552D01*
X139071769Y-72498867D01*
X139116231Y-72507711D01*
X139130241Y-72510498D01*
X139130246Y-72510498D01*
X139130252Y-72510500D01*
X139130253Y-72510500D01*
X140869747Y-72510500D01*
X140869748Y-72510500D01*
X140928231Y-72498867D01*
X140994552Y-72454552D01*
X141038867Y-72388231D01*
X141050500Y-72329748D01*
X141050500Y-70590252D01*
X141038867Y-70531769D01*
X140994552Y-70465448D01*
X140994548Y-70465445D01*
X140928233Y-70421134D01*
X140928231Y-70421133D01*
X140928228Y-70421132D01*
X140928227Y-70421132D01*
X140869758Y-70409501D01*
X140869748Y-70409500D01*
X140869747Y-70409500D01*
X140399500Y-70409500D01*
X140341309Y-70390593D01*
X140305345Y-70341093D01*
X140300500Y-70310500D01*
X140300500Y-70040439D01*
X140300499Y-70040434D01*
X140300265Y-70039561D01*
X140300257Y-70039534D01*
X140280022Y-69964012D01*
X140280019Y-69964006D01*
X140240463Y-69895493D01*
X140240462Y-69895492D01*
X140240461Y-69895491D01*
X140240460Y-69895489D01*
X133349495Y-63004524D01*
X133321718Y-62950007D01*
X133320499Y-62934520D01*
X133320499Y-60995734D01*
X133317646Y-60965305D01*
X133317646Y-60965302D01*
X133272793Y-60837118D01*
X133272791Y-60837116D01*
X133272791Y-60837114D01*
X133192154Y-60727855D01*
X133192152Y-60727853D01*
X133192150Y-60727850D01*
X133192146Y-60727847D01*
X133192144Y-60727845D01*
X133082885Y-60647208D01*
X133045092Y-60633984D01*
X132954698Y-60602354D01*
X132954696Y-60602353D01*
X132954694Y-60602353D01*
X132924272Y-60599500D01*
X130915734Y-60599500D01*
X130885305Y-60602353D01*
X130757114Y-60647208D01*
X130647855Y-60727845D01*
X130647845Y-60727855D01*
X130567208Y-60837114D01*
X130522353Y-60965305D01*
X130519500Y-60995726D01*
X130519500Y-62934520D01*
X130500593Y-62992711D01*
X130490504Y-63004524D01*
X122573189Y-70921840D01*
X122573188Y-70921839D01*
X122517239Y-70977789D01*
X122477680Y-71046307D01*
X122477678Y-71046311D01*
X122457200Y-71122735D01*
X122457200Y-108996820D01*
X122438293Y-109055011D01*
X122428204Y-109066824D01*
X121625487Y-109869541D01*
X121570970Y-109897318D01*
X121517598Y-109891001D01*
X121452666Y-109864106D01*
X121278693Y-109829500D01*
X121278691Y-109829500D01*
X121101309Y-109829500D01*
X121101306Y-109829500D01*
X120927334Y-109864106D01*
X120927332Y-109864106D01*
X120763455Y-109931985D01*
X120763454Y-109931985D01*
X120615965Y-110030535D01*
X120490535Y-110155965D01*
X120391985Y-110303454D01*
X120391985Y-110303455D01*
X120324106Y-110467332D01*
X120324106Y-110467334D01*
X120289500Y-110641306D01*
X119490500Y-110641306D01*
X119490500Y-106277178D01*
X119509407Y-106218987D01*
X119519490Y-106207180D01*
X121430460Y-104296211D01*
X121470021Y-104227689D01*
X121490500Y-104151262D01*
X121490500Y-104109500D01*
X121509407Y-104051309D01*
X121558907Y-104015345D01*
X121589500Y-104010500D01*
X121909747Y-104010500D01*
X121909748Y-104010500D01*
X121968231Y-103998867D01*
X122034552Y-103954552D01*
X122078867Y-103888231D01*
X122090500Y-103829748D01*
X122090500Y-102390252D01*
X122078867Y-102331769D01*
X122034552Y-102265448D01*
X122002612Y-102244106D01*
X121968233Y-102221134D01*
X121968231Y-102221133D01*
X121968228Y-102221132D01*
X121968227Y-102221132D01*
X121909758Y-102209501D01*
X121909748Y-102209500D01*
X120470252Y-102209500D01*
X120470251Y-102209500D01*
X120470241Y-102209501D01*
X120411772Y-102221132D01*
X120411766Y-102221134D01*
X120345451Y-102265445D01*
X120345445Y-102265451D01*
X120301134Y-102331766D01*
X120301132Y-102331772D01*
X120289501Y-102390241D01*
X120289500Y-102390253D01*
X120289500Y-103829746D01*
X120289501Y-103829758D01*
X120301132Y-103888227D01*
X120301134Y-103888233D01*
X120324822Y-103923684D01*
X120345448Y-103954552D01*
X120411769Y-103998867D01*
X120456231Y-104007711D01*
X120470241Y-104010498D01*
X120470246Y-104010498D01*
X120470252Y-104010500D01*
X120627221Y-104010500D01*
X120685412Y-104029407D01*
X120721376Y-104078907D01*
X120721376Y-104140093D01*
X120697225Y-104179504D01*
X119005489Y-105871240D01*
X119005488Y-105871239D01*
X118949539Y-105927189D01*
X118909980Y-105995707D01*
X118909978Y-105995711D01*
X118889500Y-106072135D01*
X118889500Y-124900500D01*
X118870593Y-124958691D01*
X118821093Y-124994655D01*
X118790500Y-124999500D01*
X118585725Y-124999500D01*
X118555305Y-125002353D01*
X118555296Y-125002355D01*
X118427116Y-125047207D01*
X118317855Y-125127845D01*
X118317845Y-125127855D01*
X118237207Y-125237116D01*
X118192355Y-125365296D01*
X118192353Y-125365305D01*
X118189500Y-125395725D01*
X97952156Y-125395725D01*
X97962051Y-125371835D01*
X98000500Y-125178541D01*
X98000500Y-124981459D01*
X97962051Y-124788165D01*
X97886632Y-124606086D01*
X97777139Y-124442218D01*
X97637782Y-124302861D01*
X97473914Y-124193368D01*
X97473915Y-124193368D01*
X97473913Y-124193367D01*
X97291835Y-124117949D01*
X97098543Y-124079500D01*
X97098541Y-124079500D01*
X96901459Y-124079500D01*
X96901456Y-124079500D01*
X96708165Y-124117949D01*
X96708163Y-124117949D01*
X96526086Y-124193367D01*
X96362218Y-124302861D01*
X96362214Y-124302864D01*
X96222864Y-124442214D01*
X96222861Y-124442218D01*
X96113367Y-124606086D01*
X96037949Y-124788163D01*
X96037949Y-124788165D01*
X95999500Y-124981456D01*
X91845900Y-124981456D01*
X91845900Y-118225375D01*
X103460000Y-118225375D01*
X103460000Y-118849999D01*
X103460001Y-118850000D01*
X104086082Y-118850000D01*
X104060000Y-118947339D01*
X104060000Y-119052661D01*
X104086082Y-119150000D01*
X103460001Y-119150000D01*
X103460000Y-119150001D01*
X103460000Y-119774624D01*
X103474506Y-119847546D01*
X103474507Y-119847548D01*
X103529758Y-119930237D01*
X103529762Y-119930241D01*
X103612451Y-119985492D01*
X103612453Y-119985493D01*
X103685375Y-119999999D01*
X103685377Y-120000000D01*
X104309999Y-120000000D01*
X104310000Y-119999999D01*
X104310000Y-119373918D01*
X104407339Y-119400000D01*
X104512661Y-119400000D01*
X104610000Y-119373918D01*
X104610000Y-119999999D01*
X104610001Y-120000000D01*
X105234623Y-120000000D01*
X105234624Y-119999999D01*
X105307546Y-119985493D01*
X105307548Y-119985492D01*
X105390237Y-119930241D01*
X105390241Y-119930237D01*
X105445492Y-119847548D01*
X105445493Y-119847546D01*
X105459999Y-119774624D01*
X105460000Y-119774622D01*
X105460000Y-119150001D01*
X105459999Y-119150000D01*
X104833918Y-119150000D01*
X104860000Y-119052661D01*
X104860000Y-118947339D01*
X104849025Y-118906381D01*
X106049500Y-118906381D01*
X106049500Y-119093618D01*
X106086026Y-119277249D01*
X106157677Y-119450229D01*
X106157681Y-119450238D01*
X106232065Y-119561559D01*
X106261698Y-119605908D01*
X106394092Y-119738302D01*
X106448449Y-119774622D01*
X106549761Y-119842318D01*
X106549767Y-119842320D01*
X106549769Y-119842322D01*
X106722749Y-119913973D01*
X106906384Y-119950500D01*
X106906385Y-119950500D01*
X107093615Y-119950500D01*
X107093616Y-119950500D01*
X107277251Y-119913973D01*
X107450231Y-119842322D01*
X107450234Y-119842319D01*
X107450238Y-119842318D01*
X107498802Y-119809868D01*
X107605908Y-119738302D01*
X107738302Y-119605908D01*
X107812282Y-119495187D01*
X107842318Y-119450238D01*
X107842319Y-119450234D01*
X107842322Y-119450231D01*
X107913973Y-119277251D01*
X107950500Y-119093616D01*
X107950500Y-118906384D01*
X107950499Y-118906381D01*
X108589500Y-118906381D01*
X108589500Y-119093618D01*
X108626026Y-119277249D01*
X108697677Y-119450229D01*
X108697681Y-119450238D01*
X108772065Y-119561559D01*
X108801698Y-119605908D01*
X108934092Y-119738302D01*
X108988449Y-119774622D01*
X109089761Y-119842318D01*
X109089767Y-119842320D01*
X109089769Y-119842322D01*
X109262749Y-119913973D01*
X109446384Y-119950500D01*
X109446385Y-119950500D01*
X109633615Y-119950500D01*
X109633616Y-119950500D01*
X109817251Y-119913973D01*
X109990231Y-119842322D01*
X109990234Y-119842319D01*
X109990238Y-119842318D01*
X110038802Y-119809868D01*
X110145908Y-119738302D01*
X110278302Y-119605908D01*
X110352282Y-119495187D01*
X110382318Y-119450238D01*
X110382319Y-119450234D01*
X110382322Y-119450231D01*
X110453973Y-119277251D01*
X110490500Y-119093616D01*
X110490500Y-118906384D01*
X110453973Y-118722749D01*
X110382322Y-118549769D01*
X110382320Y-118549767D01*
X110382318Y-118549761D01*
X110322649Y-118460463D01*
X110278302Y-118394092D01*
X110145908Y-118261698D01*
X110091547Y-118225375D01*
X109990238Y-118157681D01*
X109990229Y-118157677D01*
X109817249Y-118086026D01*
X109633618Y-118049500D01*
X109633616Y-118049500D01*
X109446384Y-118049500D01*
X109446381Y-118049500D01*
X109262750Y-118086026D01*
X109089770Y-118157677D01*
X109089761Y-118157681D01*
X108934092Y-118261698D01*
X108934088Y-118261701D01*
X108801701Y-118394088D01*
X108801698Y-118394092D01*
X108697681Y-118549761D01*
X108697677Y-118549770D01*
X108626026Y-118722750D01*
X108589500Y-118906381D01*
X107950499Y-118906381D01*
X107913973Y-118722749D01*
X107842322Y-118549769D01*
X107842320Y-118549767D01*
X107842318Y-118549761D01*
X107782649Y-118460463D01*
X107738302Y-118394092D01*
X107605908Y-118261698D01*
X107551547Y-118225375D01*
X107450238Y-118157681D01*
X107450229Y-118157677D01*
X107277249Y-118086026D01*
X107093618Y-118049500D01*
X107093616Y-118049500D01*
X106906384Y-118049500D01*
X106906381Y-118049500D01*
X106722750Y-118086026D01*
X106549770Y-118157677D01*
X106549761Y-118157681D01*
X106394092Y-118261698D01*
X106394088Y-118261701D01*
X106261701Y-118394088D01*
X106261698Y-118394092D01*
X106157681Y-118549761D01*
X106157677Y-118549770D01*
X106086026Y-118722750D01*
X106049500Y-118906381D01*
X104849025Y-118906381D01*
X104833918Y-118850000D01*
X105459999Y-118850000D01*
X105460000Y-118849999D01*
X105460000Y-118225377D01*
X105459999Y-118225375D01*
X105445493Y-118152453D01*
X105445492Y-118152451D01*
X105390241Y-118069762D01*
X105390237Y-118069758D01*
X105307548Y-118014507D01*
X105307546Y-118014506D01*
X105234624Y-118000000D01*
X104610001Y-118000000D01*
X104610000Y-118000001D01*
X104610000Y-118626081D01*
X104512661Y-118600000D01*
X104407339Y-118600000D01*
X104310000Y-118626081D01*
X104310000Y-118000001D01*
X104309999Y-118000000D01*
X103685375Y-118000000D01*
X103612453Y-118014506D01*
X103612451Y-118014507D01*
X103529762Y-118069758D01*
X103529758Y-118069762D01*
X103474507Y-118152451D01*
X103474506Y-118152453D01*
X103460000Y-118225375D01*
X91845900Y-118225375D01*
X91845900Y-118012778D01*
X91864807Y-117954587D01*
X91874890Y-117942780D01*
X95001090Y-114816581D01*
X95950000Y-114816581D01*
X95950000Y-115023418D01*
X95990349Y-115226272D01*
X96069501Y-115417361D01*
X96158022Y-115549843D01*
X96629532Y-115078332D01*
X96679920Y-115165606D01*
X96754394Y-115240080D01*
X96841665Y-115290465D01*
X96370154Y-115761977D01*
X96502625Y-115850491D01*
X96502639Y-115850498D01*
X96693727Y-115929650D01*
X96896581Y-115969999D01*
X96896586Y-115970000D01*
X97103414Y-115970000D01*
X97103418Y-115969999D01*
X97306272Y-115929650D01*
X97497360Y-115850498D01*
X97629843Y-115761976D01*
X97158333Y-115290466D01*
X97245606Y-115240080D01*
X97320080Y-115165606D01*
X97370466Y-115078333D01*
X97841976Y-115549843D01*
X97930498Y-115417360D01*
X98009650Y-115226272D01*
X98049999Y-115023418D01*
X98050000Y-115023413D01*
X98050000Y-114816586D01*
X98049999Y-114816581D01*
X98009650Y-114613727D01*
X97930498Y-114422639D01*
X97930491Y-114422625D01*
X97841976Y-114290154D01*
X97370465Y-114761665D01*
X97320080Y-114674394D01*
X97245606Y-114599920D01*
X97158332Y-114549532D01*
X97629843Y-114078022D01*
X97497361Y-113989501D01*
X97306272Y-113910349D01*
X97103418Y-113870000D01*
X96896581Y-113870000D01*
X96693727Y-113910349D01*
X96502638Y-113989501D01*
X96370155Y-114078022D01*
X96841666Y-114549533D01*
X96754394Y-114599920D01*
X96679920Y-114674394D01*
X96629533Y-114761666D01*
X96158022Y-114290155D01*
X96069501Y-114422638D01*
X95990349Y-114613727D01*
X95950000Y-114816581D01*
X95001090Y-114816581D01*
X97592160Y-112225511D01*
X97631721Y-112156989D01*
X97652200Y-112080562D01*
X97652200Y-106504038D01*
X97631721Y-106427611D01*
X97600829Y-106374105D01*
X97592160Y-106359089D01*
X97536211Y-106303139D01*
X97536211Y-106303140D01*
X97009696Y-105776625D01*
X96981919Y-105722108D01*
X96980700Y-105706621D01*
X96980700Y-99634628D01*
X96999607Y-99576437D01*
X97049107Y-99540473D01*
X97110293Y-99540473D01*
X97149705Y-99564626D01*
X97172209Y-99587131D01*
X97172213Y-99587134D01*
X97172218Y-99587139D01*
X97269254Y-99651976D01*
X97336084Y-99696631D01*
X97336085Y-99696631D01*
X97336086Y-99696632D01*
X97448387Y-99743147D01*
X97494911Y-99782881D01*
X97509500Y-99834610D01*
X97509500Y-102929564D01*
X97529978Y-103005987D01*
X97538823Y-103021308D01*
X97561309Y-103060254D01*
X97569540Y-103074511D01*
X100824775Y-106329746D01*
X104063004Y-109567975D01*
X104090781Y-109622492D01*
X104084465Y-109675864D01*
X104037948Y-109788168D01*
X103999500Y-109981456D01*
X103999500Y-110178543D01*
X104037949Y-110371834D01*
X104037949Y-110371836D01*
X104113367Y-110553913D01*
X104113368Y-110553914D01*
X104222861Y-110717782D01*
X104362218Y-110857139D01*
X104526086Y-110966632D01*
X104708165Y-111042051D01*
X104901459Y-111080500D01*
X104901460Y-111080500D01*
X105098540Y-111080500D01*
X105098541Y-111080500D01*
X105291835Y-111042051D01*
X105473914Y-110966632D01*
X105637782Y-110857139D01*
X105777139Y-110717782D01*
X105886632Y-110553914D01*
X105962051Y-110371835D01*
X106000500Y-110178541D01*
X106000500Y-109981459D01*
X105962051Y-109788165D01*
X105886632Y-109606086D01*
X105777139Y-109442218D01*
X105637782Y-109302861D01*
X105528288Y-109229699D01*
X105473913Y-109193367D01*
X105291835Y-109117949D01*
X105098543Y-109079500D01*
X105098541Y-109079500D01*
X104901459Y-109079500D01*
X104901456Y-109079500D01*
X104708168Y-109117948D01*
X104708166Y-109117948D01*
X104708165Y-109117949D01*
X104647676Y-109143004D01*
X104595864Y-109164465D01*
X104534867Y-109169264D01*
X104487975Y-109143004D01*
X98139496Y-102794525D01*
X98111719Y-102740008D01*
X98110500Y-102724521D01*
X98110500Y-99834610D01*
X98114774Y-99821456D01*
X103999500Y-99821456D01*
X103999500Y-99821459D01*
X103999500Y-100018541D01*
X104037948Y-100211832D01*
X104037949Y-100211834D01*
X104037949Y-100211836D01*
X104113367Y-100393913D01*
X104149699Y-100448288D01*
X104222861Y-100557782D01*
X104362218Y-100697139D01*
X104526086Y-100806632D01*
X104708165Y-100882051D01*
X104901459Y-100920500D01*
X104901460Y-100920500D01*
X105098540Y-100920500D01*
X105098541Y-100920500D01*
X105291835Y-100882051D01*
X105404137Y-100835533D01*
X105465129Y-100830733D01*
X105512023Y-100856994D01*
X109170504Y-104515475D01*
X109198281Y-104569992D01*
X109199500Y-104585479D01*
X109199500Y-105975388D01*
X109180593Y-106033579D01*
X109138385Y-106066852D01*
X109026087Y-106113367D01*
X108862218Y-106222861D01*
X108862214Y-106222864D01*
X108722864Y-106362214D01*
X108722861Y-106362218D01*
X108613367Y-106526086D01*
X108537949Y-106708163D01*
X108537949Y-106708165D01*
X108499500Y-106901456D01*
X108499500Y-107098543D01*
X108537949Y-107291834D01*
X108537949Y-107291836D01*
X108613367Y-107473913D01*
X108613368Y-107473914D01*
X108722861Y-107637782D01*
X108862218Y-107777139D01*
X109026086Y-107886632D01*
X109208165Y-107962051D01*
X109401459Y-108000500D01*
X109401460Y-108000500D01*
X109598540Y-108000500D01*
X109598541Y-108000500D01*
X109791835Y-107962051D01*
X109973914Y-107886632D01*
X110137782Y-107777139D01*
X110277139Y-107637782D01*
X110386632Y-107473914D01*
X110462051Y-107291835D01*
X110500500Y-107098541D01*
X110500500Y-106901459D01*
X110500499Y-106901456D01*
X110499529Y-106896581D01*
X113450000Y-106896581D01*
X113450000Y-107103418D01*
X113490349Y-107306272D01*
X113569501Y-107497361D01*
X113658022Y-107629843D01*
X114129532Y-107158332D01*
X114179920Y-107245606D01*
X114254394Y-107320080D01*
X114341665Y-107370465D01*
X113870154Y-107841977D01*
X114002625Y-107930491D01*
X114002639Y-107930498D01*
X114193727Y-108009650D01*
X114396581Y-108049999D01*
X114396586Y-108050000D01*
X114603414Y-108050000D01*
X114603418Y-108049999D01*
X114806272Y-108009650D01*
X114997360Y-107930498D01*
X115129843Y-107841976D01*
X114658333Y-107370466D01*
X114745606Y-107320080D01*
X114820080Y-107245606D01*
X114870466Y-107158333D01*
X115341976Y-107629843D01*
X115430498Y-107497360D01*
X115509650Y-107306272D01*
X115549999Y-107103418D01*
X115550000Y-107103413D01*
X115550000Y-106896586D01*
X115549999Y-106896581D01*
X115509650Y-106693727D01*
X115430498Y-106502639D01*
X115430491Y-106502625D01*
X115341976Y-106370154D01*
X114870465Y-106841665D01*
X114820080Y-106754394D01*
X114745606Y-106679920D01*
X114658332Y-106629532D01*
X115129843Y-106158022D01*
X114997361Y-106069501D01*
X114806272Y-105990349D01*
X114603418Y-105950000D01*
X114396581Y-105950000D01*
X114193727Y-105990349D01*
X114002638Y-106069501D01*
X113870155Y-106158022D01*
X114341666Y-106629533D01*
X114254394Y-106679920D01*
X114179920Y-106754394D01*
X114129533Y-106841666D01*
X113658022Y-106370155D01*
X113569501Y-106502638D01*
X113490349Y-106693727D01*
X113450000Y-106896581D01*
X110499529Y-106896581D01*
X110485078Y-106823930D01*
X110462051Y-106708165D01*
X110386632Y-106526086D01*
X110277139Y-106362218D01*
X110137782Y-106222861D01*
X109973914Y-106113368D01*
X109973912Y-106113367D01*
X109861615Y-106066852D01*
X109815089Y-106027116D01*
X109800500Y-105975388D01*
X109800500Y-104380437D01*
X109800499Y-104380435D01*
X109797744Y-104370155D01*
X109780021Y-104304011D01*
X109740460Y-104235489D01*
X109727832Y-104222861D01*
X109684511Y-104179539D01*
X109684511Y-104179540D01*
X105936994Y-100432023D01*
X105909217Y-100377506D01*
X105915533Y-100324137D01*
X105962051Y-100211835D01*
X106000500Y-100018541D01*
X106000500Y-99821459D01*
X105962051Y-99628165D01*
X105886632Y-99446086D01*
X105777139Y-99282218D01*
X105637782Y-99142861D01*
X105507196Y-99055606D01*
X105473913Y-99033367D01*
X105291835Y-98957949D01*
X105098543Y-98919500D01*
X105098541Y-98919500D01*
X104901459Y-98919500D01*
X104901456Y-98919500D01*
X104708165Y-98957949D01*
X104708163Y-98957949D01*
X104526086Y-99033367D01*
X104362218Y-99142861D01*
X104362214Y-99142864D01*
X104222864Y-99282214D01*
X104222861Y-99282218D01*
X104113367Y-99446086D01*
X104037949Y-99628163D01*
X104037949Y-99628165D01*
X103999500Y-99821456D01*
X98114774Y-99821456D01*
X98118810Y-99809033D01*
X98125089Y-99782881D01*
X98128159Y-99780258D01*
X98129407Y-99776419D01*
X98171612Y-99743148D01*
X98283914Y-99696632D01*
X98447782Y-99587139D01*
X98587139Y-99447782D01*
X98696632Y-99283914D01*
X98772051Y-99101835D01*
X98810500Y-98908541D01*
X98810500Y-98711459D01*
X98772051Y-98518165D01*
X98696632Y-98336086D01*
X98587139Y-98172218D01*
X98447782Y-98032861D01*
X98331970Y-97955478D01*
X98283913Y-97923367D01*
X98101835Y-97847949D01*
X97908543Y-97809500D01*
X97908541Y-97809500D01*
X97711459Y-97809500D01*
X97711456Y-97809500D01*
X97518165Y-97847949D01*
X97518163Y-97847949D01*
X97336086Y-97923367D01*
X97172218Y-98032861D01*
X97172214Y-98032864D01*
X97149704Y-98055375D01*
X97095187Y-98083152D01*
X97034755Y-98073581D01*
X96991490Y-98030316D01*
X96980700Y-97985371D01*
X96980700Y-97565277D01*
X96999607Y-97507086D01*
X97009690Y-97495280D01*
X97297976Y-97206993D01*
X97352491Y-97179217D01*
X97405862Y-97185533D01*
X97518165Y-97232051D01*
X97711459Y-97270500D01*
X97711460Y-97270500D01*
X97908540Y-97270500D01*
X97908541Y-97270500D01*
X98101835Y-97232051D01*
X98283914Y-97156632D01*
X98447782Y-97047139D01*
X98587139Y-96907782D01*
X98696632Y-96743914D01*
X98772051Y-96561835D01*
X98810500Y-96368541D01*
X98810500Y-96171459D01*
X98772051Y-95978165D01*
X98725533Y-95865862D01*
X98720733Y-95804868D01*
X98746992Y-95757977D01*
X99740460Y-94764511D01*
X99772991Y-94708165D01*
X99780021Y-94695989D01*
X99800500Y-94619562D01*
X99800500Y-94395725D01*
X107249500Y-94395725D01*
X107249500Y-95604274D01*
X107252353Y-95634694D01*
X107252355Y-95634703D01*
X107297207Y-95762883D01*
X107377845Y-95872144D01*
X107377847Y-95872146D01*
X107377850Y-95872150D01*
X107377853Y-95872152D01*
X107377855Y-95872154D01*
X107487116Y-95952792D01*
X107487117Y-95952792D01*
X107487118Y-95952793D01*
X107615301Y-95997646D01*
X107645725Y-96000499D01*
X107645727Y-96000500D01*
X107645734Y-96000500D01*
X108854273Y-96000500D01*
X108854273Y-96000499D01*
X108884699Y-95997646D01*
X109012882Y-95952793D01*
X109122150Y-95872150D01*
X109202793Y-95762882D01*
X109247646Y-95634699D01*
X109250499Y-95604273D01*
X109250500Y-95604273D01*
X109250500Y-94901456D01*
X110749500Y-94901456D01*
X110749500Y-94901459D01*
X110749500Y-95098541D01*
X110787948Y-95291832D01*
X110787949Y-95291834D01*
X110787949Y-95291836D01*
X110863367Y-95473913D01*
X110896399Y-95523349D01*
X110972861Y-95637782D01*
X111112218Y-95777139D01*
X111276086Y-95886632D01*
X111458165Y-95962051D01*
X111651459Y-96000500D01*
X111651460Y-96000500D01*
X111848540Y-96000500D01*
X111848541Y-96000500D01*
X112041835Y-95962051D01*
X112223914Y-95886632D01*
X112387782Y-95777139D01*
X112527139Y-95637782D01*
X112636632Y-95473914D01*
X112712051Y-95291835D01*
X112750500Y-95098541D01*
X112750500Y-94901459D01*
X112750499Y-94901456D01*
X115919500Y-94901456D01*
X115919500Y-94901459D01*
X115919500Y-95098541D01*
X115957948Y-95291832D01*
X115957949Y-95291834D01*
X115957949Y-95291836D01*
X116033367Y-95473913D01*
X116066399Y-95523349D01*
X116142861Y-95637782D01*
X116282218Y-95777139D01*
X116446086Y-95886632D01*
X116628165Y-95962051D01*
X116821459Y-96000500D01*
X116821460Y-96000500D01*
X117018540Y-96000500D01*
X117018541Y-96000500D01*
X117211835Y-95962051D01*
X117393914Y-95886632D01*
X117557782Y-95777139D01*
X117697139Y-95637782D01*
X117806632Y-95473914D01*
X117882051Y-95291835D01*
X117920500Y-95098541D01*
X117920500Y-94901459D01*
X117882051Y-94708165D01*
X117875376Y-94692051D01*
X117806632Y-94526086D01*
X117759487Y-94455529D01*
X117697139Y-94362218D01*
X117557782Y-94222861D01*
X117418806Y-94130000D01*
X117393913Y-94113367D01*
X117211835Y-94037949D01*
X117018543Y-93999500D01*
X117018541Y-93999500D01*
X116821459Y-93999500D01*
X116821456Y-93999500D01*
X116628165Y-94037949D01*
X116628163Y-94037949D01*
X116446086Y-94113367D01*
X116282218Y-94222861D01*
X116282214Y-94222864D01*
X116142864Y-94362214D01*
X116142861Y-94362218D01*
X116033367Y-94526086D01*
X115957950Y-94708162D01*
X115957949Y-94708165D01*
X115919500Y-94901456D01*
X112750499Y-94901456D01*
X112712051Y-94708165D01*
X112705376Y-94692051D01*
X112636632Y-94526086D01*
X112589487Y-94455529D01*
X112527139Y-94362218D01*
X112387782Y-94222861D01*
X112248806Y-94130000D01*
X112223913Y-94113367D01*
X112041835Y-94037949D01*
X111848543Y-93999500D01*
X111848541Y-93999500D01*
X111651459Y-93999500D01*
X111651456Y-93999500D01*
X111458165Y-94037949D01*
X111458163Y-94037949D01*
X111276086Y-94113367D01*
X111112218Y-94222861D01*
X111112214Y-94222864D01*
X110972864Y-94362214D01*
X110972861Y-94362218D01*
X110863367Y-94526086D01*
X110787950Y-94708162D01*
X110787949Y-94708165D01*
X110749500Y-94901456D01*
X109250500Y-94901456D01*
X109250500Y-94395727D01*
X109250499Y-94395725D01*
X109247879Y-94367785D01*
X109247646Y-94365301D01*
X109202793Y-94237118D01*
X109195592Y-94227361D01*
X109122154Y-94127855D01*
X109122152Y-94127853D01*
X109122150Y-94127850D01*
X109122146Y-94127847D01*
X109122144Y-94127845D01*
X109012883Y-94047207D01*
X108884703Y-94002355D01*
X108884694Y-94002353D01*
X108854274Y-93999500D01*
X108854266Y-93999500D01*
X107645734Y-93999500D01*
X107645725Y-93999500D01*
X107615305Y-94002353D01*
X107615296Y-94002355D01*
X107487116Y-94047207D01*
X107377855Y-94127845D01*
X107377845Y-94127855D01*
X107297207Y-94237116D01*
X107252355Y-94365296D01*
X107252353Y-94365305D01*
X107249500Y-94395725D01*
X99800500Y-94395725D01*
X99800500Y-89024610D01*
X99819407Y-88966419D01*
X99861612Y-88933148D01*
X99973914Y-88886632D01*
X100137782Y-88777139D01*
X100277139Y-88637782D01*
X100386632Y-88473914D01*
X100462051Y-88291835D01*
X100500500Y-88098541D01*
X100500500Y-87901459D01*
X100500499Y-87901456D01*
X100499529Y-87896581D01*
X103450000Y-87896581D01*
X103450000Y-88103418D01*
X103490349Y-88306272D01*
X103569501Y-88497361D01*
X103658022Y-88629843D01*
X104129532Y-88158332D01*
X104179920Y-88245606D01*
X104254394Y-88320080D01*
X104341665Y-88370465D01*
X103870154Y-88841977D01*
X104002625Y-88930491D01*
X104002639Y-88930498D01*
X104193727Y-89009650D01*
X104396581Y-89049999D01*
X104396586Y-89050000D01*
X104603414Y-89050000D01*
X104603418Y-89049999D01*
X104806272Y-89009650D01*
X104997360Y-88930498D01*
X105129843Y-88841976D01*
X104658333Y-88370466D01*
X104745606Y-88320080D01*
X104820080Y-88245606D01*
X104870466Y-88158333D01*
X105341976Y-88629843D01*
X105430498Y-88497360D01*
X105509650Y-88306272D01*
X105549999Y-88103418D01*
X105550000Y-88103413D01*
X105550000Y-87896586D01*
X105549999Y-87896581D01*
X105509650Y-87693727D01*
X105430498Y-87502639D01*
X105430491Y-87502625D01*
X105341976Y-87370154D01*
X104870465Y-87841665D01*
X104820080Y-87754394D01*
X104745606Y-87679920D01*
X104658332Y-87629532D01*
X105129843Y-87158022D01*
X104997361Y-87069501D01*
X104806272Y-86990349D01*
X104603418Y-86950000D01*
X104396581Y-86950000D01*
X104193727Y-86990349D01*
X104002638Y-87069501D01*
X103870155Y-87158022D01*
X104341666Y-87629533D01*
X104254394Y-87679920D01*
X104179920Y-87754394D01*
X104129533Y-87841666D01*
X103658022Y-87370155D01*
X103569501Y-87502638D01*
X103490349Y-87693727D01*
X103450000Y-87896581D01*
X100499529Y-87896581D01*
X100489390Y-87845606D01*
X100462051Y-87708165D01*
X100386632Y-87526086D01*
X100277139Y-87362218D01*
X100137782Y-87222861D01*
X99973914Y-87113368D01*
X99973912Y-87113367D01*
X99861615Y-87066852D01*
X99815089Y-87027116D01*
X99800500Y-86975388D01*
X99800500Y-84981456D01*
X103999500Y-84981456D01*
X103999500Y-85178543D01*
X104037949Y-85371834D01*
X104037949Y-85371836D01*
X104113367Y-85553913D01*
X104113368Y-85553914D01*
X104222861Y-85717782D01*
X104362218Y-85857139D01*
X104526086Y-85966632D01*
X104708165Y-86042051D01*
X104901459Y-86080500D01*
X104901460Y-86080500D01*
X105098540Y-86080500D01*
X105098541Y-86080500D01*
X105291835Y-86042051D01*
X105473914Y-85966632D01*
X105637782Y-85857139D01*
X105777139Y-85717782D01*
X105886632Y-85553914D01*
X105962051Y-85371835D01*
X106000500Y-85178541D01*
X106000500Y-84981459D01*
X105962051Y-84788165D01*
X105915533Y-84675862D01*
X105910733Y-84614868D01*
X105936992Y-84567977D01*
X108353093Y-82151876D01*
X108407607Y-82124102D01*
X108468039Y-82133673D01*
X108511304Y-82176938D01*
X108520192Y-82202568D01*
X108537949Y-82291836D01*
X108613367Y-82473913D01*
X108613368Y-82473914D01*
X108722861Y-82637782D01*
X108862218Y-82777139D01*
X109026086Y-82886632D01*
X109208165Y-82962051D01*
X109401459Y-83000500D01*
X109401460Y-83000500D01*
X109598540Y-83000500D01*
X109598541Y-83000500D01*
X109791835Y-82962051D01*
X109973914Y-82886632D01*
X110137782Y-82777139D01*
X110277139Y-82637782D01*
X110386632Y-82473914D01*
X110462051Y-82291835D01*
X110500500Y-82098541D01*
X110500500Y-81901459D01*
X110499529Y-81896581D01*
X113450000Y-81896581D01*
X113450000Y-82103418D01*
X113490349Y-82306272D01*
X113569501Y-82497361D01*
X113658022Y-82629843D01*
X114129532Y-82158332D01*
X114179920Y-82245606D01*
X114254394Y-82320080D01*
X114341665Y-82370465D01*
X113870154Y-82841977D01*
X114002625Y-82930491D01*
X114002639Y-82930498D01*
X114193727Y-83009650D01*
X114396581Y-83049999D01*
X114396586Y-83050000D01*
X114603414Y-83050000D01*
X114603418Y-83049999D01*
X114806272Y-83009650D01*
X114997360Y-82930498D01*
X115129843Y-82841976D01*
X114658333Y-82370466D01*
X114745606Y-82320080D01*
X114820080Y-82245606D01*
X114870466Y-82158333D01*
X115341976Y-82629843D01*
X115430498Y-82497360D01*
X115509650Y-82306272D01*
X115549999Y-82103418D01*
X115550000Y-82103413D01*
X115550000Y-81896586D01*
X115549999Y-81896581D01*
X115509650Y-81693727D01*
X115430498Y-81502639D01*
X115430491Y-81502625D01*
X115341976Y-81370154D01*
X114870465Y-81841665D01*
X114820080Y-81754394D01*
X114745606Y-81679920D01*
X114658332Y-81629532D01*
X115129843Y-81158022D01*
X114997361Y-81069501D01*
X114806272Y-80990349D01*
X114603418Y-80950000D01*
X114396581Y-80950000D01*
X114193727Y-80990349D01*
X114002638Y-81069501D01*
X113870155Y-81158022D01*
X114341666Y-81629533D01*
X114254394Y-81679920D01*
X114179920Y-81754394D01*
X114129533Y-81841666D01*
X113658022Y-81370155D01*
X113569501Y-81502638D01*
X113490349Y-81693727D01*
X113450000Y-81896581D01*
X110499529Y-81896581D01*
X110499312Y-81895489D01*
X110481115Y-81804007D01*
X110462051Y-81708165D01*
X110386632Y-81526086D01*
X110277139Y-81362218D01*
X110137782Y-81222861D01*
X110028288Y-81149699D01*
X109973913Y-81113367D01*
X109791835Y-81037949D01*
X109598543Y-80999500D01*
X109598541Y-80999500D01*
X109401459Y-80999500D01*
X109401456Y-80999500D01*
X109208165Y-81037949D01*
X109208163Y-81037949D01*
X109026086Y-81113367D01*
X108862218Y-81222861D01*
X108862214Y-81222864D01*
X108719504Y-81365575D01*
X108664987Y-81393352D01*
X108604555Y-81383781D01*
X108561290Y-81340516D01*
X108550500Y-81295571D01*
X108550500Y-71099500D01*
X108569407Y-71041309D01*
X108618907Y-71005345D01*
X108649500Y-71000500D01*
X108854273Y-71000500D01*
X108854273Y-71000499D01*
X108884699Y-70997646D01*
X109012882Y-70952793D01*
X109122150Y-70872150D01*
X109202793Y-70762882D01*
X109247646Y-70634699D01*
X109250499Y-70604273D01*
X109250500Y-70604273D01*
X109250500Y-69901456D01*
X110749500Y-69901456D01*
X110749500Y-70098543D01*
X110787949Y-70291834D01*
X110787949Y-70291836D01*
X110863367Y-70473913D01*
X110899699Y-70528288D01*
X110972861Y-70637782D01*
X111112218Y-70777139D01*
X111276086Y-70886632D01*
X111458165Y-70962051D01*
X111651459Y-71000500D01*
X111651460Y-71000500D01*
X111848540Y-71000500D01*
X111848541Y-71000500D01*
X112041835Y-70962051D01*
X112223914Y-70886632D01*
X112387782Y-70777139D01*
X112527139Y-70637782D01*
X112636632Y-70473914D01*
X112712051Y-70291835D01*
X112750500Y-70098541D01*
X112750500Y-69901459D01*
X112750499Y-69901456D01*
X115919500Y-69901456D01*
X115919500Y-70098543D01*
X115957949Y-70291834D01*
X115957949Y-70291836D01*
X116033367Y-70473913D01*
X116069699Y-70528288D01*
X116142861Y-70637782D01*
X116282218Y-70777139D01*
X116446086Y-70886632D01*
X116628165Y-70962051D01*
X116821459Y-71000500D01*
X116821460Y-71000500D01*
X117018540Y-71000500D01*
X117018541Y-71000500D01*
X117211835Y-70962051D01*
X117393914Y-70886632D01*
X117557782Y-70777139D01*
X117697139Y-70637782D01*
X117806632Y-70473914D01*
X117882051Y-70291835D01*
X117920500Y-70098541D01*
X117920500Y-69901459D01*
X117882051Y-69708165D01*
X117875376Y-69692051D01*
X117806632Y-69526086D01*
X117759487Y-69455529D01*
X117697139Y-69362218D01*
X117557782Y-69222861D01*
X117418806Y-69130000D01*
X117393913Y-69113367D01*
X117211835Y-69037949D01*
X117018543Y-68999500D01*
X117018541Y-68999500D01*
X116821459Y-68999500D01*
X116821456Y-68999500D01*
X116628165Y-69037949D01*
X116628163Y-69037949D01*
X116446086Y-69113367D01*
X116282218Y-69222861D01*
X116282214Y-69222864D01*
X116142864Y-69362214D01*
X116142861Y-69362218D01*
X116033367Y-69526086D01*
X115957950Y-69708162D01*
X115957949Y-69708165D01*
X115919500Y-69901456D01*
X112750499Y-69901456D01*
X112712051Y-69708165D01*
X112705376Y-69692051D01*
X112636632Y-69526086D01*
X112589487Y-69455529D01*
X112527139Y-69362218D01*
X112387782Y-69222861D01*
X112248806Y-69130000D01*
X112223913Y-69113367D01*
X112041835Y-69037949D01*
X111848543Y-68999500D01*
X111848541Y-68999500D01*
X111651459Y-68999500D01*
X111651456Y-68999500D01*
X111458165Y-69037949D01*
X111458163Y-69037949D01*
X111276086Y-69113367D01*
X111112218Y-69222861D01*
X111112214Y-69222864D01*
X110972864Y-69362214D01*
X110972861Y-69362218D01*
X110863367Y-69526086D01*
X110787950Y-69708162D01*
X110787949Y-69708165D01*
X110749500Y-69901456D01*
X109250500Y-69901456D01*
X109250500Y-69395727D01*
X109250499Y-69395725D01*
X109247879Y-69367785D01*
X109247646Y-69365301D01*
X109202793Y-69237118D01*
X109195592Y-69227361D01*
X109122154Y-69127855D01*
X109122152Y-69127853D01*
X109122150Y-69127850D01*
X109122146Y-69127847D01*
X109122144Y-69127845D01*
X109012883Y-69047207D01*
X108884703Y-69002355D01*
X108884694Y-69002353D01*
X108854274Y-68999500D01*
X108854266Y-68999500D01*
X107645734Y-68999500D01*
X107645725Y-68999500D01*
X107615305Y-69002353D01*
X107615296Y-69002355D01*
X107487116Y-69047207D01*
X107377855Y-69127845D01*
X107377845Y-69127855D01*
X107297207Y-69237116D01*
X107252355Y-69365296D01*
X107252353Y-69365305D01*
X107249500Y-69395725D01*
X107249500Y-70604274D01*
X107252353Y-70634694D01*
X107252355Y-70634703D01*
X107297207Y-70762883D01*
X107377845Y-70872144D01*
X107377847Y-70872146D01*
X107377850Y-70872150D01*
X107377853Y-70872152D01*
X107377855Y-70872154D01*
X107487116Y-70952792D01*
X107487117Y-70952792D01*
X107487118Y-70952793D01*
X107615301Y-70997646D01*
X107645725Y-71000499D01*
X107645727Y-71000500D01*
X107645734Y-71000500D01*
X107850500Y-71000500D01*
X107908691Y-71019407D01*
X107944655Y-71068907D01*
X107949500Y-71099500D01*
X107949500Y-81664520D01*
X107930593Y-81722711D01*
X107920504Y-81734524D01*
X105512023Y-84143004D01*
X105457506Y-84170781D01*
X105404134Y-84164464D01*
X105291835Y-84117949D01*
X105098543Y-84079500D01*
X105098541Y-84079500D01*
X104901459Y-84079500D01*
X104901456Y-84079500D01*
X104708165Y-84117949D01*
X104708163Y-84117949D01*
X104526086Y-84193367D01*
X104362218Y-84302861D01*
X104362214Y-84302864D01*
X104222864Y-84442214D01*
X104222861Y-84442218D01*
X104113367Y-84606086D01*
X104037949Y-84788163D01*
X104037949Y-84788165D01*
X103999500Y-84981456D01*
X99800500Y-84981456D01*
X99800500Y-78055437D01*
X99800499Y-78055435D01*
X99780021Y-77979011D01*
X99780019Y-77979007D01*
X99740460Y-77910489D01*
X99684511Y-77854539D01*
X99684511Y-77854540D01*
X96969696Y-75139725D01*
X96941919Y-75085208D01*
X96940700Y-75069721D01*
X96940700Y-74821456D01*
X103999500Y-74821456D01*
X103999500Y-75018543D01*
X104023605Y-75139725D01*
X104037515Y-75209655D01*
X104037949Y-75211834D01*
X104037949Y-75211836D01*
X104113367Y-75393913D01*
X104113368Y-75393914D01*
X104222861Y-75557782D01*
X104362218Y-75697139D01*
X104526086Y-75806632D01*
X104708165Y-75882051D01*
X104901459Y-75920500D01*
X104901460Y-75920500D01*
X105098540Y-75920500D01*
X105098541Y-75920500D01*
X105291835Y-75882051D01*
X105473914Y-75806632D01*
X105637782Y-75697139D01*
X105777139Y-75557782D01*
X105886632Y-75393914D01*
X105962051Y-75211835D01*
X106000500Y-75018541D01*
X106000500Y-74821459D01*
X105962051Y-74628165D01*
X105886632Y-74446086D01*
X105777139Y-74282218D01*
X105637782Y-74142861D01*
X105507196Y-74055606D01*
X105473913Y-74033367D01*
X105291835Y-73957949D01*
X105098543Y-73919500D01*
X105098541Y-73919500D01*
X104901459Y-73919500D01*
X104901456Y-73919500D01*
X104708165Y-73957949D01*
X104708163Y-73957949D01*
X104526086Y-74033367D01*
X104362218Y-74142861D01*
X104362214Y-74142864D01*
X104222864Y-74282214D01*
X104222861Y-74282218D01*
X104113367Y-74446086D01*
X104037949Y-74628163D01*
X104037949Y-74628165D01*
X103999500Y-74821456D01*
X96940700Y-74821456D01*
X96940700Y-74594628D01*
X96959607Y-74536437D01*
X97009107Y-74500473D01*
X97070293Y-74500473D01*
X97109704Y-74524625D01*
X97172209Y-74587131D01*
X97172213Y-74587134D01*
X97172218Y-74587139D01*
X97336086Y-74696632D01*
X97518165Y-74772051D01*
X97711459Y-74810500D01*
X97711460Y-74810500D01*
X97908540Y-74810500D01*
X97908541Y-74810500D01*
X98101835Y-74772051D01*
X98283914Y-74696632D01*
X98447782Y-74587139D01*
X98587139Y-74447782D01*
X98696632Y-74283914D01*
X98772051Y-74101835D01*
X98810500Y-73908541D01*
X98810500Y-73711459D01*
X98772051Y-73518165D01*
X98696632Y-73336086D01*
X98587139Y-73172218D01*
X98447782Y-73032861D01*
X98323023Y-72949500D01*
X98283913Y-72923367D01*
X98101835Y-72847949D01*
X97908543Y-72809500D01*
X97908541Y-72809500D01*
X97711459Y-72809500D01*
X97711456Y-72809500D01*
X97518165Y-72847949D01*
X97518163Y-72847949D01*
X97336086Y-72923367D01*
X97172218Y-73032861D01*
X97172214Y-73032864D01*
X97109704Y-73095375D01*
X97055187Y-73123152D01*
X96994755Y-73113581D01*
X96951490Y-73070316D01*
X96940700Y-73025371D01*
X96940700Y-72605277D01*
X96959607Y-72547086D01*
X96969690Y-72535280D01*
X97297976Y-72206993D01*
X97352491Y-72179217D01*
X97405862Y-72185533D01*
X97518165Y-72232051D01*
X97711459Y-72270500D01*
X97711460Y-72270500D01*
X97908540Y-72270500D01*
X97908541Y-72270500D01*
X98101835Y-72232051D01*
X98283914Y-72156632D01*
X98447782Y-72047139D01*
X98587139Y-71907782D01*
X98696632Y-71743914D01*
X98772051Y-71561835D01*
X98810500Y-71368541D01*
X98810500Y-71171459D01*
X98772051Y-70978165D01*
X98725533Y-70865862D01*
X98720733Y-70804868D01*
X98746992Y-70757977D01*
X99740460Y-69764511D01*
X99772991Y-69708165D01*
X99780021Y-69695989D01*
X99800500Y-69619562D01*
X99800500Y-64024610D01*
X99819407Y-63966419D01*
X99861612Y-63933148D01*
X99973914Y-63886632D01*
X100137782Y-63777139D01*
X100277139Y-63637782D01*
X100386632Y-63473914D01*
X100462051Y-63291835D01*
X100500500Y-63098541D01*
X100500500Y-62901459D01*
X100500499Y-62901456D01*
X100499529Y-62896581D01*
X103450000Y-62896581D01*
X103450000Y-63103418D01*
X103490349Y-63306272D01*
X103569501Y-63497361D01*
X103658022Y-63629843D01*
X104129532Y-63158332D01*
X104179920Y-63245606D01*
X104254394Y-63320080D01*
X104341665Y-63370465D01*
X103870154Y-63841977D01*
X104002625Y-63930491D01*
X104002639Y-63930498D01*
X104193727Y-64009650D01*
X104396581Y-64049999D01*
X104396586Y-64050000D01*
X104603414Y-64050000D01*
X104603418Y-64049999D01*
X104806272Y-64009650D01*
X104997360Y-63930498D01*
X105129843Y-63841976D01*
X104658333Y-63370466D01*
X104745606Y-63320080D01*
X104820080Y-63245606D01*
X104870466Y-63158333D01*
X105341976Y-63629843D01*
X105430498Y-63497360D01*
X105509650Y-63306272D01*
X105549999Y-63103418D01*
X105550000Y-63103413D01*
X105550000Y-62896586D01*
X105549999Y-62896581D01*
X105509650Y-62693727D01*
X105430498Y-62502639D01*
X105430491Y-62502625D01*
X105341976Y-62370154D01*
X104870465Y-62841665D01*
X104820080Y-62754394D01*
X104745606Y-62679920D01*
X104658332Y-62629532D01*
X105129843Y-62158022D01*
X104997361Y-62069501D01*
X104806272Y-61990349D01*
X104603418Y-61950000D01*
X104396581Y-61950000D01*
X104193727Y-61990349D01*
X104002638Y-62069501D01*
X103870155Y-62158022D01*
X104341666Y-62629533D01*
X104254394Y-62679920D01*
X104179920Y-62754394D01*
X104129533Y-62841666D01*
X103658022Y-62370155D01*
X103569501Y-62502638D01*
X103490349Y-62693727D01*
X103450000Y-62896581D01*
X100499529Y-62896581D01*
X100489390Y-62845606D01*
X100462051Y-62708165D01*
X100386632Y-62526086D01*
X100277139Y-62362218D01*
X100137782Y-62222861D01*
X99973914Y-62113368D01*
X99973915Y-62113368D01*
X99973913Y-62113367D01*
X99791835Y-62037949D01*
X99598543Y-61999500D01*
X99598541Y-61999500D01*
X99401459Y-61999500D01*
X99401456Y-61999500D01*
X99208165Y-62037949D01*
X99208163Y-62037949D01*
X99026086Y-62113367D01*
X98862218Y-62222861D01*
X98862214Y-62222864D01*
X98722864Y-62362214D01*
X98722861Y-62362218D01*
X98613367Y-62526086D01*
X98537949Y-62708163D01*
X98537949Y-62708165D01*
X98499500Y-62901456D01*
X98499500Y-62901458D01*
X98499500Y-62901459D01*
X98499500Y-63098541D01*
X98537436Y-63289258D01*
X98537949Y-63291834D01*
X98537949Y-63291836D01*
X98613367Y-63473913D01*
X98613368Y-63473914D01*
X98722861Y-63637782D01*
X98862218Y-63777139D01*
X98959254Y-63841976D01*
X99026084Y-63886631D01*
X99026085Y-63886631D01*
X99026086Y-63886632D01*
X99138387Y-63933147D01*
X99184911Y-63972881D01*
X99199500Y-64024610D01*
X99199500Y-69414520D01*
X99180593Y-69472711D01*
X99170504Y-69484524D01*
X98322023Y-70333004D01*
X98267506Y-70360781D01*
X98214134Y-70354464D01*
X98101835Y-70307949D01*
X97908543Y-70269500D01*
X97908541Y-70269500D01*
X97711459Y-70269500D01*
X97711456Y-70269500D01*
X97518165Y-70307949D01*
X97518163Y-70307949D01*
X97336086Y-70383367D01*
X97172218Y-70492861D01*
X97172214Y-70492864D01*
X97032864Y-70632214D01*
X97032861Y-70632218D01*
X96923367Y-70796086D01*
X96847949Y-70978163D01*
X96847949Y-70978165D01*
X96809500Y-71171456D01*
X96809500Y-71368543D01*
X96847949Y-71561834D01*
X96847949Y-71561836D01*
X96894464Y-71674135D01*
X96899264Y-71735132D01*
X96873004Y-71782023D01*
X96455689Y-72199339D01*
X96399739Y-72255289D01*
X96360180Y-72323807D01*
X96360178Y-72323811D01*
X96339700Y-72400235D01*
X96339700Y-75274764D01*
X96360177Y-75351185D01*
X96360179Y-75351190D01*
X96362943Y-75355977D01*
X96384846Y-75393914D01*
X96399740Y-75419711D01*
X99170505Y-78190476D01*
X99198281Y-78244991D01*
X99199500Y-78260478D01*
X99199500Y-86975388D01*
X99180593Y-87033579D01*
X99138385Y-87066852D01*
X99026087Y-87113367D01*
X98862218Y-87222861D01*
X98862214Y-87222864D01*
X98722864Y-87362214D01*
X98722861Y-87362218D01*
X98613367Y-87526086D01*
X98537949Y-87708163D01*
X98537949Y-87708165D01*
X98499500Y-87901456D01*
X98499500Y-87901458D01*
X98499500Y-87901459D01*
X98499500Y-88098541D01*
X98537436Y-88289258D01*
X98537949Y-88291834D01*
X98537949Y-88291836D01*
X98613367Y-88473913D01*
X98613368Y-88473914D01*
X98722861Y-88637782D01*
X98862218Y-88777139D01*
X98959254Y-88841976D01*
X99026084Y-88886631D01*
X99026085Y-88886631D01*
X99026086Y-88886632D01*
X99138387Y-88933147D01*
X99184911Y-88972881D01*
X99199500Y-89024610D01*
X99199500Y-94414520D01*
X99180593Y-94472711D01*
X99170504Y-94484524D01*
X98322023Y-95333004D01*
X98267506Y-95360781D01*
X98214134Y-95354464D01*
X98101835Y-95307949D01*
X97908543Y-95269500D01*
X97908541Y-95269500D01*
X97711459Y-95269500D01*
X97711456Y-95269500D01*
X97518165Y-95307949D01*
X97518163Y-95307949D01*
X97336086Y-95383367D01*
X97172218Y-95492861D01*
X97172214Y-95492864D01*
X97032864Y-95632214D01*
X97032861Y-95632218D01*
X96923367Y-95796086D01*
X96847949Y-95978163D01*
X96847949Y-95978165D01*
X96809500Y-96171456D01*
X96809500Y-96368543D01*
X96847949Y-96561834D01*
X96847949Y-96561836D01*
X96894464Y-96674135D01*
X96899264Y-96735132D01*
X96873004Y-96782023D01*
X96495689Y-97159339D01*
X96439739Y-97215289D01*
X96400180Y-97283807D01*
X96400178Y-97283811D01*
X96379700Y-97360235D01*
X96379700Y-105851000D01*
X96360793Y-105909191D01*
X96311293Y-105945155D01*
X96280700Y-105950000D01*
X96146581Y-105950000D01*
X95943727Y-105990349D01*
X95752638Y-106069501D01*
X95620155Y-106158022D01*
X96091666Y-106629533D01*
X96004394Y-106679920D01*
X95929920Y-106754394D01*
X95879533Y-106841666D01*
X95408022Y-106370155D01*
X95319501Y-106502638D01*
X95240349Y-106693727D01*
X95200000Y-106896581D01*
X95200000Y-107103418D01*
X95240349Y-107306272D01*
X95319501Y-107497361D01*
X95408022Y-107629843D01*
X95879532Y-107158332D01*
X95929920Y-107245606D01*
X96004394Y-107320080D01*
X96091665Y-107370465D01*
X95620154Y-107841977D01*
X95752625Y-107930491D01*
X95752639Y-107930498D01*
X95943727Y-108009650D01*
X96146581Y-108049999D01*
X96146586Y-108050000D01*
X96353414Y-108050000D01*
X96353418Y-108049999D01*
X96556272Y-108009650D01*
X96747360Y-107930498D01*
X96747369Y-107930494D01*
X96897198Y-107830381D01*
X96956086Y-107813772D01*
X97013490Y-107834949D01*
X97047483Y-107885823D01*
X97051200Y-107912696D01*
X97051200Y-111875521D01*
X97032293Y-111933712D01*
X97022204Y-111945525D01*
X91360889Y-117606840D01*
X91360888Y-117606839D01*
X91304939Y-117662789D01*
X91265380Y-117731307D01*
X91265378Y-117731311D01*
X91244900Y-117807735D01*
X91244900Y-119722790D01*
X91225993Y-119780981D01*
X91176493Y-119816945D01*
X91115307Y-119816945D01*
X91065807Y-119780981D01*
X91048802Y-119742105D01*
X91042051Y-119708165D01*
X90966632Y-119526086D01*
X90857139Y-119362218D01*
X90717782Y-119222861D01*
X90553914Y-119113368D01*
X90553915Y-119113368D01*
X90553913Y-119113367D01*
X90371835Y-119037949D01*
X90178543Y-118999500D01*
X90178541Y-118999500D01*
X89981459Y-118999500D01*
X89981456Y-118999500D01*
X89788165Y-119037949D01*
X89788163Y-119037949D01*
X89606086Y-119113367D01*
X89442218Y-119222861D01*
X89442214Y-119222864D01*
X89302864Y-119362214D01*
X89302861Y-119362218D01*
X89193367Y-119526086D01*
X89117949Y-119708163D01*
X89117949Y-119708165D01*
X89079500Y-119901456D01*
X89079500Y-120098543D01*
X89117949Y-120291834D01*
X89117949Y-120291836D01*
X89193367Y-120473913D01*
X89229699Y-120528288D01*
X89302861Y-120637782D01*
X89442218Y-120777139D01*
X89606086Y-120886632D01*
X89788165Y-120962051D01*
X89981459Y-121000500D01*
X89981460Y-121000500D01*
X90178540Y-121000500D01*
X90178541Y-121000500D01*
X90371835Y-120962051D01*
X90553914Y-120886632D01*
X90717782Y-120777139D01*
X90857139Y-120637782D01*
X90966632Y-120473914D01*
X91042051Y-120291835D01*
X91048802Y-120257894D01*
X91078699Y-120204511D01*
X91134264Y-120178895D01*
X91194274Y-120190832D01*
X91235806Y-120235762D01*
X91244900Y-120277209D01*
X91244900Y-125039121D01*
X91225993Y-125097312D01*
X91215904Y-125109125D01*
X90354525Y-125970504D01*
X90300008Y-125998281D01*
X90284521Y-125999500D01*
X89145725Y-125999500D01*
X89115305Y-126002353D01*
X89115296Y-126002355D01*
X88987116Y-126047207D01*
X88877855Y-126127845D01*
X88877845Y-126127855D01*
X88797207Y-126237116D01*
X88752355Y-126365296D01*
X88752353Y-126365305D01*
X88749500Y-126395725D01*
X50500500Y-126395725D01*
X50500500Y-110436532D01*
X53949500Y-110436532D01*
X53949500Y-110643467D01*
X53989869Y-110846418D01*
X54069058Y-111037597D01*
X54184020Y-111209651D01*
X54184023Y-111209655D01*
X54330345Y-111355977D01*
X54502402Y-111470941D01*
X54693580Y-111550130D01*
X54896535Y-111590500D01*
X54896536Y-111590500D01*
X55103464Y-111590500D01*
X55103465Y-111590500D01*
X55306420Y-111550130D01*
X55497598Y-111470941D01*
X55669655Y-111355977D01*
X55815977Y-111209655D01*
X55930941Y-111037598D01*
X56010130Y-110846420D01*
X56050500Y-110643465D01*
X56050500Y-110436535D01*
X56010130Y-110233580D01*
X55930941Y-110042402D01*
X55815977Y-109870345D01*
X55669655Y-109724023D01*
X55668217Y-109723062D01*
X55497597Y-109609058D01*
X55306418Y-109529869D01*
X55103467Y-109489500D01*
X55103465Y-109489500D01*
X54896535Y-109489500D01*
X54896532Y-109489500D01*
X54693581Y-109529869D01*
X54502402Y-109609058D01*
X54330348Y-109724020D01*
X54184020Y-109870348D01*
X54069058Y-110042402D01*
X53989869Y-110233581D01*
X53949500Y-110436532D01*
X50500500Y-110436532D01*
X50500500Y-107913424D01*
X53900000Y-107913424D01*
X53900000Y-108086575D01*
X53927084Y-108257579D01*
X53980588Y-108422248D01*
X54059195Y-108576524D01*
X54059197Y-108576528D01*
X54123219Y-108664646D01*
X54556328Y-108231536D01*
X54599901Y-108307007D01*
X54692993Y-108400099D01*
X54768460Y-108443670D01*
X54335352Y-108876778D01*
X54423477Y-108940805D01*
X54577751Y-109019411D01*
X54742420Y-109072915D01*
X54913425Y-109100000D01*
X55086575Y-109100000D01*
X55257579Y-109072915D01*
X55422248Y-109019411D01*
X55576524Y-108940804D01*
X55576530Y-108940800D01*
X55664646Y-108876779D01*
X55664646Y-108876778D01*
X55231538Y-108443670D01*
X55307007Y-108400099D01*
X55400099Y-108307007D01*
X55443670Y-108231538D01*
X55876778Y-108664646D01*
X55876779Y-108664646D01*
X55940800Y-108576530D01*
X55940804Y-108576524D01*
X56019411Y-108422248D01*
X56072915Y-108257579D01*
X56100000Y-108086573D01*
X56100305Y-108082699D01*
X56101617Y-108082802D01*
X56118907Y-108029588D01*
X56168407Y-107993624D01*
X56229593Y-107993624D01*
X56269004Y-108017775D01*
X61050504Y-112799275D01*
X61078281Y-112853792D01*
X61079500Y-112869279D01*
X61079500Y-122763430D01*
X61060593Y-122821621D01*
X61011093Y-122857584D01*
X60919167Y-122887453D01*
X60750803Y-122973238D01*
X60597928Y-123084309D01*
X60464309Y-123217928D01*
X60353238Y-123370803D01*
X60267453Y-123539167D01*
X60209058Y-123718886D01*
X60179500Y-123905515D01*
X60179500Y-124094484D01*
X60209058Y-124281113D01*
X60261404Y-124442214D01*
X60267453Y-124460832D01*
X60353240Y-124629199D01*
X60464310Y-124782073D01*
X60597927Y-124915690D01*
X60750801Y-125026760D01*
X60919168Y-125112547D01*
X61098882Y-125170940D01*
X61098883Y-125170940D01*
X61098886Y-125170941D01*
X61285516Y-125200500D01*
X61285519Y-125200500D01*
X61474484Y-125200500D01*
X61661113Y-125170941D01*
X61661114Y-125170940D01*
X61661118Y-125170940D01*
X61840832Y-125112547D01*
X62009199Y-125026760D01*
X62162073Y-124915690D01*
X62295690Y-124782073D01*
X62406760Y-124629199D01*
X62492547Y-124460832D01*
X62550940Y-124281118D01*
X62564838Y-124193368D01*
X62580500Y-124094484D01*
X62580500Y-123905515D01*
X75419500Y-123905515D01*
X75419500Y-124094484D01*
X75449058Y-124281113D01*
X75501404Y-124442214D01*
X75507453Y-124460832D01*
X75593240Y-124629199D01*
X75704310Y-124782073D01*
X75837927Y-124915690D01*
X75990801Y-125026760D01*
X76159168Y-125112547D01*
X76338882Y-125170940D01*
X76338883Y-125170940D01*
X76338886Y-125170941D01*
X76525516Y-125200500D01*
X76525519Y-125200500D01*
X76714484Y-125200500D01*
X76901113Y-125170941D01*
X76901114Y-125170940D01*
X76901118Y-125170940D01*
X77080832Y-125112547D01*
X77249199Y-125026760D01*
X77402073Y-124915690D01*
X77535690Y-124782073D01*
X77646760Y-124629199D01*
X77732547Y-124460832D01*
X77790940Y-124281118D01*
X77804838Y-124193368D01*
X77820500Y-124094484D01*
X77820500Y-123905515D01*
X77790941Y-123718886D01*
X77790940Y-123718882D01*
X77732547Y-123539168D01*
X77646760Y-123370801D01*
X77535690Y-123217927D01*
X77402073Y-123084310D01*
X77249199Y-122973240D01*
X77249198Y-122973239D01*
X77249196Y-122973238D01*
X77080832Y-122887453D01*
X76901113Y-122829058D01*
X76714484Y-122799500D01*
X76714481Y-122799500D01*
X76525519Y-122799500D01*
X76525516Y-122799500D01*
X76338886Y-122829058D01*
X76159167Y-122887453D01*
X75990803Y-122973238D01*
X75837928Y-123084309D01*
X75704309Y-123217928D01*
X75593238Y-123370803D01*
X75507453Y-123539167D01*
X75449058Y-123718886D01*
X75419500Y-123905515D01*
X62580500Y-123905515D01*
X62550941Y-123718886D01*
X62550940Y-123718882D01*
X62492547Y-123539168D01*
X62406760Y-123370801D01*
X62295690Y-123217927D01*
X62162073Y-123084310D01*
X62009199Y-122973240D01*
X62009198Y-122973239D01*
X62009196Y-122973238D01*
X61840832Y-122887453D01*
X61748907Y-122857584D01*
X61699407Y-122821620D01*
X61680500Y-122763430D01*
X61680500Y-119901456D01*
X78919500Y-119901456D01*
X78919500Y-120098543D01*
X78957949Y-120291834D01*
X78957949Y-120291836D01*
X79033367Y-120473913D01*
X79069699Y-120528288D01*
X79142861Y-120637782D01*
X79282218Y-120777139D01*
X79446086Y-120886632D01*
X79628165Y-120962051D01*
X79821459Y-121000500D01*
X79821460Y-121000500D01*
X80018540Y-121000500D01*
X80018541Y-121000500D01*
X80211835Y-120962051D01*
X80393914Y-120886632D01*
X80557782Y-120777139D01*
X80697139Y-120637782D01*
X80806632Y-120473914D01*
X80882051Y-120291835D01*
X80920500Y-120098541D01*
X80920500Y-119901459D01*
X80882051Y-119708165D01*
X80806632Y-119526086D01*
X80697139Y-119362218D01*
X80557782Y-119222861D01*
X80393914Y-119113368D01*
X80393915Y-119113368D01*
X80393913Y-119113367D01*
X80211835Y-119037949D01*
X80018543Y-118999500D01*
X80018541Y-118999500D01*
X79821459Y-118999500D01*
X79821456Y-118999500D01*
X79628165Y-119037949D01*
X79628163Y-119037949D01*
X79446086Y-119113367D01*
X79282218Y-119222861D01*
X79282214Y-119222864D01*
X79142864Y-119362214D01*
X79142861Y-119362218D01*
X79033367Y-119526086D01*
X78957949Y-119708163D01*
X78957949Y-119708165D01*
X78919500Y-119901456D01*
X61680500Y-119901456D01*
X61680500Y-112664237D01*
X61680499Y-112664235D01*
X61660021Y-112587811D01*
X61660019Y-112587807D01*
X61620460Y-112519289D01*
X61564511Y-112463339D01*
X61564511Y-112463340D01*
X55780675Y-106679504D01*
X55752898Y-106624987D01*
X55762469Y-106564555D01*
X55805734Y-106521290D01*
X55850679Y-106510500D01*
X55869747Y-106510500D01*
X55869748Y-106510500D01*
X55928231Y-106498867D01*
X55994552Y-106454552D01*
X56033859Y-106395726D01*
X92749500Y-106395726D01*
X92749500Y-107604274D01*
X92752353Y-107634694D01*
X92752355Y-107634703D01*
X92797207Y-107762883D01*
X92877845Y-107872144D01*
X92877847Y-107872146D01*
X92877850Y-107872150D01*
X92877853Y-107872152D01*
X92877855Y-107872154D01*
X92987116Y-107952792D01*
X92987117Y-107952792D01*
X92987118Y-107952793D01*
X93115301Y-107997646D01*
X93145725Y-108000499D01*
X93145727Y-108000500D01*
X93145734Y-108000500D01*
X94354273Y-108000500D01*
X94354273Y-108000499D01*
X94384699Y-107997646D01*
X94512882Y-107952793D01*
X94622150Y-107872150D01*
X94702793Y-107762882D01*
X94747646Y-107634699D01*
X94750499Y-107604273D01*
X94750500Y-107604273D01*
X94750500Y-106395726D01*
X94747646Y-106365305D01*
X94747646Y-106365301D01*
X94702793Y-106237118D01*
X94702094Y-106236171D01*
X94622154Y-106127855D01*
X94622152Y-106127853D01*
X94622150Y-106127850D01*
X94622146Y-106127847D01*
X94622144Y-106127845D01*
X94512883Y-106047207D01*
X94384703Y-106002355D01*
X94384694Y-106002353D01*
X94354274Y-105999500D01*
X94354266Y-105999500D01*
X94149500Y-105999500D01*
X94091309Y-105980593D01*
X94055345Y-105931093D01*
X94050500Y-105900500D01*
X94050500Y-97955478D01*
X94069407Y-97897287D01*
X94079490Y-97885480D01*
X97297977Y-94666992D01*
X97352492Y-94639217D01*
X97405862Y-94645533D01*
X97518165Y-94692051D01*
X97711459Y-94730500D01*
X97711460Y-94730500D01*
X97908540Y-94730500D01*
X97908541Y-94730500D01*
X98101835Y-94692051D01*
X98283914Y-94616632D01*
X98447782Y-94507139D01*
X98587139Y-94367782D01*
X98696632Y-94203914D01*
X98772051Y-94021835D01*
X98810500Y-93828541D01*
X98810500Y-93631459D01*
X98772051Y-93438165D01*
X98696632Y-93256086D01*
X98587139Y-93092218D01*
X98447782Y-92952861D01*
X98283914Y-92843368D01*
X98283915Y-92843368D01*
X98283913Y-92843367D01*
X98101835Y-92767949D01*
X97908543Y-92729500D01*
X97908541Y-92729500D01*
X97711459Y-92729500D01*
X97711456Y-92729500D01*
X97518165Y-92767949D01*
X97518163Y-92767949D01*
X97336086Y-92843367D01*
X97172218Y-92952861D01*
X97172214Y-92952864D01*
X97032864Y-93092214D01*
X97032861Y-93092218D01*
X96923367Y-93256086D01*
X96847949Y-93438163D01*
X96847949Y-93438165D01*
X96809500Y-93631456D01*
X96809500Y-93828543D01*
X96847949Y-94021834D01*
X96847949Y-94021836D01*
X96894464Y-94134134D01*
X96899264Y-94195131D01*
X96873004Y-94242023D01*
X93565489Y-97549540D01*
X93565488Y-97549539D01*
X93509539Y-97605489D01*
X93469980Y-97674007D01*
X93469978Y-97674011D01*
X93449500Y-97750435D01*
X93449500Y-105900500D01*
X93430593Y-105958691D01*
X93381093Y-105994655D01*
X93350500Y-105999500D01*
X93145725Y-105999500D01*
X93115305Y-106002353D01*
X93115296Y-106002355D01*
X92987116Y-106047207D01*
X92877855Y-106127845D01*
X92877845Y-106127855D01*
X92797207Y-106237116D01*
X92752355Y-106365296D01*
X92752353Y-106365305D01*
X92749500Y-106395726D01*
X56033859Y-106395726D01*
X56038867Y-106388231D01*
X56050500Y-106329748D01*
X56050500Y-104901456D01*
X77919500Y-104901456D01*
X77919500Y-105098543D01*
X77942095Y-105212132D01*
X77954695Y-105275478D01*
X77957949Y-105291834D01*
X77957949Y-105291836D01*
X78033367Y-105473913D01*
X78033368Y-105473914D01*
X78142861Y-105637782D01*
X78282218Y-105777139D01*
X78446086Y-105886632D01*
X78628165Y-105962051D01*
X78821459Y-106000500D01*
X78821460Y-106000500D01*
X79018540Y-106000500D01*
X79018541Y-106000500D01*
X79211835Y-105962051D01*
X79393914Y-105886632D01*
X79557782Y-105777139D01*
X79697139Y-105637782D01*
X79806632Y-105473914D01*
X79882051Y-105291835D01*
X79920500Y-105098541D01*
X79920500Y-104901459D01*
X79920499Y-104901456D01*
X79919529Y-104896581D01*
X88030000Y-104896581D01*
X88030000Y-105103418D01*
X88070349Y-105306272D01*
X88149501Y-105497361D01*
X88238022Y-105629843D01*
X88709532Y-105158332D01*
X88759920Y-105245606D01*
X88834394Y-105320080D01*
X88921665Y-105370465D01*
X88450154Y-105841977D01*
X88582625Y-105930491D01*
X88582639Y-105930498D01*
X88773727Y-106009650D01*
X88976581Y-106049999D01*
X88976586Y-106050000D01*
X89183414Y-106050000D01*
X89183418Y-106049999D01*
X89386272Y-106009650D01*
X89577360Y-105930498D01*
X89709843Y-105841976D01*
X89238333Y-105370466D01*
X89325606Y-105320080D01*
X89400080Y-105245606D01*
X89450466Y-105158333D01*
X89921976Y-105629843D01*
X90010498Y-105497360D01*
X90089650Y-105306272D01*
X90129999Y-105103418D01*
X90130000Y-105103413D01*
X90130000Y-104896586D01*
X90129999Y-104896581D01*
X90089650Y-104693727D01*
X90010498Y-104502639D01*
X90010491Y-104502625D01*
X89921976Y-104370154D01*
X89450465Y-104841665D01*
X89400080Y-104754394D01*
X89325606Y-104679920D01*
X89238332Y-104629532D01*
X89709843Y-104158022D01*
X89577361Y-104069501D01*
X89386272Y-103990349D01*
X89183418Y-103950000D01*
X88976581Y-103950000D01*
X88773727Y-103990349D01*
X88582638Y-104069501D01*
X88450155Y-104158022D01*
X88921666Y-104629533D01*
X88834394Y-104679920D01*
X88759920Y-104754394D01*
X88709533Y-104841666D01*
X88238022Y-104370155D01*
X88149501Y-104502638D01*
X88070349Y-104693727D01*
X88030000Y-104896581D01*
X79919529Y-104896581D01*
X79909390Y-104845606D01*
X79882051Y-104708165D01*
X79806632Y-104526086D01*
X79697139Y-104362218D01*
X79557782Y-104222861D01*
X79393914Y-104113368D01*
X79384576Y-104109500D01*
X79281615Y-104066852D01*
X79235089Y-104027116D01*
X79220500Y-103975388D01*
X79220500Y-99325478D01*
X79239407Y-99267287D01*
X79249490Y-99255480D01*
X79798389Y-98706581D01*
X89140000Y-98706581D01*
X89140000Y-98913418D01*
X89180349Y-99116272D01*
X89259501Y-99307361D01*
X89348022Y-99439843D01*
X89819532Y-98968332D01*
X89869920Y-99055606D01*
X89944394Y-99130080D01*
X90031665Y-99180465D01*
X89560154Y-99651977D01*
X89692625Y-99740491D01*
X89692639Y-99740498D01*
X89883727Y-99819650D01*
X90086581Y-99859999D01*
X90086586Y-99860000D01*
X90293414Y-99860000D01*
X90293418Y-99859999D01*
X90496272Y-99819650D01*
X90687360Y-99740498D01*
X90819843Y-99651976D01*
X90348333Y-99180466D01*
X90435606Y-99130080D01*
X90510080Y-99055606D01*
X90560466Y-98968333D01*
X91031976Y-99439843D01*
X91120498Y-99307360D01*
X91199650Y-99116272D01*
X91239999Y-98913418D01*
X91240000Y-98913413D01*
X91240000Y-98706586D01*
X91239999Y-98706581D01*
X91199650Y-98503727D01*
X91120498Y-98312639D01*
X91120491Y-98312625D01*
X91031976Y-98180154D01*
X90560465Y-98651665D01*
X90510080Y-98564394D01*
X90435606Y-98489920D01*
X90348332Y-98439532D01*
X90819843Y-97968022D01*
X90687361Y-97879501D01*
X90496272Y-97800349D01*
X90293418Y-97760000D01*
X90086581Y-97760000D01*
X89883727Y-97800349D01*
X89692638Y-97879501D01*
X89560155Y-97968022D01*
X90031666Y-98439533D01*
X89944394Y-98489920D01*
X89869920Y-98564394D01*
X89819533Y-98651666D01*
X89348022Y-98180155D01*
X89259501Y-98312638D01*
X89180349Y-98503727D01*
X89140000Y-98706581D01*
X79798389Y-98706581D01*
X82333513Y-96171456D01*
X89189500Y-96171456D01*
X89189500Y-96368543D01*
X89227949Y-96561834D01*
X89227949Y-96561836D01*
X89303367Y-96743913D01*
X89339699Y-96798288D01*
X89412861Y-96907782D01*
X89552218Y-97047139D01*
X89716086Y-97156632D01*
X89898165Y-97232051D01*
X90091459Y-97270500D01*
X90091460Y-97270500D01*
X90288540Y-97270500D01*
X90288541Y-97270500D01*
X90481835Y-97232051D01*
X90663914Y-97156632D01*
X90827782Y-97047139D01*
X90967139Y-96907782D01*
X91076632Y-96743914D01*
X91152051Y-96561835D01*
X91190500Y-96368541D01*
X91190500Y-96171459D01*
X91152051Y-95978165D01*
X91076632Y-95796086D01*
X90967139Y-95632218D01*
X90827782Y-95492861D01*
X90663914Y-95383368D01*
X90663915Y-95383368D01*
X90663913Y-95383367D01*
X90481835Y-95307949D01*
X90288543Y-95269500D01*
X90288541Y-95269500D01*
X90091459Y-95269500D01*
X90091456Y-95269500D01*
X89898165Y-95307949D01*
X89898163Y-95307949D01*
X89716086Y-95383367D01*
X89552218Y-95492861D01*
X89552214Y-95492864D01*
X89412864Y-95632214D01*
X89412861Y-95632218D01*
X89303367Y-95796086D01*
X89227949Y-95978163D01*
X89227949Y-95978165D01*
X89189500Y-96171456D01*
X82333513Y-96171456D01*
X82567977Y-95936992D01*
X82622492Y-95909217D01*
X82675862Y-95915533D01*
X82788165Y-95962051D01*
X82981459Y-96000500D01*
X82981460Y-96000500D01*
X83178540Y-96000500D01*
X83178541Y-96000500D01*
X83371835Y-95962051D01*
X83553914Y-95886632D01*
X83717782Y-95777139D01*
X83857139Y-95637782D01*
X83966632Y-95473914D01*
X84042051Y-95291835D01*
X84080500Y-95098541D01*
X84080500Y-94901459D01*
X84042051Y-94708165D01*
X84037008Y-94695989D01*
X83986051Y-94572967D01*
X83966632Y-94526087D01*
X83966632Y-94526086D01*
X83857139Y-94362218D01*
X83717782Y-94222861D01*
X83578806Y-94130000D01*
X83553913Y-94113367D01*
X83371835Y-94037949D01*
X83178543Y-93999500D01*
X83178541Y-93999500D01*
X82981459Y-93999500D01*
X82981456Y-93999500D01*
X82788165Y-94037949D01*
X82788163Y-94037949D01*
X82606086Y-94113367D01*
X82442218Y-94222861D01*
X82442214Y-94222864D01*
X82302864Y-94362214D01*
X82302861Y-94362218D01*
X82193367Y-94526086D01*
X82117950Y-94708162D01*
X82117949Y-94708165D01*
X82079500Y-94901456D01*
X82079500Y-94901459D01*
X82079500Y-95098541D01*
X82117948Y-95291832D01*
X82117949Y-95291834D01*
X82117949Y-95291836D01*
X82164464Y-95404134D01*
X82169264Y-95465131D01*
X82143004Y-95512023D01*
X78735489Y-98919540D01*
X78735488Y-98919539D01*
X78679539Y-98975489D01*
X78639980Y-99044007D01*
X78639978Y-99044011D01*
X78619500Y-99120435D01*
X78619500Y-103975388D01*
X78600593Y-104033579D01*
X78558385Y-104066852D01*
X78446087Y-104113367D01*
X78282218Y-104222861D01*
X78282214Y-104222864D01*
X78142864Y-104362214D01*
X78142861Y-104362218D01*
X78033367Y-104526086D01*
X77957949Y-104708163D01*
X77957949Y-104708165D01*
X77919500Y-104901456D01*
X56050500Y-104901456D01*
X56050500Y-104590252D01*
X56038867Y-104531769D01*
X55994552Y-104465448D01*
X55994548Y-104465445D01*
X55928233Y-104421134D01*
X55928231Y-104421133D01*
X55928228Y-104421132D01*
X55928227Y-104421132D01*
X55869758Y-104409501D01*
X55869748Y-104409500D01*
X54130252Y-104409500D01*
X54130251Y-104409500D01*
X54130241Y-104409501D01*
X54071772Y-104421132D01*
X54071766Y-104421134D01*
X54005451Y-104465445D01*
X54005445Y-104465451D01*
X53961134Y-104531766D01*
X53961132Y-104531772D01*
X53949501Y-104590241D01*
X53949500Y-104590253D01*
X53949500Y-106329746D01*
X53949501Y-106329758D01*
X53961132Y-106388227D01*
X53961134Y-106388233D01*
X53987446Y-106427611D01*
X54005448Y-106454552D01*
X54071769Y-106498867D01*
X54116231Y-106507711D01*
X54130241Y-106510498D01*
X54130246Y-106510498D01*
X54130252Y-106510500D01*
X54600500Y-106510500D01*
X54658691Y-106529407D01*
X54694655Y-106578907D01*
X54699500Y-106609500D01*
X54699500Y-106651264D01*
X54719978Y-106727688D01*
X54719980Y-106727692D01*
X54759332Y-106795851D01*
X54772054Y-106855699D01*
X54747168Y-106911595D01*
X54704189Y-106939505D01*
X54577757Y-106980585D01*
X54423476Y-107059195D01*
X54335352Y-107123219D01*
X54768461Y-107556329D01*
X54692993Y-107599901D01*
X54599901Y-107692993D01*
X54556328Y-107768461D01*
X54123219Y-107335352D01*
X54059195Y-107423476D01*
X53980588Y-107577751D01*
X53927084Y-107742420D01*
X53900000Y-107913424D01*
X50500500Y-107913424D01*
X50500500Y-74436532D01*
X53949500Y-74436532D01*
X53949500Y-74643467D01*
X53989869Y-74846418D01*
X54069058Y-75037597D01*
X54184020Y-75209651D01*
X54184023Y-75209655D01*
X54330345Y-75355977D01*
X54502402Y-75470941D01*
X54693580Y-75550130D01*
X54896535Y-75590500D01*
X54896536Y-75590500D01*
X55103464Y-75590500D01*
X55103465Y-75590500D01*
X55306420Y-75550130D01*
X55442405Y-75493802D01*
X55503399Y-75489002D01*
X55550292Y-75515263D01*
X64170504Y-84135475D01*
X64198281Y-84189992D01*
X64199500Y-84205479D01*
X64199500Y-93975388D01*
X64180593Y-94033579D01*
X64138385Y-94066852D01*
X64026087Y-94113367D01*
X63862218Y-94222861D01*
X63862214Y-94222864D01*
X63722864Y-94362214D01*
X63722861Y-94362218D01*
X63613367Y-94526086D01*
X63537950Y-94708162D01*
X63537949Y-94708165D01*
X63499500Y-94901456D01*
X63499500Y-94901459D01*
X63499500Y-95098541D01*
X63537948Y-95291832D01*
X63537949Y-95291834D01*
X63537949Y-95291836D01*
X63613367Y-95473913D01*
X63646399Y-95523349D01*
X63722861Y-95637782D01*
X63862218Y-95777139D01*
X64026086Y-95886632D01*
X64208165Y-95962051D01*
X64401459Y-96000500D01*
X64401460Y-96000500D01*
X64598540Y-96000500D01*
X64598541Y-96000500D01*
X64791835Y-95962051D01*
X64973914Y-95886632D01*
X65137782Y-95777139D01*
X65277139Y-95637782D01*
X65386632Y-95473914D01*
X65462051Y-95291835D01*
X65500500Y-95098541D01*
X65500500Y-94901459D01*
X65500499Y-94901456D01*
X68499500Y-94901456D01*
X68499500Y-94901459D01*
X68499500Y-95098541D01*
X68537948Y-95291832D01*
X68537949Y-95291834D01*
X68537949Y-95291836D01*
X68613367Y-95473913D01*
X68646399Y-95523349D01*
X68722861Y-95637782D01*
X68862218Y-95777139D01*
X69026086Y-95886632D01*
X69208165Y-95962051D01*
X69401459Y-96000500D01*
X69401460Y-96000500D01*
X69598540Y-96000500D01*
X69598541Y-96000500D01*
X69791835Y-95962051D01*
X69973914Y-95886632D01*
X70137782Y-95777139D01*
X70277139Y-95637782D01*
X70386632Y-95473914D01*
X70462051Y-95291835D01*
X70500500Y-95098541D01*
X70500500Y-94901459D01*
X70500499Y-94901456D01*
X71919500Y-94901456D01*
X71919500Y-94901459D01*
X71919500Y-95098541D01*
X71957948Y-95291832D01*
X71957949Y-95291834D01*
X71957949Y-95291836D01*
X72033367Y-95473913D01*
X72066399Y-95523349D01*
X72142861Y-95637782D01*
X72282218Y-95777139D01*
X72446086Y-95886632D01*
X72628165Y-95962051D01*
X72821459Y-96000500D01*
X72821460Y-96000500D01*
X73018540Y-96000500D01*
X73018541Y-96000500D01*
X73211835Y-95962051D01*
X73393914Y-95886632D01*
X73557782Y-95777139D01*
X73697139Y-95637782D01*
X73806632Y-95473914D01*
X73882051Y-95291835D01*
X73920500Y-95098541D01*
X73920500Y-94901459D01*
X73882051Y-94708165D01*
X73875376Y-94692051D01*
X73806632Y-94526086D01*
X73759487Y-94455529D01*
X73697139Y-94362218D01*
X73557782Y-94222861D01*
X73418806Y-94130000D01*
X73393913Y-94113367D01*
X73211835Y-94037949D01*
X73018543Y-93999500D01*
X73018541Y-93999500D01*
X72821459Y-93999500D01*
X72821456Y-93999500D01*
X72628165Y-94037949D01*
X72628163Y-94037949D01*
X72446086Y-94113367D01*
X72282218Y-94222861D01*
X72282214Y-94222864D01*
X72142864Y-94362214D01*
X72142861Y-94362218D01*
X72033367Y-94526086D01*
X71957950Y-94708162D01*
X71957949Y-94708165D01*
X71919500Y-94901456D01*
X70500499Y-94901456D01*
X70462051Y-94708165D01*
X70455376Y-94692051D01*
X70386632Y-94526086D01*
X70339487Y-94455529D01*
X70277139Y-94362218D01*
X70137782Y-94222861D01*
X69998806Y-94130000D01*
X69973913Y-94113367D01*
X69791835Y-94037949D01*
X69598543Y-93999500D01*
X69598541Y-93999500D01*
X69401459Y-93999500D01*
X69401456Y-93999500D01*
X69208165Y-94037949D01*
X69208163Y-94037949D01*
X69026086Y-94113367D01*
X68862218Y-94222861D01*
X68862214Y-94222864D01*
X68722864Y-94362214D01*
X68722861Y-94362218D01*
X68613367Y-94526086D01*
X68537950Y-94708162D01*
X68537949Y-94708165D01*
X68499500Y-94901456D01*
X65500499Y-94901456D01*
X65462051Y-94708165D01*
X65455376Y-94692051D01*
X65386632Y-94526086D01*
X65339487Y-94455529D01*
X65277139Y-94362218D01*
X65137782Y-94222861D01*
X64973914Y-94113368D01*
X64973912Y-94113367D01*
X64861615Y-94066852D01*
X64815089Y-94027116D01*
X64800500Y-93975388D01*
X64800500Y-93626581D01*
X89140000Y-93626581D01*
X89140000Y-93833418D01*
X89180349Y-94036272D01*
X89259501Y-94227361D01*
X89348022Y-94359843D01*
X89819532Y-93888332D01*
X89869920Y-93975606D01*
X89944394Y-94050080D01*
X90031665Y-94100465D01*
X89560154Y-94571977D01*
X89692625Y-94660491D01*
X89692639Y-94660498D01*
X89883727Y-94739650D01*
X90086581Y-94779999D01*
X90086586Y-94780000D01*
X90293414Y-94780000D01*
X90293418Y-94779999D01*
X90496272Y-94739650D01*
X90687360Y-94660498D01*
X90819843Y-94571976D01*
X90348333Y-94100466D01*
X90435606Y-94050080D01*
X90510080Y-93975606D01*
X90560466Y-93888333D01*
X91031976Y-94359843D01*
X91120498Y-94227360D01*
X91199650Y-94036272D01*
X91239999Y-93833418D01*
X91240000Y-93833413D01*
X91240000Y-93626586D01*
X91239999Y-93626581D01*
X91199650Y-93423727D01*
X91120498Y-93232639D01*
X91120491Y-93232625D01*
X91031976Y-93100154D01*
X90560465Y-93571665D01*
X90510080Y-93484394D01*
X90435606Y-93409920D01*
X90348332Y-93359532D01*
X90819843Y-92888022D01*
X90687361Y-92799501D01*
X90496272Y-92720349D01*
X90293418Y-92680000D01*
X90086581Y-92680000D01*
X89883727Y-92720349D01*
X89692638Y-92799501D01*
X89560155Y-92888022D01*
X90031666Y-93359533D01*
X89944394Y-93409920D01*
X89869920Y-93484394D01*
X89819533Y-93571666D01*
X89348022Y-93100155D01*
X89259501Y-93232638D01*
X89180349Y-93423727D01*
X89140000Y-93626581D01*
X64800500Y-93626581D01*
X64800500Y-90585725D01*
X89189500Y-90585725D01*
X89189500Y-91794274D01*
X89192353Y-91824694D01*
X89192355Y-91824703D01*
X89237207Y-91952883D01*
X89317845Y-92062144D01*
X89317847Y-92062146D01*
X89317850Y-92062150D01*
X89317853Y-92062152D01*
X89317855Y-92062154D01*
X89427116Y-92142792D01*
X89427117Y-92142792D01*
X89427118Y-92142793D01*
X89555301Y-92187646D01*
X89585725Y-92190499D01*
X89585727Y-92190500D01*
X89585734Y-92190500D01*
X90794273Y-92190500D01*
X90794273Y-92190499D01*
X90824699Y-92187646D01*
X90952882Y-92142793D01*
X91062150Y-92062150D01*
X91142793Y-91952882D01*
X91187646Y-91824699D01*
X91190499Y-91794273D01*
X91190500Y-91794273D01*
X91190500Y-91091456D01*
X96809500Y-91091456D01*
X96809500Y-91288543D01*
X96847949Y-91481834D01*
X96847949Y-91481836D01*
X96923367Y-91663913D01*
X96923368Y-91663914D01*
X97032861Y-91827782D01*
X97172218Y-91967139D01*
X97336086Y-92076632D01*
X97518165Y-92152051D01*
X97711459Y-92190500D01*
X97711460Y-92190500D01*
X97908540Y-92190500D01*
X97908541Y-92190500D01*
X98101835Y-92152051D01*
X98283914Y-92076632D01*
X98447782Y-91967139D01*
X98587139Y-91827782D01*
X98696632Y-91663914D01*
X98772051Y-91481835D01*
X98810500Y-91288541D01*
X98810500Y-91091459D01*
X98772051Y-90898165D01*
X98696632Y-90716086D01*
X98587139Y-90552218D01*
X98447782Y-90412861D01*
X98338288Y-90339699D01*
X98283913Y-90303367D01*
X98101835Y-90227949D01*
X97908543Y-90189500D01*
X97908541Y-90189500D01*
X97711459Y-90189500D01*
X97711456Y-90189500D01*
X97518165Y-90227949D01*
X97518163Y-90227949D01*
X97336086Y-90303367D01*
X97172218Y-90412861D01*
X97172214Y-90412864D01*
X97032864Y-90552214D01*
X97032861Y-90552218D01*
X96923367Y-90716086D01*
X96847949Y-90898163D01*
X96847949Y-90898165D01*
X96809500Y-91091456D01*
X91190500Y-91091456D01*
X91190500Y-90585727D01*
X91190499Y-90585725D01*
X91187646Y-90555305D01*
X91187646Y-90555301D01*
X91142793Y-90427118D01*
X91132273Y-90412864D01*
X91062154Y-90317855D01*
X91062152Y-90317853D01*
X91062150Y-90317850D01*
X91062146Y-90317847D01*
X91062144Y-90317845D01*
X90952883Y-90237207D01*
X90824703Y-90192355D01*
X90824694Y-90192353D01*
X90794274Y-90189500D01*
X90794266Y-90189500D01*
X89585734Y-90189500D01*
X89585725Y-90189500D01*
X89555305Y-90192353D01*
X89555296Y-90192355D01*
X89427116Y-90237207D01*
X89317855Y-90317845D01*
X89317845Y-90317855D01*
X89237207Y-90427116D01*
X89192355Y-90555296D01*
X89192353Y-90555305D01*
X89189500Y-90585725D01*
X64800500Y-90585725D01*
X64800500Y-84000437D01*
X64800499Y-84000435D01*
X64780021Y-83924011D01*
X64780019Y-83924007D01*
X64740460Y-83855489D01*
X64684511Y-83799539D01*
X64684511Y-83799540D01*
X62280696Y-81395725D01*
X92749500Y-81395725D01*
X92749500Y-82604274D01*
X92752353Y-82634694D01*
X92752355Y-82634703D01*
X92797207Y-82762883D01*
X92877845Y-82872144D01*
X92877847Y-82872146D01*
X92877850Y-82872150D01*
X92877853Y-82872152D01*
X92877855Y-82872154D01*
X92987116Y-82952792D01*
X92987117Y-82952792D01*
X92987118Y-82952793D01*
X93115301Y-82997646D01*
X93145725Y-83000499D01*
X93145727Y-83000500D01*
X93145734Y-83000500D01*
X94354273Y-83000500D01*
X94354273Y-83000499D01*
X94384699Y-82997646D01*
X94512882Y-82952793D01*
X94622150Y-82872150D01*
X94702793Y-82762882D01*
X94747646Y-82634699D01*
X94750499Y-82604273D01*
X94750500Y-82604273D01*
X94750500Y-81896581D01*
X95200000Y-81896581D01*
X95200000Y-82103418D01*
X95240349Y-82306272D01*
X95319501Y-82497361D01*
X95408022Y-82629843D01*
X95879532Y-82158332D01*
X95929920Y-82245606D01*
X96004394Y-82320080D01*
X96091665Y-82370465D01*
X95620154Y-82841977D01*
X95752625Y-82930491D01*
X95752639Y-82930498D01*
X95943727Y-83009650D01*
X96146581Y-83049999D01*
X96146586Y-83050000D01*
X96353414Y-83050000D01*
X96353418Y-83049999D01*
X96556272Y-83009650D01*
X96747360Y-82930498D01*
X96879843Y-82841976D01*
X96408333Y-82370466D01*
X96495606Y-82320080D01*
X96570080Y-82245606D01*
X96620466Y-82158333D01*
X97091976Y-82629843D01*
X97180498Y-82497360D01*
X97259650Y-82306272D01*
X97299999Y-82103418D01*
X97300000Y-82103413D01*
X97300000Y-81896586D01*
X97299999Y-81896581D01*
X97259650Y-81693727D01*
X97180498Y-81502639D01*
X97180491Y-81502625D01*
X97091976Y-81370154D01*
X96620465Y-81841665D01*
X96570080Y-81754394D01*
X96495606Y-81679920D01*
X96408332Y-81629532D01*
X96879843Y-81158022D01*
X96747361Y-81069501D01*
X96556272Y-80990349D01*
X96353418Y-80950000D01*
X96146581Y-80950000D01*
X95943727Y-80990349D01*
X95752638Y-81069501D01*
X95620155Y-81158022D01*
X96091666Y-81629533D01*
X96004394Y-81679920D01*
X95929920Y-81754394D01*
X95879533Y-81841666D01*
X95408022Y-81370155D01*
X95319501Y-81502638D01*
X95240349Y-81693727D01*
X95200000Y-81896581D01*
X94750500Y-81896581D01*
X94750500Y-81395727D01*
X94750499Y-81395725D01*
X94747646Y-81365301D01*
X94702793Y-81237118D01*
X94702790Y-81237115D01*
X94702790Y-81237113D01*
X94622154Y-81127855D01*
X94622152Y-81127853D01*
X94622150Y-81127850D01*
X94622146Y-81127847D01*
X94622144Y-81127845D01*
X94512883Y-81047207D01*
X94384703Y-81002355D01*
X94384694Y-81002353D01*
X94354274Y-80999500D01*
X94354266Y-80999500D01*
X94149500Y-80999500D01*
X94091309Y-80980593D01*
X94055345Y-80931093D01*
X94050500Y-80900500D01*
X94050500Y-72955478D01*
X94069407Y-72897287D01*
X94079490Y-72885480D01*
X97297977Y-69666992D01*
X97352492Y-69639217D01*
X97405862Y-69645533D01*
X97518165Y-69692051D01*
X97711459Y-69730500D01*
X97711460Y-69730500D01*
X97908540Y-69730500D01*
X97908541Y-69730500D01*
X98101835Y-69692051D01*
X98283914Y-69616632D01*
X98447782Y-69507139D01*
X98587139Y-69367782D01*
X98696632Y-69203914D01*
X98772051Y-69021835D01*
X98810500Y-68828541D01*
X98810500Y-68631459D01*
X98772051Y-68438165D01*
X98696632Y-68256086D01*
X98587139Y-68092218D01*
X98447782Y-67952861D01*
X98283914Y-67843368D01*
X98283915Y-67843368D01*
X98283913Y-67843367D01*
X98101835Y-67767949D01*
X97908543Y-67729500D01*
X97908541Y-67729500D01*
X97711459Y-67729500D01*
X97711456Y-67729500D01*
X97518165Y-67767949D01*
X97518163Y-67767949D01*
X97336086Y-67843367D01*
X97172218Y-67952861D01*
X97172214Y-67952864D01*
X97032864Y-68092214D01*
X97032861Y-68092218D01*
X96923367Y-68256086D01*
X96847949Y-68438163D01*
X96847949Y-68438165D01*
X96809500Y-68631456D01*
X96809500Y-68828543D01*
X96847949Y-69021834D01*
X96847949Y-69021836D01*
X96894464Y-69134134D01*
X96899264Y-69195131D01*
X96873004Y-69242023D01*
X93565489Y-72549540D01*
X93565488Y-72549539D01*
X93509539Y-72605489D01*
X93469980Y-72674007D01*
X93469978Y-72674011D01*
X93449500Y-72750435D01*
X93449500Y-80900500D01*
X93430593Y-80958691D01*
X93381093Y-80994655D01*
X93350500Y-80999500D01*
X93145725Y-80999500D01*
X93115305Y-81002353D01*
X93115296Y-81002355D01*
X92987116Y-81047207D01*
X92877855Y-81127845D01*
X92877845Y-81127855D01*
X92797207Y-81237116D01*
X92752355Y-81365296D01*
X92752353Y-81365305D01*
X92749500Y-81395725D01*
X62280696Y-81395725D01*
X60786427Y-79901456D01*
X77919500Y-79901456D01*
X77919500Y-80098543D01*
X77957949Y-80291834D01*
X77957949Y-80291836D01*
X78033367Y-80473913D01*
X78069699Y-80528288D01*
X78142861Y-80637782D01*
X78282218Y-80777139D01*
X78446086Y-80886632D01*
X78628165Y-80962051D01*
X78821459Y-81000500D01*
X78821460Y-81000500D01*
X79018540Y-81000500D01*
X79018541Y-81000500D01*
X79211835Y-80962051D01*
X79393914Y-80886632D01*
X79557782Y-80777139D01*
X79697139Y-80637782D01*
X79806632Y-80473914D01*
X79882051Y-80291835D01*
X79920500Y-80098541D01*
X79920500Y-79901459D01*
X79920499Y-79901456D01*
X79919529Y-79896581D01*
X88030000Y-79896581D01*
X88030000Y-80103418D01*
X88070349Y-80306272D01*
X88149501Y-80497361D01*
X88238022Y-80629843D01*
X88709532Y-80158332D01*
X88759920Y-80245606D01*
X88834394Y-80320080D01*
X88921665Y-80370465D01*
X88450154Y-80841977D01*
X88582625Y-80930491D01*
X88582639Y-80930498D01*
X88773727Y-81009650D01*
X88976581Y-81049999D01*
X88976586Y-81050000D01*
X89183414Y-81050000D01*
X89183418Y-81049999D01*
X89386272Y-81009650D01*
X89577360Y-80930498D01*
X89709843Y-80841976D01*
X89238333Y-80370466D01*
X89325606Y-80320080D01*
X89400080Y-80245606D01*
X89450466Y-80158333D01*
X89921976Y-80629843D01*
X90010498Y-80497360D01*
X90089650Y-80306272D01*
X90129999Y-80103418D01*
X90130000Y-80103413D01*
X90130000Y-79896586D01*
X90129999Y-79896581D01*
X90089650Y-79693727D01*
X90010498Y-79502639D01*
X90010491Y-79502625D01*
X89921976Y-79370154D01*
X89450465Y-79841665D01*
X89400080Y-79754394D01*
X89325606Y-79679920D01*
X89238332Y-79629532D01*
X89709843Y-79158022D01*
X89577361Y-79069501D01*
X89386272Y-78990349D01*
X89183418Y-78950000D01*
X88976581Y-78950000D01*
X88773727Y-78990349D01*
X88582638Y-79069501D01*
X88450155Y-79158022D01*
X88921666Y-79629533D01*
X88834394Y-79679920D01*
X88759920Y-79754394D01*
X88709533Y-79841666D01*
X88238022Y-79370155D01*
X88149501Y-79502638D01*
X88070349Y-79693727D01*
X88030000Y-79896581D01*
X79919529Y-79896581D01*
X79909390Y-79845606D01*
X79882051Y-79708165D01*
X79806632Y-79526086D01*
X79697139Y-79362218D01*
X79557782Y-79222861D01*
X79393914Y-79113368D01*
X79393912Y-79113367D01*
X79281615Y-79066852D01*
X79235089Y-79027116D01*
X79220500Y-78975388D01*
X79220500Y-74325478D01*
X79239407Y-74267287D01*
X79249490Y-74255480D01*
X79798389Y-73706581D01*
X89140000Y-73706581D01*
X89140000Y-73913418D01*
X89180349Y-74116272D01*
X89259501Y-74307361D01*
X89348022Y-74439843D01*
X89819532Y-73968332D01*
X89869920Y-74055606D01*
X89944394Y-74130080D01*
X90031665Y-74180465D01*
X89560154Y-74651977D01*
X89692625Y-74740491D01*
X89692639Y-74740498D01*
X89883727Y-74819650D01*
X90086581Y-74859999D01*
X90086586Y-74860000D01*
X90293414Y-74860000D01*
X90293418Y-74859999D01*
X90496272Y-74819650D01*
X90687360Y-74740498D01*
X90819843Y-74651976D01*
X90348333Y-74180466D01*
X90435606Y-74130080D01*
X90510080Y-74055606D01*
X90560466Y-73968333D01*
X91031976Y-74439843D01*
X91120498Y-74307360D01*
X91199650Y-74116272D01*
X91239999Y-73913418D01*
X91240000Y-73913413D01*
X91240000Y-73706586D01*
X91239999Y-73706581D01*
X91199650Y-73503727D01*
X91120498Y-73312639D01*
X91120491Y-73312625D01*
X91031976Y-73180154D01*
X90560465Y-73651665D01*
X90510080Y-73564394D01*
X90435606Y-73489920D01*
X90348332Y-73439532D01*
X90819843Y-72968022D01*
X90687361Y-72879501D01*
X90496272Y-72800349D01*
X90293418Y-72760000D01*
X90086581Y-72760000D01*
X89883727Y-72800349D01*
X89692638Y-72879501D01*
X89560155Y-72968022D01*
X90031666Y-73439533D01*
X89944394Y-73489920D01*
X89869920Y-73564394D01*
X89819533Y-73651666D01*
X89348022Y-73180155D01*
X89259501Y-73312638D01*
X89180349Y-73503727D01*
X89140000Y-73706581D01*
X79798389Y-73706581D01*
X82333513Y-71171456D01*
X89189500Y-71171456D01*
X89189500Y-71368543D01*
X89227949Y-71561834D01*
X89227949Y-71561836D01*
X89303367Y-71743913D01*
X89332736Y-71787866D01*
X89412861Y-71907782D01*
X89552218Y-72047139D01*
X89716086Y-72156632D01*
X89898165Y-72232051D01*
X90091459Y-72270500D01*
X90091460Y-72270500D01*
X90288540Y-72270500D01*
X90288541Y-72270500D01*
X90481835Y-72232051D01*
X90663914Y-72156632D01*
X90827782Y-72047139D01*
X90967139Y-71907782D01*
X91076632Y-71743914D01*
X91152051Y-71561835D01*
X91190500Y-71368541D01*
X91190500Y-71171459D01*
X91152051Y-70978165D01*
X91076632Y-70796086D01*
X90967139Y-70632218D01*
X90827782Y-70492861D01*
X90663914Y-70383368D01*
X90663915Y-70383368D01*
X90663913Y-70383367D01*
X90481835Y-70307949D01*
X90288543Y-70269500D01*
X90288541Y-70269500D01*
X90091459Y-70269500D01*
X90091456Y-70269500D01*
X89898165Y-70307949D01*
X89898163Y-70307949D01*
X89716086Y-70383367D01*
X89552218Y-70492861D01*
X89552214Y-70492864D01*
X89412864Y-70632214D01*
X89412861Y-70632218D01*
X89303367Y-70796086D01*
X89227949Y-70978163D01*
X89227949Y-70978165D01*
X89189500Y-71171456D01*
X82333513Y-71171456D01*
X82567977Y-70936992D01*
X82622492Y-70909217D01*
X82675862Y-70915533D01*
X82788165Y-70962051D01*
X82981459Y-71000500D01*
X82981460Y-71000500D01*
X83178540Y-71000500D01*
X83178541Y-71000500D01*
X83371835Y-70962051D01*
X83553914Y-70886632D01*
X83717782Y-70777139D01*
X83857139Y-70637782D01*
X83966632Y-70473914D01*
X84042051Y-70291835D01*
X84080500Y-70098541D01*
X84080500Y-69901459D01*
X84042051Y-69708165D01*
X84037008Y-69695989D01*
X83986051Y-69572967D01*
X83966632Y-69526087D01*
X83966632Y-69526086D01*
X83857139Y-69362218D01*
X83717782Y-69222861D01*
X83578806Y-69130000D01*
X83553913Y-69113367D01*
X83371835Y-69037949D01*
X83178543Y-68999500D01*
X83178541Y-68999500D01*
X82981459Y-68999500D01*
X82981456Y-68999500D01*
X82788165Y-69037949D01*
X82788163Y-69037949D01*
X82606086Y-69113367D01*
X82442218Y-69222861D01*
X82442214Y-69222864D01*
X82302864Y-69362214D01*
X82302861Y-69362218D01*
X82193367Y-69526086D01*
X82117950Y-69708162D01*
X82117949Y-69708165D01*
X82079500Y-69901456D01*
X82079500Y-70098543D01*
X82117949Y-70291834D01*
X82117949Y-70291836D01*
X82164464Y-70404134D01*
X82169264Y-70465131D01*
X82143004Y-70512023D01*
X78735489Y-73919540D01*
X78735488Y-73919539D01*
X78679539Y-73975489D01*
X78639980Y-74044007D01*
X78639978Y-74044011D01*
X78619500Y-74120435D01*
X78619500Y-78975388D01*
X78600593Y-79033579D01*
X78558385Y-79066852D01*
X78446087Y-79113367D01*
X78282218Y-79222861D01*
X78282214Y-79222864D01*
X78142864Y-79362214D01*
X78142861Y-79362218D01*
X78033367Y-79526086D01*
X77957949Y-79708163D01*
X77957949Y-79708165D01*
X77919500Y-79901456D01*
X60786427Y-79901456D01*
X55975263Y-75090292D01*
X55947486Y-75035775D01*
X55953802Y-74982405D01*
X56010130Y-74846420D01*
X56050500Y-74643465D01*
X56050500Y-74436535D01*
X56010130Y-74233580D01*
X55930941Y-74042402D01*
X55815977Y-73870345D01*
X55669655Y-73724023D01*
X55650852Y-73711459D01*
X55497597Y-73609058D01*
X55306418Y-73529869D01*
X55103467Y-73489500D01*
X55103465Y-73489500D01*
X54896535Y-73489500D01*
X54896532Y-73489500D01*
X54693581Y-73529869D01*
X54502402Y-73609058D01*
X54330348Y-73724020D01*
X54184020Y-73870348D01*
X54069058Y-74042402D01*
X53989869Y-74233581D01*
X53949500Y-74436532D01*
X50500500Y-74436532D01*
X50500500Y-71913424D01*
X53900000Y-71913424D01*
X53900000Y-72086575D01*
X53927084Y-72257579D01*
X53980588Y-72422248D01*
X54059195Y-72576524D01*
X54059197Y-72576528D01*
X54123219Y-72664646D01*
X54556328Y-72231536D01*
X54599901Y-72307007D01*
X54692993Y-72400099D01*
X54768460Y-72443670D01*
X54335352Y-72876778D01*
X54423477Y-72940805D01*
X54577751Y-73019411D01*
X54742420Y-73072915D01*
X54913425Y-73100000D01*
X55086575Y-73100000D01*
X55257579Y-73072915D01*
X55422248Y-73019411D01*
X55576524Y-72940804D01*
X55576530Y-72940800D01*
X55664646Y-72876779D01*
X55664646Y-72876778D01*
X55231538Y-72443670D01*
X55307007Y-72400099D01*
X55400099Y-72307007D01*
X55443670Y-72231538D01*
X55876778Y-72664646D01*
X55876779Y-72664646D01*
X55940800Y-72576530D01*
X55940804Y-72576524D01*
X56019411Y-72422248D01*
X56072915Y-72257579D01*
X56100000Y-72086575D01*
X56100000Y-71913424D01*
X56072915Y-71742420D01*
X56019411Y-71577751D01*
X55940805Y-71423477D01*
X55876778Y-71335352D01*
X55443670Y-71768460D01*
X55400099Y-71692993D01*
X55307007Y-71599901D01*
X55231536Y-71556328D01*
X55664646Y-71123219D01*
X55576528Y-71059197D01*
X55576524Y-71059195D01*
X55422248Y-70980588D01*
X55257579Y-70927084D01*
X55086575Y-70900000D01*
X54913425Y-70900000D01*
X54742420Y-70927084D01*
X54577751Y-70980588D01*
X54423476Y-71059195D01*
X54335352Y-71123219D01*
X54768461Y-71556328D01*
X54692993Y-71599901D01*
X54599901Y-71692993D01*
X54556328Y-71768461D01*
X54123219Y-71335352D01*
X54059195Y-71423476D01*
X53980588Y-71577751D01*
X53927084Y-71742420D01*
X53900000Y-71913424D01*
X50500500Y-71913424D01*
X50500500Y-68590253D01*
X53949500Y-68590253D01*
X53949500Y-70329746D01*
X53949501Y-70329758D01*
X53961132Y-70388227D01*
X53961134Y-70388233D01*
X53983118Y-70421134D01*
X54005448Y-70454552D01*
X54071769Y-70498867D01*
X54116231Y-70507711D01*
X54130241Y-70510498D01*
X54130246Y-70510498D01*
X54130252Y-70510500D01*
X54130253Y-70510500D01*
X55869747Y-70510500D01*
X55869748Y-70510500D01*
X55928231Y-70498867D01*
X55994552Y-70454552D01*
X56038867Y-70388231D01*
X56050500Y-70329748D01*
X56050500Y-69901456D01*
X63499500Y-69901456D01*
X63499500Y-70098543D01*
X63537949Y-70291834D01*
X63537949Y-70291836D01*
X63613367Y-70473913D01*
X63649699Y-70528288D01*
X63722861Y-70637782D01*
X63862218Y-70777139D01*
X64026086Y-70886632D01*
X64208165Y-70962051D01*
X64401459Y-71000500D01*
X64401460Y-71000500D01*
X64598540Y-71000500D01*
X64598541Y-71000500D01*
X64791835Y-70962051D01*
X64973914Y-70886632D01*
X65137782Y-70777139D01*
X65277139Y-70637782D01*
X65386632Y-70473914D01*
X65462051Y-70291835D01*
X65500500Y-70098541D01*
X65500500Y-69901459D01*
X65500499Y-69901456D01*
X68499500Y-69901456D01*
X68499500Y-70098543D01*
X68537949Y-70291834D01*
X68537949Y-70291836D01*
X68613367Y-70473913D01*
X68649699Y-70528288D01*
X68722861Y-70637782D01*
X68862218Y-70777139D01*
X69026086Y-70886632D01*
X69208165Y-70962051D01*
X69401459Y-71000500D01*
X69401460Y-71000500D01*
X69598540Y-71000500D01*
X69598541Y-71000500D01*
X69791835Y-70962051D01*
X69973914Y-70886632D01*
X70137782Y-70777139D01*
X70277139Y-70637782D01*
X70386632Y-70473914D01*
X70462051Y-70291835D01*
X70500500Y-70098541D01*
X70500500Y-69901459D01*
X70500499Y-69901456D01*
X71919500Y-69901456D01*
X71919500Y-70098543D01*
X71957949Y-70291834D01*
X71957949Y-70291836D01*
X72033367Y-70473913D01*
X72069699Y-70528288D01*
X72142861Y-70637782D01*
X72282218Y-70777139D01*
X72446086Y-70886632D01*
X72628165Y-70962051D01*
X72821459Y-71000500D01*
X72821460Y-71000500D01*
X73018540Y-71000500D01*
X73018541Y-71000500D01*
X73211835Y-70962051D01*
X73393914Y-70886632D01*
X73557782Y-70777139D01*
X73697139Y-70637782D01*
X73806632Y-70473914D01*
X73882051Y-70291835D01*
X73920500Y-70098541D01*
X73920500Y-69901459D01*
X73882051Y-69708165D01*
X73875376Y-69692051D01*
X73806632Y-69526086D01*
X73759487Y-69455529D01*
X73697139Y-69362218D01*
X73557782Y-69222861D01*
X73418806Y-69130000D01*
X73393913Y-69113367D01*
X73211835Y-69037949D01*
X73018543Y-68999500D01*
X73018541Y-68999500D01*
X72821459Y-68999500D01*
X72821456Y-68999500D01*
X72628165Y-69037949D01*
X72628163Y-69037949D01*
X72446086Y-69113367D01*
X72282218Y-69222861D01*
X72282214Y-69222864D01*
X72142864Y-69362214D01*
X72142861Y-69362218D01*
X72033367Y-69526086D01*
X71957950Y-69708162D01*
X71957949Y-69708165D01*
X71919500Y-69901456D01*
X70500499Y-69901456D01*
X70462051Y-69708165D01*
X70455376Y-69692051D01*
X70386632Y-69526086D01*
X70339487Y-69455529D01*
X70277139Y-69362218D01*
X70137782Y-69222861D01*
X69998806Y-69130000D01*
X69973913Y-69113367D01*
X69791835Y-69037949D01*
X69598543Y-68999500D01*
X69598541Y-68999500D01*
X69401459Y-68999500D01*
X69401456Y-68999500D01*
X69208165Y-69037949D01*
X69208163Y-69037949D01*
X69026086Y-69113367D01*
X68862218Y-69222861D01*
X68862214Y-69222864D01*
X68722864Y-69362214D01*
X68722861Y-69362218D01*
X68613367Y-69526086D01*
X68537950Y-69708162D01*
X68537949Y-69708165D01*
X68499500Y-69901456D01*
X65500499Y-69901456D01*
X65462051Y-69708165D01*
X65455376Y-69692051D01*
X65386632Y-69526086D01*
X65339487Y-69455529D01*
X65277139Y-69362218D01*
X65137782Y-69222861D01*
X64998806Y-69130000D01*
X64973913Y-69113367D01*
X64791835Y-69037949D01*
X64598543Y-68999500D01*
X64598541Y-68999500D01*
X64401459Y-68999500D01*
X64401456Y-68999500D01*
X64208165Y-69037949D01*
X64208163Y-69037949D01*
X64026086Y-69113367D01*
X63862218Y-69222861D01*
X63862214Y-69222864D01*
X63722864Y-69362214D01*
X63722861Y-69362218D01*
X63613367Y-69526086D01*
X63537950Y-69708162D01*
X63537949Y-69708165D01*
X63499500Y-69901456D01*
X56050500Y-69901456D01*
X56050500Y-68626581D01*
X89140000Y-68626581D01*
X89140000Y-68833418D01*
X89180349Y-69036272D01*
X89259501Y-69227361D01*
X89348022Y-69359843D01*
X89819532Y-68888332D01*
X89869920Y-68975606D01*
X89944394Y-69050080D01*
X90031665Y-69100465D01*
X89560154Y-69571977D01*
X89692625Y-69660491D01*
X89692639Y-69660498D01*
X89883727Y-69739650D01*
X90086581Y-69779999D01*
X90086586Y-69780000D01*
X90293414Y-69780000D01*
X90293418Y-69779999D01*
X90496272Y-69739650D01*
X90687360Y-69660498D01*
X90819843Y-69571976D01*
X90348333Y-69100466D01*
X90435606Y-69050080D01*
X90510080Y-68975606D01*
X90560466Y-68888333D01*
X91031976Y-69359843D01*
X91120498Y-69227360D01*
X91199650Y-69036272D01*
X91239999Y-68833418D01*
X91240000Y-68833413D01*
X91240000Y-68626586D01*
X91239999Y-68626581D01*
X91199650Y-68423727D01*
X91120498Y-68232639D01*
X91120491Y-68232625D01*
X91031976Y-68100154D01*
X90560465Y-68571665D01*
X90510080Y-68484394D01*
X90435606Y-68409920D01*
X90348332Y-68359532D01*
X90819843Y-67888022D01*
X90687361Y-67799501D01*
X90496272Y-67720349D01*
X90293418Y-67680000D01*
X90086581Y-67680000D01*
X89883727Y-67720349D01*
X89692638Y-67799501D01*
X89560155Y-67888022D01*
X90031666Y-68359533D01*
X89944394Y-68409920D01*
X89869920Y-68484394D01*
X89819533Y-68571666D01*
X89348022Y-68100155D01*
X89259501Y-68232638D01*
X89180349Y-68423727D01*
X89140000Y-68626581D01*
X56050500Y-68626581D01*
X56050500Y-68590252D01*
X56038867Y-68531769D01*
X55994552Y-68465448D01*
X55953718Y-68438163D01*
X55928233Y-68421134D01*
X55928231Y-68421133D01*
X55928228Y-68421132D01*
X55928227Y-68421132D01*
X55869758Y-68409501D01*
X55869748Y-68409500D01*
X54130252Y-68409500D01*
X54130251Y-68409500D01*
X54130241Y-68409501D01*
X54071772Y-68421132D01*
X54071766Y-68421134D01*
X54005451Y-68465445D01*
X54005445Y-68465451D01*
X53961134Y-68531766D01*
X53961132Y-68531772D01*
X53949501Y-68590241D01*
X53949500Y-68590253D01*
X50500500Y-68590253D01*
X50500500Y-65585725D01*
X89189500Y-65585725D01*
X89189500Y-66794274D01*
X89192353Y-66824694D01*
X89192355Y-66824703D01*
X89237207Y-66952883D01*
X89317845Y-67062144D01*
X89317847Y-67062146D01*
X89317850Y-67062150D01*
X89317853Y-67062152D01*
X89317855Y-67062154D01*
X89427116Y-67142792D01*
X89427117Y-67142792D01*
X89427118Y-67142793D01*
X89555301Y-67187646D01*
X89585725Y-67190499D01*
X89585727Y-67190500D01*
X89585734Y-67190500D01*
X90794273Y-67190500D01*
X90794273Y-67190499D01*
X90824699Y-67187646D01*
X90952882Y-67142793D01*
X91062150Y-67062150D01*
X91142793Y-66952882D01*
X91187646Y-66824699D01*
X91190499Y-66794273D01*
X91190500Y-66794273D01*
X91190500Y-66091456D01*
X96809500Y-66091456D01*
X96809500Y-66288543D01*
X96847949Y-66481834D01*
X96847949Y-66481836D01*
X96923367Y-66663913D01*
X96923368Y-66663914D01*
X97032861Y-66827782D01*
X97172218Y-66967139D01*
X97336086Y-67076632D01*
X97518165Y-67152051D01*
X97711459Y-67190500D01*
X97711460Y-67190500D01*
X97908540Y-67190500D01*
X97908541Y-67190500D01*
X98101835Y-67152051D01*
X98283914Y-67076632D01*
X98447782Y-66967139D01*
X98587139Y-66827782D01*
X98696632Y-66663914D01*
X98772051Y-66481835D01*
X98810500Y-66288541D01*
X98810500Y-66091459D01*
X98772051Y-65898165D01*
X98696632Y-65716086D01*
X98587139Y-65552218D01*
X98447782Y-65412861D01*
X98338288Y-65339699D01*
X98283913Y-65303367D01*
X98101835Y-65227949D01*
X97908543Y-65189500D01*
X97908541Y-65189500D01*
X97711459Y-65189500D01*
X97711456Y-65189500D01*
X97518165Y-65227949D01*
X97518163Y-65227949D01*
X97336086Y-65303367D01*
X97172218Y-65412861D01*
X97172214Y-65412864D01*
X97032864Y-65552214D01*
X97032861Y-65552218D01*
X96923367Y-65716086D01*
X96847949Y-65898163D01*
X96847949Y-65898165D01*
X96809500Y-66091456D01*
X91190500Y-66091456D01*
X91190500Y-65585727D01*
X91190499Y-65585725D01*
X91187646Y-65555305D01*
X91187646Y-65555301D01*
X91142793Y-65427118D01*
X91132273Y-65412864D01*
X91062154Y-65317855D01*
X91062152Y-65317853D01*
X91062150Y-65317850D01*
X91062146Y-65317847D01*
X91062144Y-65317845D01*
X90952883Y-65237207D01*
X90824703Y-65192355D01*
X90824694Y-65192353D01*
X90794274Y-65189500D01*
X90794266Y-65189500D01*
X89585734Y-65189500D01*
X89585725Y-65189500D01*
X89555305Y-65192353D01*
X89555296Y-65192355D01*
X89427116Y-65237207D01*
X89317855Y-65317845D01*
X89317845Y-65317855D01*
X89237207Y-65427116D01*
X89192355Y-65555296D01*
X89192353Y-65555305D01*
X89189500Y-65585725D01*
X50500500Y-65585725D01*
X50500500Y-52893709D01*
X141649500Y-52893709D01*
X141649500Y-53106290D01*
X141682752Y-53316238D01*
X141748443Y-53518412D01*
X141844948Y-53707815D01*
X141844950Y-53707819D01*
X141969891Y-53879786D01*
X141969893Y-53879788D01*
X141969896Y-53879792D01*
X142120208Y-54030104D01*
X142120211Y-54030106D01*
X142120213Y-54030108D01*
X142292180Y-54155049D01*
X142292184Y-54155051D01*
X142481588Y-54251557D01*
X142683757Y-54317246D01*
X142683758Y-54317246D01*
X142683761Y-54317247D01*
X142893710Y-54350500D01*
X142893713Y-54350500D01*
X143106290Y-54350500D01*
X143316238Y-54317247D01*
X143316239Y-54317246D01*
X143316243Y-54317246D01*
X143518412Y-54251557D01*
X143707816Y-54155051D01*
X143879792Y-54030104D01*
X144030104Y-53879792D01*
X144155051Y-53707816D01*
X144251557Y-53518412D01*
X144317246Y-53316243D01*
X144350500Y-53106287D01*
X144350500Y-52893713D01*
X144350500Y-52893709D01*
X144317247Y-52683761D01*
X144317246Y-52683757D01*
X144251557Y-52481588D01*
X144155051Y-52292184D01*
X144155049Y-52292180D01*
X144030108Y-52120213D01*
X144030106Y-52120211D01*
X144030104Y-52120208D01*
X143879792Y-51969896D01*
X143879788Y-51969893D01*
X143879786Y-51969891D01*
X143707819Y-51844950D01*
X143707815Y-51844948D01*
X143518412Y-51748443D01*
X143316238Y-51682752D01*
X143106290Y-51649500D01*
X143106287Y-51649500D01*
X142893713Y-51649500D01*
X142893710Y-51649500D01*
X142683761Y-51682752D01*
X142481587Y-51748443D01*
X142292184Y-51844948D01*
X142292180Y-51844950D01*
X142120213Y-51969891D01*
X141969891Y-52120213D01*
X141844950Y-52292180D01*
X141844948Y-52292184D01*
X141748443Y-52481587D01*
X141682752Y-52683761D01*
X141649500Y-52893709D01*
X50500500Y-52893709D01*
X50500500Y-50599500D01*
X50519407Y-50541309D01*
X50568907Y-50505345D01*
X50599500Y-50500500D01*
X145400500Y-50500500D01*
X145458691Y-50519407D01*
G37*
G04 #@! TD.AperFunction*
M02*
