G04 #@! TF.GenerationSoftware,KiCad,Pcbnew,9.0.2+dfsg-1*
G04 #@! TF.CreationDate,2026-10-08T19:46:54+00:00*
G04 #@! TF.ProjectId,Ardor_Headphones_THT,4172646f-725f-4486-9561-6470686f6e65,rev?*
G04 #@! TF.SameCoordinates,Original*
G04 #@! TF.FileFunction,Legend,Bot*
G04 #@! TF.FilePolarity,Positive*
%FSLAX46Y46*%
G04 Gerber Fmt 4.6, Leading zero omitted, Abs format (unit mm)*
G04 Created by KiCad (PCBNEW 9.0.2+dfsg-1) date 2026-10-08 19:46:54*
%MOMM*%
%LPD*%
G01*
G04 APERTURE LIST*
G04 Aperture macros list*
%AMRoundRect*
0 Rectangle with rounded corners*
0 $1 Rounding radius*
0 $2 $3 $4 $5 $6 $7 $8 $9 X,Y pos of 4 corners*
0 Add a 4 corners polygon primitive as box body*
4,1,4,$2,$3,$4,$5,$6,$7,$8,$9,$2,$3,0*
0 Add four circle primitives for the rounded corners*
1,1,$1+$1,$2,$3*
1,1,$1+$1,$4,$5*
1,1,$1+$1,$6,$7*
1,1,$1+$1,$8,$9*
0 Add four rect primitives between the rounded corners*
20,1,$1+$1,$2,$3,$4,$5,0*
20,1,$1+$1,$4,$5,$6,$7,0*
20,1,$1+$1,$6,$7,$8,$9,0*
20,1,$1+$1,$8,$9,$2,$3,0*%
G04 Aperture macros list end*
%ADD10C,0.150000*%
%ADD11C,1.600000*%
%ADD12C,2.000000*%
%ADD13RoundRect,0.250000X-0.550000X-0.550000X0.550000X-0.550000X0.550000X0.550000X-0.550000X0.550000X0*%
%ADD14C,2.200000*%
%ADD15RoundRect,0.250001X-0.949999X-0.949999X0.949999X-0.949999X0.949999X0.949999X-0.949999X0.949999X0*%
%ADD16C,2.400000*%
%ADD17R,1.700000X1.700000*%
%ADD18C,1.700000*%
%ADD19R,1.500000X1.500000*%
%ADD20C,1.500000*%
%ADD21R,1.400000X1.400000*%
%ADD22C,1.400000*%
G04 APERTURE END LIST*
D10*
X56028571Y-102522295D02*
X56028571Y-103093723D01*
X56028571Y-103093723D02*
X56066666Y-103208009D01*
X56066666Y-103208009D02*
X56142857Y-103284200D01*
X56142857Y-103284200D02*
X56257142Y-103322295D01*
X56257142Y-103322295D02*
X56333333Y-103322295D01*
X55228571Y-103322295D02*
X55685714Y-103322295D01*
X55457142Y-103322295D02*
X55457142Y-102522295D01*
X55457142Y-102522295D02*
X55533333Y-102636580D01*
X55533333Y-102636580D02*
X55609523Y-102712771D01*
X55609523Y-102712771D02*
X55685714Y-102750866D01*
X54733332Y-102522295D02*
X54657142Y-102522295D01*
X54657142Y-102522295D02*
X54580951Y-102560390D01*
X54580951Y-102560390D02*
X54542856Y-102598485D01*
X54542856Y-102598485D02*
X54504761Y-102674676D01*
X54504761Y-102674676D02*
X54466666Y-102827057D01*
X54466666Y-102827057D02*
X54466666Y-103017533D01*
X54466666Y-103017533D02*
X54504761Y-103169914D01*
X54504761Y-103169914D02*
X54542856Y-103246104D01*
X54542856Y-103246104D02*
X54580951Y-103284200D01*
X54580951Y-103284200D02*
X54657142Y-103322295D01*
X54657142Y-103322295D02*
X54733332Y-103322295D01*
X54733332Y-103322295D02*
X54809523Y-103284200D01*
X54809523Y-103284200D02*
X54847618Y-103246104D01*
X54847618Y-103246104D02*
X54885713Y-103169914D01*
X54885713Y-103169914D02*
X54923809Y-103017533D01*
X54923809Y-103017533D02*
X54923809Y-102827057D01*
X54923809Y-102827057D02*
X54885713Y-102674676D01*
X54885713Y-102674676D02*
X54847618Y-102598485D01*
X54847618Y-102598485D02*
X54809523Y-102560390D01*
X54809523Y-102560390D02*
X54733332Y-102522295D01*
X53704761Y-103322295D02*
X54161904Y-103322295D01*
X53933332Y-103322295D02*
X53933332Y-102522295D01*
X53933332Y-102522295D02*
X54009523Y-102636580D01*
X54009523Y-102636580D02*
X54085713Y-102712771D01*
X54085713Y-102712771D02*
X54161904Y-102750866D01*
X103747617Y-91862295D02*
X103747617Y-91062295D01*
X103366665Y-91862295D02*
X103366665Y-91062295D01*
X103366665Y-91062295D02*
X102909522Y-91862295D01*
X102909522Y-91862295D02*
X102909522Y-91062295D01*
X102528570Y-91443247D02*
X101919047Y-91443247D01*
X101919047Y-91671819D02*
X102528570Y-91671819D01*
X101538094Y-91862295D02*
X101538094Y-91062295D01*
X101157142Y-91862295D02*
X101157142Y-91062295D01*
X101157142Y-91062295D02*
X100699999Y-91862295D01*
X100699999Y-91862295D02*
X100699999Y-91062295D01*
X100433333Y-91062295D02*
X99976190Y-91062295D01*
X100204762Y-91862295D02*
X100204762Y-91062295D01*
X99557142Y-91062295D02*
X99404761Y-91062295D01*
X99404761Y-91062295D02*
X99328571Y-91100390D01*
X99328571Y-91100390D02*
X99252380Y-91176580D01*
X99252380Y-91176580D02*
X99214285Y-91328961D01*
X99214285Y-91328961D02*
X99214285Y-91595628D01*
X99214285Y-91595628D02*
X99252380Y-91748009D01*
X99252380Y-91748009D02*
X99328571Y-91824200D01*
X99328571Y-91824200D02*
X99404761Y-91862295D01*
X99404761Y-91862295D02*
X99557142Y-91862295D01*
X99557142Y-91862295D02*
X99633333Y-91824200D01*
X99633333Y-91824200D02*
X99709523Y-91748009D01*
X99709523Y-91748009D02*
X99747619Y-91595628D01*
X99747619Y-91595628D02*
X99747619Y-91328961D01*
X99747619Y-91328961D02*
X99709523Y-91176580D01*
X99709523Y-91176580D02*
X99633333Y-91100390D01*
X99633333Y-91100390D02*
X99557142Y-91062295D01*
X135823809Y-72274340D02*
X135823809Y-72845768D01*
X135823809Y-72845768D02*
X135861904Y-72960054D01*
X135861904Y-72960054D02*
X135938095Y-73036245D01*
X135938095Y-73036245D02*
X136052380Y-73074340D01*
X136052380Y-73074340D02*
X136128571Y-73074340D01*
X135099999Y-72274340D02*
X135252380Y-72274340D01*
X135252380Y-72274340D02*
X135328571Y-72312435D01*
X135328571Y-72312435D02*
X135366666Y-72350530D01*
X135366666Y-72350530D02*
X135442856Y-72464816D01*
X135442856Y-72464816D02*
X135480952Y-72617197D01*
X135480952Y-72617197D02*
X135480952Y-72921959D01*
X135480952Y-72921959D02*
X135442856Y-72998149D01*
X135442856Y-72998149D02*
X135404761Y-73036245D01*
X135404761Y-73036245D02*
X135328571Y-73074340D01*
X135328571Y-73074340D02*
X135176190Y-73074340D01*
X135176190Y-73074340D02*
X135099999Y-73036245D01*
X135099999Y-73036245D02*
X135061904Y-72998149D01*
X135061904Y-72998149D02*
X135023809Y-72921959D01*
X135023809Y-72921959D02*
X135023809Y-72731483D01*
X135023809Y-72731483D02*
X135061904Y-72655292D01*
X135061904Y-72655292D02*
X135099999Y-72617197D01*
X135099999Y-72617197D02*
X135176190Y-72579102D01*
X135176190Y-72579102D02*
X135328571Y-72579102D01*
X135328571Y-72579102D02*
X135404761Y-72617197D01*
X135404761Y-72617197D02*
X135442856Y-72655292D01*
X135442856Y-72655292D02*
X135480952Y-72731483D01*
X134528570Y-72274340D02*
X134452380Y-72274340D01*
X134452380Y-72274340D02*
X134376189Y-72312435D01*
X134376189Y-72312435D02*
X134338094Y-72350530D01*
X134338094Y-72350530D02*
X134299999Y-72426721D01*
X134299999Y-72426721D02*
X134261904Y-72579102D01*
X134261904Y-72579102D02*
X134261904Y-72769578D01*
X134261904Y-72769578D02*
X134299999Y-72921959D01*
X134299999Y-72921959D02*
X134338094Y-72998149D01*
X134338094Y-72998149D02*
X134376189Y-73036245D01*
X134376189Y-73036245D02*
X134452380Y-73074340D01*
X134452380Y-73074340D02*
X134528570Y-73074340D01*
X134528570Y-73074340D02*
X134604761Y-73036245D01*
X134604761Y-73036245D02*
X134642856Y-72998149D01*
X134642856Y-72998149D02*
X134680951Y-72921959D01*
X134680951Y-72921959D02*
X134719047Y-72769578D01*
X134719047Y-72769578D02*
X134719047Y-72579102D01*
X134719047Y-72579102D02*
X134680951Y-72426721D01*
X134680951Y-72426721D02*
X134642856Y-72350530D01*
X134642856Y-72350530D02*
X134604761Y-72312435D01*
X134604761Y-72312435D02*
X134528570Y-72274340D01*
X133957142Y-72350530D02*
X133919046Y-72312435D01*
X133919046Y-72312435D02*
X133842856Y-72274340D01*
X133842856Y-72274340D02*
X133652380Y-72274340D01*
X133652380Y-72274340D02*
X133576189Y-72312435D01*
X133576189Y-72312435D02*
X133538094Y-72350530D01*
X133538094Y-72350530D02*
X133499999Y-72426721D01*
X133499999Y-72426721D02*
X133499999Y-72502911D01*
X133499999Y-72502911D02*
X133538094Y-72617197D01*
X133538094Y-72617197D02*
X133995237Y-73074340D01*
X133995237Y-73074340D02*
X133499999Y-73074340D01*
X132547617Y-73074340D02*
X132547617Y-72274340D01*
X132547617Y-72655292D02*
X132090474Y-72655292D01*
X132090474Y-73074340D02*
X132090474Y-72274340D01*
X131709522Y-72655292D02*
X131442856Y-72655292D01*
X131328570Y-73074340D02*
X131709522Y-73074340D01*
X131709522Y-73074340D02*
X131709522Y-72274340D01*
X131709522Y-72274340D02*
X131328570Y-72274340D01*
X131023808Y-72845768D02*
X130642855Y-72845768D01*
X131099998Y-73074340D02*
X130833331Y-72274340D01*
X130833331Y-72274340D02*
X130566665Y-73074340D01*
X130299998Y-73074340D02*
X130299998Y-72274340D01*
X130299998Y-72274340D02*
X130109522Y-72274340D01*
X130109522Y-72274340D02*
X129995236Y-72312435D01*
X129995236Y-72312435D02*
X129919046Y-72388625D01*
X129919046Y-72388625D02*
X129880951Y-72464816D01*
X129880951Y-72464816D02*
X129842855Y-72617197D01*
X129842855Y-72617197D02*
X129842855Y-72731483D01*
X129842855Y-72731483D02*
X129880951Y-72883864D01*
X129880951Y-72883864D02*
X129919046Y-72960054D01*
X129919046Y-72960054D02*
X129995236Y-73036245D01*
X129995236Y-73036245D02*
X130109522Y-73074340D01*
X130109522Y-73074340D02*
X130299998Y-73074340D01*
X129499998Y-73074340D02*
X129499998Y-72274340D01*
X129499998Y-72274340D02*
X129195236Y-72274340D01*
X129195236Y-72274340D02*
X129119046Y-72312435D01*
X129119046Y-72312435D02*
X129080951Y-72350530D01*
X129080951Y-72350530D02*
X129042855Y-72426721D01*
X129042855Y-72426721D02*
X129042855Y-72541006D01*
X129042855Y-72541006D02*
X129080951Y-72617197D01*
X129080951Y-72617197D02*
X129119046Y-72655292D01*
X129119046Y-72655292D02*
X129195236Y-72693387D01*
X129195236Y-72693387D02*
X129499998Y-72693387D01*
X128699998Y-73074340D02*
X128699998Y-72274340D01*
X128699998Y-72655292D02*
X128242855Y-72655292D01*
X128242855Y-73074340D02*
X128242855Y-72274340D01*
X127709522Y-72274340D02*
X127557141Y-72274340D01*
X127557141Y-72274340D02*
X127480951Y-72312435D01*
X127480951Y-72312435D02*
X127404760Y-72388625D01*
X127404760Y-72388625D02*
X127366665Y-72541006D01*
X127366665Y-72541006D02*
X127366665Y-72807673D01*
X127366665Y-72807673D02*
X127404760Y-72960054D01*
X127404760Y-72960054D02*
X127480951Y-73036245D01*
X127480951Y-73036245D02*
X127557141Y-73074340D01*
X127557141Y-73074340D02*
X127709522Y-73074340D01*
X127709522Y-73074340D02*
X127785713Y-73036245D01*
X127785713Y-73036245D02*
X127861903Y-72960054D01*
X127861903Y-72960054D02*
X127899999Y-72807673D01*
X127899999Y-72807673D02*
X127899999Y-72541006D01*
X127899999Y-72541006D02*
X127861903Y-72388625D01*
X127861903Y-72388625D02*
X127785713Y-72312435D01*
X127785713Y-72312435D02*
X127709522Y-72274340D01*
X127023808Y-73074340D02*
X127023808Y-72274340D01*
X127023808Y-72274340D02*
X126566665Y-73074340D01*
X126566665Y-73074340D02*
X126566665Y-72274340D01*
X126185713Y-72655292D02*
X125919047Y-72655292D01*
X125804761Y-73074340D02*
X126185713Y-73074340D01*
X126185713Y-73074340D02*
X126185713Y-72274340D01*
X126185713Y-72274340D02*
X125804761Y-72274340D01*
X124699998Y-72274340D02*
X124547617Y-72274340D01*
X124547617Y-72274340D02*
X124471427Y-72312435D01*
X124471427Y-72312435D02*
X124395236Y-72388625D01*
X124395236Y-72388625D02*
X124357141Y-72541006D01*
X124357141Y-72541006D02*
X124357141Y-72807673D01*
X124357141Y-72807673D02*
X124395236Y-72960054D01*
X124395236Y-72960054D02*
X124471427Y-73036245D01*
X124471427Y-73036245D02*
X124547617Y-73074340D01*
X124547617Y-73074340D02*
X124699998Y-73074340D01*
X124699998Y-73074340D02*
X124776189Y-73036245D01*
X124776189Y-73036245D02*
X124852379Y-72960054D01*
X124852379Y-72960054D02*
X124890475Y-72807673D01*
X124890475Y-72807673D02*
X124890475Y-72541006D01*
X124890475Y-72541006D02*
X124852379Y-72388625D01*
X124852379Y-72388625D02*
X124776189Y-72312435D01*
X124776189Y-72312435D02*
X124699998Y-72274340D01*
X124014284Y-72274340D02*
X124014284Y-72921959D01*
X124014284Y-72921959D02*
X123976189Y-72998149D01*
X123976189Y-72998149D02*
X123938094Y-73036245D01*
X123938094Y-73036245D02*
X123861903Y-73074340D01*
X123861903Y-73074340D02*
X123709522Y-73074340D01*
X123709522Y-73074340D02*
X123633332Y-73036245D01*
X123633332Y-73036245D02*
X123595237Y-72998149D01*
X123595237Y-72998149D02*
X123557141Y-72921959D01*
X123557141Y-72921959D02*
X123557141Y-72274340D01*
X123290475Y-72274340D02*
X122833332Y-72274340D01*
X123061904Y-73074340D02*
X123061904Y-72274340D01*
X136814286Y-74362295D02*
X137271429Y-74362295D01*
X137042857Y-74362295D02*
X137042857Y-73562295D01*
X137042857Y-73562295D02*
X137119048Y-73676580D01*
X137119048Y-73676580D02*
X137195238Y-73752771D01*
X137195238Y-73752771D02*
X137271429Y-73790866D01*
X135480952Y-74362295D02*
X135861904Y-74362295D01*
X135861904Y-74362295D02*
X135861904Y-73562295D01*
X135214285Y-73943247D02*
X134947619Y-73943247D01*
X134833333Y-74362295D02*
X135214285Y-74362295D01*
X135214285Y-74362295D02*
X135214285Y-73562295D01*
X135214285Y-73562295D02*
X134833333Y-73562295D01*
X134223809Y-73943247D02*
X134490475Y-73943247D01*
X134490475Y-74362295D02*
X134490475Y-73562295D01*
X134490475Y-73562295D02*
X134109523Y-73562295D01*
X133919047Y-73562295D02*
X133461904Y-73562295D01*
X133690476Y-74362295D02*
X133690476Y-73562295D01*
X132433332Y-73562295D02*
X132280951Y-73562295D01*
X132280951Y-73562295D02*
X132204761Y-73600390D01*
X132204761Y-73600390D02*
X132128570Y-73676580D01*
X132128570Y-73676580D02*
X132090475Y-73828961D01*
X132090475Y-73828961D02*
X132090475Y-74095628D01*
X132090475Y-74095628D02*
X132128570Y-74248009D01*
X132128570Y-74248009D02*
X132204761Y-74324200D01*
X132204761Y-74324200D02*
X132280951Y-74362295D01*
X132280951Y-74362295D02*
X132433332Y-74362295D01*
X132433332Y-74362295D02*
X132509523Y-74324200D01*
X132509523Y-74324200D02*
X132585713Y-74248009D01*
X132585713Y-74248009D02*
X132623809Y-74095628D01*
X132623809Y-74095628D02*
X132623809Y-73828961D01*
X132623809Y-73828961D02*
X132585713Y-73676580D01*
X132585713Y-73676580D02*
X132509523Y-73600390D01*
X132509523Y-73600390D02*
X132433332Y-73562295D01*
X131747618Y-73562295D02*
X131747618Y-74209914D01*
X131747618Y-74209914D02*
X131709523Y-74286104D01*
X131709523Y-74286104D02*
X131671428Y-74324200D01*
X131671428Y-74324200D02*
X131595237Y-74362295D01*
X131595237Y-74362295D02*
X131442856Y-74362295D01*
X131442856Y-74362295D02*
X131366666Y-74324200D01*
X131366666Y-74324200D02*
X131328571Y-74286104D01*
X131328571Y-74286104D02*
X131290475Y-74209914D01*
X131290475Y-74209914D02*
X131290475Y-73562295D01*
X131023809Y-73562295D02*
X130566666Y-73562295D01*
X130795238Y-74362295D02*
X130795238Y-73562295D01*
X129119047Y-73638485D02*
X129080951Y-73600390D01*
X129080951Y-73600390D02*
X129004761Y-73562295D01*
X129004761Y-73562295D02*
X128814285Y-73562295D01*
X128814285Y-73562295D02*
X128738094Y-73600390D01*
X128738094Y-73600390D02*
X128699999Y-73638485D01*
X128699999Y-73638485D02*
X128661904Y-73714676D01*
X128661904Y-73714676D02*
X128661904Y-73790866D01*
X128661904Y-73790866D02*
X128699999Y-73905152D01*
X128699999Y-73905152D02*
X129157142Y-74362295D01*
X129157142Y-74362295D02*
X128661904Y-74362295D01*
X127252379Y-74362295D02*
X127519046Y-73981342D01*
X127709522Y-74362295D02*
X127709522Y-73562295D01*
X127709522Y-73562295D02*
X127404760Y-73562295D01*
X127404760Y-73562295D02*
X127328570Y-73600390D01*
X127328570Y-73600390D02*
X127290475Y-73638485D01*
X127290475Y-73638485D02*
X127252379Y-73714676D01*
X127252379Y-73714676D02*
X127252379Y-73828961D01*
X127252379Y-73828961D02*
X127290475Y-73905152D01*
X127290475Y-73905152D02*
X127328570Y-73943247D01*
X127328570Y-73943247D02*
X127404760Y-73981342D01*
X127404760Y-73981342D02*
X127709522Y-73981342D01*
X126909522Y-74362295D02*
X126909522Y-73562295D01*
X126109523Y-73600390D02*
X126185713Y-73562295D01*
X126185713Y-73562295D02*
X126299999Y-73562295D01*
X126299999Y-73562295D02*
X126414285Y-73600390D01*
X126414285Y-73600390D02*
X126490475Y-73676580D01*
X126490475Y-73676580D02*
X126528570Y-73752771D01*
X126528570Y-73752771D02*
X126566666Y-73905152D01*
X126566666Y-73905152D02*
X126566666Y-74019438D01*
X126566666Y-74019438D02*
X126528570Y-74171819D01*
X126528570Y-74171819D02*
X126490475Y-74248009D01*
X126490475Y-74248009D02*
X126414285Y-74324200D01*
X126414285Y-74324200D02*
X126299999Y-74362295D01*
X126299999Y-74362295D02*
X126223808Y-74362295D01*
X126223808Y-74362295D02*
X126109523Y-74324200D01*
X126109523Y-74324200D02*
X126071427Y-74286104D01*
X126071427Y-74286104D02*
X126071427Y-74019438D01*
X126071427Y-74019438D02*
X126223808Y-74019438D01*
X125728570Y-74362295D02*
X125728570Y-73562295D01*
X125728570Y-73943247D02*
X125271427Y-73943247D01*
X125271427Y-74362295D02*
X125271427Y-73562295D01*
X125004761Y-73562295D02*
X124547618Y-73562295D01*
X124776190Y-74362295D02*
X124776190Y-73562295D01*
X123519046Y-73562295D02*
X123366665Y-73562295D01*
X123366665Y-73562295D02*
X123290475Y-73600390D01*
X123290475Y-73600390D02*
X123214284Y-73676580D01*
X123214284Y-73676580D02*
X123176189Y-73828961D01*
X123176189Y-73828961D02*
X123176189Y-74095628D01*
X123176189Y-74095628D02*
X123214284Y-74248009D01*
X123214284Y-74248009D02*
X123290475Y-74324200D01*
X123290475Y-74324200D02*
X123366665Y-74362295D01*
X123366665Y-74362295D02*
X123519046Y-74362295D01*
X123519046Y-74362295D02*
X123595237Y-74324200D01*
X123595237Y-74324200D02*
X123671427Y-74248009D01*
X123671427Y-74248009D02*
X123709523Y-74095628D01*
X123709523Y-74095628D02*
X123709523Y-73828961D01*
X123709523Y-73828961D02*
X123671427Y-73676580D01*
X123671427Y-73676580D02*
X123595237Y-73600390D01*
X123595237Y-73600390D02*
X123519046Y-73562295D01*
X122833332Y-73562295D02*
X122833332Y-74209914D01*
X122833332Y-74209914D02*
X122795237Y-74286104D01*
X122795237Y-74286104D02*
X122757142Y-74324200D01*
X122757142Y-74324200D02*
X122680951Y-74362295D01*
X122680951Y-74362295D02*
X122528570Y-74362295D01*
X122528570Y-74362295D02*
X122452380Y-74324200D01*
X122452380Y-74324200D02*
X122414285Y-74286104D01*
X122414285Y-74286104D02*
X122376189Y-74209914D01*
X122376189Y-74209914D02*
X122376189Y-73562295D01*
X122109523Y-73562295D02*
X121652380Y-73562295D01*
X121880952Y-74362295D02*
X121880952Y-73562295D01*
X132319047Y-74850250D02*
X131823809Y-74850250D01*
X131823809Y-74850250D02*
X132090475Y-75155012D01*
X132090475Y-75155012D02*
X131976190Y-75155012D01*
X131976190Y-75155012D02*
X131899999Y-75193107D01*
X131899999Y-75193107D02*
X131861904Y-75231202D01*
X131861904Y-75231202D02*
X131823809Y-75307393D01*
X131823809Y-75307393D02*
X131823809Y-75497869D01*
X131823809Y-75497869D02*
X131861904Y-75574059D01*
X131861904Y-75574059D02*
X131899999Y-75612155D01*
X131899999Y-75612155D02*
X131976190Y-75650250D01*
X131976190Y-75650250D02*
X132204761Y-75650250D01*
X132204761Y-75650250D02*
X132280952Y-75612155D01*
X132280952Y-75612155D02*
X132319047Y-75574059D01*
X130452380Y-74888345D02*
X130528570Y-74850250D01*
X130528570Y-74850250D02*
X130642856Y-74850250D01*
X130642856Y-74850250D02*
X130757142Y-74888345D01*
X130757142Y-74888345D02*
X130833332Y-74964535D01*
X130833332Y-74964535D02*
X130871427Y-75040726D01*
X130871427Y-75040726D02*
X130909523Y-75193107D01*
X130909523Y-75193107D02*
X130909523Y-75307393D01*
X130909523Y-75307393D02*
X130871427Y-75459774D01*
X130871427Y-75459774D02*
X130833332Y-75535964D01*
X130833332Y-75535964D02*
X130757142Y-75612155D01*
X130757142Y-75612155D02*
X130642856Y-75650250D01*
X130642856Y-75650250D02*
X130566665Y-75650250D01*
X130566665Y-75650250D02*
X130452380Y-75612155D01*
X130452380Y-75612155D02*
X130414284Y-75574059D01*
X130414284Y-75574059D02*
X130414284Y-75307393D01*
X130414284Y-75307393D02*
X130566665Y-75307393D01*
X130071427Y-75650250D02*
X130071427Y-74850250D01*
X130071427Y-74850250D02*
X129614284Y-75650250D01*
X129614284Y-75650250D02*
X129614284Y-74850250D01*
X129233332Y-75650250D02*
X129233332Y-74850250D01*
X129233332Y-74850250D02*
X129042856Y-74850250D01*
X129042856Y-74850250D02*
X128928570Y-74888345D01*
X128928570Y-74888345D02*
X128852380Y-74964535D01*
X128852380Y-74964535D02*
X128814285Y-75040726D01*
X128814285Y-75040726D02*
X128776189Y-75193107D01*
X128776189Y-75193107D02*
X128776189Y-75307393D01*
X128776189Y-75307393D02*
X128814285Y-75459774D01*
X128814285Y-75459774D02*
X128852380Y-75535964D01*
X128852380Y-75535964D02*
X128928570Y-75612155D01*
X128928570Y-75612155D02*
X129042856Y-75650250D01*
X129042856Y-75650250D02*
X129233332Y-75650250D01*
X127671427Y-74850250D02*
X127595237Y-74850250D01*
X127595237Y-74850250D02*
X127519046Y-74888345D01*
X127519046Y-74888345D02*
X127480951Y-74926440D01*
X127480951Y-74926440D02*
X127442856Y-75002631D01*
X127442856Y-75002631D02*
X127404761Y-75155012D01*
X127404761Y-75155012D02*
X127404761Y-75345488D01*
X127404761Y-75345488D02*
X127442856Y-75497869D01*
X127442856Y-75497869D02*
X127480951Y-75574059D01*
X127480951Y-75574059D02*
X127519046Y-75612155D01*
X127519046Y-75612155D02*
X127595237Y-75650250D01*
X127595237Y-75650250D02*
X127671427Y-75650250D01*
X127671427Y-75650250D02*
X127747618Y-75612155D01*
X127747618Y-75612155D02*
X127785713Y-75574059D01*
X127785713Y-75574059D02*
X127823808Y-75497869D01*
X127823808Y-75497869D02*
X127861904Y-75345488D01*
X127861904Y-75345488D02*
X127861904Y-75155012D01*
X127861904Y-75155012D02*
X127823808Y-75002631D01*
X127823808Y-75002631D02*
X127785713Y-74926440D01*
X127785713Y-74926440D02*
X127747618Y-74888345D01*
X127747618Y-74888345D02*
X127671427Y-74850250D01*
X127176189Y-74850250D02*
X126909522Y-75650250D01*
X126909522Y-75650250D02*
X126642856Y-74850250D01*
X56966666Y-110102295D02*
X56471428Y-110102295D01*
X56471428Y-110102295D02*
X56738094Y-110407057D01*
X56738094Y-110407057D02*
X56623809Y-110407057D01*
X56623809Y-110407057D02*
X56547618Y-110445152D01*
X56547618Y-110445152D02*
X56509523Y-110483247D01*
X56509523Y-110483247D02*
X56471428Y-110559438D01*
X56471428Y-110559438D02*
X56471428Y-110749914D01*
X56471428Y-110749914D02*
X56509523Y-110826104D01*
X56509523Y-110826104D02*
X56547618Y-110864200D01*
X56547618Y-110864200D02*
X56623809Y-110902295D01*
X56623809Y-110902295D02*
X56852380Y-110902295D01*
X56852380Y-110902295D02*
X56928571Y-110864200D01*
X56928571Y-110864200D02*
X56966666Y-110826104D01*
X141028571Y-68522295D02*
X141028571Y-69093723D01*
X141028571Y-69093723D02*
X141066666Y-69208009D01*
X141066666Y-69208009D02*
X141142857Y-69284200D01*
X141142857Y-69284200D02*
X141257142Y-69322295D01*
X141257142Y-69322295D02*
X141333333Y-69322295D01*
X140304761Y-68522295D02*
X140457142Y-68522295D01*
X140457142Y-68522295D02*
X140533333Y-68560390D01*
X140533333Y-68560390D02*
X140571428Y-68598485D01*
X140571428Y-68598485D02*
X140647618Y-68712771D01*
X140647618Y-68712771D02*
X140685714Y-68865152D01*
X140685714Y-68865152D02*
X140685714Y-69169914D01*
X140685714Y-69169914D02*
X140647618Y-69246104D01*
X140647618Y-69246104D02*
X140609523Y-69284200D01*
X140609523Y-69284200D02*
X140533333Y-69322295D01*
X140533333Y-69322295D02*
X140380952Y-69322295D01*
X140380952Y-69322295D02*
X140304761Y-69284200D01*
X140304761Y-69284200D02*
X140266666Y-69246104D01*
X140266666Y-69246104D02*
X140228571Y-69169914D01*
X140228571Y-69169914D02*
X140228571Y-68979438D01*
X140228571Y-68979438D02*
X140266666Y-68903247D01*
X140266666Y-68903247D02*
X140304761Y-68865152D01*
X140304761Y-68865152D02*
X140380952Y-68827057D01*
X140380952Y-68827057D02*
X140533333Y-68827057D01*
X140533333Y-68827057D02*
X140609523Y-68865152D01*
X140609523Y-68865152D02*
X140647618Y-68903247D01*
X140647618Y-68903247D02*
X140685714Y-68979438D01*
X139733332Y-68522295D02*
X139657142Y-68522295D01*
X139657142Y-68522295D02*
X139580951Y-68560390D01*
X139580951Y-68560390D02*
X139542856Y-68598485D01*
X139542856Y-68598485D02*
X139504761Y-68674676D01*
X139504761Y-68674676D02*
X139466666Y-68827057D01*
X139466666Y-68827057D02*
X139466666Y-69017533D01*
X139466666Y-69017533D02*
X139504761Y-69169914D01*
X139504761Y-69169914D02*
X139542856Y-69246104D01*
X139542856Y-69246104D02*
X139580951Y-69284200D01*
X139580951Y-69284200D02*
X139657142Y-69322295D01*
X139657142Y-69322295D02*
X139733332Y-69322295D01*
X139733332Y-69322295D02*
X139809523Y-69284200D01*
X139809523Y-69284200D02*
X139847618Y-69246104D01*
X139847618Y-69246104D02*
X139885713Y-69169914D01*
X139885713Y-69169914D02*
X139923809Y-69017533D01*
X139923809Y-69017533D02*
X139923809Y-68827057D01*
X139923809Y-68827057D02*
X139885713Y-68674676D01*
X139885713Y-68674676D02*
X139847618Y-68598485D01*
X139847618Y-68598485D02*
X139809523Y-68560390D01*
X139809523Y-68560390D02*
X139733332Y-68522295D01*
X139161904Y-68598485D02*
X139123808Y-68560390D01*
X139123808Y-68560390D02*
X139047618Y-68522295D01*
X139047618Y-68522295D02*
X138857142Y-68522295D01*
X138857142Y-68522295D02*
X138780951Y-68560390D01*
X138780951Y-68560390D02*
X138742856Y-68598485D01*
X138742856Y-68598485D02*
X138704761Y-68674676D01*
X138704761Y-68674676D02*
X138704761Y-68750866D01*
X138704761Y-68750866D02*
X138742856Y-68865152D01*
X138742856Y-68865152D02*
X139199999Y-69322295D01*
X139199999Y-69322295D02*
X138704761Y-69322295D01*
X105566666Y-92918318D02*
X105566666Y-93565937D01*
X105566666Y-93565937D02*
X105528571Y-93642127D01*
X105528571Y-93642127D02*
X105490476Y-93680223D01*
X105490476Y-93680223D02*
X105414285Y-93718318D01*
X105414285Y-93718318D02*
X105261904Y-93718318D01*
X105261904Y-93718318D02*
X105185714Y-93680223D01*
X105185714Y-93680223D02*
X105147619Y-93642127D01*
X105147619Y-93642127D02*
X105109523Y-93565937D01*
X105109523Y-93565937D02*
X105109523Y-92918318D01*
X104385714Y-92918318D02*
X104538095Y-92918318D01*
X104538095Y-92918318D02*
X104614286Y-92956413D01*
X104614286Y-92956413D02*
X104652381Y-92994508D01*
X104652381Y-92994508D02*
X104728571Y-93108794D01*
X104728571Y-93108794D02*
X104766667Y-93261175D01*
X104766667Y-93261175D02*
X104766667Y-93565937D01*
X104766667Y-93565937D02*
X104728571Y-93642127D01*
X104728571Y-93642127D02*
X104690476Y-93680223D01*
X104690476Y-93680223D02*
X104614286Y-93718318D01*
X104614286Y-93718318D02*
X104461905Y-93718318D01*
X104461905Y-93718318D02*
X104385714Y-93680223D01*
X104385714Y-93680223D02*
X104347619Y-93642127D01*
X104347619Y-93642127D02*
X104309524Y-93565937D01*
X104309524Y-93565937D02*
X104309524Y-93375461D01*
X104309524Y-93375461D02*
X104347619Y-93299270D01*
X104347619Y-93299270D02*
X104385714Y-93261175D01*
X104385714Y-93261175D02*
X104461905Y-93223080D01*
X104461905Y-93223080D02*
X104614286Y-93223080D01*
X104614286Y-93223080D02*
X104690476Y-93261175D01*
X104690476Y-93261175D02*
X104728571Y-93299270D01*
X104728571Y-93299270D02*
X104766667Y-93375461D01*
X103814285Y-92918318D02*
X103738095Y-92918318D01*
X103738095Y-92918318D02*
X103661904Y-92956413D01*
X103661904Y-92956413D02*
X103623809Y-92994508D01*
X103623809Y-92994508D02*
X103585714Y-93070699D01*
X103585714Y-93070699D02*
X103547619Y-93223080D01*
X103547619Y-93223080D02*
X103547619Y-93413556D01*
X103547619Y-93413556D02*
X103585714Y-93565937D01*
X103585714Y-93565937D02*
X103623809Y-93642127D01*
X103623809Y-93642127D02*
X103661904Y-93680223D01*
X103661904Y-93680223D02*
X103738095Y-93718318D01*
X103738095Y-93718318D02*
X103814285Y-93718318D01*
X103814285Y-93718318D02*
X103890476Y-93680223D01*
X103890476Y-93680223D02*
X103928571Y-93642127D01*
X103928571Y-93642127D02*
X103966666Y-93565937D01*
X103966666Y-93565937D02*
X104004762Y-93413556D01*
X104004762Y-93413556D02*
X104004762Y-93223080D01*
X104004762Y-93223080D02*
X103966666Y-93070699D01*
X103966666Y-93070699D02*
X103928571Y-92994508D01*
X103928571Y-92994508D02*
X103890476Y-92956413D01*
X103890476Y-92956413D02*
X103814285Y-92918318D01*
X103242857Y-92994508D02*
X103204761Y-92956413D01*
X103204761Y-92956413D02*
X103128571Y-92918318D01*
X103128571Y-92918318D02*
X102938095Y-92918318D01*
X102938095Y-92918318D02*
X102861904Y-92956413D01*
X102861904Y-92956413D02*
X102823809Y-92994508D01*
X102823809Y-92994508D02*
X102785714Y-93070699D01*
X102785714Y-93070699D02*
X102785714Y-93146889D01*
X102785714Y-93146889D02*
X102823809Y-93261175D01*
X102823809Y-93261175D02*
X103280952Y-93718318D01*
X103280952Y-93718318D02*
X102785714Y-93718318D01*
X102442856Y-93642127D02*
X102404761Y-93680223D01*
X102404761Y-93680223D02*
X102442856Y-93718318D01*
X102442856Y-93718318D02*
X102480952Y-93680223D01*
X102480952Y-93680223D02*
X102442856Y-93642127D01*
X102442856Y-93642127D02*
X102442856Y-93718318D01*
X101947619Y-93261175D02*
X102023809Y-93223080D01*
X102023809Y-93223080D02*
X102061904Y-93184984D01*
X102061904Y-93184984D02*
X102100000Y-93108794D01*
X102100000Y-93108794D02*
X102100000Y-93070699D01*
X102100000Y-93070699D02*
X102061904Y-92994508D01*
X102061904Y-92994508D02*
X102023809Y-92956413D01*
X102023809Y-92956413D02*
X101947619Y-92918318D01*
X101947619Y-92918318D02*
X101795238Y-92918318D01*
X101795238Y-92918318D02*
X101719047Y-92956413D01*
X101719047Y-92956413D02*
X101680952Y-92994508D01*
X101680952Y-92994508D02*
X101642857Y-93070699D01*
X101642857Y-93070699D02*
X101642857Y-93108794D01*
X101642857Y-93108794D02*
X101680952Y-93184984D01*
X101680952Y-93184984D02*
X101719047Y-93223080D01*
X101719047Y-93223080D02*
X101795238Y-93261175D01*
X101795238Y-93261175D02*
X101947619Y-93261175D01*
X101947619Y-93261175D02*
X102023809Y-93299270D01*
X102023809Y-93299270D02*
X102061904Y-93337365D01*
X102061904Y-93337365D02*
X102100000Y-93413556D01*
X102100000Y-93413556D02*
X102100000Y-93565937D01*
X102100000Y-93565937D02*
X102061904Y-93642127D01*
X102061904Y-93642127D02*
X102023809Y-93680223D01*
X102023809Y-93680223D02*
X101947619Y-93718318D01*
X101947619Y-93718318D02*
X101795238Y-93718318D01*
X101795238Y-93718318D02*
X101719047Y-93680223D01*
X101719047Y-93680223D02*
X101680952Y-93642127D01*
X101680952Y-93642127D02*
X101642857Y-93565937D01*
X101642857Y-93565937D02*
X101642857Y-93413556D01*
X101642857Y-93413556D02*
X101680952Y-93337365D01*
X101680952Y-93337365D02*
X101719047Y-93299270D01*
X101719047Y-93299270D02*
X101795238Y-93261175D01*
X100690475Y-93718318D02*
X100690475Y-92918318D01*
X100690475Y-92918318D02*
X100233332Y-93718318D01*
X100233332Y-93718318D02*
X100233332Y-92918318D01*
X99395237Y-93642127D02*
X99433333Y-93680223D01*
X99433333Y-93680223D02*
X99547618Y-93718318D01*
X99547618Y-93718318D02*
X99623809Y-93718318D01*
X99623809Y-93718318D02*
X99738095Y-93680223D01*
X99738095Y-93680223D02*
X99814285Y-93604032D01*
X99814285Y-93604032D02*
X99852380Y-93527842D01*
X99852380Y-93527842D02*
X99890476Y-93375461D01*
X99890476Y-93375461D02*
X99890476Y-93261175D01*
X99890476Y-93261175D02*
X99852380Y-93108794D01*
X99852380Y-93108794D02*
X99814285Y-93032603D01*
X99814285Y-93032603D02*
X99738095Y-92956413D01*
X99738095Y-92956413D02*
X99623809Y-92918318D01*
X99623809Y-92918318D02*
X99547618Y-92918318D01*
X99547618Y-92918318D02*
X99433333Y-92956413D01*
X99433333Y-92956413D02*
X99395237Y-92994508D01*
X104861904Y-95006273D02*
X104861904Y-94206273D01*
X104861904Y-94206273D02*
X104404761Y-95006273D01*
X104404761Y-95006273D02*
X104404761Y-94206273D01*
X103871428Y-94206273D02*
X103719047Y-94206273D01*
X103719047Y-94206273D02*
X103642857Y-94244368D01*
X103642857Y-94244368D02*
X103566666Y-94320558D01*
X103566666Y-94320558D02*
X103528571Y-94472939D01*
X103528571Y-94472939D02*
X103528571Y-94739606D01*
X103528571Y-94739606D02*
X103566666Y-94891987D01*
X103566666Y-94891987D02*
X103642857Y-94968178D01*
X103642857Y-94968178D02*
X103719047Y-95006273D01*
X103719047Y-95006273D02*
X103871428Y-95006273D01*
X103871428Y-95006273D02*
X103947619Y-94968178D01*
X103947619Y-94968178D02*
X104023809Y-94891987D01*
X104023809Y-94891987D02*
X104061905Y-94739606D01*
X104061905Y-94739606D02*
X104061905Y-94472939D01*
X104061905Y-94472939D02*
X104023809Y-94320558D01*
X104023809Y-94320558D02*
X103947619Y-94244368D01*
X103947619Y-94244368D02*
X103871428Y-94206273D01*
X102652381Y-94206273D02*
X102461905Y-95006273D01*
X102461905Y-95006273D02*
X102309524Y-94434844D01*
X102309524Y-94434844D02*
X102157143Y-95006273D01*
X102157143Y-95006273D02*
X101966667Y-94206273D01*
X101661904Y-95006273D02*
X101661904Y-94206273D01*
X100823809Y-95006273D02*
X101090476Y-94625320D01*
X101280952Y-95006273D02*
X101280952Y-94206273D01*
X101280952Y-94206273D02*
X100976190Y-94206273D01*
X100976190Y-94206273D02*
X100900000Y-94244368D01*
X100900000Y-94244368D02*
X100861905Y-94282463D01*
X100861905Y-94282463D02*
X100823809Y-94358654D01*
X100823809Y-94358654D02*
X100823809Y-94472939D01*
X100823809Y-94472939D02*
X100861905Y-94549130D01*
X100861905Y-94549130D02*
X100900000Y-94587225D01*
X100900000Y-94587225D02*
X100976190Y-94625320D01*
X100976190Y-94625320D02*
X101280952Y-94625320D01*
X100480952Y-94587225D02*
X100214286Y-94587225D01*
X100100000Y-95006273D02*
X100480952Y-95006273D01*
X100480952Y-95006273D02*
X100480952Y-94206273D01*
X100480952Y-94206273D02*
X100100000Y-94206273D01*
X105566666Y-67918318D02*
X105566666Y-68565937D01*
X105566666Y-68565937D02*
X105528571Y-68642127D01*
X105528571Y-68642127D02*
X105490476Y-68680223D01*
X105490476Y-68680223D02*
X105414285Y-68718318D01*
X105414285Y-68718318D02*
X105261904Y-68718318D01*
X105261904Y-68718318D02*
X105185714Y-68680223D01*
X105185714Y-68680223D02*
X105147619Y-68642127D01*
X105147619Y-68642127D02*
X105109523Y-68565937D01*
X105109523Y-68565937D02*
X105109523Y-67918318D01*
X104385714Y-67918318D02*
X104538095Y-67918318D01*
X104538095Y-67918318D02*
X104614286Y-67956413D01*
X104614286Y-67956413D02*
X104652381Y-67994508D01*
X104652381Y-67994508D02*
X104728571Y-68108794D01*
X104728571Y-68108794D02*
X104766667Y-68261175D01*
X104766667Y-68261175D02*
X104766667Y-68565937D01*
X104766667Y-68565937D02*
X104728571Y-68642127D01*
X104728571Y-68642127D02*
X104690476Y-68680223D01*
X104690476Y-68680223D02*
X104614286Y-68718318D01*
X104614286Y-68718318D02*
X104461905Y-68718318D01*
X104461905Y-68718318D02*
X104385714Y-68680223D01*
X104385714Y-68680223D02*
X104347619Y-68642127D01*
X104347619Y-68642127D02*
X104309524Y-68565937D01*
X104309524Y-68565937D02*
X104309524Y-68375461D01*
X104309524Y-68375461D02*
X104347619Y-68299270D01*
X104347619Y-68299270D02*
X104385714Y-68261175D01*
X104385714Y-68261175D02*
X104461905Y-68223080D01*
X104461905Y-68223080D02*
X104614286Y-68223080D01*
X104614286Y-68223080D02*
X104690476Y-68261175D01*
X104690476Y-68261175D02*
X104728571Y-68299270D01*
X104728571Y-68299270D02*
X104766667Y-68375461D01*
X103814285Y-67918318D02*
X103738095Y-67918318D01*
X103738095Y-67918318D02*
X103661904Y-67956413D01*
X103661904Y-67956413D02*
X103623809Y-67994508D01*
X103623809Y-67994508D02*
X103585714Y-68070699D01*
X103585714Y-68070699D02*
X103547619Y-68223080D01*
X103547619Y-68223080D02*
X103547619Y-68413556D01*
X103547619Y-68413556D02*
X103585714Y-68565937D01*
X103585714Y-68565937D02*
X103623809Y-68642127D01*
X103623809Y-68642127D02*
X103661904Y-68680223D01*
X103661904Y-68680223D02*
X103738095Y-68718318D01*
X103738095Y-68718318D02*
X103814285Y-68718318D01*
X103814285Y-68718318D02*
X103890476Y-68680223D01*
X103890476Y-68680223D02*
X103928571Y-68642127D01*
X103928571Y-68642127D02*
X103966666Y-68565937D01*
X103966666Y-68565937D02*
X104004762Y-68413556D01*
X104004762Y-68413556D02*
X104004762Y-68223080D01*
X104004762Y-68223080D02*
X103966666Y-68070699D01*
X103966666Y-68070699D02*
X103928571Y-67994508D01*
X103928571Y-67994508D02*
X103890476Y-67956413D01*
X103890476Y-67956413D02*
X103814285Y-67918318D01*
X102785714Y-68718318D02*
X103242857Y-68718318D01*
X103014285Y-68718318D02*
X103014285Y-67918318D01*
X103014285Y-67918318D02*
X103090476Y-68032603D01*
X103090476Y-68032603D02*
X103166666Y-68108794D01*
X103166666Y-68108794D02*
X103242857Y-68146889D01*
X102442856Y-68642127D02*
X102404761Y-68680223D01*
X102404761Y-68680223D02*
X102442856Y-68718318D01*
X102442856Y-68718318D02*
X102480952Y-68680223D01*
X102480952Y-68680223D02*
X102442856Y-68642127D01*
X102442856Y-68642127D02*
X102442856Y-68718318D01*
X101947619Y-68261175D02*
X102023809Y-68223080D01*
X102023809Y-68223080D02*
X102061904Y-68184984D01*
X102061904Y-68184984D02*
X102100000Y-68108794D01*
X102100000Y-68108794D02*
X102100000Y-68070699D01*
X102100000Y-68070699D02*
X102061904Y-67994508D01*
X102061904Y-67994508D02*
X102023809Y-67956413D01*
X102023809Y-67956413D02*
X101947619Y-67918318D01*
X101947619Y-67918318D02*
X101795238Y-67918318D01*
X101795238Y-67918318D02*
X101719047Y-67956413D01*
X101719047Y-67956413D02*
X101680952Y-67994508D01*
X101680952Y-67994508D02*
X101642857Y-68070699D01*
X101642857Y-68070699D02*
X101642857Y-68108794D01*
X101642857Y-68108794D02*
X101680952Y-68184984D01*
X101680952Y-68184984D02*
X101719047Y-68223080D01*
X101719047Y-68223080D02*
X101795238Y-68261175D01*
X101795238Y-68261175D02*
X101947619Y-68261175D01*
X101947619Y-68261175D02*
X102023809Y-68299270D01*
X102023809Y-68299270D02*
X102061904Y-68337365D01*
X102061904Y-68337365D02*
X102100000Y-68413556D01*
X102100000Y-68413556D02*
X102100000Y-68565937D01*
X102100000Y-68565937D02*
X102061904Y-68642127D01*
X102061904Y-68642127D02*
X102023809Y-68680223D01*
X102023809Y-68680223D02*
X101947619Y-68718318D01*
X101947619Y-68718318D02*
X101795238Y-68718318D01*
X101795238Y-68718318D02*
X101719047Y-68680223D01*
X101719047Y-68680223D02*
X101680952Y-68642127D01*
X101680952Y-68642127D02*
X101642857Y-68565937D01*
X101642857Y-68565937D02*
X101642857Y-68413556D01*
X101642857Y-68413556D02*
X101680952Y-68337365D01*
X101680952Y-68337365D02*
X101719047Y-68299270D01*
X101719047Y-68299270D02*
X101795238Y-68261175D01*
X100690475Y-68718318D02*
X100690475Y-67918318D01*
X100690475Y-67918318D02*
X100233332Y-68718318D01*
X100233332Y-68718318D02*
X100233332Y-67918318D01*
X99395237Y-68642127D02*
X99433333Y-68680223D01*
X99433333Y-68680223D02*
X99547618Y-68718318D01*
X99547618Y-68718318D02*
X99623809Y-68718318D01*
X99623809Y-68718318D02*
X99738095Y-68680223D01*
X99738095Y-68680223D02*
X99814285Y-68604032D01*
X99814285Y-68604032D02*
X99852380Y-68527842D01*
X99852380Y-68527842D02*
X99890476Y-68375461D01*
X99890476Y-68375461D02*
X99890476Y-68261175D01*
X99890476Y-68261175D02*
X99852380Y-68108794D01*
X99852380Y-68108794D02*
X99814285Y-68032603D01*
X99814285Y-68032603D02*
X99738095Y-67956413D01*
X99738095Y-67956413D02*
X99623809Y-67918318D01*
X99623809Y-67918318D02*
X99547618Y-67918318D01*
X99547618Y-67918318D02*
X99433333Y-67956413D01*
X99433333Y-67956413D02*
X99395237Y-67994508D01*
X104861904Y-70006273D02*
X104861904Y-69206273D01*
X104861904Y-69206273D02*
X104404761Y-70006273D01*
X104404761Y-70006273D02*
X104404761Y-69206273D01*
X103871428Y-69206273D02*
X103719047Y-69206273D01*
X103719047Y-69206273D02*
X103642857Y-69244368D01*
X103642857Y-69244368D02*
X103566666Y-69320558D01*
X103566666Y-69320558D02*
X103528571Y-69472939D01*
X103528571Y-69472939D02*
X103528571Y-69739606D01*
X103528571Y-69739606D02*
X103566666Y-69891987D01*
X103566666Y-69891987D02*
X103642857Y-69968178D01*
X103642857Y-69968178D02*
X103719047Y-70006273D01*
X103719047Y-70006273D02*
X103871428Y-70006273D01*
X103871428Y-70006273D02*
X103947619Y-69968178D01*
X103947619Y-69968178D02*
X104023809Y-69891987D01*
X104023809Y-69891987D02*
X104061905Y-69739606D01*
X104061905Y-69739606D02*
X104061905Y-69472939D01*
X104061905Y-69472939D02*
X104023809Y-69320558D01*
X104023809Y-69320558D02*
X103947619Y-69244368D01*
X103947619Y-69244368D02*
X103871428Y-69206273D01*
X102652381Y-69206273D02*
X102461905Y-70006273D01*
X102461905Y-70006273D02*
X102309524Y-69434844D01*
X102309524Y-69434844D02*
X102157143Y-70006273D01*
X102157143Y-70006273D02*
X101966667Y-69206273D01*
X101661904Y-70006273D02*
X101661904Y-69206273D01*
X100823809Y-70006273D02*
X101090476Y-69625320D01*
X101280952Y-70006273D02*
X101280952Y-69206273D01*
X101280952Y-69206273D02*
X100976190Y-69206273D01*
X100976190Y-69206273D02*
X100900000Y-69244368D01*
X100900000Y-69244368D02*
X100861905Y-69282463D01*
X100861905Y-69282463D02*
X100823809Y-69358654D01*
X100823809Y-69358654D02*
X100823809Y-69472939D01*
X100823809Y-69472939D02*
X100861905Y-69549130D01*
X100861905Y-69549130D02*
X100900000Y-69587225D01*
X100900000Y-69587225D02*
X100976190Y-69625320D01*
X100976190Y-69625320D02*
X101280952Y-69625320D01*
X100480952Y-69587225D02*
X100214286Y-69587225D01*
X100100000Y-70006273D02*
X100480952Y-70006273D01*
X100480952Y-70006273D02*
X100480952Y-69206273D01*
X100480952Y-69206273D02*
X100100000Y-69206273D01*
X56028571Y-66522294D02*
X56028571Y-67093722D01*
X56028571Y-67093722D02*
X56066666Y-67208008D01*
X56066666Y-67208008D02*
X56142857Y-67284199D01*
X56142857Y-67284199D02*
X56257142Y-67322294D01*
X56257142Y-67322294D02*
X56333333Y-67322294D01*
X55228571Y-67322294D02*
X55685714Y-67322294D01*
X55457142Y-67322294D02*
X55457142Y-66522294D01*
X55457142Y-66522294D02*
X55533333Y-66636579D01*
X55533333Y-66636579D02*
X55609523Y-66712770D01*
X55609523Y-66712770D02*
X55685714Y-66750865D01*
X54733332Y-66522294D02*
X54657142Y-66522294D01*
X54657142Y-66522294D02*
X54580951Y-66560389D01*
X54580951Y-66560389D02*
X54542856Y-66598484D01*
X54542856Y-66598484D02*
X54504761Y-66674675D01*
X54504761Y-66674675D02*
X54466666Y-66827056D01*
X54466666Y-66827056D02*
X54466666Y-67017532D01*
X54466666Y-67017532D02*
X54504761Y-67169913D01*
X54504761Y-67169913D02*
X54542856Y-67246103D01*
X54542856Y-67246103D02*
X54580951Y-67284199D01*
X54580951Y-67284199D02*
X54657142Y-67322294D01*
X54657142Y-67322294D02*
X54733332Y-67322294D01*
X54733332Y-67322294D02*
X54809523Y-67284199D01*
X54809523Y-67284199D02*
X54847618Y-67246103D01*
X54847618Y-67246103D02*
X54885713Y-67169913D01*
X54885713Y-67169913D02*
X54923809Y-67017532D01*
X54923809Y-67017532D02*
X54923809Y-66827056D01*
X54923809Y-66827056D02*
X54885713Y-66674675D01*
X54885713Y-66674675D02*
X54847618Y-66598484D01*
X54847618Y-66598484D02*
X54809523Y-66560389D01*
X54809523Y-66560389D02*
X54733332Y-66522294D01*
X54161904Y-66598484D02*
X54123808Y-66560389D01*
X54123808Y-66560389D02*
X54047618Y-66522294D01*
X54047618Y-66522294D02*
X53857142Y-66522294D01*
X53857142Y-66522294D02*
X53780951Y-66560389D01*
X53780951Y-66560389D02*
X53742856Y-66598484D01*
X53742856Y-66598484D02*
X53704761Y-66674675D01*
X53704761Y-66674675D02*
X53704761Y-66750865D01*
X53704761Y-66750865D02*
X53742856Y-66865151D01*
X53742856Y-66865151D02*
X54199999Y-67322294D01*
X54199999Y-67322294D02*
X53704761Y-67322294D01*
X88566666Y-91418318D02*
X88566666Y-92065937D01*
X88566666Y-92065937D02*
X88528571Y-92142127D01*
X88528571Y-92142127D02*
X88490476Y-92180223D01*
X88490476Y-92180223D02*
X88414285Y-92218318D01*
X88414285Y-92218318D02*
X88261904Y-92218318D01*
X88261904Y-92218318D02*
X88185714Y-92180223D01*
X88185714Y-92180223D02*
X88147619Y-92142127D01*
X88147619Y-92142127D02*
X88109523Y-92065937D01*
X88109523Y-92065937D02*
X88109523Y-91418318D01*
X87385714Y-91418318D02*
X87538095Y-91418318D01*
X87538095Y-91418318D02*
X87614286Y-91456413D01*
X87614286Y-91456413D02*
X87652381Y-91494508D01*
X87652381Y-91494508D02*
X87728571Y-91608794D01*
X87728571Y-91608794D02*
X87766667Y-91761175D01*
X87766667Y-91761175D02*
X87766667Y-92065937D01*
X87766667Y-92065937D02*
X87728571Y-92142127D01*
X87728571Y-92142127D02*
X87690476Y-92180223D01*
X87690476Y-92180223D02*
X87614286Y-92218318D01*
X87614286Y-92218318D02*
X87461905Y-92218318D01*
X87461905Y-92218318D02*
X87385714Y-92180223D01*
X87385714Y-92180223D02*
X87347619Y-92142127D01*
X87347619Y-92142127D02*
X87309524Y-92065937D01*
X87309524Y-92065937D02*
X87309524Y-91875461D01*
X87309524Y-91875461D02*
X87347619Y-91799270D01*
X87347619Y-91799270D02*
X87385714Y-91761175D01*
X87385714Y-91761175D02*
X87461905Y-91723080D01*
X87461905Y-91723080D02*
X87614286Y-91723080D01*
X87614286Y-91723080D02*
X87690476Y-91761175D01*
X87690476Y-91761175D02*
X87728571Y-91799270D01*
X87728571Y-91799270D02*
X87766667Y-91875461D01*
X86814285Y-91418318D02*
X86738095Y-91418318D01*
X86738095Y-91418318D02*
X86661904Y-91456413D01*
X86661904Y-91456413D02*
X86623809Y-91494508D01*
X86623809Y-91494508D02*
X86585714Y-91570699D01*
X86585714Y-91570699D02*
X86547619Y-91723080D01*
X86547619Y-91723080D02*
X86547619Y-91913556D01*
X86547619Y-91913556D02*
X86585714Y-92065937D01*
X86585714Y-92065937D02*
X86623809Y-92142127D01*
X86623809Y-92142127D02*
X86661904Y-92180223D01*
X86661904Y-92180223D02*
X86738095Y-92218318D01*
X86738095Y-92218318D02*
X86814285Y-92218318D01*
X86814285Y-92218318D02*
X86890476Y-92180223D01*
X86890476Y-92180223D02*
X86928571Y-92142127D01*
X86928571Y-92142127D02*
X86966666Y-92065937D01*
X86966666Y-92065937D02*
X87004762Y-91913556D01*
X87004762Y-91913556D02*
X87004762Y-91723080D01*
X87004762Y-91723080D02*
X86966666Y-91570699D01*
X86966666Y-91570699D02*
X86928571Y-91494508D01*
X86928571Y-91494508D02*
X86890476Y-91456413D01*
X86890476Y-91456413D02*
X86814285Y-91418318D01*
X86242857Y-91494508D02*
X86204761Y-91456413D01*
X86204761Y-91456413D02*
X86128571Y-91418318D01*
X86128571Y-91418318D02*
X85938095Y-91418318D01*
X85938095Y-91418318D02*
X85861904Y-91456413D01*
X85861904Y-91456413D02*
X85823809Y-91494508D01*
X85823809Y-91494508D02*
X85785714Y-91570699D01*
X85785714Y-91570699D02*
X85785714Y-91646889D01*
X85785714Y-91646889D02*
X85823809Y-91761175D01*
X85823809Y-91761175D02*
X86280952Y-92218318D01*
X86280952Y-92218318D02*
X85785714Y-92218318D01*
X85442856Y-92142127D02*
X85404761Y-92180223D01*
X85404761Y-92180223D02*
X85442856Y-92218318D01*
X85442856Y-92218318D02*
X85480952Y-92180223D01*
X85480952Y-92180223D02*
X85442856Y-92142127D01*
X85442856Y-92142127D02*
X85442856Y-92218318D01*
X84642857Y-92218318D02*
X85100000Y-92218318D01*
X84871428Y-92218318D02*
X84871428Y-91418318D01*
X84871428Y-91418318D02*
X84947619Y-91532603D01*
X84947619Y-91532603D02*
X85023809Y-91608794D01*
X85023809Y-91608794D02*
X85100000Y-91646889D01*
X83690475Y-92218318D02*
X83690475Y-91418318D01*
X83690475Y-91418318D02*
X83233332Y-92218318D01*
X83233332Y-92218318D02*
X83233332Y-91418318D01*
X82395237Y-92142127D02*
X82433333Y-92180223D01*
X82433333Y-92180223D02*
X82547618Y-92218318D01*
X82547618Y-92218318D02*
X82623809Y-92218318D01*
X82623809Y-92218318D02*
X82738095Y-92180223D01*
X82738095Y-92180223D02*
X82814285Y-92104032D01*
X82814285Y-92104032D02*
X82852380Y-92027842D01*
X82852380Y-92027842D02*
X82890476Y-91875461D01*
X82890476Y-91875461D02*
X82890476Y-91761175D01*
X82890476Y-91761175D02*
X82852380Y-91608794D01*
X82852380Y-91608794D02*
X82814285Y-91532603D01*
X82814285Y-91532603D02*
X82738095Y-91456413D01*
X82738095Y-91456413D02*
X82623809Y-91418318D01*
X82623809Y-91418318D02*
X82547618Y-91418318D01*
X82547618Y-91418318D02*
X82433333Y-91456413D01*
X82433333Y-91456413D02*
X82395237Y-91494508D01*
X87861904Y-93506273D02*
X87861904Y-92706273D01*
X87861904Y-92706273D02*
X87404761Y-93506273D01*
X87404761Y-93506273D02*
X87404761Y-92706273D01*
X86871428Y-92706273D02*
X86719047Y-92706273D01*
X86719047Y-92706273D02*
X86642857Y-92744368D01*
X86642857Y-92744368D02*
X86566666Y-92820558D01*
X86566666Y-92820558D02*
X86528571Y-92972939D01*
X86528571Y-92972939D02*
X86528571Y-93239606D01*
X86528571Y-93239606D02*
X86566666Y-93391987D01*
X86566666Y-93391987D02*
X86642857Y-93468178D01*
X86642857Y-93468178D02*
X86719047Y-93506273D01*
X86719047Y-93506273D02*
X86871428Y-93506273D01*
X86871428Y-93506273D02*
X86947619Y-93468178D01*
X86947619Y-93468178D02*
X87023809Y-93391987D01*
X87023809Y-93391987D02*
X87061905Y-93239606D01*
X87061905Y-93239606D02*
X87061905Y-92972939D01*
X87061905Y-92972939D02*
X87023809Y-92820558D01*
X87023809Y-92820558D02*
X86947619Y-92744368D01*
X86947619Y-92744368D02*
X86871428Y-92706273D01*
X85652381Y-92706273D02*
X85461905Y-93506273D01*
X85461905Y-93506273D02*
X85309524Y-92934844D01*
X85309524Y-92934844D02*
X85157143Y-93506273D01*
X85157143Y-93506273D02*
X84966667Y-92706273D01*
X84661904Y-93506273D02*
X84661904Y-92706273D01*
X83823809Y-93506273D02*
X84090476Y-93125320D01*
X84280952Y-93506273D02*
X84280952Y-92706273D01*
X84280952Y-92706273D02*
X83976190Y-92706273D01*
X83976190Y-92706273D02*
X83900000Y-92744368D01*
X83900000Y-92744368D02*
X83861905Y-92782463D01*
X83861905Y-92782463D02*
X83823809Y-92858654D01*
X83823809Y-92858654D02*
X83823809Y-92972939D01*
X83823809Y-92972939D02*
X83861905Y-93049130D01*
X83861905Y-93049130D02*
X83900000Y-93087225D01*
X83900000Y-93087225D02*
X83976190Y-93125320D01*
X83976190Y-93125320D02*
X84280952Y-93125320D01*
X83480952Y-93087225D02*
X83214286Y-93087225D01*
X83100000Y-93506273D02*
X83480952Y-93506273D01*
X83480952Y-93506273D02*
X83480952Y-92706273D01*
X83480952Y-92706273D02*
X83100000Y-92706273D01*
X71819048Y-106274340D02*
X71819048Y-106845768D01*
X71819048Y-106845768D02*
X71857143Y-106960054D01*
X71857143Y-106960054D02*
X71933334Y-107036245D01*
X71933334Y-107036245D02*
X72047619Y-107074340D01*
X72047619Y-107074340D02*
X72123810Y-107074340D01*
X71019048Y-107074340D02*
X71476191Y-107074340D01*
X71247619Y-107074340D02*
X71247619Y-106274340D01*
X71247619Y-106274340D02*
X71323810Y-106388625D01*
X71323810Y-106388625D02*
X71400000Y-106464816D01*
X71400000Y-106464816D02*
X71476191Y-106502911D01*
X70523809Y-106274340D02*
X70447619Y-106274340D01*
X70447619Y-106274340D02*
X70371428Y-106312435D01*
X70371428Y-106312435D02*
X70333333Y-106350530D01*
X70333333Y-106350530D02*
X70295238Y-106426721D01*
X70295238Y-106426721D02*
X70257143Y-106579102D01*
X70257143Y-106579102D02*
X70257143Y-106769578D01*
X70257143Y-106769578D02*
X70295238Y-106921959D01*
X70295238Y-106921959D02*
X70333333Y-106998149D01*
X70333333Y-106998149D02*
X70371428Y-107036245D01*
X70371428Y-107036245D02*
X70447619Y-107074340D01*
X70447619Y-107074340D02*
X70523809Y-107074340D01*
X70523809Y-107074340D02*
X70600000Y-107036245D01*
X70600000Y-107036245D02*
X70638095Y-106998149D01*
X70638095Y-106998149D02*
X70676190Y-106921959D01*
X70676190Y-106921959D02*
X70714286Y-106769578D01*
X70714286Y-106769578D02*
X70714286Y-106579102D01*
X70714286Y-106579102D02*
X70676190Y-106426721D01*
X70676190Y-106426721D02*
X70638095Y-106350530D01*
X70638095Y-106350530D02*
X70600000Y-106312435D01*
X70600000Y-106312435D02*
X70523809Y-106274340D01*
X69495238Y-107074340D02*
X69952381Y-107074340D01*
X69723809Y-107074340D02*
X69723809Y-106274340D01*
X69723809Y-106274340D02*
X69800000Y-106388625D01*
X69800000Y-106388625D02*
X69876190Y-106464816D01*
X69876190Y-106464816D02*
X69952381Y-106502911D01*
X68542856Y-107074340D02*
X68542856Y-106274340D01*
X68542856Y-106274340D02*
X68238094Y-106274340D01*
X68238094Y-106274340D02*
X68161904Y-106312435D01*
X68161904Y-106312435D02*
X68123809Y-106350530D01*
X68123809Y-106350530D02*
X68085713Y-106426721D01*
X68085713Y-106426721D02*
X68085713Y-106541006D01*
X68085713Y-106541006D02*
X68123809Y-106617197D01*
X68123809Y-106617197D02*
X68161904Y-106655292D01*
X68161904Y-106655292D02*
X68238094Y-106693387D01*
X68238094Y-106693387D02*
X68542856Y-106693387D01*
X67819047Y-106274340D02*
X67628571Y-107074340D01*
X67628571Y-107074340D02*
X67476190Y-106502911D01*
X67476190Y-106502911D02*
X67323809Y-107074340D01*
X67323809Y-107074340D02*
X67133333Y-106274340D01*
X66371427Y-107074340D02*
X66638094Y-106693387D01*
X66828570Y-107074340D02*
X66828570Y-106274340D01*
X66828570Y-106274340D02*
X66523808Y-106274340D01*
X66523808Y-106274340D02*
X66447618Y-106312435D01*
X66447618Y-106312435D02*
X66409523Y-106350530D01*
X66409523Y-106350530D02*
X66371427Y-106426721D01*
X66371427Y-106426721D02*
X66371427Y-106541006D01*
X66371427Y-106541006D02*
X66409523Y-106617197D01*
X66409523Y-106617197D02*
X66447618Y-106655292D01*
X66447618Y-106655292D02*
X66523808Y-106693387D01*
X66523808Y-106693387D02*
X66828570Y-106693387D01*
X65419046Y-106769578D02*
X64809523Y-106769578D01*
X65114284Y-107074340D02*
X65114284Y-106464816D01*
X63819046Y-106655292D02*
X63552380Y-106655292D01*
X63438094Y-107074340D02*
X63819046Y-107074340D01*
X63819046Y-107074340D02*
X63819046Y-106274340D01*
X63819046Y-106274340D02*
X63438094Y-106274340D01*
X63095236Y-107074340D02*
X63095236Y-106274340D01*
X63095236Y-106274340D02*
X62638093Y-107074340D01*
X62638093Y-107074340D02*
X62638093Y-106274340D01*
X62295237Y-106845768D02*
X61914284Y-106845768D01*
X62371427Y-107074340D02*
X62104760Y-106274340D01*
X62104760Y-106274340D02*
X61838094Y-107074340D01*
X61304761Y-106655292D02*
X61190475Y-106693387D01*
X61190475Y-106693387D02*
X61152380Y-106731483D01*
X61152380Y-106731483D02*
X61114284Y-106807673D01*
X61114284Y-106807673D02*
X61114284Y-106921959D01*
X61114284Y-106921959D02*
X61152380Y-106998149D01*
X61152380Y-106998149D02*
X61190475Y-107036245D01*
X61190475Y-107036245D02*
X61266665Y-107074340D01*
X61266665Y-107074340D02*
X61571427Y-107074340D01*
X61571427Y-107074340D02*
X61571427Y-106274340D01*
X61571427Y-106274340D02*
X61304761Y-106274340D01*
X61304761Y-106274340D02*
X61228570Y-106312435D01*
X61228570Y-106312435D02*
X61190475Y-106350530D01*
X61190475Y-106350530D02*
X61152380Y-106426721D01*
X61152380Y-106426721D02*
X61152380Y-106502911D01*
X61152380Y-106502911D02*
X61190475Y-106579102D01*
X61190475Y-106579102D02*
X61228570Y-106617197D01*
X61228570Y-106617197D02*
X61304761Y-106655292D01*
X61304761Y-106655292D02*
X61571427Y-106655292D01*
X60390475Y-107074340D02*
X60771427Y-107074340D01*
X60771427Y-107074340D02*
X60771427Y-106274340D01*
X60123808Y-106655292D02*
X59857142Y-106655292D01*
X59742856Y-107074340D02*
X60123808Y-107074340D01*
X60123808Y-107074340D02*
X60123808Y-106274340D01*
X60123808Y-106274340D02*
X59742856Y-106274340D01*
X58790474Y-107074340D02*
X58790474Y-106274340D01*
X58409522Y-107074340D02*
X58409522Y-106274340D01*
X58409522Y-106274340D02*
X57952379Y-107074340D01*
X57952379Y-107074340D02*
X57952379Y-106274340D01*
X70257143Y-108362295D02*
X70714286Y-108362295D01*
X70485714Y-108362295D02*
X70485714Y-107562295D01*
X70485714Y-107562295D02*
X70561905Y-107676580D01*
X70561905Y-107676580D02*
X70638095Y-107752771D01*
X70638095Y-107752771D02*
X70714286Y-107790866D01*
X68923809Y-107562295D02*
X69304761Y-107562295D01*
X69304761Y-107562295D02*
X69342857Y-107943247D01*
X69342857Y-107943247D02*
X69304761Y-107905152D01*
X69304761Y-107905152D02*
X69228571Y-107867057D01*
X69228571Y-107867057D02*
X69038095Y-107867057D01*
X69038095Y-107867057D02*
X68961904Y-107905152D01*
X68961904Y-107905152D02*
X68923809Y-107943247D01*
X68923809Y-107943247D02*
X68885714Y-108019438D01*
X68885714Y-108019438D02*
X68885714Y-108209914D01*
X68885714Y-108209914D02*
X68923809Y-108286104D01*
X68923809Y-108286104D02*
X68961904Y-108324200D01*
X68961904Y-108324200D02*
X69038095Y-108362295D01*
X69038095Y-108362295D02*
X69228571Y-108362295D01*
X69228571Y-108362295D02*
X69304761Y-108324200D01*
X69304761Y-108324200D02*
X69342857Y-108286104D01*
X68657142Y-107562295D02*
X68390475Y-108362295D01*
X68390475Y-108362295D02*
X68123809Y-107562295D01*
X67247618Y-108362295D02*
X67247618Y-107562295D01*
X66866666Y-108362295D02*
X66866666Y-107562295D01*
X66866666Y-107562295D02*
X66409523Y-108362295D01*
X66409523Y-108362295D02*
X66409523Y-107562295D01*
X64847619Y-107638485D02*
X64809523Y-107600390D01*
X64809523Y-107600390D02*
X64733333Y-107562295D01*
X64733333Y-107562295D02*
X64542857Y-107562295D01*
X64542857Y-107562295D02*
X64466666Y-107600390D01*
X64466666Y-107600390D02*
X64428571Y-107638485D01*
X64428571Y-107638485D02*
X64390476Y-107714676D01*
X64390476Y-107714676D02*
X64390476Y-107790866D01*
X64390476Y-107790866D02*
X64428571Y-107905152D01*
X64428571Y-107905152D02*
X64885714Y-108362295D01*
X64885714Y-108362295D02*
X64390476Y-108362295D01*
X63019047Y-107600390D02*
X63095237Y-107562295D01*
X63095237Y-107562295D02*
X63209523Y-107562295D01*
X63209523Y-107562295D02*
X63323809Y-107600390D01*
X63323809Y-107600390D02*
X63399999Y-107676580D01*
X63399999Y-107676580D02*
X63438094Y-107752771D01*
X63438094Y-107752771D02*
X63476190Y-107905152D01*
X63476190Y-107905152D02*
X63476190Y-108019438D01*
X63476190Y-108019438D02*
X63438094Y-108171819D01*
X63438094Y-108171819D02*
X63399999Y-108248009D01*
X63399999Y-108248009D02*
X63323809Y-108324200D01*
X63323809Y-108324200D02*
X63209523Y-108362295D01*
X63209523Y-108362295D02*
X63133332Y-108362295D01*
X63133332Y-108362295D02*
X63019047Y-108324200D01*
X63019047Y-108324200D02*
X62980951Y-108286104D01*
X62980951Y-108286104D02*
X62980951Y-108019438D01*
X62980951Y-108019438D02*
X63133332Y-108019438D01*
X62638094Y-108362295D02*
X62638094Y-107562295D01*
X62638094Y-107562295D02*
X62180951Y-108362295D01*
X62180951Y-108362295D02*
X62180951Y-107562295D01*
X61799999Y-108362295D02*
X61799999Y-107562295D01*
X61799999Y-107562295D02*
X61609523Y-107562295D01*
X61609523Y-107562295D02*
X61495237Y-107600390D01*
X61495237Y-107600390D02*
X61419047Y-107676580D01*
X61419047Y-107676580D02*
X61380952Y-107752771D01*
X61380952Y-107752771D02*
X61342856Y-107905152D01*
X61342856Y-107905152D02*
X61342856Y-108019438D01*
X61342856Y-108019438D02*
X61380952Y-108171819D01*
X61380952Y-108171819D02*
X61419047Y-108248009D01*
X61419047Y-108248009D02*
X61495237Y-108324200D01*
X61495237Y-108324200D02*
X61609523Y-108362295D01*
X61609523Y-108362295D02*
X61799999Y-108362295D01*
X60238094Y-107562295D02*
X60161904Y-107562295D01*
X60161904Y-107562295D02*
X60085713Y-107600390D01*
X60085713Y-107600390D02*
X60047618Y-107638485D01*
X60047618Y-107638485D02*
X60009523Y-107714676D01*
X60009523Y-107714676D02*
X59971428Y-107867057D01*
X59971428Y-107867057D02*
X59971428Y-108057533D01*
X59971428Y-108057533D02*
X60009523Y-108209914D01*
X60009523Y-108209914D02*
X60047618Y-108286104D01*
X60047618Y-108286104D02*
X60085713Y-108324200D01*
X60085713Y-108324200D02*
X60161904Y-108362295D01*
X60161904Y-108362295D02*
X60238094Y-108362295D01*
X60238094Y-108362295D02*
X60314285Y-108324200D01*
X60314285Y-108324200D02*
X60352380Y-108286104D01*
X60352380Y-108286104D02*
X60390475Y-108209914D01*
X60390475Y-108209914D02*
X60428571Y-108057533D01*
X60428571Y-108057533D02*
X60428571Y-107867057D01*
X60428571Y-107867057D02*
X60390475Y-107714676D01*
X60390475Y-107714676D02*
X60352380Y-107638485D01*
X60352380Y-107638485D02*
X60314285Y-107600390D01*
X60314285Y-107600390D02*
X60238094Y-107562295D01*
X59742856Y-107562295D02*
X59476189Y-108362295D01*
X59476189Y-108362295D02*
X59209523Y-107562295D01*
X68695238Y-108850250D02*
X68200000Y-108850250D01*
X68200000Y-108850250D02*
X68466666Y-109155012D01*
X68466666Y-109155012D02*
X68352381Y-109155012D01*
X68352381Y-109155012D02*
X68276190Y-109193107D01*
X68276190Y-109193107D02*
X68238095Y-109231202D01*
X68238095Y-109231202D02*
X68200000Y-109307393D01*
X68200000Y-109307393D02*
X68200000Y-109497869D01*
X68200000Y-109497869D02*
X68238095Y-109574059D01*
X68238095Y-109574059D02*
X68276190Y-109612155D01*
X68276190Y-109612155D02*
X68352381Y-109650250D01*
X68352381Y-109650250D02*
X68580952Y-109650250D01*
X68580952Y-109650250D02*
X68657143Y-109612155D01*
X68657143Y-109612155D02*
X68695238Y-109574059D01*
X67247618Y-109231202D02*
X66980952Y-109231202D01*
X66866666Y-109650250D02*
X67247618Y-109650250D01*
X67247618Y-109650250D02*
X67247618Y-108850250D01*
X67247618Y-108850250D02*
X66866666Y-108850250D01*
X66523808Y-109650250D02*
X66523808Y-108850250D01*
X66523808Y-108850250D02*
X66066665Y-109650250D01*
X66066665Y-109650250D02*
X66066665Y-108850250D01*
X65723809Y-109421678D02*
X65342856Y-109421678D01*
X65799999Y-109650250D02*
X65533332Y-108850250D01*
X65533332Y-108850250D02*
X65266666Y-109650250D01*
X64733333Y-109231202D02*
X64619047Y-109269297D01*
X64619047Y-109269297D02*
X64580952Y-109307393D01*
X64580952Y-109307393D02*
X64542856Y-109383583D01*
X64542856Y-109383583D02*
X64542856Y-109497869D01*
X64542856Y-109497869D02*
X64580952Y-109574059D01*
X64580952Y-109574059D02*
X64619047Y-109612155D01*
X64619047Y-109612155D02*
X64695237Y-109650250D01*
X64695237Y-109650250D02*
X64999999Y-109650250D01*
X64999999Y-109650250D02*
X64999999Y-108850250D01*
X64999999Y-108850250D02*
X64733333Y-108850250D01*
X64733333Y-108850250D02*
X64657142Y-108888345D01*
X64657142Y-108888345D02*
X64619047Y-108926440D01*
X64619047Y-108926440D02*
X64580952Y-109002631D01*
X64580952Y-109002631D02*
X64580952Y-109078821D01*
X64580952Y-109078821D02*
X64619047Y-109155012D01*
X64619047Y-109155012D02*
X64657142Y-109193107D01*
X64657142Y-109193107D02*
X64733333Y-109231202D01*
X64733333Y-109231202D02*
X64999999Y-109231202D01*
X63819047Y-109650250D02*
X64199999Y-109650250D01*
X64199999Y-109650250D02*
X64199999Y-108850250D01*
X63552380Y-109231202D02*
X63285714Y-109231202D01*
X63171428Y-109650250D02*
X63552380Y-109650250D01*
X63552380Y-109650250D02*
X63552380Y-108850250D01*
X63552380Y-108850250D02*
X63171428Y-108850250D01*
X62219046Y-109650250D02*
X62219046Y-108850250D01*
X61838094Y-109650250D02*
X61838094Y-108850250D01*
X61838094Y-108850250D02*
X61380951Y-109650250D01*
X61380951Y-109650250D02*
X61380951Y-108850250D01*
X138071428Y-71822295D02*
X138528571Y-71822295D01*
X138299999Y-71822295D02*
X138299999Y-71022295D01*
X138299999Y-71022295D02*
X138376190Y-71136580D01*
X138376190Y-71136580D02*
X138452380Y-71212771D01*
X138452380Y-71212771D02*
X138528571Y-71250866D01*
X102904761Y-132469104D02*
X102428571Y-132469104D01*
X102999999Y-132754819D02*
X102666666Y-131754819D01*
X102666666Y-131754819D02*
X102333333Y-132754819D01*
X101428571Y-132754819D02*
X101761904Y-132278628D01*
X101999999Y-132754819D02*
X101999999Y-131754819D01*
X101999999Y-131754819D02*
X101619047Y-131754819D01*
X101619047Y-131754819D02*
X101523809Y-131802438D01*
X101523809Y-131802438D02*
X101476190Y-131850057D01*
X101476190Y-131850057D02*
X101428571Y-131945295D01*
X101428571Y-131945295D02*
X101428571Y-132088152D01*
X101428571Y-132088152D02*
X101476190Y-132183390D01*
X101476190Y-132183390D02*
X101523809Y-132231009D01*
X101523809Y-132231009D02*
X101619047Y-132278628D01*
X101619047Y-132278628D02*
X101999999Y-132278628D01*
X100999999Y-132754819D02*
X100999999Y-131754819D01*
X100999999Y-131754819D02*
X100761904Y-131754819D01*
X100761904Y-131754819D02*
X100619047Y-131802438D01*
X100619047Y-131802438D02*
X100523809Y-131897676D01*
X100523809Y-131897676D02*
X100476190Y-131992914D01*
X100476190Y-131992914D02*
X100428571Y-132183390D01*
X100428571Y-132183390D02*
X100428571Y-132326247D01*
X100428571Y-132326247D02*
X100476190Y-132516723D01*
X100476190Y-132516723D02*
X100523809Y-132611961D01*
X100523809Y-132611961D02*
X100619047Y-132707200D01*
X100619047Y-132707200D02*
X100761904Y-132754819D01*
X100761904Y-132754819D02*
X100999999Y-132754819D01*
X99809523Y-131754819D02*
X99619047Y-131754819D01*
X99619047Y-131754819D02*
X99523809Y-131802438D01*
X99523809Y-131802438D02*
X99428571Y-131897676D01*
X99428571Y-131897676D02*
X99380952Y-132088152D01*
X99380952Y-132088152D02*
X99380952Y-132421485D01*
X99380952Y-132421485D02*
X99428571Y-132611961D01*
X99428571Y-132611961D02*
X99523809Y-132707200D01*
X99523809Y-132707200D02*
X99619047Y-132754819D01*
X99619047Y-132754819D02*
X99809523Y-132754819D01*
X99809523Y-132754819D02*
X99904761Y-132707200D01*
X99904761Y-132707200D02*
X99999999Y-132611961D01*
X99999999Y-132611961D02*
X100047618Y-132421485D01*
X100047618Y-132421485D02*
X100047618Y-132088152D01*
X100047618Y-132088152D02*
X99999999Y-131897676D01*
X99999999Y-131897676D02*
X99904761Y-131802438D01*
X99904761Y-131802438D02*
X99809523Y-131754819D01*
X98380952Y-132754819D02*
X98714285Y-132278628D01*
X98952380Y-132754819D02*
X98952380Y-131754819D01*
X98952380Y-131754819D02*
X98571428Y-131754819D01*
X98571428Y-131754819D02*
X98476190Y-131802438D01*
X98476190Y-131802438D02*
X98428571Y-131850057D01*
X98428571Y-131850057D02*
X98380952Y-131945295D01*
X98380952Y-131945295D02*
X98380952Y-132088152D01*
X98380952Y-132088152D02*
X98428571Y-132183390D01*
X98428571Y-132183390D02*
X98476190Y-132231009D01*
X98476190Y-132231009D02*
X98571428Y-132278628D01*
X98571428Y-132278628D02*
X98952380Y-132278628D01*
X97190475Y-132754819D02*
X97190475Y-131754819D01*
X97190475Y-132231009D02*
X96619047Y-132231009D01*
X96619047Y-132754819D02*
X96619047Y-131754819D01*
X96142856Y-132754819D02*
X96142856Y-131754819D01*
X96142856Y-131754819D02*
X95761904Y-131754819D01*
X95761904Y-131754819D02*
X95666666Y-131802438D01*
X95666666Y-131802438D02*
X95619047Y-131850057D01*
X95619047Y-131850057D02*
X95571428Y-131945295D01*
X95571428Y-131945295D02*
X95571428Y-132088152D01*
X95571428Y-132088152D02*
X95619047Y-132183390D01*
X95619047Y-132183390D02*
X95666666Y-132231009D01*
X95666666Y-132231009D02*
X95761904Y-132278628D01*
X95761904Y-132278628D02*
X96142856Y-132278628D01*
X94523808Y-131754819D02*
X93952380Y-131754819D01*
X94238094Y-132754819D02*
X94238094Y-131754819D01*
X93095237Y-132754819D02*
X93666665Y-132754819D01*
X93380951Y-132754819D02*
X93380951Y-131754819D01*
X93380951Y-131754819D02*
X93476189Y-131897676D01*
X93476189Y-131897676D02*
X93571427Y-131992914D01*
X93571427Y-131992914D02*
X93666665Y-132040533D01*
X138528571Y-73638485D02*
X138490475Y-73600390D01*
X138490475Y-73600390D02*
X138414285Y-73562295D01*
X138414285Y-73562295D02*
X138223809Y-73562295D01*
X138223809Y-73562295D02*
X138147618Y-73600390D01*
X138147618Y-73600390D02*
X138109523Y-73638485D01*
X138109523Y-73638485D02*
X138071428Y-73714676D01*
X138071428Y-73714676D02*
X138071428Y-73790866D01*
X138071428Y-73790866D02*
X138109523Y-73905152D01*
X138109523Y-73905152D02*
X138566666Y-74362295D01*
X138566666Y-74362295D02*
X138071428Y-74362295D01*
X88566666Y-66418318D02*
X88566666Y-67065937D01*
X88566666Y-67065937D02*
X88528571Y-67142127D01*
X88528571Y-67142127D02*
X88490476Y-67180223D01*
X88490476Y-67180223D02*
X88414285Y-67218318D01*
X88414285Y-67218318D02*
X88261904Y-67218318D01*
X88261904Y-67218318D02*
X88185714Y-67180223D01*
X88185714Y-67180223D02*
X88147619Y-67142127D01*
X88147619Y-67142127D02*
X88109523Y-67065937D01*
X88109523Y-67065937D02*
X88109523Y-66418318D01*
X87385714Y-66418318D02*
X87538095Y-66418318D01*
X87538095Y-66418318D02*
X87614286Y-66456413D01*
X87614286Y-66456413D02*
X87652381Y-66494508D01*
X87652381Y-66494508D02*
X87728571Y-66608794D01*
X87728571Y-66608794D02*
X87766667Y-66761175D01*
X87766667Y-66761175D02*
X87766667Y-67065937D01*
X87766667Y-67065937D02*
X87728571Y-67142127D01*
X87728571Y-67142127D02*
X87690476Y-67180223D01*
X87690476Y-67180223D02*
X87614286Y-67218318D01*
X87614286Y-67218318D02*
X87461905Y-67218318D01*
X87461905Y-67218318D02*
X87385714Y-67180223D01*
X87385714Y-67180223D02*
X87347619Y-67142127D01*
X87347619Y-67142127D02*
X87309524Y-67065937D01*
X87309524Y-67065937D02*
X87309524Y-66875461D01*
X87309524Y-66875461D02*
X87347619Y-66799270D01*
X87347619Y-66799270D02*
X87385714Y-66761175D01*
X87385714Y-66761175D02*
X87461905Y-66723080D01*
X87461905Y-66723080D02*
X87614286Y-66723080D01*
X87614286Y-66723080D02*
X87690476Y-66761175D01*
X87690476Y-66761175D02*
X87728571Y-66799270D01*
X87728571Y-66799270D02*
X87766667Y-66875461D01*
X86814285Y-66418318D02*
X86738095Y-66418318D01*
X86738095Y-66418318D02*
X86661904Y-66456413D01*
X86661904Y-66456413D02*
X86623809Y-66494508D01*
X86623809Y-66494508D02*
X86585714Y-66570699D01*
X86585714Y-66570699D02*
X86547619Y-66723080D01*
X86547619Y-66723080D02*
X86547619Y-66913556D01*
X86547619Y-66913556D02*
X86585714Y-67065937D01*
X86585714Y-67065937D02*
X86623809Y-67142127D01*
X86623809Y-67142127D02*
X86661904Y-67180223D01*
X86661904Y-67180223D02*
X86738095Y-67218318D01*
X86738095Y-67218318D02*
X86814285Y-67218318D01*
X86814285Y-67218318D02*
X86890476Y-67180223D01*
X86890476Y-67180223D02*
X86928571Y-67142127D01*
X86928571Y-67142127D02*
X86966666Y-67065937D01*
X86966666Y-67065937D02*
X87004762Y-66913556D01*
X87004762Y-66913556D02*
X87004762Y-66723080D01*
X87004762Y-66723080D02*
X86966666Y-66570699D01*
X86966666Y-66570699D02*
X86928571Y-66494508D01*
X86928571Y-66494508D02*
X86890476Y-66456413D01*
X86890476Y-66456413D02*
X86814285Y-66418318D01*
X85785714Y-67218318D02*
X86242857Y-67218318D01*
X86014285Y-67218318D02*
X86014285Y-66418318D01*
X86014285Y-66418318D02*
X86090476Y-66532603D01*
X86090476Y-66532603D02*
X86166666Y-66608794D01*
X86166666Y-66608794D02*
X86242857Y-66646889D01*
X85442856Y-67142127D02*
X85404761Y-67180223D01*
X85404761Y-67180223D02*
X85442856Y-67218318D01*
X85442856Y-67218318D02*
X85480952Y-67180223D01*
X85480952Y-67180223D02*
X85442856Y-67142127D01*
X85442856Y-67142127D02*
X85442856Y-67218318D01*
X84642857Y-67218318D02*
X85100000Y-67218318D01*
X84871428Y-67218318D02*
X84871428Y-66418318D01*
X84871428Y-66418318D02*
X84947619Y-66532603D01*
X84947619Y-66532603D02*
X85023809Y-66608794D01*
X85023809Y-66608794D02*
X85100000Y-66646889D01*
X83690475Y-67218318D02*
X83690475Y-66418318D01*
X83690475Y-66418318D02*
X83233332Y-67218318D01*
X83233332Y-67218318D02*
X83233332Y-66418318D01*
X82395237Y-67142127D02*
X82433333Y-67180223D01*
X82433333Y-67180223D02*
X82547618Y-67218318D01*
X82547618Y-67218318D02*
X82623809Y-67218318D01*
X82623809Y-67218318D02*
X82738095Y-67180223D01*
X82738095Y-67180223D02*
X82814285Y-67104032D01*
X82814285Y-67104032D02*
X82852380Y-67027842D01*
X82852380Y-67027842D02*
X82890476Y-66875461D01*
X82890476Y-66875461D02*
X82890476Y-66761175D01*
X82890476Y-66761175D02*
X82852380Y-66608794D01*
X82852380Y-66608794D02*
X82814285Y-66532603D01*
X82814285Y-66532603D02*
X82738095Y-66456413D01*
X82738095Y-66456413D02*
X82623809Y-66418318D01*
X82623809Y-66418318D02*
X82547618Y-66418318D01*
X82547618Y-66418318D02*
X82433333Y-66456413D01*
X82433333Y-66456413D02*
X82395237Y-66494508D01*
X87861904Y-68506273D02*
X87861904Y-67706273D01*
X87861904Y-67706273D02*
X87404761Y-68506273D01*
X87404761Y-68506273D02*
X87404761Y-67706273D01*
X86871428Y-67706273D02*
X86719047Y-67706273D01*
X86719047Y-67706273D02*
X86642857Y-67744368D01*
X86642857Y-67744368D02*
X86566666Y-67820558D01*
X86566666Y-67820558D02*
X86528571Y-67972939D01*
X86528571Y-67972939D02*
X86528571Y-68239606D01*
X86528571Y-68239606D02*
X86566666Y-68391987D01*
X86566666Y-68391987D02*
X86642857Y-68468178D01*
X86642857Y-68468178D02*
X86719047Y-68506273D01*
X86719047Y-68506273D02*
X86871428Y-68506273D01*
X86871428Y-68506273D02*
X86947619Y-68468178D01*
X86947619Y-68468178D02*
X87023809Y-68391987D01*
X87023809Y-68391987D02*
X87061905Y-68239606D01*
X87061905Y-68239606D02*
X87061905Y-67972939D01*
X87061905Y-67972939D02*
X87023809Y-67820558D01*
X87023809Y-67820558D02*
X86947619Y-67744368D01*
X86947619Y-67744368D02*
X86871428Y-67706273D01*
X85652381Y-67706273D02*
X85461905Y-68506273D01*
X85461905Y-68506273D02*
X85309524Y-67934844D01*
X85309524Y-67934844D02*
X85157143Y-68506273D01*
X85157143Y-68506273D02*
X84966667Y-67706273D01*
X84661904Y-68506273D02*
X84661904Y-67706273D01*
X83823809Y-68506273D02*
X84090476Y-68125320D01*
X84280952Y-68506273D02*
X84280952Y-67706273D01*
X84280952Y-67706273D02*
X83976190Y-67706273D01*
X83976190Y-67706273D02*
X83900000Y-67744368D01*
X83900000Y-67744368D02*
X83861905Y-67782463D01*
X83861905Y-67782463D02*
X83823809Y-67858654D01*
X83823809Y-67858654D02*
X83823809Y-67972939D01*
X83823809Y-67972939D02*
X83861905Y-68049130D01*
X83861905Y-68049130D02*
X83900000Y-68087225D01*
X83900000Y-68087225D02*
X83976190Y-68125320D01*
X83976190Y-68125320D02*
X84280952Y-68125320D01*
X83480952Y-68087225D02*
X83214286Y-68087225D01*
X83100000Y-68506273D02*
X83480952Y-68506273D01*
X83480952Y-68506273D02*
X83480952Y-67706273D01*
X83480952Y-67706273D02*
X83100000Y-67706273D01*
X56928571Y-71638485D02*
X56890475Y-71600390D01*
X56890475Y-71600390D02*
X56814285Y-71562295D01*
X56814285Y-71562295D02*
X56623809Y-71562295D01*
X56623809Y-71562295D02*
X56547618Y-71600390D01*
X56547618Y-71600390D02*
X56509523Y-71638485D01*
X56509523Y-71638485D02*
X56471428Y-71714676D01*
X56471428Y-71714676D02*
X56471428Y-71790866D01*
X56471428Y-71790866D02*
X56509523Y-71905152D01*
X56509523Y-71905152D02*
X56966666Y-72362295D01*
X56966666Y-72362295D02*
X56471428Y-72362295D01*
X138566666Y-76102295D02*
X138071428Y-76102295D01*
X138071428Y-76102295D02*
X138338094Y-76407057D01*
X138338094Y-76407057D02*
X138223809Y-76407057D01*
X138223809Y-76407057D02*
X138147618Y-76445152D01*
X138147618Y-76445152D02*
X138109523Y-76483247D01*
X138109523Y-76483247D02*
X138071428Y-76559438D01*
X138071428Y-76559438D02*
X138071428Y-76749914D01*
X138071428Y-76749914D02*
X138109523Y-76826104D01*
X138109523Y-76826104D02*
X138147618Y-76864200D01*
X138147618Y-76864200D02*
X138223809Y-76902295D01*
X138223809Y-76902295D02*
X138452380Y-76902295D01*
X138452380Y-76902295D02*
X138528571Y-76864200D01*
X138528571Y-76864200D02*
X138566666Y-76826104D01*
X56471428Y-69822295D02*
X56928571Y-69822295D01*
X56699999Y-69822295D02*
X56699999Y-69022295D01*
X56699999Y-69022295D02*
X56776190Y-69136580D01*
X56776190Y-69136580D02*
X56852380Y-69212771D01*
X56852380Y-69212771D02*
X56928571Y-69250866D01*
X56966666Y-74102295D02*
X56471428Y-74102295D01*
X56471428Y-74102295D02*
X56738094Y-74407057D01*
X56738094Y-74407057D02*
X56623809Y-74407057D01*
X56623809Y-74407057D02*
X56547618Y-74445152D01*
X56547618Y-74445152D02*
X56509523Y-74483247D01*
X56509523Y-74483247D02*
X56471428Y-74559438D01*
X56471428Y-74559438D02*
X56471428Y-74749914D01*
X56471428Y-74749914D02*
X56509523Y-74826104D01*
X56509523Y-74826104D02*
X56547618Y-74864200D01*
X56547618Y-74864200D02*
X56623809Y-74902295D01*
X56623809Y-74902295D02*
X56852380Y-74902295D01*
X56852380Y-74902295D02*
X56928571Y-74864200D01*
X56928571Y-74864200D02*
X56966666Y-74826104D01*
X68519047Y-71774340D02*
X68519047Y-72345768D01*
X68519047Y-72345768D02*
X68557142Y-72460054D01*
X68557142Y-72460054D02*
X68633333Y-72536245D01*
X68633333Y-72536245D02*
X68747618Y-72574340D01*
X68747618Y-72574340D02*
X68823809Y-72574340D01*
X67719047Y-72574340D02*
X68176190Y-72574340D01*
X67947618Y-72574340D02*
X67947618Y-71774340D01*
X67947618Y-71774340D02*
X68023809Y-71888625D01*
X68023809Y-71888625D02*
X68099999Y-71964816D01*
X68099999Y-71964816D02*
X68176190Y-72002911D01*
X67223808Y-71774340D02*
X67147618Y-71774340D01*
X67147618Y-71774340D02*
X67071427Y-71812435D01*
X67071427Y-71812435D02*
X67033332Y-71850530D01*
X67033332Y-71850530D02*
X66995237Y-71926721D01*
X66995237Y-71926721D02*
X66957142Y-72079102D01*
X66957142Y-72079102D02*
X66957142Y-72269578D01*
X66957142Y-72269578D02*
X66995237Y-72421959D01*
X66995237Y-72421959D02*
X67033332Y-72498149D01*
X67033332Y-72498149D02*
X67071427Y-72536245D01*
X67071427Y-72536245D02*
X67147618Y-72574340D01*
X67147618Y-72574340D02*
X67223808Y-72574340D01*
X67223808Y-72574340D02*
X67299999Y-72536245D01*
X67299999Y-72536245D02*
X67338094Y-72498149D01*
X67338094Y-72498149D02*
X67376189Y-72421959D01*
X67376189Y-72421959D02*
X67414285Y-72269578D01*
X67414285Y-72269578D02*
X67414285Y-72079102D01*
X67414285Y-72079102D02*
X67376189Y-71926721D01*
X67376189Y-71926721D02*
X67338094Y-71850530D01*
X67338094Y-71850530D02*
X67299999Y-71812435D01*
X67299999Y-71812435D02*
X67223808Y-71774340D01*
X66652380Y-71850530D02*
X66614284Y-71812435D01*
X66614284Y-71812435D02*
X66538094Y-71774340D01*
X66538094Y-71774340D02*
X66347618Y-71774340D01*
X66347618Y-71774340D02*
X66271427Y-71812435D01*
X66271427Y-71812435D02*
X66233332Y-71850530D01*
X66233332Y-71850530D02*
X66195237Y-71926721D01*
X66195237Y-71926721D02*
X66195237Y-72002911D01*
X66195237Y-72002911D02*
X66233332Y-72117197D01*
X66233332Y-72117197D02*
X66690475Y-72574340D01*
X66690475Y-72574340D02*
X66195237Y-72574340D01*
X65280951Y-72345768D02*
X64899998Y-72345768D01*
X65357141Y-72574340D02*
X65090474Y-71774340D01*
X65090474Y-71774340D02*
X64823808Y-72574340D01*
X64557141Y-71774340D02*
X64557141Y-72421959D01*
X64557141Y-72421959D02*
X64519046Y-72498149D01*
X64519046Y-72498149D02*
X64480951Y-72536245D01*
X64480951Y-72536245D02*
X64404760Y-72574340D01*
X64404760Y-72574340D02*
X64252379Y-72574340D01*
X64252379Y-72574340D02*
X64176189Y-72536245D01*
X64176189Y-72536245D02*
X64138094Y-72498149D01*
X64138094Y-72498149D02*
X64099998Y-72421959D01*
X64099998Y-72421959D02*
X64099998Y-71774340D01*
X63719046Y-72574340D02*
X63719046Y-71774340D01*
X63719046Y-71774340D02*
X63528570Y-71774340D01*
X63528570Y-71774340D02*
X63414284Y-71812435D01*
X63414284Y-71812435D02*
X63338094Y-71888625D01*
X63338094Y-71888625D02*
X63299999Y-71964816D01*
X63299999Y-71964816D02*
X63261903Y-72117197D01*
X63261903Y-72117197D02*
X63261903Y-72231483D01*
X63261903Y-72231483D02*
X63299999Y-72383864D01*
X63299999Y-72383864D02*
X63338094Y-72460054D01*
X63338094Y-72460054D02*
X63414284Y-72536245D01*
X63414284Y-72536245D02*
X63528570Y-72574340D01*
X63528570Y-72574340D02*
X63719046Y-72574340D01*
X62919046Y-72574340D02*
X62919046Y-71774340D01*
X62385713Y-71774340D02*
X62233332Y-71774340D01*
X62233332Y-71774340D02*
X62157142Y-71812435D01*
X62157142Y-71812435D02*
X62080951Y-71888625D01*
X62080951Y-71888625D02*
X62042856Y-72041006D01*
X62042856Y-72041006D02*
X62042856Y-72307673D01*
X62042856Y-72307673D02*
X62080951Y-72460054D01*
X62080951Y-72460054D02*
X62157142Y-72536245D01*
X62157142Y-72536245D02*
X62233332Y-72574340D01*
X62233332Y-72574340D02*
X62385713Y-72574340D01*
X62385713Y-72574340D02*
X62461904Y-72536245D01*
X62461904Y-72536245D02*
X62538094Y-72460054D01*
X62538094Y-72460054D02*
X62576190Y-72307673D01*
X62576190Y-72307673D02*
X62576190Y-72041006D01*
X62576190Y-72041006D02*
X62538094Y-71888625D01*
X62538094Y-71888625D02*
X62461904Y-71812435D01*
X62461904Y-71812435D02*
X62385713Y-71774340D01*
X61090475Y-72574340D02*
X61090475Y-71774340D01*
X60709523Y-72574340D02*
X60709523Y-71774340D01*
X60709523Y-71774340D02*
X60252380Y-72574340D01*
X60252380Y-72574340D02*
X60252380Y-71774340D01*
X70366667Y-73862295D02*
X70823810Y-73862295D01*
X70595238Y-73862295D02*
X70595238Y-73062295D01*
X70595238Y-73062295D02*
X70671429Y-73176580D01*
X70671429Y-73176580D02*
X70747619Y-73252771D01*
X70747619Y-73252771D02*
X70823810Y-73290866D01*
X69033333Y-73862295D02*
X69414285Y-73862295D01*
X69414285Y-73862295D02*
X69414285Y-73062295D01*
X68766666Y-73443247D02*
X68500000Y-73443247D01*
X68385714Y-73862295D02*
X68766666Y-73862295D01*
X68766666Y-73862295D02*
X68766666Y-73062295D01*
X68766666Y-73062295D02*
X68385714Y-73062295D01*
X67776190Y-73443247D02*
X68042856Y-73443247D01*
X68042856Y-73862295D02*
X68042856Y-73062295D01*
X68042856Y-73062295D02*
X67661904Y-73062295D01*
X67471428Y-73062295D02*
X67014285Y-73062295D01*
X67242857Y-73862295D02*
X67242857Y-73062295D01*
X66138094Y-73862295D02*
X66138094Y-73062295D01*
X65757142Y-73862295D02*
X65757142Y-73062295D01*
X65757142Y-73062295D02*
X65299999Y-73862295D01*
X65299999Y-73862295D02*
X65299999Y-73062295D01*
X63738095Y-73138485D02*
X63699999Y-73100390D01*
X63699999Y-73100390D02*
X63623809Y-73062295D01*
X63623809Y-73062295D02*
X63433333Y-73062295D01*
X63433333Y-73062295D02*
X63357142Y-73100390D01*
X63357142Y-73100390D02*
X63319047Y-73138485D01*
X63319047Y-73138485D02*
X63280952Y-73214676D01*
X63280952Y-73214676D02*
X63280952Y-73290866D01*
X63280952Y-73290866D02*
X63319047Y-73405152D01*
X63319047Y-73405152D02*
X63776190Y-73862295D01*
X63776190Y-73862295D02*
X63280952Y-73862295D01*
X61909523Y-73100390D02*
X61985713Y-73062295D01*
X61985713Y-73062295D02*
X62099999Y-73062295D01*
X62099999Y-73062295D02*
X62214285Y-73100390D01*
X62214285Y-73100390D02*
X62290475Y-73176580D01*
X62290475Y-73176580D02*
X62328570Y-73252771D01*
X62328570Y-73252771D02*
X62366666Y-73405152D01*
X62366666Y-73405152D02*
X62366666Y-73519438D01*
X62366666Y-73519438D02*
X62328570Y-73671819D01*
X62328570Y-73671819D02*
X62290475Y-73748009D01*
X62290475Y-73748009D02*
X62214285Y-73824200D01*
X62214285Y-73824200D02*
X62099999Y-73862295D01*
X62099999Y-73862295D02*
X62023808Y-73862295D01*
X62023808Y-73862295D02*
X61909523Y-73824200D01*
X61909523Y-73824200D02*
X61871427Y-73786104D01*
X61871427Y-73786104D02*
X61871427Y-73519438D01*
X61871427Y-73519438D02*
X62023808Y-73519438D01*
X61528570Y-73862295D02*
X61528570Y-73062295D01*
X61528570Y-73062295D02*
X61071427Y-73862295D01*
X61071427Y-73862295D02*
X61071427Y-73062295D01*
X60690475Y-73862295D02*
X60690475Y-73062295D01*
X60690475Y-73062295D02*
X60499999Y-73062295D01*
X60499999Y-73062295D02*
X60385713Y-73100390D01*
X60385713Y-73100390D02*
X60309523Y-73176580D01*
X60309523Y-73176580D02*
X60271428Y-73252771D01*
X60271428Y-73252771D02*
X60233332Y-73405152D01*
X60233332Y-73405152D02*
X60233332Y-73519438D01*
X60233332Y-73519438D02*
X60271428Y-73671819D01*
X60271428Y-73671819D02*
X60309523Y-73748009D01*
X60309523Y-73748009D02*
X60385713Y-73824200D01*
X60385713Y-73824200D02*
X60499999Y-73862295D01*
X60499999Y-73862295D02*
X60690475Y-73862295D01*
X59128570Y-73062295D02*
X59052380Y-73062295D01*
X59052380Y-73062295D02*
X58976189Y-73100390D01*
X58976189Y-73100390D02*
X58938094Y-73138485D01*
X58938094Y-73138485D02*
X58899999Y-73214676D01*
X58899999Y-73214676D02*
X58861904Y-73367057D01*
X58861904Y-73367057D02*
X58861904Y-73557533D01*
X58861904Y-73557533D02*
X58899999Y-73709914D01*
X58899999Y-73709914D02*
X58938094Y-73786104D01*
X58938094Y-73786104D02*
X58976189Y-73824200D01*
X58976189Y-73824200D02*
X59052380Y-73862295D01*
X59052380Y-73862295D02*
X59128570Y-73862295D01*
X59128570Y-73862295D02*
X59204761Y-73824200D01*
X59204761Y-73824200D02*
X59242856Y-73786104D01*
X59242856Y-73786104D02*
X59280951Y-73709914D01*
X59280951Y-73709914D02*
X59319047Y-73557533D01*
X59319047Y-73557533D02*
X59319047Y-73367057D01*
X59319047Y-73367057D02*
X59280951Y-73214676D01*
X59280951Y-73214676D02*
X59242856Y-73138485D01*
X59242856Y-73138485D02*
X59204761Y-73100390D01*
X59204761Y-73100390D02*
X59128570Y-73062295D01*
X58633332Y-73062295D02*
X58366665Y-73862295D01*
X58366665Y-73862295D02*
X58099999Y-73062295D01*
X67699999Y-74350250D02*
X67204761Y-74350250D01*
X67204761Y-74350250D02*
X67471427Y-74655012D01*
X67471427Y-74655012D02*
X67357142Y-74655012D01*
X67357142Y-74655012D02*
X67280951Y-74693107D01*
X67280951Y-74693107D02*
X67242856Y-74731202D01*
X67242856Y-74731202D02*
X67204761Y-74807393D01*
X67204761Y-74807393D02*
X67204761Y-74997869D01*
X67204761Y-74997869D02*
X67242856Y-75074059D01*
X67242856Y-75074059D02*
X67280951Y-75112155D01*
X67280951Y-75112155D02*
X67357142Y-75150250D01*
X67357142Y-75150250D02*
X67585713Y-75150250D01*
X67585713Y-75150250D02*
X67661904Y-75112155D01*
X67661904Y-75112155D02*
X67699999Y-75074059D01*
X65795236Y-75150250D02*
X66061903Y-74769297D01*
X66252379Y-75150250D02*
X66252379Y-74350250D01*
X66252379Y-74350250D02*
X65947617Y-74350250D01*
X65947617Y-74350250D02*
X65871427Y-74388345D01*
X65871427Y-74388345D02*
X65833332Y-74426440D01*
X65833332Y-74426440D02*
X65795236Y-74502631D01*
X65795236Y-74502631D02*
X65795236Y-74616916D01*
X65795236Y-74616916D02*
X65833332Y-74693107D01*
X65833332Y-74693107D02*
X65871427Y-74731202D01*
X65871427Y-74731202D02*
X65947617Y-74769297D01*
X65947617Y-74769297D02*
X66252379Y-74769297D01*
X65452379Y-75150250D02*
X65452379Y-74350250D01*
X64652380Y-74388345D02*
X64728570Y-74350250D01*
X64728570Y-74350250D02*
X64842856Y-74350250D01*
X64842856Y-74350250D02*
X64957142Y-74388345D01*
X64957142Y-74388345D02*
X65033332Y-74464535D01*
X65033332Y-74464535D02*
X65071427Y-74540726D01*
X65071427Y-74540726D02*
X65109523Y-74693107D01*
X65109523Y-74693107D02*
X65109523Y-74807393D01*
X65109523Y-74807393D02*
X65071427Y-74959774D01*
X65071427Y-74959774D02*
X65033332Y-75035964D01*
X65033332Y-75035964D02*
X64957142Y-75112155D01*
X64957142Y-75112155D02*
X64842856Y-75150250D01*
X64842856Y-75150250D02*
X64766665Y-75150250D01*
X64766665Y-75150250D02*
X64652380Y-75112155D01*
X64652380Y-75112155D02*
X64614284Y-75074059D01*
X64614284Y-75074059D02*
X64614284Y-74807393D01*
X64614284Y-74807393D02*
X64766665Y-74807393D01*
X64271427Y-75150250D02*
X64271427Y-74350250D01*
X64271427Y-74731202D02*
X63814284Y-74731202D01*
X63814284Y-75150250D02*
X63814284Y-74350250D01*
X63547618Y-74350250D02*
X63090475Y-74350250D01*
X63319047Y-75150250D02*
X63319047Y-74350250D01*
X62214284Y-75150250D02*
X62214284Y-74350250D01*
X61833332Y-75150250D02*
X61833332Y-74350250D01*
X61833332Y-74350250D02*
X61376189Y-75150250D01*
X61376189Y-75150250D02*
X61376189Y-74350250D01*
X56928571Y-107638485D02*
X56890475Y-107600390D01*
X56890475Y-107600390D02*
X56814285Y-107562295D01*
X56814285Y-107562295D02*
X56623809Y-107562295D01*
X56623809Y-107562295D02*
X56547618Y-107600390D01*
X56547618Y-107600390D02*
X56509523Y-107638485D01*
X56509523Y-107638485D02*
X56471428Y-107714676D01*
X56471428Y-107714676D02*
X56471428Y-107790866D01*
X56471428Y-107790866D02*
X56509523Y-107905152D01*
X56509523Y-107905152D02*
X56966666Y-108362295D01*
X56966666Y-108362295D02*
X56471428Y-108362295D01*
X56471428Y-105822295D02*
X56928571Y-105822295D01*
X56699999Y-105822295D02*
X56699999Y-105022295D01*
X56699999Y-105022295D02*
X56776190Y-105136580D01*
X56776190Y-105136580D02*
X56852380Y-105212771D01*
X56852380Y-105212771D02*
X56928571Y-105250866D01*
X97914284Y-88562295D02*
X97761903Y-88562295D01*
X97761903Y-88562295D02*
X97685713Y-88600390D01*
X97685713Y-88600390D02*
X97609522Y-88676580D01*
X97609522Y-88676580D02*
X97571427Y-88828961D01*
X97571427Y-88828961D02*
X97571427Y-89095628D01*
X97571427Y-89095628D02*
X97609522Y-89248009D01*
X97609522Y-89248009D02*
X97685713Y-89324200D01*
X97685713Y-89324200D02*
X97761903Y-89362295D01*
X97761903Y-89362295D02*
X97914284Y-89362295D01*
X97914284Y-89362295D02*
X97990475Y-89324200D01*
X97990475Y-89324200D02*
X98066665Y-89248009D01*
X98066665Y-89248009D02*
X98104761Y-89095628D01*
X98104761Y-89095628D02*
X98104761Y-88828961D01*
X98104761Y-88828961D02*
X98066665Y-88676580D01*
X98066665Y-88676580D02*
X97990475Y-88600390D01*
X97990475Y-88600390D02*
X97914284Y-88562295D01*
X97228570Y-88562295D02*
X97228570Y-89209914D01*
X97228570Y-89209914D02*
X97190475Y-89286104D01*
X97190475Y-89286104D02*
X97152380Y-89324200D01*
X97152380Y-89324200D02*
X97076189Y-89362295D01*
X97076189Y-89362295D02*
X96923808Y-89362295D01*
X96923808Y-89362295D02*
X96847618Y-89324200D01*
X96847618Y-89324200D02*
X96809523Y-89286104D01*
X96809523Y-89286104D02*
X96771427Y-89209914D01*
X96771427Y-89209914D02*
X96771427Y-88562295D01*
X96504761Y-88562295D02*
X96047618Y-88562295D01*
X96276190Y-89362295D02*
X96276190Y-88562295D01*
X95780951Y-88943247D02*
X95171428Y-88943247D01*
X95171428Y-89171819D02*
X95780951Y-89171819D01*
X94523809Y-88943247D02*
X94790475Y-88943247D01*
X94790475Y-89362295D02*
X94790475Y-88562295D01*
X94790475Y-88562295D02*
X94409523Y-88562295D01*
X93647618Y-89362295D02*
X93914285Y-88981342D01*
X94104761Y-89362295D02*
X94104761Y-88562295D01*
X94104761Y-88562295D02*
X93799999Y-88562295D01*
X93799999Y-88562295D02*
X93723809Y-88600390D01*
X93723809Y-88600390D02*
X93685714Y-88638485D01*
X93685714Y-88638485D02*
X93647618Y-88714676D01*
X93647618Y-88714676D02*
X93647618Y-88828961D01*
X93647618Y-88828961D02*
X93685714Y-88905152D01*
X93685714Y-88905152D02*
X93723809Y-88943247D01*
X93723809Y-88943247D02*
X93799999Y-88981342D01*
X93799999Y-88981342D02*
X94104761Y-88981342D01*
X93152380Y-88562295D02*
X92999999Y-88562295D01*
X92999999Y-88562295D02*
X92923809Y-88600390D01*
X92923809Y-88600390D02*
X92847618Y-88676580D01*
X92847618Y-88676580D02*
X92809523Y-88828961D01*
X92809523Y-88828961D02*
X92809523Y-89095628D01*
X92809523Y-89095628D02*
X92847618Y-89248009D01*
X92847618Y-89248009D02*
X92923809Y-89324200D01*
X92923809Y-89324200D02*
X92999999Y-89362295D01*
X92999999Y-89362295D02*
X93152380Y-89362295D01*
X93152380Y-89362295D02*
X93228571Y-89324200D01*
X93228571Y-89324200D02*
X93304761Y-89248009D01*
X93304761Y-89248009D02*
X93342857Y-89095628D01*
X93342857Y-89095628D02*
X93342857Y-88828961D01*
X93342857Y-88828961D02*
X93304761Y-88676580D01*
X93304761Y-88676580D02*
X93228571Y-88600390D01*
X93228571Y-88600390D02*
X93152380Y-88562295D01*
X92466666Y-89362295D02*
X92466666Y-88562295D01*
X92466666Y-88562295D02*
X92200000Y-89133723D01*
X92200000Y-89133723D02*
X91933333Y-88562295D01*
X91933333Y-88562295D02*
X91933333Y-89362295D01*
%LPC*%
D11*
X78920000Y-105000000D03*
X89080000Y-105000000D03*
X79920000Y-120000000D03*
X90080000Y-120000000D03*
X72920000Y-70000000D03*
X83080000Y-70000000D03*
X116920000Y-70000000D03*
X127080000Y-70000000D03*
X105500000Y-128000000D03*
X110500000Y-128000000D03*
D12*
X61380000Y-124000000D03*
X76620000Y-124000000D03*
D11*
X135000000Y-110080000D03*
X135000000Y-99920000D03*
D13*
X93750000Y-82000000D03*
D11*
X96250000Y-82000000D03*
X64500000Y-95000000D03*
X69500000Y-95000000D03*
X78920000Y-80000000D03*
X89080000Y-80000000D03*
X99500000Y-63000000D03*
X104500000Y-63000000D03*
X105000000Y-110080000D03*
X105000000Y-99920000D03*
X72920000Y-95000000D03*
X83080000Y-95000000D03*
D14*
X53000000Y-131000000D03*
D15*
X131920000Y-87000000D03*
D16*
X142080000Y-87000000D03*
D13*
X108250000Y-95000000D03*
D11*
X111750000Y-95000000D03*
X116920000Y-95000000D03*
X127080000Y-95000000D03*
D17*
X140000000Y-71460000D03*
D18*
X140000000Y-74000000D03*
X140000000Y-76540000D03*
D17*
X55000000Y-105460000D03*
D18*
X55000000Y-108000000D03*
X55000000Y-110540000D03*
D13*
X108250000Y-70000000D03*
D11*
X111750000Y-70000000D03*
X105000000Y-85080000D03*
X105000000Y-74920000D03*
X109500000Y-107000000D03*
X114500000Y-107000000D03*
D14*
X143000000Y-53000000D03*
D11*
X64500000Y-70000000D03*
X69500000Y-70000000D03*
D13*
X90190000Y-91190000D03*
D11*
X90190000Y-93730000D03*
X90190000Y-96270000D03*
X90190000Y-98810000D03*
X97810000Y-98810000D03*
X97810000Y-96270000D03*
X97810000Y-93730000D03*
X97810000Y-91190000D03*
X139000000Y-123080000D03*
X139000000Y-112920000D03*
D19*
X104460000Y-119000000D03*
D20*
X107000000Y-119000000D03*
X109540000Y-119000000D03*
D21*
X121190000Y-103110000D03*
D22*
X121190000Y-110730000D03*
X121190000Y-115810000D03*
X121190000Y-120890000D03*
X128810000Y-120890000D03*
X128810000Y-115810000D03*
X128810000Y-110730000D03*
X128810000Y-103110000D03*
D11*
X99500000Y-88000000D03*
X104500000Y-88000000D03*
X126920000Y-80000000D03*
X137080000Y-80000000D03*
X97000000Y-125080000D03*
X97000000Y-114920000D03*
X109500000Y-82000000D03*
X114500000Y-82000000D03*
D13*
X90190000Y-66190000D03*
D11*
X90190000Y-68730000D03*
X90190000Y-71270000D03*
X90190000Y-73810000D03*
X97810000Y-73810000D03*
X97810000Y-71270000D03*
X97810000Y-68730000D03*
X97810000Y-66190000D03*
D15*
X131920000Y-62000000D03*
D16*
X142080000Y-62000000D03*
D17*
X55000000Y-69460000D03*
D18*
X55000000Y-72000000D03*
X55000000Y-74540000D03*
D13*
X119190000Y-126000000D03*
D11*
X126810000Y-126000000D03*
D13*
X89750000Y-127000000D03*
D11*
X92250000Y-127000000D03*
D13*
X93750000Y-107000000D03*
D11*
X96250000Y-107000000D03*
%LPD*%
M02*
