M48
; DRILL file {KiCad 9.0.2+dfsg-1} date 2026-10-08T19:46:55+0000
; FORMAT={-:-/ absolute / metric / decimal}
; #@! TF.CreationDate,2026-10-08T19:46:55+00:00
; #@! TF.GenerationSoftware,Kicad,Pcbnew,9.0.2+dfsg-1
; #@! TF.FileFunction,Plated,1,2,PTH
FMAT,2
METRIC
; #@! TA.AperFunction,Plated,PTH,ComponentDrill
T1C0.700
; #@! TA.AperFunction,Plated,PTH,ComponentDrill
T2C0.800
; #@! TA.AperFunction,Plated,PTH,ComponentDrill
T3C0.900
; #@! TA.AperFunction,Plated,PTH,ComponentDrill
T4C1.000
; #@! TA.AperFunction,Plated,PTH,ComponentDrill
T5C1.200
%
G90
G05
T1
X121.19Y-103.11
X121.19Y-110.73
X121.19Y-115.81
X121.19Y-120.89
X128.81Y-103.11
X128.81Y-110.73
X128.81Y-115.81
X128.81Y-120.89
T2
X64.5Y-70.0
X64.5Y-95.0
X69.5Y-70.0
X69.5Y-95.0
X72.92Y-70.0
X72.92Y-95.0
X78.92Y-80.0
X78.92Y-105.0
X79.92Y-120.0
X83.08Y-70.0
X83.08Y-95.0
X89.08Y-80.0
X89.08Y-105.0
X89.75Y-127.0
X90.08Y-120.0
X90.19Y-66.19
X90.19Y-68.73
X90.19Y-71.27
X90.19Y-73.81
X90.19Y-91.19
X90.19Y-93.73
X90.19Y-96.27
X90.19Y-98.81
X92.25Y-127.0
X93.75Y-82.0
X93.75Y-107.0
X96.25Y-82.0
X96.25Y-107.0
X97.0Y-114.92
X97.0Y-125.08
X97.81Y-66.19
X97.81Y-68.73
X97.81Y-71.27
X97.81Y-73.81
X97.81Y-91.19
X97.81Y-93.73
X97.81Y-96.27
X97.81Y-98.81
X99.5Y-63.0
X99.5Y-88.0
X104.46Y-119.0
X104.5Y-63.0
X104.5Y-88.0
X105.0Y-74.92
X105.0Y-85.08
X105.0Y-99.92
X105.0Y-110.08
X105.5Y-128.0
X107.0Y-119.0
X108.25Y-70.0
X108.25Y-95.0
X109.5Y-82.0
X109.5Y-107.0
X109.54Y-119.0
X110.5Y-128.0
X111.75Y-70.0
X111.75Y-95.0
X114.5Y-82.0
X114.5Y-107.0
X116.92Y-70.0
X116.92Y-95.0
X119.19Y-126.0
X126.81Y-126.0
X126.92Y-80.0
X127.08Y-70.0
X127.08Y-95.0
X135.0Y-99.92
X135.0Y-110.08
X137.08Y-80.0
X139.0Y-112.92
X139.0Y-123.08
T3
X61.38Y-124.0
X76.62Y-124.0
T4
X55.0Y-69.46
X55.0Y-72.0
X55.0Y-74.54
X55.0Y-105.46
X55.0Y-108.0
X55.0Y-110.54
X140.0Y-71.46
X140.0Y-74.0
X140.0Y-76.54
T5
X131.92Y-62.0
X131.92Y-87.0
X142.08Y-62.0
X142.08Y-87.0
M30
