G04 #@! TF.GenerationSoftware,KiCad,Pcbnew,9.0.2+dfsg-1*
G04 #@! TF.CreationDate,2026-10-09T12:30:48+00:00*
G04 #@! TF.ProjectId,Ardor_Headphones_THT,4172646f-725f-4486-9561-6470686f6e65,rev?*
G04 #@! TF.SameCoordinates,Original*
G04 #@! TF.FileFunction,Copper,L1,Top*
G04 #@! TF.FilePolarity,Positive*
%FSLAX46Y46*%
G04 Gerber Fmt 4.6, Leading zero omitted, Abs format (unit mm)*
G04 Created by KiCad (PCBNEW 9.0.2+dfsg-1) date 2026-10-09 12:30:48*
%MOMM*%
%LPD*%
G01*
G04 APERTURE LIST*
G04 Aperture macros list*
%AMRoundRect*
0 Rectangle with rounded corners*
0 $1 Rounding radius*
0 $2 $3 $4 $5 $6 $7 $8 $9 X,Y pos of 4 corners*
0 Add a 4 corners polygon primitive as box body*
4,1,4,$2,$3,$4,$5,$6,$7,$8,$9,$2,$3,0*
0 Add four circle primitives for the rounded corners*
1,1,$1+$1,$2,$3*
1,1,$1+$1,$4,$5*
1,1,$1+$1,$6,$7*
1,1,$1+$1,$8,$9*
0 Add four rect primitives between the rounded corners*
20,1,$1+$1,$2,$3,$4,$5,0*
20,1,$1+$1,$4,$5,$6,$7,0*
20,1,$1+$1,$6,$7,$8,$9,0*
20,1,$1+$1,$8,$9,$2,$3,0*%
G04 Aperture macros list end*
G04 #@! TA.AperFunction,ComponentPad*
%ADD10RoundRect,0.250000X-0.550000X-0.550000X0.550000X-0.550000X0.550000X0.550000X-0.550000X0.550000X0*%
G04 #@! TD*
G04 #@! TA.AperFunction,ComponentPad*
%ADD11C,1.600000*%
G04 #@! TD*
G04 #@! TA.AperFunction,ComponentPad*
%ADD12R,1.400000X1.400000*%
G04 #@! TD*
G04 #@! TA.AperFunction,ComponentPad*
%ADD13C,1.400000*%
G04 #@! TD*
G04 #@! TA.AperFunction,ComponentPad*
%ADD14R,1.700000X1.700000*%
G04 #@! TD*
G04 #@! TA.AperFunction,ComponentPad*
%ADD15C,1.700000*%
G04 #@! TD*
G04 #@! TA.AperFunction,ComponentPad*
%ADD16C,2.000000*%
G04 #@! TD*
G04 #@! TA.AperFunction,SMDPad,CuDef*
%ADD17RoundRect,0.150000X-0.825000X-0.150000X0.825000X-0.150000X0.825000X0.150000X-0.825000X0.150000X0*%
G04 #@! TD*
G04 #@! TA.AperFunction,ComponentPad*
%ADD18RoundRect,0.250000X-1.050000X-1.050000X1.050000X-1.050000X1.050000X1.050000X-1.050000X1.050000X0*%
G04 #@! TD*
G04 #@! TA.AperFunction,ComponentPad*
%ADD19C,2.600000*%
G04 #@! TD*
G04 #@! TA.AperFunction,ComponentPad*
%ADD20R,1.500000X1.500000*%
G04 #@! TD*
G04 #@! TA.AperFunction,ComponentPad*
%ADD21C,1.500000*%
G04 #@! TD*
G04 #@! TA.AperFunction,Conductor*
%ADD22C,0.200000*%
G04 #@! TD*
G04 #@! TA.AperFunction,Conductor*
%ADD23C,0.600000*%
G04 #@! TD*
G04 APERTURE END LIST*
D10*
X121750000Y-82500000D03*
D11*
X124250000Y-82500000D03*
X101770000Y-82500000D03*
X99230000Y-82500000D03*
X90500000Y-91000000D03*
X95500000Y-91000000D03*
X105500000Y-128000000D03*
X110500000Y-128000000D03*
D10*
X113250000Y-109000000D03*
D11*
X116750000Y-109000000D03*
D12*
X121190000Y-103110000D03*
D13*
X121190000Y-110730000D03*
X121190000Y-115810000D03*
X121190000Y-120890000D03*
X128810000Y-120890000D03*
X128810000Y-115810000D03*
X128810000Y-110730000D03*
X128810000Y-103110000D03*
D11*
X100920000Y-103000000D03*
X111080000Y-103000000D03*
X139000000Y-123080000D03*
X139000000Y-112920000D03*
D10*
X89750000Y-127000000D03*
D11*
X92250000Y-127000000D03*
X97000000Y-125080000D03*
X97000000Y-114920000D03*
D10*
X92750000Y-100000000D03*
D11*
X95250000Y-100000000D03*
D10*
X119190000Y-126000000D03*
D11*
X126810000Y-126000000D03*
D10*
X64750000Y-81230000D03*
D11*
X67250000Y-81230000D03*
D14*
X55000000Y-105460000D03*
D15*
X55000000Y-108000000D03*
X55000000Y-110540000D03*
D11*
X85000000Y-74000000D03*
X90000000Y-74000000D03*
X81000000Y-73080000D03*
X81000000Y-62920000D03*
D14*
X55000000Y-69460000D03*
D15*
X55000000Y-72000000D03*
X55000000Y-74540000D03*
D11*
X116080000Y-82500000D03*
X105920000Y-82500000D03*
X105920000Y-100000000D03*
X116080000Y-100000000D03*
D16*
X61380000Y-124000000D03*
X76620000Y-124000000D03*
D11*
X77920000Y-103000000D03*
X88080000Y-103000000D03*
D17*
X91525000Y-80595000D03*
X91525000Y-81865000D03*
X91525000Y-83135000D03*
X91525000Y-84405000D03*
X96475000Y-84405000D03*
X96475000Y-83135000D03*
X96475000Y-81865000D03*
X96475000Y-80595000D03*
D18*
X127380000Y-59500000D03*
D19*
X142620000Y-59500000D03*
D11*
X135000000Y-110080000D03*
X135000000Y-99920000D03*
X103000000Y-89000000D03*
X98000000Y-89000000D03*
D18*
X127380000Y-90000000D03*
D19*
X142620000Y-90000000D03*
D14*
X140000000Y-71460000D03*
D15*
X140000000Y-74000000D03*
X140000000Y-76540000D03*
D11*
X79920000Y-120000000D03*
X90080000Y-120000000D03*
D10*
X106250000Y-66000000D03*
D11*
X109750000Y-66000000D03*
X100000000Y-78750000D03*
X100000000Y-76250000D03*
X72420000Y-81230000D03*
X82580000Y-81230000D03*
X86230000Y-81230000D03*
X88770000Y-81230000D03*
D20*
X104460000Y-119000000D03*
D21*
X107000000Y-119000000D03*
X109540000Y-119000000D03*
D11*
X128000000Y-75080000D03*
X128000000Y-64920000D03*
D22*
X121190000Y-104111700D02*
X119190000Y-106111700D01*
X119190000Y-106111700D02*
X119190000Y-126000000D01*
X55000000Y-105460000D02*
X55000000Y-106611700D01*
X55287900Y-106611700D02*
X55000000Y-106611700D01*
X121190000Y-103110000D02*
X121190000Y-104111700D01*
X61380000Y-112703800D02*
X55287900Y-106611700D01*
X61380000Y-124000000D02*
X61380000Y-112703800D01*
X76620000Y-104300000D02*
X77920000Y-103000000D01*
X96475000Y-80595000D02*
X100000000Y-78750000D01*
X90473600Y-82500000D02*
X77920000Y-95053600D01*
X96150900Y-80595000D02*
X96475000Y-80595000D01*
X77920000Y-95053600D02*
X77920000Y-103000000D01*
X96150900Y-80280000D02*
X96150900Y-80595000D01*
X94060200Y-82500000D02*
X90473600Y-82500000D01*
X96150900Y-80595000D02*
X95965200Y-80595000D01*
X76620000Y-124000000D02*
X76620000Y-104300000D01*
X95965200Y-80595000D02*
X94060200Y-82500000D01*
D23*
X142620000Y-59500000D02*
X142620000Y-90000000D01*
X142620000Y-119460000D02*
X142620000Y-90000000D01*
X139000000Y-123080000D02*
X142620000Y-119460000D01*
D22*
X123978000Y-85401100D02*
X123978000Y-118102000D01*
X123978000Y-118102000D02*
X121190000Y-120890000D01*
X128000000Y-81379100D02*
X123978000Y-85401100D01*
X128000000Y-75080000D02*
X128000000Y-81379100D01*
X135000000Y-114700000D02*
X128810000Y-120890000D01*
X135000000Y-110080000D02*
X135000000Y-114700000D01*
X121190000Y-110730000D02*
X123071500Y-108848500D01*
X123071500Y-108848500D02*
X123071500Y-63808500D01*
X123071500Y-63808500D02*
X127380000Y-59500000D01*
X140000000Y-74000000D02*
X129230500Y-84769500D01*
X129230500Y-84769500D02*
X129230500Y-90000000D01*
X129850400Y-109689600D02*
X128810000Y-110730000D01*
X127380000Y-90000000D02*
X129230500Y-90000000D01*
X129850400Y-90619900D02*
X129850400Y-109689600D01*
X129230500Y-90000000D02*
X129850400Y-90619900D01*
X126810000Y-105110000D02*
X126810000Y-126000000D01*
X128810000Y-103110000D02*
X126810000Y-105110000D01*
X93316100Y-84405000D02*
X93316100Y-88183900D01*
X92046100Y-83135000D02*
X93316100Y-84405000D01*
X90500000Y-91000000D02*
X92750000Y-93250000D01*
X91525000Y-83135000D02*
X92046100Y-83135000D01*
X93316100Y-84405000D02*
X96475000Y-84405000D01*
X93316100Y-88183900D02*
X90500000Y-91000000D01*
X92750000Y-93250000D02*
X92750000Y-100000000D01*
X116080000Y-100000000D02*
X116080000Y-106170000D01*
X116080000Y-106170000D02*
X113250000Y-109000000D01*
X86230000Y-81230000D02*
X85000000Y-74000000D01*
X91525000Y-78000000D02*
X86229999Y-78000000D01*
X86229999Y-78000000D02*
X86230000Y-81230000D01*
X91525000Y-80595000D02*
X91525000Y-78000000D01*
X103500000Y-82500000D02*
X101770000Y-82500000D01*
X101770000Y-82500000D02*
X103000000Y-89000000D01*
X98000000Y-81865000D02*
X98000000Y-80500000D01*
X96475000Y-81865000D02*
X98000000Y-81865000D01*
X105920000Y-100000000D02*
X103000000Y-97080000D01*
X103000000Y-97080000D02*
X103000000Y-89000000D01*
X103500000Y-80500000D02*
X103500000Y-82500000D01*
X98000000Y-80500000D02*
X103500000Y-80500000D01*
X64750000Y-80073800D02*
X55287900Y-70611700D01*
X55000000Y-69460000D02*
X55000000Y-70611700D01*
X55287900Y-70611700D02*
X55000000Y-70611700D01*
X64750000Y-81230000D02*
X64750000Y-80073800D01*
X94000000Y-81865000D02*
X94000000Y-74000000D01*
X94000000Y-74000000D02*
X90000000Y-74000000D01*
X91525000Y-81865000D02*
X94000000Y-81865000D01*
X91525000Y-81865000D02*
X88770000Y-81230000D01*
X99230000Y-82500000D02*
X98000000Y-89000000D01*
X96475000Y-83135000D02*
X99230000Y-82500000D01*
G04 #@! TA.AperFunction,Conductor*
G36*
X145458691Y-50519407D02*
G01*
X145494655Y-50568907D01*
X145499500Y-50599500D01*
X145499500Y-133400500D01*
X145480593Y-133458691D01*
X145431093Y-133494655D01*
X145400500Y-133499500D01*
X50599500Y-133499500D01*
X50541309Y-133480593D01*
X50505345Y-133431093D01*
X50500500Y-133400500D01*
X50500500Y-130893709D01*
X51649500Y-130893709D01*
X51649500Y-131106290D01*
X51682752Y-131316238D01*
X51748443Y-131518412D01*
X51844948Y-131707815D01*
X51844950Y-131707819D01*
X51969891Y-131879786D01*
X51969893Y-131879788D01*
X51969896Y-131879792D01*
X52120208Y-132030104D01*
X52120211Y-132030106D01*
X52120213Y-132030108D01*
X52292180Y-132155049D01*
X52292184Y-132155051D01*
X52481588Y-132251557D01*
X52683757Y-132317246D01*
X52683758Y-132317246D01*
X52683761Y-132317247D01*
X52893710Y-132350500D01*
X52893713Y-132350500D01*
X53106290Y-132350500D01*
X53316238Y-132317247D01*
X53316239Y-132317246D01*
X53316243Y-132317246D01*
X53518412Y-132251557D01*
X53707816Y-132155051D01*
X53879792Y-132030104D01*
X54030104Y-131879792D01*
X54155051Y-131707816D01*
X54251557Y-131518412D01*
X54317246Y-131316243D01*
X54350500Y-131106287D01*
X54350500Y-130893713D01*
X54350500Y-130893709D01*
X54317247Y-130683761D01*
X54317246Y-130683757D01*
X54251557Y-130481588D01*
X54155051Y-130292184D01*
X54155049Y-130292180D01*
X54030108Y-130120213D01*
X54030106Y-130120211D01*
X54030104Y-130120208D01*
X53879792Y-129969896D01*
X53879788Y-129969893D01*
X53879786Y-129969891D01*
X53707819Y-129844950D01*
X53707815Y-129844948D01*
X53518412Y-129748443D01*
X53316238Y-129682752D01*
X53106290Y-129649500D01*
X53106287Y-129649500D01*
X52893713Y-129649500D01*
X52893710Y-129649500D01*
X52683761Y-129682752D01*
X52481587Y-129748443D01*
X52292184Y-129844948D01*
X52292180Y-129844950D01*
X52120213Y-129969891D01*
X51969891Y-130120213D01*
X51844950Y-130292180D01*
X51844948Y-130292184D01*
X51748443Y-130481587D01*
X51682752Y-130683761D01*
X51649500Y-130893709D01*
X50500500Y-130893709D01*
X50500500Y-126395725D01*
X88749500Y-126395725D01*
X88749500Y-127604274D01*
X88752353Y-127634694D01*
X88752355Y-127634703D01*
X88797207Y-127762883D01*
X88877845Y-127872144D01*
X88877847Y-127872146D01*
X88877850Y-127872150D01*
X88877853Y-127872152D01*
X88877855Y-127872154D01*
X88987116Y-127952792D01*
X88987117Y-127952792D01*
X88987118Y-127952793D01*
X89115301Y-127997646D01*
X89145725Y-128000499D01*
X89145727Y-128000500D01*
X89145734Y-128000500D01*
X90354273Y-128000500D01*
X90354273Y-128000499D01*
X90384699Y-127997646D01*
X90512882Y-127952793D01*
X90622150Y-127872150D01*
X90702793Y-127762882D01*
X90747646Y-127634699D01*
X90750499Y-127604273D01*
X90750500Y-127604273D01*
X90750500Y-126896581D01*
X91200000Y-126896581D01*
X91200000Y-127103418D01*
X91240349Y-127306272D01*
X91319501Y-127497361D01*
X91408022Y-127629843D01*
X91879532Y-127158332D01*
X91929920Y-127245606D01*
X92004394Y-127320080D01*
X92091665Y-127370465D01*
X91620154Y-127841977D01*
X91752625Y-127930491D01*
X91752639Y-127930498D01*
X91943727Y-128009650D01*
X92146581Y-128049999D01*
X92146586Y-128050000D01*
X92353414Y-128050000D01*
X92353418Y-128049999D01*
X92556272Y-128009650D01*
X92747360Y-127930498D01*
X92790825Y-127901456D01*
X104499500Y-127901456D01*
X104499500Y-128098543D01*
X104537949Y-128291834D01*
X104537949Y-128291836D01*
X104613367Y-128473913D01*
X104613368Y-128473914D01*
X104722861Y-128637782D01*
X104862218Y-128777139D01*
X105026086Y-128886632D01*
X105208165Y-128962051D01*
X105401459Y-129000500D01*
X105401460Y-129000500D01*
X105598540Y-129000500D01*
X105598541Y-129000500D01*
X105791835Y-128962051D01*
X105973914Y-128886632D01*
X106137782Y-128777139D01*
X106277139Y-128637782D01*
X106386632Y-128473914D01*
X106462051Y-128291835D01*
X106500500Y-128098541D01*
X106500500Y-127901459D01*
X106500499Y-127901456D01*
X106499529Y-127896581D01*
X109450000Y-127896581D01*
X109450000Y-128103418D01*
X109490349Y-128306272D01*
X109569501Y-128497361D01*
X109658022Y-128629843D01*
X110129532Y-128158332D01*
X110179920Y-128245606D01*
X110254394Y-128320080D01*
X110341665Y-128370465D01*
X109870154Y-128841977D01*
X110002625Y-128930491D01*
X110002639Y-128930498D01*
X110193727Y-129009650D01*
X110396581Y-129049999D01*
X110396586Y-129050000D01*
X110603414Y-129050000D01*
X110603418Y-129049999D01*
X110806272Y-129009650D01*
X110997360Y-128930498D01*
X111129843Y-128841976D01*
X110658333Y-128370466D01*
X110745606Y-128320080D01*
X110820080Y-128245606D01*
X110870466Y-128158333D01*
X111341976Y-128629843D01*
X111430498Y-128497360D01*
X111509650Y-128306272D01*
X111549999Y-128103418D01*
X111550000Y-128103413D01*
X111550000Y-127896586D01*
X111549999Y-127896581D01*
X111509650Y-127693727D01*
X111430498Y-127502639D01*
X111430491Y-127502625D01*
X111341976Y-127370154D01*
X110870465Y-127841665D01*
X110820080Y-127754394D01*
X110745606Y-127679920D01*
X110658332Y-127629532D01*
X111129843Y-127158022D01*
X110997361Y-127069501D01*
X110806272Y-126990349D01*
X110603418Y-126950000D01*
X110396581Y-126950000D01*
X110193727Y-126990349D01*
X110002638Y-127069501D01*
X109870155Y-127158022D01*
X110341666Y-127629533D01*
X110254394Y-127679920D01*
X110179920Y-127754394D01*
X110129533Y-127841666D01*
X109658022Y-127370155D01*
X109569501Y-127502638D01*
X109490349Y-127693727D01*
X109450000Y-127896581D01*
X106499529Y-127896581D01*
X106488668Y-127841976D01*
X106462051Y-127708165D01*
X106386632Y-127526086D01*
X106277139Y-127362218D01*
X106137782Y-127222861D01*
X105973914Y-127113368D01*
X105973915Y-127113368D01*
X105973913Y-127113367D01*
X105791835Y-127037949D01*
X105598543Y-126999500D01*
X105598541Y-126999500D01*
X105401459Y-126999500D01*
X105401456Y-126999500D01*
X105208165Y-127037949D01*
X105208163Y-127037949D01*
X105026086Y-127113367D01*
X104862218Y-127222861D01*
X104862214Y-127222864D01*
X104722864Y-127362214D01*
X104722861Y-127362218D01*
X104613367Y-127526086D01*
X104537949Y-127708163D01*
X104537949Y-127708165D01*
X104499500Y-127901456D01*
X92790825Y-127901456D01*
X92879843Y-127841976D01*
X92408333Y-127370466D01*
X92495606Y-127320080D01*
X92570080Y-127245606D01*
X92620466Y-127158333D01*
X93091976Y-127629843D01*
X93180498Y-127497360D01*
X93259650Y-127306272D01*
X93299999Y-127103418D01*
X93300000Y-127103413D01*
X93300000Y-126896586D01*
X93299999Y-126896581D01*
X93259650Y-126693727D01*
X93180498Y-126502639D01*
X93180491Y-126502625D01*
X93091976Y-126370154D01*
X92620465Y-126841665D01*
X92570080Y-126754394D01*
X92495606Y-126679920D01*
X92408332Y-126629532D01*
X92879843Y-126158022D01*
X92747361Y-126069501D01*
X92556272Y-125990349D01*
X92353418Y-125950000D01*
X92146581Y-125950000D01*
X91943727Y-125990349D01*
X91752638Y-126069501D01*
X91620155Y-126158022D01*
X92091666Y-126629533D01*
X92004394Y-126679920D01*
X91929920Y-126754394D01*
X91879533Y-126841666D01*
X91408022Y-126370155D01*
X91319501Y-126502638D01*
X91240349Y-126693727D01*
X91200000Y-126896581D01*
X90750500Y-126896581D01*
X90750500Y-126395727D01*
X90750499Y-126395725D01*
X90747646Y-126365305D01*
X90747646Y-126365301D01*
X90702793Y-126237118D01*
X90702790Y-126237115D01*
X90702790Y-126237113D01*
X90622154Y-126127855D01*
X90622152Y-126127853D01*
X90622150Y-126127850D01*
X90622146Y-126127847D01*
X90622144Y-126127845D01*
X90512883Y-126047207D01*
X90384703Y-126002355D01*
X90384694Y-126002353D01*
X90354274Y-125999500D01*
X90354266Y-125999500D01*
X89145734Y-125999500D01*
X89145725Y-125999500D01*
X89115305Y-126002353D01*
X89115296Y-126002355D01*
X88987116Y-126047207D01*
X88877855Y-126127845D01*
X88877845Y-126127855D01*
X88797207Y-126237116D01*
X88752355Y-126365296D01*
X88752353Y-126365305D01*
X88749500Y-126395725D01*
X50500500Y-126395725D01*
X50500500Y-110436532D01*
X53949500Y-110436532D01*
X53949500Y-110643467D01*
X53989869Y-110846418D01*
X54069058Y-111037597D01*
X54184020Y-111209651D01*
X54184023Y-111209655D01*
X54330345Y-111355977D01*
X54502402Y-111470941D01*
X54693580Y-111550130D01*
X54896535Y-111590500D01*
X54896536Y-111590500D01*
X55103464Y-111590500D01*
X55103465Y-111590500D01*
X55306420Y-111550130D01*
X55497598Y-111470941D01*
X55669655Y-111355977D01*
X55815977Y-111209655D01*
X55930941Y-111037598D01*
X56010130Y-110846420D01*
X56050500Y-110643465D01*
X56050500Y-110436535D01*
X56010130Y-110233580D01*
X55930941Y-110042402D01*
X55815977Y-109870345D01*
X55669655Y-109724023D01*
X55540590Y-109637785D01*
X55497597Y-109609058D01*
X55306418Y-109529869D01*
X55103467Y-109489500D01*
X55103465Y-109489500D01*
X54896535Y-109489500D01*
X54896532Y-109489500D01*
X54693581Y-109529869D01*
X54502402Y-109609058D01*
X54330348Y-109724020D01*
X54184020Y-109870348D01*
X54069058Y-110042402D01*
X53989869Y-110233581D01*
X53949500Y-110436532D01*
X50500500Y-110436532D01*
X50500500Y-107913424D01*
X53900000Y-107913424D01*
X53900000Y-108086575D01*
X53927084Y-108257579D01*
X53980588Y-108422248D01*
X54059195Y-108576524D01*
X54059197Y-108576528D01*
X54123219Y-108664646D01*
X54556328Y-108231536D01*
X54599901Y-108307007D01*
X54692993Y-108400099D01*
X54768460Y-108443670D01*
X54335352Y-108876778D01*
X54423477Y-108940805D01*
X54577751Y-109019411D01*
X54742420Y-109072915D01*
X54913425Y-109100000D01*
X55086575Y-109100000D01*
X55257579Y-109072915D01*
X55422248Y-109019411D01*
X55576524Y-108940804D01*
X55576530Y-108940800D01*
X55664646Y-108876779D01*
X55664646Y-108876778D01*
X55231538Y-108443670D01*
X55307007Y-108400099D01*
X55400099Y-108307007D01*
X55443670Y-108231538D01*
X55876778Y-108664646D01*
X55876779Y-108664646D01*
X55940800Y-108576530D01*
X55940804Y-108576524D01*
X56019411Y-108422248D01*
X56072915Y-108257579D01*
X56100000Y-108086573D01*
X56100305Y-108082699D01*
X56101617Y-108082802D01*
X56118907Y-108029588D01*
X56168407Y-107993624D01*
X56229593Y-107993624D01*
X56269004Y-108017775D01*
X61050504Y-112799275D01*
X61078281Y-112853792D01*
X61079500Y-112869279D01*
X61079500Y-122763430D01*
X61060593Y-122821621D01*
X61011093Y-122857584D01*
X60919167Y-122887453D01*
X60750803Y-122973238D01*
X60597928Y-123084309D01*
X60464309Y-123217928D01*
X60353238Y-123370803D01*
X60267453Y-123539167D01*
X60209058Y-123718886D01*
X60179500Y-123905515D01*
X60179500Y-124094484D01*
X60209058Y-124281113D01*
X60261404Y-124442214D01*
X60267453Y-124460832D01*
X60353240Y-124629199D01*
X60464310Y-124782073D01*
X60597927Y-124915690D01*
X60750801Y-125026760D01*
X60919168Y-125112547D01*
X61098882Y-125170940D01*
X61098883Y-125170940D01*
X61098886Y-125170941D01*
X61285516Y-125200500D01*
X61285519Y-125200500D01*
X61474484Y-125200500D01*
X61661113Y-125170941D01*
X61661114Y-125170940D01*
X61661118Y-125170940D01*
X61840832Y-125112547D01*
X62009199Y-125026760D01*
X62162073Y-124915690D01*
X62295690Y-124782073D01*
X62406760Y-124629199D01*
X62492547Y-124460832D01*
X62550940Y-124281118D01*
X62564838Y-124193368D01*
X62580500Y-124094484D01*
X62580500Y-123905515D01*
X75419500Y-123905515D01*
X75419500Y-124094484D01*
X75449058Y-124281113D01*
X75501404Y-124442214D01*
X75507453Y-124460832D01*
X75593240Y-124629199D01*
X75704310Y-124782073D01*
X75837927Y-124915690D01*
X75990801Y-125026760D01*
X76159168Y-125112547D01*
X76338882Y-125170940D01*
X76338883Y-125170940D01*
X76338886Y-125170941D01*
X76525516Y-125200500D01*
X76525519Y-125200500D01*
X76714484Y-125200500D01*
X76901113Y-125170941D01*
X76901114Y-125170940D01*
X76901118Y-125170940D01*
X77080832Y-125112547D01*
X77249199Y-125026760D01*
X77311554Y-124981456D01*
X95999500Y-124981456D01*
X95999500Y-125178543D01*
X96037949Y-125371834D01*
X96037949Y-125371836D01*
X96113367Y-125553913D01*
X96113368Y-125553914D01*
X96222861Y-125717782D01*
X96362218Y-125857139D01*
X96526086Y-125966632D01*
X96708165Y-126042051D01*
X96901459Y-126080500D01*
X96901460Y-126080500D01*
X97098540Y-126080500D01*
X97098541Y-126080500D01*
X97291835Y-126042051D01*
X97473914Y-125966632D01*
X97637782Y-125857139D01*
X97777139Y-125717782D01*
X97886632Y-125553914D01*
X97952156Y-125395725D01*
X118189500Y-125395725D01*
X118189500Y-126604274D01*
X118192353Y-126634694D01*
X118192355Y-126634703D01*
X118237207Y-126762883D01*
X118317845Y-126872144D01*
X118317847Y-126872146D01*
X118317850Y-126872150D01*
X118317853Y-126872152D01*
X118317855Y-126872154D01*
X118427116Y-126952792D01*
X118427117Y-126952792D01*
X118427118Y-126952793D01*
X118555301Y-126997646D01*
X118585725Y-127000499D01*
X118585727Y-127000500D01*
X118585734Y-127000500D01*
X119794273Y-127000500D01*
X119794273Y-127000499D01*
X119824699Y-126997646D01*
X119952882Y-126952793D01*
X120062150Y-126872150D01*
X120142793Y-126762882D01*
X120187646Y-126634699D01*
X120190499Y-126604273D01*
X120190500Y-126604273D01*
X120190500Y-125901456D01*
X125809500Y-125901456D01*
X125809500Y-126098543D01*
X125847949Y-126291834D01*
X125847949Y-126291836D01*
X125923367Y-126473913D01*
X125923368Y-126473914D01*
X126032861Y-126637782D01*
X126172218Y-126777139D01*
X126336086Y-126886632D01*
X126518165Y-126962051D01*
X126711459Y-127000500D01*
X126711460Y-127000500D01*
X126908540Y-127000500D01*
X126908541Y-127000500D01*
X127101835Y-126962051D01*
X127283914Y-126886632D01*
X127447782Y-126777139D01*
X127587139Y-126637782D01*
X127696632Y-126473914D01*
X127772051Y-126291835D01*
X127810500Y-126098541D01*
X127810500Y-125901459D01*
X127772051Y-125708165D01*
X127696632Y-125526086D01*
X127587139Y-125362218D01*
X127447782Y-125222861D01*
X127283914Y-125113368D01*
X127281930Y-125112546D01*
X127171615Y-125066852D01*
X127125089Y-125027116D01*
X127110500Y-124975388D01*
X127110500Y-122981456D01*
X137999500Y-122981456D01*
X137999500Y-123178543D01*
X138025132Y-123307403D01*
X138037743Y-123370801D01*
X138037949Y-123371834D01*
X138037949Y-123371836D01*
X138113367Y-123553913D01*
X138113368Y-123553914D01*
X138222861Y-123717782D01*
X138362218Y-123857139D01*
X138526086Y-123966632D01*
X138708165Y-124042051D01*
X138901459Y-124080500D01*
X138901460Y-124080500D01*
X139098540Y-124080500D01*
X139098541Y-124080500D01*
X139291835Y-124042051D01*
X139473914Y-123966632D01*
X139637782Y-123857139D01*
X139777139Y-123717782D01*
X139886632Y-123553914D01*
X139962051Y-123371835D01*
X140000500Y-123178541D01*
X140000500Y-122981459D01*
X139978611Y-122871422D01*
X139985802Y-122810664D01*
X140005702Y-122782110D01*
X143020500Y-119767314D01*
X143037251Y-119738301D01*
X143086390Y-119653190D01*
X143086390Y-119653188D01*
X143086392Y-119653186D01*
X143120500Y-119525893D01*
X143120500Y-119394108D01*
X143120500Y-91487024D01*
X143139407Y-91428833D01*
X143188904Y-91392870D01*
X143195992Y-91390568D01*
X143406433Y-91283343D01*
X143597510Y-91144517D01*
X143764517Y-90977510D01*
X143903343Y-90786433D01*
X144010568Y-90575992D01*
X144083553Y-90351368D01*
X144089383Y-90314561D01*
X144120500Y-90118095D01*
X144120500Y-89881904D01*
X144083554Y-89648636D01*
X144083553Y-89648632D01*
X144010568Y-89424008D01*
X143903343Y-89213567D01*
X143764517Y-89022490D01*
X143597510Y-88855483D01*
X143406433Y-88716657D01*
X143406432Y-88716656D01*
X143406430Y-88716655D01*
X143195988Y-88609430D01*
X143195985Y-88609428D01*
X143188907Y-88607129D01*
X143139407Y-88571165D01*
X143120500Y-88512975D01*
X143120500Y-60987024D01*
X143139407Y-60928833D01*
X143188904Y-60892870D01*
X143195992Y-60890568D01*
X143406433Y-60783343D01*
X143597510Y-60644517D01*
X143764517Y-60477510D01*
X143903343Y-60286433D01*
X144010568Y-60075992D01*
X144083553Y-59851368D01*
X144120500Y-59618092D01*
X144120500Y-59381908D01*
X144120500Y-59381904D01*
X144083554Y-59148636D01*
X144083553Y-59148632D01*
X144010568Y-58924008D01*
X143903343Y-58713567D01*
X143764517Y-58522490D01*
X143597510Y-58355483D01*
X143406433Y-58216657D01*
X143406432Y-58216656D01*
X143406430Y-58216655D01*
X143195992Y-58109432D01*
X142971363Y-58036445D01*
X142738095Y-57999500D01*
X142738092Y-57999500D01*
X142501908Y-57999500D01*
X142501905Y-57999500D01*
X142268636Y-58036445D01*
X142044007Y-58109432D01*
X141833569Y-58216655D01*
X141642491Y-58355482D01*
X141475482Y-58522491D01*
X141336655Y-58713569D01*
X141229432Y-58924007D01*
X141156445Y-59148636D01*
X141119500Y-59381904D01*
X141119500Y-59618095D01*
X141156445Y-59851363D01*
X141156447Y-59851368D01*
X141229432Y-60075992D01*
X141336657Y-60286433D01*
X141475483Y-60477510D01*
X141642490Y-60644517D01*
X141833567Y-60783343D01*
X142044008Y-60890568D01*
X142051088Y-60892868D01*
X142100590Y-60928829D01*
X142119500Y-60987019D01*
X142119500Y-88512975D01*
X142100593Y-88571166D01*
X142051093Y-88607129D01*
X142044014Y-88609428D01*
X142044011Y-88609430D01*
X141833569Y-88716655D01*
X141642491Y-88855482D01*
X141475482Y-89022491D01*
X141336655Y-89213569D01*
X141229432Y-89424007D01*
X141156445Y-89648636D01*
X141119500Y-89881904D01*
X141119500Y-90118095D01*
X141156445Y-90351363D01*
X141229432Y-90575992D01*
X141336119Y-90785379D01*
X141336657Y-90786433D01*
X141475483Y-90977510D01*
X141642490Y-91144517D01*
X141833567Y-91283343D01*
X142044008Y-91390568D01*
X142051088Y-91392868D01*
X142100590Y-91428829D01*
X142119500Y-91487019D01*
X142119500Y-119211677D01*
X142100593Y-119269868D01*
X142090504Y-119281681D01*
X139297891Y-122074293D01*
X139243374Y-122102070D01*
X139208573Y-122101387D01*
X139098543Y-122079500D01*
X139098541Y-122079500D01*
X138901459Y-122079500D01*
X138901456Y-122079500D01*
X138708165Y-122117949D01*
X138708163Y-122117949D01*
X138526086Y-122193367D01*
X138362218Y-122302861D01*
X138362214Y-122302864D01*
X138222864Y-122442214D01*
X138222861Y-122442218D01*
X138113367Y-122606086D01*
X138037949Y-122788163D01*
X138037949Y-122788165D01*
X137999500Y-122981456D01*
X127110500Y-122981456D01*
X127110500Y-120801306D01*
X127909500Y-120801306D01*
X127909500Y-120978693D01*
X127944106Y-121152665D01*
X127944106Y-121152667D01*
X128011985Y-121316544D01*
X128011985Y-121316545D01*
X128110535Y-121464034D01*
X128110536Y-121464035D01*
X128235965Y-121589464D01*
X128383453Y-121688013D01*
X128547334Y-121755894D01*
X128721309Y-121790500D01*
X128721310Y-121790500D01*
X128898690Y-121790500D01*
X128898691Y-121790500D01*
X129072666Y-121755894D01*
X129236547Y-121688013D01*
X129384035Y-121589464D01*
X129509464Y-121464035D01*
X129608013Y-121316547D01*
X129675894Y-121152666D01*
X129710500Y-120978691D01*
X129710500Y-120801309D01*
X129675894Y-120627334D01*
X129648998Y-120562400D01*
X129644198Y-120501403D01*
X129670456Y-120454513D01*
X135240460Y-114884511D01*
X135280021Y-114815989D01*
X135300500Y-114739562D01*
X135300500Y-112816581D01*
X137950000Y-112816581D01*
X137950000Y-113023418D01*
X137990349Y-113226272D01*
X138069501Y-113417361D01*
X138158022Y-113549843D01*
X138629532Y-113078332D01*
X138679920Y-113165606D01*
X138754394Y-113240080D01*
X138841665Y-113290465D01*
X138370154Y-113761977D01*
X138502625Y-113850491D01*
X138502639Y-113850498D01*
X138693727Y-113929650D01*
X138896581Y-113969999D01*
X138896586Y-113970000D01*
X139103414Y-113970000D01*
X139103418Y-113969999D01*
X139306272Y-113929650D01*
X139497360Y-113850498D01*
X139629843Y-113761976D01*
X139158333Y-113290466D01*
X139245606Y-113240080D01*
X139320080Y-113165606D01*
X139370466Y-113078333D01*
X139841976Y-113549843D01*
X139930498Y-113417360D01*
X140009650Y-113226272D01*
X140049999Y-113023418D01*
X140050000Y-113023413D01*
X140050000Y-112816586D01*
X140049999Y-112816581D01*
X140009650Y-112613727D01*
X139930498Y-112422639D01*
X139930491Y-112422625D01*
X139841976Y-112290154D01*
X139370465Y-112761665D01*
X139320080Y-112674394D01*
X139245606Y-112599920D01*
X139158332Y-112549532D01*
X139629843Y-112078022D01*
X139497361Y-111989501D01*
X139306272Y-111910349D01*
X139103418Y-111870000D01*
X138896581Y-111870000D01*
X138693727Y-111910349D01*
X138502638Y-111989501D01*
X138370155Y-112078022D01*
X138841666Y-112549533D01*
X138754394Y-112599920D01*
X138679920Y-112674394D01*
X138629533Y-112761666D01*
X138158022Y-112290155D01*
X138069501Y-112422638D01*
X137990349Y-112613727D01*
X137950000Y-112816581D01*
X135300500Y-112816581D01*
X135300500Y-111104610D01*
X135319407Y-111046419D01*
X135361612Y-111013148D01*
X135473914Y-110966632D01*
X135637782Y-110857139D01*
X135777139Y-110717782D01*
X135886632Y-110553914D01*
X135962051Y-110371835D01*
X136000500Y-110178541D01*
X136000500Y-109981459D01*
X135962051Y-109788165D01*
X135886632Y-109606086D01*
X135777139Y-109442218D01*
X135637782Y-109302861D01*
X135473914Y-109193368D01*
X135473915Y-109193368D01*
X135473913Y-109193367D01*
X135291835Y-109117949D01*
X135098543Y-109079500D01*
X135098541Y-109079500D01*
X134901459Y-109079500D01*
X134901456Y-109079500D01*
X134708165Y-109117949D01*
X134708163Y-109117949D01*
X134526086Y-109193367D01*
X134362218Y-109302861D01*
X134362214Y-109302864D01*
X134222864Y-109442214D01*
X134222861Y-109442218D01*
X134113367Y-109606086D01*
X134037949Y-109788163D01*
X134037949Y-109788165D01*
X133999500Y-109981456D01*
X133999500Y-110178543D01*
X134037949Y-110371834D01*
X134037949Y-110371836D01*
X134113367Y-110553913D01*
X134113368Y-110553914D01*
X134222861Y-110717782D01*
X134362218Y-110857139D01*
X134484839Y-110939072D01*
X134526084Y-110966631D01*
X134526085Y-110966631D01*
X134526086Y-110966632D01*
X134638387Y-111013147D01*
X134684911Y-111052881D01*
X134699500Y-111104610D01*
X134699500Y-114534520D01*
X134680593Y-114592711D01*
X134670504Y-114604524D01*
X129245486Y-120029541D01*
X129190969Y-120057318D01*
X129137598Y-120051001D01*
X129072666Y-120024106D01*
X128898693Y-119989500D01*
X128898691Y-119989500D01*
X128721309Y-119989500D01*
X128721306Y-119989500D01*
X128547334Y-120024106D01*
X128547332Y-120024106D01*
X128383455Y-120091985D01*
X128383454Y-120091985D01*
X128235965Y-120190535D01*
X128110535Y-120315965D01*
X128011985Y-120463454D01*
X128011985Y-120463455D01*
X127944106Y-120627332D01*
X127944106Y-120627334D01*
X127909500Y-120801306D01*
X127110500Y-120801306D01*
X127110500Y-115716430D01*
X127860000Y-115716430D01*
X127860000Y-115903569D01*
X127896508Y-116087104D01*
X127896508Y-116087106D01*
X127968119Y-116259991D01*
X128040118Y-116367747D01*
X128479396Y-115928468D01*
X128483852Y-115945095D01*
X128529930Y-116024905D01*
X128595095Y-116090070D01*
X128674905Y-116136148D01*
X128691528Y-116140602D01*
X128252251Y-116579880D01*
X128360008Y-116651880D01*
X128532894Y-116723491D01*
X128716430Y-116759999D01*
X128716434Y-116760000D01*
X128903566Y-116760000D01*
X128903569Y-116759999D01*
X129087104Y-116723491D01*
X129087106Y-116723491D01*
X129259989Y-116651881D01*
X129260001Y-116651875D01*
X129367747Y-116579880D01*
X128928469Y-116140602D01*
X128945095Y-116136148D01*
X129024905Y-116090070D01*
X129090070Y-116024905D01*
X129136148Y-115945095D01*
X129140602Y-115928469D01*
X129579880Y-116367747D01*
X129651875Y-116260001D01*
X129651881Y-116259989D01*
X129723491Y-116087106D01*
X129723491Y-116087104D01*
X129759999Y-115903569D01*
X129760000Y-115903565D01*
X129760000Y-115716434D01*
X129759999Y-115716430D01*
X129723491Y-115532895D01*
X129723491Y-115532893D01*
X129651880Y-115360008D01*
X129579880Y-115252251D01*
X129140602Y-115691528D01*
X129136148Y-115674905D01*
X129090070Y-115595095D01*
X129024905Y-115529930D01*
X128945095Y-115483852D01*
X128928468Y-115479396D01*
X129367747Y-115040118D01*
X129259991Y-114968119D01*
X129087105Y-114896508D01*
X128903569Y-114860000D01*
X128716430Y-114860000D01*
X128532895Y-114896508D01*
X128532893Y-114896508D01*
X128360008Y-114968119D01*
X128252251Y-115040118D01*
X128691530Y-115479397D01*
X128674905Y-115483852D01*
X128595095Y-115529930D01*
X128529930Y-115595095D01*
X128483852Y-115674905D01*
X128479397Y-115691530D01*
X128040118Y-115252251D01*
X127968119Y-115360008D01*
X127896508Y-115532893D01*
X127896508Y-115532895D01*
X127860000Y-115716430D01*
X127110500Y-115716430D01*
X127110500Y-105275478D01*
X127129407Y-105217287D01*
X127139490Y-105205480D01*
X128374513Y-103970456D01*
X128429028Y-103942681D01*
X128482400Y-103948998D01*
X128547334Y-103975894D01*
X128721309Y-104010500D01*
X128721310Y-104010500D01*
X128898690Y-104010500D01*
X128898691Y-104010500D01*
X129072666Y-103975894D01*
X129236547Y-103908013D01*
X129384035Y-103809464D01*
X129384038Y-103809461D01*
X129387799Y-103806376D01*
X129389389Y-103808314D01*
X129435250Y-103784851D01*
X129495698Y-103794322D01*
X129539035Y-103837514D01*
X129549900Y-103882606D01*
X129549900Y-109524121D01*
X129530993Y-109582312D01*
X129520903Y-109594125D01*
X129245486Y-109869541D01*
X129190970Y-109897318D01*
X129137598Y-109891001D01*
X129072666Y-109864106D01*
X128898693Y-109829500D01*
X128898691Y-109829500D01*
X128721309Y-109829500D01*
X128721306Y-109829500D01*
X128547334Y-109864106D01*
X128547332Y-109864106D01*
X128383455Y-109931985D01*
X128383454Y-109931985D01*
X128235965Y-110030535D01*
X128110535Y-110155965D01*
X128011985Y-110303454D01*
X128011985Y-110303455D01*
X127944106Y-110467332D01*
X127944106Y-110467334D01*
X127909500Y-110641306D01*
X127909500Y-110818693D01*
X127917148Y-110857139D01*
X127938927Y-110966632D01*
X127944106Y-110992665D01*
X127944106Y-110992667D01*
X128011985Y-111156544D01*
X128011985Y-111156545D01*
X128110535Y-111304034D01*
X128110536Y-111304035D01*
X128235965Y-111429464D01*
X128383453Y-111528013D01*
X128547334Y-111595894D01*
X128721309Y-111630500D01*
X128721310Y-111630500D01*
X128898690Y-111630500D01*
X128898691Y-111630500D01*
X129072666Y-111595894D01*
X129236547Y-111528013D01*
X129384035Y-111429464D01*
X129509464Y-111304035D01*
X129608013Y-111156547D01*
X129675894Y-110992666D01*
X129710500Y-110818691D01*
X129710500Y-110641309D01*
X129675894Y-110467334D01*
X129648996Y-110402397D01*
X129644196Y-110341404D01*
X129670456Y-110294513D01*
X130090860Y-109874111D01*
X130093499Y-109869541D01*
X130130420Y-109805592D01*
X130130420Y-109805590D01*
X130130422Y-109805588D01*
X130150900Y-109729162D01*
X130150900Y-109650038D01*
X130150900Y-99816581D01*
X133950000Y-99816581D01*
X133950000Y-100023418D01*
X133990349Y-100226272D01*
X134069501Y-100417361D01*
X134158022Y-100549843D01*
X134629532Y-100078332D01*
X134679920Y-100165606D01*
X134754394Y-100240080D01*
X134841665Y-100290465D01*
X134370154Y-100761977D01*
X134502625Y-100850491D01*
X134502639Y-100850498D01*
X134693727Y-100929650D01*
X134896581Y-100969999D01*
X134896586Y-100970000D01*
X135103414Y-100970000D01*
X135103418Y-100969999D01*
X135306272Y-100929650D01*
X135497360Y-100850498D01*
X135629843Y-100761976D01*
X135158333Y-100290466D01*
X135245606Y-100240080D01*
X135320080Y-100165606D01*
X135370466Y-100078333D01*
X135841976Y-100549843D01*
X135930498Y-100417360D01*
X136009650Y-100226272D01*
X136049999Y-100023418D01*
X136050000Y-100023413D01*
X136050000Y-99816586D01*
X136049999Y-99816581D01*
X136009650Y-99613727D01*
X135930498Y-99422639D01*
X135930491Y-99422625D01*
X135841976Y-99290154D01*
X135370465Y-99761665D01*
X135320080Y-99674394D01*
X135245606Y-99599920D01*
X135158332Y-99549532D01*
X135629843Y-99078022D01*
X135497361Y-98989501D01*
X135306272Y-98910349D01*
X135103418Y-98870000D01*
X134896581Y-98870000D01*
X134693727Y-98910349D01*
X134502638Y-98989501D01*
X134370155Y-99078022D01*
X134841666Y-99549533D01*
X134754394Y-99599920D01*
X134679920Y-99674394D01*
X134629533Y-99761666D01*
X134158022Y-99290155D01*
X134069501Y-99422638D01*
X133990349Y-99613727D01*
X133950000Y-99816581D01*
X130150900Y-99816581D01*
X130150900Y-90580338D01*
X130130421Y-90503911D01*
X130121220Y-90487975D01*
X130090860Y-90435389D01*
X130034911Y-90379439D01*
X130034911Y-90379440D01*
X129559996Y-89904525D01*
X129532219Y-89850008D01*
X129531000Y-89834521D01*
X129531000Y-84934978D01*
X129549907Y-84876787D01*
X129559990Y-84864980D01*
X137971545Y-76453424D01*
X138900000Y-76453424D01*
X138900000Y-76626575D01*
X138927084Y-76797579D01*
X138980588Y-76962248D01*
X139059195Y-77116524D01*
X139059197Y-77116528D01*
X139123219Y-77204646D01*
X139556328Y-76771536D01*
X139599901Y-76847007D01*
X139692993Y-76940099D01*
X139768460Y-76983670D01*
X139335352Y-77416778D01*
X139423477Y-77480805D01*
X139577751Y-77559411D01*
X139742420Y-77612915D01*
X139913425Y-77640000D01*
X140086575Y-77640000D01*
X140257579Y-77612915D01*
X140422248Y-77559411D01*
X140576524Y-77480804D01*
X140576530Y-77480800D01*
X140664646Y-77416779D01*
X140664646Y-77416778D01*
X140231538Y-76983670D01*
X140307007Y-76940099D01*
X140400099Y-76847007D01*
X140443670Y-76771538D01*
X140876778Y-77204646D01*
X140876779Y-77204646D01*
X140940800Y-77116530D01*
X140940804Y-77116524D01*
X141019411Y-76962248D01*
X141072915Y-76797579D01*
X141100000Y-76626575D01*
X141100000Y-76453424D01*
X141072915Y-76282420D01*
X141019411Y-76117751D01*
X140940805Y-75963477D01*
X140876778Y-75875352D01*
X140443670Y-76308460D01*
X140400099Y-76232993D01*
X140307007Y-76139901D01*
X140231536Y-76096328D01*
X140664646Y-75663219D01*
X140576528Y-75599197D01*
X140576524Y-75599195D01*
X140422248Y-75520588D01*
X140257579Y-75467084D01*
X140086575Y-75440000D01*
X139913425Y-75440000D01*
X139742420Y-75467084D01*
X139577751Y-75520588D01*
X139423476Y-75599195D01*
X139335352Y-75663219D01*
X139768461Y-76096328D01*
X139692993Y-76139901D01*
X139599901Y-76232993D01*
X139556328Y-76308461D01*
X139123219Y-75875352D01*
X139059195Y-75963476D01*
X138980588Y-76117751D01*
X138927084Y-76282420D01*
X138900000Y-76453424D01*
X137971545Y-76453424D01*
X139449708Y-74975261D01*
X139504223Y-74947486D01*
X139557595Y-74953802D01*
X139693580Y-75010130D01*
X139896535Y-75050500D01*
X139896536Y-75050500D01*
X140103464Y-75050500D01*
X140103465Y-75050500D01*
X140306420Y-75010130D01*
X140497598Y-74930941D01*
X140669655Y-74815977D01*
X140815977Y-74669655D01*
X140930941Y-74497598D01*
X141010130Y-74306420D01*
X141050500Y-74103465D01*
X141050500Y-73896535D01*
X141010130Y-73693580D01*
X140930941Y-73502402D01*
X140815977Y-73330345D01*
X140669655Y-73184023D01*
X140563912Y-73113368D01*
X140497597Y-73069058D01*
X140306418Y-72989869D01*
X140103467Y-72949500D01*
X140103465Y-72949500D01*
X139896535Y-72949500D01*
X139896532Y-72949500D01*
X139693581Y-72989869D01*
X139502402Y-73069058D01*
X139330348Y-73184020D01*
X139184020Y-73330348D01*
X139069058Y-73502402D01*
X138989869Y-73693581D01*
X138949500Y-73896532D01*
X138949500Y-74103467D01*
X138989869Y-74306418D01*
X138989870Y-74306420D01*
X139046118Y-74442214D01*
X139046196Y-74442401D01*
X139050997Y-74503398D01*
X139024736Y-74550291D01*
X129045989Y-84529040D01*
X129045988Y-84529039D01*
X128990039Y-84584989D01*
X128950480Y-84653507D01*
X128950478Y-84653511D01*
X128930000Y-84729935D01*
X128930000Y-88567970D01*
X128911093Y-88626161D01*
X128861593Y-88662125D01*
X128800407Y-88662125D01*
X128758543Y-88631949D01*
X128757396Y-88633097D01*
X128752152Y-88627853D01*
X128752150Y-88627850D01*
X128752146Y-88627847D01*
X128752144Y-88627845D01*
X128642883Y-88547207D01*
X128514703Y-88502355D01*
X128514694Y-88502353D01*
X128484274Y-88499500D01*
X128484266Y-88499500D01*
X126275734Y-88499500D01*
X126275725Y-88499500D01*
X126245305Y-88502353D01*
X126245296Y-88502355D01*
X126117116Y-88547207D01*
X126007855Y-88627845D01*
X126007845Y-88627855D01*
X125927207Y-88737116D01*
X125882355Y-88865296D01*
X125882353Y-88865305D01*
X125879500Y-88895725D01*
X125879500Y-91104274D01*
X125882353Y-91134694D01*
X125882355Y-91134703D01*
X125927207Y-91262883D01*
X126007845Y-91372144D01*
X126007847Y-91372146D01*
X126007850Y-91372150D01*
X126007853Y-91372152D01*
X126007855Y-91372154D01*
X126117116Y-91452792D01*
X126117117Y-91452792D01*
X126117118Y-91452793D01*
X126245301Y-91497646D01*
X126275725Y-91500499D01*
X126275727Y-91500500D01*
X126275734Y-91500500D01*
X128484273Y-91500500D01*
X128484273Y-91500499D01*
X128514699Y-91497646D01*
X128642882Y-91452793D01*
X128752150Y-91372150D01*
X128832793Y-91262882D01*
X128877646Y-91134699D01*
X128880499Y-91104273D01*
X128880500Y-91104273D01*
X128880500Y-90399500D01*
X128885345Y-90384588D01*
X128885345Y-90368907D01*
X128894561Y-90356221D01*
X128899407Y-90341309D01*
X128912092Y-90332092D01*
X128921309Y-90319407D01*
X128936221Y-90314561D01*
X128948907Y-90305345D01*
X128979500Y-90300500D01*
X129065021Y-90300500D01*
X129123212Y-90319407D01*
X129135025Y-90329496D01*
X129520904Y-90715375D01*
X129548681Y-90769892D01*
X129549900Y-90785379D01*
X129549900Y-102337393D01*
X129530993Y-102395584D01*
X129481493Y-102431548D01*
X129420307Y-102431548D01*
X129388889Y-102412295D01*
X129387799Y-102413624D01*
X129384038Y-102410538D01*
X129236544Y-102311985D01*
X129072666Y-102244106D01*
X128898693Y-102209500D01*
X128898691Y-102209500D01*
X128721309Y-102209500D01*
X128721306Y-102209500D01*
X128547334Y-102244106D01*
X128547332Y-102244106D01*
X128383455Y-102311985D01*
X128383454Y-102311985D01*
X128235965Y-102410535D01*
X128110535Y-102535965D01*
X128011985Y-102683454D01*
X128011985Y-102683455D01*
X127944106Y-102847332D01*
X127944106Y-102847334D01*
X127909500Y-103021306D01*
X127909500Y-103198693D01*
X127944106Y-103372665D01*
X127944106Y-103372667D01*
X127971001Y-103437598D01*
X127975801Y-103498595D01*
X127949541Y-103545487D01*
X126625489Y-104869540D01*
X126625488Y-104869539D01*
X126569539Y-104925489D01*
X126529980Y-104994007D01*
X126529978Y-104994011D01*
X126509500Y-105070435D01*
X126509500Y-124975388D01*
X126490593Y-125033579D01*
X126448385Y-125066852D01*
X126336087Y-125113367D01*
X126172218Y-125222861D01*
X126172214Y-125222864D01*
X126032864Y-125362214D01*
X126032861Y-125362218D01*
X125923367Y-125526086D01*
X125847949Y-125708163D01*
X125847949Y-125708165D01*
X125809500Y-125901456D01*
X120190500Y-125901456D01*
X120190500Y-125395727D01*
X120190499Y-125395725D01*
X120188259Y-125371836D01*
X120187646Y-125365301D01*
X120142793Y-125237118D01*
X120132273Y-125222864D01*
X120062154Y-125127855D01*
X120062152Y-125127853D01*
X120062150Y-125127850D01*
X120062146Y-125127847D01*
X120062144Y-125127845D01*
X119952883Y-125047207D01*
X119824703Y-125002355D01*
X119824694Y-125002353D01*
X119794274Y-124999500D01*
X119794266Y-124999500D01*
X119589500Y-124999500D01*
X119531309Y-124980593D01*
X119495345Y-124931093D01*
X119490500Y-124900500D01*
X119490500Y-120801306D01*
X120289500Y-120801306D01*
X120289500Y-120978693D01*
X120324106Y-121152665D01*
X120324106Y-121152667D01*
X120391985Y-121316544D01*
X120391985Y-121316545D01*
X120490535Y-121464034D01*
X120490536Y-121464035D01*
X120615965Y-121589464D01*
X120763453Y-121688013D01*
X120927334Y-121755894D01*
X121101309Y-121790500D01*
X121101310Y-121790500D01*
X121278690Y-121790500D01*
X121278691Y-121790500D01*
X121452666Y-121755894D01*
X121616547Y-121688013D01*
X121764035Y-121589464D01*
X121889464Y-121464035D01*
X121988013Y-121316547D01*
X122055894Y-121152666D01*
X122090500Y-120978691D01*
X122090500Y-120801309D01*
X122055894Y-120627334D01*
X122028998Y-120562400D01*
X122024198Y-120501403D01*
X122050456Y-120454513D01*
X124218460Y-118286511D01*
X124227543Y-118270778D01*
X124232787Y-118261697D01*
X124245403Y-118239843D01*
X124258021Y-118217989D01*
X124278500Y-118141562D01*
X124278500Y-85566578D01*
X124297407Y-85508387D01*
X124307490Y-85496580D01*
X128240460Y-81563611D01*
X128250863Y-81545593D01*
X128255277Y-81537948D01*
X128268588Y-81514891D01*
X128280021Y-81495089D01*
X128300500Y-81418662D01*
X128300500Y-76104610D01*
X128319407Y-76046419D01*
X128361612Y-76013148D01*
X128473914Y-75966632D01*
X128637782Y-75857139D01*
X128777139Y-75717782D01*
X128886632Y-75553914D01*
X128962051Y-75371835D01*
X129000500Y-75178541D01*
X129000500Y-74981459D01*
X128962051Y-74788165D01*
X128886632Y-74606086D01*
X128777139Y-74442218D01*
X128637782Y-74302861D01*
X128473914Y-74193368D01*
X128473915Y-74193368D01*
X128473913Y-74193367D01*
X128291835Y-74117949D01*
X128098543Y-74079500D01*
X128098541Y-74079500D01*
X127901459Y-74079500D01*
X127901456Y-74079500D01*
X127708165Y-74117949D01*
X127708163Y-74117949D01*
X127526086Y-74193367D01*
X127362218Y-74302861D01*
X127362214Y-74302864D01*
X127222864Y-74442214D01*
X127222861Y-74442218D01*
X127113367Y-74606086D01*
X127037949Y-74788163D01*
X127037949Y-74788165D01*
X126999500Y-74981456D01*
X126999500Y-75178543D01*
X127037949Y-75371834D01*
X127037949Y-75371836D01*
X127113367Y-75553913D01*
X127113368Y-75553914D01*
X127222861Y-75717782D01*
X127362218Y-75857139D01*
X127471143Y-75929920D01*
X127526084Y-75966631D01*
X127526085Y-75966631D01*
X127526086Y-75966632D01*
X127638387Y-76013147D01*
X127684911Y-76052881D01*
X127699500Y-76104610D01*
X127699500Y-81213621D01*
X127680593Y-81271812D01*
X127670504Y-81283625D01*
X123793489Y-85160640D01*
X123793488Y-85160639D01*
X123737539Y-85216589D01*
X123697980Y-85285107D01*
X123697978Y-85285111D01*
X123677500Y-85361535D01*
X123677500Y-117936520D01*
X123658593Y-117994711D01*
X123648504Y-118006524D01*
X121625487Y-120029541D01*
X121570970Y-120057318D01*
X121517598Y-120051001D01*
X121452666Y-120024106D01*
X121278693Y-119989500D01*
X121278691Y-119989500D01*
X121101309Y-119989500D01*
X121101306Y-119989500D01*
X120927334Y-120024106D01*
X120927332Y-120024106D01*
X120763455Y-120091985D01*
X120763454Y-120091985D01*
X120615965Y-120190535D01*
X120490535Y-120315965D01*
X120391985Y-120463454D01*
X120391985Y-120463455D01*
X120324106Y-120627332D01*
X120324106Y-120627334D01*
X120289500Y-120801306D01*
X119490500Y-120801306D01*
X119490500Y-115716430D01*
X120240000Y-115716430D01*
X120240000Y-115903569D01*
X120276508Y-116087104D01*
X120276508Y-116087106D01*
X120348119Y-116259991D01*
X120420118Y-116367747D01*
X120859396Y-115928468D01*
X120863852Y-115945095D01*
X120909930Y-116024905D01*
X120975095Y-116090070D01*
X121054905Y-116136148D01*
X121071528Y-116140602D01*
X120632251Y-116579880D01*
X120740008Y-116651880D01*
X120912894Y-116723491D01*
X121096430Y-116759999D01*
X121096434Y-116760000D01*
X121283566Y-116760000D01*
X121283569Y-116759999D01*
X121467104Y-116723491D01*
X121467106Y-116723491D01*
X121639989Y-116651881D01*
X121640001Y-116651875D01*
X121747747Y-116579880D01*
X121308469Y-116140602D01*
X121325095Y-116136148D01*
X121404905Y-116090070D01*
X121470070Y-116024905D01*
X121516148Y-115945095D01*
X121520602Y-115928469D01*
X121959880Y-116367747D01*
X122031875Y-116260001D01*
X122031881Y-116259989D01*
X122103491Y-116087106D01*
X122103491Y-116087104D01*
X122139999Y-115903569D01*
X122140000Y-115903565D01*
X122140000Y-115716434D01*
X122139999Y-115716430D01*
X122103491Y-115532895D01*
X122103491Y-115532893D01*
X122031880Y-115360008D01*
X121959880Y-115252251D01*
X121520602Y-115691528D01*
X121516148Y-115674905D01*
X121470070Y-115595095D01*
X121404905Y-115529930D01*
X121325095Y-115483852D01*
X121308468Y-115479396D01*
X121747747Y-115040118D01*
X121639991Y-114968119D01*
X121467105Y-114896508D01*
X121283569Y-114860000D01*
X121096430Y-114860000D01*
X120912895Y-114896508D01*
X120912893Y-114896508D01*
X120740008Y-114968119D01*
X120632251Y-115040118D01*
X121071530Y-115479397D01*
X121054905Y-115483852D01*
X120975095Y-115529930D01*
X120909930Y-115595095D01*
X120863852Y-115674905D01*
X120859397Y-115691530D01*
X120420118Y-115252251D01*
X120348119Y-115360008D01*
X120276508Y-115532893D01*
X120276508Y-115532895D01*
X120240000Y-115716430D01*
X119490500Y-115716430D01*
X119490500Y-110641306D01*
X120289500Y-110641306D01*
X120289500Y-110818693D01*
X120297148Y-110857139D01*
X120318927Y-110966632D01*
X120324106Y-110992665D01*
X120324106Y-110992667D01*
X120391985Y-111156544D01*
X120391985Y-111156545D01*
X120490535Y-111304034D01*
X120490536Y-111304035D01*
X120615965Y-111429464D01*
X120763453Y-111528013D01*
X120927334Y-111595894D01*
X121101309Y-111630500D01*
X121101310Y-111630500D01*
X121278690Y-111630500D01*
X121278691Y-111630500D01*
X121452666Y-111595894D01*
X121616547Y-111528013D01*
X121764035Y-111429464D01*
X121889464Y-111304035D01*
X121988013Y-111156547D01*
X122055894Y-110992666D01*
X122090500Y-110818691D01*
X122090500Y-110641309D01*
X122055894Y-110467334D01*
X122028998Y-110402400D01*
X122024198Y-110341403D01*
X122050456Y-110294513D01*
X123311960Y-109033011D01*
X123351521Y-108964489D01*
X123372000Y-108888062D01*
X123372000Y-83275928D01*
X123390907Y-83217737D01*
X123440407Y-83181773D01*
X123501593Y-83181773D01*
X123541004Y-83205925D01*
X123612209Y-83277131D01*
X123612213Y-83277134D01*
X123612218Y-83277139D01*
X123776086Y-83386632D01*
X123958165Y-83462051D01*
X124151459Y-83500500D01*
X124151460Y-83500500D01*
X124348540Y-83500500D01*
X124348541Y-83500500D01*
X124541835Y-83462051D01*
X124723914Y-83386632D01*
X124887782Y-83277139D01*
X125027139Y-83137782D01*
X125136632Y-82973914D01*
X125212051Y-82791835D01*
X125250500Y-82598541D01*
X125250500Y-82401459D01*
X125212051Y-82208165D01*
X125136632Y-82026086D01*
X125027139Y-81862218D01*
X124887782Y-81722861D01*
X124757416Y-81635753D01*
X124723913Y-81613367D01*
X124541835Y-81537949D01*
X124348543Y-81499500D01*
X124348541Y-81499500D01*
X124151459Y-81499500D01*
X124151456Y-81499500D01*
X123958165Y-81537949D01*
X123958163Y-81537949D01*
X123776086Y-81613367D01*
X123612218Y-81722861D01*
X123612214Y-81722864D01*
X123541004Y-81794075D01*
X123486487Y-81821852D01*
X123426055Y-81812281D01*
X123382790Y-81769016D01*
X123372000Y-81724071D01*
X123372000Y-70590253D01*
X138949500Y-70590253D01*
X138949500Y-72329746D01*
X138949501Y-72329758D01*
X138961132Y-72388227D01*
X138961134Y-72388233D01*
X139005445Y-72454548D01*
X139005448Y-72454552D01*
X139071769Y-72498867D01*
X139116231Y-72507711D01*
X139130241Y-72510498D01*
X139130246Y-72510498D01*
X139130252Y-72510500D01*
X139130253Y-72510500D01*
X140869747Y-72510500D01*
X140869748Y-72510500D01*
X140928231Y-72498867D01*
X140994552Y-72454552D01*
X141038867Y-72388231D01*
X141050500Y-72329748D01*
X141050500Y-70590252D01*
X141038867Y-70531769D01*
X140994552Y-70465448D01*
X140994548Y-70465445D01*
X140928233Y-70421134D01*
X140928231Y-70421133D01*
X140928228Y-70421132D01*
X140928227Y-70421132D01*
X140869758Y-70409501D01*
X140869748Y-70409500D01*
X139130252Y-70409500D01*
X139130251Y-70409500D01*
X139130241Y-70409501D01*
X139071772Y-70421132D01*
X139071766Y-70421134D01*
X139005451Y-70465445D01*
X139005445Y-70465451D01*
X138961134Y-70531766D01*
X138961132Y-70531772D01*
X138949501Y-70590241D01*
X138949500Y-70590253D01*
X123372000Y-70590253D01*
X123372000Y-64816581D01*
X126950000Y-64816581D01*
X126950000Y-65023418D01*
X126990349Y-65226272D01*
X127069501Y-65417361D01*
X127158022Y-65549843D01*
X127629532Y-65078332D01*
X127679920Y-65165606D01*
X127754394Y-65240080D01*
X127841665Y-65290465D01*
X127370154Y-65761977D01*
X127502625Y-65850491D01*
X127502639Y-65850498D01*
X127693727Y-65929650D01*
X127896581Y-65969999D01*
X127896586Y-65970000D01*
X128103414Y-65970000D01*
X128103418Y-65969999D01*
X128306272Y-65929650D01*
X128497360Y-65850498D01*
X128629843Y-65761976D01*
X128158333Y-65290466D01*
X128245606Y-65240080D01*
X128320080Y-65165606D01*
X128370466Y-65078333D01*
X128841976Y-65549843D01*
X128930498Y-65417360D01*
X129009650Y-65226272D01*
X129049999Y-65023418D01*
X129050000Y-65023413D01*
X129050000Y-64816586D01*
X129049999Y-64816581D01*
X129009650Y-64613727D01*
X128930498Y-64422639D01*
X128930491Y-64422625D01*
X128841976Y-64290154D01*
X128370465Y-64761665D01*
X128320080Y-64674394D01*
X128245606Y-64599920D01*
X128158332Y-64549532D01*
X128629843Y-64078022D01*
X128497361Y-63989501D01*
X128306272Y-63910349D01*
X128103418Y-63870000D01*
X127896581Y-63870000D01*
X127693727Y-63910349D01*
X127502638Y-63989501D01*
X127370155Y-64078022D01*
X127841666Y-64549533D01*
X127754394Y-64599920D01*
X127679920Y-64674394D01*
X127629533Y-64761666D01*
X127158022Y-64290155D01*
X127069501Y-64422638D01*
X126990349Y-64613727D01*
X126950000Y-64816581D01*
X123372000Y-64816581D01*
X123372000Y-63973979D01*
X123390907Y-63915788D01*
X123400996Y-63903975D01*
X126275475Y-61029496D01*
X126329992Y-61001719D01*
X126345479Y-61000500D01*
X128484273Y-61000500D01*
X128484273Y-61000499D01*
X128514699Y-60997646D01*
X128642882Y-60952793D01*
X128752150Y-60872150D01*
X128832793Y-60762882D01*
X128877646Y-60634699D01*
X128880499Y-60604273D01*
X128880500Y-60604273D01*
X128880500Y-58395727D01*
X128880499Y-58395725D01*
X128877646Y-58365305D01*
X128877646Y-58365301D01*
X128832793Y-58237118D01*
X128817692Y-58216657D01*
X128752154Y-58127855D01*
X128752152Y-58127853D01*
X128752150Y-58127850D01*
X128752146Y-58127847D01*
X128752144Y-58127845D01*
X128642883Y-58047207D01*
X128514703Y-58002355D01*
X128514694Y-58002353D01*
X128484274Y-57999500D01*
X128484266Y-57999500D01*
X126275734Y-57999500D01*
X126275725Y-57999500D01*
X126245305Y-58002353D01*
X126245296Y-58002355D01*
X126117116Y-58047207D01*
X126007855Y-58127845D01*
X126007845Y-58127855D01*
X125927207Y-58237116D01*
X125882355Y-58365296D01*
X125882353Y-58365305D01*
X125879500Y-58395725D01*
X125879500Y-60534521D01*
X125860593Y-60592712D01*
X125850504Y-60604525D01*
X122886989Y-63568040D01*
X122886988Y-63568039D01*
X122831039Y-63623989D01*
X122791480Y-63692507D01*
X122791478Y-63692511D01*
X122771000Y-63768935D01*
X122771000Y-81541598D01*
X122752093Y-81599789D01*
X122702593Y-81635753D01*
X122641407Y-81635753D01*
X122613212Y-81621253D01*
X122512883Y-81547207D01*
X122384703Y-81502355D01*
X122384694Y-81502353D01*
X122354274Y-81499500D01*
X122354266Y-81499500D01*
X121145734Y-81499500D01*
X121145725Y-81499500D01*
X121115305Y-81502353D01*
X121115296Y-81502355D01*
X120987116Y-81547207D01*
X120877855Y-81627845D01*
X120877845Y-81627855D01*
X120797207Y-81737116D01*
X120752355Y-81865296D01*
X120752353Y-81865305D01*
X120749500Y-81895725D01*
X120749500Y-83104274D01*
X120752353Y-83134694D01*
X120752355Y-83134703D01*
X120797207Y-83262883D01*
X120877845Y-83372144D01*
X120877847Y-83372146D01*
X120877850Y-83372150D01*
X120877853Y-83372152D01*
X120877855Y-83372154D01*
X120987116Y-83452792D01*
X120987117Y-83452792D01*
X120987118Y-83452793D01*
X121115301Y-83497646D01*
X121145725Y-83500499D01*
X121145727Y-83500500D01*
X121145734Y-83500500D01*
X122354273Y-83500500D01*
X122354273Y-83500499D01*
X122384699Y-83497646D01*
X122512882Y-83452793D01*
X122613214Y-83378744D01*
X122671259Y-83359404D01*
X122729590Y-83377875D01*
X122765923Y-83427104D01*
X122771000Y-83458401D01*
X122771000Y-108683020D01*
X122752093Y-108741211D01*
X122742004Y-108753024D01*
X121625487Y-109869541D01*
X121570970Y-109897318D01*
X121517598Y-109891001D01*
X121452666Y-109864106D01*
X121278693Y-109829500D01*
X121278691Y-109829500D01*
X121101309Y-109829500D01*
X121101306Y-109829500D01*
X120927334Y-109864106D01*
X120927332Y-109864106D01*
X120763455Y-109931985D01*
X120763454Y-109931985D01*
X120615965Y-110030535D01*
X120490535Y-110155965D01*
X120391985Y-110303454D01*
X120391985Y-110303455D01*
X120324106Y-110467332D01*
X120324106Y-110467334D01*
X120289500Y-110641306D01*
X119490500Y-110641306D01*
X119490500Y-106277178D01*
X119509407Y-106218987D01*
X119519490Y-106207180D01*
X121430460Y-104296211D01*
X121451113Y-104260438D01*
X121470021Y-104227689D01*
X121490500Y-104151262D01*
X121490500Y-104109500D01*
X121509407Y-104051309D01*
X121558907Y-104015345D01*
X121589500Y-104010500D01*
X121909747Y-104010500D01*
X121909748Y-104010500D01*
X121968231Y-103998867D01*
X122034552Y-103954552D01*
X122078867Y-103888231D01*
X122090500Y-103829748D01*
X122090500Y-102390252D01*
X122078867Y-102331769D01*
X122034552Y-102265448D01*
X121970822Y-102222864D01*
X121968233Y-102221134D01*
X121968231Y-102221133D01*
X121968228Y-102221132D01*
X121968227Y-102221132D01*
X121909758Y-102209501D01*
X121909748Y-102209500D01*
X120470252Y-102209500D01*
X120470251Y-102209500D01*
X120470241Y-102209501D01*
X120411772Y-102221132D01*
X120411766Y-102221134D01*
X120345451Y-102265445D01*
X120345445Y-102265451D01*
X120301134Y-102331766D01*
X120301132Y-102331772D01*
X120289501Y-102390241D01*
X120289500Y-102390253D01*
X120289500Y-103829746D01*
X120289501Y-103829758D01*
X120301132Y-103888227D01*
X120301134Y-103888233D01*
X120337516Y-103942681D01*
X120345448Y-103954552D01*
X120411769Y-103998867D01*
X120456231Y-104007711D01*
X120470241Y-104010498D01*
X120470246Y-104010498D01*
X120470252Y-104010500D01*
X120627221Y-104010500D01*
X120685412Y-104029407D01*
X120721376Y-104078907D01*
X120721376Y-104140093D01*
X120697225Y-104179504D01*
X119005489Y-105871240D01*
X119005488Y-105871239D01*
X118949539Y-105927189D01*
X118909980Y-105995707D01*
X118909978Y-105995711D01*
X118889500Y-106072135D01*
X118889500Y-124900500D01*
X118870593Y-124958691D01*
X118821093Y-124994655D01*
X118790500Y-124999500D01*
X118585725Y-124999500D01*
X118555305Y-125002353D01*
X118555296Y-125002355D01*
X118427116Y-125047207D01*
X118317855Y-125127845D01*
X118317845Y-125127855D01*
X118237207Y-125237116D01*
X118192355Y-125365296D01*
X118192353Y-125365305D01*
X118189500Y-125395725D01*
X97952156Y-125395725D01*
X97962051Y-125371835D01*
X98000500Y-125178541D01*
X98000500Y-124981459D01*
X97962051Y-124788165D01*
X97886632Y-124606086D01*
X97777139Y-124442218D01*
X97637782Y-124302861D01*
X97473914Y-124193368D01*
X97473915Y-124193368D01*
X97473913Y-124193367D01*
X97291835Y-124117949D01*
X97098543Y-124079500D01*
X97098541Y-124079500D01*
X96901459Y-124079500D01*
X96901456Y-124079500D01*
X96708165Y-124117949D01*
X96708163Y-124117949D01*
X96526086Y-124193367D01*
X96362218Y-124302861D01*
X96362214Y-124302864D01*
X96222864Y-124442214D01*
X96222861Y-124442218D01*
X96113367Y-124606086D01*
X96037949Y-124788163D01*
X96037949Y-124788165D01*
X95999500Y-124981456D01*
X77311554Y-124981456D01*
X77402073Y-124915690D01*
X77535690Y-124782073D01*
X77646760Y-124629199D01*
X77732547Y-124460832D01*
X77790940Y-124281118D01*
X77804838Y-124193368D01*
X77820500Y-124094484D01*
X77820500Y-123905515D01*
X77790941Y-123718886D01*
X77790940Y-123718882D01*
X77732547Y-123539168D01*
X77646760Y-123370801D01*
X77535690Y-123217927D01*
X77402073Y-123084310D01*
X77249199Y-122973240D01*
X77249198Y-122973239D01*
X77249196Y-122973238D01*
X77080832Y-122887453D01*
X76988907Y-122857584D01*
X76939407Y-122821620D01*
X76920500Y-122763430D01*
X76920500Y-119901456D01*
X78919500Y-119901456D01*
X78919500Y-120098543D01*
X78957949Y-120291834D01*
X78957949Y-120291836D01*
X79033367Y-120473913D01*
X79069699Y-120528288D01*
X79142861Y-120637782D01*
X79282218Y-120777139D01*
X79446086Y-120886632D01*
X79628165Y-120962051D01*
X79821459Y-121000500D01*
X79821460Y-121000500D01*
X80018540Y-121000500D01*
X80018541Y-121000500D01*
X80211835Y-120962051D01*
X80393914Y-120886632D01*
X80557782Y-120777139D01*
X80697139Y-120637782D01*
X80806632Y-120473914D01*
X80882051Y-120291835D01*
X80920500Y-120098541D01*
X80920500Y-119901459D01*
X80920499Y-119901456D01*
X89079500Y-119901456D01*
X89079500Y-120098543D01*
X89117949Y-120291834D01*
X89117949Y-120291836D01*
X89193367Y-120473913D01*
X89229699Y-120528288D01*
X89302861Y-120637782D01*
X89442218Y-120777139D01*
X89606086Y-120886632D01*
X89788165Y-120962051D01*
X89981459Y-121000500D01*
X89981460Y-121000500D01*
X90178540Y-121000500D01*
X90178541Y-121000500D01*
X90371835Y-120962051D01*
X90553914Y-120886632D01*
X90717782Y-120777139D01*
X90857139Y-120637782D01*
X90966632Y-120473914D01*
X91042051Y-120291835D01*
X91080500Y-120098541D01*
X91080500Y-119901459D01*
X91042051Y-119708165D01*
X90966632Y-119526086D01*
X90857139Y-119362218D01*
X90717782Y-119222861D01*
X90553914Y-119113368D01*
X90553915Y-119113368D01*
X90553913Y-119113367D01*
X90371835Y-119037949D01*
X90178543Y-118999500D01*
X90178541Y-118999500D01*
X89981459Y-118999500D01*
X89981456Y-118999500D01*
X89788165Y-119037949D01*
X89788163Y-119037949D01*
X89606086Y-119113367D01*
X89442218Y-119222861D01*
X89442214Y-119222864D01*
X89302864Y-119362214D01*
X89302861Y-119362218D01*
X89193367Y-119526086D01*
X89117949Y-119708163D01*
X89117949Y-119708165D01*
X89079500Y-119901456D01*
X80920499Y-119901456D01*
X80882051Y-119708165D01*
X80806632Y-119526086D01*
X80697139Y-119362218D01*
X80557782Y-119222861D01*
X80393914Y-119113368D01*
X80393915Y-119113368D01*
X80393913Y-119113367D01*
X80211835Y-119037949D01*
X80018543Y-118999500D01*
X80018541Y-118999500D01*
X79821459Y-118999500D01*
X79821456Y-118999500D01*
X79628165Y-119037949D01*
X79628163Y-119037949D01*
X79446086Y-119113367D01*
X79282218Y-119222861D01*
X79282214Y-119222864D01*
X79142864Y-119362214D01*
X79142861Y-119362218D01*
X79033367Y-119526086D01*
X78957949Y-119708163D01*
X78957949Y-119708165D01*
X78919500Y-119901456D01*
X76920500Y-119901456D01*
X76920500Y-118225375D01*
X103460000Y-118225375D01*
X103460000Y-118849999D01*
X103460001Y-118850000D01*
X104086082Y-118850000D01*
X104060000Y-118947339D01*
X104060000Y-119052661D01*
X104086082Y-119150000D01*
X103460001Y-119150000D01*
X103460000Y-119150001D01*
X103460000Y-119774624D01*
X103474506Y-119847546D01*
X103474507Y-119847548D01*
X103529758Y-119930237D01*
X103529762Y-119930241D01*
X103612451Y-119985492D01*
X103612453Y-119985493D01*
X103685375Y-119999999D01*
X103685377Y-120000000D01*
X104309999Y-120000000D01*
X104310000Y-119999999D01*
X104310000Y-119373918D01*
X104407339Y-119400000D01*
X104512661Y-119400000D01*
X104610000Y-119373918D01*
X104610000Y-119999999D01*
X104610001Y-120000000D01*
X105234623Y-120000000D01*
X105234624Y-119999999D01*
X105307546Y-119985493D01*
X105307548Y-119985492D01*
X105390237Y-119930241D01*
X105390241Y-119930237D01*
X105445492Y-119847548D01*
X105445493Y-119847546D01*
X105459999Y-119774624D01*
X105460000Y-119774622D01*
X105460000Y-119150001D01*
X105459999Y-119150000D01*
X104833918Y-119150000D01*
X104860000Y-119052661D01*
X104860000Y-118947339D01*
X104849025Y-118906381D01*
X106049500Y-118906381D01*
X106049500Y-119093618D01*
X106086026Y-119277249D01*
X106157677Y-119450229D01*
X106157681Y-119450238D01*
X106232065Y-119561559D01*
X106261698Y-119605908D01*
X106394092Y-119738302D01*
X106437512Y-119767314D01*
X106549761Y-119842318D01*
X106549767Y-119842320D01*
X106549769Y-119842322D01*
X106722749Y-119913973D01*
X106906384Y-119950500D01*
X106906385Y-119950500D01*
X107093615Y-119950500D01*
X107093616Y-119950500D01*
X107277251Y-119913973D01*
X107450231Y-119842322D01*
X107450234Y-119842319D01*
X107450238Y-119842318D01*
X107495187Y-119812282D01*
X107605908Y-119738302D01*
X107738302Y-119605908D01*
X107812282Y-119495187D01*
X107842318Y-119450238D01*
X107842319Y-119450234D01*
X107842322Y-119450231D01*
X107913973Y-119277251D01*
X107950500Y-119093616D01*
X107950500Y-118906384D01*
X107950499Y-118906381D01*
X108589500Y-118906381D01*
X108589500Y-119093618D01*
X108626026Y-119277249D01*
X108697677Y-119450229D01*
X108697681Y-119450238D01*
X108772065Y-119561559D01*
X108801698Y-119605908D01*
X108934092Y-119738302D01*
X108977512Y-119767314D01*
X109089761Y-119842318D01*
X109089767Y-119842320D01*
X109089769Y-119842322D01*
X109262749Y-119913973D01*
X109446384Y-119950500D01*
X109446385Y-119950500D01*
X109633615Y-119950500D01*
X109633616Y-119950500D01*
X109817251Y-119913973D01*
X109990231Y-119842322D01*
X109990234Y-119842319D01*
X109990238Y-119842318D01*
X110035187Y-119812282D01*
X110145908Y-119738302D01*
X110278302Y-119605908D01*
X110352282Y-119495187D01*
X110382318Y-119450238D01*
X110382319Y-119450234D01*
X110382322Y-119450231D01*
X110453973Y-119277251D01*
X110490500Y-119093616D01*
X110490500Y-118906384D01*
X110453973Y-118722749D01*
X110382322Y-118549769D01*
X110382320Y-118549767D01*
X110382318Y-118549761D01*
X110322649Y-118460463D01*
X110278302Y-118394092D01*
X110145908Y-118261698D01*
X110091547Y-118225375D01*
X109990238Y-118157681D01*
X109990229Y-118157677D01*
X109817249Y-118086026D01*
X109633618Y-118049500D01*
X109633616Y-118049500D01*
X109446384Y-118049500D01*
X109446381Y-118049500D01*
X109262750Y-118086026D01*
X109089770Y-118157677D01*
X109089761Y-118157681D01*
X108953618Y-118248651D01*
X108934092Y-118261698D01*
X108934088Y-118261701D01*
X108801701Y-118394088D01*
X108801698Y-118394092D01*
X108697681Y-118549761D01*
X108697677Y-118549770D01*
X108626026Y-118722750D01*
X108589500Y-118906381D01*
X107950499Y-118906381D01*
X107913973Y-118722749D01*
X107842322Y-118549769D01*
X107842320Y-118549767D01*
X107842318Y-118549761D01*
X107782649Y-118460463D01*
X107738302Y-118394092D01*
X107605908Y-118261698D01*
X107551547Y-118225375D01*
X107450238Y-118157681D01*
X107450229Y-118157677D01*
X107277249Y-118086026D01*
X107093618Y-118049500D01*
X107093616Y-118049500D01*
X106906384Y-118049500D01*
X106906381Y-118049500D01*
X106722750Y-118086026D01*
X106549770Y-118157677D01*
X106549761Y-118157681D01*
X106413618Y-118248651D01*
X106394092Y-118261698D01*
X106394088Y-118261701D01*
X106261701Y-118394088D01*
X106261698Y-118394092D01*
X106157681Y-118549761D01*
X106157677Y-118549770D01*
X106086026Y-118722750D01*
X106049500Y-118906381D01*
X104849025Y-118906381D01*
X104833918Y-118850000D01*
X105459999Y-118850000D01*
X105460000Y-118849999D01*
X105460000Y-118225377D01*
X105459999Y-118225375D01*
X105445493Y-118152453D01*
X105445492Y-118152451D01*
X105390241Y-118069762D01*
X105390237Y-118069758D01*
X105307548Y-118014507D01*
X105307546Y-118014506D01*
X105234624Y-118000000D01*
X104610001Y-118000000D01*
X104610000Y-118000001D01*
X104610000Y-118626081D01*
X104512661Y-118600000D01*
X104407339Y-118600000D01*
X104310000Y-118626081D01*
X104310000Y-118000001D01*
X104309999Y-118000000D01*
X103685375Y-118000000D01*
X103612453Y-118014506D01*
X103612451Y-118014507D01*
X103529762Y-118069758D01*
X103529758Y-118069762D01*
X103474507Y-118152451D01*
X103474506Y-118152453D01*
X103460000Y-118225375D01*
X76920500Y-118225375D01*
X76920500Y-114816581D01*
X95950000Y-114816581D01*
X95950000Y-115023418D01*
X95990349Y-115226272D01*
X96069501Y-115417361D01*
X96158022Y-115549843D01*
X96629532Y-115078332D01*
X96679920Y-115165606D01*
X96754394Y-115240080D01*
X96841665Y-115290465D01*
X96370154Y-115761977D01*
X96502625Y-115850491D01*
X96502639Y-115850498D01*
X96693727Y-115929650D01*
X96896581Y-115969999D01*
X96896586Y-115970000D01*
X97103414Y-115970000D01*
X97103418Y-115969999D01*
X97306272Y-115929650D01*
X97497360Y-115850498D01*
X97629843Y-115761976D01*
X97158333Y-115290466D01*
X97245606Y-115240080D01*
X97320080Y-115165606D01*
X97370466Y-115078333D01*
X97841976Y-115549843D01*
X97930498Y-115417360D01*
X98009650Y-115226272D01*
X98049999Y-115023418D01*
X98050000Y-115023413D01*
X98050000Y-114816586D01*
X98049999Y-114816581D01*
X98009650Y-114613727D01*
X97930498Y-114422639D01*
X97930491Y-114422625D01*
X97841976Y-114290154D01*
X97370465Y-114761665D01*
X97320080Y-114674394D01*
X97245606Y-114599920D01*
X97158332Y-114549532D01*
X97629843Y-114078022D01*
X97497361Y-113989501D01*
X97306272Y-113910349D01*
X97103418Y-113870000D01*
X96896581Y-113870000D01*
X96693727Y-113910349D01*
X96502638Y-113989501D01*
X96370155Y-114078022D01*
X96841666Y-114549533D01*
X96754394Y-114599920D01*
X96679920Y-114674394D01*
X96629533Y-114761666D01*
X96158022Y-114290155D01*
X96069501Y-114422638D01*
X95990349Y-114613727D01*
X95950000Y-114816581D01*
X76920500Y-114816581D01*
X76920500Y-108395725D01*
X112249500Y-108395725D01*
X112249500Y-109604274D01*
X112252353Y-109634694D01*
X112252355Y-109634703D01*
X112297207Y-109762883D01*
X112377845Y-109872144D01*
X112377847Y-109872146D01*
X112377850Y-109872150D01*
X112377853Y-109872152D01*
X112377855Y-109872154D01*
X112487116Y-109952792D01*
X112487117Y-109952792D01*
X112487118Y-109952793D01*
X112615301Y-109997646D01*
X112645725Y-110000499D01*
X112645727Y-110000500D01*
X112645734Y-110000500D01*
X113854273Y-110000500D01*
X113854273Y-110000499D01*
X113884699Y-109997646D01*
X114012882Y-109952793D01*
X114122150Y-109872150D01*
X114202793Y-109762882D01*
X114247646Y-109634699D01*
X114250499Y-109604273D01*
X114250500Y-109604273D01*
X114250500Y-108901456D01*
X115749500Y-108901456D01*
X115749500Y-109098543D01*
X115787949Y-109291834D01*
X115787949Y-109291836D01*
X115863367Y-109473913D01*
X115863368Y-109473914D01*
X115972861Y-109637782D01*
X116112218Y-109777139D01*
X116276086Y-109886632D01*
X116458165Y-109962051D01*
X116651459Y-110000500D01*
X116651460Y-110000500D01*
X116848540Y-110000500D01*
X116848541Y-110000500D01*
X117041835Y-109962051D01*
X117223914Y-109886632D01*
X117387782Y-109777139D01*
X117527139Y-109637782D01*
X117636632Y-109473914D01*
X117712051Y-109291835D01*
X117750500Y-109098541D01*
X117750500Y-108901459D01*
X117712051Y-108708165D01*
X117636632Y-108526086D01*
X117527139Y-108362218D01*
X117387782Y-108222861D01*
X117278288Y-108149699D01*
X117223913Y-108113367D01*
X117041835Y-108037949D01*
X116848543Y-107999500D01*
X116848541Y-107999500D01*
X116651459Y-107999500D01*
X116651456Y-107999500D01*
X116458165Y-108037949D01*
X116458163Y-108037949D01*
X116276086Y-108113367D01*
X116112218Y-108222861D01*
X116112214Y-108222864D01*
X115972864Y-108362214D01*
X115972861Y-108362218D01*
X115863367Y-108526086D01*
X115787949Y-108708163D01*
X115787949Y-108708165D01*
X115749500Y-108901456D01*
X114250500Y-108901456D01*
X114250500Y-108465478D01*
X114269407Y-108407287D01*
X114279490Y-108395480D01*
X116320460Y-106354511D01*
X116354119Y-106296211D01*
X116360021Y-106285989D01*
X116380500Y-106209562D01*
X116380500Y-101024610D01*
X116399407Y-100966419D01*
X116441612Y-100933148D01*
X116553914Y-100886632D01*
X116717782Y-100777139D01*
X116857139Y-100637782D01*
X116966632Y-100473914D01*
X117042051Y-100291835D01*
X117080500Y-100098541D01*
X117080500Y-99901459D01*
X117042051Y-99708165D01*
X116966632Y-99526086D01*
X116857139Y-99362218D01*
X116717782Y-99222861D01*
X116608288Y-99149699D01*
X116553913Y-99113367D01*
X116371835Y-99037949D01*
X116178543Y-98999500D01*
X116178541Y-98999500D01*
X115981459Y-98999500D01*
X115981456Y-98999500D01*
X115788165Y-99037949D01*
X115788163Y-99037949D01*
X115606086Y-99113367D01*
X115442218Y-99222861D01*
X115442214Y-99222864D01*
X115302864Y-99362214D01*
X115302861Y-99362218D01*
X115193367Y-99526086D01*
X115117949Y-99708163D01*
X115117949Y-99708165D01*
X115079500Y-99901456D01*
X115079500Y-100098543D01*
X115117949Y-100291834D01*
X115117949Y-100291836D01*
X115193367Y-100473913D01*
X115193368Y-100473914D01*
X115302861Y-100637782D01*
X115442218Y-100777139D01*
X115539254Y-100841976D01*
X115606084Y-100886631D01*
X115606085Y-100886631D01*
X115606086Y-100886632D01*
X115718387Y-100933147D01*
X115764911Y-100972881D01*
X115779500Y-101024610D01*
X115779500Y-106004521D01*
X115760593Y-106062712D01*
X115750504Y-106074525D01*
X113854525Y-107970504D01*
X113800008Y-107998281D01*
X113784521Y-107999500D01*
X112645725Y-107999500D01*
X112615305Y-108002353D01*
X112615296Y-108002355D01*
X112487116Y-108047207D01*
X112377855Y-108127845D01*
X112377845Y-108127855D01*
X112297207Y-108237116D01*
X112252355Y-108365296D01*
X112252353Y-108365305D01*
X112249500Y-108395725D01*
X76920500Y-108395725D01*
X76920500Y-104465478D01*
X76939407Y-104407287D01*
X76949496Y-104395475D01*
X77407975Y-103936995D01*
X77462492Y-103909217D01*
X77515862Y-103915533D01*
X77628165Y-103962051D01*
X77821459Y-104000500D01*
X77821460Y-104000500D01*
X78018540Y-104000500D01*
X78018541Y-104000500D01*
X78211835Y-103962051D01*
X78393914Y-103886632D01*
X78557782Y-103777139D01*
X78697139Y-103637782D01*
X78806632Y-103473914D01*
X78882051Y-103291835D01*
X78920500Y-103098541D01*
X78920500Y-102901459D01*
X78920499Y-102901456D01*
X87079500Y-102901456D01*
X87079500Y-103098543D01*
X87117949Y-103291834D01*
X87117949Y-103291836D01*
X87193367Y-103473913D01*
X87193368Y-103473914D01*
X87302861Y-103637782D01*
X87442218Y-103777139D01*
X87606086Y-103886632D01*
X87788165Y-103962051D01*
X87981459Y-104000500D01*
X87981460Y-104000500D01*
X88178540Y-104000500D01*
X88178541Y-104000500D01*
X88371835Y-103962051D01*
X88553914Y-103886632D01*
X88717782Y-103777139D01*
X88857139Y-103637782D01*
X88966632Y-103473914D01*
X89042051Y-103291835D01*
X89080500Y-103098541D01*
X89080500Y-102901459D01*
X89080499Y-102901456D01*
X99919500Y-102901456D01*
X99919500Y-103098543D01*
X99957949Y-103291834D01*
X99957949Y-103291836D01*
X100033367Y-103473913D01*
X100033368Y-103473914D01*
X100142861Y-103637782D01*
X100282218Y-103777139D01*
X100446086Y-103886632D01*
X100628165Y-103962051D01*
X100821459Y-104000500D01*
X100821460Y-104000500D01*
X101018540Y-104000500D01*
X101018541Y-104000500D01*
X101211835Y-103962051D01*
X101393914Y-103886632D01*
X101557782Y-103777139D01*
X101697139Y-103637782D01*
X101806632Y-103473914D01*
X101882051Y-103291835D01*
X101920500Y-103098541D01*
X101920500Y-102901459D01*
X101920499Y-102901456D01*
X101919529Y-102896581D01*
X110030000Y-102896581D01*
X110030000Y-103103418D01*
X110070349Y-103306272D01*
X110149501Y-103497361D01*
X110238022Y-103629843D01*
X110709532Y-103158332D01*
X110759920Y-103245606D01*
X110834394Y-103320080D01*
X110921665Y-103370465D01*
X110450154Y-103841977D01*
X110582625Y-103930491D01*
X110582639Y-103930498D01*
X110773727Y-104009650D01*
X110976581Y-104049999D01*
X110976586Y-104050000D01*
X111183414Y-104050000D01*
X111183418Y-104049999D01*
X111386272Y-104009650D01*
X111577360Y-103930498D01*
X111709843Y-103841976D01*
X111238333Y-103370466D01*
X111325606Y-103320080D01*
X111400080Y-103245606D01*
X111450466Y-103158333D01*
X111921976Y-103629843D01*
X112010498Y-103497360D01*
X112089650Y-103306272D01*
X112129999Y-103103418D01*
X112130000Y-103103413D01*
X112130000Y-102896586D01*
X112129999Y-102896581D01*
X112089650Y-102693727D01*
X112010498Y-102502639D01*
X112010491Y-102502625D01*
X111921976Y-102370154D01*
X111450465Y-102841665D01*
X111400080Y-102754394D01*
X111325606Y-102679920D01*
X111238332Y-102629532D01*
X111709843Y-102158022D01*
X111577361Y-102069501D01*
X111386272Y-101990349D01*
X111183418Y-101950000D01*
X110976581Y-101950000D01*
X110773727Y-101990349D01*
X110582638Y-102069501D01*
X110450155Y-102158022D01*
X110921666Y-102629533D01*
X110834394Y-102679920D01*
X110759920Y-102754394D01*
X110709533Y-102841666D01*
X110238022Y-102370155D01*
X110149501Y-102502638D01*
X110070349Y-102693727D01*
X110030000Y-102896581D01*
X101919529Y-102896581D01*
X101909390Y-102845606D01*
X101882051Y-102708165D01*
X101806632Y-102526086D01*
X101697139Y-102362218D01*
X101557782Y-102222861D01*
X101393914Y-102113368D01*
X101393915Y-102113368D01*
X101393913Y-102113367D01*
X101211835Y-102037949D01*
X101018543Y-101999500D01*
X101018541Y-101999500D01*
X100821459Y-101999500D01*
X100821456Y-101999500D01*
X100628165Y-102037949D01*
X100628163Y-102037949D01*
X100446086Y-102113367D01*
X100282218Y-102222861D01*
X100282214Y-102222864D01*
X100142864Y-102362214D01*
X100142861Y-102362218D01*
X100033367Y-102526086D01*
X99957949Y-102708163D01*
X99957949Y-102708165D01*
X99919500Y-102901456D01*
X89080499Y-102901456D01*
X89042051Y-102708165D01*
X88966632Y-102526086D01*
X88857139Y-102362218D01*
X88717782Y-102222861D01*
X88553914Y-102113368D01*
X88553915Y-102113368D01*
X88553913Y-102113367D01*
X88371835Y-102037949D01*
X88178543Y-101999500D01*
X88178541Y-101999500D01*
X87981459Y-101999500D01*
X87981456Y-101999500D01*
X87788165Y-102037949D01*
X87788163Y-102037949D01*
X87606086Y-102113367D01*
X87442218Y-102222861D01*
X87442214Y-102222864D01*
X87302864Y-102362214D01*
X87302861Y-102362218D01*
X87193367Y-102526086D01*
X87117949Y-102708163D01*
X87117949Y-102708165D01*
X87079500Y-102901456D01*
X78920499Y-102901456D01*
X78882051Y-102708165D01*
X78806632Y-102526086D01*
X78697139Y-102362218D01*
X78557782Y-102222861D01*
X78393914Y-102113368D01*
X78393912Y-102113367D01*
X78281615Y-102066852D01*
X78235089Y-102027116D01*
X78220500Y-101975388D01*
X78220500Y-95219079D01*
X78239407Y-95160888D01*
X78249496Y-95149075D01*
X90180496Y-83218075D01*
X90235013Y-83190298D01*
X90295445Y-83199869D01*
X90338710Y-83243134D01*
X90349500Y-83288079D01*
X90349500Y-83318260D01*
X90352493Y-83338801D01*
X90359427Y-83386395D01*
X90407021Y-83483749D01*
X90410802Y-83491483D01*
X90493517Y-83574198D01*
X90547285Y-83600483D01*
X90598604Y-83625572D01*
X90598605Y-83625572D01*
X90598607Y-83625573D01*
X90666740Y-83635500D01*
X92080621Y-83635500D01*
X92138812Y-83654407D01*
X92150625Y-83664496D01*
X92986604Y-84500475D01*
X93014381Y-84554992D01*
X93015600Y-84570479D01*
X93015600Y-88018420D01*
X92996693Y-88076611D01*
X92986604Y-88088424D01*
X91012023Y-90063004D01*
X90957506Y-90090781D01*
X90904134Y-90084464D01*
X90791835Y-90037949D01*
X90598543Y-89999500D01*
X90598541Y-89999500D01*
X90401459Y-89999500D01*
X90401456Y-89999500D01*
X90208165Y-90037949D01*
X90208163Y-90037949D01*
X90026086Y-90113367D01*
X89862218Y-90222861D01*
X89862214Y-90222864D01*
X89722864Y-90362214D01*
X89722861Y-90362218D01*
X89613367Y-90526086D01*
X89537949Y-90708163D01*
X89537949Y-90708165D01*
X89499500Y-90901456D01*
X89499500Y-91098543D01*
X89500640Y-91104273D01*
X89537948Y-91291832D01*
X89537949Y-91291834D01*
X89537949Y-91291836D01*
X89613367Y-91473913D01*
X89649699Y-91528288D01*
X89722861Y-91637782D01*
X89862218Y-91777139D01*
X90026086Y-91886632D01*
X90208165Y-91962051D01*
X90401459Y-92000500D01*
X90401460Y-92000500D01*
X90598540Y-92000500D01*
X90598541Y-92000500D01*
X90791835Y-91962051D01*
X90904137Y-91915533D01*
X90965129Y-91910733D01*
X91012023Y-91936994D01*
X92420504Y-93345475D01*
X92448281Y-93399992D01*
X92449500Y-93415479D01*
X92449500Y-98900500D01*
X92430593Y-98958691D01*
X92381093Y-98994655D01*
X92350500Y-98999500D01*
X92145725Y-98999500D01*
X92115305Y-99002353D01*
X92115296Y-99002355D01*
X91987116Y-99047207D01*
X91877855Y-99127845D01*
X91877845Y-99127855D01*
X91797207Y-99237116D01*
X91752355Y-99365296D01*
X91752353Y-99365305D01*
X91749500Y-99395725D01*
X91749500Y-100604274D01*
X91752353Y-100634694D01*
X91752355Y-100634703D01*
X91797207Y-100762883D01*
X91877845Y-100872144D01*
X91877847Y-100872146D01*
X91877850Y-100872150D01*
X91877853Y-100872152D01*
X91877855Y-100872154D01*
X91987116Y-100952792D01*
X91987117Y-100952792D01*
X91987118Y-100952793D01*
X92115301Y-100997646D01*
X92145725Y-101000499D01*
X92145727Y-101000500D01*
X92145734Y-101000500D01*
X93354273Y-101000500D01*
X93354273Y-101000499D01*
X93384699Y-100997646D01*
X93512882Y-100952793D01*
X93622150Y-100872150D01*
X93702793Y-100762882D01*
X93747646Y-100634699D01*
X93750499Y-100604273D01*
X93750500Y-100604273D01*
X93750500Y-99896581D01*
X94200000Y-99896581D01*
X94200000Y-100103418D01*
X94240349Y-100306272D01*
X94319501Y-100497361D01*
X94408022Y-100629843D01*
X94879532Y-100158332D01*
X94929920Y-100245606D01*
X95004394Y-100320080D01*
X95091665Y-100370465D01*
X94620154Y-100841977D01*
X94752625Y-100930491D01*
X94752639Y-100930498D01*
X94943727Y-101009650D01*
X95146581Y-101049999D01*
X95146586Y-101050000D01*
X95353414Y-101050000D01*
X95353418Y-101049999D01*
X95556272Y-101009650D01*
X95747360Y-100930498D01*
X95879843Y-100841976D01*
X95408333Y-100370466D01*
X95495606Y-100320080D01*
X95570080Y-100245606D01*
X95620466Y-100158333D01*
X96091976Y-100629843D01*
X96180498Y-100497360D01*
X96259650Y-100306272D01*
X96299999Y-100103418D01*
X96300000Y-100103413D01*
X96300000Y-99896586D01*
X96299999Y-99896581D01*
X96259650Y-99693727D01*
X96180498Y-99502639D01*
X96180491Y-99502625D01*
X96091976Y-99370154D01*
X95620465Y-99841665D01*
X95570080Y-99754394D01*
X95495606Y-99679920D01*
X95408332Y-99629532D01*
X95879843Y-99158022D01*
X95747361Y-99069501D01*
X95556272Y-98990349D01*
X95353418Y-98950000D01*
X95146581Y-98950000D01*
X94943727Y-98990349D01*
X94752638Y-99069501D01*
X94620155Y-99158022D01*
X95091666Y-99629533D01*
X95004394Y-99679920D01*
X94929920Y-99754394D01*
X94879533Y-99841666D01*
X94408022Y-99370155D01*
X94319501Y-99502638D01*
X94240349Y-99693727D01*
X94200000Y-99896581D01*
X93750500Y-99896581D01*
X93750500Y-99395727D01*
X93750499Y-99395725D01*
X93747646Y-99365305D01*
X93747646Y-99365301D01*
X93702793Y-99237118D01*
X93702790Y-99237115D01*
X93702790Y-99237113D01*
X93622154Y-99127855D01*
X93622152Y-99127853D01*
X93622150Y-99127850D01*
X93622146Y-99127847D01*
X93622144Y-99127845D01*
X93512883Y-99047207D01*
X93384703Y-99002355D01*
X93384694Y-99002353D01*
X93354274Y-98999500D01*
X93354266Y-98999500D01*
X93149500Y-98999500D01*
X93091309Y-98980593D01*
X93055345Y-98931093D01*
X93050500Y-98900500D01*
X93050500Y-93210439D01*
X93050500Y-93210438D01*
X93030022Y-93134012D01*
X93030020Y-93134009D01*
X93030020Y-93134007D01*
X92990463Y-93065493D01*
X92990462Y-93065492D01*
X92990461Y-93065491D01*
X92990460Y-93065489D01*
X91436994Y-91512023D01*
X91409217Y-91457506D01*
X91415533Y-91404137D01*
X91462051Y-91291835D01*
X91500500Y-91098541D01*
X91500500Y-90901459D01*
X91500499Y-90901456D01*
X91499529Y-90896581D01*
X94450000Y-90896581D01*
X94450000Y-91103418D01*
X94490349Y-91306272D01*
X94569501Y-91497361D01*
X94658022Y-91629843D01*
X95129532Y-91158332D01*
X95179920Y-91245606D01*
X95254394Y-91320080D01*
X95341665Y-91370465D01*
X94870154Y-91841977D01*
X95002625Y-91930491D01*
X95002639Y-91930498D01*
X95193727Y-92009650D01*
X95396581Y-92049999D01*
X95396586Y-92050000D01*
X95603414Y-92050000D01*
X95603418Y-92049999D01*
X95806272Y-92009650D01*
X95997360Y-91930498D01*
X96129843Y-91841976D01*
X95658333Y-91370466D01*
X95745606Y-91320080D01*
X95820080Y-91245606D01*
X95870466Y-91158333D01*
X96341976Y-91629843D01*
X96430498Y-91497360D01*
X96509650Y-91306272D01*
X96549999Y-91103418D01*
X96550000Y-91103413D01*
X96550000Y-90896586D01*
X96549999Y-90896581D01*
X96509650Y-90693727D01*
X96430498Y-90502639D01*
X96430491Y-90502625D01*
X96341976Y-90370154D01*
X95870465Y-90841665D01*
X95820080Y-90754394D01*
X95745606Y-90679920D01*
X95658332Y-90629532D01*
X96129843Y-90158022D01*
X95997361Y-90069501D01*
X95806272Y-89990349D01*
X95603418Y-89950000D01*
X95396581Y-89950000D01*
X95193727Y-89990349D01*
X95002638Y-90069501D01*
X94870155Y-90158022D01*
X95341666Y-90629533D01*
X95254394Y-90679920D01*
X95179920Y-90754394D01*
X95129533Y-90841666D01*
X94658022Y-90370155D01*
X94569501Y-90502638D01*
X94490349Y-90693727D01*
X94450000Y-90896581D01*
X91499529Y-90896581D01*
X91462051Y-90708166D01*
X91462050Y-90708163D01*
X91415533Y-90595862D01*
X91410733Y-90534868D01*
X91436992Y-90487977D01*
X93556560Y-88368411D01*
X93596121Y-88299889D01*
X93616600Y-88223462D01*
X93616600Y-84804500D01*
X93635507Y-84746309D01*
X93685007Y-84710345D01*
X93715600Y-84705500D01*
X95271635Y-84705500D01*
X95329826Y-84724407D01*
X95355610Y-84755108D01*
X95356035Y-84754806D01*
X95359884Y-84760197D01*
X95360576Y-84761020D01*
X95360802Y-84761483D01*
X95443517Y-84844198D01*
X95497285Y-84870483D01*
X95548604Y-84895572D01*
X95548605Y-84895572D01*
X95548607Y-84895573D01*
X95616740Y-84905500D01*
X95616743Y-84905500D01*
X97333257Y-84905500D01*
X97333260Y-84905500D01*
X97401393Y-84895573D01*
X97506483Y-84844198D01*
X97589198Y-84761483D01*
X97640573Y-84656393D01*
X97650500Y-84588260D01*
X97650500Y-84221740D01*
X97640573Y-84153607D01*
X97589198Y-84048517D01*
X97506483Y-83965802D01*
X97506481Y-83965801D01*
X97401395Y-83914427D01*
X97374139Y-83910456D01*
X97333260Y-83904500D01*
X95616740Y-83904500D01*
X95582673Y-83909463D01*
X95548604Y-83914427D01*
X95443518Y-83965801D01*
X95360801Y-84048518D01*
X95360577Y-84048978D01*
X95360180Y-84049387D01*
X95356035Y-84055194D01*
X95355164Y-84054572D01*
X95318035Y-84092953D01*
X95271635Y-84104500D01*
X93481579Y-84104500D01*
X93423388Y-84085593D01*
X93411575Y-84075504D01*
X92729389Y-83393318D01*
X92701612Y-83338801D01*
X92700895Y-83321843D01*
X92700500Y-83321843D01*
X92700500Y-82951742D01*
X92694968Y-82913773D01*
X92705288Y-82853465D01*
X92749086Y-82810740D01*
X92792934Y-82800500D01*
X94099763Y-82800500D01*
X94099763Y-82800499D01*
X94176189Y-82780021D01*
X94244711Y-82740460D01*
X94300660Y-82684511D01*
X95130496Y-81854675D01*
X95185013Y-81826898D01*
X95245445Y-81836469D01*
X95288710Y-81879734D01*
X95299500Y-81924679D01*
X95299500Y-82048260D01*
X95306118Y-82093682D01*
X95309427Y-82116395D01*
X95357538Y-82214806D01*
X95360802Y-82221483D01*
X95443517Y-82304198D01*
X95497285Y-82330483D01*
X95548604Y-82355572D01*
X95548605Y-82355572D01*
X95548607Y-82355573D01*
X95616740Y-82365500D01*
X95616743Y-82365500D01*
X97333257Y-82365500D01*
X97333260Y-82365500D01*
X97401393Y-82355573D01*
X97506483Y-82304198D01*
X97589198Y-82221483D01*
X97589423Y-82221021D01*
X97589819Y-82220612D01*
X97593965Y-82214806D01*
X97594835Y-82215427D01*
X97631965Y-82177047D01*
X97678365Y-82165500D01*
X98039563Y-82165500D01*
X98039563Y-82165499D01*
X98115989Y-82145021D01*
X98115991Y-82145019D01*
X98121987Y-82142537D01*
X98122915Y-82144779D01*
X98172452Y-82134237D01*
X98228354Y-82159109D01*
X98258960Y-82212089D01*
X98259227Y-82252011D01*
X98237658Y-82360443D01*
X98207761Y-82413827D01*
X98162796Y-82437600D01*
X97319505Y-82631971D01*
X97297269Y-82634500D01*
X95616740Y-82634500D01*
X95582673Y-82639463D01*
X95548604Y-82644427D01*
X95443518Y-82695801D01*
X95360801Y-82778518D01*
X95309427Y-82883604D01*
X95309427Y-82883607D01*
X95299500Y-82951740D01*
X95299500Y-83318260D01*
X95302493Y-83338801D01*
X95309427Y-83386395D01*
X95357021Y-83483749D01*
X95360802Y-83491483D01*
X95443517Y-83574198D01*
X95497285Y-83600483D01*
X95548604Y-83625572D01*
X95548605Y-83625572D01*
X95548607Y-83625573D01*
X95616740Y-83635500D01*
X95616743Y-83635500D01*
X97333257Y-83635500D01*
X97333260Y-83635500D01*
X97401393Y-83625573D01*
X97506483Y-83574198D01*
X97589198Y-83491483D01*
X97640573Y-83386393D01*
X97650500Y-83318260D01*
X97650500Y-83251214D01*
X97669407Y-83193023D01*
X97718907Y-83157059D01*
X97727254Y-83154745D01*
X98299261Y-83022904D01*
X98360210Y-83028259D01*
X98403810Y-83064373D01*
X98452860Y-83137781D01*
X98452861Y-83137782D01*
X98592218Y-83277139D01*
X98682249Y-83337296D01*
X98701907Y-83350431D01*
X98739786Y-83398481D01*
X98744179Y-83451153D01*
X97895212Y-87937558D01*
X97865815Y-87991219D01*
X97817253Y-88016249D01*
X97708163Y-88037949D01*
X97526086Y-88113367D01*
X97362218Y-88222861D01*
X97362214Y-88222864D01*
X97222864Y-88362214D01*
X97222861Y-88362218D01*
X97113367Y-88526086D01*
X97037949Y-88708163D01*
X97037949Y-88708165D01*
X96999500Y-88901456D01*
X96999500Y-89098543D01*
X97037949Y-89291834D01*
X97037949Y-89291836D01*
X97113367Y-89473913D01*
X97113368Y-89473914D01*
X97222861Y-89637782D01*
X97362218Y-89777139D01*
X97526086Y-89886632D01*
X97708165Y-89962051D01*
X97901459Y-90000500D01*
X97901460Y-90000500D01*
X98098540Y-90000500D01*
X98098541Y-90000500D01*
X98291835Y-89962051D01*
X98473914Y-89886632D01*
X98637782Y-89777139D01*
X98777139Y-89637782D01*
X98886632Y-89473914D01*
X98962051Y-89291835D01*
X99000500Y-89098541D01*
X99000500Y-88901459D01*
X98962051Y-88708165D01*
X98886632Y-88526086D01*
X98777139Y-88362218D01*
X98637782Y-88222861D01*
X98528090Y-88149567D01*
X98490212Y-88101518D01*
X98485819Y-88048846D01*
X98491988Y-88016249D01*
X99334786Y-83562440D01*
X99364183Y-83508780D01*
X99412745Y-83483750D01*
X99521835Y-83462051D01*
X99703914Y-83386632D01*
X99867782Y-83277139D01*
X100007139Y-83137782D01*
X100116632Y-82973914D01*
X100192051Y-82791835D01*
X100230500Y-82598541D01*
X100230500Y-82401459D01*
X100192051Y-82208165D01*
X100116632Y-82026086D01*
X100007139Y-81862218D01*
X99867782Y-81722861D01*
X99737416Y-81635753D01*
X99703913Y-81613367D01*
X99521835Y-81537949D01*
X99328543Y-81499500D01*
X99328541Y-81499500D01*
X99131459Y-81499500D01*
X99131456Y-81499500D01*
X98938165Y-81537949D01*
X98938163Y-81537949D01*
X98756086Y-81613367D01*
X98592218Y-81722861D01*
X98592214Y-81722864D01*
X98469504Y-81845575D01*
X98414987Y-81873352D01*
X98354555Y-81863781D01*
X98311290Y-81820516D01*
X98300500Y-81775571D01*
X98300500Y-80899500D01*
X98319407Y-80841309D01*
X98368907Y-80805345D01*
X98399500Y-80800500D01*
X103100500Y-80800500D01*
X103158691Y-80819407D01*
X103194655Y-80868907D01*
X103199500Y-80899500D01*
X103199500Y-82100500D01*
X103180593Y-82158691D01*
X103131093Y-82194655D01*
X103100500Y-82199500D01*
X102794612Y-82199500D01*
X102736421Y-82180593D01*
X102703148Y-82138385D01*
X102666335Y-82049511D01*
X102656632Y-82026086D01*
X102547139Y-81862218D01*
X102407782Y-81722861D01*
X102277416Y-81635753D01*
X102243913Y-81613367D01*
X102061835Y-81537949D01*
X101868543Y-81499500D01*
X101868541Y-81499500D01*
X101671459Y-81499500D01*
X101671456Y-81499500D01*
X101478165Y-81537949D01*
X101478163Y-81537949D01*
X101296086Y-81613367D01*
X101132218Y-81722861D01*
X101132214Y-81722864D01*
X100992864Y-81862214D01*
X100992861Y-81862218D01*
X100883367Y-82026086D01*
X100807949Y-82208163D01*
X100807949Y-82208165D01*
X100769500Y-82401456D01*
X100769500Y-82598543D01*
X100807949Y-82791834D01*
X100807949Y-82791836D01*
X100883367Y-82973913D01*
X100916102Y-83022904D01*
X100992861Y-83137782D01*
X101132218Y-83277139D01*
X101296086Y-83386632D01*
X101478165Y-83462051D01*
X101587252Y-83483749D01*
X101640636Y-83513645D01*
X101665212Y-83562440D01*
X102514179Y-88048847D01*
X102506421Y-88109538D01*
X102471907Y-88149569D01*
X102362218Y-88222861D01*
X102362214Y-88222864D01*
X102222864Y-88362214D01*
X102222861Y-88362218D01*
X102113367Y-88526086D01*
X102037949Y-88708163D01*
X102037949Y-88708165D01*
X101999500Y-88901456D01*
X101999500Y-89098543D01*
X102037949Y-89291834D01*
X102037949Y-89291836D01*
X102113367Y-89473913D01*
X102113368Y-89473914D01*
X102222861Y-89637782D01*
X102362218Y-89777139D01*
X102471274Y-89850008D01*
X102526084Y-89886631D01*
X102526085Y-89886631D01*
X102526086Y-89886632D01*
X102638387Y-89933147D01*
X102684911Y-89972881D01*
X102699500Y-90024610D01*
X102699500Y-97119564D01*
X102719978Y-97195988D01*
X102719980Y-97195992D01*
X102759538Y-97264508D01*
X102759540Y-97264511D01*
X104365029Y-98870000D01*
X104983004Y-99487975D01*
X105010781Y-99542492D01*
X105004464Y-99595864D01*
X104963930Y-99693727D01*
X104957948Y-99708168D01*
X104919500Y-99901456D01*
X104919500Y-100098543D01*
X104957949Y-100291834D01*
X104957949Y-100291836D01*
X105033367Y-100473913D01*
X105033368Y-100473914D01*
X105142861Y-100637782D01*
X105282218Y-100777139D01*
X105446086Y-100886632D01*
X105628165Y-100962051D01*
X105821459Y-101000500D01*
X105821460Y-101000500D01*
X106018540Y-101000500D01*
X106018541Y-101000500D01*
X106211835Y-100962051D01*
X106393914Y-100886632D01*
X106557782Y-100777139D01*
X106697139Y-100637782D01*
X106806632Y-100473914D01*
X106882051Y-100291835D01*
X106920500Y-100098541D01*
X106920500Y-99901459D01*
X106882051Y-99708165D01*
X106806632Y-99526086D01*
X106697139Y-99362218D01*
X106557782Y-99222861D01*
X106448288Y-99149699D01*
X106393913Y-99113367D01*
X106211835Y-99037949D01*
X106018543Y-98999500D01*
X106018541Y-98999500D01*
X105821459Y-98999500D01*
X105821456Y-98999500D01*
X105628168Y-99037948D01*
X105628166Y-99037948D01*
X105628165Y-99037949D01*
X105605814Y-99047207D01*
X105515864Y-99084465D01*
X105454867Y-99089264D01*
X105407975Y-99063004D01*
X103329496Y-96984525D01*
X103301719Y-96930008D01*
X103300500Y-96914521D01*
X103300500Y-90024610D01*
X103319407Y-89966419D01*
X103361612Y-89933148D01*
X103473914Y-89886632D01*
X103637782Y-89777139D01*
X103777139Y-89637782D01*
X103886632Y-89473914D01*
X103962051Y-89291835D01*
X104000500Y-89098541D01*
X104000500Y-88901459D01*
X103962051Y-88708165D01*
X103886632Y-88526086D01*
X103777139Y-88362218D01*
X103637782Y-88222861D01*
X103473914Y-88113368D01*
X103473915Y-88113368D01*
X103473913Y-88113367D01*
X103291836Y-88037949D01*
X103182745Y-88016249D01*
X103129361Y-87986352D01*
X103104786Y-87937558D01*
X102648363Y-85525571D01*
X102255819Y-83451151D01*
X102263577Y-83390462D01*
X102298089Y-83350433D01*
X102407782Y-83277139D01*
X102547139Y-83137782D01*
X102656632Y-82973914D01*
X102694038Y-82883607D01*
X102703148Y-82861615D01*
X102742884Y-82815089D01*
X102794612Y-82800500D01*
X103539563Y-82800500D01*
X103539563Y-82800499D01*
X103615989Y-82780021D01*
X103684511Y-82740460D01*
X103740460Y-82684511D01*
X103780021Y-82615989D01*
X103800500Y-82539562D01*
X103800500Y-82401456D01*
X104919500Y-82401456D01*
X104919500Y-82598543D01*
X104957949Y-82791834D01*
X104957949Y-82791836D01*
X105033367Y-82973913D01*
X105066102Y-83022904D01*
X105142861Y-83137782D01*
X105282218Y-83277139D01*
X105446086Y-83386632D01*
X105628165Y-83462051D01*
X105821459Y-83500500D01*
X105821460Y-83500500D01*
X106018540Y-83500500D01*
X106018541Y-83500500D01*
X106211835Y-83462051D01*
X106393914Y-83386632D01*
X106557782Y-83277139D01*
X106697139Y-83137782D01*
X106806632Y-82973914D01*
X106882051Y-82791835D01*
X106920500Y-82598541D01*
X106920500Y-82401459D01*
X106920499Y-82401456D01*
X115079500Y-82401456D01*
X115079500Y-82598543D01*
X115117949Y-82791834D01*
X115117949Y-82791836D01*
X115193367Y-82973913D01*
X115226102Y-83022904D01*
X115302861Y-83137782D01*
X115442218Y-83277139D01*
X115606086Y-83386632D01*
X115788165Y-83462051D01*
X115981459Y-83500500D01*
X115981460Y-83500500D01*
X116178540Y-83500500D01*
X116178541Y-83500500D01*
X116371835Y-83462051D01*
X116553914Y-83386632D01*
X116717782Y-83277139D01*
X116857139Y-83137782D01*
X116966632Y-82973914D01*
X117042051Y-82791835D01*
X117080500Y-82598541D01*
X117080500Y-82401459D01*
X117042051Y-82208165D01*
X116966632Y-82026086D01*
X116857139Y-81862218D01*
X116717782Y-81722861D01*
X116587416Y-81635753D01*
X116553913Y-81613367D01*
X116371835Y-81537949D01*
X116178543Y-81499500D01*
X116178541Y-81499500D01*
X115981459Y-81499500D01*
X115981456Y-81499500D01*
X115788165Y-81537949D01*
X115788163Y-81537949D01*
X115606086Y-81613367D01*
X115442218Y-81722861D01*
X115442214Y-81722864D01*
X115302864Y-81862214D01*
X115302861Y-81862218D01*
X115193367Y-82026086D01*
X115117949Y-82208163D01*
X115117949Y-82208165D01*
X115079500Y-82401456D01*
X106920499Y-82401456D01*
X106882051Y-82208165D01*
X106806632Y-82026086D01*
X106697139Y-81862218D01*
X106557782Y-81722861D01*
X106427416Y-81635753D01*
X106393913Y-81613367D01*
X106211835Y-81537949D01*
X106018543Y-81499500D01*
X106018541Y-81499500D01*
X105821459Y-81499500D01*
X105821456Y-81499500D01*
X105628165Y-81537949D01*
X105628163Y-81537949D01*
X105446086Y-81613367D01*
X105282218Y-81722861D01*
X105282214Y-81722864D01*
X105142864Y-81862214D01*
X105142861Y-81862218D01*
X105033367Y-82026086D01*
X104957949Y-82208163D01*
X104957949Y-82208165D01*
X104919500Y-82401456D01*
X103800500Y-82401456D01*
X103800500Y-80460438D01*
X103780021Y-80384011D01*
X103740460Y-80315489D01*
X103684511Y-80259540D01*
X103684508Y-80259538D01*
X103615992Y-80219980D01*
X103615988Y-80219978D01*
X103539564Y-80199500D01*
X103539562Y-80199500D01*
X98281278Y-80199500D01*
X98223087Y-80180593D01*
X98187123Y-80131093D01*
X98187123Y-80069907D01*
X98223087Y-80020407D01*
X98235369Y-80012788D01*
X98578218Y-79833339D01*
X99229390Y-79492512D01*
X99289711Y-79482280D01*
X99344528Y-79509459D01*
X99345300Y-79510221D01*
X99362218Y-79527139D01*
X99526086Y-79636632D01*
X99708165Y-79712051D01*
X99901459Y-79750500D01*
X99901460Y-79750500D01*
X100098540Y-79750500D01*
X100098541Y-79750500D01*
X100291835Y-79712051D01*
X100473914Y-79636632D01*
X100637782Y-79527139D01*
X100777139Y-79387782D01*
X100886632Y-79223914D01*
X100962051Y-79041835D01*
X101000500Y-78848541D01*
X101000500Y-78651459D01*
X100962051Y-78458165D01*
X100886632Y-78276086D01*
X100777139Y-78112218D01*
X100637782Y-77972861D01*
X100528288Y-77899699D01*
X100473913Y-77863367D01*
X100291835Y-77787949D01*
X100098543Y-77749500D01*
X100098541Y-77749500D01*
X99901459Y-77749500D01*
X99901456Y-77749500D01*
X99708165Y-77787949D01*
X99708163Y-77787949D01*
X99526086Y-77863367D01*
X99362218Y-77972861D01*
X99362214Y-77972864D01*
X99222864Y-78112214D01*
X99222861Y-78112218D01*
X99113367Y-78276086D01*
X99037949Y-78458163D01*
X99037949Y-78458165D01*
X98999500Y-78651456D01*
X98999500Y-78848542D01*
X99000530Y-78853719D01*
X98993338Y-78914480D01*
X98951806Y-78959410D01*
X98949341Y-78960745D01*
X96804792Y-80083212D01*
X96758883Y-80094500D01*
X96431379Y-80094500D01*
X96373188Y-80075593D01*
X96361377Y-80065505D01*
X96335410Y-80039539D01*
X96266892Y-79999980D01*
X96266888Y-79999978D01*
X96190464Y-79979500D01*
X96190462Y-79979500D01*
X96111338Y-79979500D01*
X96111335Y-79979500D01*
X96034911Y-79999978D01*
X96034907Y-79999980D01*
X95966389Y-80039539D01*
X95940423Y-80065505D01*
X95885906Y-80093281D01*
X95870421Y-80094500D01*
X95616740Y-80094500D01*
X95582673Y-80099463D01*
X95548604Y-80104427D01*
X95443518Y-80155801D01*
X95360801Y-80238518D01*
X95309427Y-80343604D01*
X95299500Y-80411743D01*
X95299500Y-80778258D01*
X95299647Y-80779267D01*
X95299595Y-80779569D01*
X95299759Y-80781830D01*
X95299201Y-80781870D01*
X95289326Y-80839576D01*
X95271685Y-80863543D01*
X94469504Y-81665724D01*
X94414987Y-81693501D01*
X94354555Y-81683930D01*
X94311290Y-81640665D01*
X94300500Y-81595720D01*
X94300500Y-76146581D01*
X98950000Y-76146581D01*
X98950000Y-76353418D01*
X98990349Y-76556272D01*
X99069501Y-76747361D01*
X99158022Y-76879843D01*
X99629532Y-76408332D01*
X99679920Y-76495606D01*
X99754394Y-76570080D01*
X99841665Y-76620465D01*
X99370154Y-77091977D01*
X99502625Y-77180491D01*
X99502639Y-77180498D01*
X99693727Y-77259650D01*
X99896581Y-77299999D01*
X99896586Y-77300000D01*
X100103414Y-77300000D01*
X100103418Y-77299999D01*
X100306272Y-77259650D01*
X100497360Y-77180498D01*
X100629843Y-77091976D01*
X100158333Y-76620466D01*
X100245606Y-76570080D01*
X100320080Y-76495606D01*
X100370466Y-76408333D01*
X100841976Y-76879843D01*
X100930498Y-76747360D01*
X101009650Y-76556272D01*
X101049999Y-76353418D01*
X101050000Y-76353413D01*
X101050000Y-76146586D01*
X101049999Y-76146581D01*
X101009650Y-75943727D01*
X100930498Y-75752639D01*
X100930491Y-75752625D01*
X100841976Y-75620154D01*
X100370465Y-76091665D01*
X100320080Y-76004394D01*
X100245606Y-75929920D01*
X100158332Y-75879532D01*
X100629843Y-75408022D01*
X100497361Y-75319501D01*
X100306272Y-75240349D01*
X100103418Y-75200000D01*
X99896581Y-75200000D01*
X99693727Y-75240349D01*
X99502638Y-75319501D01*
X99370155Y-75408022D01*
X99841666Y-75879533D01*
X99754394Y-75929920D01*
X99679920Y-76004394D01*
X99629533Y-76091666D01*
X99158022Y-75620155D01*
X99069501Y-75752638D01*
X98990349Y-75943727D01*
X98950000Y-76146581D01*
X94300500Y-76146581D01*
X94300500Y-73960437D01*
X94300499Y-73960435D01*
X94280021Y-73884011D01*
X94280019Y-73884007D01*
X94240461Y-73815491D01*
X94240460Y-73815489D01*
X94184511Y-73759540D01*
X94184508Y-73759538D01*
X94115992Y-73719980D01*
X94115988Y-73719978D01*
X94039564Y-73699500D01*
X94039562Y-73699500D01*
X91024612Y-73699500D01*
X90966421Y-73680593D01*
X90933148Y-73638385D01*
X90907477Y-73576412D01*
X90886632Y-73526086D01*
X90777139Y-73362218D01*
X90637782Y-73222861D01*
X90473914Y-73113368D01*
X90473915Y-73113368D01*
X90473913Y-73113367D01*
X90291835Y-73037949D01*
X90098543Y-72999500D01*
X90098541Y-72999500D01*
X89901459Y-72999500D01*
X89901456Y-72999500D01*
X89708165Y-73037949D01*
X89708163Y-73037949D01*
X89526086Y-73113367D01*
X89362218Y-73222861D01*
X89362214Y-73222864D01*
X89222864Y-73362214D01*
X89222861Y-73362218D01*
X89113367Y-73526086D01*
X89037949Y-73708163D01*
X89037949Y-73708165D01*
X88999500Y-73901456D01*
X88999500Y-74098543D01*
X89037949Y-74291834D01*
X89037949Y-74291836D01*
X89113367Y-74473913D01*
X89149699Y-74528288D01*
X89222861Y-74637782D01*
X89362218Y-74777139D01*
X89526086Y-74886632D01*
X89708165Y-74962051D01*
X89901459Y-75000500D01*
X89901460Y-75000500D01*
X90098540Y-75000500D01*
X90098541Y-75000500D01*
X90291835Y-74962051D01*
X90473914Y-74886632D01*
X90637782Y-74777139D01*
X90777139Y-74637782D01*
X90886632Y-74473914D01*
X90930127Y-74368907D01*
X90933148Y-74361615D01*
X90972884Y-74315089D01*
X91024612Y-74300500D01*
X93600500Y-74300500D01*
X93658691Y-74319407D01*
X93694655Y-74368907D01*
X93699500Y-74399500D01*
X93699500Y-81465500D01*
X93680593Y-81523691D01*
X93631093Y-81559655D01*
X93600500Y-81564500D01*
X92728365Y-81564500D01*
X92670174Y-81545593D01*
X92644389Y-81514891D01*
X92643965Y-81515194D01*
X92640115Y-81509802D01*
X92639423Y-81508978D01*
X92639198Y-81508518D01*
X92639198Y-81508517D01*
X92556483Y-81425802D01*
X92541878Y-81418662D01*
X92451395Y-81374427D01*
X92424139Y-81370456D01*
X92383260Y-81364500D01*
X92383257Y-81364500D01*
X90702731Y-81364500D01*
X90680495Y-81361971D01*
X89837203Y-81167600D01*
X89784746Y-81136106D01*
X89762341Y-81090443D01*
X89732051Y-80938165D01*
X89656632Y-80756086D01*
X89547139Y-80592218D01*
X89407782Y-80452861D01*
X89280879Y-80368067D01*
X89243913Y-80343367D01*
X89061835Y-80267949D01*
X88868543Y-80229500D01*
X88868541Y-80229500D01*
X88671459Y-80229500D01*
X88671456Y-80229500D01*
X88478165Y-80267949D01*
X88478163Y-80267949D01*
X88296086Y-80343367D01*
X88132218Y-80452861D01*
X88132214Y-80452864D01*
X87992864Y-80592214D01*
X87992861Y-80592218D01*
X87883367Y-80756086D01*
X87807949Y-80938163D01*
X87807949Y-80938165D01*
X87769500Y-81131456D01*
X87769500Y-81328543D01*
X87787426Y-81418662D01*
X87805555Y-81509802D01*
X87807949Y-81521834D01*
X87807949Y-81521836D01*
X87883367Y-81703913D01*
X87916102Y-81752904D01*
X87992861Y-81867782D01*
X88132218Y-82007139D01*
X88296086Y-82116632D01*
X88478165Y-82192051D01*
X88671459Y-82230500D01*
X88671460Y-82230500D01*
X88868540Y-82230500D01*
X88868541Y-82230500D01*
X89061835Y-82192051D01*
X89243914Y-82116632D01*
X89407782Y-82007139D01*
X89547139Y-81867782D01*
X89596188Y-81794373D01*
X89644236Y-81756495D01*
X89700736Y-81752904D01*
X90272736Y-81884743D01*
X90298286Y-81900083D01*
X90324057Y-81914955D01*
X90324356Y-81915734D01*
X90325193Y-81916237D01*
X90348955Y-81970845D01*
X90349500Y-81976019D01*
X90349500Y-82048260D01*
X90359427Y-82116393D01*
X90365617Y-82129055D01*
X90367450Y-82146456D01*
X90364550Y-82160111D01*
X90366505Y-82173938D01*
X90358353Y-82189298D01*
X90354742Y-82206307D01*
X90344367Y-82215652D01*
X90337823Y-82227984D01*
X90318501Y-82242558D01*
X90311806Y-82246424D01*
X90311802Y-82246427D01*
X90289089Y-82259540D01*
X77735489Y-94813140D01*
X77735488Y-94813139D01*
X77679539Y-94869089D01*
X77639980Y-94937607D01*
X77639978Y-94937611D01*
X77619500Y-95014035D01*
X77619500Y-101975388D01*
X77600593Y-102033579D01*
X77558385Y-102066852D01*
X77446087Y-102113367D01*
X77282218Y-102222861D01*
X77282214Y-102222864D01*
X77142864Y-102362214D01*
X77142861Y-102362218D01*
X77033367Y-102526086D01*
X76957949Y-102708163D01*
X76957949Y-102708165D01*
X76919500Y-102901456D01*
X76919500Y-103098543D01*
X76957949Y-103291834D01*
X76957949Y-103291836D01*
X77004464Y-103404134D01*
X77009264Y-103465131D01*
X76983004Y-103512022D01*
X76435489Y-104059539D01*
X76379539Y-104115489D01*
X76339980Y-104184007D01*
X76339978Y-104184011D01*
X76319500Y-104260435D01*
X76319500Y-122763430D01*
X76300593Y-122821621D01*
X76251093Y-122857584D01*
X76159167Y-122887453D01*
X75990803Y-122973238D01*
X75837928Y-123084309D01*
X75704309Y-123217928D01*
X75593238Y-123370803D01*
X75507453Y-123539167D01*
X75449058Y-123718886D01*
X75419500Y-123905515D01*
X62580500Y-123905515D01*
X62550941Y-123718886D01*
X62550940Y-123718882D01*
X62492547Y-123539168D01*
X62406760Y-123370801D01*
X62295690Y-123217927D01*
X62162073Y-123084310D01*
X62009199Y-122973240D01*
X62009198Y-122973239D01*
X62009196Y-122973238D01*
X61840832Y-122887453D01*
X61748907Y-122857584D01*
X61699407Y-122821620D01*
X61680500Y-122763430D01*
X61680500Y-112664237D01*
X61680499Y-112664235D01*
X61660021Y-112587811D01*
X61660019Y-112587807D01*
X61620460Y-112519289D01*
X61564511Y-112463339D01*
X61564511Y-112463340D01*
X55780675Y-106679504D01*
X55752898Y-106624987D01*
X55762469Y-106564555D01*
X55805734Y-106521290D01*
X55850679Y-106510500D01*
X55869747Y-106510500D01*
X55869748Y-106510500D01*
X55928231Y-106498867D01*
X55994552Y-106454552D01*
X56038867Y-106388231D01*
X56050500Y-106329748D01*
X56050500Y-104590252D01*
X56038867Y-104531769D01*
X55994552Y-104465448D01*
X55933227Y-104424471D01*
X55928233Y-104421134D01*
X55928231Y-104421133D01*
X55928228Y-104421132D01*
X55928227Y-104421132D01*
X55869758Y-104409501D01*
X55869748Y-104409500D01*
X54130252Y-104409500D01*
X54130251Y-104409500D01*
X54130241Y-104409501D01*
X54071772Y-104421132D01*
X54071766Y-104421134D01*
X54005451Y-104465445D01*
X54005445Y-104465451D01*
X53961134Y-104531766D01*
X53961132Y-104531772D01*
X53949501Y-104590241D01*
X53949500Y-104590253D01*
X53949500Y-106329746D01*
X53949501Y-106329758D01*
X53961132Y-106388227D01*
X53961133Y-106388231D01*
X54005448Y-106454552D01*
X54071769Y-106498867D01*
X54116231Y-106507711D01*
X54130241Y-106510498D01*
X54130246Y-106510498D01*
X54130252Y-106510500D01*
X54600500Y-106510500D01*
X54658691Y-106529407D01*
X54694655Y-106578907D01*
X54699500Y-106609500D01*
X54699500Y-106651264D01*
X54719978Y-106727688D01*
X54719980Y-106727692D01*
X54759332Y-106795851D01*
X54772054Y-106855699D01*
X54747168Y-106911595D01*
X54704189Y-106939505D01*
X54577757Y-106980585D01*
X54423476Y-107059195D01*
X54335352Y-107123219D01*
X54768461Y-107556329D01*
X54692993Y-107599901D01*
X54599901Y-107692993D01*
X54556328Y-107768461D01*
X54123219Y-107335352D01*
X54059195Y-107423476D01*
X53980588Y-107577751D01*
X53927084Y-107742420D01*
X53900000Y-107913424D01*
X50500500Y-107913424D01*
X50500500Y-74436532D01*
X53949500Y-74436532D01*
X53949500Y-74643467D01*
X53989869Y-74846418D01*
X54069058Y-75037597D01*
X54184020Y-75209651D01*
X54184023Y-75209655D01*
X54330345Y-75355977D01*
X54502402Y-75470941D01*
X54693580Y-75550130D01*
X54896535Y-75590500D01*
X54896536Y-75590500D01*
X55103464Y-75590500D01*
X55103465Y-75590500D01*
X55306420Y-75550130D01*
X55497598Y-75470941D01*
X55669655Y-75355977D01*
X55815977Y-75209655D01*
X55930941Y-75037598D01*
X56010130Y-74846420D01*
X56050500Y-74643465D01*
X56050500Y-74436535D01*
X56010130Y-74233580D01*
X55930941Y-74042402D01*
X55815977Y-73870345D01*
X55669655Y-73724023D01*
X55669651Y-73724020D01*
X55497597Y-73609058D01*
X55306418Y-73529869D01*
X55103467Y-73489500D01*
X55103465Y-73489500D01*
X54896535Y-73489500D01*
X54896532Y-73489500D01*
X54693581Y-73529869D01*
X54502402Y-73609058D01*
X54330348Y-73724020D01*
X54184020Y-73870348D01*
X54069058Y-74042402D01*
X53989869Y-74233581D01*
X53949500Y-74436532D01*
X50500500Y-74436532D01*
X50500500Y-71913424D01*
X53900000Y-71913424D01*
X53900000Y-72086575D01*
X53927084Y-72257579D01*
X53980588Y-72422248D01*
X54059195Y-72576524D01*
X54059197Y-72576528D01*
X54123219Y-72664646D01*
X54556328Y-72231536D01*
X54599901Y-72307007D01*
X54692993Y-72400099D01*
X54768460Y-72443670D01*
X54335352Y-72876778D01*
X54423477Y-72940805D01*
X54577751Y-73019411D01*
X54742420Y-73072915D01*
X54913425Y-73100000D01*
X55086575Y-73100000D01*
X55257579Y-73072915D01*
X55422248Y-73019411D01*
X55576524Y-72940804D01*
X55576530Y-72940800D01*
X55664646Y-72876779D01*
X55664646Y-72876778D01*
X55231538Y-72443670D01*
X55307007Y-72400099D01*
X55400099Y-72307007D01*
X55443670Y-72231538D01*
X55876778Y-72664646D01*
X55876779Y-72664646D01*
X55940800Y-72576530D01*
X55940804Y-72576524D01*
X56019411Y-72422248D01*
X56072915Y-72257579D01*
X56100000Y-72086573D01*
X56100305Y-72082699D01*
X56101617Y-72082802D01*
X56118907Y-72029588D01*
X56168407Y-71993624D01*
X56229593Y-71993624D01*
X56269004Y-72017775D01*
X64311725Y-80060496D01*
X64339502Y-80115013D01*
X64329931Y-80175445D01*
X64286666Y-80218710D01*
X64241721Y-80229500D01*
X64145725Y-80229500D01*
X64115305Y-80232353D01*
X64115296Y-80232355D01*
X63987116Y-80277207D01*
X63877855Y-80357845D01*
X63877845Y-80357855D01*
X63797207Y-80467116D01*
X63752355Y-80595296D01*
X63752353Y-80595305D01*
X63749500Y-80625725D01*
X63749500Y-81834274D01*
X63752353Y-81864694D01*
X63752355Y-81864703D01*
X63797207Y-81992883D01*
X63877845Y-82102144D01*
X63877847Y-82102146D01*
X63877850Y-82102150D01*
X63877853Y-82102152D01*
X63877855Y-82102154D01*
X63987116Y-82182792D01*
X63987117Y-82182792D01*
X63987118Y-82182793D01*
X64115301Y-82227646D01*
X64145725Y-82230499D01*
X64145727Y-82230500D01*
X64145734Y-82230500D01*
X65354273Y-82230500D01*
X65354273Y-82230499D01*
X65384699Y-82227646D01*
X65512882Y-82182793D01*
X65622150Y-82102150D01*
X65702793Y-81992882D01*
X65747646Y-81864699D01*
X65750499Y-81834273D01*
X65750500Y-81834273D01*
X65750500Y-81131456D01*
X66249500Y-81131456D01*
X66249500Y-81328543D01*
X66267426Y-81418662D01*
X66285555Y-81509802D01*
X66287949Y-81521834D01*
X66287949Y-81521836D01*
X66363367Y-81703913D01*
X66396102Y-81752904D01*
X66472861Y-81867782D01*
X66612218Y-82007139D01*
X66776086Y-82116632D01*
X66958165Y-82192051D01*
X67151459Y-82230500D01*
X67151460Y-82230500D01*
X67348540Y-82230500D01*
X67348541Y-82230500D01*
X67541835Y-82192051D01*
X67723914Y-82116632D01*
X67887782Y-82007139D01*
X68027139Y-81867782D01*
X68136632Y-81703914D01*
X68212051Y-81521835D01*
X68250500Y-81328541D01*
X68250500Y-81131459D01*
X68250499Y-81131456D01*
X71419500Y-81131456D01*
X71419500Y-81328543D01*
X71437426Y-81418662D01*
X71455555Y-81509802D01*
X71457949Y-81521834D01*
X71457949Y-81521836D01*
X71533367Y-81703913D01*
X71566102Y-81752904D01*
X71642861Y-81867782D01*
X71782218Y-82007139D01*
X71946086Y-82116632D01*
X72128165Y-82192051D01*
X72321459Y-82230500D01*
X72321460Y-82230500D01*
X72518540Y-82230500D01*
X72518541Y-82230500D01*
X72711835Y-82192051D01*
X72893914Y-82116632D01*
X73057782Y-82007139D01*
X73197139Y-81867782D01*
X73306632Y-81703914D01*
X73382051Y-81521835D01*
X73420500Y-81328541D01*
X73420500Y-81131459D01*
X73420499Y-81131456D01*
X81579500Y-81131456D01*
X81579500Y-81328543D01*
X81597426Y-81418662D01*
X81615555Y-81509802D01*
X81617949Y-81521834D01*
X81617949Y-81521836D01*
X81693367Y-81703913D01*
X81726102Y-81752904D01*
X81802861Y-81867782D01*
X81942218Y-82007139D01*
X82106086Y-82116632D01*
X82288165Y-82192051D01*
X82481459Y-82230500D01*
X82481460Y-82230500D01*
X82678540Y-82230500D01*
X82678541Y-82230500D01*
X82871835Y-82192051D01*
X83053914Y-82116632D01*
X83217782Y-82007139D01*
X83357139Y-81867782D01*
X83466632Y-81703914D01*
X83542051Y-81521835D01*
X83580500Y-81328541D01*
X83580500Y-81131459D01*
X83542051Y-80938165D01*
X83466632Y-80756086D01*
X83357139Y-80592218D01*
X83217782Y-80452861D01*
X83090879Y-80368067D01*
X83053913Y-80343367D01*
X82871835Y-80267949D01*
X82678543Y-80229500D01*
X82678541Y-80229500D01*
X82481459Y-80229500D01*
X82481456Y-80229500D01*
X82288165Y-80267949D01*
X82288163Y-80267949D01*
X82106086Y-80343367D01*
X81942218Y-80452861D01*
X81942214Y-80452864D01*
X81802864Y-80592214D01*
X81802861Y-80592218D01*
X81693367Y-80756086D01*
X81617949Y-80938163D01*
X81617949Y-80938165D01*
X81579500Y-81131456D01*
X73420499Y-81131456D01*
X73382051Y-80938165D01*
X73306632Y-80756086D01*
X73197139Y-80592218D01*
X73057782Y-80452861D01*
X72930879Y-80368067D01*
X72893913Y-80343367D01*
X72711835Y-80267949D01*
X72518543Y-80229500D01*
X72518541Y-80229500D01*
X72321459Y-80229500D01*
X72321456Y-80229500D01*
X72128165Y-80267949D01*
X72128163Y-80267949D01*
X71946086Y-80343367D01*
X71782218Y-80452861D01*
X71782214Y-80452864D01*
X71642864Y-80592214D01*
X71642861Y-80592218D01*
X71533367Y-80756086D01*
X71457949Y-80938163D01*
X71457949Y-80938165D01*
X71419500Y-81131456D01*
X68250499Y-81131456D01*
X68212051Y-80938165D01*
X68136632Y-80756086D01*
X68027139Y-80592218D01*
X67887782Y-80452861D01*
X67760879Y-80368067D01*
X67723913Y-80343367D01*
X67541835Y-80267949D01*
X67348543Y-80229500D01*
X67348541Y-80229500D01*
X67151459Y-80229500D01*
X67151456Y-80229500D01*
X66958165Y-80267949D01*
X66958163Y-80267949D01*
X66776086Y-80343367D01*
X66612218Y-80452861D01*
X66612214Y-80452864D01*
X66472864Y-80592214D01*
X66472861Y-80592218D01*
X66363367Y-80756086D01*
X66287949Y-80938163D01*
X66287949Y-80938165D01*
X66249500Y-81131456D01*
X65750500Y-81131456D01*
X65750500Y-80625727D01*
X65750499Y-80625725D01*
X65747646Y-80595305D01*
X65747646Y-80595301D01*
X65702793Y-80467118D01*
X65697862Y-80460437D01*
X65622154Y-80357855D01*
X65622152Y-80357853D01*
X65622150Y-80357850D01*
X65622146Y-80357847D01*
X65622144Y-80357845D01*
X65512883Y-80277207D01*
X65384703Y-80232355D01*
X65384694Y-80232353D01*
X65354274Y-80229500D01*
X65354266Y-80229500D01*
X65149500Y-80229500D01*
X65091309Y-80210593D01*
X65055345Y-80161093D01*
X65050500Y-80130500D01*
X65050500Y-80034237D01*
X65050499Y-80034235D01*
X65048317Y-80026093D01*
X65030021Y-79957811D01*
X64990460Y-79889289D01*
X64934511Y-79833339D01*
X64934511Y-79833340D01*
X58082627Y-72981456D01*
X79999500Y-72981456D01*
X79999500Y-73178543D01*
X80037949Y-73371834D01*
X80037949Y-73371836D01*
X80113367Y-73553913D01*
X80113368Y-73553914D01*
X80222861Y-73717782D01*
X80362218Y-73857139D01*
X80526086Y-73966632D01*
X80708165Y-74042051D01*
X80901459Y-74080500D01*
X80901460Y-74080500D01*
X81098540Y-74080500D01*
X81098541Y-74080500D01*
X81291835Y-74042051D01*
X81473914Y-73966632D01*
X81571457Y-73901456D01*
X83999500Y-73901456D01*
X83999500Y-74098543D01*
X84037949Y-74291834D01*
X84037949Y-74291836D01*
X84113367Y-74473913D01*
X84149699Y-74528288D01*
X84222861Y-74637782D01*
X84362218Y-74777139D01*
X84526086Y-74886632D01*
X84708165Y-74962051D01*
X84797275Y-74979776D01*
X84850659Y-75009673D01*
X84875559Y-75060270D01*
X85761717Y-80269148D01*
X85752837Y-80329686D01*
X85719121Y-80368067D01*
X85592218Y-80452861D01*
X85592214Y-80452864D01*
X85452864Y-80592214D01*
X85452861Y-80592218D01*
X85343367Y-80756086D01*
X85267949Y-80938163D01*
X85267949Y-80938165D01*
X85229500Y-81131456D01*
X85229500Y-81328543D01*
X85247426Y-81418662D01*
X85265555Y-81509802D01*
X85267949Y-81521834D01*
X85267949Y-81521836D01*
X85343367Y-81703913D01*
X85376102Y-81752904D01*
X85452861Y-81867782D01*
X85592218Y-82007139D01*
X85756086Y-82116632D01*
X85938165Y-82192051D01*
X86131459Y-82230500D01*
X86131460Y-82230500D01*
X86328540Y-82230500D01*
X86328541Y-82230500D01*
X86521835Y-82192051D01*
X86703914Y-82116632D01*
X86867782Y-82007139D01*
X87007139Y-81867782D01*
X87116632Y-81703914D01*
X87192051Y-81521835D01*
X87230500Y-81328541D01*
X87230500Y-81131459D01*
X87192051Y-80938165D01*
X87116632Y-80756086D01*
X87007139Y-80592218D01*
X86867782Y-80452861D01*
X86740879Y-80368067D01*
X86703913Y-80343367D01*
X86591614Y-80296852D01*
X86545088Y-80257116D01*
X86530499Y-80205388D01*
X86530499Y-78399500D01*
X86549406Y-78341309D01*
X86598906Y-78305345D01*
X86629499Y-78300500D01*
X91125500Y-78300500D01*
X91183691Y-78319407D01*
X91219655Y-78368907D01*
X91224500Y-78399500D01*
X91224500Y-79995500D01*
X91205593Y-80053691D01*
X91156093Y-80089655D01*
X91125500Y-80094500D01*
X90666740Y-80094500D01*
X90632673Y-80099463D01*
X90598604Y-80104427D01*
X90493518Y-80155801D01*
X90410801Y-80238518D01*
X90359427Y-80343604D01*
X90357352Y-80357850D01*
X90349500Y-80411740D01*
X90349500Y-80778260D01*
X90355495Y-80819407D01*
X90359427Y-80846395D01*
X90370433Y-80868907D01*
X90410802Y-80951483D01*
X90493517Y-81034198D01*
X90547285Y-81060483D01*
X90598604Y-81085572D01*
X90598605Y-81085572D01*
X90598607Y-81085573D01*
X90666740Y-81095500D01*
X90666743Y-81095500D01*
X92383257Y-81095500D01*
X92383260Y-81095500D01*
X92451393Y-81085573D01*
X92556483Y-81034198D01*
X92639198Y-80951483D01*
X92690573Y-80846393D01*
X92700500Y-80778260D01*
X92700500Y-80411740D01*
X92690573Y-80343607D01*
X92690456Y-80343368D01*
X92639198Y-80238518D01*
X92639198Y-80238517D01*
X92556483Y-80155802D01*
X92556481Y-80155801D01*
X92451395Y-80104427D01*
X92424139Y-80100456D01*
X92383260Y-80094500D01*
X92383257Y-80094500D01*
X91924500Y-80094500D01*
X91866309Y-80075593D01*
X91830345Y-80026093D01*
X91825500Y-79995500D01*
X91825500Y-77960437D01*
X91825499Y-77960435D01*
X91805021Y-77884011D01*
X91805019Y-77884007D01*
X91765461Y-77815491D01*
X91765460Y-77815489D01*
X91709511Y-77759540D01*
X91700352Y-77754252D01*
X91640992Y-77719980D01*
X91640988Y-77719978D01*
X91564564Y-77699500D01*
X91564562Y-77699500D01*
X86269561Y-77699500D01*
X86190437Y-77699500D01*
X86190434Y-77699500D01*
X86114010Y-77719978D01*
X86114008Y-77719979D01*
X86076679Y-77741531D01*
X86016831Y-77754252D01*
X85960935Y-77729365D01*
X85930343Y-77676376D01*
X85929582Y-77672398D01*
X85924070Y-77640000D01*
X85468281Y-74960849D01*
X85477161Y-74900314D01*
X85510874Y-74861935D01*
X85637782Y-74777139D01*
X85777139Y-74637782D01*
X85886632Y-74473914D01*
X85962051Y-74291835D01*
X86000500Y-74098541D01*
X86000500Y-73901459D01*
X85962051Y-73708165D01*
X85886632Y-73526086D01*
X85777139Y-73362218D01*
X85637782Y-73222861D01*
X85473914Y-73113368D01*
X85473915Y-73113368D01*
X85473913Y-73113367D01*
X85291835Y-73037949D01*
X85098543Y-72999500D01*
X85098541Y-72999500D01*
X84901459Y-72999500D01*
X84901456Y-72999500D01*
X84708165Y-73037949D01*
X84708163Y-73037949D01*
X84526086Y-73113367D01*
X84362218Y-73222861D01*
X84362214Y-73222864D01*
X84222864Y-73362214D01*
X84222861Y-73362218D01*
X84113367Y-73526086D01*
X84037949Y-73708163D01*
X84037949Y-73708165D01*
X83999500Y-73901456D01*
X81571457Y-73901456D01*
X81637782Y-73857139D01*
X81777139Y-73717782D01*
X81886632Y-73553914D01*
X81962051Y-73371835D01*
X82000500Y-73178541D01*
X82000500Y-72981459D01*
X81962051Y-72788165D01*
X81886632Y-72606086D01*
X81777139Y-72442218D01*
X81637782Y-72302861D01*
X81528288Y-72229699D01*
X81473913Y-72193367D01*
X81291835Y-72117949D01*
X81098543Y-72079500D01*
X81098541Y-72079500D01*
X80901459Y-72079500D01*
X80901456Y-72079500D01*
X80708165Y-72117949D01*
X80708163Y-72117949D01*
X80526086Y-72193367D01*
X80362218Y-72302861D01*
X80362214Y-72302864D01*
X80222864Y-72442214D01*
X80222861Y-72442218D01*
X80113367Y-72606086D01*
X80037949Y-72788163D01*
X80037949Y-72788165D01*
X79999500Y-72981456D01*
X58082627Y-72981456D01*
X55780675Y-70679504D01*
X55752898Y-70624987D01*
X55762469Y-70564555D01*
X55805734Y-70521290D01*
X55850679Y-70510500D01*
X55869747Y-70510500D01*
X55869748Y-70510500D01*
X55928231Y-70498867D01*
X55994552Y-70454552D01*
X56038867Y-70388231D01*
X56050500Y-70329748D01*
X56050500Y-68590252D01*
X56038867Y-68531769D01*
X55994552Y-68465448D01*
X55994548Y-68465445D01*
X55928233Y-68421134D01*
X55928231Y-68421133D01*
X55928228Y-68421132D01*
X55928227Y-68421132D01*
X55869758Y-68409501D01*
X55869748Y-68409500D01*
X54130252Y-68409500D01*
X54130251Y-68409500D01*
X54130241Y-68409501D01*
X54071772Y-68421132D01*
X54071766Y-68421134D01*
X54005451Y-68465445D01*
X54005445Y-68465451D01*
X53961134Y-68531766D01*
X53961132Y-68531772D01*
X53949501Y-68590241D01*
X53949500Y-68590253D01*
X53949500Y-70329746D01*
X53949501Y-70329758D01*
X53961132Y-70388227D01*
X53961134Y-70388233D01*
X53983118Y-70421134D01*
X54005448Y-70454552D01*
X54071769Y-70498867D01*
X54116231Y-70507711D01*
X54130241Y-70510498D01*
X54130246Y-70510498D01*
X54130252Y-70510500D01*
X54600500Y-70510500D01*
X54658691Y-70529407D01*
X54694655Y-70578907D01*
X54699500Y-70609500D01*
X54699500Y-70651264D01*
X54719978Y-70727688D01*
X54719980Y-70727692D01*
X54759332Y-70795851D01*
X54772054Y-70855699D01*
X54747168Y-70911595D01*
X54704189Y-70939505D01*
X54577757Y-70980585D01*
X54423476Y-71059195D01*
X54335352Y-71123219D01*
X54768461Y-71556329D01*
X54692993Y-71599901D01*
X54599901Y-71692993D01*
X54556328Y-71768461D01*
X54123219Y-71335352D01*
X54059195Y-71423476D01*
X53980588Y-71577751D01*
X53927084Y-71742420D01*
X53900000Y-71913424D01*
X50500500Y-71913424D01*
X50500500Y-65395725D01*
X105249500Y-65395725D01*
X105249500Y-66604274D01*
X105252353Y-66634694D01*
X105252355Y-66634703D01*
X105297207Y-66762883D01*
X105377845Y-66872144D01*
X105377847Y-66872146D01*
X105377850Y-66872150D01*
X105377853Y-66872152D01*
X105377855Y-66872154D01*
X105487116Y-66952792D01*
X105487117Y-66952792D01*
X105487118Y-66952793D01*
X105615301Y-66997646D01*
X105645725Y-67000499D01*
X105645727Y-67000500D01*
X105645734Y-67000500D01*
X106854273Y-67000500D01*
X106854273Y-67000499D01*
X106884699Y-66997646D01*
X107012882Y-66952793D01*
X107122150Y-66872150D01*
X107202793Y-66762882D01*
X107247646Y-66634699D01*
X107250499Y-66604273D01*
X107250500Y-66604273D01*
X107250500Y-65901456D01*
X108749500Y-65901456D01*
X108749500Y-66098543D01*
X108787949Y-66291834D01*
X108787949Y-66291836D01*
X108863367Y-66473913D01*
X108863368Y-66473914D01*
X108972861Y-66637782D01*
X109112218Y-66777139D01*
X109276086Y-66886632D01*
X109458165Y-66962051D01*
X109651459Y-67000500D01*
X109651460Y-67000500D01*
X109848540Y-67000500D01*
X109848541Y-67000500D01*
X110041835Y-66962051D01*
X110223914Y-66886632D01*
X110387782Y-66777139D01*
X110527139Y-66637782D01*
X110636632Y-66473914D01*
X110712051Y-66291835D01*
X110750500Y-66098541D01*
X110750500Y-65901459D01*
X110712051Y-65708165D01*
X110636632Y-65526086D01*
X110527139Y-65362218D01*
X110387782Y-65222861D01*
X110278288Y-65149699D01*
X110223913Y-65113367D01*
X110041835Y-65037949D01*
X109848543Y-64999500D01*
X109848541Y-64999500D01*
X109651459Y-64999500D01*
X109651456Y-64999500D01*
X109458165Y-65037949D01*
X109458163Y-65037949D01*
X109276086Y-65113367D01*
X109112218Y-65222861D01*
X109112214Y-65222864D01*
X108972864Y-65362214D01*
X108972861Y-65362218D01*
X108863367Y-65526086D01*
X108787949Y-65708163D01*
X108787949Y-65708165D01*
X108749500Y-65901456D01*
X107250500Y-65901456D01*
X107250500Y-65395727D01*
X107250499Y-65395725D01*
X107247646Y-65365305D01*
X107247646Y-65365301D01*
X107202793Y-65237118D01*
X107194788Y-65226272D01*
X107122154Y-65127855D01*
X107122152Y-65127853D01*
X107122150Y-65127850D01*
X107122146Y-65127847D01*
X107122144Y-65127845D01*
X107012883Y-65047207D01*
X106884703Y-65002355D01*
X106884694Y-65002353D01*
X106854274Y-64999500D01*
X106854266Y-64999500D01*
X105645734Y-64999500D01*
X105645725Y-64999500D01*
X105615305Y-65002353D01*
X105615296Y-65002355D01*
X105487116Y-65047207D01*
X105377855Y-65127845D01*
X105377845Y-65127855D01*
X105297207Y-65237116D01*
X105252355Y-65365296D01*
X105252353Y-65365305D01*
X105249500Y-65395725D01*
X50500500Y-65395725D01*
X50500500Y-62821456D01*
X79999500Y-62821456D01*
X79999500Y-63018543D01*
X80037949Y-63211834D01*
X80037949Y-63211836D01*
X80113367Y-63393913D01*
X80113368Y-63393914D01*
X80222861Y-63557782D01*
X80362218Y-63697139D01*
X80526086Y-63806632D01*
X80708165Y-63882051D01*
X80901459Y-63920500D01*
X80901460Y-63920500D01*
X81098540Y-63920500D01*
X81098541Y-63920500D01*
X81291835Y-63882051D01*
X81473914Y-63806632D01*
X81637782Y-63697139D01*
X81777139Y-63557782D01*
X81886632Y-63393914D01*
X81962051Y-63211835D01*
X82000500Y-63018541D01*
X82000500Y-62821459D01*
X81962051Y-62628165D01*
X81886632Y-62446086D01*
X81777139Y-62282218D01*
X81637782Y-62142861D01*
X81473914Y-62033368D01*
X81473915Y-62033368D01*
X81473913Y-62033367D01*
X81291835Y-61957949D01*
X81098543Y-61919500D01*
X81098541Y-61919500D01*
X80901459Y-61919500D01*
X80901456Y-61919500D01*
X80708165Y-61957949D01*
X80708163Y-61957949D01*
X80526086Y-62033367D01*
X80362218Y-62142861D01*
X80362214Y-62142864D01*
X80222864Y-62282214D01*
X80222861Y-62282218D01*
X80113367Y-62446086D01*
X80037949Y-62628163D01*
X80037949Y-62628165D01*
X79999500Y-62821456D01*
X50500500Y-62821456D01*
X50500500Y-52893709D01*
X141649500Y-52893709D01*
X141649500Y-53106290D01*
X141682752Y-53316238D01*
X141748443Y-53518412D01*
X141844948Y-53707815D01*
X141844950Y-53707819D01*
X141969891Y-53879786D01*
X141969893Y-53879788D01*
X141969896Y-53879792D01*
X142120208Y-54030104D01*
X142120211Y-54030106D01*
X142120213Y-54030108D01*
X142292180Y-54155049D01*
X142292184Y-54155051D01*
X142481588Y-54251557D01*
X142683757Y-54317246D01*
X142683758Y-54317246D01*
X142683761Y-54317247D01*
X142893710Y-54350500D01*
X142893713Y-54350500D01*
X143106290Y-54350500D01*
X143316238Y-54317247D01*
X143316239Y-54317246D01*
X143316243Y-54317246D01*
X143518412Y-54251557D01*
X143707816Y-54155051D01*
X143879792Y-54030104D01*
X144030104Y-53879792D01*
X144155051Y-53707816D01*
X144251557Y-53518412D01*
X144317246Y-53316243D01*
X144350500Y-53106287D01*
X144350500Y-52893713D01*
X144350500Y-52893709D01*
X144317247Y-52683761D01*
X144317246Y-52683757D01*
X144251557Y-52481588D01*
X144155051Y-52292184D01*
X144155049Y-52292180D01*
X144030108Y-52120213D01*
X144030106Y-52120211D01*
X144030104Y-52120208D01*
X143879792Y-51969896D01*
X143879788Y-51969893D01*
X143879786Y-51969891D01*
X143707819Y-51844950D01*
X143707815Y-51844948D01*
X143518412Y-51748443D01*
X143316238Y-51682752D01*
X143106290Y-51649500D01*
X143106287Y-51649500D01*
X142893713Y-51649500D01*
X142893710Y-51649500D01*
X142683761Y-51682752D01*
X142481587Y-51748443D01*
X142292184Y-51844948D01*
X142292180Y-51844950D01*
X142120213Y-51969891D01*
X141969891Y-52120213D01*
X141844950Y-52292180D01*
X141844948Y-52292184D01*
X141748443Y-52481587D01*
X141682752Y-52683761D01*
X141649500Y-52893709D01*
X50500500Y-52893709D01*
X50500500Y-50599500D01*
X50519407Y-50541309D01*
X50568907Y-50505345D01*
X50599500Y-50500500D01*
X145400500Y-50500500D01*
X145458691Y-50519407D01*
G37*
G04 #@! TD.AperFunction*
M02*
