G04 #@! TF.GenerationSoftware,KiCad,Pcbnew,9.0.2+dfsg-1*
G04 #@! TF.CreationDate,2026-10-09T12:30:48+00:00*
G04 #@! TF.ProjectId,Ardor_Headphones_THT,4172646f-725f-4486-9561-6470686f6e65,rev?*
G04 #@! TF.SameCoordinates,Original*
G04 #@! TF.FileFunction,Copper,L2,Bot*
G04 #@! TF.FilePolarity,Positive*
%FSLAX46Y46*%
G04 Gerber Fmt 4.6, Leading zero omitted, Abs format (unit mm)*
G04 Created by KiCad (PCBNEW 9.0.2+dfsg-1) date 2026-10-09 12:30:48*
%MOMM*%
%LPD*%
G01*
G04 APERTURE LIST*
G04 Aperture macros list*
%AMRoundRect*
0 Rectangle with rounded corners*
0 $1 Rounding radius*
0 $2 $3 $4 $5 $6 $7 $8 $9 X,Y pos of 4 corners*
0 Add a 4 corners polygon primitive as box body*
4,1,4,$2,$3,$4,$5,$6,$7,$8,$9,$2,$3,0*
0 Add four circle primitives for the rounded corners*
1,1,$1+$1,$2,$3*
1,1,$1+$1,$4,$5*
1,1,$1+$1,$6,$7*
1,1,$1+$1,$8,$9*
0 Add four rect primitives between the rounded corners*
20,1,$1+$1,$2,$3,$4,$5,0*
20,1,$1+$1,$4,$5,$6,$7,0*
20,1,$1+$1,$6,$7,$8,$9,0*
20,1,$1+$1,$8,$9,$2,$3,0*%
G04 Aperture macros list end*
G04 #@! TA.AperFunction,ComponentPad*
%ADD10RoundRect,0.250000X-0.550000X-0.550000X0.550000X-0.550000X0.550000X0.550000X-0.550000X0.550000X0*%
G04 #@! TD*
G04 #@! TA.AperFunction,ComponentPad*
%ADD11C,1.600000*%
G04 #@! TD*
G04 #@! TA.AperFunction,ComponentPad*
%ADD12R,1.400000X1.400000*%
G04 #@! TD*
G04 #@! TA.AperFunction,ComponentPad*
%ADD13C,1.400000*%
G04 #@! TD*
G04 #@! TA.AperFunction,ComponentPad*
%ADD14R,1.700000X1.700000*%
G04 #@! TD*
G04 #@! TA.AperFunction,ComponentPad*
%ADD15C,1.700000*%
G04 #@! TD*
G04 #@! TA.AperFunction,ComponentPad*
%ADD16C,2.000000*%
G04 #@! TD*
G04 #@! TA.AperFunction,ComponentPad*
%ADD17RoundRect,0.250000X-1.050000X-1.050000X1.050000X-1.050000X1.050000X1.050000X-1.050000X1.050000X0*%
G04 #@! TD*
G04 #@! TA.AperFunction,ComponentPad*
%ADD18C,2.600000*%
G04 #@! TD*
G04 #@! TA.AperFunction,ComponentPad*
%ADD19R,1.500000X1.500000*%
G04 #@! TD*
G04 #@! TA.AperFunction,ComponentPad*
%ADD20C,1.500000*%
G04 #@! TD*
G04 #@! TA.AperFunction,Conductor*
%ADD21C,0.200000*%
G04 #@! TD*
G04 APERTURE END LIST*
D10*
X121750000Y-82500000D03*
D11*
X124250000Y-82500000D03*
X101770000Y-82500000D03*
X99230000Y-82500000D03*
X90500000Y-91000000D03*
X95500000Y-91000000D03*
X105500000Y-128000000D03*
X110500000Y-128000000D03*
D10*
X113250000Y-109000000D03*
D11*
X116750000Y-109000000D03*
D12*
X121190000Y-103110000D03*
D13*
X121190000Y-110730000D03*
X121190000Y-115810000D03*
X121190000Y-120890000D03*
X128810000Y-120890000D03*
X128810000Y-115810000D03*
X128810000Y-110730000D03*
X128810000Y-103110000D03*
D11*
X100920000Y-103000000D03*
X111080000Y-103000000D03*
X139000000Y-123080000D03*
X139000000Y-112920000D03*
D10*
X89750000Y-127000000D03*
D11*
X92250000Y-127000000D03*
X97000000Y-125080000D03*
X97000000Y-114920000D03*
D10*
X92750000Y-100000000D03*
D11*
X95250000Y-100000000D03*
D10*
X119190000Y-126000000D03*
D11*
X126810000Y-126000000D03*
D10*
X64750000Y-81230000D03*
D11*
X67250000Y-81230000D03*
D14*
X55000000Y-105460000D03*
D15*
X55000000Y-108000000D03*
X55000000Y-110540000D03*
D11*
X85000000Y-74000000D03*
X90000000Y-74000000D03*
X81000000Y-73080000D03*
X81000000Y-62920000D03*
D14*
X55000000Y-69460000D03*
D15*
X55000000Y-72000000D03*
X55000000Y-74540000D03*
D11*
X116080000Y-82500000D03*
X105920000Y-82500000D03*
X105920000Y-100000000D03*
X116080000Y-100000000D03*
D16*
X61380000Y-124000000D03*
X76620000Y-124000000D03*
D11*
X77920000Y-103000000D03*
X88080000Y-103000000D03*
D17*
X127380000Y-59500000D03*
D18*
X142620000Y-59500000D03*
D11*
X135000000Y-110080000D03*
X135000000Y-99920000D03*
X103000000Y-89000000D03*
X98000000Y-89000000D03*
D17*
X127380000Y-90000000D03*
D18*
X142620000Y-90000000D03*
D14*
X140000000Y-71460000D03*
D15*
X140000000Y-74000000D03*
X140000000Y-76540000D03*
D11*
X79920000Y-120000000D03*
X90080000Y-120000000D03*
D10*
X106250000Y-66000000D03*
D11*
X109750000Y-66000000D03*
X100000000Y-78750000D03*
X100000000Y-76250000D03*
X72420000Y-81230000D03*
X82580000Y-81230000D03*
X86230000Y-81230000D03*
X88770000Y-81230000D03*
D19*
X104460000Y-119000000D03*
D20*
X107000000Y-119000000D03*
X109540000Y-119000000D03*
D11*
X128000000Y-75080000D03*
X128000000Y-64920000D03*
D21*
X119190000Y-126000000D02*
X116043900Y-129146100D01*
X116043900Y-129146100D02*
X66526100Y-129146100D01*
X66526100Y-129146100D02*
X61380000Y-124000000D01*
X86750000Y-124000000D02*
X89750000Y-127000000D01*
X76620000Y-124000000D02*
X86750000Y-124000000D01*
X90891500Y-128141500D02*
X105358500Y-128141500D01*
X105358500Y-128141500D02*
X105500000Y-128000000D01*
X89750000Y-127000000D02*
X90891500Y-128141500D01*
X118830000Y-75080000D02*
X109750000Y-66000000D01*
X128000000Y-75080000D02*
X118830000Y-75080000D01*
X116750000Y-109000000D02*
X133920000Y-109000000D01*
X133920000Y-109000000D02*
X135000000Y-110080000D01*
X138848300Y-71460000D02*
X138848300Y-70968300D01*
X138848300Y-70968300D02*
X127380000Y-59500000D01*
X140000000Y-71460000D02*
X138848300Y-71460000D01*
X112431700Y-121891700D02*
X122701700Y-121891700D01*
X122701700Y-121891700D02*
X126810000Y-126000000D01*
X109540000Y-119000000D02*
X112431700Y-121891700D01*
X93756800Y-103000000D02*
X92750000Y-101993200D01*
X92750000Y-101993200D02*
X92750000Y-100000000D01*
X100920000Y-103000000D02*
X93756800Y-103000000D01*
X92750000Y-101993200D02*
X89086800Y-101993200D01*
X89086800Y-101993200D02*
X88080000Y-103000000D01*
X72420000Y-81230000D02*
X67250000Y-81230000D01*
X116080000Y-82500000D02*
X117194600Y-83614600D01*
X117194600Y-83614600D02*
X123135400Y-83614600D01*
X123135400Y-83614600D02*
X124250000Y-82500000D01*
X84080000Y-66000000D02*
X81000000Y-62920000D01*
X106250000Y-66000000D02*
X84080000Y-66000000D01*
X81000000Y-73080000D02*
X84080000Y-73080000D01*
X84080000Y-73080000D02*
X85000000Y-74000000D01*
X64460000Y-120000000D02*
X55000000Y-110540000D01*
X79920000Y-120000000D02*
X64460000Y-120000000D01*
X57360000Y-76900000D02*
X55000000Y-74540000D01*
X89574000Y-80129800D02*
X86344200Y-76900000D01*
X121750000Y-82500000D02*
X119379800Y-80129800D01*
X86344200Y-76900000D02*
X57360000Y-76900000D01*
X119379800Y-80129800D02*
X89574000Y-80129800D01*
X107000000Y-119000000D02*
X100920000Y-125080000D01*
X100920000Y-125080000D02*
X97000000Y-125080000D01*
X90080000Y-120000000D02*
X91920000Y-120000000D01*
X91920000Y-120000000D02*
X97000000Y-125080000D01*
X87624200Y-80084200D02*
X88770000Y-81230000D01*
X83725800Y-80084200D02*
X87624200Y-80084200D01*
X82580000Y-81230000D02*
X83725800Y-80084200D01*
X104783200Y-81363200D02*
X100366800Y-81363200D01*
X100366800Y-81363200D02*
X99230000Y-82500000D01*
X105920000Y-82500000D02*
X104783200Y-81363200D01*
G04 #@! TA.AperFunction,Conductor*
G36*
X145458691Y-50519407D02*
G01*
X145494655Y-50568907D01*
X145499500Y-50599500D01*
X145499500Y-133400500D01*
X145480593Y-133458691D01*
X145431093Y-133494655D01*
X145400500Y-133499500D01*
X50599500Y-133499500D01*
X50541309Y-133480593D01*
X50505345Y-133431093D01*
X50500500Y-133400500D01*
X50500500Y-130893709D01*
X51649500Y-130893709D01*
X51649500Y-131106290D01*
X51682752Y-131316238D01*
X51748443Y-131518412D01*
X51844948Y-131707815D01*
X51844950Y-131707819D01*
X51969891Y-131879786D01*
X51969893Y-131879788D01*
X51969896Y-131879792D01*
X52120208Y-132030104D01*
X52120211Y-132030106D01*
X52120213Y-132030108D01*
X52292180Y-132155049D01*
X52292184Y-132155051D01*
X52481588Y-132251557D01*
X52683757Y-132317246D01*
X52683758Y-132317246D01*
X52683761Y-132317247D01*
X52893710Y-132350500D01*
X52893713Y-132350500D01*
X53106290Y-132350500D01*
X53316238Y-132317247D01*
X53316239Y-132317246D01*
X53316243Y-132317246D01*
X53518412Y-132251557D01*
X53707816Y-132155051D01*
X53879792Y-132030104D01*
X54030104Y-131879792D01*
X54155051Y-131707816D01*
X54251557Y-131518412D01*
X54317246Y-131316243D01*
X54350500Y-131106287D01*
X54350500Y-130893713D01*
X54350500Y-130893709D01*
X54317247Y-130683761D01*
X54317246Y-130683757D01*
X54251557Y-130481588D01*
X54155051Y-130292184D01*
X54155049Y-130292180D01*
X54030108Y-130120213D01*
X54030106Y-130120211D01*
X54030104Y-130120208D01*
X53879792Y-129969896D01*
X53879788Y-129969893D01*
X53879786Y-129969891D01*
X53707819Y-129844950D01*
X53707815Y-129844948D01*
X53518412Y-129748443D01*
X53316238Y-129682752D01*
X53106290Y-129649500D01*
X53106287Y-129649500D01*
X52893713Y-129649500D01*
X52893710Y-129649500D01*
X52683761Y-129682752D01*
X52481587Y-129748443D01*
X52292184Y-129844948D01*
X52292180Y-129844950D01*
X52120213Y-129969891D01*
X51969891Y-130120213D01*
X51844950Y-130292180D01*
X51844948Y-130292184D01*
X51748443Y-130481587D01*
X51682752Y-130683761D01*
X51649500Y-130893709D01*
X50500500Y-130893709D01*
X50500500Y-123905515D01*
X60179500Y-123905515D01*
X60179500Y-124094484D01*
X60209058Y-124281113D01*
X60267453Y-124460832D01*
X60349822Y-124622492D01*
X60353240Y-124629199D01*
X60464310Y-124782073D01*
X60597927Y-124915690D01*
X60750801Y-125026760D01*
X60919168Y-125112547D01*
X61098882Y-125170940D01*
X61098883Y-125170940D01*
X61098886Y-125170941D01*
X61285516Y-125200500D01*
X61285519Y-125200500D01*
X61474484Y-125200500D01*
X61661113Y-125170941D01*
X61661114Y-125170940D01*
X61661118Y-125170940D01*
X61840832Y-125112547D01*
X61926952Y-125068665D01*
X61987382Y-125059094D01*
X62041899Y-125086870D01*
X66285640Y-129330611D01*
X66285639Y-129330611D01*
X66341589Y-129386560D01*
X66410107Y-129426119D01*
X66410111Y-129426121D01*
X66486535Y-129446599D01*
X66486537Y-129446600D01*
X66486538Y-129446600D01*
X116083463Y-129446600D01*
X116083463Y-129446599D01*
X116159889Y-129426121D01*
X116228411Y-129386560D01*
X116284360Y-129330611D01*
X118585475Y-127029496D01*
X118639992Y-127001719D01*
X118655479Y-127000500D01*
X119794273Y-127000500D01*
X119794273Y-127000499D01*
X119824699Y-126997646D01*
X119952882Y-126952793D01*
X120062150Y-126872150D01*
X120142793Y-126762882D01*
X120187646Y-126634699D01*
X120190499Y-126604273D01*
X120190500Y-126604273D01*
X120190500Y-125395727D01*
X120190499Y-125395725D01*
X120187646Y-125365301D01*
X120142793Y-125237118D01*
X120132273Y-125222864D01*
X120062154Y-125127855D01*
X120062152Y-125127853D01*
X120062150Y-125127850D01*
X120062146Y-125127847D01*
X120062144Y-125127845D01*
X119952883Y-125047207D01*
X119824703Y-125002355D01*
X119824694Y-125002353D01*
X119794274Y-124999500D01*
X119794266Y-124999500D01*
X118585734Y-124999500D01*
X118585725Y-124999500D01*
X118555305Y-125002353D01*
X118555296Y-125002355D01*
X118427116Y-125047207D01*
X118317855Y-125127845D01*
X118317845Y-125127855D01*
X118237207Y-125237116D01*
X118192355Y-125365296D01*
X118192353Y-125365305D01*
X118189500Y-125395725D01*
X118189500Y-126534521D01*
X118170593Y-126592712D01*
X118160504Y-126604525D01*
X115948425Y-128816604D01*
X115893908Y-128844381D01*
X115878421Y-128845600D01*
X111174476Y-128845600D01*
X111116285Y-128826693D01*
X111104472Y-128816604D01*
X110658334Y-128370466D01*
X110745606Y-128320080D01*
X110820080Y-128245606D01*
X110870466Y-128158333D01*
X111341976Y-128629843D01*
X111430498Y-128497360D01*
X111509650Y-128306272D01*
X111549999Y-128103418D01*
X111550000Y-128103413D01*
X111550000Y-127896586D01*
X111549999Y-127896581D01*
X111509650Y-127693727D01*
X111430498Y-127502639D01*
X111430491Y-127502625D01*
X111341976Y-127370154D01*
X110870465Y-127841665D01*
X110820080Y-127754394D01*
X110745606Y-127679920D01*
X110658332Y-127629532D01*
X111129843Y-127158022D01*
X110997361Y-127069501D01*
X110806272Y-126990349D01*
X110603418Y-126950000D01*
X110396581Y-126950000D01*
X110193727Y-126990349D01*
X110002638Y-127069501D01*
X109870155Y-127158022D01*
X110341666Y-127629533D01*
X110254394Y-127679920D01*
X110179920Y-127754394D01*
X110129533Y-127841666D01*
X109658022Y-127370155D01*
X109569501Y-127502638D01*
X109490349Y-127693727D01*
X109450000Y-127896581D01*
X109450000Y-128103418D01*
X109490349Y-128306272D01*
X109569501Y-128497361D01*
X109658022Y-128629843D01*
X110129532Y-128158332D01*
X110179920Y-128245606D01*
X110254394Y-128320080D01*
X110341665Y-128370466D01*
X109895528Y-128816604D01*
X109841011Y-128844381D01*
X109825524Y-128845600D01*
X106308329Y-128845600D01*
X106250138Y-128826693D01*
X106214174Y-128777193D01*
X106214174Y-128716007D01*
X106238325Y-128676596D01*
X106277139Y-128637782D01*
X106386632Y-128473914D01*
X106462051Y-128291835D01*
X106500500Y-128098541D01*
X106500500Y-127901459D01*
X106462051Y-127708165D01*
X106386632Y-127526086D01*
X106277139Y-127362218D01*
X106137782Y-127222861D01*
X105973914Y-127113368D01*
X105973915Y-127113368D01*
X105973913Y-127113367D01*
X105791835Y-127037949D01*
X105598543Y-126999500D01*
X105598541Y-126999500D01*
X105401459Y-126999500D01*
X105401456Y-126999500D01*
X105208165Y-127037949D01*
X105208163Y-127037949D01*
X105026086Y-127113367D01*
X104862218Y-127222861D01*
X104862214Y-127222864D01*
X104722864Y-127362214D01*
X104722861Y-127362218D01*
X104613367Y-127526086D01*
X104537949Y-127708163D01*
X104537949Y-127708165D01*
X104527377Y-127761314D01*
X104497480Y-127814698D01*
X104441915Y-127840314D01*
X104430279Y-127841000D01*
X92919876Y-127841000D01*
X92861685Y-127822093D01*
X92849872Y-127812004D01*
X92408334Y-127370466D01*
X92495606Y-127320080D01*
X92570080Y-127245606D01*
X92620466Y-127158333D01*
X93091976Y-127629843D01*
X93180498Y-127497360D01*
X93259650Y-127306272D01*
X93299999Y-127103418D01*
X93300000Y-127103413D01*
X93300000Y-126896586D01*
X93299999Y-126896581D01*
X93259650Y-126693727D01*
X93180498Y-126502639D01*
X93180491Y-126502625D01*
X93091976Y-126370154D01*
X92620465Y-126841665D01*
X92570080Y-126754394D01*
X92495606Y-126679920D01*
X92408332Y-126629532D01*
X92879843Y-126158022D01*
X92747361Y-126069501D01*
X92556272Y-125990349D01*
X92353418Y-125950000D01*
X92146581Y-125950000D01*
X91943727Y-125990349D01*
X91752638Y-126069501D01*
X91620155Y-126158022D01*
X92091666Y-126629533D01*
X92004394Y-126679920D01*
X91929920Y-126754394D01*
X91879533Y-126841666D01*
X91408022Y-126370155D01*
X91319501Y-126502638D01*
X91240349Y-126693727D01*
X91200000Y-126896581D01*
X91200000Y-127103418D01*
X91240349Y-127306272D01*
X91319501Y-127497361D01*
X91408022Y-127629843D01*
X91879532Y-127158332D01*
X91929920Y-127245606D01*
X92004394Y-127320080D01*
X92091665Y-127370466D01*
X91650128Y-127812004D01*
X91595611Y-127839781D01*
X91580124Y-127841000D01*
X91056979Y-127841000D01*
X90998788Y-127822093D01*
X90986975Y-127812004D01*
X90779496Y-127604525D01*
X90751719Y-127550008D01*
X90750500Y-127534521D01*
X90750500Y-126395727D01*
X90750499Y-126395725D01*
X90747646Y-126365305D01*
X90747646Y-126365301D01*
X90702793Y-126237118D01*
X90702790Y-126237115D01*
X90702790Y-126237113D01*
X90622154Y-126127855D01*
X90622152Y-126127853D01*
X90622150Y-126127850D01*
X90622146Y-126127847D01*
X90622144Y-126127845D01*
X90512883Y-126047207D01*
X90384703Y-126002355D01*
X90384694Y-126002353D01*
X90354274Y-125999500D01*
X90354266Y-125999500D01*
X89215479Y-125999500D01*
X89157288Y-125980593D01*
X89145475Y-125970504D01*
X88090661Y-124915690D01*
X86934511Y-123759540D01*
X86934508Y-123759538D01*
X86865992Y-123719980D01*
X86865988Y-123719978D01*
X86789564Y-123699500D01*
X86789562Y-123699500D01*
X77856570Y-123699500D01*
X77798379Y-123680593D01*
X77762415Y-123631093D01*
X77737338Y-123553914D01*
X77732547Y-123539168D01*
X77646760Y-123370801D01*
X77535690Y-123217927D01*
X77402073Y-123084310D01*
X77249199Y-122973240D01*
X77249198Y-122973239D01*
X77249196Y-122973238D01*
X77080832Y-122887453D01*
X76901113Y-122829058D01*
X76714484Y-122799500D01*
X76714481Y-122799500D01*
X76525519Y-122799500D01*
X76525516Y-122799500D01*
X76338886Y-122829058D01*
X76159167Y-122887453D01*
X75990803Y-122973238D01*
X75837928Y-123084309D01*
X75704309Y-123217928D01*
X75593238Y-123370803D01*
X75507453Y-123539167D01*
X75449058Y-123718886D01*
X75419500Y-123905515D01*
X75419500Y-124094484D01*
X75449058Y-124281113D01*
X75507453Y-124460832D01*
X75589822Y-124622492D01*
X75593240Y-124629199D01*
X75704310Y-124782073D01*
X75837927Y-124915690D01*
X75990801Y-125026760D01*
X76159168Y-125112547D01*
X76338882Y-125170940D01*
X76338883Y-125170940D01*
X76338886Y-125170941D01*
X76525516Y-125200500D01*
X76525519Y-125200500D01*
X76714484Y-125200500D01*
X76901113Y-125170941D01*
X76901114Y-125170940D01*
X76901118Y-125170940D01*
X77080832Y-125112547D01*
X77249199Y-125026760D01*
X77402073Y-124915690D01*
X77535690Y-124782073D01*
X77646760Y-124629199D01*
X77732547Y-124460832D01*
X77762415Y-124368906D01*
X77798379Y-124319407D01*
X77856570Y-124300500D01*
X86584521Y-124300500D01*
X86642712Y-124319407D01*
X86654525Y-124329496D01*
X88720504Y-126395475D01*
X88748281Y-126449992D01*
X88749500Y-126465479D01*
X88749500Y-127604274D01*
X88752353Y-127634694D01*
X88752355Y-127634703D01*
X88797207Y-127762883D01*
X88877845Y-127872144D01*
X88877847Y-127872146D01*
X88877850Y-127872150D01*
X88877853Y-127872152D01*
X88877855Y-127872154D01*
X88987116Y-127952792D01*
X88987117Y-127952792D01*
X88987118Y-127952793D01*
X89115301Y-127997646D01*
X89145725Y-128000499D01*
X89145727Y-128000500D01*
X89145734Y-128000500D01*
X90284521Y-128000500D01*
X90342712Y-128019407D01*
X90354524Y-128029496D01*
X90706988Y-128381959D01*
X90706993Y-128381963D01*
X90775508Y-128421520D01*
X90775506Y-128421520D01*
X90775510Y-128421521D01*
X90775512Y-128421522D01*
X90851938Y-128442000D01*
X90931062Y-128442000D01*
X104539127Y-128442000D01*
X104597318Y-128460907D01*
X104621442Y-128485998D01*
X104722861Y-128637782D01*
X104722864Y-128637785D01*
X104761675Y-128676596D01*
X104789452Y-128731113D01*
X104779881Y-128791545D01*
X104736616Y-128834810D01*
X104691671Y-128845600D01*
X66691579Y-128845600D01*
X66633388Y-128826693D01*
X66621575Y-128816604D01*
X62466871Y-124661900D01*
X62439094Y-124607383D01*
X62448664Y-124546955D01*
X62492547Y-124460832D01*
X62550940Y-124281118D01*
X62564838Y-124193368D01*
X62580500Y-124094484D01*
X62580500Y-123905515D01*
X62550941Y-123718886D01*
X62550940Y-123718882D01*
X62492547Y-123539168D01*
X62406760Y-123370801D01*
X62295690Y-123217927D01*
X62162073Y-123084310D01*
X62009199Y-122973240D01*
X62009198Y-122973239D01*
X62009196Y-122973238D01*
X61840832Y-122887453D01*
X61661113Y-122829058D01*
X61474484Y-122799500D01*
X61474481Y-122799500D01*
X61285519Y-122799500D01*
X61285516Y-122799500D01*
X61098886Y-122829058D01*
X60919167Y-122887453D01*
X60750803Y-122973238D01*
X60597928Y-123084309D01*
X60464309Y-123217928D01*
X60353238Y-123370803D01*
X60267453Y-123539167D01*
X60209058Y-123718886D01*
X60179500Y-123905515D01*
X50500500Y-123905515D01*
X50500500Y-110436532D01*
X53949500Y-110436532D01*
X53949500Y-110643467D01*
X53989869Y-110846418D01*
X54069058Y-111037597D01*
X54184020Y-111209651D01*
X54184023Y-111209655D01*
X54330345Y-111355977D01*
X54502402Y-111470941D01*
X54693580Y-111550130D01*
X54896535Y-111590500D01*
X54896536Y-111590500D01*
X55103464Y-111590500D01*
X55103465Y-111590500D01*
X55306420Y-111550130D01*
X55442405Y-111493802D01*
X55503399Y-111489002D01*
X55550292Y-111515263D01*
X64219540Y-120184511D01*
X64219539Y-120184511D01*
X64275489Y-120240460D01*
X64344007Y-120280019D01*
X64344011Y-120280021D01*
X64420435Y-120300499D01*
X64420437Y-120300500D01*
X64420438Y-120300500D01*
X78895388Y-120300500D01*
X78953579Y-120319407D01*
X78986852Y-120361615D01*
X79029035Y-120463453D01*
X79033368Y-120473914D01*
X79142861Y-120637782D01*
X79282218Y-120777139D01*
X79446086Y-120886632D01*
X79628165Y-120962051D01*
X79821459Y-121000500D01*
X79821460Y-121000500D01*
X80018540Y-121000500D01*
X80018541Y-121000500D01*
X80211835Y-120962051D01*
X80393914Y-120886632D01*
X80557782Y-120777139D01*
X80697139Y-120637782D01*
X80806632Y-120473914D01*
X80882051Y-120291835D01*
X80920500Y-120098541D01*
X80920500Y-119901459D01*
X80920499Y-119901456D01*
X89079500Y-119901456D01*
X89079500Y-120098543D01*
X89117949Y-120291834D01*
X89117949Y-120291836D01*
X89193367Y-120473913D01*
X89193368Y-120473914D01*
X89302861Y-120637782D01*
X89442218Y-120777139D01*
X89606086Y-120886632D01*
X89788165Y-120962051D01*
X89981459Y-121000500D01*
X89981460Y-121000500D01*
X90178540Y-121000500D01*
X90178541Y-121000500D01*
X90371835Y-120962051D01*
X90553914Y-120886632D01*
X90717782Y-120777139D01*
X90857139Y-120637782D01*
X90966632Y-120473914D01*
X90995421Y-120404409D01*
X91013148Y-120361615D01*
X91052884Y-120315089D01*
X91104612Y-120300500D01*
X91754521Y-120300500D01*
X91812712Y-120319407D01*
X91824525Y-120329496D01*
X96063004Y-124567975D01*
X96090781Y-124622492D01*
X96084464Y-124675864D01*
X96040473Y-124782073D01*
X96037948Y-124788168D01*
X95999500Y-124981456D01*
X95999500Y-125178543D01*
X96037949Y-125371834D01*
X96037949Y-125371836D01*
X96113367Y-125553913D01*
X96113368Y-125553914D01*
X96222861Y-125717782D01*
X96362218Y-125857139D01*
X96526086Y-125966632D01*
X96708165Y-126042051D01*
X96901459Y-126080500D01*
X96901460Y-126080500D01*
X97098540Y-126080500D01*
X97098541Y-126080500D01*
X97291835Y-126042051D01*
X97473914Y-125966632D01*
X97637782Y-125857139D01*
X97777139Y-125717782D01*
X97886632Y-125553914D01*
X97915421Y-125484409D01*
X97933148Y-125441615D01*
X97972884Y-125395089D01*
X98024612Y-125380500D01*
X100959563Y-125380500D01*
X100959563Y-125380499D01*
X101035989Y-125360021D01*
X101104511Y-125320460D01*
X101160460Y-125264511D01*
X106526245Y-119898724D01*
X106580760Y-119870949D01*
X106634130Y-119877265D01*
X106722749Y-119913973D01*
X106906384Y-119950500D01*
X106906385Y-119950500D01*
X107093615Y-119950500D01*
X107093616Y-119950500D01*
X107277251Y-119913973D01*
X107450231Y-119842322D01*
X107450234Y-119842319D01*
X107450238Y-119842318D01*
X107495187Y-119812282D01*
X107605908Y-119738302D01*
X107738302Y-119605908D01*
X107826604Y-119473755D01*
X107842318Y-119450238D01*
X107842319Y-119450234D01*
X107842322Y-119450231D01*
X107913973Y-119277251D01*
X107950500Y-119093616D01*
X107950500Y-118906384D01*
X107950499Y-118906381D01*
X108589500Y-118906381D01*
X108589500Y-119093618D01*
X108626026Y-119277249D01*
X108697677Y-119450229D01*
X108697681Y-119450238D01*
X108748363Y-119526087D01*
X108801698Y-119605908D01*
X108934092Y-119738302D01*
X108988449Y-119774622D01*
X109089761Y-119842318D01*
X109089767Y-119842320D01*
X109089769Y-119842322D01*
X109262749Y-119913973D01*
X109446384Y-119950500D01*
X109446385Y-119950500D01*
X109633615Y-119950500D01*
X109633616Y-119950500D01*
X109817251Y-119913973D01*
X109817256Y-119913970D01*
X109817259Y-119913970D01*
X109841818Y-119903796D01*
X109905866Y-119877266D01*
X109966860Y-119872465D01*
X110013755Y-119898726D01*
X112191240Y-122076211D01*
X112191239Y-122076211D01*
X112247189Y-122132160D01*
X112315707Y-122171719D01*
X112315711Y-122171721D01*
X112392135Y-122192199D01*
X112392137Y-122192200D01*
X112392138Y-122192200D01*
X112471262Y-122192200D01*
X122536221Y-122192200D01*
X122594412Y-122211107D01*
X122606225Y-122221196D01*
X125873004Y-125487975D01*
X125900781Y-125542492D01*
X125894465Y-125595864D01*
X125847948Y-125708168D01*
X125809500Y-125901456D01*
X125809500Y-126098543D01*
X125847949Y-126291834D01*
X125847949Y-126291836D01*
X125923367Y-126473913D01*
X125923368Y-126473914D01*
X126032861Y-126637782D01*
X126172218Y-126777139D01*
X126336086Y-126886632D01*
X126518165Y-126962051D01*
X126711459Y-127000500D01*
X126711460Y-127000500D01*
X126908540Y-127000500D01*
X126908541Y-127000500D01*
X127101835Y-126962051D01*
X127283914Y-126886632D01*
X127447782Y-126777139D01*
X127587139Y-126637782D01*
X127696632Y-126473914D01*
X127772051Y-126291835D01*
X127810500Y-126098541D01*
X127810500Y-125901459D01*
X127772051Y-125708165D01*
X127696632Y-125526086D01*
X127587139Y-125362218D01*
X127447782Y-125222861D01*
X127338288Y-125149699D01*
X127283913Y-125113367D01*
X127101835Y-125037949D01*
X126908543Y-124999500D01*
X126908541Y-124999500D01*
X126711459Y-124999500D01*
X126711456Y-124999500D01*
X126518168Y-125037948D01*
X126518166Y-125037948D01*
X126518165Y-125037949D01*
X126495814Y-125047207D01*
X126405864Y-125084465D01*
X126344867Y-125089264D01*
X126297975Y-125063004D01*
X125314471Y-124079500D01*
X124216427Y-122981456D01*
X137999500Y-122981456D01*
X137999500Y-123178543D01*
X138025132Y-123307403D01*
X138037743Y-123370801D01*
X138037949Y-123371834D01*
X138037949Y-123371836D01*
X138113367Y-123553913D01*
X138113368Y-123553914D01*
X138222861Y-123717782D01*
X138362218Y-123857139D01*
X138526086Y-123966632D01*
X138708165Y-124042051D01*
X138901459Y-124080500D01*
X138901460Y-124080500D01*
X139098540Y-124080500D01*
X139098541Y-124080500D01*
X139291835Y-124042051D01*
X139473914Y-123966632D01*
X139637782Y-123857139D01*
X139777139Y-123717782D01*
X139886632Y-123553914D01*
X139962051Y-123371835D01*
X140000500Y-123178541D01*
X140000500Y-122981459D01*
X139962051Y-122788165D01*
X139886632Y-122606086D01*
X139777139Y-122442218D01*
X139637782Y-122302861D01*
X139515562Y-122221196D01*
X139473913Y-122193367D01*
X139291835Y-122117949D01*
X139098543Y-122079500D01*
X139098541Y-122079500D01*
X138901459Y-122079500D01*
X138901456Y-122079500D01*
X138708165Y-122117949D01*
X138708163Y-122117949D01*
X138526086Y-122193367D01*
X138362218Y-122302861D01*
X138362214Y-122302864D01*
X138222864Y-122442214D01*
X138222861Y-122442218D01*
X138113367Y-122606086D01*
X138037949Y-122788163D01*
X138037949Y-122788165D01*
X137999500Y-122981456D01*
X124216427Y-122981456D01*
X122886211Y-121651240D01*
X122886208Y-121651238D01*
X122817692Y-121611680D01*
X122817688Y-121611678D01*
X122741264Y-121591200D01*
X122741262Y-121591200D01*
X121989711Y-121591200D01*
X121931520Y-121572293D01*
X121895556Y-121522793D01*
X121895556Y-121461607D01*
X121907396Y-121437198D01*
X121988014Y-121316545D01*
X121988014Y-121316544D01*
X122055894Y-121152666D01*
X122090500Y-120978691D01*
X122090500Y-120801309D01*
X122090499Y-120801306D01*
X127909500Y-120801306D01*
X127909500Y-120978693D01*
X127944106Y-121152665D01*
X127944106Y-121152667D01*
X128011985Y-121316544D01*
X128011985Y-121316545D01*
X128110535Y-121464034D01*
X128110536Y-121464035D01*
X128235965Y-121589464D01*
X128383453Y-121688013D01*
X128547334Y-121755894D01*
X128721309Y-121790500D01*
X128721310Y-121790500D01*
X128898690Y-121790500D01*
X128898691Y-121790500D01*
X129072666Y-121755894D01*
X129236547Y-121688013D01*
X129384035Y-121589464D01*
X129509464Y-121464035D01*
X129608013Y-121316547D01*
X129675894Y-121152666D01*
X129710500Y-120978691D01*
X129710500Y-120801309D01*
X129675894Y-120627334D01*
X129608014Y-120463455D01*
X129608014Y-120463454D01*
X129509464Y-120315965D01*
X129384034Y-120190535D01*
X129236544Y-120091985D01*
X129072666Y-120024106D01*
X128898693Y-119989500D01*
X128898691Y-119989500D01*
X128721309Y-119989500D01*
X128721306Y-119989500D01*
X128547334Y-120024106D01*
X128547332Y-120024106D01*
X128383455Y-120091985D01*
X128383454Y-120091985D01*
X128235965Y-120190535D01*
X128110535Y-120315965D01*
X128011985Y-120463454D01*
X128011985Y-120463455D01*
X127944106Y-120627332D01*
X127944106Y-120627334D01*
X127909500Y-120801306D01*
X122090499Y-120801306D01*
X122055894Y-120627334D01*
X121988014Y-120463455D01*
X121988014Y-120463454D01*
X121889464Y-120315965D01*
X121764034Y-120190535D01*
X121616544Y-120091985D01*
X121452666Y-120024106D01*
X121278693Y-119989500D01*
X121278691Y-119989500D01*
X121101309Y-119989500D01*
X121101306Y-119989500D01*
X120927334Y-120024106D01*
X120927332Y-120024106D01*
X120763455Y-120091985D01*
X120763454Y-120091985D01*
X120615965Y-120190535D01*
X120490535Y-120315965D01*
X120391985Y-120463454D01*
X120391985Y-120463455D01*
X120324106Y-120627332D01*
X120324106Y-120627334D01*
X120289500Y-120801306D01*
X120289500Y-120978693D01*
X120324106Y-121152665D01*
X120324106Y-121152667D01*
X120391985Y-121316544D01*
X120391985Y-121316545D01*
X120472604Y-121437198D01*
X120489213Y-121496086D01*
X120468036Y-121553490D01*
X120417162Y-121587483D01*
X120390289Y-121591200D01*
X112597179Y-121591200D01*
X112538988Y-121572293D01*
X112527175Y-121562204D01*
X110438726Y-119473755D01*
X110410949Y-119419238D01*
X110417266Y-119365866D01*
X110453973Y-119277251D01*
X110490500Y-119093616D01*
X110490500Y-118906384D01*
X110453973Y-118722749D01*
X110382322Y-118549769D01*
X110382320Y-118549767D01*
X110382318Y-118549761D01*
X110322649Y-118460463D01*
X110278302Y-118394092D01*
X110145908Y-118261698D01*
X110091547Y-118225375D01*
X109990238Y-118157681D01*
X109990229Y-118157677D01*
X109817249Y-118086026D01*
X109633618Y-118049500D01*
X109633616Y-118049500D01*
X109446384Y-118049500D01*
X109446381Y-118049500D01*
X109262750Y-118086026D01*
X109089770Y-118157677D01*
X109089761Y-118157681D01*
X108934092Y-118261698D01*
X108934088Y-118261701D01*
X108801701Y-118394088D01*
X108801698Y-118394092D01*
X108697681Y-118549761D01*
X108697677Y-118549770D01*
X108626026Y-118722750D01*
X108589500Y-118906381D01*
X107950499Y-118906381D01*
X107913973Y-118722749D01*
X107842322Y-118549769D01*
X107842320Y-118549767D01*
X107842318Y-118549761D01*
X107782649Y-118460463D01*
X107738302Y-118394092D01*
X107605908Y-118261698D01*
X107551547Y-118225375D01*
X107450238Y-118157681D01*
X107450229Y-118157677D01*
X107277249Y-118086026D01*
X107093618Y-118049500D01*
X107093616Y-118049500D01*
X106906384Y-118049500D01*
X106906381Y-118049500D01*
X106722750Y-118086026D01*
X106549770Y-118157677D01*
X106549761Y-118157681D01*
X106394092Y-118261698D01*
X106394088Y-118261701D01*
X106261701Y-118394088D01*
X106261698Y-118394092D01*
X106157681Y-118549761D01*
X106157677Y-118549770D01*
X106086026Y-118722750D01*
X106049500Y-118906381D01*
X106049500Y-119093618D01*
X106061589Y-119154394D01*
X106086026Y-119277248D01*
X106086027Y-119277250D01*
X106086027Y-119277252D01*
X106122732Y-119365866D01*
X106127532Y-119426863D01*
X106101272Y-119473755D01*
X105588424Y-119986603D01*
X105533907Y-120014380D01*
X105473475Y-120004809D01*
X105430210Y-119961544D01*
X105420639Y-119901112D01*
X105436107Y-119861595D01*
X105445492Y-119847549D01*
X105445493Y-119847546D01*
X105459999Y-119774624D01*
X105460000Y-119774622D01*
X105460000Y-119150001D01*
X105459999Y-119150000D01*
X104833918Y-119150000D01*
X104860000Y-119052661D01*
X104860000Y-118947339D01*
X104833918Y-118850000D01*
X105459999Y-118850000D01*
X105460000Y-118849999D01*
X105460000Y-118225377D01*
X105459999Y-118225375D01*
X105445493Y-118152453D01*
X105445492Y-118152451D01*
X105390241Y-118069762D01*
X105390237Y-118069758D01*
X105307548Y-118014507D01*
X105307546Y-118014506D01*
X105234624Y-118000000D01*
X104610001Y-118000000D01*
X104610000Y-118000001D01*
X104610000Y-118626081D01*
X104512661Y-118600000D01*
X104407339Y-118600000D01*
X104310000Y-118626081D01*
X104310000Y-118000001D01*
X104309999Y-118000000D01*
X103685375Y-118000000D01*
X103612453Y-118014506D01*
X103612451Y-118014507D01*
X103529762Y-118069758D01*
X103529758Y-118069762D01*
X103474507Y-118152451D01*
X103474506Y-118152453D01*
X103460000Y-118225375D01*
X103460000Y-118849999D01*
X103460001Y-118850000D01*
X104086082Y-118850000D01*
X104060000Y-118947339D01*
X104060000Y-119052661D01*
X104086082Y-119150000D01*
X103460001Y-119150000D01*
X103460000Y-119150001D01*
X103460000Y-119774624D01*
X103474506Y-119847546D01*
X103474507Y-119847548D01*
X103529758Y-119930237D01*
X103529762Y-119930241D01*
X103612451Y-119985492D01*
X103612453Y-119985493D01*
X103685375Y-119999999D01*
X103685377Y-120000000D01*
X104309999Y-120000000D01*
X104310000Y-119999999D01*
X104310000Y-119373918D01*
X104407339Y-119400000D01*
X104512661Y-119400000D01*
X104610000Y-119373918D01*
X104610000Y-119999999D01*
X104610001Y-120000000D01*
X105234623Y-120000000D01*
X105234624Y-119999999D01*
X105307546Y-119985493D01*
X105307549Y-119985492D01*
X105321595Y-119976107D01*
X105380482Y-119959496D01*
X105437886Y-119980671D01*
X105471881Y-120031544D01*
X105469481Y-120092682D01*
X105446603Y-120128424D01*
X100824525Y-124750504D01*
X100770008Y-124778281D01*
X100754521Y-124779500D01*
X98024612Y-124779500D01*
X97966421Y-124760593D01*
X97933148Y-124718385D01*
X97907477Y-124656412D01*
X97886632Y-124606086D01*
X97777139Y-124442218D01*
X97637782Y-124302861D01*
X97473914Y-124193368D01*
X97473915Y-124193368D01*
X97473913Y-124193367D01*
X97291835Y-124117949D01*
X97098543Y-124079500D01*
X97098541Y-124079500D01*
X96901459Y-124079500D01*
X96901456Y-124079500D01*
X96708168Y-124117948D01*
X96708166Y-124117948D01*
X96708165Y-124117949D01*
X96647676Y-124143004D01*
X96595864Y-124164465D01*
X96534867Y-124169264D01*
X96487975Y-124143004D01*
X94421182Y-122076211D01*
X92104511Y-119759540D01*
X92067726Y-119738302D01*
X92035992Y-119719980D01*
X92035988Y-119719978D01*
X91959564Y-119699500D01*
X91959562Y-119699500D01*
X91104612Y-119699500D01*
X91046421Y-119680593D01*
X91013148Y-119638385D01*
X90966632Y-119526087D01*
X90966632Y-119526086D01*
X90857139Y-119362218D01*
X90717782Y-119222861D01*
X90553914Y-119113368D01*
X90553915Y-119113368D01*
X90553913Y-119113367D01*
X90371835Y-119037949D01*
X90178543Y-118999500D01*
X90178541Y-118999500D01*
X89981459Y-118999500D01*
X89981456Y-118999500D01*
X89788165Y-119037949D01*
X89788163Y-119037949D01*
X89606086Y-119113367D01*
X89442218Y-119222861D01*
X89442214Y-119222864D01*
X89302864Y-119362214D01*
X89302861Y-119362218D01*
X89193367Y-119526086D01*
X89117949Y-119708163D01*
X89117949Y-119708165D01*
X89079500Y-119901456D01*
X80920499Y-119901456D01*
X80882051Y-119708165D01*
X80806632Y-119526086D01*
X80697139Y-119362218D01*
X80557782Y-119222861D01*
X80393914Y-119113368D01*
X80393915Y-119113368D01*
X80393913Y-119113367D01*
X80211835Y-119037949D01*
X80018543Y-118999500D01*
X80018541Y-118999500D01*
X79821459Y-118999500D01*
X79821456Y-118999500D01*
X79628165Y-119037949D01*
X79628163Y-119037949D01*
X79446086Y-119113367D01*
X79282218Y-119222861D01*
X79282214Y-119222864D01*
X79142864Y-119362214D01*
X79142861Y-119362218D01*
X79033367Y-119526087D01*
X78986852Y-119638385D01*
X78947116Y-119684911D01*
X78895388Y-119699500D01*
X64625479Y-119699500D01*
X64567288Y-119680593D01*
X64555475Y-119670504D01*
X59701552Y-114816581D01*
X95950000Y-114816581D01*
X95950000Y-115023418D01*
X95990349Y-115226272D01*
X96069501Y-115417361D01*
X96158022Y-115549843D01*
X96629532Y-115078332D01*
X96679920Y-115165606D01*
X96754394Y-115240080D01*
X96841665Y-115290465D01*
X96370154Y-115761977D01*
X96502625Y-115850491D01*
X96502639Y-115850498D01*
X96693727Y-115929650D01*
X96896581Y-115969999D01*
X96896586Y-115970000D01*
X97103414Y-115970000D01*
X97103418Y-115969999D01*
X97306272Y-115929650D01*
X97497360Y-115850498D01*
X97629843Y-115761976D01*
X97584297Y-115716430D01*
X120240000Y-115716430D01*
X120240000Y-115903569D01*
X120276508Y-116087104D01*
X120276508Y-116087106D01*
X120348119Y-116259991D01*
X120420118Y-116367747D01*
X120859396Y-115928468D01*
X120863852Y-115945095D01*
X120909930Y-116024905D01*
X120975095Y-116090070D01*
X121054905Y-116136148D01*
X121071528Y-116140602D01*
X120632251Y-116579880D01*
X120740008Y-116651880D01*
X120912894Y-116723491D01*
X121096430Y-116759999D01*
X121096434Y-116760000D01*
X121283566Y-116760000D01*
X121283569Y-116759999D01*
X121467104Y-116723491D01*
X121467106Y-116723491D01*
X121639989Y-116651881D01*
X121640001Y-116651875D01*
X121747747Y-116579880D01*
X121308469Y-116140602D01*
X121325095Y-116136148D01*
X121404905Y-116090070D01*
X121470070Y-116024905D01*
X121516148Y-115945095D01*
X121520602Y-115928469D01*
X121959880Y-116367747D01*
X122031875Y-116260001D01*
X122031881Y-116259989D01*
X122103491Y-116087106D01*
X122103491Y-116087104D01*
X122139999Y-115903569D01*
X122140000Y-115903565D01*
X122140000Y-115716434D01*
X122139999Y-115716430D01*
X127860000Y-115716430D01*
X127860000Y-115903569D01*
X127896508Y-116087104D01*
X127896508Y-116087106D01*
X127968119Y-116259991D01*
X128040118Y-116367747D01*
X128479396Y-115928468D01*
X128483852Y-115945095D01*
X128529930Y-116024905D01*
X128595095Y-116090070D01*
X128674905Y-116136148D01*
X128691528Y-116140602D01*
X128252251Y-116579880D01*
X128360008Y-116651880D01*
X128532894Y-116723491D01*
X128716430Y-116759999D01*
X128716434Y-116760000D01*
X128903566Y-116760000D01*
X128903569Y-116759999D01*
X129087104Y-116723491D01*
X129087106Y-116723491D01*
X129259989Y-116651881D01*
X129260001Y-116651875D01*
X129367747Y-116579880D01*
X128928469Y-116140602D01*
X128945095Y-116136148D01*
X129024905Y-116090070D01*
X129090070Y-116024905D01*
X129136148Y-115945095D01*
X129140602Y-115928469D01*
X129579880Y-116367747D01*
X129651875Y-116260001D01*
X129651881Y-116259989D01*
X129723491Y-116087106D01*
X129723491Y-116087104D01*
X129759999Y-115903569D01*
X129760000Y-115903565D01*
X129760000Y-115716434D01*
X129759999Y-115716430D01*
X129723491Y-115532895D01*
X129723491Y-115532893D01*
X129651880Y-115360008D01*
X129579880Y-115252251D01*
X129140602Y-115691528D01*
X129136148Y-115674905D01*
X129090070Y-115595095D01*
X129024905Y-115529930D01*
X128945095Y-115483852D01*
X128928468Y-115479396D01*
X129367747Y-115040118D01*
X129259991Y-114968119D01*
X129087105Y-114896508D01*
X128903569Y-114860000D01*
X128716430Y-114860000D01*
X128532895Y-114896508D01*
X128532893Y-114896508D01*
X128360008Y-114968119D01*
X128252251Y-115040118D01*
X128691530Y-115479397D01*
X128674905Y-115483852D01*
X128595095Y-115529930D01*
X128529930Y-115595095D01*
X128483852Y-115674905D01*
X128479397Y-115691530D01*
X128040118Y-115252251D01*
X127968119Y-115360008D01*
X127896508Y-115532893D01*
X127896508Y-115532895D01*
X127860000Y-115716430D01*
X122139999Y-115716430D01*
X122103491Y-115532895D01*
X122103491Y-115532893D01*
X122031880Y-115360008D01*
X121959880Y-115252251D01*
X121520602Y-115691528D01*
X121516148Y-115674905D01*
X121470070Y-115595095D01*
X121404905Y-115529930D01*
X121325095Y-115483852D01*
X121308468Y-115479396D01*
X121747747Y-115040118D01*
X121639991Y-114968119D01*
X121467105Y-114896508D01*
X121283569Y-114860000D01*
X121096430Y-114860000D01*
X120912895Y-114896508D01*
X120912893Y-114896508D01*
X120740008Y-114968119D01*
X120632251Y-115040118D01*
X121071530Y-115479397D01*
X121054905Y-115483852D01*
X120975095Y-115529930D01*
X120909930Y-115595095D01*
X120863852Y-115674905D01*
X120859397Y-115691530D01*
X120420118Y-115252251D01*
X120348119Y-115360008D01*
X120276508Y-115532893D01*
X120276508Y-115532895D01*
X120240000Y-115716430D01*
X97584297Y-115716430D01*
X97158333Y-115290466D01*
X97245606Y-115240080D01*
X97320080Y-115165606D01*
X97370466Y-115078333D01*
X97841976Y-115549843D01*
X97930498Y-115417360D01*
X98009650Y-115226272D01*
X98043181Y-115057699D01*
X98043181Y-115057698D01*
X98049999Y-115023420D01*
X98050000Y-115023413D01*
X98050000Y-114816586D01*
X98049999Y-114816581D01*
X98009650Y-114613727D01*
X97930498Y-114422639D01*
X97930491Y-114422625D01*
X97841976Y-114290154D01*
X97370465Y-114761665D01*
X97320080Y-114674394D01*
X97245606Y-114599920D01*
X97158332Y-114549532D01*
X97629843Y-114078022D01*
X97497361Y-113989501D01*
X97306272Y-113910349D01*
X97103418Y-113870000D01*
X96896581Y-113870000D01*
X96693727Y-113910349D01*
X96502638Y-113989501D01*
X96370155Y-114078022D01*
X96841666Y-114549533D01*
X96754394Y-114599920D01*
X96679920Y-114674394D01*
X96629533Y-114761666D01*
X96158022Y-114290155D01*
X96069501Y-114422638D01*
X95990349Y-114613727D01*
X95950000Y-114816581D01*
X59701552Y-114816581D01*
X57701552Y-112816581D01*
X137950000Y-112816581D01*
X137950000Y-113023418D01*
X137990349Y-113226272D01*
X138069501Y-113417361D01*
X138158022Y-113549843D01*
X138629532Y-113078332D01*
X138679920Y-113165606D01*
X138754394Y-113240080D01*
X138841665Y-113290465D01*
X138370154Y-113761977D01*
X138502625Y-113850491D01*
X138502639Y-113850498D01*
X138693727Y-113929650D01*
X138896581Y-113969999D01*
X138896586Y-113970000D01*
X139103414Y-113970000D01*
X139103418Y-113969999D01*
X139306272Y-113929650D01*
X139497360Y-113850498D01*
X139629843Y-113761976D01*
X139158333Y-113290466D01*
X139245606Y-113240080D01*
X139320080Y-113165606D01*
X139370466Y-113078333D01*
X139841976Y-113549843D01*
X139930498Y-113417360D01*
X140009650Y-113226272D01*
X140049999Y-113023418D01*
X140050000Y-113023413D01*
X140050000Y-112816586D01*
X140049999Y-112816581D01*
X140009650Y-112613727D01*
X139930498Y-112422639D01*
X139930491Y-112422625D01*
X139841976Y-112290154D01*
X139370465Y-112761665D01*
X139320080Y-112674394D01*
X139245606Y-112599920D01*
X139158332Y-112549532D01*
X139629843Y-112078022D01*
X139497361Y-111989501D01*
X139306272Y-111910349D01*
X139103418Y-111870000D01*
X138896581Y-111870000D01*
X138693727Y-111910349D01*
X138502638Y-111989501D01*
X138370155Y-112078022D01*
X138841666Y-112549533D01*
X138754394Y-112599920D01*
X138679920Y-112674394D01*
X138629533Y-112761666D01*
X138158022Y-112290155D01*
X138069501Y-112422638D01*
X137990349Y-112613727D01*
X137950000Y-112816581D01*
X57701552Y-112816581D01*
X55975263Y-111090292D01*
X55947486Y-111035775D01*
X55953802Y-110982405D01*
X56010130Y-110846420D01*
X56050500Y-110643465D01*
X56050500Y-110641306D01*
X120289500Y-110641306D01*
X120289500Y-110818693D01*
X120297148Y-110857139D01*
X120322064Y-110982402D01*
X120324106Y-110992665D01*
X120324106Y-110992667D01*
X120391985Y-111156544D01*
X120391985Y-111156545D01*
X120490535Y-111304034D01*
X120490536Y-111304035D01*
X120615965Y-111429464D01*
X120763453Y-111528013D01*
X120927334Y-111595894D01*
X121101309Y-111630500D01*
X121101310Y-111630500D01*
X121278690Y-111630500D01*
X121278691Y-111630500D01*
X121452666Y-111595894D01*
X121616547Y-111528013D01*
X121764035Y-111429464D01*
X121889464Y-111304035D01*
X121988013Y-111156547D01*
X122055894Y-110992666D01*
X122090500Y-110818691D01*
X122090500Y-110641309D01*
X122090499Y-110641306D01*
X127909500Y-110641306D01*
X127909500Y-110818693D01*
X127917148Y-110857139D01*
X127942064Y-110982402D01*
X127944106Y-110992665D01*
X127944106Y-110992667D01*
X128011985Y-111156544D01*
X128011985Y-111156545D01*
X128110535Y-111304034D01*
X128110536Y-111304035D01*
X128235965Y-111429464D01*
X128383453Y-111528013D01*
X128547334Y-111595894D01*
X128721309Y-111630500D01*
X128721310Y-111630500D01*
X128898690Y-111630500D01*
X128898691Y-111630500D01*
X129072666Y-111595894D01*
X129236547Y-111528013D01*
X129384035Y-111429464D01*
X129509464Y-111304035D01*
X129608013Y-111156547D01*
X129675894Y-110992666D01*
X129710500Y-110818691D01*
X129710500Y-110641309D01*
X129675894Y-110467334D01*
X129608014Y-110303455D01*
X129608014Y-110303454D01*
X129509464Y-110155965D01*
X129384034Y-110030535D01*
X129236544Y-109931985D01*
X129072666Y-109864106D01*
X128898693Y-109829500D01*
X128898691Y-109829500D01*
X128721309Y-109829500D01*
X128721306Y-109829500D01*
X128547334Y-109864106D01*
X128547332Y-109864106D01*
X128383455Y-109931985D01*
X128383454Y-109931985D01*
X128235965Y-110030535D01*
X128110535Y-110155965D01*
X128011985Y-110303454D01*
X128011985Y-110303455D01*
X127944106Y-110467332D01*
X127944106Y-110467334D01*
X127909500Y-110641306D01*
X122090499Y-110641306D01*
X122055894Y-110467334D01*
X121988014Y-110303455D01*
X121988014Y-110303454D01*
X121889464Y-110155965D01*
X121764034Y-110030535D01*
X121616544Y-109931985D01*
X121452666Y-109864106D01*
X121278693Y-109829500D01*
X121278691Y-109829500D01*
X121101309Y-109829500D01*
X121101306Y-109829500D01*
X120927334Y-109864106D01*
X120927332Y-109864106D01*
X120763455Y-109931985D01*
X120763454Y-109931985D01*
X120615965Y-110030535D01*
X120490535Y-110155965D01*
X120391985Y-110303454D01*
X120391985Y-110303455D01*
X120324106Y-110467332D01*
X120324106Y-110467334D01*
X120289500Y-110641306D01*
X56050500Y-110641306D01*
X56050500Y-110436535D01*
X56010130Y-110233580D01*
X55930941Y-110042402D01*
X55815977Y-109870345D01*
X55669655Y-109724023D01*
X55669651Y-109724020D01*
X55497597Y-109609058D01*
X55306418Y-109529869D01*
X55103467Y-109489500D01*
X55103465Y-109489500D01*
X54896535Y-109489500D01*
X54896532Y-109489500D01*
X54693581Y-109529869D01*
X54502402Y-109609058D01*
X54330348Y-109724020D01*
X54184020Y-109870348D01*
X54069058Y-110042402D01*
X53989869Y-110233581D01*
X53949500Y-110436532D01*
X50500500Y-110436532D01*
X50500500Y-107913424D01*
X53900000Y-107913424D01*
X53900000Y-108086575D01*
X53927084Y-108257579D01*
X53980588Y-108422248D01*
X54059195Y-108576524D01*
X54059197Y-108576528D01*
X54123219Y-108664646D01*
X54556328Y-108231536D01*
X54599901Y-108307007D01*
X54692993Y-108400099D01*
X54768460Y-108443670D01*
X54335352Y-108876778D01*
X54423477Y-108940805D01*
X54577751Y-109019411D01*
X54742420Y-109072915D01*
X54913425Y-109100000D01*
X55086575Y-109100000D01*
X55257579Y-109072915D01*
X55422248Y-109019411D01*
X55576524Y-108940804D01*
X55576530Y-108940800D01*
X55664646Y-108876779D01*
X55664646Y-108876778D01*
X55231538Y-108443670D01*
X55307007Y-108400099D01*
X55400099Y-108307007D01*
X55443670Y-108231538D01*
X55876778Y-108664646D01*
X55876779Y-108664646D01*
X55940800Y-108576530D01*
X55940804Y-108576524D01*
X56019411Y-108422248D01*
X56028029Y-108395725D01*
X112249500Y-108395725D01*
X112249500Y-109604274D01*
X112252353Y-109634694D01*
X112252355Y-109634703D01*
X112297207Y-109762883D01*
X112377845Y-109872144D01*
X112377847Y-109872146D01*
X112377850Y-109872150D01*
X112377853Y-109872152D01*
X112377855Y-109872154D01*
X112487116Y-109952792D01*
X112487117Y-109952792D01*
X112487118Y-109952793D01*
X112615301Y-109997646D01*
X112645725Y-110000499D01*
X112645727Y-110000500D01*
X112645734Y-110000500D01*
X113854273Y-110000500D01*
X113854273Y-110000499D01*
X113884699Y-109997646D01*
X114012882Y-109952793D01*
X114122150Y-109872150D01*
X114202793Y-109762882D01*
X114247646Y-109634699D01*
X114250499Y-109604273D01*
X114250500Y-109604273D01*
X114250500Y-108901456D01*
X115749500Y-108901456D01*
X115749500Y-109098543D01*
X115787949Y-109291834D01*
X115787949Y-109291836D01*
X115863367Y-109473913D01*
X115863368Y-109473914D01*
X115972861Y-109637782D01*
X116112218Y-109777139D01*
X116276086Y-109886632D01*
X116458165Y-109962051D01*
X116651459Y-110000500D01*
X116651460Y-110000500D01*
X116848540Y-110000500D01*
X116848541Y-110000500D01*
X117041835Y-109962051D01*
X117223914Y-109886632D01*
X117387782Y-109777139D01*
X117527139Y-109637782D01*
X117636632Y-109473914D01*
X117665421Y-109404409D01*
X117683148Y-109361615D01*
X117722884Y-109315089D01*
X117774612Y-109300500D01*
X133754521Y-109300500D01*
X133812712Y-109319407D01*
X133824525Y-109329496D01*
X134063004Y-109567975D01*
X134090781Y-109622492D01*
X134084464Y-109675864D01*
X134042517Y-109777138D01*
X134037948Y-109788168D01*
X133999500Y-109981456D01*
X133999500Y-110178543D01*
X134037949Y-110371834D01*
X134037949Y-110371836D01*
X134113367Y-110553913D01*
X134113368Y-110553914D01*
X134222861Y-110717782D01*
X134362218Y-110857139D01*
X134526086Y-110966632D01*
X134708165Y-111042051D01*
X134901459Y-111080500D01*
X134901460Y-111080500D01*
X135098540Y-111080500D01*
X135098541Y-111080500D01*
X135291835Y-111042051D01*
X135473914Y-110966632D01*
X135637782Y-110857139D01*
X135777139Y-110717782D01*
X135886632Y-110553914D01*
X135962051Y-110371835D01*
X136000500Y-110178541D01*
X136000500Y-109981459D01*
X135962051Y-109788165D01*
X135886632Y-109606086D01*
X135777139Y-109442218D01*
X135637782Y-109302861D01*
X135473914Y-109193368D01*
X135473915Y-109193368D01*
X135473913Y-109193367D01*
X135291835Y-109117949D01*
X135098543Y-109079500D01*
X135098541Y-109079500D01*
X134901459Y-109079500D01*
X134901456Y-109079500D01*
X134708168Y-109117948D01*
X134708166Y-109117948D01*
X134708165Y-109117949D01*
X134647676Y-109143004D01*
X134595864Y-109164465D01*
X134534867Y-109169264D01*
X134487976Y-109143004D01*
X134104510Y-108759539D01*
X134035992Y-108719980D01*
X134035988Y-108719978D01*
X133959564Y-108699500D01*
X133959562Y-108699500D01*
X117774612Y-108699500D01*
X117716421Y-108680593D01*
X117683148Y-108638385D01*
X117636632Y-108526087D01*
X117636632Y-108526086D01*
X117527139Y-108362218D01*
X117387782Y-108222861D01*
X117278288Y-108149699D01*
X117223913Y-108113367D01*
X117041835Y-108037949D01*
X116848543Y-107999500D01*
X116848541Y-107999500D01*
X116651459Y-107999500D01*
X116651456Y-107999500D01*
X116458165Y-108037949D01*
X116458163Y-108037949D01*
X116276086Y-108113367D01*
X116112218Y-108222861D01*
X116112214Y-108222864D01*
X115972864Y-108362214D01*
X115972861Y-108362218D01*
X115863367Y-108526086D01*
X115787949Y-108708163D01*
X115787949Y-108708165D01*
X115749500Y-108901456D01*
X114250500Y-108901456D01*
X114250500Y-108395727D01*
X114250499Y-108395725D01*
X114247646Y-108365305D01*
X114247646Y-108365301D01*
X114202793Y-108237118D01*
X114192273Y-108222864D01*
X114122154Y-108127855D01*
X114122152Y-108127853D01*
X114122150Y-108127850D01*
X114122146Y-108127847D01*
X114122144Y-108127845D01*
X114012883Y-108047207D01*
X113884703Y-108002355D01*
X113884694Y-108002353D01*
X113854274Y-107999500D01*
X113854266Y-107999500D01*
X112645734Y-107999500D01*
X112645725Y-107999500D01*
X112615305Y-108002353D01*
X112615296Y-108002355D01*
X112487116Y-108047207D01*
X112377855Y-108127845D01*
X112377845Y-108127855D01*
X112297207Y-108237116D01*
X112252355Y-108365296D01*
X112252353Y-108365305D01*
X112249500Y-108395725D01*
X56028029Y-108395725D01*
X56038719Y-108362826D01*
X56038719Y-108362825D01*
X56072914Y-108257581D01*
X56100000Y-108086575D01*
X56100000Y-107913424D01*
X56072915Y-107742420D01*
X56019411Y-107577751D01*
X55940805Y-107423477D01*
X55876778Y-107335352D01*
X55443670Y-107768460D01*
X55400099Y-107692993D01*
X55307007Y-107599901D01*
X55231536Y-107556328D01*
X55664646Y-107123219D01*
X55576528Y-107059197D01*
X55576524Y-107059195D01*
X55422248Y-106980588D01*
X55257579Y-106927084D01*
X55086575Y-106900000D01*
X54913425Y-106900000D01*
X54742420Y-106927084D01*
X54577751Y-106980588D01*
X54423476Y-107059195D01*
X54335352Y-107123219D01*
X54768461Y-107556328D01*
X54692993Y-107599901D01*
X54599901Y-107692993D01*
X54556328Y-107768461D01*
X54123219Y-107335352D01*
X54059195Y-107423476D01*
X53980588Y-107577751D01*
X53927084Y-107742420D01*
X53900000Y-107913424D01*
X50500500Y-107913424D01*
X50500500Y-104590253D01*
X53949500Y-104590253D01*
X53949500Y-106329746D01*
X53949501Y-106329758D01*
X53961132Y-106388227D01*
X53961133Y-106388231D01*
X54005448Y-106454552D01*
X54071769Y-106498867D01*
X54116231Y-106507711D01*
X54130241Y-106510498D01*
X54130246Y-106510498D01*
X54130252Y-106510500D01*
X54130253Y-106510500D01*
X55869747Y-106510500D01*
X55869748Y-106510500D01*
X55928231Y-106498867D01*
X55994552Y-106454552D01*
X56038867Y-106388231D01*
X56050500Y-106329748D01*
X56050500Y-104590252D01*
X56038867Y-104531769D01*
X55994552Y-104465448D01*
X55994548Y-104465445D01*
X55928233Y-104421134D01*
X55928231Y-104421133D01*
X55928228Y-104421132D01*
X55928227Y-104421132D01*
X55869758Y-104409501D01*
X55869748Y-104409500D01*
X54130252Y-104409500D01*
X54130251Y-104409500D01*
X54130241Y-104409501D01*
X54071772Y-104421132D01*
X54071766Y-104421134D01*
X54005451Y-104465445D01*
X54005445Y-104465451D01*
X53961134Y-104531766D01*
X53961132Y-104531772D01*
X53949501Y-104590241D01*
X53949500Y-104590253D01*
X50500500Y-104590253D01*
X50500500Y-102901456D01*
X76919500Y-102901456D01*
X76919500Y-103098543D01*
X76957949Y-103291834D01*
X76957949Y-103291836D01*
X77033367Y-103473913D01*
X77033368Y-103473914D01*
X77142861Y-103637782D01*
X77282218Y-103777139D01*
X77446086Y-103886632D01*
X77628165Y-103962051D01*
X77821459Y-104000500D01*
X77821460Y-104000500D01*
X78018540Y-104000500D01*
X78018541Y-104000500D01*
X78211835Y-103962051D01*
X78393914Y-103886632D01*
X78557782Y-103777139D01*
X78697139Y-103637782D01*
X78806632Y-103473914D01*
X78882051Y-103291835D01*
X78920500Y-103098541D01*
X78920500Y-102901459D01*
X78920499Y-102901456D01*
X87079500Y-102901456D01*
X87079500Y-103098543D01*
X87117949Y-103291834D01*
X87117949Y-103291836D01*
X87193367Y-103473913D01*
X87193368Y-103473914D01*
X87302861Y-103637782D01*
X87442218Y-103777139D01*
X87606086Y-103886632D01*
X87788165Y-103962051D01*
X87981459Y-104000500D01*
X87981460Y-104000500D01*
X88178540Y-104000500D01*
X88178541Y-104000500D01*
X88371835Y-103962051D01*
X88553914Y-103886632D01*
X88717782Y-103777139D01*
X88857139Y-103637782D01*
X88966632Y-103473914D01*
X89042051Y-103291835D01*
X89080500Y-103098541D01*
X89080500Y-102901459D01*
X89042051Y-102708165D01*
X88995533Y-102595863D01*
X88990733Y-102534867D01*
X89016993Y-102487976D01*
X89182275Y-102322696D01*
X89236792Y-102294919D01*
X89252278Y-102293700D01*
X92584521Y-102293700D01*
X92642712Y-102312607D01*
X92654525Y-102322696D01*
X93516340Y-103184511D01*
X93516339Y-103184511D01*
X93572289Y-103240460D01*
X93640807Y-103280019D01*
X93640811Y-103280021D01*
X93717235Y-103300499D01*
X93717237Y-103300500D01*
X93717238Y-103300500D01*
X99895388Y-103300500D01*
X99953579Y-103319407D01*
X99986852Y-103361615D01*
X99991430Y-103372667D01*
X100033368Y-103473914D01*
X100142861Y-103637782D01*
X100282218Y-103777139D01*
X100446086Y-103886632D01*
X100628165Y-103962051D01*
X100821459Y-104000500D01*
X100821460Y-104000500D01*
X101018540Y-104000500D01*
X101018541Y-104000500D01*
X101211835Y-103962051D01*
X101393914Y-103886632D01*
X101557782Y-103777139D01*
X101697139Y-103637782D01*
X101806632Y-103473914D01*
X101882051Y-103291835D01*
X101920500Y-103098541D01*
X101920500Y-102901459D01*
X101920499Y-102901456D01*
X101919529Y-102896581D01*
X110030000Y-102896581D01*
X110030000Y-103103418D01*
X110070349Y-103306272D01*
X110149501Y-103497361D01*
X110238022Y-103629843D01*
X110709532Y-103158332D01*
X110759920Y-103245606D01*
X110834394Y-103320080D01*
X110921665Y-103370465D01*
X110450154Y-103841977D01*
X110582625Y-103930491D01*
X110582639Y-103930498D01*
X110773727Y-104009650D01*
X110976581Y-104049999D01*
X110976586Y-104050000D01*
X111183414Y-104050000D01*
X111183418Y-104049999D01*
X111386272Y-104009650D01*
X111577360Y-103930498D01*
X111709843Y-103841976D01*
X111238333Y-103370466D01*
X111325606Y-103320080D01*
X111400080Y-103245606D01*
X111450466Y-103158333D01*
X111921976Y-103629843D01*
X112010498Y-103497360D01*
X112089650Y-103306272D01*
X112129999Y-103103418D01*
X112130000Y-103103413D01*
X112130000Y-102896586D01*
X112129999Y-102896581D01*
X112089650Y-102693727D01*
X112010498Y-102502639D01*
X112010494Y-102502630D01*
X111968906Y-102440390D01*
X111968905Y-102440389D01*
X111935405Y-102390253D01*
X120289500Y-102390253D01*
X120289500Y-103829746D01*
X120289501Y-103829758D01*
X120301132Y-103888227D01*
X120301134Y-103888233D01*
X120329375Y-103930498D01*
X120345448Y-103954552D01*
X120411769Y-103998867D01*
X120456231Y-104007711D01*
X120470241Y-104010498D01*
X120470246Y-104010498D01*
X120470252Y-104010500D01*
X120470253Y-104010500D01*
X121909747Y-104010500D01*
X121909748Y-104010500D01*
X121968231Y-103998867D01*
X122034552Y-103954552D01*
X122078867Y-103888231D01*
X122090500Y-103829748D01*
X122090500Y-103021306D01*
X127909500Y-103021306D01*
X127909500Y-103198693D01*
X127944106Y-103372665D01*
X127944106Y-103372667D01*
X128011985Y-103536544D01*
X128011985Y-103536545D01*
X128110535Y-103684034D01*
X128110536Y-103684035D01*
X128235965Y-103809464D01*
X128383453Y-103908013D01*
X128547334Y-103975894D01*
X128721309Y-104010500D01*
X128721310Y-104010500D01*
X128898690Y-104010500D01*
X128898691Y-104010500D01*
X129072666Y-103975894D01*
X129236547Y-103908013D01*
X129384035Y-103809464D01*
X129509464Y-103684035D01*
X129608013Y-103536547D01*
X129675894Y-103372666D01*
X129710500Y-103198691D01*
X129710500Y-103021309D01*
X129675894Y-102847334D01*
X129608014Y-102683455D01*
X129608014Y-102683454D01*
X129509464Y-102535965D01*
X129384034Y-102410535D01*
X129236544Y-102311985D01*
X129072666Y-102244106D01*
X128898693Y-102209500D01*
X128898691Y-102209500D01*
X128721309Y-102209500D01*
X128721306Y-102209500D01*
X128547334Y-102244106D01*
X128547332Y-102244106D01*
X128383455Y-102311985D01*
X128383454Y-102311985D01*
X128235965Y-102410535D01*
X128110535Y-102535965D01*
X128011985Y-102683454D01*
X128011985Y-102683455D01*
X127944106Y-102847332D01*
X127944106Y-102847334D01*
X127909500Y-103021306D01*
X122090500Y-103021306D01*
X122090500Y-102390252D01*
X122078867Y-102331769D01*
X122034552Y-102265448D01*
X121970822Y-102222864D01*
X121968233Y-102221134D01*
X121968231Y-102221133D01*
X121968228Y-102221132D01*
X121968227Y-102221132D01*
X121909758Y-102209501D01*
X121909748Y-102209500D01*
X120470252Y-102209500D01*
X120470251Y-102209500D01*
X120470241Y-102209501D01*
X120411772Y-102221132D01*
X120411766Y-102221134D01*
X120345451Y-102265445D01*
X120345445Y-102265451D01*
X120301134Y-102331766D01*
X120301132Y-102331772D01*
X120289501Y-102390241D01*
X120289500Y-102390253D01*
X111935405Y-102390253D01*
X111921976Y-102370155D01*
X111450465Y-102841665D01*
X111400080Y-102754394D01*
X111325606Y-102679920D01*
X111238332Y-102629532D01*
X111709843Y-102158022D01*
X111577361Y-102069501D01*
X111386272Y-101990349D01*
X111183418Y-101950000D01*
X110976581Y-101950000D01*
X110773727Y-101990349D01*
X110582638Y-102069501D01*
X110450155Y-102158022D01*
X110921666Y-102629533D01*
X110834394Y-102679920D01*
X110759920Y-102754394D01*
X110709533Y-102841666D01*
X110238022Y-102370155D01*
X110149501Y-102502638D01*
X110070349Y-102693727D01*
X110030000Y-102896581D01*
X101919529Y-102896581D01*
X101909390Y-102845606D01*
X101882051Y-102708165D01*
X101806632Y-102526086D01*
X101697139Y-102362218D01*
X101557782Y-102222861D01*
X101393914Y-102113368D01*
X101393915Y-102113368D01*
X101393913Y-102113367D01*
X101211835Y-102037949D01*
X101018543Y-101999500D01*
X101018541Y-101999500D01*
X100821459Y-101999500D01*
X100821456Y-101999500D01*
X100628165Y-102037949D01*
X100628163Y-102037949D01*
X100446086Y-102113367D01*
X100282218Y-102222861D01*
X100282214Y-102222864D01*
X100142864Y-102362214D01*
X100142861Y-102362218D01*
X100033367Y-102526087D01*
X99986852Y-102638385D01*
X99947116Y-102684911D01*
X99895388Y-102699500D01*
X93922279Y-102699500D01*
X93864088Y-102680593D01*
X93852275Y-102670504D01*
X93079496Y-101897725D01*
X93051719Y-101843208D01*
X93050500Y-101827721D01*
X93050500Y-101099500D01*
X93069407Y-101041309D01*
X93118907Y-101005345D01*
X93149500Y-101000500D01*
X93354273Y-101000500D01*
X93354273Y-101000499D01*
X93384699Y-100997646D01*
X93512882Y-100952793D01*
X93622150Y-100872150D01*
X93702793Y-100762882D01*
X93747646Y-100634699D01*
X93750499Y-100604273D01*
X93750500Y-100604273D01*
X93750500Y-99896581D01*
X94200000Y-99896581D01*
X94200000Y-100103418D01*
X94240349Y-100306272D01*
X94319501Y-100497361D01*
X94408022Y-100629843D01*
X94879532Y-100158332D01*
X94929920Y-100245606D01*
X95004394Y-100320080D01*
X95091665Y-100370465D01*
X94620154Y-100841977D01*
X94752625Y-100930491D01*
X94752639Y-100930498D01*
X94943727Y-101009650D01*
X95146581Y-101049999D01*
X95146586Y-101050000D01*
X95353414Y-101050000D01*
X95353418Y-101049999D01*
X95556272Y-101009650D01*
X95747360Y-100930498D01*
X95879843Y-100841976D01*
X95408333Y-100370466D01*
X95495606Y-100320080D01*
X95570080Y-100245606D01*
X95620466Y-100158333D01*
X96091976Y-100629843D01*
X96180498Y-100497360D01*
X96259650Y-100306272D01*
X96299999Y-100103418D01*
X96300000Y-100103413D01*
X96300000Y-99901456D01*
X104919500Y-99901456D01*
X104919500Y-100098543D01*
X104957949Y-100291834D01*
X104957949Y-100291836D01*
X105033367Y-100473913D01*
X105033368Y-100473914D01*
X105142861Y-100637782D01*
X105282218Y-100777139D01*
X105446086Y-100886632D01*
X105628165Y-100962051D01*
X105821459Y-101000500D01*
X105821460Y-101000500D01*
X106018540Y-101000500D01*
X106018541Y-101000500D01*
X106211835Y-100962051D01*
X106393914Y-100886632D01*
X106557782Y-100777139D01*
X106697139Y-100637782D01*
X106806632Y-100473914D01*
X106882051Y-100291835D01*
X106920500Y-100098541D01*
X106920500Y-99901459D01*
X106920499Y-99901456D01*
X115079500Y-99901456D01*
X115079500Y-100098543D01*
X115117949Y-100291834D01*
X115117949Y-100291836D01*
X115193367Y-100473913D01*
X115193368Y-100473914D01*
X115302861Y-100637782D01*
X115442218Y-100777139D01*
X115606086Y-100886632D01*
X115788165Y-100962051D01*
X115981459Y-101000500D01*
X115981460Y-101000500D01*
X116178540Y-101000500D01*
X116178541Y-101000500D01*
X116371835Y-100962051D01*
X116553914Y-100886632D01*
X116717782Y-100777139D01*
X116857139Y-100637782D01*
X116966632Y-100473914D01*
X117042051Y-100291835D01*
X117080500Y-100098541D01*
X117080500Y-99901459D01*
X117063617Y-99816581D01*
X133950000Y-99816581D01*
X133950000Y-100023418D01*
X133990349Y-100226272D01*
X134069501Y-100417361D01*
X134158022Y-100549843D01*
X134629532Y-100078332D01*
X134679920Y-100165606D01*
X134754394Y-100240080D01*
X134841665Y-100290465D01*
X134370154Y-100761977D01*
X134502625Y-100850491D01*
X134502639Y-100850498D01*
X134693727Y-100929650D01*
X134896581Y-100969999D01*
X134896586Y-100970000D01*
X135103414Y-100970000D01*
X135103418Y-100969999D01*
X135306272Y-100929650D01*
X135497360Y-100850498D01*
X135629843Y-100761976D01*
X135158333Y-100290466D01*
X135245606Y-100240080D01*
X135320080Y-100165606D01*
X135370466Y-100078333D01*
X135841976Y-100549843D01*
X135930498Y-100417360D01*
X136009650Y-100226272D01*
X136049999Y-100023418D01*
X136050000Y-100023413D01*
X136050000Y-99816586D01*
X136049999Y-99816581D01*
X136009650Y-99613727D01*
X135930498Y-99422639D01*
X135930491Y-99422625D01*
X135841976Y-99290154D01*
X135370465Y-99761665D01*
X135320080Y-99674394D01*
X135245606Y-99599920D01*
X135158332Y-99549532D01*
X135629843Y-99078022D01*
X135497361Y-98989501D01*
X135306272Y-98910349D01*
X135103418Y-98870000D01*
X134896581Y-98870000D01*
X134693727Y-98910349D01*
X134502638Y-98989501D01*
X134370155Y-99078022D01*
X134841666Y-99549533D01*
X134754394Y-99599920D01*
X134679920Y-99674394D01*
X134629533Y-99761666D01*
X134158022Y-99290155D01*
X134069501Y-99422638D01*
X133990349Y-99613727D01*
X133950000Y-99816581D01*
X117063617Y-99816581D01*
X117042051Y-99708165D01*
X116966632Y-99526086D01*
X116857139Y-99362218D01*
X116717782Y-99222861D01*
X116619281Y-99157045D01*
X116553913Y-99113367D01*
X116371835Y-99037949D01*
X116178543Y-98999500D01*
X116178541Y-98999500D01*
X115981459Y-98999500D01*
X115981456Y-98999500D01*
X115788165Y-99037949D01*
X115788163Y-99037949D01*
X115606086Y-99113367D01*
X115442218Y-99222861D01*
X115442214Y-99222864D01*
X115302864Y-99362214D01*
X115302861Y-99362218D01*
X115193367Y-99526086D01*
X115117949Y-99708163D01*
X115117949Y-99708165D01*
X115079500Y-99901456D01*
X106920499Y-99901456D01*
X106882051Y-99708165D01*
X106806632Y-99526086D01*
X106697139Y-99362218D01*
X106557782Y-99222861D01*
X106448288Y-99149699D01*
X106393913Y-99113367D01*
X106211835Y-99037949D01*
X106018543Y-98999500D01*
X106018541Y-98999500D01*
X105821459Y-98999500D01*
X105821456Y-98999500D01*
X105628165Y-99037949D01*
X105628163Y-99037949D01*
X105446086Y-99113367D01*
X105282218Y-99222861D01*
X105282214Y-99222864D01*
X105142864Y-99362214D01*
X105142861Y-99362218D01*
X105033367Y-99526086D01*
X104957949Y-99708163D01*
X104957949Y-99708165D01*
X104919500Y-99901456D01*
X96300000Y-99901456D01*
X96300000Y-99896586D01*
X96299999Y-99896581D01*
X96259650Y-99693727D01*
X96180498Y-99502639D01*
X96180491Y-99502625D01*
X96091976Y-99370154D01*
X95620465Y-99841665D01*
X95570080Y-99754394D01*
X95495606Y-99679920D01*
X95408332Y-99629532D01*
X95879843Y-99158022D01*
X95747361Y-99069501D01*
X95556272Y-98990349D01*
X95353418Y-98950000D01*
X95146581Y-98950000D01*
X94943727Y-98990349D01*
X94752638Y-99069501D01*
X94620155Y-99158022D01*
X95091666Y-99629533D01*
X95004394Y-99679920D01*
X94929920Y-99754394D01*
X94879533Y-99841666D01*
X94408022Y-99370155D01*
X94319501Y-99502638D01*
X94240349Y-99693727D01*
X94200000Y-99896581D01*
X93750500Y-99896581D01*
X93750500Y-99395727D01*
X93750499Y-99395725D01*
X93747646Y-99365305D01*
X93747646Y-99365301D01*
X93702793Y-99237118D01*
X93702790Y-99237115D01*
X93702790Y-99237113D01*
X93622154Y-99127855D01*
X93622152Y-99127853D01*
X93622150Y-99127850D01*
X93622146Y-99127847D01*
X93622144Y-99127845D01*
X93512883Y-99047207D01*
X93384703Y-99002355D01*
X93384694Y-99002353D01*
X93354274Y-98999500D01*
X93354266Y-98999500D01*
X92145734Y-98999500D01*
X92145725Y-98999500D01*
X92115305Y-99002353D01*
X92115296Y-99002355D01*
X91987116Y-99047207D01*
X91877855Y-99127845D01*
X91877845Y-99127855D01*
X91797207Y-99237116D01*
X91752355Y-99365296D01*
X91752353Y-99365305D01*
X91749500Y-99395725D01*
X91749500Y-100604274D01*
X91752353Y-100634694D01*
X91752355Y-100634703D01*
X91797207Y-100762883D01*
X91877845Y-100872144D01*
X91877847Y-100872146D01*
X91877850Y-100872150D01*
X91877853Y-100872152D01*
X91877855Y-100872154D01*
X91987116Y-100952792D01*
X91987117Y-100952792D01*
X91987118Y-100952793D01*
X92115301Y-100997646D01*
X92145725Y-101000499D01*
X92145727Y-101000500D01*
X92145734Y-101000500D01*
X92350500Y-101000500D01*
X92408691Y-101019407D01*
X92444655Y-101068907D01*
X92449500Y-101099500D01*
X92449500Y-101593700D01*
X92430593Y-101651891D01*
X92381093Y-101687855D01*
X92350500Y-101692700D01*
X89047235Y-101692700D01*
X88970811Y-101713178D01*
X88970807Y-101713180D01*
X88902289Y-101752739D01*
X88592023Y-102063004D01*
X88537507Y-102090781D01*
X88484135Y-102084464D01*
X88371835Y-102037949D01*
X88178543Y-101999500D01*
X88178541Y-101999500D01*
X87981459Y-101999500D01*
X87981456Y-101999500D01*
X87788165Y-102037949D01*
X87788163Y-102037949D01*
X87606086Y-102113367D01*
X87442218Y-102222861D01*
X87442214Y-102222864D01*
X87302864Y-102362214D01*
X87302861Y-102362218D01*
X87193367Y-102526086D01*
X87117949Y-102708163D01*
X87117949Y-102708165D01*
X87079500Y-102901456D01*
X78920499Y-102901456D01*
X78882051Y-102708165D01*
X78806632Y-102526086D01*
X78697139Y-102362218D01*
X78557782Y-102222861D01*
X78393914Y-102113368D01*
X78393915Y-102113368D01*
X78393913Y-102113367D01*
X78211835Y-102037949D01*
X78018543Y-101999500D01*
X78018541Y-101999500D01*
X77821459Y-101999500D01*
X77821456Y-101999500D01*
X77628165Y-102037949D01*
X77628163Y-102037949D01*
X77446086Y-102113367D01*
X77282218Y-102222861D01*
X77282214Y-102222864D01*
X77142864Y-102362214D01*
X77142861Y-102362218D01*
X77033367Y-102526086D01*
X76957949Y-102708163D01*
X76957949Y-102708165D01*
X76919500Y-102901456D01*
X50500500Y-102901456D01*
X50500500Y-90901456D01*
X89499500Y-90901456D01*
X89499500Y-91098543D01*
X89537949Y-91291834D01*
X89537949Y-91291836D01*
X89613367Y-91473913D01*
X89631132Y-91500500D01*
X89722861Y-91637782D01*
X89862218Y-91777139D01*
X90026086Y-91886632D01*
X90208165Y-91962051D01*
X90401459Y-92000500D01*
X90401460Y-92000500D01*
X90598540Y-92000500D01*
X90598541Y-92000500D01*
X90791835Y-91962051D01*
X90973914Y-91886632D01*
X91137782Y-91777139D01*
X91277139Y-91637782D01*
X91386632Y-91473914D01*
X91462051Y-91291835D01*
X91500500Y-91098541D01*
X91500500Y-90901459D01*
X91500499Y-90901456D01*
X91499529Y-90896581D01*
X94450000Y-90896581D01*
X94450000Y-91103418D01*
X94490349Y-91306272D01*
X94569501Y-91497361D01*
X94658022Y-91629843D01*
X95129532Y-91158332D01*
X95179920Y-91245606D01*
X95254394Y-91320080D01*
X95341665Y-91370465D01*
X94870154Y-91841977D01*
X95002625Y-91930491D01*
X95002639Y-91930498D01*
X95193727Y-92009650D01*
X95396581Y-92049999D01*
X95396586Y-92050000D01*
X95603414Y-92050000D01*
X95603418Y-92049999D01*
X95806272Y-92009650D01*
X95997360Y-91930498D01*
X96129843Y-91841976D01*
X95658333Y-91370466D01*
X95745606Y-91320080D01*
X95820080Y-91245606D01*
X95870466Y-91158333D01*
X96341976Y-91629843D01*
X96430498Y-91497360D01*
X96509650Y-91306272D01*
X96549999Y-91103418D01*
X96550000Y-91103413D01*
X96550000Y-90896586D01*
X96549999Y-90896581D01*
X96509650Y-90693727D01*
X96430498Y-90502639D01*
X96430491Y-90502625D01*
X96341976Y-90370154D01*
X95870465Y-90841665D01*
X95820080Y-90754394D01*
X95745606Y-90679920D01*
X95658332Y-90629532D01*
X96129843Y-90158022D01*
X95997361Y-90069501D01*
X95806272Y-89990349D01*
X95603418Y-89950000D01*
X95396581Y-89950000D01*
X95193727Y-89990349D01*
X95002638Y-90069501D01*
X94870155Y-90158022D01*
X95341666Y-90629533D01*
X95254394Y-90679920D01*
X95179920Y-90754394D01*
X95129533Y-90841666D01*
X94658022Y-90370155D01*
X94569501Y-90502638D01*
X94490349Y-90693727D01*
X94450000Y-90896581D01*
X91499529Y-90896581D01*
X91489390Y-90845606D01*
X91462051Y-90708165D01*
X91386632Y-90526086D01*
X91277139Y-90362218D01*
X91137782Y-90222861D01*
X91028288Y-90149699D01*
X90973913Y-90113367D01*
X90791835Y-90037949D01*
X90598543Y-89999500D01*
X90598541Y-89999500D01*
X90401459Y-89999500D01*
X90401456Y-89999500D01*
X90208165Y-90037949D01*
X90208163Y-90037949D01*
X90026086Y-90113367D01*
X89862218Y-90222861D01*
X89862214Y-90222864D01*
X89722864Y-90362214D01*
X89722861Y-90362218D01*
X89613367Y-90526086D01*
X89537949Y-90708163D01*
X89537949Y-90708165D01*
X89499500Y-90901456D01*
X50500500Y-90901456D01*
X50500500Y-88901456D01*
X96999500Y-88901456D01*
X96999500Y-89098543D01*
X97037949Y-89291834D01*
X97037949Y-89291836D01*
X97113367Y-89473913D01*
X97113368Y-89473914D01*
X97222861Y-89637782D01*
X97362218Y-89777139D01*
X97526086Y-89886632D01*
X97708165Y-89962051D01*
X97901459Y-90000500D01*
X97901460Y-90000500D01*
X98098540Y-90000500D01*
X98098541Y-90000500D01*
X98291835Y-89962051D01*
X98473914Y-89886632D01*
X98637782Y-89777139D01*
X98777139Y-89637782D01*
X98886632Y-89473914D01*
X98962051Y-89291835D01*
X99000500Y-89098541D01*
X99000500Y-88901459D01*
X99000499Y-88901456D01*
X101999500Y-88901456D01*
X101999500Y-89098543D01*
X102037949Y-89291834D01*
X102037949Y-89291836D01*
X102113367Y-89473913D01*
X102113368Y-89473914D01*
X102222861Y-89637782D01*
X102362218Y-89777139D01*
X102526086Y-89886632D01*
X102708165Y-89962051D01*
X102901459Y-90000500D01*
X102901460Y-90000500D01*
X103098540Y-90000500D01*
X103098541Y-90000500D01*
X103291835Y-89962051D01*
X103473914Y-89886632D01*
X103637782Y-89777139D01*
X103777139Y-89637782D01*
X103886632Y-89473914D01*
X103962051Y-89291835D01*
X104000500Y-89098541D01*
X104000500Y-88901459D01*
X104000499Y-88901456D01*
X103999359Y-88895725D01*
X125879500Y-88895725D01*
X125879500Y-91104274D01*
X125882353Y-91134694D01*
X125882355Y-91134703D01*
X125927207Y-91262883D01*
X126007845Y-91372144D01*
X126007847Y-91372146D01*
X126007850Y-91372150D01*
X126007853Y-91372152D01*
X126007855Y-91372154D01*
X126117116Y-91452792D01*
X126117117Y-91452792D01*
X126117118Y-91452793D01*
X126245301Y-91497646D01*
X126275725Y-91500499D01*
X126275727Y-91500500D01*
X126275734Y-91500500D01*
X128484273Y-91500500D01*
X128484273Y-91500499D01*
X128514699Y-91497646D01*
X128642882Y-91452793D01*
X128752150Y-91372150D01*
X128832793Y-91262882D01*
X128877646Y-91134699D01*
X128880499Y-91104273D01*
X128880500Y-91104273D01*
X128880500Y-89881904D01*
X141119500Y-89881904D01*
X141119500Y-90118095D01*
X141156445Y-90351363D01*
X141229432Y-90575992D01*
X141336657Y-90786433D01*
X141475483Y-90977510D01*
X141642490Y-91144517D01*
X141833567Y-91283343D01*
X142044008Y-91390568D01*
X142268632Y-91463553D01*
X142268633Y-91463553D01*
X142268636Y-91463554D01*
X142501905Y-91500500D01*
X142501908Y-91500500D01*
X142738095Y-91500500D01*
X142971363Y-91463554D01*
X142971364Y-91463553D01*
X142971368Y-91463553D01*
X143195992Y-91390568D01*
X143406433Y-91283343D01*
X143597510Y-91144517D01*
X143764517Y-90977510D01*
X143903343Y-90786433D01*
X144010568Y-90575992D01*
X144083553Y-90351368D01*
X144103906Y-90222864D01*
X144120500Y-90118095D01*
X144120500Y-89881904D01*
X144083554Y-89648636D01*
X144083553Y-89648632D01*
X144010568Y-89424008D01*
X143903343Y-89213567D01*
X143764517Y-89022490D01*
X143597510Y-88855483D01*
X143406433Y-88716657D01*
X143406432Y-88716656D01*
X143406430Y-88716655D01*
X143195992Y-88609432D01*
X142971363Y-88536445D01*
X142738095Y-88499500D01*
X142738092Y-88499500D01*
X142501908Y-88499500D01*
X142501905Y-88499500D01*
X142268636Y-88536445D01*
X142044007Y-88609432D01*
X141833569Y-88716655D01*
X141642491Y-88855482D01*
X141475482Y-89022491D01*
X141336655Y-89213569D01*
X141229432Y-89424007D01*
X141156445Y-89648636D01*
X141119500Y-89881904D01*
X128880500Y-89881904D01*
X128880500Y-88895727D01*
X128880499Y-88895725D01*
X128877646Y-88865305D01*
X128877646Y-88865301D01*
X128832793Y-88737118D01*
X128817692Y-88716657D01*
X128752154Y-88627855D01*
X128752152Y-88627853D01*
X128752150Y-88627850D01*
X128752146Y-88627847D01*
X128752144Y-88627845D01*
X128642883Y-88547207D01*
X128514703Y-88502355D01*
X128514694Y-88502353D01*
X128484274Y-88499500D01*
X128484266Y-88499500D01*
X126275734Y-88499500D01*
X126275725Y-88499500D01*
X126245305Y-88502353D01*
X126245296Y-88502355D01*
X126117116Y-88547207D01*
X126007855Y-88627845D01*
X126007845Y-88627855D01*
X125927207Y-88737116D01*
X125882355Y-88865296D01*
X125882353Y-88865305D01*
X125879500Y-88895725D01*
X103999359Y-88895725D01*
X103991355Y-88855483D01*
X103962051Y-88708165D01*
X103886632Y-88526086D01*
X103777139Y-88362218D01*
X103637782Y-88222861D01*
X103473914Y-88113368D01*
X103473915Y-88113368D01*
X103473913Y-88113367D01*
X103291835Y-88037949D01*
X103098543Y-87999500D01*
X103098541Y-87999500D01*
X102901459Y-87999500D01*
X102901456Y-87999500D01*
X102708165Y-88037949D01*
X102708163Y-88037949D01*
X102526086Y-88113367D01*
X102362218Y-88222861D01*
X102362214Y-88222864D01*
X102222864Y-88362214D01*
X102222861Y-88362218D01*
X102113367Y-88526086D01*
X102037949Y-88708163D01*
X102037949Y-88708165D01*
X101999500Y-88901456D01*
X99000499Y-88901456D01*
X98962051Y-88708165D01*
X98886632Y-88526086D01*
X98777139Y-88362218D01*
X98637782Y-88222861D01*
X98473914Y-88113368D01*
X98473915Y-88113368D01*
X98473913Y-88113367D01*
X98291835Y-88037949D01*
X98098543Y-87999500D01*
X98098541Y-87999500D01*
X97901459Y-87999500D01*
X97901456Y-87999500D01*
X97708165Y-88037949D01*
X97708163Y-88037949D01*
X97526086Y-88113367D01*
X97362218Y-88222861D01*
X97362214Y-88222864D01*
X97222864Y-88362214D01*
X97222861Y-88362218D01*
X97113367Y-88526086D01*
X97037949Y-88708163D01*
X97037949Y-88708165D01*
X96999500Y-88901456D01*
X50500500Y-88901456D01*
X50500500Y-82401456D01*
X98229500Y-82401456D01*
X98229500Y-82401459D01*
X98229500Y-82598541D01*
X98267948Y-82791832D01*
X98267949Y-82791834D01*
X98267949Y-82791836D01*
X98343367Y-82973913D01*
X98379699Y-83028288D01*
X98452861Y-83137782D01*
X98592218Y-83277139D01*
X98756086Y-83386632D01*
X98938165Y-83462051D01*
X99131459Y-83500500D01*
X99131460Y-83500500D01*
X99328540Y-83500500D01*
X99328541Y-83500500D01*
X99521835Y-83462051D01*
X99703914Y-83386632D01*
X99867782Y-83277139D01*
X100007139Y-83137782D01*
X100116632Y-82973914D01*
X100192051Y-82791835D01*
X100230500Y-82598541D01*
X100230500Y-82401459D01*
X100192051Y-82208165D01*
X100145533Y-82095863D01*
X100140733Y-82034867D01*
X100166993Y-81987976D01*
X100462275Y-81692696D01*
X100516791Y-81664919D01*
X100532278Y-81663700D01*
X100952371Y-81663700D01*
X101010562Y-81682607D01*
X101046526Y-81732107D01*
X101046526Y-81793293D01*
X101022375Y-81832704D01*
X100992864Y-81862214D01*
X100992861Y-81862218D01*
X100883367Y-82026086D01*
X100807949Y-82208163D01*
X100807949Y-82208165D01*
X100769500Y-82401456D01*
X100769500Y-82401459D01*
X100769500Y-82598541D01*
X100807948Y-82791832D01*
X100807949Y-82791834D01*
X100807949Y-82791836D01*
X100883367Y-82973913D01*
X100919699Y-83028288D01*
X100992861Y-83137782D01*
X101132218Y-83277139D01*
X101296086Y-83386632D01*
X101478165Y-83462051D01*
X101671459Y-83500500D01*
X101671460Y-83500500D01*
X101868540Y-83500500D01*
X101868541Y-83500500D01*
X102061835Y-83462051D01*
X102243914Y-83386632D01*
X102407782Y-83277139D01*
X102547139Y-83137782D01*
X102656632Y-82973914D01*
X102732051Y-82791835D01*
X102770500Y-82598541D01*
X102770500Y-82401459D01*
X102732051Y-82208165D01*
X102656632Y-82026086D01*
X102547139Y-81862218D01*
X102517625Y-81832704D01*
X102489848Y-81778187D01*
X102499419Y-81717755D01*
X102542684Y-81674490D01*
X102587629Y-81663700D01*
X104617721Y-81663700D01*
X104675912Y-81682607D01*
X104687725Y-81692696D01*
X104983004Y-81987975D01*
X105010781Y-82042492D01*
X105004465Y-82095864D01*
X104957948Y-82208168D01*
X104919500Y-82401456D01*
X104919500Y-82401459D01*
X104919500Y-82598541D01*
X104957948Y-82791832D01*
X104957949Y-82791834D01*
X104957949Y-82791836D01*
X105033367Y-82973913D01*
X105069699Y-83028288D01*
X105142861Y-83137782D01*
X105282218Y-83277139D01*
X105446086Y-83386632D01*
X105628165Y-83462051D01*
X105821459Y-83500500D01*
X105821460Y-83500500D01*
X106018540Y-83500500D01*
X106018541Y-83500500D01*
X106211835Y-83462051D01*
X106393914Y-83386632D01*
X106557782Y-83277139D01*
X106697139Y-83137782D01*
X106806632Y-82973914D01*
X106882051Y-82791835D01*
X106920500Y-82598541D01*
X106920500Y-82401459D01*
X106882051Y-82208165D01*
X106806632Y-82026086D01*
X106697139Y-81862218D01*
X106557782Y-81722861D01*
X106448288Y-81649699D01*
X106393913Y-81613367D01*
X106211835Y-81537949D01*
X106018543Y-81499500D01*
X106018541Y-81499500D01*
X105821459Y-81499500D01*
X105821456Y-81499500D01*
X105628168Y-81537948D01*
X105628166Y-81537948D01*
X105628165Y-81537949D01*
X105605814Y-81547207D01*
X105515864Y-81584465D01*
X105454867Y-81589264D01*
X105407976Y-81563004D01*
X104967710Y-81122739D01*
X104899192Y-81083180D01*
X104899188Y-81083178D01*
X104822764Y-81062700D01*
X104822762Y-81062700D01*
X100327238Y-81062700D01*
X100327235Y-81062700D01*
X100250811Y-81083178D01*
X100250807Y-81083180D01*
X100182289Y-81122739D01*
X99742023Y-81563004D01*
X99687507Y-81590781D01*
X99634135Y-81584464D01*
X99521835Y-81537949D01*
X99328543Y-81499500D01*
X99328541Y-81499500D01*
X99131459Y-81499500D01*
X99131456Y-81499500D01*
X98938165Y-81537949D01*
X98938163Y-81537949D01*
X98756086Y-81613367D01*
X98592218Y-81722861D01*
X98592214Y-81722864D01*
X98452864Y-81862214D01*
X98452861Y-81862218D01*
X98343367Y-82026086D01*
X98267949Y-82208163D01*
X98267949Y-82208165D01*
X98229500Y-82401456D01*
X50500500Y-82401456D01*
X50500500Y-80625725D01*
X63749500Y-80625725D01*
X63749500Y-81834274D01*
X63752353Y-81864694D01*
X63752355Y-81864703D01*
X63797207Y-81992883D01*
X63877845Y-82102144D01*
X63877847Y-82102146D01*
X63877850Y-82102150D01*
X63877853Y-82102152D01*
X63877855Y-82102154D01*
X63987116Y-82182792D01*
X63987117Y-82182792D01*
X63987118Y-82182793D01*
X64115301Y-82227646D01*
X64145725Y-82230499D01*
X64145727Y-82230500D01*
X64145734Y-82230500D01*
X65354273Y-82230500D01*
X65354273Y-82230499D01*
X65384699Y-82227646D01*
X65512882Y-82182793D01*
X65622150Y-82102150D01*
X65702793Y-81992882D01*
X65747646Y-81864699D01*
X65750499Y-81834273D01*
X65750500Y-81834273D01*
X65750500Y-81131456D01*
X66249500Y-81131456D01*
X66249500Y-81328543D01*
X66287949Y-81521834D01*
X66287949Y-81521836D01*
X66363367Y-81703913D01*
X66363368Y-81703914D01*
X66472861Y-81867782D01*
X66612218Y-82007139D01*
X66776086Y-82116632D01*
X66958165Y-82192051D01*
X67151459Y-82230500D01*
X67151460Y-82230500D01*
X67348540Y-82230500D01*
X67348541Y-82230500D01*
X67541835Y-82192051D01*
X67723914Y-82116632D01*
X67887782Y-82007139D01*
X68027139Y-81867782D01*
X68136632Y-81703914D01*
X68165421Y-81634409D01*
X68183148Y-81591615D01*
X68222884Y-81545089D01*
X68274612Y-81530500D01*
X71395388Y-81530500D01*
X71453579Y-81549407D01*
X71486852Y-81591615D01*
X71516711Y-81663700D01*
X71533368Y-81703914D01*
X71642861Y-81867782D01*
X71782218Y-82007139D01*
X71946086Y-82116632D01*
X72128165Y-82192051D01*
X72321459Y-82230500D01*
X72321460Y-82230500D01*
X72518540Y-82230500D01*
X72518541Y-82230500D01*
X72711835Y-82192051D01*
X72893914Y-82116632D01*
X73057782Y-82007139D01*
X73197139Y-81867782D01*
X73306632Y-81703914D01*
X73382051Y-81521835D01*
X73420500Y-81328541D01*
X73420500Y-81131459D01*
X73382051Y-80938165D01*
X73306632Y-80756086D01*
X73197139Y-80592218D01*
X73057782Y-80452861D01*
X72934161Y-80370260D01*
X72893913Y-80343367D01*
X72711835Y-80267949D01*
X72518543Y-80229500D01*
X72518541Y-80229500D01*
X72321459Y-80229500D01*
X72321456Y-80229500D01*
X72128165Y-80267949D01*
X72128163Y-80267949D01*
X71946086Y-80343367D01*
X71782218Y-80452861D01*
X71782214Y-80452864D01*
X71642864Y-80592214D01*
X71642861Y-80592218D01*
X71533367Y-80756087D01*
X71486852Y-80868385D01*
X71447116Y-80914911D01*
X71395388Y-80929500D01*
X68274612Y-80929500D01*
X68216421Y-80910593D01*
X68183148Y-80868385D01*
X68157477Y-80806412D01*
X68136632Y-80756086D01*
X68027139Y-80592218D01*
X67887782Y-80452861D01*
X67764161Y-80370260D01*
X67723913Y-80343367D01*
X67541835Y-80267949D01*
X67348543Y-80229500D01*
X67348541Y-80229500D01*
X67151459Y-80229500D01*
X67151456Y-80229500D01*
X66958165Y-80267949D01*
X66958163Y-80267949D01*
X66776086Y-80343367D01*
X66612218Y-80452861D01*
X66612214Y-80452864D01*
X66472864Y-80592214D01*
X66472861Y-80592218D01*
X66363367Y-80756086D01*
X66287949Y-80938163D01*
X66287949Y-80938165D01*
X66249500Y-81131456D01*
X65750500Y-81131456D01*
X65750500Y-80625727D01*
X65750499Y-80625725D01*
X65747646Y-80595305D01*
X65747646Y-80595301D01*
X65702793Y-80467118D01*
X65697020Y-80459296D01*
X65622154Y-80357855D01*
X65622152Y-80357853D01*
X65622150Y-80357850D01*
X65622146Y-80357847D01*
X65622144Y-80357845D01*
X65512883Y-80277207D01*
X65384703Y-80232355D01*
X65384694Y-80232353D01*
X65354274Y-80229500D01*
X65354266Y-80229500D01*
X64145734Y-80229500D01*
X64145725Y-80229500D01*
X64115305Y-80232353D01*
X64115296Y-80232355D01*
X63987116Y-80277207D01*
X63877855Y-80357845D01*
X63877845Y-80357855D01*
X63797207Y-80467116D01*
X63752355Y-80595296D01*
X63752353Y-80595305D01*
X63749500Y-80625725D01*
X50500500Y-80625725D01*
X50500500Y-74436532D01*
X53949500Y-74436532D01*
X53949500Y-74643467D01*
X53989869Y-74846418D01*
X54069058Y-75037597D01*
X54184020Y-75209651D01*
X54184023Y-75209655D01*
X54330345Y-75355977D01*
X54502402Y-75470941D01*
X54693580Y-75550130D01*
X54896535Y-75590500D01*
X54896536Y-75590500D01*
X55103464Y-75590500D01*
X55103465Y-75590500D01*
X55306420Y-75550130D01*
X55442405Y-75493802D01*
X55503399Y-75489002D01*
X55550292Y-75515263D01*
X57119540Y-77084511D01*
X57119539Y-77084511D01*
X57175489Y-77140460D01*
X57244007Y-77180019D01*
X57244011Y-77180021D01*
X57320435Y-77200499D01*
X57320437Y-77200500D01*
X57320438Y-77200500D01*
X86178721Y-77200500D01*
X86236912Y-77219407D01*
X86248725Y-77229496D01*
X89112359Y-80093130D01*
X89140136Y-80147647D01*
X89130565Y-80208079D01*
X89087300Y-80251344D01*
X89026868Y-80260915D01*
X89023041Y-80260232D01*
X88868543Y-80229500D01*
X88868541Y-80229500D01*
X88671459Y-80229500D01*
X88671456Y-80229500D01*
X88478168Y-80267948D01*
X88478166Y-80267948D01*
X88478165Y-80267949D01*
X88455814Y-80277207D01*
X88365864Y-80314465D01*
X88304867Y-80319264D01*
X88257976Y-80293004D01*
X87808713Y-79843742D01*
X87808711Y-79843740D01*
X87783700Y-79829300D01*
X87783698Y-79829298D01*
X87740187Y-79804178D01*
X87663764Y-79783700D01*
X87663762Y-79783700D01*
X83686238Y-79783700D01*
X83686235Y-79783700D01*
X83609812Y-79804178D01*
X83566301Y-79829298D01*
X83566302Y-79829299D01*
X83541286Y-79843742D01*
X83092022Y-80293004D01*
X83037506Y-80320781D01*
X82984134Y-80314464D01*
X82871835Y-80267949D01*
X82678543Y-80229500D01*
X82678541Y-80229500D01*
X82481459Y-80229500D01*
X82481456Y-80229500D01*
X82288165Y-80267949D01*
X82288163Y-80267949D01*
X82106086Y-80343367D01*
X81942218Y-80452861D01*
X81942214Y-80452864D01*
X81802864Y-80592214D01*
X81802861Y-80592218D01*
X81693367Y-80756086D01*
X81617949Y-80938163D01*
X81617949Y-80938165D01*
X81579500Y-81131456D01*
X81579500Y-81328543D01*
X81617949Y-81521834D01*
X81617949Y-81521836D01*
X81693367Y-81703913D01*
X81693368Y-81703914D01*
X81802861Y-81867782D01*
X81942218Y-82007139D01*
X82106086Y-82116632D01*
X82288165Y-82192051D01*
X82481459Y-82230500D01*
X82481460Y-82230500D01*
X82678540Y-82230500D01*
X82678541Y-82230500D01*
X82871835Y-82192051D01*
X83053914Y-82116632D01*
X83217782Y-82007139D01*
X83357139Y-81867782D01*
X83466632Y-81703914D01*
X83542051Y-81521835D01*
X83580500Y-81328541D01*
X83580500Y-81131459D01*
X83542051Y-80938165D01*
X83495533Y-80825863D01*
X83490733Y-80764867D01*
X83516993Y-80717976D01*
X83821275Y-80413696D01*
X83875791Y-80385919D01*
X83891278Y-80384700D01*
X85421371Y-80384700D01*
X85479562Y-80403607D01*
X85515526Y-80453107D01*
X85515526Y-80514293D01*
X85491375Y-80553704D01*
X85452864Y-80592214D01*
X85452861Y-80592218D01*
X85343367Y-80756086D01*
X85267949Y-80938163D01*
X85267949Y-80938165D01*
X85229500Y-81131456D01*
X85229500Y-81328543D01*
X85267949Y-81521834D01*
X85267949Y-81521836D01*
X85343367Y-81703913D01*
X85343368Y-81703914D01*
X85452861Y-81867782D01*
X85592218Y-82007139D01*
X85756086Y-82116632D01*
X85938165Y-82192051D01*
X86131459Y-82230500D01*
X86131460Y-82230500D01*
X86328540Y-82230500D01*
X86328541Y-82230500D01*
X86521835Y-82192051D01*
X86703914Y-82116632D01*
X86867782Y-82007139D01*
X87007139Y-81867782D01*
X87116632Y-81703914D01*
X87192051Y-81521835D01*
X87230500Y-81328541D01*
X87230500Y-81131459D01*
X87192051Y-80938165D01*
X87116632Y-80756086D01*
X87007139Y-80592218D01*
X86968625Y-80553704D01*
X86940848Y-80499187D01*
X86950419Y-80438755D01*
X86993684Y-80395490D01*
X87038629Y-80384700D01*
X87458721Y-80384700D01*
X87516912Y-80403607D01*
X87528725Y-80413696D01*
X87833004Y-80717975D01*
X87860781Y-80772492D01*
X87854464Y-80825864D01*
X87836853Y-80868385D01*
X87807948Y-80938168D01*
X87769500Y-81131456D01*
X87769500Y-81328543D01*
X87807949Y-81521834D01*
X87807949Y-81521836D01*
X87883367Y-81703913D01*
X87883368Y-81703914D01*
X87992861Y-81867782D01*
X88132218Y-82007139D01*
X88296086Y-82116632D01*
X88478165Y-82192051D01*
X88671459Y-82230500D01*
X88671460Y-82230500D01*
X88868540Y-82230500D01*
X88868541Y-82230500D01*
X89061835Y-82192051D01*
X89243914Y-82116632D01*
X89407782Y-82007139D01*
X89547139Y-81867782D01*
X89656632Y-81703914D01*
X89732051Y-81521835D01*
X89770500Y-81328541D01*
X89770500Y-81131459D01*
X89732051Y-80938165D01*
X89656632Y-80756086D01*
X89547139Y-80592218D01*
X89547135Y-80592214D01*
X89547041Y-80592099D01*
X89547015Y-80592034D01*
X89544437Y-80588175D01*
X89545284Y-80587609D01*
X89524745Y-80535121D01*
X89540199Y-80475919D01*
X89587498Y-80437107D01*
X89623574Y-80430300D01*
X119214321Y-80430300D01*
X119272512Y-80449207D01*
X119284325Y-80459296D01*
X120720504Y-81895475D01*
X120748281Y-81949992D01*
X120749500Y-81965479D01*
X120749500Y-83104274D01*
X120752353Y-83134694D01*
X120752355Y-83134702D01*
X120769046Y-83182402D01*
X120770420Y-83243572D01*
X120735576Y-83293866D01*
X120677824Y-83314075D01*
X120675602Y-83314100D01*
X117360079Y-83314100D01*
X117301888Y-83295193D01*
X117290075Y-83285104D01*
X117016994Y-83012023D01*
X116989217Y-82957506D01*
X116995534Y-82904135D01*
X117042051Y-82791835D01*
X117080500Y-82598541D01*
X117080500Y-82401459D01*
X117042051Y-82208165D01*
X116966632Y-82026086D01*
X116857139Y-81862218D01*
X116717782Y-81722861D01*
X116608288Y-81649699D01*
X116553913Y-81613367D01*
X116371835Y-81537949D01*
X116178543Y-81499500D01*
X116178541Y-81499500D01*
X115981459Y-81499500D01*
X115981456Y-81499500D01*
X115788165Y-81537949D01*
X115788163Y-81537949D01*
X115606086Y-81613367D01*
X115442218Y-81722861D01*
X115442214Y-81722864D01*
X115302864Y-81862214D01*
X115302861Y-81862218D01*
X115193367Y-82026086D01*
X115117949Y-82208163D01*
X115117949Y-82208165D01*
X115079500Y-82401456D01*
X115079500Y-82401459D01*
X115079500Y-82598541D01*
X115117948Y-82791832D01*
X115117949Y-82791834D01*
X115117949Y-82791836D01*
X115193367Y-82973913D01*
X115229699Y-83028288D01*
X115302861Y-83137782D01*
X115442218Y-83277139D01*
X115606086Y-83386632D01*
X115788165Y-83462051D01*
X115981459Y-83500500D01*
X115981460Y-83500500D01*
X116178540Y-83500500D01*
X116178541Y-83500500D01*
X116371835Y-83462051D01*
X116484137Y-83415533D01*
X116545129Y-83410733D01*
X116592023Y-83436994D01*
X116954140Y-83799111D01*
X116954139Y-83799111D01*
X117010089Y-83855060D01*
X117078607Y-83894619D01*
X117078611Y-83894621D01*
X117155035Y-83915099D01*
X117155037Y-83915100D01*
X117155038Y-83915100D01*
X123174963Y-83915100D01*
X123174963Y-83915099D01*
X123251389Y-83894621D01*
X123319911Y-83855060D01*
X123347885Y-83827085D01*
X123375861Y-83799111D01*
X123674471Y-83500499D01*
X123737976Y-83436993D01*
X123792491Y-83409217D01*
X123845862Y-83415533D01*
X123958165Y-83462051D01*
X124151459Y-83500500D01*
X124151460Y-83500500D01*
X124348540Y-83500500D01*
X124348541Y-83500500D01*
X124541835Y-83462051D01*
X124723914Y-83386632D01*
X124887782Y-83277139D01*
X125027139Y-83137782D01*
X125136632Y-82973914D01*
X125212051Y-82791835D01*
X125250500Y-82598541D01*
X125250500Y-82401459D01*
X125212051Y-82208165D01*
X125136632Y-82026086D01*
X125027139Y-81862218D01*
X124887782Y-81722861D01*
X124778288Y-81649699D01*
X124723913Y-81613367D01*
X124541835Y-81537949D01*
X124348543Y-81499500D01*
X124348541Y-81499500D01*
X124151459Y-81499500D01*
X124151456Y-81499500D01*
X123958165Y-81537949D01*
X123958163Y-81537949D01*
X123776086Y-81613367D01*
X123612218Y-81722861D01*
X123612214Y-81722864D01*
X123472864Y-81862214D01*
X123472861Y-81862218D01*
X123363367Y-82026086D01*
X123287949Y-82208163D01*
X123287949Y-82208165D01*
X123249500Y-82401456D01*
X123249500Y-82401459D01*
X123249500Y-82598541D01*
X123287948Y-82791832D01*
X123287949Y-82791834D01*
X123287949Y-82791836D01*
X123334464Y-82904135D01*
X123339264Y-82965132D01*
X123313004Y-83012023D01*
X123039926Y-83285103D01*
X123032809Y-83288729D01*
X123028113Y-83295193D01*
X123006062Y-83302357D01*
X122985409Y-83312881D01*
X122969922Y-83314100D01*
X122824398Y-83314100D01*
X122766207Y-83295193D01*
X122730243Y-83245693D01*
X122730243Y-83184507D01*
X122730954Y-83182402D01*
X122747646Y-83134699D01*
X122750499Y-83104273D01*
X122750500Y-83104273D01*
X122750500Y-81895727D01*
X122750499Y-81895725D01*
X122747879Y-81867785D01*
X122747646Y-81865301D01*
X122702793Y-81737118D01*
X122692273Y-81722864D01*
X122622154Y-81627855D01*
X122622152Y-81627853D01*
X122622150Y-81627850D01*
X122622146Y-81627847D01*
X122622144Y-81627845D01*
X122512883Y-81547207D01*
X122384703Y-81502355D01*
X122384694Y-81502353D01*
X122354274Y-81499500D01*
X122354266Y-81499500D01*
X121215479Y-81499500D01*
X121157288Y-81480593D01*
X121145475Y-81470504D01*
X120392945Y-80717974D01*
X119564311Y-79889340D01*
X119564308Y-79889338D01*
X119495792Y-79849780D01*
X119495788Y-79849778D01*
X119419364Y-79829300D01*
X119419362Y-79829300D01*
X100506479Y-79829300D01*
X100448288Y-79810393D01*
X100412324Y-79760893D01*
X100412324Y-79699707D01*
X100448288Y-79650207D01*
X100468594Y-79638836D01*
X100471210Y-79637751D01*
X100473914Y-79636632D01*
X100637782Y-79527139D01*
X100777139Y-79387782D01*
X100886632Y-79223914D01*
X100962051Y-79041835D01*
X101000500Y-78848541D01*
X101000500Y-78651459D01*
X100962051Y-78458165D01*
X100886632Y-78276086D01*
X100777139Y-78112218D01*
X100637782Y-77972861D01*
X100473914Y-77863368D01*
X100473915Y-77863368D01*
X100473913Y-77863367D01*
X100291835Y-77787949D01*
X100098543Y-77749500D01*
X100098541Y-77749500D01*
X99901459Y-77749500D01*
X99901456Y-77749500D01*
X99708165Y-77787949D01*
X99708163Y-77787949D01*
X99526086Y-77863367D01*
X99362218Y-77972861D01*
X99362214Y-77972864D01*
X99222864Y-78112214D01*
X99222861Y-78112218D01*
X99113367Y-78276086D01*
X99037949Y-78458163D01*
X99037949Y-78458165D01*
X98999500Y-78651456D01*
X98999500Y-78848543D01*
X99037949Y-79041834D01*
X99037949Y-79041836D01*
X99113367Y-79223913D01*
X99113368Y-79223914D01*
X99222861Y-79387782D01*
X99362218Y-79527139D01*
X99526086Y-79636632D01*
X99531406Y-79638836D01*
X99577932Y-79678572D01*
X99592216Y-79738067D01*
X99568802Y-79794595D01*
X99516633Y-79826564D01*
X99493521Y-79829300D01*
X89739479Y-79829300D01*
X89681288Y-79810393D01*
X89669475Y-79800304D01*
X88520627Y-78651456D01*
X86528711Y-76659540D01*
X86528708Y-76659538D01*
X86460192Y-76619980D01*
X86460188Y-76619978D01*
X86383764Y-76599500D01*
X86383762Y-76599500D01*
X57525479Y-76599500D01*
X57467288Y-76580593D01*
X57455475Y-76570504D01*
X57031552Y-76146581D01*
X98950000Y-76146581D01*
X98950000Y-76353418D01*
X98990349Y-76556272D01*
X99069501Y-76747361D01*
X99158022Y-76879843D01*
X99629532Y-76408332D01*
X99679920Y-76495606D01*
X99754394Y-76570080D01*
X99841665Y-76620465D01*
X99370154Y-77091977D01*
X99502625Y-77180491D01*
X99502639Y-77180498D01*
X99693727Y-77259650D01*
X99896581Y-77299999D01*
X99896586Y-77300000D01*
X100103414Y-77300000D01*
X100103418Y-77299999D01*
X100194166Y-77281949D01*
X100306272Y-77259650D01*
X100497360Y-77180498D01*
X100629843Y-77091976D01*
X100158333Y-76620466D01*
X100245606Y-76570080D01*
X100320080Y-76495606D01*
X100370466Y-76408333D01*
X100841976Y-76879843D01*
X100930498Y-76747360D01*
X101009650Y-76556271D01*
X101030107Y-76453424D01*
X138900000Y-76453424D01*
X138900000Y-76626575D01*
X138927084Y-76797579D01*
X138980588Y-76962248D01*
X139059195Y-77116524D01*
X139059197Y-77116528D01*
X139123219Y-77204646D01*
X139556328Y-76771536D01*
X139599901Y-76847007D01*
X139692993Y-76940099D01*
X139768460Y-76983670D01*
X139335352Y-77416778D01*
X139423477Y-77480805D01*
X139577751Y-77559411D01*
X139742420Y-77612915D01*
X139913425Y-77640000D01*
X140086575Y-77640000D01*
X140257579Y-77612915D01*
X140422248Y-77559411D01*
X140576524Y-77480804D01*
X140576530Y-77480800D01*
X140664646Y-77416779D01*
X140664646Y-77416778D01*
X140231538Y-76983670D01*
X140307007Y-76940099D01*
X140400099Y-76847007D01*
X140443670Y-76771538D01*
X140876778Y-77204646D01*
X140876779Y-77204646D01*
X140940800Y-77116530D01*
X140940804Y-77116524D01*
X141019411Y-76962248D01*
X141072915Y-76797579D01*
X141100000Y-76626575D01*
X141100000Y-76453424D01*
X141072915Y-76282420D01*
X141019411Y-76117751D01*
X140940805Y-75963477D01*
X140876778Y-75875352D01*
X140443670Y-76308460D01*
X140400099Y-76232993D01*
X140307007Y-76139901D01*
X140231536Y-76096328D01*
X140664646Y-75663219D01*
X140576528Y-75599197D01*
X140576524Y-75599195D01*
X140422248Y-75520588D01*
X140257579Y-75467084D01*
X140086575Y-75440000D01*
X139913425Y-75440000D01*
X139742420Y-75467084D01*
X139577751Y-75520588D01*
X139423476Y-75599195D01*
X139335352Y-75663219D01*
X139768461Y-76096328D01*
X139692993Y-76139901D01*
X139599901Y-76232993D01*
X139556328Y-76308461D01*
X139123219Y-75875352D01*
X139059195Y-75963476D01*
X138980588Y-76117751D01*
X138927084Y-76282420D01*
X138900000Y-76453424D01*
X101030107Y-76453424D01*
X101034722Y-76430225D01*
X101034722Y-76430224D01*
X101049999Y-76353417D01*
X101050000Y-76353413D01*
X101050000Y-76146586D01*
X101049999Y-76146581D01*
X101009650Y-75943727D01*
X100930498Y-75752639D01*
X100930491Y-75752625D01*
X100841976Y-75620154D01*
X100370465Y-76091665D01*
X100320080Y-76004394D01*
X100245606Y-75929920D01*
X100158332Y-75879532D01*
X100629843Y-75408022D01*
X100497361Y-75319501D01*
X100306272Y-75240349D01*
X100103418Y-75200000D01*
X99896581Y-75200000D01*
X99693727Y-75240349D01*
X99502638Y-75319501D01*
X99370155Y-75408022D01*
X99841666Y-75879533D01*
X99754394Y-75929920D01*
X99679920Y-76004394D01*
X99629533Y-76091666D01*
X99158022Y-75620155D01*
X99069501Y-75752638D01*
X98990349Y-75943727D01*
X98950000Y-76146581D01*
X57031552Y-76146581D01*
X55975263Y-75090292D01*
X55947486Y-75035775D01*
X55953802Y-74982405D01*
X56010130Y-74846420D01*
X56050500Y-74643465D01*
X56050500Y-74436535D01*
X56010130Y-74233580D01*
X55930941Y-74042402D01*
X55815977Y-73870345D01*
X55669655Y-73724023D01*
X55669651Y-73724020D01*
X55497597Y-73609058D01*
X55306418Y-73529869D01*
X55103467Y-73489500D01*
X55103465Y-73489500D01*
X54896535Y-73489500D01*
X54896532Y-73489500D01*
X54693581Y-73529869D01*
X54502402Y-73609058D01*
X54330348Y-73724020D01*
X54184020Y-73870348D01*
X54069058Y-74042402D01*
X53989869Y-74233581D01*
X53949500Y-74436532D01*
X50500500Y-74436532D01*
X50500500Y-71913424D01*
X53900000Y-71913424D01*
X53900000Y-72086575D01*
X53927084Y-72257579D01*
X53980588Y-72422248D01*
X54059195Y-72576524D01*
X54059197Y-72576528D01*
X54123219Y-72664646D01*
X54556328Y-72231536D01*
X54599901Y-72307007D01*
X54692993Y-72400099D01*
X54768460Y-72443670D01*
X54335352Y-72876778D01*
X54423477Y-72940805D01*
X54577751Y-73019411D01*
X54742420Y-73072915D01*
X54913425Y-73100000D01*
X55086575Y-73100000D01*
X55257579Y-73072915D01*
X55422248Y-73019411D01*
X55496739Y-72981456D01*
X79999500Y-72981456D01*
X79999500Y-73178543D01*
X80037949Y-73371834D01*
X80037949Y-73371836D01*
X80113367Y-73553913D01*
X80113368Y-73553914D01*
X80222861Y-73717782D01*
X80362218Y-73857139D01*
X80526086Y-73966632D01*
X80708165Y-74042051D01*
X80901459Y-74080500D01*
X80901460Y-74080500D01*
X81098540Y-74080500D01*
X81098541Y-74080500D01*
X81291835Y-74042051D01*
X81473914Y-73966632D01*
X81637782Y-73857139D01*
X81777139Y-73717782D01*
X81886632Y-73553914D01*
X81915421Y-73484409D01*
X81933148Y-73441615D01*
X81972884Y-73395089D01*
X82024612Y-73380500D01*
X83914521Y-73380500D01*
X83922118Y-73382968D01*
X83930008Y-73381719D01*
X83950663Y-73392243D01*
X83972712Y-73399407D01*
X83984525Y-73409496D01*
X84063004Y-73487975D01*
X84090781Y-73542492D01*
X84084465Y-73595864D01*
X84037948Y-73708168D01*
X83999500Y-73901456D01*
X83999500Y-74098543D01*
X84037949Y-74291834D01*
X84037949Y-74291836D01*
X84113367Y-74473913D01*
X84113368Y-74473914D01*
X84222861Y-74637782D01*
X84362218Y-74777139D01*
X84526086Y-74886632D01*
X84708165Y-74962051D01*
X84901459Y-75000500D01*
X84901460Y-75000500D01*
X85098540Y-75000500D01*
X85098541Y-75000500D01*
X85291835Y-74962051D01*
X85473914Y-74886632D01*
X85637782Y-74777139D01*
X85777139Y-74637782D01*
X85886632Y-74473914D01*
X85962051Y-74291835D01*
X86000500Y-74098541D01*
X86000500Y-73901459D01*
X86000499Y-73901456D01*
X88999500Y-73901456D01*
X88999500Y-74098543D01*
X89037949Y-74291834D01*
X89037949Y-74291836D01*
X89113367Y-74473913D01*
X89113368Y-74473914D01*
X89222861Y-74637782D01*
X89362218Y-74777139D01*
X89526086Y-74886632D01*
X89708165Y-74962051D01*
X89901459Y-75000500D01*
X89901460Y-75000500D01*
X90098540Y-75000500D01*
X90098541Y-75000500D01*
X90291835Y-74962051D01*
X90473914Y-74886632D01*
X90637782Y-74777139D01*
X90777139Y-74637782D01*
X90886632Y-74473914D01*
X90962051Y-74291835D01*
X91000500Y-74098541D01*
X91000500Y-73901459D01*
X90962051Y-73708165D01*
X90886632Y-73526086D01*
X90777139Y-73362218D01*
X90637782Y-73222861D01*
X90473914Y-73113368D01*
X90473915Y-73113368D01*
X90473913Y-73113367D01*
X90291835Y-73037949D01*
X90098543Y-72999500D01*
X90098541Y-72999500D01*
X89901459Y-72999500D01*
X89901456Y-72999500D01*
X89708165Y-73037949D01*
X89708163Y-73037949D01*
X89526086Y-73113367D01*
X89362218Y-73222861D01*
X89362214Y-73222864D01*
X89222864Y-73362214D01*
X89222861Y-73362218D01*
X89113367Y-73526086D01*
X89037949Y-73708163D01*
X89037949Y-73708165D01*
X88999500Y-73901456D01*
X86000499Y-73901456D01*
X85962051Y-73708165D01*
X85886632Y-73526086D01*
X85777139Y-73362218D01*
X85637782Y-73222861D01*
X85473914Y-73113368D01*
X85473915Y-73113368D01*
X85473913Y-73113367D01*
X85291835Y-73037949D01*
X85098543Y-72999500D01*
X85098541Y-72999500D01*
X84901459Y-72999500D01*
X84901456Y-72999500D01*
X84708168Y-73037948D01*
X84708166Y-73037948D01*
X84708165Y-73037949D01*
X84647676Y-73063004D01*
X84595864Y-73084465D01*
X84534867Y-73089264D01*
X84487976Y-73063004D01*
X84264510Y-72839539D01*
X84195992Y-72799980D01*
X84195988Y-72799978D01*
X84119564Y-72779500D01*
X84119562Y-72779500D01*
X82024612Y-72779500D01*
X81966421Y-72760593D01*
X81933148Y-72718385D01*
X81886632Y-72606087D01*
X81886632Y-72606086D01*
X81777139Y-72442218D01*
X81637782Y-72302861D01*
X81528288Y-72229699D01*
X81473913Y-72193367D01*
X81291835Y-72117949D01*
X81098543Y-72079500D01*
X81098541Y-72079500D01*
X80901459Y-72079500D01*
X80901456Y-72079500D01*
X80708165Y-72117949D01*
X80708163Y-72117949D01*
X80526086Y-72193367D01*
X80362218Y-72302861D01*
X80362214Y-72302864D01*
X80222864Y-72442214D01*
X80222861Y-72442218D01*
X80113367Y-72606086D01*
X80037949Y-72788163D01*
X80037949Y-72788165D01*
X79999500Y-72981456D01*
X55496739Y-72981456D01*
X55576524Y-72940804D01*
X55576530Y-72940800D01*
X55637500Y-72896503D01*
X55664646Y-72876779D01*
X55664646Y-72876778D01*
X55231538Y-72443670D01*
X55307007Y-72400099D01*
X55400099Y-72307007D01*
X55443670Y-72231538D01*
X55876778Y-72664646D01*
X55876779Y-72664646D01*
X55940800Y-72576530D01*
X55940804Y-72576524D01*
X56019411Y-72422248D01*
X56072915Y-72257579D01*
X56100000Y-72086575D01*
X56100000Y-71913424D01*
X56072915Y-71742420D01*
X56019411Y-71577751D01*
X55940805Y-71423477D01*
X55876778Y-71335352D01*
X55443670Y-71768460D01*
X55400099Y-71692993D01*
X55307007Y-71599901D01*
X55231536Y-71556328D01*
X55664646Y-71123219D01*
X55576528Y-71059197D01*
X55576524Y-71059195D01*
X55422248Y-70980588D01*
X55257579Y-70927084D01*
X55086575Y-70900000D01*
X54913425Y-70900000D01*
X54742420Y-70927084D01*
X54577751Y-70980588D01*
X54423476Y-71059195D01*
X54335352Y-71123219D01*
X54768461Y-71556328D01*
X54692993Y-71599901D01*
X54599901Y-71692993D01*
X54556328Y-71768461D01*
X54123219Y-71335352D01*
X54059195Y-71423476D01*
X53980588Y-71577751D01*
X53927084Y-71742420D01*
X53900000Y-71913424D01*
X50500500Y-71913424D01*
X50500500Y-68590253D01*
X53949500Y-68590253D01*
X53949500Y-70329746D01*
X53949501Y-70329758D01*
X53961132Y-70388227D01*
X53961134Y-70388233D01*
X53983118Y-70421134D01*
X54005448Y-70454552D01*
X54071769Y-70498867D01*
X54116231Y-70507711D01*
X54130241Y-70510498D01*
X54130246Y-70510498D01*
X54130252Y-70510500D01*
X54130253Y-70510500D01*
X55869747Y-70510500D01*
X55869748Y-70510500D01*
X55928231Y-70498867D01*
X55994552Y-70454552D01*
X56038867Y-70388231D01*
X56050500Y-70329748D01*
X56050500Y-68590252D01*
X56038867Y-68531769D01*
X55994552Y-68465448D01*
X55994548Y-68465445D01*
X55928233Y-68421134D01*
X55928231Y-68421133D01*
X55928228Y-68421132D01*
X55928227Y-68421132D01*
X55869758Y-68409501D01*
X55869748Y-68409500D01*
X54130252Y-68409500D01*
X54130251Y-68409500D01*
X54130241Y-68409501D01*
X54071772Y-68421132D01*
X54071766Y-68421134D01*
X54005451Y-68465445D01*
X54005445Y-68465451D01*
X53961134Y-68531766D01*
X53961132Y-68531772D01*
X53949501Y-68590241D01*
X53949500Y-68590253D01*
X50500500Y-68590253D01*
X50500500Y-62821456D01*
X79999500Y-62821456D01*
X79999500Y-62821459D01*
X79999500Y-63018541D01*
X80037948Y-63211832D01*
X80037949Y-63211834D01*
X80037949Y-63211836D01*
X80113367Y-63393913D01*
X80149699Y-63448288D01*
X80222861Y-63557782D01*
X80362218Y-63697139D01*
X80526086Y-63806632D01*
X80708165Y-63882051D01*
X80901459Y-63920500D01*
X80901460Y-63920500D01*
X81098540Y-63920500D01*
X81098541Y-63920500D01*
X81291835Y-63882051D01*
X81404137Y-63835533D01*
X81465129Y-63830733D01*
X81512023Y-63856994D01*
X83895489Y-66240460D01*
X83895491Y-66240461D01*
X83895492Y-66240462D01*
X83895493Y-66240463D01*
X83964008Y-66280020D01*
X83964006Y-66280020D01*
X83964010Y-66280021D01*
X83964012Y-66280022D01*
X84040438Y-66300500D01*
X105150500Y-66300500D01*
X105208691Y-66319407D01*
X105244655Y-66368907D01*
X105249500Y-66399500D01*
X105249500Y-66604274D01*
X105252353Y-66634694D01*
X105252355Y-66634703D01*
X105297207Y-66762883D01*
X105377845Y-66872144D01*
X105377847Y-66872146D01*
X105377850Y-66872150D01*
X105377853Y-66872152D01*
X105377855Y-66872154D01*
X105487116Y-66952792D01*
X105487117Y-66952792D01*
X105487118Y-66952793D01*
X105615301Y-66997646D01*
X105645725Y-67000499D01*
X105645727Y-67000500D01*
X105645734Y-67000500D01*
X106854273Y-67000500D01*
X106854273Y-67000499D01*
X106884699Y-66997646D01*
X107012882Y-66952793D01*
X107122150Y-66872150D01*
X107202793Y-66762882D01*
X107247646Y-66634699D01*
X107250499Y-66604273D01*
X107250500Y-66604273D01*
X107250500Y-65901456D01*
X108749500Y-65901456D01*
X108749500Y-65901459D01*
X108749500Y-66098541D01*
X108787948Y-66291832D01*
X108787949Y-66291834D01*
X108787949Y-66291836D01*
X108863367Y-66473913D01*
X108899699Y-66528288D01*
X108972861Y-66637782D01*
X109112218Y-66777139D01*
X109276086Y-66886632D01*
X109458165Y-66962051D01*
X109651459Y-67000500D01*
X109651460Y-67000500D01*
X109848540Y-67000500D01*
X109848541Y-67000500D01*
X110041835Y-66962051D01*
X110154137Y-66915533D01*
X110215129Y-66910733D01*
X110262023Y-66936994D01*
X118589540Y-75264511D01*
X118589539Y-75264511D01*
X118645489Y-75320460D01*
X118714007Y-75360019D01*
X118714011Y-75360021D01*
X118790435Y-75380499D01*
X118790437Y-75380500D01*
X118790438Y-75380500D01*
X126975388Y-75380500D01*
X127033579Y-75399407D01*
X127066852Y-75441615D01*
X127113367Y-75553912D01*
X127113368Y-75553914D01*
X127222861Y-75717782D01*
X127362218Y-75857139D01*
X127526086Y-75966632D01*
X127708165Y-76042051D01*
X127901459Y-76080500D01*
X127901460Y-76080500D01*
X128098540Y-76080500D01*
X128098541Y-76080500D01*
X128291835Y-76042051D01*
X128473914Y-75966632D01*
X128637782Y-75857139D01*
X128777139Y-75717782D01*
X128886632Y-75553914D01*
X128962051Y-75371835D01*
X129000500Y-75178541D01*
X129000500Y-74981459D01*
X128962051Y-74788165D01*
X128886632Y-74606086D01*
X128777139Y-74442218D01*
X128637782Y-74302861D01*
X128473914Y-74193368D01*
X128473915Y-74193368D01*
X128473913Y-74193367D01*
X128291835Y-74117949D01*
X128098543Y-74079500D01*
X128098541Y-74079500D01*
X127901459Y-74079500D01*
X127901456Y-74079500D01*
X127708165Y-74117949D01*
X127708163Y-74117949D01*
X127526086Y-74193367D01*
X127362218Y-74302861D01*
X127362214Y-74302864D01*
X127222864Y-74442214D01*
X127222861Y-74442218D01*
X127113367Y-74606087D01*
X127066852Y-74718385D01*
X127027116Y-74764911D01*
X126975388Y-74779500D01*
X118995479Y-74779500D01*
X118937288Y-74760593D01*
X118925475Y-74750504D01*
X118071503Y-73896532D01*
X138949500Y-73896532D01*
X138949500Y-74103467D01*
X138989869Y-74306418D01*
X139069058Y-74497597D01*
X139166525Y-74643467D01*
X139184023Y-74669655D01*
X139330345Y-74815977D01*
X139502402Y-74930941D01*
X139693580Y-75010130D01*
X139896535Y-75050500D01*
X139896536Y-75050500D01*
X140103464Y-75050500D01*
X140103465Y-75050500D01*
X140306420Y-75010130D01*
X140497598Y-74930941D01*
X140669655Y-74815977D01*
X140815977Y-74669655D01*
X140930941Y-74497598D01*
X141010130Y-74306420D01*
X141050500Y-74103465D01*
X141050500Y-73896535D01*
X141010130Y-73693580D01*
X140930941Y-73502402D01*
X140815977Y-73330345D01*
X140669655Y-73184023D01*
X140563912Y-73113368D01*
X140497597Y-73069058D01*
X140306418Y-72989869D01*
X140103467Y-72949500D01*
X140103465Y-72949500D01*
X139896535Y-72949500D01*
X139896532Y-72949500D01*
X139693581Y-72989869D01*
X139502402Y-73069058D01*
X139330348Y-73184020D01*
X139184020Y-73330348D01*
X139069058Y-73502402D01*
X138989869Y-73693581D01*
X138949500Y-73896532D01*
X118071503Y-73896532D01*
X110686994Y-66512023D01*
X110659217Y-66457506D01*
X110665533Y-66404137D01*
X110712051Y-66291835D01*
X110750500Y-66098541D01*
X110750500Y-65901459D01*
X110712051Y-65708165D01*
X110636632Y-65526086D01*
X110527139Y-65362218D01*
X110387782Y-65222861D01*
X110278288Y-65149699D01*
X110223913Y-65113367D01*
X110041835Y-65037949D01*
X109848543Y-64999500D01*
X109848541Y-64999500D01*
X109651459Y-64999500D01*
X109651456Y-64999500D01*
X109458165Y-65037949D01*
X109458163Y-65037949D01*
X109276086Y-65113367D01*
X109112218Y-65222861D01*
X109112214Y-65222864D01*
X108972864Y-65362214D01*
X108972861Y-65362218D01*
X108863367Y-65526086D01*
X108787949Y-65708163D01*
X108787949Y-65708165D01*
X108749500Y-65901456D01*
X107250500Y-65901456D01*
X107250500Y-65395727D01*
X107250499Y-65395725D01*
X107247646Y-65365305D01*
X107247646Y-65365301D01*
X107202793Y-65237118D01*
X107194788Y-65226272D01*
X107122154Y-65127855D01*
X107122152Y-65127853D01*
X107122150Y-65127850D01*
X107122146Y-65127847D01*
X107122144Y-65127845D01*
X107012883Y-65047207D01*
X106884703Y-65002355D01*
X106884694Y-65002353D01*
X106854274Y-64999500D01*
X106854266Y-64999500D01*
X105645734Y-64999500D01*
X105645725Y-64999500D01*
X105615305Y-65002353D01*
X105615296Y-65002355D01*
X105487116Y-65047207D01*
X105377855Y-65127845D01*
X105377845Y-65127855D01*
X105297207Y-65237116D01*
X105252355Y-65365296D01*
X105252353Y-65365305D01*
X105249500Y-65395725D01*
X105249500Y-65600500D01*
X105230593Y-65658691D01*
X105181093Y-65694655D01*
X105150500Y-65699500D01*
X84245479Y-65699500D01*
X84187288Y-65680593D01*
X84175475Y-65670504D01*
X83321552Y-64816581D01*
X126950000Y-64816581D01*
X126950000Y-65023418D01*
X126990349Y-65226272D01*
X127069501Y-65417361D01*
X127158022Y-65549843D01*
X127629532Y-65078332D01*
X127679920Y-65165606D01*
X127754394Y-65240080D01*
X127841665Y-65290465D01*
X127370154Y-65761977D01*
X127502625Y-65850491D01*
X127502639Y-65850498D01*
X127693727Y-65929650D01*
X127896581Y-65969999D01*
X127896586Y-65970000D01*
X128103414Y-65970000D01*
X128103418Y-65969999D01*
X128306272Y-65929650D01*
X128497360Y-65850498D01*
X128629843Y-65761976D01*
X128158333Y-65290466D01*
X128245606Y-65240080D01*
X128320080Y-65165606D01*
X128370466Y-65078333D01*
X128841976Y-65549843D01*
X128930498Y-65417360D01*
X129009650Y-65226272D01*
X129049999Y-65023418D01*
X129050000Y-65023413D01*
X129050000Y-64816586D01*
X129049999Y-64816581D01*
X129009650Y-64613727D01*
X128930498Y-64422639D01*
X128930491Y-64422625D01*
X128841976Y-64290154D01*
X128370465Y-64761665D01*
X128320080Y-64674394D01*
X128245606Y-64599920D01*
X128158332Y-64549532D01*
X128629843Y-64078022D01*
X128497361Y-63989501D01*
X128306272Y-63910349D01*
X128103418Y-63870000D01*
X127896581Y-63870000D01*
X127693727Y-63910349D01*
X127502638Y-63989501D01*
X127370155Y-64078022D01*
X127841666Y-64549533D01*
X127754394Y-64599920D01*
X127679920Y-64674394D01*
X127629533Y-64761666D01*
X127158022Y-64290155D01*
X127069501Y-64422638D01*
X126990349Y-64613727D01*
X126950000Y-64816581D01*
X83321552Y-64816581D01*
X81936994Y-63432023D01*
X81909217Y-63377506D01*
X81915533Y-63324137D01*
X81962051Y-63211835D01*
X82000500Y-63018541D01*
X82000500Y-62821459D01*
X81962051Y-62628165D01*
X81886632Y-62446086D01*
X81777139Y-62282218D01*
X81637782Y-62142861D01*
X81473914Y-62033368D01*
X81473915Y-62033368D01*
X81473913Y-62033367D01*
X81291835Y-61957949D01*
X81098543Y-61919500D01*
X81098541Y-61919500D01*
X80901459Y-61919500D01*
X80901456Y-61919500D01*
X80708165Y-61957949D01*
X80708163Y-61957949D01*
X80526086Y-62033367D01*
X80362218Y-62142861D01*
X80362214Y-62142864D01*
X80222864Y-62282214D01*
X80222861Y-62282218D01*
X80113367Y-62446086D01*
X80037949Y-62628163D01*
X80037949Y-62628165D01*
X79999500Y-62821456D01*
X50500500Y-62821456D01*
X50500500Y-58395725D01*
X125879500Y-58395725D01*
X125879500Y-60604274D01*
X125882353Y-60634694D01*
X125882355Y-60634703D01*
X125927207Y-60762883D01*
X126007845Y-60872144D01*
X126007847Y-60872146D01*
X126007850Y-60872150D01*
X126007853Y-60872152D01*
X126007855Y-60872154D01*
X126117116Y-60952792D01*
X126117117Y-60952792D01*
X126117118Y-60952793D01*
X126245301Y-60997646D01*
X126275725Y-61000499D01*
X126275727Y-61000500D01*
X126275734Y-61000500D01*
X128414521Y-61000500D01*
X128472712Y-61019407D01*
X128484525Y-61029496D01*
X138518804Y-71063775D01*
X138546581Y-71118292D01*
X138547800Y-71133779D01*
X138547800Y-71499564D01*
X138568278Y-71575988D01*
X138568280Y-71575992D01*
X138607838Y-71644508D01*
X138607840Y-71644511D01*
X138663789Y-71700460D01*
X138663791Y-71700461D01*
X138732307Y-71740019D01*
X138732311Y-71740021D01*
X138808735Y-71760499D01*
X138808737Y-71760500D01*
X138808738Y-71760500D01*
X138850500Y-71760500D01*
X138908691Y-71779407D01*
X138944655Y-71828907D01*
X138949500Y-71859500D01*
X138949500Y-72329746D01*
X138949501Y-72329758D01*
X138961132Y-72388227D01*
X138961134Y-72388233D01*
X139005445Y-72454548D01*
X139005448Y-72454552D01*
X139071769Y-72498867D01*
X139116231Y-72507711D01*
X139130241Y-72510498D01*
X139130246Y-72510498D01*
X139130252Y-72510500D01*
X139130253Y-72510500D01*
X140869747Y-72510500D01*
X140869748Y-72510500D01*
X140928231Y-72498867D01*
X140994552Y-72454552D01*
X141038867Y-72388231D01*
X141050500Y-72329748D01*
X141050500Y-70590252D01*
X141038867Y-70531769D01*
X140994552Y-70465448D01*
X140994548Y-70465445D01*
X140928233Y-70421134D01*
X140928231Y-70421133D01*
X140928228Y-70421132D01*
X140928227Y-70421132D01*
X140869758Y-70409501D01*
X140869748Y-70409500D01*
X139130252Y-70409500D01*
X139130251Y-70409500D01*
X139130241Y-70409501D01*
X139071772Y-70421132D01*
X139071766Y-70421134D01*
X139005451Y-70465445D01*
X139005444Y-70465452D01*
X138978326Y-70506036D01*
X138930275Y-70543915D01*
X138869137Y-70546315D01*
X138826008Y-70521037D01*
X128909496Y-60604525D01*
X128881719Y-60550008D01*
X128880500Y-60534521D01*
X128880500Y-59381904D01*
X141119500Y-59381904D01*
X141119500Y-59618095D01*
X141156445Y-59851363D01*
X141156447Y-59851368D01*
X141229432Y-60075992D01*
X141336657Y-60286433D01*
X141475483Y-60477510D01*
X141642490Y-60644517D01*
X141833567Y-60783343D01*
X142044008Y-60890568D01*
X142268632Y-60963553D01*
X142268633Y-60963553D01*
X142268636Y-60963554D01*
X142501905Y-61000500D01*
X142501908Y-61000500D01*
X142738095Y-61000500D01*
X142971363Y-60963554D01*
X142971364Y-60963553D01*
X142971368Y-60963553D01*
X143195992Y-60890568D01*
X143406433Y-60783343D01*
X143597510Y-60644517D01*
X143764517Y-60477510D01*
X143903343Y-60286433D01*
X144010568Y-60075992D01*
X144083553Y-59851368D01*
X144120500Y-59618092D01*
X144120500Y-59381908D01*
X144120500Y-59381904D01*
X144083554Y-59148636D01*
X144083553Y-59148632D01*
X144010568Y-58924008D01*
X143903343Y-58713567D01*
X143764517Y-58522490D01*
X143597510Y-58355483D01*
X143406433Y-58216657D01*
X143406432Y-58216656D01*
X143406430Y-58216655D01*
X143195992Y-58109432D01*
X142971363Y-58036445D01*
X142738095Y-57999500D01*
X142738092Y-57999500D01*
X142501908Y-57999500D01*
X142501905Y-57999500D01*
X142268636Y-58036445D01*
X142044007Y-58109432D01*
X141833569Y-58216655D01*
X141642491Y-58355482D01*
X141475482Y-58522491D01*
X141336655Y-58713569D01*
X141229432Y-58924007D01*
X141156445Y-59148636D01*
X141119500Y-59381904D01*
X128880500Y-59381904D01*
X128880500Y-58395727D01*
X128880499Y-58395725D01*
X128877646Y-58365305D01*
X128877646Y-58365301D01*
X128832793Y-58237118D01*
X128817692Y-58216657D01*
X128752154Y-58127855D01*
X128752152Y-58127853D01*
X128752150Y-58127850D01*
X128752146Y-58127847D01*
X128752144Y-58127845D01*
X128642883Y-58047207D01*
X128514703Y-58002355D01*
X128514694Y-58002353D01*
X128484274Y-57999500D01*
X128484266Y-57999500D01*
X126275734Y-57999500D01*
X126275725Y-57999500D01*
X126245305Y-58002353D01*
X126245296Y-58002355D01*
X126117116Y-58047207D01*
X126007855Y-58127845D01*
X126007845Y-58127855D01*
X125927207Y-58237116D01*
X125882355Y-58365296D01*
X125882353Y-58365305D01*
X125879500Y-58395725D01*
X50500500Y-58395725D01*
X50500500Y-52893709D01*
X141649500Y-52893709D01*
X141649500Y-53106290D01*
X141682752Y-53316238D01*
X141748443Y-53518412D01*
X141844948Y-53707815D01*
X141844950Y-53707819D01*
X141969891Y-53879786D01*
X141969893Y-53879788D01*
X141969896Y-53879792D01*
X142120208Y-54030104D01*
X142120211Y-54030106D01*
X142120213Y-54030108D01*
X142292180Y-54155049D01*
X142292184Y-54155051D01*
X142481588Y-54251557D01*
X142683757Y-54317246D01*
X142683758Y-54317246D01*
X142683761Y-54317247D01*
X142893710Y-54350500D01*
X142893713Y-54350500D01*
X143106290Y-54350500D01*
X143316238Y-54317247D01*
X143316239Y-54317246D01*
X143316243Y-54317246D01*
X143518412Y-54251557D01*
X143707816Y-54155051D01*
X143879792Y-54030104D01*
X144030104Y-53879792D01*
X144155051Y-53707816D01*
X144251557Y-53518412D01*
X144317246Y-53316243D01*
X144350500Y-53106287D01*
X144350500Y-52893713D01*
X144350500Y-52893709D01*
X144317247Y-52683761D01*
X144317246Y-52683757D01*
X144251557Y-52481588D01*
X144155051Y-52292184D01*
X144155049Y-52292180D01*
X144030108Y-52120213D01*
X144030106Y-52120211D01*
X144030104Y-52120208D01*
X143879792Y-51969896D01*
X143879788Y-51969893D01*
X143879786Y-51969891D01*
X143707819Y-51844950D01*
X143707815Y-51844948D01*
X143518412Y-51748443D01*
X143316238Y-51682752D01*
X143106290Y-51649500D01*
X143106287Y-51649500D01*
X142893713Y-51649500D01*
X142893710Y-51649500D01*
X142683761Y-51682752D01*
X142481587Y-51748443D01*
X142292184Y-51844948D01*
X142292180Y-51844950D01*
X142120213Y-51969891D01*
X141969891Y-52120213D01*
X141844950Y-52292180D01*
X141844948Y-52292184D01*
X141748443Y-52481587D01*
X141682752Y-52683761D01*
X141649500Y-52893709D01*
X50500500Y-52893709D01*
X50500500Y-50599500D01*
X50519407Y-50541309D01*
X50568907Y-50505345D01*
X50599500Y-50500500D01*
X145400500Y-50500500D01*
X145458691Y-50519407D01*
G37*
G04 #@! TD.AperFunction*
M02*
