M48
; DRILL file {KiCad 9.0.2+dfsg-1} date 2026-09-30T08:18:26+0000
; FORMAT={-:-/ absolute / metric / decimal}
; #@! TF.CreationDate,2026-09-30T08:18:26+00:00
; #@! TF.GenerationSoftware,Kicad,Pcbnew,9.0.2+dfsg-1
; #@! TF.FileFunction,Plated,1,2,PTH
FMAT,2
METRIC
; #@! TA.AperFunction,Plated,PTH,ViaDrill
T1C0.300
; #@! TA.AperFunction,Plated,PTH,ComponentDrill
T2C0.800
; #@! TA.AperFunction,Plated,PTH,ComponentDrill
T3C1.000
%
G90
G05
T1
X55.0Y-60.0
X58.05Y-77.194
X61.0Y-60.0
X62.495Y-93.0
X63.087Y-91.655
X63.642Y-77.408
X66.122Y-79.547
X67.0Y-84.0
X68.322Y-59.615
X68.54Y-86.475
X68.76Y-53.6
X71.486Y-83.374
X72.14Y-91.919
X72.554Y-64.471
X73.0Y-78.0
X74.928Y-84.57
X75.14Y-57.44
X76.106Y-75.281
X76.349Y-80.801
X76.702Y-73.373
X76.832Y-63.508
X77.467Y-63.08
X77.493Y-86.468
X79.0Y-90.0
X79.532Y-81.543
X79.628Y-79.295
X81.052Y-74.225
X82.76Y-57.44
X83.475Y-69.672
X85.0Y-78.0
X85.0Y-84.0
X85.0Y-90.0
X85.271Y-68.804
X86.027Y-59.88
X86.082Y-69.593
X87.474Y-61.035
X89.557Y-74.905
X95.591Y-73.522
X97.0Y-90.0
X101.542Y-77.0
X103.0Y-66.0
X103.0Y-90.0
X103.432Y-73.705
X104.927Y-83.106
X106.765Y-78.01
X109.0Y-60.0
X110.206Y-76.856
X111.05Y-85.99
X111.427Y-71.453
X111.506Y-62.648
X111.707Y-80.118
T2
X65.5Y-70.0
X65.5Y-72.54
X65.5Y-75.08
X73.12Y-70.0
X73.12Y-72.54
X73.12Y-75.08
T3
X53.0Y-62.0
X53.0Y-70.0
X53.0Y-72.54
X53.0Y-81.5
X53.0Y-84.04
X53.0Y-86.58
X55.54Y-62.0
X58.08Y-62.0
X59.5Y-54.0
X59.5Y-56.54
X60.0Y-83.0
X60.0Y-85.54
X60.0Y-88.08
X62.04Y-54.0
X62.04Y-56.54
X62.54Y-83.0
X62.54Y-85.54
X62.54Y-88.08
X64.58Y-54.0
X64.58Y-56.54
X67.12Y-54.0
X67.12Y-56.54
X69.66Y-54.0
X69.66Y-56.54
X72.2Y-54.0
X72.2Y-56.54
X74.74Y-54.0
X74.74Y-56.54
X77.28Y-54.0
X77.28Y-56.54
X79.82Y-54.0
X79.82Y-56.54
X82.36Y-54.0
X82.36Y-56.54
X84.9Y-54.0
X84.9Y-56.54
X87.44Y-54.0
X87.44Y-56.54
X89.98Y-54.0
X89.98Y-56.54
X92.52Y-54.0
X92.52Y-56.54
X95.06Y-54.0
X95.06Y-56.54
X97.6Y-54.0
X97.6Y-56.54
X100.14Y-54.0
X100.14Y-56.54
X102.68Y-54.0
X102.68Y-56.54
X105.0Y-62.0
X105.0Y-64.54
X105.0Y-72.16
X105.22Y-54.0
X105.22Y-56.54
X107.76Y-54.0
X107.76Y-56.54
X110.08Y-62.0
X110.08Y-64.54
X110.08Y-72.16
X115.0Y-67.0
X115.0Y-69.54
X115.0Y-74.8
X115.0Y-77.34
M30
