G04 #@! TF.GenerationSoftware,KiCad,Pcbnew,9.0.2+dfsg-1*
G04 #@! TF.CreationDate,2026-10-02T15:26:37+00:00*
G04 #@! TF.ProjectId,Ardor_Headphones,4172646f-725f-4486-9561-6470686f6e65,rev?*
G04 #@! TF.SameCoordinates,Original*
G04 #@! TF.FileFunction,Copper,L2,Bot*
G04 #@! TF.FilePolarity,Positive*
%FSLAX46Y46*%
G04 Gerber Fmt 4.6, Leading zero omitted, Abs format (unit mm)*
G04 Created by KiCad (PCBNEW 9.0.2+dfsg-1) date 2026-10-02 15:26:37*
%MOMM*%
%LPD*%
G01*
G04 APERTURE LIST*
G04 #@! TA.AperFunction,ComponentPad*
%ADD10R,1.700000X1.700000*%
G04 #@! TD*
G04 #@! TA.AperFunction,ComponentPad*
%ADD11C,1.700000*%
G04 #@! TD*
G04 #@! TA.AperFunction,HeatsinkPad*
%ADD12C,0.500000*%
G04 #@! TD*
G04 #@! TA.AperFunction,HeatsinkPad*
%ADD13R,1.600000X1.600000*%
G04 #@! TD*
G04 #@! TA.AperFunction,ViaPad*
%ADD14C,0.600000*%
G04 #@! TD*
G04 #@! TA.AperFunction,Conductor*
%ADD15C,0.200000*%
G04 #@! TD*
G04 APERTURE END LIST*
D10*
X53000000Y-56460000D03*
D11*
X53000000Y-59000000D03*
X53000000Y-61540000D03*
D10*
X53000000Y-67460000D03*
D11*
X53000000Y-70000000D03*
X53000000Y-72540000D03*
D12*
X67450000Y-62450000D03*
X67450000Y-63550000D03*
D13*
X68000000Y-63000000D03*
D12*
X68550000Y-62450000D03*
X68550000Y-63550000D03*
D10*
X82000000Y-59460000D03*
D11*
X82000000Y-62000000D03*
X82000000Y-64540000D03*
D14*
X61465600Y-63200200D03*
X64867000Y-61515700D03*
X65347600Y-65626400D03*
X75000000Y-70000000D03*
X82000000Y-76000000D03*
X62000000Y-77000000D03*
X65000000Y-63000000D03*
X66000000Y-69000000D03*
X57000000Y-65000000D03*
X70500000Y-66500000D03*
X63233500Y-58837200D03*
X66210500Y-61306500D03*
X76252100Y-59678600D03*
X67379100Y-65965500D03*
X70785300Y-65150000D03*
D15*
X63150100Y-61515700D02*
X61465600Y-63200200D01*
X64867000Y-61515700D02*
X63150100Y-61515700D01*
X74624200Y-61306500D02*
X76252100Y-59678600D01*
X66210500Y-61306500D02*
X74624200Y-61306500D01*
X70785300Y-65150000D02*
X68194600Y-65150000D01*
X68194600Y-65150000D02*
X67379100Y-65965500D01*
G04 #@! TA.AperFunction,Conductor*
G36*
X85458691Y-50519407D02*
G01*
X85494655Y-50568907D01*
X85499500Y-50599500D01*
X85499500Y-79400500D01*
X85480593Y-79458691D01*
X85431093Y-79494655D01*
X85400500Y-79499500D01*
X50599500Y-79499500D01*
X50541309Y-79480593D01*
X50505345Y-79431093D01*
X50500500Y-79400500D01*
X50500500Y-76893709D01*
X51649500Y-76893709D01*
X51649500Y-77106290D01*
X51682752Y-77316238D01*
X51748443Y-77518412D01*
X51844948Y-77707815D01*
X51844950Y-77707819D01*
X51969891Y-77879786D01*
X51969893Y-77879788D01*
X51969896Y-77879792D01*
X52120208Y-78030104D01*
X52120211Y-78030106D01*
X52120213Y-78030108D01*
X52292180Y-78155049D01*
X52292184Y-78155051D01*
X52481588Y-78251557D01*
X52683757Y-78317246D01*
X52683758Y-78317246D01*
X52683761Y-78317247D01*
X52893710Y-78350500D01*
X52893713Y-78350500D01*
X53106290Y-78350500D01*
X53316238Y-78317247D01*
X53316239Y-78317246D01*
X53316243Y-78317246D01*
X53518412Y-78251557D01*
X53707816Y-78155051D01*
X53879792Y-78030104D01*
X54030104Y-77879792D01*
X54155051Y-77707816D01*
X54251557Y-77518412D01*
X54317246Y-77316243D01*
X54350500Y-77106287D01*
X54350500Y-76893713D01*
X54350500Y-76893709D01*
X54317247Y-76683761D01*
X54317246Y-76683757D01*
X54251557Y-76481588D01*
X54155051Y-76292184D01*
X54155049Y-76292180D01*
X54030108Y-76120213D01*
X54030106Y-76120211D01*
X54030104Y-76120208D01*
X53879792Y-75969896D01*
X53879788Y-75969893D01*
X53879786Y-75969891D01*
X53707819Y-75844950D01*
X53707815Y-75844948D01*
X53518412Y-75748443D01*
X53316238Y-75682752D01*
X53106290Y-75649500D01*
X53106287Y-75649500D01*
X52893713Y-75649500D01*
X52893710Y-75649500D01*
X52683761Y-75682752D01*
X52481587Y-75748443D01*
X52292184Y-75844948D01*
X52292180Y-75844950D01*
X52120213Y-75969891D01*
X51969891Y-76120213D01*
X51844950Y-76292180D01*
X51844948Y-76292184D01*
X51748443Y-76481587D01*
X51682752Y-76683761D01*
X51649500Y-76893709D01*
X50500500Y-76893709D01*
X50500500Y-72436532D01*
X51949500Y-72436532D01*
X51949500Y-72643467D01*
X51989869Y-72846418D01*
X52069058Y-73037597D01*
X52069059Y-73037598D01*
X52184023Y-73209655D01*
X52330345Y-73355977D01*
X52502402Y-73470941D01*
X52693580Y-73550130D01*
X52896535Y-73590500D01*
X52896536Y-73590500D01*
X53103464Y-73590500D01*
X53103465Y-73590500D01*
X53306420Y-73550130D01*
X53497598Y-73470941D01*
X53669655Y-73355977D01*
X53815977Y-73209655D01*
X53930941Y-73037598D01*
X54010130Y-72846420D01*
X54050500Y-72643465D01*
X54050500Y-72436535D01*
X54010130Y-72233580D01*
X53930941Y-72042402D01*
X53815977Y-71870345D01*
X53669655Y-71724023D01*
X53497598Y-71609059D01*
X53497599Y-71609059D01*
X53497597Y-71609058D01*
X53306418Y-71529869D01*
X53103467Y-71489500D01*
X53103465Y-71489500D01*
X52896535Y-71489500D01*
X52896532Y-71489500D01*
X52693581Y-71529869D01*
X52502402Y-71609058D01*
X52330348Y-71724020D01*
X52184020Y-71870348D01*
X52069058Y-72042402D01*
X51989869Y-72233581D01*
X51949500Y-72436532D01*
X50500500Y-72436532D01*
X50500500Y-69913424D01*
X51900000Y-69913424D01*
X51900000Y-70086575D01*
X51927084Y-70257579D01*
X51980588Y-70422248D01*
X52059195Y-70576524D01*
X52059197Y-70576528D01*
X52123219Y-70664646D01*
X52556328Y-70231536D01*
X52599901Y-70307007D01*
X52692993Y-70400099D01*
X52768460Y-70443670D01*
X52335352Y-70876778D01*
X52423477Y-70940805D01*
X52577751Y-71019411D01*
X52742420Y-71072915D01*
X52913425Y-71100000D01*
X53086575Y-71100000D01*
X53257579Y-71072915D01*
X53422248Y-71019411D01*
X53576524Y-70940804D01*
X53576530Y-70940800D01*
X53664646Y-70876779D01*
X53664646Y-70876778D01*
X53231538Y-70443670D01*
X53307007Y-70400099D01*
X53400099Y-70307007D01*
X53443670Y-70231538D01*
X53876778Y-70664646D01*
X53876779Y-70664646D01*
X53940800Y-70576530D01*
X53940804Y-70576524D01*
X54019411Y-70422248D01*
X54072915Y-70257579D01*
X54100000Y-70086575D01*
X54100000Y-69913424D01*
X54072915Y-69742420D01*
X54019411Y-69577751D01*
X53940805Y-69423477D01*
X53876778Y-69335352D01*
X53443670Y-69768460D01*
X53400099Y-69692993D01*
X53307007Y-69599901D01*
X53231536Y-69556328D01*
X53664646Y-69123219D01*
X53576528Y-69059197D01*
X53576524Y-69059195D01*
X53422248Y-68980588D01*
X53257579Y-68927084D01*
X53086575Y-68900000D01*
X52913425Y-68900000D01*
X52742420Y-68927084D01*
X52577751Y-68980588D01*
X52423476Y-69059195D01*
X52335352Y-69123219D01*
X52768461Y-69556328D01*
X52692993Y-69599901D01*
X52599901Y-69692993D01*
X52556328Y-69768461D01*
X52123219Y-69335352D01*
X52059195Y-69423476D01*
X51980588Y-69577751D01*
X51927084Y-69742420D01*
X51900000Y-69913424D01*
X50500500Y-69913424D01*
X50500500Y-66590253D01*
X51949500Y-66590253D01*
X51949500Y-68329746D01*
X51949501Y-68329758D01*
X51961132Y-68388227D01*
X51961133Y-68388231D01*
X52005448Y-68454552D01*
X52071769Y-68498867D01*
X52116231Y-68507711D01*
X52130241Y-68510498D01*
X52130246Y-68510498D01*
X52130252Y-68510500D01*
X52130253Y-68510500D01*
X53869747Y-68510500D01*
X53869748Y-68510500D01*
X53928231Y-68498867D01*
X53994552Y-68454552D01*
X54038867Y-68388231D01*
X54050500Y-68329748D01*
X54050500Y-66590252D01*
X54038867Y-66531769D01*
X53994552Y-66465448D01*
X53944330Y-66431890D01*
X53928233Y-66421134D01*
X53928231Y-66421133D01*
X53928228Y-66421132D01*
X53928227Y-66421132D01*
X53869758Y-66409501D01*
X53869748Y-66409500D01*
X52130252Y-66409500D01*
X52130251Y-66409500D01*
X52130241Y-66409501D01*
X52071772Y-66421132D01*
X52071766Y-66421134D01*
X52005451Y-66465445D01*
X52005445Y-66465451D01*
X51961134Y-66531766D01*
X51961132Y-66531772D01*
X51949501Y-66590241D01*
X51949500Y-66590253D01*
X50500500Y-66590253D01*
X50500500Y-65899608D01*
X66878600Y-65899608D01*
X66878600Y-66031392D01*
X66908679Y-66143651D01*
X66912709Y-66158690D01*
X66978596Y-66272809D01*
X66978598Y-66272811D01*
X66978600Y-66272814D01*
X67071786Y-66366000D01*
X67071788Y-66366001D01*
X67071790Y-66366003D01*
X67185910Y-66431890D01*
X67185908Y-66431890D01*
X67185912Y-66431891D01*
X67185914Y-66431892D01*
X67313208Y-66466000D01*
X67313210Y-66466000D01*
X67444990Y-66466000D01*
X67444992Y-66466000D01*
X67572286Y-66431892D01*
X67572288Y-66431890D01*
X67572290Y-66431890D01*
X67686409Y-66366003D01*
X67686409Y-66366002D01*
X67686414Y-66366000D01*
X67779600Y-66272814D01*
X67845492Y-66158686D01*
X67879600Y-66031392D01*
X67879600Y-65930977D01*
X67898507Y-65872786D01*
X67908597Y-65860973D01*
X68290075Y-65479496D01*
X68344591Y-65451719D01*
X68360078Y-65450500D01*
X70336979Y-65450500D01*
X70395170Y-65469407D01*
X70406976Y-65479490D01*
X70477986Y-65550500D01*
X70477988Y-65550501D01*
X70477990Y-65550503D01*
X70592110Y-65616390D01*
X70592108Y-65616390D01*
X70592112Y-65616391D01*
X70592114Y-65616392D01*
X70719408Y-65650500D01*
X70719410Y-65650500D01*
X70851190Y-65650500D01*
X70851192Y-65650500D01*
X70978486Y-65616392D01*
X70978488Y-65616390D01*
X70978490Y-65616390D01*
X71092609Y-65550503D01*
X71092609Y-65550502D01*
X71092614Y-65550500D01*
X71185800Y-65457314D01*
X71189734Y-65450500D01*
X71251690Y-65343190D01*
X71251690Y-65343188D01*
X71251692Y-65343186D01*
X71285800Y-65215892D01*
X71285800Y-65084108D01*
X71251692Y-64956814D01*
X71251690Y-64956811D01*
X71251690Y-64956809D01*
X71185803Y-64842690D01*
X71185801Y-64842688D01*
X71185800Y-64842686D01*
X71092614Y-64749500D01*
X71092611Y-64749498D01*
X71092609Y-64749496D01*
X70978489Y-64683609D01*
X70978491Y-64683609D01*
X70929099Y-64670375D01*
X70851192Y-64649500D01*
X70719408Y-64649500D01*
X70641500Y-64670375D01*
X70592109Y-64683609D01*
X70477990Y-64749496D01*
X70477989Y-64749497D01*
X70477986Y-64749499D01*
X70477986Y-64749500D01*
X70406980Y-64820505D01*
X70352466Y-64848281D01*
X70336979Y-64849500D01*
X68155035Y-64849500D01*
X68078612Y-64869978D01*
X68019534Y-64904087D01*
X68010088Y-64909540D01*
X67483623Y-65436004D01*
X67429107Y-65463781D01*
X67413620Y-65465000D01*
X67313208Y-65465000D01*
X67235300Y-65485875D01*
X67185909Y-65499109D01*
X67071790Y-65564996D01*
X66978596Y-65658190D01*
X66912709Y-65772309D01*
X66912708Y-65772314D01*
X66878600Y-65899608D01*
X50500500Y-65899608D01*
X50500500Y-64453424D01*
X80900000Y-64453424D01*
X80900000Y-64626575D01*
X80927084Y-64797579D01*
X80980588Y-64962248D01*
X81059195Y-65116524D01*
X81059197Y-65116528D01*
X81123219Y-65204646D01*
X81556328Y-64771536D01*
X81599901Y-64847007D01*
X81692993Y-64940099D01*
X81768460Y-64983670D01*
X81335352Y-65416778D01*
X81423477Y-65480805D01*
X81577751Y-65559411D01*
X81742420Y-65612915D01*
X81913425Y-65640000D01*
X82086575Y-65640000D01*
X82257579Y-65612915D01*
X82422248Y-65559411D01*
X82576524Y-65480804D01*
X82576530Y-65480800D01*
X82664646Y-65416779D01*
X82664646Y-65416778D01*
X82231538Y-64983670D01*
X82307007Y-64940099D01*
X82400099Y-64847007D01*
X82443670Y-64771538D01*
X82876778Y-65204646D01*
X82876779Y-65204646D01*
X82940800Y-65116530D01*
X82940804Y-65116524D01*
X83019411Y-64962248D01*
X83072915Y-64797579D01*
X83100000Y-64626575D01*
X83100000Y-64453424D01*
X83072915Y-64282420D01*
X83019411Y-64117751D01*
X82940805Y-63963477D01*
X82876778Y-63875352D01*
X82443670Y-64308460D01*
X82400099Y-64232993D01*
X82307007Y-64139901D01*
X82231536Y-64096328D01*
X82664646Y-63663219D01*
X82576528Y-63599197D01*
X82576524Y-63599195D01*
X82422248Y-63520588D01*
X82257579Y-63467084D01*
X82086575Y-63440000D01*
X81913425Y-63440000D01*
X81742420Y-63467084D01*
X81577751Y-63520588D01*
X81423476Y-63599195D01*
X81335352Y-63663219D01*
X81768461Y-64096328D01*
X81692993Y-64139901D01*
X81599901Y-64232993D01*
X81556328Y-64308461D01*
X81123219Y-63875352D01*
X81059195Y-63963476D01*
X80980588Y-64117751D01*
X80927084Y-64282420D01*
X80900000Y-64453424D01*
X50500500Y-64453424D01*
X50500500Y-63134308D01*
X60965100Y-63134308D01*
X60965100Y-63266092D01*
X60995179Y-63378351D01*
X60999209Y-63393390D01*
X61065096Y-63507509D01*
X61065098Y-63507511D01*
X61065100Y-63507514D01*
X61158286Y-63600700D01*
X61158288Y-63600701D01*
X61158290Y-63600703D01*
X61272410Y-63666590D01*
X61272408Y-63666590D01*
X61272412Y-63666591D01*
X61272414Y-63666592D01*
X61399708Y-63700700D01*
X61399710Y-63700700D01*
X61531490Y-63700700D01*
X61531492Y-63700700D01*
X61658786Y-63666592D01*
X61658788Y-63666590D01*
X61658790Y-63666590D01*
X61747765Y-63615220D01*
X61747774Y-63615215D01*
X61756320Y-63610280D01*
X61772914Y-63600700D01*
X61866100Y-63507514D01*
X61866103Y-63507509D01*
X61931990Y-63393390D01*
X61931990Y-63393388D01*
X61931992Y-63393386D01*
X61966100Y-63266092D01*
X61966100Y-63165678D01*
X61985007Y-63107487D01*
X61995096Y-63095674D01*
X62619830Y-62470941D01*
X63245575Y-61845196D01*
X63300092Y-61817419D01*
X63315579Y-61816200D01*
X64418679Y-61816200D01*
X64476870Y-61835107D01*
X64488676Y-61845190D01*
X64559686Y-61916200D01*
X64559688Y-61916201D01*
X64559690Y-61916203D01*
X64673810Y-61982090D01*
X64673808Y-61982090D01*
X64673812Y-61982091D01*
X64673814Y-61982092D01*
X64801108Y-62016200D01*
X64801110Y-62016200D01*
X64932890Y-62016200D01*
X64932892Y-62016200D01*
X65060186Y-61982092D01*
X65060188Y-61982090D01*
X65060190Y-61982090D01*
X65174309Y-61916203D01*
X65174309Y-61916202D01*
X65174314Y-61916200D01*
X65193982Y-61896532D01*
X80949500Y-61896532D01*
X80949500Y-62103467D01*
X80989869Y-62306418D01*
X81069058Y-62497597D01*
X81184020Y-62669651D01*
X81184023Y-62669655D01*
X81330345Y-62815977D01*
X81502402Y-62930941D01*
X81693580Y-63010130D01*
X81896535Y-63050500D01*
X81896536Y-63050500D01*
X82103464Y-63050500D01*
X82103465Y-63050500D01*
X82306420Y-63010130D01*
X82497598Y-62930941D01*
X82669655Y-62815977D01*
X82815977Y-62669655D01*
X82930941Y-62497598D01*
X83010130Y-62306420D01*
X83050500Y-62103465D01*
X83050500Y-61896535D01*
X83010130Y-61693580D01*
X82930941Y-61502402D01*
X82815977Y-61330345D01*
X82669655Y-61184023D01*
X82669651Y-61184020D01*
X82497597Y-61069058D01*
X82306418Y-60989869D01*
X82103467Y-60949500D01*
X82103465Y-60949500D01*
X81896535Y-60949500D01*
X81896532Y-60949500D01*
X81693581Y-60989869D01*
X81502402Y-61069058D01*
X81330348Y-61184020D01*
X81184020Y-61330348D01*
X81069058Y-61502402D01*
X80989869Y-61693581D01*
X80949500Y-61896532D01*
X65193982Y-61896532D01*
X65267500Y-61823014D01*
X65333392Y-61708886D01*
X65367500Y-61581592D01*
X65367500Y-61449808D01*
X65333392Y-61322514D01*
X65310936Y-61283619D01*
X65310935Y-61283616D01*
X65286104Y-61240608D01*
X65710000Y-61240608D01*
X65710000Y-61372392D01*
X65730744Y-61449809D01*
X65744109Y-61499690D01*
X65809996Y-61613809D01*
X65809998Y-61613811D01*
X65810000Y-61613814D01*
X65903186Y-61707000D01*
X65903188Y-61707001D01*
X65903190Y-61707003D01*
X66017310Y-61772890D01*
X66017308Y-61772890D01*
X66017312Y-61772891D01*
X66017314Y-61772892D01*
X66144608Y-61807000D01*
X66144610Y-61807000D01*
X66276390Y-61807000D01*
X66276392Y-61807000D01*
X66403686Y-61772892D01*
X66403688Y-61772890D01*
X66403690Y-61772890D01*
X66517809Y-61707003D01*
X66517809Y-61707002D01*
X66517814Y-61707000D01*
X66588819Y-61635994D01*
X66643334Y-61608219D01*
X66658821Y-61607000D01*
X74663763Y-61607000D01*
X74663763Y-61606999D01*
X74740189Y-61586521D01*
X74808711Y-61546960D01*
X74864660Y-61491011D01*
X76147574Y-60208095D01*
X76202091Y-60180319D01*
X76217578Y-60179100D01*
X76317990Y-60179100D01*
X76317992Y-60179100D01*
X76445286Y-60144992D01*
X76445288Y-60144990D01*
X76445290Y-60144990D01*
X76559409Y-60079103D01*
X76559409Y-60079102D01*
X76559414Y-60079100D01*
X76652600Y-59985914D01*
X76678644Y-59940805D01*
X76718490Y-59871790D01*
X76718490Y-59871788D01*
X76718492Y-59871786D01*
X76752600Y-59744492D01*
X76752600Y-59612708D01*
X76718492Y-59485414D01*
X76718490Y-59485411D01*
X76718490Y-59485409D01*
X76652603Y-59371290D01*
X76652601Y-59371288D01*
X76652600Y-59371286D01*
X76559414Y-59278100D01*
X76559411Y-59278098D01*
X76559409Y-59278096D01*
X76445289Y-59212209D01*
X76445291Y-59212209D01*
X76395899Y-59198975D01*
X76317992Y-59178100D01*
X76186208Y-59178100D01*
X76108300Y-59198975D01*
X76058909Y-59212209D01*
X75944790Y-59278096D01*
X75851596Y-59371290D01*
X75785709Y-59485409D01*
X75751600Y-59612709D01*
X75751600Y-59713120D01*
X75732693Y-59771311D01*
X75722604Y-59783124D01*
X74528725Y-60977004D01*
X74474208Y-61004781D01*
X74458721Y-61006000D01*
X66658821Y-61006000D01*
X66600630Y-60987093D01*
X66588823Y-60977009D01*
X66517814Y-60906000D01*
X66517811Y-60905998D01*
X66517809Y-60905996D01*
X66403689Y-60840109D01*
X66403691Y-60840109D01*
X66354299Y-60826875D01*
X66276392Y-60806000D01*
X66144608Y-60806000D01*
X66066700Y-60826875D01*
X66017309Y-60840109D01*
X65903190Y-60905996D01*
X65809996Y-60999190D01*
X65744109Y-61113309D01*
X65725163Y-61184020D01*
X65710000Y-61240608D01*
X65286104Y-61240608D01*
X65267503Y-61208390D01*
X65267501Y-61208388D01*
X65267500Y-61208386D01*
X65174314Y-61115200D01*
X65174311Y-61115198D01*
X65174309Y-61115196D01*
X65060189Y-61049309D01*
X65060191Y-61049309D01*
X65010799Y-61036075D01*
X64932892Y-61015200D01*
X64801108Y-61015200D01*
X64723200Y-61036075D01*
X64673809Y-61049309D01*
X64559690Y-61115196D01*
X64559689Y-61115197D01*
X64559686Y-61115199D01*
X64559686Y-61115200D01*
X64488680Y-61186205D01*
X64434166Y-61213981D01*
X64418679Y-61215200D01*
X63189662Y-61215200D01*
X63110538Y-61215200D01*
X63063761Y-61227733D01*
X63034107Y-61235679D01*
X62965593Y-61275236D01*
X62965592Y-61275237D01*
X61570124Y-62670704D01*
X61515607Y-62698481D01*
X61500120Y-62699700D01*
X61399708Y-62699700D01*
X61321800Y-62720575D01*
X61272409Y-62733809D01*
X61158290Y-62799696D01*
X61065096Y-62892890D01*
X60999209Y-63007009D01*
X60999208Y-63007014D01*
X60965100Y-63134308D01*
X50500500Y-63134308D01*
X50500500Y-61436532D01*
X51949500Y-61436532D01*
X51949500Y-61643467D01*
X51989869Y-61846418D01*
X52069058Y-62037597D01*
X52113071Y-62103467D01*
X52184023Y-62209655D01*
X52330345Y-62355977D01*
X52502402Y-62470941D01*
X52693580Y-62550130D01*
X52896535Y-62590500D01*
X52896536Y-62590500D01*
X53103464Y-62590500D01*
X53103465Y-62590500D01*
X53306420Y-62550130D01*
X53497598Y-62470941D01*
X53669655Y-62355977D01*
X53815977Y-62209655D01*
X53930941Y-62037598D01*
X54010130Y-61846420D01*
X54050500Y-61643465D01*
X54050500Y-61436535D01*
X54010130Y-61233580D01*
X53930941Y-61042402D01*
X53815977Y-60870345D01*
X53669655Y-60724023D01*
X53497598Y-60609059D01*
X53497599Y-60609059D01*
X53497597Y-60609058D01*
X53306418Y-60529869D01*
X53103467Y-60489500D01*
X53103465Y-60489500D01*
X52896535Y-60489500D01*
X52896532Y-60489500D01*
X52693581Y-60529869D01*
X52502402Y-60609058D01*
X52330348Y-60724020D01*
X52184020Y-60870348D01*
X52069058Y-61042402D01*
X51989869Y-61233581D01*
X51949500Y-61436532D01*
X50500500Y-61436532D01*
X50500500Y-58913424D01*
X51900000Y-58913424D01*
X51900000Y-59086575D01*
X51927084Y-59257579D01*
X51980588Y-59422248D01*
X52059195Y-59576524D01*
X52059197Y-59576528D01*
X52123219Y-59664646D01*
X52556328Y-59231536D01*
X52599901Y-59307007D01*
X52692993Y-59400099D01*
X52768460Y-59443670D01*
X52335352Y-59876778D01*
X52423477Y-59940805D01*
X52577751Y-60019411D01*
X52742420Y-60072915D01*
X52913425Y-60100000D01*
X53086575Y-60100000D01*
X53257579Y-60072915D01*
X53422248Y-60019411D01*
X53576524Y-59940804D01*
X53576530Y-59940800D01*
X53664646Y-59876779D01*
X53664646Y-59876778D01*
X53231538Y-59443670D01*
X53307007Y-59400099D01*
X53400099Y-59307007D01*
X53443670Y-59231538D01*
X53876778Y-59664646D01*
X53876779Y-59664646D01*
X53940800Y-59576530D01*
X53940804Y-59576524D01*
X54019411Y-59422248D01*
X54072915Y-59257579D01*
X54100000Y-59086575D01*
X54100000Y-58913424D01*
X54072914Y-58742418D01*
X54031833Y-58615980D01*
X54023473Y-58590253D01*
X80949500Y-58590253D01*
X80949500Y-60329746D01*
X80949501Y-60329758D01*
X80961132Y-60388227D01*
X80961133Y-60388231D01*
X81005448Y-60454552D01*
X81071769Y-60498867D01*
X81116231Y-60507711D01*
X81130241Y-60510498D01*
X81130246Y-60510498D01*
X81130252Y-60510500D01*
X81130253Y-60510500D01*
X82869747Y-60510500D01*
X82869748Y-60510500D01*
X82928231Y-60498867D01*
X82994552Y-60454552D01*
X83038867Y-60388231D01*
X83050500Y-60329748D01*
X83050500Y-58590252D01*
X83038867Y-58531769D01*
X82994552Y-58465448D01*
X82931739Y-58423477D01*
X82928233Y-58421134D01*
X82928231Y-58421133D01*
X82928228Y-58421132D01*
X82928227Y-58421132D01*
X82869758Y-58409501D01*
X82869748Y-58409500D01*
X81130252Y-58409500D01*
X81130251Y-58409500D01*
X81130241Y-58409501D01*
X81071772Y-58421132D01*
X81071766Y-58421134D01*
X81005451Y-58465445D01*
X81005445Y-58465451D01*
X80961134Y-58531766D01*
X80961132Y-58531772D01*
X80949501Y-58590241D01*
X80949500Y-58590253D01*
X54023473Y-58590253D01*
X54019411Y-58577751D01*
X53940805Y-58423477D01*
X53876778Y-58335352D01*
X53443670Y-58768460D01*
X53400099Y-58692993D01*
X53307007Y-58599901D01*
X53231536Y-58556328D01*
X53664646Y-58123219D01*
X53576528Y-58059197D01*
X53576524Y-58059195D01*
X53422248Y-57980588D01*
X53257579Y-57927084D01*
X53086575Y-57900000D01*
X52913425Y-57900000D01*
X52742420Y-57927084D01*
X52577751Y-57980588D01*
X52423476Y-58059195D01*
X52335352Y-58123219D01*
X52768461Y-58556328D01*
X52692993Y-58599901D01*
X52599901Y-58692993D01*
X52556328Y-58768461D01*
X52123219Y-58335352D01*
X52059195Y-58423476D01*
X51980588Y-58577751D01*
X51927084Y-58742420D01*
X51900000Y-58913424D01*
X50500500Y-58913424D01*
X50500500Y-55590253D01*
X51949500Y-55590253D01*
X51949500Y-57329746D01*
X51949501Y-57329758D01*
X51961132Y-57388227D01*
X51961133Y-57388231D01*
X52005448Y-57454552D01*
X52071769Y-57498867D01*
X52116231Y-57507711D01*
X52130241Y-57510498D01*
X52130246Y-57510498D01*
X52130252Y-57510500D01*
X52130253Y-57510500D01*
X53869747Y-57510500D01*
X53869748Y-57510500D01*
X53928231Y-57498867D01*
X53994552Y-57454552D01*
X54038867Y-57388231D01*
X54050500Y-57329748D01*
X54050500Y-55590252D01*
X54038867Y-55531769D01*
X53994552Y-55465448D01*
X53994548Y-55465445D01*
X53928233Y-55421134D01*
X53928231Y-55421133D01*
X53928228Y-55421132D01*
X53928227Y-55421132D01*
X53869758Y-55409501D01*
X53869748Y-55409500D01*
X52130252Y-55409500D01*
X52130251Y-55409500D01*
X52130241Y-55409501D01*
X52071772Y-55421132D01*
X52071766Y-55421134D01*
X52005451Y-55465445D01*
X52005445Y-55465451D01*
X51961134Y-55531766D01*
X51961132Y-55531772D01*
X51949501Y-55590241D01*
X51949500Y-55590253D01*
X50500500Y-55590253D01*
X50500500Y-52893709D01*
X81649500Y-52893709D01*
X81649500Y-53106290D01*
X81682752Y-53316238D01*
X81748443Y-53518412D01*
X81844948Y-53707815D01*
X81844950Y-53707819D01*
X81969891Y-53879786D01*
X81969893Y-53879788D01*
X81969896Y-53879792D01*
X82120208Y-54030104D01*
X82120211Y-54030106D01*
X82120213Y-54030108D01*
X82292180Y-54155049D01*
X82292184Y-54155051D01*
X82481588Y-54251557D01*
X82683757Y-54317246D01*
X82683758Y-54317246D01*
X82683761Y-54317247D01*
X82893710Y-54350500D01*
X82893713Y-54350500D01*
X83106290Y-54350500D01*
X83316238Y-54317247D01*
X83316239Y-54317246D01*
X83316243Y-54317246D01*
X83518412Y-54251557D01*
X83707816Y-54155051D01*
X83879792Y-54030104D01*
X84030104Y-53879792D01*
X84155051Y-53707816D01*
X84251557Y-53518412D01*
X84317246Y-53316243D01*
X84350500Y-53106287D01*
X84350500Y-52893713D01*
X84350500Y-52893709D01*
X84317247Y-52683761D01*
X84317246Y-52683757D01*
X84251557Y-52481588D01*
X84155051Y-52292184D01*
X84155049Y-52292180D01*
X84030108Y-52120213D01*
X84030106Y-52120211D01*
X84030104Y-52120208D01*
X83879792Y-51969896D01*
X83879788Y-51969893D01*
X83879786Y-51969891D01*
X83707819Y-51844950D01*
X83707815Y-51844948D01*
X83518412Y-51748443D01*
X83316238Y-51682752D01*
X83106290Y-51649500D01*
X83106287Y-51649500D01*
X82893713Y-51649500D01*
X82893710Y-51649500D01*
X82683761Y-51682752D01*
X82481587Y-51748443D01*
X82292184Y-51844948D01*
X82292180Y-51844950D01*
X82120213Y-51969891D01*
X81969891Y-52120213D01*
X81844950Y-52292180D01*
X81844948Y-52292184D01*
X81748443Y-52481587D01*
X81682752Y-52683761D01*
X81649500Y-52893709D01*
X50500500Y-52893709D01*
X50500500Y-50599500D01*
X50519407Y-50541309D01*
X50568907Y-50505345D01*
X50599500Y-50500500D01*
X85400500Y-50500500D01*
X85458691Y-50519407D01*
G37*
G04 #@! TD.AperFunction*
M02*
