G04 #@! TF.GenerationSoftware,KiCad,Pcbnew,9.0.2+dfsg-1*
G04 #@! TF.CreationDate,2026-10-02T15:26:37+00:00*
G04 #@! TF.ProjectId,Ardor_Headphones,4172646f-725f-4486-9561-6470686f6e65,rev?*
G04 #@! TF.SameCoordinates,Original*
G04 #@! TF.FileFunction,Legend,Bot*
G04 #@! TF.FilePolarity,Positive*
%FSLAX46Y46*%
G04 Gerber Fmt 4.6, Leading zero omitted, Abs format (unit mm)*
G04 Created by KiCad (PCBNEW 9.0.2+dfsg-1) date 2026-10-02 15:26:37*
%MOMM*%
%LPD*%
G01*
G04 APERTURE LIST*
%ADD10C,0.150000*%
%ADD11R,1.700000X1.700000*%
%ADD12C,1.700000*%
%ADD13C,2.200000*%
G04 APERTURE END LIST*
D10*
X57252380Y-56822295D02*
X57633332Y-56822295D01*
X57633332Y-56822295D02*
X57633332Y-56022295D01*
X58109523Y-58600390D02*
X58185713Y-58562295D01*
X58185713Y-58562295D02*
X58299999Y-58562295D01*
X58299999Y-58562295D02*
X58414285Y-58600390D01*
X58414285Y-58600390D02*
X58490475Y-58676580D01*
X58490475Y-58676580D02*
X58528570Y-58752771D01*
X58528570Y-58752771D02*
X58566666Y-58905152D01*
X58566666Y-58905152D02*
X58566666Y-59019438D01*
X58566666Y-59019438D02*
X58528570Y-59171819D01*
X58528570Y-59171819D02*
X58490475Y-59248009D01*
X58490475Y-59248009D02*
X58414285Y-59324200D01*
X58414285Y-59324200D02*
X58299999Y-59362295D01*
X58299999Y-59362295D02*
X58223808Y-59362295D01*
X58223808Y-59362295D02*
X58109523Y-59324200D01*
X58109523Y-59324200D02*
X58071427Y-59286104D01*
X58071427Y-59286104D02*
X58071427Y-59019438D01*
X58071427Y-59019438D02*
X58223808Y-59019438D01*
X57728570Y-59362295D02*
X57728570Y-58562295D01*
X57728570Y-58562295D02*
X57271427Y-59362295D01*
X57271427Y-59362295D02*
X57271427Y-58562295D01*
X56890475Y-59362295D02*
X56890475Y-58562295D01*
X56890475Y-58562295D02*
X56699999Y-58562295D01*
X56699999Y-58562295D02*
X56585713Y-58600390D01*
X56585713Y-58600390D02*
X56509523Y-58676580D01*
X56509523Y-58676580D02*
X56471428Y-58752771D01*
X56471428Y-58752771D02*
X56433332Y-58905152D01*
X56433332Y-58905152D02*
X56433332Y-59019438D01*
X56433332Y-59019438D02*
X56471428Y-59171819D01*
X56471428Y-59171819D02*
X56509523Y-59248009D01*
X56509523Y-59248009D02*
X56585713Y-59324200D01*
X56585713Y-59324200D02*
X56699999Y-59362295D01*
X56699999Y-59362295D02*
X56890475Y-59362295D01*
X77252380Y-62362295D02*
X77519047Y-61981342D01*
X77709523Y-62362295D02*
X77709523Y-61562295D01*
X77709523Y-61562295D02*
X77404761Y-61562295D01*
X77404761Y-61562295D02*
X77328571Y-61600390D01*
X77328571Y-61600390D02*
X77290476Y-61638485D01*
X77290476Y-61638485D02*
X77252380Y-61714676D01*
X77252380Y-61714676D02*
X77252380Y-61828961D01*
X77252380Y-61828961D02*
X77290476Y-61905152D01*
X77290476Y-61905152D02*
X77328571Y-61943247D01*
X77328571Y-61943247D02*
X77404761Y-61981342D01*
X77404761Y-61981342D02*
X77709523Y-61981342D01*
X83028571Y-56522295D02*
X83028571Y-57093723D01*
X83028571Y-57093723D02*
X83066666Y-57208009D01*
X83066666Y-57208009D02*
X83142857Y-57284200D01*
X83142857Y-57284200D02*
X83257142Y-57322295D01*
X83257142Y-57322295D02*
X83333333Y-57322295D01*
X82304761Y-56522295D02*
X82457142Y-56522295D01*
X82457142Y-56522295D02*
X82533333Y-56560390D01*
X82533333Y-56560390D02*
X82571428Y-56598485D01*
X82571428Y-56598485D02*
X82647618Y-56712771D01*
X82647618Y-56712771D02*
X82685714Y-56865152D01*
X82685714Y-56865152D02*
X82685714Y-57169914D01*
X82685714Y-57169914D02*
X82647618Y-57246104D01*
X82647618Y-57246104D02*
X82609523Y-57284200D01*
X82609523Y-57284200D02*
X82533333Y-57322295D01*
X82533333Y-57322295D02*
X82380952Y-57322295D01*
X82380952Y-57322295D02*
X82304761Y-57284200D01*
X82304761Y-57284200D02*
X82266666Y-57246104D01*
X82266666Y-57246104D02*
X82228571Y-57169914D01*
X82228571Y-57169914D02*
X82228571Y-56979438D01*
X82228571Y-56979438D02*
X82266666Y-56903247D01*
X82266666Y-56903247D02*
X82304761Y-56865152D01*
X82304761Y-56865152D02*
X82380952Y-56827057D01*
X82380952Y-56827057D02*
X82533333Y-56827057D01*
X82533333Y-56827057D02*
X82609523Y-56865152D01*
X82609523Y-56865152D02*
X82647618Y-56903247D01*
X82647618Y-56903247D02*
X82685714Y-56979438D01*
X81733332Y-56522295D02*
X81657142Y-56522295D01*
X81657142Y-56522295D02*
X81580951Y-56560390D01*
X81580951Y-56560390D02*
X81542856Y-56598485D01*
X81542856Y-56598485D02*
X81504761Y-56674676D01*
X81504761Y-56674676D02*
X81466666Y-56827057D01*
X81466666Y-56827057D02*
X81466666Y-57017533D01*
X81466666Y-57017533D02*
X81504761Y-57169914D01*
X81504761Y-57169914D02*
X81542856Y-57246104D01*
X81542856Y-57246104D02*
X81580951Y-57284200D01*
X81580951Y-57284200D02*
X81657142Y-57322295D01*
X81657142Y-57322295D02*
X81733332Y-57322295D01*
X81733332Y-57322295D02*
X81809523Y-57284200D01*
X81809523Y-57284200D02*
X81847618Y-57246104D01*
X81847618Y-57246104D02*
X81885713Y-57169914D01*
X81885713Y-57169914D02*
X81923809Y-57017533D01*
X81923809Y-57017533D02*
X81923809Y-56827057D01*
X81923809Y-56827057D02*
X81885713Y-56674676D01*
X81885713Y-56674676D02*
X81847618Y-56598485D01*
X81847618Y-56598485D02*
X81809523Y-56560390D01*
X81809523Y-56560390D02*
X81733332Y-56522295D01*
X81161904Y-56598485D02*
X81123808Y-56560390D01*
X81123808Y-56560390D02*
X81047618Y-56522295D01*
X81047618Y-56522295D02*
X80857142Y-56522295D01*
X80857142Y-56522295D02*
X80780951Y-56560390D01*
X80780951Y-56560390D02*
X80742856Y-56598485D01*
X80742856Y-56598485D02*
X80704761Y-56674676D01*
X80704761Y-56674676D02*
X80704761Y-56750866D01*
X80704761Y-56750866D02*
X80742856Y-56865152D01*
X80742856Y-56865152D02*
X81199999Y-57322295D01*
X81199999Y-57322295D02*
X80704761Y-57322295D01*
X57652380Y-67022295D02*
X58033332Y-67022295D01*
X58033332Y-67022295D02*
X58071428Y-67403247D01*
X58071428Y-67403247D02*
X58033332Y-67365152D01*
X58033332Y-67365152D02*
X57957142Y-67327057D01*
X57957142Y-67327057D02*
X57766666Y-67327057D01*
X57766666Y-67327057D02*
X57690475Y-67365152D01*
X57690475Y-67365152D02*
X57652380Y-67403247D01*
X57652380Y-67403247D02*
X57614285Y-67479438D01*
X57614285Y-67479438D02*
X57614285Y-67669914D01*
X57614285Y-67669914D02*
X57652380Y-67746104D01*
X57652380Y-67746104D02*
X57690475Y-67784200D01*
X57690475Y-67784200D02*
X57766666Y-67822295D01*
X57766666Y-67822295D02*
X57957142Y-67822295D01*
X57957142Y-67822295D02*
X58033332Y-67784200D01*
X58033332Y-67784200D02*
X58071428Y-67746104D01*
X57385713Y-67022295D02*
X57119046Y-67822295D01*
X57119046Y-67822295D02*
X56852380Y-67022295D01*
X58109523Y-69600390D02*
X58185713Y-69562295D01*
X58185713Y-69562295D02*
X58299999Y-69562295D01*
X58299999Y-69562295D02*
X58414285Y-69600390D01*
X58414285Y-69600390D02*
X58490475Y-69676580D01*
X58490475Y-69676580D02*
X58528570Y-69752771D01*
X58528570Y-69752771D02*
X58566666Y-69905152D01*
X58566666Y-69905152D02*
X58566666Y-70019438D01*
X58566666Y-70019438D02*
X58528570Y-70171819D01*
X58528570Y-70171819D02*
X58490475Y-70248009D01*
X58490475Y-70248009D02*
X58414285Y-70324200D01*
X58414285Y-70324200D02*
X58299999Y-70362295D01*
X58299999Y-70362295D02*
X58223808Y-70362295D01*
X58223808Y-70362295D02*
X58109523Y-70324200D01*
X58109523Y-70324200D02*
X58071427Y-70286104D01*
X58071427Y-70286104D02*
X58071427Y-70019438D01*
X58071427Y-70019438D02*
X58223808Y-70019438D01*
X57728570Y-70362295D02*
X57728570Y-69562295D01*
X57728570Y-69562295D02*
X57271427Y-70362295D01*
X57271427Y-70362295D02*
X57271427Y-69562295D01*
X56890475Y-70362295D02*
X56890475Y-69562295D01*
X56890475Y-69562295D02*
X56699999Y-69562295D01*
X56699999Y-69562295D02*
X56585713Y-69600390D01*
X56585713Y-69600390D02*
X56509523Y-69676580D01*
X56509523Y-69676580D02*
X56471428Y-69752771D01*
X56471428Y-69752771D02*
X56433332Y-69905152D01*
X56433332Y-69905152D02*
X56433332Y-70019438D01*
X56433332Y-70019438D02*
X56471428Y-70171819D01*
X56471428Y-70171819D02*
X56509523Y-70248009D01*
X56509523Y-70248009D02*
X56585713Y-70324200D01*
X56585713Y-70324200D02*
X56699999Y-70362295D01*
X56699999Y-70362295D02*
X56890475Y-70362295D01*
X78109523Y-64140390D02*
X78185713Y-64102295D01*
X78185713Y-64102295D02*
X78299999Y-64102295D01*
X78299999Y-64102295D02*
X78414285Y-64140390D01*
X78414285Y-64140390D02*
X78490475Y-64216580D01*
X78490475Y-64216580D02*
X78528570Y-64292771D01*
X78528570Y-64292771D02*
X78566666Y-64445152D01*
X78566666Y-64445152D02*
X78566666Y-64559438D01*
X78566666Y-64559438D02*
X78528570Y-64711819D01*
X78528570Y-64711819D02*
X78490475Y-64788009D01*
X78490475Y-64788009D02*
X78414285Y-64864200D01*
X78414285Y-64864200D02*
X78299999Y-64902295D01*
X78299999Y-64902295D02*
X78223808Y-64902295D01*
X78223808Y-64902295D02*
X78109523Y-64864200D01*
X78109523Y-64864200D02*
X78071427Y-64826104D01*
X78071427Y-64826104D02*
X78071427Y-64559438D01*
X78071427Y-64559438D02*
X78223808Y-64559438D01*
X77728570Y-64902295D02*
X77728570Y-64102295D01*
X77728570Y-64102295D02*
X77271427Y-64902295D01*
X77271427Y-64902295D02*
X77271427Y-64102295D01*
X76890475Y-64902295D02*
X76890475Y-64102295D01*
X76890475Y-64102295D02*
X76699999Y-64102295D01*
X76699999Y-64102295D02*
X76585713Y-64140390D01*
X76585713Y-64140390D02*
X76509523Y-64216580D01*
X76509523Y-64216580D02*
X76471428Y-64292771D01*
X76471428Y-64292771D02*
X76433332Y-64445152D01*
X76433332Y-64445152D02*
X76433332Y-64559438D01*
X76433332Y-64559438D02*
X76471428Y-64711819D01*
X76471428Y-64711819D02*
X76509523Y-64788009D01*
X76509523Y-64788009D02*
X76585713Y-64864200D01*
X76585713Y-64864200D02*
X76699999Y-64902295D01*
X76699999Y-64902295D02*
X76890475Y-64902295D01*
X58090475Y-72483247D02*
X57823809Y-72483247D01*
X57709523Y-72902295D02*
X58090475Y-72902295D01*
X58090475Y-72902295D02*
X58090475Y-72102295D01*
X58090475Y-72102295D02*
X57709523Y-72102295D01*
X57366665Y-72902295D02*
X57366665Y-72102295D01*
X57366665Y-72102295D02*
X56909522Y-72902295D01*
X56909522Y-72902295D02*
X56909522Y-72102295D01*
X57252380Y-61902295D02*
X57519047Y-61521342D01*
X57709523Y-61902295D02*
X57709523Y-61102295D01*
X57709523Y-61102295D02*
X57404761Y-61102295D01*
X57404761Y-61102295D02*
X57328571Y-61140390D01*
X57328571Y-61140390D02*
X57290476Y-61178485D01*
X57290476Y-61178485D02*
X57252380Y-61254676D01*
X57252380Y-61254676D02*
X57252380Y-61368961D01*
X57252380Y-61368961D02*
X57290476Y-61445152D01*
X57290476Y-61445152D02*
X57328571Y-61483247D01*
X57328571Y-61483247D02*
X57404761Y-61521342D01*
X57404761Y-61521342D02*
X57709523Y-61521342D01*
X54028571Y-53522295D02*
X54028571Y-54093723D01*
X54028571Y-54093723D02*
X54066666Y-54208009D01*
X54066666Y-54208009D02*
X54142857Y-54284200D01*
X54142857Y-54284200D02*
X54257142Y-54322295D01*
X54257142Y-54322295D02*
X54333333Y-54322295D01*
X53228571Y-54322295D02*
X53685714Y-54322295D01*
X53457142Y-54322295D02*
X53457142Y-53522295D01*
X53457142Y-53522295D02*
X53533333Y-53636580D01*
X53533333Y-53636580D02*
X53609523Y-53712771D01*
X53609523Y-53712771D02*
X53685714Y-53750866D01*
X52733332Y-53522295D02*
X52657142Y-53522295D01*
X52657142Y-53522295D02*
X52580951Y-53560390D01*
X52580951Y-53560390D02*
X52542856Y-53598485D01*
X52542856Y-53598485D02*
X52504761Y-53674676D01*
X52504761Y-53674676D02*
X52466666Y-53827057D01*
X52466666Y-53827057D02*
X52466666Y-54017533D01*
X52466666Y-54017533D02*
X52504761Y-54169914D01*
X52504761Y-54169914D02*
X52542856Y-54246104D01*
X52542856Y-54246104D02*
X52580951Y-54284200D01*
X52580951Y-54284200D02*
X52657142Y-54322295D01*
X52657142Y-54322295D02*
X52733332Y-54322295D01*
X52733332Y-54322295D02*
X52809523Y-54284200D01*
X52809523Y-54284200D02*
X52847618Y-54246104D01*
X52847618Y-54246104D02*
X52885713Y-54169914D01*
X52885713Y-54169914D02*
X52923809Y-54017533D01*
X52923809Y-54017533D02*
X52923809Y-53827057D01*
X52923809Y-53827057D02*
X52885713Y-53674676D01*
X52885713Y-53674676D02*
X52847618Y-53598485D01*
X52847618Y-53598485D02*
X52809523Y-53560390D01*
X52809523Y-53560390D02*
X52733332Y-53522295D01*
X52161904Y-53598485D02*
X52123808Y-53560390D01*
X52123808Y-53560390D02*
X52047618Y-53522295D01*
X52047618Y-53522295D02*
X51857142Y-53522295D01*
X51857142Y-53522295D02*
X51780951Y-53560390D01*
X51780951Y-53560390D02*
X51742856Y-53598485D01*
X51742856Y-53598485D02*
X51704761Y-53674676D01*
X51704761Y-53674676D02*
X51704761Y-53750866D01*
X51704761Y-53750866D02*
X51742856Y-53865152D01*
X51742856Y-53865152D02*
X52199999Y-54322295D01*
X52199999Y-54322295D02*
X51704761Y-54322295D01*
X54028571Y-64522294D02*
X54028571Y-65093722D01*
X54028571Y-65093722D02*
X54066666Y-65208008D01*
X54066666Y-65208008D02*
X54142857Y-65284199D01*
X54142857Y-65284199D02*
X54257142Y-65322294D01*
X54257142Y-65322294D02*
X54333333Y-65322294D01*
X53228571Y-65322294D02*
X53685714Y-65322294D01*
X53457142Y-65322294D02*
X53457142Y-64522294D01*
X53457142Y-64522294D02*
X53533333Y-64636579D01*
X53533333Y-64636579D02*
X53609523Y-64712770D01*
X53609523Y-64712770D02*
X53685714Y-64750865D01*
X52733332Y-64522294D02*
X52657142Y-64522294D01*
X52657142Y-64522294D02*
X52580951Y-64560389D01*
X52580951Y-64560389D02*
X52542856Y-64598484D01*
X52542856Y-64598484D02*
X52504761Y-64674675D01*
X52504761Y-64674675D02*
X52466666Y-64827056D01*
X52466666Y-64827056D02*
X52466666Y-65017532D01*
X52466666Y-65017532D02*
X52504761Y-65169913D01*
X52504761Y-65169913D02*
X52542856Y-65246103D01*
X52542856Y-65246103D02*
X52580951Y-65284199D01*
X52580951Y-65284199D02*
X52657142Y-65322294D01*
X52657142Y-65322294D02*
X52733332Y-65322294D01*
X52733332Y-65322294D02*
X52809523Y-65284199D01*
X52809523Y-65284199D02*
X52847618Y-65246103D01*
X52847618Y-65246103D02*
X52885713Y-65169913D01*
X52885713Y-65169913D02*
X52923809Y-65017532D01*
X52923809Y-65017532D02*
X52923809Y-64827056D01*
X52923809Y-64827056D02*
X52885713Y-64674675D01*
X52885713Y-64674675D02*
X52847618Y-64598484D01*
X52847618Y-64598484D02*
X52809523Y-64560389D01*
X52809523Y-64560389D02*
X52733332Y-64522294D01*
X51704761Y-65322294D02*
X52161904Y-65322294D01*
X51933332Y-65322294D02*
X51933332Y-64522294D01*
X51933332Y-64522294D02*
X52009523Y-64636579D01*
X52009523Y-64636579D02*
X52085713Y-64712770D01*
X52085713Y-64712770D02*
X52161904Y-64750865D01*
X73095237Y-78169104D02*
X72619047Y-78169104D01*
X73190475Y-78454819D02*
X72857142Y-77454819D01*
X72857142Y-77454819D02*
X72523809Y-78454819D01*
X71619047Y-78454819D02*
X71952380Y-77978628D01*
X72190475Y-78454819D02*
X72190475Y-77454819D01*
X72190475Y-77454819D02*
X71809523Y-77454819D01*
X71809523Y-77454819D02*
X71714285Y-77502438D01*
X71714285Y-77502438D02*
X71666666Y-77550057D01*
X71666666Y-77550057D02*
X71619047Y-77645295D01*
X71619047Y-77645295D02*
X71619047Y-77788152D01*
X71619047Y-77788152D02*
X71666666Y-77883390D01*
X71666666Y-77883390D02*
X71714285Y-77931009D01*
X71714285Y-77931009D02*
X71809523Y-77978628D01*
X71809523Y-77978628D02*
X72190475Y-77978628D01*
X71190475Y-78454819D02*
X71190475Y-77454819D01*
X71190475Y-77454819D02*
X70952380Y-77454819D01*
X70952380Y-77454819D02*
X70809523Y-77502438D01*
X70809523Y-77502438D02*
X70714285Y-77597676D01*
X70714285Y-77597676D02*
X70666666Y-77692914D01*
X70666666Y-77692914D02*
X70619047Y-77883390D01*
X70619047Y-77883390D02*
X70619047Y-78026247D01*
X70619047Y-78026247D02*
X70666666Y-78216723D01*
X70666666Y-78216723D02*
X70714285Y-78311961D01*
X70714285Y-78311961D02*
X70809523Y-78407200D01*
X70809523Y-78407200D02*
X70952380Y-78454819D01*
X70952380Y-78454819D02*
X71190475Y-78454819D01*
X69999999Y-77454819D02*
X69809523Y-77454819D01*
X69809523Y-77454819D02*
X69714285Y-77502438D01*
X69714285Y-77502438D02*
X69619047Y-77597676D01*
X69619047Y-77597676D02*
X69571428Y-77788152D01*
X69571428Y-77788152D02*
X69571428Y-78121485D01*
X69571428Y-78121485D02*
X69619047Y-78311961D01*
X69619047Y-78311961D02*
X69714285Y-78407200D01*
X69714285Y-78407200D02*
X69809523Y-78454819D01*
X69809523Y-78454819D02*
X69999999Y-78454819D01*
X69999999Y-78454819D02*
X70095237Y-78407200D01*
X70095237Y-78407200D02*
X70190475Y-78311961D01*
X70190475Y-78311961D02*
X70238094Y-78121485D01*
X70238094Y-78121485D02*
X70238094Y-77788152D01*
X70238094Y-77788152D02*
X70190475Y-77597676D01*
X70190475Y-77597676D02*
X70095237Y-77502438D01*
X70095237Y-77502438D02*
X69999999Y-77454819D01*
X68571428Y-78454819D02*
X68904761Y-77978628D01*
X69142856Y-78454819D02*
X69142856Y-77454819D01*
X69142856Y-77454819D02*
X68761904Y-77454819D01*
X68761904Y-77454819D02*
X68666666Y-77502438D01*
X68666666Y-77502438D02*
X68619047Y-77550057D01*
X68619047Y-77550057D02*
X68571428Y-77645295D01*
X68571428Y-77645295D02*
X68571428Y-77788152D01*
X68571428Y-77788152D02*
X68619047Y-77883390D01*
X68619047Y-77883390D02*
X68666666Y-77931009D01*
X68666666Y-77931009D02*
X68761904Y-77978628D01*
X68761904Y-77978628D02*
X69142856Y-77978628D01*
X67380951Y-78454819D02*
X67380951Y-77454819D01*
X67380951Y-77931009D02*
X66809523Y-77931009D01*
X66809523Y-78454819D02*
X66809523Y-77454819D01*
X66333332Y-78454819D02*
X66333332Y-77454819D01*
X66333332Y-77454819D02*
X65952380Y-77454819D01*
X65952380Y-77454819D02*
X65857142Y-77502438D01*
X65857142Y-77502438D02*
X65809523Y-77550057D01*
X65809523Y-77550057D02*
X65761904Y-77645295D01*
X65761904Y-77645295D02*
X65761904Y-77788152D01*
X65761904Y-77788152D02*
X65809523Y-77883390D01*
X65809523Y-77883390D02*
X65857142Y-77931009D01*
X65857142Y-77931009D02*
X65952380Y-77978628D01*
X65952380Y-77978628D02*
X66333332Y-77978628D01*
X64571427Y-78454819D02*
X64571427Y-77454819D01*
X64571427Y-77454819D02*
X64238094Y-78169104D01*
X64238094Y-78169104D02*
X63904761Y-77454819D01*
X63904761Y-77454819D02*
X63904761Y-78454819D01*
X62904761Y-78454819D02*
X63476189Y-78454819D01*
X63190475Y-78454819D02*
X63190475Y-77454819D01*
X63190475Y-77454819D02*
X63285713Y-77597676D01*
X63285713Y-77597676D02*
X63380951Y-77692914D01*
X63380951Y-77692914D02*
X63476189Y-77740533D01*
X77252380Y-59822295D02*
X77633332Y-59822295D01*
X77633332Y-59822295D02*
X77633332Y-59022295D01*
%LPC*%
D11*
X53000000Y-56460000D03*
D12*
X53000000Y-59000000D03*
X53000000Y-61540000D03*
D11*
X53000000Y-67460000D03*
D12*
X53000000Y-70000000D03*
X53000000Y-72540000D03*
D11*
X82000000Y-59460000D03*
D12*
X82000000Y-62000000D03*
X82000000Y-64540000D03*
D13*
X83000000Y-53000000D03*
X53000000Y-77000000D03*
%LPD*%
M02*
