G04 #@! TF.GenerationSoftware,KiCad,Pcbnew,9.0.2+dfsg-1*
G04 #@! TF.CreationDate,2026-10-02T15:26:37+00:00*
G04 #@! TF.ProjectId,Ardor_Headphones,4172646f-725f-4486-9561-6470686f6e65,rev?*
G04 #@! TF.SameCoordinates,Original*
G04 #@! TF.FileFunction,Soldermask,Top*
G04 #@! TF.FilePolarity,Negative*
%FSLAX46Y46*%
G04 Gerber Fmt 4.6, Leading zero omitted, Abs format (unit mm)*
G04 Created by KiCad (PCBNEW 9.0.2+dfsg-1) date 2026-10-02 15:26:37*
%MOMM*%
%LPD*%
G01*
G04 APERTURE LIST*
G04 Aperture macros list*
%AMRoundRect*
0 Rectangle with rounded corners*
0 $1 Rounding radius*
0 $2 $3 $4 $5 $6 $7 $8 $9 X,Y pos of 4 corners*
0 Add a 4 corners polygon primitive as box body*
4,1,4,$2,$3,$4,$5,$6,$7,$8,$9,$2,$3,0*
0 Add four circle primitives for the rounded corners*
1,1,$1+$1,$2,$3*
1,1,$1+$1,$4,$5*
1,1,$1+$1,$6,$7*
1,1,$1+$1,$8,$9*
0 Add four rect primitives between the rounded corners*
20,1,$1+$1,$2,$3,$4,$5,0*
20,1,$1+$1,$4,$5,$6,$7,0*
20,1,$1+$1,$6,$7,$8,$9,0*
20,1,$1+$1,$8,$9,$2,$3,0*%
G04 Aperture macros list end*
%ADD10RoundRect,0.250000X-0.250000X-0.475000X0.250000X-0.475000X0.250000X0.475000X-0.250000X0.475000X0*%
%ADD11RoundRect,0.200000X-0.200000X-0.275000X0.200000X-0.275000X0.200000X0.275000X-0.200000X0.275000X0*%
%ADD12RoundRect,0.218750X-0.218750X-0.381250X0.218750X-0.381250X0.218750X0.381250X-0.218750X0.381250X0*%
%ADD13RoundRect,0.250000X-0.325000X-0.650000X0.325000X-0.650000X0.325000X0.650000X-0.325000X0.650000X0*%
%ADD14R,1.700000X1.700000*%
%ADD15C,1.700000*%
%ADD16RoundRect,0.250000X-0.312500X-0.625000X0.312500X-0.625000X0.312500X0.625000X-0.312500X0.625000X0*%
%ADD17RoundRect,0.112500X-0.187500X-0.112500X0.187500X-0.112500X0.187500X0.112500X-0.187500X0.112500X0*%
%ADD18RoundRect,0.225000X-0.225000X-0.250000X0.225000X-0.250000X0.225000X0.250000X-0.225000X0.250000X0*%
%ADD19RoundRect,0.062500X-0.375000X-0.062500X0.375000X-0.062500X0.375000X0.062500X-0.375000X0.062500X0*%
%ADD20RoundRect,0.062500X-0.062500X-0.375000X0.062500X-0.375000X0.062500X0.375000X-0.062500X0.375000X0*%
%ADD21R,1.600000X1.600000*%
%ADD22C,2.200000*%
G04 APERTURE END LIST*
D10*
X71050000Y-63000000D03*
X72950000Y-63000000D03*
D11*
X59175000Y-66000000D03*
X60825000Y-66000000D03*
D12*
X57937500Y-72000000D03*
X60062500Y-72000000D03*
D13*
X58525000Y-61000000D03*
X61475000Y-61000000D03*
D14*
X53000000Y-56460000D03*
D15*
X53000000Y-59000000D03*
X53000000Y-61540000D03*
D16*
X73537500Y-76000000D03*
X76462500Y-76000000D03*
D11*
X59175000Y-69000000D03*
X60825000Y-69000000D03*
D17*
X77950000Y-73000000D03*
X80050000Y-73000000D03*
D14*
X53000000Y-67460000D03*
D15*
X53000000Y-70000000D03*
X53000000Y-72540000D03*
D11*
X76175000Y-64000000D03*
X77825000Y-64000000D03*
D10*
X70550000Y-58500000D03*
X72450000Y-58500000D03*
D18*
X66225000Y-72000000D03*
X67775000Y-72000000D03*
D17*
X77950000Y-69000000D03*
X80050000Y-69000000D03*
D18*
X66225000Y-59000000D03*
X67775000Y-59000000D03*
D10*
X63050000Y-66000000D03*
X64950000Y-66000000D03*
D11*
X76175000Y-58000000D03*
X77825000Y-58000000D03*
D10*
X62050000Y-72000000D03*
X63950000Y-72000000D03*
D19*
X66562500Y-62250000D03*
X66562500Y-62750000D03*
X66562500Y-63250000D03*
X66562500Y-63750000D03*
D20*
X67250000Y-64437500D03*
X67750000Y-64437500D03*
X68250000Y-64437500D03*
X68750000Y-64437500D03*
D19*
X69437500Y-63750000D03*
X69437500Y-63250000D03*
X69437500Y-62750000D03*
X69437500Y-62250000D03*
D20*
X68750000Y-61562500D03*
X68250000Y-61562500D03*
X67750000Y-61562500D03*
X67250000Y-61562500D03*
D21*
X68000000Y-63000000D03*
D14*
X82000000Y-59460000D03*
D15*
X82000000Y-62000000D03*
X82000000Y-64540000D03*
D22*
X83000000Y-53000000D03*
D10*
X69050000Y-75000000D03*
X70950000Y-75000000D03*
D22*
X53000000Y-77000000D03*
D13*
X58525000Y-57000000D03*
X61475000Y-57000000D03*
M02*
