G04 #@! TF.GenerationSoftware,KiCad,Pcbnew,9.0.2+dfsg-1*
G04 #@! TF.CreationDate,2026-10-02T15:26:40+00:00*
G04 #@! TF.ProjectId,Ardor_Expression,4172646f-725f-4457-9870-72657373696f,rev?*
G04 #@! TF.SameCoordinates,Original*
G04 #@! TF.FileFunction,Copper,L2,Bot*
G04 #@! TF.FilePolarity,Positive*
%FSLAX46Y46*%
G04 Gerber Fmt 4.6, Leading zero omitted, Abs format (unit mm)*
G04 Created by KiCad (PCBNEW 9.0.2+dfsg-1) date 2026-10-02 15:26:40*
%MOMM*%
%LPD*%
G01*
G04 APERTURE LIST*
G04 #@! TA.AperFunction,ComponentPad*
%ADD10R,1.700000X1.700000*%
G04 #@! TD*
G04 #@! TA.AperFunction,ComponentPad*
%ADD11C,1.700000*%
G04 #@! TD*
G04 #@! TA.AperFunction,ViaPad*
%ADD12C,0.600000*%
G04 #@! TD*
G04 #@! TA.AperFunction,Conductor*
%ADD13C,0.200000*%
G04 #@! TD*
G04 APERTURE END LIST*
D10*
X53000000Y-60460000D03*
D11*
X53000000Y-63000000D03*
X53000000Y-65540000D03*
D10*
X90000000Y-71730000D03*
D11*
X90000000Y-74270000D03*
D10*
X58730000Y-60460000D03*
D11*
X61270000Y-60460000D03*
X58730000Y-63000000D03*
X61270000Y-63000000D03*
X58730000Y-65540000D03*
X61270000Y-65540000D03*
D10*
X90000000Y-78730000D03*
D11*
X90000000Y-81270000D03*
D10*
X78000000Y-73460000D03*
D11*
X78000000Y-76000000D03*
X78000000Y-78540000D03*
D10*
X90000000Y-58190000D03*
D11*
X90000000Y-60730000D03*
X90000000Y-63270000D03*
X90000000Y-65810000D03*
D12*
X80000000Y-58000000D03*
X69000000Y-78000000D03*
X87000000Y-55000000D03*
X70386100Y-62616400D03*
X82162500Y-53898500D03*
X77000000Y-70000000D03*
X62000000Y-55000000D03*
X65000000Y-75000000D03*
X66840100Y-66237900D03*
X77276600Y-66287500D03*
D13*
X56190000Y-63000000D02*
X53000000Y-63000000D01*
X58730000Y-65540000D02*
X56190000Y-63000000D01*
X59881700Y-64151700D02*
X59881700Y-62475400D01*
X58730000Y-60460000D02*
X53000000Y-60460000D01*
X59881700Y-62475400D02*
X59018000Y-61611700D01*
X61270000Y-65540000D02*
X59881700Y-64151700D01*
X58730000Y-60460000D02*
X58730000Y-61611700D01*
X59018000Y-61611700D02*
X58730000Y-61611700D01*
X90000000Y-63270000D02*
X91151700Y-64421700D01*
X91151700Y-64421700D02*
X91151700Y-73118300D01*
X91151700Y-73118300D02*
X90000000Y-74270000D01*
X66889700Y-66287500D02*
X66840100Y-66237900D01*
X77276600Y-66287500D02*
X66889700Y-66287500D01*
G04 #@! TA.AperFunction,Conductor*
G36*
X93458691Y-50519407D02*
G01*
X93494655Y-50568907D01*
X93499500Y-50599500D01*
X93499500Y-83400500D01*
X93480593Y-83458691D01*
X93431093Y-83494655D01*
X93400500Y-83499500D01*
X50599500Y-83499500D01*
X50541309Y-83480593D01*
X50505345Y-83431093D01*
X50500500Y-83400500D01*
X50500500Y-80893709D01*
X51649500Y-80893709D01*
X51649500Y-81106290D01*
X51682752Y-81316238D01*
X51748443Y-81518412D01*
X51844948Y-81707815D01*
X51844950Y-81707819D01*
X51969891Y-81879786D01*
X51969893Y-81879788D01*
X51969896Y-81879792D01*
X52120208Y-82030104D01*
X52120211Y-82030106D01*
X52120213Y-82030108D01*
X52292180Y-82155049D01*
X52292184Y-82155051D01*
X52481588Y-82251557D01*
X52683757Y-82317246D01*
X52683758Y-82317246D01*
X52683761Y-82317247D01*
X52893710Y-82350500D01*
X52893713Y-82350500D01*
X53106290Y-82350500D01*
X53316238Y-82317247D01*
X53316239Y-82317246D01*
X53316243Y-82317246D01*
X53518412Y-82251557D01*
X53707816Y-82155051D01*
X53879792Y-82030104D01*
X54030104Y-81879792D01*
X54155051Y-81707816D01*
X54251557Y-81518412D01*
X54317246Y-81316243D01*
X54340958Y-81166536D01*
X54340959Y-81166532D01*
X88949500Y-81166532D01*
X88949500Y-81373467D01*
X88989869Y-81576418D01*
X89069058Y-81767597D01*
X89069059Y-81767598D01*
X89184023Y-81939655D01*
X89330345Y-82085977D01*
X89502402Y-82200941D01*
X89693580Y-82280130D01*
X89896535Y-82320500D01*
X89896536Y-82320500D01*
X90103464Y-82320500D01*
X90103465Y-82320500D01*
X90306420Y-82280130D01*
X90497598Y-82200941D01*
X90669655Y-82085977D01*
X90815977Y-81939655D01*
X90930941Y-81767598D01*
X91010130Y-81576420D01*
X91050500Y-81373465D01*
X91050500Y-81166535D01*
X91010130Y-80963580D01*
X90930941Y-80772402D01*
X90815977Y-80600345D01*
X90669655Y-80454023D01*
X90497598Y-80339059D01*
X90497599Y-80339059D01*
X90497597Y-80339058D01*
X90306418Y-80259869D01*
X90103467Y-80219500D01*
X90103465Y-80219500D01*
X89896535Y-80219500D01*
X89896532Y-80219500D01*
X89693581Y-80259869D01*
X89502402Y-80339058D01*
X89330348Y-80454020D01*
X89184020Y-80600348D01*
X89069058Y-80772402D01*
X88989869Y-80963581D01*
X88949500Y-81166532D01*
X54340959Y-81166532D01*
X54344181Y-81146184D01*
X54344181Y-81146183D01*
X54350500Y-81106288D01*
X54350500Y-80893709D01*
X54317247Y-80683761D01*
X54317246Y-80683757D01*
X54251557Y-80481588D01*
X54155051Y-80292184D01*
X54155049Y-80292180D01*
X54030108Y-80120213D01*
X54030106Y-80120211D01*
X54030104Y-80120208D01*
X53879792Y-79969896D01*
X53879788Y-79969893D01*
X53879786Y-79969891D01*
X53707819Y-79844950D01*
X53707815Y-79844948D01*
X53518412Y-79748443D01*
X53316238Y-79682752D01*
X53106290Y-79649500D01*
X53106287Y-79649500D01*
X52893713Y-79649500D01*
X52893710Y-79649500D01*
X52683761Y-79682752D01*
X52481587Y-79748443D01*
X52292184Y-79844948D01*
X52292180Y-79844950D01*
X52120213Y-79969891D01*
X51969891Y-80120213D01*
X51844950Y-80292180D01*
X51844948Y-80292184D01*
X51748443Y-80481587D01*
X51682752Y-80683761D01*
X51649500Y-80893709D01*
X50500500Y-80893709D01*
X50500500Y-78436532D01*
X76949500Y-78436532D01*
X76949500Y-78643467D01*
X76989869Y-78846418D01*
X77069058Y-79037597D01*
X77069059Y-79037598D01*
X77184023Y-79209655D01*
X77330345Y-79355977D01*
X77502402Y-79470941D01*
X77693580Y-79550130D01*
X77896535Y-79590500D01*
X77896536Y-79590500D01*
X78103464Y-79590500D01*
X78103465Y-79590500D01*
X78306420Y-79550130D01*
X78497598Y-79470941D01*
X78669655Y-79355977D01*
X78815977Y-79209655D01*
X78930941Y-79037598D01*
X79010130Y-78846420D01*
X79050500Y-78643465D01*
X79050500Y-78436535D01*
X79010130Y-78233580D01*
X78930941Y-78042402D01*
X78815977Y-77870345D01*
X78805885Y-77860253D01*
X88949500Y-77860253D01*
X88949500Y-79599746D01*
X88949501Y-79599758D01*
X88961132Y-79658227D01*
X88961134Y-79658233D01*
X88977519Y-79682754D01*
X89005448Y-79724552D01*
X89071769Y-79768867D01*
X89116231Y-79777711D01*
X89130241Y-79780498D01*
X89130246Y-79780498D01*
X89130252Y-79780500D01*
X89130253Y-79780500D01*
X90869747Y-79780500D01*
X90869748Y-79780500D01*
X90928231Y-79768867D01*
X90994552Y-79724552D01*
X91038867Y-79658231D01*
X91050500Y-79599748D01*
X91050500Y-77860252D01*
X91038867Y-77801769D01*
X90994552Y-77735448D01*
X90977454Y-77724023D01*
X90928233Y-77691134D01*
X90928231Y-77691133D01*
X90928228Y-77691132D01*
X90928227Y-77691132D01*
X90869758Y-77679501D01*
X90869748Y-77679500D01*
X89130252Y-77679500D01*
X89130251Y-77679500D01*
X89130241Y-77679501D01*
X89071772Y-77691132D01*
X89071766Y-77691134D01*
X89005451Y-77735445D01*
X89005445Y-77735451D01*
X88961134Y-77801766D01*
X88961132Y-77801772D01*
X88949501Y-77860241D01*
X88949500Y-77860253D01*
X78805885Y-77860253D01*
X78669655Y-77724023D01*
X78620433Y-77691134D01*
X78497597Y-77609058D01*
X78306418Y-77529869D01*
X78103467Y-77489500D01*
X78103465Y-77489500D01*
X77896535Y-77489500D01*
X77896532Y-77489500D01*
X77693581Y-77529869D01*
X77502402Y-77609058D01*
X77330348Y-77724020D01*
X77184020Y-77870348D01*
X77069058Y-78042402D01*
X76989869Y-78233581D01*
X76949500Y-78436532D01*
X50500500Y-78436532D01*
X50500500Y-75896532D01*
X76949500Y-75896532D01*
X76949500Y-76103467D01*
X76989869Y-76306418D01*
X77069058Y-76497597D01*
X77069059Y-76497598D01*
X77184023Y-76669655D01*
X77330345Y-76815977D01*
X77502402Y-76930941D01*
X77693580Y-77010130D01*
X77896535Y-77050500D01*
X77896536Y-77050500D01*
X78103464Y-77050500D01*
X78103465Y-77050500D01*
X78306420Y-77010130D01*
X78497598Y-76930941D01*
X78669655Y-76815977D01*
X78815977Y-76669655D01*
X78930941Y-76497598D01*
X79010130Y-76306420D01*
X79050500Y-76103465D01*
X79050500Y-75896535D01*
X79010130Y-75693580D01*
X78930941Y-75502402D01*
X78815977Y-75330345D01*
X78669655Y-75184023D01*
X78497598Y-75069059D01*
X78497599Y-75069059D01*
X78497597Y-75069058D01*
X78306418Y-74989869D01*
X78103467Y-74949500D01*
X78103465Y-74949500D01*
X77896535Y-74949500D01*
X77896532Y-74949500D01*
X77693581Y-74989869D01*
X77502402Y-75069058D01*
X77330348Y-75184020D01*
X77184020Y-75330348D01*
X77069058Y-75502402D01*
X76989869Y-75693581D01*
X76949500Y-75896532D01*
X50500500Y-75896532D01*
X50500500Y-72585375D01*
X76900000Y-72585375D01*
X76900000Y-73309999D01*
X76900001Y-73310000D01*
X77522555Y-73310000D01*
X77500000Y-73394174D01*
X77500000Y-73525826D01*
X77522555Y-73610000D01*
X76900001Y-73610000D01*
X76900000Y-73610001D01*
X76900000Y-74334624D01*
X76914506Y-74407546D01*
X76914507Y-74407548D01*
X76969758Y-74490237D01*
X76969762Y-74490241D01*
X77052451Y-74545492D01*
X77052453Y-74545493D01*
X77125375Y-74559999D01*
X77125377Y-74560000D01*
X77849999Y-74560000D01*
X77850000Y-74559999D01*
X77850000Y-73937445D01*
X77934174Y-73960000D01*
X78065826Y-73960000D01*
X78150000Y-73937445D01*
X78150000Y-74559999D01*
X78150001Y-74560000D01*
X78874623Y-74560000D01*
X78874624Y-74559999D01*
X78947546Y-74545493D01*
X78947548Y-74545492D01*
X79030237Y-74490241D01*
X79030241Y-74490237D01*
X79085492Y-74407548D01*
X79085493Y-74407546D01*
X79099999Y-74334624D01*
X79100000Y-74334622D01*
X79100000Y-73610001D01*
X79099999Y-73610000D01*
X78477445Y-73610000D01*
X78500000Y-73525826D01*
X78500000Y-73394174D01*
X78477445Y-73310000D01*
X79099999Y-73310000D01*
X79100000Y-73309999D01*
X79100000Y-72585377D01*
X79099999Y-72585375D01*
X79085493Y-72512453D01*
X79085492Y-72512451D01*
X79030241Y-72429762D01*
X79030237Y-72429758D01*
X78947548Y-72374507D01*
X78947546Y-72374506D01*
X78874624Y-72360000D01*
X78150001Y-72360000D01*
X78150000Y-72360001D01*
X78150000Y-72982554D01*
X78065826Y-72960000D01*
X77934174Y-72960000D01*
X77850000Y-72982554D01*
X77850000Y-72360001D01*
X77849999Y-72360000D01*
X77125375Y-72360000D01*
X77052453Y-72374506D01*
X77052451Y-72374507D01*
X76969762Y-72429758D01*
X76969758Y-72429762D01*
X76914507Y-72512451D01*
X76914506Y-72512453D01*
X76900000Y-72585375D01*
X50500500Y-72585375D01*
X50500500Y-65453424D01*
X51900000Y-65453424D01*
X51900000Y-65626575D01*
X51927084Y-65797579D01*
X51980588Y-65962248D01*
X52059195Y-66116524D01*
X52059197Y-66116528D01*
X52123219Y-66204646D01*
X52556328Y-65771536D01*
X52599901Y-65847007D01*
X52692993Y-65940099D01*
X52768460Y-65983670D01*
X52335352Y-66416778D01*
X52423477Y-66480805D01*
X52577751Y-66559411D01*
X52742420Y-66612915D01*
X52913425Y-66640000D01*
X53086575Y-66640000D01*
X53257579Y-66612915D01*
X53422248Y-66559411D01*
X53576524Y-66480804D01*
X53576530Y-66480800D01*
X53664646Y-66416779D01*
X53664646Y-66416778D01*
X53231538Y-65983670D01*
X53307007Y-65940099D01*
X53400099Y-65847007D01*
X53443670Y-65771538D01*
X53876778Y-66204646D01*
X53876779Y-66204646D01*
X53940800Y-66116530D01*
X53940804Y-66116524D01*
X54019411Y-65962248D01*
X54072915Y-65797579D01*
X54100000Y-65626575D01*
X54100000Y-65453424D01*
X54072915Y-65282420D01*
X54019411Y-65117751D01*
X53940805Y-64963477D01*
X53876778Y-64875352D01*
X53443670Y-65308460D01*
X53400099Y-65232993D01*
X53307007Y-65139901D01*
X53231536Y-65096328D01*
X53664646Y-64663219D01*
X53576528Y-64599197D01*
X53576524Y-64599195D01*
X53422248Y-64520588D01*
X53257579Y-64467084D01*
X53086575Y-64440000D01*
X52913425Y-64440000D01*
X52742420Y-64467084D01*
X52577751Y-64520588D01*
X52423476Y-64599195D01*
X52335352Y-64663219D01*
X52768461Y-65096328D01*
X52692993Y-65139901D01*
X52599901Y-65232993D01*
X52556328Y-65308461D01*
X52123219Y-64875352D01*
X52059195Y-64963476D01*
X51980588Y-65117751D01*
X51927084Y-65282420D01*
X51900000Y-65453424D01*
X50500500Y-65453424D01*
X50500500Y-62896532D01*
X51949500Y-62896532D01*
X51949500Y-63103467D01*
X51989869Y-63306418D01*
X52069058Y-63497597D01*
X52184020Y-63669651D01*
X52184023Y-63669655D01*
X52330345Y-63815977D01*
X52502402Y-63930941D01*
X52693580Y-64010130D01*
X52896535Y-64050500D01*
X52896536Y-64050500D01*
X53103464Y-64050500D01*
X53103465Y-64050500D01*
X53306420Y-64010130D01*
X53497598Y-63930941D01*
X53669655Y-63815977D01*
X53815977Y-63669655D01*
X53930941Y-63497598D01*
X53987268Y-63361614D01*
X54027005Y-63315088D01*
X54078732Y-63300500D01*
X56024521Y-63300500D01*
X56082712Y-63319407D01*
X56094525Y-63329496D01*
X57754736Y-64989707D01*
X57782513Y-65044224D01*
X57776196Y-65097596D01*
X57719870Y-65233578D01*
X57719870Y-65233580D01*
X57679500Y-65436532D01*
X57679500Y-65643467D01*
X57719869Y-65846418D01*
X57799058Y-66037597D01*
X57851795Y-66116524D01*
X57914023Y-66209655D01*
X58060345Y-66355977D01*
X58232402Y-66470941D01*
X58423580Y-66550130D01*
X58626535Y-66590500D01*
X58626536Y-66590500D01*
X58833464Y-66590500D01*
X58833465Y-66590500D01*
X59036420Y-66550130D01*
X59227598Y-66470941D01*
X59399655Y-66355977D01*
X59545977Y-66209655D01*
X59660941Y-66037598D01*
X59740130Y-65846420D01*
X59780500Y-65643465D01*
X59780500Y-65436535D01*
X59740130Y-65233580D01*
X59660941Y-65042402D01*
X59545977Y-64870345D01*
X59399655Y-64724023D01*
X59308655Y-64663219D01*
X59227597Y-64609058D01*
X59036418Y-64529869D01*
X58833467Y-64489500D01*
X58833465Y-64489500D01*
X58626535Y-64489500D01*
X58626532Y-64489500D01*
X58423580Y-64529870D01*
X58423578Y-64529870D01*
X58287596Y-64586196D01*
X58226600Y-64590997D01*
X58179707Y-64564736D01*
X56374510Y-62759539D01*
X56367379Y-62755422D01*
X56305989Y-62719979D01*
X56305985Y-62719977D01*
X56229564Y-62699500D01*
X56229562Y-62699500D01*
X54078732Y-62699500D01*
X54020541Y-62680593D01*
X53987268Y-62638386D01*
X53930941Y-62502402D01*
X53815979Y-62330348D01*
X53815977Y-62330345D01*
X53669655Y-62184023D01*
X53497598Y-62069059D01*
X53497599Y-62069059D01*
X53497597Y-62069058D01*
X53306418Y-61989869D01*
X53103467Y-61949500D01*
X53103465Y-61949500D01*
X52896535Y-61949500D01*
X52896532Y-61949500D01*
X52693581Y-61989869D01*
X52502402Y-62069058D01*
X52330348Y-62184020D01*
X52184020Y-62330348D01*
X52069058Y-62502402D01*
X51989869Y-62693581D01*
X51949500Y-62896532D01*
X50500500Y-62896532D01*
X50500500Y-59590253D01*
X51949500Y-59590253D01*
X51949500Y-61329746D01*
X51949501Y-61329758D01*
X51961132Y-61388227D01*
X51961134Y-61388233D01*
X51965419Y-61394646D01*
X52005448Y-61454552D01*
X52071769Y-61498867D01*
X52116231Y-61507711D01*
X52130241Y-61510498D01*
X52130246Y-61510498D01*
X52130252Y-61510500D01*
X52130253Y-61510500D01*
X53869747Y-61510500D01*
X53869748Y-61510500D01*
X53928231Y-61498867D01*
X53994552Y-61454552D01*
X54038867Y-61388231D01*
X54050500Y-61329748D01*
X54050500Y-60859500D01*
X54069407Y-60801309D01*
X54118907Y-60765345D01*
X54149500Y-60760500D01*
X57580500Y-60760500D01*
X57638691Y-60779407D01*
X57674655Y-60828907D01*
X57679500Y-60859500D01*
X57679500Y-61329746D01*
X57679501Y-61329758D01*
X57691132Y-61388227D01*
X57691134Y-61388233D01*
X57695419Y-61394646D01*
X57735448Y-61454552D01*
X57801769Y-61498867D01*
X57846231Y-61507711D01*
X57860241Y-61510498D01*
X57860246Y-61510498D01*
X57860252Y-61510500D01*
X58330500Y-61510500D01*
X58388691Y-61529407D01*
X58424655Y-61578907D01*
X58429500Y-61609500D01*
X58429500Y-61651264D01*
X58449978Y-61727688D01*
X58449980Y-61727692D01*
X58462520Y-61749411D01*
X58489540Y-61796211D01*
X58509159Y-61815830D01*
X58536935Y-61870345D01*
X58527364Y-61930777D01*
X58484099Y-61974042D01*
X58458469Y-61982929D01*
X58423588Y-61989867D01*
X58423582Y-61989869D01*
X58232402Y-62069058D01*
X58060348Y-62184020D01*
X57914020Y-62330348D01*
X57799058Y-62502402D01*
X57719869Y-62693581D01*
X57679500Y-62896532D01*
X57679500Y-63103467D01*
X57719869Y-63306418D01*
X57799058Y-63497597D01*
X57914020Y-63669651D01*
X57914023Y-63669655D01*
X58060345Y-63815977D01*
X58232402Y-63930941D01*
X58423580Y-64010130D01*
X58626535Y-64050500D01*
X58626536Y-64050500D01*
X58833464Y-64050500D01*
X58833465Y-64050500D01*
X59036420Y-64010130D01*
X59227598Y-63930941D01*
X59399655Y-63815977D01*
X59412198Y-63803433D01*
X59466713Y-63775658D01*
X59527145Y-63785229D01*
X59570410Y-63828494D01*
X59581200Y-63873439D01*
X59581200Y-64191264D01*
X59601677Y-64267685D01*
X59601677Y-64267686D01*
X59601679Y-64267689D01*
X59632169Y-64320500D01*
X59632170Y-64320501D01*
X59641239Y-64336210D01*
X60294736Y-64989707D01*
X60322513Y-65044224D01*
X60316196Y-65097596D01*
X60259870Y-65233578D01*
X60259870Y-65233580D01*
X60219500Y-65436532D01*
X60219500Y-65643467D01*
X60259869Y-65846418D01*
X60339058Y-66037597D01*
X60391795Y-66116524D01*
X60454023Y-66209655D01*
X60600345Y-66355977D01*
X60772402Y-66470941D01*
X60963580Y-66550130D01*
X61166535Y-66590500D01*
X61166536Y-66590500D01*
X61373464Y-66590500D01*
X61373465Y-66590500D01*
X61576420Y-66550130D01*
X61767598Y-66470941D01*
X61939655Y-66355977D01*
X62085977Y-66209655D01*
X62111132Y-66172008D01*
X66339600Y-66172008D01*
X66339600Y-66303792D01*
X66369679Y-66416051D01*
X66373709Y-66431090D01*
X66439596Y-66545209D01*
X66439598Y-66545211D01*
X66439600Y-66545214D01*
X66532786Y-66638400D01*
X66532788Y-66638401D01*
X66532790Y-66638403D01*
X66646910Y-66704290D01*
X66646908Y-66704290D01*
X66646912Y-66704291D01*
X66646914Y-66704292D01*
X66774208Y-66738400D01*
X66774210Y-66738400D01*
X66905990Y-66738400D01*
X66905992Y-66738400D01*
X67033286Y-66704292D01*
X67033288Y-66704290D01*
X67033290Y-66704290D01*
X67147409Y-66638403D01*
X67147409Y-66638402D01*
X67147414Y-66638400D01*
X67168819Y-66616994D01*
X67223334Y-66589219D01*
X67238821Y-66588000D01*
X76828279Y-66588000D01*
X76886470Y-66606907D01*
X76898276Y-66616990D01*
X76969286Y-66688000D01*
X76969288Y-66688001D01*
X76969290Y-66688003D01*
X77083410Y-66753890D01*
X77083408Y-66753890D01*
X77083412Y-66753891D01*
X77083414Y-66753892D01*
X77210708Y-66788000D01*
X77210710Y-66788000D01*
X77342490Y-66788000D01*
X77342492Y-66788000D01*
X77469786Y-66753892D01*
X77469788Y-66753890D01*
X77469790Y-66753890D01*
X77583909Y-66688003D01*
X77583909Y-66688002D01*
X77583914Y-66688000D01*
X77677100Y-66594814D01*
X77697540Y-66559411D01*
X77742990Y-66480690D01*
X77742990Y-66480688D01*
X77742992Y-66480686D01*
X77777100Y-66353392D01*
X77777100Y-66221608D01*
X77742992Y-66094314D01*
X77742990Y-66094311D01*
X77742990Y-66094309D01*
X77677103Y-65980190D01*
X77677101Y-65980188D01*
X77677100Y-65980186D01*
X77583914Y-65887000D01*
X77583911Y-65886998D01*
X77583909Y-65886996D01*
X77469789Y-65821109D01*
X77469791Y-65821109D01*
X77420399Y-65807875D01*
X77342492Y-65787000D01*
X77210708Y-65787000D01*
X77132800Y-65807875D01*
X77083409Y-65821109D01*
X76969290Y-65886996D01*
X76969289Y-65886997D01*
X76969286Y-65886999D01*
X76969286Y-65887000D01*
X76898280Y-65958005D01*
X76843766Y-65985781D01*
X76828279Y-65987000D01*
X67330328Y-65987000D01*
X67272137Y-65968093D01*
X67244590Y-65937497D01*
X67240601Y-65930588D01*
X67240600Y-65930586D01*
X67147414Y-65837400D01*
X67147411Y-65837398D01*
X67147409Y-65837396D01*
X67033289Y-65771509D01*
X67033291Y-65771509D01*
X66960973Y-65752132D01*
X66905992Y-65737400D01*
X66774208Y-65737400D01*
X66719227Y-65752132D01*
X66646909Y-65771509D01*
X66532790Y-65837396D01*
X66439596Y-65930590D01*
X66373709Y-66044709D01*
X66373708Y-66044714D01*
X66339600Y-66172008D01*
X62111132Y-66172008D01*
X62200941Y-66037598D01*
X62280130Y-65846420D01*
X62320500Y-65643465D01*
X62320500Y-65436535D01*
X62280130Y-65233580D01*
X62200941Y-65042402D01*
X62085977Y-64870345D01*
X61939655Y-64724023D01*
X61848655Y-64663219D01*
X61767597Y-64609058D01*
X61576418Y-64529869D01*
X61373467Y-64489500D01*
X61373465Y-64489500D01*
X61166535Y-64489500D01*
X61166532Y-64489500D01*
X60963580Y-64529870D01*
X60963578Y-64529870D01*
X60827596Y-64586196D01*
X60766600Y-64590997D01*
X60719707Y-64564736D01*
X60211196Y-64056225D01*
X60183419Y-64001708D01*
X60182200Y-63986221D01*
X60182200Y-63589201D01*
X60201107Y-63531010D01*
X60250607Y-63495046D01*
X60311793Y-63495046D01*
X60361293Y-63531010D01*
X60363503Y-63534182D01*
X60454023Y-63669655D01*
X60600345Y-63815977D01*
X60772402Y-63930941D01*
X60963580Y-64010130D01*
X61166535Y-64050500D01*
X61166536Y-64050500D01*
X61373464Y-64050500D01*
X61373465Y-64050500D01*
X61576420Y-64010130D01*
X61767598Y-63930941D01*
X61939655Y-63815977D01*
X62085977Y-63669655D01*
X62200941Y-63497598D01*
X62280130Y-63306420D01*
X62307955Y-63166532D01*
X88949500Y-63166532D01*
X88949500Y-63373467D01*
X88989869Y-63576418D01*
X89069058Y-63767597D01*
X89184020Y-63939651D01*
X89184023Y-63939655D01*
X89330345Y-64085977D01*
X89502402Y-64200941D01*
X89693580Y-64280130D01*
X89896535Y-64320500D01*
X89896536Y-64320500D01*
X90103464Y-64320500D01*
X90103465Y-64320500D01*
X90306420Y-64280130D01*
X90442405Y-64223802D01*
X90503399Y-64219002D01*
X90550292Y-64245263D01*
X90822204Y-64517175D01*
X90849981Y-64571692D01*
X90851200Y-64587179D01*
X90851200Y-64936560D01*
X90832293Y-64994751D01*
X90782793Y-65030715D01*
X90721607Y-65030715D01*
X90682199Y-65006566D01*
X90669655Y-64994023D01*
X90497597Y-64879058D01*
X90306418Y-64799869D01*
X90103467Y-64759500D01*
X90103465Y-64759500D01*
X89896535Y-64759500D01*
X89896532Y-64759500D01*
X89693581Y-64799869D01*
X89502402Y-64879058D01*
X89330348Y-64994020D01*
X89184020Y-65140348D01*
X89069058Y-65312402D01*
X88989869Y-65503581D01*
X88949500Y-65706532D01*
X88949500Y-65913467D01*
X88989869Y-66116418D01*
X89069058Y-66307597D01*
X89184020Y-66479651D01*
X89184023Y-66479655D01*
X89330345Y-66625977D01*
X89502402Y-66740941D01*
X89693580Y-66820130D01*
X89896535Y-66860500D01*
X89896536Y-66860500D01*
X90103464Y-66860500D01*
X90103465Y-66860500D01*
X90306420Y-66820130D01*
X90497598Y-66740941D01*
X90669655Y-66625977D01*
X90682198Y-66613433D01*
X90736713Y-66585658D01*
X90797145Y-66595229D01*
X90840410Y-66638494D01*
X90851200Y-66683439D01*
X90851200Y-70580500D01*
X90832293Y-70638691D01*
X90782793Y-70674655D01*
X90752200Y-70679500D01*
X89130252Y-70679500D01*
X89130251Y-70679500D01*
X89130241Y-70679501D01*
X89071772Y-70691132D01*
X89071766Y-70691134D01*
X89005451Y-70735445D01*
X89005445Y-70735451D01*
X88961134Y-70801766D01*
X88961132Y-70801772D01*
X88949501Y-70860241D01*
X88949500Y-70860253D01*
X88949500Y-72599746D01*
X88949501Y-72599758D01*
X88961132Y-72658227D01*
X88961133Y-72658231D01*
X89005448Y-72724552D01*
X89071769Y-72768867D01*
X89116231Y-72777711D01*
X89130241Y-72780498D01*
X89130246Y-72780498D01*
X89130252Y-72780500D01*
X90752200Y-72780500D01*
X90767112Y-72785345D01*
X90782793Y-72785345D01*
X90795478Y-72794561D01*
X90810391Y-72799407D01*
X90819607Y-72812092D01*
X90832293Y-72821309D01*
X90837138Y-72836221D01*
X90846355Y-72848907D01*
X90851200Y-72879500D01*
X90851200Y-72952821D01*
X90832293Y-73011012D01*
X90822203Y-73022825D01*
X90550291Y-73294736D01*
X90495775Y-73322513D01*
X90442402Y-73316196D01*
X90306418Y-73259869D01*
X90103467Y-73219500D01*
X90103465Y-73219500D01*
X89896535Y-73219500D01*
X89896532Y-73219500D01*
X89693581Y-73259869D01*
X89502402Y-73339058D01*
X89330348Y-73454020D01*
X89184020Y-73600348D01*
X89069058Y-73772402D01*
X88989869Y-73963581D01*
X88949500Y-74166532D01*
X88949500Y-74373467D01*
X88989869Y-74576418D01*
X89069058Y-74767597D01*
X89069059Y-74767598D01*
X89184023Y-74939655D01*
X89330345Y-75085977D01*
X89502402Y-75200941D01*
X89693580Y-75280130D01*
X89896535Y-75320500D01*
X89896536Y-75320500D01*
X90103464Y-75320500D01*
X90103465Y-75320500D01*
X90306420Y-75280130D01*
X90497598Y-75200941D01*
X90669655Y-75085977D01*
X90815977Y-74939655D01*
X90930941Y-74767598D01*
X91010130Y-74576420D01*
X91050500Y-74373465D01*
X91050500Y-74166535D01*
X91010130Y-73963580D01*
X90953801Y-73827592D01*
X90949001Y-73766600D01*
X90975261Y-73719708D01*
X91392160Y-73302811D01*
X91431722Y-73234288D01*
X91452200Y-73157862D01*
X91452200Y-73078738D01*
X91452200Y-64382138D01*
X91435684Y-64320500D01*
X91431722Y-64305712D01*
X91392160Y-64237189D01*
X91205470Y-64050499D01*
X90975263Y-63820291D01*
X90947486Y-63765775D01*
X90953802Y-63712405D01*
X91010130Y-63576420D01*
X91050500Y-63373465D01*
X91050500Y-63166535D01*
X91010130Y-62963580D01*
X90930941Y-62772402D01*
X90815977Y-62600345D01*
X90669655Y-62454023D01*
X90648454Y-62439857D01*
X90497597Y-62339058D01*
X90306418Y-62259869D01*
X90103467Y-62219500D01*
X90103465Y-62219500D01*
X89896535Y-62219500D01*
X89896532Y-62219500D01*
X89693581Y-62259869D01*
X89502402Y-62339058D01*
X89330348Y-62454020D01*
X89184020Y-62600348D01*
X89069058Y-62772402D01*
X88989869Y-62963581D01*
X88949500Y-63166532D01*
X62307955Y-63166532D01*
X62320500Y-63103465D01*
X62320500Y-62896535D01*
X62280130Y-62693580D01*
X62200941Y-62502402D01*
X62085977Y-62330345D01*
X61939655Y-62184023D01*
X61767598Y-62069059D01*
X61767599Y-62069059D01*
X61767597Y-62069058D01*
X61576418Y-61989869D01*
X61373467Y-61949500D01*
X61373465Y-61949500D01*
X61166535Y-61949500D01*
X61166532Y-61949500D01*
X60963581Y-61989869D01*
X60772402Y-62069058D01*
X60600348Y-62184020D01*
X60454019Y-62330349D01*
X60361218Y-62469236D01*
X60313168Y-62507115D01*
X60252030Y-62509517D01*
X60201156Y-62475524D01*
X60183276Y-62439857D01*
X60182200Y-62435841D01*
X60182200Y-62435838D01*
X60161721Y-62359411D01*
X60161719Y-62359408D01*
X60161719Y-62359406D01*
X60122160Y-62290889D01*
X60066211Y-62234939D01*
X60066211Y-62234940D01*
X59510775Y-61679504D01*
X59482998Y-61624987D01*
X59492569Y-61564555D01*
X59535834Y-61521290D01*
X59580779Y-61510500D01*
X59599747Y-61510500D01*
X59599748Y-61510500D01*
X59658231Y-61498867D01*
X59724552Y-61454552D01*
X59768867Y-61388231D01*
X59780500Y-61329748D01*
X59780500Y-60356532D01*
X60219500Y-60356532D01*
X60219500Y-60563467D01*
X60259869Y-60766418D01*
X60339058Y-60957597D01*
X60392118Y-61037007D01*
X60454023Y-61129655D01*
X60600345Y-61275977D01*
X60772402Y-61390941D01*
X60963580Y-61470130D01*
X61166535Y-61510500D01*
X61166536Y-61510500D01*
X61373464Y-61510500D01*
X61373465Y-61510500D01*
X61576420Y-61470130D01*
X61767598Y-61390941D01*
X61939655Y-61275977D01*
X62085977Y-61129655D01*
X62200941Y-60957598D01*
X62280130Y-60766420D01*
X62304595Y-60643424D01*
X88900000Y-60643424D01*
X88900000Y-60816575D01*
X88927084Y-60987579D01*
X88980588Y-61152248D01*
X89059195Y-61306524D01*
X89059197Y-61306528D01*
X89123219Y-61394646D01*
X89556328Y-60961536D01*
X89599901Y-61037007D01*
X89692993Y-61130099D01*
X89768460Y-61173670D01*
X89335352Y-61606778D01*
X89423477Y-61670805D01*
X89577751Y-61749411D01*
X89742420Y-61802915D01*
X89913425Y-61830000D01*
X90086575Y-61830000D01*
X90257579Y-61802915D01*
X90422248Y-61749411D01*
X90576524Y-61670804D01*
X90576530Y-61670800D01*
X90664646Y-61606779D01*
X90664646Y-61606778D01*
X90231538Y-61173670D01*
X90307007Y-61130099D01*
X90400099Y-61037007D01*
X90443670Y-60961538D01*
X90876778Y-61394646D01*
X90876779Y-61394646D01*
X90940800Y-61306530D01*
X90940804Y-61306524D01*
X91019411Y-61152248D01*
X91072915Y-60987579D01*
X91100000Y-60816575D01*
X91100000Y-60643424D01*
X91072915Y-60472420D01*
X91019411Y-60307751D01*
X90940805Y-60153477D01*
X90876778Y-60065352D01*
X90443670Y-60498460D01*
X90400099Y-60422993D01*
X90307007Y-60329901D01*
X90231536Y-60286328D01*
X90664646Y-59853219D01*
X90576528Y-59789197D01*
X90576524Y-59789195D01*
X90422248Y-59710588D01*
X90257579Y-59657084D01*
X90086575Y-59630000D01*
X89913425Y-59630000D01*
X89742420Y-59657084D01*
X89577751Y-59710588D01*
X89423476Y-59789195D01*
X89335352Y-59853219D01*
X89768461Y-60286328D01*
X89692993Y-60329901D01*
X89599901Y-60422993D01*
X89556328Y-60498461D01*
X89123219Y-60065352D01*
X89059195Y-60153476D01*
X88980588Y-60307751D01*
X88927084Y-60472420D01*
X88900000Y-60643424D01*
X62304595Y-60643424D01*
X62320500Y-60563465D01*
X62320500Y-60356535D01*
X62280130Y-60153580D01*
X62200941Y-59962402D01*
X62085977Y-59790345D01*
X61939655Y-59644023D01*
X61859182Y-59590253D01*
X61767597Y-59529058D01*
X61576418Y-59449869D01*
X61373467Y-59409500D01*
X61373465Y-59409500D01*
X61166535Y-59409500D01*
X61166532Y-59409500D01*
X60963581Y-59449869D01*
X60772402Y-59529058D01*
X60600348Y-59644020D01*
X60454020Y-59790348D01*
X60339058Y-59962402D01*
X60259869Y-60153581D01*
X60219500Y-60356532D01*
X59780500Y-60356532D01*
X59780500Y-59590252D01*
X59768867Y-59531769D01*
X59724552Y-59465448D01*
X59724548Y-59465445D01*
X59658233Y-59421134D01*
X59658231Y-59421133D01*
X59658228Y-59421132D01*
X59658227Y-59421132D01*
X59599758Y-59409501D01*
X59599748Y-59409500D01*
X57860252Y-59409500D01*
X57860251Y-59409500D01*
X57860241Y-59409501D01*
X57801772Y-59421132D01*
X57801766Y-59421134D01*
X57735451Y-59465445D01*
X57735445Y-59465451D01*
X57691134Y-59531766D01*
X57691132Y-59531772D01*
X57679501Y-59590241D01*
X57679500Y-59590253D01*
X57679500Y-60060500D01*
X57660593Y-60118691D01*
X57611093Y-60154655D01*
X57580500Y-60159500D01*
X54149500Y-60159500D01*
X54091309Y-60140593D01*
X54055345Y-60091093D01*
X54050500Y-60060500D01*
X54050500Y-59590253D01*
X54050498Y-59590241D01*
X54047711Y-59576231D01*
X54038867Y-59531769D01*
X53994552Y-59465448D01*
X53994548Y-59465445D01*
X53928233Y-59421134D01*
X53928231Y-59421133D01*
X53928228Y-59421132D01*
X53928227Y-59421132D01*
X53869758Y-59409501D01*
X53869748Y-59409500D01*
X52130252Y-59409500D01*
X52130251Y-59409500D01*
X52130241Y-59409501D01*
X52071772Y-59421132D01*
X52071766Y-59421134D01*
X52005451Y-59465445D01*
X52005445Y-59465451D01*
X51961134Y-59531766D01*
X51961132Y-59531772D01*
X51949501Y-59590241D01*
X51949500Y-59590253D01*
X50500500Y-59590253D01*
X50500500Y-57320253D01*
X88949500Y-57320253D01*
X88949500Y-59059746D01*
X88949501Y-59059758D01*
X88961132Y-59118227D01*
X88961133Y-59118231D01*
X89005448Y-59184552D01*
X89071769Y-59228867D01*
X89116231Y-59237711D01*
X89130241Y-59240498D01*
X89130246Y-59240498D01*
X89130252Y-59240500D01*
X89130253Y-59240500D01*
X90869747Y-59240500D01*
X90869748Y-59240500D01*
X90928231Y-59228867D01*
X90994552Y-59184552D01*
X91038867Y-59118231D01*
X91050500Y-59059748D01*
X91050500Y-57320252D01*
X91038867Y-57261769D01*
X90994552Y-57195448D01*
X90994548Y-57195445D01*
X90928233Y-57151134D01*
X90928231Y-57151133D01*
X90928228Y-57151132D01*
X90928227Y-57151132D01*
X90869758Y-57139501D01*
X90869748Y-57139500D01*
X89130252Y-57139500D01*
X89130251Y-57139500D01*
X89130241Y-57139501D01*
X89071772Y-57151132D01*
X89071766Y-57151134D01*
X89005451Y-57195445D01*
X89005445Y-57195451D01*
X88961134Y-57261766D01*
X88961132Y-57261772D01*
X88949501Y-57320241D01*
X88949500Y-57320253D01*
X50500500Y-57320253D01*
X50500500Y-52893709D01*
X89649500Y-52893709D01*
X89649500Y-53106290D01*
X89682752Y-53316238D01*
X89748443Y-53518412D01*
X89844948Y-53707815D01*
X89844950Y-53707819D01*
X89969891Y-53879786D01*
X89969893Y-53879788D01*
X89969896Y-53879792D01*
X90120208Y-54030104D01*
X90120211Y-54030106D01*
X90120213Y-54030108D01*
X90292180Y-54155049D01*
X90292184Y-54155051D01*
X90481588Y-54251557D01*
X90683757Y-54317246D01*
X90683758Y-54317246D01*
X90683761Y-54317247D01*
X90893710Y-54350500D01*
X90893713Y-54350500D01*
X91106290Y-54350500D01*
X91316238Y-54317247D01*
X91316239Y-54317246D01*
X91316243Y-54317246D01*
X91518412Y-54251557D01*
X91707816Y-54155051D01*
X91879792Y-54030104D01*
X92030104Y-53879792D01*
X92155051Y-53707816D01*
X92251557Y-53518412D01*
X92317246Y-53316243D01*
X92350500Y-53106287D01*
X92350500Y-52893713D01*
X92350500Y-52893709D01*
X92317247Y-52683761D01*
X92317246Y-52683757D01*
X92251557Y-52481588D01*
X92155051Y-52292184D01*
X92155049Y-52292180D01*
X92030108Y-52120213D01*
X92030106Y-52120211D01*
X92030104Y-52120208D01*
X91879792Y-51969896D01*
X91879788Y-51969893D01*
X91879786Y-51969891D01*
X91707819Y-51844950D01*
X91707815Y-51844948D01*
X91518412Y-51748443D01*
X91316238Y-51682752D01*
X91106290Y-51649500D01*
X91106287Y-51649500D01*
X90893713Y-51649500D01*
X90893710Y-51649500D01*
X90683761Y-51682752D01*
X90481587Y-51748443D01*
X90292184Y-51844948D01*
X90292180Y-51844950D01*
X90120213Y-51969891D01*
X89969891Y-52120213D01*
X89844950Y-52292180D01*
X89844948Y-52292184D01*
X89748443Y-52481587D01*
X89682752Y-52683761D01*
X89649500Y-52893709D01*
X50500500Y-52893709D01*
X50500500Y-50599500D01*
X50519407Y-50541309D01*
X50568907Y-50505345D01*
X50599500Y-50500500D01*
X93400500Y-50500500D01*
X93458691Y-50519407D01*
G37*
G04 #@! TD.AperFunction*
M02*
