G04 #@! TF.GenerationSoftware,KiCad,Pcbnew,9.0.2+dfsg-1*
G04 #@! TF.CreationDate,2026-10-02T15:26:40+00:00*
G04 #@! TF.ProjectId,Ardor_Expression,4172646f-725f-4457-9870-72657373696f,rev?*
G04 #@! TF.SameCoordinates,Original*
G04 #@! TF.FileFunction,Legend,Bot*
G04 #@! TF.FilePolarity,Positive*
%FSLAX46Y46*%
G04 Gerber Fmt 4.6, Leading zero omitted, Abs format (unit mm)*
G04 Created by KiCad (PCBNEW 9.0.2+dfsg-1) date 2026-10-02 15:26:40*
%MOMM*%
%LPD*%
G01*
G04 APERTURE LIST*
%ADD10C,0.150000*%
%ADD11C,2.200000*%
%ADD12R,1.700000X1.700000*%
%ADD13C,1.700000*%
G04 APERTURE END LIST*
D10*
X91428571Y-75792295D02*
X91428571Y-76363723D01*
X91428571Y-76363723D02*
X91466666Y-76478009D01*
X91466666Y-76478009D02*
X91542857Y-76554200D01*
X91542857Y-76554200D02*
X91657142Y-76592295D01*
X91657142Y-76592295D02*
X91733333Y-76592295D01*
X91047618Y-76592295D02*
X91047618Y-75792295D01*
X91047618Y-75792295D02*
X90742856Y-75792295D01*
X90742856Y-75792295D02*
X90666666Y-75830390D01*
X90666666Y-75830390D02*
X90628571Y-75868485D01*
X90628571Y-75868485D02*
X90590475Y-75944676D01*
X90590475Y-75944676D02*
X90590475Y-76058961D01*
X90590475Y-76058961D02*
X90628571Y-76135152D01*
X90628571Y-76135152D02*
X90666666Y-76173247D01*
X90666666Y-76173247D02*
X90742856Y-76211342D01*
X90742856Y-76211342D02*
X91047618Y-76211342D01*
X90323809Y-75792295D02*
X89828571Y-75792295D01*
X89828571Y-75792295D02*
X90095237Y-76097057D01*
X90095237Y-76097057D02*
X89980952Y-76097057D01*
X89980952Y-76097057D02*
X89904761Y-76135152D01*
X89904761Y-76135152D02*
X89866666Y-76173247D01*
X89866666Y-76173247D02*
X89828571Y-76249438D01*
X89828571Y-76249438D02*
X89828571Y-76439914D01*
X89828571Y-76439914D02*
X89866666Y-76516104D01*
X89866666Y-76516104D02*
X89904761Y-76554200D01*
X89904761Y-76554200D02*
X89980952Y-76592295D01*
X89980952Y-76592295D02*
X90209523Y-76592295D01*
X90209523Y-76592295D02*
X90285714Y-76554200D01*
X90285714Y-76554200D02*
X90323809Y-76516104D01*
X89333332Y-75792295D02*
X89257142Y-75792295D01*
X89257142Y-75792295D02*
X89180951Y-75830390D01*
X89180951Y-75830390D02*
X89142856Y-75868485D01*
X89142856Y-75868485D02*
X89104761Y-75944676D01*
X89104761Y-75944676D02*
X89066666Y-76097057D01*
X89066666Y-76097057D02*
X89066666Y-76287533D01*
X89066666Y-76287533D02*
X89104761Y-76439914D01*
X89104761Y-76439914D02*
X89142856Y-76516104D01*
X89142856Y-76516104D02*
X89180951Y-76554200D01*
X89180951Y-76554200D02*
X89257142Y-76592295D01*
X89257142Y-76592295D02*
X89333332Y-76592295D01*
X89333332Y-76592295D02*
X89409523Y-76554200D01*
X89409523Y-76554200D02*
X89447618Y-76516104D01*
X89447618Y-76516104D02*
X89485713Y-76439914D01*
X89485713Y-76439914D02*
X89523809Y-76287533D01*
X89523809Y-76287533D02*
X89523809Y-76097057D01*
X89523809Y-76097057D02*
X89485713Y-75944676D01*
X89485713Y-75944676D02*
X89447618Y-75868485D01*
X89447618Y-75868485D02*
X89409523Y-75830390D01*
X89409523Y-75830390D02*
X89333332Y-75792295D01*
X88380951Y-76058961D02*
X88380951Y-76592295D01*
X88571427Y-75754200D02*
X88761904Y-76325628D01*
X88761904Y-76325628D02*
X88266665Y-76325628D01*
X66866667Y-69562295D02*
X66866667Y-70133723D01*
X66866667Y-70133723D02*
X66904762Y-70248009D01*
X66904762Y-70248009D02*
X66980953Y-70324200D01*
X66980953Y-70324200D02*
X67095238Y-70362295D01*
X67095238Y-70362295D02*
X67171429Y-70362295D01*
X66561905Y-69562295D02*
X66066667Y-69562295D01*
X66066667Y-69562295D02*
X66333333Y-69867057D01*
X66333333Y-69867057D02*
X66219048Y-69867057D01*
X66219048Y-69867057D02*
X66142857Y-69905152D01*
X66142857Y-69905152D02*
X66104762Y-69943247D01*
X66104762Y-69943247D02*
X66066667Y-70019438D01*
X66066667Y-70019438D02*
X66066667Y-70209914D01*
X66066667Y-70209914D02*
X66104762Y-70286104D01*
X66104762Y-70286104D02*
X66142857Y-70324200D01*
X66142857Y-70324200D02*
X66219048Y-70362295D01*
X66219048Y-70362295D02*
X66447619Y-70362295D01*
X66447619Y-70362295D02*
X66523810Y-70324200D01*
X66523810Y-70324200D02*
X66561905Y-70286104D01*
X65571428Y-69562295D02*
X65495238Y-69562295D01*
X65495238Y-69562295D02*
X65419047Y-69600390D01*
X65419047Y-69600390D02*
X65380952Y-69638485D01*
X65380952Y-69638485D02*
X65342857Y-69714676D01*
X65342857Y-69714676D02*
X65304762Y-69867057D01*
X65304762Y-69867057D02*
X65304762Y-70057533D01*
X65304762Y-70057533D02*
X65342857Y-70209914D01*
X65342857Y-70209914D02*
X65380952Y-70286104D01*
X65380952Y-70286104D02*
X65419047Y-70324200D01*
X65419047Y-70324200D02*
X65495238Y-70362295D01*
X65495238Y-70362295D02*
X65571428Y-70362295D01*
X65571428Y-70362295D02*
X65647619Y-70324200D01*
X65647619Y-70324200D02*
X65685714Y-70286104D01*
X65685714Y-70286104D02*
X65723809Y-70209914D01*
X65723809Y-70209914D02*
X65761905Y-70057533D01*
X65761905Y-70057533D02*
X65761905Y-69867057D01*
X65761905Y-69867057D02*
X65723809Y-69714676D01*
X65723809Y-69714676D02*
X65685714Y-69638485D01*
X65685714Y-69638485D02*
X65647619Y-69600390D01*
X65647619Y-69600390D02*
X65571428Y-69562295D01*
X65000000Y-69638485D02*
X64961904Y-69600390D01*
X64961904Y-69600390D02*
X64885714Y-69562295D01*
X64885714Y-69562295D02*
X64695238Y-69562295D01*
X64695238Y-69562295D02*
X64619047Y-69600390D01*
X64619047Y-69600390D02*
X64580952Y-69638485D01*
X64580952Y-69638485D02*
X64542857Y-69714676D01*
X64542857Y-69714676D02*
X64542857Y-69790866D01*
X64542857Y-69790866D02*
X64580952Y-69905152D01*
X64580952Y-69905152D02*
X65038095Y-70362295D01*
X65038095Y-70362295D02*
X64542857Y-70362295D01*
X64199999Y-70286104D02*
X64161904Y-70324200D01*
X64161904Y-70324200D02*
X64199999Y-70362295D01*
X64199999Y-70362295D02*
X64238095Y-70324200D01*
X64238095Y-70324200D02*
X64199999Y-70286104D01*
X64199999Y-70286104D02*
X64199999Y-70362295D01*
X64199999Y-69867057D02*
X64161904Y-69905152D01*
X64161904Y-69905152D02*
X64199999Y-69943247D01*
X64199999Y-69943247D02*
X64238095Y-69905152D01*
X64238095Y-69905152D02*
X64199999Y-69867057D01*
X64199999Y-69867057D02*
X64199999Y-69943247D01*
X62790476Y-70362295D02*
X63247619Y-70362295D01*
X63019047Y-70362295D02*
X63019047Y-69562295D01*
X63019047Y-69562295D02*
X63095238Y-69676580D01*
X63095238Y-69676580D02*
X63171428Y-69752771D01*
X63171428Y-69752771D02*
X63247619Y-69790866D01*
X62447618Y-69943247D02*
X61838095Y-69943247D01*
X61838095Y-70171819D02*
X62447618Y-70171819D01*
X61571428Y-69562295D02*
X61114285Y-69562295D01*
X61342857Y-70362295D02*
X61342857Y-69562295D01*
X60276190Y-69638485D02*
X60238094Y-69600390D01*
X60238094Y-69600390D02*
X60161904Y-69562295D01*
X60161904Y-69562295D02*
X59971428Y-69562295D01*
X59971428Y-69562295D02*
X59895237Y-69600390D01*
X59895237Y-69600390D02*
X59857142Y-69638485D01*
X59857142Y-69638485D02*
X59819047Y-69714676D01*
X59819047Y-69714676D02*
X59819047Y-69790866D01*
X59819047Y-69790866D02*
X59857142Y-69905152D01*
X59857142Y-69905152D02*
X60314285Y-70362295D01*
X60314285Y-70362295D02*
X59819047Y-70362295D01*
X59476189Y-69943247D02*
X58866666Y-69943247D01*
X58866666Y-70171819D02*
X59476189Y-70171819D01*
X58028570Y-70362295D02*
X58295237Y-69981342D01*
X58485713Y-70362295D02*
X58485713Y-69562295D01*
X58485713Y-69562295D02*
X58180951Y-69562295D01*
X58180951Y-69562295D02*
X58104761Y-69600390D01*
X58104761Y-69600390D02*
X58066666Y-69638485D01*
X58066666Y-69638485D02*
X58028570Y-69714676D01*
X58028570Y-69714676D02*
X58028570Y-69828961D01*
X58028570Y-69828961D02*
X58066666Y-69905152D01*
X58066666Y-69905152D02*
X58104761Y-69943247D01*
X58104761Y-69943247D02*
X58180951Y-69981342D01*
X58180951Y-69981342D02*
X58485713Y-69981342D01*
X57152380Y-69562295D02*
X56657142Y-69562295D01*
X56657142Y-69562295D02*
X56923808Y-69867057D01*
X56923808Y-69867057D02*
X56809523Y-69867057D01*
X56809523Y-69867057D02*
X56733332Y-69905152D01*
X56733332Y-69905152D02*
X56695237Y-69943247D01*
X56695237Y-69943247D02*
X56657142Y-70019438D01*
X56657142Y-70019438D02*
X56657142Y-70209914D01*
X56657142Y-70209914D02*
X56695237Y-70286104D01*
X56695237Y-70286104D02*
X56733332Y-70324200D01*
X56733332Y-70324200D02*
X56809523Y-70362295D01*
X56809523Y-70362295D02*
X57038094Y-70362295D01*
X57038094Y-70362295D02*
X57114285Y-70324200D01*
X57114285Y-70324200D02*
X57152380Y-70286104D01*
X56314284Y-69943247D02*
X55704761Y-69943247D01*
X55704761Y-70171819D02*
X56314284Y-70171819D01*
X54904761Y-69600390D02*
X54980951Y-69562295D01*
X54980951Y-69562295D02*
X55095237Y-69562295D01*
X55095237Y-69562295D02*
X55209523Y-69600390D01*
X55209523Y-69600390D02*
X55285713Y-69676580D01*
X55285713Y-69676580D02*
X55323808Y-69752771D01*
X55323808Y-69752771D02*
X55361904Y-69905152D01*
X55361904Y-69905152D02*
X55361904Y-70019438D01*
X55361904Y-70019438D02*
X55323808Y-70171819D01*
X55323808Y-70171819D02*
X55285713Y-70248009D01*
X55285713Y-70248009D02*
X55209523Y-70324200D01*
X55209523Y-70324200D02*
X55095237Y-70362295D01*
X55095237Y-70362295D02*
X55019046Y-70362295D01*
X55019046Y-70362295D02*
X54904761Y-70324200D01*
X54904761Y-70324200D02*
X54866665Y-70286104D01*
X54866665Y-70286104D02*
X54866665Y-70019438D01*
X54866665Y-70019438D02*
X55019046Y-70019438D01*
X77999999Y-82169104D02*
X77523809Y-82169104D01*
X78095237Y-82454819D02*
X77761904Y-81454819D01*
X77761904Y-81454819D02*
X77428571Y-82454819D01*
X76523809Y-82454819D02*
X76857142Y-81978628D01*
X77095237Y-82454819D02*
X77095237Y-81454819D01*
X77095237Y-81454819D02*
X76714285Y-81454819D01*
X76714285Y-81454819D02*
X76619047Y-81502438D01*
X76619047Y-81502438D02*
X76571428Y-81550057D01*
X76571428Y-81550057D02*
X76523809Y-81645295D01*
X76523809Y-81645295D02*
X76523809Y-81788152D01*
X76523809Y-81788152D02*
X76571428Y-81883390D01*
X76571428Y-81883390D02*
X76619047Y-81931009D01*
X76619047Y-81931009D02*
X76714285Y-81978628D01*
X76714285Y-81978628D02*
X77095237Y-81978628D01*
X76095237Y-82454819D02*
X76095237Y-81454819D01*
X76095237Y-81454819D02*
X75857142Y-81454819D01*
X75857142Y-81454819D02*
X75714285Y-81502438D01*
X75714285Y-81502438D02*
X75619047Y-81597676D01*
X75619047Y-81597676D02*
X75571428Y-81692914D01*
X75571428Y-81692914D02*
X75523809Y-81883390D01*
X75523809Y-81883390D02*
X75523809Y-82026247D01*
X75523809Y-82026247D02*
X75571428Y-82216723D01*
X75571428Y-82216723D02*
X75619047Y-82311961D01*
X75619047Y-82311961D02*
X75714285Y-82407200D01*
X75714285Y-82407200D02*
X75857142Y-82454819D01*
X75857142Y-82454819D02*
X76095237Y-82454819D01*
X74904761Y-81454819D02*
X74714285Y-81454819D01*
X74714285Y-81454819D02*
X74619047Y-81502438D01*
X74619047Y-81502438D02*
X74523809Y-81597676D01*
X74523809Y-81597676D02*
X74476190Y-81788152D01*
X74476190Y-81788152D02*
X74476190Y-82121485D01*
X74476190Y-82121485D02*
X74523809Y-82311961D01*
X74523809Y-82311961D02*
X74619047Y-82407200D01*
X74619047Y-82407200D02*
X74714285Y-82454819D01*
X74714285Y-82454819D02*
X74904761Y-82454819D01*
X74904761Y-82454819D02*
X74999999Y-82407200D01*
X74999999Y-82407200D02*
X75095237Y-82311961D01*
X75095237Y-82311961D02*
X75142856Y-82121485D01*
X75142856Y-82121485D02*
X75142856Y-81788152D01*
X75142856Y-81788152D02*
X75095237Y-81597676D01*
X75095237Y-81597676D02*
X74999999Y-81502438D01*
X74999999Y-81502438D02*
X74904761Y-81454819D01*
X73476190Y-82454819D02*
X73809523Y-81978628D01*
X74047618Y-82454819D02*
X74047618Y-81454819D01*
X74047618Y-81454819D02*
X73666666Y-81454819D01*
X73666666Y-81454819D02*
X73571428Y-81502438D01*
X73571428Y-81502438D02*
X73523809Y-81550057D01*
X73523809Y-81550057D02*
X73476190Y-81645295D01*
X73476190Y-81645295D02*
X73476190Y-81788152D01*
X73476190Y-81788152D02*
X73523809Y-81883390D01*
X73523809Y-81883390D02*
X73571428Y-81931009D01*
X73571428Y-81931009D02*
X73666666Y-81978628D01*
X73666666Y-81978628D02*
X74047618Y-81978628D01*
X72285713Y-81931009D02*
X71952380Y-81931009D01*
X71809523Y-82454819D02*
X72285713Y-82454819D01*
X72285713Y-82454819D02*
X72285713Y-81454819D01*
X72285713Y-81454819D02*
X71809523Y-81454819D01*
X71476189Y-81454819D02*
X70809523Y-82454819D01*
X70809523Y-81454819D02*
X71476189Y-82454819D01*
X70428570Y-82454819D02*
X70428570Y-81454819D01*
X70428570Y-81454819D02*
X70047618Y-81454819D01*
X70047618Y-81454819D02*
X69952380Y-81502438D01*
X69952380Y-81502438D02*
X69904761Y-81550057D01*
X69904761Y-81550057D02*
X69857142Y-81645295D01*
X69857142Y-81645295D02*
X69857142Y-81788152D01*
X69857142Y-81788152D02*
X69904761Y-81883390D01*
X69904761Y-81883390D02*
X69952380Y-81931009D01*
X69952380Y-81931009D02*
X70047618Y-81978628D01*
X70047618Y-81978628D02*
X70428570Y-81978628D01*
X68857142Y-82454819D02*
X69190475Y-81978628D01*
X69428570Y-82454819D02*
X69428570Y-81454819D01*
X69428570Y-81454819D02*
X69047618Y-81454819D01*
X69047618Y-81454819D02*
X68952380Y-81502438D01*
X68952380Y-81502438D02*
X68904761Y-81550057D01*
X68904761Y-81550057D02*
X68857142Y-81645295D01*
X68857142Y-81645295D02*
X68857142Y-81788152D01*
X68857142Y-81788152D02*
X68904761Y-81883390D01*
X68904761Y-81883390D02*
X68952380Y-81931009D01*
X68952380Y-81931009D02*
X69047618Y-81978628D01*
X69047618Y-81978628D02*
X69428570Y-81978628D01*
X67666665Y-82454819D02*
X67666665Y-81454819D01*
X67666665Y-81454819D02*
X67333332Y-82169104D01*
X67333332Y-82169104D02*
X66999999Y-81454819D01*
X66999999Y-81454819D02*
X66999999Y-82454819D01*
X65999999Y-82454819D02*
X66571427Y-82454819D01*
X66285713Y-82454819D02*
X66285713Y-81454819D01*
X66285713Y-81454819D02*
X66380951Y-81597676D01*
X66380951Y-81597676D02*
X66476189Y-81692914D01*
X66476189Y-81692914D02*
X66571427Y-81740533D01*
X86490476Y-57752295D02*
X85995238Y-57752295D01*
X85995238Y-57752295D02*
X86261904Y-58057057D01*
X86261904Y-58057057D02*
X86147619Y-58057057D01*
X86147619Y-58057057D02*
X86071428Y-58095152D01*
X86071428Y-58095152D02*
X86033333Y-58133247D01*
X86033333Y-58133247D02*
X85995238Y-58209438D01*
X85995238Y-58209438D02*
X85995238Y-58399914D01*
X85995238Y-58399914D02*
X86033333Y-58476104D01*
X86033333Y-58476104D02*
X86071428Y-58514200D01*
X86071428Y-58514200D02*
X86147619Y-58552295D01*
X86147619Y-58552295D02*
X86376190Y-58552295D01*
X86376190Y-58552295D02*
X86452381Y-58514200D01*
X86452381Y-58514200D02*
X86490476Y-58476104D01*
X85766666Y-57752295D02*
X85499999Y-58552295D01*
X85499999Y-58552295D02*
X85233333Y-57752295D01*
X85042857Y-57752295D02*
X84547619Y-57752295D01*
X84547619Y-57752295D02*
X84814285Y-58057057D01*
X84814285Y-58057057D02*
X84700000Y-58057057D01*
X84700000Y-58057057D02*
X84623809Y-58095152D01*
X84623809Y-58095152D02*
X84585714Y-58133247D01*
X84585714Y-58133247D02*
X84547619Y-58209438D01*
X84547619Y-58209438D02*
X84547619Y-58399914D01*
X84547619Y-58399914D02*
X84585714Y-58476104D01*
X84585714Y-58476104D02*
X84623809Y-58514200D01*
X84623809Y-58514200D02*
X84700000Y-58552295D01*
X84700000Y-58552295D02*
X84928571Y-58552295D01*
X84928571Y-58552295D02*
X85004762Y-58514200D01*
X85004762Y-58514200D02*
X85042857Y-58476104D01*
X61428571Y-57522295D02*
X61428571Y-58093723D01*
X61428571Y-58093723D02*
X61466666Y-58208009D01*
X61466666Y-58208009D02*
X61542857Y-58284200D01*
X61542857Y-58284200D02*
X61657142Y-58322295D01*
X61657142Y-58322295D02*
X61733333Y-58322295D01*
X61047618Y-58322295D02*
X61047618Y-57522295D01*
X61047618Y-57522295D02*
X60742856Y-57522295D01*
X60742856Y-57522295D02*
X60666666Y-57560390D01*
X60666666Y-57560390D02*
X60628571Y-57598485D01*
X60628571Y-57598485D02*
X60590475Y-57674676D01*
X60590475Y-57674676D02*
X60590475Y-57788961D01*
X60590475Y-57788961D02*
X60628571Y-57865152D01*
X60628571Y-57865152D02*
X60666666Y-57903247D01*
X60666666Y-57903247D02*
X60742856Y-57941342D01*
X60742856Y-57941342D02*
X61047618Y-57941342D01*
X60323809Y-57522295D02*
X59828571Y-57522295D01*
X59828571Y-57522295D02*
X60095237Y-57827057D01*
X60095237Y-57827057D02*
X59980952Y-57827057D01*
X59980952Y-57827057D02*
X59904761Y-57865152D01*
X59904761Y-57865152D02*
X59866666Y-57903247D01*
X59866666Y-57903247D02*
X59828571Y-57979438D01*
X59828571Y-57979438D02*
X59828571Y-58169914D01*
X59828571Y-58169914D02*
X59866666Y-58246104D01*
X59866666Y-58246104D02*
X59904761Y-58284200D01*
X59904761Y-58284200D02*
X59980952Y-58322295D01*
X59980952Y-58322295D02*
X60209523Y-58322295D01*
X60209523Y-58322295D02*
X60285714Y-58284200D01*
X60285714Y-58284200D02*
X60323809Y-58246104D01*
X59333332Y-57522295D02*
X59257142Y-57522295D01*
X59257142Y-57522295D02*
X59180951Y-57560390D01*
X59180951Y-57560390D02*
X59142856Y-57598485D01*
X59142856Y-57598485D02*
X59104761Y-57674676D01*
X59104761Y-57674676D02*
X59066666Y-57827057D01*
X59066666Y-57827057D02*
X59066666Y-58017533D01*
X59066666Y-58017533D02*
X59104761Y-58169914D01*
X59104761Y-58169914D02*
X59142856Y-58246104D01*
X59142856Y-58246104D02*
X59180951Y-58284200D01*
X59180951Y-58284200D02*
X59257142Y-58322295D01*
X59257142Y-58322295D02*
X59333332Y-58322295D01*
X59333332Y-58322295D02*
X59409523Y-58284200D01*
X59409523Y-58284200D02*
X59447618Y-58246104D01*
X59447618Y-58246104D02*
X59485713Y-58169914D01*
X59485713Y-58169914D02*
X59523809Y-58017533D01*
X59523809Y-58017533D02*
X59523809Y-57827057D01*
X59523809Y-57827057D02*
X59485713Y-57674676D01*
X59485713Y-57674676D02*
X59447618Y-57598485D01*
X59447618Y-57598485D02*
X59409523Y-57560390D01*
X59409523Y-57560390D02*
X59333332Y-57522295D01*
X58304761Y-58322295D02*
X58761904Y-58322295D01*
X58533332Y-58322295D02*
X58533332Y-57522295D01*
X58533332Y-57522295D02*
X58609523Y-57636580D01*
X58609523Y-57636580D02*
X58685713Y-57712771D01*
X58685713Y-57712771D02*
X58761904Y-57750866D01*
X81428571Y-70522295D02*
X81428571Y-71093723D01*
X81428571Y-71093723D02*
X81466666Y-71208009D01*
X81466666Y-71208009D02*
X81542857Y-71284200D01*
X81542857Y-71284200D02*
X81657142Y-71322295D01*
X81657142Y-71322295D02*
X81733333Y-71322295D01*
X81047618Y-71322295D02*
X81047618Y-70522295D01*
X81047618Y-70522295D02*
X80742856Y-70522295D01*
X80742856Y-70522295D02*
X80666666Y-70560390D01*
X80666666Y-70560390D02*
X80628571Y-70598485D01*
X80628571Y-70598485D02*
X80590475Y-70674676D01*
X80590475Y-70674676D02*
X80590475Y-70788961D01*
X80590475Y-70788961D02*
X80628571Y-70865152D01*
X80628571Y-70865152D02*
X80666666Y-70903247D01*
X80666666Y-70903247D02*
X80742856Y-70941342D01*
X80742856Y-70941342D02*
X81047618Y-70941342D01*
X80323809Y-70522295D02*
X79828571Y-70522295D01*
X79828571Y-70522295D02*
X80095237Y-70827057D01*
X80095237Y-70827057D02*
X79980952Y-70827057D01*
X79980952Y-70827057D02*
X79904761Y-70865152D01*
X79904761Y-70865152D02*
X79866666Y-70903247D01*
X79866666Y-70903247D02*
X79828571Y-70979438D01*
X79828571Y-70979438D02*
X79828571Y-71169914D01*
X79828571Y-71169914D02*
X79866666Y-71246104D01*
X79866666Y-71246104D02*
X79904761Y-71284200D01*
X79904761Y-71284200D02*
X79980952Y-71322295D01*
X79980952Y-71322295D02*
X80209523Y-71322295D01*
X80209523Y-71322295D02*
X80285714Y-71284200D01*
X80285714Y-71284200D02*
X80323809Y-71246104D01*
X79333332Y-70522295D02*
X79257142Y-70522295D01*
X79257142Y-70522295D02*
X79180951Y-70560390D01*
X79180951Y-70560390D02*
X79142856Y-70598485D01*
X79142856Y-70598485D02*
X79104761Y-70674676D01*
X79104761Y-70674676D02*
X79066666Y-70827057D01*
X79066666Y-70827057D02*
X79066666Y-71017533D01*
X79066666Y-71017533D02*
X79104761Y-71169914D01*
X79104761Y-71169914D02*
X79142856Y-71246104D01*
X79142856Y-71246104D02*
X79180951Y-71284200D01*
X79180951Y-71284200D02*
X79257142Y-71322295D01*
X79257142Y-71322295D02*
X79333332Y-71322295D01*
X79333332Y-71322295D02*
X79409523Y-71284200D01*
X79409523Y-71284200D02*
X79447618Y-71246104D01*
X79447618Y-71246104D02*
X79485713Y-71169914D01*
X79485713Y-71169914D02*
X79523809Y-71017533D01*
X79523809Y-71017533D02*
X79523809Y-70827057D01*
X79523809Y-70827057D02*
X79485713Y-70674676D01*
X79485713Y-70674676D02*
X79447618Y-70598485D01*
X79447618Y-70598485D02*
X79409523Y-70560390D01*
X79409523Y-70560390D02*
X79333332Y-70522295D01*
X78761904Y-70598485D02*
X78723808Y-70560390D01*
X78723808Y-70560390D02*
X78647618Y-70522295D01*
X78647618Y-70522295D02*
X78457142Y-70522295D01*
X78457142Y-70522295D02*
X78380951Y-70560390D01*
X78380951Y-70560390D02*
X78342856Y-70598485D01*
X78342856Y-70598485D02*
X78304761Y-70674676D01*
X78304761Y-70674676D02*
X78304761Y-70750866D01*
X78304761Y-70750866D02*
X78342856Y-70865152D01*
X78342856Y-70865152D02*
X78799999Y-71322295D01*
X78799999Y-71322295D02*
X78304761Y-71322295D01*
X54028571Y-57522295D02*
X54028571Y-58093723D01*
X54028571Y-58093723D02*
X54066666Y-58208009D01*
X54066666Y-58208009D02*
X54142857Y-58284200D01*
X54142857Y-58284200D02*
X54257142Y-58322295D01*
X54257142Y-58322295D02*
X54333333Y-58322295D01*
X53723809Y-57522295D02*
X53228571Y-57522295D01*
X53228571Y-57522295D02*
X53495237Y-57827057D01*
X53495237Y-57827057D02*
X53380952Y-57827057D01*
X53380952Y-57827057D02*
X53304761Y-57865152D01*
X53304761Y-57865152D02*
X53266666Y-57903247D01*
X53266666Y-57903247D02*
X53228571Y-57979438D01*
X53228571Y-57979438D02*
X53228571Y-58169914D01*
X53228571Y-58169914D02*
X53266666Y-58246104D01*
X53266666Y-58246104D02*
X53304761Y-58284200D01*
X53304761Y-58284200D02*
X53380952Y-58322295D01*
X53380952Y-58322295D02*
X53609523Y-58322295D01*
X53609523Y-58322295D02*
X53685714Y-58284200D01*
X53685714Y-58284200D02*
X53723809Y-58246104D01*
X52733332Y-57522295D02*
X52657142Y-57522295D01*
X52657142Y-57522295D02*
X52580951Y-57560390D01*
X52580951Y-57560390D02*
X52542856Y-57598485D01*
X52542856Y-57598485D02*
X52504761Y-57674676D01*
X52504761Y-57674676D02*
X52466666Y-57827057D01*
X52466666Y-57827057D02*
X52466666Y-58017533D01*
X52466666Y-58017533D02*
X52504761Y-58169914D01*
X52504761Y-58169914D02*
X52542856Y-58246104D01*
X52542856Y-58246104D02*
X52580951Y-58284200D01*
X52580951Y-58284200D02*
X52657142Y-58322295D01*
X52657142Y-58322295D02*
X52733332Y-58322295D01*
X52733332Y-58322295D02*
X52809523Y-58284200D01*
X52809523Y-58284200D02*
X52847618Y-58246104D01*
X52847618Y-58246104D02*
X52885713Y-58169914D01*
X52885713Y-58169914D02*
X52923809Y-58017533D01*
X52923809Y-58017533D02*
X52923809Y-57827057D01*
X52923809Y-57827057D02*
X52885713Y-57674676D01*
X52885713Y-57674676D02*
X52847618Y-57598485D01*
X52847618Y-57598485D02*
X52809523Y-57560390D01*
X52809523Y-57560390D02*
X52733332Y-57522295D01*
X52161904Y-57598485D02*
X52123808Y-57560390D01*
X52123808Y-57560390D02*
X52047618Y-57522295D01*
X52047618Y-57522295D02*
X51857142Y-57522295D01*
X51857142Y-57522295D02*
X51780951Y-57560390D01*
X51780951Y-57560390D02*
X51742856Y-57598485D01*
X51742856Y-57598485D02*
X51704761Y-57674676D01*
X51704761Y-57674676D02*
X51704761Y-57750866D01*
X51704761Y-57750866D02*
X51742856Y-57865152D01*
X51742856Y-57865152D02*
X52199999Y-58322295D01*
X52199999Y-58322295D02*
X51704761Y-58322295D01*
X86471428Y-63594200D02*
X86357142Y-63632295D01*
X86357142Y-63632295D02*
X86166666Y-63632295D01*
X86166666Y-63632295D02*
X86090475Y-63594200D01*
X86090475Y-63594200D02*
X86052380Y-63556104D01*
X86052380Y-63556104D02*
X86014285Y-63479914D01*
X86014285Y-63479914D02*
X86014285Y-63403723D01*
X86014285Y-63403723D02*
X86052380Y-63327533D01*
X86052380Y-63327533D02*
X86090475Y-63289438D01*
X86090475Y-63289438D02*
X86166666Y-63251342D01*
X86166666Y-63251342D02*
X86319047Y-63213247D01*
X86319047Y-63213247D02*
X86395237Y-63175152D01*
X86395237Y-63175152D02*
X86433332Y-63137057D01*
X86433332Y-63137057D02*
X86471428Y-63060866D01*
X86471428Y-63060866D02*
X86471428Y-62984676D01*
X86471428Y-62984676D02*
X86433332Y-62908485D01*
X86433332Y-62908485D02*
X86395237Y-62870390D01*
X86395237Y-62870390D02*
X86319047Y-62832295D01*
X86319047Y-62832295D02*
X86128570Y-62832295D01*
X86128570Y-62832295D02*
X86014285Y-62870390D01*
X85671427Y-63632295D02*
X85671427Y-62832295D01*
X85671427Y-62832295D02*
X85480951Y-62832295D01*
X85480951Y-62832295D02*
X85366665Y-62870390D01*
X85366665Y-62870390D02*
X85290475Y-62946580D01*
X85290475Y-62946580D02*
X85252380Y-63022771D01*
X85252380Y-63022771D02*
X85214284Y-63175152D01*
X85214284Y-63175152D02*
X85214284Y-63289438D01*
X85214284Y-63289438D02*
X85252380Y-63441819D01*
X85252380Y-63441819D02*
X85290475Y-63518009D01*
X85290475Y-63518009D02*
X85366665Y-63594200D01*
X85366665Y-63594200D02*
X85480951Y-63632295D01*
X85480951Y-63632295D02*
X85671427Y-63632295D01*
X84909523Y-63403723D02*
X84528570Y-63403723D01*
X84985713Y-63632295D02*
X84719046Y-62832295D01*
X84719046Y-62832295D02*
X84452380Y-63632295D01*
X86452381Y-66134200D02*
X86338095Y-66172295D01*
X86338095Y-66172295D02*
X86147619Y-66172295D01*
X86147619Y-66172295D02*
X86071428Y-66134200D01*
X86071428Y-66134200D02*
X86033333Y-66096104D01*
X86033333Y-66096104D02*
X85995238Y-66019914D01*
X85995238Y-66019914D02*
X85995238Y-65943723D01*
X85995238Y-65943723D02*
X86033333Y-65867533D01*
X86033333Y-65867533D02*
X86071428Y-65829438D01*
X86071428Y-65829438D02*
X86147619Y-65791342D01*
X86147619Y-65791342D02*
X86300000Y-65753247D01*
X86300000Y-65753247D02*
X86376190Y-65715152D01*
X86376190Y-65715152D02*
X86414285Y-65677057D01*
X86414285Y-65677057D02*
X86452381Y-65600866D01*
X86452381Y-65600866D02*
X86452381Y-65524676D01*
X86452381Y-65524676D02*
X86414285Y-65448485D01*
X86414285Y-65448485D02*
X86376190Y-65410390D01*
X86376190Y-65410390D02*
X86300000Y-65372295D01*
X86300000Y-65372295D02*
X86109523Y-65372295D01*
X86109523Y-65372295D02*
X85995238Y-65410390D01*
X85195237Y-66096104D02*
X85233333Y-66134200D01*
X85233333Y-66134200D02*
X85347618Y-66172295D01*
X85347618Y-66172295D02*
X85423809Y-66172295D01*
X85423809Y-66172295D02*
X85538095Y-66134200D01*
X85538095Y-66134200D02*
X85614285Y-66058009D01*
X85614285Y-66058009D02*
X85652380Y-65981819D01*
X85652380Y-65981819D02*
X85690476Y-65829438D01*
X85690476Y-65829438D02*
X85690476Y-65715152D01*
X85690476Y-65715152D02*
X85652380Y-65562771D01*
X85652380Y-65562771D02*
X85614285Y-65486580D01*
X85614285Y-65486580D02*
X85538095Y-65410390D01*
X85538095Y-65410390D02*
X85423809Y-65372295D01*
X85423809Y-65372295D02*
X85347618Y-65372295D01*
X85347618Y-65372295D02*
X85233333Y-65410390D01*
X85233333Y-65410390D02*
X85195237Y-65448485D01*
X84471428Y-66172295D02*
X84852380Y-66172295D01*
X84852380Y-66172295D02*
X84852380Y-65372295D01*
X91028571Y-55252295D02*
X91028571Y-55823723D01*
X91028571Y-55823723D02*
X91066666Y-55938009D01*
X91066666Y-55938009D02*
X91142857Y-56014200D01*
X91142857Y-56014200D02*
X91257142Y-56052295D01*
X91257142Y-56052295D02*
X91333333Y-56052295D01*
X90228571Y-56052295D02*
X90685714Y-56052295D01*
X90457142Y-56052295D02*
X90457142Y-55252295D01*
X90457142Y-55252295D02*
X90533333Y-55366580D01*
X90533333Y-55366580D02*
X90609523Y-55442771D01*
X90609523Y-55442771D02*
X90685714Y-55480866D01*
X89733332Y-55252295D02*
X89657142Y-55252295D01*
X89657142Y-55252295D02*
X89580951Y-55290390D01*
X89580951Y-55290390D02*
X89542856Y-55328485D01*
X89542856Y-55328485D02*
X89504761Y-55404676D01*
X89504761Y-55404676D02*
X89466666Y-55557057D01*
X89466666Y-55557057D02*
X89466666Y-55747533D01*
X89466666Y-55747533D02*
X89504761Y-55899914D01*
X89504761Y-55899914D02*
X89542856Y-55976104D01*
X89542856Y-55976104D02*
X89580951Y-56014200D01*
X89580951Y-56014200D02*
X89657142Y-56052295D01*
X89657142Y-56052295D02*
X89733332Y-56052295D01*
X89733332Y-56052295D02*
X89809523Y-56014200D01*
X89809523Y-56014200D02*
X89847618Y-55976104D01*
X89847618Y-55976104D02*
X89885713Y-55899914D01*
X89885713Y-55899914D02*
X89923809Y-55747533D01*
X89923809Y-55747533D02*
X89923809Y-55557057D01*
X89923809Y-55557057D02*
X89885713Y-55404676D01*
X89885713Y-55404676D02*
X89847618Y-55328485D01*
X89847618Y-55328485D02*
X89809523Y-55290390D01*
X89809523Y-55290390D02*
X89733332Y-55252295D01*
X88704761Y-56052295D02*
X89161904Y-56052295D01*
X88933332Y-56052295D02*
X88933332Y-55252295D01*
X88933332Y-55252295D02*
X89009523Y-55366580D01*
X89009523Y-55366580D02*
X89085713Y-55442771D01*
X89085713Y-55442771D02*
X89161904Y-55480866D01*
X86109523Y-60330390D02*
X86185713Y-60292295D01*
X86185713Y-60292295D02*
X86299999Y-60292295D01*
X86299999Y-60292295D02*
X86414285Y-60330390D01*
X86414285Y-60330390D02*
X86490475Y-60406580D01*
X86490475Y-60406580D02*
X86528570Y-60482771D01*
X86528570Y-60482771D02*
X86566666Y-60635152D01*
X86566666Y-60635152D02*
X86566666Y-60749438D01*
X86566666Y-60749438D02*
X86528570Y-60901819D01*
X86528570Y-60901819D02*
X86490475Y-60978009D01*
X86490475Y-60978009D02*
X86414285Y-61054200D01*
X86414285Y-61054200D02*
X86299999Y-61092295D01*
X86299999Y-61092295D02*
X86223808Y-61092295D01*
X86223808Y-61092295D02*
X86109523Y-61054200D01*
X86109523Y-61054200D02*
X86071427Y-61016104D01*
X86071427Y-61016104D02*
X86071427Y-60749438D01*
X86071427Y-60749438D02*
X86223808Y-60749438D01*
X85728570Y-61092295D02*
X85728570Y-60292295D01*
X85728570Y-60292295D02*
X85271427Y-61092295D01*
X85271427Y-61092295D02*
X85271427Y-60292295D01*
X84890475Y-61092295D02*
X84890475Y-60292295D01*
X84890475Y-60292295D02*
X84699999Y-60292295D01*
X84699999Y-60292295D02*
X84585713Y-60330390D01*
X84585713Y-60330390D02*
X84509523Y-60406580D01*
X84509523Y-60406580D02*
X84471428Y-60482771D01*
X84471428Y-60482771D02*
X84433332Y-60635152D01*
X84433332Y-60635152D02*
X84433332Y-60749438D01*
X84433332Y-60749438D02*
X84471428Y-60901819D01*
X84471428Y-60901819D02*
X84509523Y-60978009D01*
X84509523Y-60978009D02*
X84585713Y-61054200D01*
X84585713Y-61054200D02*
X84699999Y-61092295D01*
X84699999Y-61092295D02*
X84890475Y-61092295D01*
X91428571Y-68792295D02*
X91428571Y-69363723D01*
X91428571Y-69363723D02*
X91466666Y-69478009D01*
X91466666Y-69478009D02*
X91542857Y-69554200D01*
X91542857Y-69554200D02*
X91657142Y-69592295D01*
X91657142Y-69592295D02*
X91733333Y-69592295D01*
X91047618Y-69592295D02*
X91047618Y-68792295D01*
X91047618Y-68792295D02*
X90742856Y-68792295D01*
X90742856Y-68792295D02*
X90666666Y-68830390D01*
X90666666Y-68830390D02*
X90628571Y-68868485D01*
X90628571Y-68868485D02*
X90590475Y-68944676D01*
X90590475Y-68944676D02*
X90590475Y-69058961D01*
X90590475Y-69058961D02*
X90628571Y-69135152D01*
X90628571Y-69135152D02*
X90666666Y-69173247D01*
X90666666Y-69173247D02*
X90742856Y-69211342D01*
X90742856Y-69211342D02*
X91047618Y-69211342D01*
X90323809Y-68792295D02*
X89828571Y-68792295D01*
X89828571Y-68792295D02*
X90095237Y-69097057D01*
X90095237Y-69097057D02*
X89980952Y-69097057D01*
X89980952Y-69097057D02*
X89904761Y-69135152D01*
X89904761Y-69135152D02*
X89866666Y-69173247D01*
X89866666Y-69173247D02*
X89828571Y-69249438D01*
X89828571Y-69249438D02*
X89828571Y-69439914D01*
X89828571Y-69439914D02*
X89866666Y-69516104D01*
X89866666Y-69516104D02*
X89904761Y-69554200D01*
X89904761Y-69554200D02*
X89980952Y-69592295D01*
X89980952Y-69592295D02*
X90209523Y-69592295D01*
X90209523Y-69592295D02*
X90285714Y-69554200D01*
X90285714Y-69554200D02*
X90323809Y-69516104D01*
X89333332Y-68792295D02*
X89257142Y-68792295D01*
X89257142Y-68792295D02*
X89180951Y-68830390D01*
X89180951Y-68830390D02*
X89142856Y-68868485D01*
X89142856Y-68868485D02*
X89104761Y-68944676D01*
X89104761Y-68944676D02*
X89066666Y-69097057D01*
X89066666Y-69097057D02*
X89066666Y-69287533D01*
X89066666Y-69287533D02*
X89104761Y-69439914D01*
X89104761Y-69439914D02*
X89142856Y-69516104D01*
X89142856Y-69516104D02*
X89180951Y-69554200D01*
X89180951Y-69554200D02*
X89257142Y-69592295D01*
X89257142Y-69592295D02*
X89333332Y-69592295D01*
X89333332Y-69592295D02*
X89409523Y-69554200D01*
X89409523Y-69554200D02*
X89447618Y-69516104D01*
X89447618Y-69516104D02*
X89485713Y-69439914D01*
X89485713Y-69439914D02*
X89523809Y-69287533D01*
X89523809Y-69287533D02*
X89523809Y-69097057D01*
X89523809Y-69097057D02*
X89485713Y-68944676D01*
X89485713Y-68944676D02*
X89447618Y-68868485D01*
X89447618Y-68868485D02*
X89409523Y-68830390D01*
X89409523Y-68830390D02*
X89333332Y-68792295D01*
X88799999Y-68792295D02*
X88304761Y-68792295D01*
X88304761Y-68792295D02*
X88571427Y-69097057D01*
X88571427Y-69097057D02*
X88457142Y-69097057D01*
X88457142Y-69097057D02*
X88380951Y-69135152D01*
X88380951Y-69135152D02*
X88342856Y-69173247D01*
X88342856Y-69173247D02*
X88304761Y-69249438D01*
X88304761Y-69249438D02*
X88304761Y-69439914D01*
X88304761Y-69439914D02*
X88342856Y-69516104D01*
X88342856Y-69516104D02*
X88380951Y-69554200D01*
X88380951Y-69554200D02*
X88457142Y-69592295D01*
X88457142Y-69592295D02*
X88685713Y-69592295D01*
X88685713Y-69592295D02*
X88761904Y-69554200D01*
X88761904Y-69554200D02*
X88799999Y-69516104D01*
%LPC*%
D11*
X53000000Y-81000000D03*
D12*
X53000000Y-60460000D03*
D13*
X53000000Y-63000000D03*
X53000000Y-65540000D03*
D11*
X91000000Y-53000000D03*
D12*
X90000000Y-71730000D03*
D13*
X90000000Y-74270000D03*
D12*
X58730000Y-60460000D03*
D13*
X61270000Y-60460000D03*
X58730000Y-63000000D03*
X61270000Y-63000000D03*
X58730000Y-65540000D03*
X61270000Y-65540000D03*
D12*
X90000000Y-78730000D03*
D13*
X90000000Y-81270000D03*
D12*
X78000000Y-73460000D03*
D13*
X78000000Y-76000000D03*
X78000000Y-78540000D03*
D12*
X90000000Y-58190000D03*
D13*
X90000000Y-60730000D03*
X90000000Y-63270000D03*
X90000000Y-65810000D03*
%LPD*%
M02*
