G04 #@! TF.GenerationSoftware,KiCad,Pcbnew,9.0.2+dfsg-1*
G04 #@! TF.CreationDate,2026-10-02T20:04:38+00:00*
G04 #@! TF.ProjectId,Ardor_Expression,4172646f-725f-4457-9870-72657373696f,rev?*
G04 #@! TF.SameCoordinates,Original*
G04 #@! TF.FileFunction,Soldermask,Top*
G04 #@! TF.FilePolarity,Negative*
%FSLAX46Y46*%
G04 Gerber Fmt 4.6, Leading zero omitted, Abs format (unit mm)*
G04 Created by KiCad (PCBNEW 9.0.2+dfsg-1) date 2026-10-02 20:04:38*
%MOMM*%
%LPD*%
G01*
G04 APERTURE LIST*
G04 Aperture macros list*
%AMRoundRect*
0 Rectangle with rounded corners*
0 $1 Rounding radius*
0 $2 $3 $4 $5 $6 $7 $8 $9 X,Y pos of 4 corners*
0 Add a 4 corners polygon primitive as box body*
4,1,4,$2,$3,$4,$5,$6,$7,$8,$9,$2,$3,0*
0 Add four circle primitives for the rounded corners*
1,1,$1+$1,$2,$3*
1,1,$1+$1,$4,$5*
1,1,$1+$1,$6,$7*
1,1,$1+$1,$8,$9*
0 Add four rect primitives between the rounded corners*
20,1,$1+$1,$2,$3,$4,$5,0*
20,1,$1+$1,$4,$5,$6,$7,0*
20,1,$1+$1,$6,$7,$8,$9,0*
20,1,$1+$1,$8,$9,$2,$3,0*%
G04 Aperture macros list end*
%ADD10C,2.200000*%
%ADD11RoundRect,0.112500X-0.187500X-0.112500X0.187500X-0.112500X0.187500X0.112500X-0.187500X0.112500X0*%
%ADD12RoundRect,0.250000X-0.300000X-0.300000X0.300000X-0.300000X0.300000X0.300000X-0.300000X0.300000X0*%
%ADD13RoundRect,0.200000X-0.200000X-0.275000X0.200000X-0.275000X0.200000X0.275000X-0.200000X0.275000X0*%
%ADD14RoundRect,0.250000X-0.312500X-0.625000X0.312500X-0.625000X0.312500X0.625000X-0.312500X0.625000X0*%
%ADD15RoundRect,0.225000X-0.225000X-0.250000X0.225000X-0.250000X0.225000X0.250000X-0.225000X0.250000X0*%
%ADD16R,1.700000X1.700000*%
%ADD17C,1.700000*%
%ADD18RoundRect,0.075000X-0.650000X-0.075000X0.650000X-0.075000X0.650000X0.075000X-0.650000X0.075000X0*%
%ADD19RoundRect,0.250000X-0.250000X-0.475000X0.250000X-0.475000X0.250000X0.475000X-0.250000X0.475000X0*%
G04 APERTURE END LIST*
D10*
X53000000Y-81000000D03*
D11*
X53950000Y-57000000D03*
X56050000Y-57000000D03*
D12*
X72600000Y-74000000D03*
X75400000Y-74000000D03*
D13*
X84175000Y-74000000D03*
X85825000Y-74000000D03*
D14*
X56537500Y-74000000D03*
X59462500Y-74000000D03*
D12*
X67600000Y-74000000D03*
X70400000Y-74000000D03*
D15*
X72225000Y-64000000D03*
X73775000Y-64000000D03*
D13*
X64175000Y-60000000D03*
X65825000Y-60000000D03*
D16*
X53000000Y-60460000D03*
D17*
X53000000Y-63000000D03*
X53000000Y-65540000D03*
D13*
X65175000Y-65000000D03*
X66825000Y-65000000D03*
D10*
X91000000Y-53000000D03*
D16*
X90000000Y-71730000D03*
D17*
X90000000Y-74270000D03*
D13*
X81175000Y-72000000D03*
X82825000Y-72000000D03*
X76175000Y-54000000D03*
X77825000Y-54000000D03*
X66175000Y-71000000D03*
X67825000Y-71000000D03*
X84175000Y-63000000D03*
X85825000Y-63000000D03*
D16*
X58730000Y-60460000D03*
D17*
X61270000Y-60460000D03*
X58730000Y-63000000D03*
X61270000Y-63000000D03*
X58730000Y-65540000D03*
X61270000Y-65540000D03*
D15*
X78225000Y-61000000D03*
X79775000Y-61000000D03*
D13*
X62175000Y-71000000D03*
X63825000Y-71000000D03*
D11*
X53950000Y-69000000D03*
X56050000Y-69000000D03*
D15*
X72225000Y-70000000D03*
X73775000Y-70000000D03*
D12*
X70600000Y-67000000D03*
X73400000Y-67000000D03*
D16*
X90000000Y-78730000D03*
D17*
X90000000Y-81270000D03*
D18*
X75800000Y-65000000D03*
X75800000Y-65500000D03*
X75800000Y-66000000D03*
X75800000Y-66500000D03*
X75800000Y-67000000D03*
X80200000Y-67000000D03*
X80200000Y-66500000D03*
X80200000Y-66000000D03*
X80200000Y-65500000D03*
X80200000Y-65000000D03*
D13*
X84175000Y-66000000D03*
X85825000Y-66000000D03*
D16*
X78000000Y-73460000D03*
D17*
X78000000Y-76000000D03*
X78000000Y-78540000D03*
D16*
X90000000Y-58190000D03*
D17*
X90000000Y-60730000D03*
X90000000Y-63270000D03*
X90000000Y-65810000D03*
D15*
X84225000Y-54000000D03*
X85775000Y-54000000D03*
D12*
X71600000Y-60000000D03*
X74400000Y-60000000D03*
D19*
X80050000Y-54000000D03*
X81950000Y-54000000D03*
D13*
X84175000Y-79000000D03*
X85825000Y-79000000D03*
M02*
