G04 #@! TF.GenerationSoftware,KiCad,Pcbnew,9.0.2+dfsg-1*
G04 #@! TF.CreationDate,2026-10-02T15:26:37+00:00*
G04 #@! TF.ProjectId,Ardor_Line_Out,4172646f-725f-44c6-996e-655f4f75742e,rev?*
G04 #@! TF.SameCoordinates,Original*
G04 #@! TF.FileFunction,Soldermask,Top*
G04 #@! TF.FilePolarity,Negative*
%FSLAX46Y46*%
G04 Gerber Fmt 4.6, Leading zero omitted, Abs format (unit mm)*
G04 Created by KiCad (PCBNEW 9.0.2+dfsg-1) date 2026-10-02 15:26:37*
%MOMM*%
%LPD*%
G01*
G04 APERTURE LIST*
G04 Aperture macros list*
%AMRoundRect*
0 Rectangle with rounded corners*
0 $1 Rounding radius*
0 $2 $3 $4 $5 $6 $7 $8 $9 X,Y pos of 4 corners*
0 Add a 4 corners polygon primitive as box body*
4,1,4,$2,$3,$4,$5,$6,$7,$8,$9,$2,$3,0*
0 Add four circle primitives for the rounded corners*
1,1,$1+$1,$2,$3*
1,1,$1+$1,$4,$5*
1,1,$1+$1,$6,$7*
1,1,$1+$1,$8,$9*
0 Add four rect primitives between the rounded corners*
20,1,$1+$1,$2,$3,$4,$5,0*
20,1,$1+$1,$4,$5,$6,$7,0*
20,1,$1+$1,$6,$7,$8,$9,0*
20,1,$1+$1,$8,$9,$2,$3,0*%
G04 Aperture macros list end*
%ADD10RoundRect,0.112500X-0.187500X-0.112500X0.187500X-0.112500X0.187500X0.112500X-0.187500X0.112500X0*%
%ADD11RoundRect,0.150000X-0.587500X-0.150000X0.587500X-0.150000X0.587500X0.150000X-0.587500X0.150000X0*%
%ADD12R,1.700000X1.700000*%
%ADD13C,1.700000*%
%ADD14RoundRect,0.200000X-0.200000X-0.275000X0.200000X-0.275000X0.200000X0.275000X-0.200000X0.275000X0*%
%ADD15C,2.200000*%
%ADD16RoundRect,0.218750X-0.218750X-0.381250X0.218750X-0.381250X0.218750X0.381250X-0.218750X0.381250X0*%
%ADD17RoundRect,0.250000X-0.250000X-0.475000X0.250000X-0.475000X0.250000X0.475000X-0.250000X0.475000X0*%
%ADD18RoundRect,0.250000X-0.325000X-0.650000X0.325000X-0.650000X0.325000X0.650000X-0.325000X0.650000X0*%
%ADD19RoundRect,0.225000X-0.225000X-0.375000X0.225000X-0.375000X0.225000X0.375000X-0.225000X0.375000X0*%
%ADD20RoundRect,0.225000X-0.225000X-0.250000X0.225000X-0.250000X0.225000X0.250000X-0.225000X0.250000X0*%
%ADD21R,2.000000X2.000000*%
%ADD22C,2.000000*%
%ADD23RoundRect,0.150000X-0.825000X-0.150000X0.825000X-0.150000X0.825000X0.150000X-0.825000X0.150000X0*%
%ADD24RoundRect,0.250000X-0.312500X-0.625000X0.312500X-0.625000X0.312500X0.625000X-0.312500X0.625000X0*%
%ADD25R,3.200000X1.600000*%
G04 APERTURE END LIST*
D10*
X87950000Y-71000000D03*
X90050000Y-71000000D03*
D11*
X77062500Y-74050000D03*
X77062500Y-75950000D03*
X78937500Y-75000000D03*
D12*
X92000000Y-74730000D03*
D13*
X92000000Y-77270000D03*
D12*
X53000000Y-68730000D03*
D13*
X53000000Y-71270000D03*
D14*
X73175000Y-69000000D03*
X74825000Y-69000000D03*
D15*
X53000000Y-81000000D03*
D14*
X67175000Y-72000000D03*
X68825000Y-72000000D03*
D16*
X58937500Y-54000000D03*
X61062500Y-54000000D03*
D17*
X63050000Y-76000000D03*
X64950000Y-76000000D03*
D18*
X56525000Y-70000000D03*
X59475000Y-70000000D03*
D17*
X63050000Y-54000000D03*
X64950000Y-54000000D03*
D19*
X80350000Y-70000000D03*
X83650000Y-70000000D03*
D20*
X62225000Y-59000000D03*
X63775000Y-59000000D03*
X67225000Y-54000000D03*
X68775000Y-54000000D03*
D15*
X93000000Y-53000000D03*
D14*
X67175000Y-75000000D03*
X68825000Y-75000000D03*
D21*
X82460000Y-53920000D03*
D22*
X82460000Y-56460000D03*
X82460000Y-64080000D03*
X87540000Y-64080000D03*
X87540000Y-56460000D03*
X87540000Y-53920000D03*
D23*
X61525000Y-63095000D03*
X61525000Y-64365000D03*
X61525000Y-65635000D03*
X61525000Y-66905000D03*
X66475000Y-66905000D03*
X66475000Y-65635000D03*
X66475000Y-64365000D03*
X66475000Y-63095000D03*
D24*
X81537500Y-75000000D03*
X84462500Y-75000000D03*
D14*
X67175000Y-79000000D03*
X68825000Y-79000000D03*
X77175000Y-80000000D03*
X78825000Y-80000000D03*
X86175000Y-77000000D03*
X87825000Y-77000000D03*
D12*
X92000000Y-65730000D03*
D13*
X92000000Y-68270000D03*
D18*
X70525000Y-79000000D03*
X73475000Y-79000000D03*
D14*
X58175000Y-74000000D03*
X59825000Y-74000000D03*
X76175000Y-57000000D03*
X77825000Y-57000000D03*
D25*
X72500000Y-62000000D03*
X77500000Y-62000000D03*
D14*
X72175000Y-75000000D03*
X73825000Y-75000000D03*
D12*
X53000000Y-56460000D03*
D13*
X53000000Y-59000000D03*
X53000000Y-61540000D03*
M02*
