G04 #@! TF.GenerationSoftware,KiCad,Pcbnew,9.0.2+dfsg-1*
G04 #@! TF.CreationDate,2026-10-02T15:26:37+00:00*
G04 #@! TF.ProjectId,Ardor_Line_Out,4172646f-725f-44c6-996e-655f4f75742e,rev?*
G04 #@! TF.SameCoordinates,Original*
G04 #@! TF.FileFunction,Legend,Top*
G04 #@! TF.FilePolarity,Positive*
%FSLAX46Y46*%
G04 Gerber Fmt 4.6, Leading zero omitted, Abs format (unit mm)*
G04 Created by KiCad (PCBNEW 9.0.2+dfsg-1) date 2026-10-02 15:26:37*
%MOMM*%
%LPD*%
G01*
G04 APERTURE LIST*
G04 Aperture macros list*
%AMRoundRect*
0 Rectangle with rounded corners*
0 $1 Rounding radius*
0 $2 $3 $4 $5 $6 $7 $8 $9 X,Y pos of 4 corners*
0 Add a 4 corners polygon primitive as box body*
4,1,4,$2,$3,$4,$5,$6,$7,$8,$9,$2,$3,0*
0 Add four circle primitives for the rounded corners*
1,1,$1+$1,$2,$3*
1,1,$1+$1,$4,$5*
1,1,$1+$1,$6,$7*
1,1,$1+$1,$8,$9*
0 Add four rect primitives between the rounded corners*
20,1,$1+$1,$2,$3,$4,$5,0*
20,1,$1+$1,$4,$5,$6,$7,0*
20,1,$1+$1,$6,$7,$8,$9,0*
20,1,$1+$1,$8,$9,$2,$3,0*%
G04 Aperture macros list end*
%ADD10C,0.120000*%
%ADD11RoundRect,0.112500X-0.187500X-0.112500X0.187500X-0.112500X0.187500X0.112500X-0.187500X0.112500X0*%
%ADD12RoundRect,0.150000X-0.587500X-0.150000X0.587500X-0.150000X0.587500X0.150000X-0.587500X0.150000X0*%
%ADD13R,1.700000X1.700000*%
%ADD14C,1.700000*%
%ADD15RoundRect,0.200000X-0.200000X-0.275000X0.200000X-0.275000X0.200000X0.275000X-0.200000X0.275000X0*%
%ADD16C,2.200000*%
%ADD17RoundRect,0.218750X-0.218750X-0.381250X0.218750X-0.381250X0.218750X0.381250X-0.218750X0.381250X0*%
%ADD18RoundRect,0.250000X-0.250000X-0.475000X0.250000X-0.475000X0.250000X0.475000X-0.250000X0.475000X0*%
%ADD19RoundRect,0.250000X-0.325000X-0.650000X0.325000X-0.650000X0.325000X0.650000X-0.325000X0.650000X0*%
%ADD20RoundRect,0.225000X-0.225000X-0.375000X0.225000X-0.375000X0.225000X0.375000X-0.225000X0.375000X0*%
%ADD21RoundRect,0.225000X-0.225000X-0.250000X0.225000X-0.250000X0.225000X0.250000X-0.225000X0.250000X0*%
%ADD22R,2.000000X2.000000*%
%ADD23C,2.000000*%
%ADD24RoundRect,0.150000X-0.825000X-0.150000X0.825000X-0.150000X0.825000X0.150000X-0.825000X0.150000X0*%
%ADD25RoundRect,0.250000X-0.312500X-0.625000X0.312500X-0.625000X0.312500X0.625000X-0.312500X0.625000X0*%
%ADD26R,3.200000X1.600000*%
G04 APERTURE END LIST*
D10*
X87390000Y-70150000D02*
X87390000Y-71850000D01*
X87390000Y-70150000D02*
X90050000Y-70150000D01*
X87390000Y-71850000D02*
X90050000Y-71850000D01*
X77240000Y-73440000D02*
X78760000Y-73440000D01*
X77240000Y-73490000D02*
X77240000Y-73440000D01*
X77240000Y-75390000D02*
X77240000Y-74610000D01*
X77240000Y-76560000D02*
X77240000Y-76510000D01*
X78760000Y-73440000D02*
X78760000Y-74440000D01*
X78760000Y-75560000D02*
X78760000Y-76560000D01*
X78760000Y-76560000D02*
X77240000Y-76560000D01*
X76940000Y-74950000D02*
X76460000Y-74950000D01*
X76700000Y-74620000D01*
X76940000Y-74950000D01*
G36*
X76940000Y-74950000D02*
G01*
X76460000Y-74950000D01*
X76700000Y-74620000D01*
X76940000Y-74950000D01*
G37*
X90620000Y-73350000D02*
X92000000Y-73350000D01*
X90620000Y-74730000D02*
X90620000Y-73350000D01*
X90620000Y-76000000D02*
X90620000Y-78650000D01*
X90620000Y-76000000D02*
X93380000Y-76000000D01*
X90620000Y-78650000D02*
X93380000Y-78650000D01*
X93380000Y-76000000D02*
X93380000Y-78650000D01*
X51620000Y-67350000D02*
X53000000Y-67350000D01*
X51620000Y-68730000D02*
X51620000Y-67350000D01*
X51620000Y-70000000D02*
X51620000Y-72650000D01*
X51620000Y-70000000D02*
X54380000Y-70000000D01*
X51620000Y-72650000D02*
X54380000Y-72650000D01*
X54380000Y-70000000D02*
X54380000Y-72650000D01*
X73762742Y-68477500D02*
X74237258Y-68477500D01*
X73762742Y-69522500D02*
X74237258Y-69522500D01*
X67762742Y-71477500D02*
X68237258Y-71477500D01*
X67762742Y-72522500D02*
X68237258Y-72522500D01*
X59600378Y-53440000D02*
X60399622Y-53440000D01*
X59600378Y-54560000D02*
X60399622Y-54560000D01*
X63738748Y-75265000D02*
X64261252Y-75265000D01*
X63738748Y-76735000D02*
X64261252Y-76735000D01*
X57288748Y-69090000D02*
X58711252Y-69090000D01*
X57288748Y-70910000D02*
X58711252Y-70910000D01*
X63738748Y-53265000D02*
X64261252Y-53265000D01*
X63738748Y-54735000D02*
X64261252Y-54735000D01*
X79640000Y-69000000D02*
X79640000Y-71000000D01*
X79640000Y-69000000D02*
X83650000Y-69000000D01*
X79640000Y-71000000D02*
X83650000Y-71000000D01*
X62859420Y-58490000D02*
X63140580Y-58490000D01*
X62859420Y-59510000D02*
X63140580Y-59510000D01*
X67859420Y-53490000D02*
X68140580Y-53490000D01*
X67859420Y-54510000D02*
X68140580Y-54510000D01*
X67762742Y-74477500D02*
X68237258Y-74477500D01*
X67762742Y-75522500D02*
X68237258Y-75522500D01*
X80860000Y-52420000D02*
X83060000Y-52420000D01*
X80860000Y-54520000D02*
X80860000Y-52420000D01*
X81060000Y-52620000D02*
X88860000Y-52620000D01*
X81060000Y-65320000D02*
X81060000Y-52620000D01*
X83222000Y-57603000D02*
X83222000Y-58238000D01*
X83222000Y-58238000D02*
X83882000Y-58238000D01*
X83882000Y-57730000D02*
X83882000Y-58746000D01*
X83882000Y-58746000D02*
X85787000Y-58746000D01*
X85406000Y-57730000D02*
X84771000Y-58746000D01*
X85787000Y-57730000D02*
X83882000Y-57730000D01*
X85787000Y-57730000D02*
X85787000Y-58746000D01*
X86422000Y-57603000D02*
X86422000Y-58238000D01*
X86422000Y-58238000D02*
X85787000Y-58238000D01*
X88860000Y-52620000D02*
X88860000Y-65320000D01*
X88860000Y-65320000D02*
X81060000Y-65320000D01*
X61940000Y-62440000D02*
X66060000Y-62440000D01*
X61940000Y-62535000D02*
X61940000Y-62440000D01*
X61940000Y-67560000D02*
X61940000Y-67465000D01*
X66060000Y-62440000D02*
X66060000Y-62535000D01*
X66060000Y-67465000D02*
X66060000Y-67560000D01*
X66060000Y-67560000D02*
X61940000Y-67560000D01*
X61400000Y-62530000D02*
X61160000Y-62200000D01*
X61640000Y-62200000D01*
X61400000Y-62530000D01*
G36*
X61400000Y-62530000D02*
G01*
X61160000Y-62200000D01*
X61640000Y-62200000D01*
X61400000Y-62530000D01*
G37*
X82272936Y-74090000D02*
X83727064Y-74090000D01*
X82272936Y-75910000D02*
X83727064Y-75910000D01*
X67762742Y-78477500D02*
X68237258Y-78477500D01*
X67762742Y-79522500D02*
X68237258Y-79522500D01*
X77762742Y-79477500D02*
X78237258Y-79477500D01*
X77762742Y-80522500D02*
X78237258Y-80522500D01*
X86762742Y-76477500D02*
X87237258Y-76477500D01*
X86762742Y-77522500D02*
X87237258Y-77522500D01*
X90620000Y-64350000D02*
X92000000Y-64350000D01*
X90620000Y-65730000D02*
X90620000Y-64350000D01*
X90620000Y-67000000D02*
X90620000Y-69650000D01*
X90620000Y-67000000D02*
X93380000Y-67000000D01*
X90620000Y-69650000D02*
X93380000Y-69650000D01*
X93380000Y-67000000D02*
X93380000Y-69650000D01*
X71288748Y-78090000D02*
X72711252Y-78090000D01*
X71288748Y-79910000D02*
X72711252Y-79910000D01*
X58762742Y-73477500D02*
X59237258Y-73477500D01*
X58762742Y-74522500D02*
X59237258Y-74522500D01*
X76762742Y-56477500D02*
X77237258Y-56477500D01*
X76762742Y-57522500D02*
X77237258Y-57522500D01*
X70562500Y-60152500D02*
X71350000Y-60152500D01*
X70956250Y-59758750D02*
X70956250Y-60546250D01*
X71590000Y-59654437D02*
X71590000Y-60940000D01*
X71590000Y-59654437D02*
X72654437Y-58590000D01*
X71590000Y-64345563D02*
X71590000Y-63060000D01*
X71590000Y-64345563D02*
X72654437Y-65410000D01*
X72654437Y-58590000D02*
X78410000Y-58590000D01*
X72654437Y-65410000D02*
X78410000Y-65410000D01*
X78410000Y-58590000D02*
X78410000Y-60940000D01*
X78410000Y-65410000D02*
X78410000Y-63060000D01*
X72762742Y-74477500D02*
X73237258Y-74477500D01*
X72762742Y-75522500D02*
X73237258Y-75522500D01*
X51620000Y-55080000D02*
X53000000Y-55080000D01*
X51620000Y-56460000D02*
X51620000Y-55080000D01*
X51620000Y-57730000D02*
X51620000Y-62920000D01*
X51620000Y-57730000D02*
X54380000Y-57730000D01*
X51620000Y-62920000D02*
X54380000Y-62920000D01*
X54380000Y-57730000D02*
X54380000Y-62920000D01*
%LPC*%
D11*
X87950000Y-71000000D03*
X90050000Y-71000000D03*
D12*
X77062500Y-74050000D03*
X77062500Y-75950000D03*
X78937500Y-75000000D03*
D13*
X92000000Y-74730000D03*
D14*
X92000000Y-77270000D03*
D13*
X53000000Y-68730000D03*
D14*
X53000000Y-71270000D03*
D15*
X73175000Y-69000000D03*
X74825000Y-69000000D03*
D16*
X53000000Y-81000000D03*
D15*
X67175000Y-72000000D03*
X68825000Y-72000000D03*
D17*
X58937500Y-54000000D03*
X61062500Y-54000000D03*
D18*
X63050000Y-76000000D03*
X64950000Y-76000000D03*
D19*
X56525000Y-70000000D03*
X59475000Y-70000000D03*
D18*
X63050000Y-54000000D03*
X64950000Y-54000000D03*
D20*
X80350000Y-70000000D03*
X83650000Y-70000000D03*
D21*
X62225000Y-59000000D03*
X63775000Y-59000000D03*
X67225000Y-54000000D03*
X68775000Y-54000000D03*
D16*
X93000000Y-53000000D03*
D15*
X67175000Y-75000000D03*
X68825000Y-75000000D03*
D22*
X82460000Y-53920000D03*
D23*
X82460000Y-56460000D03*
X82460000Y-64080000D03*
X87540000Y-64080000D03*
X87540000Y-56460000D03*
X87540000Y-53920000D03*
D24*
X61525000Y-63095000D03*
X61525000Y-64365000D03*
X61525000Y-65635000D03*
X61525000Y-66905000D03*
X66475000Y-66905000D03*
X66475000Y-65635000D03*
X66475000Y-64365000D03*
X66475000Y-63095000D03*
D25*
X81537500Y-75000000D03*
X84462500Y-75000000D03*
D15*
X67175000Y-79000000D03*
X68825000Y-79000000D03*
X77175000Y-80000000D03*
X78825000Y-80000000D03*
X86175000Y-77000000D03*
X87825000Y-77000000D03*
D13*
X92000000Y-65730000D03*
D14*
X92000000Y-68270000D03*
D19*
X70525000Y-79000000D03*
X73475000Y-79000000D03*
D15*
X58175000Y-74000000D03*
X59825000Y-74000000D03*
X76175000Y-57000000D03*
X77825000Y-57000000D03*
D26*
X72500000Y-62000000D03*
X77500000Y-62000000D03*
D15*
X72175000Y-75000000D03*
X73825000Y-75000000D03*
D13*
X53000000Y-56460000D03*
D14*
X53000000Y-59000000D03*
X53000000Y-61540000D03*
%LPD*%
M02*
