G04 #@! TF.GenerationSoftware,KiCad,Pcbnew,9.0.2+dfsg-1*
G04 #@! TF.CreationDate,2026-10-02T20:04:34+00:00*
G04 #@! TF.ProjectId,Ardor_Line_Out,4172646f-725f-44c6-996e-655f4f75742e,rev?*
G04 #@! TF.SameCoordinates,Original*
G04 #@! TF.FileFunction,Copper,L2,Bot*
G04 #@! TF.FilePolarity,Positive*
%FSLAX46Y46*%
G04 Gerber Fmt 4.6, Leading zero omitted, Abs format (unit mm)*
G04 Created by KiCad (PCBNEW 9.0.2+dfsg-1) date 2026-10-02 20:04:34*
%MOMM*%
%LPD*%
G01*
G04 APERTURE LIST*
G04 #@! TA.AperFunction,ComponentPad*
%ADD10R,1.700000X1.700000*%
G04 #@! TD*
G04 #@! TA.AperFunction,ComponentPad*
%ADD11C,1.700000*%
G04 #@! TD*
G04 #@! TA.AperFunction,ComponentPad*
%ADD12R,2.000000X2.000000*%
G04 #@! TD*
G04 #@! TA.AperFunction,ComponentPad*
%ADD13C,2.000000*%
G04 #@! TD*
G04 #@! TA.AperFunction,ViaPad*
%ADD14C,0.600000*%
G04 #@! TD*
G04 #@! TA.AperFunction,Conductor*
%ADD15C,0.200000*%
G04 #@! TD*
G04 APERTURE END LIST*
D10*
X92000000Y-74730000D03*
D11*
X92000000Y-77270000D03*
D10*
X53000000Y-68730000D03*
D11*
X53000000Y-71270000D03*
D12*
X82460000Y-53920000D03*
D13*
X82460000Y-56460000D03*
X82460000Y-64080000D03*
X87540000Y-64080000D03*
X87540000Y-56460000D03*
X87540000Y-53920000D03*
D10*
X92000000Y-65730000D03*
D11*
X92000000Y-68270000D03*
D10*
X53000000Y-56460000D03*
D11*
X53000000Y-59000000D03*
X53000000Y-61540000D03*
D14*
X69000000Y-67000000D03*
X84000000Y-79000000D03*
X63000000Y-56000000D03*
X65162499Y-53898500D03*
X73000000Y-73000000D03*
X58000000Y-78000000D03*
X90000000Y-72000000D03*
D15*
X54296100Y-56604400D02*
X82315600Y-56604400D01*
X54151700Y-56460000D02*
X54296100Y-56604400D01*
X53000000Y-56460000D02*
X54151700Y-56460000D01*
X82315600Y-56604400D02*
X82460000Y-56460000D01*
X87540000Y-64080000D02*
X82460000Y-64080000D01*
X92000000Y-65730000D02*
X89190000Y-65730000D01*
X89190000Y-65730000D02*
X87540000Y-64080000D01*
G04 #@! TA.AperFunction,Conductor*
G36*
X95458691Y-50519407D02*
G01*
X95494655Y-50568907D01*
X95499500Y-50599500D01*
X95499500Y-83400500D01*
X95480593Y-83458691D01*
X95431093Y-83494655D01*
X95400500Y-83499500D01*
X50599500Y-83499500D01*
X50541309Y-83480593D01*
X50505345Y-83431093D01*
X50500500Y-83400500D01*
X50500500Y-80893709D01*
X51649500Y-80893709D01*
X51649500Y-81106290D01*
X51682752Y-81316238D01*
X51748443Y-81518412D01*
X51844948Y-81707815D01*
X51844950Y-81707819D01*
X51969891Y-81879786D01*
X51969893Y-81879788D01*
X51969896Y-81879792D01*
X52120208Y-82030104D01*
X52120211Y-82030106D01*
X52120213Y-82030108D01*
X52292180Y-82155049D01*
X52292184Y-82155051D01*
X52481588Y-82251557D01*
X52683757Y-82317246D01*
X52683758Y-82317246D01*
X52683761Y-82317247D01*
X52893710Y-82350500D01*
X52893713Y-82350500D01*
X53106290Y-82350500D01*
X53316238Y-82317247D01*
X53316239Y-82317246D01*
X53316243Y-82317246D01*
X53518412Y-82251557D01*
X53707816Y-82155051D01*
X53879792Y-82030104D01*
X54030104Y-81879792D01*
X54155051Y-81707816D01*
X54251557Y-81518412D01*
X54317246Y-81316243D01*
X54350500Y-81106287D01*
X54350500Y-80893713D01*
X54350500Y-80893709D01*
X54317247Y-80683761D01*
X54317246Y-80683757D01*
X54251557Y-80481588D01*
X54155051Y-80292184D01*
X54155049Y-80292180D01*
X54030108Y-80120213D01*
X54030106Y-80120211D01*
X54030104Y-80120208D01*
X53879792Y-79969896D01*
X53879788Y-79969893D01*
X53879786Y-79969891D01*
X53707819Y-79844950D01*
X53707815Y-79844948D01*
X53518412Y-79748443D01*
X53316238Y-79682752D01*
X53106290Y-79649500D01*
X53106287Y-79649500D01*
X52893713Y-79649500D01*
X52893710Y-79649500D01*
X52683761Y-79682752D01*
X52481587Y-79748443D01*
X52292184Y-79844948D01*
X52292180Y-79844950D01*
X52120213Y-79969891D01*
X51969891Y-80120213D01*
X51844950Y-80292180D01*
X51844948Y-80292184D01*
X51748443Y-80481587D01*
X51682752Y-80683761D01*
X51649500Y-80893709D01*
X50500500Y-80893709D01*
X50500500Y-77183424D01*
X90900000Y-77183424D01*
X90900000Y-77356575D01*
X90927084Y-77527579D01*
X90980588Y-77692248D01*
X91059195Y-77846524D01*
X91059197Y-77846528D01*
X91123219Y-77934646D01*
X91556328Y-77501536D01*
X91599901Y-77577007D01*
X91692993Y-77670099D01*
X91768460Y-77713670D01*
X91335352Y-78146778D01*
X91423477Y-78210805D01*
X91577751Y-78289411D01*
X91742420Y-78342915D01*
X91913425Y-78370000D01*
X92086575Y-78370000D01*
X92257579Y-78342915D01*
X92422248Y-78289411D01*
X92576524Y-78210804D01*
X92576530Y-78210800D01*
X92664646Y-78146779D01*
X92664646Y-78146778D01*
X92231538Y-77713670D01*
X92307007Y-77670099D01*
X92400099Y-77577007D01*
X92443670Y-77501538D01*
X92876778Y-77934646D01*
X92876779Y-77934646D01*
X92940800Y-77846530D01*
X92940804Y-77846524D01*
X93019411Y-77692248D01*
X93072915Y-77527579D01*
X93100000Y-77356575D01*
X93100000Y-77183424D01*
X93072915Y-77012420D01*
X93019411Y-76847751D01*
X92940805Y-76693477D01*
X92876778Y-76605352D01*
X92443670Y-77038460D01*
X92400099Y-76962993D01*
X92307007Y-76869901D01*
X92231536Y-76826328D01*
X92664646Y-76393219D01*
X92576528Y-76329197D01*
X92576524Y-76329195D01*
X92422248Y-76250588D01*
X92257579Y-76197084D01*
X92086575Y-76170000D01*
X91913425Y-76170000D01*
X91742420Y-76197084D01*
X91577751Y-76250588D01*
X91423476Y-76329195D01*
X91335352Y-76393219D01*
X91768461Y-76826328D01*
X91692993Y-76869901D01*
X91599901Y-76962993D01*
X91556328Y-77038461D01*
X91123219Y-76605352D01*
X91059195Y-76693476D01*
X90980588Y-76847751D01*
X90927084Y-77012420D01*
X90900000Y-77183424D01*
X50500500Y-77183424D01*
X50500500Y-73860253D01*
X90949500Y-73860253D01*
X90949500Y-75599746D01*
X90949501Y-75599758D01*
X90961132Y-75658227D01*
X90961133Y-75658231D01*
X91005448Y-75724552D01*
X91071769Y-75768867D01*
X91116231Y-75777711D01*
X91130241Y-75780498D01*
X91130246Y-75780498D01*
X91130252Y-75780500D01*
X91130253Y-75780500D01*
X92869747Y-75780500D01*
X92869748Y-75780500D01*
X92928231Y-75768867D01*
X92994552Y-75724552D01*
X93038867Y-75658231D01*
X93050500Y-75599748D01*
X93050500Y-73860252D01*
X93038867Y-73801769D01*
X92994552Y-73735448D01*
X92994548Y-73735445D01*
X92928233Y-73691134D01*
X92928231Y-73691133D01*
X92928228Y-73691132D01*
X92928227Y-73691132D01*
X92869758Y-73679501D01*
X92869748Y-73679500D01*
X91130252Y-73679500D01*
X91130251Y-73679500D01*
X91130241Y-73679501D01*
X91071772Y-73691132D01*
X91071766Y-73691134D01*
X91005451Y-73735445D01*
X91005445Y-73735451D01*
X90961134Y-73801766D01*
X90961132Y-73801772D01*
X90949501Y-73860241D01*
X90949500Y-73860253D01*
X50500500Y-73860253D01*
X50500500Y-71183424D01*
X51900000Y-71183424D01*
X51900000Y-71356575D01*
X51927084Y-71527579D01*
X51980588Y-71692248D01*
X52059195Y-71846524D01*
X52059197Y-71846528D01*
X52123219Y-71934646D01*
X52556328Y-71501536D01*
X52599901Y-71577007D01*
X52692993Y-71670099D01*
X52768460Y-71713670D01*
X52335352Y-72146778D01*
X52423477Y-72210805D01*
X52577751Y-72289411D01*
X52742420Y-72342915D01*
X52913425Y-72370000D01*
X53086575Y-72370000D01*
X53257579Y-72342915D01*
X53422248Y-72289411D01*
X53576524Y-72210804D01*
X53576530Y-72210800D01*
X53664646Y-72146779D01*
X53664646Y-72146778D01*
X53231538Y-71713670D01*
X53307007Y-71670099D01*
X53400099Y-71577007D01*
X53443670Y-71501538D01*
X53876778Y-71934646D01*
X53876779Y-71934646D01*
X53940800Y-71846530D01*
X53940804Y-71846524D01*
X54019411Y-71692248D01*
X54072915Y-71527579D01*
X54100000Y-71356575D01*
X54100000Y-71183424D01*
X54072915Y-71012420D01*
X54019411Y-70847751D01*
X53940805Y-70693477D01*
X53876778Y-70605352D01*
X53443670Y-71038460D01*
X53400099Y-70962993D01*
X53307007Y-70869901D01*
X53231536Y-70826328D01*
X53664646Y-70393219D01*
X53576528Y-70329197D01*
X53576524Y-70329195D01*
X53422248Y-70250588D01*
X53257579Y-70197084D01*
X53086575Y-70170000D01*
X52913425Y-70170000D01*
X52742420Y-70197084D01*
X52577751Y-70250588D01*
X52423476Y-70329195D01*
X52335352Y-70393219D01*
X52768461Y-70826328D01*
X52692993Y-70869901D01*
X52599901Y-70962993D01*
X52556328Y-71038461D01*
X52123219Y-70605352D01*
X52059195Y-70693476D01*
X51980588Y-70847751D01*
X51927084Y-71012420D01*
X51900000Y-71183424D01*
X50500500Y-71183424D01*
X50500500Y-67860253D01*
X51949500Y-67860253D01*
X51949500Y-69599746D01*
X51949501Y-69599758D01*
X51961132Y-69658227D01*
X51961133Y-69658231D01*
X52005448Y-69724552D01*
X52071769Y-69768867D01*
X52116231Y-69777711D01*
X52130241Y-69780498D01*
X52130246Y-69780498D01*
X52130252Y-69780500D01*
X52130253Y-69780500D01*
X53869747Y-69780500D01*
X53869748Y-69780500D01*
X53928231Y-69768867D01*
X53994552Y-69724552D01*
X54038867Y-69658231D01*
X54050500Y-69599748D01*
X54050500Y-68183424D01*
X90900000Y-68183424D01*
X90900000Y-68356575D01*
X90927084Y-68527579D01*
X90980588Y-68692248D01*
X91059195Y-68846524D01*
X91059197Y-68846528D01*
X91123219Y-68934646D01*
X91556328Y-68501536D01*
X91599901Y-68577007D01*
X91692993Y-68670099D01*
X91768460Y-68713670D01*
X91335352Y-69146778D01*
X91423477Y-69210805D01*
X91577751Y-69289411D01*
X91742420Y-69342915D01*
X91913425Y-69370000D01*
X92086575Y-69370000D01*
X92257579Y-69342915D01*
X92422248Y-69289411D01*
X92576524Y-69210804D01*
X92576530Y-69210800D01*
X92664646Y-69146779D01*
X92664646Y-69146778D01*
X92231538Y-68713670D01*
X92307007Y-68670099D01*
X92400099Y-68577007D01*
X92443670Y-68501538D01*
X92876778Y-68934646D01*
X92876779Y-68934646D01*
X92940800Y-68846530D01*
X92940804Y-68846524D01*
X93019411Y-68692248D01*
X93072915Y-68527579D01*
X93100000Y-68356575D01*
X93100000Y-68183424D01*
X93072915Y-68012420D01*
X93019411Y-67847751D01*
X92940805Y-67693477D01*
X92876778Y-67605352D01*
X92443670Y-68038460D01*
X92400099Y-67962993D01*
X92307007Y-67869901D01*
X92231536Y-67826328D01*
X92664646Y-67393219D01*
X92576528Y-67329197D01*
X92576524Y-67329195D01*
X92422248Y-67250588D01*
X92257579Y-67197084D01*
X92086575Y-67170000D01*
X91913425Y-67170000D01*
X91742420Y-67197084D01*
X91577751Y-67250588D01*
X91423476Y-67329195D01*
X91335352Y-67393219D01*
X91768461Y-67826328D01*
X91692993Y-67869901D01*
X91599901Y-67962993D01*
X91556328Y-68038461D01*
X91123219Y-67605352D01*
X91059195Y-67693476D01*
X90980588Y-67847751D01*
X90927084Y-68012420D01*
X90900000Y-68183424D01*
X54050500Y-68183424D01*
X54050500Y-67860252D01*
X54038867Y-67801769D01*
X53994552Y-67735448D01*
X53931739Y-67693477D01*
X53928233Y-67691134D01*
X53928231Y-67691133D01*
X53928228Y-67691132D01*
X53928227Y-67691132D01*
X53869758Y-67679501D01*
X53869748Y-67679500D01*
X52130252Y-67679500D01*
X52130251Y-67679500D01*
X52130241Y-67679501D01*
X52071772Y-67691132D01*
X52071766Y-67691134D01*
X52005451Y-67735445D01*
X52005445Y-67735451D01*
X51961134Y-67801766D01*
X51961132Y-67801772D01*
X51949501Y-67860241D01*
X51949500Y-67860253D01*
X50500500Y-67860253D01*
X50500500Y-63985515D01*
X81259500Y-63985515D01*
X81259500Y-64174484D01*
X81289058Y-64361113D01*
X81347453Y-64540832D01*
X81423987Y-64691040D01*
X81433240Y-64709199D01*
X81544310Y-64862073D01*
X81677927Y-64995690D01*
X81830801Y-65106760D01*
X81999168Y-65192547D01*
X82178882Y-65250940D01*
X82178883Y-65250940D01*
X82178886Y-65250941D01*
X82365516Y-65280500D01*
X82365519Y-65280500D01*
X82554484Y-65280500D01*
X82741113Y-65250941D01*
X82741114Y-65250940D01*
X82741118Y-65250940D01*
X82920832Y-65192547D01*
X83089199Y-65106760D01*
X83242073Y-64995690D01*
X83375690Y-64862073D01*
X83486760Y-64709199D01*
X83572547Y-64540832D01*
X83602415Y-64448906D01*
X83638379Y-64399407D01*
X83696570Y-64380500D01*
X86303430Y-64380500D01*
X86361621Y-64399407D01*
X86397585Y-64448907D01*
X86427453Y-64540832D01*
X86503987Y-64691040D01*
X86513240Y-64709199D01*
X86624310Y-64862073D01*
X86757927Y-64995690D01*
X86910801Y-65106760D01*
X87079168Y-65192547D01*
X87258882Y-65250940D01*
X87258883Y-65250940D01*
X87258886Y-65250941D01*
X87445516Y-65280500D01*
X87445519Y-65280500D01*
X87634484Y-65280500D01*
X87821113Y-65250941D01*
X87821114Y-65250940D01*
X87821118Y-65250940D01*
X88000832Y-65192547D01*
X88086952Y-65148665D01*
X88147382Y-65139094D01*
X88201899Y-65166870D01*
X88949540Y-65914511D01*
X88949539Y-65914511D01*
X89005489Y-65970460D01*
X89074007Y-66010019D01*
X89074011Y-66010021D01*
X89150435Y-66030499D01*
X89150437Y-66030500D01*
X89150438Y-66030500D01*
X89229562Y-66030500D01*
X90850500Y-66030500D01*
X90908691Y-66049407D01*
X90944655Y-66098907D01*
X90949500Y-66129500D01*
X90949500Y-66599746D01*
X90949501Y-66599758D01*
X90961132Y-66658227D01*
X90961133Y-66658231D01*
X91005448Y-66724552D01*
X91071769Y-66768867D01*
X91116231Y-66777711D01*
X91130241Y-66780498D01*
X91130246Y-66780498D01*
X91130252Y-66780500D01*
X91130253Y-66780500D01*
X92869747Y-66780500D01*
X92869748Y-66780500D01*
X92928231Y-66768867D01*
X92994552Y-66724552D01*
X93038867Y-66658231D01*
X93050500Y-66599748D01*
X93050500Y-64860252D01*
X93038867Y-64801769D01*
X92994552Y-64735448D01*
X92994548Y-64735445D01*
X92928233Y-64691134D01*
X92928231Y-64691133D01*
X92928228Y-64691132D01*
X92928227Y-64691132D01*
X92869758Y-64679501D01*
X92869748Y-64679500D01*
X91130252Y-64679500D01*
X91130251Y-64679500D01*
X91130241Y-64679501D01*
X91071772Y-64691132D01*
X91071766Y-64691134D01*
X91005451Y-64735445D01*
X91005445Y-64735451D01*
X90961134Y-64801766D01*
X90961132Y-64801772D01*
X90949501Y-64860241D01*
X90949500Y-64860253D01*
X90949500Y-65330500D01*
X90930593Y-65388691D01*
X90881093Y-65424655D01*
X90850500Y-65429500D01*
X89355479Y-65429500D01*
X89297288Y-65410593D01*
X89285475Y-65400504D01*
X88626871Y-64741900D01*
X88599094Y-64687383D01*
X88608664Y-64626955D01*
X88652547Y-64540832D01*
X88710940Y-64361118D01*
X88740500Y-64174481D01*
X88740500Y-63985519D01*
X88740500Y-63985515D01*
X88710941Y-63798886D01*
X88682415Y-63711093D01*
X88652547Y-63619168D01*
X88566760Y-63450801D01*
X88455690Y-63297927D01*
X88322073Y-63164310D01*
X88169199Y-63053240D01*
X88169198Y-63053239D01*
X88169196Y-63053238D01*
X88000832Y-62967453D01*
X87821113Y-62909058D01*
X87634484Y-62879500D01*
X87634481Y-62879500D01*
X87445519Y-62879500D01*
X87445516Y-62879500D01*
X87258886Y-62909058D01*
X87079167Y-62967453D01*
X86910803Y-63053238D01*
X86757928Y-63164309D01*
X86624309Y-63297928D01*
X86513238Y-63450803D01*
X86427453Y-63619167D01*
X86397585Y-63711093D01*
X86361621Y-63760593D01*
X86303430Y-63779500D01*
X83696570Y-63779500D01*
X83638379Y-63760593D01*
X83602415Y-63711093D01*
X83572547Y-63619168D01*
X83486760Y-63450801D01*
X83375690Y-63297927D01*
X83242073Y-63164310D01*
X83089199Y-63053240D01*
X83089198Y-63053239D01*
X83089196Y-63053238D01*
X82920832Y-62967453D01*
X82741113Y-62909058D01*
X82554484Y-62879500D01*
X82554481Y-62879500D01*
X82365519Y-62879500D01*
X82365516Y-62879500D01*
X82178886Y-62909058D01*
X81999167Y-62967453D01*
X81830803Y-63053238D01*
X81677928Y-63164309D01*
X81544309Y-63297928D01*
X81433238Y-63450803D01*
X81347453Y-63619167D01*
X81289058Y-63798886D01*
X81259500Y-63985515D01*
X50500500Y-63985515D01*
X50500500Y-61436532D01*
X51949500Y-61436532D01*
X51949500Y-61643467D01*
X51989869Y-61846418D01*
X52069058Y-62037597D01*
X52069059Y-62037598D01*
X52184023Y-62209655D01*
X52330345Y-62355977D01*
X52502402Y-62470941D01*
X52693580Y-62550130D01*
X52896535Y-62590500D01*
X52896536Y-62590500D01*
X53103464Y-62590500D01*
X53103465Y-62590500D01*
X53306420Y-62550130D01*
X53497598Y-62470941D01*
X53669655Y-62355977D01*
X53815977Y-62209655D01*
X53930941Y-62037598D01*
X54010130Y-61846420D01*
X54050500Y-61643465D01*
X54050500Y-61436535D01*
X54010130Y-61233580D01*
X53930941Y-61042402D01*
X53815977Y-60870345D01*
X53669655Y-60724023D01*
X53497598Y-60609059D01*
X53497599Y-60609059D01*
X53497597Y-60609058D01*
X53306418Y-60529869D01*
X53103467Y-60489500D01*
X53103465Y-60489500D01*
X52896535Y-60489500D01*
X52896532Y-60489500D01*
X52693581Y-60529869D01*
X52502402Y-60609058D01*
X52330348Y-60724020D01*
X52184020Y-60870348D01*
X52069058Y-61042402D01*
X51989869Y-61233581D01*
X51949500Y-61436532D01*
X50500500Y-61436532D01*
X50500500Y-58913424D01*
X51900000Y-58913424D01*
X51900000Y-59086575D01*
X51927084Y-59257579D01*
X51980588Y-59422248D01*
X52059195Y-59576524D01*
X52059197Y-59576528D01*
X52123219Y-59664646D01*
X52556328Y-59231536D01*
X52599901Y-59307007D01*
X52692993Y-59400099D01*
X52768460Y-59443670D01*
X52335352Y-59876778D01*
X52423477Y-59940805D01*
X52577751Y-60019411D01*
X52742420Y-60072915D01*
X52913425Y-60100000D01*
X53086575Y-60100000D01*
X53257579Y-60072915D01*
X53422248Y-60019411D01*
X53576524Y-59940804D01*
X53576530Y-59940800D01*
X53664646Y-59876779D01*
X53664646Y-59876778D01*
X53231538Y-59443670D01*
X53307007Y-59400099D01*
X53400099Y-59307007D01*
X53443670Y-59231538D01*
X53876778Y-59664646D01*
X53876779Y-59664646D01*
X53940800Y-59576530D01*
X53940804Y-59576524D01*
X54019411Y-59422248D01*
X54072915Y-59257579D01*
X54100000Y-59086575D01*
X54100000Y-58913424D01*
X54072915Y-58742420D01*
X54019411Y-58577751D01*
X53940805Y-58423477D01*
X53876778Y-58335352D01*
X53443670Y-58768460D01*
X53400099Y-58692993D01*
X53307007Y-58599901D01*
X53231536Y-58556328D01*
X53664646Y-58123219D01*
X53576528Y-58059197D01*
X53576524Y-58059195D01*
X53422248Y-57980588D01*
X53257579Y-57927084D01*
X53086575Y-57900000D01*
X52913425Y-57900000D01*
X52742420Y-57927084D01*
X52577751Y-57980588D01*
X52423476Y-58059195D01*
X52335352Y-58123219D01*
X52768461Y-58556328D01*
X52692993Y-58599901D01*
X52599901Y-58692993D01*
X52556328Y-58768461D01*
X52123219Y-58335352D01*
X52059195Y-58423476D01*
X51980588Y-58577751D01*
X51927084Y-58742420D01*
X51900000Y-58913424D01*
X50500500Y-58913424D01*
X50500500Y-55590253D01*
X51949500Y-55590253D01*
X51949500Y-57329746D01*
X51949501Y-57329758D01*
X51958638Y-57375690D01*
X51961133Y-57388231D01*
X52005448Y-57454552D01*
X52071769Y-57498867D01*
X52116231Y-57507711D01*
X52130241Y-57510498D01*
X52130246Y-57510498D01*
X52130252Y-57510500D01*
X52130253Y-57510500D01*
X53869747Y-57510500D01*
X53869748Y-57510500D01*
X53928231Y-57498867D01*
X53994552Y-57454552D01*
X54038867Y-57388231D01*
X54050500Y-57329748D01*
X54050500Y-56978710D01*
X54069407Y-56920519D01*
X54118907Y-56884555D01*
X54175125Y-56883084D01*
X54180108Y-56884419D01*
X54180111Y-56884421D01*
X54256538Y-56904900D01*
X54335662Y-56904900D01*
X81278668Y-56904900D01*
X81336859Y-56923807D01*
X81366876Y-56958953D01*
X81433240Y-57089199D01*
X81544310Y-57242073D01*
X81677927Y-57375690D01*
X81830801Y-57486760D01*
X81999168Y-57572547D01*
X82178882Y-57630940D01*
X82178883Y-57630940D01*
X82178886Y-57630941D01*
X82365516Y-57660500D01*
X82365519Y-57660500D01*
X82554484Y-57660500D01*
X82741113Y-57630941D01*
X82741114Y-57630940D01*
X82741118Y-57630940D01*
X82920832Y-57572547D01*
X83089199Y-57486760D01*
X83242073Y-57375690D01*
X83375690Y-57242073D01*
X83486760Y-57089199D01*
X83572547Y-56920832D01*
X83630940Y-56741118D01*
X83660500Y-56554481D01*
X83660500Y-56365519D01*
X83660500Y-56365515D01*
X83630941Y-56178886D01*
X83592475Y-56060500D01*
X83572547Y-55999168D01*
X83486760Y-55830801D01*
X83375690Y-55677927D01*
X83242073Y-55544310D01*
X83089199Y-55433240D01*
X83089198Y-55433239D01*
X83089196Y-55433238D01*
X82939981Y-55357210D01*
X82896716Y-55313945D01*
X82887145Y-55253513D01*
X82914922Y-55198997D01*
X82969439Y-55171219D01*
X82984926Y-55170000D01*
X83484623Y-55170000D01*
X83484624Y-55169999D01*
X83557546Y-55155493D01*
X83557548Y-55155492D01*
X83640237Y-55100241D01*
X83640241Y-55100237D01*
X83695492Y-55017548D01*
X83695493Y-55017546D01*
X83709999Y-54944624D01*
X83710000Y-54944622D01*
X83710000Y-54070001D01*
X83709999Y-54070000D01*
X82937445Y-54070000D01*
X82960000Y-53985826D01*
X82960000Y-53854174D01*
X82952321Y-53825515D01*
X86339500Y-53825515D01*
X86339500Y-54014484D01*
X86369058Y-54201113D01*
X86417597Y-54350500D01*
X86427453Y-54380832D01*
X86513240Y-54549199D01*
X86624310Y-54702073D01*
X86757927Y-54835690D01*
X86910801Y-54946760D01*
X87079168Y-55032547D01*
X87258882Y-55090940D01*
X87258883Y-55090940D01*
X87258886Y-55090941D01*
X87266954Y-55092219D01*
X87321471Y-55119996D01*
X87349248Y-55174513D01*
X87339677Y-55234945D01*
X87296412Y-55278210D01*
X87266954Y-55287781D01*
X87258886Y-55289058D01*
X87079167Y-55347453D01*
X86910803Y-55433238D01*
X86757928Y-55544309D01*
X86624309Y-55677928D01*
X86513238Y-55830803D01*
X86427453Y-55999167D01*
X86369058Y-56178886D01*
X86339500Y-56365515D01*
X86339500Y-56554484D01*
X86369058Y-56741113D01*
X86427453Y-56920832D01*
X86446877Y-56958955D01*
X86513240Y-57089199D01*
X86624310Y-57242073D01*
X86757927Y-57375690D01*
X86910801Y-57486760D01*
X87079168Y-57572547D01*
X87258882Y-57630940D01*
X87258883Y-57630940D01*
X87258886Y-57630941D01*
X87445516Y-57660500D01*
X87445519Y-57660500D01*
X87634484Y-57660500D01*
X87821113Y-57630941D01*
X87821114Y-57630940D01*
X87821118Y-57630940D01*
X88000832Y-57572547D01*
X88169199Y-57486760D01*
X88322073Y-57375690D01*
X88455690Y-57242073D01*
X88566760Y-57089199D01*
X88652547Y-56920832D01*
X88710940Y-56741118D01*
X88740500Y-56554481D01*
X88740500Y-56365519D01*
X88740500Y-56365515D01*
X88710941Y-56178886D01*
X88672475Y-56060500D01*
X88652547Y-55999168D01*
X88566760Y-55830801D01*
X88455690Y-55677927D01*
X88322073Y-55544310D01*
X88169199Y-55433240D01*
X88169198Y-55433239D01*
X88169196Y-55433238D01*
X88000832Y-55347453D01*
X87821113Y-55289058D01*
X87813046Y-55287781D01*
X87758529Y-55260004D01*
X87730751Y-55205488D01*
X87740322Y-55145056D01*
X87783586Y-55101791D01*
X87813046Y-55092219D01*
X87821113Y-55090941D01*
X87821114Y-55090940D01*
X87821118Y-55090940D01*
X88000832Y-55032547D01*
X88169199Y-54946760D01*
X88322073Y-54835690D01*
X88455690Y-54702073D01*
X88566760Y-54549199D01*
X88652547Y-54380832D01*
X88710940Y-54201118D01*
X88718237Y-54155049D01*
X88740500Y-54014484D01*
X88740500Y-53825515D01*
X88710941Y-53638886D01*
X88672280Y-53519901D01*
X88652547Y-53459168D01*
X88566760Y-53290801D01*
X88455690Y-53137927D01*
X88322073Y-53004310D01*
X88274732Y-52969914D01*
X88274731Y-52969913D01*
X88169845Y-52893709D01*
X91649500Y-52893709D01*
X91649500Y-53106290D01*
X91682752Y-53316238D01*
X91748443Y-53518412D01*
X91844948Y-53707815D01*
X91844950Y-53707819D01*
X91969891Y-53879786D01*
X91969893Y-53879788D01*
X91969896Y-53879792D01*
X92120208Y-54030104D01*
X92120211Y-54030106D01*
X92120213Y-54030108D01*
X92292180Y-54155049D01*
X92292184Y-54155051D01*
X92481588Y-54251557D01*
X92683757Y-54317246D01*
X92683758Y-54317246D01*
X92683761Y-54317247D01*
X92893710Y-54350500D01*
X92893713Y-54350500D01*
X93106290Y-54350500D01*
X93316238Y-54317247D01*
X93316239Y-54317246D01*
X93316243Y-54317246D01*
X93518412Y-54251557D01*
X93707816Y-54155051D01*
X93879792Y-54030104D01*
X94030104Y-53879792D01*
X94155051Y-53707816D01*
X94251557Y-53518412D01*
X94317246Y-53316243D01*
X94317247Y-53316238D01*
X94350500Y-53106290D01*
X94350500Y-52893709D01*
X94317247Y-52683761D01*
X94312776Y-52670000D01*
X94251557Y-52481588D01*
X94155051Y-52292184D01*
X94155049Y-52292180D01*
X94030108Y-52120213D01*
X94030106Y-52120211D01*
X94030104Y-52120208D01*
X93879792Y-51969896D01*
X93879788Y-51969893D01*
X93879786Y-51969891D01*
X93707819Y-51844950D01*
X93707815Y-51844948D01*
X93518412Y-51748443D01*
X93316238Y-51682752D01*
X93106290Y-51649500D01*
X93106287Y-51649500D01*
X92893713Y-51649500D01*
X92893710Y-51649500D01*
X92683761Y-51682752D01*
X92481587Y-51748443D01*
X92292184Y-51844948D01*
X92292180Y-51844950D01*
X92120213Y-51969891D01*
X91969891Y-52120213D01*
X91844950Y-52292180D01*
X91844948Y-52292184D01*
X91748443Y-52481587D01*
X91682752Y-52683761D01*
X91649500Y-52893709D01*
X88169845Y-52893709D01*
X88169204Y-52893243D01*
X88169198Y-52893239D01*
X88000832Y-52807453D01*
X87821113Y-52749058D01*
X87634484Y-52719500D01*
X87634481Y-52719500D01*
X87445519Y-52719500D01*
X87445516Y-52719500D01*
X87258886Y-52749058D01*
X87079167Y-52807453D01*
X86910803Y-52893238D01*
X86757928Y-53004309D01*
X86624309Y-53137928D01*
X86513238Y-53290803D01*
X86427453Y-53459167D01*
X86369058Y-53638886D01*
X86339500Y-53825515D01*
X82952321Y-53825515D01*
X82937445Y-53770000D01*
X83709999Y-53770000D01*
X83710000Y-53769999D01*
X83710000Y-52895377D01*
X83709999Y-52895375D01*
X83695493Y-52822453D01*
X83695492Y-52822451D01*
X83640241Y-52739762D01*
X83640237Y-52739758D01*
X83557548Y-52684507D01*
X83557546Y-52684506D01*
X83484624Y-52670000D01*
X82610001Y-52670000D01*
X82610000Y-52670001D01*
X82610000Y-53442554D01*
X82525826Y-53420000D01*
X82394174Y-53420000D01*
X82310000Y-53442554D01*
X82310000Y-52670001D01*
X82309999Y-52670000D01*
X81435375Y-52670000D01*
X81362453Y-52684506D01*
X81362451Y-52684507D01*
X81279762Y-52739758D01*
X81279758Y-52739762D01*
X81224507Y-52822451D01*
X81224506Y-52822453D01*
X81210000Y-52895375D01*
X81210000Y-53769999D01*
X81210001Y-53770000D01*
X81982555Y-53770000D01*
X81960000Y-53854174D01*
X81960000Y-53985826D01*
X81982555Y-54070000D01*
X81210001Y-54070000D01*
X81210000Y-54070001D01*
X81210000Y-54944624D01*
X81224506Y-55017546D01*
X81224507Y-55017548D01*
X81279758Y-55100237D01*
X81279762Y-55100241D01*
X81362451Y-55155492D01*
X81362453Y-55155493D01*
X81435375Y-55169999D01*
X81435377Y-55170000D01*
X81935074Y-55170000D01*
X81993265Y-55188907D01*
X82029229Y-55238407D01*
X82029229Y-55299593D01*
X81993265Y-55349093D01*
X81980019Y-55357210D01*
X81830803Y-55433238D01*
X81677928Y-55544309D01*
X81544309Y-55677928D01*
X81433238Y-55830803D01*
X81347453Y-55999167D01*
X81289058Y-56178887D01*
X81282486Y-56220386D01*
X81254709Y-56274903D01*
X81200193Y-56302681D01*
X81184705Y-56303900D01*
X54461579Y-56303900D01*
X54403388Y-56284993D01*
X54391576Y-56274904D01*
X54336210Y-56219539D01*
X54267692Y-56179980D01*
X54267688Y-56179978D01*
X54191264Y-56159500D01*
X54191262Y-56159500D01*
X54149500Y-56159500D01*
X54091309Y-56140593D01*
X54055345Y-56091093D01*
X54050500Y-56060500D01*
X54050500Y-55590253D01*
X54050498Y-55590241D01*
X54047711Y-55576231D01*
X54038867Y-55531769D01*
X53994552Y-55465448D01*
X53994548Y-55465445D01*
X53928233Y-55421134D01*
X53928231Y-55421133D01*
X53928228Y-55421132D01*
X53928227Y-55421132D01*
X53869758Y-55409501D01*
X53869748Y-55409500D01*
X52130252Y-55409500D01*
X52130251Y-55409500D01*
X52130241Y-55409501D01*
X52071772Y-55421132D01*
X52071766Y-55421134D01*
X52005451Y-55465445D01*
X52005445Y-55465451D01*
X51961134Y-55531766D01*
X51961132Y-55531772D01*
X51949501Y-55590241D01*
X51949500Y-55590253D01*
X50500500Y-55590253D01*
X50500500Y-50599500D01*
X50519407Y-50541309D01*
X50568907Y-50505345D01*
X50599500Y-50500500D01*
X95400500Y-50500500D01*
X95458691Y-50519407D01*
G37*
G04 #@! TD.AperFunction*
M02*
