G04 #@! TF.GenerationSoftware,KiCad,Pcbnew,9.0.2+dfsg-1*
G04 #@! TF.CreationDate,2026-10-02T15:26:37+00:00*
G04 #@! TF.ProjectId,Ardor_Line_Out,4172646f-725f-44c6-996e-655f4f75742e,rev?*
G04 #@! TF.SameCoordinates,Original*
G04 #@! TF.FileFunction,Legend,Bot*
G04 #@! TF.FilePolarity,Positive*
%FSLAX46Y46*%
G04 Gerber Fmt 4.6, Leading zero omitted, Abs format (unit mm)*
G04 Created by KiCad (PCBNEW 9.0.2+dfsg-1) date 2026-10-02 15:26:37*
%MOMM*%
%LPD*%
G01*
G04 APERTURE LIST*
%ADD10C,0.150000*%
%ADD11R,1.700000X1.700000*%
%ADD12C,1.700000*%
%ADD13C,2.200000*%
%ADD14R,2.000000X2.000000*%
%ADD15C,2.000000*%
G04 APERTURE END LIST*
D10*
X85799999Y-65292295D02*
X85647618Y-65292295D01*
X85647618Y-65292295D02*
X85571428Y-65330390D01*
X85571428Y-65330390D02*
X85495237Y-65406580D01*
X85495237Y-65406580D02*
X85457142Y-65558961D01*
X85457142Y-65558961D02*
X85457142Y-65825628D01*
X85457142Y-65825628D02*
X85495237Y-65978009D01*
X85495237Y-65978009D02*
X85571428Y-66054200D01*
X85571428Y-66054200D02*
X85647618Y-66092295D01*
X85647618Y-66092295D02*
X85799999Y-66092295D01*
X85799999Y-66092295D02*
X85876190Y-66054200D01*
X85876190Y-66054200D02*
X85952380Y-65978009D01*
X85952380Y-65978009D02*
X85990476Y-65825628D01*
X85990476Y-65825628D02*
X85990476Y-65558961D01*
X85990476Y-65558961D02*
X85952380Y-65406580D01*
X85952380Y-65406580D02*
X85876190Y-65330390D01*
X85876190Y-65330390D02*
X85799999Y-65292295D01*
X85114285Y-65292295D02*
X85114285Y-65939914D01*
X85114285Y-65939914D02*
X85076190Y-66016104D01*
X85076190Y-66016104D02*
X85038095Y-66054200D01*
X85038095Y-66054200D02*
X84961904Y-66092295D01*
X84961904Y-66092295D02*
X84809523Y-66092295D01*
X84809523Y-66092295D02*
X84733333Y-66054200D01*
X84733333Y-66054200D02*
X84695238Y-66016104D01*
X84695238Y-66016104D02*
X84657142Y-65939914D01*
X84657142Y-65939914D02*
X84657142Y-65292295D01*
X84390476Y-65292295D02*
X83933333Y-65292295D01*
X84161905Y-66092295D02*
X84161905Y-65292295D01*
X78690475Y-82169104D02*
X78214285Y-82169104D01*
X78785713Y-82454819D02*
X78452380Y-81454819D01*
X78452380Y-81454819D02*
X78119047Y-82454819D01*
X77214285Y-82454819D02*
X77547618Y-81978628D01*
X77785713Y-82454819D02*
X77785713Y-81454819D01*
X77785713Y-81454819D02*
X77404761Y-81454819D01*
X77404761Y-81454819D02*
X77309523Y-81502438D01*
X77309523Y-81502438D02*
X77261904Y-81550057D01*
X77261904Y-81550057D02*
X77214285Y-81645295D01*
X77214285Y-81645295D02*
X77214285Y-81788152D01*
X77214285Y-81788152D02*
X77261904Y-81883390D01*
X77261904Y-81883390D02*
X77309523Y-81931009D01*
X77309523Y-81931009D02*
X77404761Y-81978628D01*
X77404761Y-81978628D02*
X77785713Y-81978628D01*
X76785713Y-82454819D02*
X76785713Y-81454819D01*
X76785713Y-81454819D02*
X76547618Y-81454819D01*
X76547618Y-81454819D02*
X76404761Y-81502438D01*
X76404761Y-81502438D02*
X76309523Y-81597676D01*
X76309523Y-81597676D02*
X76261904Y-81692914D01*
X76261904Y-81692914D02*
X76214285Y-81883390D01*
X76214285Y-81883390D02*
X76214285Y-82026247D01*
X76214285Y-82026247D02*
X76261904Y-82216723D01*
X76261904Y-82216723D02*
X76309523Y-82311961D01*
X76309523Y-82311961D02*
X76404761Y-82407200D01*
X76404761Y-82407200D02*
X76547618Y-82454819D01*
X76547618Y-82454819D02*
X76785713Y-82454819D01*
X75595237Y-81454819D02*
X75404761Y-81454819D01*
X75404761Y-81454819D02*
X75309523Y-81502438D01*
X75309523Y-81502438D02*
X75214285Y-81597676D01*
X75214285Y-81597676D02*
X75166666Y-81788152D01*
X75166666Y-81788152D02*
X75166666Y-82121485D01*
X75166666Y-82121485D02*
X75214285Y-82311961D01*
X75214285Y-82311961D02*
X75309523Y-82407200D01*
X75309523Y-82407200D02*
X75404761Y-82454819D01*
X75404761Y-82454819D02*
X75595237Y-82454819D01*
X75595237Y-82454819D02*
X75690475Y-82407200D01*
X75690475Y-82407200D02*
X75785713Y-82311961D01*
X75785713Y-82311961D02*
X75833332Y-82121485D01*
X75833332Y-82121485D02*
X75833332Y-81788152D01*
X75833332Y-81788152D02*
X75785713Y-81597676D01*
X75785713Y-81597676D02*
X75690475Y-81502438D01*
X75690475Y-81502438D02*
X75595237Y-81454819D01*
X74166666Y-82454819D02*
X74499999Y-81978628D01*
X74738094Y-82454819D02*
X74738094Y-81454819D01*
X74738094Y-81454819D02*
X74357142Y-81454819D01*
X74357142Y-81454819D02*
X74261904Y-81502438D01*
X74261904Y-81502438D02*
X74214285Y-81550057D01*
X74214285Y-81550057D02*
X74166666Y-81645295D01*
X74166666Y-81645295D02*
X74166666Y-81788152D01*
X74166666Y-81788152D02*
X74214285Y-81883390D01*
X74214285Y-81883390D02*
X74261904Y-81931009D01*
X74261904Y-81931009D02*
X74357142Y-81978628D01*
X74357142Y-81978628D02*
X74738094Y-81978628D01*
X72499999Y-82454819D02*
X72976189Y-82454819D01*
X72976189Y-82454819D02*
X72976189Y-81454819D01*
X72166665Y-82454819D02*
X72166665Y-81454819D01*
X71690475Y-82454819D02*
X71690475Y-81454819D01*
X71690475Y-81454819D02*
X71119047Y-82454819D01*
X71119047Y-82454819D02*
X71119047Y-81454819D01*
X70642856Y-81931009D02*
X70309523Y-81931009D01*
X70166666Y-82454819D02*
X70642856Y-82454819D01*
X70642856Y-82454819D02*
X70642856Y-81454819D01*
X70642856Y-81454819D02*
X70166666Y-81454819D01*
X68976189Y-82454819D02*
X68976189Y-81454819D01*
X68976189Y-81454819D02*
X68642856Y-82169104D01*
X68642856Y-82169104D02*
X68309523Y-81454819D01*
X68309523Y-81454819D02*
X68309523Y-82454819D01*
X67309523Y-82454819D02*
X67880951Y-82454819D01*
X67595237Y-82454819D02*
X67595237Y-81454819D01*
X67595237Y-81454819D02*
X67690475Y-81597676D01*
X67690475Y-81597676D02*
X67785713Y-81692914D01*
X67785713Y-81692914D02*
X67880951Y-81740533D01*
X58109523Y-70870390D02*
X58185713Y-70832295D01*
X58185713Y-70832295D02*
X58299999Y-70832295D01*
X58299999Y-70832295D02*
X58414285Y-70870390D01*
X58414285Y-70870390D02*
X58490475Y-70946580D01*
X58490475Y-70946580D02*
X58528570Y-71022771D01*
X58528570Y-71022771D02*
X58566666Y-71175152D01*
X58566666Y-71175152D02*
X58566666Y-71289438D01*
X58566666Y-71289438D02*
X58528570Y-71441819D01*
X58528570Y-71441819D02*
X58490475Y-71518009D01*
X58490475Y-71518009D02*
X58414285Y-71594200D01*
X58414285Y-71594200D02*
X58299999Y-71632295D01*
X58299999Y-71632295D02*
X58223808Y-71632295D01*
X58223808Y-71632295D02*
X58109523Y-71594200D01*
X58109523Y-71594200D02*
X58071427Y-71556104D01*
X58071427Y-71556104D02*
X58071427Y-71289438D01*
X58071427Y-71289438D02*
X58223808Y-71289438D01*
X57728570Y-71632295D02*
X57728570Y-70832295D01*
X57728570Y-70832295D02*
X57271427Y-71632295D01*
X57271427Y-71632295D02*
X57271427Y-70832295D01*
X56890475Y-71632295D02*
X56890475Y-70832295D01*
X56890475Y-70832295D02*
X56699999Y-70832295D01*
X56699999Y-70832295D02*
X56585713Y-70870390D01*
X56585713Y-70870390D02*
X56509523Y-70946580D01*
X56509523Y-70946580D02*
X56471428Y-71022771D01*
X56471428Y-71022771D02*
X56433332Y-71175152D01*
X56433332Y-71175152D02*
X56433332Y-71289438D01*
X56433332Y-71289438D02*
X56471428Y-71441819D01*
X56471428Y-71441819D02*
X56509523Y-71518009D01*
X56509523Y-71518009D02*
X56585713Y-71594200D01*
X56585713Y-71594200D02*
X56699999Y-71632295D01*
X56699999Y-71632295D02*
X56890475Y-71632295D01*
X93028571Y-62792295D02*
X93028571Y-63363723D01*
X93028571Y-63363723D02*
X93066666Y-63478009D01*
X93066666Y-63478009D02*
X93142857Y-63554200D01*
X93142857Y-63554200D02*
X93257142Y-63592295D01*
X93257142Y-63592295D02*
X93333333Y-63592295D01*
X92266666Y-62792295D02*
X92647618Y-62792295D01*
X92647618Y-62792295D02*
X92685714Y-63173247D01*
X92685714Y-63173247D02*
X92647618Y-63135152D01*
X92647618Y-63135152D02*
X92571428Y-63097057D01*
X92571428Y-63097057D02*
X92380952Y-63097057D01*
X92380952Y-63097057D02*
X92304761Y-63135152D01*
X92304761Y-63135152D02*
X92266666Y-63173247D01*
X92266666Y-63173247D02*
X92228571Y-63249438D01*
X92228571Y-63249438D02*
X92228571Y-63439914D01*
X92228571Y-63439914D02*
X92266666Y-63516104D01*
X92266666Y-63516104D02*
X92304761Y-63554200D01*
X92304761Y-63554200D02*
X92380952Y-63592295D01*
X92380952Y-63592295D02*
X92571428Y-63592295D01*
X92571428Y-63592295D02*
X92647618Y-63554200D01*
X92647618Y-63554200D02*
X92685714Y-63516104D01*
X91733332Y-62792295D02*
X91657142Y-62792295D01*
X91657142Y-62792295D02*
X91580951Y-62830390D01*
X91580951Y-62830390D02*
X91542856Y-62868485D01*
X91542856Y-62868485D02*
X91504761Y-62944676D01*
X91504761Y-62944676D02*
X91466666Y-63097057D01*
X91466666Y-63097057D02*
X91466666Y-63287533D01*
X91466666Y-63287533D02*
X91504761Y-63439914D01*
X91504761Y-63439914D02*
X91542856Y-63516104D01*
X91542856Y-63516104D02*
X91580951Y-63554200D01*
X91580951Y-63554200D02*
X91657142Y-63592295D01*
X91657142Y-63592295D02*
X91733332Y-63592295D01*
X91733332Y-63592295D02*
X91809523Y-63554200D01*
X91809523Y-63554200D02*
X91847618Y-63516104D01*
X91847618Y-63516104D02*
X91885713Y-63439914D01*
X91885713Y-63439914D02*
X91923809Y-63287533D01*
X91923809Y-63287533D02*
X91923809Y-63097057D01*
X91923809Y-63097057D02*
X91885713Y-62944676D01*
X91885713Y-62944676D02*
X91847618Y-62868485D01*
X91847618Y-62868485D02*
X91809523Y-62830390D01*
X91809523Y-62830390D02*
X91733332Y-62792295D01*
X91199999Y-62792295D02*
X90704761Y-62792295D01*
X90704761Y-62792295D02*
X90971427Y-63097057D01*
X90971427Y-63097057D02*
X90857142Y-63097057D01*
X90857142Y-63097057D02*
X90780951Y-63135152D01*
X90780951Y-63135152D02*
X90742856Y-63173247D01*
X90742856Y-63173247D02*
X90704761Y-63249438D01*
X90704761Y-63249438D02*
X90704761Y-63439914D01*
X90704761Y-63439914D02*
X90742856Y-63516104D01*
X90742856Y-63516104D02*
X90780951Y-63554200D01*
X90780951Y-63554200D02*
X90857142Y-63592295D01*
X90857142Y-63592295D02*
X91085713Y-63592295D01*
X91085713Y-63592295D02*
X91161904Y-63554200D01*
X91161904Y-63554200D02*
X91199999Y-63516104D01*
X57652380Y-56022295D02*
X58033332Y-56022295D01*
X58033332Y-56022295D02*
X58071428Y-56403247D01*
X58071428Y-56403247D02*
X58033332Y-56365152D01*
X58033332Y-56365152D02*
X57957142Y-56327057D01*
X57957142Y-56327057D02*
X57766666Y-56327057D01*
X57766666Y-56327057D02*
X57690475Y-56365152D01*
X57690475Y-56365152D02*
X57652380Y-56403247D01*
X57652380Y-56403247D02*
X57614285Y-56479438D01*
X57614285Y-56479438D02*
X57614285Y-56669914D01*
X57614285Y-56669914D02*
X57652380Y-56746104D01*
X57652380Y-56746104D02*
X57690475Y-56784200D01*
X57690475Y-56784200D02*
X57766666Y-56822295D01*
X57766666Y-56822295D02*
X57957142Y-56822295D01*
X57957142Y-56822295D02*
X58033332Y-56784200D01*
X58033332Y-56784200D02*
X58071428Y-56746104D01*
X57385713Y-56022295D02*
X57119046Y-56822295D01*
X57119046Y-56822295D02*
X56852380Y-56022295D01*
X54028571Y-53522295D02*
X54028571Y-54093723D01*
X54028571Y-54093723D02*
X54066666Y-54208009D01*
X54066666Y-54208009D02*
X54142857Y-54284200D01*
X54142857Y-54284200D02*
X54257142Y-54322295D01*
X54257142Y-54322295D02*
X54333333Y-54322295D01*
X53228571Y-54322295D02*
X53685714Y-54322295D01*
X53457142Y-54322295D02*
X53457142Y-53522295D01*
X53457142Y-53522295D02*
X53533333Y-53636580D01*
X53533333Y-53636580D02*
X53609523Y-53712771D01*
X53609523Y-53712771D02*
X53685714Y-53750866D01*
X52733332Y-53522295D02*
X52657142Y-53522295D01*
X52657142Y-53522295D02*
X52580951Y-53560390D01*
X52580951Y-53560390D02*
X52542856Y-53598485D01*
X52542856Y-53598485D02*
X52504761Y-53674676D01*
X52504761Y-53674676D02*
X52466666Y-53827057D01*
X52466666Y-53827057D02*
X52466666Y-54017533D01*
X52466666Y-54017533D02*
X52504761Y-54169914D01*
X52504761Y-54169914D02*
X52542856Y-54246104D01*
X52542856Y-54246104D02*
X52580951Y-54284200D01*
X52580951Y-54284200D02*
X52657142Y-54322295D01*
X52657142Y-54322295D02*
X52733332Y-54322295D01*
X52733332Y-54322295D02*
X52809523Y-54284200D01*
X52809523Y-54284200D02*
X52847618Y-54246104D01*
X52847618Y-54246104D02*
X52885713Y-54169914D01*
X52885713Y-54169914D02*
X52923809Y-54017533D01*
X52923809Y-54017533D02*
X52923809Y-53827057D01*
X52923809Y-53827057D02*
X52885713Y-53674676D01*
X52885713Y-53674676D02*
X52847618Y-53598485D01*
X52847618Y-53598485D02*
X52809523Y-53560390D01*
X52809523Y-53560390D02*
X52733332Y-53522295D01*
X51704761Y-54322295D02*
X52161904Y-54322295D01*
X51933332Y-54322295D02*
X51933332Y-53522295D01*
X51933332Y-53522295D02*
X52009523Y-53636580D01*
X52009523Y-53636580D02*
X52085713Y-53712771D01*
X52085713Y-53712771D02*
X52161904Y-53750866D01*
X57919046Y-69092295D02*
X57919046Y-68292295D01*
X57538094Y-69092295D02*
X57538094Y-68292295D01*
X57538094Y-68292295D02*
X57080951Y-69092295D01*
X57080951Y-69092295D02*
X57080951Y-68292295D01*
X58090475Y-61483247D02*
X57823809Y-61483247D01*
X57709523Y-61902295D02*
X58090475Y-61902295D01*
X58090475Y-61902295D02*
X58090475Y-61102295D01*
X58090475Y-61102295D02*
X57709523Y-61102295D01*
X57366665Y-61902295D02*
X57366665Y-61102295D01*
X57366665Y-61102295D02*
X56909522Y-61902295D01*
X56909522Y-61902295D02*
X56909522Y-61102295D01*
X58109523Y-58600390D02*
X58185713Y-58562295D01*
X58185713Y-58562295D02*
X58299999Y-58562295D01*
X58299999Y-58562295D02*
X58414285Y-58600390D01*
X58414285Y-58600390D02*
X58490475Y-58676580D01*
X58490475Y-58676580D02*
X58528570Y-58752771D01*
X58528570Y-58752771D02*
X58566666Y-58905152D01*
X58566666Y-58905152D02*
X58566666Y-59019438D01*
X58566666Y-59019438D02*
X58528570Y-59171819D01*
X58528570Y-59171819D02*
X58490475Y-59248009D01*
X58490475Y-59248009D02*
X58414285Y-59324200D01*
X58414285Y-59324200D02*
X58299999Y-59362295D01*
X58299999Y-59362295D02*
X58223808Y-59362295D01*
X58223808Y-59362295D02*
X58109523Y-59324200D01*
X58109523Y-59324200D02*
X58071427Y-59286104D01*
X58071427Y-59286104D02*
X58071427Y-59019438D01*
X58071427Y-59019438D02*
X58223808Y-59019438D01*
X57728570Y-59362295D02*
X57728570Y-58562295D01*
X57728570Y-58562295D02*
X57271427Y-59362295D01*
X57271427Y-59362295D02*
X57271427Y-58562295D01*
X56890475Y-59362295D02*
X56890475Y-58562295D01*
X56890475Y-58562295D02*
X56699999Y-58562295D01*
X56699999Y-58562295D02*
X56585713Y-58600390D01*
X56585713Y-58600390D02*
X56509523Y-58676580D01*
X56509523Y-58676580D02*
X56471428Y-58752771D01*
X56471428Y-58752771D02*
X56433332Y-58905152D01*
X56433332Y-58905152D02*
X56433332Y-59019438D01*
X56433332Y-59019438D02*
X56471428Y-59171819D01*
X56471428Y-59171819D02*
X56509523Y-59248009D01*
X56509523Y-59248009D02*
X56585713Y-59324200D01*
X56585713Y-59324200D02*
X56699999Y-59362295D01*
X56699999Y-59362295D02*
X56890475Y-59362295D01*
X93028571Y-79332295D02*
X93028571Y-79903723D01*
X93028571Y-79903723D02*
X93066666Y-80018009D01*
X93066666Y-80018009D02*
X93142857Y-80094200D01*
X93142857Y-80094200D02*
X93257142Y-80132295D01*
X93257142Y-80132295D02*
X93333333Y-80132295D01*
X92266666Y-79332295D02*
X92647618Y-79332295D01*
X92647618Y-79332295D02*
X92685714Y-79713247D01*
X92685714Y-79713247D02*
X92647618Y-79675152D01*
X92647618Y-79675152D02*
X92571428Y-79637057D01*
X92571428Y-79637057D02*
X92380952Y-79637057D01*
X92380952Y-79637057D02*
X92304761Y-79675152D01*
X92304761Y-79675152D02*
X92266666Y-79713247D01*
X92266666Y-79713247D02*
X92228571Y-79789438D01*
X92228571Y-79789438D02*
X92228571Y-79979914D01*
X92228571Y-79979914D02*
X92266666Y-80056104D01*
X92266666Y-80056104D02*
X92304761Y-80094200D01*
X92304761Y-80094200D02*
X92380952Y-80132295D01*
X92380952Y-80132295D02*
X92571428Y-80132295D01*
X92571428Y-80132295D02*
X92647618Y-80094200D01*
X92647618Y-80094200D02*
X92685714Y-80056104D01*
X91733332Y-79332295D02*
X91657142Y-79332295D01*
X91657142Y-79332295D02*
X91580951Y-79370390D01*
X91580951Y-79370390D02*
X91542856Y-79408485D01*
X91542856Y-79408485D02*
X91504761Y-79484676D01*
X91504761Y-79484676D02*
X91466666Y-79637057D01*
X91466666Y-79637057D02*
X91466666Y-79827533D01*
X91466666Y-79827533D02*
X91504761Y-79979914D01*
X91504761Y-79979914D02*
X91542856Y-80056104D01*
X91542856Y-80056104D02*
X91580951Y-80094200D01*
X91580951Y-80094200D02*
X91657142Y-80132295D01*
X91657142Y-80132295D02*
X91733332Y-80132295D01*
X91733332Y-80132295D02*
X91809523Y-80094200D01*
X91809523Y-80094200D02*
X91847618Y-80056104D01*
X91847618Y-80056104D02*
X91885713Y-79979914D01*
X91885713Y-79979914D02*
X91923809Y-79827533D01*
X91923809Y-79827533D02*
X91923809Y-79637057D01*
X91923809Y-79637057D02*
X91885713Y-79484676D01*
X91885713Y-79484676D02*
X91847618Y-79408485D01*
X91847618Y-79408485D02*
X91809523Y-79370390D01*
X91809523Y-79370390D02*
X91733332Y-79332295D01*
X91161904Y-79408485D02*
X91123808Y-79370390D01*
X91123808Y-79370390D02*
X91047618Y-79332295D01*
X91047618Y-79332295D02*
X90857142Y-79332295D01*
X90857142Y-79332295D02*
X90780951Y-79370390D01*
X90780951Y-79370390D02*
X90742856Y-79408485D01*
X90742856Y-79408485D02*
X90704761Y-79484676D01*
X90704761Y-79484676D02*
X90704761Y-79560866D01*
X90704761Y-79560866D02*
X90742856Y-79675152D01*
X90742856Y-79675152D02*
X91199999Y-80132295D01*
X91199999Y-80132295D02*
X90704761Y-80132295D01*
X54028571Y-65792295D02*
X54028571Y-66363723D01*
X54028571Y-66363723D02*
X54066666Y-66478009D01*
X54066666Y-66478009D02*
X54142857Y-66554200D01*
X54142857Y-66554200D02*
X54257142Y-66592295D01*
X54257142Y-66592295D02*
X54333333Y-66592295D01*
X53228571Y-66592295D02*
X53685714Y-66592295D01*
X53457142Y-66592295D02*
X53457142Y-65792295D01*
X53457142Y-65792295D02*
X53533333Y-65906580D01*
X53533333Y-65906580D02*
X53609523Y-65982771D01*
X53609523Y-65982771D02*
X53685714Y-66020866D01*
X52733332Y-65792295D02*
X52657142Y-65792295D01*
X52657142Y-65792295D02*
X52580951Y-65830390D01*
X52580951Y-65830390D02*
X52542856Y-65868485D01*
X52542856Y-65868485D02*
X52504761Y-65944676D01*
X52504761Y-65944676D02*
X52466666Y-66097057D01*
X52466666Y-66097057D02*
X52466666Y-66287533D01*
X52466666Y-66287533D02*
X52504761Y-66439914D01*
X52504761Y-66439914D02*
X52542856Y-66516104D01*
X52542856Y-66516104D02*
X52580951Y-66554200D01*
X52580951Y-66554200D02*
X52657142Y-66592295D01*
X52657142Y-66592295D02*
X52733332Y-66592295D01*
X52733332Y-66592295D02*
X52809523Y-66554200D01*
X52809523Y-66554200D02*
X52847618Y-66516104D01*
X52847618Y-66516104D02*
X52885713Y-66439914D01*
X52885713Y-66439914D02*
X52923809Y-66287533D01*
X52923809Y-66287533D02*
X52923809Y-66097057D01*
X52923809Y-66097057D02*
X52885713Y-65944676D01*
X52885713Y-65944676D02*
X52847618Y-65868485D01*
X52847618Y-65868485D02*
X52809523Y-65830390D01*
X52809523Y-65830390D02*
X52733332Y-65792295D01*
X52161904Y-65868485D02*
X52123808Y-65830390D01*
X52123808Y-65830390D02*
X52047618Y-65792295D01*
X52047618Y-65792295D02*
X51857142Y-65792295D01*
X51857142Y-65792295D02*
X51780951Y-65830390D01*
X51780951Y-65830390D02*
X51742856Y-65868485D01*
X51742856Y-65868485D02*
X51704761Y-65944676D01*
X51704761Y-65944676D02*
X51704761Y-66020866D01*
X51704761Y-66020866D02*
X51742856Y-66135152D01*
X51742856Y-66135152D02*
X52199999Y-66592295D01*
X52199999Y-66592295D02*
X51704761Y-66592295D01*
X88109523Y-67870390D02*
X88185713Y-67832295D01*
X88185713Y-67832295D02*
X88299999Y-67832295D01*
X88299999Y-67832295D02*
X88414285Y-67870390D01*
X88414285Y-67870390D02*
X88490475Y-67946580D01*
X88490475Y-67946580D02*
X88528570Y-68022771D01*
X88528570Y-68022771D02*
X88566666Y-68175152D01*
X88566666Y-68175152D02*
X88566666Y-68289438D01*
X88566666Y-68289438D02*
X88528570Y-68441819D01*
X88528570Y-68441819D02*
X88490475Y-68518009D01*
X88490475Y-68518009D02*
X88414285Y-68594200D01*
X88414285Y-68594200D02*
X88299999Y-68632295D01*
X88299999Y-68632295D02*
X88223808Y-68632295D01*
X88223808Y-68632295D02*
X88109523Y-68594200D01*
X88109523Y-68594200D02*
X88071427Y-68556104D01*
X88071427Y-68556104D02*
X88071427Y-68289438D01*
X88071427Y-68289438D02*
X88223808Y-68289438D01*
X87728570Y-68632295D02*
X87728570Y-67832295D01*
X87728570Y-67832295D02*
X87271427Y-68632295D01*
X87271427Y-68632295D02*
X87271427Y-67832295D01*
X86890475Y-68632295D02*
X86890475Y-67832295D01*
X86890475Y-67832295D02*
X86699999Y-67832295D01*
X86699999Y-67832295D02*
X86585713Y-67870390D01*
X86585713Y-67870390D02*
X86509523Y-67946580D01*
X86509523Y-67946580D02*
X86471428Y-68022771D01*
X86471428Y-68022771D02*
X86433332Y-68175152D01*
X86433332Y-68175152D02*
X86433332Y-68289438D01*
X86433332Y-68289438D02*
X86471428Y-68441819D01*
X86471428Y-68441819D02*
X86509523Y-68518009D01*
X86509523Y-68518009D02*
X86585713Y-68594200D01*
X86585713Y-68594200D02*
X86699999Y-68632295D01*
X86699999Y-68632295D02*
X86890475Y-68632295D01*
X88547619Y-74863723D02*
X88166666Y-74863723D01*
X88623809Y-75092295D02*
X88357142Y-74292295D01*
X88357142Y-74292295D02*
X88090476Y-75092295D01*
X87823809Y-75092295D02*
X87823809Y-74292295D01*
X87823809Y-74292295D02*
X87557143Y-74863723D01*
X87557143Y-74863723D02*
X87290476Y-74292295D01*
X87290476Y-74292295D02*
X87290476Y-75092295D01*
X86909523Y-75092295D02*
X86909523Y-74292295D01*
X86909523Y-74292295D02*
X86604761Y-74292295D01*
X86604761Y-74292295D02*
X86528571Y-74330390D01*
X86528571Y-74330390D02*
X86490476Y-74368485D01*
X86490476Y-74368485D02*
X86452380Y-74444676D01*
X86452380Y-74444676D02*
X86452380Y-74558961D01*
X86452380Y-74558961D02*
X86490476Y-74635152D01*
X86490476Y-74635152D02*
X86528571Y-74673247D01*
X86528571Y-74673247D02*
X86604761Y-74711342D01*
X86604761Y-74711342D02*
X86909523Y-74711342D01*
X88109523Y-76870390D02*
X88185713Y-76832295D01*
X88185713Y-76832295D02*
X88299999Y-76832295D01*
X88299999Y-76832295D02*
X88414285Y-76870390D01*
X88414285Y-76870390D02*
X88490475Y-76946580D01*
X88490475Y-76946580D02*
X88528570Y-77022771D01*
X88528570Y-77022771D02*
X88566666Y-77175152D01*
X88566666Y-77175152D02*
X88566666Y-77289438D01*
X88566666Y-77289438D02*
X88528570Y-77441819D01*
X88528570Y-77441819D02*
X88490475Y-77518009D01*
X88490475Y-77518009D02*
X88414285Y-77594200D01*
X88414285Y-77594200D02*
X88299999Y-77632295D01*
X88299999Y-77632295D02*
X88223808Y-77632295D01*
X88223808Y-77632295D02*
X88109523Y-77594200D01*
X88109523Y-77594200D02*
X88071427Y-77556104D01*
X88071427Y-77556104D02*
X88071427Y-77289438D01*
X88071427Y-77289438D02*
X88223808Y-77289438D01*
X87728570Y-77632295D02*
X87728570Y-76832295D01*
X87728570Y-76832295D02*
X87271427Y-77632295D01*
X87271427Y-77632295D02*
X87271427Y-76832295D01*
X86890475Y-77632295D02*
X86890475Y-76832295D01*
X86890475Y-76832295D02*
X86699999Y-76832295D01*
X86699999Y-76832295D02*
X86585713Y-76870390D01*
X86585713Y-76870390D02*
X86509523Y-76946580D01*
X86509523Y-76946580D02*
X86471428Y-77022771D01*
X86471428Y-77022771D02*
X86433332Y-77175152D01*
X86433332Y-77175152D02*
X86433332Y-77289438D01*
X86433332Y-77289438D02*
X86471428Y-77441819D01*
X86471428Y-77441819D02*
X86509523Y-77518009D01*
X86509523Y-77518009D02*
X86585713Y-77594200D01*
X86585713Y-77594200D02*
X86699999Y-77632295D01*
X86699999Y-77632295D02*
X86890475Y-77632295D01*
%LPC*%
D11*
X92000000Y-74730000D03*
D12*
X92000000Y-77270000D03*
D11*
X53000000Y-68730000D03*
D12*
X53000000Y-71270000D03*
D13*
X53000000Y-81000000D03*
X93000000Y-53000000D03*
D14*
X82460000Y-53920000D03*
D15*
X82460000Y-56460000D03*
X82460000Y-64080000D03*
X87540000Y-64080000D03*
X87540000Y-56460000D03*
X87540000Y-53920000D03*
D11*
X92000000Y-65730000D03*
D12*
X92000000Y-68270000D03*
D11*
X53000000Y-56460000D03*
D12*
X53000000Y-59000000D03*
X53000000Y-61540000D03*
%LPD*%
M02*
