G04 #@! TF.GenerationSoftware,KiCad,Pcbnew,9.0.2+dfsg-1*
G04 #@! TF.CreationDate,2026-10-02T20:04:34+00:00*
G04 #@! TF.ProjectId,Ardor_Line_Out,4172646f-725f-44c6-996e-655f4f75742e,rev?*
G04 #@! TF.SameCoordinates,Original*
G04 #@! TF.FileFunction,Copper,L1,Top*
G04 #@! TF.FilePolarity,Positive*
%FSLAX46Y46*%
G04 Gerber Fmt 4.6, Leading zero omitted, Abs format (unit mm)*
G04 Created by KiCad (PCBNEW 9.0.2+dfsg-1) date 2026-10-02 20:04:34*
%MOMM*%
%LPD*%
G01*
G04 APERTURE LIST*
G04 Aperture macros list*
%AMRoundRect*
0 Rectangle with rounded corners*
0 $1 Rounding radius*
0 $2 $3 $4 $5 $6 $7 $8 $9 X,Y pos of 4 corners*
0 Add a 4 corners polygon primitive as box body*
4,1,4,$2,$3,$4,$5,$6,$7,$8,$9,$2,$3,0*
0 Add four circle primitives for the rounded corners*
1,1,$1+$1,$2,$3*
1,1,$1+$1,$4,$5*
1,1,$1+$1,$6,$7*
1,1,$1+$1,$8,$9*
0 Add four rect primitives between the rounded corners*
20,1,$1+$1,$2,$3,$4,$5,0*
20,1,$1+$1,$4,$5,$6,$7,0*
20,1,$1+$1,$6,$7,$8,$9,0*
20,1,$1+$1,$8,$9,$2,$3,0*%
G04 Aperture macros list end*
G04 #@! TA.AperFunction,SMDPad,CuDef*
%ADD10RoundRect,0.112500X-0.187500X-0.112500X0.187500X-0.112500X0.187500X0.112500X-0.187500X0.112500X0*%
G04 #@! TD*
G04 #@! TA.AperFunction,SMDPad,CuDef*
%ADD11RoundRect,0.150000X-0.587500X-0.150000X0.587500X-0.150000X0.587500X0.150000X-0.587500X0.150000X0*%
G04 #@! TD*
G04 #@! TA.AperFunction,ComponentPad*
%ADD12R,1.700000X1.700000*%
G04 #@! TD*
G04 #@! TA.AperFunction,ComponentPad*
%ADD13C,1.700000*%
G04 #@! TD*
G04 #@! TA.AperFunction,SMDPad,CuDef*
%ADD14RoundRect,0.200000X-0.200000X-0.275000X0.200000X-0.275000X0.200000X0.275000X-0.200000X0.275000X0*%
G04 #@! TD*
G04 #@! TA.AperFunction,SMDPad,CuDef*
%ADD15RoundRect,0.218750X-0.218750X-0.381250X0.218750X-0.381250X0.218750X0.381250X-0.218750X0.381250X0*%
G04 #@! TD*
G04 #@! TA.AperFunction,SMDPad,CuDef*
%ADD16RoundRect,0.250000X-0.250000X-0.475000X0.250000X-0.475000X0.250000X0.475000X-0.250000X0.475000X0*%
G04 #@! TD*
G04 #@! TA.AperFunction,SMDPad,CuDef*
%ADD17RoundRect,0.250000X-0.325000X-0.650000X0.325000X-0.650000X0.325000X0.650000X-0.325000X0.650000X0*%
G04 #@! TD*
G04 #@! TA.AperFunction,SMDPad,CuDef*
%ADD18RoundRect,0.225000X-0.225000X-0.375000X0.225000X-0.375000X0.225000X0.375000X-0.225000X0.375000X0*%
G04 #@! TD*
G04 #@! TA.AperFunction,SMDPad,CuDef*
%ADD19RoundRect,0.225000X-0.225000X-0.250000X0.225000X-0.250000X0.225000X0.250000X-0.225000X0.250000X0*%
G04 #@! TD*
G04 #@! TA.AperFunction,ComponentPad*
%ADD20R,2.000000X2.000000*%
G04 #@! TD*
G04 #@! TA.AperFunction,ComponentPad*
%ADD21C,2.000000*%
G04 #@! TD*
G04 #@! TA.AperFunction,SMDPad,CuDef*
%ADD22RoundRect,0.150000X-0.825000X-0.150000X0.825000X-0.150000X0.825000X0.150000X-0.825000X0.150000X0*%
G04 #@! TD*
G04 #@! TA.AperFunction,SMDPad,CuDef*
%ADD23RoundRect,0.250000X-0.312500X-0.625000X0.312500X-0.625000X0.312500X0.625000X-0.312500X0.625000X0*%
G04 #@! TD*
G04 #@! TA.AperFunction,SMDPad,CuDef*
%ADD24R,3.200000X1.600000*%
G04 #@! TD*
G04 #@! TA.AperFunction,ViaPad*
%ADD25C,0.600000*%
G04 #@! TD*
G04 #@! TA.AperFunction,Conductor*
%ADD26C,0.200000*%
G04 #@! TD*
G04 #@! TA.AperFunction,Conductor*
%ADD27C,0.600000*%
G04 #@! TD*
G04 APERTURE END LIST*
D10*
X87950000Y-71000000D03*
X90050000Y-71000000D03*
D11*
X77062500Y-74050000D03*
X77062500Y-75950000D03*
X78937500Y-75000000D03*
D12*
X92000000Y-74730000D03*
D13*
X92000000Y-77270000D03*
D12*
X53000000Y-68730000D03*
D13*
X53000000Y-71270000D03*
D14*
X73175000Y-69000000D03*
X74825000Y-69000000D03*
X67175000Y-72000000D03*
X68825000Y-72000000D03*
D15*
X58937500Y-54000000D03*
X61062500Y-54000000D03*
D16*
X63050000Y-76000000D03*
X64950000Y-76000000D03*
D17*
X56525000Y-70000000D03*
X59475000Y-70000000D03*
D16*
X63050000Y-54000000D03*
X64950000Y-54000000D03*
D18*
X80350000Y-70000000D03*
X83650000Y-70000000D03*
D19*
X62225000Y-59000000D03*
X63775000Y-59000000D03*
X67225000Y-54000000D03*
X68775000Y-54000000D03*
D14*
X67175000Y-75000000D03*
X68825000Y-75000000D03*
D20*
X82460000Y-53920000D03*
D21*
X82460000Y-56460000D03*
X82460000Y-64080000D03*
X87540000Y-64080000D03*
X87540000Y-56460000D03*
X87540000Y-53920000D03*
D22*
X61525000Y-63095000D03*
X61525000Y-64365000D03*
X61525000Y-65635000D03*
X61525000Y-66905000D03*
X66475000Y-66905000D03*
X66475000Y-65635000D03*
X66475000Y-64365000D03*
X66475000Y-63095000D03*
D23*
X81537500Y-75000000D03*
X84462500Y-75000000D03*
D14*
X67175000Y-79000000D03*
X68825000Y-79000000D03*
X77175000Y-80000000D03*
X78825000Y-80000000D03*
X86175000Y-77000000D03*
X87825000Y-77000000D03*
D12*
X92000000Y-65730000D03*
D13*
X92000000Y-68270000D03*
D17*
X70525000Y-79000000D03*
X73475000Y-79000000D03*
D14*
X58175000Y-74000000D03*
X59825000Y-74000000D03*
X76175000Y-57000000D03*
X77825000Y-57000000D03*
D24*
X72500000Y-62000000D03*
X77500000Y-62000000D03*
D14*
X72175000Y-75000000D03*
X73825000Y-75000000D03*
D12*
X53000000Y-56460000D03*
D13*
X53000000Y-59000000D03*
X53000000Y-61540000D03*
D25*
X69000000Y-67000000D03*
X84000000Y-79000000D03*
X63000000Y-56000000D03*
X65162499Y-53898500D03*
X73000000Y-73000000D03*
X58000000Y-78000000D03*
X90000000Y-72000000D03*
D26*
X53000000Y-56460000D02*
X54151700Y-56460000D01*
X82460000Y-56460000D02*
X80350000Y-58570000D01*
X80350000Y-58570000D02*
X80350000Y-70000000D01*
X58937500Y-54000000D02*
X56611700Y-54000000D01*
X56611700Y-54000000D02*
X54151700Y-56460000D01*
X67225000Y-54000000D02*
X66168600Y-55056400D01*
X66168600Y-55056400D02*
X64106400Y-55056400D01*
X64106400Y-57118600D02*
X64106400Y-55056400D01*
X66862300Y-63095000D02*
X66475000Y-63095000D01*
X67784500Y-64017200D02*
X66862300Y-63095000D01*
X66475000Y-63095000D02*
X66475000Y-55362800D01*
X67175000Y-72000000D02*
X67784500Y-71390500D01*
X62225000Y-59000000D02*
X64106400Y-57118600D01*
X66475000Y-55362800D02*
X66168600Y-55056400D01*
X67784500Y-71390500D02*
X67784500Y-64017200D01*
X61062500Y-54000000D02*
X63050000Y-54000000D01*
X64106400Y-55056400D02*
X63050000Y-54000000D01*
D27*
X87084000Y-73158300D02*
X89042500Y-71199800D01*
X81537500Y-75000000D02*
X83379200Y-73158300D01*
X89042500Y-71199800D02*
X89850200Y-71199800D01*
X89850200Y-71199800D02*
X90050000Y-71000000D01*
X83379200Y-73158300D02*
X87084000Y-73158300D01*
D26*
X62248800Y-71576200D02*
X59825000Y-74000000D01*
X66475000Y-65635000D02*
X66475000Y-65000000D01*
X65438400Y-65000000D02*
X62248800Y-68189600D01*
X66475000Y-65000000D02*
X65438400Y-65000000D01*
X66475000Y-65000000D02*
X66475000Y-64365000D01*
X62248800Y-68189600D02*
X62248800Y-71576200D01*
X76175000Y-57000000D02*
X76175000Y-59573300D01*
X73175000Y-67426700D02*
X77500000Y-63101700D01*
X77500000Y-62000000D02*
X77500000Y-60898300D01*
X76175000Y-59573300D02*
X77500000Y-60898300D01*
X77500000Y-62000000D02*
X77500000Y-63101700D01*
X73175000Y-69000000D02*
X73175000Y-67426700D01*
X74475000Y-80000000D02*
X73475000Y-79000000D01*
X77175000Y-80000000D02*
X74475000Y-80000000D01*
X87950000Y-64490000D02*
X87540000Y-64080000D01*
X87950000Y-71000000D02*
X87950000Y-64490000D01*
X83650000Y-70000000D02*
X85000000Y-68650000D01*
X85000000Y-59000000D02*
X87540000Y-56460000D01*
X78937500Y-74712500D02*
X83650000Y-70000000D01*
X78937500Y-75000000D02*
X78937500Y-74712500D01*
X85000000Y-68650000D02*
X85000000Y-59000000D01*
X57433300Y-65973300D02*
X53000000Y-61540000D01*
X61968900Y-79000000D02*
X57433300Y-74464400D01*
X57433300Y-74464400D02*
X57433300Y-65973300D01*
X67175000Y-79000000D02*
X61968900Y-79000000D01*
X56525000Y-70000000D02*
X55421700Y-70000000D01*
X55421700Y-70000000D02*
X54151700Y-68730000D01*
X53000000Y-68730000D02*
X54151700Y-68730000D01*
X81825000Y-77000000D02*
X78825000Y-80000000D01*
X86175000Y-77000000D02*
X88445000Y-74730000D01*
X88445000Y-74730000D02*
X92000000Y-74730000D01*
X86175000Y-77000000D02*
X81825000Y-77000000D01*
X81277500Y-52618300D02*
X86238300Y-52618300D01*
X77825000Y-56070800D02*
X81277500Y-52618300D01*
X86238300Y-52618300D02*
X87540000Y-53920000D01*
X77825000Y-57000000D02*
X77825000Y-56070800D01*
X68825000Y-79000000D02*
X68825000Y-79124900D01*
X77062500Y-74050000D02*
X73125000Y-74050000D01*
X72175000Y-79117700D02*
X72175000Y-75000000D01*
X68825000Y-79124900D02*
X69936400Y-80236300D01*
X69936400Y-80236300D02*
X71056400Y-80236300D01*
X73125000Y-74050000D02*
X72175000Y-75000000D01*
X71056400Y-80236300D02*
X72175000Y-79117700D01*
X58175000Y-74000000D02*
X58175000Y-71300000D01*
X61171100Y-65635000D02*
X59475000Y-67331100D01*
X59475000Y-67331100D02*
X59475000Y-70000000D01*
X58175000Y-71300000D02*
X59475000Y-70000000D01*
X61525000Y-65635000D02*
X61171100Y-65635000D01*
X67977600Y-59452600D02*
X70525000Y-62000000D01*
X60702200Y-52921200D02*
X67387800Y-52921200D01*
X70525000Y-63730000D02*
X70525000Y-62486600D01*
X61525000Y-63295300D02*
X61525000Y-63730000D01*
X67387800Y-52921200D02*
X67977600Y-53511000D01*
X67977600Y-53511000D02*
X67977600Y-59452600D01*
X60277200Y-53346200D02*
X60702200Y-52921200D01*
X70793200Y-62000000D02*
X72500000Y-62000000D01*
X70525000Y-79000000D02*
X70525000Y-63764200D01*
X60277200Y-61847200D02*
X60277200Y-53346200D01*
X61525000Y-64047500D02*
X61525000Y-64365000D01*
X61525000Y-63095000D02*
X61525000Y-63295300D01*
X61525000Y-63730000D02*
X61525000Y-64047500D01*
X61525000Y-63095000D02*
X60277200Y-61847200D01*
X70525000Y-62000000D02*
X70751900Y-62000000D01*
X70525000Y-63764200D02*
X70525000Y-63730100D01*
X70525000Y-62486600D02*
X70525000Y-62000000D01*
X70751900Y-62000000D02*
X70793200Y-62000000D01*
X68825000Y-72000000D02*
X68825000Y-73350000D01*
X66412200Y-74924000D02*
X66412200Y-66967800D01*
X63050000Y-76000000D02*
X64126000Y-74924000D01*
X67099000Y-74924000D02*
X67175000Y-75000000D01*
X66412200Y-66967800D02*
X66475000Y-66905000D01*
X66412200Y-74924000D02*
X67099000Y-74924000D01*
X64126000Y-74924000D02*
X66412200Y-74924000D01*
X68825000Y-73350000D02*
X67175000Y-75000000D01*
G04 #@! TA.AperFunction,Conductor*
G36*
X66747716Y-53240607D02*
G01*
X66783680Y-53290107D01*
X66783680Y-53351293D01*
X66751673Y-53395346D01*
X66752290Y-53395963D01*
X66748396Y-53399856D01*
X66747716Y-53400793D01*
X66747713Y-53400795D01*
X66746780Y-53401472D01*
X66651470Y-53496782D01*
X66590283Y-53616867D01*
X66590281Y-53616874D01*
X66574500Y-53716510D01*
X66574500Y-54184521D01*
X66555593Y-54242712D01*
X66545504Y-54254525D01*
X66073125Y-54726904D01*
X66018608Y-54754681D01*
X66003121Y-54755900D01*
X64271879Y-54755900D01*
X64213688Y-54736993D01*
X64201875Y-54726904D01*
X63779496Y-54304525D01*
X63751719Y-54250008D01*
X63750500Y-54234521D01*
X63750500Y-53470727D01*
X63750499Y-53470725D01*
X63749415Y-53459164D01*
X63747646Y-53440301D01*
X63717236Y-53353396D01*
X63715865Y-53292227D01*
X63750709Y-53241933D01*
X63808461Y-53221725D01*
X63810682Y-53221700D01*
X66689525Y-53221700D01*
X66747716Y-53240607D01*
G37*
G04 #@! TD.AperFunction*
G04 #@! TA.AperFunction,Conductor*
G36*
X95458691Y-50519407D02*
G01*
X95494655Y-50568907D01*
X95499500Y-50599500D01*
X95499500Y-83400500D01*
X95480593Y-83458691D01*
X95431093Y-83494655D01*
X95400500Y-83499500D01*
X50599500Y-83499500D01*
X50541309Y-83480593D01*
X50505345Y-83431093D01*
X50500500Y-83400500D01*
X50500500Y-80893709D01*
X51649500Y-80893709D01*
X51649500Y-81106290D01*
X51682752Y-81316238D01*
X51748443Y-81518412D01*
X51844948Y-81707815D01*
X51844950Y-81707819D01*
X51969891Y-81879786D01*
X51969893Y-81879788D01*
X51969896Y-81879792D01*
X52120208Y-82030104D01*
X52120211Y-82030106D01*
X52120213Y-82030108D01*
X52292180Y-82155049D01*
X52292184Y-82155051D01*
X52481588Y-82251557D01*
X52683757Y-82317246D01*
X52683758Y-82317246D01*
X52683761Y-82317247D01*
X52893710Y-82350500D01*
X52893713Y-82350500D01*
X53106290Y-82350500D01*
X53316238Y-82317247D01*
X53316239Y-82317246D01*
X53316243Y-82317246D01*
X53518412Y-82251557D01*
X53707816Y-82155051D01*
X53879792Y-82030104D01*
X54030104Y-81879792D01*
X54155051Y-81707816D01*
X54251557Y-81518412D01*
X54317246Y-81316243D01*
X54350500Y-81106287D01*
X54350500Y-80893713D01*
X54350500Y-80893709D01*
X54317247Y-80683761D01*
X54314563Y-80675500D01*
X54251557Y-80481588D01*
X54155051Y-80292184D01*
X54155049Y-80292180D01*
X54030108Y-80120213D01*
X54030106Y-80120211D01*
X54030104Y-80120208D01*
X53879792Y-79969896D01*
X53879788Y-79969893D01*
X53879786Y-79969891D01*
X53707819Y-79844950D01*
X53707815Y-79844948D01*
X53518412Y-79748443D01*
X53316238Y-79682752D01*
X53106290Y-79649500D01*
X53106287Y-79649500D01*
X52893713Y-79649500D01*
X52893710Y-79649500D01*
X52683761Y-79682752D01*
X52481587Y-79748443D01*
X52292184Y-79844948D01*
X52292180Y-79844950D01*
X52120213Y-79969891D01*
X51969891Y-80120213D01*
X51844950Y-80292180D01*
X51844948Y-80292184D01*
X51748443Y-80481587D01*
X51682752Y-80683761D01*
X51649500Y-80893709D01*
X50500500Y-80893709D01*
X50500500Y-71183424D01*
X51900000Y-71183424D01*
X51900000Y-71356575D01*
X51927084Y-71527579D01*
X51980588Y-71692248D01*
X52059195Y-71846524D01*
X52059197Y-71846528D01*
X52123219Y-71934646D01*
X52556328Y-71501536D01*
X52599901Y-71577007D01*
X52692993Y-71670099D01*
X52768460Y-71713670D01*
X52335352Y-72146778D01*
X52423477Y-72210805D01*
X52577751Y-72289411D01*
X52742420Y-72342915D01*
X52913425Y-72370000D01*
X53086575Y-72370000D01*
X53257579Y-72342915D01*
X53422248Y-72289411D01*
X53576524Y-72210804D01*
X53576530Y-72210800D01*
X53664646Y-72146779D01*
X53664646Y-72146778D01*
X53231538Y-71713670D01*
X53307007Y-71670099D01*
X53400099Y-71577007D01*
X53443670Y-71501538D01*
X53876778Y-71934646D01*
X53876779Y-71934646D01*
X53940800Y-71846530D01*
X53940804Y-71846524D01*
X54019411Y-71692248D01*
X54072915Y-71527579D01*
X54100000Y-71356575D01*
X54100000Y-71183424D01*
X54072915Y-71012420D01*
X54019411Y-70847751D01*
X53940805Y-70693477D01*
X53876778Y-70605352D01*
X53443670Y-71038460D01*
X53400099Y-70962993D01*
X53307007Y-70869901D01*
X53231536Y-70826328D01*
X53664646Y-70393219D01*
X53576528Y-70329197D01*
X53576524Y-70329195D01*
X53422248Y-70250588D01*
X53257579Y-70197084D01*
X53086575Y-70170000D01*
X52913425Y-70170000D01*
X52742420Y-70197084D01*
X52577751Y-70250588D01*
X52423476Y-70329195D01*
X52335352Y-70393219D01*
X52768461Y-70826328D01*
X52692993Y-70869901D01*
X52599901Y-70962993D01*
X52556328Y-71038461D01*
X52123219Y-70605352D01*
X52059195Y-70693476D01*
X51980588Y-70847751D01*
X51927084Y-71012420D01*
X51900000Y-71183424D01*
X50500500Y-71183424D01*
X50500500Y-61436532D01*
X51949500Y-61436532D01*
X51949500Y-61643467D01*
X51989869Y-61846418D01*
X52069058Y-62037597D01*
X52107730Y-62095474D01*
X52184023Y-62209655D01*
X52330345Y-62355977D01*
X52502402Y-62470941D01*
X52693580Y-62550130D01*
X52896535Y-62590500D01*
X52896536Y-62590500D01*
X53103464Y-62590500D01*
X53103465Y-62590500D01*
X53306420Y-62550130D01*
X53442405Y-62493802D01*
X53503399Y-62489002D01*
X53550292Y-62515263D01*
X57103804Y-66068775D01*
X57131581Y-66123292D01*
X57132800Y-66138779D01*
X57132800Y-68832145D01*
X57113893Y-68890336D01*
X57064393Y-68926300D01*
X57003207Y-68926300D01*
X57001102Y-68925589D01*
X56934703Y-68902355D01*
X56934694Y-68902353D01*
X56904274Y-68899500D01*
X56904266Y-68899500D01*
X56145734Y-68899500D01*
X56145725Y-68899500D01*
X56115305Y-68902353D01*
X56115296Y-68902355D01*
X55987116Y-68947207D01*
X55877855Y-69027845D01*
X55877845Y-69027855D01*
X55797207Y-69137116D01*
X55752355Y-69265296D01*
X55752353Y-69265305D01*
X55749500Y-69295725D01*
X55749500Y-69600500D01*
X55744655Y-69615411D01*
X55744655Y-69631093D01*
X55735438Y-69643778D01*
X55730593Y-69658691D01*
X55717907Y-69667907D01*
X55708691Y-69680593D01*
X55693778Y-69685438D01*
X55681093Y-69694655D01*
X55650500Y-69699500D01*
X55587179Y-69699500D01*
X55528988Y-69680593D01*
X55517175Y-69670504D01*
X54971922Y-69125251D01*
X54336211Y-68489540D01*
X54323380Y-68482132D01*
X54294552Y-68465488D01*
X54294551Y-68465488D01*
X54267688Y-68449978D01*
X54191264Y-68429500D01*
X54191262Y-68429500D01*
X54149500Y-68429500D01*
X54091309Y-68410593D01*
X54055345Y-68361093D01*
X54050500Y-68330500D01*
X54050500Y-67860253D01*
X54050498Y-67860241D01*
X54047711Y-67846231D01*
X54038867Y-67801769D01*
X53994552Y-67735448D01*
X53931739Y-67693477D01*
X53928233Y-67691134D01*
X53928231Y-67691133D01*
X53928228Y-67691132D01*
X53928227Y-67691132D01*
X53869758Y-67679501D01*
X53869748Y-67679500D01*
X52130252Y-67679500D01*
X52130251Y-67679500D01*
X52130241Y-67679501D01*
X52071772Y-67691132D01*
X52071766Y-67691134D01*
X52005451Y-67735445D01*
X52005445Y-67735451D01*
X51961134Y-67801766D01*
X51961132Y-67801772D01*
X51949501Y-67860241D01*
X51949500Y-67860253D01*
X51949500Y-69599746D01*
X51949501Y-69599758D01*
X51961132Y-69658227D01*
X51961134Y-69658233D01*
X52005445Y-69724548D01*
X52005448Y-69724552D01*
X52071769Y-69768867D01*
X52116231Y-69777711D01*
X52130241Y-69780498D01*
X52130246Y-69780498D01*
X52130252Y-69780500D01*
X52130253Y-69780500D01*
X53869747Y-69780500D01*
X53869748Y-69780500D01*
X53928231Y-69768867D01*
X53994552Y-69724552D01*
X54038867Y-69658231D01*
X54050500Y-69599748D01*
X54050500Y-69292779D01*
X54069407Y-69234588D01*
X54118907Y-69198624D01*
X54180093Y-69198624D01*
X54219504Y-69222775D01*
X55181240Y-70184511D01*
X55181239Y-70184511D01*
X55237189Y-70240460D01*
X55305707Y-70280019D01*
X55305711Y-70280021D01*
X55382135Y-70300499D01*
X55382137Y-70300500D01*
X55382138Y-70300500D01*
X55461262Y-70300500D01*
X55650500Y-70300500D01*
X55708691Y-70319407D01*
X55744655Y-70368907D01*
X55749500Y-70399500D01*
X55749500Y-70704274D01*
X55752353Y-70734694D01*
X55752355Y-70734703D01*
X55797207Y-70862883D01*
X55877845Y-70972144D01*
X55877847Y-70972146D01*
X55877850Y-70972150D01*
X55877853Y-70972152D01*
X55877855Y-70972154D01*
X55987116Y-71052792D01*
X55987117Y-71052792D01*
X55987118Y-71052793D01*
X56115301Y-71097646D01*
X56145725Y-71100499D01*
X56145727Y-71100500D01*
X56145734Y-71100500D01*
X56904273Y-71100500D01*
X56904273Y-71100499D01*
X56934699Y-71097646D01*
X57001104Y-71074409D01*
X57062271Y-71073036D01*
X57112566Y-71107880D01*
X57132775Y-71165631D01*
X57132800Y-71167854D01*
X57132800Y-74503964D01*
X57153278Y-74580388D01*
X57172691Y-74614011D01*
X57172693Y-74614014D01*
X57189992Y-74643979D01*
X57192840Y-74648911D01*
X61728440Y-79184511D01*
X61728439Y-79184511D01*
X61784389Y-79240460D01*
X61852907Y-79280019D01*
X61852911Y-79280021D01*
X61929335Y-79300499D01*
X61929337Y-79300500D01*
X61929338Y-79300500D01*
X66488992Y-79300500D01*
X66547183Y-79319407D01*
X66583147Y-79368907D01*
X66586773Y-79384013D01*
X66589352Y-79400300D01*
X66589354Y-79400304D01*
X66646950Y-79513342D01*
X66736658Y-79603050D01*
X66849696Y-79660646D01*
X66943481Y-79675500D01*
X67406518Y-79675499D01*
X67406520Y-79675499D01*
X67406521Y-79675498D01*
X67453411Y-79668072D01*
X67500299Y-79660647D01*
X67500299Y-79660646D01*
X67500304Y-79660646D01*
X67613342Y-79603050D01*
X67703050Y-79513342D01*
X67760646Y-79400304D01*
X67775500Y-79306519D01*
X67775499Y-78693482D01*
X67775498Y-78693478D01*
X67775498Y-78693476D01*
X67760647Y-78599700D01*
X67760646Y-78599698D01*
X67760646Y-78599696D01*
X67703050Y-78486658D01*
X67613342Y-78396950D01*
X67500304Y-78339354D01*
X67500305Y-78339354D01*
X67406522Y-78324500D01*
X66943479Y-78324500D01*
X66943476Y-78324501D01*
X66849700Y-78339352D01*
X66849695Y-78339354D01*
X66736659Y-78396949D01*
X66646949Y-78486659D01*
X66589354Y-78599695D01*
X66586774Y-78615986D01*
X66558997Y-78670503D01*
X66504481Y-78698281D01*
X66488993Y-78699500D01*
X62134379Y-78699500D01*
X62076188Y-78680593D01*
X62064375Y-78670504D01*
X58238374Y-74844503D01*
X58210597Y-74789986D01*
X58220168Y-74729554D01*
X58263433Y-74686289D01*
X58308378Y-74675499D01*
X58406521Y-74675499D01*
X58406522Y-74675498D01*
X58453411Y-74668072D01*
X58500299Y-74660647D01*
X58500299Y-74660646D01*
X58500304Y-74660646D01*
X58613342Y-74603050D01*
X58703050Y-74513342D01*
X58760646Y-74400304D01*
X58775500Y-74306519D01*
X58775499Y-73693482D01*
X58775498Y-73693477D01*
X59224500Y-73693477D01*
X59224500Y-74306520D01*
X59224501Y-74306523D01*
X59239352Y-74400299D01*
X59239354Y-74400304D01*
X59296950Y-74513342D01*
X59386658Y-74603050D01*
X59499696Y-74660646D01*
X59593481Y-74675500D01*
X60056518Y-74675499D01*
X60056520Y-74675499D01*
X60056521Y-74675498D01*
X60103411Y-74668072D01*
X60150299Y-74660647D01*
X60150299Y-74660646D01*
X60150304Y-74660646D01*
X60263342Y-74603050D01*
X60353050Y-74513342D01*
X60410646Y-74400304D01*
X60425500Y-74306519D01*
X60425499Y-73865477D01*
X60444406Y-73807287D01*
X60454489Y-73795480D01*
X62489260Y-71760711D01*
X62489936Y-71759540D01*
X62528821Y-71692189D01*
X62549300Y-71615762D01*
X62549300Y-68355079D01*
X62568207Y-68296888D01*
X62578296Y-68285075D01*
X65130496Y-65732875D01*
X65185013Y-65705098D01*
X65245445Y-65714669D01*
X65288710Y-65757934D01*
X65299500Y-65802879D01*
X65299500Y-65818260D01*
X65305189Y-65857307D01*
X65309427Y-65886395D01*
X65332572Y-65933738D01*
X65360802Y-65991483D01*
X65443517Y-66074198D01*
X65466000Y-66085189D01*
X65548604Y-66125572D01*
X65548605Y-66125572D01*
X65548607Y-66125573D01*
X65616740Y-66135500D01*
X65616743Y-66135500D01*
X67333259Y-66135500D01*
X67333260Y-66135500D01*
X67370726Y-66130041D01*
X67392992Y-66133851D01*
X67415593Y-66133851D01*
X67422555Y-66138909D01*
X67431034Y-66140360D01*
X67446810Y-66156531D01*
X67465093Y-66169815D01*
X67467751Y-66177998D01*
X67473759Y-66184156D01*
X67484000Y-66228006D01*
X67484000Y-66311993D01*
X67465093Y-66370184D01*
X67415593Y-66406148D01*
X67370727Y-66409959D01*
X67333260Y-66404500D01*
X65616740Y-66404500D01*
X65582673Y-66409463D01*
X65548604Y-66414427D01*
X65443518Y-66465801D01*
X65360801Y-66548518D01*
X65309427Y-66653604D01*
X65308753Y-66658231D01*
X65299500Y-66721740D01*
X65299500Y-67088260D01*
X65299847Y-67090639D01*
X65309427Y-67156395D01*
X65329319Y-67197084D01*
X65360802Y-67261483D01*
X65443517Y-67344198D01*
X65466000Y-67355189D01*
X65548604Y-67395572D01*
X65548605Y-67395572D01*
X65548607Y-67395573D01*
X65616740Y-67405500D01*
X66012700Y-67405500D01*
X66070891Y-67424407D01*
X66106855Y-67473907D01*
X66111700Y-67504500D01*
X66111700Y-74524500D01*
X66092793Y-74582691D01*
X66043293Y-74618655D01*
X66012700Y-74623500D01*
X64165562Y-74623500D01*
X64086438Y-74623500D01*
X64039661Y-74636033D01*
X64010007Y-74643979D01*
X63941493Y-74683536D01*
X63941488Y-74683540D01*
X63549414Y-75075613D01*
X63494898Y-75103390D01*
X63446714Y-75099054D01*
X63446294Y-75098907D01*
X63384699Y-75077354D01*
X63384697Y-75077353D01*
X63384694Y-75077353D01*
X63354274Y-75074500D01*
X63354266Y-75074500D01*
X62745734Y-75074500D01*
X62745725Y-75074500D01*
X62715305Y-75077353D01*
X62715296Y-75077355D01*
X62587116Y-75122207D01*
X62477855Y-75202845D01*
X62477845Y-75202855D01*
X62397207Y-75312116D01*
X62352355Y-75440296D01*
X62352353Y-75440305D01*
X62349500Y-75470725D01*
X62349500Y-76529274D01*
X62352353Y-76559694D01*
X62352355Y-76559703D01*
X62397207Y-76687883D01*
X62477845Y-76797144D01*
X62477847Y-76797146D01*
X62477850Y-76797150D01*
X62477853Y-76797152D01*
X62477855Y-76797154D01*
X62587116Y-76877792D01*
X62587117Y-76877792D01*
X62587118Y-76877793D01*
X62715301Y-76922646D01*
X62745725Y-76925499D01*
X62745727Y-76925500D01*
X62745734Y-76925500D01*
X63354273Y-76925500D01*
X63354273Y-76925499D01*
X63384699Y-76922646D01*
X63512882Y-76877793D01*
X63622150Y-76797150D01*
X63702793Y-76687882D01*
X63747646Y-76559699D01*
X63750499Y-76529273D01*
X63750500Y-76529273D01*
X63750500Y-75765479D01*
X63769407Y-75707288D01*
X63779496Y-75695475D01*
X64221475Y-75253496D01*
X64275992Y-75225719D01*
X64291479Y-75224500D01*
X66372638Y-75224500D01*
X66476956Y-75224500D01*
X66535147Y-75243407D01*
X66571111Y-75292907D01*
X66574737Y-75308014D01*
X66589352Y-75400300D01*
X66589354Y-75400304D01*
X66646950Y-75513342D01*
X66736658Y-75603050D01*
X66849696Y-75660646D01*
X66943481Y-75675500D01*
X67406518Y-75675499D01*
X67406520Y-75675499D01*
X67406521Y-75675498D01*
X67475502Y-75664574D01*
X67500299Y-75660647D01*
X67500299Y-75660646D01*
X67500304Y-75660646D01*
X67613342Y-75603050D01*
X67703050Y-75513342D01*
X67760646Y-75400304D01*
X67775500Y-75306519D01*
X67775499Y-74865477D01*
X67794406Y-74807287D01*
X67804489Y-74795481D01*
X69065460Y-73534511D01*
X69105021Y-73465989D01*
X69125500Y-73389562D01*
X69125500Y-72733951D01*
X69144407Y-72675760D01*
X69179552Y-72645742D01*
X69263342Y-72603050D01*
X69353050Y-72513342D01*
X69410646Y-72400304D01*
X69425500Y-72306519D01*
X69425499Y-71693482D01*
X69413191Y-71615764D01*
X69410647Y-71599700D01*
X69410646Y-71599698D01*
X69410646Y-71599696D01*
X69353050Y-71486658D01*
X69263342Y-71396950D01*
X69150304Y-71339354D01*
X69150305Y-71339354D01*
X69056522Y-71324500D01*
X68593479Y-71324500D01*
X68593476Y-71324501D01*
X68499700Y-71339352D01*
X68499695Y-71339354D01*
X68386659Y-71396949D01*
X68296949Y-71486659D01*
X68242254Y-71594003D01*
X68240999Y-71595257D01*
X68240648Y-71597156D01*
X68239354Y-71599695D01*
X68224500Y-71693477D01*
X68224500Y-72306520D01*
X68224501Y-72306523D01*
X68239352Y-72400299D01*
X68239354Y-72400304D01*
X68296950Y-72513342D01*
X68386658Y-72603050D01*
X68470446Y-72645742D01*
X68513710Y-72689006D01*
X68524500Y-72733951D01*
X68524500Y-73184520D01*
X68505593Y-73242711D01*
X68495504Y-73254524D01*
X67454523Y-74295504D01*
X67400006Y-74323281D01*
X67384519Y-74324500D01*
X66943479Y-74324500D01*
X66943476Y-74324501D01*
X66849696Y-74339352D01*
X66842291Y-74341759D01*
X66781105Y-74341758D01*
X66731606Y-74305793D01*
X66712700Y-74247604D01*
X66712700Y-72752395D01*
X66731607Y-72694204D01*
X66781107Y-72658240D01*
X66842292Y-72658240D01*
X66849694Y-72660645D01*
X66849696Y-72660646D01*
X66943481Y-72675500D01*
X67406518Y-72675499D01*
X67406520Y-72675499D01*
X67406521Y-72675498D01*
X67475502Y-72664574D01*
X67500299Y-72660647D01*
X67500299Y-72660646D01*
X67500304Y-72660646D01*
X67613342Y-72603050D01*
X67703050Y-72513342D01*
X67760646Y-72400304D01*
X67775500Y-72306519D01*
X67775499Y-71865477D01*
X67794406Y-71807287D01*
X67804496Y-71795474D01*
X67899670Y-71700300D01*
X68024960Y-71575011D01*
X68044908Y-71540460D01*
X68064521Y-71506489D01*
X68085000Y-71430062D01*
X68085000Y-63977638D01*
X68072640Y-63931511D01*
X68064522Y-63901212D01*
X68024960Y-63832689D01*
X67843492Y-63651221D01*
X67657092Y-63464820D01*
X67629315Y-63410304D01*
X67638155Y-63351338D01*
X67640573Y-63346393D01*
X67650500Y-63278260D01*
X67650500Y-62911740D01*
X67640573Y-62843607D01*
X67589198Y-62738517D01*
X67506483Y-62655802D01*
X67502838Y-62654020D01*
X67401395Y-62604427D01*
X67374139Y-62600456D01*
X67333260Y-62594500D01*
X67333257Y-62594500D01*
X66874500Y-62594500D01*
X66816309Y-62575593D01*
X66780345Y-62526093D01*
X66775500Y-62495500D01*
X66775500Y-55323237D01*
X66775499Y-55323235D01*
X66763434Y-55278210D01*
X66755021Y-55246811D01*
X66715460Y-55178289D01*
X66663572Y-55126401D01*
X66635797Y-55071887D01*
X66645368Y-55011455D01*
X66663575Y-54986396D01*
X66945476Y-54704496D01*
X66999992Y-54676719D01*
X67015479Y-54675500D01*
X67483489Y-54675500D01*
X67492486Y-54674074D01*
X67562614Y-54662967D01*
X67623044Y-54672538D01*
X67666309Y-54715802D01*
X67677100Y-54760748D01*
X67677100Y-59492164D01*
X67679200Y-59500000D01*
X67697579Y-59568589D01*
X67723140Y-59612862D01*
X67737140Y-59637111D01*
X70195505Y-62095476D01*
X70223281Y-62149991D01*
X70224500Y-62165478D01*
X70224500Y-77801962D01*
X70205593Y-77860153D01*
X70156093Y-77896117D01*
X70134748Y-77900529D01*
X70115304Y-77902353D01*
X70115296Y-77902355D01*
X69987116Y-77947207D01*
X69877855Y-78027845D01*
X69877845Y-78027855D01*
X69797207Y-78137116D01*
X69752355Y-78265296D01*
X69752353Y-78265305D01*
X69749500Y-78295725D01*
X69749500Y-79385421D01*
X69742336Y-79407468D01*
X69738710Y-79430366D01*
X69733061Y-79436014D01*
X69730593Y-79443612D01*
X69711836Y-79457239D01*
X69695445Y-79473631D01*
X69687555Y-79474880D01*
X69681093Y-79479576D01*
X69657908Y-79479576D01*
X69635013Y-79483202D01*
X69627896Y-79479576D01*
X69619907Y-79479576D01*
X69580496Y-79455425D01*
X69454495Y-79329424D01*
X69426718Y-79274907D01*
X69425499Y-79259420D01*
X69425499Y-78693478D01*
X69425498Y-78693476D01*
X69410647Y-78599700D01*
X69410646Y-78599698D01*
X69410646Y-78599696D01*
X69353050Y-78486658D01*
X69263342Y-78396950D01*
X69150304Y-78339354D01*
X69150305Y-78339354D01*
X69056522Y-78324500D01*
X68593479Y-78324500D01*
X68593476Y-78324501D01*
X68499700Y-78339352D01*
X68499695Y-78339354D01*
X68386659Y-78396949D01*
X68296949Y-78486659D01*
X68239354Y-78599695D01*
X68224500Y-78693477D01*
X68224500Y-79306520D01*
X68224501Y-79306523D01*
X68239352Y-79400299D01*
X68239354Y-79400304D01*
X68296950Y-79513342D01*
X68386658Y-79603050D01*
X68499696Y-79660646D01*
X68593481Y-79675500D01*
X68909620Y-79675499D01*
X68967810Y-79694406D01*
X68979624Y-79704495D01*
X69695940Y-80420811D01*
X69695939Y-80420811D01*
X69751889Y-80476760D01*
X69820407Y-80516319D01*
X69820411Y-80516321D01*
X69896835Y-80536799D01*
X69896837Y-80536800D01*
X69896838Y-80536800D01*
X71095963Y-80536800D01*
X71095963Y-80536799D01*
X71172389Y-80516321D01*
X71240911Y-80476760D01*
X71296860Y-80420811D01*
X72415460Y-79302211D01*
X72450864Y-79240889D01*
X72455021Y-79233689D01*
X72475500Y-79157262D01*
X72475500Y-78295725D01*
X72699500Y-78295725D01*
X72699500Y-79704274D01*
X72702353Y-79734694D01*
X72702355Y-79734703D01*
X72747207Y-79862883D01*
X72827845Y-79972144D01*
X72827847Y-79972146D01*
X72827850Y-79972150D01*
X72827853Y-79972152D01*
X72827855Y-79972154D01*
X72937116Y-80052792D01*
X72937117Y-80052792D01*
X72937118Y-80052793D01*
X73065301Y-80097646D01*
X73095725Y-80100499D01*
X73095727Y-80100500D01*
X73095734Y-80100500D01*
X73854273Y-80100500D01*
X73854273Y-80100499D01*
X73884699Y-80097646D01*
X74012882Y-80052793D01*
X74012881Y-80052793D01*
X74019884Y-80050343D01*
X74020965Y-80053432D01*
X74067394Y-80045359D01*
X74122323Y-80072311D01*
X74123387Y-80073359D01*
X74290488Y-80240459D01*
X74290493Y-80240463D01*
X74359008Y-80280020D01*
X74359006Y-80280020D01*
X74359010Y-80280021D01*
X74359012Y-80280022D01*
X74435438Y-80300500D01*
X76488992Y-80300500D01*
X76547183Y-80319407D01*
X76583147Y-80368907D01*
X76586773Y-80384013D01*
X76589352Y-80400300D01*
X76589354Y-80400304D01*
X76646950Y-80513342D01*
X76736658Y-80603050D01*
X76849696Y-80660646D01*
X76943481Y-80675500D01*
X77406518Y-80675499D01*
X77406520Y-80675499D01*
X77406521Y-80675498D01*
X77453411Y-80668072D01*
X77500299Y-80660647D01*
X77500299Y-80660646D01*
X77500304Y-80660646D01*
X77613342Y-80603050D01*
X77703050Y-80513342D01*
X77760646Y-80400304D01*
X77775500Y-80306519D01*
X77775499Y-79693482D01*
X77775498Y-79693477D01*
X78224500Y-79693477D01*
X78224500Y-80306520D01*
X78224501Y-80306523D01*
X78239352Y-80400299D01*
X78239354Y-80400304D01*
X78296950Y-80513342D01*
X78386658Y-80603050D01*
X78499696Y-80660646D01*
X78593481Y-80675500D01*
X79056518Y-80675499D01*
X79056520Y-80675499D01*
X79056521Y-80675498D01*
X79103411Y-80668072D01*
X79150299Y-80660647D01*
X79150299Y-80660646D01*
X79150304Y-80660646D01*
X79263342Y-80603050D01*
X79353050Y-80513342D01*
X79410646Y-80400304D01*
X79425500Y-80306519D01*
X79425499Y-79865477D01*
X79444406Y-79807287D01*
X79454489Y-79795480D01*
X81920475Y-77329496D01*
X81974992Y-77301719D01*
X81990479Y-77300500D01*
X85488992Y-77300500D01*
X85547183Y-77319407D01*
X85583147Y-77368907D01*
X85586773Y-77384013D01*
X85589352Y-77400300D01*
X85589354Y-77400304D01*
X85646950Y-77513342D01*
X85736658Y-77603050D01*
X85849696Y-77660646D01*
X85943481Y-77675500D01*
X86406518Y-77675499D01*
X86406520Y-77675499D01*
X86406521Y-77675498D01*
X86453411Y-77668072D01*
X86500299Y-77660647D01*
X86500299Y-77660646D01*
X86500304Y-77660646D01*
X86613342Y-77603050D01*
X86703050Y-77513342D01*
X86760646Y-77400304D01*
X86775500Y-77306519D01*
X86775500Y-77183424D01*
X90900000Y-77183424D01*
X90900000Y-77356575D01*
X90927084Y-77527579D01*
X90980588Y-77692248D01*
X91059195Y-77846524D01*
X91059197Y-77846528D01*
X91123219Y-77934646D01*
X91556328Y-77501536D01*
X91599901Y-77577007D01*
X91692993Y-77670099D01*
X91768460Y-77713670D01*
X91335352Y-78146778D01*
X91423477Y-78210805D01*
X91577751Y-78289411D01*
X91742420Y-78342915D01*
X91913425Y-78370000D01*
X92086575Y-78370000D01*
X92257579Y-78342915D01*
X92422248Y-78289411D01*
X92576524Y-78210804D01*
X92576530Y-78210800D01*
X92664646Y-78146779D01*
X92664646Y-78146778D01*
X92231538Y-77713670D01*
X92307007Y-77670099D01*
X92400099Y-77577007D01*
X92443670Y-77501538D01*
X92876778Y-77934646D01*
X92876779Y-77934646D01*
X92940800Y-77846530D01*
X92940804Y-77846524D01*
X93019411Y-77692248D01*
X93072915Y-77527579D01*
X93100000Y-77356575D01*
X93100000Y-77183424D01*
X93072915Y-77012420D01*
X93019411Y-76847751D01*
X92940805Y-76693477D01*
X92876778Y-76605352D01*
X92443670Y-77038460D01*
X92400099Y-76962993D01*
X92307007Y-76869901D01*
X92231536Y-76826328D01*
X92664646Y-76393219D01*
X92576528Y-76329197D01*
X92576524Y-76329195D01*
X92422248Y-76250588D01*
X92257579Y-76197084D01*
X92086575Y-76170000D01*
X91913425Y-76170000D01*
X91742420Y-76197084D01*
X91577751Y-76250588D01*
X91423476Y-76329195D01*
X91335352Y-76393219D01*
X91768461Y-76826328D01*
X91692993Y-76869901D01*
X91599901Y-76962993D01*
X91556328Y-77038461D01*
X91123219Y-76605352D01*
X91059195Y-76693476D01*
X90980588Y-76847751D01*
X90927084Y-77012420D01*
X90900000Y-77183424D01*
X86775500Y-77183424D01*
X86775499Y-77057866D01*
X86775499Y-76865478D01*
X86794406Y-76807288D01*
X86804496Y-76795474D01*
X87239023Y-76360947D01*
X87762088Y-75837883D01*
X88540475Y-75059496D01*
X88594992Y-75031719D01*
X88610479Y-75030500D01*
X90850500Y-75030500D01*
X90908691Y-75049407D01*
X90944655Y-75098907D01*
X90949500Y-75129500D01*
X90949500Y-75599746D01*
X90949501Y-75599758D01*
X90961132Y-75658227D01*
X90961134Y-75658233D01*
X90986019Y-75695475D01*
X91005448Y-75724552D01*
X91071769Y-75768867D01*
X91116231Y-75777711D01*
X91130241Y-75780498D01*
X91130246Y-75780498D01*
X91130252Y-75780500D01*
X91130253Y-75780500D01*
X92869747Y-75780500D01*
X92869748Y-75780500D01*
X92928231Y-75768867D01*
X92994552Y-75724552D01*
X93038867Y-75658231D01*
X93050500Y-75599748D01*
X93050500Y-73860252D01*
X93038867Y-73801769D01*
X92994552Y-73735448D01*
X92932489Y-73693978D01*
X92928233Y-73691134D01*
X92928231Y-73691133D01*
X92928228Y-73691132D01*
X92928227Y-73691132D01*
X92869758Y-73679501D01*
X92869748Y-73679500D01*
X91130252Y-73679500D01*
X91130251Y-73679500D01*
X91130241Y-73679501D01*
X91071772Y-73691132D01*
X91071766Y-73691134D01*
X91005451Y-73735445D01*
X91005445Y-73735451D01*
X90961134Y-73801766D01*
X90961132Y-73801772D01*
X90949501Y-73860241D01*
X90949500Y-73860253D01*
X90949500Y-74330500D01*
X90930593Y-74388691D01*
X90881093Y-74424655D01*
X90850500Y-74429500D01*
X88484562Y-74429500D01*
X88405438Y-74429500D01*
X88358661Y-74442033D01*
X88329007Y-74449979D01*
X88260493Y-74489536D01*
X88260492Y-74489537D01*
X86454523Y-76295504D01*
X86400006Y-76323281D01*
X86384519Y-76324500D01*
X85943479Y-76324500D01*
X85943476Y-76324501D01*
X85849700Y-76339352D01*
X85849695Y-76339354D01*
X85736659Y-76396949D01*
X85646949Y-76486659D01*
X85589354Y-76599695D01*
X85586774Y-76615986D01*
X85558997Y-76670503D01*
X85504481Y-76698281D01*
X85488993Y-76699500D01*
X81864562Y-76699500D01*
X81785438Y-76699500D01*
X81738661Y-76712033D01*
X81709007Y-76719979D01*
X81640493Y-76759536D01*
X81640492Y-76759537D01*
X79104523Y-79295504D01*
X79050006Y-79323281D01*
X79034519Y-79324500D01*
X78593479Y-79324500D01*
X78593476Y-79324501D01*
X78499700Y-79339352D01*
X78499695Y-79339354D01*
X78386659Y-79396949D01*
X78296949Y-79486659D01*
X78239354Y-79599695D01*
X78224500Y-79693477D01*
X77775498Y-79693477D01*
X77775498Y-79693475D01*
X77760647Y-79599700D01*
X77760646Y-79599698D01*
X77760646Y-79599696D01*
X77703050Y-79486658D01*
X77613342Y-79396950D01*
X77500304Y-79339354D01*
X77500305Y-79339354D01*
X77406522Y-79324500D01*
X76943479Y-79324500D01*
X76943476Y-79324501D01*
X76849700Y-79339352D01*
X76849695Y-79339354D01*
X76736659Y-79396949D01*
X76646949Y-79486659D01*
X76589354Y-79599695D01*
X76586774Y-79615986D01*
X76558997Y-79670503D01*
X76504481Y-79698281D01*
X76488993Y-79699500D01*
X74640479Y-79699500D01*
X74582288Y-79680593D01*
X74570475Y-79670504D01*
X74279496Y-79379525D01*
X74251719Y-79325008D01*
X74250500Y-79309521D01*
X74250500Y-78295727D01*
X74250499Y-78295725D01*
X74247646Y-78265305D01*
X74247646Y-78265301D01*
X74202793Y-78137118D01*
X74122150Y-78027850D01*
X74122146Y-78027847D01*
X74122144Y-78027845D01*
X74012883Y-77947207D01*
X73884703Y-77902355D01*
X73884694Y-77902353D01*
X73854274Y-77899500D01*
X73854266Y-77899500D01*
X73095734Y-77899500D01*
X73095725Y-77899500D01*
X73065305Y-77902353D01*
X73065296Y-77902355D01*
X72937116Y-77947207D01*
X72827855Y-78027845D01*
X72827845Y-78027855D01*
X72747207Y-78137116D01*
X72702355Y-78265296D01*
X72702353Y-78265305D01*
X72699500Y-78295725D01*
X72475500Y-78295725D01*
X72475500Y-75733951D01*
X72494407Y-75675760D01*
X72529552Y-75645742D01*
X72613342Y-75603050D01*
X72703050Y-75513342D01*
X72760646Y-75400304D01*
X72775500Y-75306519D01*
X72775499Y-74865476D01*
X72794406Y-74807286D01*
X72804489Y-74795480D01*
X73220475Y-74379496D01*
X73274991Y-74351719D01*
X73290478Y-74350500D01*
X76096635Y-74350500D01*
X76154826Y-74369407D01*
X76180610Y-74400108D01*
X76181035Y-74399806D01*
X76184884Y-74405197D01*
X76185576Y-74406020D01*
X76185802Y-74406483D01*
X76268517Y-74489198D01*
X76317901Y-74513340D01*
X76373604Y-74540572D01*
X76373605Y-74540572D01*
X76373607Y-74540573D01*
X76441740Y-74550500D01*
X76441743Y-74550500D01*
X77683257Y-74550500D01*
X77683260Y-74550500D01*
X77751393Y-74540573D01*
X77856483Y-74489198D01*
X77939198Y-74406483D01*
X77990573Y-74301393D01*
X78000500Y-74233260D01*
X78000500Y-73866740D01*
X77990573Y-73798607D01*
X77989041Y-73795474D01*
X77939198Y-73693518D01*
X77939198Y-73693517D01*
X77856483Y-73610802D01*
X77856481Y-73610801D01*
X77751395Y-73559427D01*
X77724139Y-73555456D01*
X77683260Y-73549500D01*
X76441740Y-73549500D01*
X76407673Y-73554463D01*
X76373604Y-73559427D01*
X76268518Y-73610801D01*
X76185801Y-73693518D01*
X76185577Y-73693978D01*
X76185180Y-73694387D01*
X76181035Y-73700194D01*
X76180164Y-73699572D01*
X76143035Y-73737953D01*
X76096635Y-73749500D01*
X73085435Y-73749500D01*
X73009011Y-73769978D01*
X72966070Y-73794770D01*
X72964853Y-73795474D01*
X72959428Y-73798606D01*
X72959424Y-73798608D01*
X72940491Y-73809538D01*
X72940489Y-73809539D01*
X72454523Y-74295504D01*
X72400007Y-74323281D01*
X72384520Y-74324500D01*
X71943479Y-74324500D01*
X71943476Y-74324501D01*
X71849700Y-74339352D01*
X71849695Y-74339354D01*
X71736659Y-74396949D01*
X71646949Y-74486659D01*
X71589354Y-74599695D01*
X71574500Y-74693477D01*
X71574500Y-75306520D01*
X71574501Y-75306523D01*
X71589352Y-75400299D01*
X71589354Y-75400304D01*
X71646950Y-75513342D01*
X71736658Y-75603050D01*
X71820446Y-75645742D01*
X71863710Y-75689006D01*
X71874500Y-75733951D01*
X71874500Y-78952221D01*
X71855593Y-79010412D01*
X71845504Y-79022225D01*
X71469504Y-79398225D01*
X71414987Y-79426002D01*
X71354555Y-79416431D01*
X71311290Y-79373166D01*
X71300500Y-79328221D01*
X71300500Y-78295727D01*
X71300499Y-78295725D01*
X71297646Y-78265305D01*
X71297646Y-78265301D01*
X71252793Y-78137118D01*
X71172150Y-78027850D01*
X71172146Y-78027847D01*
X71172144Y-78027845D01*
X71062883Y-77947207D01*
X70934703Y-77902355D01*
X70934695Y-77902353D01*
X70915252Y-77900529D01*
X70859082Y-77876268D01*
X70827899Y-77823625D01*
X70825500Y-77801962D01*
X70825500Y-68693477D01*
X72574500Y-68693477D01*
X72574500Y-69306520D01*
X72574501Y-69306523D01*
X72589352Y-69400299D01*
X72589354Y-69400304D01*
X72646950Y-69513342D01*
X72736658Y-69603050D01*
X72849696Y-69660646D01*
X72943481Y-69675500D01*
X73406518Y-69675499D01*
X73406520Y-69675499D01*
X73406521Y-69675498D01*
X73454456Y-69667907D01*
X73500299Y-69660647D01*
X73500299Y-69660646D01*
X73500304Y-69660646D01*
X73613342Y-69603050D01*
X73703050Y-69513342D01*
X73760646Y-69400304D01*
X73775500Y-69306519D01*
X73775499Y-68693482D01*
X73760646Y-68599696D01*
X73703050Y-68486658D01*
X73613342Y-68396950D01*
X73611079Y-68395797D01*
X73529554Y-68354257D01*
X73486290Y-68310992D01*
X73475500Y-68266048D01*
X73475500Y-67592178D01*
X73494407Y-67533987D01*
X73504490Y-67522180D01*
X77740460Y-63286211D01*
X77780022Y-63217688D01*
X77800500Y-63141262D01*
X77800500Y-63099500D01*
X77819407Y-63041309D01*
X77868907Y-63005345D01*
X77899500Y-63000500D01*
X79119747Y-63000500D01*
X79119748Y-63000500D01*
X79178231Y-62988867D01*
X79244552Y-62944552D01*
X79288867Y-62878231D01*
X79300500Y-62819748D01*
X79300500Y-61180252D01*
X79288867Y-61121769D01*
X79244552Y-61055448D01*
X79225028Y-61042402D01*
X79178233Y-61011134D01*
X79178231Y-61011133D01*
X79178228Y-61011132D01*
X79178227Y-61011132D01*
X79119758Y-60999501D01*
X79119748Y-60999500D01*
X79119747Y-60999500D01*
X77899500Y-60999500D01*
X77841309Y-60980593D01*
X77805345Y-60931093D01*
X77800500Y-60900500D01*
X77800500Y-60858737D01*
X77800499Y-60858735D01*
X77780021Y-60782311D01*
X77780019Y-60782307D01*
X77740460Y-60713789D01*
X77684511Y-60657839D01*
X77684511Y-60657840D01*
X76504496Y-59477825D01*
X76476719Y-59423308D01*
X76475500Y-59407821D01*
X76475500Y-57733951D01*
X76494407Y-57675760D01*
X76529552Y-57645742D01*
X76613342Y-57603050D01*
X76703050Y-57513342D01*
X76760646Y-57400304D01*
X76775500Y-57306519D01*
X76775499Y-56693482D01*
X76775498Y-56693477D01*
X77224500Y-56693477D01*
X77224500Y-57306520D01*
X77224501Y-57306523D01*
X77239352Y-57400299D01*
X77239354Y-57400304D01*
X77296950Y-57513342D01*
X77386658Y-57603050D01*
X77499696Y-57660646D01*
X77593481Y-57675500D01*
X78056518Y-57675499D01*
X78056520Y-57675499D01*
X78056521Y-57675498D01*
X78125502Y-57664574D01*
X78150299Y-57660647D01*
X78150299Y-57660646D01*
X78150304Y-57660646D01*
X78263342Y-57603050D01*
X78353050Y-57513342D01*
X78410646Y-57400304D01*
X78425500Y-57306519D01*
X78425499Y-56693482D01*
X78423722Y-56682263D01*
X78410647Y-56599700D01*
X78410646Y-56599698D01*
X78410646Y-56599696D01*
X78353050Y-56486658D01*
X78263342Y-56396950D01*
X78261079Y-56395797D01*
X78179554Y-56354257D01*
X78163164Y-56337867D01*
X78144407Y-56324239D01*
X78141938Y-56316640D01*
X78136290Y-56310992D01*
X78125500Y-56266048D01*
X78125500Y-56236279D01*
X78144407Y-56178088D01*
X78154496Y-56166275D01*
X81040996Y-53279775D01*
X81095513Y-53251998D01*
X81155945Y-53261569D01*
X81199210Y-53304834D01*
X81210000Y-53349779D01*
X81210000Y-53769999D01*
X81210001Y-53770000D01*
X81982555Y-53770000D01*
X81960000Y-53854174D01*
X81960000Y-53985826D01*
X81982555Y-54070000D01*
X81210001Y-54070000D01*
X81210000Y-54070001D01*
X81210000Y-54944624D01*
X81224506Y-55017546D01*
X81224507Y-55017548D01*
X81279758Y-55100237D01*
X81279762Y-55100241D01*
X81362451Y-55155492D01*
X81362453Y-55155493D01*
X81435375Y-55169999D01*
X81435377Y-55170000D01*
X81935074Y-55170000D01*
X81993265Y-55188907D01*
X82029229Y-55238407D01*
X82029229Y-55299593D01*
X81993265Y-55349093D01*
X81980020Y-55357209D01*
X81971118Y-55361745D01*
X81830803Y-55433238D01*
X81677928Y-55544309D01*
X81544309Y-55677928D01*
X81433238Y-55830803D01*
X81347453Y-55999167D01*
X81289058Y-56178886D01*
X81259500Y-56365515D01*
X81259500Y-56554484D01*
X81289058Y-56741113D01*
X81347452Y-56920830D01*
X81391333Y-57006952D01*
X81400904Y-57067384D01*
X81373127Y-57121900D01*
X80165489Y-58329540D01*
X80165488Y-58329539D01*
X80109539Y-58385489D01*
X80069980Y-58454007D01*
X80069978Y-58454011D01*
X80049500Y-58530435D01*
X80049500Y-69125251D01*
X80030593Y-69183442D01*
X79995446Y-69213460D01*
X79871781Y-69276471D01*
X79776470Y-69371782D01*
X79715283Y-69491867D01*
X79715281Y-69491874D01*
X79699500Y-69591510D01*
X79699500Y-70408489D01*
X79715281Y-70508125D01*
X79715283Y-70508132D01*
X79776470Y-70628217D01*
X79776472Y-70628220D01*
X79871780Y-70723528D01*
X79871782Y-70723529D01*
X79991867Y-70784716D01*
X79991869Y-70784716D01*
X79991874Y-70784719D01*
X80067541Y-70796703D01*
X80091510Y-70800500D01*
X80091512Y-70800500D01*
X80608490Y-70800500D01*
X80629885Y-70797111D01*
X80708126Y-70784719D01*
X80828220Y-70723528D01*
X80923528Y-70628220D01*
X80984719Y-70508126D01*
X81000500Y-70408488D01*
X81000500Y-69591512D01*
X80984719Y-69491874D01*
X80984716Y-69491869D01*
X80984716Y-69491867D01*
X80923529Y-69371782D01*
X80923528Y-69371780D01*
X80828220Y-69276472D01*
X80806286Y-69265296D01*
X80704554Y-69213460D01*
X80661290Y-69170195D01*
X80650500Y-69125251D01*
X80650500Y-63985515D01*
X81259500Y-63985515D01*
X81259500Y-64174484D01*
X81289058Y-64361113D01*
X81347453Y-64540832D01*
X81418664Y-64680593D01*
X81433240Y-64709199D01*
X81544310Y-64862073D01*
X81677927Y-64995690D01*
X81830801Y-65106760D01*
X81999168Y-65192547D01*
X82178882Y-65250940D01*
X82178883Y-65250940D01*
X82178886Y-65250941D01*
X82365516Y-65280500D01*
X82365519Y-65280500D01*
X82554484Y-65280500D01*
X82741113Y-65250941D01*
X82741114Y-65250940D01*
X82741118Y-65250940D01*
X82920832Y-65192547D01*
X83089199Y-65106760D01*
X83242073Y-64995690D01*
X83375690Y-64862073D01*
X83486760Y-64709199D01*
X83572547Y-64540832D01*
X83630940Y-64361118D01*
X83659350Y-64181743D01*
X83660500Y-64174484D01*
X83660500Y-63985515D01*
X83630941Y-63798886D01*
X83630940Y-63798882D01*
X83572547Y-63619168D01*
X83486760Y-63450801D01*
X83375690Y-63297927D01*
X83242073Y-63164310D01*
X83089199Y-63053240D01*
X83089198Y-63053239D01*
X83089196Y-63053238D01*
X82920832Y-62967453D01*
X82741113Y-62909058D01*
X82554484Y-62879500D01*
X82554481Y-62879500D01*
X82365519Y-62879500D01*
X82365516Y-62879500D01*
X82178886Y-62909058D01*
X81999167Y-62967453D01*
X81830803Y-63053238D01*
X81677928Y-63164309D01*
X81544309Y-63297928D01*
X81433238Y-63450803D01*
X81347453Y-63619167D01*
X81289058Y-63798886D01*
X81259500Y-63985515D01*
X80650500Y-63985515D01*
X80650500Y-58735478D01*
X80669407Y-58677287D01*
X80679490Y-58665480D01*
X81798100Y-57546869D01*
X81852615Y-57519094D01*
X81913044Y-57528664D01*
X81999168Y-57572547D01*
X82178882Y-57630940D01*
X82178883Y-57630940D01*
X82178886Y-57630941D01*
X82365516Y-57660500D01*
X82365519Y-57660500D01*
X82554484Y-57660500D01*
X82741113Y-57630941D01*
X82741114Y-57630940D01*
X82741118Y-57630940D01*
X82920832Y-57572547D01*
X83089199Y-57486760D01*
X83242073Y-57375690D01*
X83375690Y-57242073D01*
X83486760Y-57089199D01*
X83572547Y-56920832D01*
X83630940Y-56741118D01*
X83638485Y-56693479D01*
X83660500Y-56554484D01*
X83660500Y-56365515D01*
X83630941Y-56178886D01*
X83630682Y-56178088D01*
X83572547Y-55999168D01*
X83486760Y-55830801D01*
X83375690Y-55677927D01*
X83242073Y-55544310D01*
X83089199Y-55433240D01*
X83089198Y-55433239D01*
X83089196Y-55433238D01*
X82948882Y-55361745D01*
X82939980Y-55357209D01*
X82896716Y-55313945D01*
X82887145Y-55253513D01*
X82914922Y-55198997D01*
X82969439Y-55171219D01*
X82984926Y-55170000D01*
X83484623Y-55170000D01*
X83484624Y-55169999D01*
X83557546Y-55155493D01*
X83557548Y-55155492D01*
X83640237Y-55100241D01*
X83640241Y-55100237D01*
X83695492Y-55017548D01*
X83695493Y-55017546D01*
X83709999Y-54944624D01*
X83710000Y-54944622D01*
X83710000Y-54070001D01*
X83709999Y-54070000D01*
X82937445Y-54070000D01*
X82960000Y-53985826D01*
X82960000Y-53854174D01*
X82937445Y-53770000D01*
X83709999Y-53770000D01*
X83710000Y-53769999D01*
X83710000Y-53017800D01*
X83728907Y-52959609D01*
X83778407Y-52923645D01*
X83809000Y-52918800D01*
X86072821Y-52918800D01*
X86131012Y-52937707D01*
X86142825Y-52947796D01*
X86453127Y-53258098D01*
X86480904Y-53312615D01*
X86471333Y-53373046D01*
X86427454Y-53459164D01*
X86369058Y-53638886D01*
X86339500Y-53825515D01*
X86339500Y-54014484D01*
X86369058Y-54201113D01*
X86427453Y-54380832D01*
X86503087Y-54529274D01*
X86513240Y-54549199D01*
X86624310Y-54702073D01*
X86757927Y-54835690D01*
X86910801Y-54946760D01*
X87079168Y-55032547D01*
X87258882Y-55090940D01*
X87258883Y-55090940D01*
X87258886Y-55090941D01*
X87266954Y-55092219D01*
X87321471Y-55119996D01*
X87349248Y-55174513D01*
X87339677Y-55234945D01*
X87296412Y-55278210D01*
X87266954Y-55287781D01*
X87258886Y-55289058D01*
X87079167Y-55347453D01*
X86910803Y-55433238D01*
X86757928Y-55544309D01*
X86624309Y-55677928D01*
X86513238Y-55830803D01*
X86427453Y-55999167D01*
X86369058Y-56178886D01*
X86339500Y-56365515D01*
X86339500Y-56554484D01*
X86369058Y-56741113D01*
X86427452Y-56920830D01*
X86471333Y-57006952D01*
X86480904Y-57067384D01*
X86453127Y-57121900D01*
X84815489Y-58759540D01*
X84815488Y-58759539D01*
X84759539Y-58815489D01*
X84719980Y-58884007D01*
X84719978Y-58884011D01*
X84699500Y-58960435D01*
X84699500Y-68484520D01*
X84680593Y-68542711D01*
X84670504Y-68554524D01*
X84045193Y-69179834D01*
X83990676Y-69207611D01*
X83959702Y-69207611D01*
X83908491Y-69199500D01*
X83908488Y-69199500D01*
X83391512Y-69199500D01*
X83391510Y-69199500D01*
X83291874Y-69215281D01*
X83291867Y-69215283D01*
X83171782Y-69276470D01*
X83076470Y-69371782D01*
X83015283Y-69491867D01*
X83015281Y-69491874D01*
X82999500Y-69591510D01*
X82999500Y-70184521D01*
X82980593Y-70242712D01*
X82970504Y-70254525D01*
X78754525Y-74470504D01*
X78700008Y-74498281D01*
X78684521Y-74499500D01*
X78316740Y-74499500D01*
X78286102Y-74503964D01*
X78248604Y-74509427D01*
X78143518Y-74560801D01*
X78060801Y-74643518D01*
X78009427Y-74748604D01*
X78009427Y-74748607D01*
X77999500Y-74816740D01*
X77999500Y-75183260D01*
X78002355Y-75202855D01*
X78009427Y-75251395D01*
X78036378Y-75306523D01*
X78060802Y-75356483D01*
X78143517Y-75439198D01*
X78197285Y-75465483D01*
X78248604Y-75490572D01*
X78248605Y-75490572D01*
X78248607Y-75490573D01*
X78316740Y-75500500D01*
X78316743Y-75500500D01*
X79558257Y-75500500D01*
X79558260Y-75500500D01*
X79626393Y-75490573D01*
X79731483Y-75439198D01*
X79814198Y-75356483D01*
X79865573Y-75251393D01*
X79875500Y-75183260D01*
X79875500Y-74816740D01*
X79865573Y-74748607D01*
X79814198Y-74643517D01*
X79731483Y-74560802D01*
X79710091Y-74550344D01*
X79666118Y-74507801D01*
X79655549Y-74447536D01*
X79682422Y-74392567D01*
X79683511Y-74391458D01*
X79754244Y-74320725D01*
X80774500Y-74320725D01*
X80774500Y-75679274D01*
X80777353Y-75709694D01*
X80777355Y-75709703D01*
X80822207Y-75837883D01*
X80902845Y-75947144D01*
X80902847Y-75947146D01*
X80902850Y-75947150D01*
X80902853Y-75947152D01*
X80902855Y-75947154D01*
X81012116Y-76027792D01*
X81012117Y-76027792D01*
X81012118Y-76027793D01*
X81140301Y-76072646D01*
X81170725Y-76075499D01*
X81170727Y-76075500D01*
X81170734Y-76075500D01*
X81904273Y-76075500D01*
X81904273Y-76075499D01*
X81934699Y-76072646D01*
X82062882Y-76027793D01*
X82172150Y-75947150D01*
X82252793Y-75837882D01*
X82297646Y-75709699D01*
X82300499Y-75679273D01*
X82300500Y-75679273D01*
X82300500Y-74985822D01*
X82319407Y-74927631D01*
X82329496Y-74915818D01*
X83557518Y-73687796D01*
X83612035Y-73660019D01*
X83627522Y-73658800D01*
X87149890Y-73658800D01*
X87149892Y-73658800D01*
X87277186Y-73624692D01*
X87277188Y-73624690D01*
X87277190Y-73624690D01*
X87391309Y-73558803D01*
X87391309Y-73558802D01*
X87391314Y-73558800D01*
X89220817Y-71729295D01*
X89275334Y-71701519D01*
X89290821Y-71700300D01*
X89916090Y-71700300D01*
X89916092Y-71700300D01*
X90043386Y-71666192D01*
X90043388Y-71666190D01*
X90043390Y-71666190D01*
X90157509Y-71600303D01*
X90157509Y-71600302D01*
X90157514Y-71600300D01*
X90342185Y-71415627D01*
X90370344Y-71395910D01*
X90419799Y-71372850D01*
X90497850Y-71294799D01*
X90544499Y-71194760D01*
X90550500Y-71149179D01*
X90550500Y-71006614D01*
X90550500Y-70934107D01*
X90550500Y-70926133D01*
X90550499Y-70926119D01*
X90550499Y-70850825D01*
X90550498Y-70850815D01*
X90544499Y-70805240D01*
X90544499Y-70805238D01*
X90497851Y-70705203D01*
X90497850Y-70705202D01*
X90497850Y-70705201D01*
X90419799Y-70627150D01*
X90347819Y-70593585D01*
X90340186Y-70589611D01*
X90243186Y-70533608D01*
X90115893Y-70499500D01*
X89984108Y-70499500D01*
X89920461Y-70516554D01*
X89856812Y-70533608D01*
X89762771Y-70587901D01*
X89762745Y-70587917D01*
X89756079Y-70591767D01*
X89680201Y-70627150D01*
X89630272Y-70677078D01*
X89622320Y-70682431D01*
X89601665Y-70688330D01*
X89582529Y-70698081D01*
X89567043Y-70699300D01*
X89108392Y-70699300D01*
X88976607Y-70699300D01*
X88886187Y-70723528D01*
X88886186Y-70723527D01*
X88849314Y-70733407D01*
X88849310Y-70733409D01*
X88735190Y-70799296D01*
X88735185Y-70799300D01*
X88641999Y-70892485D01*
X88642000Y-70892486D01*
X88641998Y-70892488D01*
X88641996Y-70892489D01*
X88619340Y-70915144D01*
X88564823Y-70942920D01*
X88504391Y-70933348D01*
X88461127Y-70890082D01*
X88451208Y-70853996D01*
X88450922Y-70854034D01*
X88450648Y-70851959D01*
X88450549Y-70851596D01*
X88450499Y-70850839D01*
X88450499Y-70850822D01*
X88444499Y-70805240D01*
X88444499Y-70805238D01*
X88397851Y-70705203D01*
X88397850Y-70705202D01*
X88397850Y-70705201D01*
X88319799Y-70627150D01*
X88307658Y-70621488D01*
X88262912Y-70579760D01*
X88250500Y-70531765D01*
X88250500Y-68183424D01*
X90900000Y-68183424D01*
X90900000Y-68356575D01*
X90927084Y-68527579D01*
X90980588Y-68692248D01*
X91059195Y-68846524D01*
X91059197Y-68846528D01*
X91123219Y-68934646D01*
X91556328Y-68501536D01*
X91599901Y-68577007D01*
X91692993Y-68670099D01*
X91768460Y-68713670D01*
X91335352Y-69146778D01*
X91423477Y-69210805D01*
X91577751Y-69289411D01*
X91742420Y-69342915D01*
X91913425Y-69370000D01*
X92086575Y-69370000D01*
X92257579Y-69342915D01*
X92422248Y-69289411D01*
X92576524Y-69210804D01*
X92576530Y-69210800D01*
X92664646Y-69146779D01*
X92664646Y-69146778D01*
X92231538Y-68713670D01*
X92307007Y-68670099D01*
X92400099Y-68577007D01*
X92443670Y-68501538D01*
X92876778Y-68934646D01*
X92876779Y-68934646D01*
X92940800Y-68846530D01*
X92940804Y-68846524D01*
X93019411Y-68692248D01*
X93072915Y-68527579D01*
X93100000Y-68356575D01*
X93100000Y-68183424D01*
X93072915Y-68012420D01*
X93019411Y-67847751D01*
X92940805Y-67693477D01*
X92876778Y-67605352D01*
X92443670Y-68038460D01*
X92400099Y-67962993D01*
X92307007Y-67869901D01*
X92231536Y-67826328D01*
X92664646Y-67393219D01*
X92576528Y-67329197D01*
X92576524Y-67329195D01*
X92422248Y-67250588D01*
X92257579Y-67197084D01*
X92086575Y-67170000D01*
X91913425Y-67170000D01*
X91742420Y-67197084D01*
X91577751Y-67250588D01*
X91423476Y-67329195D01*
X91335352Y-67393219D01*
X91768461Y-67826328D01*
X91692993Y-67869901D01*
X91599901Y-67962993D01*
X91556328Y-68038461D01*
X91123219Y-67605352D01*
X91059195Y-67693476D01*
X90980588Y-67847751D01*
X90927084Y-68012420D01*
X90900000Y-68183424D01*
X88250500Y-68183424D01*
X88250500Y-65098134D01*
X88269407Y-65039943D01*
X88291309Y-65018042D01*
X88322067Y-64995694D01*
X88322073Y-64995690D01*
X88455690Y-64862073D01*
X88457012Y-64860253D01*
X90949500Y-64860253D01*
X90949500Y-66599746D01*
X90949501Y-66599758D01*
X90960213Y-66653607D01*
X90961133Y-66658231D01*
X91005448Y-66724552D01*
X91071769Y-66768867D01*
X91116231Y-66777711D01*
X91130241Y-66780498D01*
X91130246Y-66780498D01*
X91130252Y-66780500D01*
X91130253Y-66780500D01*
X92869747Y-66780500D01*
X92869748Y-66780500D01*
X92928231Y-66768867D01*
X92994552Y-66724552D01*
X93038867Y-66658231D01*
X93050500Y-66599748D01*
X93050500Y-64860252D01*
X93038867Y-64801769D01*
X92994552Y-64735448D01*
X92993346Y-64734642D01*
X92928233Y-64691134D01*
X92928231Y-64691133D01*
X92928228Y-64691132D01*
X92928227Y-64691132D01*
X92869758Y-64679501D01*
X92869748Y-64679500D01*
X91130252Y-64679500D01*
X91130251Y-64679500D01*
X91130241Y-64679501D01*
X91071772Y-64691132D01*
X91071766Y-64691134D01*
X91005451Y-64735445D01*
X91005445Y-64735451D01*
X90961134Y-64801766D01*
X90961132Y-64801772D01*
X90949501Y-64860241D01*
X90949500Y-64860253D01*
X88457012Y-64860253D01*
X88566760Y-64709199D01*
X88652547Y-64540832D01*
X88710940Y-64361118D01*
X88739350Y-64181743D01*
X88740500Y-64174484D01*
X88740500Y-63985515D01*
X88710941Y-63798886D01*
X88710940Y-63798882D01*
X88652547Y-63619168D01*
X88566760Y-63450801D01*
X88455690Y-63297927D01*
X88322073Y-63164310D01*
X88169199Y-63053240D01*
X88169198Y-63053239D01*
X88169196Y-63053238D01*
X88000832Y-62967453D01*
X87821113Y-62909058D01*
X87634484Y-62879500D01*
X87634481Y-62879500D01*
X87445519Y-62879500D01*
X87445516Y-62879500D01*
X87258886Y-62909058D01*
X87079167Y-62967453D01*
X86910803Y-63053238D01*
X86757928Y-63164309D01*
X86624309Y-63297928D01*
X86513238Y-63450803D01*
X86427453Y-63619167D01*
X86369058Y-63798886D01*
X86339500Y-63985515D01*
X86339500Y-64174484D01*
X86369058Y-64361113D01*
X86427453Y-64540832D01*
X86498664Y-64680593D01*
X86513240Y-64709199D01*
X86624310Y-64862073D01*
X86757927Y-64995690D01*
X86910801Y-65106760D01*
X87079168Y-65192547D01*
X87258882Y-65250940D01*
X87258883Y-65250940D01*
X87258886Y-65250941D01*
X87445516Y-65280500D01*
X87550500Y-65280500D01*
X87608691Y-65299407D01*
X87644655Y-65348907D01*
X87649500Y-65379500D01*
X87649500Y-70531765D01*
X87630593Y-70589956D01*
X87592341Y-70621489D01*
X87580202Y-70627149D01*
X87502150Y-70705201D01*
X87455501Y-70805240D01*
X87455501Y-70805241D01*
X87449500Y-70850822D01*
X87449500Y-71149173D01*
X87449501Y-71149185D01*
X87455500Y-71194759D01*
X87455500Y-71194761D01*
X87502148Y-71294796D01*
X87502149Y-71294797D01*
X87502150Y-71294799D01*
X87580201Y-71372850D01*
X87680240Y-71419499D01*
X87725821Y-71425500D01*
X87869978Y-71425499D01*
X87928168Y-71444406D01*
X87964132Y-71493906D01*
X87964133Y-71555091D01*
X87939982Y-71594503D01*
X86905682Y-72628804D01*
X86851165Y-72656581D01*
X86835678Y-72657800D01*
X83445092Y-72657800D01*
X83313307Y-72657800D01*
X83235400Y-72678674D01*
X83186009Y-72691909D01*
X83071890Y-72757796D01*
X83071889Y-72757797D01*
X81934181Y-73895504D01*
X81879664Y-73923281D01*
X81864177Y-73924500D01*
X81170725Y-73924500D01*
X81140305Y-73927353D01*
X81140296Y-73927355D01*
X81012116Y-73972207D01*
X80902855Y-74052845D01*
X80902845Y-74052855D01*
X80822207Y-74162116D01*
X80777355Y-74290296D01*
X80777353Y-74290305D01*
X80774500Y-74320725D01*
X79754244Y-74320725D01*
X83254806Y-70820163D01*
X83309321Y-70792388D01*
X83340294Y-70792388D01*
X83362291Y-70795871D01*
X83391510Y-70800500D01*
X83391512Y-70800500D01*
X83908490Y-70800500D01*
X83929885Y-70797111D01*
X84008126Y-70784719D01*
X84128220Y-70723528D01*
X84223528Y-70628220D01*
X84284719Y-70508126D01*
X84300500Y-70408488D01*
X84300500Y-69815478D01*
X84319407Y-69757287D01*
X84329490Y-69745480D01*
X85240460Y-68834511D01*
X85259252Y-68801962D01*
X85277927Y-68769617D01*
X85277940Y-68769592D01*
X85277958Y-68769562D01*
X85280021Y-68765989D01*
X85300500Y-68689562D01*
X85300500Y-59165478D01*
X85319407Y-59107287D01*
X85329490Y-59095480D01*
X86878100Y-57546869D01*
X86932615Y-57519094D01*
X86993044Y-57528664D01*
X87079168Y-57572547D01*
X87258882Y-57630940D01*
X87258883Y-57630940D01*
X87258886Y-57630941D01*
X87445516Y-57660500D01*
X87445519Y-57660500D01*
X87634484Y-57660500D01*
X87821113Y-57630941D01*
X87821114Y-57630940D01*
X87821118Y-57630940D01*
X88000832Y-57572547D01*
X88169199Y-57486760D01*
X88322073Y-57375690D01*
X88455690Y-57242073D01*
X88566760Y-57089199D01*
X88652547Y-56920832D01*
X88710940Y-56741118D01*
X88718485Y-56693479D01*
X88740500Y-56554484D01*
X88740500Y-56365515D01*
X88710941Y-56178886D01*
X88710682Y-56178088D01*
X88652547Y-55999168D01*
X88566760Y-55830801D01*
X88455690Y-55677927D01*
X88322073Y-55544310D01*
X88169199Y-55433240D01*
X88169198Y-55433239D01*
X88169196Y-55433238D01*
X88000832Y-55347453D01*
X87821113Y-55289058D01*
X87813046Y-55287781D01*
X87758529Y-55260004D01*
X87730751Y-55205488D01*
X87740322Y-55145056D01*
X87783586Y-55101791D01*
X87813046Y-55092219D01*
X87821113Y-55090941D01*
X87821114Y-55090940D01*
X87821118Y-55090940D01*
X88000832Y-55032547D01*
X88169199Y-54946760D01*
X88322073Y-54835690D01*
X88455690Y-54702073D01*
X88566760Y-54549199D01*
X88652547Y-54380832D01*
X88710940Y-54201118D01*
X88718237Y-54155049D01*
X88740500Y-54014484D01*
X88740500Y-53825515D01*
X88710941Y-53638886D01*
X88702528Y-53612993D01*
X88652547Y-53459168D01*
X88566760Y-53290801D01*
X88455690Y-53137927D01*
X88322073Y-53004310D01*
X88274732Y-52969914D01*
X88274731Y-52969913D01*
X88169845Y-52893709D01*
X91649500Y-52893709D01*
X91649500Y-53106290D01*
X91682752Y-53316238D01*
X91748443Y-53518412D01*
X91844948Y-53707815D01*
X91844950Y-53707819D01*
X91969891Y-53879786D01*
X91969893Y-53879788D01*
X91969896Y-53879792D01*
X92120208Y-54030104D01*
X92120211Y-54030106D01*
X92120213Y-54030108D01*
X92292180Y-54155049D01*
X92292184Y-54155051D01*
X92481588Y-54251557D01*
X92683757Y-54317246D01*
X92683758Y-54317246D01*
X92683761Y-54317247D01*
X92893710Y-54350500D01*
X92893713Y-54350500D01*
X93106290Y-54350500D01*
X93316238Y-54317247D01*
X93316239Y-54317246D01*
X93316243Y-54317246D01*
X93518412Y-54251557D01*
X93707816Y-54155051D01*
X93879792Y-54030104D01*
X94030104Y-53879792D01*
X94148733Y-53716512D01*
X94155049Y-53707819D01*
X94155051Y-53707816D01*
X94251557Y-53518412D01*
X94317246Y-53316243D01*
X94317821Y-53312615D01*
X94350500Y-53106290D01*
X94350500Y-52893709D01*
X94317247Y-52683761D01*
X94317246Y-52683757D01*
X94251557Y-52481588D01*
X94155051Y-52292184D01*
X94155049Y-52292180D01*
X94030108Y-52120213D01*
X94030106Y-52120211D01*
X94030104Y-52120208D01*
X93879792Y-51969896D01*
X93879788Y-51969893D01*
X93879786Y-51969891D01*
X93707819Y-51844950D01*
X93707815Y-51844948D01*
X93518412Y-51748443D01*
X93316238Y-51682752D01*
X93106290Y-51649500D01*
X93106287Y-51649500D01*
X92893713Y-51649500D01*
X92893710Y-51649500D01*
X92683761Y-51682752D01*
X92481587Y-51748443D01*
X92292184Y-51844948D01*
X92292180Y-51844950D01*
X92120213Y-51969891D01*
X91969891Y-52120213D01*
X91844950Y-52292180D01*
X91844948Y-52292184D01*
X91748443Y-52481587D01*
X91682752Y-52683761D01*
X91649500Y-52893709D01*
X88169845Y-52893709D01*
X88169204Y-52893243D01*
X88169198Y-52893239D01*
X88000832Y-52807453D01*
X87821113Y-52749058D01*
X87634484Y-52719500D01*
X87634481Y-52719500D01*
X87445519Y-52719500D01*
X87445516Y-52719500D01*
X87258886Y-52749058D01*
X87079164Y-52807454D01*
X86993046Y-52851333D01*
X86932614Y-52860904D01*
X86878099Y-52833127D01*
X86422810Y-52377839D01*
X86354292Y-52338280D01*
X86354288Y-52338278D01*
X86277864Y-52317800D01*
X86277862Y-52317800D01*
X81237938Y-52317800D01*
X81237935Y-52317800D01*
X81161511Y-52338278D01*
X81161507Y-52338280D01*
X81092991Y-52377838D01*
X77640489Y-55830340D01*
X77640488Y-55830339D01*
X77584539Y-55886289D01*
X77544980Y-55954807D01*
X77544978Y-55954811D01*
X77524500Y-56031235D01*
X77524500Y-56266048D01*
X77505593Y-56324239D01*
X77470446Y-56354257D01*
X77386659Y-56396949D01*
X77296949Y-56486659D01*
X77239354Y-56599695D01*
X77224500Y-56693477D01*
X76775498Y-56693477D01*
X76775498Y-56693475D01*
X76760647Y-56599700D01*
X76760646Y-56599698D01*
X76760646Y-56599696D01*
X76703050Y-56486658D01*
X76613342Y-56396950D01*
X76500304Y-56339354D01*
X76500305Y-56339354D01*
X76406522Y-56324500D01*
X75943479Y-56324500D01*
X75943476Y-56324501D01*
X75849700Y-56339352D01*
X75849695Y-56339354D01*
X75736659Y-56396949D01*
X75646949Y-56486659D01*
X75589354Y-56599695D01*
X75574500Y-56693477D01*
X75574500Y-57306520D01*
X75574501Y-57306523D01*
X75589352Y-57400299D01*
X75589354Y-57400304D01*
X75646950Y-57513342D01*
X75736658Y-57603050D01*
X75820446Y-57645742D01*
X75863710Y-57689006D01*
X75874500Y-57733951D01*
X75874500Y-59612862D01*
X75887055Y-59659719D01*
X75894979Y-59689289D01*
X75919996Y-59732620D01*
X75919997Y-59732622D01*
X75919998Y-59732622D01*
X75934540Y-59757811D01*
X76666229Y-60489500D01*
X77007225Y-60830496D01*
X77035002Y-60885013D01*
X77025431Y-60945445D01*
X76982166Y-60988710D01*
X76937221Y-60999500D01*
X75880252Y-60999500D01*
X75880251Y-60999500D01*
X75880241Y-60999501D01*
X75821772Y-61011132D01*
X75821766Y-61011134D01*
X75755451Y-61055445D01*
X75755445Y-61055451D01*
X75711134Y-61121766D01*
X75711132Y-61121772D01*
X75699501Y-61180241D01*
X75699500Y-61180253D01*
X75699500Y-62819746D01*
X75699501Y-62819758D01*
X75711132Y-62878227D01*
X75711134Y-62878233D01*
X75733523Y-62911740D01*
X75755448Y-62944552D01*
X75821769Y-62988867D01*
X75866231Y-62997711D01*
X75880241Y-63000498D01*
X75880246Y-63000498D01*
X75880252Y-63000500D01*
X76937221Y-63000500D01*
X76995412Y-63019407D01*
X77031376Y-63068907D01*
X77031376Y-63130093D01*
X77007225Y-63169504D01*
X72990489Y-67186240D01*
X72990488Y-67186239D01*
X72934539Y-67242189D01*
X72894980Y-67310707D01*
X72894978Y-67310711D01*
X72874500Y-67387135D01*
X72874500Y-68266048D01*
X72855593Y-68324239D01*
X72820446Y-68354257D01*
X72736659Y-68396949D01*
X72646949Y-68486659D01*
X72589354Y-68599695D01*
X72574500Y-68693477D01*
X70825500Y-68693477D01*
X70825500Y-63099500D01*
X70844407Y-63041309D01*
X70893907Y-63005345D01*
X70924500Y-63000500D01*
X74119747Y-63000500D01*
X74119748Y-63000500D01*
X74178231Y-62988867D01*
X74244552Y-62944552D01*
X74288867Y-62878231D01*
X74300500Y-62819748D01*
X74300500Y-61180252D01*
X74288867Y-61121769D01*
X74244552Y-61055448D01*
X74225028Y-61042402D01*
X74178233Y-61011134D01*
X74178231Y-61011133D01*
X74178228Y-61011132D01*
X74178227Y-61011132D01*
X74119758Y-60999501D01*
X74119748Y-60999500D01*
X70880252Y-60999500D01*
X70880251Y-60999500D01*
X70880241Y-60999501D01*
X70821772Y-61011132D01*
X70821766Y-61011134D01*
X70755451Y-61055445D01*
X70755445Y-61055451D01*
X70711134Y-61121766D01*
X70711132Y-61121772D01*
X70699501Y-61180241D01*
X70699500Y-61180253D01*
X70699500Y-61510521D01*
X70680593Y-61568712D01*
X70631093Y-61604676D01*
X70569907Y-61604676D01*
X70530496Y-61580525D01*
X68307096Y-59357125D01*
X68279319Y-59302608D01*
X68278100Y-59287121D01*
X68278100Y-53471437D01*
X68278099Y-53471435D01*
X68257621Y-53395011D01*
X68257619Y-53395007D01*
X68218060Y-53326489D01*
X68162111Y-53270539D01*
X68162111Y-53270540D01*
X67572311Y-52680740D01*
X67572308Y-52680738D01*
X67503792Y-52641180D01*
X67503788Y-52641178D01*
X67427364Y-52620700D01*
X67427362Y-52620700D01*
X60741762Y-52620700D01*
X60662638Y-52620700D01*
X60615861Y-52633233D01*
X60586207Y-52641179D01*
X60517693Y-52680736D01*
X60517688Y-52680740D01*
X60036739Y-53161689D01*
X59997180Y-53230207D01*
X59997178Y-53230211D01*
X59976700Y-53306635D01*
X59976700Y-61886764D01*
X59997177Y-61963185D01*
X59997178Y-61963187D01*
X59997179Y-61963189D01*
X60029064Y-62018416D01*
X60036740Y-62031711D01*
X60508480Y-62503452D01*
X60536257Y-62557968D01*
X60526686Y-62618400D01*
X60496011Y-62654020D01*
X60493523Y-62655796D01*
X60410801Y-62738518D01*
X60359427Y-62843604D01*
X60359427Y-62843607D01*
X60349500Y-62911740D01*
X60349500Y-63278260D01*
X60352366Y-63297928D01*
X60359427Y-63346395D01*
X60361842Y-63351334D01*
X60410802Y-63451483D01*
X60493517Y-63534198D01*
X60547285Y-63560483D01*
X60598604Y-63585572D01*
X60598605Y-63585572D01*
X60598607Y-63585573D01*
X60666740Y-63595500D01*
X61125500Y-63595500D01*
X61140412Y-63600345D01*
X61156093Y-63600345D01*
X61168778Y-63609561D01*
X61183691Y-63614407D01*
X61192907Y-63627092D01*
X61205593Y-63636309D01*
X61210438Y-63651221D01*
X61219655Y-63663907D01*
X61224500Y-63694500D01*
X61224500Y-63765500D01*
X61205593Y-63823691D01*
X61156093Y-63859655D01*
X61125500Y-63864500D01*
X60666740Y-63864500D01*
X60632673Y-63869463D01*
X60598604Y-63874427D01*
X60493518Y-63925801D01*
X60410801Y-64008518D01*
X60359427Y-64113604D01*
X60359427Y-64113607D01*
X60349500Y-64181740D01*
X60349500Y-64548260D01*
X60356118Y-64593682D01*
X60359427Y-64616395D01*
X60390278Y-64679500D01*
X60410802Y-64721483D01*
X60493517Y-64804198D01*
X60516000Y-64815189D01*
X60598604Y-64855572D01*
X60598605Y-64855572D01*
X60598607Y-64855573D01*
X60666740Y-64865500D01*
X60666743Y-64865500D01*
X62383257Y-64865500D01*
X62383260Y-64865500D01*
X62451393Y-64855573D01*
X62556483Y-64804198D01*
X62639198Y-64721483D01*
X62690573Y-64616393D01*
X62700500Y-64548260D01*
X62700500Y-64181740D01*
X62690573Y-64113607D01*
X62639198Y-64008517D01*
X62556483Y-63925802D01*
X62556481Y-63925801D01*
X62451395Y-63874427D01*
X62424139Y-63870456D01*
X62383260Y-63864500D01*
X62383257Y-63864500D01*
X61924500Y-63864500D01*
X61909588Y-63859655D01*
X61893907Y-63859655D01*
X61881221Y-63850438D01*
X61866309Y-63845593D01*
X61857092Y-63832907D01*
X61844407Y-63823691D01*
X61839561Y-63808778D01*
X61830345Y-63796093D01*
X61825500Y-63765500D01*
X61825500Y-63694500D01*
X61844407Y-63636309D01*
X61893907Y-63600345D01*
X61924500Y-63595500D01*
X62383257Y-63595500D01*
X62383260Y-63595500D01*
X62451393Y-63585573D01*
X62556483Y-63534198D01*
X62639198Y-63451483D01*
X62690573Y-63346393D01*
X62700500Y-63278260D01*
X62700500Y-62911740D01*
X62690573Y-62843607D01*
X62639198Y-62738517D01*
X62556483Y-62655802D01*
X62552838Y-62654020D01*
X62451395Y-62604427D01*
X62424139Y-62600456D01*
X62383260Y-62594500D01*
X62383257Y-62594500D01*
X61490479Y-62594500D01*
X61432288Y-62575593D01*
X61420475Y-62565504D01*
X60606696Y-61751725D01*
X60578919Y-61697208D01*
X60577700Y-61681721D01*
X60577700Y-54877387D01*
X60596607Y-54819196D01*
X60646107Y-54783232D01*
X60707293Y-54783232D01*
X60707294Y-54783233D01*
X60712572Y-54784947D01*
X60712580Y-54784951D01*
X60782196Y-54795976D01*
X60810751Y-54800500D01*
X60810754Y-54800500D01*
X61314249Y-54800500D01*
X61342803Y-54795976D01*
X61412420Y-54784951D01*
X61530751Y-54724658D01*
X61624658Y-54630751D01*
X61684951Y-54512420D01*
X61700500Y-54414246D01*
X61700500Y-54399500D01*
X61719407Y-54341309D01*
X61768907Y-54305345D01*
X61799500Y-54300500D01*
X62250500Y-54300500D01*
X62308691Y-54319407D01*
X62344655Y-54368907D01*
X62349500Y-54399500D01*
X62349500Y-54529274D01*
X62352353Y-54559694D01*
X62352355Y-54559703D01*
X62397207Y-54687883D01*
X62477845Y-54797144D01*
X62477847Y-54797146D01*
X62477850Y-54797150D01*
X62477853Y-54797152D01*
X62477855Y-54797154D01*
X62587116Y-54877792D01*
X62587117Y-54877792D01*
X62587118Y-54877793D01*
X62715301Y-54922646D01*
X62745725Y-54925499D01*
X62745727Y-54925500D01*
X62745734Y-54925500D01*
X63354273Y-54925500D01*
X63354273Y-54925499D01*
X63384699Y-54922646D01*
X63446713Y-54900945D01*
X63507882Y-54899572D01*
X63549415Y-54924386D01*
X63776904Y-55151875D01*
X63804681Y-55206392D01*
X63805900Y-55221879D01*
X63805900Y-56953121D01*
X63786993Y-57011312D01*
X63776904Y-57023125D01*
X62504525Y-58295504D01*
X62450008Y-58323281D01*
X62434521Y-58324500D01*
X61966510Y-58324500D01*
X61866874Y-58340281D01*
X61866867Y-58340283D01*
X61746782Y-58401470D01*
X61651470Y-58496782D01*
X61590283Y-58616867D01*
X61590281Y-58616874D01*
X61574500Y-58716510D01*
X61574500Y-59283489D01*
X61590281Y-59383125D01*
X61590283Y-59383132D01*
X61649831Y-59500000D01*
X61651472Y-59503220D01*
X61746780Y-59598528D01*
X61746782Y-59598529D01*
X61866867Y-59659716D01*
X61866869Y-59659716D01*
X61866874Y-59659719D01*
X61942541Y-59671703D01*
X61966510Y-59675500D01*
X61966512Y-59675500D01*
X62483490Y-59675500D01*
X62504885Y-59672111D01*
X62583126Y-59659719D01*
X62703220Y-59598528D01*
X62798528Y-59503220D01*
X62859719Y-59383126D01*
X62875500Y-59283488D01*
X62875500Y-58815478D01*
X62894407Y-58757287D01*
X62904490Y-58745480D01*
X64346860Y-57303111D01*
X64383031Y-57240460D01*
X64386421Y-57234589D01*
X64406900Y-57158162D01*
X64406900Y-55455900D01*
X64425807Y-55397709D01*
X64475307Y-55361745D01*
X64505900Y-55356900D01*
X66003121Y-55356900D01*
X66010718Y-55359368D01*
X66018608Y-55358119D01*
X66039263Y-55368643D01*
X66061312Y-55375807D01*
X66073125Y-55385896D01*
X66145504Y-55458275D01*
X66173281Y-55512792D01*
X66174500Y-55528279D01*
X66174500Y-62495500D01*
X66155593Y-62553691D01*
X66106093Y-62589655D01*
X66075500Y-62594500D01*
X65616740Y-62594500D01*
X65582673Y-62599463D01*
X65548604Y-62604427D01*
X65443518Y-62655801D01*
X65360801Y-62738518D01*
X65309427Y-62843604D01*
X65309427Y-62843607D01*
X65299500Y-62911740D01*
X65299500Y-63278260D01*
X65302366Y-63297928D01*
X65309427Y-63346395D01*
X65311842Y-63351334D01*
X65360802Y-63451483D01*
X65443517Y-63534198D01*
X65497285Y-63560483D01*
X65548604Y-63585572D01*
X65548605Y-63585572D01*
X65548607Y-63585573D01*
X65616740Y-63595500D01*
X66896821Y-63595500D01*
X66904418Y-63597968D01*
X66912308Y-63596719D01*
X66932963Y-63607243D01*
X66955012Y-63614407D01*
X66966825Y-63624496D01*
X67037825Y-63695496D01*
X67065602Y-63750013D01*
X67056031Y-63810445D01*
X67012766Y-63853710D01*
X66967821Y-63864500D01*
X65616740Y-63864500D01*
X65582673Y-63869463D01*
X65548604Y-63874427D01*
X65443518Y-63925801D01*
X65360801Y-64008518D01*
X65309427Y-64113604D01*
X65309427Y-64113607D01*
X65299500Y-64181740D01*
X65299500Y-64548260D01*
X65305172Y-64587193D01*
X65309427Y-64616396D01*
X65311195Y-64620011D01*
X65319764Y-64680593D01*
X65291087Y-64734642D01*
X65271754Y-64749225D01*
X65253891Y-64759538D01*
X62064289Y-67949140D01*
X62064288Y-67949139D01*
X62008339Y-68005089D01*
X61968780Y-68073607D01*
X61968778Y-68073611D01*
X61948300Y-68150035D01*
X61948300Y-71410720D01*
X61929393Y-71468911D01*
X61919304Y-71480724D01*
X60104523Y-73295504D01*
X60050006Y-73323281D01*
X60034519Y-73324500D01*
X59593479Y-73324500D01*
X59593476Y-73324501D01*
X59499700Y-73339352D01*
X59499695Y-73339354D01*
X59386659Y-73396949D01*
X59296949Y-73486659D01*
X59239354Y-73599695D01*
X59224500Y-73693477D01*
X58775498Y-73693477D01*
X58775498Y-73693475D01*
X58760647Y-73599700D01*
X58760646Y-73599698D01*
X58760646Y-73599696D01*
X58703050Y-73486658D01*
X58613342Y-73396950D01*
X58598846Y-73389564D01*
X58529554Y-73354257D01*
X58486290Y-73310992D01*
X58475500Y-73266048D01*
X58475500Y-71465477D01*
X58494407Y-71407286D01*
X58504490Y-71395480D01*
X58826612Y-71073357D01*
X58881127Y-71045581D01*
X58929122Y-71053182D01*
X58930116Y-71050343D01*
X58951616Y-71057866D01*
X59065301Y-71097646D01*
X59095725Y-71100499D01*
X59095727Y-71100500D01*
X59095734Y-71100500D01*
X59854273Y-71100500D01*
X59854273Y-71100499D01*
X59884699Y-71097646D01*
X60012882Y-71052793D01*
X60122150Y-70972150D01*
X60202793Y-70862882D01*
X60247646Y-70734699D01*
X60250499Y-70704273D01*
X60250500Y-70704273D01*
X60250500Y-69295727D01*
X60250499Y-69295725D01*
X60249907Y-69289411D01*
X60247646Y-69265301D01*
X60202793Y-69137118D01*
X60141280Y-69053771D01*
X60122154Y-69027855D01*
X60122152Y-69027853D01*
X60122150Y-69027850D01*
X60122146Y-69027847D01*
X60122144Y-69027845D01*
X60012883Y-68947207D01*
X59884703Y-68902355D01*
X59884695Y-68902353D01*
X59865252Y-68900529D01*
X59809082Y-68876268D01*
X59777899Y-68823625D01*
X59775500Y-68801962D01*
X59775500Y-67496579D01*
X59794407Y-67438388D01*
X59804496Y-67426575D01*
X61066575Y-66164496D01*
X61121092Y-66136719D01*
X61136579Y-66135500D01*
X62383257Y-66135500D01*
X62383260Y-66135500D01*
X62451393Y-66125573D01*
X62556483Y-66074198D01*
X62639198Y-65991483D01*
X62690573Y-65886393D01*
X62700500Y-65818260D01*
X62700500Y-65451740D01*
X62690573Y-65383607D01*
X62688565Y-65379500D01*
X62639198Y-65278518D01*
X62639198Y-65278517D01*
X62556483Y-65195802D01*
X62549823Y-65192546D01*
X62451395Y-65144427D01*
X62420727Y-65139959D01*
X62383260Y-65134500D01*
X60666740Y-65134500D01*
X60632673Y-65139463D01*
X60598604Y-65144427D01*
X60493518Y-65195801D01*
X60410801Y-65278518D01*
X60359427Y-65383604D01*
X60359427Y-65383607D01*
X60349500Y-65451740D01*
X60349500Y-65818260D01*
X60355189Y-65857307D01*
X60359427Y-65886395D01*
X60372810Y-65913770D01*
X60381381Y-65974353D01*
X60353873Y-66027254D01*
X59290489Y-67090640D01*
X59290488Y-67090639D01*
X59234539Y-67146589D01*
X59194980Y-67215107D01*
X59194978Y-67215111D01*
X59174500Y-67291535D01*
X59174500Y-68801962D01*
X59155593Y-68860153D01*
X59106093Y-68896117D01*
X59084748Y-68900529D01*
X59065304Y-68902353D01*
X59065296Y-68902355D01*
X58937116Y-68947207D01*
X58827855Y-69027845D01*
X58827845Y-69027855D01*
X58747207Y-69137116D01*
X58702355Y-69265296D01*
X58702353Y-69265305D01*
X58699500Y-69295725D01*
X58699500Y-70309521D01*
X58680593Y-70367712D01*
X58670504Y-70379525D01*
X57990489Y-71059540D01*
X57990488Y-71059539D01*
X57934541Y-71115487D01*
X57918536Y-71143209D01*
X57873066Y-71184149D01*
X57812216Y-71190544D01*
X57759228Y-71159951D01*
X57734342Y-71104056D01*
X57733800Y-71093708D01*
X57733800Y-65933737D01*
X57733799Y-65933735D01*
X57713321Y-65857311D01*
X57713319Y-65857307D01*
X57673760Y-65788789D01*
X57617811Y-65732839D01*
X57617811Y-65732840D01*
X53975263Y-62090292D01*
X53947486Y-62035775D01*
X53953802Y-61982405D01*
X54010130Y-61846420D01*
X54050500Y-61643465D01*
X54050500Y-61436535D01*
X54010130Y-61233580D01*
X53930941Y-61042402D01*
X53815977Y-60870345D01*
X53669655Y-60724023D01*
X53654339Y-60713789D01*
X53497597Y-60609058D01*
X53306418Y-60529869D01*
X53103467Y-60489500D01*
X53103465Y-60489500D01*
X52896535Y-60489500D01*
X52896532Y-60489500D01*
X52693581Y-60529869D01*
X52502402Y-60609058D01*
X52330348Y-60724020D01*
X52184020Y-60870348D01*
X52069058Y-61042402D01*
X51989869Y-61233581D01*
X51949500Y-61436532D01*
X50500500Y-61436532D01*
X50500500Y-58913424D01*
X51900000Y-58913424D01*
X51900000Y-59086575D01*
X51927084Y-59257579D01*
X51980588Y-59422248D01*
X52059195Y-59576524D01*
X52059197Y-59576528D01*
X52123219Y-59664646D01*
X52556328Y-59231536D01*
X52599901Y-59307007D01*
X52692993Y-59400099D01*
X52768460Y-59443670D01*
X52335352Y-59876778D01*
X52423477Y-59940805D01*
X52577751Y-60019411D01*
X52742420Y-60072915D01*
X52913425Y-60100000D01*
X53086575Y-60100000D01*
X53257579Y-60072915D01*
X53422248Y-60019411D01*
X53576524Y-59940804D01*
X53576530Y-59940800D01*
X53664646Y-59876779D01*
X53664646Y-59876778D01*
X53231538Y-59443670D01*
X53307007Y-59400099D01*
X53400099Y-59307007D01*
X53443670Y-59231538D01*
X53876778Y-59664646D01*
X53876779Y-59664646D01*
X53940800Y-59576530D01*
X53940804Y-59576524D01*
X54019411Y-59422248D01*
X54072915Y-59257579D01*
X54100000Y-59086575D01*
X54100000Y-58913424D01*
X54072915Y-58742420D01*
X54019411Y-58577751D01*
X53940805Y-58423477D01*
X53876778Y-58335352D01*
X53443670Y-58768460D01*
X53400099Y-58692993D01*
X53307007Y-58599901D01*
X53231536Y-58556328D01*
X53664646Y-58123219D01*
X53576528Y-58059197D01*
X53576524Y-58059195D01*
X53422248Y-57980588D01*
X53257579Y-57927084D01*
X53086575Y-57900000D01*
X52913425Y-57900000D01*
X52742420Y-57927084D01*
X52577751Y-57980588D01*
X52423476Y-58059195D01*
X52335352Y-58123219D01*
X52768461Y-58556328D01*
X52692993Y-58599901D01*
X52599901Y-58692993D01*
X52556328Y-58768461D01*
X52123219Y-58335352D01*
X52059195Y-58423476D01*
X51980588Y-58577751D01*
X51927084Y-58742420D01*
X51900000Y-58913424D01*
X50500500Y-58913424D01*
X50500500Y-55590253D01*
X51949500Y-55590253D01*
X51949500Y-57329746D01*
X51949501Y-57329758D01*
X51961132Y-57388227D01*
X51961134Y-57388233D01*
X51969200Y-57400304D01*
X52005448Y-57454552D01*
X52071769Y-57498867D01*
X52116231Y-57507711D01*
X52130241Y-57510498D01*
X52130246Y-57510498D01*
X52130252Y-57510500D01*
X52130253Y-57510500D01*
X53869747Y-57510500D01*
X53869748Y-57510500D01*
X53928231Y-57498867D01*
X53994552Y-57454552D01*
X54038867Y-57388231D01*
X54050500Y-57329748D01*
X54050500Y-56859500D01*
X54069407Y-56801309D01*
X54118907Y-56765345D01*
X54149500Y-56760500D01*
X54191263Y-56760500D01*
X54191263Y-56760499D01*
X54267689Y-56740021D01*
X54336211Y-56700460D01*
X54392160Y-56644511D01*
X56707175Y-54329496D01*
X56761692Y-54301719D01*
X56777179Y-54300500D01*
X58200500Y-54300500D01*
X58258691Y-54319407D01*
X58294655Y-54368907D01*
X58299500Y-54399500D01*
X58299500Y-54414248D01*
X58315049Y-54512419D01*
X58315050Y-54512423D01*
X58333787Y-54549196D01*
X58375342Y-54630751D01*
X58469249Y-54724658D01*
X58587580Y-54784951D01*
X58654130Y-54795491D01*
X58685751Y-54800500D01*
X58685754Y-54800500D01*
X59189249Y-54800500D01*
X59217803Y-54795976D01*
X59287420Y-54784951D01*
X59405751Y-54724658D01*
X59499658Y-54630751D01*
X59559951Y-54512420D01*
X59575500Y-54414246D01*
X59575500Y-53585754D01*
X59559951Y-53487580D01*
X59499658Y-53369249D01*
X59405751Y-53275342D01*
X59340183Y-53241933D01*
X59287423Y-53215050D01*
X59287420Y-53215049D01*
X59262876Y-53211161D01*
X59189249Y-53199500D01*
X59189246Y-53199500D01*
X58685754Y-53199500D01*
X58685751Y-53199500D01*
X58587580Y-53215049D01*
X58587576Y-53215050D01*
X58469250Y-53275341D01*
X58375341Y-53369250D01*
X58315050Y-53487576D01*
X58315049Y-53487580D01*
X58299500Y-53585751D01*
X58299500Y-53600500D01*
X58280593Y-53658691D01*
X58231093Y-53694655D01*
X58200500Y-53699500D01*
X56572135Y-53699500D01*
X56495712Y-53719978D01*
X56468847Y-53735489D01*
X56468846Y-53735488D01*
X56427190Y-53759539D01*
X54219504Y-55967225D01*
X54164987Y-55995002D01*
X54104555Y-55985431D01*
X54061290Y-55942166D01*
X54050500Y-55897221D01*
X54050500Y-55590253D01*
X54050498Y-55590241D01*
X54047711Y-55576231D01*
X54038867Y-55531769D01*
X53994552Y-55465448D01*
X53994548Y-55465445D01*
X53928233Y-55421134D01*
X53928231Y-55421133D01*
X53928228Y-55421132D01*
X53928227Y-55421132D01*
X53869758Y-55409501D01*
X53869748Y-55409500D01*
X52130252Y-55409500D01*
X52130251Y-55409500D01*
X52130241Y-55409501D01*
X52071772Y-55421132D01*
X52071766Y-55421134D01*
X52005451Y-55465445D01*
X52005445Y-55465451D01*
X51961134Y-55531766D01*
X51961132Y-55531772D01*
X51949501Y-55590241D01*
X51949500Y-55590253D01*
X50500500Y-55590253D01*
X50500500Y-50599500D01*
X50519407Y-50541309D01*
X50568907Y-50505345D01*
X50599500Y-50500500D01*
X95400500Y-50500500D01*
X95458691Y-50519407D01*
G37*
G04 #@! TD.AperFunction*
M02*
