G04 #@! TF.GenerationSoftware,KiCad,Pcbnew,9.0.2+dfsg-1*
G04 #@! TF.CreationDate,2026-10-02T20:04:34+00:00*
G04 #@! TF.ProjectId,Ardor_Line_Out,4172646f-725f-44c6-996e-655f4f75742e,rev?*
G04 #@! TF.SameCoordinates,Original*
G04 #@! TF.FileFunction,Legend,Bot*
G04 #@! TF.FilePolarity,Positive*
%FSLAX46Y46*%
G04 Gerber Fmt 4.6, Leading zero omitted, Abs format (unit mm)*
G04 Created by KiCad (PCBNEW 9.0.2+dfsg-1) date 2026-10-02 20:04:34*
%MOMM*%
%LPD*%
G01*
G04 APERTURE LIST*
%ADD10C,0.150000*%
%ADD11R,1.700000X1.700000*%
%ADD12C,1.700000*%
%ADD13C,2.200000*%
%ADD14R,2.000000X2.000000*%
%ADD15C,2.000000*%
G04 APERTURE END LIST*
D10*
X54928571Y-58638485D02*
X54890475Y-58600390D01*
X54890475Y-58600390D02*
X54814285Y-58562295D01*
X54814285Y-58562295D02*
X54623809Y-58562295D01*
X54623809Y-58562295D02*
X54547618Y-58600390D01*
X54547618Y-58600390D02*
X54509523Y-58638485D01*
X54509523Y-58638485D02*
X54471428Y-58714676D01*
X54471428Y-58714676D02*
X54471428Y-58790866D01*
X54471428Y-58790866D02*
X54509523Y-58905152D01*
X54509523Y-58905152D02*
X54966666Y-59362295D01*
X54966666Y-59362295D02*
X54471428Y-59362295D01*
X90071428Y-75092295D02*
X90528571Y-75092295D01*
X90299999Y-75092295D02*
X90299999Y-74292295D01*
X90299999Y-74292295D02*
X90376190Y-74406580D01*
X90376190Y-74406580D02*
X90452380Y-74482771D01*
X90452380Y-74482771D02*
X90528571Y-74520866D01*
X54028571Y-53522295D02*
X54028571Y-54093723D01*
X54028571Y-54093723D02*
X54066666Y-54208009D01*
X54066666Y-54208009D02*
X54142857Y-54284200D01*
X54142857Y-54284200D02*
X54257142Y-54322295D01*
X54257142Y-54322295D02*
X54333333Y-54322295D01*
X53228571Y-54322295D02*
X53685714Y-54322295D01*
X53457142Y-54322295D02*
X53457142Y-53522295D01*
X53457142Y-53522295D02*
X53533333Y-53636580D01*
X53533333Y-53636580D02*
X53609523Y-53712771D01*
X53609523Y-53712771D02*
X53685714Y-53750866D01*
X52733332Y-53522295D02*
X52657142Y-53522295D01*
X52657142Y-53522295D02*
X52580951Y-53560390D01*
X52580951Y-53560390D02*
X52542856Y-53598485D01*
X52542856Y-53598485D02*
X52504761Y-53674676D01*
X52504761Y-53674676D02*
X52466666Y-53827057D01*
X52466666Y-53827057D02*
X52466666Y-54017533D01*
X52466666Y-54017533D02*
X52504761Y-54169914D01*
X52504761Y-54169914D02*
X52542856Y-54246104D01*
X52542856Y-54246104D02*
X52580951Y-54284200D01*
X52580951Y-54284200D02*
X52657142Y-54322295D01*
X52657142Y-54322295D02*
X52733332Y-54322295D01*
X52733332Y-54322295D02*
X52809523Y-54284200D01*
X52809523Y-54284200D02*
X52847618Y-54246104D01*
X52847618Y-54246104D02*
X52885713Y-54169914D01*
X52885713Y-54169914D02*
X52923809Y-54017533D01*
X52923809Y-54017533D02*
X52923809Y-53827057D01*
X52923809Y-53827057D02*
X52885713Y-53674676D01*
X52885713Y-53674676D02*
X52847618Y-53598485D01*
X52847618Y-53598485D02*
X52809523Y-53560390D01*
X52809523Y-53560390D02*
X52733332Y-53522295D01*
X51704761Y-54322295D02*
X52161904Y-54322295D01*
X51933332Y-54322295D02*
X51933332Y-53522295D01*
X51933332Y-53522295D02*
X52009523Y-53636580D01*
X52009523Y-53636580D02*
X52085713Y-53712771D01*
X52085713Y-53712771D02*
X52161904Y-53750866D01*
X54966666Y-61102295D02*
X54471428Y-61102295D01*
X54471428Y-61102295D02*
X54738094Y-61407057D01*
X54738094Y-61407057D02*
X54623809Y-61407057D01*
X54623809Y-61407057D02*
X54547618Y-61445152D01*
X54547618Y-61445152D02*
X54509523Y-61483247D01*
X54509523Y-61483247D02*
X54471428Y-61559438D01*
X54471428Y-61559438D02*
X54471428Y-61749914D01*
X54471428Y-61749914D02*
X54509523Y-61826104D01*
X54509523Y-61826104D02*
X54547618Y-61864200D01*
X54547618Y-61864200D02*
X54623809Y-61902295D01*
X54623809Y-61902295D02*
X54852380Y-61902295D01*
X54852380Y-61902295D02*
X54928571Y-61864200D01*
X54928571Y-61864200D02*
X54966666Y-61826104D01*
X54471428Y-69092295D02*
X54928571Y-69092295D01*
X54699999Y-69092295D02*
X54699999Y-68292295D01*
X54699999Y-68292295D02*
X54776190Y-68406580D01*
X54776190Y-68406580D02*
X54852380Y-68482771D01*
X54852380Y-68482771D02*
X54928571Y-68520866D01*
X86076190Y-65918318D02*
X86076190Y-66489746D01*
X86076190Y-66489746D02*
X86114285Y-66604032D01*
X86114285Y-66604032D02*
X86190476Y-66680223D01*
X86190476Y-66680223D02*
X86304761Y-66718318D01*
X86304761Y-66718318D02*
X86380952Y-66718318D01*
X85314285Y-65918318D02*
X85695237Y-65918318D01*
X85695237Y-65918318D02*
X85733333Y-66299270D01*
X85733333Y-66299270D02*
X85695237Y-66261175D01*
X85695237Y-66261175D02*
X85619047Y-66223080D01*
X85619047Y-66223080D02*
X85428571Y-66223080D01*
X85428571Y-66223080D02*
X85352380Y-66261175D01*
X85352380Y-66261175D02*
X85314285Y-66299270D01*
X85314285Y-66299270D02*
X85276190Y-66375461D01*
X85276190Y-66375461D02*
X85276190Y-66565937D01*
X85276190Y-66565937D02*
X85314285Y-66642127D01*
X85314285Y-66642127D02*
X85352380Y-66680223D01*
X85352380Y-66680223D02*
X85428571Y-66718318D01*
X85428571Y-66718318D02*
X85619047Y-66718318D01*
X85619047Y-66718318D02*
X85695237Y-66680223D01*
X85695237Y-66680223D02*
X85733333Y-66642127D01*
X84780951Y-65918318D02*
X84704761Y-65918318D01*
X84704761Y-65918318D02*
X84628570Y-65956413D01*
X84628570Y-65956413D02*
X84590475Y-65994508D01*
X84590475Y-65994508D02*
X84552380Y-66070699D01*
X84552380Y-66070699D02*
X84514285Y-66223080D01*
X84514285Y-66223080D02*
X84514285Y-66413556D01*
X84514285Y-66413556D02*
X84552380Y-66565937D01*
X84552380Y-66565937D02*
X84590475Y-66642127D01*
X84590475Y-66642127D02*
X84628570Y-66680223D01*
X84628570Y-66680223D02*
X84704761Y-66718318D01*
X84704761Y-66718318D02*
X84780951Y-66718318D01*
X84780951Y-66718318D02*
X84857142Y-66680223D01*
X84857142Y-66680223D02*
X84895237Y-66642127D01*
X84895237Y-66642127D02*
X84933332Y-66565937D01*
X84933332Y-66565937D02*
X84971428Y-66413556D01*
X84971428Y-66413556D02*
X84971428Y-66223080D01*
X84971428Y-66223080D02*
X84933332Y-66070699D01*
X84933332Y-66070699D02*
X84895237Y-65994508D01*
X84895237Y-65994508D02*
X84857142Y-65956413D01*
X84857142Y-65956413D02*
X84780951Y-65918318D01*
X84247618Y-65918318D02*
X83752380Y-65918318D01*
X83752380Y-65918318D02*
X84019046Y-66223080D01*
X84019046Y-66223080D02*
X83904761Y-66223080D01*
X83904761Y-66223080D02*
X83828570Y-66261175D01*
X83828570Y-66261175D02*
X83790475Y-66299270D01*
X83790475Y-66299270D02*
X83752380Y-66375461D01*
X83752380Y-66375461D02*
X83752380Y-66565937D01*
X83752380Y-66565937D02*
X83790475Y-66642127D01*
X83790475Y-66642127D02*
X83828570Y-66680223D01*
X83828570Y-66680223D02*
X83904761Y-66718318D01*
X83904761Y-66718318D02*
X84133332Y-66718318D01*
X84133332Y-66718318D02*
X84209523Y-66680223D01*
X84209523Y-66680223D02*
X84247618Y-66642127D01*
X82419046Y-66718318D02*
X82799998Y-66718318D01*
X82799998Y-66718318D02*
X82799998Y-65918318D01*
X82152379Y-66718318D02*
X82152379Y-65918318D01*
X81771427Y-66718318D02*
X81771427Y-65918318D01*
X81771427Y-65918318D02*
X81314284Y-66718318D01*
X81314284Y-66718318D02*
X81314284Y-65918318D01*
X80933332Y-66299270D02*
X80666666Y-66299270D01*
X80552380Y-66718318D02*
X80933332Y-66718318D01*
X80933332Y-66718318D02*
X80933332Y-65918318D01*
X80933332Y-65918318D02*
X80552380Y-65918318D01*
X79447617Y-65918318D02*
X79295236Y-65918318D01*
X79295236Y-65918318D02*
X79219046Y-65956413D01*
X79219046Y-65956413D02*
X79142855Y-66032603D01*
X79142855Y-66032603D02*
X79104760Y-66184984D01*
X79104760Y-66184984D02*
X79104760Y-66451651D01*
X79104760Y-66451651D02*
X79142855Y-66604032D01*
X79142855Y-66604032D02*
X79219046Y-66680223D01*
X79219046Y-66680223D02*
X79295236Y-66718318D01*
X79295236Y-66718318D02*
X79447617Y-66718318D01*
X79447617Y-66718318D02*
X79523808Y-66680223D01*
X79523808Y-66680223D02*
X79599998Y-66604032D01*
X79599998Y-66604032D02*
X79638094Y-66451651D01*
X79638094Y-66451651D02*
X79638094Y-66184984D01*
X79638094Y-66184984D02*
X79599998Y-66032603D01*
X79599998Y-66032603D02*
X79523808Y-65956413D01*
X79523808Y-65956413D02*
X79447617Y-65918318D01*
X78761903Y-65918318D02*
X78761903Y-66565937D01*
X78761903Y-66565937D02*
X78723808Y-66642127D01*
X78723808Y-66642127D02*
X78685713Y-66680223D01*
X78685713Y-66680223D02*
X78609522Y-66718318D01*
X78609522Y-66718318D02*
X78457141Y-66718318D01*
X78457141Y-66718318D02*
X78380951Y-66680223D01*
X78380951Y-66680223D02*
X78342856Y-66642127D01*
X78342856Y-66642127D02*
X78304760Y-66565937D01*
X78304760Y-66565937D02*
X78304760Y-65918318D01*
X78038094Y-65918318D02*
X77580951Y-65918318D01*
X77809523Y-66718318D02*
X77809523Y-65918318D01*
X88361905Y-68006273D02*
X88819048Y-68006273D01*
X88590476Y-68006273D02*
X88590476Y-67206273D01*
X88590476Y-67206273D02*
X88666667Y-67320558D01*
X88666667Y-67320558D02*
X88742857Y-67396749D01*
X88742857Y-67396749D02*
X88819048Y-67434844D01*
X87028571Y-68006273D02*
X87409523Y-68006273D01*
X87409523Y-68006273D02*
X87409523Y-67206273D01*
X86761904Y-68006273D02*
X86761904Y-67206273D01*
X86380952Y-68006273D02*
X86380952Y-67206273D01*
X86380952Y-67206273D02*
X85923809Y-68006273D01*
X85923809Y-68006273D02*
X85923809Y-67206273D01*
X85542857Y-67587225D02*
X85276191Y-67587225D01*
X85161905Y-68006273D02*
X85542857Y-68006273D01*
X85542857Y-68006273D02*
X85542857Y-67206273D01*
X85542857Y-67206273D02*
X85161905Y-67206273D01*
X84057142Y-67206273D02*
X83904761Y-67206273D01*
X83904761Y-67206273D02*
X83828571Y-67244368D01*
X83828571Y-67244368D02*
X83752380Y-67320558D01*
X83752380Y-67320558D02*
X83714285Y-67472939D01*
X83714285Y-67472939D02*
X83714285Y-67739606D01*
X83714285Y-67739606D02*
X83752380Y-67891987D01*
X83752380Y-67891987D02*
X83828571Y-67968178D01*
X83828571Y-67968178D02*
X83904761Y-68006273D01*
X83904761Y-68006273D02*
X84057142Y-68006273D01*
X84057142Y-68006273D02*
X84133333Y-67968178D01*
X84133333Y-67968178D02*
X84209523Y-67891987D01*
X84209523Y-67891987D02*
X84247619Y-67739606D01*
X84247619Y-67739606D02*
X84247619Y-67472939D01*
X84247619Y-67472939D02*
X84209523Y-67320558D01*
X84209523Y-67320558D02*
X84133333Y-67244368D01*
X84133333Y-67244368D02*
X84057142Y-67206273D01*
X83371428Y-67206273D02*
X83371428Y-67853892D01*
X83371428Y-67853892D02*
X83333333Y-67930082D01*
X83333333Y-67930082D02*
X83295238Y-67968178D01*
X83295238Y-67968178D02*
X83219047Y-68006273D01*
X83219047Y-68006273D02*
X83066666Y-68006273D01*
X83066666Y-68006273D02*
X82990476Y-67968178D01*
X82990476Y-67968178D02*
X82952381Y-67930082D01*
X82952381Y-67930082D02*
X82914285Y-67853892D01*
X82914285Y-67853892D02*
X82914285Y-67206273D01*
X82647619Y-67206273D02*
X82190476Y-67206273D01*
X82419048Y-68006273D02*
X82419048Y-67206273D01*
X80742857Y-67282463D02*
X80704761Y-67244368D01*
X80704761Y-67244368D02*
X80628571Y-67206273D01*
X80628571Y-67206273D02*
X80438095Y-67206273D01*
X80438095Y-67206273D02*
X80361904Y-67244368D01*
X80361904Y-67244368D02*
X80323809Y-67282463D01*
X80323809Y-67282463D02*
X80285714Y-67358654D01*
X80285714Y-67358654D02*
X80285714Y-67434844D01*
X80285714Y-67434844D02*
X80323809Y-67549130D01*
X80323809Y-67549130D02*
X80780952Y-68006273D01*
X80780952Y-68006273D02*
X80285714Y-68006273D01*
X78914285Y-67244368D02*
X78990475Y-67206273D01*
X78990475Y-67206273D02*
X79104761Y-67206273D01*
X79104761Y-67206273D02*
X79219047Y-67244368D01*
X79219047Y-67244368D02*
X79295237Y-67320558D01*
X79295237Y-67320558D02*
X79333332Y-67396749D01*
X79333332Y-67396749D02*
X79371428Y-67549130D01*
X79371428Y-67549130D02*
X79371428Y-67663416D01*
X79371428Y-67663416D02*
X79333332Y-67815797D01*
X79333332Y-67815797D02*
X79295237Y-67891987D01*
X79295237Y-67891987D02*
X79219047Y-67968178D01*
X79219047Y-67968178D02*
X79104761Y-68006273D01*
X79104761Y-68006273D02*
X79028570Y-68006273D01*
X79028570Y-68006273D02*
X78914285Y-67968178D01*
X78914285Y-67968178D02*
X78876189Y-67930082D01*
X78876189Y-67930082D02*
X78876189Y-67663416D01*
X78876189Y-67663416D02*
X79028570Y-67663416D01*
X78533332Y-68006273D02*
X78533332Y-67206273D01*
X78533332Y-67206273D02*
X78076189Y-68006273D01*
X78076189Y-68006273D02*
X78076189Y-67206273D01*
X77695237Y-68006273D02*
X77695237Y-67206273D01*
X77695237Y-67206273D02*
X77504761Y-67206273D01*
X77504761Y-67206273D02*
X77390475Y-67244368D01*
X77390475Y-67244368D02*
X77314285Y-67320558D01*
X77314285Y-67320558D02*
X77276190Y-67396749D01*
X77276190Y-67396749D02*
X77238094Y-67549130D01*
X77238094Y-67549130D02*
X77238094Y-67663416D01*
X77238094Y-67663416D02*
X77276190Y-67815797D01*
X77276190Y-67815797D02*
X77314285Y-67891987D01*
X77314285Y-67891987D02*
X77390475Y-67968178D01*
X77390475Y-67968178D02*
X77504761Y-68006273D01*
X77504761Y-68006273D02*
X77695237Y-68006273D01*
X76133332Y-67206273D02*
X76057142Y-67206273D01*
X76057142Y-67206273D02*
X75980951Y-67244368D01*
X75980951Y-67244368D02*
X75942856Y-67282463D01*
X75942856Y-67282463D02*
X75904761Y-67358654D01*
X75904761Y-67358654D02*
X75866666Y-67511035D01*
X75866666Y-67511035D02*
X75866666Y-67701511D01*
X75866666Y-67701511D02*
X75904761Y-67853892D01*
X75904761Y-67853892D02*
X75942856Y-67930082D01*
X75942856Y-67930082D02*
X75980951Y-67968178D01*
X75980951Y-67968178D02*
X76057142Y-68006273D01*
X76057142Y-68006273D02*
X76133332Y-68006273D01*
X76133332Y-68006273D02*
X76209523Y-67968178D01*
X76209523Y-67968178D02*
X76247618Y-67930082D01*
X76247618Y-67930082D02*
X76285713Y-67853892D01*
X76285713Y-67853892D02*
X76323809Y-67701511D01*
X76323809Y-67701511D02*
X76323809Y-67511035D01*
X76323809Y-67511035D02*
X76285713Y-67358654D01*
X76285713Y-67358654D02*
X76247618Y-67282463D01*
X76247618Y-67282463D02*
X76209523Y-67244368D01*
X76209523Y-67244368D02*
X76133332Y-67206273D01*
X75638094Y-67206273D02*
X75371427Y-68006273D01*
X75371427Y-68006273D02*
X75104761Y-67206273D01*
X54028571Y-65792295D02*
X54028571Y-66363723D01*
X54028571Y-66363723D02*
X54066666Y-66478009D01*
X54066666Y-66478009D02*
X54142857Y-66554200D01*
X54142857Y-66554200D02*
X54257142Y-66592295D01*
X54257142Y-66592295D02*
X54333333Y-66592295D01*
X53228571Y-66592295D02*
X53685714Y-66592295D01*
X53457142Y-66592295D02*
X53457142Y-65792295D01*
X53457142Y-65792295D02*
X53533333Y-65906580D01*
X53533333Y-65906580D02*
X53609523Y-65982771D01*
X53609523Y-65982771D02*
X53685714Y-66020866D01*
X52733332Y-65792295D02*
X52657142Y-65792295D01*
X52657142Y-65792295D02*
X52580951Y-65830390D01*
X52580951Y-65830390D02*
X52542856Y-65868485D01*
X52542856Y-65868485D02*
X52504761Y-65944676D01*
X52504761Y-65944676D02*
X52466666Y-66097057D01*
X52466666Y-66097057D02*
X52466666Y-66287533D01*
X52466666Y-66287533D02*
X52504761Y-66439914D01*
X52504761Y-66439914D02*
X52542856Y-66516104D01*
X52542856Y-66516104D02*
X52580951Y-66554200D01*
X52580951Y-66554200D02*
X52657142Y-66592295D01*
X52657142Y-66592295D02*
X52733332Y-66592295D01*
X52733332Y-66592295D02*
X52809523Y-66554200D01*
X52809523Y-66554200D02*
X52847618Y-66516104D01*
X52847618Y-66516104D02*
X52885713Y-66439914D01*
X52885713Y-66439914D02*
X52923809Y-66287533D01*
X52923809Y-66287533D02*
X52923809Y-66097057D01*
X52923809Y-66097057D02*
X52885713Y-65944676D01*
X52885713Y-65944676D02*
X52847618Y-65868485D01*
X52847618Y-65868485D02*
X52809523Y-65830390D01*
X52809523Y-65830390D02*
X52733332Y-65792295D01*
X52161904Y-65868485D02*
X52123808Y-65830390D01*
X52123808Y-65830390D02*
X52047618Y-65792295D01*
X52047618Y-65792295D02*
X51857142Y-65792295D01*
X51857142Y-65792295D02*
X51780951Y-65830390D01*
X51780951Y-65830390D02*
X51742856Y-65868485D01*
X51742856Y-65868485D02*
X51704761Y-65944676D01*
X51704761Y-65944676D02*
X51704761Y-66020866D01*
X51704761Y-66020866D02*
X51742856Y-66135152D01*
X51742856Y-66135152D02*
X52199999Y-66592295D01*
X52199999Y-66592295D02*
X51704761Y-66592295D01*
X90528571Y-76908485D02*
X90490475Y-76870390D01*
X90490475Y-76870390D02*
X90414285Y-76832295D01*
X90414285Y-76832295D02*
X90223809Y-76832295D01*
X90223809Y-76832295D02*
X90147618Y-76870390D01*
X90147618Y-76870390D02*
X90109523Y-76908485D01*
X90109523Y-76908485D02*
X90071428Y-76984676D01*
X90071428Y-76984676D02*
X90071428Y-77060866D01*
X90071428Y-77060866D02*
X90109523Y-77175152D01*
X90109523Y-77175152D02*
X90566666Y-77632295D01*
X90566666Y-77632295D02*
X90071428Y-77632295D01*
X78690475Y-82469104D02*
X78214285Y-82469104D01*
X78785713Y-82754819D02*
X78452380Y-81754819D01*
X78452380Y-81754819D02*
X78119047Y-82754819D01*
X77214285Y-82754819D02*
X77547618Y-82278628D01*
X77785713Y-82754819D02*
X77785713Y-81754819D01*
X77785713Y-81754819D02*
X77404761Y-81754819D01*
X77404761Y-81754819D02*
X77309523Y-81802438D01*
X77309523Y-81802438D02*
X77261904Y-81850057D01*
X77261904Y-81850057D02*
X77214285Y-81945295D01*
X77214285Y-81945295D02*
X77214285Y-82088152D01*
X77214285Y-82088152D02*
X77261904Y-82183390D01*
X77261904Y-82183390D02*
X77309523Y-82231009D01*
X77309523Y-82231009D02*
X77404761Y-82278628D01*
X77404761Y-82278628D02*
X77785713Y-82278628D01*
X76785713Y-82754819D02*
X76785713Y-81754819D01*
X76785713Y-81754819D02*
X76547618Y-81754819D01*
X76547618Y-81754819D02*
X76404761Y-81802438D01*
X76404761Y-81802438D02*
X76309523Y-81897676D01*
X76309523Y-81897676D02*
X76261904Y-81992914D01*
X76261904Y-81992914D02*
X76214285Y-82183390D01*
X76214285Y-82183390D02*
X76214285Y-82326247D01*
X76214285Y-82326247D02*
X76261904Y-82516723D01*
X76261904Y-82516723D02*
X76309523Y-82611961D01*
X76309523Y-82611961D02*
X76404761Y-82707200D01*
X76404761Y-82707200D02*
X76547618Y-82754819D01*
X76547618Y-82754819D02*
X76785713Y-82754819D01*
X75595237Y-81754819D02*
X75404761Y-81754819D01*
X75404761Y-81754819D02*
X75309523Y-81802438D01*
X75309523Y-81802438D02*
X75214285Y-81897676D01*
X75214285Y-81897676D02*
X75166666Y-82088152D01*
X75166666Y-82088152D02*
X75166666Y-82421485D01*
X75166666Y-82421485D02*
X75214285Y-82611961D01*
X75214285Y-82611961D02*
X75309523Y-82707200D01*
X75309523Y-82707200D02*
X75404761Y-82754819D01*
X75404761Y-82754819D02*
X75595237Y-82754819D01*
X75595237Y-82754819D02*
X75690475Y-82707200D01*
X75690475Y-82707200D02*
X75785713Y-82611961D01*
X75785713Y-82611961D02*
X75833332Y-82421485D01*
X75833332Y-82421485D02*
X75833332Y-82088152D01*
X75833332Y-82088152D02*
X75785713Y-81897676D01*
X75785713Y-81897676D02*
X75690475Y-81802438D01*
X75690475Y-81802438D02*
X75595237Y-81754819D01*
X74166666Y-82754819D02*
X74499999Y-82278628D01*
X74738094Y-82754819D02*
X74738094Y-81754819D01*
X74738094Y-81754819D02*
X74357142Y-81754819D01*
X74357142Y-81754819D02*
X74261904Y-81802438D01*
X74261904Y-81802438D02*
X74214285Y-81850057D01*
X74214285Y-81850057D02*
X74166666Y-81945295D01*
X74166666Y-81945295D02*
X74166666Y-82088152D01*
X74166666Y-82088152D02*
X74214285Y-82183390D01*
X74214285Y-82183390D02*
X74261904Y-82231009D01*
X74261904Y-82231009D02*
X74357142Y-82278628D01*
X74357142Y-82278628D02*
X74738094Y-82278628D01*
X72499999Y-82754819D02*
X72976189Y-82754819D01*
X72976189Y-82754819D02*
X72976189Y-81754819D01*
X72166665Y-82754819D02*
X72166665Y-81754819D01*
X71690475Y-82754819D02*
X71690475Y-81754819D01*
X71690475Y-81754819D02*
X71119047Y-82754819D01*
X71119047Y-82754819D02*
X71119047Y-81754819D01*
X70642856Y-82231009D02*
X70309523Y-82231009D01*
X70166666Y-82754819D02*
X70642856Y-82754819D01*
X70642856Y-82754819D02*
X70642856Y-81754819D01*
X70642856Y-81754819D02*
X70166666Y-81754819D01*
X68976189Y-82754819D02*
X68976189Y-81754819D01*
X68976189Y-81754819D02*
X68642856Y-82469104D01*
X68642856Y-82469104D02*
X68309523Y-81754819D01*
X68309523Y-81754819D02*
X68309523Y-82754819D01*
X67309523Y-82754819D02*
X67880951Y-82754819D01*
X67595237Y-82754819D02*
X67595237Y-81754819D01*
X67595237Y-81754819D02*
X67690475Y-81897676D01*
X67690475Y-81897676D02*
X67785713Y-81992914D01*
X67785713Y-81992914D02*
X67880951Y-82040533D01*
X90071428Y-66092295D02*
X90528571Y-66092295D01*
X90299999Y-66092295D02*
X90299999Y-65292295D01*
X90299999Y-65292295D02*
X90376190Y-65406580D01*
X90376190Y-65406580D02*
X90452380Y-65482771D01*
X90452380Y-65482771D02*
X90528571Y-65520866D01*
X66519047Y-68918318D02*
X66519047Y-69489746D01*
X66519047Y-69489746D02*
X66557142Y-69604032D01*
X66557142Y-69604032D02*
X66633333Y-69680223D01*
X66633333Y-69680223D02*
X66747618Y-69718318D01*
X66747618Y-69718318D02*
X66823809Y-69718318D01*
X65719047Y-69718318D02*
X66176190Y-69718318D01*
X65947618Y-69718318D02*
X65947618Y-68918318D01*
X65947618Y-68918318D02*
X66023809Y-69032603D01*
X66023809Y-69032603D02*
X66099999Y-69108794D01*
X66099999Y-69108794D02*
X66176190Y-69146889D01*
X65223808Y-68918318D02*
X65147618Y-68918318D01*
X65147618Y-68918318D02*
X65071427Y-68956413D01*
X65071427Y-68956413D02*
X65033332Y-68994508D01*
X65033332Y-68994508D02*
X64995237Y-69070699D01*
X64995237Y-69070699D02*
X64957142Y-69223080D01*
X64957142Y-69223080D02*
X64957142Y-69413556D01*
X64957142Y-69413556D02*
X64995237Y-69565937D01*
X64995237Y-69565937D02*
X65033332Y-69642127D01*
X65033332Y-69642127D02*
X65071427Y-69680223D01*
X65071427Y-69680223D02*
X65147618Y-69718318D01*
X65147618Y-69718318D02*
X65223808Y-69718318D01*
X65223808Y-69718318D02*
X65299999Y-69680223D01*
X65299999Y-69680223D02*
X65338094Y-69642127D01*
X65338094Y-69642127D02*
X65376189Y-69565937D01*
X65376189Y-69565937D02*
X65414285Y-69413556D01*
X65414285Y-69413556D02*
X65414285Y-69223080D01*
X65414285Y-69223080D02*
X65376189Y-69070699D01*
X65376189Y-69070699D02*
X65338094Y-68994508D01*
X65338094Y-68994508D02*
X65299999Y-68956413D01*
X65299999Y-68956413D02*
X65223808Y-68918318D01*
X64652380Y-68994508D02*
X64614284Y-68956413D01*
X64614284Y-68956413D02*
X64538094Y-68918318D01*
X64538094Y-68918318D02*
X64347618Y-68918318D01*
X64347618Y-68918318D02*
X64271427Y-68956413D01*
X64271427Y-68956413D02*
X64233332Y-68994508D01*
X64233332Y-68994508D02*
X64195237Y-69070699D01*
X64195237Y-69070699D02*
X64195237Y-69146889D01*
X64195237Y-69146889D02*
X64233332Y-69261175D01*
X64233332Y-69261175D02*
X64690475Y-69718318D01*
X64690475Y-69718318D02*
X64195237Y-69718318D01*
X63280951Y-69489746D02*
X62899998Y-69489746D01*
X63357141Y-69718318D02*
X63090474Y-68918318D01*
X63090474Y-68918318D02*
X62823808Y-69718318D01*
X62557141Y-68918318D02*
X62557141Y-69565937D01*
X62557141Y-69565937D02*
X62519046Y-69642127D01*
X62519046Y-69642127D02*
X62480951Y-69680223D01*
X62480951Y-69680223D02*
X62404760Y-69718318D01*
X62404760Y-69718318D02*
X62252379Y-69718318D01*
X62252379Y-69718318D02*
X62176189Y-69680223D01*
X62176189Y-69680223D02*
X62138094Y-69642127D01*
X62138094Y-69642127D02*
X62099998Y-69565937D01*
X62099998Y-69565937D02*
X62099998Y-68918318D01*
X61719046Y-69718318D02*
X61719046Y-68918318D01*
X61719046Y-68918318D02*
X61528570Y-68918318D01*
X61528570Y-68918318D02*
X61414284Y-68956413D01*
X61414284Y-68956413D02*
X61338094Y-69032603D01*
X61338094Y-69032603D02*
X61299999Y-69108794D01*
X61299999Y-69108794D02*
X61261903Y-69261175D01*
X61261903Y-69261175D02*
X61261903Y-69375461D01*
X61261903Y-69375461D02*
X61299999Y-69527842D01*
X61299999Y-69527842D02*
X61338094Y-69604032D01*
X61338094Y-69604032D02*
X61414284Y-69680223D01*
X61414284Y-69680223D02*
X61528570Y-69718318D01*
X61528570Y-69718318D02*
X61719046Y-69718318D01*
X60919046Y-69718318D02*
X60919046Y-68918318D01*
X60385713Y-68918318D02*
X60233332Y-68918318D01*
X60233332Y-68918318D02*
X60157142Y-68956413D01*
X60157142Y-68956413D02*
X60080951Y-69032603D01*
X60080951Y-69032603D02*
X60042856Y-69184984D01*
X60042856Y-69184984D02*
X60042856Y-69451651D01*
X60042856Y-69451651D02*
X60080951Y-69604032D01*
X60080951Y-69604032D02*
X60157142Y-69680223D01*
X60157142Y-69680223D02*
X60233332Y-69718318D01*
X60233332Y-69718318D02*
X60385713Y-69718318D01*
X60385713Y-69718318D02*
X60461904Y-69680223D01*
X60461904Y-69680223D02*
X60538094Y-69604032D01*
X60538094Y-69604032D02*
X60576190Y-69451651D01*
X60576190Y-69451651D02*
X60576190Y-69184984D01*
X60576190Y-69184984D02*
X60538094Y-69032603D01*
X60538094Y-69032603D02*
X60461904Y-68956413D01*
X60461904Y-68956413D02*
X60385713Y-68918318D01*
X59090475Y-69718318D02*
X59090475Y-68918318D01*
X58709523Y-69718318D02*
X58709523Y-68918318D01*
X58709523Y-68918318D02*
X58252380Y-69718318D01*
X58252380Y-69718318D02*
X58252380Y-68918318D01*
X68804761Y-71006273D02*
X69261904Y-71006273D01*
X69033332Y-71006273D02*
X69033332Y-70206273D01*
X69033332Y-70206273D02*
X69109523Y-70320558D01*
X69109523Y-70320558D02*
X69185713Y-70396749D01*
X69185713Y-70396749D02*
X69261904Y-70434844D01*
X67890475Y-70777701D02*
X67509522Y-70777701D01*
X67966665Y-71006273D02*
X67699998Y-70206273D01*
X67699998Y-70206273D02*
X67433332Y-71006273D01*
X67166665Y-70206273D02*
X67166665Y-70853892D01*
X67166665Y-70853892D02*
X67128570Y-70930082D01*
X67128570Y-70930082D02*
X67090475Y-70968178D01*
X67090475Y-70968178D02*
X67014284Y-71006273D01*
X67014284Y-71006273D02*
X66861903Y-71006273D01*
X66861903Y-71006273D02*
X66785713Y-70968178D01*
X66785713Y-70968178D02*
X66747618Y-70930082D01*
X66747618Y-70930082D02*
X66709522Y-70853892D01*
X66709522Y-70853892D02*
X66709522Y-70206273D01*
X66328570Y-71006273D02*
X66328570Y-70206273D01*
X66328570Y-70206273D02*
X66138094Y-70206273D01*
X66138094Y-70206273D02*
X66023808Y-70244368D01*
X66023808Y-70244368D02*
X65947618Y-70320558D01*
X65947618Y-70320558D02*
X65909523Y-70396749D01*
X65909523Y-70396749D02*
X65871427Y-70549130D01*
X65871427Y-70549130D02*
X65871427Y-70663416D01*
X65871427Y-70663416D02*
X65909523Y-70815797D01*
X65909523Y-70815797D02*
X65947618Y-70891987D01*
X65947618Y-70891987D02*
X66023808Y-70968178D01*
X66023808Y-70968178D02*
X66138094Y-71006273D01*
X66138094Y-71006273D02*
X66328570Y-71006273D01*
X65528570Y-71006273D02*
X65528570Y-70206273D01*
X64995237Y-70206273D02*
X64842856Y-70206273D01*
X64842856Y-70206273D02*
X64766666Y-70244368D01*
X64766666Y-70244368D02*
X64690475Y-70320558D01*
X64690475Y-70320558D02*
X64652380Y-70472939D01*
X64652380Y-70472939D02*
X64652380Y-70739606D01*
X64652380Y-70739606D02*
X64690475Y-70891987D01*
X64690475Y-70891987D02*
X64766666Y-70968178D01*
X64766666Y-70968178D02*
X64842856Y-71006273D01*
X64842856Y-71006273D02*
X64995237Y-71006273D01*
X64995237Y-71006273D02*
X65071428Y-70968178D01*
X65071428Y-70968178D02*
X65147618Y-70891987D01*
X65147618Y-70891987D02*
X65185714Y-70739606D01*
X65185714Y-70739606D02*
X65185714Y-70472939D01*
X65185714Y-70472939D02*
X65147618Y-70320558D01*
X65147618Y-70320558D02*
X65071428Y-70244368D01*
X65071428Y-70244368D02*
X64995237Y-70206273D01*
X63699999Y-71006273D02*
X63699999Y-70206273D01*
X63319047Y-71006273D02*
X63319047Y-70206273D01*
X63319047Y-70206273D02*
X62861904Y-71006273D01*
X62861904Y-71006273D02*
X62861904Y-70206273D01*
X61300000Y-70282463D02*
X61261904Y-70244368D01*
X61261904Y-70244368D02*
X61185714Y-70206273D01*
X61185714Y-70206273D02*
X60995238Y-70206273D01*
X60995238Y-70206273D02*
X60919047Y-70244368D01*
X60919047Y-70244368D02*
X60880952Y-70282463D01*
X60880952Y-70282463D02*
X60842857Y-70358654D01*
X60842857Y-70358654D02*
X60842857Y-70434844D01*
X60842857Y-70434844D02*
X60880952Y-70549130D01*
X60880952Y-70549130D02*
X61338095Y-71006273D01*
X61338095Y-71006273D02*
X60842857Y-71006273D01*
X59471428Y-70244368D02*
X59547618Y-70206273D01*
X59547618Y-70206273D02*
X59661904Y-70206273D01*
X59661904Y-70206273D02*
X59776190Y-70244368D01*
X59776190Y-70244368D02*
X59852380Y-70320558D01*
X59852380Y-70320558D02*
X59890475Y-70396749D01*
X59890475Y-70396749D02*
X59928571Y-70549130D01*
X59928571Y-70549130D02*
X59928571Y-70663416D01*
X59928571Y-70663416D02*
X59890475Y-70815797D01*
X59890475Y-70815797D02*
X59852380Y-70891987D01*
X59852380Y-70891987D02*
X59776190Y-70968178D01*
X59776190Y-70968178D02*
X59661904Y-71006273D01*
X59661904Y-71006273D02*
X59585713Y-71006273D01*
X59585713Y-71006273D02*
X59471428Y-70968178D01*
X59471428Y-70968178D02*
X59433332Y-70930082D01*
X59433332Y-70930082D02*
X59433332Y-70663416D01*
X59433332Y-70663416D02*
X59585713Y-70663416D01*
X59090475Y-71006273D02*
X59090475Y-70206273D01*
X59090475Y-70206273D02*
X58633332Y-71006273D01*
X58633332Y-71006273D02*
X58633332Y-70206273D01*
X58252380Y-71006273D02*
X58252380Y-70206273D01*
X58252380Y-70206273D02*
X58061904Y-70206273D01*
X58061904Y-70206273D02*
X57947618Y-70244368D01*
X57947618Y-70244368D02*
X57871428Y-70320558D01*
X57871428Y-70320558D02*
X57833333Y-70396749D01*
X57833333Y-70396749D02*
X57795237Y-70549130D01*
X57795237Y-70549130D02*
X57795237Y-70663416D01*
X57795237Y-70663416D02*
X57833333Y-70815797D01*
X57833333Y-70815797D02*
X57871428Y-70891987D01*
X57871428Y-70891987D02*
X57947618Y-70968178D01*
X57947618Y-70968178D02*
X58061904Y-71006273D01*
X58061904Y-71006273D02*
X58252380Y-71006273D01*
X56690475Y-70206273D02*
X56614285Y-70206273D01*
X56614285Y-70206273D02*
X56538094Y-70244368D01*
X56538094Y-70244368D02*
X56499999Y-70282463D01*
X56499999Y-70282463D02*
X56461904Y-70358654D01*
X56461904Y-70358654D02*
X56423809Y-70511035D01*
X56423809Y-70511035D02*
X56423809Y-70701511D01*
X56423809Y-70701511D02*
X56461904Y-70853892D01*
X56461904Y-70853892D02*
X56499999Y-70930082D01*
X56499999Y-70930082D02*
X56538094Y-70968178D01*
X56538094Y-70968178D02*
X56614285Y-71006273D01*
X56614285Y-71006273D02*
X56690475Y-71006273D01*
X56690475Y-71006273D02*
X56766666Y-70968178D01*
X56766666Y-70968178D02*
X56804761Y-70930082D01*
X56804761Y-70930082D02*
X56842856Y-70853892D01*
X56842856Y-70853892D02*
X56880952Y-70701511D01*
X56880952Y-70701511D02*
X56880952Y-70511035D01*
X56880952Y-70511035D02*
X56842856Y-70358654D01*
X56842856Y-70358654D02*
X56804761Y-70282463D01*
X56804761Y-70282463D02*
X56766666Y-70244368D01*
X56766666Y-70244368D02*
X56690475Y-70206273D01*
X56195237Y-70206273D02*
X55928570Y-71006273D01*
X55928570Y-71006273D02*
X55661904Y-70206273D01*
X93028571Y-79332295D02*
X93028571Y-79903723D01*
X93028571Y-79903723D02*
X93066666Y-80018009D01*
X93066666Y-80018009D02*
X93142857Y-80094200D01*
X93142857Y-80094200D02*
X93257142Y-80132295D01*
X93257142Y-80132295D02*
X93333333Y-80132295D01*
X92266666Y-79332295D02*
X92647618Y-79332295D01*
X92647618Y-79332295D02*
X92685714Y-79713247D01*
X92685714Y-79713247D02*
X92647618Y-79675152D01*
X92647618Y-79675152D02*
X92571428Y-79637057D01*
X92571428Y-79637057D02*
X92380952Y-79637057D01*
X92380952Y-79637057D02*
X92304761Y-79675152D01*
X92304761Y-79675152D02*
X92266666Y-79713247D01*
X92266666Y-79713247D02*
X92228571Y-79789438D01*
X92228571Y-79789438D02*
X92228571Y-79979914D01*
X92228571Y-79979914D02*
X92266666Y-80056104D01*
X92266666Y-80056104D02*
X92304761Y-80094200D01*
X92304761Y-80094200D02*
X92380952Y-80132295D01*
X92380952Y-80132295D02*
X92571428Y-80132295D01*
X92571428Y-80132295D02*
X92647618Y-80094200D01*
X92647618Y-80094200D02*
X92685714Y-80056104D01*
X91733332Y-79332295D02*
X91657142Y-79332295D01*
X91657142Y-79332295D02*
X91580951Y-79370390D01*
X91580951Y-79370390D02*
X91542856Y-79408485D01*
X91542856Y-79408485D02*
X91504761Y-79484676D01*
X91504761Y-79484676D02*
X91466666Y-79637057D01*
X91466666Y-79637057D02*
X91466666Y-79827533D01*
X91466666Y-79827533D02*
X91504761Y-79979914D01*
X91504761Y-79979914D02*
X91542856Y-80056104D01*
X91542856Y-80056104D02*
X91580951Y-80094200D01*
X91580951Y-80094200D02*
X91657142Y-80132295D01*
X91657142Y-80132295D02*
X91733332Y-80132295D01*
X91733332Y-80132295D02*
X91809523Y-80094200D01*
X91809523Y-80094200D02*
X91847618Y-80056104D01*
X91847618Y-80056104D02*
X91885713Y-79979914D01*
X91885713Y-79979914D02*
X91923809Y-79827533D01*
X91923809Y-79827533D02*
X91923809Y-79637057D01*
X91923809Y-79637057D02*
X91885713Y-79484676D01*
X91885713Y-79484676D02*
X91847618Y-79408485D01*
X91847618Y-79408485D02*
X91809523Y-79370390D01*
X91809523Y-79370390D02*
X91733332Y-79332295D01*
X91161904Y-79408485D02*
X91123808Y-79370390D01*
X91123808Y-79370390D02*
X91047618Y-79332295D01*
X91047618Y-79332295D02*
X90857142Y-79332295D01*
X90857142Y-79332295D02*
X90780951Y-79370390D01*
X90780951Y-79370390D02*
X90742856Y-79408485D01*
X90742856Y-79408485D02*
X90704761Y-79484676D01*
X90704761Y-79484676D02*
X90704761Y-79560866D01*
X90704761Y-79560866D02*
X90742856Y-79675152D01*
X90742856Y-79675152D02*
X91199999Y-80132295D01*
X91199999Y-80132295D02*
X90704761Y-80132295D01*
X54471428Y-56822295D02*
X54928571Y-56822295D01*
X54699999Y-56822295D02*
X54699999Y-56022295D01*
X54699999Y-56022295D02*
X54776190Y-56136580D01*
X54776190Y-56136580D02*
X54852380Y-56212771D01*
X54852380Y-56212771D02*
X54928571Y-56250866D01*
X88057142Y-74918318D02*
X88057142Y-75489746D01*
X88057142Y-75489746D02*
X88095237Y-75604032D01*
X88095237Y-75604032D02*
X88171428Y-75680223D01*
X88171428Y-75680223D02*
X88285713Y-75718318D01*
X88285713Y-75718318D02*
X88361904Y-75718318D01*
X87295237Y-74918318D02*
X87676189Y-74918318D01*
X87676189Y-74918318D02*
X87714285Y-75299270D01*
X87714285Y-75299270D02*
X87676189Y-75261175D01*
X87676189Y-75261175D02*
X87599999Y-75223080D01*
X87599999Y-75223080D02*
X87409523Y-75223080D01*
X87409523Y-75223080D02*
X87333332Y-75261175D01*
X87333332Y-75261175D02*
X87295237Y-75299270D01*
X87295237Y-75299270D02*
X87257142Y-75375461D01*
X87257142Y-75375461D02*
X87257142Y-75565937D01*
X87257142Y-75565937D02*
X87295237Y-75642127D01*
X87295237Y-75642127D02*
X87333332Y-75680223D01*
X87333332Y-75680223D02*
X87409523Y-75718318D01*
X87409523Y-75718318D02*
X87599999Y-75718318D01*
X87599999Y-75718318D02*
X87676189Y-75680223D01*
X87676189Y-75680223D02*
X87714285Y-75642127D01*
X86761903Y-74918318D02*
X86685713Y-74918318D01*
X86685713Y-74918318D02*
X86609522Y-74956413D01*
X86609522Y-74956413D02*
X86571427Y-74994508D01*
X86571427Y-74994508D02*
X86533332Y-75070699D01*
X86533332Y-75070699D02*
X86495237Y-75223080D01*
X86495237Y-75223080D02*
X86495237Y-75413556D01*
X86495237Y-75413556D02*
X86533332Y-75565937D01*
X86533332Y-75565937D02*
X86571427Y-75642127D01*
X86571427Y-75642127D02*
X86609522Y-75680223D01*
X86609522Y-75680223D02*
X86685713Y-75718318D01*
X86685713Y-75718318D02*
X86761903Y-75718318D01*
X86761903Y-75718318D02*
X86838094Y-75680223D01*
X86838094Y-75680223D02*
X86876189Y-75642127D01*
X86876189Y-75642127D02*
X86914284Y-75565937D01*
X86914284Y-75565937D02*
X86952380Y-75413556D01*
X86952380Y-75413556D02*
X86952380Y-75223080D01*
X86952380Y-75223080D02*
X86914284Y-75070699D01*
X86914284Y-75070699D02*
X86876189Y-74994508D01*
X86876189Y-74994508D02*
X86838094Y-74956413D01*
X86838094Y-74956413D02*
X86761903Y-74918318D01*
X86190475Y-74994508D02*
X86152379Y-74956413D01*
X86152379Y-74956413D02*
X86076189Y-74918318D01*
X86076189Y-74918318D02*
X85885713Y-74918318D01*
X85885713Y-74918318D02*
X85809522Y-74956413D01*
X85809522Y-74956413D02*
X85771427Y-74994508D01*
X85771427Y-74994508D02*
X85733332Y-75070699D01*
X85733332Y-75070699D02*
X85733332Y-75146889D01*
X85733332Y-75146889D02*
X85771427Y-75261175D01*
X85771427Y-75261175D02*
X86228570Y-75718318D01*
X86228570Y-75718318D02*
X85733332Y-75718318D01*
X84819046Y-75489746D02*
X84438093Y-75489746D01*
X84895236Y-75718318D02*
X84628569Y-74918318D01*
X84628569Y-74918318D02*
X84361903Y-75718318D01*
X84095236Y-75718318D02*
X84095236Y-74918318D01*
X84095236Y-74918318D02*
X83828570Y-75489746D01*
X83828570Y-75489746D02*
X83561903Y-74918318D01*
X83561903Y-74918318D02*
X83561903Y-75718318D01*
X83180950Y-75718318D02*
X83180950Y-74918318D01*
X83180950Y-74918318D02*
X82876188Y-74918318D01*
X82876188Y-74918318D02*
X82799998Y-74956413D01*
X82799998Y-74956413D02*
X82761903Y-74994508D01*
X82761903Y-74994508D02*
X82723807Y-75070699D01*
X82723807Y-75070699D02*
X82723807Y-75184984D01*
X82723807Y-75184984D02*
X82761903Y-75261175D01*
X82761903Y-75261175D02*
X82799998Y-75299270D01*
X82799998Y-75299270D02*
X82876188Y-75337365D01*
X82876188Y-75337365D02*
X83180950Y-75337365D01*
X81809522Y-75489746D02*
X81428569Y-75489746D01*
X81885712Y-75718318D02*
X81619045Y-74918318D01*
X81619045Y-74918318D02*
X81352379Y-75718318D01*
X81085712Y-74918318D02*
X81085712Y-75565937D01*
X81085712Y-75565937D02*
X81047617Y-75642127D01*
X81047617Y-75642127D02*
X81009522Y-75680223D01*
X81009522Y-75680223D02*
X80933331Y-75718318D01*
X80933331Y-75718318D02*
X80780950Y-75718318D01*
X80780950Y-75718318D02*
X80704760Y-75680223D01*
X80704760Y-75680223D02*
X80666665Y-75642127D01*
X80666665Y-75642127D02*
X80628569Y-75565937D01*
X80628569Y-75565937D02*
X80628569Y-74918318D01*
X80247617Y-75718318D02*
X80247617Y-74918318D01*
X80247617Y-74918318D02*
X80057141Y-74918318D01*
X80057141Y-74918318D02*
X79942855Y-74956413D01*
X79942855Y-74956413D02*
X79866665Y-75032603D01*
X79866665Y-75032603D02*
X79828570Y-75108794D01*
X79828570Y-75108794D02*
X79790474Y-75261175D01*
X79790474Y-75261175D02*
X79790474Y-75375461D01*
X79790474Y-75375461D02*
X79828570Y-75527842D01*
X79828570Y-75527842D02*
X79866665Y-75604032D01*
X79866665Y-75604032D02*
X79942855Y-75680223D01*
X79942855Y-75680223D02*
X80057141Y-75718318D01*
X80057141Y-75718318D02*
X80247617Y-75718318D01*
X79447617Y-75718318D02*
X79447617Y-74918318D01*
X78914284Y-74918318D02*
X78761903Y-74918318D01*
X78761903Y-74918318D02*
X78685713Y-74956413D01*
X78685713Y-74956413D02*
X78609522Y-75032603D01*
X78609522Y-75032603D02*
X78571427Y-75184984D01*
X78571427Y-75184984D02*
X78571427Y-75451651D01*
X78571427Y-75451651D02*
X78609522Y-75604032D01*
X78609522Y-75604032D02*
X78685713Y-75680223D01*
X78685713Y-75680223D02*
X78761903Y-75718318D01*
X78761903Y-75718318D02*
X78914284Y-75718318D01*
X78914284Y-75718318D02*
X78990475Y-75680223D01*
X78990475Y-75680223D02*
X79066665Y-75604032D01*
X79066665Y-75604032D02*
X79104761Y-75451651D01*
X79104761Y-75451651D02*
X79104761Y-75184984D01*
X79104761Y-75184984D02*
X79066665Y-75032603D01*
X79066665Y-75032603D02*
X78990475Y-74956413D01*
X78990475Y-74956413D02*
X78914284Y-74918318D01*
X77466665Y-74918318D02*
X77314284Y-74918318D01*
X77314284Y-74918318D02*
X77238094Y-74956413D01*
X77238094Y-74956413D02*
X77161903Y-75032603D01*
X77161903Y-75032603D02*
X77123808Y-75184984D01*
X77123808Y-75184984D02*
X77123808Y-75451651D01*
X77123808Y-75451651D02*
X77161903Y-75604032D01*
X77161903Y-75604032D02*
X77238094Y-75680223D01*
X77238094Y-75680223D02*
X77314284Y-75718318D01*
X77314284Y-75718318D02*
X77466665Y-75718318D01*
X77466665Y-75718318D02*
X77542856Y-75680223D01*
X77542856Y-75680223D02*
X77619046Y-75604032D01*
X77619046Y-75604032D02*
X77657142Y-75451651D01*
X77657142Y-75451651D02*
X77657142Y-75184984D01*
X77657142Y-75184984D02*
X77619046Y-75032603D01*
X77619046Y-75032603D02*
X77542856Y-74956413D01*
X77542856Y-74956413D02*
X77466665Y-74918318D01*
X76780951Y-74918318D02*
X76780951Y-75565937D01*
X76780951Y-75565937D02*
X76742856Y-75642127D01*
X76742856Y-75642127D02*
X76704761Y-75680223D01*
X76704761Y-75680223D02*
X76628570Y-75718318D01*
X76628570Y-75718318D02*
X76476189Y-75718318D01*
X76476189Y-75718318D02*
X76399999Y-75680223D01*
X76399999Y-75680223D02*
X76361904Y-75642127D01*
X76361904Y-75642127D02*
X76323808Y-75565937D01*
X76323808Y-75565937D02*
X76323808Y-74918318D01*
X76057142Y-74918318D02*
X75599999Y-74918318D01*
X75828571Y-75718318D02*
X75828571Y-74918318D01*
X88838095Y-77006273D02*
X89295238Y-77006273D01*
X89066666Y-77006273D02*
X89066666Y-76206273D01*
X89066666Y-76206273D02*
X89142857Y-76320558D01*
X89142857Y-76320558D02*
X89219047Y-76396749D01*
X89219047Y-76396749D02*
X89295238Y-76434844D01*
X87923809Y-76777701D02*
X87542856Y-76777701D01*
X87999999Y-77006273D02*
X87733332Y-76206273D01*
X87733332Y-76206273D02*
X87466666Y-77006273D01*
X87199999Y-76206273D02*
X87199999Y-76853892D01*
X87199999Y-76853892D02*
X87161904Y-76930082D01*
X87161904Y-76930082D02*
X87123809Y-76968178D01*
X87123809Y-76968178D02*
X87047618Y-77006273D01*
X87047618Y-77006273D02*
X86895237Y-77006273D01*
X86895237Y-77006273D02*
X86819047Y-76968178D01*
X86819047Y-76968178D02*
X86780952Y-76930082D01*
X86780952Y-76930082D02*
X86742856Y-76853892D01*
X86742856Y-76853892D02*
X86742856Y-76206273D01*
X86361904Y-77006273D02*
X86361904Y-76206273D01*
X86361904Y-76206273D02*
X86171428Y-76206273D01*
X86171428Y-76206273D02*
X86057142Y-76244368D01*
X86057142Y-76244368D02*
X85980952Y-76320558D01*
X85980952Y-76320558D02*
X85942857Y-76396749D01*
X85942857Y-76396749D02*
X85904761Y-76549130D01*
X85904761Y-76549130D02*
X85904761Y-76663416D01*
X85904761Y-76663416D02*
X85942857Y-76815797D01*
X85942857Y-76815797D02*
X85980952Y-76891987D01*
X85980952Y-76891987D02*
X86057142Y-76968178D01*
X86057142Y-76968178D02*
X86171428Y-77006273D01*
X86171428Y-77006273D02*
X86361904Y-77006273D01*
X85561904Y-77006273D02*
X85561904Y-76206273D01*
X85028571Y-76206273D02*
X84876190Y-76206273D01*
X84876190Y-76206273D02*
X84800000Y-76244368D01*
X84800000Y-76244368D02*
X84723809Y-76320558D01*
X84723809Y-76320558D02*
X84685714Y-76472939D01*
X84685714Y-76472939D02*
X84685714Y-76739606D01*
X84685714Y-76739606D02*
X84723809Y-76891987D01*
X84723809Y-76891987D02*
X84800000Y-76968178D01*
X84800000Y-76968178D02*
X84876190Y-77006273D01*
X84876190Y-77006273D02*
X85028571Y-77006273D01*
X85028571Y-77006273D02*
X85104762Y-76968178D01*
X85104762Y-76968178D02*
X85180952Y-76891987D01*
X85180952Y-76891987D02*
X85219048Y-76739606D01*
X85219048Y-76739606D02*
X85219048Y-76472939D01*
X85219048Y-76472939D02*
X85180952Y-76320558D01*
X85180952Y-76320558D02*
X85104762Y-76244368D01*
X85104762Y-76244368D02*
X85028571Y-76206273D01*
X83580952Y-76206273D02*
X83428571Y-76206273D01*
X83428571Y-76206273D02*
X83352381Y-76244368D01*
X83352381Y-76244368D02*
X83276190Y-76320558D01*
X83276190Y-76320558D02*
X83238095Y-76472939D01*
X83238095Y-76472939D02*
X83238095Y-76739606D01*
X83238095Y-76739606D02*
X83276190Y-76891987D01*
X83276190Y-76891987D02*
X83352381Y-76968178D01*
X83352381Y-76968178D02*
X83428571Y-77006273D01*
X83428571Y-77006273D02*
X83580952Y-77006273D01*
X83580952Y-77006273D02*
X83657143Y-76968178D01*
X83657143Y-76968178D02*
X83733333Y-76891987D01*
X83733333Y-76891987D02*
X83771429Y-76739606D01*
X83771429Y-76739606D02*
X83771429Y-76472939D01*
X83771429Y-76472939D02*
X83733333Y-76320558D01*
X83733333Y-76320558D02*
X83657143Y-76244368D01*
X83657143Y-76244368D02*
X83580952Y-76206273D01*
X82895238Y-76206273D02*
X82895238Y-76853892D01*
X82895238Y-76853892D02*
X82857143Y-76930082D01*
X82857143Y-76930082D02*
X82819048Y-76968178D01*
X82819048Y-76968178D02*
X82742857Y-77006273D01*
X82742857Y-77006273D02*
X82590476Y-77006273D01*
X82590476Y-77006273D02*
X82514286Y-76968178D01*
X82514286Y-76968178D02*
X82476191Y-76930082D01*
X82476191Y-76930082D02*
X82438095Y-76853892D01*
X82438095Y-76853892D02*
X82438095Y-76206273D01*
X82171429Y-76206273D02*
X81714286Y-76206273D01*
X81942858Y-77006273D02*
X81942858Y-76206273D01*
X80266667Y-76282463D02*
X80228571Y-76244368D01*
X80228571Y-76244368D02*
X80152381Y-76206273D01*
X80152381Y-76206273D02*
X79961905Y-76206273D01*
X79961905Y-76206273D02*
X79885714Y-76244368D01*
X79885714Y-76244368D02*
X79847619Y-76282463D01*
X79847619Y-76282463D02*
X79809524Y-76358654D01*
X79809524Y-76358654D02*
X79809524Y-76434844D01*
X79809524Y-76434844D02*
X79847619Y-76549130D01*
X79847619Y-76549130D02*
X80304762Y-77006273D01*
X80304762Y-77006273D02*
X79809524Y-77006273D01*
X78438095Y-76244368D02*
X78514285Y-76206273D01*
X78514285Y-76206273D02*
X78628571Y-76206273D01*
X78628571Y-76206273D02*
X78742857Y-76244368D01*
X78742857Y-76244368D02*
X78819047Y-76320558D01*
X78819047Y-76320558D02*
X78857142Y-76396749D01*
X78857142Y-76396749D02*
X78895238Y-76549130D01*
X78895238Y-76549130D02*
X78895238Y-76663416D01*
X78895238Y-76663416D02*
X78857142Y-76815797D01*
X78857142Y-76815797D02*
X78819047Y-76891987D01*
X78819047Y-76891987D02*
X78742857Y-76968178D01*
X78742857Y-76968178D02*
X78628571Y-77006273D01*
X78628571Y-77006273D02*
X78552380Y-77006273D01*
X78552380Y-77006273D02*
X78438095Y-76968178D01*
X78438095Y-76968178D02*
X78399999Y-76930082D01*
X78399999Y-76930082D02*
X78399999Y-76663416D01*
X78399999Y-76663416D02*
X78552380Y-76663416D01*
X78057142Y-77006273D02*
X78057142Y-76206273D01*
X78057142Y-76206273D02*
X77599999Y-77006273D01*
X77599999Y-77006273D02*
X77599999Y-76206273D01*
X77219047Y-77006273D02*
X77219047Y-76206273D01*
X77219047Y-76206273D02*
X77028571Y-76206273D01*
X77028571Y-76206273D02*
X76914285Y-76244368D01*
X76914285Y-76244368D02*
X76838095Y-76320558D01*
X76838095Y-76320558D02*
X76800000Y-76396749D01*
X76800000Y-76396749D02*
X76761904Y-76549130D01*
X76761904Y-76549130D02*
X76761904Y-76663416D01*
X76761904Y-76663416D02*
X76800000Y-76815797D01*
X76800000Y-76815797D02*
X76838095Y-76891987D01*
X76838095Y-76891987D02*
X76914285Y-76968178D01*
X76914285Y-76968178D02*
X77028571Y-77006273D01*
X77028571Y-77006273D02*
X77219047Y-77006273D01*
X75657142Y-76206273D02*
X75580952Y-76206273D01*
X75580952Y-76206273D02*
X75504761Y-76244368D01*
X75504761Y-76244368D02*
X75466666Y-76282463D01*
X75466666Y-76282463D02*
X75428571Y-76358654D01*
X75428571Y-76358654D02*
X75390476Y-76511035D01*
X75390476Y-76511035D02*
X75390476Y-76701511D01*
X75390476Y-76701511D02*
X75428571Y-76853892D01*
X75428571Y-76853892D02*
X75466666Y-76930082D01*
X75466666Y-76930082D02*
X75504761Y-76968178D01*
X75504761Y-76968178D02*
X75580952Y-77006273D01*
X75580952Y-77006273D02*
X75657142Y-77006273D01*
X75657142Y-77006273D02*
X75733333Y-76968178D01*
X75733333Y-76968178D02*
X75771428Y-76930082D01*
X75771428Y-76930082D02*
X75809523Y-76853892D01*
X75809523Y-76853892D02*
X75847619Y-76701511D01*
X75847619Y-76701511D02*
X75847619Y-76511035D01*
X75847619Y-76511035D02*
X75809523Y-76358654D01*
X75809523Y-76358654D02*
X75771428Y-76282463D01*
X75771428Y-76282463D02*
X75733333Y-76244368D01*
X75733333Y-76244368D02*
X75657142Y-76206273D01*
X75161904Y-76206273D02*
X74895237Y-77006273D01*
X74895237Y-77006273D02*
X74628571Y-76206273D01*
X90528571Y-67908485D02*
X90490475Y-67870390D01*
X90490475Y-67870390D02*
X90414285Y-67832295D01*
X90414285Y-67832295D02*
X90223809Y-67832295D01*
X90223809Y-67832295D02*
X90147618Y-67870390D01*
X90147618Y-67870390D02*
X90109523Y-67908485D01*
X90109523Y-67908485D02*
X90071428Y-67984676D01*
X90071428Y-67984676D02*
X90071428Y-68060866D01*
X90071428Y-68060866D02*
X90109523Y-68175152D01*
X90109523Y-68175152D02*
X90566666Y-68632295D01*
X90566666Y-68632295D02*
X90071428Y-68632295D01*
X93028571Y-62792295D02*
X93028571Y-63363723D01*
X93028571Y-63363723D02*
X93066666Y-63478009D01*
X93066666Y-63478009D02*
X93142857Y-63554200D01*
X93142857Y-63554200D02*
X93257142Y-63592295D01*
X93257142Y-63592295D02*
X93333333Y-63592295D01*
X92266666Y-62792295D02*
X92647618Y-62792295D01*
X92647618Y-62792295D02*
X92685714Y-63173247D01*
X92685714Y-63173247D02*
X92647618Y-63135152D01*
X92647618Y-63135152D02*
X92571428Y-63097057D01*
X92571428Y-63097057D02*
X92380952Y-63097057D01*
X92380952Y-63097057D02*
X92304761Y-63135152D01*
X92304761Y-63135152D02*
X92266666Y-63173247D01*
X92266666Y-63173247D02*
X92228571Y-63249438D01*
X92228571Y-63249438D02*
X92228571Y-63439914D01*
X92228571Y-63439914D02*
X92266666Y-63516104D01*
X92266666Y-63516104D02*
X92304761Y-63554200D01*
X92304761Y-63554200D02*
X92380952Y-63592295D01*
X92380952Y-63592295D02*
X92571428Y-63592295D01*
X92571428Y-63592295D02*
X92647618Y-63554200D01*
X92647618Y-63554200D02*
X92685714Y-63516104D01*
X91733332Y-62792295D02*
X91657142Y-62792295D01*
X91657142Y-62792295D02*
X91580951Y-62830390D01*
X91580951Y-62830390D02*
X91542856Y-62868485D01*
X91542856Y-62868485D02*
X91504761Y-62944676D01*
X91504761Y-62944676D02*
X91466666Y-63097057D01*
X91466666Y-63097057D02*
X91466666Y-63287533D01*
X91466666Y-63287533D02*
X91504761Y-63439914D01*
X91504761Y-63439914D02*
X91542856Y-63516104D01*
X91542856Y-63516104D02*
X91580951Y-63554200D01*
X91580951Y-63554200D02*
X91657142Y-63592295D01*
X91657142Y-63592295D02*
X91733332Y-63592295D01*
X91733332Y-63592295D02*
X91809523Y-63554200D01*
X91809523Y-63554200D02*
X91847618Y-63516104D01*
X91847618Y-63516104D02*
X91885713Y-63439914D01*
X91885713Y-63439914D02*
X91923809Y-63287533D01*
X91923809Y-63287533D02*
X91923809Y-63097057D01*
X91923809Y-63097057D02*
X91885713Y-62944676D01*
X91885713Y-62944676D02*
X91847618Y-62868485D01*
X91847618Y-62868485D02*
X91809523Y-62830390D01*
X91809523Y-62830390D02*
X91733332Y-62792295D01*
X91199999Y-62792295D02*
X90704761Y-62792295D01*
X90704761Y-62792295D02*
X90971427Y-63097057D01*
X90971427Y-63097057D02*
X90857142Y-63097057D01*
X90857142Y-63097057D02*
X90780951Y-63135152D01*
X90780951Y-63135152D02*
X90742856Y-63173247D01*
X90742856Y-63173247D02*
X90704761Y-63249438D01*
X90704761Y-63249438D02*
X90704761Y-63439914D01*
X90704761Y-63439914D02*
X90742856Y-63516104D01*
X90742856Y-63516104D02*
X90780951Y-63554200D01*
X90780951Y-63554200D02*
X90857142Y-63592295D01*
X90857142Y-63592295D02*
X91085713Y-63592295D01*
X91085713Y-63592295D02*
X91161904Y-63554200D01*
X91161904Y-63554200D02*
X91199999Y-63516104D01*
X76414284Y-69062295D02*
X76261903Y-69062295D01*
X76261903Y-69062295D02*
X76185713Y-69100390D01*
X76185713Y-69100390D02*
X76109522Y-69176580D01*
X76109522Y-69176580D02*
X76071427Y-69328961D01*
X76071427Y-69328961D02*
X76071427Y-69595628D01*
X76071427Y-69595628D02*
X76109522Y-69748009D01*
X76109522Y-69748009D02*
X76185713Y-69824200D01*
X76185713Y-69824200D02*
X76261903Y-69862295D01*
X76261903Y-69862295D02*
X76414284Y-69862295D01*
X76414284Y-69862295D02*
X76490475Y-69824200D01*
X76490475Y-69824200D02*
X76566665Y-69748009D01*
X76566665Y-69748009D02*
X76604761Y-69595628D01*
X76604761Y-69595628D02*
X76604761Y-69328961D01*
X76604761Y-69328961D02*
X76566665Y-69176580D01*
X76566665Y-69176580D02*
X76490475Y-69100390D01*
X76490475Y-69100390D02*
X76414284Y-69062295D01*
X75728570Y-69062295D02*
X75728570Y-69709914D01*
X75728570Y-69709914D02*
X75690475Y-69786104D01*
X75690475Y-69786104D02*
X75652380Y-69824200D01*
X75652380Y-69824200D02*
X75576189Y-69862295D01*
X75576189Y-69862295D02*
X75423808Y-69862295D01*
X75423808Y-69862295D02*
X75347618Y-69824200D01*
X75347618Y-69824200D02*
X75309523Y-69786104D01*
X75309523Y-69786104D02*
X75271427Y-69709914D01*
X75271427Y-69709914D02*
X75271427Y-69062295D01*
X75004761Y-69062295D02*
X74547618Y-69062295D01*
X74776190Y-69862295D02*
X74776190Y-69062295D01*
X74280951Y-69443247D02*
X73671428Y-69443247D01*
X73671428Y-69671819D02*
X74280951Y-69671819D01*
X73023809Y-69443247D02*
X73290475Y-69443247D01*
X73290475Y-69862295D02*
X73290475Y-69062295D01*
X73290475Y-69062295D02*
X72909523Y-69062295D01*
X72147618Y-69862295D02*
X72414285Y-69481342D01*
X72604761Y-69862295D02*
X72604761Y-69062295D01*
X72604761Y-69062295D02*
X72299999Y-69062295D01*
X72299999Y-69062295D02*
X72223809Y-69100390D01*
X72223809Y-69100390D02*
X72185714Y-69138485D01*
X72185714Y-69138485D02*
X72147618Y-69214676D01*
X72147618Y-69214676D02*
X72147618Y-69328961D01*
X72147618Y-69328961D02*
X72185714Y-69405152D01*
X72185714Y-69405152D02*
X72223809Y-69443247D01*
X72223809Y-69443247D02*
X72299999Y-69481342D01*
X72299999Y-69481342D02*
X72604761Y-69481342D01*
X71652380Y-69062295D02*
X71499999Y-69062295D01*
X71499999Y-69062295D02*
X71423809Y-69100390D01*
X71423809Y-69100390D02*
X71347618Y-69176580D01*
X71347618Y-69176580D02*
X71309523Y-69328961D01*
X71309523Y-69328961D02*
X71309523Y-69595628D01*
X71309523Y-69595628D02*
X71347618Y-69748009D01*
X71347618Y-69748009D02*
X71423809Y-69824200D01*
X71423809Y-69824200D02*
X71499999Y-69862295D01*
X71499999Y-69862295D02*
X71652380Y-69862295D01*
X71652380Y-69862295D02*
X71728571Y-69824200D01*
X71728571Y-69824200D02*
X71804761Y-69748009D01*
X71804761Y-69748009D02*
X71842857Y-69595628D01*
X71842857Y-69595628D02*
X71842857Y-69328961D01*
X71842857Y-69328961D02*
X71804761Y-69176580D01*
X71804761Y-69176580D02*
X71728571Y-69100390D01*
X71728571Y-69100390D02*
X71652380Y-69062295D01*
X70966666Y-69862295D02*
X70966666Y-69062295D01*
X70966666Y-69062295D02*
X70700000Y-69633723D01*
X70700000Y-69633723D02*
X70433333Y-69062295D01*
X70433333Y-69062295D02*
X70433333Y-69862295D01*
X74247617Y-65862295D02*
X74247617Y-65062295D01*
X73866665Y-65862295D02*
X73866665Y-65062295D01*
X73866665Y-65062295D02*
X73409522Y-65862295D01*
X73409522Y-65862295D02*
X73409522Y-65062295D01*
X73028570Y-65443247D02*
X72419047Y-65443247D01*
X72419047Y-65671819D02*
X73028570Y-65671819D01*
X72038094Y-65862295D02*
X72038094Y-65062295D01*
X71657142Y-65862295D02*
X71657142Y-65062295D01*
X71657142Y-65062295D02*
X71199999Y-65862295D01*
X71199999Y-65862295D02*
X71199999Y-65062295D01*
X70933333Y-65062295D02*
X70476190Y-65062295D01*
X70704762Y-65862295D02*
X70704762Y-65062295D01*
X70057142Y-65062295D02*
X69904761Y-65062295D01*
X69904761Y-65062295D02*
X69828571Y-65100390D01*
X69828571Y-65100390D02*
X69752380Y-65176580D01*
X69752380Y-65176580D02*
X69714285Y-65328961D01*
X69714285Y-65328961D02*
X69714285Y-65595628D01*
X69714285Y-65595628D02*
X69752380Y-65748009D01*
X69752380Y-65748009D02*
X69828571Y-65824200D01*
X69828571Y-65824200D02*
X69904761Y-65862295D01*
X69904761Y-65862295D02*
X70057142Y-65862295D01*
X70057142Y-65862295D02*
X70133333Y-65824200D01*
X70133333Y-65824200D02*
X70209523Y-65748009D01*
X70209523Y-65748009D02*
X70247619Y-65595628D01*
X70247619Y-65595628D02*
X70247619Y-65328961D01*
X70247619Y-65328961D02*
X70209523Y-65176580D01*
X70209523Y-65176580D02*
X70133333Y-65100390D01*
X70133333Y-65100390D02*
X70057142Y-65062295D01*
X69819048Y-57274340D02*
X69819048Y-57845768D01*
X69819048Y-57845768D02*
X69857143Y-57960054D01*
X69857143Y-57960054D02*
X69933334Y-58036245D01*
X69933334Y-58036245D02*
X70047619Y-58074340D01*
X70047619Y-58074340D02*
X70123810Y-58074340D01*
X69019048Y-58074340D02*
X69476191Y-58074340D01*
X69247619Y-58074340D02*
X69247619Y-57274340D01*
X69247619Y-57274340D02*
X69323810Y-57388625D01*
X69323810Y-57388625D02*
X69400000Y-57464816D01*
X69400000Y-57464816D02*
X69476191Y-57502911D01*
X68523809Y-57274340D02*
X68447619Y-57274340D01*
X68447619Y-57274340D02*
X68371428Y-57312435D01*
X68371428Y-57312435D02*
X68333333Y-57350530D01*
X68333333Y-57350530D02*
X68295238Y-57426721D01*
X68295238Y-57426721D02*
X68257143Y-57579102D01*
X68257143Y-57579102D02*
X68257143Y-57769578D01*
X68257143Y-57769578D02*
X68295238Y-57921959D01*
X68295238Y-57921959D02*
X68333333Y-57998149D01*
X68333333Y-57998149D02*
X68371428Y-58036245D01*
X68371428Y-58036245D02*
X68447619Y-58074340D01*
X68447619Y-58074340D02*
X68523809Y-58074340D01*
X68523809Y-58074340D02*
X68600000Y-58036245D01*
X68600000Y-58036245D02*
X68638095Y-57998149D01*
X68638095Y-57998149D02*
X68676190Y-57921959D01*
X68676190Y-57921959D02*
X68714286Y-57769578D01*
X68714286Y-57769578D02*
X68714286Y-57579102D01*
X68714286Y-57579102D02*
X68676190Y-57426721D01*
X68676190Y-57426721D02*
X68638095Y-57350530D01*
X68638095Y-57350530D02*
X68600000Y-57312435D01*
X68600000Y-57312435D02*
X68523809Y-57274340D01*
X67495238Y-58074340D02*
X67952381Y-58074340D01*
X67723809Y-58074340D02*
X67723809Y-57274340D01*
X67723809Y-57274340D02*
X67800000Y-57388625D01*
X67800000Y-57388625D02*
X67876190Y-57464816D01*
X67876190Y-57464816D02*
X67952381Y-57502911D01*
X66542856Y-58074340D02*
X66542856Y-57274340D01*
X66542856Y-57274340D02*
X66238094Y-57274340D01*
X66238094Y-57274340D02*
X66161904Y-57312435D01*
X66161904Y-57312435D02*
X66123809Y-57350530D01*
X66123809Y-57350530D02*
X66085713Y-57426721D01*
X66085713Y-57426721D02*
X66085713Y-57541006D01*
X66085713Y-57541006D02*
X66123809Y-57617197D01*
X66123809Y-57617197D02*
X66161904Y-57655292D01*
X66161904Y-57655292D02*
X66238094Y-57693387D01*
X66238094Y-57693387D02*
X66542856Y-57693387D01*
X65819047Y-57274340D02*
X65628571Y-58074340D01*
X65628571Y-58074340D02*
X65476190Y-57502911D01*
X65476190Y-57502911D02*
X65323809Y-58074340D01*
X65323809Y-58074340D02*
X65133333Y-57274340D01*
X64371427Y-58074340D02*
X64638094Y-57693387D01*
X64828570Y-58074340D02*
X64828570Y-57274340D01*
X64828570Y-57274340D02*
X64523808Y-57274340D01*
X64523808Y-57274340D02*
X64447618Y-57312435D01*
X64447618Y-57312435D02*
X64409523Y-57350530D01*
X64409523Y-57350530D02*
X64371427Y-57426721D01*
X64371427Y-57426721D02*
X64371427Y-57541006D01*
X64371427Y-57541006D02*
X64409523Y-57617197D01*
X64409523Y-57617197D02*
X64447618Y-57655292D01*
X64447618Y-57655292D02*
X64523808Y-57693387D01*
X64523808Y-57693387D02*
X64828570Y-57693387D01*
X63419046Y-57769578D02*
X62809523Y-57769578D01*
X63114284Y-58074340D02*
X63114284Y-57464816D01*
X61819046Y-57655292D02*
X61552380Y-57655292D01*
X61438094Y-58074340D02*
X61819046Y-58074340D01*
X61819046Y-58074340D02*
X61819046Y-57274340D01*
X61819046Y-57274340D02*
X61438094Y-57274340D01*
X61095236Y-58074340D02*
X61095236Y-57274340D01*
X61095236Y-57274340D02*
X60638093Y-58074340D01*
X60638093Y-58074340D02*
X60638093Y-57274340D01*
X60295237Y-57845768D02*
X59914284Y-57845768D01*
X60371427Y-58074340D02*
X60104760Y-57274340D01*
X60104760Y-57274340D02*
X59838094Y-58074340D01*
X59304761Y-57655292D02*
X59190475Y-57693387D01*
X59190475Y-57693387D02*
X59152380Y-57731483D01*
X59152380Y-57731483D02*
X59114284Y-57807673D01*
X59114284Y-57807673D02*
X59114284Y-57921959D01*
X59114284Y-57921959D02*
X59152380Y-57998149D01*
X59152380Y-57998149D02*
X59190475Y-58036245D01*
X59190475Y-58036245D02*
X59266665Y-58074340D01*
X59266665Y-58074340D02*
X59571427Y-58074340D01*
X59571427Y-58074340D02*
X59571427Y-57274340D01*
X59571427Y-57274340D02*
X59304761Y-57274340D01*
X59304761Y-57274340D02*
X59228570Y-57312435D01*
X59228570Y-57312435D02*
X59190475Y-57350530D01*
X59190475Y-57350530D02*
X59152380Y-57426721D01*
X59152380Y-57426721D02*
X59152380Y-57502911D01*
X59152380Y-57502911D02*
X59190475Y-57579102D01*
X59190475Y-57579102D02*
X59228570Y-57617197D01*
X59228570Y-57617197D02*
X59304761Y-57655292D01*
X59304761Y-57655292D02*
X59571427Y-57655292D01*
X58390475Y-58074340D02*
X58771427Y-58074340D01*
X58771427Y-58074340D02*
X58771427Y-57274340D01*
X58123808Y-57655292D02*
X57857142Y-57655292D01*
X57742856Y-58074340D02*
X58123808Y-58074340D01*
X58123808Y-58074340D02*
X58123808Y-57274340D01*
X58123808Y-57274340D02*
X57742856Y-57274340D01*
X56790474Y-58074340D02*
X56790474Y-57274340D01*
X56409522Y-58074340D02*
X56409522Y-57274340D01*
X56409522Y-57274340D02*
X55952379Y-58074340D01*
X55952379Y-58074340D02*
X55952379Y-57274340D01*
X68257143Y-59362295D02*
X68714286Y-59362295D01*
X68485714Y-59362295D02*
X68485714Y-58562295D01*
X68485714Y-58562295D02*
X68561905Y-58676580D01*
X68561905Y-58676580D02*
X68638095Y-58752771D01*
X68638095Y-58752771D02*
X68714286Y-58790866D01*
X66923809Y-58562295D02*
X67304761Y-58562295D01*
X67304761Y-58562295D02*
X67342857Y-58943247D01*
X67342857Y-58943247D02*
X67304761Y-58905152D01*
X67304761Y-58905152D02*
X67228571Y-58867057D01*
X67228571Y-58867057D02*
X67038095Y-58867057D01*
X67038095Y-58867057D02*
X66961904Y-58905152D01*
X66961904Y-58905152D02*
X66923809Y-58943247D01*
X66923809Y-58943247D02*
X66885714Y-59019438D01*
X66885714Y-59019438D02*
X66885714Y-59209914D01*
X66885714Y-59209914D02*
X66923809Y-59286104D01*
X66923809Y-59286104D02*
X66961904Y-59324200D01*
X66961904Y-59324200D02*
X67038095Y-59362295D01*
X67038095Y-59362295D02*
X67228571Y-59362295D01*
X67228571Y-59362295D02*
X67304761Y-59324200D01*
X67304761Y-59324200D02*
X67342857Y-59286104D01*
X66657142Y-58562295D02*
X66390475Y-59362295D01*
X66390475Y-59362295D02*
X66123809Y-58562295D01*
X65247618Y-59362295D02*
X65247618Y-58562295D01*
X64866666Y-59362295D02*
X64866666Y-58562295D01*
X64866666Y-58562295D02*
X64409523Y-59362295D01*
X64409523Y-59362295D02*
X64409523Y-58562295D01*
X62847619Y-58638485D02*
X62809523Y-58600390D01*
X62809523Y-58600390D02*
X62733333Y-58562295D01*
X62733333Y-58562295D02*
X62542857Y-58562295D01*
X62542857Y-58562295D02*
X62466666Y-58600390D01*
X62466666Y-58600390D02*
X62428571Y-58638485D01*
X62428571Y-58638485D02*
X62390476Y-58714676D01*
X62390476Y-58714676D02*
X62390476Y-58790866D01*
X62390476Y-58790866D02*
X62428571Y-58905152D01*
X62428571Y-58905152D02*
X62885714Y-59362295D01*
X62885714Y-59362295D02*
X62390476Y-59362295D01*
X61019047Y-58600390D02*
X61095237Y-58562295D01*
X61095237Y-58562295D02*
X61209523Y-58562295D01*
X61209523Y-58562295D02*
X61323809Y-58600390D01*
X61323809Y-58600390D02*
X61399999Y-58676580D01*
X61399999Y-58676580D02*
X61438094Y-58752771D01*
X61438094Y-58752771D02*
X61476190Y-58905152D01*
X61476190Y-58905152D02*
X61476190Y-59019438D01*
X61476190Y-59019438D02*
X61438094Y-59171819D01*
X61438094Y-59171819D02*
X61399999Y-59248009D01*
X61399999Y-59248009D02*
X61323809Y-59324200D01*
X61323809Y-59324200D02*
X61209523Y-59362295D01*
X61209523Y-59362295D02*
X61133332Y-59362295D01*
X61133332Y-59362295D02*
X61019047Y-59324200D01*
X61019047Y-59324200D02*
X60980951Y-59286104D01*
X60980951Y-59286104D02*
X60980951Y-59019438D01*
X60980951Y-59019438D02*
X61133332Y-59019438D01*
X60638094Y-59362295D02*
X60638094Y-58562295D01*
X60638094Y-58562295D02*
X60180951Y-59362295D01*
X60180951Y-59362295D02*
X60180951Y-58562295D01*
X59799999Y-59362295D02*
X59799999Y-58562295D01*
X59799999Y-58562295D02*
X59609523Y-58562295D01*
X59609523Y-58562295D02*
X59495237Y-58600390D01*
X59495237Y-58600390D02*
X59419047Y-58676580D01*
X59419047Y-58676580D02*
X59380952Y-58752771D01*
X59380952Y-58752771D02*
X59342856Y-58905152D01*
X59342856Y-58905152D02*
X59342856Y-59019438D01*
X59342856Y-59019438D02*
X59380952Y-59171819D01*
X59380952Y-59171819D02*
X59419047Y-59248009D01*
X59419047Y-59248009D02*
X59495237Y-59324200D01*
X59495237Y-59324200D02*
X59609523Y-59362295D01*
X59609523Y-59362295D02*
X59799999Y-59362295D01*
X58238094Y-58562295D02*
X58161904Y-58562295D01*
X58161904Y-58562295D02*
X58085713Y-58600390D01*
X58085713Y-58600390D02*
X58047618Y-58638485D01*
X58047618Y-58638485D02*
X58009523Y-58714676D01*
X58009523Y-58714676D02*
X57971428Y-58867057D01*
X57971428Y-58867057D02*
X57971428Y-59057533D01*
X57971428Y-59057533D02*
X58009523Y-59209914D01*
X58009523Y-59209914D02*
X58047618Y-59286104D01*
X58047618Y-59286104D02*
X58085713Y-59324200D01*
X58085713Y-59324200D02*
X58161904Y-59362295D01*
X58161904Y-59362295D02*
X58238094Y-59362295D01*
X58238094Y-59362295D02*
X58314285Y-59324200D01*
X58314285Y-59324200D02*
X58352380Y-59286104D01*
X58352380Y-59286104D02*
X58390475Y-59209914D01*
X58390475Y-59209914D02*
X58428571Y-59057533D01*
X58428571Y-59057533D02*
X58428571Y-58867057D01*
X58428571Y-58867057D02*
X58390475Y-58714676D01*
X58390475Y-58714676D02*
X58352380Y-58638485D01*
X58352380Y-58638485D02*
X58314285Y-58600390D01*
X58314285Y-58600390D02*
X58238094Y-58562295D01*
X57742856Y-58562295D02*
X57476189Y-59362295D01*
X57476189Y-59362295D02*
X57209523Y-58562295D01*
X66695238Y-59850250D02*
X66200000Y-59850250D01*
X66200000Y-59850250D02*
X66466666Y-60155012D01*
X66466666Y-60155012D02*
X66352381Y-60155012D01*
X66352381Y-60155012D02*
X66276190Y-60193107D01*
X66276190Y-60193107D02*
X66238095Y-60231202D01*
X66238095Y-60231202D02*
X66200000Y-60307393D01*
X66200000Y-60307393D02*
X66200000Y-60497869D01*
X66200000Y-60497869D02*
X66238095Y-60574059D01*
X66238095Y-60574059D02*
X66276190Y-60612155D01*
X66276190Y-60612155D02*
X66352381Y-60650250D01*
X66352381Y-60650250D02*
X66580952Y-60650250D01*
X66580952Y-60650250D02*
X66657143Y-60612155D01*
X66657143Y-60612155D02*
X66695238Y-60574059D01*
X65247618Y-60231202D02*
X64980952Y-60231202D01*
X64866666Y-60650250D02*
X65247618Y-60650250D01*
X65247618Y-60650250D02*
X65247618Y-59850250D01*
X65247618Y-59850250D02*
X64866666Y-59850250D01*
X64523808Y-60650250D02*
X64523808Y-59850250D01*
X64523808Y-59850250D02*
X64066665Y-60650250D01*
X64066665Y-60650250D02*
X64066665Y-59850250D01*
X63723809Y-60421678D02*
X63342856Y-60421678D01*
X63799999Y-60650250D02*
X63533332Y-59850250D01*
X63533332Y-59850250D02*
X63266666Y-60650250D01*
X62733333Y-60231202D02*
X62619047Y-60269297D01*
X62619047Y-60269297D02*
X62580952Y-60307393D01*
X62580952Y-60307393D02*
X62542856Y-60383583D01*
X62542856Y-60383583D02*
X62542856Y-60497869D01*
X62542856Y-60497869D02*
X62580952Y-60574059D01*
X62580952Y-60574059D02*
X62619047Y-60612155D01*
X62619047Y-60612155D02*
X62695237Y-60650250D01*
X62695237Y-60650250D02*
X62999999Y-60650250D01*
X62999999Y-60650250D02*
X62999999Y-59850250D01*
X62999999Y-59850250D02*
X62733333Y-59850250D01*
X62733333Y-59850250D02*
X62657142Y-59888345D01*
X62657142Y-59888345D02*
X62619047Y-59926440D01*
X62619047Y-59926440D02*
X62580952Y-60002631D01*
X62580952Y-60002631D02*
X62580952Y-60078821D01*
X62580952Y-60078821D02*
X62619047Y-60155012D01*
X62619047Y-60155012D02*
X62657142Y-60193107D01*
X62657142Y-60193107D02*
X62733333Y-60231202D01*
X62733333Y-60231202D02*
X62999999Y-60231202D01*
X61819047Y-60650250D02*
X62199999Y-60650250D01*
X62199999Y-60650250D02*
X62199999Y-59850250D01*
X61552380Y-60231202D02*
X61285714Y-60231202D01*
X61171428Y-60650250D02*
X61552380Y-60650250D01*
X61552380Y-60650250D02*
X61552380Y-59850250D01*
X61552380Y-59850250D02*
X61171428Y-59850250D01*
X60219046Y-60650250D02*
X60219046Y-59850250D01*
X59838094Y-60650250D02*
X59838094Y-59850250D01*
X59838094Y-59850250D02*
X59380951Y-60650250D01*
X59380951Y-60650250D02*
X59380951Y-59850250D01*
X54928571Y-70908485D02*
X54890475Y-70870390D01*
X54890475Y-70870390D02*
X54814285Y-70832295D01*
X54814285Y-70832295D02*
X54623809Y-70832295D01*
X54623809Y-70832295D02*
X54547618Y-70870390D01*
X54547618Y-70870390D02*
X54509523Y-70908485D01*
X54509523Y-70908485D02*
X54471428Y-70984676D01*
X54471428Y-70984676D02*
X54471428Y-71060866D01*
X54471428Y-71060866D02*
X54509523Y-71175152D01*
X54509523Y-71175152D02*
X54966666Y-71632295D01*
X54966666Y-71632295D02*
X54471428Y-71632295D01*
%LPC*%
D11*
X92000000Y-74730000D03*
D12*
X92000000Y-77270000D03*
D11*
X53000000Y-68730000D03*
D12*
X53000000Y-71270000D03*
D13*
X53000000Y-81000000D03*
X93000000Y-53000000D03*
D14*
X82460000Y-53920000D03*
D15*
X82460000Y-56460000D03*
X82460000Y-64080000D03*
X87540000Y-64080000D03*
X87540000Y-56460000D03*
X87540000Y-53920000D03*
D11*
X92000000Y-65730000D03*
D12*
X92000000Y-68270000D03*
D11*
X53000000Y-56460000D03*
D12*
X53000000Y-59000000D03*
X53000000Y-61540000D03*
%LPD*%
M02*
