G04 #@! TF.GenerationSoftware,KiCad,Pcbnew,9.0.2+dfsg-1*
G04 #@! TF.CreationDate,2026-10-08T19:46:57+00:00*
G04 #@! TF.ProjectId,Ardor_Mixer_THT,4172646f-725f-44d6-9978-65725f544854,rev?*
G04 #@! TF.SameCoordinates,Original*
G04 #@! TF.FileFunction,Legend,Bot*
G04 #@! TF.FilePolarity,Positive*
%FSLAX46Y46*%
G04 Gerber Fmt 4.6, Leading zero omitted, Abs format (unit mm)*
G04 Created by KiCad (PCBNEW 9.0.2+dfsg-1) date 2026-10-08 19:46:57*
%MOMM*%
%LPD*%
G01*
G04 APERTURE LIST*
G04 Aperture macros list*
%AMRoundRect*
0 Rectangle with rounded corners*
0 $1 Rounding radius*
0 $2 $3 $4 $5 $6 $7 $8 $9 X,Y pos of 4 corners*
0 Add a 4 corners polygon primitive as box body*
4,1,4,$2,$3,$4,$5,$6,$7,$8,$9,$2,$3,0*
0 Add four circle primitives for the rounded corners*
1,1,$1+$1,$2,$3*
1,1,$1+$1,$4,$5*
1,1,$1+$1,$6,$7*
1,1,$1+$1,$8,$9*
0 Add four rect primitives between the rounded corners*
20,1,$1+$1,$2,$3,$4,$5,0*
20,1,$1+$1,$4,$5,$6,$7,0*
20,1,$1+$1,$6,$7,$8,$9,0*
20,1,$1+$1,$8,$9,$2,$3,0*%
G04 Aperture macros list end*
%ADD10C,0.150000*%
%ADD11C,1.600000*%
%ADD12C,2.200000*%
%ADD13RoundRect,0.250000X-0.550000X-0.550000X0.550000X-0.550000X0.550000X0.550000X-0.550000X0.550000X0*%
%ADD14R,1.700000X1.700000*%
%ADD15C,1.700000*%
%ADD16C,2.000000*%
G04 APERTURE END LIST*
D10*
X102247617Y-87862295D02*
X102247617Y-87062295D01*
X101866665Y-87862295D02*
X101866665Y-87062295D01*
X101866665Y-87062295D02*
X101409522Y-87862295D01*
X101409522Y-87862295D02*
X101409522Y-87062295D01*
X101028570Y-87443247D02*
X100419047Y-87443247D01*
X100419047Y-87671819D02*
X101028570Y-87671819D01*
X100038094Y-87862295D02*
X100038094Y-87062295D01*
X99657142Y-87862295D02*
X99657142Y-87062295D01*
X99657142Y-87062295D02*
X99199999Y-87862295D01*
X99199999Y-87862295D02*
X99199999Y-87062295D01*
X98933333Y-87062295D02*
X98476190Y-87062295D01*
X98704762Y-87862295D02*
X98704762Y-87062295D01*
X98057142Y-87062295D02*
X97904761Y-87062295D01*
X97904761Y-87062295D02*
X97828571Y-87100390D01*
X97828571Y-87100390D02*
X97752380Y-87176580D01*
X97752380Y-87176580D02*
X97714285Y-87328961D01*
X97714285Y-87328961D02*
X97714285Y-87595628D01*
X97714285Y-87595628D02*
X97752380Y-87748009D01*
X97752380Y-87748009D02*
X97828571Y-87824200D01*
X97828571Y-87824200D02*
X97904761Y-87862295D01*
X97904761Y-87862295D02*
X98057142Y-87862295D01*
X98057142Y-87862295D02*
X98133333Y-87824200D01*
X98133333Y-87824200D02*
X98209523Y-87748009D01*
X98209523Y-87748009D02*
X98247619Y-87595628D01*
X98247619Y-87595628D02*
X98247619Y-87328961D01*
X98247619Y-87328961D02*
X98209523Y-87176580D01*
X98209523Y-87176580D02*
X98133333Y-87100390D01*
X98133333Y-87100390D02*
X98057142Y-87062295D01*
X138566666Y-85832295D02*
X138071428Y-85832295D01*
X138071428Y-85832295D02*
X138338094Y-86137057D01*
X138338094Y-86137057D02*
X138223809Y-86137057D01*
X138223809Y-86137057D02*
X138147618Y-86175152D01*
X138147618Y-86175152D02*
X138109523Y-86213247D01*
X138109523Y-86213247D02*
X138071428Y-86289438D01*
X138071428Y-86289438D02*
X138071428Y-86479914D01*
X138071428Y-86479914D02*
X138109523Y-86556104D01*
X138109523Y-86556104D02*
X138147618Y-86594200D01*
X138147618Y-86594200D02*
X138223809Y-86632295D01*
X138223809Y-86632295D02*
X138452380Y-86632295D01*
X138452380Y-86632295D02*
X138528571Y-86594200D01*
X138528571Y-86594200D02*
X138566666Y-86556104D01*
X133552380Y-83274340D02*
X133552380Y-83845768D01*
X133552380Y-83845768D02*
X133590475Y-83960054D01*
X133590475Y-83960054D02*
X133666666Y-84036245D01*
X133666666Y-84036245D02*
X133780951Y-84074340D01*
X133780951Y-84074340D02*
X133857142Y-84074340D01*
X132752380Y-84074340D02*
X133209523Y-84074340D01*
X132980951Y-84074340D02*
X132980951Y-83274340D01*
X132980951Y-83274340D02*
X133057142Y-83388625D01*
X133057142Y-83388625D02*
X133133332Y-83464816D01*
X133133332Y-83464816D02*
X133209523Y-83502911D01*
X132257141Y-83274340D02*
X132180951Y-83274340D01*
X132180951Y-83274340D02*
X132104760Y-83312435D01*
X132104760Y-83312435D02*
X132066665Y-83350530D01*
X132066665Y-83350530D02*
X132028570Y-83426721D01*
X132028570Y-83426721D02*
X131990475Y-83579102D01*
X131990475Y-83579102D02*
X131990475Y-83769578D01*
X131990475Y-83769578D02*
X132028570Y-83921959D01*
X132028570Y-83921959D02*
X132066665Y-83998149D01*
X132066665Y-83998149D02*
X132104760Y-84036245D01*
X132104760Y-84036245D02*
X132180951Y-84074340D01*
X132180951Y-84074340D02*
X132257141Y-84074340D01*
X132257141Y-84074340D02*
X132333332Y-84036245D01*
X132333332Y-84036245D02*
X132371427Y-83998149D01*
X132371427Y-83998149D02*
X132409522Y-83921959D01*
X132409522Y-83921959D02*
X132447618Y-83769578D01*
X132447618Y-83769578D02*
X132447618Y-83579102D01*
X132447618Y-83579102D02*
X132409522Y-83426721D01*
X132409522Y-83426721D02*
X132371427Y-83350530D01*
X132371427Y-83350530D02*
X132333332Y-83312435D01*
X132333332Y-83312435D02*
X132257141Y-83274340D01*
X131723808Y-83274340D02*
X131228570Y-83274340D01*
X131228570Y-83274340D02*
X131495236Y-83579102D01*
X131495236Y-83579102D02*
X131380951Y-83579102D01*
X131380951Y-83579102D02*
X131304760Y-83617197D01*
X131304760Y-83617197D02*
X131266665Y-83655292D01*
X131266665Y-83655292D02*
X131228570Y-83731483D01*
X131228570Y-83731483D02*
X131228570Y-83921959D01*
X131228570Y-83921959D02*
X131266665Y-83998149D01*
X131266665Y-83998149D02*
X131304760Y-84036245D01*
X131304760Y-84036245D02*
X131380951Y-84074340D01*
X131380951Y-84074340D02*
X131609522Y-84074340D01*
X131609522Y-84074340D02*
X131685713Y-84036245D01*
X131685713Y-84036245D02*
X131723808Y-83998149D01*
X130314284Y-83845768D02*
X129933331Y-83845768D01*
X130390474Y-84074340D02*
X130123807Y-83274340D01*
X130123807Y-83274340D02*
X129857141Y-84074340D01*
X129590474Y-83274340D02*
X129590474Y-83921959D01*
X129590474Y-83921959D02*
X129552379Y-83998149D01*
X129552379Y-83998149D02*
X129514284Y-84036245D01*
X129514284Y-84036245D02*
X129438093Y-84074340D01*
X129438093Y-84074340D02*
X129285712Y-84074340D01*
X129285712Y-84074340D02*
X129209522Y-84036245D01*
X129209522Y-84036245D02*
X129171427Y-83998149D01*
X129171427Y-83998149D02*
X129133331Y-83921959D01*
X129133331Y-83921959D02*
X129133331Y-83274340D01*
X128752379Y-84074340D02*
X128752379Y-83274340D01*
X128752379Y-83274340D02*
X128561903Y-83274340D01*
X128561903Y-83274340D02*
X128447617Y-83312435D01*
X128447617Y-83312435D02*
X128371427Y-83388625D01*
X128371427Y-83388625D02*
X128333332Y-83464816D01*
X128333332Y-83464816D02*
X128295236Y-83617197D01*
X128295236Y-83617197D02*
X128295236Y-83731483D01*
X128295236Y-83731483D02*
X128333332Y-83883864D01*
X128333332Y-83883864D02*
X128371427Y-83960054D01*
X128371427Y-83960054D02*
X128447617Y-84036245D01*
X128447617Y-84036245D02*
X128561903Y-84074340D01*
X128561903Y-84074340D02*
X128752379Y-84074340D01*
X127952379Y-84074340D02*
X127952379Y-83274340D01*
X127419046Y-83274340D02*
X127266665Y-83274340D01*
X127266665Y-83274340D02*
X127190475Y-83312435D01*
X127190475Y-83312435D02*
X127114284Y-83388625D01*
X127114284Y-83388625D02*
X127076189Y-83541006D01*
X127076189Y-83541006D02*
X127076189Y-83807673D01*
X127076189Y-83807673D02*
X127114284Y-83960054D01*
X127114284Y-83960054D02*
X127190475Y-84036245D01*
X127190475Y-84036245D02*
X127266665Y-84074340D01*
X127266665Y-84074340D02*
X127419046Y-84074340D01*
X127419046Y-84074340D02*
X127495237Y-84036245D01*
X127495237Y-84036245D02*
X127571427Y-83960054D01*
X127571427Y-83960054D02*
X127609523Y-83807673D01*
X127609523Y-83807673D02*
X127609523Y-83541006D01*
X127609523Y-83541006D02*
X127571427Y-83388625D01*
X127571427Y-83388625D02*
X127495237Y-83312435D01*
X127495237Y-83312435D02*
X127419046Y-83274340D01*
X125971427Y-83274340D02*
X125819046Y-83274340D01*
X125819046Y-83274340D02*
X125742856Y-83312435D01*
X125742856Y-83312435D02*
X125666665Y-83388625D01*
X125666665Y-83388625D02*
X125628570Y-83541006D01*
X125628570Y-83541006D02*
X125628570Y-83807673D01*
X125628570Y-83807673D02*
X125666665Y-83960054D01*
X125666665Y-83960054D02*
X125742856Y-84036245D01*
X125742856Y-84036245D02*
X125819046Y-84074340D01*
X125819046Y-84074340D02*
X125971427Y-84074340D01*
X125971427Y-84074340D02*
X126047618Y-84036245D01*
X126047618Y-84036245D02*
X126123808Y-83960054D01*
X126123808Y-83960054D02*
X126161904Y-83807673D01*
X126161904Y-83807673D02*
X126161904Y-83541006D01*
X126161904Y-83541006D02*
X126123808Y-83388625D01*
X126123808Y-83388625D02*
X126047618Y-83312435D01*
X126047618Y-83312435D02*
X125971427Y-83274340D01*
X125285713Y-83274340D02*
X125285713Y-83921959D01*
X125285713Y-83921959D02*
X125247618Y-83998149D01*
X125247618Y-83998149D02*
X125209523Y-84036245D01*
X125209523Y-84036245D02*
X125133332Y-84074340D01*
X125133332Y-84074340D02*
X124980951Y-84074340D01*
X124980951Y-84074340D02*
X124904761Y-84036245D01*
X124904761Y-84036245D02*
X124866666Y-83998149D01*
X124866666Y-83998149D02*
X124828570Y-83921959D01*
X124828570Y-83921959D02*
X124828570Y-83274340D01*
X124561904Y-83274340D02*
X124104761Y-83274340D01*
X124333333Y-84074340D02*
X124333333Y-83274340D01*
X135400000Y-85362295D02*
X135857143Y-85362295D01*
X135628571Y-85362295D02*
X135628571Y-84562295D01*
X135628571Y-84562295D02*
X135704762Y-84676580D01*
X135704762Y-84676580D02*
X135780952Y-84752771D01*
X135780952Y-84752771D02*
X135857143Y-84790866D01*
X134066666Y-85362295D02*
X134447618Y-85362295D01*
X134447618Y-85362295D02*
X134447618Y-84562295D01*
X133799999Y-84943247D02*
X133533333Y-84943247D01*
X133419047Y-85362295D02*
X133799999Y-85362295D01*
X133799999Y-85362295D02*
X133799999Y-84562295D01*
X133799999Y-84562295D02*
X133419047Y-84562295D01*
X132809523Y-84943247D02*
X133076189Y-84943247D01*
X133076189Y-85362295D02*
X133076189Y-84562295D01*
X133076189Y-84562295D02*
X132695237Y-84562295D01*
X132504761Y-84562295D02*
X132047618Y-84562295D01*
X132276190Y-85362295D02*
X132276190Y-84562295D01*
X131019046Y-84562295D02*
X130866665Y-84562295D01*
X130866665Y-84562295D02*
X130790475Y-84600390D01*
X130790475Y-84600390D02*
X130714284Y-84676580D01*
X130714284Y-84676580D02*
X130676189Y-84828961D01*
X130676189Y-84828961D02*
X130676189Y-85095628D01*
X130676189Y-85095628D02*
X130714284Y-85248009D01*
X130714284Y-85248009D02*
X130790475Y-85324200D01*
X130790475Y-85324200D02*
X130866665Y-85362295D01*
X130866665Y-85362295D02*
X131019046Y-85362295D01*
X131019046Y-85362295D02*
X131095237Y-85324200D01*
X131095237Y-85324200D02*
X131171427Y-85248009D01*
X131171427Y-85248009D02*
X131209523Y-85095628D01*
X131209523Y-85095628D02*
X131209523Y-84828961D01*
X131209523Y-84828961D02*
X131171427Y-84676580D01*
X131171427Y-84676580D02*
X131095237Y-84600390D01*
X131095237Y-84600390D02*
X131019046Y-84562295D01*
X130333332Y-84562295D02*
X130333332Y-85209914D01*
X130333332Y-85209914D02*
X130295237Y-85286104D01*
X130295237Y-85286104D02*
X130257142Y-85324200D01*
X130257142Y-85324200D02*
X130180951Y-85362295D01*
X130180951Y-85362295D02*
X130028570Y-85362295D01*
X130028570Y-85362295D02*
X129952380Y-85324200D01*
X129952380Y-85324200D02*
X129914285Y-85286104D01*
X129914285Y-85286104D02*
X129876189Y-85209914D01*
X129876189Y-85209914D02*
X129876189Y-84562295D01*
X129609523Y-84562295D02*
X129152380Y-84562295D01*
X129380952Y-85362295D02*
X129380952Y-84562295D01*
X127704761Y-84638485D02*
X127666665Y-84600390D01*
X127666665Y-84600390D02*
X127590475Y-84562295D01*
X127590475Y-84562295D02*
X127399999Y-84562295D01*
X127399999Y-84562295D02*
X127323808Y-84600390D01*
X127323808Y-84600390D02*
X127285713Y-84638485D01*
X127285713Y-84638485D02*
X127247618Y-84714676D01*
X127247618Y-84714676D02*
X127247618Y-84790866D01*
X127247618Y-84790866D02*
X127285713Y-84905152D01*
X127285713Y-84905152D02*
X127742856Y-85362295D01*
X127742856Y-85362295D02*
X127247618Y-85362295D01*
X125876189Y-84600390D02*
X125952379Y-84562295D01*
X125952379Y-84562295D02*
X126066665Y-84562295D01*
X126066665Y-84562295D02*
X126180951Y-84600390D01*
X126180951Y-84600390D02*
X126257141Y-84676580D01*
X126257141Y-84676580D02*
X126295236Y-84752771D01*
X126295236Y-84752771D02*
X126333332Y-84905152D01*
X126333332Y-84905152D02*
X126333332Y-85019438D01*
X126333332Y-85019438D02*
X126295236Y-85171819D01*
X126295236Y-85171819D02*
X126257141Y-85248009D01*
X126257141Y-85248009D02*
X126180951Y-85324200D01*
X126180951Y-85324200D02*
X126066665Y-85362295D01*
X126066665Y-85362295D02*
X125990474Y-85362295D01*
X125990474Y-85362295D02*
X125876189Y-85324200D01*
X125876189Y-85324200D02*
X125838093Y-85286104D01*
X125838093Y-85286104D02*
X125838093Y-85019438D01*
X125838093Y-85019438D02*
X125990474Y-85019438D01*
X125495236Y-85362295D02*
X125495236Y-84562295D01*
X125495236Y-84562295D02*
X125038093Y-85362295D01*
X125038093Y-85362295D02*
X125038093Y-84562295D01*
X124657141Y-85362295D02*
X124657141Y-84562295D01*
X124657141Y-84562295D02*
X124466665Y-84562295D01*
X124466665Y-84562295D02*
X124352379Y-84600390D01*
X124352379Y-84600390D02*
X124276189Y-84676580D01*
X124276189Y-84676580D02*
X124238094Y-84752771D01*
X124238094Y-84752771D02*
X124199998Y-84905152D01*
X124199998Y-84905152D02*
X124199998Y-85019438D01*
X124199998Y-85019438D02*
X124238094Y-85171819D01*
X124238094Y-85171819D02*
X124276189Y-85248009D01*
X124276189Y-85248009D02*
X124352379Y-85324200D01*
X124352379Y-85324200D02*
X124466665Y-85362295D01*
X124466665Y-85362295D02*
X124657141Y-85362295D01*
X123095236Y-84562295D02*
X123019046Y-84562295D01*
X123019046Y-84562295D02*
X122942855Y-84600390D01*
X122942855Y-84600390D02*
X122904760Y-84638485D01*
X122904760Y-84638485D02*
X122866665Y-84714676D01*
X122866665Y-84714676D02*
X122828570Y-84867057D01*
X122828570Y-84867057D02*
X122828570Y-85057533D01*
X122828570Y-85057533D02*
X122866665Y-85209914D01*
X122866665Y-85209914D02*
X122904760Y-85286104D01*
X122904760Y-85286104D02*
X122942855Y-85324200D01*
X122942855Y-85324200D02*
X123019046Y-85362295D01*
X123019046Y-85362295D02*
X123095236Y-85362295D01*
X123095236Y-85362295D02*
X123171427Y-85324200D01*
X123171427Y-85324200D02*
X123209522Y-85286104D01*
X123209522Y-85286104D02*
X123247617Y-85209914D01*
X123247617Y-85209914D02*
X123285713Y-85057533D01*
X123285713Y-85057533D02*
X123285713Y-84867057D01*
X123285713Y-84867057D02*
X123247617Y-84714676D01*
X123247617Y-84714676D02*
X123209522Y-84638485D01*
X123209522Y-84638485D02*
X123171427Y-84600390D01*
X123171427Y-84600390D02*
X123095236Y-84562295D01*
X122599998Y-84562295D02*
X122333331Y-85362295D01*
X122333331Y-85362295D02*
X122066665Y-84562295D01*
X137190476Y-85850250D02*
X136695238Y-85850250D01*
X136695238Y-85850250D02*
X136961904Y-86155012D01*
X136961904Y-86155012D02*
X136847619Y-86155012D01*
X136847619Y-86155012D02*
X136771428Y-86193107D01*
X136771428Y-86193107D02*
X136733333Y-86231202D01*
X136733333Y-86231202D02*
X136695238Y-86307393D01*
X136695238Y-86307393D02*
X136695238Y-86497869D01*
X136695238Y-86497869D02*
X136733333Y-86574059D01*
X136733333Y-86574059D02*
X136771428Y-86612155D01*
X136771428Y-86612155D02*
X136847619Y-86650250D01*
X136847619Y-86650250D02*
X137076190Y-86650250D01*
X137076190Y-86650250D02*
X137152381Y-86612155D01*
X137152381Y-86612155D02*
X137190476Y-86574059D01*
X135285713Y-86650250D02*
X135552380Y-86269297D01*
X135742856Y-86650250D02*
X135742856Y-85850250D01*
X135742856Y-85850250D02*
X135438094Y-85850250D01*
X135438094Y-85850250D02*
X135361904Y-85888345D01*
X135361904Y-85888345D02*
X135323809Y-85926440D01*
X135323809Y-85926440D02*
X135285713Y-86002631D01*
X135285713Y-86002631D02*
X135285713Y-86116916D01*
X135285713Y-86116916D02*
X135323809Y-86193107D01*
X135323809Y-86193107D02*
X135361904Y-86231202D01*
X135361904Y-86231202D02*
X135438094Y-86269297D01*
X135438094Y-86269297D02*
X135742856Y-86269297D01*
X134942856Y-86650250D02*
X134942856Y-85850250D01*
X134142857Y-85888345D02*
X134219047Y-85850250D01*
X134219047Y-85850250D02*
X134333333Y-85850250D01*
X134333333Y-85850250D02*
X134447619Y-85888345D01*
X134447619Y-85888345D02*
X134523809Y-85964535D01*
X134523809Y-85964535D02*
X134561904Y-86040726D01*
X134561904Y-86040726D02*
X134600000Y-86193107D01*
X134600000Y-86193107D02*
X134600000Y-86307393D01*
X134600000Y-86307393D02*
X134561904Y-86459774D01*
X134561904Y-86459774D02*
X134523809Y-86535964D01*
X134523809Y-86535964D02*
X134447619Y-86612155D01*
X134447619Y-86612155D02*
X134333333Y-86650250D01*
X134333333Y-86650250D02*
X134257142Y-86650250D01*
X134257142Y-86650250D02*
X134142857Y-86612155D01*
X134142857Y-86612155D02*
X134104761Y-86574059D01*
X134104761Y-86574059D02*
X134104761Y-86307393D01*
X134104761Y-86307393D02*
X134257142Y-86307393D01*
X133761904Y-86650250D02*
X133761904Y-85850250D01*
X133761904Y-86231202D02*
X133304761Y-86231202D01*
X133304761Y-86650250D02*
X133304761Y-85850250D01*
X133038095Y-85850250D02*
X132580952Y-85850250D01*
X132809524Y-86650250D02*
X132809524Y-85850250D01*
X131552380Y-85850250D02*
X131399999Y-85850250D01*
X131399999Y-85850250D02*
X131323809Y-85888345D01*
X131323809Y-85888345D02*
X131247618Y-85964535D01*
X131247618Y-85964535D02*
X131209523Y-86116916D01*
X131209523Y-86116916D02*
X131209523Y-86383583D01*
X131209523Y-86383583D02*
X131247618Y-86535964D01*
X131247618Y-86535964D02*
X131323809Y-86612155D01*
X131323809Y-86612155D02*
X131399999Y-86650250D01*
X131399999Y-86650250D02*
X131552380Y-86650250D01*
X131552380Y-86650250D02*
X131628571Y-86612155D01*
X131628571Y-86612155D02*
X131704761Y-86535964D01*
X131704761Y-86535964D02*
X131742857Y-86383583D01*
X131742857Y-86383583D02*
X131742857Y-86116916D01*
X131742857Y-86116916D02*
X131704761Y-85964535D01*
X131704761Y-85964535D02*
X131628571Y-85888345D01*
X131628571Y-85888345D02*
X131552380Y-85850250D01*
X130866666Y-85850250D02*
X130866666Y-86497869D01*
X130866666Y-86497869D02*
X130828571Y-86574059D01*
X130828571Y-86574059D02*
X130790476Y-86612155D01*
X130790476Y-86612155D02*
X130714285Y-86650250D01*
X130714285Y-86650250D02*
X130561904Y-86650250D01*
X130561904Y-86650250D02*
X130485714Y-86612155D01*
X130485714Y-86612155D02*
X130447619Y-86574059D01*
X130447619Y-86574059D02*
X130409523Y-86497869D01*
X130409523Y-86497869D02*
X130409523Y-85850250D01*
X130142857Y-85850250D02*
X129685714Y-85850250D01*
X129914286Y-86650250D02*
X129914286Y-85850250D01*
X127857142Y-86116916D02*
X127857142Y-86650250D01*
X128047618Y-85812155D02*
X128238095Y-86383583D01*
X128238095Y-86383583D02*
X127742856Y-86383583D01*
X126828570Y-86650250D02*
X126828570Y-85850250D01*
X126828570Y-85850250D02*
X126561904Y-86421678D01*
X126561904Y-86421678D02*
X126295237Y-85850250D01*
X126295237Y-85850250D02*
X126295237Y-86650250D01*
X125761903Y-85850250D02*
X125609522Y-85850250D01*
X125609522Y-85850250D02*
X125533332Y-85888345D01*
X125533332Y-85888345D02*
X125457141Y-85964535D01*
X125457141Y-85964535D02*
X125419046Y-86116916D01*
X125419046Y-86116916D02*
X125419046Y-86383583D01*
X125419046Y-86383583D02*
X125457141Y-86535964D01*
X125457141Y-86535964D02*
X125533332Y-86612155D01*
X125533332Y-86612155D02*
X125609522Y-86650250D01*
X125609522Y-86650250D02*
X125761903Y-86650250D01*
X125761903Y-86650250D02*
X125838094Y-86612155D01*
X125838094Y-86612155D02*
X125914284Y-86535964D01*
X125914284Y-86535964D02*
X125952380Y-86383583D01*
X125952380Y-86383583D02*
X125952380Y-86116916D01*
X125952380Y-86116916D02*
X125914284Y-85964535D01*
X125914284Y-85964535D02*
X125838094Y-85888345D01*
X125838094Y-85888345D02*
X125761903Y-85850250D01*
X125076189Y-86650250D02*
X125076189Y-85850250D01*
X125076189Y-85850250D02*
X124619046Y-86650250D01*
X124619046Y-86650250D02*
X124619046Y-85850250D01*
X124085713Y-85850250D02*
X123933332Y-85850250D01*
X123933332Y-85850250D02*
X123857142Y-85888345D01*
X123857142Y-85888345D02*
X123780951Y-85964535D01*
X123780951Y-85964535D02*
X123742856Y-86116916D01*
X123742856Y-86116916D02*
X123742856Y-86383583D01*
X123742856Y-86383583D02*
X123780951Y-86535964D01*
X123780951Y-86535964D02*
X123857142Y-86612155D01*
X123857142Y-86612155D02*
X123933332Y-86650250D01*
X123933332Y-86650250D02*
X124085713Y-86650250D01*
X124085713Y-86650250D02*
X124161904Y-86612155D01*
X124161904Y-86612155D02*
X124238094Y-86535964D01*
X124238094Y-86535964D02*
X124276190Y-86383583D01*
X124276190Y-86383583D02*
X124276190Y-86116916D01*
X124276190Y-86116916D02*
X124238094Y-85964535D01*
X124238094Y-85964535D02*
X124161904Y-85888345D01*
X124161904Y-85888345D02*
X124085713Y-85850250D01*
X122638094Y-85850250D02*
X122485713Y-85850250D01*
X122485713Y-85850250D02*
X122409523Y-85888345D01*
X122409523Y-85888345D02*
X122333332Y-85964535D01*
X122333332Y-85964535D02*
X122295237Y-86116916D01*
X122295237Y-86116916D02*
X122295237Y-86383583D01*
X122295237Y-86383583D02*
X122333332Y-86535964D01*
X122333332Y-86535964D02*
X122409523Y-86612155D01*
X122409523Y-86612155D02*
X122485713Y-86650250D01*
X122485713Y-86650250D02*
X122638094Y-86650250D01*
X122638094Y-86650250D02*
X122714285Y-86612155D01*
X122714285Y-86612155D02*
X122790475Y-86535964D01*
X122790475Y-86535964D02*
X122828571Y-86383583D01*
X122828571Y-86383583D02*
X122828571Y-86116916D01*
X122828571Y-86116916D02*
X122790475Y-85964535D01*
X122790475Y-85964535D02*
X122714285Y-85888345D01*
X122714285Y-85888345D02*
X122638094Y-85850250D01*
X121952380Y-85850250D02*
X121952380Y-86497869D01*
X121952380Y-86497869D02*
X121914285Y-86574059D01*
X121914285Y-86574059D02*
X121876190Y-86612155D01*
X121876190Y-86612155D02*
X121799999Y-86650250D01*
X121799999Y-86650250D02*
X121647618Y-86650250D01*
X121647618Y-86650250D02*
X121571428Y-86612155D01*
X121571428Y-86612155D02*
X121533333Y-86574059D01*
X121533333Y-86574059D02*
X121495237Y-86497869D01*
X121495237Y-86497869D02*
X121495237Y-85850250D01*
X121228571Y-85850250D02*
X120771428Y-85850250D01*
X121000000Y-86650250D02*
X121000000Y-85850250D01*
X138147618Y-88638961D02*
X138147618Y-89172295D01*
X138338094Y-88334200D02*
X138528571Y-88905628D01*
X138528571Y-88905628D02*
X138033332Y-88905628D01*
X100785714Y-56418318D02*
X100785714Y-56989746D01*
X100785714Y-56989746D02*
X100823809Y-57104032D01*
X100823809Y-57104032D02*
X100900000Y-57180223D01*
X100900000Y-57180223D02*
X101014285Y-57218318D01*
X101014285Y-57218318D02*
X101090476Y-57218318D01*
X99985714Y-57218318D02*
X100442857Y-57218318D01*
X100214285Y-57218318D02*
X100214285Y-56418318D01*
X100214285Y-56418318D02*
X100290476Y-56532603D01*
X100290476Y-56532603D02*
X100366666Y-56608794D01*
X100366666Y-56608794D02*
X100442857Y-56646889D01*
X99490475Y-56418318D02*
X99414285Y-56418318D01*
X99414285Y-56418318D02*
X99338094Y-56456413D01*
X99338094Y-56456413D02*
X99299999Y-56494508D01*
X99299999Y-56494508D02*
X99261904Y-56570699D01*
X99261904Y-56570699D02*
X99223809Y-56723080D01*
X99223809Y-56723080D02*
X99223809Y-56913556D01*
X99223809Y-56913556D02*
X99261904Y-57065937D01*
X99261904Y-57065937D02*
X99299999Y-57142127D01*
X99299999Y-57142127D02*
X99338094Y-57180223D01*
X99338094Y-57180223D02*
X99414285Y-57218318D01*
X99414285Y-57218318D02*
X99490475Y-57218318D01*
X99490475Y-57218318D02*
X99566666Y-57180223D01*
X99566666Y-57180223D02*
X99604761Y-57142127D01*
X99604761Y-57142127D02*
X99642856Y-57065937D01*
X99642856Y-57065937D02*
X99680952Y-56913556D01*
X99680952Y-56913556D02*
X99680952Y-56723080D01*
X99680952Y-56723080D02*
X99642856Y-56570699D01*
X99642856Y-56570699D02*
X99604761Y-56494508D01*
X99604761Y-56494508D02*
X99566666Y-56456413D01*
X99566666Y-56456413D02*
X99490475Y-56418318D01*
X98461904Y-57218318D02*
X98919047Y-57218318D01*
X98690475Y-57218318D02*
X98690475Y-56418318D01*
X98690475Y-56418318D02*
X98766666Y-56532603D01*
X98766666Y-56532603D02*
X98842856Y-56608794D01*
X98842856Y-56608794D02*
X98919047Y-56646889D01*
X97509522Y-57218318D02*
X97509522Y-56418318D01*
X97509522Y-56418318D02*
X97204760Y-56418318D01*
X97204760Y-56418318D02*
X97128570Y-56456413D01*
X97128570Y-56456413D02*
X97090475Y-56494508D01*
X97090475Y-56494508D02*
X97052379Y-56570699D01*
X97052379Y-56570699D02*
X97052379Y-56684984D01*
X97052379Y-56684984D02*
X97090475Y-56761175D01*
X97090475Y-56761175D02*
X97128570Y-56799270D01*
X97128570Y-56799270D02*
X97204760Y-56837365D01*
X97204760Y-56837365D02*
X97509522Y-56837365D01*
X96557141Y-56418318D02*
X96404760Y-56418318D01*
X96404760Y-56418318D02*
X96328570Y-56456413D01*
X96328570Y-56456413D02*
X96252379Y-56532603D01*
X96252379Y-56532603D02*
X96214284Y-56684984D01*
X96214284Y-56684984D02*
X96214284Y-56951651D01*
X96214284Y-56951651D02*
X96252379Y-57104032D01*
X96252379Y-57104032D02*
X96328570Y-57180223D01*
X96328570Y-57180223D02*
X96404760Y-57218318D01*
X96404760Y-57218318D02*
X96557141Y-57218318D01*
X96557141Y-57218318D02*
X96633332Y-57180223D01*
X96633332Y-57180223D02*
X96709522Y-57104032D01*
X96709522Y-57104032D02*
X96747618Y-56951651D01*
X96747618Y-56951651D02*
X96747618Y-56684984D01*
X96747618Y-56684984D02*
X96709522Y-56532603D01*
X96709522Y-56532603D02*
X96633332Y-56456413D01*
X96633332Y-56456413D02*
X96557141Y-56418318D01*
X95947618Y-56418318D02*
X95757142Y-57218318D01*
X95757142Y-57218318D02*
X95604761Y-56646889D01*
X95604761Y-56646889D02*
X95452380Y-57218318D01*
X95452380Y-57218318D02*
X95261904Y-56418318D01*
X94957141Y-56799270D02*
X94690475Y-56799270D01*
X94576189Y-57218318D02*
X94957141Y-57218318D01*
X94957141Y-57218318D02*
X94957141Y-56418318D01*
X94957141Y-56418318D02*
X94576189Y-56418318D01*
X93776188Y-57218318D02*
X94042855Y-56837365D01*
X94233331Y-57218318D02*
X94233331Y-56418318D01*
X94233331Y-56418318D02*
X93928569Y-56418318D01*
X93928569Y-56418318D02*
X93852379Y-56456413D01*
X93852379Y-56456413D02*
X93814284Y-56494508D01*
X93814284Y-56494508D02*
X93776188Y-56570699D01*
X93776188Y-56570699D02*
X93776188Y-56684984D01*
X93776188Y-56684984D02*
X93814284Y-56761175D01*
X93814284Y-56761175D02*
X93852379Y-56799270D01*
X93852379Y-56799270D02*
X93928569Y-56837365D01*
X93928569Y-56837365D02*
X94233331Y-56837365D01*
X92823807Y-57218318D02*
X92823807Y-56418318D01*
X92442855Y-57218318D02*
X92442855Y-56418318D01*
X92442855Y-56418318D02*
X91985712Y-57218318D01*
X91985712Y-57218318D02*
X91985712Y-56418318D01*
X101757143Y-58506273D02*
X102214286Y-58506273D01*
X101985714Y-58506273D02*
X101985714Y-57706273D01*
X101985714Y-57706273D02*
X102061905Y-57820558D01*
X102061905Y-57820558D02*
X102138095Y-57896749D01*
X102138095Y-57896749D02*
X102214286Y-57934844D01*
X100423809Y-57706273D02*
X100804761Y-57706273D01*
X100804761Y-57706273D02*
X100842857Y-58087225D01*
X100842857Y-58087225D02*
X100804761Y-58049130D01*
X100804761Y-58049130D02*
X100728571Y-58011035D01*
X100728571Y-58011035D02*
X100538095Y-58011035D01*
X100538095Y-58011035D02*
X100461904Y-58049130D01*
X100461904Y-58049130D02*
X100423809Y-58087225D01*
X100423809Y-58087225D02*
X100385714Y-58163416D01*
X100385714Y-58163416D02*
X100385714Y-58353892D01*
X100385714Y-58353892D02*
X100423809Y-58430082D01*
X100423809Y-58430082D02*
X100461904Y-58468178D01*
X100461904Y-58468178D02*
X100538095Y-58506273D01*
X100538095Y-58506273D02*
X100728571Y-58506273D01*
X100728571Y-58506273D02*
X100804761Y-58468178D01*
X100804761Y-58468178D02*
X100842857Y-58430082D01*
X100157142Y-57706273D02*
X99890475Y-58506273D01*
X99890475Y-58506273D02*
X99623809Y-57706273D01*
X98747618Y-58506273D02*
X98747618Y-57706273D01*
X98366666Y-58506273D02*
X98366666Y-57706273D01*
X98366666Y-57706273D02*
X97909523Y-58506273D01*
X97909523Y-58506273D02*
X97909523Y-57706273D01*
X96347619Y-57782463D02*
X96309523Y-57744368D01*
X96309523Y-57744368D02*
X96233333Y-57706273D01*
X96233333Y-57706273D02*
X96042857Y-57706273D01*
X96042857Y-57706273D02*
X95966666Y-57744368D01*
X95966666Y-57744368D02*
X95928571Y-57782463D01*
X95928571Y-57782463D02*
X95890476Y-57858654D01*
X95890476Y-57858654D02*
X95890476Y-57934844D01*
X95890476Y-57934844D02*
X95928571Y-58049130D01*
X95928571Y-58049130D02*
X96385714Y-58506273D01*
X96385714Y-58506273D02*
X95890476Y-58506273D01*
X94519047Y-57744368D02*
X94595237Y-57706273D01*
X94595237Y-57706273D02*
X94709523Y-57706273D01*
X94709523Y-57706273D02*
X94823809Y-57744368D01*
X94823809Y-57744368D02*
X94899999Y-57820558D01*
X94899999Y-57820558D02*
X94938094Y-57896749D01*
X94938094Y-57896749D02*
X94976190Y-58049130D01*
X94976190Y-58049130D02*
X94976190Y-58163416D01*
X94976190Y-58163416D02*
X94938094Y-58315797D01*
X94938094Y-58315797D02*
X94899999Y-58391987D01*
X94899999Y-58391987D02*
X94823809Y-58468178D01*
X94823809Y-58468178D02*
X94709523Y-58506273D01*
X94709523Y-58506273D02*
X94633332Y-58506273D01*
X94633332Y-58506273D02*
X94519047Y-58468178D01*
X94519047Y-58468178D02*
X94480951Y-58430082D01*
X94480951Y-58430082D02*
X94480951Y-58163416D01*
X94480951Y-58163416D02*
X94633332Y-58163416D01*
X94138094Y-58506273D02*
X94138094Y-57706273D01*
X94138094Y-57706273D02*
X93680951Y-58506273D01*
X93680951Y-58506273D02*
X93680951Y-57706273D01*
X93299999Y-58506273D02*
X93299999Y-57706273D01*
X93299999Y-57706273D02*
X93109523Y-57706273D01*
X93109523Y-57706273D02*
X92995237Y-57744368D01*
X92995237Y-57744368D02*
X92919047Y-57820558D01*
X92919047Y-57820558D02*
X92880952Y-57896749D01*
X92880952Y-57896749D02*
X92842856Y-58049130D01*
X92842856Y-58049130D02*
X92842856Y-58163416D01*
X92842856Y-58163416D02*
X92880952Y-58315797D01*
X92880952Y-58315797D02*
X92919047Y-58391987D01*
X92919047Y-58391987D02*
X92995237Y-58468178D01*
X92995237Y-58468178D02*
X93109523Y-58506273D01*
X93109523Y-58506273D02*
X93299999Y-58506273D01*
X91738094Y-57706273D02*
X91661904Y-57706273D01*
X91661904Y-57706273D02*
X91585713Y-57744368D01*
X91585713Y-57744368D02*
X91547618Y-57782463D01*
X91547618Y-57782463D02*
X91509523Y-57858654D01*
X91509523Y-57858654D02*
X91471428Y-58011035D01*
X91471428Y-58011035D02*
X91471428Y-58201511D01*
X91471428Y-58201511D02*
X91509523Y-58353892D01*
X91509523Y-58353892D02*
X91547618Y-58430082D01*
X91547618Y-58430082D02*
X91585713Y-58468178D01*
X91585713Y-58468178D02*
X91661904Y-58506273D01*
X91661904Y-58506273D02*
X91738094Y-58506273D01*
X91738094Y-58506273D02*
X91814285Y-58468178D01*
X91814285Y-58468178D02*
X91852380Y-58430082D01*
X91852380Y-58430082D02*
X91890475Y-58353892D01*
X91890475Y-58353892D02*
X91928571Y-58201511D01*
X91928571Y-58201511D02*
X91928571Y-58011035D01*
X91928571Y-58011035D02*
X91890475Y-57858654D01*
X91890475Y-57858654D02*
X91852380Y-57782463D01*
X91852380Y-57782463D02*
X91814285Y-57744368D01*
X91814285Y-57744368D02*
X91738094Y-57706273D01*
X91242856Y-57706273D02*
X90976189Y-58506273D01*
X90976189Y-58506273D02*
X90709523Y-57706273D01*
X103071428Y-59092295D02*
X103528571Y-59092295D01*
X103299999Y-59092295D02*
X103299999Y-58292295D01*
X103299999Y-58292295D02*
X103376190Y-58406580D01*
X103376190Y-58406580D02*
X103452380Y-58482771D01*
X103452380Y-58482771D02*
X103528571Y-58520866D01*
X141028571Y-78252295D02*
X141028571Y-78823723D01*
X141028571Y-78823723D02*
X141066666Y-78938009D01*
X141066666Y-78938009D02*
X141142857Y-79014200D01*
X141142857Y-79014200D02*
X141257142Y-79052295D01*
X141257142Y-79052295D02*
X141333333Y-79052295D01*
X140228571Y-79052295D02*
X140685714Y-79052295D01*
X140457142Y-79052295D02*
X140457142Y-78252295D01*
X140457142Y-78252295D02*
X140533333Y-78366580D01*
X140533333Y-78366580D02*
X140609523Y-78442771D01*
X140609523Y-78442771D02*
X140685714Y-78480866D01*
X139733332Y-78252295D02*
X139657142Y-78252295D01*
X139657142Y-78252295D02*
X139580951Y-78290390D01*
X139580951Y-78290390D02*
X139542856Y-78328485D01*
X139542856Y-78328485D02*
X139504761Y-78404676D01*
X139504761Y-78404676D02*
X139466666Y-78557057D01*
X139466666Y-78557057D02*
X139466666Y-78747533D01*
X139466666Y-78747533D02*
X139504761Y-78899914D01*
X139504761Y-78899914D02*
X139542856Y-78976104D01*
X139542856Y-78976104D02*
X139580951Y-79014200D01*
X139580951Y-79014200D02*
X139657142Y-79052295D01*
X139657142Y-79052295D02*
X139733332Y-79052295D01*
X139733332Y-79052295D02*
X139809523Y-79014200D01*
X139809523Y-79014200D02*
X139847618Y-78976104D01*
X139847618Y-78976104D02*
X139885713Y-78899914D01*
X139885713Y-78899914D02*
X139923809Y-78747533D01*
X139923809Y-78747533D02*
X139923809Y-78557057D01*
X139923809Y-78557057D02*
X139885713Y-78404676D01*
X139885713Y-78404676D02*
X139847618Y-78328485D01*
X139847618Y-78328485D02*
X139809523Y-78290390D01*
X139809523Y-78290390D02*
X139733332Y-78252295D01*
X139199999Y-78252295D02*
X138704761Y-78252295D01*
X138704761Y-78252295D02*
X138971427Y-78557057D01*
X138971427Y-78557057D02*
X138857142Y-78557057D01*
X138857142Y-78557057D02*
X138780951Y-78595152D01*
X138780951Y-78595152D02*
X138742856Y-78633247D01*
X138742856Y-78633247D02*
X138704761Y-78709438D01*
X138704761Y-78709438D02*
X138704761Y-78899914D01*
X138704761Y-78899914D02*
X138742856Y-78976104D01*
X138742856Y-78976104D02*
X138780951Y-79014200D01*
X138780951Y-79014200D02*
X138857142Y-79052295D01*
X138857142Y-79052295D02*
X139085713Y-79052295D01*
X139085713Y-79052295D02*
X139161904Y-79014200D01*
X139161904Y-79014200D02*
X139199999Y-78976104D01*
X138071428Y-81552295D02*
X138528571Y-81552295D01*
X138299999Y-81552295D02*
X138299999Y-80752295D01*
X138299999Y-80752295D02*
X138376190Y-80866580D01*
X138376190Y-80866580D02*
X138452380Y-80942771D01*
X138452380Y-80942771D02*
X138528571Y-80980866D01*
X58971428Y-77822295D02*
X59428571Y-77822295D01*
X59199999Y-77822295D02*
X59199999Y-77022295D01*
X59199999Y-77022295D02*
X59276190Y-77136580D01*
X59276190Y-77136580D02*
X59352380Y-77212771D01*
X59352380Y-77212771D02*
X59428571Y-77250866D01*
X102914284Y-85062295D02*
X102761903Y-85062295D01*
X102761903Y-85062295D02*
X102685713Y-85100390D01*
X102685713Y-85100390D02*
X102609522Y-85176580D01*
X102609522Y-85176580D02*
X102571427Y-85328961D01*
X102571427Y-85328961D02*
X102571427Y-85595628D01*
X102571427Y-85595628D02*
X102609522Y-85748009D01*
X102609522Y-85748009D02*
X102685713Y-85824200D01*
X102685713Y-85824200D02*
X102761903Y-85862295D01*
X102761903Y-85862295D02*
X102914284Y-85862295D01*
X102914284Y-85862295D02*
X102990475Y-85824200D01*
X102990475Y-85824200D02*
X103066665Y-85748009D01*
X103066665Y-85748009D02*
X103104761Y-85595628D01*
X103104761Y-85595628D02*
X103104761Y-85328961D01*
X103104761Y-85328961D02*
X103066665Y-85176580D01*
X103066665Y-85176580D02*
X102990475Y-85100390D01*
X102990475Y-85100390D02*
X102914284Y-85062295D01*
X102228570Y-85062295D02*
X102228570Y-85709914D01*
X102228570Y-85709914D02*
X102190475Y-85786104D01*
X102190475Y-85786104D02*
X102152380Y-85824200D01*
X102152380Y-85824200D02*
X102076189Y-85862295D01*
X102076189Y-85862295D02*
X101923808Y-85862295D01*
X101923808Y-85862295D02*
X101847618Y-85824200D01*
X101847618Y-85824200D02*
X101809523Y-85786104D01*
X101809523Y-85786104D02*
X101771427Y-85709914D01*
X101771427Y-85709914D02*
X101771427Y-85062295D01*
X101504761Y-85062295D02*
X101047618Y-85062295D01*
X101276190Y-85862295D02*
X101276190Y-85062295D01*
X100780951Y-85443247D02*
X100171428Y-85443247D01*
X100171428Y-85671819D02*
X100780951Y-85671819D01*
X99523809Y-85443247D02*
X99790475Y-85443247D01*
X99790475Y-85862295D02*
X99790475Y-85062295D01*
X99790475Y-85062295D02*
X99409523Y-85062295D01*
X98647618Y-85862295D02*
X98914285Y-85481342D01*
X99104761Y-85862295D02*
X99104761Y-85062295D01*
X99104761Y-85062295D02*
X98799999Y-85062295D01*
X98799999Y-85062295D02*
X98723809Y-85100390D01*
X98723809Y-85100390D02*
X98685714Y-85138485D01*
X98685714Y-85138485D02*
X98647618Y-85214676D01*
X98647618Y-85214676D02*
X98647618Y-85328961D01*
X98647618Y-85328961D02*
X98685714Y-85405152D01*
X98685714Y-85405152D02*
X98723809Y-85443247D01*
X98723809Y-85443247D02*
X98799999Y-85481342D01*
X98799999Y-85481342D02*
X99104761Y-85481342D01*
X98152380Y-85062295D02*
X97999999Y-85062295D01*
X97999999Y-85062295D02*
X97923809Y-85100390D01*
X97923809Y-85100390D02*
X97847618Y-85176580D01*
X97847618Y-85176580D02*
X97809523Y-85328961D01*
X97809523Y-85328961D02*
X97809523Y-85595628D01*
X97809523Y-85595628D02*
X97847618Y-85748009D01*
X97847618Y-85748009D02*
X97923809Y-85824200D01*
X97923809Y-85824200D02*
X97999999Y-85862295D01*
X97999999Y-85862295D02*
X98152380Y-85862295D01*
X98152380Y-85862295D02*
X98228571Y-85824200D01*
X98228571Y-85824200D02*
X98304761Y-85748009D01*
X98304761Y-85748009D02*
X98342857Y-85595628D01*
X98342857Y-85595628D02*
X98342857Y-85328961D01*
X98342857Y-85328961D02*
X98304761Y-85176580D01*
X98304761Y-85176580D02*
X98228571Y-85100390D01*
X98228571Y-85100390D02*
X98152380Y-85062295D01*
X97466666Y-85862295D02*
X97466666Y-85062295D01*
X97466666Y-85062295D02*
X97200000Y-85633723D01*
X97200000Y-85633723D02*
X96933333Y-85062295D01*
X96933333Y-85062295D02*
X96933333Y-85862295D01*
X103528571Y-60908485D02*
X103490475Y-60870390D01*
X103490475Y-60870390D02*
X103414285Y-60832295D01*
X103414285Y-60832295D02*
X103223809Y-60832295D01*
X103223809Y-60832295D02*
X103147618Y-60870390D01*
X103147618Y-60870390D02*
X103109523Y-60908485D01*
X103109523Y-60908485D02*
X103071428Y-60984676D01*
X103071428Y-60984676D02*
X103071428Y-61060866D01*
X103071428Y-61060866D02*
X103109523Y-61175152D01*
X103109523Y-61175152D02*
X103566666Y-61632295D01*
X103566666Y-61632295D02*
X103071428Y-61632295D01*
X105166666Y-123469104D02*
X104690476Y-123469104D01*
X105261904Y-123754819D02*
X104928571Y-122754819D01*
X104928571Y-122754819D02*
X104595238Y-123754819D01*
X103690476Y-123754819D02*
X104023809Y-123278628D01*
X104261904Y-123754819D02*
X104261904Y-122754819D01*
X104261904Y-122754819D02*
X103880952Y-122754819D01*
X103880952Y-122754819D02*
X103785714Y-122802438D01*
X103785714Y-122802438D02*
X103738095Y-122850057D01*
X103738095Y-122850057D02*
X103690476Y-122945295D01*
X103690476Y-122945295D02*
X103690476Y-123088152D01*
X103690476Y-123088152D02*
X103738095Y-123183390D01*
X103738095Y-123183390D02*
X103785714Y-123231009D01*
X103785714Y-123231009D02*
X103880952Y-123278628D01*
X103880952Y-123278628D02*
X104261904Y-123278628D01*
X103261904Y-123754819D02*
X103261904Y-122754819D01*
X103261904Y-122754819D02*
X103023809Y-122754819D01*
X103023809Y-122754819D02*
X102880952Y-122802438D01*
X102880952Y-122802438D02*
X102785714Y-122897676D01*
X102785714Y-122897676D02*
X102738095Y-122992914D01*
X102738095Y-122992914D02*
X102690476Y-123183390D01*
X102690476Y-123183390D02*
X102690476Y-123326247D01*
X102690476Y-123326247D02*
X102738095Y-123516723D01*
X102738095Y-123516723D02*
X102785714Y-123611961D01*
X102785714Y-123611961D02*
X102880952Y-123707200D01*
X102880952Y-123707200D02*
X103023809Y-123754819D01*
X103023809Y-123754819D02*
X103261904Y-123754819D01*
X102071428Y-122754819D02*
X101880952Y-122754819D01*
X101880952Y-122754819D02*
X101785714Y-122802438D01*
X101785714Y-122802438D02*
X101690476Y-122897676D01*
X101690476Y-122897676D02*
X101642857Y-123088152D01*
X101642857Y-123088152D02*
X101642857Y-123421485D01*
X101642857Y-123421485D02*
X101690476Y-123611961D01*
X101690476Y-123611961D02*
X101785714Y-123707200D01*
X101785714Y-123707200D02*
X101880952Y-123754819D01*
X101880952Y-123754819D02*
X102071428Y-123754819D01*
X102071428Y-123754819D02*
X102166666Y-123707200D01*
X102166666Y-123707200D02*
X102261904Y-123611961D01*
X102261904Y-123611961D02*
X102309523Y-123421485D01*
X102309523Y-123421485D02*
X102309523Y-123088152D01*
X102309523Y-123088152D02*
X102261904Y-122897676D01*
X102261904Y-122897676D02*
X102166666Y-122802438D01*
X102166666Y-122802438D02*
X102071428Y-122754819D01*
X100642857Y-123754819D02*
X100976190Y-123278628D01*
X101214285Y-123754819D02*
X101214285Y-122754819D01*
X101214285Y-122754819D02*
X100833333Y-122754819D01*
X100833333Y-122754819D02*
X100738095Y-122802438D01*
X100738095Y-122802438D02*
X100690476Y-122850057D01*
X100690476Y-122850057D02*
X100642857Y-122945295D01*
X100642857Y-122945295D02*
X100642857Y-123088152D01*
X100642857Y-123088152D02*
X100690476Y-123183390D01*
X100690476Y-123183390D02*
X100738095Y-123231009D01*
X100738095Y-123231009D02*
X100833333Y-123278628D01*
X100833333Y-123278628D02*
X101214285Y-123278628D01*
X99452380Y-123754819D02*
X99452380Y-122754819D01*
X99452380Y-122754819D02*
X99119047Y-123469104D01*
X99119047Y-123469104D02*
X98785714Y-122754819D01*
X98785714Y-122754819D02*
X98785714Y-123754819D01*
X98309523Y-123754819D02*
X98309523Y-122754819D01*
X97928571Y-122754819D02*
X97261905Y-123754819D01*
X97261905Y-122754819D02*
X97928571Y-123754819D01*
X96261904Y-122754819D02*
X95690476Y-122754819D01*
X95976190Y-123754819D02*
X95976190Y-122754819D01*
X94833333Y-123754819D02*
X95404761Y-123754819D01*
X95119047Y-123754819D02*
X95119047Y-122754819D01*
X95119047Y-122754819D02*
X95214285Y-122897676D01*
X95214285Y-122897676D02*
X95309523Y-122992914D01*
X95309523Y-122992914D02*
X95404761Y-123040533D01*
X106028571Y-55792295D02*
X106028571Y-56363723D01*
X106028571Y-56363723D02*
X106066666Y-56478009D01*
X106066666Y-56478009D02*
X106142857Y-56554200D01*
X106142857Y-56554200D02*
X106257142Y-56592295D01*
X106257142Y-56592295D02*
X106333333Y-56592295D01*
X105228571Y-56592295D02*
X105685714Y-56592295D01*
X105457142Y-56592295D02*
X105457142Y-55792295D01*
X105457142Y-55792295D02*
X105533333Y-55906580D01*
X105533333Y-55906580D02*
X105609523Y-55982771D01*
X105609523Y-55982771D02*
X105685714Y-56020866D01*
X104733332Y-55792295D02*
X104657142Y-55792295D01*
X104657142Y-55792295D02*
X104580951Y-55830390D01*
X104580951Y-55830390D02*
X104542856Y-55868485D01*
X104542856Y-55868485D02*
X104504761Y-55944676D01*
X104504761Y-55944676D02*
X104466666Y-56097057D01*
X104466666Y-56097057D02*
X104466666Y-56287533D01*
X104466666Y-56287533D02*
X104504761Y-56439914D01*
X104504761Y-56439914D02*
X104542856Y-56516104D01*
X104542856Y-56516104D02*
X104580951Y-56554200D01*
X104580951Y-56554200D02*
X104657142Y-56592295D01*
X104657142Y-56592295D02*
X104733332Y-56592295D01*
X104733332Y-56592295D02*
X104809523Y-56554200D01*
X104809523Y-56554200D02*
X104847618Y-56516104D01*
X104847618Y-56516104D02*
X104885713Y-56439914D01*
X104885713Y-56439914D02*
X104923809Y-56287533D01*
X104923809Y-56287533D02*
X104923809Y-56097057D01*
X104923809Y-56097057D02*
X104885713Y-55944676D01*
X104885713Y-55944676D02*
X104847618Y-55868485D01*
X104847618Y-55868485D02*
X104809523Y-55830390D01*
X104809523Y-55830390D02*
X104733332Y-55792295D01*
X103704761Y-56592295D02*
X104161904Y-56592295D01*
X103933332Y-56592295D02*
X103933332Y-55792295D01*
X103933332Y-55792295D02*
X104009523Y-55906580D01*
X104009523Y-55906580D02*
X104085713Y-55982771D01*
X104085713Y-55982771D02*
X104161904Y-56020866D01*
X59466666Y-82102295D02*
X58971428Y-82102295D01*
X58971428Y-82102295D02*
X59238094Y-82407057D01*
X59238094Y-82407057D02*
X59123809Y-82407057D01*
X59123809Y-82407057D02*
X59047618Y-82445152D01*
X59047618Y-82445152D02*
X59009523Y-82483247D01*
X59009523Y-82483247D02*
X58971428Y-82559438D01*
X58971428Y-82559438D02*
X58971428Y-82749914D01*
X58971428Y-82749914D02*
X59009523Y-82826104D01*
X59009523Y-82826104D02*
X59047618Y-82864200D01*
X59047618Y-82864200D02*
X59123809Y-82902295D01*
X59123809Y-82902295D02*
X59352380Y-82902295D01*
X59352380Y-82902295D02*
X59428571Y-82864200D01*
X59428571Y-82864200D02*
X59466666Y-82826104D01*
X58528571Y-74522295D02*
X58528571Y-75093723D01*
X58528571Y-75093723D02*
X58566666Y-75208009D01*
X58566666Y-75208009D02*
X58642857Y-75284200D01*
X58642857Y-75284200D02*
X58757142Y-75322295D01*
X58757142Y-75322295D02*
X58833333Y-75322295D01*
X57728571Y-75322295D02*
X58185714Y-75322295D01*
X57957142Y-75322295D02*
X57957142Y-74522295D01*
X57957142Y-74522295D02*
X58033333Y-74636580D01*
X58033333Y-74636580D02*
X58109523Y-74712771D01*
X58109523Y-74712771D02*
X58185714Y-74750866D01*
X57233332Y-74522295D02*
X57157142Y-74522295D01*
X57157142Y-74522295D02*
X57080951Y-74560390D01*
X57080951Y-74560390D02*
X57042856Y-74598485D01*
X57042856Y-74598485D02*
X57004761Y-74674676D01*
X57004761Y-74674676D02*
X56966666Y-74827057D01*
X56966666Y-74827057D02*
X56966666Y-75017533D01*
X56966666Y-75017533D02*
X57004761Y-75169914D01*
X57004761Y-75169914D02*
X57042856Y-75246104D01*
X57042856Y-75246104D02*
X57080951Y-75284200D01*
X57080951Y-75284200D02*
X57157142Y-75322295D01*
X57157142Y-75322295D02*
X57233332Y-75322295D01*
X57233332Y-75322295D02*
X57309523Y-75284200D01*
X57309523Y-75284200D02*
X57347618Y-75246104D01*
X57347618Y-75246104D02*
X57385713Y-75169914D01*
X57385713Y-75169914D02*
X57423809Y-75017533D01*
X57423809Y-75017533D02*
X57423809Y-74827057D01*
X57423809Y-74827057D02*
X57385713Y-74674676D01*
X57385713Y-74674676D02*
X57347618Y-74598485D01*
X57347618Y-74598485D02*
X57309523Y-74560390D01*
X57309523Y-74560390D02*
X57233332Y-74522295D01*
X56661904Y-74598485D02*
X56623808Y-74560390D01*
X56623808Y-74560390D02*
X56547618Y-74522295D01*
X56547618Y-74522295D02*
X56357142Y-74522295D01*
X56357142Y-74522295D02*
X56280951Y-74560390D01*
X56280951Y-74560390D02*
X56242856Y-74598485D01*
X56242856Y-74598485D02*
X56204761Y-74674676D01*
X56204761Y-74674676D02*
X56204761Y-74750866D01*
X56204761Y-74750866D02*
X56242856Y-74865152D01*
X56242856Y-74865152D02*
X56699999Y-75322295D01*
X56699999Y-75322295D02*
X56204761Y-75322295D01*
X59428571Y-79638485D02*
X59390475Y-79600390D01*
X59390475Y-79600390D02*
X59314285Y-79562295D01*
X59314285Y-79562295D02*
X59123809Y-79562295D01*
X59123809Y-79562295D02*
X59047618Y-79600390D01*
X59047618Y-79600390D02*
X59009523Y-79638485D01*
X59009523Y-79638485D02*
X58971428Y-79714676D01*
X58971428Y-79714676D02*
X58971428Y-79790866D01*
X58971428Y-79790866D02*
X59009523Y-79905152D01*
X59009523Y-79905152D02*
X59466666Y-80362295D01*
X59466666Y-80362295D02*
X58971428Y-80362295D01*
X138528571Y-83368485D02*
X138490475Y-83330390D01*
X138490475Y-83330390D02*
X138414285Y-83292295D01*
X138414285Y-83292295D02*
X138223809Y-83292295D01*
X138223809Y-83292295D02*
X138147618Y-83330390D01*
X138147618Y-83330390D02*
X138109523Y-83368485D01*
X138109523Y-83368485D02*
X138071428Y-83444676D01*
X138071428Y-83444676D02*
X138071428Y-83520866D01*
X138071428Y-83520866D02*
X138109523Y-83635152D01*
X138109523Y-83635152D02*
X138566666Y-84092295D01*
X138566666Y-84092295D02*
X138071428Y-84092295D01*
X71019047Y-79274340D02*
X71019047Y-79845768D01*
X71019047Y-79845768D02*
X71057142Y-79960054D01*
X71057142Y-79960054D02*
X71133333Y-80036245D01*
X71133333Y-80036245D02*
X71247618Y-80074340D01*
X71247618Y-80074340D02*
X71323809Y-80074340D01*
X70219047Y-80074340D02*
X70676190Y-80074340D01*
X70447618Y-80074340D02*
X70447618Y-79274340D01*
X70447618Y-79274340D02*
X70523809Y-79388625D01*
X70523809Y-79388625D02*
X70599999Y-79464816D01*
X70599999Y-79464816D02*
X70676190Y-79502911D01*
X69723808Y-79274340D02*
X69647618Y-79274340D01*
X69647618Y-79274340D02*
X69571427Y-79312435D01*
X69571427Y-79312435D02*
X69533332Y-79350530D01*
X69533332Y-79350530D02*
X69495237Y-79426721D01*
X69495237Y-79426721D02*
X69457142Y-79579102D01*
X69457142Y-79579102D02*
X69457142Y-79769578D01*
X69457142Y-79769578D02*
X69495237Y-79921959D01*
X69495237Y-79921959D02*
X69533332Y-79998149D01*
X69533332Y-79998149D02*
X69571427Y-80036245D01*
X69571427Y-80036245D02*
X69647618Y-80074340D01*
X69647618Y-80074340D02*
X69723808Y-80074340D01*
X69723808Y-80074340D02*
X69799999Y-80036245D01*
X69799999Y-80036245D02*
X69838094Y-79998149D01*
X69838094Y-79998149D02*
X69876189Y-79921959D01*
X69876189Y-79921959D02*
X69914285Y-79769578D01*
X69914285Y-79769578D02*
X69914285Y-79579102D01*
X69914285Y-79579102D02*
X69876189Y-79426721D01*
X69876189Y-79426721D02*
X69838094Y-79350530D01*
X69838094Y-79350530D02*
X69799999Y-79312435D01*
X69799999Y-79312435D02*
X69723808Y-79274340D01*
X69152380Y-79350530D02*
X69114284Y-79312435D01*
X69114284Y-79312435D02*
X69038094Y-79274340D01*
X69038094Y-79274340D02*
X68847618Y-79274340D01*
X68847618Y-79274340D02*
X68771427Y-79312435D01*
X68771427Y-79312435D02*
X68733332Y-79350530D01*
X68733332Y-79350530D02*
X68695237Y-79426721D01*
X68695237Y-79426721D02*
X68695237Y-79502911D01*
X68695237Y-79502911D02*
X68733332Y-79617197D01*
X68733332Y-79617197D02*
X69190475Y-80074340D01*
X69190475Y-80074340D02*
X68695237Y-80074340D01*
X67780951Y-79845768D02*
X67399998Y-79845768D01*
X67857141Y-80074340D02*
X67590474Y-79274340D01*
X67590474Y-79274340D02*
X67323808Y-80074340D01*
X67057141Y-79274340D02*
X67057141Y-79921959D01*
X67057141Y-79921959D02*
X67019046Y-79998149D01*
X67019046Y-79998149D02*
X66980951Y-80036245D01*
X66980951Y-80036245D02*
X66904760Y-80074340D01*
X66904760Y-80074340D02*
X66752379Y-80074340D01*
X66752379Y-80074340D02*
X66676189Y-80036245D01*
X66676189Y-80036245D02*
X66638094Y-79998149D01*
X66638094Y-79998149D02*
X66599998Y-79921959D01*
X66599998Y-79921959D02*
X66599998Y-79274340D01*
X66219046Y-80074340D02*
X66219046Y-79274340D01*
X66219046Y-79274340D02*
X66028570Y-79274340D01*
X66028570Y-79274340D02*
X65914284Y-79312435D01*
X65914284Y-79312435D02*
X65838094Y-79388625D01*
X65838094Y-79388625D02*
X65799999Y-79464816D01*
X65799999Y-79464816D02*
X65761903Y-79617197D01*
X65761903Y-79617197D02*
X65761903Y-79731483D01*
X65761903Y-79731483D02*
X65799999Y-79883864D01*
X65799999Y-79883864D02*
X65838094Y-79960054D01*
X65838094Y-79960054D02*
X65914284Y-80036245D01*
X65914284Y-80036245D02*
X66028570Y-80074340D01*
X66028570Y-80074340D02*
X66219046Y-80074340D01*
X65419046Y-80074340D02*
X65419046Y-79274340D01*
X64885713Y-79274340D02*
X64733332Y-79274340D01*
X64733332Y-79274340D02*
X64657142Y-79312435D01*
X64657142Y-79312435D02*
X64580951Y-79388625D01*
X64580951Y-79388625D02*
X64542856Y-79541006D01*
X64542856Y-79541006D02*
X64542856Y-79807673D01*
X64542856Y-79807673D02*
X64580951Y-79960054D01*
X64580951Y-79960054D02*
X64657142Y-80036245D01*
X64657142Y-80036245D02*
X64733332Y-80074340D01*
X64733332Y-80074340D02*
X64885713Y-80074340D01*
X64885713Y-80074340D02*
X64961904Y-80036245D01*
X64961904Y-80036245D02*
X65038094Y-79960054D01*
X65038094Y-79960054D02*
X65076190Y-79807673D01*
X65076190Y-79807673D02*
X65076190Y-79541006D01*
X65076190Y-79541006D02*
X65038094Y-79388625D01*
X65038094Y-79388625D02*
X64961904Y-79312435D01*
X64961904Y-79312435D02*
X64885713Y-79274340D01*
X63590475Y-80074340D02*
X63590475Y-79274340D01*
X63209523Y-80074340D02*
X63209523Y-79274340D01*
X63209523Y-79274340D02*
X62752380Y-80074340D01*
X62752380Y-80074340D02*
X62752380Y-79274340D01*
X72866667Y-81362295D02*
X73323810Y-81362295D01*
X73095238Y-81362295D02*
X73095238Y-80562295D01*
X73095238Y-80562295D02*
X73171429Y-80676580D01*
X73171429Y-80676580D02*
X73247619Y-80752771D01*
X73247619Y-80752771D02*
X73323810Y-80790866D01*
X71533333Y-81362295D02*
X71914285Y-81362295D01*
X71914285Y-81362295D02*
X71914285Y-80562295D01*
X71266666Y-80943247D02*
X71000000Y-80943247D01*
X70885714Y-81362295D02*
X71266666Y-81362295D01*
X71266666Y-81362295D02*
X71266666Y-80562295D01*
X71266666Y-80562295D02*
X70885714Y-80562295D01*
X70276190Y-80943247D02*
X70542856Y-80943247D01*
X70542856Y-81362295D02*
X70542856Y-80562295D01*
X70542856Y-80562295D02*
X70161904Y-80562295D01*
X69971428Y-80562295D02*
X69514285Y-80562295D01*
X69742857Y-81362295D02*
X69742857Y-80562295D01*
X68638094Y-81362295D02*
X68638094Y-80562295D01*
X68257142Y-81362295D02*
X68257142Y-80562295D01*
X68257142Y-80562295D02*
X67799999Y-81362295D01*
X67799999Y-81362295D02*
X67799999Y-80562295D01*
X66238095Y-80638485D02*
X66199999Y-80600390D01*
X66199999Y-80600390D02*
X66123809Y-80562295D01*
X66123809Y-80562295D02*
X65933333Y-80562295D01*
X65933333Y-80562295D02*
X65857142Y-80600390D01*
X65857142Y-80600390D02*
X65819047Y-80638485D01*
X65819047Y-80638485D02*
X65780952Y-80714676D01*
X65780952Y-80714676D02*
X65780952Y-80790866D01*
X65780952Y-80790866D02*
X65819047Y-80905152D01*
X65819047Y-80905152D02*
X66276190Y-81362295D01*
X66276190Y-81362295D02*
X65780952Y-81362295D01*
X64409523Y-80600390D02*
X64485713Y-80562295D01*
X64485713Y-80562295D02*
X64599999Y-80562295D01*
X64599999Y-80562295D02*
X64714285Y-80600390D01*
X64714285Y-80600390D02*
X64790475Y-80676580D01*
X64790475Y-80676580D02*
X64828570Y-80752771D01*
X64828570Y-80752771D02*
X64866666Y-80905152D01*
X64866666Y-80905152D02*
X64866666Y-81019438D01*
X64866666Y-81019438D02*
X64828570Y-81171819D01*
X64828570Y-81171819D02*
X64790475Y-81248009D01*
X64790475Y-81248009D02*
X64714285Y-81324200D01*
X64714285Y-81324200D02*
X64599999Y-81362295D01*
X64599999Y-81362295D02*
X64523808Y-81362295D01*
X64523808Y-81362295D02*
X64409523Y-81324200D01*
X64409523Y-81324200D02*
X64371427Y-81286104D01*
X64371427Y-81286104D02*
X64371427Y-81019438D01*
X64371427Y-81019438D02*
X64523808Y-81019438D01*
X64028570Y-81362295D02*
X64028570Y-80562295D01*
X64028570Y-80562295D02*
X63571427Y-81362295D01*
X63571427Y-81362295D02*
X63571427Y-80562295D01*
X63190475Y-81362295D02*
X63190475Y-80562295D01*
X63190475Y-80562295D02*
X62999999Y-80562295D01*
X62999999Y-80562295D02*
X62885713Y-80600390D01*
X62885713Y-80600390D02*
X62809523Y-80676580D01*
X62809523Y-80676580D02*
X62771428Y-80752771D01*
X62771428Y-80752771D02*
X62733332Y-80905152D01*
X62733332Y-80905152D02*
X62733332Y-81019438D01*
X62733332Y-81019438D02*
X62771428Y-81171819D01*
X62771428Y-81171819D02*
X62809523Y-81248009D01*
X62809523Y-81248009D02*
X62885713Y-81324200D01*
X62885713Y-81324200D02*
X62999999Y-81362295D01*
X62999999Y-81362295D02*
X63190475Y-81362295D01*
X61628570Y-80562295D02*
X61552380Y-80562295D01*
X61552380Y-80562295D02*
X61476189Y-80600390D01*
X61476189Y-80600390D02*
X61438094Y-80638485D01*
X61438094Y-80638485D02*
X61399999Y-80714676D01*
X61399999Y-80714676D02*
X61361904Y-80867057D01*
X61361904Y-80867057D02*
X61361904Y-81057533D01*
X61361904Y-81057533D02*
X61399999Y-81209914D01*
X61399999Y-81209914D02*
X61438094Y-81286104D01*
X61438094Y-81286104D02*
X61476189Y-81324200D01*
X61476189Y-81324200D02*
X61552380Y-81362295D01*
X61552380Y-81362295D02*
X61628570Y-81362295D01*
X61628570Y-81362295D02*
X61704761Y-81324200D01*
X61704761Y-81324200D02*
X61742856Y-81286104D01*
X61742856Y-81286104D02*
X61780951Y-81209914D01*
X61780951Y-81209914D02*
X61819047Y-81057533D01*
X61819047Y-81057533D02*
X61819047Y-80867057D01*
X61819047Y-80867057D02*
X61780951Y-80714676D01*
X61780951Y-80714676D02*
X61742856Y-80638485D01*
X61742856Y-80638485D02*
X61704761Y-80600390D01*
X61704761Y-80600390D02*
X61628570Y-80562295D01*
X61133332Y-80562295D02*
X60866665Y-81362295D01*
X60866665Y-81362295D02*
X60599999Y-80562295D01*
X70199999Y-81850250D02*
X69704761Y-81850250D01*
X69704761Y-81850250D02*
X69971427Y-82155012D01*
X69971427Y-82155012D02*
X69857142Y-82155012D01*
X69857142Y-82155012D02*
X69780951Y-82193107D01*
X69780951Y-82193107D02*
X69742856Y-82231202D01*
X69742856Y-82231202D02*
X69704761Y-82307393D01*
X69704761Y-82307393D02*
X69704761Y-82497869D01*
X69704761Y-82497869D02*
X69742856Y-82574059D01*
X69742856Y-82574059D02*
X69780951Y-82612155D01*
X69780951Y-82612155D02*
X69857142Y-82650250D01*
X69857142Y-82650250D02*
X70085713Y-82650250D01*
X70085713Y-82650250D02*
X70161904Y-82612155D01*
X70161904Y-82612155D02*
X70199999Y-82574059D01*
X68295236Y-82650250D02*
X68561903Y-82269297D01*
X68752379Y-82650250D02*
X68752379Y-81850250D01*
X68752379Y-81850250D02*
X68447617Y-81850250D01*
X68447617Y-81850250D02*
X68371427Y-81888345D01*
X68371427Y-81888345D02*
X68333332Y-81926440D01*
X68333332Y-81926440D02*
X68295236Y-82002631D01*
X68295236Y-82002631D02*
X68295236Y-82116916D01*
X68295236Y-82116916D02*
X68333332Y-82193107D01*
X68333332Y-82193107D02*
X68371427Y-82231202D01*
X68371427Y-82231202D02*
X68447617Y-82269297D01*
X68447617Y-82269297D02*
X68752379Y-82269297D01*
X67952379Y-82650250D02*
X67952379Y-81850250D01*
X67152380Y-81888345D02*
X67228570Y-81850250D01*
X67228570Y-81850250D02*
X67342856Y-81850250D01*
X67342856Y-81850250D02*
X67457142Y-81888345D01*
X67457142Y-81888345D02*
X67533332Y-81964535D01*
X67533332Y-81964535D02*
X67571427Y-82040726D01*
X67571427Y-82040726D02*
X67609523Y-82193107D01*
X67609523Y-82193107D02*
X67609523Y-82307393D01*
X67609523Y-82307393D02*
X67571427Y-82459774D01*
X67571427Y-82459774D02*
X67533332Y-82535964D01*
X67533332Y-82535964D02*
X67457142Y-82612155D01*
X67457142Y-82612155D02*
X67342856Y-82650250D01*
X67342856Y-82650250D02*
X67266665Y-82650250D01*
X67266665Y-82650250D02*
X67152380Y-82612155D01*
X67152380Y-82612155D02*
X67114284Y-82574059D01*
X67114284Y-82574059D02*
X67114284Y-82307393D01*
X67114284Y-82307393D02*
X67266665Y-82307393D01*
X66771427Y-82650250D02*
X66771427Y-81850250D01*
X66771427Y-82231202D02*
X66314284Y-82231202D01*
X66314284Y-82650250D02*
X66314284Y-81850250D01*
X66047618Y-81850250D02*
X65590475Y-81850250D01*
X65819047Y-82650250D02*
X65819047Y-81850250D01*
X64714284Y-82650250D02*
X64714284Y-81850250D01*
X64333332Y-82650250D02*
X64333332Y-81850250D01*
X64333332Y-81850250D02*
X63876189Y-82650250D01*
X63876189Y-82650250D02*
X63876189Y-81850250D01*
%LPC*%
D11*
X124920000Y-67500000D03*
X135080000Y-67500000D03*
X117420000Y-75000000D03*
X127580000Y-75000000D03*
X67420000Y-97500000D03*
X77580000Y-97500000D03*
X124920000Y-80000000D03*
X135080000Y-80000000D03*
D12*
X147000000Y-53000000D03*
D13*
X121250000Y-102500000D03*
D11*
X123750000Y-102500000D03*
D13*
X68750000Y-90000000D03*
D11*
X71250000Y-90000000D03*
X99920000Y-112500000D03*
X110080000Y-112500000D03*
D13*
X83690000Y-76190000D03*
D11*
X83690000Y-78730000D03*
X83690000Y-81270000D03*
X83690000Y-83810000D03*
X91310000Y-83810000D03*
X91310000Y-81270000D03*
X91310000Y-78730000D03*
X91310000Y-76190000D03*
X102420000Y-70000000D03*
X112580000Y-70000000D03*
X80000000Y-67500000D03*
X85000000Y-67500000D03*
D13*
X87750000Y-60000000D03*
D11*
X90250000Y-60000000D03*
X128750000Y-90000000D03*
X133750000Y-90000000D03*
D14*
X57500000Y-77460000D03*
D15*
X57500000Y-80000000D03*
X57500000Y-82540000D03*
D13*
X93750000Y-110000000D03*
D11*
X96250000Y-110000000D03*
D14*
X140000000Y-81190000D03*
D15*
X140000000Y-83730000D03*
X140000000Y-86270000D03*
X140000000Y-88810000D03*
D11*
X102420000Y-80000000D03*
X112580000Y-80000000D03*
X127420000Y-102500000D03*
X137580000Y-102500000D03*
X117420000Y-117500000D03*
X127580000Y-117500000D03*
D12*
X53000000Y-122000000D03*
D11*
X127420000Y-110000000D03*
X137580000Y-110000000D03*
D13*
X118750000Y-67500000D03*
D11*
X121250000Y-67500000D03*
X67420000Y-77500000D03*
X77580000Y-77500000D03*
D13*
X118750000Y-80000000D03*
D11*
X121250000Y-80000000D03*
D13*
X68750000Y-70000000D03*
D11*
X71250000Y-70000000D03*
X114920000Y-112500000D03*
X125080000Y-112500000D03*
X95500000Y-60000000D03*
X100500000Y-60000000D03*
D13*
X113690000Y-88690000D03*
D11*
X113690000Y-91230000D03*
X113690000Y-93770000D03*
X113690000Y-96310000D03*
X121310000Y-96310000D03*
X121310000Y-93770000D03*
X121310000Y-91230000D03*
X121310000Y-88690000D03*
D14*
X105000000Y-58730000D03*
D15*
X105000000Y-61270000D03*
D16*
X64380000Y-60000000D03*
X79620000Y-60000000D03*
%LPD*%
M02*
