G04 #@! TF.GenerationSoftware,KiCad,Pcbnew,9.0.2+dfsg-1*
G04 #@! TF.CreationDate,2026-10-08T19:46:57+00:00*
G04 #@! TF.ProjectId,Ardor_Mixer_THT,4172646f-725f-44d6-9978-65725f544854,rev?*
G04 #@! TF.SameCoordinates,Original*
G04 #@! TF.FileFunction,Legend,Top*
G04 #@! TF.FilePolarity,Positive*
%FSLAX46Y46*%
G04 Gerber Fmt 4.6, Leading zero omitted, Abs format (unit mm)*
G04 Created by KiCad (PCBNEW 9.0.2+dfsg-1) date 2026-10-08 19:46:57*
%MOMM*%
%LPD*%
G01*
G04 APERTURE LIST*
G04 Aperture macros list*
%AMRoundRect*
0 Rectangle with rounded corners*
0 $1 Rounding radius*
0 $2 $3 $4 $5 $6 $7 $8 $9 X,Y pos of 4 corners*
0 Add a 4 corners polygon primitive as box body*
4,1,4,$2,$3,$4,$5,$6,$7,$8,$9,$2,$3,0*
0 Add four circle primitives for the rounded corners*
1,1,$1+$1,$2,$3*
1,1,$1+$1,$4,$5*
1,1,$1+$1,$6,$7*
1,1,$1+$1,$8,$9*
0 Add four rect primitives between the rounded corners*
20,1,$1+$1,$2,$3,$4,$5,0*
20,1,$1+$1,$4,$5,$6,$7,0*
20,1,$1+$1,$6,$7,$8,$9,0*
20,1,$1+$1,$8,$9,$2,$3,0*%
G04 Aperture macros list end*
%ADD10C,0.150000*%
%ADD11C,0.120000*%
%ADD12C,1.600000*%
%ADD13C,2.200000*%
%ADD14RoundRect,0.250000X-0.550000X-0.550000X0.550000X-0.550000X0.550000X0.550000X-0.550000X0.550000X0*%
%ADD15R,1.700000X1.700000*%
%ADD16C,1.700000*%
%ADD17C,2.000000*%
G04 APERTURE END LIST*
D10*
X131492857Y-107538557D02*
X131192857Y-107109985D01*
X130978571Y-107538557D02*
X130978571Y-106638557D01*
X130978571Y-106638557D02*
X131321428Y-106638557D01*
X131321428Y-106638557D02*
X131407143Y-106681414D01*
X131407143Y-106681414D02*
X131450000Y-106724271D01*
X131450000Y-106724271D02*
X131492857Y-106809985D01*
X131492857Y-106809985D02*
X131492857Y-106938557D01*
X131492857Y-106938557D02*
X131450000Y-107024271D01*
X131450000Y-107024271D02*
X131407143Y-107067128D01*
X131407143Y-107067128D02*
X131321428Y-107109985D01*
X131321428Y-107109985D02*
X130978571Y-107109985D01*
X132264286Y-106938557D02*
X132264286Y-107538557D01*
X132050000Y-106595700D02*
X131835714Y-107238557D01*
X131835714Y-107238557D02*
X132392857Y-107238557D01*
X132907143Y-106638557D02*
X132992857Y-106638557D01*
X132992857Y-106638557D02*
X133078571Y-106681414D01*
X133078571Y-106681414D02*
X133121429Y-106724271D01*
X133121429Y-106724271D02*
X133164286Y-106809985D01*
X133164286Y-106809985D02*
X133207143Y-106981414D01*
X133207143Y-106981414D02*
X133207143Y-107195700D01*
X133207143Y-107195700D02*
X133164286Y-107367128D01*
X133164286Y-107367128D02*
X133121429Y-107452842D01*
X133121429Y-107452842D02*
X133078571Y-107495700D01*
X133078571Y-107495700D02*
X132992857Y-107538557D01*
X132992857Y-107538557D02*
X132907143Y-107538557D01*
X132907143Y-107538557D02*
X132821429Y-107495700D01*
X132821429Y-107495700D02*
X132778571Y-107452842D01*
X132778571Y-107452842D02*
X132735714Y-107367128D01*
X132735714Y-107367128D02*
X132692857Y-107195700D01*
X132692857Y-107195700D02*
X132692857Y-106981414D01*
X132692857Y-106981414D02*
X132735714Y-106809985D01*
X132735714Y-106809985D02*
X132778571Y-106724271D01*
X132778571Y-106724271D02*
X132821429Y-106681414D01*
X132821429Y-106681414D02*
X132907143Y-106638557D01*
X133635714Y-107538557D02*
X133807143Y-107538557D01*
X133807143Y-107538557D02*
X133892857Y-107495700D01*
X133892857Y-107495700D02*
X133935714Y-107452842D01*
X133935714Y-107452842D02*
X134021429Y-107324271D01*
X134021429Y-107324271D02*
X134064286Y-107152842D01*
X134064286Y-107152842D02*
X134064286Y-106809985D01*
X134064286Y-106809985D02*
X134021429Y-106724271D01*
X134021429Y-106724271D02*
X133978572Y-106681414D01*
X133978572Y-106681414D02*
X133892857Y-106638557D01*
X133892857Y-106638557D02*
X133721429Y-106638557D01*
X133721429Y-106638557D02*
X133635714Y-106681414D01*
X133635714Y-106681414D02*
X133592857Y-106724271D01*
X133592857Y-106724271D02*
X133550000Y-106809985D01*
X133550000Y-106809985D02*
X133550000Y-107024271D01*
X133550000Y-107024271D02*
X133592857Y-107109985D01*
X133592857Y-107109985D02*
X133635714Y-107152842D01*
X133635714Y-107152842D02*
X133721429Y-107195700D01*
X133721429Y-107195700D02*
X133892857Y-107195700D01*
X133892857Y-107195700D02*
X133978572Y-107152842D01*
X133978572Y-107152842D02*
X134021429Y-107109985D01*
X134021429Y-107109985D02*
X134064286Y-107024271D01*
X118992857Y-110038557D02*
X118692857Y-109609985D01*
X118478571Y-110038557D02*
X118478571Y-109138557D01*
X118478571Y-109138557D02*
X118821428Y-109138557D01*
X118821428Y-109138557D02*
X118907143Y-109181414D01*
X118907143Y-109181414D02*
X118950000Y-109224271D01*
X118950000Y-109224271D02*
X118992857Y-109309985D01*
X118992857Y-109309985D02*
X118992857Y-109438557D01*
X118992857Y-109438557D02*
X118950000Y-109524271D01*
X118950000Y-109524271D02*
X118907143Y-109567128D01*
X118907143Y-109567128D02*
X118821428Y-109609985D01*
X118821428Y-109609985D02*
X118478571Y-109609985D01*
X119764286Y-109438557D02*
X119764286Y-110038557D01*
X119550000Y-109095700D02*
X119335714Y-109738557D01*
X119335714Y-109738557D02*
X119892857Y-109738557D01*
X120407143Y-109138557D02*
X120492857Y-109138557D01*
X120492857Y-109138557D02*
X120578571Y-109181414D01*
X120578571Y-109181414D02*
X120621429Y-109224271D01*
X120621429Y-109224271D02*
X120664286Y-109309985D01*
X120664286Y-109309985D02*
X120707143Y-109481414D01*
X120707143Y-109481414D02*
X120707143Y-109695700D01*
X120707143Y-109695700D02*
X120664286Y-109867128D01*
X120664286Y-109867128D02*
X120621429Y-109952842D01*
X120621429Y-109952842D02*
X120578571Y-109995700D01*
X120578571Y-109995700D02*
X120492857Y-110038557D01*
X120492857Y-110038557D02*
X120407143Y-110038557D01*
X120407143Y-110038557D02*
X120321429Y-109995700D01*
X120321429Y-109995700D02*
X120278571Y-109952842D01*
X120278571Y-109952842D02*
X120235714Y-109867128D01*
X120235714Y-109867128D02*
X120192857Y-109695700D01*
X120192857Y-109695700D02*
X120192857Y-109481414D01*
X120192857Y-109481414D02*
X120235714Y-109309985D01*
X120235714Y-109309985D02*
X120278571Y-109224271D01*
X120278571Y-109224271D02*
X120321429Y-109181414D01*
X120321429Y-109181414D02*
X120407143Y-109138557D01*
X121478572Y-109138557D02*
X121307143Y-109138557D01*
X121307143Y-109138557D02*
X121221429Y-109181414D01*
X121221429Y-109181414D02*
X121178572Y-109224271D01*
X121178572Y-109224271D02*
X121092857Y-109352842D01*
X121092857Y-109352842D02*
X121050000Y-109524271D01*
X121050000Y-109524271D02*
X121050000Y-109867128D01*
X121050000Y-109867128D02*
X121092857Y-109952842D01*
X121092857Y-109952842D02*
X121135714Y-109995700D01*
X121135714Y-109995700D02*
X121221429Y-110038557D01*
X121221429Y-110038557D02*
X121392857Y-110038557D01*
X121392857Y-110038557D02*
X121478572Y-109995700D01*
X121478572Y-109995700D02*
X121521429Y-109952842D01*
X121521429Y-109952842D02*
X121564286Y-109867128D01*
X121564286Y-109867128D02*
X121564286Y-109652842D01*
X121564286Y-109652842D02*
X121521429Y-109567128D01*
X121521429Y-109567128D02*
X121478572Y-109524271D01*
X121478572Y-109524271D02*
X121392857Y-109481414D01*
X121392857Y-109481414D02*
X121221429Y-109481414D01*
X121221429Y-109481414D02*
X121135714Y-109524271D01*
X121135714Y-109524271D02*
X121092857Y-109567128D01*
X121092857Y-109567128D02*
X121050000Y-109652842D01*
X106492857Y-77538557D02*
X106192857Y-77109985D01*
X105978571Y-77538557D02*
X105978571Y-76638557D01*
X105978571Y-76638557D02*
X106321428Y-76638557D01*
X106321428Y-76638557D02*
X106407143Y-76681414D01*
X106407143Y-76681414D02*
X106450000Y-76724271D01*
X106450000Y-76724271D02*
X106492857Y-76809985D01*
X106492857Y-76809985D02*
X106492857Y-76938557D01*
X106492857Y-76938557D02*
X106450000Y-77024271D01*
X106450000Y-77024271D02*
X106407143Y-77067128D01*
X106407143Y-77067128D02*
X106321428Y-77109985D01*
X106321428Y-77109985D02*
X105978571Y-77109985D01*
X107264286Y-76938557D02*
X107264286Y-77538557D01*
X107050000Y-76595700D02*
X106835714Y-77238557D01*
X106835714Y-77238557D02*
X107392857Y-77238557D01*
X107907143Y-76638557D02*
X107992857Y-76638557D01*
X107992857Y-76638557D02*
X108078571Y-76681414D01*
X108078571Y-76681414D02*
X108121429Y-76724271D01*
X108121429Y-76724271D02*
X108164286Y-76809985D01*
X108164286Y-76809985D02*
X108207143Y-76981414D01*
X108207143Y-76981414D02*
X108207143Y-77195700D01*
X108207143Y-77195700D02*
X108164286Y-77367128D01*
X108164286Y-77367128D02*
X108121429Y-77452842D01*
X108121429Y-77452842D02*
X108078571Y-77495700D01*
X108078571Y-77495700D02*
X107992857Y-77538557D01*
X107992857Y-77538557D02*
X107907143Y-77538557D01*
X107907143Y-77538557D02*
X107821429Y-77495700D01*
X107821429Y-77495700D02*
X107778571Y-77452842D01*
X107778571Y-77452842D02*
X107735714Y-77367128D01*
X107735714Y-77367128D02*
X107692857Y-77195700D01*
X107692857Y-77195700D02*
X107692857Y-76981414D01*
X107692857Y-76981414D02*
X107735714Y-76809985D01*
X107735714Y-76809985D02*
X107778571Y-76724271D01*
X107778571Y-76724271D02*
X107821429Y-76681414D01*
X107821429Y-76681414D02*
X107907143Y-76638557D01*
X108978572Y-76938557D02*
X108978572Y-77538557D01*
X108764286Y-76595700D02*
X108550000Y-77238557D01*
X108550000Y-77238557D02*
X109107143Y-77238557D01*
X130242857Y-87322842D02*
X130200000Y-87365700D01*
X130200000Y-87365700D02*
X130071428Y-87408557D01*
X130071428Y-87408557D02*
X129985714Y-87408557D01*
X129985714Y-87408557D02*
X129857143Y-87365700D01*
X129857143Y-87365700D02*
X129771428Y-87279985D01*
X129771428Y-87279985D02*
X129728571Y-87194271D01*
X129728571Y-87194271D02*
X129685714Y-87022842D01*
X129685714Y-87022842D02*
X129685714Y-86894271D01*
X129685714Y-86894271D02*
X129728571Y-86722842D01*
X129728571Y-86722842D02*
X129771428Y-86637128D01*
X129771428Y-86637128D02*
X129857143Y-86551414D01*
X129857143Y-86551414D02*
X129985714Y-86508557D01*
X129985714Y-86508557D02*
X130071428Y-86508557D01*
X130071428Y-86508557D02*
X130200000Y-86551414D01*
X130200000Y-86551414D02*
X130242857Y-86594271D01*
X131014286Y-86808557D02*
X131014286Y-87408557D01*
X130800000Y-86465700D02*
X130585714Y-87108557D01*
X130585714Y-87108557D02*
X131142857Y-87108557D01*
X131657143Y-86508557D02*
X131742857Y-86508557D01*
X131742857Y-86508557D02*
X131828571Y-86551414D01*
X131828571Y-86551414D02*
X131871429Y-86594271D01*
X131871429Y-86594271D02*
X131914286Y-86679985D01*
X131914286Y-86679985D02*
X131957143Y-86851414D01*
X131957143Y-86851414D02*
X131957143Y-87065700D01*
X131957143Y-87065700D02*
X131914286Y-87237128D01*
X131914286Y-87237128D02*
X131871429Y-87322842D01*
X131871429Y-87322842D02*
X131828571Y-87365700D01*
X131828571Y-87365700D02*
X131742857Y-87408557D01*
X131742857Y-87408557D02*
X131657143Y-87408557D01*
X131657143Y-87408557D02*
X131571429Y-87365700D01*
X131571429Y-87365700D02*
X131528571Y-87322842D01*
X131528571Y-87322842D02*
X131485714Y-87237128D01*
X131485714Y-87237128D02*
X131442857Y-87065700D01*
X131442857Y-87065700D02*
X131442857Y-86851414D01*
X131442857Y-86851414D02*
X131485714Y-86679985D01*
X131485714Y-86679985D02*
X131528571Y-86594271D01*
X131528571Y-86594271D02*
X131571429Y-86551414D01*
X131571429Y-86551414D02*
X131657143Y-86508557D01*
X132771429Y-86508557D02*
X132342857Y-86508557D01*
X132342857Y-86508557D02*
X132300000Y-86937128D01*
X132300000Y-86937128D02*
X132342857Y-86894271D01*
X132342857Y-86894271D02*
X132428572Y-86851414D01*
X132428572Y-86851414D02*
X132642857Y-86851414D01*
X132642857Y-86851414D02*
X132728572Y-86894271D01*
X132728572Y-86894271D02*
X132771429Y-86937128D01*
X132771429Y-86937128D02*
X132814286Y-87022842D01*
X132814286Y-87022842D02*
X132814286Y-87237128D01*
X132814286Y-87237128D02*
X132771429Y-87322842D01*
X132771429Y-87322842D02*
X132728572Y-87365700D01*
X132728572Y-87365700D02*
X132642857Y-87408557D01*
X132642857Y-87408557D02*
X132428572Y-87408557D01*
X132428572Y-87408557D02*
X132342857Y-87365700D01*
X132342857Y-87365700D02*
X132300000Y-87322842D01*
X138842857Y-77318557D02*
X138842857Y-77961414D01*
X138842857Y-77961414D02*
X138800000Y-78089985D01*
X138800000Y-78089985D02*
X138714286Y-78175700D01*
X138714286Y-78175700D02*
X138585714Y-78218557D01*
X138585714Y-78218557D02*
X138500000Y-78218557D01*
X139742857Y-78218557D02*
X139228571Y-78218557D01*
X139485714Y-78218557D02*
X139485714Y-77318557D01*
X139485714Y-77318557D02*
X139400000Y-77447128D01*
X139400000Y-77447128D02*
X139314285Y-77532842D01*
X139314285Y-77532842D02*
X139228571Y-77575700D01*
X140300000Y-77318557D02*
X140385714Y-77318557D01*
X140385714Y-77318557D02*
X140471428Y-77361414D01*
X140471428Y-77361414D02*
X140514286Y-77404271D01*
X140514286Y-77404271D02*
X140557143Y-77489985D01*
X140557143Y-77489985D02*
X140600000Y-77661414D01*
X140600000Y-77661414D02*
X140600000Y-77875700D01*
X140600000Y-77875700D02*
X140557143Y-78047128D01*
X140557143Y-78047128D02*
X140514286Y-78132842D01*
X140514286Y-78132842D02*
X140471428Y-78175700D01*
X140471428Y-78175700D02*
X140385714Y-78218557D01*
X140385714Y-78218557D02*
X140300000Y-78218557D01*
X140300000Y-78218557D02*
X140214286Y-78175700D01*
X140214286Y-78175700D02*
X140171428Y-78132842D01*
X140171428Y-78132842D02*
X140128571Y-78047128D01*
X140128571Y-78047128D02*
X140085714Y-77875700D01*
X140085714Y-77875700D02*
X140085714Y-77661414D01*
X140085714Y-77661414D02*
X140128571Y-77489985D01*
X140128571Y-77489985D02*
X140171428Y-77404271D01*
X140171428Y-77404271D02*
X140214286Y-77361414D01*
X140214286Y-77361414D02*
X140300000Y-77318557D01*
X140900000Y-77318557D02*
X141457143Y-77318557D01*
X141457143Y-77318557D02*
X141157143Y-77661414D01*
X141157143Y-77661414D02*
X141285714Y-77661414D01*
X141285714Y-77661414D02*
X141371429Y-77704271D01*
X141371429Y-77704271D02*
X141414286Y-77747128D01*
X141414286Y-77747128D02*
X141457143Y-77832842D01*
X141457143Y-77832842D02*
X141457143Y-78047128D01*
X141457143Y-78047128D02*
X141414286Y-78132842D01*
X141414286Y-78132842D02*
X141371429Y-78175700D01*
X141371429Y-78175700D02*
X141285714Y-78218557D01*
X141285714Y-78218557D02*
X141028571Y-78218557D01*
X141028571Y-78218557D02*
X140942857Y-78175700D01*
X140942857Y-78175700D02*
X140900000Y-78132842D01*
X106492857Y-67538557D02*
X106192857Y-67109985D01*
X105978571Y-67538557D02*
X105978571Y-66638557D01*
X105978571Y-66638557D02*
X106321428Y-66638557D01*
X106321428Y-66638557D02*
X106407143Y-66681414D01*
X106407143Y-66681414D02*
X106450000Y-66724271D01*
X106450000Y-66724271D02*
X106492857Y-66809985D01*
X106492857Y-66809985D02*
X106492857Y-66938557D01*
X106492857Y-66938557D02*
X106450000Y-67024271D01*
X106450000Y-67024271D02*
X106407143Y-67067128D01*
X106407143Y-67067128D02*
X106321428Y-67109985D01*
X106321428Y-67109985D02*
X105978571Y-67109985D01*
X107264286Y-66938557D02*
X107264286Y-67538557D01*
X107050000Y-66595700D02*
X106835714Y-67238557D01*
X106835714Y-67238557D02*
X107392857Y-67238557D01*
X107907143Y-66638557D02*
X107992857Y-66638557D01*
X107992857Y-66638557D02*
X108078571Y-66681414D01*
X108078571Y-66681414D02*
X108121429Y-66724271D01*
X108121429Y-66724271D02*
X108164286Y-66809985D01*
X108164286Y-66809985D02*
X108207143Y-66981414D01*
X108207143Y-66981414D02*
X108207143Y-67195700D01*
X108207143Y-67195700D02*
X108164286Y-67367128D01*
X108164286Y-67367128D02*
X108121429Y-67452842D01*
X108121429Y-67452842D02*
X108078571Y-67495700D01*
X108078571Y-67495700D02*
X107992857Y-67538557D01*
X107992857Y-67538557D02*
X107907143Y-67538557D01*
X107907143Y-67538557D02*
X107821429Y-67495700D01*
X107821429Y-67495700D02*
X107778571Y-67452842D01*
X107778571Y-67452842D02*
X107735714Y-67367128D01*
X107735714Y-67367128D02*
X107692857Y-67195700D01*
X107692857Y-67195700D02*
X107692857Y-66981414D01*
X107692857Y-66981414D02*
X107735714Y-66809985D01*
X107735714Y-66809985D02*
X107778571Y-66724271D01*
X107778571Y-66724271D02*
X107821429Y-66681414D01*
X107821429Y-66681414D02*
X107907143Y-66638557D01*
X108507143Y-66638557D02*
X109064286Y-66638557D01*
X109064286Y-66638557D02*
X108764286Y-66981414D01*
X108764286Y-66981414D02*
X108892857Y-66981414D01*
X108892857Y-66981414D02*
X108978572Y-67024271D01*
X108978572Y-67024271D02*
X109021429Y-67067128D01*
X109021429Y-67067128D02*
X109064286Y-67152842D01*
X109064286Y-67152842D02*
X109064286Y-67367128D01*
X109064286Y-67367128D02*
X109021429Y-67452842D01*
X109021429Y-67452842D02*
X108978572Y-67495700D01*
X108978572Y-67495700D02*
X108892857Y-67538557D01*
X108892857Y-67538557D02*
X108635714Y-67538557D01*
X108635714Y-67538557D02*
X108550000Y-67495700D01*
X108550000Y-67495700D02*
X108507143Y-67452842D01*
X103842857Y-54858557D02*
X103842857Y-55501414D01*
X103842857Y-55501414D02*
X103800000Y-55629985D01*
X103800000Y-55629985D02*
X103714286Y-55715700D01*
X103714286Y-55715700D02*
X103585714Y-55758557D01*
X103585714Y-55758557D02*
X103500000Y-55758557D01*
X104742857Y-55758557D02*
X104228571Y-55758557D01*
X104485714Y-55758557D02*
X104485714Y-54858557D01*
X104485714Y-54858557D02*
X104400000Y-54987128D01*
X104400000Y-54987128D02*
X104314285Y-55072842D01*
X104314285Y-55072842D02*
X104228571Y-55115700D01*
X105300000Y-54858557D02*
X105385714Y-54858557D01*
X105385714Y-54858557D02*
X105471428Y-54901414D01*
X105471428Y-54901414D02*
X105514286Y-54944271D01*
X105514286Y-54944271D02*
X105557143Y-55029985D01*
X105557143Y-55029985D02*
X105600000Y-55201414D01*
X105600000Y-55201414D02*
X105600000Y-55415700D01*
X105600000Y-55415700D02*
X105557143Y-55587128D01*
X105557143Y-55587128D02*
X105514286Y-55672842D01*
X105514286Y-55672842D02*
X105471428Y-55715700D01*
X105471428Y-55715700D02*
X105385714Y-55758557D01*
X105385714Y-55758557D02*
X105300000Y-55758557D01*
X105300000Y-55758557D02*
X105214286Y-55715700D01*
X105214286Y-55715700D02*
X105171428Y-55672842D01*
X105171428Y-55672842D02*
X105128571Y-55587128D01*
X105128571Y-55587128D02*
X105085714Y-55415700D01*
X105085714Y-55415700D02*
X105085714Y-55201414D01*
X105085714Y-55201414D02*
X105128571Y-55029985D01*
X105128571Y-55029985D02*
X105171428Y-54944271D01*
X105171428Y-54944271D02*
X105214286Y-54901414D01*
X105214286Y-54901414D02*
X105300000Y-54858557D01*
X106457143Y-55758557D02*
X105942857Y-55758557D01*
X106200000Y-55758557D02*
X106200000Y-54858557D01*
X106200000Y-54858557D02*
X106114286Y-54987128D01*
X106114286Y-54987128D02*
X106028571Y-55072842D01*
X106028571Y-55072842D02*
X105942857Y-55115700D01*
X124492857Y-97922842D02*
X124450000Y-97965700D01*
X124450000Y-97965700D02*
X124321428Y-98008557D01*
X124321428Y-98008557D02*
X124235714Y-98008557D01*
X124235714Y-98008557D02*
X124107143Y-97965700D01*
X124107143Y-97965700D02*
X124021428Y-97879985D01*
X124021428Y-97879985D02*
X123978571Y-97794271D01*
X123978571Y-97794271D02*
X123935714Y-97622842D01*
X123935714Y-97622842D02*
X123935714Y-97494271D01*
X123935714Y-97494271D02*
X123978571Y-97322842D01*
X123978571Y-97322842D02*
X124021428Y-97237128D01*
X124021428Y-97237128D02*
X124107143Y-97151414D01*
X124107143Y-97151414D02*
X124235714Y-97108557D01*
X124235714Y-97108557D02*
X124321428Y-97108557D01*
X124321428Y-97108557D02*
X124450000Y-97151414D01*
X124450000Y-97151414D02*
X124492857Y-97194271D01*
X125264286Y-97408557D02*
X125264286Y-98008557D01*
X125050000Y-97065700D02*
X124835714Y-97708557D01*
X124835714Y-97708557D02*
X125392857Y-97708557D01*
X125907143Y-97108557D02*
X125992857Y-97108557D01*
X125992857Y-97108557D02*
X126078571Y-97151414D01*
X126078571Y-97151414D02*
X126121429Y-97194271D01*
X126121429Y-97194271D02*
X126164286Y-97279985D01*
X126164286Y-97279985D02*
X126207143Y-97451414D01*
X126207143Y-97451414D02*
X126207143Y-97665700D01*
X126207143Y-97665700D02*
X126164286Y-97837128D01*
X126164286Y-97837128D02*
X126121429Y-97922842D01*
X126121429Y-97922842D02*
X126078571Y-97965700D01*
X126078571Y-97965700D02*
X125992857Y-98008557D01*
X125992857Y-98008557D02*
X125907143Y-98008557D01*
X125907143Y-98008557D02*
X125821429Y-97965700D01*
X125821429Y-97965700D02*
X125778571Y-97922842D01*
X125778571Y-97922842D02*
X125735714Y-97837128D01*
X125735714Y-97837128D02*
X125692857Y-97665700D01*
X125692857Y-97665700D02*
X125692857Y-97451414D01*
X125692857Y-97451414D02*
X125735714Y-97279985D01*
X125735714Y-97279985D02*
X125778571Y-97194271D01*
X125778571Y-97194271D02*
X125821429Y-97151414D01*
X125821429Y-97151414D02*
X125907143Y-97108557D01*
X126635714Y-98008557D02*
X126807143Y-98008557D01*
X126807143Y-98008557D02*
X126892857Y-97965700D01*
X126892857Y-97965700D02*
X126935714Y-97922842D01*
X126935714Y-97922842D02*
X127021429Y-97794271D01*
X127021429Y-97794271D02*
X127064286Y-97622842D01*
X127064286Y-97622842D02*
X127064286Y-97279985D01*
X127064286Y-97279985D02*
X127021429Y-97194271D01*
X127021429Y-97194271D02*
X126978572Y-97151414D01*
X126978572Y-97151414D02*
X126892857Y-97108557D01*
X126892857Y-97108557D02*
X126721429Y-97108557D01*
X126721429Y-97108557D02*
X126635714Y-97151414D01*
X126635714Y-97151414D02*
X126592857Y-97194271D01*
X126592857Y-97194271D02*
X126550000Y-97279985D01*
X126550000Y-97279985D02*
X126550000Y-97494271D01*
X126550000Y-97494271D02*
X126592857Y-97579985D01*
X126592857Y-97579985D02*
X126635714Y-97622842D01*
X126635714Y-97622842D02*
X126721429Y-97665700D01*
X126721429Y-97665700D02*
X126892857Y-97665700D01*
X126892857Y-97665700D02*
X126978572Y-97622842D01*
X126978572Y-97622842D02*
X127021429Y-97579985D01*
X127021429Y-97579985D02*
X127064286Y-97494271D01*
X82492857Y-64822842D02*
X82450000Y-64865700D01*
X82450000Y-64865700D02*
X82321428Y-64908557D01*
X82321428Y-64908557D02*
X82235714Y-64908557D01*
X82235714Y-64908557D02*
X82107143Y-64865700D01*
X82107143Y-64865700D02*
X82021428Y-64779985D01*
X82021428Y-64779985D02*
X81978571Y-64694271D01*
X81978571Y-64694271D02*
X81935714Y-64522842D01*
X81935714Y-64522842D02*
X81935714Y-64394271D01*
X81935714Y-64394271D02*
X81978571Y-64222842D01*
X81978571Y-64222842D02*
X82021428Y-64137128D01*
X82021428Y-64137128D02*
X82107143Y-64051414D01*
X82107143Y-64051414D02*
X82235714Y-64008557D01*
X82235714Y-64008557D02*
X82321428Y-64008557D01*
X82321428Y-64008557D02*
X82450000Y-64051414D01*
X82450000Y-64051414D02*
X82492857Y-64094271D01*
X83264286Y-64308557D02*
X83264286Y-64908557D01*
X83050000Y-63965700D02*
X82835714Y-64608557D01*
X82835714Y-64608557D02*
X83392857Y-64608557D01*
X83907143Y-64008557D02*
X83992857Y-64008557D01*
X83992857Y-64008557D02*
X84078571Y-64051414D01*
X84078571Y-64051414D02*
X84121429Y-64094271D01*
X84121429Y-64094271D02*
X84164286Y-64179985D01*
X84164286Y-64179985D02*
X84207143Y-64351414D01*
X84207143Y-64351414D02*
X84207143Y-64565700D01*
X84207143Y-64565700D02*
X84164286Y-64737128D01*
X84164286Y-64737128D02*
X84121429Y-64822842D01*
X84121429Y-64822842D02*
X84078571Y-64865700D01*
X84078571Y-64865700D02*
X83992857Y-64908557D01*
X83992857Y-64908557D02*
X83907143Y-64908557D01*
X83907143Y-64908557D02*
X83821429Y-64865700D01*
X83821429Y-64865700D02*
X83778571Y-64822842D01*
X83778571Y-64822842D02*
X83735714Y-64737128D01*
X83735714Y-64737128D02*
X83692857Y-64565700D01*
X83692857Y-64565700D02*
X83692857Y-64351414D01*
X83692857Y-64351414D02*
X83735714Y-64179985D01*
X83735714Y-64179985D02*
X83778571Y-64094271D01*
X83778571Y-64094271D02*
X83821429Y-64051414D01*
X83821429Y-64051414D02*
X83907143Y-64008557D01*
X84978572Y-64308557D02*
X84978572Y-64908557D01*
X84764286Y-63965700D02*
X84550000Y-64608557D01*
X84550000Y-64608557D02*
X85107143Y-64608557D01*
X68992857Y-65422841D02*
X68950000Y-65465699D01*
X68950000Y-65465699D02*
X68821428Y-65508556D01*
X68821428Y-65508556D02*
X68735714Y-65508556D01*
X68735714Y-65508556D02*
X68607143Y-65465699D01*
X68607143Y-65465699D02*
X68521428Y-65379984D01*
X68521428Y-65379984D02*
X68478571Y-65294270D01*
X68478571Y-65294270D02*
X68435714Y-65122841D01*
X68435714Y-65122841D02*
X68435714Y-64994270D01*
X68435714Y-64994270D02*
X68478571Y-64822841D01*
X68478571Y-64822841D02*
X68521428Y-64737127D01*
X68521428Y-64737127D02*
X68607143Y-64651413D01*
X68607143Y-64651413D02*
X68735714Y-64608556D01*
X68735714Y-64608556D02*
X68821428Y-64608556D01*
X68821428Y-64608556D02*
X68950000Y-64651413D01*
X68950000Y-64651413D02*
X68992857Y-64694270D01*
X69764286Y-64908556D02*
X69764286Y-65508556D01*
X69550000Y-64565699D02*
X69335714Y-65208556D01*
X69335714Y-65208556D02*
X69892857Y-65208556D01*
X70407143Y-64608556D02*
X70492857Y-64608556D01*
X70492857Y-64608556D02*
X70578571Y-64651413D01*
X70578571Y-64651413D02*
X70621429Y-64694270D01*
X70621429Y-64694270D02*
X70664286Y-64779984D01*
X70664286Y-64779984D02*
X70707143Y-64951413D01*
X70707143Y-64951413D02*
X70707143Y-65165699D01*
X70707143Y-65165699D02*
X70664286Y-65337127D01*
X70664286Y-65337127D02*
X70621429Y-65422841D01*
X70621429Y-65422841D02*
X70578571Y-65465699D01*
X70578571Y-65465699D02*
X70492857Y-65508556D01*
X70492857Y-65508556D02*
X70407143Y-65508556D01*
X70407143Y-65508556D02*
X70321429Y-65465699D01*
X70321429Y-65465699D02*
X70278571Y-65422841D01*
X70278571Y-65422841D02*
X70235714Y-65337127D01*
X70235714Y-65337127D02*
X70192857Y-65165699D01*
X70192857Y-65165699D02*
X70192857Y-64951413D01*
X70192857Y-64951413D02*
X70235714Y-64779984D01*
X70235714Y-64779984D02*
X70278571Y-64694270D01*
X70278571Y-64694270D02*
X70321429Y-64651413D01*
X70321429Y-64651413D02*
X70407143Y-64608556D01*
X71564286Y-65508556D02*
X71050000Y-65508556D01*
X71307143Y-65508556D02*
X71307143Y-64608556D01*
X71307143Y-64608556D02*
X71221429Y-64737127D01*
X71221429Y-64737127D02*
X71135714Y-64822841D01*
X71135714Y-64822841D02*
X71050000Y-64865699D01*
X71492857Y-75038557D02*
X71192857Y-74609985D01*
X70978571Y-75038557D02*
X70978571Y-74138557D01*
X70978571Y-74138557D02*
X71321428Y-74138557D01*
X71321428Y-74138557D02*
X71407143Y-74181414D01*
X71407143Y-74181414D02*
X71450000Y-74224271D01*
X71450000Y-74224271D02*
X71492857Y-74309985D01*
X71492857Y-74309985D02*
X71492857Y-74438557D01*
X71492857Y-74438557D02*
X71450000Y-74524271D01*
X71450000Y-74524271D02*
X71407143Y-74567128D01*
X71407143Y-74567128D02*
X71321428Y-74609985D01*
X71321428Y-74609985D02*
X70978571Y-74609985D01*
X72264286Y-74438557D02*
X72264286Y-75038557D01*
X72050000Y-74095700D02*
X71835714Y-74738557D01*
X71835714Y-74738557D02*
X72392857Y-74738557D01*
X72907143Y-74138557D02*
X72992857Y-74138557D01*
X72992857Y-74138557D02*
X73078571Y-74181414D01*
X73078571Y-74181414D02*
X73121429Y-74224271D01*
X73121429Y-74224271D02*
X73164286Y-74309985D01*
X73164286Y-74309985D02*
X73207143Y-74481414D01*
X73207143Y-74481414D02*
X73207143Y-74695700D01*
X73207143Y-74695700D02*
X73164286Y-74867128D01*
X73164286Y-74867128D02*
X73121429Y-74952842D01*
X73121429Y-74952842D02*
X73078571Y-74995700D01*
X73078571Y-74995700D02*
X72992857Y-75038557D01*
X72992857Y-75038557D02*
X72907143Y-75038557D01*
X72907143Y-75038557D02*
X72821429Y-74995700D01*
X72821429Y-74995700D02*
X72778571Y-74952842D01*
X72778571Y-74952842D02*
X72735714Y-74867128D01*
X72735714Y-74867128D02*
X72692857Y-74695700D01*
X72692857Y-74695700D02*
X72692857Y-74481414D01*
X72692857Y-74481414D02*
X72735714Y-74309985D01*
X72735714Y-74309985D02*
X72778571Y-74224271D01*
X72778571Y-74224271D02*
X72821429Y-74181414D01*
X72821429Y-74181414D02*
X72907143Y-74138557D01*
X74064286Y-75038557D02*
X73550000Y-75038557D01*
X73807143Y-75038557D02*
X73807143Y-74138557D01*
X73807143Y-74138557D02*
X73721429Y-74267128D01*
X73721429Y-74267128D02*
X73635714Y-74352842D01*
X73635714Y-74352842D02*
X73550000Y-74395700D01*
X56342857Y-73588557D02*
X56342857Y-74231414D01*
X56342857Y-74231414D02*
X56300000Y-74359985D01*
X56300000Y-74359985D02*
X56214286Y-74445700D01*
X56214286Y-74445700D02*
X56085714Y-74488557D01*
X56085714Y-74488557D02*
X56000000Y-74488557D01*
X57242857Y-74488557D02*
X56728571Y-74488557D01*
X56985714Y-74488557D02*
X56985714Y-73588557D01*
X56985714Y-73588557D02*
X56900000Y-73717128D01*
X56900000Y-73717128D02*
X56814285Y-73802842D01*
X56814285Y-73802842D02*
X56728571Y-73845700D01*
X57800000Y-73588557D02*
X57885714Y-73588557D01*
X57885714Y-73588557D02*
X57971428Y-73631414D01*
X57971428Y-73631414D02*
X58014286Y-73674271D01*
X58014286Y-73674271D02*
X58057143Y-73759985D01*
X58057143Y-73759985D02*
X58100000Y-73931414D01*
X58100000Y-73931414D02*
X58100000Y-74145700D01*
X58100000Y-74145700D02*
X58057143Y-74317128D01*
X58057143Y-74317128D02*
X58014286Y-74402842D01*
X58014286Y-74402842D02*
X57971428Y-74445700D01*
X57971428Y-74445700D02*
X57885714Y-74488557D01*
X57885714Y-74488557D02*
X57800000Y-74488557D01*
X57800000Y-74488557D02*
X57714286Y-74445700D01*
X57714286Y-74445700D02*
X57671428Y-74402842D01*
X57671428Y-74402842D02*
X57628571Y-74317128D01*
X57628571Y-74317128D02*
X57585714Y-74145700D01*
X57585714Y-74145700D02*
X57585714Y-73931414D01*
X57585714Y-73931414D02*
X57628571Y-73759985D01*
X57628571Y-73759985D02*
X57671428Y-73674271D01*
X57671428Y-73674271D02*
X57714286Y-73631414D01*
X57714286Y-73631414D02*
X57800000Y-73588557D01*
X58442857Y-73674271D02*
X58485714Y-73631414D01*
X58485714Y-73631414D02*
X58571429Y-73588557D01*
X58571429Y-73588557D02*
X58785714Y-73588557D01*
X58785714Y-73588557D02*
X58871429Y-73631414D01*
X58871429Y-73631414D02*
X58914286Y-73674271D01*
X58914286Y-73674271D02*
X58957143Y-73759985D01*
X58957143Y-73759985D02*
X58957143Y-73845700D01*
X58957143Y-73845700D02*
X58914286Y-73974271D01*
X58914286Y-73974271D02*
X58400000Y-74488557D01*
X58400000Y-74488557D02*
X58957143Y-74488557D01*
X85957142Y-72868557D02*
X85957142Y-73597128D01*
X85957142Y-73597128D02*
X85999999Y-73682842D01*
X85999999Y-73682842D02*
X86042857Y-73725700D01*
X86042857Y-73725700D02*
X86128571Y-73768557D01*
X86128571Y-73768557D02*
X86299999Y-73768557D01*
X86299999Y-73768557D02*
X86385714Y-73725700D01*
X86385714Y-73725700D02*
X86428571Y-73682842D01*
X86428571Y-73682842D02*
X86471428Y-73597128D01*
X86471428Y-73597128D02*
X86471428Y-72868557D01*
X87285714Y-73168557D02*
X87285714Y-73768557D01*
X87071428Y-72825700D02*
X86857142Y-73468557D01*
X86857142Y-73468557D02*
X87414285Y-73468557D01*
X87928571Y-72868557D02*
X88014285Y-72868557D01*
X88014285Y-72868557D02*
X88099999Y-72911414D01*
X88099999Y-72911414D02*
X88142857Y-72954271D01*
X88142857Y-72954271D02*
X88185714Y-73039985D01*
X88185714Y-73039985D02*
X88228571Y-73211414D01*
X88228571Y-73211414D02*
X88228571Y-73425700D01*
X88228571Y-73425700D02*
X88185714Y-73597128D01*
X88185714Y-73597128D02*
X88142857Y-73682842D01*
X88142857Y-73682842D02*
X88099999Y-73725700D01*
X88099999Y-73725700D02*
X88014285Y-73768557D01*
X88014285Y-73768557D02*
X87928571Y-73768557D01*
X87928571Y-73768557D02*
X87842857Y-73725700D01*
X87842857Y-73725700D02*
X87799999Y-73682842D01*
X87799999Y-73682842D02*
X87757142Y-73597128D01*
X87757142Y-73597128D02*
X87714285Y-73425700D01*
X87714285Y-73425700D02*
X87714285Y-73211414D01*
X87714285Y-73211414D02*
X87757142Y-73039985D01*
X87757142Y-73039985D02*
X87799999Y-72954271D01*
X87799999Y-72954271D02*
X87842857Y-72911414D01*
X87842857Y-72911414D02*
X87928571Y-72868557D01*
X89085714Y-73768557D02*
X88571428Y-73768557D01*
X88828571Y-73768557D02*
X88828571Y-72868557D01*
X88828571Y-72868557D02*
X88742857Y-72997128D01*
X88742857Y-72997128D02*
X88657142Y-73082842D01*
X88657142Y-73082842D02*
X88571428Y-73125700D01*
X131492857Y-100038557D02*
X131192857Y-99609985D01*
X130978571Y-100038557D02*
X130978571Y-99138557D01*
X130978571Y-99138557D02*
X131321428Y-99138557D01*
X131321428Y-99138557D02*
X131407143Y-99181414D01*
X131407143Y-99181414D02*
X131450000Y-99224271D01*
X131450000Y-99224271D02*
X131492857Y-99309985D01*
X131492857Y-99309985D02*
X131492857Y-99438557D01*
X131492857Y-99438557D02*
X131450000Y-99524271D01*
X131450000Y-99524271D02*
X131407143Y-99567128D01*
X131407143Y-99567128D02*
X131321428Y-99609985D01*
X131321428Y-99609985D02*
X130978571Y-99609985D01*
X132264286Y-99438557D02*
X132264286Y-100038557D01*
X132050000Y-99095700D02*
X131835714Y-99738557D01*
X131835714Y-99738557D02*
X132392857Y-99738557D01*
X133207143Y-100038557D02*
X132692857Y-100038557D01*
X132950000Y-100038557D02*
X132950000Y-99138557D01*
X132950000Y-99138557D02*
X132864286Y-99267128D01*
X132864286Y-99267128D02*
X132778571Y-99352842D01*
X132778571Y-99352842D02*
X132692857Y-99395700D01*
X134064286Y-100038557D02*
X133550000Y-100038557D01*
X133807143Y-100038557D02*
X133807143Y-99138557D01*
X133807143Y-99138557D02*
X133721429Y-99267128D01*
X133721429Y-99267128D02*
X133635714Y-99352842D01*
X133635714Y-99352842D02*
X133550000Y-99395700D01*
X128992857Y-65038556D02*
X128692857Y-64609984D01*
X128478571Y-65038556D02*
X128478571Y-64138556D01*
X128478571Y-64138556D02*
X128821428Y-64138556D01*
X128821428Y-64138556D02*
X128907143Y-64181413D01*
X128907143Y-64181413D02*
X128950000Y-64224270D01*
X128950000Y-64224270D02*
X128992857Y-64309984D01*
X128992857Y-64309984D02*
X128992857Y-64438556D01*
X128992857Y-64438556D02*
X128950000Y-64524270D01*
X128950000Y-64524270D02*
X128907143Y-64567127D01*
X128907143Y-64567127D02*
X128821428Y-64609984D01*
X128821428Y-64609984D02*
X128478571Y-64609984D01*
X129764286Y-64438556D02*
X129764286Y-65038556D01*
X129550000Y-64095699D02*
X129335714Y-64738556D01*
X129335714Y-64738556D02*
X129892857Y-64738556D01*
X130407143Y-64138556D02*
X130492857Y-64138556D01*
X130492857Y-64138556D02*
X130578571Y-64181413D01*
X130578571Y-64181413D02*
X130621429Y-64224270D01*
X130621429Y-64224270D02*
X130664286Y-64309984D01*
X130664286Y-64309984D02*
X130707143Y-64481413D01*
X130707143Y-64481413D02*
X130707143Y-64695699D01*
X130707143Y-64695699D02*
X130664286Y-64867127D01*
X130664286Y-64867127D02*
X130621429Y-64952841D01*
X130621429Y-64952841D02*
X130578571Y-64995699D01*
X130578571Y-64995699D02*
X130492857Y-65038556D01*
X130492857Y-65038556D02*
X130407143Y-65038556D01*
X130407143Y-65038556D02*
X130321429Y-64995699D01*
X130321429Y-64995699D02*
X130278571Y-64952841D01*
X130278571Y-64952841D02*
X130235714Y-64867127D01*
X130235714Y-64867127D02*
X130192857Y-64695699D01*
X130192857Y-64695699D02*
X130192857Y-64481413D01*
X130192857Y-64481413D02*
X130235714Y-64309984D01*
X130235714Y-64309984D02*
X130278571Y-64224270D01*
X130278571Y-64224270D02*
X130321429Y-64181413D01*
X130321429Y-64181413D02*
X130407143Y-64138556D01*
X131007143Y-64138556D02*
X131607143Y-64138556D01*
X131607143Y-64138556D02*
X131221429Y-65038556D01*
X71492857Y-95038557D02*
X71192857Y-94609985D01*
X70978571Y-95038557D02*
X70978571Y-94138557D01*
X70978571Y-94138557D02*
X71321428Y-94138557D01*
X71321428Y-94138557D02*
X71407143Y-94181414D01*
X71407143Y-94181414D02*
X71450000Y-94224271D01*
X71450000Y-94224271D02*
X71492857Y-94309985D01*
X71492857Y-94309985D02*
X71492857Y-94438557D01*
X71492857Y-94438557D02*
X71450000Y-94524271D01*
X71450000Y-94524271D02*
X71407143Y-94567128D01*
X71407143Y-94567128D02*
X71321428Y-94609985D01*
X71321428Y-94609985D02*
X70978571Y-94609985D01*
X72264286Y-94438557D02*
X72264286Y-95038557D01*
X72050000Y-94095700D02*
X71835714Y-94738557D01*
X71835714Y-94738557D02*
X72392857Y-94738557D01*
X72907143Y-94138557D02*
X72992857Y-94138557D01*
X72992857Y-94138557D02*
X73078571Y-94181414D01*
X73078571Y-94181414D02*
X73121429Y-94224271D01*
X73121429Y-94224271D02*
X73164286Y-94309985D01*
X73164286Y-94309985D02*
X73207143Y-94481414D01*
X73207143Y-94481414D02*
X73207143Y-94695700D01*
X73207143Y-94695700D02*
X73164286Y-94867128D01*
X73164286Y-94867128D02*
X73121429Y-94952842D01*
X73121429Y-94952842D02*
X73078571Y-94995700D01*
X73078571Y-94995700D02*
X72992857Y-95038557D01*
X72992857Y-95038557D02*
X72907143Y-95038557D01*
X72907143Y-95038557D02*
X72821429Y-94995700D01*
X72821429Y-94995700D02*
X72778571Y-94952842D01*
X72778571Y-94952842D02*
X72735714Y-94867128D01*
X72735714Y-94867128D02*
X72692857Y-94695700D01*
X72692857Y-94695700D02*
X72692857Y-94481414D01*
X72692857Y-94481414D02*
X72735714Y-94309985D01*
X72735714Y-94309985D02*
X72778571Y-94224271D01*
X72778571Y-94224271D02*
X72821429Y-94181414D01*
X72821429Y-94181414D02*
X72907143Y-94138557D01*
X73550000Y-94224271D02*
X73592857Y-94181414D01*
X73592857Y-94181414D02*
X73678572Y-94138557D01*
X73678572Y-94138557D02*
X73892857Y-94138557D01*
X73892857Y-94138557D02*
X73978572Y-94181414D01*
X73978572Y-94181414D02*
X74021429Y-94224271D01*
X74021429Y-94224271D02*
X74064286Y-94309985D01*
X74064286Y-94309985D02*
X74064286Y-94395700D01*
X74064286Y-94395700D02*
X74021429Y-94524271D01*
X74021429Y-94524271D02*
X73507143Y-95038557D01*
X73507143Y-95038557D02*
X74064286Y-95038557D01*
X115957142Y-85368557D02*
X115957142Y-86097128D01*
X115957142Y-86097128D02*
X115999999Y-86182842D01*
X115999999Y-86182842D02*
X116042857Y-86225700D01*
X116042857Y-86225700D02*
X116128571Y-86268557D01*
X116128571Y-86268557D02*
X116299999Y-86268557D01*
X116299999Y-86268557D02*
X116385714Y-86225700D01*
X116385714Y-86225700D02*
X116428571Y-86182842D01*
X116428571Y-86182842D02*
X116471428Y-86097128D01*
X116471428Y-86097128D02*
X116471428Y-85368557D01*
X117285714Y-85668557D02*
X117285714Y-86268557D01*
X117071428Y-85325700D02*
X116857142Y-85968557D01*
X116857142Y-85968557D02*
X117414285Y-85968557D01*
X117928571Y-85368557D02*
X118014285Y-85368557D01*
X118014285Y-85368557D02*
X118099999Y-85411414D01*
X118099999Y-85411414D02*
X118142857Y-85454271D01*
X118142857Y-85454271D02*
X118185714Y-85539985D01*
X118185714Y-85539985D02*
X118228571Y-85711414D01*
X118228571Y-85711414D02*
X118228571Y-85925700D01*
X118228571Y-85925700D02*
X118185714Y-86097128D01*
X118185714Y-86097128D02*
X118142857Y-86182842D01*
X118142857Y-86182842D02*
X118099999Y-86225700D01*
X118099999Y-86225700D02*
X118014285Y-86268557D01*
X118014285Y-86268557D02*
X117928571Y-86268557D01*
X117928571Y-86268557D02*
X117842857Y-86225700D01*
X117842857Y-86225700D02*
X117799999Y-86182842D01*
X117799999Y-86182842D02*
X117757142Y-86097128D01*
X117757142Y-86097128D02*
X117714285Y-85925700D01*
X117714285Y-85925700D02*
X117714285Y-85711414D01*
X117714285Y-85711414D02*
X117757142Y-85539985D01*
X117757142Y-85539985D02*
X117799999Y-85454271D01*
X117799999Y-85454271D02*
X117842857Y-85411414D01*
X117842857Y-85411414D02*
X117928571Y-85368557D01*
X118571428Y-85454271D02*
X118614285Y-85411414D01*
X118614285Y-85411414D02*
X118700000Y-85368557D01*
X118700000Y-85368557D02*
X118914285Y-85368557D01*
X118914285Y-85368557D02*
X119000000Y-85411414D01*
X119000000Y-85411414D02*
X119042857Y-85454271D01*
X119042857Y-85454271D02*
X119085714Y-85539985D01*
X119085714Y-85539985D02*
X119085714Y-85625700D01*
X119085714Y-85625700D02*
X119042857Y-85754271D01*
X119042857Y-85754271D02*
X118528571Y-86268557D01*
X118528571Y-86268557D02*
X119085714Y-86268557D01*
X103992857Y-110038557D02*
X103692857Y-109609985D01*
X103478571Y-110038557D02*
X103478571Y-109138557D01*
X103478571Y-109138557D02*
X103821428Y-109138557D01*
X103821428Y-109138557D02*
X103907143Y-109181414D01*
X103907143Y-109181414D02*
X103950000Y-109224271D01*
X103950000Y-109224271D02*
X103992857Y-109309985D01*
X103992857Y-109309985D02*
X103992857Y-109438557D01*
X103992857Y-109438557D02*
X103950000Y-109524271D01*
X103950000Y-109524271D02*
X103907143Y-109567128D01*
X103907143Y-109567128D02*
X103821428Y-109609985D01*
X103821428Y-109609985D02*
X103478571Y-109609985D01*
X104764286Y-109438557D02*
X104764286Y-110038557D01*
X104550000Y-109095700D02*
X104335714Y-109738557D01*
X104335714Y-109738557D02*
X104892857Y-109738557D01*
X105407143Y-109138557D02*
X105492857Y-109138557D01*
X105492857Y-109138557D02*
X105578571Y-109181414D01*
X105578571Y-109181414D02*
X105621429Y-109224271D01*
X105621429Y-109224271D02*
X105664286Y-109309985D01*
X105664286Y-109309985D02*
X105707143Y-109481414D01*
X105707143Y-109481414D02*
X105707143Y-109695700D01*
X105707143Y-109695700D02*
X105664286Y-109867128D01*
X105664286Y-109867128D02*
X105621429Y-109952842D01*
X105621429Y-109952842D02*
X105578571Y-109995700D01*
X105578571Y-109995700D02*
X105492857Y-110038557D01*
X105492857Y-110038557D02*
X105407143Y-110038557D01*
X105407143Y-110038557D02*
X105321429Y-109995700D01*
X105321429Y-109995700D02*
X105278571Y-109952842D01*
X105278571Y-109952842D02*
X105235714Y-109867128D01*
X105235714Y-109867128D02*
X105192857Y-109695700D01*
X105192857Y-109695700D02*
X105192857Y-109481414D01*
X105192857Y-109481414D02*
X105235714Y-109309985D01*
X105235714Y-109309985D02*
X105278571Y-109224271D01*
X105278571Y-109224271D02*
X105321429Y-109181414D01*
X105321429Y-109181414D02*
X105407143Y-109138557D01*
X106521429Y-109138557D02*
X106092857Y-109138557D01*
X106092857Y-109138557D02*
X106050000Y-109567128D01*
X106050000Y-109567128D02*
X106092857Y-109524271D01*
X106092857Y-109524271D02*
X106178572Y-109481414D01*
X106178572Y-109481414D02*
X106392857Y-109481414D01*
X106392857Y-109481414D02*
X106478572Y-109524271D01*
X106478572Y-109524271D02*
X106521429Y-109567128D01*
X106521429Y-109567128D02*
X106564286Y-109652842D01*
X106564286Y-109652842D02*
X106564286Y-109867128D01*
X106564286Y-109867128D02*
X106521429Y-109952842D01*
X106521429Y-109952842D02*
X106478572Y-109995700D01*
X106478572Y-109995700D02*
X106392857Y-110038557D01*
X106392857Y-110038557D02*
X106178572Y-110038557D01*
X106178572Y-110038557D02*
X106092857Y-109995700D01*
X106092857Y-109995700D02*
X106050000Y-109952842D01*
X123492857Y-72538557D02*
X123192857Y-72109985D01*
X122978571Y-72538557D02*
X122978571Y-71638557D01*
X122978571Y-71638557D02*
X123321428Y-71638557D01*
X123321428Y-71638557D02*
X123407143Y-71681414D01*
X123407143Y-71681414D02*
X123450000Y-71724271D01*
X123450000Y-71724271D02*
X123492857Y-71809985D01*
X123492857Y-71809985D02*
X123492857Y-71938557D01*
X123492857Y-71938557D02*
X123450000Y-72024271D01*
X123450000Y-72024271D02*
X123407143Y-72067128D01*
X123407143Y-72067128D02*
X123321428Y-72109985D01*
X123321428Y-72109985D02*
X122978571Y-72109985D01*
X124264286Y-71938557D02*
X124264286Y-72538557D01*
X124050000Y-71595700D02*
X123835714Y-72238557D01*
X123835714Y-72238557D02*
X124392857Y-72238557D01*
X125207143Y-72538557D02*
X124692857Y-72538557D01*
X124950000Y-72538557D02*
X124950000Y-71638557D01*
X124950000Y-71638557D02*
X124864286Y-71767128D01*
X124864286Y-71767128D02*
X124778571Y-71852842D01*
X124778571Y-71852842D02*
X124692857Y-71895700D01*
X125764286Y-71638557D02*
X125850000Y-71638557D01*
X125850000Y-71638557D02*
X125935714Y-71681414D01*
X125935714Y-71681414D02*
X125978572Y-71724271D01*
X125978572Y-71724271D02*
X126021429Y-71809985D01*
X126021429Y-71809985D02*
X126064286Y-71981414D01*
X126064286Y-71981414D02*
X126064286Y-72195700D01*
X126064286Y-72195700D02*
X126021429Y-72367128D01*
X126021429Y-72367128D02*
X125978572Y-72452842D01*
X125978572Y-72452842D02*
X125935714Y-72495700D01*
X125935714Y-72495700D02*
X125850000Y-72538557D01*
X125850000Y-72538557D02*
X125764286Y-72538557D01*
X125764286Y-72538557D02*
X125678572Y-72495700D01*
X125678572Y-72495700D02*
X125635714Y-72452842D01*
X125635714Y-72452842D02*
X125592857Y-72367128D01*
X125592857Y-72367128D02*
X125550000Y-72195700D01*
X125550000Y-72195700D02*
X125550000Y-71981414D01*
X125550000Y-71981414D02*
X125592857Y-71809985D01*
X125592857Y-71809985D02*
X125635714Y-71724271D01*
X125635714Y-71724271D02*
X125678572Y-71681414D01*
X125678572Y-71681414D02*
X125764286Y-71638557D01*
X93992857Y-105422842D02*
X93950000Y-105465700D01*
X93950000Y-105465700D02*
X93821428Y-105508557D01*
X93821428Y-105508557D02*
X93735714Y-105508557D01*
X93735714Y-105508557D02*
X93607143Y-105465700D01*
X93607143Y-105465700D02*
X93521428Y-105379985D01*
X93521428Y-105379985D02*
X93478571Y-105294271D01*
X93478571Y-105294271D02*
X93435714Y-105122842D01*
X93435714Y-105122842D02*
X93435714Y-104994271D01*
X93435714Y-104994271D02*
X93478571Y-104822842D01*
X93478571Y-104822842D02*
X93521428Y-104737128D01*
X93521428Y-104737128D02*
X93607143Y-104651414D01*
X93607143Y-104651414D02*
X93735714Y-104608557D01*
X93735714Y-104608557D02*
X93821428Y-104608557D01*
X93821428Y-104608557D02*
X93950000Y-104651414D01*
X93950000Y-104651414D02*
X93992857Y-104694271D01*
X94764286Y-104908557D02*
X94764286Y-105508557D01*
X94550000Y-104565700D02*
X94335714Y-105208557D01*
X94335714Y-105208557D02*
X94892857Y-105208557D01*
X95407143Y-104608557D02*
X95492857Y-104608557D01*
X95492857Y-104608557D02*
X95578571Y-104651414D01*
X95578571Y-104651414D02*
X95621429Y-104694271D01*
X95621429Y-104694271D02*
X95664286Y-104779985D01*
X95664286Y-104779985D02*
X95707143Y-104951414D01*
X95707143Y-104951414D02*
X95707143Y-105165700D01*
X95707143Y-105165700D02*
X95664286Y-105337128D01*
X95664286Y-105337128D02*
X95621429Y-105422842D01*
X95621429Y-105422842D02*
X95578571Y-105465700D01*
X95578571Y-105465700D02*
X95492857Y-105508557D01*
X95492857Y-105508557D02*
X95407143Y-105508557D01*
X95407143Y-105508557D02*
X95321429Y-105465700D01*
X95321429Y-105465700D02*
X95278571Y-105422842D01*
X95278571Y-105422842D02*
X95235714Y-105337128D01*
X95235714Y-105337128D02*
X95192857Y-105165700D01*
X95192857Y-105165700D02*
X95192857Y-104951414D01*
X95192857Y-104951414D02*
X95235714Y-104779985D01*
X95235714Y-104779985D02*
X95278571Y-104694271D01*
X95278571Y-104694271D02*
X95321429Y-104651414D01*
X95321429Y-104651414D02*
X95407143Y-104608557D01*
X96007143Y-104608557D02*
X96564286Y-104608557D01*
X96564286Y-104608557D02*
X96264286Y-104951414D01*
X96264286Y-104951414D02*
X96392857Y-104951414D01*
X96392857Y-104951414D02*
X96478572Y-104994271D01*
X96478572Y-104994271D02*
X96521429Y-105037128D01*
X96521429Y-105037128D02*
X96564286Y-105122842D01*
X96564286Y-105122842D02*
X96564286Y-105337128D01*
X96564286Y-105337128D02*
X96521429Y-105422842D01*
X96521429Y-105422842D02*
X96478572Y-105465700D01*
X96478572Y-105465700D02*
X96392857Y-105508557D01*
X96392857Y-105508557D02*
X96135714Y-105508557D01*
X96135714Y-105508557D02*
X96050000Y-105465700D01*
X96050000Y-105465700D02*
X96007143Y-105422842D01*
X68992857Y-85422842D02*
X68950000Y-85465700D01*
X68950000Y-85465700D02*
X68821428Y-85508557D01*
X68821428Y-85508557D02*
X68735714Y-85508557D01*
X68735714Y-85508557D02*
X68607143Y-85465700D01*
X68607143Y-85465700D02*
X68521428Y-85379985D01*
X68521428Y-85379985D02*
X68478571Y-85294271D01*
X68478571Y-85294271D02*
X68435714Y-85122842D01*
X68435714Y-85122842D02*
X68435714Y-84994271D01*
X68435714Y-84994271D02*
X68478571Y-84822842D01*
X68478571Y-84822842D02*
X68521428Y-84737128D01*
X68521428Y-84737128D02*
X68607143Y-84651414D01*
X68607143Y-84651414D02*
X68735714Y-84608557D01*
X68735714Y-84608557D02*
X68821428Y-84608557D01*
X68821428Y-84608557D02*
X68950000Y-84651414D01*
X68950000Y-84651414D02*
X68992857Y-84694271D01*
X69764286Y-84908557D02*
X69764286Y-85508557D01*
X69550000Y-84565700D02*
X69335714Y-85208557D01*
X69335714Y-85208557D02*
X69892857Y-85208557D01*
X70407143Y-84608557D02*
X70492857Y-84608557D01*
X70492857Y-84608557D02*
X70578571Y-84651414D01*
X70578571Y-84651414D02*
X70621429Y-84694271D01*
X70621429Y-84694271D02*
X70664286Y-84779985D01*
X70664286Y-84779985D02*
X70707143Y-84951414D01*
X70707143Y-84951414D02*
X70707143Y-85165700D01*
X70707143Y-85165700D02*
X70664286Y-85337128D01*
X70664286Y-85337128D02*
X70621429Y-85422842D01*
X70621429Y-85422842D02*
X70578571Y-85465700D01*
X70578571Y-85465700D02*
X70492857Y-85508557D01*
X70492857Y-85508557D02*
X70407143Y-85508557D01*
X70407143Y-85508557D02*
X70321429Y-85465700D01*
X70321429Y-85465700D02*
X70278571Y-85422842D01*
X70278571Y-85422842D02*
X70235714Y-85337128D01*
X70235714Y-85337128D02*
X70192857Y-85165700D01*
X70192857Y-85165700D02*
X70192857Y-84951414D01*
X70192857Y-84951414D02*
X70235714Y-84779985D01*
X70235714Y-84779985D02*
X70278571Y-84694271D01*
X70278571Y-84694271D02*
X70321429Y-84651414D01*
X70321429Y-84651414D02*
X70407143Y-84608557D01*
X71050000Y-84694271D02*
X71092857Y-84651414D01*
X71092857Y-84651414D02*
X71178572Y-84608557D01*
X71178572Y-84608557D02*
X71392857Y-84608557D01*
X71392857Y-84608557D02*
X71478572Y-84651414D01*
X71478572Y-84651414D02*
X71521429Y-84694271D01*
X71521429Y-84694271D02*
X71564286Y-84779985D01*
X71564286Y-84779985D02*
X71564286Y-84865700D01*
X71564286Y-84865700D02*
X71521429Y-84994271D01*
X71521429Y-84994271D02*
X71007143Y-85508557D01*
X71007143Y-85508557D02*
X71564286Y-85508557D01*
X121492857Y-120538557D02*
X121192857Y-120109985D01*
X120978571Y-120538557D02*
X120978571Y-119638557D01*
X120978571Y-119638557D02*
X121321428Y-119638557D01*
X121321428Y-119638557D02*
X121407143Y-119681414D01*
X121407143Y-119681414D02*
X121450000Y-119724271D01*
X121450000Y-119724271D02*
X121492857Y-119809985D01*
X121492857Y-119809985D02*
X121492857Y-119938557D01*
X121492857Y-119938557D02*
X121450000Y-120024271D01*
X121450000Y-120024271D02*
X121407143Y-120067128D01*
X121407143Y-120067128D02*
X121321428Y-120109985D01*
X121321428Y-120109985D02*
X120978571Y-120109985D01*
X122264286Y-119938557D02*
X122264286Y-120538557D01*
X122050000Y-119595700D02*
X121835714Y-120238557D01*
X121835714Y-120238557D02*
X122392857Y-120238557D01*
X123207143Y-120538557D02*
X122692857Y-120538557D01*
X122950000Y-120538557D02*
X122950000Y-119638557D01*
X122950000Y-119638557D02*
X122864286Y-119767128D01*
X122864286Y-119767128D02*
X122778571Y-119852842D01*
X122778571Y-119852842D02*
X122692857Y-119895700D01*
X123550000Y-119724271D02*
X123592857Y-119681414D01*
X123592857Y-119681414D02*
X123678572Y-119638557D01*
X123678572Y-119638557D02*
X123892857Y-119638557D01*
X123892857Y-119638557D02*
X123978572Y-119681414D01*
X123978572Y-119681414D02*
X124021429Y-119724271D01*
X124021429Y-119724271D02*
X124064286Y-119809985D01*
X124064286Y-119809985D02*
X124064286Y-119895700D01*
X124064286Y-119895700D02*
X124021429Y-120024271D01*
X124021429Y-120024271D02*
X123507143Y-120538557D01*
X123507143Y-120538557D02*
X124064286Y-120538557D01*
X118992857Y-62922842D02*
X118950000Y-62965700D01*
X118950000Y-62965700D02*
X118821428Y-63008557D01*
X118821428Y-63008557D02*
X118735714Y-63008557D01*
X118735714Y-63008557D02*
X118607143Y-62965700D01*
X118607143Y-62965700D02*
X118521428Y-62879985D01*
X118521428Y-62879985D02*
X118478571Y-62794271D01*
X118478571Y-62794271D02*
X118435714Y-62622842D01*
X118435714Y-62622842D02*
X118435714Y-62494271D01*
X118435714Y-62494271D02*
X118478571Y-62322842D01*
X118478571Y-62322842D02*
X118521428Y-62237128D01*
X118521428Y-62237128D02*
X118607143Y-62151414D01*
X118607143Y-62151414D02*
X118735714Y-62108557D01*
X118735714Y-62108557D02*
X118821428Y-62108557D01*
X118821428Y-62108557D02*
X118950000Y-62151414D01*
X118950000Y-62151414D02*
X118992857Y-62194271D01*
X119764286Y-62408557D02*
X119764286Y-63008557D01*
X119550000Y-62065700D02*
X119335714Y-62708557D01*
X119335714Y-62708557D02*
X119892857Y-62708557D01*
X120407143Y-62108557D02*
X120492857Y-62108557D01*
X120492857Y-62108557D02*
X120578571Y-62151414D01*
X120578571Y-62151414D02*
X120621429Y-62194271D01*
X120621429Y-62194271D02*
X120664286Y-62279985D01*
X120664286Y-62279985D02*
X120707143Y-62451414D01*
X120707143Y-62451414D02*
X120707143Y-62665700D01*
X120707143Y-62665700D02*
X120664286Y-62837128D01*
X120664286Y-62837128D02*
X120621429Y-62922842D01*
X120621429Y-62922842D02*
X120578571Y-62965700D01*
X120578571Y-62965700D02*
X120492857Y-63008557D01*
X120492857Y-63008557D02*
X120407143Y-63008557D01*
X120407143Y-63008557D02*
X120321429Y-62965700D01*
X120321429Y-62965700D02*
X120278571Y-62922842D01*
X120278571Y-62922842D02*
X120235714Y-62837128D01*
X120235714Y-62837128D02*
X120192857Y-62665700D01*
X120192857Y-62665700D02*
X120192857Y-62451414D01*
X120192857Y-62451414D02*
X120235714Y-62279985D01*
X120235714Y-62279985D02*
X120278571Y-62194271D01*
X120278571Y-62194271D02*
X120321429Y-62151414D01*
X120321429Y-62151414D02*
X120407143Y-62108557D01*
X121007143Y-62108557D02*
X121607143Y-62108557D01*
X121607143Y-62108557D02*
X121221429Y-63008557D01*
X70392856Y-54937128D02*
X70092856Y-54937128D01*
X70092856Y-55408557D02*
X70092856Y-54508557D01*
X70092856Y-54508557D02*
X70521428Y-54508557D01*
X71164285Y-54937128D02*
X71292857Y-54979985D01*
X71292857Y-54979985D02*
X71335714Y-55022842D01*
X71335714Y-55022842D02*
X71378571Y-55108557D01*
X71378571Y-55108557D02*
X71378571Y-55237128D01*
X71378571Y-55237128D02*
X71335714Y-55322842D01*
X71335714Y-55322842D02*
X71292857Y-55365700D01*
X71292857Y-55365700D02*
X71207142Y-55408557D01*
X71207142Y-55408557D02*
X70864285Y-55408557D01*
X70864285Y-55408557D02*
X70864285Y-54508557D01*
X70864285Y-54508557D02*
X71164285Y-54508557D01*
X71164285Y-54508557D02*
X71250000Y-54551414D01*
X71250000Y-54551414D02*
X71292857Y-54594271D01*
X71292857Y-54594271D02*
X71335714Y-54679985D01*
X71335714Y-54679985D02*
X71335714Y-54765700D01*
X71335714Y-54765700D02*
X71292857Y-54851414D01*
X71292857Y-54851414D02*
X71250000Y-54894271D01*
X71250000Y-54894271D02*
X71164285Y-54937128D01*
X71164285Y-54937128D02*
X70864285Y-54937128D01*
X72235714Y-55408557D02*
X71721428Y-55408557D01*
X71978571Y-55408557D02*
X71978571Y-54508557D01*
X71978571Y-54508557D02*
X71892857Y-54637128D01*
X71892857Y-54637128D02*
X71807142Y-54722842D01*
X71807142Y-54722842D02*
X71721428Y-54765700D01*
X72792857Y-54508557D02*
X72878571Y-54508557D01*
X72878571Y-54508557D02*
X72964285Y-54551414D01*
X72964285Y-54551414D02*
X73007143Y-54594271D01*
X73007143Y-54594271D02*
X73050000Y-54679985D01*
X73050000Y-54679985D02*
X73092857Y-54851414D01*
X73092857Y-54851414D02*
X73092857Y-55065700D01*
X73092857Y-55065700D02*
X73050000Y-55237128D01*
X73050000Y-55237128D02*
X73007143Y-55322842D01*
X73007143Y-55322842D02*
X72964285Y-55365700D01*
X72964285Y-55365700D02*
X72878571Y-55408557D01*
X72878571Y-55408557D02*
X72792857Y-55408557D01*
X72792857Y-55408557D02*
X72707143Y-55365700D01*
X72707143Y-55365700D02*
X72664285Y-55322842D01*
X72664285Y-55322842D02*
X72621428Y-55237128D01*
X72621428Y-55237128D02*
X72578571Y-55065700D01*
X72578571Y-55065700D02*
X72578571Y-54851414D01*
X72578571Y-54851414D02*
X72621428Y-54679985D01*
X72621428Y-54679985D02*
X72664285Y-54594271D01*
X72664285Y-54594271D02*
X72707143Y-54551414D01*
X72707143Y-54551414D02*
X72792857Y-54508557D01*
X73950000Y-55408557D02*
X73435714Y-55408557D01*
X73692857Y-55408557D02*
X73692857Y-54508557D01*
X73692857Y-54508557D02*
X73607143Y-54637128D01*
X73607143Y-54637128D02*
X73521428Y-54722842D01*
X73521428Y-54722842D02*
X73435714Y-54765700D01*
X129992857Y-77538557D02*
X129692857Y-77109985D01*
X129478571Y-77538557D02*
X129478571Y-76638557D01*
X129478571Y-76638557D02*
X129821428Y-76638557D01*
X129821428Y-76638557D02*
X129907143Y-76681414D01*
X129907143Y-76681414D02*
X129950000Y-76724271D01*
X129950000Y-76724271D02*
X129992857Y-76809985D01*
X129992857Y-76809985D02*
X129992857Y-76938557D01*
X129992857Y-76938557D02*
X129950000Y-77024271D01*
X129950000Y-77024271D02*
X129907143Y-77067128D01*
X129907143Y-77067128D02*
X129821428Y-77109985D01*
X129821428Y-77109985D02*
X129478571Y-77109985D01*
X130764286Y-76938557D02*
X130764286Y-77538557D01*
X130550000Y-76595700D02*
X130335714Y-77238557D01*
X130335714Y-77238557D02*
X130892857Y-77238557D01*
X131407143Y-76638557D02*
X131492857Y-76638557D01*
X131492857Y-76638557D02*
X131578571Y-76681414D01*
X131578571Y-76681414D02*
X131621429Y-76724271D01*
X131621429Y-76724271D02*
X131664286Y-76809985D01*
X131664286Y-76809985D02*
X131707143Y-76981414D01*
X131707143Y-76981414D02*
X131707143Y-77195700D01*
X131707143Y-77195700D02*
X131664286Y-77367128D01*
X131664286Y-77367128D02*
X131621429Y-77452842D01*
X131621429Y-77452842D02*
X131578571Y-77495700D01*
X131578571Y-77495700D02*
X131492857Y-77538557D01*
X131492857Y-77538557D02*
X131407143Y-77538557D01*
X131407143Y-77538557D02*
X131321429Y-77495700D01*
X131321429Y-77495700D02*
X131278571Y-77452842D01*
X131278571Y-77452842D02*
X131235714Y-77367128D01*
X131235714Y-77367128D02*
X131192857Y-77195700D01*
X131192857Y-77195700D02*
X131192857Y-76981414D01*
X131192857Y-76981414D02*
X131235714Y-76809985D01*
X131235714Y-76809985D02*
X131278571Y-76724271D01*
X131278571Y-76724271D02*
X131321429Y-76681414D01*
X131321429Y-76681414D02*
X131407143Y-76638557D01*
X132221429Y-77024271D02*
X132135714Y-76981414D01*
X132135714Y-76981414D02*
X132092857Y-76938557D01*
X132092857Y-76938557D02*
X132050000Y-76852842D01*
X132050000Y-76852842D02*
X132050000Y-76809985D01*
X132050000Y-76809985D02*
X132092857Y-76724271D01*
X132092857Y-76724271D02*
X132135714Y-76681414D01*
X132135714Y-76681414D02*
X132221429Y-76638557D01*
X132221429Y-76638557D02*
X132392857Y-76638557D01*
X132392857Y-76638557D02*
X132478572Y-76681414D01*
X132478572Y-76681414D02*
X132521429Y-76724271D01*
X132521429Y-76724271D02*
X132564286Y-76809985D01*
X132564286Y-76809985D02*
X132564286Y-76852842D01*
X132564286Y-76852842D02*
X132521429Y-76938557D01*
X132521429Y-76938557D02*
X132478572Y-76981414D01*
X132478572Y-76981414D02*
X132392857Y-77024271D01*
X132392857Y-77024271D02*
X132221429Y-77024271D01*
X132221429Y-77024271D02*
X132135714Y-77067128D01*
X132135714Y-77067128D02*
X132092857Y-77109985D01*
X132092857Y-77109985D02*
X132050000Y-77195700D01*
X132050000Y-77195700D02*
X132050000Y-77367128D01*
X132050000Y-77367128D02*
X132092857Y-77452842D01*
X132092857Y-77452842D02*
X132135714Y-77495700D01*
X132135714Y-77495700D02*
X132221429Y-77538557D01*
X132221429Y-77538557D02*
X132392857Y-77538557D01*
X132392857Y-77538557D02*
X132478572Y-77495700D01*
X132478572Y-77495700D02*
X132521429Y-77452842D01*
X132521429Y-77452842D02*
X132564286Y-77367128D01*
X132564286Y-77367128D02*
X132564286Y-77195700D01*
X132564286Y-77195700D02*
X132521429Y-77109985D01*
X132521429Y-77109985D02*
X132478572Y-77067128D01*
X132478572Y-77067128D02*
X132392857Y-77024271D01*
X87992857Y-55422842D02*
X87950000Y-55465700D01*
X87950000Y-55465700D02*
X87821428Y-55508557D01*
X87821428Y-55508557D02*
X87735714Y-55508557D01*
X87735714Y-55508557D02*
X87607143Y-55465700D01*
X87607143Y-55465700D02*
X87521428Y-55379985D01*
X87521428Y-55379985D02*
X87478571Y-55294271D01*
X87478571Y-55294271D02*
X87435714Y-55122842D01*
X87435714Y-55122842D02*
X87435714Y-54994271D01*
X87435714Y-54994271D02*
X87478571Y-54822842D01*
X87478571Y-54822842D02*
X87521428Y-54737128D01*
X87521428Y-54737128D02*
X87607143Y-54651414D01*
X87607143Y-54651414D02*
X87735714Y-54608557D01*
X87735714Y-54608557D02*
X87821428Y-54608557D01*
X87821428Y-54608557D02*
X87950000Y-54651414D01*
X87950000Y-54651414D02*
X87992857Y-54694271D01*
X88850000Y-55508557D02*
X88335714Y-55508557D01*
X88592857Y-55508557D02*
X88592857Y-54608557D01*
X88592857Y-54608557D02*
X88507143Y-54737128D01*
X88507143Y-54737128D02*
X88421428Y-54822842D01*
X88421428Y-54822842D02*
X88335714Y-54865700D01*
X89407143Y-54608557D02*
X89492857Y-54608557D01*
X89492857Y-54608557D02*
X89578571Y-54651414D01*
X89578571Y-54651414D02*
X89621429Y-54694271D01*
X89621429Y-54694271D02*
X89664286Y-54779985D01*
X89664286Y-54779985D02*
X89707143Y-54951414D01*
X89707143Y-54951414D02*
X89707143Y-55165700D01*
X89707143Y-55165700D02*
X89664286Y-55337128D01*
X89664286Y-55337128D02*
X89621429Y-55422842D01*
X89621429Y-55422842D02*
X89578571Y-55465700D01*
X89578571Y-55465700D02*
X89492857Y-55508557D01*
X89492857Y-55508557D02*
X89407143Y-55508557D01*
X89407143Y-55508557D02*
X89321429Y-55465700D01*
X89321429Y-55465700D02*
X89278571Y-55422842D01*
X89278571Y-55422842D02*
X89235714Y-55337128D01*
X89235714Y-55337128D02*
X89192857Y-55165700D01*
X89192857Y-55165700D02*
X89192857Y-54951414D01*
X89192857Y-54951414D02*
X89235714Y-54779985D01*
X89235714Y-54779985D02*
X89278571Y-54694271D01*
X89278571Y-54694271D02*
X89321429Y-54651414D01*
X89321429Y-54651414D02*
X89407143Y-54608557D01*
X90564286Y-55508557D02*
X90050000Y-55508557D01*
X90307143Y-55508557D02*
X90307143Y-54608557D01*
X90307143Y-54608557D02*
X90221429Y-54737128D01*
X90221429Y-54737128D02*
X90135714Y-54822842D01*
X90135714Y-54822842D02*
X90050000Y-54865700D01*
X96992857Y-57322842D02*
X96950000Y-57365700D01*
X96950000Y-57365700D02*
X96821428Y-57408557D01*
X96821428Y-57408557D02*
X96735714Y-57408557D01*
X96735714Y-57408557D02*
X96607143Y-57365700D01*
X96607143Y-57365700D02*
X96521428Y-57279985D01*
X96521428Y-57279985D02*
X96478571Y-57194271D01*
X96478571Y-57194271D02*
X96435714Y-57022842D01*
X96435714Y-57022842D02*
X96435714Y-56894271D01*
X96435714Y-56894271D02*
X96478571Y-56722842D01*
X96478571Y-56722842D02*
X96521428Y-56637128D01*
X96521428Y-56637128D02*
X96607143Y-56551414D01*
X96607143Y-56551414D02*
X96735714Y-56508557D01*
X96735714Y-56508557D02*
X96821428Y-56508557D01*
X96821428Y-56508557D02*
X96950000Y-56551414D01*
X96950000Y-56551414D02*
X96992857Y-56594271D01*
X97850000Y-57408557D02*
X97335714Y-57408557D01*
X97592857Y-57408557D02*
X97592857Y-56508557D01*
X97592857Y-56508557D02*
X97507143Y-56637128D01*
X97507143Y-56637128D02*
X97421428Y-56722842D01*
X97421428Y-56722842D02*
X97335714Y-56765700D01*
X98407143Y-56508557D02*
X98492857Y-56508557D01*
X98492857Y-56508557D02*
X98578571Y-56551414D01*
X98578571Y-56551414D02*
X98621429Y-56594271D01*
X98621429Y-56594271D02*
X98664286Y-56679985D01*
X98664286Y-56679985D02*
X98707143Y-56851414D01*
X98707143Y-56851414D02*
X98707143Y-57065700D01*
X98707143Y-57065700D02*
X98664286Y-57237128D01*
X98664286Y-57237128D02*
X98621429Y-57322842D01*
X98621429Y-57322842D02*
X98578571Y-57365700D01*
X98578571Y-57365700D02*
X98492857Y-57408557D01*
X98492857Y-57408557D02*
X98407143Y-57408557D01*
X98407143Y-57408557D02*
X98321429Y-57365700D01*
X98321429Y-57365700D02*
X98278571Y-57322842D01*
X98278571Y-57322842D02*
X98235714Y-57237128D01*
X98235714Y-57237128D02*
X98192857Y-57065700D01*
X98192857Y-57065700D02*
X98192857Y-56851414D01*
X98192857Y-56851414D02*
X98235714Y-56679985D01*
X98235714Y-56679985D02*
X98278571Y-56594271D01*
X98278571Y-56594271D02*
X98321429Y-56551414D01*
X98321429Y-56551414D02*
X98407143Y-56508557D01*
X99050000Y-56594271D02*
X99092857Y-56551414D01*
X99092857Y-56551414D02*
X99178572Y-56508557D01*
X99178572Y-56508557D02*
X99392857Y-56508557D01*
X99392857Y-56508557D02*
X99478572Y-56551414D01*
X99478572Y-56551414D02*
X99521429Y-56594271D01*
X99521429Y-56594271D02*
X99564286Y-56679985D01*
X99564286Y-56679985D02*
X99564286Y-56765700D01*
X99564286Y-56765700D02*
X99521429Y-56894271D01*
X99521429Y-56894271D02*
X99007143Y-57408557D01*
X99007143Y-57408557D02*
X99564286Y-57408557D01*
X118992857Y-72422842D02*
X118950000Y-72465700D01*
X118950000Y-72465700D02*
X118821428Y-72508557D01*
X118821428Y-72508557D02*
X118735714Y-72508557D01*
X118735714Y-72508557D02*
X118607143Y-72465700D01*
X118607143Y-72465700D02*
X118521428Y-72379985D01*
X118521428Y-72379985D02*
X118478571Y-72294271D01*
X118478571Y-72294271D02*
X118435714Y-72122842D01*
X118435714Y-72122842D02*
X118435714Y-71994271D01*
X118435714Y-71994271D02*
X118478571Y-71822842D01*
X118478571Y-71822842D02*
X118521428Y-71737128D01*
X118521428Y-71737128D02*
X118607143Y-71651414D01*
X118607143Y-71651414D02*
X118735714Y-71608557D01*
X118735714Y-71608557D02*
X118821428Y-71608557D01*
X118821428Y-71608557D02*
X118950000Y-71651414D01*
X118950000Y-71651414D02*
X118992857Y-71694271D01*
X119764286Y-71908557D02*
X119764286Y-72508557D01*
X119550000Y-71565700D02*
X119335714Y-72208557D01*
X119335714Y-72208557D02*
X119892857Y-72208557D01*
X120407143Y-71608557D02*
X120492857Y-71608557D01*
X120492857Y-71608557D02*
X120578571Y-71651414D01*
X120578571Y-71651414D02*
X120621429Y-71694271D01*
X120621429Y-71694271D02*
X120664286Y-71779985D01*
X120664286Y-71779985D02*
X120707143Y-71951414D01*
X120707143Y-71951414D02*
X120707143Y-72165700D01*
X120707143Y-72165700D02*
X120664286Y-72337128D01*
X120664286Y-72337128D02*
X120621429Y-72422842D01*
X120621429Y-72422842D02*
X120578571Y-72465700D01*
X120578571Y-72465700D02*
X120492857Y-72508557D01*
X120492857Y-72508557D02*
X120407143Y-72508557D01*
X120407143Y-72508557D02*
X120321429Y-72465700D01*
X120321429Y-72465700D02*
X120278571Y-72422842D01*
X120278571Y-72422842D02*
X120235714Y-72337128D01*
X120235714Y-72337128D02*
X120192857Y-72165700D01*
X120192857Y-72165700D02*
X120192857Y-71951414D01*
X120192857Y-71951414D02*
X120235714Y-71779985D01*
X120235714Y-71779985D02*
X120278571Y-71694271D01*
X120278571Y-71694271D02*
X120321429Y-71651414D01*
X120321429Y-71651414D02*
X120407143Y-71608557D01*
X121221429Y-71994271D02*
X121135714Y-71951414D01*
X121135714Y-71951414D02*
X121092857Y-71908557D01*
X121092857Y-71908557D02*
X121050000Y-71822842D01*
X121050000Y-71822842D02*
X121050000Y-71779985D01*
X121050000Y-71779985D02*
X121092857Y-71694271D01*
X121092857Y-71694271D02*
X121135714Y-71651414D01*
X121135714Y-71651414D02*
X121221429Y-71608557D01*
X121221429Y-71608557D02*
X121392857Y-71608557D01*
X121392857Y-71608557D02*
X121478572Y-71651414D01*
X121478572Y-71651414D02*
X121521429Y-71694271D01*
X121521429Y-71694271D02*
X121564286Y-71779985D01*
X121564286Y-71779985D02*
X121564286Y-71822842D01*
X121564286Y-71822842D02*
X121521429Y-71908557D01*
X121521429Y-71908557D02*
X121478572Y-71951414D01*
X121478572Y-71951414D02*
X121392857Y-71994271D01*
X121392857Y-71994271D02*
X121221429Y-71994271D01*
X121221429Y-71994271D02*
X121135714Y-72037128D01*
X121135714Y-72037128D02*
X121092857Y-72079985D01*
X121092857Y-72079985D02*
X121050000Y-72165700D01*
X121050000Y-72165700D02*
X121050000Y-72337128D01*
X121050000Y-72337128D02*
X121092857Y-72422842D01*
X121092857Y-72422842D02*
X121135714Y-72465700D01*
X121135714Y-72465700D02*
X121221429Y-72508557D01*
X121221429Y-72508557D02*
X121392857Y-72508557D01*
X121392857Y-72508557D02*
X121478572Y-72465700D01*
X121478572Y-72465700D02*
X121521429Y-72422842D01*
X121521429Y-72422842D02*
X121564286Y-72337128D01*
X121564286Y-72337128D02*
X121564286Y-72165700D01*
X121564286Y-72165700D02*
X121521429Y-72079985D01*
X121521429Y-72079985D02*
X121478572Y-72037128D01*
X121478572Y-72037128D02*
X121392857Y-71994271D01*
D11*
X125960000Y-67500000D02*
X126730000Y-67500000D01*
X134040000Y-67500000D02*
X133270000Y-67500000D01*
X126730000Y-66130000D02*
X133270000Y-66130000D01*
X133270000Y-68870000D01*
X126730000Y-68870000D01*
X126730000Y-66130000D01*
X118460000Y-75000000D02*
X119230000Y-75000000D01*
X126540000Y-75000000D02*
X125770000Y-75000000D01*
X119230000Y-73630000D02*
X125770000Y-73630000D01*
X125770000Y-76370000D01*
X119230000Y-76370000D01*
X119230000Y-73630000D01*
X68460000Y-97500000D02*
X69230000Y-97500000D01*
X76540000Y-97500000D02*
X75770000Y-97500000D01*
X69230000Y-96130000D02*
X75770000Y-96130000D01*
X75770000Y-98870000D01*
X69230000Y-98870000D01*
X69230000Y-96130000D01*
X125960000Y-80000000D02*
X126730000Y-80000000D01*
X134040000Y-80000000D02*
X133270000Y-80000000D01*
X126730000Y-78630000D02*
X133270000Y-78630000D01*
X133270000Y-81370000D01*
X126730000Y-81370000D01*
X126730000Y-78630000D01*
X125770000Y-102500000D02*
G75*
G02*
X119230000Y-102500000I-3270000J0D01*
G01*
X119230000Y-102500000D02*
G75*
G02*
X125770000Y-102500000I3270000J0D01*
G01*
X73270000Y-90000000D02*
G75*
G02*
X66730000Y-90000000I-3270000J0D01*
G01*
X66730000Y-90000000D02*
G75*
G02*
X73270000Y-90000000I3270000J0D01*
G01*
X100960000Y-112500000D02*
X101730000Y-112500000D01*
X109040000Y-112500000D02*
X108270000Y-112500000D01*
X101730000Y-111130000D02*
X108270000Y-111130000D01*
X108270000Y-113870000D01*
X101730000Y-113870000D01*
X101730000Y-111130000D01*
X84850000Y-74860000D02*
X84850000Y-85140000D01*
X84850000Y-85140000D02*
X90150000Y-85140000D01*
X86500000Y-74860000D02*
X84850000Y-74860000D01*
X90150000Y-74860000D02*
X88500000Y-74860000D01*
X90150000Y-85140000D02*
X90150000Y-74860000D01*
X82360000Y-74800000D02*
X92640000Y-74800000D01*
X92640000Y-85200000D01*
X82360000Y-85200000D01*
X82360000Y-74800000D01*
X88500000Y-74860000D02*
G75*
G02*
X86500000Y-74860000I-1000000J0D01*
G01*
X103460000Y-70000000D02*
X104230000Y-70000000D01*
X111540000Y-70000000D02*
X110770000Y-70000000D01*
X104230000Y-68630000D02*
X110770000Y-68630000D01*
X110770000Y-71370000D01*
X104230000Y-71370000D01*
X104230000Y-68630000D01*
X79880000Y-66130000D02*
X79880000Y-66467000D01*
X79880000Y-66130000D02*
X85120000Y-66130000D01*
X79880000Y-68533000D02*
X79880000Y-68870000D01*
X79880000Y-68870000D02*
X85120000Y-68870000D01*
X85120000Y-66130000D02*
X85120000Y-66467000D01*
X85120000Y-68533000D02*
X85120000Y-68870000D01*
X85499759Y-58161000D02*
X86129759Y-58161000D01*
X85814759Y-57846000D02*
X85814759Y-58476000D01*
X89000000Y-56770000D02*
X89000000Y-63230000D01*
X89040000Y-56770000D02*
X89040000Y-63230000D01*
X89080000Y-56771000D02*
X89080000Y-63229000D01*
X89120000Y-56772000D02*
X89120000Y-63228000D01*
X89160000Y-56774000D02*
X89160000Y-63226000D01*
X89200000Y-56776000D02*
X89200000Y-63224000D01*
X89240000Y-56779000D02*
X89240000Y-58960000D01*
X89240000Y-61040000D02*
X89240000Y-63221000D01*
X89280000Y-56782000D02*
X89280000Y-58960000D01*
X89280000Y-61040000D02*
X89280000Y-63218000D01*
X89320000Y-56786000D02*
X89320000Y-58960000D01*
X89320000Y-61040000D02*
X89320000Y-63214000D01*
X89360000Y-56790000D02*
X89360000Y-58960000D01*
X89360000Y-61040000D02*
X89360000Y-63210000D01*
X89400000Y-56795000D02*
X89400000Y-58960000D01*
X89400000Y-61040000D02*
X89400000Y-63205000D01*
X89440000Y-56800000D02*
X89440000Y-58960000D01*
X89440000Y-61040000D02*
X89440000Y-63200000D01*
X89480000Y-56805000D02*
X89480000Y-58960000D01*
X89480000Y-61040000D02*
X89480000Y-63195000D01*
X89520000Y-56812000D02*
X89520000Y-58960000D01*
X89520000Y-61040000D02*
X89520000Y-63188000D01*
X89560000Y-56818000D02*
X89560000Y-58960000D01*
X89560000Y-61040000D02*
X89560000Y-63182000D01*
X89600000Y-56826000D02*
X89600000Y-58960000D01*
X89600000Y-61040000D02*
X89600000Y-63174000D01*
X89640000Y-56833000D02*
X89640000Y-58960000D01*
X89640000Y-61040000D02*
X89640000Y-63167000D01*
X89680000Y-56841000D02*
X89680000Y-58960000D01*
X89680000Y-61040000D02*
X89680000Y-63159000D01*
X89720000Y-56850000D02*
X89720000Y-58960000D01*
X89720000Y-61040000D02*
X89720000Y-63150000D01*
X89760000Y-56860000D02*
X89760000Y-58960000D01*
X89760000Y-61040000D02*
X89760000Y-63140000D01*
X89800000Y-56869000D02*
X89800000Y-58960000D01*
X89800000Y-61040000D02*
X89800000Y-63131000D01*
X89840000Y-56880000D02*
X89840000Y-58960000D01*
X89840000Y-61040000D02*
X89840000Y-63120000D01*
X89880000Y-56891000D02*
X89880000Y-58960000D01*
X89880000Y-61040000D02*
X89880000Y-63109000D01*
X89920000Y-56902000D02*
X89920000Y-58960000D01*
X89920000Y-61040000D02*
X89920000Y-63098000D01*
X89960000Y-56914000D02*
X89960000Y-58960000D01*
X89960000Y-61040000D02*
X89960000Y-63086000D01*
X90000000Y-56927000D02*
X90000000Y-58960000D01*
X90000000Y-61040000D02*
X90000000Y-63073000D01*
X90040000Y-56940000D02*
X90040000Y-58960000D01*
X90040000Y-61040000D02*
X90040000Y-63060000D01*
X90080000Y-56953000D02*
X90080000Y-58960000D01*
X90080000Y-61040000D02*
X90080000Y-63047000D01*
X90120000Y-56968000D02*
X90120000Y-58960000D01*
X90120000Y-61040000D02*
X90120000Y-63032000D01*
X90160000Y-56983000D02*
X90160000Y-58960000D01*
X90160000Y-61040000D02*
X90160000Y-63017000D01*
X90200000Y-56998000D02*
X90200000Y-58960000D01*
X90200000Y-61040000D02*
X90200000Y-63002000D01*
X90240000Y-57014000D02*
X90240000Y-58960000D01*
X90240000Y-61040000D02*
X90240000Y-62986000D01*
X90280000Y-57031000D02*
X90280000Y-58960000D01*
X90280000Y-61040000D02*
X90280000Y-62969000D01*
X90320000Y-57048000D02*
X90320000Y-58960000D01*
X90320000Y-61040000D02*
X90320000Y-62952000D01*
X90360000Y-57066000D02*
X90360000Y-58960000D01*
X90360000Y-61040000D02*
X90360000Y-62934000D01*
X90400000Y-57085000D02*
X90400000Y-58960000D01*
X90400000Y-61040000D02*
X90400000Y-62915000D01*
X90440000Y-57104000D02*
X90440000Y-58960000D01*
X90440000Y-61040000D02*
X90440000Y-62896000D01*
X90480000Y-57124000D02*
X90480000Y-58960000D01*
X90480000Y-61040000D02*
X90480000Y-62876000D01*
X90520000Y-57145000D02*
X90520000Y-58960000D01*
X90520000Y-61040000D02*
X90520000Y-62855000D01*
X90560000Y-57166000D02*
X90560000Y-58960000D01*
X90560000Y-61040000D02*
X90560000Y-62834000D01*
X90600000Y-57188000D02*
X90600000Y-58960000D01*
X90600000Y-61040000D02*
X90600000Y-62812000D01*
X90640000Y-57211000D02*
X90640000Y-58960000D01*
X90640000Y-61040000D02*
X90640000Y-62789000D01*
X90680000Y-57235000D02*
X90680000Y-58960000D01*
X90680000Y-61040000D02*
X90680000Y-62765000D01*
X90720000Y-57259000D02*
X90720000Y-58960000D01*
X90720000Y-61040000D02*
X90720000Y-62741000D01*
X90760000Y-57284000D02*
X90760000Y-58960000D01*
X90760000Y-61040000D02*
X90760000Y-62716000D01*
X90800000Y-57310000D02*
X90800000Y-58960000D01*
X90800000Y-61040000D02*
X90800000Y-62690000D01*
X90840000Y-57337000D02*
X90840000Y-58960000D01*
X90840000Y-61040000D02*
X90840000Y-62663000D01*
X90880000Y-57364000D02*
X90880000Y-58960000D01*
X90880000Y-61040000D02*
X90880000Y-62636000D01*
X90920000Y-57393000D02*
X90920000Y-58960000D01*
X90920000Y-61040000D02*
X90920000Y-62607000D01*
X90960000Y-57423000D02*
X90960000Y-58960000D01*
X90960000Y-61040000D02*
X90960000Y-62577000D01*
X91000000Y-57453000D02*
X91000000Y-58960000D01*
X91000000Y-61040000D02*
X91000000Y-62547000D01*
X91040000Y-57484000D02*
X91040000Y-58960000D01*
X91040000Y-61040000D02*
X91040000Y-62516000D01*
X91080000Y-57517000D02*
X91080000Y-58960000D01*
X91080000Y-61040000D02*
X91080000Y-62483000D01*
X91120000Y-57550000D02*
X91120000Y-58960000D01*
X91120000Y-61040000D02*
X91120000Y-62450000D01*
X91160000Y-57585000D02*
X91160000Y-58960000D01*
X91160000Y-61040000D02*
X91160000Y-62415000D01*
X91200000Y-57621000D02*
X91200000Y-58960000D01*
X91200000Y-61040000D02*
X91200000Y-62379000D01*
X91240000Y-57658000D02*
X91240000Y-58960000D01*
X91240000Y-61040000D02*
X91240000Y-62342000D01*
X91280000Y-57696000D02*
X91280000Y-58960000D01*
X91280000Y-61040000D02*
X91280000Y-62304000D01*
X91320000Y-57736000D02*
X91320000Y-62264000D01*
X91360000Y-57777000D02*
X91360000Y-62223000D01*
X91400000Y-57819000D02*
X91400000Y-62181000D01*
X91440000Y-57863000D02*
X91440000Y-62137000D01*
X91480000Y-57909000D02*
X91480000Y-62091000D01*
X91520000Y-57956000D02*
X91520000Y-62044000D01*
X91560000Y-58005000D02*
X91560000Y-61995000D01*
X91600000Y-58057000D02*
X91600000Y-61943000D01*
X91640000Y-58110000D02*
X91640000Y-61890000D01*
X91680000Y-58166000D02*
X91680000Y-61834000D01*
X91720000Y-58225000D02*
X91720000Y-61775000D01*
X91760000Y-58286000D02*
X91760000Y-61714000D01*
X91800000Y-58351000D02*
X91800000Y-61649000D01*
X91840000Y-58419000D02*
X91840000Y-61581000D01*
X91880000Y-58491000D02*
X91880000Y-61509000D01*
X91920000Y-58568000D02*
X91920000Y-61432000D01*
X91960000Y-58650000D02*
X91960000Y-61350000D01*
X92000000Y-58739000D02*
X92000000Y-61261000D01*
X92040000Y-58835000D02*
X92040000Y-61165000D01*
X92080000Y-58942000D02*
X92080000Y-61058000D01*
X92120000Y-59061000D02*
X92120000Y-60939000D01*
X92160000Y-59199000D02*
X92160000Y-60801000D01*
X92200000Y-59367000D02*
X92200000Y-60633000D01*
X92240000Y-59598000D02*
X92240000Y-60402000D01*
X92270000Y-60000000D02*
G75*
G02*
X85730000Y-60000000I-3270000J0D01*
G01*
X85730000Y-60000000D02*
G75*
G02*
X92270000Y-60000000I3270000J0D01*
G01*
X128630000Y-88630000D02*
X128630000Y-88967000D01*
X128630000Y-88630000D02*
X133870000Y-88630000D01*
X128630000Y-91033000D02*
X128630000Y-91370000D01*
X128630000Y-91370000D02*
X133870000Y-91370000D01*
X133870000Y-88630000D02*
X133870000Y-88967000D01*
X133870000Y-91033000D02*
X133870000Y-91370000D01*
X56120000Y-76080000D02*
X57500000Y-76080000D01*
X56120000Y-77460000D02*
X56120000Y-76080000D01*
X56120000Y-78730000D02*
X56120000Y-83920000D01*
X56120000Y-78730000D02*
X58880000Y-78730000D01*
X56120000Y-83920000D02*
X58880000Y-83920000D01*
X58880000Y-78730000D02*
X58880000Y-83920000D01*
X91499759Y-108161000D02*
X92129759Y-108161000D01*
X91814759Y-107846000D02*
X91814759Y-108476000D01*
X95000000Y-106770000D02*
X95000000Y-113230000D01*
X95040000Y-106770000D02*
X95040000Y-113230000D01*
X95080000Y-106771000D02*
X95080000Y-113229000D01*
X95120000Y-106772000D02*
X95120000Y-113228000D01*
X95160000Y-106774000D02*
X95160000Y-113226000D01*
X95200000Y-106776000D02*
X95200000Y-113224000D01*
X95240000Y-106779000D02*
X95240000Y-108960000D01*
X95240000Y-111040000D02*
X95240000Y-113221000D01*
X95280000Y-106782000D02*
X95280000Y-108960000D01*
X95280000Y-111040000D02*
X95280000Y-113218000D01*
X95320000Y-106786000D02*
X95320000Y-108960000D01*
X95320000Y-111040000D02*
X95320000Y-113214000D01*
X95360000Y-106790000D02*
X95360000Y-108960000D01*
X95360000Y-111040000D02*
X95360000Y-113210000D01*
X95400000Y-106795000D02*
X95400000Y-108960000D01*
X95400000Y-111040000D02*
X95400000Y-113205000D01*
X95440000Y-106800000D02*
X95440000Y-108960000D01*
X95440000Y-111040000D02*
X95440000Y-113200000D01*
X95480000Y-106805000D02*
X95480000Y-108960000D01*
X95480000Y-111040000D02*
X95480000Y-113195000D01*
X95520000Y-106812000D02*
X95520000Y-108960000D01*
X95520000Y-111040000D02*
X95520000Y-113188000D01*
X95560000Y-106818000D02*
X95560000Y-108960000D01*
X95560000Y-111040000D02*
X95560000Y-113182000D01*
X95600000Y-106826000D02*
X95600000Y-108960000D01*
X95600000Y-111040000D02*
X95600000Y-113174000D01*
X95640000Y-106833000D02*
X95640000Y-108960000D01*
X95640000Y-111040000D02*
X95640000Y-113167000D01*
X95680000Y-106841000D02*
X95680000Y-108960000D01*
X95680000Y-111040000D02*
X95680000Y-113159000D01*
X95720000Y-106850000D02*
X95720000Y-108960000D01*
X95720000Y-111040000D02*
X95720000Y-113150000D01*
X95760000Y-106860000D02*
X95760000Y-108960000D01*
X95760000Y-111040000D02*
X95760000Y-113140000D01*
X95800000Y-106869000D02*
X95800000Y-108960000D01*
X95800000Y-111040000D02*
X95800000Y-113131000D01*
X95840000Y-106880000D02*
X95840000Y-108960000D01*
X95840000Y-111040000D02*
X95840000Y-113120000D01*
X95880000Y-106891000D02*
X95880000Y-108960000D01*
X95880000Y-111040000D02*
X95880000Y-113109000D01*
X95920000Y-106902000D02*
X95920000Y-108960000D01*
X95920000Y-111040000D02*
X95920000Y-113098000D01*
X95960000Y-106914000D02*
X95960000Y-108960000D01*
X95960000Y-111040000D02*
X95960000Y-113086000D01*
X96000000Y-106927000D02*
X96000000Y-108960000D01*
X96000000Y-111040000D02*
X96000000Y-113073000D01*
X96040000Y-106940000D02*
X96040000Y-108960000D01*
X96040000Y-111040000D02*
X96040000Y-113060000D01*
X96080000Y-106953000D02*
X96080000Y-108960000D01*
X96080000Y-111040000D02*
X96080000Y-113047000D01*
X96120000Y-106968000D02*
X96120000Y-108960000D01*
X96120000Y-111040000D02*
X96120000Y-113032000D01*
X96160000Y-106983000D02*
X96160000Y-108960000D01*
X96160000Y-111040000D02*
X96160000Y-113017000D01*
X96200000Y-106998000D02*
X96200000Y-108960000D01*
X96200000Y-111040000D02*
X96200000Y-113002000D01*
X96240000Y-107014000D02*
X96240000Y-108960000D01*
X96240000Y-111040000D02*
X96240000Y-112986000D01*
X96280000Y-107031000D02*
X96280000Y-108960000D01*
X96280000Y-111040000D02*
X96280000Y-112969000D01*
X96320000Y-107048000D02*
X96320000Y-108960000D01*
X96320000Y-111040000D02*
X96320000Y-112952000D01*
X96360000Y-107066000D02*
X96360000Y-108960000D01*
X96360000Y-111040000D02*
X96360000Y-112934000D01*
X96400000Y-107085000D02*
X96400000Y-108960000D01*
X96400000Y-111040000D02*
X96400000Y-112915000D01*
X96440000Y-107104000D02*
X96440000Y-108960000D01*
X96440000Y-111040000D02*
X96440000Y-112896000D01*
X96480000Y-107124000D02*
X96480000Y-108960000D01*
X96480000Y-111040000D02*
X96480000Y-112876000D01*
X96520000Y-107145000D02*
X96520000Y-108960000D01*
X96520000Y-111040000D02*
X96520000Y-112855000D01*
X96560000Y-107166000D02*
X96560000Y-108960000D01*
X96560000Y-111040000D02*
X96560000Y-112834000D01*
X96600000Y-107188000D02*
X96600000Y-108960000D01*
X96600000Y-111040000D02*
X96600000Y-112812000D01*
X96640000Y-107211000D02*
X96640000Y-108960000D01*
X96640000Y-111040000D02*
X96640000Y-112789000D01*
X96680000Y-107235000D02*
X96680000Y-108960000D01*
X96680000Y-111040000D02*
X96680000Y-112765000D01*
X96720000Y-107259000D02*
X96720000Y-108960000D01*
X96720000Y-111040000D02*
X96720000Y-112741000D01*
X96760000Y-107284000D02*
X96760000Y-108960000D01*
X96760000Y-111040000D02*
X96760000Y-112716000D01*
X96800000Y-107310000D02*
X96800000Y-108960000D01*
X96800000Y-111040000D02*
X96800000Y-112690000D01*
X96840000Y-107337000D02*
X96840000Y-108960000D01*
X96840000Y-111040000D02*
X96840000Y-112663000D01*
X96880000Y-107364000D02*
X96880000Y-108960000D01*
X96880000Y-111040000D02*
X96880000Y-112636000D01*
X96920000Y-107393000D02*
X96920000Y-108960000D01*
X96920000Y-111040000D02*
X96920000Y-112607000D01*
X96960000Y-107423000D02*
X96960000Y-108960000D01*
X96960000Y-111040000D02*
X96960000Y-112577000D01*
X97000000Y-107453000D02*
X97000000Y-108960000D01*
X97000000Y-111040000D02*
X97000000Y-112547000D01*
X97040000Y-107484000D02*
X97040000Y-108960000D01*
X97040000Y-111040000D02*
X97040000Y-112516000D01*
X97080000Y-107517000D02*
X97080000Y-108960000D01*
X97080000Y-111040000D02*
X97080000Y-112483000D01*
X97120000Y-107550000D02*
X97120000Y-108960000D01*
X97120000Y-111040000D02*
X97120000Y-112450000D01*
X97160000Y-107585000D02*
X97160000Y-108960000D01*
X97160000Y-111040000D02*
X97160000Y-112415000D01*
X97200000Y-107621000D02*
X97200000Y-108960000D01*
X97200000Y-111040000D02*
X97200000Y-112379000D01*
X97240000Y-107658000D02*
X97240000Y-108960000D01*
X97240000Y-111040000D02*
X97240000Y-112342000D01*
X97280000Y-107696000D02*
X97280000Y-108960000D01*
X97280000Y-111040000D02*
X97280000Y-112304000D01*
X97320000Y-107736000D02*
X97320000Y-112264000D01*
X97360000Y-107777000D02*
X97360000Y-112223000D01*
X97400000Y-107819000D02*
X97400000Y-112181000D01*
X97440000Y-107863000D02*
X97440000Y-112137000D01*
X97480000Y-107909000D02*
X97480000Y-112091000D01*
X97520000Y-107956000D02*
X97520000Y-112044000D01*
X97560000Y-108005000D02*
X97560000Y-111995000D01*
X97600000Y-108057000D02*
X97600000Y-111943000D01*
X97640000Y-108110000D02*
X97640000Y-111890000D01*
X97680000Y-108166000D02*
X97680000Y-111834000D01*
X97720000Y-108225000D02*
X97720000Y-111775000D01*
X97760000Y-108286000D02*
X97760000Y-111714000D01*
X97800000Y-108351000D02*
X97800000Y-111649000D01*
X97840000Y-108419000D02*
X97840000Y-111581000D01*
X97880000Y-108491000D02*
X97880000Y-111509000D01*
X97920000Y-108568000D02*
X97920000Y-111432000D01*
X97960000Y-108650000D02*
X97960000Y-111350000D01*
X98000000Y-108739000D02*
X98000000Y-111261000D01*
X98040000Y-108835000D02*
X98040000Y-111165000D01*
X98080000Y-108942000D02*
X98080000Y-111058000D01*
X98120000Y-109061000D02*
X98120000Y-110939000D01*
X98160000Y-109199000D02*
X98160000Y-110801000D01*
X98200000Y-109367000D02*
X98200000Y-110633000D01*
X98240000Y-109598000D02*
X98240000Y-110402000D01*
X98270000Y-110000000D02*
G75*
G02*
X91730000Y-110000000I-3270000J0D01*
G01*
X91730000Y-110000000D02*
G75*
G02*
X98270000Y-110000000I3270000J0D01*
G01*
X138620000Y-79810000D02*
X140000000Y-79810000D01*
X138620000Y-81190000D02*
X138620000Y-79810000D01*
X138620000Y-82460000D02*
X138620000Y-90190000D01*
X138620000Y-82460000D02*
X141380000Y-82460000D01*
X138620000Y-90190000D02*
X141380000Y-90190000D01*
X141380000Y-82460000D02*
X141380000Y-90190000D01*
X103460000Y-80000000D02*
X104230000Y-80000000D01*
X111540000Y-80000000D02*
X110770000Y-80000000D01*
X104230000Y-78630000D02*
X110770000Y-78630000D01*
X110770000Y-81370000D01*
X104230000Y-81370000D01*
X104230000Y-78630000D01*
X128460000Y-102500000D02*
X129230000Y-102500000D01*
X136540000Y-102500000D02*
X135770000Y-102500000D01*
X129230000Y-101130000D02*
X135770000Y-101130000D01*
X135770000Y-103870000D01*
X129230000Y-103870000D01*
X129230000Y-101130000D01*
X118460000Y-117500000D02*
X119230000Y-117500000D01*
X126540000Y-117500000D02*
X125770000Y-117500000D01*
X119230000Y-116130000D02*
X125770000Y-116130000D01*
X125770000Y-118870000D01*
X119230000Y-118870000D01*
X119230000Y-116130000D01*
X128460000Y-110000000D02*
X129230000Y-110000000D01*
X136540000Y-110000000D02*
X135770000Y-110000000D01*
X129230000Y-108630000D02*
X135770000Y-108630000D01*
X135770000Y-111370000D01*
X129230000Y-111370000D01*
X129230000Y-108630000D01*
X123270000Y-67500000D02*
G75*
G02*
X116730000Y-67500000I-3270000J0D01*
G01*
X116730000Y-67500000D02*
G75*
G02*
X123270000Y-67500000I3270000J0D01*
G01*
X68460000Y-77500000D02*
X69230000Y-77500000D01*
X76540000Y-77500000D02*
X75770000Y-77500000D01*
X69230000Y-76130000D02*
X75770000Y-76130000D01*
X75770000Y-78870000D01*
X69230000Y-78870000D01*
X69230000Y-76130000D01*
X123270000Y-80000000D02*
G75*
G02*
X116730000Y-80000000I-3270000J0D01*
G01*
X116730000Y-80000000D02*
G75*
G02*
X123270000Y-80000000I3270000J0D01*
G01*
X73270000Y-70000000D02*
G75*
G02*
X66730000Y-70000000I-3270000J0D01*
G01*
X66730000Y-70000000D02*
G75*
G02*
X73270000Y-70000000I3270000J0D01*
G01*
X115960000Y-112500000D02*
X116730000Y-112500000D01*
X124040000Y-112500000D02*
X123270000Y-112500000D01*
X116730000Y-111130000D02*
X123270000Y-111130000D01*
X123270000Y-113870000D01*
X116730000Y-113870000D01*
X116730000Y-111130000D01*
X95380000Y-58630000D02*
X95380000Y-58967000D01*
X95380000Y-58630000D02*
X100620000Y-58630000D01*
X95380000Y-61033000D02*
X95380000Y-61370000D01*
X95380000Y-61370000D02*
X100620000Y-61370000D01*
X100620000Y-58630000D02*
X100620000Y-58967000D01*
X100620000Y-61033000D02*
X100620000Y-61370000D01*
X114850000Y-87360000D02*
X114850000Y-97640000D01*
X114850000Y-97640000D02*
X120150000Y-97640000D01*
X116500000Y-87360000D02*
X114850000Y-87360000D01*
X120150000Y-87360000D02*
X118500000Y-87360000D01*
X120150000Y-97640000D02*
X120150000Y-87360000D01*
X112360000Y-87300000D02*
X122640000Y-87300000D01*
X122640000Y-97700000D01*
X112360000Y-97700000D01*
X112360000Y-87300000D01*
X118500000Y-87360000D02*
G75*
G02*
X116500000Y-87360000I-1000000J0D01*
G01*
X103620000Y-57350000D02*
X105000000Y-57350000D01*
X103620000Y-58730000D02*
X103620000Y-57350000D01*
X103620000Y-60000000D02*
X103620000Y-62650000D01*
X103620000Y-60000000D02*
X106380000Y-60000000D01*
X103620000Y-62650000D02*
X106380000Y-62650000D01*
X106380000Y-60000000D02*
X106380000Y-62650000D01*
D10*
X66750000Y-56850000D02*
X77250000Y-56850000D01*
X77250000Y-63150000D01*
X66750000Y-63150000D01*
X66750000Y-56850000D01*
%LPC*%
D12*
X124920000Y-67500000D03*
X135080000Y-67500000D03*
X117420000Y-75000000D03*
X127580000Y-75000000D03*
X67420000Y-97500000D03*
X77580000Y-97500000D03*
X124920000Y-80000000D03*
X135080000Y-80000000D03*
D13*
X147000000Y-53000000D03*
D14*
X121250000Y-102500000D03*
D12*
X123750000Y-102500000D03*
D14*
X68750000Y-90000000D03*
D12*
X71250000Y-90000000D03*
X99920000Y-112500000D03*
X110080000Y-112500000D03*
D14*
X83690000Y-76190000D03*
D12*
X83690000Y-78730000D03*
X83690000Y-81270000D03*
X83690000Y-83810000D03*
X91310000Y-83810000D03*
X91310000Y-81270000D03*
X91310000Y-78730000D03*
X91310000Y-76190000D03*
X102420000Y-70000000D03*
X112580000Y-70000000D03*
X80000000Y-67500000D03*
X85000000Y-67500000D03*
D14*
X87750000Y-60000000D03*
D12*
X90250000Y-60000000D03*
X128750000Y-90000000D03*
X133750000Y-90000000D03*
D15*
X57500000Y-77460000D03*
D16*
X57500000Y-80000000D03*
X57500000Y-82540000D03*
D14*
X93750000Y-110000000D03*
D12*
X96250000Y-110000000D03*
D15*
X140000000Y-81190000D03*
D16*
X140000000Y-83730000D03*
X140000000Y-86270000D03*
X140000000Y-88810000D03*
D12*
X102420000Y-80000000D03*
X112580000Y-80000000D03*
X127420000Y-102500000D03*
X137580000Y-102500000D03*
X117420000Y-117500000D03*
X127580000Y-117500000D03*
D13*
X53000000Y-122000000D03*
D12*
X127420000Y-110000000D03*
X137580000Y-110000000D03*
D14*
X118750000Y-67500000D03*
D12*
X121250000Y-67500000D03*
X67420000Y-77500000D03*
X77580000Y-77500000D03*
D14*
X118750000Y-80000000D03*
D12*
X121250000Y-80000000D03*
D14*
X68750000Y-70000000D03*
D12*
X71250000Y-70000000D03*
X114920000Y-112500000D03*
X125080000Y-112500000D03*
X95500000Y-60000000D03*
X100500000Y-60000000D03*
D14*
X113690000Y-88690000D03*
D12*
X113690000Y-91230000D03*
X113690000Y-93770000D03*
X113690000Y-96310000D03*
X121310000Y-96310000D03*
X121310000Y-93770000D03*
X121310000Y-91230000D03*
X121310000Y-88690000D03*
D15*
X105000000Y-58730000D03*
D16*
X105000000Y-61270000D03*
D17*
X64380000Y-60000000D03*
X79620000Y-60000000D03*
%LPD*%
M02*
