M48
; DRILL file {KiCad 9.0.2+dfsg-1} date 2026-10-08T19:46:57+0000
; FORMAT={-:-/ absolute / metric / decimal}
; #@! TF.CreationDate,2026-10-08T19:46:57+00:00
; #@! TF.GenerationSoftware,Kicad,Pcbnew,9.0.2+dfsg-1
; #@! TF.FileFunction,Plated,1,2,PTH
FMAT,2
METRIC
; #@! TA.AperFunction,Plated,PTH,ComponentDrill
T1C0.800
; #@! TA.AperFunction,Plated,PTH,ComponentDrill
T2C0.900
; #@! TA.AperFunction,Plated,PTH,ComponentDrill
T3C1.000
%
G90
G05
T1
X67.42Y-77.5
X67.42Y-97.5
X68.75Y-70.0
X68.75Y-90.0
X71.25Y-70.0
X71.25Y-90.0
X77.58Y-77.5
X77.58Y-97.5
X80.0Y-67.5
X83.69Y-76.19
X83.69Y-78.73
X83.69Y-81.27
X83.69Y-83.81
X85.0Y-67.5
X87.75Y-60.0
X90.25Y-60.0
X91.31Y-76.19
X91.31Y-78.73
X91.31Y-81.27
X91.31Y-83.81
X93.75Y-110.0
X95.5Y-60.0
X96.25Y-110.0
X99.92Y-112.5
X100.5Y-60.0
X102.42Y-70.0
X102.42Y-80.0
X110.08Y-112.5
X112.58Y-70.0
X112.58Y-80.0
X113.69Y-88.69
X113.69Y-91.23
X113.69Y-93.77
X113.69Y-96.31
X114.92Y-112.5
X117.42Y-75.0
X117.42Y-117.5
X118.75Y-67.5
X118.75Y-80.0
X121.25Y-67.5
X121.25Y-80.0
X121.25Y-102.5
X121.31Y-88.69
X121.31Y-91.23
X121.31Y-93.77
X121.31Y-96.31
X123.75Y-102.5
X124.92Y-67.5
X124.92Y-80.0
X125.08Y-112.5
X127.42Y-102.5
X127.42Y-110.0
X127.58Y-75.0
X127.58Y-117.5
X128.75Y-90.0
X133.75Y-90.0
X135.08Y-67.5
X135.08Y-80.0
X137.58Y-102.5
X137.58Y-110.0
T2
X64.38Y-60.0
X79.62Y-60.0
T3
X57.5Y-77.46
X57.5Y-80.0
X57.5Y-82.54
X105.0Y-58.73
X105.0Y-61.27
X140.0Y-81.19
X140.0Y-83.73
X140.0Y-86.27
X140.0Y-88.81
M30
