G04 #@! TF.GenerationSoftware,KiCad,Pcbnew,9.0.2+dfsg-1*
G04 #@! TF.CreationDate,2026-10-08T19:46:57+00:00*
G04 #@! TF.ProjectId,Ardor_Mixer_THT,4172646f-725f-44d6-9978-65725f544854,rev?*
G04 #@! TF.SameCoordinates,Original*
G04 #@! TF.FileFunction,Copper,L2,Bot*
G04 #@! TF.FilePolarity,Positive*
%FSLAX46Y46*%
G04 Gerber Fmt 4.6, Leading zero omitted, Abs format (unit mm)*
G04 Created by KiCad (PCBNEW 9.0.2+dfsg-1) date 2026-10-08 19:46:57*
%MOMM*%
%LPD*%
G01*
G04 APERTURE LIST*
G04 Aperture macros list*
%AMRoundRect*
0 Rectangle with rounded corners*
0 $1 Rounding radius*
0 $2 $3 $4 $5 $6 $7 $8 $9 X,Y pos of 4 corners*
0 Add a 4 corners polygon primitive as box body*
4,1,4,$2,$3,$4,$5,$6,$7,$8,$9,$2,$3,0*
0 Add four circle primitives for the rounded corners*
1,1,$1+$1,$2,$3*
1,1,$1+$1,$4,$5*
1,1,$1+$1,$6,$7*
1,1,$1+$1,$8,$9*
0 Add four rect primitives between the rounded corners*
20,1,$1+$1,$2,$3,$4,$5,0*
20,1,$1+$1,$4,$5,$6,$7,0*
20,1,$1+$1,$6,$7,$8,$9,0*
20,1,$1+$1,$8,$9,$2,$3,0*%
G04 Aperture macros list end*
G04 #@! TA.AperFunction,ComponentPad*
%ADD10C,1.600000*%
G04 #@! TD*
G04 #@! TA.AperFunction,ComponentPad*
%ADD11RoundRect,0.250000X-0.550000X-0.550000X0.550000X-0.550000X0.550000X0.550000X-0.550000X0.550000X0*%
G04 #@! TD*
G04 #@! TA.AperFunction,ComponentPad*
%ADD12R,1.700000X1.700000*%
G04 #@! TD*
G04 #@! TA.AperFunction,ComponentPad*
%ADD13C,1.700000*%
G04 #@! TD*
G04 #@! TA.AperFunction,ComponentPad*
%ADD14C,2.000000*%
G04 #@! TD*
G04 #@! TA.AperFunction,Conductor*
%ADD15C,0.200000*%
G04 #@! TD*
G04 APERTURE END LIST*
D10*
X124920000Y-67500000D03*
X135080000Y-67500000D03*
X117420000Y-75000000D03*
X127580000Y-75000000D03*
X67420000Y-97500000D03*
X77580000Y-97500000D03*
X124920000Y-80000000D03*
X135080000Y-80000000D03*
D11*
X121250000Y-102500000D03*
D10*
X123750000Y-102500000D03*
D11*
X68750000Y-90000000D03*
D10*
X71250000Y-90000000D03*
X99920000Y-112500000D03*
X110080000Y-112500000D03*
D11*
X83690000Y-76190000D03*
D10*
X83690000Y-78730000D03*
X83690000Y-81270000D03*
X83690000Y-83810000D03*
X91310000Y-83810000D03*
X91310000Y-81270000D03*
X91310000Y-78730000D03*
X91310000Y-76190000D03*
X102420000Y-70000000D03*
X112580000Y-70000000D03*
X80000000Y-67500000D03*
X85000000Y-67500000D03*
D11*
X87750000Y-60000000D03*
D10*
X90250000Y-60000000D03*
X128750000Y-90000000D03*
X133750000Y-90000000D03*
D12*
X57500000Y-77460000D03*
D13*
X57500000Y-80000000D03*
X57500000Y-82540000D03*
D11*
X93750000Y-110000000D03*
D10*
X96250000Y-110000000D03*
D12*
X140000000Y-81190000D03*
D13*
X140000000Y-83730000D03*
X140000000Y-86270000D03*
X140000000Y-88810000D03*
D10*
X102420000Y-80000000D03*
X112580000Y-80000000D03*
X127420000Y-102500000D03*
X137580000Y-102500000D03*
X117420000Y-117500000D03*
X127580000Y-117500000D03*
X127420000Y-110000000D03*
X137580000Y-110000000D03*
D11*
X118750000Y-67500000D03*
D10*
X121250000Y-67500000D03*
X67420000Y-77500000D03*
X77580000Y-77500000D03*
D11*
X118750000Y-80000000D03*
D10*
X121250000Y-80000000D03*
D11*
X68750000Y-70000000D03*
D10*
X71250000Y-70000000D03*
X114920000Y-112500000D03*
X125080000Y-112500000D03*
X95500000Y-60000000D03*
X100500000Y-60000000D03*
D11*
X113690000Y-88690000D03*
D10*
X113690000Y-91230000D03*
X113690000Y-93770000D03*
X113690000Y-96310000D03*
X121310000Y-96310000D03*
X121310000Y-93770000D03*
X121310000Y-91230000D03*
X121310000Y-88690000D03*
D12*
X105000000Y-58730000D03*
D13*
X105000000Y-61270000D03*
D14*
X64380000Y-60000000D03*
X79620000Y-60000000D03*
D15*
X64380000Y-60000000D02*
X65720400Y-58659600D01*
X103777900Y-58659600D02*
X103848300Y-58730000D01*
X105000000Y-58730000D02*
X103848300Y-58730000D01*
X65720400Y-58659600D02*
X103777900Y-58659600D01*
X121310000Y-88690000D02*
X115160000Y-82540000D01*
X121310000Y-88690000D02*
X127440000Y-88690000D01*
X79620000Y-60000000D02*
X87750000Y-60000000D01*
X94398300Y-61101700D02*
X88851700Y-61101700D01*
X115160000Y-82540000D02*
X90990900Y-82540000D01*
X90202900Y-77297100D02*
X91310000Y-76190000D01*
X90202900Y-81752000D02*
X90202900Y-77297100D01*
X90990900Y-82540000D02*
X90202900Y-81752000D01*
X127440000Y-88690000D02*
X128750000Y-90000000D01*
X95500000Y-60000000D02*
X94398300Y-61101700D01*
X88851700Y-61101700D02*
X87750000Y-60000000D01*
X121310000Y-93770000D02*
X117580000Y-97500000D01*
X117580000Y-97500000D02*
X77580000Y-97500000D01*
X124920000Y-67500000D02*
X121250000Y-67500000D01*
X121250000Y-80000000D02*
X124920000Y-80000000D01*
X68750000Y-70000000D02*
X66111700Y-70000000D01*
X66111700Y-70000000D02*
X58651700Y-77460000D01*
X57500000Y-77460000D02*
X58651700Y-77460000D01*
X57500000Y-82540000D02*
X61290000Y-82540000D01*
X61290000Y-82540000D02*
X68750000Y-90000000D01*
X140390800Y-82460000D02*
X141151800Y-83221000D01*
X137540000Y-82460000D02*
X140390800Y-82460000D01*
X141151800Y-83221000D02*
X141151800Y-85118200D01*
X135080000Y-80000000D02*
X137540000Y-82460000D01*
X141151800Y-85118200D02*
X140000000Y-86270000D01*
X71190000Y-81270000D02*
X67420000Y-77500000D01*
X83690000Y-81270000D02*
X71190000Y-81270000D01*
X104920000Y-67500000D02*
X102420000Y-70000000D01*
X89880000Y-70000000D02*
X83690000Y-76190000D01*
X118750000Y-67500000D02*
X104920000Y-67500000D01*
X102420000Y-70000000D02*
X89880000Y-70000000D01*
X85120000Y-90000000D02*
X71250000Y-90000000D01*
X91310000Y-83810000D02*
X85120000Y-90000000D01*
X118750000Y-80000000D02*
X117586200Y-78836200D01*
X92580000Y-80000000D02*
X91310000Y-78730000D01*
X117586200Y-78836200D02*
X103583800Y-78836200D01*
X102420000Y-80000000D02*
X92580000Y-80000000D01*
X103583800Y-78836200D02*
X102420000Y-80000000D01*
X93750000Y-110000000D02*
X94893300Y-111143300D01*
X94893300Y-111143300D02*
X108723300Y-111143300D01*
X108723300Y-111143300D02*
X110080000Y-112500000D01*
X114920000Y-112500000D02*
X110080000Y-112500000D01*
G04 #@! TA.AperFunction,Conductor*
G36*
X89648200Y-58979007D02*
G01*
X89684164Y-59028507D01*
X89684164Y-59089693D01*
X89648200Y-59139193D01*
X89645010Y-59141416D01*
X89620155Y-59158022D01*
X90091666Y-59629533D01*
X90004394Y-59679920D01*
X89929920Y-59754394D01*
X89879533Y-59841666D01*
X89408022Y-59370155D01*
X89319501Y-59502638D01*
X89240349Y-59693727D01*
X89200000Y-59896581D01*
X89200000Y-60103418D01*
X89240349Y-60306272D01*
X89319501Y-60497360D01*
X89319504Y-60497366D01*
X89419619Y-60647199D01*
X89436227Y-60706087D01*
X89415049Y-60763490D01*
X89364175Y-60797483D01*
X89337303Y-60801200D01*
X89017179Y-60801200D01*
X88958988Y-60782293D01*
X88947175Y-60772204D01*
X88779496Y-60604525D01*
X88751719Y-60550008D01*
X88750500Y-60534521D01*
X88750500Y-59395727D01*
X88750499Y-59395725D01*
X88747646Y-59365301D01*
X88702793Y-59237118D01*
X88692273Y-59222864D01*
X88617745Y-59121881D01*
X88619182Y-59120820D01*
X88595626Y-59074587D01*
X88605197Y-59014155D01*
X88648462Y-58970890D01*
X88693407Y-58960100D01*
X89590009Y-58960100D01*
X89648200Y-58979007D01*
G37*
G04 #@! TD.AperFunction*
G04 #@! TA.AperFunction,Conductor*
G36*
X94987300Y-58979007D02*
G01*
X95023264Y-59028507D01*
X95023264Y-59089693D01*
X94987300Y-59139193D01*
X94984118Y-59141409D01*
X94959257Y-59158022D01*
X94862218Y-59222861D01*
X94862214Y-59222864D01*
X94722864Y-59362214D01*
X94722861Y-59362218D01*
X94613367Y-59526086D01*
X94537949Y-59708163D01*
X94537949Y-59708165D01*
X94499500Y-59901456D01*
X94499500Y-60098543D01*
X94537949Y-60291834D01*
X94537949Y-60291836D01*
X94584464Y-60404135D01*
X94589264Y-60465132D01*
X94563004Y-60512023D01*
X94302826Y-60772203D01*
X94248309Y-60799981D01*
X94232822Y-60801200D01*
X91162697Y-60801200D01*
X91104506Y-60782293D01*
X91068542Y-60732793D01*
X91068542Y-60671607D01*
X91080381Y-60647199D01*
X91180495Y-60497366D01*
X91180498Y-60497360D01*
X91259650Y-60306272D01*
X91299999Y-60103418D01*
X91300000Y-60103413D01*
X91300000Y-59896586D01*
X91299999Y-59896581D01*
X91259650Y-59693727D01*
X91180498Y-59502639D01*
X91180491Y-59502625D01*
X91091976Y-59370154D01*
X90620465Y-59841665D01*
X90570080Y-59754394D01*
X90495606Y-59679920D01*
X90408332Y-59629532D01*
X90879843Y-59158022D01*
X90854990Y-59141416D01*
X90817110Y-59093366D01*
X90814708Y-59032228D01*
X90848701Y-58981354D01*
X90906104Y-58960176D01*
X90909991Y-58960100D01*
X94929109Y-58960100D01*
X94987300Y-58979007D01*
G37*
G04 #@! TD.AperFunction*
G04 #@! TA.AperFunction,Conductor*
G36*
X149458691Y-50519407D02*
G01*
X149494655Y-50568907D01*
X149499500Y-50599500D01*
X149499500Y-124400500D01*
X149480593Y-124458691D01*
X149431093Y-124494655D01*
X149400500Y-124499500D01*
X50599500Y-124499500D01*
X50541309Y-124480593D01*
X50505345Y-124431093D01*
X50500500Y-124400500D01*
X50500500Y-121893709D01*
X51649500Y-121893709D01*
X51649500Y-122106290D01*
X51682752Y-122316238D01*
X51748443Y-122518412D01*
X51844948Y-122707815D01*
X51844950Y-122707819D01*
X51969891Y-122879786D01*
X51969893Y-122879788D01*
X51969896Y-122879792D01*
X52120208Y-123030104D01*
X52120211Y-123030106D01*
X52120213Y-123030108D01*
X52292180Y-123155049D01*
X52292184Y-123155051D01*
X52481588Y-123251557D01*
X52683757Y-123317246D01*
X52683758Y-123317246D01*
X52683761Y-123317247D01*
X52893710Y-123350500D01*
X52893713Y-123350500D01*
X53106290Y-123350500D01*
X53316238Y-123317247D01*
X53316239Y-123317246D01*
X53316243Y-123317246D01*
X53518412Y-123251557D01*
X53707816Y-123155051D01*
X53879792Y-123030104D01*
X54030104Y-122879792D01*
X54155051Y-122707816D01*
X54251557Y-122518412D01*
X54317246Y-122316243D01*
X54350500Y-122106287D01*
X54350500Y-121893713D01*
X54350500Y-121893709D01*
X54317247Y-121683761D01*
X54317246Y-121683757D01*
X54251557Y-121481588D01*
X54155051Y-121292184D01*
X54155049Y-121292180D01*
X54030108Y-121120213D01*
X54030106Y-121120211D01*
X54030104Y-121120208D01*
X53879792Y-120969896D01*
X53879788Y-120969893D01*
X53879786Y-120969891D01*
X53707819Y-120844950D01*
X53707815Y-120844948D01*
X53518412Y-120748443D01*
X53316238Y-120682752D01*
X53106290Y-120649500D01*
X53106287Y-120649500D01*
X52893713Y-120649500D01*
X52893710Y-120649500D01*
X52683761Y-120682752D01*
X52481587Y-120748443D01*
X52292184Y-120844948D01*
X52292180Y-120844950D01*
X52120213Y-120969891D01*
X51969891Y-121120213D01*
X51844950Y-121292180D01*
X51844948Y-121292184D01*
X51748443Y-121481587D01*
X51682752Y-121683761D01*
X51649500Y-121893709D01*
X50500500Y-121893709D01*
X50500500Y-117401456D01*
X116419500Y-117401456D01*
X116419500Y-117598543D01*
X116457949Y-117791834D01*
X116457949Y-117791836D01*
X116533367Y-117973913D01*
X116533368Y-117973914D01*
X116642861Y-118137782D01*
X116782218Y-118277139D01*
X116946086Y-118386632D01*
X117128165Y-118462051D01*
X117321459Y-118500500D01*
X117321460Y-118500500D01*
X117518540Y-118500500D01*
X117518541Y-118500500D01*
X117711835Y-118462051D01*
X117893914Y-118386632D01*
X118057782Y-118277139D01*
X118197139Y-118137782D01*
X118306632Y-117973914D01*
X118382051Y-117791835D01*
X118420500Y-117598541D01*
X118420500Y-117401459D01*
X118420499Y-117401456D01*
X118419529Y-117396581D01*
X126530000Y-117396581D01*
X126530000Y-117603418D01*
X126570349Y-117806272D01*
X126649501Y-117997361D01*
X126738022Y-118129843D01*
X127209532Y-117658332D01*
X127259920Y-117745606D01*
X127334394Y-117820080D01*
X127421665Y-117870465D01*
X126950154Y-118341977D01*
X127082625Y-118430491D01*
X127082639Y-118430498D01*
X127273727Y-118509650D01*
X127476581Y-118549999D01*
X127476586Y-118550000D01*
X127683414Y-118550000D01*
X127683418Y-118549999D01*
X127886272Y-118509650D01*
X128077360Y-118430498D01*
X128209843Y-118341976D01*
X127738333Y-117870466D01*
X127825606Y-117820080D01*
X127900080Y-117745606D01*
X127950466Y-117658333D01*
X128421976Y-118129843D01*
X128510498Y-117997360D01*
X128589650Y-117806272D01*
X128629999Y-117603418D01*
X128630000Y-117603413D01*
X128630000Y-117396586D01*
X128629999Y-117396581D01*
X128589650Y-117193727D01*
X128510498Y-117002639D01*
X128510491Y-117002625D01*
X128421976Y-116870154D01*
X127950465Y-117341665D01*
X127900080Y-117254394D01*
X127825606Y-117179920D01*
X127738332Y-117129532D01*
X128209843Y-116658022D01*
X128077361Y-116569501D01*
X127886272Y-116490349D01*
X127683418Y-116450000D01*
X127476581Y-116450000D01*
X127273727Y-116490349D01*
X127082638Y-116569501D01*
X126950155Y-116658022D01*
X127421666Y-117129533D01*
X127334394Y-117179920D01*
X127259920Y-117254394D01*
X127209533Y-117341666D01*
X126738022Y-116870155D01*
X126649501Y-117002638D01*
X126570349Y-117193727D01*
X126530000Y-117396581D01*
X118419529Y-117396581D01*
X118409390Y-117345606D01*
X118382051Y-117208165D01*
X118306632Y-117026086D01*
X118197139Y-116862218D01*
X118057782Y-116722861D01*
X117893914Y-116613368D01*
X117893915Y-116613368D01*
X117893913Y-116613367D01*
X117711835Y-116537949D01*
X117518543Y-116499500D01*
X117518541Y-116499500D01*
X117321459Y-116499500D01*
X117321456Y-116499500D01*
X117128165Y-116537949D01*
X117128163Y-116537949D01*
X116946086Y-116613367D01*
X116782218Y-116722861D01*
X116782214Y-116722864D01*
X116642864Y-116862214D01*
X116642861Y-116862218D01*
X116533367Y-117026086D01*
X116457949Y-117208163D01*
X116457949Y-117208165D01*
X116419500Y-117401456D01*
X50500500Y-117401456D01*
X50500500Y-109395725D01*
X92749500Y-109395725D01*
X92749500Y-110604274D01*
X92752353Y-110634694D01*
X92752355Y-110634703D01*
X92797207Y-110762883D01*
X92877845Y-110872144D01*
X92877847Y-110872146D01*
X92877850Y-110872150D01*
X92877853Y-110872152D01*
X92877855Y-110872154D01*
X92987116Y-110952792D01*
X92987117Y-110952792D01*
X92987118Y-110952793D01*
X93115301Y-110997646D01*
X93145725Y-111000499D01*
X93145727Y-111000500D01*
X93145734Y-111000500D01*
X94284521Y-111000500D01*
X94342712Y-111019407D01*
X94354525Y-111029496D01*
X94652840Y-111327811D01*
X94652839Y-111327811D01*
X94708789Y-111383760D01*
X94777307Y-111423319D01*
X94777311Y-111423321D01*
X94853735Y-111443799D01*
X94853737Y-111443800D01*
X94853738Y-111443800D01*
X99373503Y-111443800D01*
X99431694Y-111462707D01*
X99467658Y-111512207D01*
X99467658Y-111573393D01*
X99431694Y-111622893D01*
X99428505Y-111625115D01*
X99282218Y-111722861D01*
X99282214Y-111722864D01*
X99142864Y-111862214D01*
X99142861Y-111862218D01*
X99033367Y-112026086D01*
X98957949Y-112208163D01*
X98957949Y-112208165D01*
X98919500Y-112401456D01*
X98919500Y-112598543D01*
X98957949Y-112791834D01*
X98957949Y-112791836D01*
X99033367Y-112973913D01*
X99033368Y-112973914D01*
X99142861Y-113137782D01*
X99282218Y-113277139D01*
X99446086Y-113386632D01*
X99628165Y-113462051D01*
X99821459Y-113500500D01*
X99821460Y-113500500D01*
X100018540Y-113500500D01*
X100018541Y-113500500D01*
X100211835Y-113462051D01*
X100393914Y-113386632D01*
X100557782Y-113277139D01*
X100697139Y-113137782D01*
X100806632Y-112973914D01*
X100882051Y-112791835D01*
X100920500Y-112598541D01*
X100920500Y-112401459D01*
X100882051Y-112208165D01*
X100806632Y-112026086D01*
X100697139Y-111862218D01*
X100557782Y-111722861D01*
X100411495Y-111625115D01*
X100373616Y-111577065D01*
X100371214Y-111515927D01*
X100405207Y-111465053D01*
X100462611Y-111443876D01*
X100466497Y-111443800D01*
X108557821Y-111443800D01*
X108616012Y-111462707D01*
X108627825Y-111472796D01*
X109143004Y-111987975D01*
X109170781Y-112042492D01*
X109164464Y-112095864D01*
X109123930Y-112193727D01*
X109117948Y-112208168D01*
X109079500Y-112401456D01*
X109079500Y-112598543D01*
X109117949Y-112791834D01*
X109117949Y-112791836D01*
X109193367Y-112973913D01*
X109193368Y-112973914D01*
X109302861Y-113137782D01*
X109442218Y-113277139D01*
X109606086Y-113386632D01*
X109788165Y-113462051D01*
X109981459Y-113500500D01*
X109981460Y-113500500D01*
X110178540Y-113500500D01*
X110178541Y-113500500D01*
X110371835Y-113462051D01*
X110553914Y-113386632D01*
X110717782Y-113277139D01*
X110857139Y-113137782D01*
X110966632Y-112973914D01*
X111008539Y-112872741D01*
X111013148Y-112861615D01*
X111052884Y-112815089D01*
X111104612Y-112800500D01*
X113895388Y-112800500D01*
X113953579Y-112819407D01*
X113986852Y-112861615D01*
X113991461Y-112872741D01*
X114033368Y-112973914D01*
X114142861Y-113137782D01*
X114282218Y-113277139D01*
X114446086Y-113386632D01*
X114628165Y-113462051D01*
X114821459Y-113500500D01*
X114821460Y-113500500D01*
X115018540Y-113500500D01*
X115018541Y-113500500D01*
X115211835Y-113462051D01*
X115393914Y-113386632D01*
X115557782Y-113277139D01*
X115697139Y-113137782D01*
X115806632Y-112973914D01*
X115882051Y-112791835D01*
X115920500Y-112598541D01*
X115920500Y-112401459D01*
X115920499Y-112401456D01*
X115919529Y-112396581D01*
X124030000Y-112396581D01*
X124030000Y-112603418D01*
X124070349Y-112806272D01*
X124149501Y-112997361D01*
X124238022Y-113129843D01*
X124709532Y-112658332D01*
X124759920Y-112745606D01*
X124834394Y-112820080D01*
X124921665Y-112870465D01*
X124450154Y-113341977D01*
X124582625Y-113430491D01*
X124582639Y-113430498D01*
X124773727Y-113509650D01*
X124976581Y-113549999D01*
X124976586Y-113550000D01*
X125183414Y-113550000D01*
X125183418Y-113549999D01*
X125386272Y-113509650D01*
X125577360Y-113430498D01*
X125709843Y-113341976D01*
X125238333Y-112870466D01*
X125325606Y-112820080D01*
X125400080Y-112745606D01*
X125450466Y-112658333D01*
X125921976Y-113129843D01*
X126010498Y-112997360D01*
X126089650Y-112806272D01*
X126129999Y-112603418D01*
X126130000Y-112603413D01*
X126130000Y-112396586D01*
X126129999Y-112396581D01*
X126089650Y-112193727D01*
X126010498Y-112002639D01*
X126010491Y-112002625D01*
X125921976Y-111870154D01*
X125450465Y-112341665D01*
X125400080Y-112254394D01*
X125325606Y-112179920D01*
X125238332Y-112129532D01*
X125709843Y-111658022D01*
X125577361Y-111569501D01*
X125386272Y-111490349D01*
X125183418Y-111450000D01*
X124976581Y-111450000D01*
X124773727Y-111490349D01*
X124582638Y-111569501D01*
X124450155Y-111658022D01*
X124921666Y-112129533D01*
X124834394Y-112179920D01*
X124759920Y-112254394D01*
X124709533Y-112341666D01*
X124238022Y-111870155D01*
X124149501Y-112002638D01*
X124070349Y-112193727D01*
X124030000Y-112396581D01*
X115919529Y-112396581D01*
X115909390Y-112345606D01*
X115882051Y-112208165D01*
X115806632Y-112026086D01*
X115697139Y-111862218D01*
X115557782Y-111722861D01*
X115411495Y-111625115D01*
X115393913Y-111613367D01*
X115211835Y-111537949D01*
X115018543Y-111499500D01*
X115018541Y-111499500D01*
X114821459Y-111499500D01*
X114821456Y-111499500D01*
X114628165Y-111537949D01*
X114628163Y-111537949D01*
X114446086Y-111613367D01*
X114282218Y-111722861D01*
X114282214Y-111722864D01*
X114142864Y-111862214D01*
X114142861Y-111862218D01*
X114033367Y-112026087D01*
X113986852Y-112138385D01*
X113947116Y-112184911D01*
X113895388Y-112199500D01*
X111104612Y-112199500D01*
X111046421Y-112180593D01*
X111013148Y-112138385D01*
X110987477Y-112076412D01*
X110966632Y-112026086D01*
X110857139Y-111862218D01*
X110717782Y-111722861D01*
X110571495Y-111625115D01*
X110553913Y-111613367D01*
X110371835Y-111537949D01*
X110178543Y-111499500D01*
X110178541Y-111499500D01*
X109981459Y-111499500D01*
X109981456Y-111499500D01*
X109788168Y-111537948D01*
X109788166Y-111537948D01*
X109788165Y-111537949D01*
X109727676Y-111563004D01*
X109675864Y-111584465D01*
X109614867Y-111589264D01*
X109567975Y-111563004D01*
X109332782Y-111327811D01*
X108907811Y-110902840D01*
X108907808Y-110902838D01*
X108839292Y-110863280D01*
X108839288Y-110863278D01*
X108762864Y-110842800D01*
X108762862Y-110842800D01*
X96921675Y-110842800D01*
X96863484Y-110823893D01*
X96851671Y-110813804D01*
X96408333Y-110370466D01*
X96495606Y-110320080D01*
X96570080Y-110245606D01*
X96620466Y-110158333D01*
X97091976Y-110629843D01*
X97180498Y-110497360D01*
X97259650Y-110306272D01*
X97299999Y-110103418D01*
X97300000Y-110103413D01*
X97300000Y-109901456D01*
X126419500Y-109901456D01*
X126419500Y-110098543D01*
X126457949Y-110291834D01*
X126457949Y-110291836D01*
X126533367Y-110473913D01*
X126533368Y-110473914D01*
X126642861Y-110637782D01*
X126782218Y-110777139D01*
X126946086Y-110886632D01*
X127128165Y-110962051D01*
X127321459Y-111000500D01*
X127321460Y-111000500D01*
X127518540Y-111000500D01*
X127518541Y-111000500D01*
X127711835Y-110962051D01*
X127893914Y-110886632D01*
X128057782Y-110777139D01*
X128197139Y-110637782D01*
X128306632Y-110473914D01*
X128382051Y-110291835D01*
X128420500Y-110098541D01*
X128420500Y-109901459D01*
X128420499Y-109901456D01*
X136579500Y-109901456D01*
X136579500Y-110098543D01*
X136617949Y-110291834D01*
X136617949Y-110291836D01*
X136693367Y-110473913D01*
X136693368Y-110473914D01*
X136802861Y-110637782D01*
X136942218Y-110777139D01*
X137106086Y-110886632D01*
X137288165Y-110962051D01*
X137481459Y-111000500D01*
X137481460Y-111000500D01*
X137678540Y-111000500D01*
X137678541Y-111000500D01*
X137871835Y-110962051D01*
X138053914Y-110886632D01*
X138217782Y-110777139D01*
X138357139Y-110637782D01*
X138466632Y-110473914D01*
X138542051Y-110291835D01*
X138580500Y-110098541D01*
X138580500Y-109901459D01*
X138542051Y-109708165D01*
X138466632Y-109526086D01*
X138357139Y-109362218D01*
X138217782Y-109222861D01*
X138108288Y-109149699D01*
X138053913Y-109113367D01*
X137871835Y-109037949D01*
X137678543Y-108999500D01*
X137678541Y-108999500D01*
X137481459Y-108999500D01*
X137481456Y-108999500D01*
X137288165Y-109037949D01*
X137288163Y-109037949D01*
X137106086Y-109113367D01*
X136942218Y-109222861D01*
X136942214Y-109222864D01*
X136802864Y-109362214D01*
X136802861Y-109362218D01*
X136693367Y-109526086D01*
X136617949Y-109708163D01*
X136617949Y-109708165D01*
X136579500Y-109901456D01*
X128420499Y-109901456D01*
X128382051Y-109708165D01*
X128306632Y-109526086D01*
X128197139Y-109362218D01*
X128057782Y-109222861D01*
X127948288Y-109149699D01*
X127893913Y-109113367D01*
X127711835Y-109037949D01*
X127518543Y-108999500D01*
X127518541Y-108999500D01*
X127321459Y-108999500D01*
X127321456Y-108999500D01*
X127128165Y-109037949D01*
X127128163Y-109037949D01*
X126946086Y-109113367D01*
X126782218Y-109222861D01*
X126782214Y-109222864D01*
X126642864Y-109362214D01*
X126642861Y-109362218D01*
X126533367Y-109526086D01*
X126457949Y-109708163D01*
X126457949Y-109708165D01*
X126419500Y-109901456D01*
X97300000Y-109901456D01*
X97300000Y-109896586D01*
X97299999Y-109896581D01*
X97259650Y-109693727D01*
X97180498Y-109502639D01*
X97180491Y-109502625D01*
X97091976Y-109370154D01*
X96620465Y-109841665D01*
X96570080Y-109754394D01*
X96495606Y-109679920D01*
X96408332Y-109629532D01*
X96879843Y-109158022D01*
X96747361Y-109069501D01*
X96556272Y-108990349D01*
X96353418Y-108950000D01*
X96146581Y-108950000D01*
X95943727Y-108990349D01*
X95752638Y-109069501D01*
X95620155Y-109158022D01*
X96091666Y-109629533D01*
X96004394Y-109679920D01*
X95929920Y-109754394D01*
X95879533Y-109841666D01*
X95408022Y-109370155D01*
X95319501Y-109502638D01*
X95240349Y-109693727D01*
X95200000Y-109896581D01*
X95200000Y-110103418D01*
X95240349Y-110306272D01*
X95319501Y-110497361D01*
X95408022Y-110629843D01*
X95879532Y-110158332D01*
X95929920Y-110245606D01*
X96004394Y-110320080D01*
X96091665Y-110370465D01*
X95648328Y-110813804D01*
X95593811Y-110841581D01*
X95578324Y-110842800D01*
X95058779Y-110842800D01*
X95000588Y-110823893D01*
X94988775Y-110813804D01*
X94779496Y-110604525D01*
X94751719Y-110550008D01*
X94750500Y-110534521D01*
X94750500Y-109395727D01*
X94750499Y-109395725D01*
X94747646Y-109365305D01*
X94747646Y-109365301D01*
X94702793Y-109237118D01*
X94702790Y-109237115D01*
X94702790Y-109237113D01*
X94622154Y-109127855D01*
X94622152Y-109127853D01*
X94622150Y-109127850D01*
X94622146Y-109127847D01*
X94622144Y-109127845D01*
X94512883Y-109047207D01*
X94384703Y-109002355D01*
X94384694Y-109002353D01*
X94354274Y-108999500D01*
X94354266Y-108999500D01*
X93145734Y-108999500D01*
X93145725Y-108999500D01*
X93115305Y-109002353D01*
X93115296Y-109002355D01*
X92987116Y-109047207D01*
X92877855Y-109127845D01*
X92877845Y-109127855D01*
X92797207Y-109237116D01*
X92752355Y-109365296D01*
X92752353Y-109365305D01*
X92749500Y-109395725D01*
X50500500Y-109395725D01*
X50500500Y-101895725D01*
X120249500Y-101895725D01*
X120249500Y-103104274D01*
X120252353Y-103134694D01*
X120252355Y-103134703D01*
X120297207Y-103262883D01*
X120377845Y-103372144D01*
X120377847Y-103372146D01*
X120377850Y-103372150D01*
X120377853Y-103372152D01*
X120377855Y-103372154D01*
X120487116Y-103452792D01*
X120487117Y-103452792D01*
X120487118Y-103452793D01*
X120615301Y-103497646D01*
X120645725Y-103500499D01*
X120645727Y-103500500D01*
X120645734Y-103500500D01*
X121854273Y-103500500D01*
X121854273Y-103500499D01*
X121884699Y-103497646D01*
X122012882Y-103452793D01*
X122122150Y-103372150D01*
X122202793Y-103262882D01*
X122247646Y-103134699D01*
X122250499Y-103104273D01*
X122250500Y-103104273D01*
X122250500Y-102401456D01*
X122749500Y-102401456D01*
X122749500Y-102598543D01*
X122787949Y-102791834D01*
X122787949Y-102791836D01*
X122863367Y-102973913D01*
X122863368Y-102973914D01*
X122972861Y-103137782D01*
X123112218Y-103277139D01*
X123276086Y-103386632D01*
X123458165Y-103462051D01*
X123651459Y-103500500D01*
X123651460Y-103500500D01*
X123848540Y-103500500D01*
X123848541Y-103500500D01*
X124041835Y-103462051D01*
X124223914Y-103386632D01*
X124387782Y-103277139D01*
X124527139Y-103137782D01*
X124636632Y-102973914D01*
X124712051Y-102791835D01*
X124750500Y-102598541D01*
X124750500Y-102401459D01*
X124750499Y-102401456D01*
X126419500Y-102401456D01*
X126419500Y-102598543D01*
X126457949Y-102791834D01*
X126457949Y-102791836D01*
X126533367Y-102973913D01*
X126533368Y-102973914D01*
X126642861Y-103137782D01*
X126782218Y-103277139D01*
X126946086Y-103386632D01*
X127128165Y-103462051D01*
X127321459Y-103500500D01*
X127321460Y-103500500D01*
X127518540Y-103500500D01*
X127518541Y-103500500D01*
X127711835Y-103462051D01*
X127893914Y-103386632D01*
X128057782Y-103277139D01*
X128197139Y-103137782D01*
X128306632Y-102973914D01*
X128382051Y-102791835D01*
X128420500Y-102598541D01*
X128420500Y-102401459D01*
X128420499Y-102401456D01*
X128419529Y-102396581D01*
X136530000Y-102396581D01*
X136530000Y-102603418D01*
X136570349Y-102806272D01*
X136649501Y-102997361D01*
X136738022Y-103129843D01*
X137209532Y-102658332D01*
X137259920Y-102745606D01*
X137334394Y-102820080D01*
X137421665Y-102870465D01*
X136950154Y-103341977D01*
X137082625Y-103430491D01*
X137082639Y-103430498D01*
X137273727Y-103509650D01*
X137476581Y-103549999D01*
X137476586Y-103550000D01*
X137683414Y-103550000D01*
X137683418Y-103549999D01*
X137886272Y-103509650D01*
X138077360Y-103430498D01*
X138209843Y-103341976D01*
X137738333Y-102870466D01*
X137825606Y-102820080D01*
X137900080Y-102745606D01*
X137950466Y-102658333D01*
X138421976Y-103129843D01*
X138510498Y-102997360D01*
X138589650Y-102806272D01*
X138629999Y-102603418D01*
X138630000Y-102603413D01*
X138630000Y-102396586D01*
X138629999Y-102396581D01*
X138589650Y-102193727D01*
X138510498Y-102002639D01*
X138510491Y-102002625D01*
X138421976Y-101870154D01*
X137950465Y-102341665D01*
X137900080Y-102254394D01*
X137825606Y-102179920D01*
X137738332Y-102129532D01*
X138209843Y-101658022D01*
X138077361Y-101569501D01*
X137886272Y-101490349D01*
X137683418Y-101450000D01*
X137476581Y-101450000D01*
X137273727Y-101490349D01*
X137082638Y-101569501D01*
X136950155Y-101658022D01*
X137421666Y-102129533D01*
X137334394Y-102179920D01*
X137259920Y-102254394D01*
X137209533Y-102341666D01*
X136738022Y-101870155D01*
X136649501Y-102002638D01*
X136570349Y-102193727D01*
X136530000Y-102396581D01*
X128419529Y-102396581D01*
X128409390Y-102345606D01*
X128382051Y-102208165D01*
X128306632Y-102026086D01*
X128197139Y-101862218D01*
X128057782Y-101722861D01*
X127948288Y-101649699D01*
X127893913Y-101613367D01*
X127711835Y-101537949D01*
X127518543Y-101499500D01*
X127518541Y-101499500D01*
X127321459Y-101499500D01*
X127321456Y-101499500D01*
X127128165Y-101537949D01*
X127128163Y-101537949D01*
X126946086Y-101613367D01*
X126782218Y-101722861D01*
X126782214Y-101722864D01*
X126642864Y-101862214D01*
X126642861Y-101862218D01*
X126533367Y-102026086D01*
X126457949Y-102208163D01*
X126457949Y-102208165D01*
X126419500Y-102401456D01*
X124750499Y-102401456D01*
X124712051Y-102208165D01*
X124636632Y-102026086D01*
X124527139Y-101862218D01*
X124387782Y-101722861D01*
X124278288Y-101649699D01*
X124223913Y-101613367D01*
X124041835Y-101537949D01*
X123848543Y-101499500D01*
X123848541Y-101499500D01*
X123651459Y-101499500D01*
X123651456Y-101499500D01*
X123458165Y-101537949D01*
X123458163Y-101537949D01*
X123276086Y-101613367D01*
X123112218Y-101722861D01*
X123112214Y-101722864D01*
X122972864Y-101862214D01*
X122972861Y-101862218D01*
X122863367Y-102026086D01*
X122787949Y-102208163D01*
X122787949Y-102208165D01*
X122749500Y-102401456D01*
X122250500Y-102401456D01*
X122250500Y-101895727D01*
X122250499Y-101895725D01*
X122247646Y-101865305D01*
X122247646Y-101865301D01*
X122202793Y-101737118D01*
X122192273Y-101722864D01*
X122122154Y-101627855D01*
X122122152Y-101627853D01*
X122122150Y-101627850D01*
X122122146Y-101627847D01*
X122122144Y-101627845D01*
X122012883Y-101547207D01*
X121884703Y-101502355D01*
X121884694Y-101502353D01*
X121854274Y-101499500D01*
X121854266Y-101499500D01*
X120645734Y-101499500D01*
X120645725Y-101499500D01*
X120615305Y-101502353D01*
X120615296Y-101502355D01*
X120487116Y-101547207D01*
X120377855Y-101627845D01*
X120377845Y-101627855D01*
X120297207Y-101737116D01*
X120252355Y-101865296D01*
X120252353Y-101865305D01*
X120249500Y-101895725D01*
X50500500Y-101895725D01*
X50500500Y-97401456D01*
X66419500Y-97401456D01*
X66419500Y-97598543D01*
X66457949Y-97791834D01*
X66457949Y-97791836D01*
X66533367Y-97973913D01*
X66533368Y-97973914D01*
X66642861Y-98137782D01*
X66782218Y-98277139D01*
X66946086Y-98386632D01*
X67128165Y-98462051D01*
X67321459Y-98500500D01*
X67321460Y-98500500D01*
X67518540Y-98500500D01*
X67518541Y-98500500D01*
X67711835Y-98462051D01*
X67893914Y-98386632D01*
X68057782Y-98277139D01*
X68197139Y-98137782D01*
X68306632Y-97973914D01*
X68382051Y-97791835D01*
X68420500Y-97598541D01*
X68420500Y-97401459D01*
X68420499Y-97401456D01*
X76579500Y-97401456D01*
X76579500Y-97598543D01*
X76617949Y-97791834D01*
X76617949Y-97791836D01*
X76693367Y-97973913D01*
X76693368Y-97973914D01*
X76802861Y-98137782D01*
X76942218Y-98277139D01*
X77106086Y-98386632D01*
X77288165Y-98462051D01*
X77481459Y-98500500D01*
X77481460Y-98500500D01*
X77678540Y-98500500D01*
X77678541Y-98500500D01*
X77871835Y-98462051D01*
X78053914Y-98386632D01*
X78217782Y-98277139D01*
X78357139Y-98137782D01*
X78466632Y-97973914D01*
X78495421Y-97904409D01*
X78513148Y-97861615D01*
X78552884Y-97815089D01*
X78604612Y-97800500D01*
X117619563Y-97800500D01*
X117619563Y-97800499D01*
X117695989Y-97780021D01*
X117764511Y-97740460D01*
X117820460Y-97684511D01*
X119293514Y-96211456D01*
X120309500Y-96211456D01*
X120309500Y-96408543D01*
X120347949Y-96601834D01*
X120347949Y-96601836D01*
X120423367Y-96783913D01*
X120423368Y-96783914D01*
X120532861Y-96947782D01*
X120672218Y-97087139D01*
X120836086Y-97196632D01*
X121018165Y-97272051D01*
X121211459Y-97310500D01*
X121211460Y-97310500D01*
X121408540Y-97310500D01*
X121408541Y-97310500D01*
X121601835Y-97272051D01*
X121783914Y-97196632D01*
X121947782Y-97087139D01*
X122087139Y-96947782D01*
X122196632Y-96783914D01*
X122272051Y-96601835D01*
X122310500Y-96408541D01*
X122310500Y-96211459D01*
X122272051Y-96018165D01*
X122196632Y-95836086D01*
X122087139Y-95672218D01*
X121947782Y-95532861D01*
X121783914Y-95423368D01*
X121783915Y-95423368D01*
X121783913Y-95423367D01*
X121601835Y-95347949D01*
X121408543Y-95309500D01*
X121408541Y-95309500D01*
X121211459Y-95309500D01*
X121211456Y-95309500D01*
X121018165Y-95347949D01*
X121018163Y-95347949D01*
X120836086Y-95423367D01*
X120672218Y-95532861D01*
X120672214Y-95532864D01*
X120532864Y-95672214D01*
X120532861Y-95672218D01*
X120423367Y-95836086D01*
X120347949Y-96018163D01*
X120347949Y-96018165D01*
X120309500Y-96211456D01*
X119293514Y-96211456D01*
X120797977Y-94706992D01*
X120852492Y-94679217D01*
X120905862Y-94685533D01*
X121018165Y-94732051D01*
X121211459Y-94770500D01*
X121211460Y-94770500D01*
X121408540Y-94770500D01*
X121408541Y-94770500D01*
X121601835Y-94732051D01*
X121783914Y-94656632D01*
X121947782Y-94547139D01*
X122087139Y-94407782D01*
X122196632Y-94243914D01*
X122272051Y-94061835D01*
X122310500Y-93868541D01*
X122310500Y-93671459D01*
X122272051Y-93478165D01*
X122196632Y-93296086D01*
X122087139Y-93132218D01*
X121947782Y-92992861D01*
X121783914Y-92883368D01*
X121783915Y-92883368D01*
X121783913Y-92883367D01*
X121601835Y-92807949D01*
X121408543Y-92769500D01*
X121408541Y-92769500D01*
X121211459Y-92769500D01*
X121211456Y-92769500D01*
X121018165Y-92807949D01*
X121018163Y-92807949D01*
X120836086Y-92883367D01*
X120672218Y-92992861D01*
X120672214Y-92992864D01*
X120532864Y-93132214D01*
X120532861Y-93132218D01*
X120423367Y-93296086D01*
X120347949Y-93478163D01*
X120347949Y-93478165D01*
X120309500Y-93671456D01*
X120309500Y-93868543D01*
X120347949Y-94061834D01*
X120347949Y-94061836D01*
X120394464Y-94174134D01*
X120399264Y-94235131D01*
X120373004Y-94282023D01*
X117484525Y-97170504D01*
X117430008Y-97198281D01*
X117414521Y-97199500D01*
X114408375Y-97199500D01*
X114350184Y-97180593D01*
X114338371Y-97170504D01*
X113848333Y-96680466D01*
X113935606Y-96630080D01*
X114010080Y-96555606D01*
X114060466Y-96468333D01*
X114531976Y-96939843D01*
X114620498Y-96807360D01*
X114699650Y-96616272D01*
X114739999Y-96413418D01*
X114740000Y-96413413D01*
X114740000Y-96206586D01*
X114739999Y-96206581D01*
X114699650Y-96003727D01*
X114620498Y-95812639D01*
X114620491Y-95812625D01*
X114531976Y-95680154D01*
X114060465Y-96151665D01*
X114010080Y-96064394D01*
X113935606Y-95989920D01*
X113848332Y-95939532D01*
X114319843Y-95468022D01*
X114187361Y-95379501D01*
X113996272Y-95300349D01*
X113793418Y-95260000D01*
X113586581Y-95260000D01*
X113383727Y-95300349D01*
X113192638Y-95379501D01*
X113060155Y-95468022D01*
X113531666Y-95939533D01*
X113444394Y-95989920D01*
X113369920Y-96064394D01*
X113319533Y-96151666D01*
X112848022Y-95680155D01*
X112759501Y-95812638D01*
X112680349Y-96003727D01*
X112640000Y-96206581D01*
X112640000Y-96413418D01*
X112680349Y-96616272D01*
X112759501Y-96807361D01*
X112848022Y-96939843D01*
X113319532Y-96468332D01*
X113369920Y-96555606D01*
X113444394Y-96630080D01*
X113531665Y-96680465D01*
X113041628Y-97170504D01*
X112987111Y-97198281D01*
X112971624Y-97199500D01*
X78604612Y-97199500D01*
X78546421Y-97180593D01*
X78513148Y-97138385D01*
X78466632Y-97026087D01*
X78466632Y-97026086D01*
X78357139Y-96862218D01*
X78217782Y-96722861D01*
X78108288Y-96649699D01*
X78053913Y-96613367D01*
X77871835Y-96537949D01*
X77678543Y-96499500D01*
X77678541Y-96499500D01*
X77481459Y-96499500D01*
X77481456Y-96499500D01*
X77288165Y-96537949D01*
X77288163Y-96537949D01*
X77106086Y-96613367D01*
X76942218Y-96722861D01*
X76942214Y-96722864D01*
X76802864Y-96862214D01*
X76802861Y-96862218D01*
X76693367Y-97026086D01*
X76617949Y-97208163D01*
X76617949Y-97208165D01*
X76579500Y-97401456D01*
X68420499Y-97401456D01*
X68382051Y-97208165D01*
X68306632Y-97026086D01*
X68197139Y-96862218D01*
X68057782Y-96722861D01*
X67948288Y-96649699D01*
X67893913Y-96613367D01*
X67711835Y-96537949D01*
X67518543Y-96499500D01*
X67518541Y-96499500D01*
X67321459Y-96499500D01*
X67321456Y-96499500D01*
X67128165Y-96537949D01*
X67128163Y-96537949D01*
X66946086Y-96613367D01*
X66782218Y-96722861D01*
X66782214Y-96722864D01*
X66642864Y-96862214D01*
X66642861Y-96862218D01*
X66533367Y-97026086D01*
X66457949Y-97208163D01*
X66457949Y-97208165D01*
X66419500Y-97401456D01*
X50500500Y-97401456D01*
X50500500Y-93671456D01*
X112689500Y-93671456D01*
X112689500Y-93868543D01*
X112727949Y-94061834D01*
X112727949Y-94061836D01*
X112803367Y-94243913D01*
X112839699Y-94298288D01*
X112912861Y-94407782D01*
X113052218Y-94547139D01*
X113216086Y-94656632D01*
X113398165Y-94732051D01*
X113591459Y-94770500D01*
X113591460Y-94770500D01*
X113788540Y-94770500D01*
X113788541Y-94770500D01*
X113981835Y-94732051D01*
X114163914Y-94656632D01*
X114327782Y-94547139D01*
X114467139Y-94407782D01*
X114576632Y-94243914D01*
X114652051Y-94061835D01*
X114690500Y-93868541D01*
X114690500Y-93671459D01*
X114652051Y-93478165D01*
X114576632Y-93296086D01*
X114467139Y-93132218D01*
X114327782Y-92992861D01*
X114163914Y-92883368D01*
X114163915Y-92883368D01*
X114163913Y-92883367D01*
X113981835Y-92807949D01*
X113788543Y-92769500D01*
X113788541Y-92769500D01*
X113591459Y-92769500D01*
X113591456Y-92769500D01*
X113398165Y-92807949D01*
X113398163Y-92807949D01*
X113216086Y-92883367D01*
X113052218Y-92992861D01*
X113052214Y-92992864D01*
X112912864Y-93132214D01*
X112912861Y-93132218D01*
X112803367Y-93296086D01*
X112727949Y-93478163D01*
X112727949Y-93478165D01*
X112689500Y-93671456D01*
X50500500Y-93671456D01*
X50500500Y-91131456D01*
X112689500Y-91131456D01*
X112689500Y-91328543D01*
X112727949Y-91521834D01*
X112727949Y-91521836D01*
X112803367Y-91703913D01*
X112803368Y-91703914D01*
X112912861Y-91867782D01*
X113052218Y-92007139D01*
X113216086Y-92116632D01*
X113398165Y-92192051D01*
X113591459Y-92230500D01*
X113591460Y-92230500D01*
X113788540Y-92230500D01*
X113788541Y-92230500D01*
X113981835Y-92192051D01*
X114163914Y-92116632D01*
X114327782Y-92007139D01*
X114467139Y-91867782D01*
X114576632Y-91703914D01*
X114652051Y-91521835D01*
X114690500Y-91328541D01*
X114690500Y-91131459D01*
X114690499Y-91131456D01*
X120309500Y-91131456D01*
X120309500Y-91328543D01*
X120347949Y-91521834D01*
X120347949Y-91521836D01*
X120423367Y-91703913D01*
X120423368Y-91703914D01*
X120532861Y-91867782D01*
X120672218Y-92007139D01*
X120836086Y-92116632D01*
X121018165Y-92192051D01*
X121211459Y-92230500D01*
X121211460Y-92230500D01*
X121408540Y-92230500D01*
X121408541Y-92230500D01*
X121601835Y-92192051D01*
X121783914Y-92116632D01*
X121947782Y-92007139D01*
X122087139Y-91867782D01*
X122196632Y-91703914D01*
X122272051Y-91521835D01*
X122310500Y-91328541D01*
X122310500Y-91131459D01*
X122272051Y-90938165D01*
X122196632Y-90756086D01*
X122087139Y-90592218D01*
X121947782Y-90452861D01*
X121783914Y-90343368D01*
X121783915Y-90343368D01*
X121783913Y-90343367D01*
X121601835Y-90267949D01*
X121408543Y-90229500D01*
X121408541Y-90229500D01*
X121211459Y-90229500D01*
X121211456Y-90229500D01*
X121018165Y-90267949D01*
X121018163Y-90267949D01*
X120836086Y-90343367D01*
X120672218Y-90452861D01*
X120672214Y-90452864D01*
X120532864Y-90592214D01*
X120532861Y-90592218D01*
X120423367Y-90756086D01*
X120347949Y-90938163D01*
X120347949Y-90938165D01*
X120309500Y-91131456D01*
X114690499Y-91131456D01*
X114652051Y-90938165D01*
X114576632Y-90756086D01*
X114467139Y-90592218D01*
X114327782Y-90452861D01*
X114163914Y-90343368D01*
X114163915Y-90343368D01*
X114163913Y-90343367D01*
X113981835Y-90267949D01*
X113788543Y-90229500D01*
X113788541Y-90229500D01*
X113591459Y-90229500D01*
X113591456Y-90229500D01*
X113398165Y-90267949D01*
X113398163Y-90267949D01*
X113216086Y-90343367D01*
X113052218Y-90452861D01*
X113052214Y-90452864D01*
X112912864Y-90592214D01*
X112912861Y-90592218D01*
X112803367Y-90756086D01*
X112727949Y-90938163D01*
X112727949Y-90938165D01*
X112689500Y-91131456D01*
X50500500Y-91131456D01*
X50500500Y-82436532D01*
X56449500Y-82436532D01*
X56449500Y-82643467D01*
X56489869Y-82846418D01*
X56569058Y-83037597D01*
X56684020Y-83209651D01*
X56684023Y-83209655D01*
X56830345Y-83355977D01*
X57002402Y-83470941D01*
X57193580Y-83550130D01*
X57396535Y-83590500D01*
X57396536Y-83590500D01*
X57603464Y-83590500D01*
X57603465Y-83590500D01*
X57806420Y-83550130D01*
X57997598Y-83470941D01*
X58169655Y-83355977D01*
X58315977Y-83209655D01*
X58430941Y-83037598D01*
X58487268Y-82901614D01*
X58527005Y-82855088D01*
X58578732Y-82840500D01*
X61124521Y-82840500D01*
X61182712Y-82859407D01*
X61194525Y-82869496D01*
X67720504Y-89395475D01*
X67748281Y-89449992D01*
X67749500Y-89465479D01*
X67749500Y-90604274D01*
X67752353Y-90634694D01*
X67752355Y-90634703D01*
X67797207Y-90762883D01*
X67877845Y-90872144D01*
X67877847Y-90872146D01*
X67877850Y-90872150D01*
X67877853Y-90872152D01*
X67877855Y-90872154D01*
X67987116Y-90952792D01*
X67987117Y-90952792D01*
X67987118Y-90952793D01*
X68115301Y-90997646D01*
X68145725Y-91000499D01*
X68145727Y-91000500D01*
X68145734Y-91000500D01*
X69354273Y-91000500D01*
X69354273Y-91000499D01*
X69384699Y-90997646D01*
X69512882Y-90952793D01*
X69622150Y-90872150D01*
X69702793Y-90762882D01*
X69747646Y-90634699D01*
X69750499Y-90604273D01*
X69750500Y-90604273D01*
X69750500Y-89901456D01*
X70249500Y-89901456D01*
X70249500Y-90098543D01*
X70287949Y-90291834D01*
X70287949Y-90291836D01*
X70363367Y-90473913D01*
X70363368Y-90473914D01*
X70472861Y-90637782D01*
X70612218Y-90777139D01*
X70776086Y-90886632D01*
X70958165Y-90962051D01*
X71151459Y-91000500D01*
X71151460Y-91000500D01*
X71348540Y-91000500D01*
X71348541Y-91000500D01*
X71541835Y-90962051D01*
X71723914Y-90886632D01*
X71887782Y-90777139D01*
X72027139Y-90637782D01*
X72136632Y-90473914D01*
X72178539Y-90372741D01*
X72183148Y-90361615D01*
X72222884Y-90315089D01*
X72274612Y-90300500D01*
X85159563Y-90300500D01*
X85159563Y-90300499D01*
X85235989Y-90280021D01*
X85304511Y-90240460D01*
X85360460Y-90184511D01*
X87459245Y-88085725D01*
X112689500Y-88085725D01*
X112689500Y-89294274D01*
X112692353Y-89324694D01*
X112692355Y-89324703D01*
X112737207Y-89452883D01*
X112817845Y-89562144D01*
X112817847Y-89562146D01*
X112817850Y-89562150D01*
X112817853Y-89562152D01*
X112817855Y-89562154D01*
X112927116Y-89642792D01*
X112927117Y-89642792D01*
X112927118Y-89642793D01*
X113055301Y-89687646D01*
X113085725Y-89690499D01*
X113085727Y-89690500D01*
X113085734Y-89690500D01*
X114294273Y-89690500D01*
X114294273Y-89690499D01*
X114324699Y-89687646D01*
X114452882Y-89642793D01*
X114562150Y-89562150D01*
X114642793Y-89452882D01*
X114687646Y-89324699D01*
X114690499Y-89294273D01*
X114690500Y-89294273D01*
X114690500Y-88085727D01*
X114690499Y-88085725D01*
X114687646Y-88055305D01*
X114687646Y-88055301D01*
X114642793Y-87927118D01*
X114632273Y-87912864D01*
X114562154Y-87817855D01*
X114562152Y-87817853D01*
X114562150Y-87817850D01*
X114562146Y-87817847D01*
X114562144Y-87817845D01*
X114452883Y-87737207D01*
X114324703Y-87692355D01*
X114324694Y-87692353D01*
X114294274Y-87689500D01*
X114294266Y-87689500D01*
X113085734Y-87689500D01*
X113085725Y-87689500D01*
X113055305Y-87692353D01*
X113055296Y-87692355D01*
X112927116Y-87737207D01*
X112817855Y-87817845D01*
X112817845Y-87817855D01*
X112737207Y-87927116D01*
X112692355Y-88055296D01*
X112692353Y-88055305D01*
X112689500Y-88085725D01*
X87459245Y-88085725D01*
X90797977Y-84746992D01*
X90852492Y-84719217D01*
X90905862Y-84725533D01*
X91018165Y-84772051D01*
X91211459Y-84810500D01*
X91211460Y-84810500D01*
X91408540Y-84810500D01*
X91408541Y-84810500D01*
X91601835Y-84772051D01*
X91783914Y-84696632D01*
X91947782Y-84587139D01*
X92087139Y-84447782D01*
X92196632Y-84283914D01*
X92272051Y-84101835D01*
X92310500Y-83908541D01*
X92310500Y-83711459D01*
X92272051Y-83518165D01*
X92196632Y-83336086D01*
X92087139Y-83172218D01*
X91947782Y-83032861D01*
X91931249Y-83021814D01*
X91893371Y-82973765D01*
X91890969Y-82912627D01*
X91924962Y-82861753D01*
X91982366Y-82840576D01*
X91986252Y-82840500D01*
X114994521Y-82840500D01*
X115052712Y-82859407D01*
X115064525Y-82869496D01*
X120373004Y-88177975D01*
X120400781Y-88232492D01*
X120394464Y-88285864D01*
X120376853Y-88328385D01*
X120347948Y-88398168D01*
X120309500Y-88591456D01*
X120309500Y-88788543D01*
X120347949Y-88981834D01*
X120347949Y-88981836D01*
X120423367Y-89163913D01*
X120423368Y-89163914D01*
X120532861Y-89327782D01*
X120672218Y-89467139D01*
X120836086Y-89576632D01*
X121018165Y-89652051D01*
X121211459Y-89690500D01*
X121211460Y-89690500D01*
X121408540Y-89690500D01*
X121408541Y-89690500D01*
X121601835Y-89652051D01*
X121783914Y-89576632D01*
X121947782Y-89467139D01*
X122087139Y-89327782D01*
X122196632Y-89163914D01*
X122238430Y-89063004D01*
X122243148Y-89051615D01*
X122282884Y-89005089D01*
X122334612Y-88990500D01*
X127274521Y-88990500D01*
X127332712Y-89009407D01*
X127344525Y-89019496D01*
X127813004Y-89487975D01*
X127840781Y-89542492D01*
X127834464Y-89595864D01*
X127793930Y-89693727D01*
X127787948Y-89708168D01*
X127749500Y-89901456D01*
X127749500Y-90098543D01*
X127787949Y-90291834D01*
X127787949Y-90291836D01*
X127863367Y-90473913D01*
X127863368Y-90473914D01*
X127972861Y-90637782D01*
X128112218Y-90777139D01*
X128276086Y-90886632D01*
X128458165Y-90962051D01*
X128651459Y-91000500D01*
X128651460Y-91000500D01*
X128848540Y-91000500D01*
X128848541Y-91000500D01*
X129041835Y-90962051D01*
X129223914Y-90886632D01*
X129387782Y-90777139D01*
X129527139Y-90637782D01*
X129636632Y-90473914D01*
X129712051Y-90291835D01*
X129750500Y-90098541D01*
X129750500Y-89901459D01*
X129750499Y-89901456D01*
X129749529Y-89896581D01*
X132700000Y-89896581D01*
X132700000Y-90103418D01*
X132740349Y-90306272D01*
X132819501Y-90497361D01*
X132908022Y-90629843D01*
X133379532Y-90158332D01*
X133429920Y-90245606D01*
X133504394Y-90320080D01*
X133591665Y-90370465D01*
X133120154Y-90841977D01*
X133252625Y-90930491D01*
X133252639Y-90930498D01*
X133443727Y-91009650D01*
X133646581Y-91049999D01*
X133646586Y-91050000D01*
X133853414Y-91050000D01*
X133853418Y-91049999D01*
X134056272Y-91009650D01*
X134247360Y-90930498D01*
X134379843Y-90841976D01*
X133908333Y-90370466D01*
X133995606Y-90320080D01*
X134070080Y-90245606D01*
X134120466Y-90158333D01*
X134591976Y-90629843D01*
X134680498Y-90497360D01*
X134759650Y-90306272D01*
X134799999Y-90103418D01*
X134800000Y-90103413D01*
X134800000Y-89896586D01*
X134799999Y-89896581D01*
X134759650Y-89693727D01*
X134680498Y-89502639D01*
X134680491Y-89502625D01*
X134591976Y-89370154D01*
X134120465Y-89841665D01*
X134070080Y-89754394D01*
X133995606Y-89679920D01*
X133908332Y-89629532D01*
X134379843Y-89158022D01*
X134247361Y-89069501D01*
X134056272Y-88990349D01*
X133853418Y-88950000D01*
X133646581Y-88950000D01*
X133443727Y-88990349D01*
X133252638Y-89069501D01*
X133120155Y-89158022D01*
X133591666Y-89629533D01*
X133504394Y-89679920D01*
X133429920Y-89754394D01*
X133379533Y-89841666D01*
X132908022Y-89370155D01*
X132819501Y-89502638D01*
X132740349Y-89693727D01*
X132700000Y-89896581D01*
X129749529Y-89896581D01*
X129734322Y-89820130D01*
X129712051Y-89708165D01*
X129636632Y-89526086D01*
X129527139Y-89362218D01*
X129387782Y-89222861D01*
X129278288Y-89149699D01*
X129223913Y-89113367D01*
X129041835Y-89037949D01*
X128848543Y-88999500D01*
X128848541Y-88999500D01*
X128651459Y-88999500D01*
X128651456Y-88999500D01*
X128458168Y-89037948D01*
X128458166Y-89037948D01*
X128458165Y-89037949D01*
X128435814Y-89047207D01*
X128345864Y-89084465D01*
X128284867Y-89089264D01*
X128237975Y-89063004D01*
X127946646Y-88771675D01*
X127946644Y-88771672D01*
X127881504Y-88706532D01*
X138949500Y-88706532D01*
X138949500Y-88913467D01*
X138989869Y-89116418D01*
X139069058Y-89307597D01*
X139174551Y-89465479D01*
X139184023Y-89479655D01*
X139330345Y-89625977D01*
X139502402Y-89740941D01*
X139693580Y-89820130D01*
X139896535Y-89860500D01*
X139896536Y-89860500D01*
X140103464Y-89860500D01*
X140103465Y-89860500D01*
X140306420Y-89820130D01*
X140497598Y-89740941D01*
X140669655Y-89625977D01*
X140815977Y-89479655D01*
X140930941Y-89307598D01*
X141010130Y-89116420D01*
X141050500Y-88913465D01*
X141050500Y-88706535D01*
X141010130Y-88503580D01*
X140930941Y-88312402D01*
X140815977Y-88140345D01*
X140669655Y-87994023D01*
X140569521Y-87927116D01*
X140497597Y-87879058D01*
X140306418Y-87799869D01*
X140103467Y-87759500D01*
X140103465Y-87759500D01*
X139896535Y-87759500D01*
X139896532Y-87759500D01*
X139693581Y-87799869D01*
X139502402Y-87879058D01*
X139330348Y-87994020D01*
X139184020Y-88140348D01*
X139069058Y-88312402D01*
X138989869Y-88503581D01*
X138949500Y-88706532D01*
X127881504Y-88706532D01*
X127624510Y-88449539D01*
X127555992Y-88409980D01*
X127555988Y-88409978D01*
X127479564Y-88389500D01*
X127479562Y-88389500D01*
X122334612Y-88389500D01*
X122276421Y-88370593D01*
X122243148Y-88328385D01*
X122217477Y-88266412D01*
X122196632Y-88216086D01*
X122087139Y-88052218D01*
X121947782Y-87912861D01*
X121838288Y-87839699D01*
X121783913Y-87803367D01*
X121601835Y-87727949D01*
X121408543Y-87689500D01*
X121408541Y-87689500D01*
X121211459Y-87689500D01*
X121211456Y-87689500D01*
X121018168Y-87727948D01*
X121018166Y-87727948D01*
X121018165Y-87727949D01*
X120995814Y-87737207D01*
X120905864Y-87774465D01*
X120844867Y-87779264D01*
X120797975Y-87753004D01*
X118811571Y-85766600D01*
X115344511Y-82299540D01*
X115333347Y-82293095D01*
X115302852Y-82275488D01*
X115302851Y-82275488D01*
X115275988Y-82259978D01*
X115199564Y-82239500D01*
X115199562Y-82239500D01*
X91986252Y-82239500D01*
X91928061Y-82220593D01*
X91892097Y-82171093D01*
X91892097Y-82109907D01*
X91928061Y-82060407D01*
X91931250Y-82058185D01*
X91947782Y-82047139D01*
X92087139Y-81907782D01*
X92196632Y-81743914D01*
X92272051Y-81561835D01*
X92310500Y-81368541D01*
X92310500Y-81171459D01*
X92272051Y-80978165D01*
X92196632Y-80796086D01*
X92087139Y-80632218D01*
X91947782Y-80492861D01*
X91783914Y-80383368D01*
X91783915Y-80383368D01*
X91783913Y-80383367D01*
X91601835Y-80307949D01*
X91408543Y-80269500D01*
X91408541Y-80269500D01*
X91211459Y-80269500D01*
X91211456Y-80269500D01*
X91018165Y-80307949D01*
X91018163Y-80307949D01*
X90836086Y-80383367D01*
X90672218Y-80492861D01*
X90668449Y-80495954D01*
X90667717Y-80495062D01*
X90617887Y-80520452D01*
X90557455Y-80510881D01*
X90514190Y-80467616D01*
X90503400Y-80422671D01*
X90503400Y-79577328D01*
X90522307Y-79519137D01*
X90571807Y-79483173D01*
X90632993Y-79483173D01*
X90667980Y-79504617D01*
X90668449Y-79504046D01*
X90672212Y-79507133D01*
X90672218Y-79507139D01*
X90836086Y-79616632D01*
X91018165Y-79692051D01*
X91211459Y-79730500D01*
X91211460Y-79730500D01*
X91408540Y-79730500D01*
X91408541Y-79730500D01*
X91601835Y-79692051D01*
X91714137Y-79645533D01*
X91775129Y-79640733D01*
X91822023Y-79666994D01*
X92339540Y-80184511D01*
X92339539Y-80184511D01*
X92395489Y-80240460D01*
X92464007Y-80280019D01*
X92464011Y-80280021D01*
X92540435Y-80300499D01*
X92540437Y-80300500D01*
X92540438Y-80300500D01*
X101395388Y-80300500D01*
X101453579Y-80319407D01*
X101486852Y-80361615D01*
X101529779Y-80465249D01*
X101533368Y-80473914D01*
X101642861Y-80637782D01*
X101782218Y-80777139D01*
X101946086Y-80886632D01*
X102128165Y-80962051D01*
X102321459Y-81000500D01*
X102321460Y-81000500D01*
X102518540Y-81000500D01*
X102518541Y-81000500D01*
X102711835Y-80962051D01*
X102893914Y-80886632D01*
X103057782Y-80777139D01*
X103197139Y-80637782D01*
X103306632Y-80473914D01*
X103382051Y-80291835D01*
X103420500Y-80098541D01*
X103420500Y-79901459D01*
X103382051Y-79708165D01*
X103335533Y-79595863D01*
X103330733Y-79534867D01*
X103356993Y-79487976D01*
X103679275Y-79165696D01*
X103733791Y-79137919D01*
X103749278Y-79136700D01*
X111789371Y-79136700D01*
X111847562Y-79155607D01*
X111883526Y-79205107D01*
X111883526Y-79266293D01*
X111859375Y-79305704D01*
X111802864Y-79362214D01*
X111802861Y-79362218D01*
X111693367Y-79526086D01*
X111617949Y-79708163D01*
X111617949Y-79708165D01*
X111579500Y-79901456D01*
X111579500Y-80098543D01*
X111596601Y-80184511D01*
X111617948Y-80291832D01*
X111617949Y-80291834D01*
X111617949Y-80291836D01*
X111693367Y-80473913D01*
X111724464Y-80520452D01*
X111802861Y-80637782D01*
X111942218Y-80777139D01*
X112106086Y-80886632D01*
X112288165Y-80962051D01*
X112481459Y-81000500D01*
X112481460Y-81000500D01*
X112678540Y-81000500D01*
X112678541Y-81000500D01*
X112871835Y-80962051D01*
X113053914Y-80886632D01*
X113217782Y-80777139D01*
X113357139Y-80637782D01*
X113466632Y-80473914D01*
X113542051Y-80291835D01*
X113580500Y-80098541D01*
X113580500Y-79901459D01*
X113542051Y-79708165D01*
X113466632Y-79526086D01*
X113357139Y-79362218D01*
X113300625Y-79305704D01*
X113272848Y-79251187D01*
X113282419Y-79190755D01*
X113325684Y-79147490D01*
X113370629Y-79136700D01*
X117420721Y-79136700D01*
X117478912Y-79155607D01*
X117490725Y-79165696D01*
X117720504Y-79395475D01*
X117748281Y-79449992D01*
X117749500Y-79465479D01*
X117749500Y-80604274D01*
X117752353Y-80634694D01*
X117752355Y-80634703D01*
X117797207Y-80762883D01*
X117877845Y-80872144D01*
X117877847Y-80872146D01*
X117877850Y-80872150D01*
X117877853Y-80872152D01*
X117877855Y-80872154D01*
X117987116Y-80952792D01*
X117987117Y-80952792D01*
X117987118Y-80952793D01*
X118115301Y-80997646D01*
X118145725Y-81000499D01*
X118145727Y-81000500D01*
X118145734Y-81000500D01*
X119354273Y-81000500D01*
X119354273Y-81000499D01*
X119384699Y-80997646D01*
X119512882Y-80952793D01*
X119622150Y-80872150D01*
X119702793Y-80762882D01*
X119747646Y-80634699D01*
X119750499Y-80604273D01*
X119750500Y-80604273D01*
X119750500Y-79901456D01*
X120249500Y-79901456D01*
X120249500Y-80098543D01*
X120266601Y-80184511D01*
X120287948Y-80291832D01*
X120287949Y-80291834D01*
X120287949Y-80291836D01*
X120363367Y-80473913D01*
X120394464Y-80520452D01*
X120472861Y-80637782D01*
X120612218Y-80777139D01*
X120776086Y-80886632D01*
X120958165Y-80962051D01*
X121151459Y-81000500D01*
X121151460Y-81000500D01*
X121348540Y-81000500D01*
X121348541Y-81000500D01*
X121541835Y-80962051D01*
X121723914Y-80886632D01*
X121887782Y-80777139D01*
X122027139Y-80637782D01*
X122136632Y-80473914D01*
X122174138Y-80383367D01*
X122183148Y-80361615D01*
X122222884Y-80315089D01*
X122274612Y-80300500D01*
X123895388Y-80300500D01*
X123953579Y-80319407D01*
X123986852Y-80361615D01*
X124029779Y-80465249D01*
X124033368Y-80473914D01*
X124142861Y-80637782D01*
X124282218Y-80777139D01*
X124446086Y-80886632D01*
X124628165Y-80962051D01*
X124821459Y-81000500D01*
X124821460Y-81000500D01*
X125018540Y-81000500D01*
X125018541Y-81000500D01*
X125211835Y-80962051D01*
X125393914Y-80886632D01*
X125557782Y-80777139D01*
X125697139Y-80637782D01*
X125806632Y-80473914D01*
X125882051Y-80291835D01*
X125920500Y-80098541D01*
X125920500Y-79901459D01*
X125920499Y-79901456D01*
X134079500Y-79901456D01*
X134079500Y-80098543D01*
X134096601Y-80184511D01*
X134117948Y-80291832D01*
X134117949Y-80291834D01*
X134117949Y-80291836D01*
X134193367Y-80473913D01*
X134224464Y-80520452D01*
X134302861Y-80637782D01*
X134442218Y-80777139D01*
X134606086Y-80886632D01*
X134788165Y-80962051D01*
X134981459Y-81000500D01*
X134981460Y-81000500D01*
X135178540Y-81000500D01*
X135178541Y-81000500D01*
X135371835Y-80962051D01*
X135484137Y-80915533D01*
X135545129Y-80910733D01*
X135592023Y-80936994D01*
X137299540Y-82644511D01*
X137299539Y-82644511D01*
X137355489Y-82700460D01*
X137424007Y-82740019D01*
X137424011Y-82740021D01*
X137500435Y-82760499D01*
X137500437Y-82760500D01*
X137500438Y-82760500D01*
X137579562Y-82760500D01*
X139235551Y-82760500D01*
X139293742Y-82779407D01*
X139329706Y-82828907D01*
X139332211Y-82850078D01*
X139768461Y-83286329D01*
X139692993Y-83329901D01*
X139599901Y-83422993D01*
X139556328Y-83498461D01*
X139123219Y-83065352D01*
X139059195Y-83153476D01*
X138980588Y-83307751D01*
X138927084Y-83472420D01*
X138900000Y-83643424D01*
X138900000Y-83816575D01*
X138927084Y-83987579D01*
X138980588Y-84152248D01*
X139059195Y-84306524D01*
X139059197Y-84306528D01*
X139123219Y-84394646D01*
X139556328Y-83961536D01*
X139599901Y-84037007D01*
X139692993Y-84130099D01*
X139768460Y-84173670D01*
X139335352Y-84606778D01*
X139423477Y-84670805D01*
X139577751Y-84749411D01*
X139742420Y-84802915D01*
X139913425Y-84830000D01*
X140086575Y-84830000D01*
X140257579Y-84802915D01*
X140422248Y-84749411D01*
X140576523Y-84670805D01*
X140694109Y-84585374D01*
X140752300Y-84566467D01*
X140810491Y-84585374D01*
X140846455Y-84634874D01*
X140851300Y-84665467D01*
X140851300Y-84952721D01*
X140832393Y-85010912D01*
X140822303Y-85022725D01*
X140550291Y-85294736D01*
X140495775Y-85322513D01*
X140442402Y-85316196D01*
X140306418Y-85259869D01*
X140103467Y-85219500D01*
X140103465Y-85219500D01*
X139896535Y-85219500D01*
X139896532Y-85219500D01*
X139693581Y-85259869D01*
X139502402Y-85339058D01*
X139330348Y-85454020D01*
X139184020Y-85600348D01*
X139069058Y-85772402D01*
X138989869Y-85963581D01*
X138949500Y-86166532D01*
X138949500Y-86373467D01*
X138989869Y-86576418D01*
X139069058Y-86767597D01*
X139069059Y-86767598D01*
X139184023Y-86939655D01*
X139330345Y-87085977D01*
X139502402Y-87200941D01*
X139693580Y-87280130D01*
X139896535Y-87320500D01*
X139896536Y-87320500D01*
X140103464Y-87320500D01*
X140103465Y-87320500D01*
X140306420Y-87280130D01*
X140497598Y-87200941D01*
X140669655Y-87085977D01*
X140815977Y-86939655D01*
X140930941Y-86767598D01*
X141010130Y-86576420D01*
X141050500Y-86373465D01*
X141050500Y-86166535D01*
X141010130Y-85963580D01*
X140953801Y-85827592D01*
X140949001Y-85766600D01*
X140975261Y-85719708D01*
X141392260Y-85302711D01*
X141416994Y-85259870D01*
X141431821Y-85234189D01*
X141452300Y-85157762D01*
X141452300Y-83181438D01*
X141431822Y-83105012D01*
X141431820Y-83105009D01*
X141431820Y-83105007D01*
X141392263Y-83036493D01*
X141392262Y-83036492D01*
X141392261Y-83036491D01*
X141392260Y-83036489D01*
X140765275Y-82409504D01*
X140737498Y-82354987D01*
X140747069Y-82294555D01*
X140790334Y-82251290D01*
X140835279Y-82240500D01*
X140869747Y-82240500D01*
X140869748Y-82240500D01*
X140928231Y-82228867D01*
X140994552Y-82184552D01*
X141038867Y-82118231D01*
X141050500Y-82059748D01*
X141050500Y-80320252D01*
X141038867Y-80261769D01*
X140994552Y-80195448D01*
X140978184Y-80184511D01*
X140928233Y-80151134D01*
X140928231Y-80151133D01*
X140928228Y-80151132D01*
X140928227Y-80151132D01*
X140869758Y-80139501D01*
X140869748Y-80139500D01*
X139130252Y-80139500D01*
X139130251Y-80139500D01*
X139130241Y-80139501D01*
X139071772Y-80151132D01*
X139071766Y-80151134D01*
X139005451Y-80195445D01*
X139005445Y-80195451D01*
X138961134Y-80261766D01*
X138961132Y-80261772D01*
X138949501Y-80320241D01*
X138949500Y-80320253D01*
X138949500Y-82060500D01*
X138930593Y-82118691D01*
X138881093Y-82154655D01*
X138850500Y-82159500D01*
X137705479Y-82159500D01*
X137647288Y-82140593D01*
X137635475Y-82130504D01*
X136016994Y-80512023D01*
X135989217Y-80457506D01*
X135995533Y-80404137D01*
X136042051Y-80291835D01*
X136080500Y-80098541D01*
X136080500Y-79901459D01*
X136042051Y-79708165D01*
X135966632Y-79526086D01*
X135857139Y-79362218D01*
X135717782Y-79222861D01*
X135584990Y-79134132D01*
X135553913Y-79113367D01*
X135371835Y-79037949D01*
X135178543Y-78999500D01*
X135178541Y-78999500D01*
X134981459Y-78999500D01*
X134981456Y-78999500D01*
X134788165Y-79037949D01*
X134788163Y-79037949D01*
X134606086Y-79113367D01*
X134442218Y-79222861D01*
X134442214Y-79222864D01*
X134302864Y-79362214D01*
X134302861Y-79362218D01*
X134193367Y-79526086D01*
X134117949Y-79708163D01*
X134117949Y-79708165D01*
X134079500Y-79901456D01*
X125920499Y-79901456D01*
X125882051Y-79708165D01*
X125806632Y-79526086D01*
X125697139Y-79362218D01*
X125557782Y-79222861D01*
X125424990Y-79134132D01*
X125393913Y-79113367D01*
X125211835Y-79037949D01*
X125018543Y-78999500D01*
X125018541Y-78999500D01*
X124821459Y-78999500D01*
X124821456Y-78999500D01*
X124628165Y-79037949D01*
X124628163Y-79037949D01*
X124446086Y-79113367D01*
X124282218Y-79222861D01*
X124282214Y-79222864D01*
X124142864Y-79362214D01*
X124142861Y-79362218D01*
X124033367Y-79526087D01*
X123986852Y-79638385D01*
X123947116Y-79684911D01*
X123895388Y-79699500D01*
X122274612Y-79699500D01*
X122216421Y-79680593D01*
X122183148Y-79638385D01*
X122140269Y-79534867D01*
X122136632Y-79526086D01*
X122027139Y-79362218D01*
X121887782Y-79222861D01*
X121754990Y-79134132D01*
X121723913Y-79113367D01*
X121541835Y-79037949D01*
X121348543Y-78999500D01*
X121348541Y-78999500D01*
X121151459Y-78999500D01*
X121151456Y-78999500D01*
X120958165Y-79037949D01*
X120958163Y-79037949D01*
X120776086Y-79113367D01*
X120612218Y-79222861D01*
X120612214Y-79222864D01*
X120472864Y-79362214D01*
X120472861Y-79362218D01*
X120363367Y-79526086D01*
X120287949Y-79708163D01*
X120287949Y-79708165D01*
X120249500Y-79901456D01*
X119750500Y-79901456D01*
X119750500Y-79395727D01*
X119750499Y-79395725D01*
X119747879Y-79367785D01*
X119747646Y-79365301D01*
X119702793Y-79237118D01*
X119692273Y-79222864D01*
X119622154Y-79127855D01*
X119622152Y-79127853D01*
X119622150Y-79127850D01*
X119622146Y-79127847D01*
X119622144Y-79127845D01*
X119512883Y-79047207D01*
X119384703Y-79002355D01*
X119384694Y-79002353D01*
X119354274Y-78999500D01*
X119354266Y-78999500D01*
X118215479Y-78999500D01*
X118157288Y-78980593D01*
X118145476Y-78970504D01*
X117770710Y-78595739D01*
X117702192Y-78556180D01*
X117702188Y-78556178D01*
X117625764Y-78535700D01*
X117625762Y-78535700D01*
X103623362Y-78535700D01*
X103544238Y-78535700D01*
X103497461Y-78548233D01*
X103467807Y-78556179D01*
X103399293Y-78595736D01*
X103399288Y-78595740D01*
X102932022Y-79063004D01*
X102877506Y-79090781D01*
X102824134Y-79084464D01*
X102711835Y-79037949D01*
X102518543Y-78999500D01*
X102518541Y-78999500D01*
X102321459Y-78999500D01*
X102321456Y-78999500D01*
X102128165Y-79037949D01*
X102128163Y-79037949D01*
X101946086Y-79113367D01*
X101782218Y-79222861D01*
X101782214Y-79222864D01*
X101642864Y-79362214D01*
X101642861Y-79362218D01*
X101533367Y-79526087D01*
X101486852Y-79638385D01*
X101447116Y-79684911D01*
X101395388Y-79699500D01*
X92745479Y-79699500D01*
X92687288Y-79680593D01*
X92675475Y-79670504D01*
X92246994Y-79242023D01*
X92219217Y-79187506D01*
X92225533Y-79134137D01*
X92272051Y-79021835D01*
X92310500Y-78828541D01*
X92310500Y-78631459D01*
X92272051Y-78438165D01*
X92196632Y-78256086D01*
X92087139Y-78092218D01*
X91947782Y-77952861D01*
X91838288Y-77879699D01*
X91783913Y-77843367D01*
X91601835Y-77767949D01*
X91408543Y-77729500D01*
X91408541Y-77729500D01*
X91211459Y-77729500D01*
X91211456Y-77729500D01*
X91018165Y-77767949D01*
X91018163Y-77767949D01*
X90836086Y-77843367D01*
X90672218Y-77952861D01*
X90668449Y-77955954D01*
X90667717Y-77955062D01*
X90617887Y-77980452D01*
X90557455Y-77970881D01*
X90514190Y-77927616D01*
X90503400Y-77882671D01*
X90503400Y-77462577D01*
X90522307Y-77404386D01*
X90532390Y-77392580D01*
X90797976Y-77126993D01*
X90852491Y-77099217D01*
X90905862Y-77105533D01*
X91018165Y-77152051D01*
X91211459Y-77190500D01*
X91211460Y-77190500D01*
X91408540Y-77190500D01*
X91408541Y-77190500D01*
X91601835Y-77152051D01*
X91783914Y-77076632D01*
X91947782Y-76967139D01*
X92087139Y-76827782D01*
X92196632Y-76663914D01*
X92272051Y-76481835D01*
X92310500Y-76288541D01*
X92310500Y-76091459D01*
X92272051Y-75898165D01*
X92196632Y-75716086D01*
X92087139Y-75552218D01*
X91947782Y-75412861D01*
X91838288Y-75339699D01*
X91783913Y-75303367D01*
X91601835Y-75227949D01*
X91408543Y-75189500D01*
X91408541Y-75189500D01*
X91211459Y-75189500D01*
X91211456Y-75189500D01*
X91018165Y-75227949D01*
X91018163Y-75227949D01*
X90836086Y-75303367D01*
X90672218Y-75412861D01*
X90672214Y-75412864D01*
X90532864Y-75552214D01*
X90532861Y-75552218D01*
X90423367Y-75716086D01*
X90347949Y-75898163D01*
X90347949Y-75898165D01*
X90309500Y-76091456D01*
X90309500Y-76288543D01*
X90333561Y-76409501D01*
X90344689Y-76465448D01*
X90347949Y-76481834D01*
X90347949Y-76481836D01*
X90394464Y-76594135D01*
X90399264Y-76655132D01*
X90373004Y-76702023D01*
X90018389Y-77056639D01*
X89962439Y-77112589D01*
X89922880Y-77181107D01*
X89922878Y-77181111D01*
X89902400Y-77257535D01*
X89902400Y-81791564D01*
X89922877Y-81867985D01*
X89922879Y-81867990D01*
X89945853Y-81907782D01*
X89948091Y-81911658D01*
X89962440Y-81936511D01*
X90750440Y-82724511D01*
X90750439Y-82724511D01*
X90785929Y-82760000D01*
X90806389Y-82780460D01*
X90806392Y-82780462D01*
X90810154Y-82783348D01*
X90844813Y-82833770D01*
X90843216Y-82894934D01*
X90805972Y-82943478D01*
X90804894Y-82944209D01*
X90672218Y-83032861D01*
X90672214Y-83032864D01*
X90532864Y-83172214D01*
X90532861Y-83172218D01*
X90423367Y-83336086D01*
X90347949Y-83518163D01*
X90347949Y-83518165D01*
X90309500Y-83711456D01*
X90309500Y-83908543D01*
X90347949Y-84101834D01*
X90347949Y-84101836D01*
X90394464Y-84214134D01*
X90399264Y-84275131D01*
X90373004Y-84322023D01*
X85024525Y-89670504D01*
X84970008Y-89698281D01*
X84954521Y-89699500D01*
X72274612Y-89699500D01*
X72216421Y-89680593D01*
X72183148Y-89638385D01*
X72151568Y-89562144D01*
X72136632Y-89526086D01*
X72027139Y-89362218D01*
X71887782Y-89222861D01*
X71778288Y-89149699D01*
X71723913Y-89113367D01*
X71541835Y-89037949D01*
X71348543Y-88999500D01*
X71348541Y-88999500D01*
X71151459Y-88999500D01*
X71151456Y-88999500D01*
X70958165Y-89037949D01*
X70958163Y-89037949D01*
X70776086Y-89113367D01*
X70612218Y-89222861D01*
X70612214Y-89222864D01*
X70472864Y-89362214D01*
X70472861Y-89362218D01*
X70363367Y-89526086D01*
X70287949Y-89708163D01*
X70287949Y-89708165D01*
X70249500Y-89901456D01*
X69750500Y-89901456D01*
X69750500Y-89395727D01*
X69750499Y-89395725D01*
X69747646Y-89365305D01*
X69747646Y-89365301D01*
X69702793Y-89237118D01*
X69692273Y-89222864D01*
X69622154Y-89127855D01*
X69622152Y-89127853D01*
X69622150Y-89127850D01*
X69622146Y-89127847D01*
X69622144Y-89127845D01*
X69512883Y-89047207D01*
X69384703Y-89002355D01*
X69384694Y-89002353D01*
X69354274Y-88999500D01*
X69354266Y-88999500D01*
X68215479Y-88999500D01*
X68157288Y-88980593D01*
X68145475Y-88970504D01*
X66114622Y-86939651D01*
X62881552Y-83706581D01*
X82640000Y-83706581D01*
X82640000Y-83913418D01*
X82680349Y-84116272D01*
X82759501Y-84307361D01*
X82848022Y-84439843D01*
X83319532Y-83968332D01*
X83369920Y-84055606D01*
X83444394Y-84130080D01*
X83531665Y-84180465D01*
X83060154Y-84651977D01*
X83192625Y-84740491D01*
X83192639Y-84740498D01*
X83383727Y-84819650D01*
X83586581Y-84859999D01*
X83586586Y-84860000D01*
X83793414Y-84860000D01*
X83793418Y-84859999D01*
X83996272Y-84819650D01*
X84187360Y-84740498D01*
X84319843Y-84651976D01*
X83848333Y-84180466D01*
X83935606Y-84130080D01*
X84010080Y-84055606D01*
X84060466Y-83968333D01*
X84531976Y-84439843D01*
X84620498Y-84307360D01*
X84699650Y-84116272D01*
X84739999Y-83913418D01*
X84740000Y-83913413D01*
X84740000Y-83706586D01*
X84739999Y-83706581D01*
X84699650Y-83503727D01*
X84620498Y-83312639D01*
X84620491Y-83312625D01*
X84531976Y-83180154D01*
X84060465Y-83651665D01*
X84010080Y-83564394D01*
X83935606Y-83489920D01*
X83848332Y-83439532D01*
X84319843Y-82968022D01*
X84187361Y-82879501D01*
X83996272Y-82800349D01*
X83793418Y-82760000D01*
X83586581Y-82760000D01*
X83383727Y-82800349D01*
X83192638Y-82879501D01*
X83060155Y-82968022D01*
X83531666Y-83439533D01*
X83444394Y-83489920D01*
X83369920Y-83564394D01*
X83319533Y-83651666D01*
X82848022Y-83180155D01*
X82759501Y-83312638D01*
X82680349Y-83503727D01*
X82640000Y-83706581D01*
X62881552Y-83706581D01*
X61474511Y-82299540D01*
X61463347Y-82293095D01*
X61432852Y-82275488D01*
X61432851Y-82275488D01*
X61405988Y-82259978D01*
X61329564Y-82239500D01*
X61329562Y-82239500D01*
X58578732Y-82239500D01*
X58520541Y-82220593D01*
X58487268Y-82178386D01*
X58430941Y-82042402D01*
X58315979Y-81870348D01*
X58315977Y-81870345D01*
X58169655Y-81724023D01*
X57997598Y-81609059D01*
X57997599Y-81609059D01*
X57997597Y-81609058D01*
X57806418Y-81529869D01*
X57603467Y-81489500D01*
X57603465Y-81489500D01*
X57396535Y-81489500D01*
X57396532Y-81489500D01*
X57193581Y-81529869D01*
X57002402Y-81609058D01*
X56830348Y-81724020D01*
X56684020Y-81870348D01*
X56569058Y-82042402D01*
X56489869Y-82233581D01*
X56449500Y-82436532D01*
X50500500Y-82436532D01*
X50500500Y-79913424D01*
X56400000Y-79913424D01*
X56400000Y-80086575D01*
X56427084Y-80257579D01*
X56480588Y-80422248D01*
X56559195Y-80576524D01*
X56559197Y-80576528D01*
X56623219Y-80664646D01*
X57056328Y-80231536D01*
X57099901Y-80307007D01*
X57192993Y-80400099D01*
X57268460Y-80443670D01*
X56835352Y-80876778D01*
X56923477Y-80940805D01*
X57077751Y-81019411D01*
X57242420Y-81072915D01*
X57413425Y-81100000D01*
X57586575Y-81100000D01*
X57757579Y-81072915D01*
X57922248Y-81019411D01*
X58076524Y-80940804D01*
X58076530Y-80940800D01*
X58164646Y-80876779D01*
X58164646Y-80876778D01*
X57731538Y-80443670D01*
X57807007Y-80400099D01*
X57900099Y-80307007D01*
X57943670Y-80231538D01*
X58376778Y-80664646D01*
X58376779Y-80664646D01*
X58440800Y-80576530D01*
X58440804Y-80576524D01*
X58519411Y-80422248D01*
X58572915Y-80257579D01*
X58600000Y-80086575D01*
X58600000Y-79913424D01*
X58572915Y-79742420D01*
X58519411Y-79577751D01*
X58440805Y-79423477D01*
X58376778Y-79335352D01*
X57943670Y-79768460D01*
X57900099Y-79692993D01*
X57807007Y-79599901D01*
X57731536Y-79556328D01*
X58164646Y-79123219D01*
X58076528Y-79059197D01*
X58076524Y-79059195D01*
X57922248Y-78980588D01*
X57757579Y-78927084D01*
X57586575Y-78900000D01*
X57413425Y-78900000D01*
X57242420Y-78927084D01*
X57077751Y-78980588D01*
X56923476Y-79059195D01*
X56835352Y-79123219D01*
X57268461Y-79556328D01*
X57192993Y-79599901D01*
X57099901Y-79692993D01*
X57056328Y-79768461D01*
X56623219Y-79335352D01*
X56559195Y-79423476D01*
X56480588Y-79577751D01*
X56427084Y-79742420D01*
X56400000Y-79913424D01*
X50500500Y-79913424D01*
X50500500Y-76590253D01*
X56449500Y-76590253D01*
X56449500Y-78329746D01*
X56449501Y-78329758D01*
X56461132Y-78388227D01*
X56461134Y-78388233D01*
X56493716Y-78436994D01*
X56505448Y-78454552D01*
X56571769Y-78498867D01*
X56616231Y-78507711D01*
X56630241Y-78510498D01*
X56630246Y-78510498D01*
X56630252Y-78510500D01*
X56630253Y-78510500D01*
X58369747Y-78510500D01*
X58369748Y-78510500D01*
X58428231Y-78498867D01*
X58494552Y-78454552D01*
X58538867Y-78388231D01*
X58550500Y-78329748D01*
X58550500Y-77859500D01*
X58569407Y-77801309D01*
X58618907Y-77765345D01*
X58649500Y-77760500D01*
X58691263Y-77760500D01*
X58691263Y-77760499D01*
X58767689Y-77740021D01*
X58836211Y-77700460D01*
X58892160Y-77644511D01*
X59135215Y-77401456D01*
X66419500Y-77401456D01*
X66419500Y-77401459D01*
X66419500Y-77598541D01*
X66457948Y-77791832D01*
X66457949Y-77791834D01*
X66457949Y-77791836D01*
X66533367Y-77973913D01*
X66569699Y-78028288D01*
X66642861Y-78137782D01*
X66782218Y-78277139D01*
X66946086Y-78386632D01*
X67128165Y-78462051D01*
X67321459Y-78500500D01*
X67321460Y-78500500D01*
X67518540Y-78500500D01*
X67518541Y-78500500D01*
X67711835Y-78462051D01*
X67824137Y-78415533D01*
X67885129Y-78410733D01*
X67932023Y-78436994D01*
X70949540Y-81454511D01*
X70949539Y-81454511D01*
X71005489Y-81510460D01*
X71074007Y-81550019D01*
X71074011Y-81550021D01*
X71150435Y-81570499D01*
X71150437Y-81570500D01*
X71150438Y-81570500D01*
X82665388Y-81570500D01*
X82723579Y-81589407D01*
X82756852Y-81631615D01*
X82795129Y-81724023D01*
X82803368Y-81743914D01*
X82912861Y-81907782D01*
X83052218Y-82047139D01*
X83216086Y-82156632D01*
X83398165Y-82232051D01*
X83591459Y-82270500D01*
X83591460Y-82270500D01*
X83788540Y-82270500D01*
X83788541Y-82270500D01*
X83981835Y-82232051D01*
X84163914Y-82156632D01*
X84327782Y-82047139D01*
X84467139Y-81907782D01*
X84576632Y-81743914D01*
X84652051Y-81561835D01*
X84690500Y-81368541D01*
X84690500Y-81171459D01*
X84652051Y-80978165D01*
X84576632Y-80796086D01*
X84467139Y-80632218D01*
X84327782Y-80492861D01*
X84163914Y-80383368D01*
X84163915Y-80383368D01*
X84163913Y-80383367D01*
X83981835Y-80307949D01*
X83788543Y-80269500D01*
X83788541Y-80269500D01*
X83591459Y-80269500D01*
X83591456Y-80269500D01*
X83398165Y-80307949D01*
X83398163Y-80307949D01*
X83216086Y-80383367D01*
X83052218Y-80492861D01*
X83052214Y-80492864D01*
X82912864Y-80632214D01*
X82912861Y-80632218D01*
X82803367Y-80796087D01*
X82756852Y-80908385D01*
X82717116Y-80954911D01*
X82665388Y-80969500D01*
X71355479Y-80969500D01*
X71297288Y-80950593D01*
X71285475Y-80940504D01*
X68976427Y-78631456D01*
X82689500Y-78631456D01*
X82689500Y-78631459D01*
X82689500Y-78828541D01*
X82727948Y-79021832D01*
X82727949Y-79021834D01*
X82727949Y-79021836D01*
X82803367Y-79203913D01*
X82834955Y-79251187D01*
X82912861Y-79367782D01*
X83052218Y-79507139D01*
X83216086Y-79616632D01*
X83398165Y-79692051D01*
X83591459Y-79730500D01*
X83591460Y-79730500D01*
X83788540Y-79730500D01*
X83788541Y-79730500D01*
X83981835Y-79692051D01*
X84163914Y-79616632D01*
X84327782Y-79507139D01*
X84467139Y-79367782D01*
X84576632Y-79203914D01*
X84652051Y-79021835D01*
X84690500Y-78828541D01*
X84690500Y-78631459D01*
X84652051Y-78438165D01*
X84576632Y-78256086D01*
X84467139Y-78092218D01*
X84327782Y-77952861D01*
X84218288Y-77879699D01*
X84163913Y-77843367D01*
X83981835Y-77767949D01*
X83788543Y-77729500D01*
X83788541Y-77729500D01*
X83591459Y-77729500D01*
X83591456Y-77729500D01*
X83398165Y-77767949D01*
X83398163Y-77767949D01*
X83216086Y-77843367D01*
X83052218Y-77952861D01*
X83052214Y-77952864D01*
X82912864Y-78092214D01*
X82912861Y-78092218D01*
X82803367Y-78256086D01*
X82727949Y-78438163D01*
X82727949Y-78438165D01*
X82689500Y-78631456D01*
X68976427Y-78631456D01*
X68356994Y-78012023D01*
X68329217Y-77957506D01*
X68335533Y-77904137D01*
X68382051Y-77791835D01*
X68420500Y-77598541D01*
X68420500Y-77401459D01*
X68420499Y-77401456D01*
X76579500Y-77401456D01*
X76579500Y-77401459D01*
X76579500Y-77598541D01*
X76617948Y-77791832D01*
X76617949Y-77791834D01*
X76617949Y-77791836D01*
X76693367Y-77973913D01*
X76729699Y-78028288D01*
X76802861Y-78137782D01*
X76942218Y-78277139D01*
X77106086Y-78386632D01*
X77288165Y-78462051D01*
X77481459Y-78500500D01*
X77481460Y-78500500D01*
X77678540Y-78500500D01*
X77678541Y-78500500D01*
X77871835Y-78462051D01*
X78053914Y-78386632D01*
X78217782Y-78277139D01*
X78357139Y-78137782D01*
X78466632Y-77973914D01*
X78542051Y-77791835D01*
X78580500Y-77598541D01*
X78580500Y-77401459D01*
X78542051Y-77208165D01*
X78466632Y-77026086D01*
X78357139Y-76862218D01*
X78217782Y-76722861D01*
X78053914Y-76613368D01*
X78053915Y-76613368D01*
X78053913Y-76613367D01*
X77871835Y-76537949D01*
X77678543Y-76499500D01*
X77678541Y-76499500D01*
X77481459Y-76499500D01*
X77481456Y-76499500D01*
X77288165Y-76537949D01*
X77288163Y-76537949D01*
X77106086Y-76613367D01*
X76942218Y-76722861D01*
X76942214Y-76722864D01*
X76802864Y-76862214D01*
X76802861Y-76862218D01*
X76693367Y-77026086D01*
X76617949Y-77208163D01*
X76617949Y-77208165D01*
X76579500Y-77401456D01*
X68420499Y-77401456D01*
X68382051Y-77208165D01*
X68306632Y-77026086D01*
X68197139Y-76862218D01*
X68057782Y-76722861D01*
X67893914Y-76613368D01*
X67893915Y-76613368D01*
X67893913Y-76613367D01*
X67711835Y-76537949D01*
X67518543Y-76499500D01*
X67518541Y-76499500D01*
X67321459Y-76499500D01*
X67321456Y-76499500D01*
X67128165Y-76537949D01*
X67128163Y-76537949D01*
X66946086Y-76613367D01*
X66782218Y-76722861D01*
X66782214Y-76722864D01*
X66642864Y-76862214D01*
X66642861Y-76862218D01*
X66533367Y-77026086D01*
X66457949Y-77208163D01*
X66457949Y-77208165D01*
X66419500Y-77401456D01*
X59135215Y-77401456D01*
X60950946Y-75585725D01*
X82689500Y-75585725D01*
X82689500Y-76794274D01*
X82692353Y-76824694D01*
X82692355Y-76824703D01*
X82737207Y-76952883D01*
X82817845Y-77062144D01*
X82817847Y-77062146D01*
X82817850Y-77062150D01*
X82817853Y-77062152D01*
X82817855Y-77062154D01*
X82927116Y-77142792D01*
X82927117Y-77142792D01*
X82927118Y-77142793D01*
X83055301Y-77187646D01*
X83085725Y-77190499D01*
X83085727Y-77190500D01*
X83085734Y-77190500D01*
X84294273Y-77190500D01*
X84294273Y-77190499D01*
X84324699Y-77187646D01*
X84452882Y-77142793D01*
X84562150Y-77062150D01*
X84642793Y-76952882D01*
X84687646Y-76824699D01*
X84690499Y-76794273D01*
X84690500Y-76794273D01*
X84690500Y-75655479D01*
X84709407Y-75597288D01*
X84719496Y-75585475D01*
X85403515Y-74901456D01*
X116419500Y-74901456D01*
X116419500Y-75098543D01*
X116457949Y-75291834D01*
X116457949Y-75291836D01*
X116533367Y-75473913D01*
X116533368Y-75473914D01*
X116642861Y-75637782D01*
X116782218Y-75777139D01*
X116946086Y-75886632D01*
X117128165Y-75962051D01*
X117321459Y-76000500D01*
X117321460Y-76000500D01*
X117518540Y-76000500D01*
X117518541Y-76000500D01*
X117711835Y-75962051D01*
X117893914Y-75886632D01*
X118057782Y-75777139D01*
X118197139Y-75637782D01*
X118306632Y-75473914D01*
X118382051Y-75291835D01*
X118420500Y-75098541D01*
X118420500Y-74901459D01*
X118420499Y-74901456D01*
X118419529Y-74896581D01*
X126530000Y-74896581D01*
X126530000Y-75103418D01*
X126570349Y-75306272D01*
X126649501Y-75497361D01*
X126738022Y-75629843D01*
X127209532Y-75158332D01*
X127259920Y-75245606D01*
X127334394Y-75320080D01*
X127421665Y-75370465D01*
X126950154Y-75841977D01*
X127082625Y-75930491D01*
X127082639Y-75930498D01*
X127273727Y-76009650D01*
X127476581Y-76049999D01*
X127476586Y-76050000D01*
X127683414Y-76050000D01*
X127683418Y-76049999D01*
X127886272Y-76009650D01*
X128077360Y-75930498D01*
X128209843Y-75841976D01*
X127738333Y-75370466D01*
X127825606Y-75320080D01*
X127900080Y-75245606D01*
X127950466Y-75158333D01*
X128421976Y-75629843D01*
X128510498Y-75497360D01*
X128589650Y-75306272D01*
X128629999Y-75103418D01*
X128630000Y-75103413D01*
X128630000Y-74896586D01*
X128629999Y-74896581D01*
X128589650Y-74693727D01*
X128510498Y-74502639D01*
X128510491Y-74502625D01*
X128421976Y-74370154D01*
X127950465Y-74841665D01*
X127900080Y-74754394D01*
X127825606Y-74679920D01*
X127738332Y-74629532D01*
X128209843Y-74158022D01*
X128077361Y-74069501D01*
X127886272Y-73990349D01*
X127683418Y-73950000D01*
X127476581Y-73950000D01*
X127273727Y-73990349D01*
X127082638Y-74069501D01*
X126950155Y-74158022D01*
X127421666Y-74629533D01*
X127334394Y-74679920D01*
X127259920Y-74754394D01*
X127209533Y-74841666D01*
X126738022Y-74370155D01*
X126649501Y-74502638D01*
X126570349Y-74693727D01*
X126530000Y-74896581D01*
X118419529Y-74896581D01*
X118409390Y-74845606D01*
X118382051Y-74708165D01*
X118306632Y-74526086D01*
X118197139Y-74362218D01*
X118057782Y-74222861D01*
X117893914Y-74113368D01*
X117893915Y-74113368D01*
X117893913Y-74113367D01*
X117711835Y-74037949D01*
X117518543Y-73999500D01*
X117518541Y-73999500D01*
X117321459Y-73999500D01*
X117321456Y-73999500D01*
X117128165Y-74037949D01*
X117128163Y-74037949D01*
X116946086Y-74113367D01*
X116782218Y-74222861D01*
X116782214Y-74222864D01*
X116642864Y-74362214D01*
X116642861Y-74362218D01*
X116533367Y-74526086D01*
X116457949Y-74708163D01*
X116457949Y-74708165D01*
X116419500Y-74901456D01*
X85403515Y-74901456D01*
X89975475Y-70329496D01*
X90029992Y-70301719D01*
X90045479Y-70300500D01*
X101395388Y-70300500D01*
X101453579Y-70319407D01*
X101486852Y-70361615D01*
X101502545Y-70399500D01*
X101533368Y-70473914D01*
X101642861Y-70637782D01*
X101782218Y-70777139D01*
X101946086Y-70886632D01*
X102128165Y-70962051D01*
X102321459Y-71000500D01*
X102321460Y-71000500D01*
X102518540Y-71000500D01*
X102518541Y-71000500D01*
X102711835Y-70962051D01*
X102893914Y-70886632D01*
X103057782Y-70777139D01*
X103197139Y-70637782D01*
X103306632Y-70473914D01*
X103382051Y-70291835D01*
X103420500Y-70098541D01*
X103420500Y-69901459D01*
X103420499Y-69901456D01*
X111579500Y-69901456D01*
X111579500Y-70098543D01*
X111617949Y-70291834D01*
X111617949Y-70291836D01*
X111693367Y-70473913D01*
X111693368Y-70473914D01*
X111802861Y-70637782D01*
X111942218Y-70777139D01*
X112106086Y-70886632D01*
X112288165Y-70962051D01*
X112481459Y-71000500D01*
X112481460Y-71000500D01*
X112678540Y-71000500D01*
X112678541Y-71000500D01*
X112871835Y-70962051D01*
X113053914Y-70886632D01*
X113217782Y-70777139D01*
X113357139Y-70637782D01*
X113466632Y-70473914D01*
X113542051Y-70291835D01*
X113580500Y-70098541D01*
X113580500Y-69901459D01*
X113542051Y-69708165D01*
X113466632Y-69526086D01*
X113357139Y-69362218D01*
X113217782Y-69222861D01*
X113108288Y-69149699D01*
X113053913Y-69113367D01*
X112871835Y-69037949D01*
X112678543Y-68999500D01*
X112678541Y-68999500D01*
X112481459Y-68999500D01*
X112481456Y-68999500D01*
X112288165Y-69037949D01*
X112288163Y-69037949D01*
X112106086Y-69113367D01*
X111942218Y-69222861D01*
X111942214Y-69222864D01*
X111802864Y-69362214D01*
X111802861Y-69362218D01*
X111693367Y-69526086D01*
X111617949Y-69708163D01*
X111617949Y-69708165D01*
X111579500Y-69901456D01*
X103420499Y-69901456D01*
X103382051Y-69708165D01*
X103335533Y-69595862D01*
X103330733Y-69534868D01*
X103356992Y-69487977D01*
X105015475Y-67829496D01*
X105069992Y-67801719D01*
X105085479Y-67800500D01*
X117650500Y-67800500D01*
X117708691Y-67819407D01*
X117744655Y-67868907D01*
X117749500Y-67899500D01*
X117749500Y-68104274D01*
X117752353Y-68134694D01*
X117752355Y-68134703D01*
X117797207Y-68262883D01*
X117877845Y-68372144D01*
X117877847Y-68372146D01*
X117877850Y-68372150D01*
X117877853Y-68372152D01*
X117877855Y-68372154D01*
X117987116Y-68452792D01*
X117987117Y-68452792D01*
X117987118Y-68452793D01*
X118115301Y-68497646D01*
X118145725Y-68500499D01*
X118145727Y-68500500D01*
X118145734Y-68500500D01*
X119354273Y-68500500D01*
X119354273Y-68500499D01*
X119384699Y-68497646D01*
X119512882Y-68452793D01*
X119622150Y-68372150D01*
X119702793Y-68262882D01*
X119747646Y-68134699D01*
X119750499Y-68104273D01*
X119750500Y-68104273D01*
X119750500Y-67401456D01*
X120249500Y-67401456D01*
X120249500Y-67598543D01*
X120287949Y-67791834D01*
X120287949Y-67791836D01*
X120363367Y-67973913D01*
X120363368Y-67973914D01*
X120472861Y-68137782D01*
X120612218Y-68277139D01*
X120776086Y-68386632D01*
X120958165Y-68462051D01*
X121151459Y-68500500D01*
X121151460Y-68500500D01*
X121348540Y-68500500D01*
X121348541Y-68500500D01*
X121541835Y-68462051D01*
X121723914Y-68386632D01*
X121887782Y-68277139D01*
X122027139Y-68137782D01*
X122136632Y-67973914D01*
X122180127Y-67868907D01*
X122183148Y-67861615D01*
X122222884Y-67815089D01*
X122274612Y-67800500D01*
X123895388Y-67800500D01*
X123953579Y-67819407D01*
X123986852Y-67861615D01*
X123991461Y-67872741D01*
X124033368Y-67973914D01*
X124142861Y-68137782D01*
X124282218Y-68277139D01*
X124446086Y-68386632D01*
X124628165Y-68462051D01*
X124821459Y-68500500D01*
X124821460Y-68500500D01*
X125018540Y-68500500D01*
X125018541Y-68500500D01*
X125211835Y-68462051D01*
X125393914Y-68386632D01*
X125557782Y-68277139D01*
X125697139Y-68137782D01*
X125806632Y-67973914D01*
X125882051Y-67791835D01*
X125920500Y-67598541D01*
X125920500Y-67401459D01*
X125920499Y-67401456D01*
X134079500Y-67401456D01*
X134079500Y-67598543D01*
X134117949Y-67791834D01*
X134117949Y-67791836D01*
X134193367Y-67973913D01*
X134193368Y-67973914D01*
X134302861Y-68137782D01*
X134442218Y-68277139D01*
X134606086Y-68386632D01*
X134788165Y-68462051D01*
X134981459Y-68500500D01*
X134981460Y-68500500D01*
X135178540Y-68500500D01*
X135178541Y-68500500D01*
X135371835Y-68462051D01*
X135553914Y-68386632D01*
X135717782Y-68277139D01*
X135857139Y-68137782D01*
X135966632Y-67973914D01*
X136042051Y-67791835D01*
X136080500Y-67598541D01*
X136080500Y-67401459D01*
X136042051Y-67208165D01*
X135966632Y-67026086D01*
X135857139Y-66862218D01*
X135717782Y-66722861D01*
X135608288Y-66649699D01*
X135553913Y-66613367D01*
X135371835Y-66537949D01*
X135178543Y-66499500D01*
X135178541Y-66499500D01*
X134981459Y-66499500D01*
X134981456Y-66499500D01*
X134788165Y-66537949D01*
X134788163Y-66537949D01*
X134606086Y-66613367D01*
X134442218Y-66722861D01*
X134442214Y-66722864D01*
X134302864Y-66862214D01*
X134302861Y-66862218D01*
X134193367Y-67026086D01*
X134117949Y-67208163D01*
X134117949Y-67208165D01*
X134079500Y-67401456D01*
X125920499Y-67401456D01*
X125882051Y-67208165D01*
X125806632Y-67026086D01*
X125697139Y-66862218D01*
X125557782Y-66722861D01*
X125448288Y-66649699D01*
X125393913Y-66613367D01*
X125211835Y-66537949D01*
X125018543Y-66499500D01*
X125018541Y-66499500D01*
X124821459Y-66499500D01*
X124821456Y-66499500D01*
X124628165Y-66537949D01*
X124628163Y-66537949D01*
X124446086Y-66613367D01*
X124282218Y-66722861D01*
X124282214Y-66722864D01*
X124142864Y-66862214D01*
X124142861Y-66862218D01*
X124033367Y-67026087D01*
X123986852Y-67138385D01*
X123947116Y-67184911D01*
X123895388Y-67199500D01*
X122274612Y-67199500D01*
X122216421Y-67180593D01*
X122183148Y-67138385D01*
X122136632Y-67026087D01*
X122136632Y-67026086D01*
X122027139Y-66862218D01*
X121887782Y-66722861D01*
X121778288Y-66649699D01*
X121723913Y-66613367D01*
X121541835Y-66537949D01*
X121348543Y-66499500D01*
X121348541Y-66499500D01*
X121151459Y-66499500D01*
X121151456Y-66499500D01*
X120958165Y-66537949D01*
X120958163Y-66537949D01*
X120776086Y-66613367D01*
X120612218Y-66722861D01*
X120612214Y-66722864D01*
X120472864Y-66862214D01*
X120472861Y-66862218D01*
X120363367Y-67026086D01*
X120287949Y-67208163D01*
X120287949Y-67208165D01*
X120249500Y-67401456D01*
X119750500Y-67401456D01*
X119750500Y-66895727D01*
X119750499Y-66895725D01*
X119747646Y-66865305D01*
X119747646Y-66865301D01*
X119702793Y-66737118D01*
X119692273Y-66722864D01*
X119622154Y-66627855D01*
X119622152Y-66627853D01*
X119622150Y-66627850D01*
X119622146Y-66627847D01*
X119622144Y-66627845D01*
X119512883Y-66547207D01*
X119384703Y-66502355D01*
X119384694Y-66502353D01*
X119354274Y-66499500D01*
X119354266Y-66499500D01*
X118145734Y-66499500D01*
X118145725Y-66499500D01*
X118115305Y-66502353D01*
X118115296Y-66502355D01*
X117987116Y-66547207D01*
X117877855Y-66627845D01*
X117877845Y-66627855D01*
X117797207Y-66737116D01*
X117752355Y-66865296D01*
X117752353Y-66865305D01*
X117749500Y-66895725D01*
X117749500Y-67100500D01*
X117730593Y-67158691D01*
X117681093Y-67194655D01*
X117650500Y-67199500D01*
X104880435Y-67199500D01*
X104804011Y-67219978D01*
X104804007Y-67219980D01*
X104735491Y-67259538D01*
X102932023Y-69063004D01*
X102877506Y-69090781D01*
X102824134Y-69084464D01*
X102711835Y-69037949D01*
X102518543Y-68999500D01*
X102518541Y-68999500D01*
X102321459Y-68999500D01*
X102321456Y-68999500D01*
X102128165Y-69037949D01*
X102128163Y-69037949D01*
X101946086Y-69113367D01*
X101782218Y-69222861D01*
X101782214Y-69222864D01*
X101642864Y-69362214D01*
X101642861Y-69362218D01*
X101533367Y-69526087D01*
X101486852Y-69638385D01*
X101447116Y-69684911D01*
X101395388Y-69699500D01*
X89840435Y-69699500D01*
X89764011Y-69719978D01*
X89764007Y-69719980D01*
X89695491Y-69759538D01*
X84294525Y-75160504D01*
X84240008Y-75188281D01*
X84224521Y-75189500D01*
X83085725Y-75189500D01*
X83055305Y-75192353D01*
X83055296Y-75192355D01*
X82927116Y-75237207D01*
X82817855Y-75317845D01*
X82817845Y-75317855D01*
X82737207Y-75427116D01*
X82692355Y-75555296D01*
X82692353Y-75555305D01*
X82689500Y-75585725D01*
X60950946Y-75585725D01*
X66207175Y-70329496D01*
X66261692Y-70301719D01*
X66277179Y-70300500D01*
X67650500Y-70300500D01*
X67708691Y-70319407D01*
X67744655Y-70368907D01*
X67749500Y-70399500D01*
X67749500Y-70604274D01*
X67752353Y-70634694D01*
X67752355Y-70634703D01*
X67797207Y-70762883D01*
X67877845Y-70872144D01*
X67877847Y-70872146D01*
X67877850Y-70872150D01*
X67877853Y-70872152D01*
X67877855Y-70872154D01*
X67987116Y-70952792D01*
X67987117Y-70952792D01*
X67987118Y-70952793D01*
X68115301Y-70997646D01*
X68145725Y-71000499D01*
X68145727Y-71000500D01*
X68145734Y-71000500D01*
X69354273Y-71000500D01*
X69354273Y-71000499D01*
X69384699Y-70997646D01*
X69512882Y-70952793D01*
X69622150Y-70872150D01*
X69702793Y-70762882D01*
X69747646Y-70634699D01*
X69750499Y-70604273D01*
X69750500Y-70604273D01*
X69750500Y-69901456D01*
X70249500Y-69901456D01*
X70249500Y-70098543D01*
X70287949Y-70291834D01*
X70287949Y-70291836D01*
X70363367Y-70473913D01*
X70363368Y-70473914D01*
X70472861Y-70637782D01*
X70612218Y-70777139D01*
X70776086Y-70886632D01*
X70958165Y-70962051D01*
X71151459Y-71000500D01*
X71151460Y-71000500D01*
X71348540Y-71000500D01*
X71348541Y-71000500D01*
X71541835Y-70962051D01*
X71723914Y-70886632D01*
X71887782Y-70777139D01*
X72027139Y-70637782D01*
X72136632Y-70473914D01*
X72212051Y-70291835D01*
X72250500Y-70098541D01*
X72250500Y-69901459D01*
X72212051Y-69708165D01*
X72136632Y-69526086D01*
X72027139Y-69362218D01*
X71887782Y-69222861D01*
X71778288Y-69149699D01*
X71723913Y-69113367D01*
X71541835Y-69037949D01*
X71348543Y-68999500D01*
X71348541Y-68999500D01*
X71151459Y-68999500D01*
X71151456Y-68999500D01*
X70958165Y-69037949D01*
X70958163Y-69037949D01*
X70776086Y-69113367D01*
X70612218Y-69222861D01*
X70612214Y-69222864D01*
X70472864Y-69362214D01*
X70472861Y-69362218D01*
X70363367Y-69526086D01*
X70287949Y-69708163D01*
X70287949Y-69708165D01*
X70249500Y-69901456D01*
X69750500Y-69901456D01*
X69750500Y-69395727D01*
X69750499Y-69395725D01*
X69747646Y-69365305D01*
X69747646Y-69365301D01*
X69702793Y-69237118D01*
X69692273Y-69222864D01*
X69622154Y-69127855D01*
X69622152Y-69127853D01*
X69622150Y-69127850D01*
X69622146Y-69127847D01*
X69622144Y-69127845D01*
X69512883Y-69047207D01*
X69384703Y-69002355D01*
X69384694Y-69002353D01*
X69354274Y-68999500D01*
X69354266Y-68999500D01*
X68145734Y-68999500D01*
X68145725Y-68999500D01*
X68115305Y-69002353D01*
X68115296Y-69002355D01*
X67987116Y-69047207D01*
X67877855Y-69127845D01*
X67877845Y-69127855D01*
X67797207Y-69237116D01*
X67752355Y-69365296D01*
X67752353Y-69365305D01*
X67749500Y-69395725D01*
X67749500Y-69600500D01*
X67730593Y-69658691D01*
X67681093Y-69694655D01*
X67650500Y-69699500D01*
X66072135Y-69699500D01*
X65995711Y-69719978D01*
X65995707Y-69719980D01*
X65927191Y-69759538D01*
X58719504Y-76967225D01*
X58664987Y-76995002D01*
X58604555Y-76985431D01*
X58561290Y-76942166D01*
X58550500Y-76897221D01*
X58550500Y-76590253D01*
X58550498Y-76590241D01*
X58540096Y-76537949D01*
X58538867Y-76531769D01*
X58494552Y-76465448D01*
X58494548Y-76465445D01*
X58428233Y-76421134D01*
X58428231Y-76421133D01*
X58428228Y-76421132D01*
X58428227Y-76421132D01*
X58369758Y-76409501D01*
X58369748Y-76409500D01*
X56630252Y-76409500D01*
X56630251Y-76409500D01*
X56630241Y-76409501D01*
X56571772Y-76421132D01*
X56571766Y-76421134D01*
X56505451Y-76465445D01*
X56505445Y-76465451D01*
X56461134Y-76531766D01*
X56461132Y-76531772D01*
X56449501Y-76590241D01*
X56449500Y-76590253D01*
X50500500Y-76590253D01*
X50500500Y-67401456D01*
X78999500Y-67401456D01*
X78999500Y-67598543D01*
X79037949Y-67791834D01*
X79037949Y-67791836D01*
X79113367Y-67973913D01*
X79113368Y-67973914D01*
X79222861Y-68137782D01*
X79362218Y-68277139D01*
X79526086Y-68386632D01*
X79708165Y-68462051D01*
X79901459Y-68500500D01*
X79901460Y-68500500D01*
X80098540Y-68500500D01*
X80098541Y-68500500D01*
X80291835Y-68462051D01*
X80473914Y-68386632D01*
X80637782Y-68277139D01*
X80777139Y-68137782D01*
X80886632Y-67973914D01*
X80962051Y-67791835D01*
X81000500Y-67598541D01*
X81000500Y-67401459D01*
X81000499Y-67401456D01*
X80999529Y-67396581D01*
X83950000Y-67396581D01*
X83950000Y-67603418D01*
X83990349Y-67806272D01*
X84069501Y-67997361D01*
X84158022Y-68129843D01*
X84629532Y-67658332D01*
X84679920Y-67745606D01*
X84754394Y-67820080D01*
X84841665Y-67870465D01*
X84370154Y-68341977D01*
X84502625Y-68430491D01*
X84502639Y-68430498D01*
X84693727Y-68509650D01*
X84896581Y-68549999D01*
X84896586Y-68550000D01*
X85103414Y-68550000D01*
X85103418Y-68549999D01*
X85306272Y-68509650D01*
X85497360Y-68430498D01*
X85629843Y-68341976D01*
X85158333Y-67870466D01*
X85245606Y-67820080D01*
X85320080Y-67745606D01*
X85370466Y-67658333D01*
X85841976Y-68129843D01*
X85930498Y-67997360D01*
X86009650Y-67806272D01*
X86049999Y-67603418D01*
X86050000Y-67603413D01*
X86050000Y-67396586D01*
X86049999Y-67396581D01*
X86009650Y-67193727D01*
X85930498Y-67002639D01*
X85930491Y-67002625D01*
X85841976Y-66870154D01*
X85370465Y-67341665D01*
X85320080Y-67254394D01*
X85245606Y-67179920D01*
X85158332Y-67129532D01*
X85629843Y-66658022D01*
X85497361Y-66569501D01*
X85306272Y-66490349D01*
X85103418Y-66450000D01*
X84896581Y-66450000D01*
X84693727Y-66490349D01*
X84502638Y-66569501D01*
X84370155Y-66658022D01*
X84841666Y-67129533D01*
X84754394Y-67179920D01*
X84679920Y-67254394D01*
X84629533Y-67341666D01*
X84158022Y-66870155D01*
X84069501Y-67002638D01*
X83990349Y-67193727D01*
X83950000Y-67396581D01*
X80999529Y-67396581D01*
X80989390Y-67345606D01*
X80962051Y-67208165D01*
X80886632Y-67026086D01*
X80777139Y-66862218D01*
X80637782Y-66722861D01*
X80528288Y-66649699D01*
X80473913Y-66613367D01*
X80291835Y-66537949D01*
X80098543Y-66499500D01*
X80098541Y-66499500D01*
X79901459Y-66499500D01*
X79901456Y-66499500D01*
X79708165Y-66537949D01*
X79708163Y-66537949D01*
X79526086Y-66613367D01*
X79362218Y-66722861D01*
X79362214Y-66722864D01*
X79222864Y-66862214D01*
X79222861Y-66862218D01*
X79113367Y-67026086D01*
X79037949Y-67208163D01*
X79037949Y-67208165D01*
X78999500Y-67401456D01*
X50500500Y-67401456D01*
X50500500Y-59905515D01*
X63179500Y-59905515D01*
X63179500Y-60094484D01*
X63209058Y-60281113D01*
X63238830Y-60372741D01*
X63267453Y-60460832D01*
X63353240Y-60629199D01*
X63464310Y-60782073D01*
X63597927Y-60915690D01*
X63750801Y-61026760D01*
X63919168Y-61112547D01*
X64098882Y-61170940D01*
X64098883Y-61170940D01*
X64098886Y-61170941D01*
X64285516Y-61200500D01*
X64285519Y-61200500D01*
X64474484Y-61200500D01*
X64661113Y-61170941D01*
X64661114Y-61170940D01*
X64661118Y-61170940D01*
X64840832Y-61112547D01*
X65009199Y-61026760D01*
X65162073Y-60915690D01*
X65295690Y-60782073D01*
X65406760Y-60629199D01*
X65492547Y-60460832D01*
X65550940Y-60281118D01*
X65550941Y-60281113D01*
X65580500Y-60094484D01*
X65580500Y-59905515D01*
X65550941Y-59718886D01*
X65550940Y-59718882D01*
X65492547Y-59539168D01*
X65448665Y-59453047D01*
X65439094Y-59392616D01*
X65466871Y-59338099D01*
X65466872Y-59338098D01*
X65815875Y-58989096D01*
X65870391Y-58961319D01*
X65885878Y-58960100D01*
X78723130Y-58960100D01*
X78781321Y-58979007D01*
X78817285Y-59028507D01*
X78817285Y-59089693D01*
X78793135Y-59129101D01*
X78704310Y-59217927D01*
X78704309Y-59217928D01*
X78593238Y-59370803D01*
X78507453Y-59539167D01*
X78449058Y-59718886D01*
X78419500Y-59905515D01*
X78419500Y-60094484D01*
X78449058Y-60281113D01*
X78478830Y-60372741D01*
X78507453Y-60460832D01*
X78593240Y-60629199D01*
X78704310Y-60782073D01*
X78837927Y-60915690D01*
X78990801Y-61026760D01*
X79159168Y-61112547D01*
X79338882Y-61170940D01*
X79338883Y-61170940D01*
X79338886Y-61170941D01*
X79525516Y-61200500D01*
X79525519Y-61200500D01*
X79714484Y-61200500D01*
X79901113Y-61170941D01*
X79901114Y-61170940D01*
X79901118Y-61170940D01*
X80080832Y-61112547D01*
X80249199Y-61026760D01*
X80402073Y-60915690D01*
X80535690Y-60782073D01*
X80646760Y-60629199D01*
X80732547Y-60460832D01*
X80762415Y-60368906D01*
X80798379Y-60319407D01*
X80856570Y-60300500D01*
X86650500Y-60300500D01*
X86708691Y-60319407D01*
X86744655Y-60368907D01*
X86749500Y-60399500D01*
X86749500Y-60604274D01*
X86752353Y-60634694D01*
X86752355Y-60634703D01*
X86797207Y-60762883D01*
X86877845Y-60872144D01*
X86877847Y-60872146D01*
X86877850Y-60872150D01*
X86877853Y-60872152D01*
X86877855Y-60872154D01*
X86987116Y-60952792D01*
X86987117Y-60952792D01*
X86987118Y-60952793D01*
X87115301Y-60997646D01*
X87145725Y-61000499D01*
X87145727Y-61000500D01*
X87145734Y-61000500D01*
X88284521Y-61000500D01*
X88342712Y-61019407D01*
X88354525Y-61029496D01*
X88611240Y-61286211D01*
X88611239Y-61286211D01*
X88667189Y-61342160D01*
X88735707Y-61381719D01*
X88735711Y-61381721D01*
X88812135Y-61402199D01*
X88812137Y-61402200D01*
X88812138Y-61402200D01*
X94437863Y-61402200D01*
X94437863Y-61402199D01*
X94514289Y-61381721D01*
X94582811Y-61342160D01*
X94610785Y-61314185D01*
X94638761Y-61286211D01*
X94741547Y-61183424D01*
X103900000Y-61183424D01*
X103900000Y-61356575D01*
X103927084Y-61527579D01*
X103980588Y-61692248D01*
X104059195Y-61846524D01*
X104059197Y-61846528D01*
X104123219Y-61934646D01*
X104556328Y-61501536D01*
X104599901Y-61577007D01*
X104692993Y-61670099D01*
X104768460Y-61713670D01*
X104335352Y-62146778D01*
X104423477Y-62210805D01*
X104577751Y-62289411D01*
X104742420Y-62342915D01*
X104913425Y-62370000D01*
X105086575Y-62370000D01*
X105257579Y-62342915D01*
X105422248Y-62289411D01*
X105576524Y-62210804D01*
X105576530Y-62210800D01*
X105664646Y-62146779D01*
X105664646Y-62146778D01*
X105231538Y-61713670D01*
X105307007Y-61670099D01*
X105400099Y-61577007D01*
X105443670Y-61501538D01*
X105876778Y-61934646D01*
X105876779Y-61934646D01*
X105940800Y-61846530D01*
X105940804Y-61846524D01*
X106019411Y-61692248D01*
X106072915Y-61527579D01*
X106100000Y-61356575D01*
X106100000Y-61183424D01*
X106072915Y-61012420D01*
X106019411Y-60847751D01*
X105940805Y-60693477D01*
X105876778Y-60605352D01*
X105443670Y-61038460D01*
X105400099Y-60962993D01*
X105307007Y-60869901D01*
X105231536Y-60826328D01*
X105664646Y-60393219D01*
X105576528Y-60329197D01*
X105576524Y-60329195D01*
X105422248Y-60250588D01*
X105257579Y-60197084D01*
X105086575Y-60170000D01*
X104913425Y-60170000D01*
X104742420Y-60197084D01*
X104577751Y-60250588D01*
X104423476Y-60329195D01*
X104335352Y-60393219D01*
X104768461Y-60826328D01*
X104692993Y-60869901D01*
X104599901Y-60962993D01*
X104556328Y-61038461D01*
X104123219Y-60605352D01*
X104059195Y-60693476D01*
X103980588Y-60847751D01*
X103927084Y-61012420D01*
X103900000Y-61183424D01*
X94741547Y-61183424D01*
X94754031Y-61170940D01*
X94987976Y-60936993D01*
X95042491Y-60909217D01*
X95095862Y-60915533D01*
X95208165Y-60962051D01*
X95401459Y-61000500D01*
X95401460Y-61000500D01*
X95598540Y-61000500D01*
X95598541Y-61000500D01*
X95791835Y-60962051D01*
X95973914Y-60886632D01*
X96137782Y-60777139D01*
X96277139Y-60637782D01*
X96386632Y-60473914D01*
X96462051Y-60291835D01*
X96500500Y-60098541D01*
X96500500Y-59901459D01*
X96500499Y-59901456D01*
X96489390Y-59845606D01*
X96462051Y-59708165D01*
X96386632Y-59526086D01*
X96277139Y-59362218D01*
X96137782Y-59222861D01*
X96015888Y-59141414D01*
X95978010Y-59093365D01*
X95975608Y-59032227D01*
X96009601Y-58981354D01*
X96067004Y-58960176D01*
X96070891Y-58960100D01*
X99840009Y-58960100D01*
X99898200Y-58979007D01*
X99934164Y-59028507D01*
X99934164Y-59089693D01*
X99898200Y-59139193D01*
X99895010Y-59141416D01*
X99870155Y-59158022D01*
X100341666Y-59629533D01*
X100254394Y-59679920D01*
X100179920Y-59754394D01*
X100129533Y-59841666D01*
X99658022Y-59370155D01*
X99569501Y-59502638D01*
X99490349Y-59693727D01*
X99450000Y-59896581D01*
X99450000Y-60103418D01*
X99490349Y-60306272D01*
X99569501Y-60497361D01*
X99658022Y-60629843D01*
X100129532Y-60158332D01*
X100179920Y-60245606D01*
X100254394Y-60320080D01*
X100341665Y-60370465D01*
X99870154Y-60841977D01*
X100002625Y-60930491D01*
X100002639Y-60930498D01*
X100193727Y-61009650D01*
X100396581Y-61049999D01*
X100396586Y-61050000D01*
X100603414Y-61050000D01*
X100603418Y-61049999D01*
X100806272Y-61009650D01*
X100997360Y-60930498D01*
X101129843Y-60841976D01*
X100658333Y-60370466D01*
X100745606Y-60320080D01*
X100820080Y-60245606D01*
X100870466Y-60158333D01*
X101341976Y-60629843D01*
X101430499Y-60497358D01*
X101473699Y-60393066D01*
X101473699Y-60393065D01*
X101509650Y-60306272D01*
X101549999Y-60103418D01*
X101550000Y-60103413D01*
X101550000Y-59896586D01*
X101549999Y-59896581D01*
X101509650Y-59693727D01*
X101430498Y-59502639D01*
X101430491Y-59502625D01*
X101341976Y-59370154D01*
X100870465Y-59841665D01*
X100820080Y-59754394D01*
X100745606Y-59679920D01*
X100658332Y-59629532D01*
X101129843Y-59158022D01*
X101104990Y-59141416D01*
X101067110Y-59093366D01*
X101064708Y-59032228D01*
X101098701Y-58981354D01*
X101156104Y-58960176D01*
X101159991Y-58960100D01*
X103619318Y-58960100D01*
X103668818Y-58973363D01*
X103732312Y-59010022D01*
X103808738Y-59030500D01*
X103850500Y-59030500D01*
X103908691Y-59049407D01*
X103944655Y-59098907D01*
X103949500Y-59129500D01*
X103949500Y-59599746D01*
X103949501Y-59599758D01*
X103961132Y-59658227D01*
X103961134Y-59658233D01*
X103994497Y-59708163D01*
X104005448Y-59724552D01*
X104071769Y-59768867D01*
X104116231Y-59777711D01*
X104130241Y-59780498D01*
X104130246Y-59780498D01*
X104130252Y-59780500D01*
X104130253Y-59780500D01*
X105869747Y-59780500D01*
X105869748Y-59780500D01*
X105928231Y-59768867D01*
X105994552Y-59724552D01*
X106038867Y-59658231D01*
X106050500Y-59599748D01*
X106050500Y-57860252D01*
X106038867Y-57801769D01*
X105994552Y-57735448D01*
X105994548Y-57735445D01*
X105928233Y-57691134D01*
X105928231Y-57691133D01*
X105928228Y-57691132D01*
X105928227Y-57691132D01*
X105869758Y-57679501D01*
X105869748Y-57679500D01*
X104130252Y-57679500D01*
X104130251Y-57679500D01*
X104130241Y-57679501D01*
X104071772Y-57691132D01*
X104071766Y-57691134D01*
X104005451Y-57735445D01*
X104005445Y-57735451D01*
X103961134Y-57801766D01*
X103961132Y-57801772D01*
X103949501Y-57860241D01*
X103949500Y-57860253D01*
X103949500Y-58265460D01*
X103930593Y-58323651D01*
X103881093Y-58359615D01*
X103824877Y-58361087D01*
X103817462Y-58359100D01*
X65680838Y-58359100D01*
X65680835Y-58359100D01*
X65604411Y-58379578D01*
X65604407Y-58379580D01*
X65535889Y-58419139D01*
X65041899Y-58913127D01*
X64987383Y-58940904D01*
X64926952Y-58931333D01*
X64840830Y-58887452D01*
X64661113Y-58829058D01*
X64474484Y-58799500D01*
X64474481Y-58799500D01*
X64285519Y-58799500D01*
X64285516Y-58799500D01*
X64098886Y-58829058D01*
X63919167Y-58887453D01*
X63750803Y-58973238D01*
X63597928Y-59084309D01*
X63464309Y-59217928D01*
X63353238Y-59370803D01*
X63267453Y-59539167D01*
X63209058Y-59718886D01*
X63179500Y-59905515D01*
X50500500Y-59905515D01*
X50500500Y-52893709D01*
X145649500Y-52893709D01*
X145649500Y-53106290D01*
X145682752Y-53316238D01*
X145748443Y-53518412D01*
X145844948Y-53707815D01*
X145844950Y-53707819D01*
X145969891Y-53879786D01*
X145969893Y-53879788D01*
X145969896Y-53879792D01*
X146120208Y-54030104D01*
X146120211Y-54030106D01*
X146120213Y-54030108D01*
X146292180Y-54155049D01*
X146292184Y-54155051D01*
X146481588Y-54251557D01*
X146683757Y-54317246D01*
X146683758Y-54317246D01*
X146683761Y-54317247D01*
X146893710Y-54350500D01*
X146893713Y-54350500D01*
X147106290Y-54350500D01*
X147316238Y-54317247D01*
X147316239Y-54317246D01*
X147316243Y-54317246D01*
X147518412Y-54251557D01*
X147707816Y-54155051D01*
X147879792Y-54030104D01*
X148030104Y-53879792D01*
X148155051Y-53707816D01*
X148251557Y-53518412D01*
X148317246Y-53316243D01*
X148350500Y-53106287D01*
X148350500Y-52893713D01*
X148350500Y-52893709D01*
X148317247Y-52683761D01*
X148317246Y-52683757D01*
X148251557Y-52481588D01*
X148155051Y-52292184D01*
X148155049Y-52292180D01*
X148030108Y-52120213D01*
X148030106Y-52120211D01*
X148030104Y-52120208D01*
X147879792Y-51969896D01*
X147879788Y-51969893D01*
X147879786Y-51969891D01*
X147707819Y-51844950D01*
X147707815Y-51844948D01*
X147518412Y-51748443D01*
X147316238Y-51682752D01*
X147106290Y-51649500D01*
X147106287Y-51649500D01*
X146893713Y-51649500D01*
X146893710Y-51649500D01*
X146683761Y-51682752D01*
X146481587Y-51748443D01*
X146292184Y-51844948D01*
X146292180Y-51844950D01*
X146120213Y-51969891D01*
X145969891Y-52120213D01*
X145844950Y-52292180D01*
X145844948Y-52292184D01*
X145748443Y-52481587D01*
X145682752Y-52683761D01*
X145649500Y-52893709D01*
X50500500Y-52893709D01*
X50500500Y-50599500D01*
X50519407Y-50541309D01*
X50568907Y-50505345D01*
X50599500Y-50500500D01*
X149400500Y-50500500D01*
X149458691Y-50519407D01*
G37*
G04 #@! TD.AperFunction*
M02*
